<?xml version="1.0" encoding="utf-8"?>
<!-- Generator: Adobe Illustrator 16.0.0, SVG Export Plug-In . SVG Version: 6.00 Build 0)  -->
<!DOCTYPE svg PUBLIC "-//W3C//DTD SVG 1.1//EN" "http://www.w3.org/Graphics/SVG/1.1/DTD/svg11.dtd">
<svg version="1.1" id="Capa_1" xmlns="http://www.w3.org/2000/svg" xmlns:xlink="http://www.w3.org/1999/xlink" x="0px" y="0px"
	 width="400px" height="400px" viewBox="0 0 400 400" enable-background="new 0 0 400 400" xml:space="preserve">
<g>
	<g>
		<g>
			<g>
				<path fill="#F5AE00" d="M167.638,75.902l-63.963-7.492c-0.091-0.01-0.182-0.012-0.274-0.018l-10.493,89.583
					c0.09,0.015,0.179,0.035,0.271,0.046l63.962,7.492c3.006,0.352,5.747-1.76,6.091-4.694l9.247-78.942
					C172.823,78.943,170.644,76.255,167.638,75.902z"/>
				<path opacity="0.65" fill="#F5AE00" d="M167.638,75.902l-63.963-7.492c-0.091-0.01-0.182-0.012-0.274-0.018l-10.493,89.583
					c0.09,0.015,0.179,0.035,0.271,0.046l63.962,7.492c3.006,0.352,5.747-1.76,6.091-4.694l9.247-78.942
					C172.823,78.943,170.644,76.255,167.638,75.902z"/>
				<g>
					<path fill="#FFFFFF" d="M162.898,149.537l0.016-0.132l-67.715-7.932l-0.001,0.012c-4.091-0.355-7.751,2.596-8.232,6.702
						c-0.489,4.183,2.451,7.791,6.635,8.28c0.52,0.061,1.076,0.163,1.593,0.207l65.821,7.709c-3.372-1.109-4.389-4.325-3.96-7.987
						C157.489,152.684,159.298,149.772,162.898,149.537z"/>
					<g>
						<defs>
							<path id="SVGID_1_" d="M162.898,149.537l0.016-0.132l-67.715-7.932l-0.001,0.012c-4.091-0.355-7.751,2.596-8.232,6.702
								c-0.489,4.183,2.451,7.791,6.635,8.28c0.52,0.061,1.003,0.141,1.593,0.207l65.821,7.709c-3.372-1.109-4.389-4.325-3.96-7.987
								C157.489,152.684,159.298,149.772,162.898,149.537z"/>
						</defs>
						<clipPath id="SVGID_2_">
							<use xlink:href="#SVGID_1_"  overflow="visible"/>
						</clipPath>
						<g clip-path="url(#SVGID_2_)">
							
								<rect x="87.024" y="146.907" transform="matrix(0.9932 0.1163 -0.1163 0.9932 17.9846 -13.5758)" fill="#CCD4D3" width="76.524" height="0.732"/>
							
								<rect x="86.595" y="150.58" transform="matrix(0.9932 0.1163 -0.1163 0.9932 18.41 -13.5015)" fill="#CCD4D3" width="76.524" height="0.731"/>
							
								<rect x="86.164" y="154.252" transform="matrix(0.9932 0.1163 -0.1163 0.9932 18.8332 -13.4258)" fill="#CCD4D3" width="76.524" height="0.732"/>
							
								<rect x="85.949" y="156.088" transform="matrix(0.9932 0.1163 -0.1163 0.9932 19.0443 -13.3877)" fill="#CCD4D3" width="76.524" height="0.732"/>
							
								<rect x="85.734" y="157.924" transform="matrix(0.9932 0.1163 -0.1163 0.9932 19.2575 -13.3509)" fill="#CCD4D3" width="76.524" height="0.732"/>
							
								<rect x="86.379" y="152.415" transform="matrix(0.9932 0.1163 -0.1163 0.9932 18.6197 -13.4626)" fill="#CCD4D3" width="76.525" height="0.733"/>
							
								<rect x="86.81" y="148.743" transform="matrix(0.9932 0.1163 -0.1163 0.9932 18.1957 -13.5376)" fill="#CCD4D3" width="76.524" height="0.732"/>
						</g>
					</g>
				</g>
				<g>
					<path fill="#F5AE00" d="M169.601,60.932l-63.962-7.492c-0.092-0.011-0.183-0.012-0.275-0.019l-10.493,89.583
						c0.09,0.015,0.179,0.035,0.271,0.046l63.963,7.492c3.005,0.352,5.746-1.76,6.09-4.694l9.247-78.943
						C174.786,63.972,172.607,61.284,169.601,60.932z"/>
				</g>
				<path fill="#542C37" d="M93.113,156.417c-0.063-0.005-0.192-0.059-0.254-0.068c-2.57-0.378-6.281-3.944-5.84-7.708
					c0.44-3.762,3.637-6.185,7.467-5.736c0.062,0.007,0.347,0.075,0.409,0.085l8.507-74.599c0.069,0.004,0.138,0.008,0.208,0.014
					l1.754-14.979c-0.13-0.021-0.256-0.049-0.389-0.064c-3.861-0.452-7.777,1.609-8.785,5.112c-0.224,0.781-0.447,2.578-0.507,3.211
					c0,0-10.331,86.691-10.374,87.052c-0.042,0.36-0.053,0.717-0.047,1.07l-0.026,0.23l0.036,0.004
					c0.171,4.005,3.273,7.419,7.454,7.909c0.062,0.007,0.124,0.006,0.186,0.012L93.113,156.417z"/>
			</g>
			<polygon fill="#DF0031" points="99.298,161.622 96.438,158.822 93.007,160.885 93.707,154.907 94.408,148.93 97.553,149.299 
				100.698,149.667 99.999,155.644 			"/>
			<path opacity="0.35" fill="#F5AE00" d="M139.217,57.373l-33.579-3.933c-0.092-0.011-0.183-0.012-0.275-0.019l-10.493,89.583
				c0.09,0.015,0.179,0.035,0.271,0.046l33.579,3.933L139.217,57.373z"/>
		</g>
		<path fill="#542C37" d="M156.171,80.772L116.11,76.08c-1.56-0.183-2.688-1.584-2.508-3.116l0.062-0.533
			c0.179-1.531,1.602-2.634,3.161-2.452l40.061,4.692c1.557,0.183,2.687,1.585,2.508,3.116l-0.063,0.533
			C159.152,79.852,157.729,80.955,156.171,80.772z"/>
		<path fill="#542C37" d="M145.083,90.999l-19.985-2.341c-1.275-0.149-2.197-1.296-2.051-2.549l0.051-0.436
			c0.146-1.252,1.309-2.155,2.584-2.006l19.986,2.341c1.276,0.149,2.199,1.297,2.053,2.549l-0.051,0.437
			C147.523,90.245,146.359,91.147,145.083,90.999z"/>
	</g>
	<g>
		<path fill="#B3532C" d="M234.107,184.205c0.67-0.859,1.389-1.642,2.141-2.325c6.053-5.497,14.295-4.617,20.776-0.405
			c14.337,9.317-0.516,25.292,16.438,39.344c16.953,14.053,43.834,24.087,41.112,44.514c-2.723,20.426-25.18,40.128-46.616,27.052
			c-21.438-13.076-25.995-55.722-27.118-63.246c-1.124-7.526-7.249-16.688-10.652-25.012
			C227.638,197.886,229.942,189.552,234.107,184.205z"/>
		<path opacity="0.5" fill="#B3532C" d="M297.354,237.619c3.681,10.628-2.623,31.073-22.569,29.966
			c-12.367-0.685-25.599-22.55-34.265-40.086c0.129,0.554,0.239,1.101,0.32,1.639c1.123,7.524,5.681,50.17,27.118,63.246
			c21.437,13.076,43.894-6.626,46.616-27.052C316.144,253.563,307.88,245.245,297.354,237.619z"/>
		<path fill="#FCD8BE" d="M249.616,224.721c-1.683-2.945-4.441-5.033-7.564-6.036l-17.817-5.721l-10.626-3.412l-2.638-0.846
			c-0.49-0.125-0.975-0.307-1.443-0.544c-0.939-0.474-1.795-1.2-2.488-2.105c-0.179-0.241-0.319-0.438-0.498-0.743l-0.686-1.273
			l-1.369-2.545l-2.74-5.089l-5.479-10.178l-10.959-20.356c0,0,1.209-2.965,1.944-5.412c0.736-2.448-1.213-2.172-1.798-0.3
			c-0.584,1.872-1.631,2.085-1.631,2.085s-0.83-4.232-1.624-6.225c-0.001-0.002-0.001-0.005-0.003-0.008
			c-0.007-0.022-0.018-0.043-0.026-0.065c-0.014-0.036-0.028-0.075-0.043-0.108c-0.487-1.272-1.462-2.194-2.348-1.651
			c-0.928,0.569-1.474,3.011-1.474,3.011c-0.39,1.053-0.519,4.122,0.547,6.348c1.415,2.957,3.644,3.698,3.644,3.698l7.671,21.962
			l3.837,10.982l1.918,5.49l0.959,2.744l0.48,1.373c0.212,0.575,0.494,1.24,0.789,1.835c1.201,2.427,2.918,4.615,5.037,6.32
			c1.057,0.854,2.209,1.595,3.431,2.198l2.509,1.305l9.958,5.186l15.822,8.239c3.363,1.751,7.285,2.047,10.789,0.632
			c2.204-0.891,4.277-2.295,4.992-4.501C251.391,228.844,250.699,226.615,249.616,224.721z"/>
		<path fill="#F291BD" d="M184.869,176.934c0,0,3.178-3.554,5.77-2.792c1.668,2.403,16.027,30.465,18.968,32.285
			c2.941,1.821,32.043,10.893,36.371,12.754c4.327,1.86,8.318,10.231,5.229,14.26c-3.09,4.027-10.78,7.199-24.807-1.548
			c-8.092-3.998-23.261-8.973-28.838-19.294C193.161,202.496,184.869,176.934,184.869,176.934z"/>
		<path fill="#D70073" d="M190.569,173.162c0,0-4.03-0.297-6.571,2.657c0.142,0.824,1.512,5.083,1.512,5.083l3.688-4.564
			l4.007,0.561L190.569,173.162z"/>
		<ellipse fill="#F291BD" cx="185.695" cy="177.006" rx="0.489" ry="0.513"/>
		<path opacity="0.5" fill="#F291BD" d="M245.978,219.181c-1.242-0.534-4.524-1.661-8.64-3.041
			c-5.048,1.823-10.481,6.646-12.379,8.511c-4.011-0.106-18.945-6.765-20.922-7.981c-1.978-1.218,0.658-3.469,0-4.856
			c-0.659-1.389-3.46-0.174-4.942-1.041c-1.481-0.867-6.131-10.101-6.136-10.11c1.664,4.622,3.304,8.955,4.603,11.938
			c5.577,10.321,20.746,15.296,28.838,19.294c14.026,8.747,21.717,5.575,24.807,1.548
			C254.297,229.412,250.305,221.041,245.978,219.181z"/>
		<path fill="#F291BD" d="M265.268,218.871c2.121,1.428,3.759,3.449,4.129,6.298c1.335,10.25-2.759,21.255-3.021,31.663
			c-0.156,6.207-0.31,12.465,0.598,18.583c0.545,3.674,2.202,8.042,1.835,11.779c-0.381,3.873-3.314,4.35-6.117,5.072
			c-6.365,1.641-13.009,1.352-19.472,0.932c-5.074-0.329-10.253-1.117-15.059-3.143c-2.604-1.099-4.425-1.527-4.208-5.149
			c0.231-3.825,1.87-7.312,2.856-10.904c3.019-10.977,0.144-22.245-0.981-33.239c-0.331-3.241-0.37-7.413,0.523-10.553
			c3.194-11.201,13.965-12.687,23.419-14.465c3.621-0.683,7.527-0.043,11.042,1.062
			C262.358,217.291,263.911,217.959,265.268,218.871z"/>
		<path fill="#FCD8BE" d="M250.498,209.499c0,0-1.083,5.267,0.677,9.435c0,0-1.89,2.569-4.081,2.76
			c-0.763,0.067-1.548-0.866-2.321-1.32c-0.057-2.015,1.092-5.907-0.511-9.474C244.735,208.896,248.059,207.892,250.498,209.499z"/>
		<path fill="#D70073" d="M250.49,216.669c0,0,2.756-0.068,2.853,2.046s-3.31,5.936-3.31,5.936l-2.75-2.96
			C247.283,221.69,251.225,219.434,250.49,216.669z"/>
		<path fill="#D70073" d="M244.957,217.938c0,0,0.021,2.118,2.005,3.772c-0.91,2.003-2.133,2.939-2.133,2.939
			s-1.836-1.25-1.671-3.355S243.945,218.083,244.957,217.938z"/>
		<ellipse fill="#D70073" cx="245.055" cy="229.358" rx="1.678" ry="1.767"/>
		<ellipse fill="#D70073" cx="243.377" cy="239.083" rx="1.677" ry="1.767"/>
		<ellipse fill="#D70073" cx="243.838" cy="249.451" rx="1.678" ry="1.767"/>
		<path opacity="0.5" fill="#F291BD" d="M262.69,292.267c2.803-0.723,5.736-1.199,6.117-5.072c0.367-3.737-1.29-8.105-1.835-11.779
			c-0.907-6.118-0.754-12.376-0.598-18.583c0.263-10.408,4.356-21.413,3.021-31.663c-0.165-1.265-0.59-2.358-1.185-3.318
			c-1.565,0.45-3.527,1.97-5.906,4.207c-4.278,4.022-0.307,28.32-1.223,34.134c-0.917,5.813-5.194,6.737-13.365,1.478
			c-5.956-3.836-15.861-9.508-20.795-12.303c0.97,7.097,1.831,14.243,0.614,21.295c1.898,4.981,3.949,10.081,4.517,11.154
			c0.83,1.564,12.169,7.78,20.38,11.693C255.886,293.454,259.327,293.134,262.69,292.267z"/>
		<path fill="#BD1E2D" d="M236.541,322.365c0,0,7.325,5.758,10.352,14.521c3.024,8.762,5.042,0.266,3.907-3.983
			c-1.136-4.248-2.522-13.143-3.278-15.4c-0.757-2.257-5.706-1.651-8.714-1.954C235.799,315.245,235.268,320.058,236.541,322.365z"
			/>
		<path fill="#FCD8BE" d="M230.938,313.309c0.301,0.113,7.411,2.939,7.411,2.939s1.053,1.055,0.685,3.173
			c-0.37,2.117-1.789,2.428-1.789,2.428l-7.407-2.165L230.938,313.309z"/>
		<path fill="#562382" d="M263.985,288.939c-0.819-8.963-7.735-15.454-15.448-14.502c-6.366,0.786-12.498,1.662-18.723,2.596
			c-6.2,0.937-12.394,1.941-18.582,3.015c-12.376,2.173-24.737,4.619-37.104,7.774c-3.862,0.98-6.647,5.104-6.41,9.833
			c0.19,3.822,2.306,6.976,5.185,8.288l0,0l0,0c0.697,0.318,1.436,0.523,2.206,0.607l56.661,15.298c0,0,2.054-0.618,2.705-3.866
			c0.652-3.249-0.62-5.145-0.62-5.145l-22.356-7.117c0.438,0.003,0.875,0,1.313,0.004c6.094,0.069,12.19,0.205,18.285,0.408
			c6.071,0.207,12.24,0.465,18.182,0.824l0.089,0.008c0.704,0.038,1.417,0.014,2.14-0.075
			C259.217,305.938,264.806,297.9,263.985,288.939z"/>
		<path fill="#790002" d="M250.8,332.902c-1.136-4.249-2.522-13.143-3.278-15.4c-0.263-0.786-1.041-1.221-2.063-1.472
			c0.862,1.548,3.368,7.007,4.51,19.762c0.107,2.139-0.266,4.477-1.683,4.096C250.491,342.973,251.749,336.455,250.8,332.902z"/>
		<path opacity="0.5" fill="#562382" d="M264.052,290.321c-2.965-5.53-6.509-11.663-8.135-14.449
			c-2.23-1.204-4.756-1.759-7.38-1.435c-6.366,0.786-12.498,1.662-18.723,2.596c-3.12,0.472-6.239,0.961-9.357,1.467
			c1.955,4.13,6.494,12.862,12.141,18.097c-1.207,1.768-20.01,5.037-25.356,4.856c-5.348-0.182-13.455-1.09-10.522,1.09
			c2.751,2.046,30.138,12.41,37.908,13.005c-0.136-1.73-0.772-2.71-0.772-2.71l-22.356-7.117c0.438,0.003,0.875,0,1.313,0.004
			c6.094,0.069,12.19,0.205,18.285,0.408c6.071,0.207,12.24,0.465,18.182,0.824l0.089,0.008c0.704,0.038,1.417,0.014,2.14-0.075
			C258.817,305.986,264.211,298.712,264.052,290.321z"/>
		<path fill="#BD1E2D" d="M177.235,317.042c0,0-5.201,7.916-13.408,11.415c-8.205,3.498-0.071,5.316,3.919,3.971
			c3.991-1.348,12.381-3.126,14.496-4.002c2.115-0.878,1.363-6.064,1.542-9.243C183.965,316.006,179.378,315.618,177.235,317.042z"
			/>
		<path fill="#FCD8BE" d="M186.322,311.153c-0.122,0.311-3.146,7.652-3.146,7.652s-1.082,0.728-2.972,0.186
			c-1.889-0.543-2.288-1.62-2.288-1.62l2.415-7.687L186.322,311.153z"/>
		<path fill="#662D90" d="M267.677,283.28c-2.823-2.607-5.628-5.122-8.504-7.662c-4.249-3.739-8.561-7.414-13.009-11
			c-4.457-3.585-9.001-7.089-13.969-10.416c-2.501-1.663-5.063-3.284-8.064-4.809c-1.561-0.757-3.089-1.503-5.186-2.154
			l-0.771-0.236l-0.389-0.113l-0.479-0.105c-0.642-0.137-1.286-0.254-1.926-0.352c-0.866-0.084-1.806-0.104-2.695-0.064
			l-0.335,0.018c-0.32,0.034-0.679,0.089-1.015,0.16c-0.632,0.123-1.492,0.409-1.756,0.548c-0.389,0.171-0.77,0.363-1.139,0.572
			c-0.324,0.19-0.51,0.328-0.765,0.505c-0.532,0.37-0.814,0.633-1.137,0.921c-0.353,0.312-0.542,0.529-0.789,0.787
			c-0.253,0.262-0.433,0.479-0.617,0.701c-0.187,0.225-0.374,0.451-0.518,0.649c-0.651,0.846-1.114,1.577-1.589,2.322
			c-0.896,1.456-1.637,2.83-2.34,4.194c-1.393,2.719-2.601,5.374-3.772,8.034c-2.325,5.313-4.438,10.607-6.493,15.918
			c-4.092,10.624-8.824,20.255-12.506,30.986c0,0,1.14,1.21,3.508,1.791c2.367,0.581,4.99,0,4.99,0
			c0.51-0.938,7.14-12.974,13.271-20.95c6.314-8.215,14.72-28.165,14.72-28.165s7.754,12.091,16.168,21.522
			c8.414,9.431,20.849,20.243,20.849,20.243s10.054,6.004,18.643-1.665c2.689-2.402,3.438-5.982,3.398-9.342
			C273.4,291.184,271.199,286.535,267.677,283.28z"/>
		<path fill="#790002" d="M183.553,326.27c-0.671,0.388-2.868,1.503-7.85,2.757c-6.19,1.56-11.61,3.961-14.368,2.474
			c-0.499-0.335-0.336-1.061-0.036-1.681c-3.476,2.581,3.014,3.767,6.447,2.608c3.991-1.348,12.381-3.126,14.496-4.002
			C182.964,328.126,183.348,327.32,183.553,326.27z"/>
		<path opacity="0.5" fill="#562382" d="M267.677,283.28c1.646,5.988-0.643,9.237-10.885,11.667
			c-10.24,2.428-37.076-26.066-38.939-28.246c-1.863-2.181-2.174-7.194-3.002-6.433c-0.827,0.764-0.827,3.599-1.966,2.398
			c-1.139-1.199-1.967-2.725-2.174-1.392c-0.206,1.332,0.913,2.739-2.136,10.346c-3.049,7.605-17.277,30.715-20.53,36.066
			c-2.371,3.901-7.324,4.274-9.84,4.19c-0.095,0.271-0.196,0.535-0.289,0.807c0,0,1.14,1.21,3.508,1.791c2.367,0.581,4.99,0,4.99,0
			c0.51-0.938,7.14-12.974,13.271-20.95c6.314-8.215,14.72-28.165,14.72-28.165s7.754,12.091,16.168,21.522
			c8.414,9.431,20.849,20.243,20.849,20.243s10.054,6.004,18.643-1.665c2.689-2.402,3.438-5.982,3.398-9.342
			C273.4,291.184,271.199,286.535,267.677,283.28z"/>
		<path fill="#FCD8BE" d="M292.415,317.391c-3.637-1.991-6.393-5.3-6.393-5.3l1.308-20.439l0.653-11.538l0.326-5.768l0.078-1.492
			c0.024-0.582,0.02-1.166,0.003-1.75c-0.042-1.169-0.163-2.34-0.368-3.497c-0.201-1.158-0.493-2.304-0.856-3.427
			c-0.409-1.209-0.734-2.013-1.063-2.923l-1.995-5.382l-3.992-10.767l-6.932-18.699c-0.952-2.568-2.763-4.715-5.137-5.876
			c-2.098-1.026-4.814-1.605-7.697-0.244c-2.512,1.188-3.725,3.211-4.274,5.211c-0.769,2.791-0.244,5.803,1.174,8.295l9.995,17.561
			l5.665,9.953l2.832,4.978c0.464,0.816,1.002,1.763,1.257,2.163c0.307,0.539,0.587,1.104,0.819,1.701
			c0.238,0.594,0.432,1.214,0.584,1.854c0.073,0.319,0.142,0.644,0.193,0.973c0.054,0.334,0.1,0.92,0.15,1.369l0.596,5.768
			l1.19,11.538l2.38,20.439c0,0,0.068,4.663-1.789,6.441c-1.856,1.779-2.111,4.802-1.352,4.001c0.761-0.8,3.969-3.733,5.15-3.201
			c1.183,0.534,10.837,1.429,12.438,0.816C298.958,319.535,296.05,319.383,292.415,317.391z"/>
		<path fill="#F291BD" d="M281.16,304.659c0,0,4.118,1.708,5.888-0.058c0.196-3.215,2.396-31.546,2.396-34.915
			c0-3.37-14.14-41.229-15.448-44.119c-1.307-2.887-4.437-9.01-13.661-6.077s-4.706,13.778-2.574,17.468
			c2.133,3.69,18.36,31.513,19.006,34.366C277.41,274.178,281.16,304.659,281.16,304.659z"/>
		<path opacity="0.5" fill="#F291BD" d="M281.712,268.941c-0.752-0.264-2.511-1.058-3.515-2.512
			c-1.005-1.454-11.854-22.967-16.533-30.022c-3.891-5.87,0.046-14.734,1.481-17.555c-0.871,0.121-1.799,0.316-2.812,0.638
			c-9.225,2.933-4.706,13.778-2.574,17.468c2.133,3.69,18.36,31.513,19.006,34.366c0.645,2.854,4.395,33.335,4.395,33.335
			s0.256,0.107,0.669,0.239c-0.384-7.69-3.189-32.08-2.878-33.18C279.307,270.46,282.466,269.207,281.712,268.941z"/>
		<path fill="#D70073" d="M280.987,306.073c0,0,3.204,1.978,6.297,0.349c0.165-0.814,0.498-5.293,0.498-5.293l-4.586,2.618
			l-3.093-2.211L280.987,306.073z"/>
		<ellipse fill="#F291BD" cx="285.827" cy="304.477" rx="0.489" ry="0.515"/>
		<path opacity="0.5" fill="#FCD8BE" d="M246.2,209.006c-0.563,0.999-1.11,2.108-1.538,3.021c0.209,0.702,0.328,1.403,0.388,2.097
			c1.366,0.258,3.59,0.555,5.148,0.17c-0.141-2.641,0.3-4.795,0.3-4.795C249.118,208.589,247.47,208.536,246.2,209.006z"/>
		<path fill="#FCD8BE" d="M240.11,212.663c-1.629-1.57-2.259-4.389-2.828-6.547c-0.895-3.39-1.833-7.666-0.643-11.086
			c2.204-6.424,10.146-10.452,15.106-5.109c3.781,4.071,4.089,10.471,1.892,15.545c-1.872,4.32-7.985,10.642-12.976,7.627
			C240.468,212.976,240.285,212.83,240.11,212.663z"/>
		<path fill="#B3532C" d="M234.083,200.022c0,0-1.651-16.288,11.462-16.53c13.111-0.242,19.594,16.541,7.511,23.63
			c-1.436-4.991-1.287-14.294-1.287-14.294S239.596,200.588,234.083,200.022z"/>
		<path fill="#FCD8BE" d="M251.979,202.69c1.084-2.099,3.358-3.874,5.443-2.125c2.856,2.396-2.182,7.32-3.769,7.947
			c-2.721,1.078-2.622-2.744-2.187-4.486C251.577,203.586,251.752,203.132,251.979,202.69z"/>
		<path opacity="0.5" fill="#FCD8BE" d="M256.261,201.497c-0.838,0.346-1.629,0.805-2.218,1.373c-0.566,0.59-1.069,1.38-1.057,2.064
			c-0.01,0.319,0.137,0.668,0.348,0.807c0.229,0.178,0.593,0.211,0.855,0.089c0.55-0.226,0.903-1.418,0.028-1.915
			c0.468,0.021,0.906,0.484,0.979,1.045c0.072,0.546-0.127,1.177-0.63,1.531c-0.502,0.365-1.164,0.351-1.696,0.049
			c-0.565-0.354-0.805-0.992-0.823-1.596c0.052-1.233,0.769-2.076,1.536-2.674C254.409,201.682,255.35,201.476,256.261,201.497z"/>
	</g>
	<ellipse fill="#2C3F3F" cx="240.521" cy="201.495" rx="1.422" ry="2.7"/>
	<ellipse fill="#2C3F3F" cx="248.314" cy="201.495" rx="1.422" ry="2.7"/>
</g>
</svg>
