<?xml version="1.0" encoding="utf-8"?>
<!-- Generator: Adobe Illustrator 16.0.0, SVG Export Plug-In . SVG Version: 6.00 Build 0)  -->
<!DOCTYPE svg PUBLIC "-//W3C//DTD SVG 1.1//EN" "http://www.w3.org/Graphics/SVG/1.1/DTD/svg11.dtd">
<svg version="1.1" id="Capa_1" xmlns="http://www.w3.org/2000/svg" xmlns:xlink="http://www.w3.org/1999/xlink" x="0px" y="0px"
	 width="400px" height="400px" viewBox="0 0 400 400" enable-background="new 0 0 400 400" xml:space="preserve">
<g>
	<g>
		<g>
			<g>
				<path fill="#F74D0B" d="M204.208,255.839c-1.482,8.063-0.572,16.062,2.211,23.119c0.369,0.387,0.713,0.883,0.587,1.413
					c3.969,9.072,11.09,16.433,20.192,20.123c0.793,0.026,1.703,0.054,2.168,0.788c0.002,0.001,0.002,0.006,0.003,0.009
					c0.002,0.002,0.004,0.002,0.005,0.003c0.978,0.323,1.974,0.607,2.989,0.845c7.741,1.81,15.438,0.827,22.195-2.315
					c0.479-0.459,1.004-0.88,1.553-1.225c0.435-0.27,1.181-0.766,1.705-0.499c7.975-4.768,14.273-12.713,17.176-22.639
					c-0.036-0.341,0.076-0.765,0.176-1.072c0.053-0.171,0.142-0.366,0.264-0.529c0.16-0.652,0.31-1.311,0.443-1.977
					c1.378-6.873,1.006-13.711-0.787-19.983c-0.01,0-0.017-0.003-0.023-0.009c-0.491-0.427-0.514-1.023-0.481-1.634
					c-1.934-5.841-5.117-11.127-9.281-15.4c-0.895-0.353-1.537-1.21-2.117-2.01c-4.322-3.796-9.516-6.582-15.333-7.943
					c-5.236-1.223-10.451-1.171-15.371-0.035c-0.837,0.596-1.782,0.774-2.755,0.76c-12.162,3.896-22.079,14.517-25.214,28.716
					c0.05,0.156,0.078,0.318,0.07,0.484C204.558,255.205,204.402,255.529,204.208,255.839z"/>
				
					<radialGradient id="SVGID_1_" cx="630.5059" cy="191.4683" r="51.9844" gradientTransform="matrix(-0.6239 -0.1458 0.136 -0.6783 616.593 511.0771)" gradientUnits="userSpaceOnUse">
					<stop  offset="0.1572" style="stop-color:#6C503A"/>
					<stop  offset="0.3177" style="stop-color:#56402D"/>
					<stop  offset="0.6013" style="stop-color:#362919"/>
					<stop  offset="0.8389" style="stop-color:#221A0D"/>
					<stop  offset="1" style="stop-color:#1B1509"/>
				</radialGradient>
				<path fill="url(#SVGID_1_)" d="M260.104,272.056C260.086,272.092,260.106,272.053,260.104,272.056L260.104,272.056z"/>
				
					<radialGradient id="SVGID_2_" cx="629.7227" cy="191.5371" r="51.2221" gradientTransform="matrix(-0.6239 -0.1458 0.136 -0.6783 616.593 511.0771)" gradientUnits="userSpaceOnUse">
					<stop  offset="0.1572" style="stop-color:#6C503A"/>
					<stop  offset="0.3177" style="stop-color:#56402D"/>
					<stop  offset="0.6013" style="stop-color:#362919"/>
					<stop  offset="0.8389" style="stop-color:#221A0D"/>
					<stop  offset="1" style="stop-color:#1B1509"/>
				</radialGradient>
				<path fill="url(#SVGID_2_)" d="M257.81,278.091c0.02,0.022,0.037,0.046,0.055,0.068c0.02,0.017,0.038,0.031,0.057,0.046
					L257.81,278.091z"/>
				<g opacity="0.3">
					<path fill="none" d="M260.104,272.056C260.086,272.092,260.106,272.053,260.104,272.056L260.104,272.056z"/>
					<path fill="none" d="M257.921,278.205l-0.073-0.075c-0.001,0-0.003,0.003-0.004,0.003c0.007,0.009,0.014,0.018,0.021,0.026
						C257.884,278.176,257.902,278.19,257.921,278.205z"/>
					<path fill="none" d="M257.81,278.091c0.012,0.014,0.022,0.028,0.034,0.042c0.001,0,0.003-0.003,0.004-0.003L257.81,278.091z"/>
				</g>
				<path fill="#070605" d="M204.579,254.828c-0.02,0.319-0.133,0.6-0.284,0.864c0.149-0.027,0.298-0.059,0.451-0.087
					c0.281-0.057,0.566-0.114,0.854-0.172c0.289-0.057,0.582-0.103,0.88-0.155c0.593-0.098,1.198-0.218,1.821-0.298
					c0.622-0.086,1.255-0.191,1.904-0.266c0.648-0.07,1.308-0.158,1.98-0.224c0.673-0.061,1.355-0.136,2.051-0.189
					c0.695-0.047,1.401-0.104,2.117-0.144c0.718-0.026,1.443-0.066,2.18-0.086c0.735-0.006,1.479-0.031,2.231-0.025
					c1.503-0.001,3.04,0.025,4.601,0.11c3.12,0.153,6.336,0.484,9.577,0.998c0.405,0.058,0.81,0.13,1.215,0.204
					c0.407,0.072,0.813,0.146,1.219,0.22c0.812,0.15,1.623,0.325,2.438,0.49c0.809,0.193,1.624,0.367,2.433,0.574
					c0.804,0.22,1.619,0.401,2.421,0.643c3.217,0.906,6.389,1.998,9.441,3.273c0.764,0.315,1.506,0.65,2.255,0.975
					c0.377,0.178,0.753,0.354,1.126,0.531l0.563,0.264l0.277,0.132l0.26,0.131c1.444,0.723,2.846,1.496,4.183,2.343
					c0.061,0.039,0.118,0.077,0.178,0.117c-0.021,0.069-0.042,0.141-0.067,0.209c-0.286,0.853-0.592,1.7-0.923,2.541
					c-0.327,0.842-0.677,1.682-1.04,2.494c-0.173,0.407-0.38,0.828-0.576,1.247l-0.147,0.314l-0.074,0.158l-0.018,0.039
					c-0.001,0.001-0.001,0.001-0.001,0.001s0.001-0.001,0,0l-0.041,0.077l-0.316,0.603c-0.419,0.811-0.867,1.6-1.303,2.396
					c-0.112,0.192-0.226,0.382-0.338,0.573c-0.777-0.638-1.594-1.229-2.46-1.746c-1.248-0.75-2.589-1.364-3.998-1.753
					c-1.405-0.393-2.867-0.558-4.309-0.534c-1.441,0.028-2.86,0.25-4.236,0.565c-1.375,0.318-2.712,0.742-4.022,1.198
					c-1.311,0.459-2.599,0.942-3.875,1.437c-1.281,0.493-2.546,0.979-3.825,1.438c-1.274,0.467-2.554,0.914-3.838,1.327
					c-1.283,0.41-2.571,0.795-3.871,1.127c-1.297,0.33-2.601,0.627-3.913,0.852c-1.312,0.229-2.631,0.388-3.953,0.464
					c-1.322,0.071-2.646,0.08-3.966-0.023c-1.319-0.103-2.63-0.312-3.916-0.645c-0.499-0.123-0.994-0.269-1.485-0.43
					c0.357,0.381,0.682,0.86,0.567,1.373c0.208,0.077,0.416,0.152,0.625,0.222c1.326,0.438,2.69,0.75,4.066,0.948
					s2.765,0.293,4.15,0.272c1.388-0.014,2.771-0.114,4.144-0.286c1.374-0.172,2.738-0.404,4.089-0.709
					c1.348-0.301,2.688-0.645,4.012-1.034c1.326-0.391,2.637-0.814,3.942-1.259c1.301-0.445,2.598-0.92,3.881-1.392
					c1.285-0.469,2.558-0.953,3.833-1.389c1.273-0.435,2.545-0.83,3.817-1.134c1.274-0.304,2.552-0.499,3.819-0.539
					c1.266-0.04,2.524,0.084,3.747,0.404c1.221,0.313,2.408,0.812,3.541,1.454c0.811,0.464,1.597,0.992,2.356,1.576
					c-0.473,0.757-0.959,1.5-1.459,2.231c-1.006,1.485-2.07,2.915-3.188,4.271c-1.118,1.354-2.277,2.652-3.481,3.864
					c-1.205,1.213-2.447,2.349-3.716,3.401c-2.542,2.095-5.181,3.867-7.813,5.274c-2.636,1.402-5.237,2.493-7.702,3.291
					c-0.783,0.25-1.548,0.476-2.297,0.679c0.749,0.028,1.562,0.101,1.993,0.78c0.001,0.003,0.002,0.008,0.002,0.009
					c0.003,0.003,0.003,0.003,0.005,0.005c0.005,0.001,0.008,0.003,0.011,0.003c0.204-0.051,0.406-0.101,0.611-0.156
					c2.563-0.681,5.303-1.638,8.071-2.997c2.769-1.354,5.589-3.062,8.279-5.183c2.7-2.109,5.274-4.612,7.63-7.41
					c1.688-1.989,3.242-4.143,4.677-6.393c0.241,0.331,0.473,0.668,0.688,1.015c0.461,0.729,0.854,1.498,1.168,2.299
					c0.31,0.802,0.544,1.636,0.67,2.488c0.129,0.854,0.159,1.726,0.088,2.594c-0.067,0.869-0.234,1.732-0.481,2.58
					c-0.25,0.844-0.568,1.675-0.948,2.479c-0.763,1.606-1.752,3.11-2.855,4.514c-0.553,0.702-1.138,1.379-1.743,2.035
					c-0.091,0.1-0.185,0.195-0.274,0.293c0.364-0.315,0.749-0.606,1.148-0.857c0.433-0.271,1.179-0.766,1.701-0.5
					c0.016-0.011,0.032-0.018,0.047-0.028c0.014-0.015,0.028-0.031,0.042-0.049c1.208-1.41,2.315-2.946,3.214-4.658
					c0.895-1.706,1.557-3.614,1.771-5.633c0.107-1.006,0.104-2.035-0.021-3.045c-0.12-1.012-0.367-2.001-0.703-2.946
					c-0.34-0.941-0.77-1.841-1.266-2.681c-0.346-0.594-0.731-1.156-1.135-1.697c0.191-0.318,0.38-0.638,0.569-0.961
					c1.826-3.151,3.374-6.605,4.511-10.095c1.886,1.312,3.646,2.721,5.254,4.187c1.797,1.64,3.435,3.312,4.895,4.976
					c0.001-0.004,0.001-0.005,0.001-0.007c-0.037-0.342,0.075-0.766,0.175-1.073c0.053-0.166,0.139-0.357,0.255-0.517
					c-0.395-0.484-0.798-0.969-1.222-1.453c-0.471-0.547-0.961-1.089-1.467-1.634c-0.514-0.536-1.038-1.078-1.587-1.608
					c-1.724-1.682-3.625-3.325-5.696-4.844c0.867-3.037,1.449-6.118,1.749-9.144c0.062-0.634,0.106-1.264,0.145-1.891
					c1.476,0.054,2.918-0.119,4.298-0.411c1.185-0.252,2.325-0.596,3.427-0.995c-0.003,0-0.003,0-0.005-0.002
					c-0.49-0.424-0.512-1.021-0.481-1.631c-0.002-0.009-0.005-0.016-0.007-0.023c-1.053,0.342-2.131,0.627-3.232,0.823
					c-1.287,0.229-2.607,0.34-3.91,0.251c0.011-0.479,0.017-0.959,0.013-1.434c-0.012-1.736-0.109-3.434-0.281-5.071
					c-0.17-1.64-0.406-3.224-0.699-4.738c-0.298-1.514-0.649-2.958-1.031-4.328c-0.089-0.319-0.183-0.634-0.274-0.944
					c-0.699-0.326-1.242-0.962-1.727-1.609c0.265,0.938,0.521,1.912,0.751,2.932c0.307,1.355,0.578,2.777,0.796,4.26
					c0.226,1.478,0.403,3.017,0.511,4.602c0.108,1.586,0.146,3.22,0.099,4.885c-0.009,0.387-0.024,0.776-0.043,1.165
					c-0.286-0.064-0.571-0.141-0.853-0.23c-0.354-0.114-0.704-0.246-1.044-0.401l-0.535-0.26c-0.096-0.046-0.179-0.092-0.261-0.138
					l-0.25-0.135c-0.669-0.373-1.341-0.81-1.986-1.281c-0.645-0.474-1.27-0.993-1.879-1.544c-1.217-1.101-2.37-2.327-3.495-3.6
					c-2.252-2.553-4.414-5.289-6.759-7.812c-1.17-1.263-2.373-2.483-3.634-3.606c-0.627-0.568-1.271-1.104-1.918-1.63
					c-0.654-0.516-1.313-1.011-1.987-1.473c-2.64-1.835-5.431-3.202-8.172-4.116c-0.101,0.022-0.2,0.049-0.3,0.071
					c-0.834,0.59-1.775,0.769-2.741,0.756c-0.11,0.033-0.219,0.066-0.326,0.102c0.88,0.255,1.769,0.55,2.66,0.892
					c1.303,0.504,2.614,1.091,3.91,1.788c1.296,0.699,2.574,1.505,3.824,2.411s2.468,1.915,3.65,3.01
					c0.594,0.543,1.178,1.112,1.753,1.698c0.579,0.582,1.146,1.187,1.712,1.802c1.128,1.233,2.233,2.523,3.35,3.828
					c1.117,1.308,2.234,2.638,3.41,3.933c1.18,1.293,2.397,2.571,3.735,3.719c0.668,0.574,1.358,1.124,2.077,1.629
					c0.725,0.506,1.468,0.956,2.258,1.36l0.3,0.149c0.102,0.05,0.201,0.099,0.293,0.139l0.583,0.26
					c0.408,0.175,0.826,0.322,1.246,0.447c0.41,0.121,0.826,0.219,1.239,0.298c-0.052,0.611-0.112,1.226-0.188,1.844
					c-0.323,2.682-0.874,5.4-1.645,8.09c-1.313-0.871-2.687-1.688-4.112-2.437l-0.293-0.154l-0.276-0.138l-0.558-0.277
					c-0.37-0.185-0.742-0.37-1.116-0.555c-0.77-0.354-1.543-0.723-2.324-1.065c-1.561-0.666-3.147-1.312-4.762-1.884
					c-0.404-0.143-0.81-0.284-1.215-0.427l-1.224-0.396c-0.408-0.127-0.815-0.27-1.227-0.386l-1.234-0.358
					c-3.301-0.939-6.653-1.656-9.979-2.14c-3.324-0.49-6.623-0.757-9.814-0.832c-1.598-0.037-3.168-0.02-4.703,0.032
					c-0.768,0.027-1.528,0.088-2.275,0.128c-0.749,0.049-1.489,0.123-2.219,0.182c-0.728,0.071-1.443,0.162-2.151,0.239
					c-0.706,0.086-1.397,0.193-2.081,0.285c-0.68,0.105-1.346,0.234-2.002,0.347c-0.653,0.114-1.292,0.261-1.919,0.384
					c-0.627,0.121-1.234,0.28-1.832,0.415c-0.299,0.071-0.592,0.136-0.883,0.21c-0.284,0.077-0.563,0.151-0.841,0.226
					C204.566,254.557,204.587,254.691,204.579,254.828z M257.81,278.091l0.111,0.114c-0.019-0.015-0.037-0.029-0.057-0.046
					C257.847,278.137,257.829,278.113,257.81,278.091z"/>
			</g>
		</g>
		<g>
			<path fill="#E16027" d="M233.564,235.135c1.279,3.032-0.559,6.905-4.105,8.65c-3.546,1.746-7.459,0.703-8.739-2.329
				c-1.278-3.031,0.559-6.904,4.105-8.649C228.372,231.061,232.285,232.104,233.564,235.135z"/>
			<path fill="#E16027" d="M217.637,244.675c0.567,1.344-0.246,3.06-1.818,3.833c-1.571,0.773-3.305,0.312-3.872-1.032
				s0.246-3.059,1.818-3.832C215.336,242.869,217.069,243.331,217.637,244.675z"/>
		</g>
	</g>
	<g>
		<path fill="#0E3944" d="M137.353,78.66c-1.255,3.958,3.929,8.192,3.272,11.12c-0.656,2.928-11.547,13.846-11.547,13.846
			l-12.232,4.572c0,0-11.667-5.754-12.833-11.566c-1.167-5.812,0.98-9.569,1.573-14.752c0.593-5.182-3.924-6.318-1.915-12.75
			c0.737-2.359,1.647-5.027,1.49-7.543c-0.245-3.896,0.473-8.165,3.179-11.215c3.045-3.433,8.247-5.43,12.783-5.02
			c11.75,1.062,12.312,1.386,14.519,9.041C137.848,62.047,141.859,64.455,137.353,78.66z"/>
		<path fill="#EF6E4B" d="M184.848,303.001c-1.872-1.514-6.676-7.992-7.664-11.248c-1.396-4.602-3.049-10.926-4.736-17.816h-7.193
			c2.359,7.516,3.869,13.805,4.545,16.637c-0.022,0.475-0.132,0.871-0.266,1.328c-0.202,0.691-0.602,11.16-0.602,11.16h16.109
			c-0.063-0.02-0.113-0.033-0.145-0.041C184.868,303.011,184.858,303.009,184.848,303.001z"/>
		<path fill="#0E3944" d="M168.12,303.062c0,0-0.71-9.582,1.162-12.084c0,0,2.071,3.289,4.904,3.289
			c1.845,0,2.589-4.244,4.167-3.289c1.384,0.836,2.315,3.23,6.033,5.682s6.739,1.754,6.972,6.402H168.12z"/>
		<path fill="#FF8B66" d="M130.847,273.937h-8.504c1.588,8.76,2.832,16.199,2.832,16.199v12.926h9.266
			c-0.892-3.869-3.469-15.465-3.469-20.355C130.972,279.835,130.926,276.899,130.847,273.937z"/>
		<path fill="#0E3944" d="M123.851,293.069c0,0,0.116-3.184,4.531-2.811c4.415,0.369,4.099,3.572,4.099,3.572s0.665-0.516,1.246,0
			c0.581,0.516,0.089,4.932,1.207,5.861c1.117,0.93,0.769,3.369,0.769,3.369h-12.897c0,0-0.697-3.137,0.581-4.299
			C124.664,297.601,121.41,293.417,123.851,293.069z"/>
		<g>
			<path fill="#8B383E" d="M174.448,281.88c-5.055-19.449-11.312-48.893-12.125-53.77c-0.524-3.15-0.994-13.151-2.234-25.431
				c-0.324-14-1.938-46.015-9.802-64.187l-18.513,0.433c0.749,14.431-13.243,30.003,3.794,46.695
				c2.218,6.232,9.57,27.368,10.637,36.676c1.259,10.983,3.306,15.853,9.658,28.104c5.498,10.605,9.392,22.967,11.722,31.479
				H174.448z"/>
			<path fill="#8B383E" d="M111.699,201.809L111.699,201.809c1.186,6.148,2.869,10.26,3.795,15.434
				c1.348,7.53-2.488,18.444,1.381,30.573c1.832,5.742,5.252,24.703,7.078,35.188h7.025c-0.002-0.1-0.005-0.203-0.005-0.297
				c0-25.521-3.521-55.949-2.998-67.517c0.221-4.877,1.052-11.793,1.927-18.086c0.004-0.031,2.723-18.303,5.375-19.836
				c10.859-6.275,15.011-38.774,15.011-38.774l-27.71,1.289c0,0-16.141,13.412-11.903,37.286c0,0-0.017,0.246-0.039,0.674
				C109.959,188.982,110.624,196.236,111.699,201.809z"/>
			<path fill="#8B383E" d="M155.01,153.864l-39.96-4.41c1.06-1.72,1.92-3.34,2.6-4.8c1.03-2.17,1.7-4.01,2.12-5.43
				c0.61-2.021,0.74-3.19,0.74-3.19l26.23-5.87c1.19,1.26,2.55,4.48,3.81,8.15c0.56,1.62,1.101,3.34,1.59,5.01
				C153.8,148.814,155.01,153.864,155.01,153.864z"/>
			<path fill="#08262D" d="M152.14,143.324c-8.36,5.06-28.68,2.26-34.49,1.33c1.03-2.17,1.7-4.01,2.12-5.43l30.78-0.91
				C151.11,139.935,151.651,141.654,152.14,143.324z"/>
			<path fill="#98A5A8" d="M137.805,137.239l-0.609,9.625c0,0,4.377,0.536,6.859-0.48l-0.75-9.145H137.805z"/>
			<polygon fill="#8B383E" points="130.125,137.239 128.154,148.114 126.055,148.114 128.154,137.697 			"/>
			<polygon fill="#8B383E" points="146.93,137.239 148.837,147.006 150.761,146.268 148.305,137.239 			"/>
		</g>
		<g>
			<path fill="#FF8B66" d="M196.095,126.927c0,0,0,0-5.313,1.608c-5.321,1.599-4.754,2.375-5.783,5.188
				c-0.966,2.631,3.644,4.924,5.798,5.347c1.818,0.369,5.09,3.765,6.675,3.662c0.64-0.041,0.324-0.494-0.839-1.427
				c-1.363-1.099-2.236-2.569-2.236-2.569c1.798-0.751,6.336,3.711,8.137,2.617c0.873-0.535-6.266-3.228-6.338-4.416
				c0,0,0.627-0.335,4.235,0.704c2.072,0.594,4.201,1.225,4.677,0.71c0.865-0.939-3.689-1.433-8.281-3.874
				c0,0,2.338,0.243,4.489,0.615c1.962,0.348,3.761,0.876,3.831-0.012c0.063-0.729-3.016-1.187-4.964-1.553
				c-3.633-0.688-6.142-1.982-7.386-2.743c-0.6-0.358-0.9-0.607-0.9-0.607C197.178,128.091,196.095,126.927,196.095,126.927z"/>
			<path fill="#EF6E4B" d="M191.897,130.178c0,0-1.035,2.218-2.861,2.623c0,0,2.707,0.845,3.762-2.016
				C192.198,130.427,191.897,130.178,191.897,130.178z"/>
		</g>
		<path fill="#FF8B66" d="M137.196,86.512c8.856,2.357,10.356,7.645,19.606,37.126c0,0,5.25,0.131,10.5,2.306
			s21.733,4.756,21.733,4.756l-1.483,4.131c0,0-29.663,0.156-33.75-1.913c-4.086-2.068-13.702-26.563-13.702-26.563L137.196,86.512z
			"/>
		<path fill="#BCC7C9" d="M140.1,87.406c0,0,5.08,2.082,6.455,3.333c1.375,1.251,11.375,32.899,11.375,32.899
			s-4.251,5.31-2.777,9.713c0,0-2.807,0.347-4.232-0.434c-1.227-0.67-13.724-37.895-13.724-37.895L140.1,87.406z"/>
		<path fill="#8C989B" d="M130.436,83.838c-3.511-1.038-12.798-1.264-16.232,0.001c-3.435,1.265,6.92,14.665,6.92,14.665
			l16.073-6.508C137.196,91.996,136.691,85.688,130.436,83.838z"/>
		<g>
			<path fill="#FF8B66" d="M114.583,49.616c0,0,16.421-5.498,19.728,6.063c3.307,11.562,0.304,23.757-7.405,22.941
				C116.061,77.473,101.828,56.12,114.583,49.616z"/>
			
				<ellipse transform="matrix(-0.9945 -0.1048 0.1048 -0.9945 241.2383 144.7209)" fill="#DB614D" cx="124.422" cy="66.021" rx="1.577" ry="1.261"/>
			<g>
				<path fill="#0E3944" d="M124.129,58.767c0.105-0.006,0.207-0.062,0.268-0.157c0.683-1.068,2.007-0.943,2.021-0.941
					c0.188,0.021,0.355-0.116,0.375-0.303c0.021-0.188-0.116-0.355-0.303-0.375c-0.07-0.008-1.759-0.168-2.667,1.252
					c-0.102,0.159-0.055,0.37,0.104,0.471C123.988,58.753,124.06,58.771,124.129,58.767z"/>
			</g>
			<g>
				<path fill="#0E3944" d="M131.698,57.012c0.069-0.004,0.139-0.03,0.197-0.078c0.969-0.804,2.162-0.302,2.212-0.28
					c0.173,0.075,0.374-0.004,0.448-0.177c0.075-0.172-0.002-0.373-0.174-0.448c-0.066-0.029-1.624-0.696-2.921,0.379
					c-0.145,0.121-0.165,0.335-0.045,0.48C131.486,56.976,131.592,57.018,131.698,57.012z"/>
			</g>
			<path fill="#1A4850" d="M133.365,69.13c0,0-2.479,1.597-6.81,0.197c0,0,1.302,5.135,4.056,4.482
				C133.364,73.157,133.365,69.13,133.365,69.13z"/>
			<path fill="#0E3944" d="M121.123,55.559c0,0-3.758,4.789-3.565,11.007c0,0-2.755-3.376-4.196-0.442s4.331,7.22,4.331,7.22
				s-9.295,0.524-10.386-11.496C106.846,56.783,113.419,52.159,121.123,55.559z"/>
			<path fill="#EF6E4B" d="M117.896,70.748c1.26,3.393,6.09,9.271,11.206,7.592c0,0-1.285,5.059,0.842,6.902
				c0,0,2.248,3.915-2.869,4.473c-6.4,0.697-9.964-4.473-9.964-4.473c2.789-6.208-1.041-13.868-1.041-13.868
				C117.452,72.287,117.896,70.748,117.896,70.748z"/>
			<g>
				<path fill="#DB614D" d="M132.548,67.413l-0.304-0.686c0.125-0.057,1.209-0.582,0.774-1.64c-0.132-0.321-0.315-0.525-0.543-0.606
					c-0.403-0.145-0.86,0.103-0.865,0.105l-0.363-0.656c0.03-0.017,0.75-0.41,1.472-0.158c0.441,0.154,0.775,0.5,0.993,1.03
					C134.289,66.206,133.203,67.124,132.548,67.413z"/>
			</g>
			
				<ellipse transform="matrix(-0.9979 0.065 -0.065 -0.9979 256.0432 117.3621)" fill="#1A4850" cx="126.114" cy="62.843" rx="0.849" ry="1.341"/>
			<path fill="#1A4850" d="M124.821,62.707c0,0,0.391-1.701,0.994-1.74c0.603-0.04,1.611,1.092,1.611,1.092l1.106-0.806
				l-1.066,0.418c0,0-0.92-1.295-1.758-1.031C124.871,60.904,124.821,62.707,124.821,62.707z"/>
			
				<ellipse transform="matrix(-0.9979 0.065 -0.065 -0.9979 269.6401 114.7984)" fill="#1A4850" cx="132.953" cy="61.784" rx="0.849" ry="1.341"/>
			<path fill="#1A4850" d="M131.661,61.647c0,0,0.391-1.7,0.994-1.74S134.266,61,134.266,61l1.106-0.806l-1.065,0.418
				c0,0-0.92-1.295-1.758-1.031C131.71,59.845,131.661,61.647,131.661,61.647z"/>
			<path fill="#0E3944" d="M125.281,52.215c0,0,2.482,13.034-7.723,14.35c0,0-3.646-6.196-8.458-1.86c0,0-5.145-14.134,6.971-16.396
				c0,0,2.348-5.377,11.783-3.694c10.327,1.843,8.023,6.866,9.374,9.791c2.544,5.511,8.579,8.716,0.126,24.253
				C137.353,78.66,143.795,50.359,125.281,52.215z"/>
		</g>
		<path fill="#EF6E4B" d="M107.406,87.352c1.38,0.76,3.02,1.57,4.95,2.43c35.16,15.73,26.9,0.99,26.9,0.99
			c-0.02-1.06-0.37-2.05-0.99-2.97c-0.29-0.45-0.65-0.88-1.07-1.29c-2.87-0.96-18.51-5.75-29.12,0.44
			C107.846,87.072,107.626,87.212,107.406,87.352z"/>
		<path fill="#FF8B66" d="M107.406,87.352c1.38,0.76,3.02,1.57,4.95,2.43c35.16,15.73,26.9,0.99,26.9,0.99
			c-0.02-1.06-0.37-2.05-0.99-2.97c-1.28,0.6-3.89,1.78-4.75,1.98l-0.56,2.16l-3-1.94c0,0-10.57,0.3-21.88-3.05
			C107.846,87.072,107.626,87.212,107.406,87.352z"/>
		<path fill="#CFD8DC" d="M133.779,85.518c0,0,5.922,0.974,8.183,3.083c2.262,2.109,11.052,17.379,12.218,22.071
			c0.873,3.508-3.419,25.067-3.419,25.067s2.918,3,1.919,6.383c-0.445,1.507-10.875,0.169-10.875,0.169s-15.701,3.634-23.811,1.634
			s-15.018-27.061-15.666-35.894c-0.648-8.833-2.08-18.239,7.636-22.203c0,0,13.772,1.359,23.911,9.947
			C133.875,95.775,136.712,90.337,133.779,85.518z"/>
		<path fill="#FF8B66" d="M104.463,89.78c5.501-3.578,9.74,7.755,9.006,15.237c-0.331,3.373-9.006,27.9-9.006,27.9l25.973-13.363
			l1.59,4.084c0,0-12.223,8.646-19.557,14.855c-7.333,6.209-15.167,6.273-17.833,4.241c-2.667-2.032,1.667-20.699,3.167-28.366
			S101.264,91.86,104.463,89.78z"/>
		<path fill="#BCC7C9" d="M114.203,83.839c0,0,14.242,3.473,19.672,11.936c0,0,2.566-8.088-3.439-11.937
			c0,0,4.135-0.455,9.665,4.763l-3.748,0.498l-1.769,7.91c0,0-7.425-6.188-11.977-7.229l-7.677-0.681l-6.125-3.271L114.203,83.839z"
			/>
		<path fill="#BCC7C9" d="M134.314,95.536c0,0,1.008,1.895,2.128,4.871c0.561,1.487,1.153,3.245,1.682,5.157
			c0.264,0.957,0.508,1.952,0.74,2.967c0.216,1.019,0.42,2.056,0.587,3.1c0.668,4.17,0.912,8.394,0.896,11.552
			c-0.004,3.161-0.246,5.255-0.246,5.255s0.176-2.101,0.083-5.253c-0.082-3.151-0.456-7.344-1.246-11.464
			c-0.195-1.029-0.426-2.049-0.668-3.05c-0.258-0.998-0.526-1.974-0.814-2.912c-0.576-1.874-1.209-3.592-1.804-5.041
			c-0.594-1.449-1.148-2.63-1.554-3.445c-0.409-0.819-0.66-1.258-0.66-1.258L134.314,95.536z"/>
		<path fill="#BCC7C9" d="M105.587,88.601c0,0,2.718-1.099,6.093,3.395s1.825,18.677,1.825,18.677l-7.918,21.667
			c0,0-10.657,5.255-9.407,11.952c0,0-2.25,0.347-3.375-1.728s4.625-33.33,4.625-33.33s-1.25-1.245,0.125-4.495
			S99.869,91.338,105.587,88.601z"/>
		<path fill="#A1B1B5" d="M105.587,132.339c0,0-5.282,1.092-7.532,2.746s-3.5,5.779-3.5,6.154s1,4.25,1,4.25l2.5-1.176l-0.375,1.968
			l4.175-2.356C101.855,143.925,96.369,141.313,105.587,132.339z"/>
		<path fill="#FF8B66" d="M140.306,115.734c0,0,0,0-5.313,1.609c-5.321,1.599-4.754,2.375-5.783,5.188
			c-0.966,2.63,3.644,4.924,5.798,5.346c1.818,0.37,5.09,3.766,6.675,3.662c0.64-0.04,0.324-0.493-0.838-1.426
			c-1.363-1.099-2.237-2.569-2.237-2.569c1.798-0.751,6.336,3.711,8.137,2.617c0.874-0.535-6.266-3.229-6.338-4.416
			c0,0,0.627-0.335,4.235,0.704c2.072,0.594,4.2,1.224,4.678,0.71c0.865-0.939-3.69-1.433-8.281-3.875c0,0,2.338,0.244,4.488,0.615
			c1.962,0.348,3.76,0.877,3.832-0.012c0.061-0.728-3.016-1.186-4.965-1.552c-3.632-0.689-6.141-1.982-7.385-2.744
			c-0.6-0.357-0.901-0.606-0.901-0.606C141.389,116.898,140.306,115.734,140.306,115.734z"/>
		<path fill="#A1B1B5" d="M158.846,123.638c0,0-3.582,5.187-3.582,6.54s2.666,3.625,2.666,3.625s-2.416,1.413-4.25,1.445
			c0,0,0.084-3.341,0-5.07c-0.084-1.73,4.25-6.54,4.25-6.54H158.846z"/>
	</g>
</g>
</svg>
