<?xml version="1.0" encoding="utf-8"?>
<!-- Generator: Adobe Illustrator 21.0.0, SVG Export Plug-In . SVG Version: 6.00 Build 0)  -->
<svg version="1.1" xmlns="http://www.w3.org/2000/svg" xmlns:xlink="http://www.w3.org/1999/xlink" x="0px" y="0px"
	 viewBox="0 0 800 800" style="enable-background:new 0 0 800 800;" xml:space="preserve">
<style type="text/css">
	.st0{fill:#FCFAE2;}
	.st1{opacity:0.8;}
	.st2{filter:url(#Adobe_OpacityMaskFilter);}
	.st3{filter:url(#Adobe_OpacityMaskFilter_1_);}
	.st4{mask:url(#SVGID_1_);fill:url(#SVGID_2_);}
	.st5{fill:url(#SVGID_3_);}
	.st6{filter:url(#Adobe_OpacityMaskFilter_2_);}
	.st7{filter:url(#Adobe_OpacityMaskFilter_3_);}
	.st8{mask:url(#SVGID_4_);fill:url(#SVGID_5_);}
	.st9{fill:url(#SVGID_6_);}
	.st10{filter:url(#Adobe_OpacityMaskFilter_4_);}
	.st11{filter:url(#Adobe_OpacityMaskFilter_5_);}
	.st12{mask:url(#SVGID_7_);fill:url(#SVGID_8_);}
	.st13{fill:url(#SVGID_9_);}
	.st14{filter:url(#Adobe_OpacityMaskFilter_6_);}
	.st15{filter:url(#Adobe_OpacityMaskFilter_7_);}
	.st16{mask:url(#SVGID_10_);fill:url(#SVGID_11_);}
	.st17{fill:url(#SVGID_12_);}
	.st18{fill:#FFFFFF;}
	.st19{opacity:0.1;fill:#FFFFFF;}
	.st20{fill:#CFD1D2;}
	.st21{fill:#4C6C21;}
	.st22{fill:#5C4701;}
	.st23{fill:#4D3B02;}
	.st24{fill:#77A226;}
</style>
<g id="background">
	<g>
		<g>
			<rect class="st0" width="800" height="800"/>
		</g>
		<g class="st1">
			<g>
				<defs>
					<filter id="Adobe_OpacityMaskFilter" filterUnits="userSpaceOnUse" x="279.9" y="-0.5" width="521.7" height="800">
						<feFlood  style="flood-color:white;flood-opacity:1" result="back"/>
						<feBlend  in="SourceGraphic" in2="back" mode="normal"/>
					</filter>
				</defs>
				<mask maskUnits="userSpaceOnUse" x="279.9" y="-0.5" width="521.7" height="800" id="SVGID_1_">
					<g class="st2">
						<defs>
							<filter id="Adobe_OpacityMaskFilter_1_" filterUnits="userSpaceOnUse" x="279.9" y="-0.5" width="521.7" height="800">
								<feFlood  style="flood-color:white;flood-opacity:1" result="back"/>
								<feBlend  in="SourceGraphic" in2="back" mode="normal"/>
							</filter>
						</defs>
						<mask maskUnits="userSpaceOnUse" x="279.9" y="-0.5" width="521.7" height="800" id="SVGID_1_">
							<g class="st3">
							</g>
						</mask>
						<linearGradient id="SVGID_2_" gradientUnits="userSpaceOnUse" x1="279.9121" y1="399.5" x2="801.6143" y2="399.5">
							<stop  offset="0.5645" style="stop-color:#000000"/>
							<stop  offset="1" style="stop-color:#FFFFFF"/>
						</linearGradient>
						<rect x="279.9" y="-0.5" class="st4" width="521.7" height="800"/>
					</g>
				</mask>
				<linearGradient id="SVGID_3_" gradientUnits="userSpaceOnUse" x1="279.9121" y1="399.5" x2="801.6143" y2="399.5">
					<stop  offset="0.5645" style="stop-color:#F8F6DF"/>
					<stop  offset="1" style="stop-color:#E6D9C3"/>
				</linearGradient>
				<rect x="279.9" y="-0.5" class="st5" width="521.7" height="800"/>
				<defs>
					<filter id="Adobe_OpacityMaskFilter_2_" filterUnits="userSpaceOnUse" x="-1.6" y="0.5" width="521.7" height="800">
						<feFlood  style="flood-color:white;flood-opacity:1" result="back"/>
						<feBlend  in="SourceGraphic" in2="back" mode="normal"/>
					</filter>
				</defs>
				<mask maskUnits="userSpaceOnUse" x="-1.6" y="0.5" width="521.7" height="800" id="SVGID_4_">
					<g class="st6">
						<defs>
							<filter id="Adobe_OpacityMaskFilter_3_" filterUnits="userSpaceOnUse" x="-1.6" y="0.5" width="521.7" height="800">
								<feFlood  style="flood-color:white;flood-opacity:1" result="back"/>
								<feBlend  in="SourceGraphic" in2="back" mode="normal"/>
							</filter>
						</defs>
						<mask maskUnits="userSpaceOnUse" x="-1.6" y="0.5" width="521.7" height="800" id="SVGID_4_">
							<g class="st7">
							</g>
						</mask>
						
							<linearGradient id="SVGID_5_" gradientUnits="userSpaceOnUse" x1="566.666" y1="399.5" x2="1088.3682" y2="399.5" gradientTransform="matrix(-1 0 0 -1 1086.7539 800)">
							<stop  offset="0.5645" style="stop-color:#000000"/>
							<stop  offset="1" style="stop-color:#FFFFFF"/>
						</linearGradient>
						<rect x="-1.6" y="0.5" class="st8" width="521.7" height="800"/>
					</g>
				</mask>
				
					<linearGradient id="SVGID_6_" gradientUnits="userSpaceOnUse" x1="566.666" y1="399.5" x2="1088.3682" y2="399.5" gradientTransform="matrix(-1 0 0 -1 1086.7539 800)">
					<stop  offset="0.5645" style="stop-color:#F8F6DF"/>
					<stop  offset="1" style="stop-color:#E6D9C3"/>
				</linearGradient>
				<rect x="-1.6" y="0.5" class="st9" width="521.7" height="800"/>
			</g>
			<g>
				<defs>
					<filter id="Adobe_OpacityMaskFilter_4_" filterUnits="userSpaceOnUse" x="-0.5" y="-1.6" width="800" height="521.7">
						<feFlood  style="flood-color:white;flood-opacity:1" result="back"/>
						<feBlend  in="SourceGraphic" in2="back" mode="normal"/>
					</filter>
				</defs>
				<mask maskUnits="userSpaceOnUse" x="-0.5" y="-1.6" width="800" height="521.7" id="SVGID_7_">
					<g class="st10">
						<defs>
							<filter id="Adobe_OpacityMaskFilter_5_" filterUnits="userSpaceOnUse" x="-0.5" y="-1.6" width="800" height="521.7">
								<feFlood  style="flood-color:white;flood-opacity:1" result="back"/>
								<feBlend  in="SourceGraphic" in2="back" mode="normal"/>
							</filter>
						</defs>
						<mask maskUnits="userSpaceOnUse" x="-0.5" y="-1.6" width="800" height="521.7" id="SVGID_7_">
							<g class="st11">
							</g>
						</mask>
						
							<linearGradient id="SVGID_8_" gradientUnits="userSpaceOnUse" x1="283.0273" y1="397.3857" x2="804.7294" y2="397.3857" gradientTransform="matrix(0 -1 1 0 2.1143 803.1152)">
							<stop  offset="0.7312" style="stop-color:#000000"/>
							<stop  offset="1" style="stop-color:#FFFFFF"/>
						</linearGradient>
						<rect x="-0.5" y="-1.6" class="st12" width="800" height="521.7"/>
					</g>
				</mask>
				
					<linearGradient id="SVGID_9_" gradientUnits="userSpaceOnUse" x1="283.0273" y1="397.3857" x2="804.7294" y2="397.3857" gradientTransform="matrix(0 -1 1 0 2.1143 803.1152)">
					<stop  offset="0.7312" style="stop-color:#F8F6DF"/>
					<stop  offset="1" style="stop-color:#E6D9C3"/>
				</linearGradient>
				<rect x="-0.5" y="-1.6" class="st13" width="800" height="521.7"/>
				<defs>
					<filter id="Adobe_OpacityMaskFilter_6_" filterUnits="userSpaceOnUse" x="0.5" y="279.9" width="800" height="521.7">
						<feFlood  style="flood-color:white;flood-opacity:1" result="back"/>
						<feBlend  in="SourceGraphic" in2="back" mode="normal"/>
					</filter>
				</defs>
				<mask maskUnits="userSpaceOnUse" x="0.5" y="279.9" width="800" height="521.7" id="SVGID_10_">
					<g class="st14">
						<defs>
							<filter id="Adobe_OpacityMaskFilter_7_" filterUnits="userSpaceOnUse" x="0.5" y="279.9" width="800" height="521.7">
								<feFlood  style="flood-color:white;flood-opacity:1" result="back"/>
								<feBlend  in="SourceGraphic" in2="back" mode="normal"/>
							</filter>
						</defs>
						<mask maskUnits="userSpaceOnUse" x="0.5" y="279.9" width="800" height="521.7" id="SVGID_10_">
							<g class="st15">
							</g>
						</mask>
						
							<linearGradient id="SVGID_11_" gradientUnits="userSpaceOnUse" x1="563.5513" y1="401.6152" x2="1085.2535" y2="401.6152" gradientTransform="matrix(0 1 -1 0 802.1152 -283.6392)">
							<stop  offset="0.7312" style="stop-color:#000000"/>
							<stop  offset="1" style="stop-color:#FFFFFF"/>
						</linearGradient>
						<rect x="0.5" y="279.9" class="st16" width="800" height="521.7"/>
					</g>
				</mask>
				
					<linearGradient id="SVGID_12_" gradientUnits="userSpaceOnUse" x1="563.5513" y1="401.6152" x2="1085.2535" y2="401.6152" gradientTransform="matrix(0 1 -1 0 802.1152 -283.6392)">
					<stop  offset="0.7312" style="stop-color:#F8F6DF"/>
					<stop  offset="1" style="stop-color:#E6D9C3"/>
				</linearGradient>
				<rect x="0.5" y="279.9" class="st17" width="800" height="521.7"/>
			</g>
		</g>
	</g>
	<path class="st18" d="M1100.7,267.3"/>
</g>
<g id="object">
	<path class="st19" d="M587.6,355.3c-0.8-17.1-15.3-30.4-32.5-29.6c-0.9,0-1.7,0.1-2.6,0.2c14.7,1.9,26.3,14.1,27,29.4
		c0.7,16.3-11.2,30.2-27,32.2c1.8,0.2,3.6,0.3,5.5,0.2C575.1,387,588.4,372.5,587.6,355.3z"/>
	<g>
		<ellipse class="st20" cx="399.7" cy="700.3" rx="163.5" ry="23.5"/>
		<g>
			<g>
				<circle class="st21" cx="228.9" cy="208.5" r="45"/>
				<circle class="st21" cx="262.8" cy="177" r="45"/>
				<ellipse class="st21" cx="351.8" cy="142.1" rx="45" ry="45"/>
			</g>
			<g>
				<circle class="st21" cx="337" cy="440.1" r="44.9"/>
				<circle class="st21" cx="461.1" cy="452.2" r="63.6"/>
				<circle class="st21" cx="538.7" cy="442.6" r="45"/>
				<circle class="st21" cx="606.6" cy="388.6" r="45"/>
				<circle class="st21" cx="321" cy="464.6" r="58.2"/>
				<circle class="st21" cx="392.1" cy="455.2" r="45"/>
				<circle class="st21" cx="392.1" cy="427.1" r="45"/>
			</g>
			<g>
				<path class="st22" d="M321.6,695.1c0,0,56.3-45.9,49.1-104.8c-7.1-58.8-92.5-165.8-116.4-172.9c-23.9-7.1,22.6-25,22.6-25
					s29.1,53.7,36.2,52.4c7.1-1.3,2.9-52.4,2.9-52.4h17.8c0,0-3.1,36.3,5.8,68.5c9.4,34,30.9,64.1,36.9,62.1
					c11.6-3.9,9.1-50.4,9.1-69.2c0-18.8-36.2-61.4-36.2-61.4l15.5-3.9c0,0,24,41.3,25.9,33c1.9-8.3,9.1-39.4,9.1-39.4l20.7,5.8
					c0,0-5.8,29.7-7.8,36.2c-1.9,6.5,3.6,11.3,7.8,7.1c4.2-4.2,30.4-30.4,30.4-30.4l21.2,0.9c0,0-35.4,37.9-42.5,54
					c-7.1,16.2-5.8,48.5,3.2,49.1c9.1,0.6,53.9-111.2,53.9-111.2h11.6c0,0-20.9,66.5-17.7,72.4c3.2,5.8,38.2-14.9,41.4-15.5
					c3.2-0.6,0.9-44.6,0.9-44.6l14.2-7.1l-1.3,46.8l45-26.1l3.2,10.3l-76.3,41.4c0,0-43.1,23.2-56.1,43.9
					C438.8,536,433,558.9,430.2,604c-3.9,62.7,47.9,88.6,47.9,88.6L321.6,695.1z"/>
				<path class="st22" d="M277,392.5c0,0-9.8,3.8-18.1,8.5c16.2,12.4,30.2,28.4,48,39.1C295.8,427.2,277,392.5,277,392.5z"/>
				<g>
					<g>
						<path class="st23" d="M382,415.1c-7.5-10-17.1-26.5-17.1-26.5l-4.4,1.1C367.5,398.3,373.6,407.8,382,415.1z"/>
						<path class="st23" d="M413.8,420c2.5-10.4,6.7-32,6.7-32l-9.4-2.6C410.3,396.5,412.1,408.5,413.8,420z"/>
						<path class="st23" d="M451.8,515.3c12.9-20.7,56.1-43.9,56.1-43.9l76.3-41.4l-3.2-10.3l-45,26.1l1.3-46.8l-14.2,7.1
							c0,0,2.3,44-0.9,44.6c-3.1,0.6-34.9,19.4-40.7,16.2c-69.6,46.9-54.6,137.1-79.6,206.3c-2.9,6.8-5.8,14-9.7,20.8l86-1.4
							c0,0-51.7-25.9-47.9-88.6C433,558.9,438.8,536,451.8,515.3z"/>
					</g>
					<path class="st23" d="M309.2,442.6c-10.5-10-32.2-50.1-32.2-50.1s-7.3,2.8-14.6,6.6C274.9,417.8,290.5,433.2,309.2,442.6z"/>
				</g>
			</g>
			<g>
				<circle class="st24" cx="244.7" cy="460" r="45"/>
				<circle class="st24" cx="583.6" cy="442.6" r="48.8"/>
				<circle class="st24" cx="590.7" cy="259.9" r="45"/>
				<circle class="st24" cx="552.3" cy="208.5" r="45"/>
				<circle class="st24" cx="493.7" cy="177" r="45"/>
				<circle class="st24" cx="189.1" cy="312" r="45"/>
				<circle class="st24" cx="204.3" cy="248.1" r="45"/>
				<circle class="st24" cx="260.1" cy="194.1" r="45"/>
				<circle class="st24" cx="324.5" cy="155.4" r="45"/>
				<circle class="st24" cx="305" cy="375" r="45"/>
				<circle class="st24" cx="366" cy="365.3" r="45"/>
				<circle class="st24" cx="534.9" cy="388.6" r="45"/>
				<circle class="st24" cx="465.5" cy="361.4" r="44.9"/>
				<circle class="st24" cx="420.5" cy="370.1" r="45"/>
				<circle class="st24" cx="193.5" cy="388.6" r="66.6"/>
				<circle class="st24" cx="427.1" cy="155.4" r="66.6"/>
				<circle class="st24" cx="597.2" cy="336" r="66.6"/>
			</g>
			<polygon class="st24" points="369.5,168.7 247.5,222 184,293.1 195.9,395.2 284.6,409 427.4,358.9 552.3,402.6 578.3,298.1 
				545.8,222 427.1,168.7 			"/>
			<path class="st19" d="M334.2,198.1c17.5-17.2,45.6-17,62.8,0.5c3.2,3.2,5.8,6.8,7.8,10.6c-1.2-9.2-5.4-18.1-12.4-25.2
				c-17.2-17.5-45.3-17.7-62.8-0.5c-14.2,14-17,35.3-8.2,52.2C319.5,222.3,323.8,208.3,334.2,198.1z"/>
			<path class="st19" d="M171.9,430.7c-28.3-23.3-32.3-65.1-9-93.4c4.3-5.2,9.2-9.6,14.6-13.2c-13.5,3.3-26.1,10.8-35.6,22.3
				c-23.3,28.3-19.3,70.1,9,93.4c23.1,19,55.1,19.8,78.8,4.1C210.2,448.7,188.7,444.5,171.9,430.7z"/>
			<path class="st19" d="M173.5,237.7c12.2-20.9,39-28.1,59.9-15.9c3.9,2.2,7.3,5,10.1,8.1c-3.6-8.5-9.8-15.9-18.4-20.8
				c-20.9-12.2-47.8-5-59.9,15.9c-9.9,17.1-7,38.1,5.8,51.8C165.8,264.5,166.3,250.1,173.5,237.7z"/>
			<path class="st19" d="M492.3,144.9c23.9,3.9,40.1,26.4,36.3,50.3c-0.7,4.4-2.1,8.6-4,12.4c6.6-6.4,11.3-14.8,12.9-24.6
				c3.9-23.9-12.4-46.4-36.3-50.3c-19.5-3.2-38,7.1-46.3,23.9C464.5,147.3,478.2,142.6,492.3,144.9z"/>
			<path class="st19" d="M635.5,308c15,32.6,0.7,71.2-31.9,86.2c-6,2.8-12.3,4.5-18.5,5.4c13.3,2.9,27.6,1.7,40.9-4.5
				c32.6-15,46.9-53.6,31.9-86.2c-12.2-26.6-40.1-41-67.7-37.3C609.4,275.8,626.6,288.7,635.5,308z"/>
		</g>
	</g>
</g>
</svg>
