<?xml version="1.0" encoding="utf-8"?>
<!-- Generator: Adobe Illustrator 16.0.0, SVG Export Plug-In . SVG Version: 6.00 Build 0)  -->
<!DOCTYPE svg PUBLIC "-//W3C//DTD SVG 1.1//EN" "http://www.w3.org/Graphics/SVG/1.1/DTD/svg11.dtd">
<svg version="1.1" id="Capa_1" xmlns="http://www.w3.org/2000/svg" xmlns:xlink="http://www.w3.org/1999/xlink" x="0px" y="0px"
	 width="400px" height="400px" viewBox="0 0 400 400" enable-background="new 0 0 400 400" xml:space="preserve">
<g>
	<ellipse fill="#36B4AF" cx="126.382" cy="209.461" rx="70.328" ry="6.607"/>
	<g>
		<g>
			<g>
				<path fill="#089B58" d="M194.767,144.599c-0.33,0-0.663-0.125-0.944-0.382c-17.692-16.236-35.548-3.771-35.727-3.643
					c-0.728,0.523-1.679,0.245-2.119-0.623c-0.442-0.867-0.208-1.996,0.523-2.519c0.202-0.146,5.033-3.564,12.286-4.809
					c6.705-1.154,16.82-0.583,26.924,8.688c0.676,0.619,0.801,1.773,0.279,2.575C195.686,144.353,195.227,144.599,194.767,144.599z"
					/>
			</g>
		</g>
		<g>
			<g>
				<path fill="#089B58" d="M67.241,140.317c-0.557,0-1.095-0.358-1.369-0.987c-0.396-0.899-0.103-2.007,0.653-2.475
					c0.649-0.405,16.101-9.771,31.854-0.956c0.772,0.434,1.102,1.526,0.738,2.444c-0.364,0.916-1.284,1.312-2.056,0.877
					c-14.379-8.049-28.961,0.798-29.105,0.887C67.727,140.25,67.481,140.317,67.241,140.317z"/>
			</g>
		</g>
		<g>
			<g>
				<path fill="#D9D9D9" d="M135.014,178.685c-0.177,0-0.357-0.04-0.533-0.117l-10.673-4.783c-0.783-0.351-1.178-1.39-0.882-2.319
					c0.296-0.929,1.171-1.398,1.953-1.047l10.671,4.781c0.784,0.35,1.18,1.39,0.885,2.319
					C136.203,178.24,135.626,178.685,135.014,178.685z"/>
			</g>
		</g>
		<g>
			<g>
				<path fill="#D9D9D9" d="M133.255,171.474c0.001,0.816-0.551,1.479-1.236,1.481l-15.34,0.03
					c-0.687,0.001-1.245-0.653-1.248-1.467l0,0c-0.005-0.815,0.549-1.478,1.234-1.483l15.344-0.029
					C132.692,170.002,133.252,170.658,133.255,171.474L133.255,171.474z"/>
			</g>
		</g>
		<g>
			<g>
				<path fill="#D9D9D9" d="M159.429,180.439c0.179,0.976-0.34,1.937-1.158,2.147l-16.696-3.236
					c-0.819,0.212-1.629-0.404-1.806-1.377l0,0c-0.18-0.974,0.341-1.934,1.16-2.147l16.692,3.237
					C158.441,178.852,159.253,179.467,159.429,180.439L159.429,180.439z"/>
			</g>
		</g>
		<g>
			<g>
				<path fill="#D9D9D9" d="M163.166,174.956l-9.679,7.043c-0.717,0.516-0.946,1.625-0.509,2.478
					c0.433,0.851,1.367,1.123,2.084,0.606l9.677-7.043c0.716-0.515,0.946-1.625,0.511-2.477
					C164.814,174.71,163.882,174.438,163.166,174.956z"/>
			</g>
		</g>
		<g>
			<g>
				<g>
					<g>
						<g>
							<polygon fill="#D9D9D9" points="98.718,201.541 70.209,146.618 70.572,146.353 99.083,201.273 							"/>
						</g>
					</g>
					<g>
						<g>
							<polygon fill="#D9D9D9" points="70.572,201.541 70.209,201.273 98.718,146.353 99.083,146.618 							"/>
						</g>
					</g>
					<g>
						<g>
							<polygon fill="#D9D9D9" points="89.382,205.714 79.489,142.273 79.909,142.18 89.803,205.62 							"/>
						</g>
					</g>
					<g>
						<g>
							<polygon fill="#D9D9D9" points="63.133,193.644 62.875,193.239 106.158,154.248 106.416,154.653 							"/>
						</g>
					</g>
					<g>
						<g>
							<polygon fill="#D9D9D9" points="79.826,205.695 79.405,205.604 89.468,142.197 89.887,142.29 							"/>
						</g>
					</g>
					<g>
						<g>
							<polygon fill="#D9D9D9" points="58.597,183.091 58.48,182.604 110.695,164.801 110.813,165.29 							"/>
						</g>
					</g>
					<g>
						<g>
							<polygon fill="#D9D9D9" points="58.765,183.74 58.638,183.251 110.53,164.151 110.655,164.638 							"/>
						</g>
					</g>
					<g>
						<g>
							
								<rect x="57.484" y="173.693" transform="matrix(0.9999 0.0146 -0.0146 0.9999 2.5416 -1.214)" fill="#D9D9D9" width="54.329" height="0.506"/>
						</g>
					</g>
					<g>
						<g>
							<polygon fill="#D9D9D9" points="109.9,185.833 59.237,162.537 59.392,162.063 110.055,185.359 							"/>
						</g>
					</g>
					<g>
						<g>
							<polygon fill="#D9D9D9" points="105.121,195.152 63.896,153.127 64.173,152.742 105.399,194.764 							"/>
						</g>
					</g>
				</g>
				<g>
					<g>
						<g>
							<path fill="#252930" d="M84.297,207.783c-16.087,0-29.176-15.547-29.176-34.651c0-19.105,13.089-34.65,29.176-34.65
								s29.175,15.545,29.175,34.65C113.472,192.236,100.384,207.783,84.297,207.783z M84.424,141.703
								c-14.636,0-26.544,14.141-26.544,31.523s11.908,31.523,26.544,31.523c14.636,0,26.542-14.141,26.542-31.523
								S99.06,141.703,84.424,141.703z"/>
						</g>
					</g>
				</g>
			</g>
			<g>
				<g>
					<path fill="#D9D9D9" d="M84.424,141.703c-14.637,0-26.544,14.141-26.544,31.523c0,17.381,11.907,31.523,26.544,31.523
						c14.633,0,26.542-14.143,26.542-31.523C110.966,155.844,99.058,141.703,84.424,141.703z M84.424,202.681
						c-13.79,0-25.006-13.325-25.006-29.7c0-16.376,11.216-29.7,25.006-29.7c13.789,0,25.005,13.324,25.005,29.7
						C109.429,189.355,98.213,202.681,84.424,202.681z"/>
				</g>
			</g>
		</g>
		<g>
			<g>
				<g>
					<g>
						<g>
							<polygon fill="#D9D9D9" points="189.013,201.448 160.505,146.525 160.868,146.258 189.376,201.18 							"/>
						</g>
					</g>
					<g>
						<g>
							<polygon fill="#D9D9D9" points="160.868,201.448 160.505,201.18 189.013,146.258 189.376,146.525 							"/>
						</g>
					</g>
					<g>
						<g>
							<polygon fill="#D9D9D9" points="179.678,205.619 169.784,142.178 170.204,142.085 180.098,205.527 							"/>
						</g>
					</g>
					<g>
						<g>
							<polygon fill="#D9D9D9" points="153.43,193.549 153.169,193.145 196.453,154.155 196.71,154.558 							"/>
						</g>
					</g>
					<g>
						<g>
							<polygon fill="#D9D9D9" points="170.12,205.604 169.7,205.508 179.761,142.102 180.181,142.197 							"/>
						</g>
					</g>
					<g>
						<g>
							<polygon fill="#D9D9D9" points="148.893,182.996 148.775,182.509 200.988,164.706 201.107,165.195 							"/>
						</g>
					</g>
					<g>
						<g>
							<polygon fill="#D9D9D9" points="149.059,183.645 148.933,183.16 200.822,164.06 200.95,164.545 							"/>
						</g>
					</g>
					<g>
						<g>
							
								<rect x="147.779" y="173.596" transform="matrix(0.9999 0.0145 -0.0145 0.9999 2.5372 -2.5164)" fill="#D9D9D9" width="54.326" height="0.51"/>
						</g>
					</g>
					<g>
						<g>
							<polygon fill="#D9D9D9" points="200.193,185.738 149.532,162.442 149.687,161.969 200.349,185.266 							"/>
						</g>
					</g>
					<g>
						<g>
							<polygon fill="#D9D9D9" points="195.416,195.057 154.191,153.035 154.469,152.65 195.695,194.67 							"/>
						</g>
					</g>
				</g>
				<g>
					<g>
						<g>
							<path fill="#252930" d="M174.592,207.688c-16.085,0-29.175-15.546-29.175-34.65c0-19.106,13.089-34.651,29.175-34.651
								c16.086,0,29.174,15.545,29.174,34.651C203.766,192.143,190.678,207.688,174.592,207.688z M174.718,141.608
								c-14.635,0-26.542,14.143-26.542,31.524c0,17.383,11.907,31.524,26.542,31.524c14.636,0,26.542-14.142,26.542-31.524
								C201.261,155.751,189.354,141.608,174.718,141.608z"/>
						</g>
					</g>
				</g>
			</g>
			<g>
				<g>
					<path fill="#D9D9D9" d="M174.718,141.608c-14.635,0-26.542,14.141-26.542,31.524s11.907,31.524,26.542,31.524
						c14.634,0,26.542-14.142,26.542-31.524S189.353,141.608,174.718,141.608z M174.718,202.586c-13.79,0-25.007-13.324-25.007-29.7
						c0-16.375,11.217-29.7,25.007-29.7c13.786,0,25.004,13.325,25.004,29.7C199.723,189.262,188.504,202.586,174.718,202.586z"/>
				</g>
			</g>
		</g>
		<g>
			<g>
				<path fill="#089B58" d="M84.436,176.442c-0.212,0-0.425-0.053-0.632-0.161c-0.779-0.415-1.127-1.502-0.777-2.425l25.016-66.147
					c0.348-0.923,1.262-1.336,2.042-0.921c0.778,0.416,1.125,1.501,0.775,2.425l-25.014,66.145
					C85.589,176.04,85.025,176.442,84.436,176.442z"/>
			</g>
		</g>
		<g>
			<g>
				<path fill="#089B58" d="M150.522,138.666c-0.119,0-0.239-0.012-0.36-0.036l-47.204-9.061c-1.22-0.234-2.047-1.596-1.851-3.042
					c0.198-1.447,1.343-2.431,2.563-2.195l47.204,9.059c1.218,0.234,2.045,1.598,1.849,3.044
					C152.548,137.738,151.599,138.666,150.522,138.666z"/>
			</g>
		</g>
		<g>
			<g>
				<path fill="#089B58" d="M137.302,177.345c-0.375,0-0.742-0.167-1.019-0.479l-37.088-41.459
					c-0.599-0.671-0.627-1.791-0.063-2.502c0.563-0.711,1.505-0.746,2.105-0.076l35.551,39.744l18.521-50.034
					c0.332-0.894,1.211-1.301,1.963-0.908c0.753,0.396,1.095,1.439,0.765,2.334l-19.37,52.324c-0.196,0.527-0.594,0.906-1.067,1.021
					C137.502,177.334,137.402,177.345,137.302,177.345z"/>
			</g>
		</g>
		<g>
			<g>
				<path fill="#089B58" d="M175.185,176.819c-0.642,0-1.263-0.393-1.61-1.097l-20.727-42.134c-0.521-1.055-0.221-2.408,0.668-3.024
					c0.886-0.616,2.027-0.259,2.545,0.793l20.73,42.134c0.518,1.053,0.22,2.407-0.668,3.024
					C175.828,176.721,175.504,176.819,175.185,176.819z"/>
			</g>
		</g>
		<g>
			<g>
				<path fill="#252930" d="M144.768,124.394h17.365c2.301,0,1.993-2.311,1.993-2.311v-3.467c-0.086-2.699-1.993-2.43-1.993-2.43
					l-13.889,2.621C148.244,118.807,144.768,119.26,144.768,124.394z"/>
			</g>
		</g>
		<g>
			<g>
				<ellipse fill="#D9D9D9" cx="135.693" cy="176.883" rx="7.911" ry="9.395"/>
			</g>
		</g>
		<g>
			<g>
				<ellipse fill="#C0BFBF" cx="135.692" cy="176.883" rx="5.788" ry="6.873"/>
			</g>
		</g>
		<g>
			<g>
				<ellipse fill="#ABABAA" cx="135.692" cy="176.883" rx="3.157" ry="3.75"/>
			</g>
		</g>
	</g>
	<g>
		<g>
			<path fill="#089B58" d="M126.476,112.875c-0.616,0-1.197-0.438-1.435-1.16c-0.616-1.837-4.151-1.764-7.571-1.696
				c-1.914,0.039-3.895,0.081-5.749-0.173c-6.89-0.939-8.283-3.591-9.389-6.959c-0.251-0.771-0.478-1.46-0.845-2.103
				c-1.59-0.184-2.86,0.142-3.678,0.468c-0.81,0.323-1.686-0.196-1.957-1.157c-0.273-0.96,0.164-2,0.975-2.322
				c1.242-0.496,3.248-0.99,5.726-0.525c0.359,0.065,0.685,0.28,0.922,0.603c0.942,1.275,1.365,2.565,1.737,3.703
				c0.741,2.256,1.275,3.886,6.861,4.646c1.654,0.227,3.529,0.188,5.345,0.151c4.469-0.09,9.092-0.185,10.495,4.012
				c0.314,0.944-0.073,2.008-0.866,2.384C126.859,112.831,126.667,112.875,126.476,112.875z"/>
		</g>
	</g>
	<g>
		<g>
			
				<path fill="none" stroke="#089B58" stroke-width="47.5136" stroke-linecap="round" stroke-linejoin="round" stroke-miterlimit="10" d="
				M98.096,136.627"/>
		</g>
	</g>
</g>
<g>
	<ellipse fill="#36B4AF" cx="253.791" cy="293.382" rx="82.001" ry="6.671"/>
	<g>
		<g>
			<g>
				<path fill="#D9D9D9" d="M264.81,264.191c-0.21,0-0.419-0.038-0.623-0.118l-12.445-4.828c-0.914-0.354-1.374-1.403-1.029-2.343
					c0.345-0.938,1.365-1.413,2.276-1.057l12.443,4.827c0.916,0.353,1.374,1.403,1.029,2.342
					C266.194,263.742,265.524,264.191,264.81,264.191z"/>
			</g>
		</g>
		<g>
			<g>
				<path fill="#D9D9D9" d="M262.758,256.91c0,0.824-0.643,1.491-1.442,1.498l-17.889,0.027c-0.798,0.002-1.451-0.657-1.453-1.479
					l0,0c-0.004-0.824,0.641-1.493,1.44-1.496l17.893-0.03C262.103,255.426,262.755,256.088,262.758,256.91L262.758,256.91z"/>
			</g>
		</g>
		<g>
			<g>
				<g>
					<g>
						<g>
							<polygon fill="#D9D9D9" points="221.699,287.266 188.455,231.816 188.883,231.548 222.122,286.997 							"/>
						</g>
					</g>
					<g>
						<g>
							<polygon fill="#D9D9D9" points="188.883,287.266 188.455,286.997 221.699,231.548 222.122,231.816 							"/>
						</g>
					</g>
					<g>
						<g>
							<polygon fill="#D9D9D9" points="210.813,291.481 199.277,227.428 199.767,227.335 211.302,291.388 							"/>
						</g>
					</g>
					<g>
						<g>
							<polygon fill="#D9D9D9" points="180.206,279.293 179.904,278.886 230.373,239.52 230.675,239.928 							"/>
						</g>
					</g>
					<g>
						<g>
							<polygon fill="#D9D9D9" points="199.669,291.464 199.18,291.369 210.91,227.35 211.401,227.447 							"/>
						</g>
					</g>
					<g>
						<g>
							<polygon fill="#D9D9D9" points="174.916,268.641 174.781,268.148 235.663,250.175 235.799,250.667 							"/>
						</g>
					</g>
					<g>
						<g>
							<polygon fill="#D9D9D9" points="175.113,269.294 174.965,268.804 235.47,249.52 235.616,250.01 							"/>
						</g>
					</g>
					<g>
						<g>
							
								<rect x="173.621" y="259.149" transform="matrix(0.9999 0.0126 -0.0126 0.9999 3.2796 -2.562)" fill="#D9D9D9" width="63.345" height="0.515"/>
						</g>
					</g>
					<g>
						<g>
							<polygon fill="#D9D9D9" points="234.737,271.406 175.664,247.888 175.844,247.41 234.916,270.93 							"/>
						</g>
					</g>
					<g>
						<g>
							<polygon fill="#D9D9D9" points="229.162,280.815 181.094,238.39 181.419,238 229.486,280.427 							"/>
						</g>
					</g>
				</g>
				<g>
					<g>
						<g>
							<path fill="#252930" d="M204.882,293.569c-18.756,0-34.016-15.694-34.016-34.983c0-19.291,15.26-34.984,34.016-34.984
								c18.759,0,34.019,15.693,34.019,34.984C238.9,277.875,223.641,293.569,204.882,293.569z M205.029,226.853
								c-17.063,0-30.946,14.279-30.946,31.829c0,17.549,13.882,31.825,30.946,31.825c17.067,0,30.95-14.276,30.95-31.825
								C235.979,241.132,222.097,226.853,205.029,226.853z"/>
						</g>
					</g>
				</g>
			</g>
			<g>
				<g>
					<path fill="#D9D9D9" d="M205.029,226.853c-17.063,0-30.946,14.278-30.946,31.829c0,17.549,13.882,31.825,30.946,31.825
						c17.065,0,30.95-14.276,30.95-31.825C235.979,241.131,222.095,226.853,205.029,226.853z M205.029,288.419
						c-16.077,0-29.156-13.454-29.156-29.985c0-16.536,13.079-29.986,29.156-29.986c16.078,0,29.159,13.45,29.159,29.986
						C234.188,274.965,221.107,288.419,205.029,288.419z"/>
				</g>
			</g>
		</g>
		<g>
			<g>
				<g>
					<g>
						<g>
							<polygon fill="#D9D9D9" points="326.98,287.172 293.738,231.723 294.164,231.453 327.405,286.903 							"/>
						</g>
					</g>
					<g>
						<g>
							<polygon fill="#D9D9D9" points="294.164,287.172 293.738,286.903 326.98,231.453 327.405,231.723 							"/>
						</g>
					</g>
					<g>
						<g>
							<polygon fill="#D9D9D9" points="316.096,291.384 304.559,227.335 305.052,227.24 316.583,291.292 							"/>
						</g>
					</g>
					<g>
						<g>
							<polygon fill="#D9D9D9" points="285.489,279.201 285.186,278.79 335.654,239.426 335.958,239.834 							"/>
						</g>
					</g>
					<g>
						<g>
							<polygon fill="#D9D9D9" points="304.95,291.369 304.461,291.272 316.191,227.256 316.683,227.35 							"/>
						</g>
					</g>
					<g>
						<g>
							<polygon fill="#D9D9D9" points="280.201,268.546 280.062,268.053 340.944,250.079 341.082,250.573 							"/>
						</g>
					</g>
					<g>
						<g>
							<polygon fill="#D9D9D9" points="280.396,269.199 280.246,268.71 340.75,249.425 340.897,249.916 							"/>
						</g>
					</g>
					<g>
						<g>
							
								<rect x="278.902" y="259.057" transform="matrix(0.9999 0.0126 -0.0126 0.9999 3.2949 -3.8961)" fill="#D9D9D9" width="63.343" height="0.513"/>
						</g>
					</g>
					<g>
						<g>
							<polygon fill="#D9D9D9" points="340.019,271.313 280.944,247.792 281.125,247.314 340.197,270.834 							"/>
						</g>
					</g>
					<g>
						<g>
							<polygon fill="#D9D9D9" points="334.445,280.722 286.377,238.295 286.702,237.906 334.77,280.331 							"/>
						</g>
					</g>
				</g>
				<g>
					<g>
						<g>
							<path fill="#252930" d="M310.166,293.474c-18.759,0-34.019-15.695-34.019-34.981c0-19.291,15.26-34.985,34.019-34.985
								c18.756,0,34.018,15.694,34.018,34.985C344.184,277.778,328.922,293.474,310.166,293.474z M310.313,226.759
								c-17.063,0-30.947,14.279-30.947,31.827c0,17.549,13.884,31.827,30.947,31.827c17.065,0,30.948-14.278,30.948-31.827
								C341.261,241.038,327.378,226.759,310.313,226.759z"/>
						</g>
					</g>
				</g>
			</g>
			<g>
				<g>
					<path fill="#D9D9D9" d="M310.313,226.759c-17.063,0-30.947,14.276-30.947,31.827c0,17.549,13.884,31.827,30.947,31.827
						c17.065,0,30.948-14.278,30.948-31.827C341.261,241.035,327.378,226.759,310.313,226.759z M310.313,288.324
						c-16.077,0-29.156-13.453-29.156-29.986c0-16.534,13.079-29.986,29.156-29.986c16.078,0,29.155,13.452,29.155,29.986
						C339.468,274.871,326.391,288.324,310.313,288.324z"/>
				</g>
			</g>
		</g>
		<g>
			<g>
				<path fill="#594695" d="M205.046,261.929c-0.242,0-0.489-0.052-0.726-0.157c-0.91-0.412-1.325-1.507-0.923-2.442l31.914-74.712
					c0.4-0.938,1.466-1.363,2.376-0.951c0.909,0.411,1.325,1.504,0.924,2.44l-31.917,74.712
					C206.398,261.515,205.737,261.929,205.046,261.929z"/>
			</g>
		</g>
		<g>
			<g>
				<path fill="#594695" d="M282.101,223.787c-0.138,0-0.278-0.011-0.421-0.035l-55.038-9.148c-1.42-0.234-2.386-1.61-2.158-3.071
					c0.229-1.461,1.569-2.453,2.988-2.217l55.038,9.146c1.423,0.238,2.387,1.613,2.158,3.074
					C284.462,222.852,283.356,223.787,282.101,223.787z"/>
			</g>
		</g>
		<g>
			<g>
				<path fill="#594695" d="M266.688,262.839c-0.44,0-0.866-0.17-1.191-0.486l-43.796-42.394c-0.702-0.676-0.731-1.807-0.075-2.526
					c0.658-0.717,1.757-0.751,2.457-0.074l42.005,40.661l21.595-50.514c0.387-0.903,1.412-1.313,2.288-0.916
					c0.879,0.398,1.278,1.451,0.894,2.354l-22.589,52.829c-0.226,0.531-0.689,0.914-1.242,1.029
					C266.918,262.827,266.805,262.839,266.688,262.839z"/>
			</g>
		</g>
		<g>
			<g>
				<path fill="#D9D9D9" d="M274.033,262.372c0,5.237-4.131,9.484-9.224,9.484c-5.098,0-9.225-4.247-9.225-9.484
					c0-5.24,4.127-9.486,9.225-9.486C269.902,252.886,274.033,257.132,274.033,262.372z"/>
			</g>
		</g>
		<g>
			<g>
				<path fill="#C0BFBF" d="M271.557,262.372c0,3.832-3.02,6.938-6.747,6.938c-3.73,0-6.749-3.106-6.749-6.938
					c0-3.835,3.019-6.942,6.749-6.942C268.537,255.43,271.557,258.537,271.557,262.372z"/>
			</g>
		</g>
		<g>
			<g>
				<ellipse fill="#ABABAA" cx="264.81" cy="262.372" rx="3.68" ry="3.785"/>
			</g>
		</g>
		<g>
			<g>
				<path fill="#594695" d="M310.856,262.308c-0.748,0-1.474-0.396-1.876-1.107l-24.17-42.538c-0.605-1.064-0.257-2.431,0.778-3.054
					c1.036-0.622,2.363-0.263,2.97,0.803l24.17,42.537c0.604,1.065,0.256,2.432-0.778,3.055
					C311.605,262.209,311.229,262.308,310.856,262.308z"/>
			</g>
		</g>
		<g>
			<g>
				<path fill="#252930" d="M275.391,209.38h20.247c2.683,0,2.323-2.335,2.323-2.335v-3.501c-0.099-2.724-2.323-2.452-2.323-2.452
					l-16.193,2.646C279.444,203.737,275.391,204.197,275.391,209.38z"/>
			</g>
		</g>
		<g>
			<g>
				<path fill="#D9D9D9" d="M292,262.003c0.209,0.986-0.396,1.954-1.351,2.166l-18.192,0.696c-0.955,0.214-1.897-0.409-2.106-1.393
					l0,0c-0.208-0.982,0.398-1.953,1.354-2.165l18.19-0.695C290.85,260.399,291.794,261.019,292,262.003L292,262.003z"/>
			</g>
		</g>
		<g>
			<g>
				<path fill="#D9D9D9" d="M296.831,257.983l-12.135,5.428c-0.898,0.398-1.316,1.469-0.928,2.395
					c0.385,0.923,1.425,1.349,2.325,0.953l12.131-5.431c0.899-0.394,1.318-1.465,0.932-2.388
					C298.769,258.015,297.729,257.589,296.831,257.983z"/>
			</g>
		</g>
	</g>
	<g>
		<g>
			<path fill="#594695" d="M260.595,191.254c-0.575,0-1.121-0.356-1.345-0.941c-0.807-2.088-5.056-2.014-9.161-1.941
				c-2.221,0.039-4.518,0.08-6.656-0.172c-7.854-0.928-9.373-3.401-10.66-6.797c-0.309-0.822-0.606-1.605-1.119-2.338
				c-1.986-0.227-3.582,0.123-4.599,0.475c-0.757,0.262-1.576-0.158-1.831-0.939c-0.254-0.778,0.155-1.622,0.912-1.885
				c1.414-0.486,3.692-0.973,6.511-0.518c0.336,0.055,0.639,0.229,0.864,0.492c1.055,1.238,1.535,2.51,1.961,3.631
				c0.872,2.306,1.563,4.128,8.291,4.921c1.946,0.229,4.149,0.19,6.275,0.153c5.328-0.096,10.356-0.183,11.902,3.822
				c0.294,0.763-0.07,1.627-0.811,1.932C260.953,191.219,260.772,191.254,260.595,191.254z"/>
		</g>
	</g>
	<g>
		<g>
			<path fill="#594695" d="M333.668,230.167c-0.464,0-0.932-0.152-1.326-0.467c-20.432-16.233-41.033-3.779-41.239-3.653
				c-1.025,0.636-2.361,0.296-2.979-0.758c-0.619-1.056-0.29-2.428,0.737-3.065c0.238-0.147,5.935-3.637,14.463-4.907
				c7.889-1.175,19.787-0.592,31.672,8.851c0.95,0.752,1.123,2.156,0.393,3.13C334.959,229.867,334.314,230.167,333.668,230.167z"/>
		</g>
	</g>
	<g>
		<g>
			<path fill="#594695" d="M184.977,225.841c-0.782,0-1.541-0.436-1.927-1.199c-0.555-1.091-0.143-2.44,0.917-3.011
				c0.766-0.411,18.941-9.952,37.473-0.97c1.085,0.524,1.549,1.854,1.036,2.971c-0.509,1.115-1.802,1.593-2.889,1.066
				c-16.603-8.045-33.439,0.8-33.608,0.889C185.658,225.76,185.313,225.841,184.977,225.841z"/>
		</g>
	</g>
	<g>
		<g>
			<g>
				<path fill="#594695" d="M225.602,213.096h-30.078c-0.562,0-1.034-0.434-1.096-1.006l-2.212-19.785
					c-0.034-0.32,0.065-0.644,0.274-0.885c0.21-0.24,0.51-0.381,0.823-0.381h40.109c0.37,0,0.713,0.189,0.917,0.502
					c0.206,0.315,0.245,0.713,0.106,1.063l-7.823,19.784C226.453,212.816,226.049,213.096,225.602,213.096z M196.51,210.824h28.346
					l6.926-17.513h-37.228L196.51,210.824z"/>
			</g>
		</g>
		<g>
			<g>
				<path fill="#594695" d="M203.689,212.996c-0.609,0-1.104-0.509-1.104-1.136v-18.802c0-0.626,0.495-1.135,1.104-1.135
					s1.104,0.509,1.104,1.135v18.802C204.793,212.487,204.299,212.996,203.689,212.996z"/>
			</g>
		</g>
		<g>
			<g>
				<path fill="#594695" d="M212.104,212.996c-0.612,0-1.105-0.509-1.105-1.136v-18.802c0-0.626,0.493-1.135,1.105-1.135
					c0.608,0,1.102,0.509,1.102,1.135v18.802C213.205,212.487,212.712,212.996,212.104,212.996z"/>
			</g>
		</g>
		<g>
			<g>
				<path fill="#594695" d="M220.514,212.996c-0.612,0-1.105-0.509-1.105-1.136v-18.802c0-0.626,0.493-1.135,1.105-1.135
					c0.61,0,1.104,0.509,1.104,1.135v18.802C221.618,212.487,221.124,212.996,220.514,212.996z"/>
			</g>
		</g>
		<g>
			<g>
				<path fill="#594695" d="M229.535,202.84h-35.158c-0.608,0-1.103-0.508-1.103-1.137c0-0.627,0.494-1.135,1.103-1.135h35.158
					c0.61,0,1.107,0.508,1.107,1.135C230.643,202.332,230.146,202.84,229.535,202.84z"/>
			</g>
		</g>
	</g>
</g>
</svg>
