<?xml version="1.0" encoding="utf-8"?>
<!-- Generator: Adobe Illustrator 16.0.0, SVG Export Plug-In . SVG Version: 6.00 Build 0)  -->
<!DOCTYPE svg PUBLIC "-//W3C//DTD SVG 1.1//EN" "http://www.w3.org/Graphics/SVG/1.1/DTD/svg11.dtd">
<svg version="1.1" id="Capa_1" xmlns="http://www.w3.org/2000/svg" xmlns:xlink="http://www.w3.org/1999/xlink" x="0px" y="0px"
	 width="400px" height="400px" viewBox="0 0 400 400" enable-background="new 0 0 400 400" xml:space="preserve">
<g>
	<g>
		<path fill="#08A8A4" d="M185.539,112.323c0,0,25.82,71.738,41.8,78.89c15.978,7.155,33.292,16.13,32.735,26.123
			c-0.559,10.004-15.658,20.814-31.285,13.267c-15.624-7.546-24.21-10.001-27.616-10.009c-3.404-0.015-20.043,1.065-20.974-11.207
			c-0.928-12.281-1.791-20.716-7.918-36.198c-6.123-15.481-17.939-46.606-17.939-46.606S178.298,112.458,185.539,112.323z"/>
		<path fill="#006C64" d="M185.539,112.323c-7.241,0.135-31.196,14.26-31.196,14.26s3.152,8.301,7.041,18.456
			c0.002-0.001,23.129-13.311,31.362-14.052l0,0C188.373,120.197,185.539,112.323,185.539,112.323z"/>
		<path fill="#006C64" d="M236.056,232.869c12.741,1.899,23.551-7.102,24.019-15.533c0.251-4.449-3.053-8.697-8.195-12.673
			C251.541,204.417,235.143,209.107,236.056,232.869z"/>
		<g>
			<polygon fill="#006B6E" points="171.701,161.083 167.809,159.387 169.402,155.261 173.293,156.96 			"/>
			<polygon fill="#006B6E" points="177.758,158.403 173.863,156.705 175.461,152.581 179.352,154.276 			"/>
			<polygon fill="#006B6E" points="183.813,155.72 179.921,154.025 181.515,149.901 185.408,151.599 			"/>
			<polygon fill="#006B6E" points="189.87,153.042 185.976,151.346 187.571,147.219 191.465,148.918 			"/>
			<polygon fill="#006B6E" points="195.926,150.358 192.034,148.665 193.628,144.536 197.52,146.235 			"/>
		</g>
		<g>
			<defs>
				<path id="SVGID_1_" d="M185.539,112.323c0,0,25.82,71.738,41.8,78.89c15.978,7.155,33.292,16.13,32.735,26.123
					c-0.559,10.004-15.658,20.814-31.285,13.267c-15.624-7.546-24.21-10.001-27.616-10.009c-3.404-0.015-20.043,1.065-20.974-11.207
					c-0.928-12.281-1.791-20.716-7.918-36.198c-6.123-15.481-17.939-46.606-17.939-46.606S178.298,112.458,185.539,112.323z"/>
			</defs>
			<clipPath id="SVGID_2_">
				<use xlink:href="#SVGID_1_"  overflow="visible"/>
			</clipPath>
			<g clip-path="url(#SVGID_2_)">
				<g>
					<path fill="#23BAB7" d="M208.436,224.18c-0.056,0.018-0.117,0.021-0.181,0.023c-0.376-0.009-0.679-0.347-0.671-0.744
						c0.569-30.735,15.743-41.229,16.391-41.657c0.313-0.218,0.742-0.116,0.947,0.224c0.205,0.339,0.106,0.79-0.213,1.005
						c-0.151,0.103-15.195,10.563-15.755,40.453C208.949,223.825,208.729,224.102,208.436,224.18z"/>
				</g>
				<g>
					<path fill="#23BAB7" d="M216.125,228.182c-0.059,0.012-0.12,0.009-0.184,0.001c-0.375-0.046-0.645-0.412-0.597-0.812
						c3.484-30.518,19.58-39.337,20.261-39.695c0.338-0.183,0.754-0.031,0.924,0.328c0.165,0.36,0.029,0.796-0.312,0.98
						c-0.159,0.082-16.119,8.883-19.513,38.564C216.674,227.885,216.423,228.137,216.125,228.182z"/>
				</g>
				<g>
					<path fill="#23BAB7" d="M223.019,234.239c-0.104,0.028-0.213,0.03-0.322,0.008c-0.372-0.092-0.604-0.481-0.521-0.874
						c6.386-29.986,23.242-37.021,23.958-37.311c0.33-0.139,0.748,0.045,0.878,0.425c0.139,0.377-0.042,0.796-0.396,0.936
						c-0.167,0.073-16.888,7.107-23.095,36.271C223.455,233.972,223.261,234.176,223.019,234.239z"/>
				</g>
				<g>
					<path fill="#23BAB7" d="M172.272,187.809c-0.05-0.027-0.101-0.062-0.152-0.104c-0.29-0.262-0.328-0.716-0.084-1.029
						c18.639-23.54,36.658-21.598,37.422-21.5c0.369,0.038,0.641,0.4,0.596,0.805c-0.043,0.399-0.383,0.682-0.759,0.64
						c-0.184-0.023-18.081-1.904-36.206,20.996C172.887,187.873,172.549,187.94,172.272,187.809z"/>
				</g>
				<g>
					<path fill="#23BAB7" d="M179.588,198.179c-0.056-0.017-0.115-0.042-0.167-0.081c-0.321-0.214-0.416-0.667-0.216-1.006
						c15.421-26.025,33.523-26.722,34.285-26.742c0.378-0.014,0.691,0.31,0.702,0.713c0.006,0.401-0.295,0.734-0.673,0.744
						c-0.182,0.004-18.155,0.747-33.151,26.066C180.202,198.156,179.878,198.272,179.588,198.179z"/>
				</g>
				<g>
					<path fill="#23BAB7" d="M194.393,213.557c-0.101,0.027-0.213,0.028-0.319,0c-0.373-0.086-0.607-0.477-0.526-0.868
						c6.268-30.014,23.094-37.125,23.807-37.416c0.33-0.137,0.751,0.042,0.887,0.421c0.136,0.374-0.043,0.795-0.396,0.94
						c-0.168,0.073-16.86,7.18-22.956,36.371C194.832,213.282,194.632,213.485,194.393,213.557z"/>
				</g>
				<g>
					<path fill="#23BAB7" d="M168.435,172.573c-0.278,0.103-1.974-2.361-2.154-2.626c-0.228-0.321-0.163-0.781,0.146-1.019
						c20.956-16.316,38.756-17.521,38.938-17.532c0.378-0.024,0.702,0.285,0.724,0.688c0.019,0.398,1.107,3.113,0.722,3.136
						c-0.168,0.01-17.586,1.209-38.197,17.255C168.556,172.517,168.495,172.548,168.435,172.573z"/>
				</g>
				<g>
					<path fill="#23BAB7" d="M163.04,158.118c-0.279,0.103-0.599,0.007-0.782-0.257c-0.225-0.326-0.595-2.466-0.29-2.705
						c20.96-16.313,38.76-17.521,38.941-17.532c0.375-0.022,1.137,1.972,1.155,2.374c0.021,0.402-0.265,0.743-0.646,0.768
						c-0.171,0.013-17.589,1.21-38.199,17.251C163.163,158.062,163.099,158.094,163.04,158.118z"/>
				</g>
			</g>
		</g>
		<path fill="#006C64" d="M178.299,193.075l-0.002,0.001c1.017,5.352,1.457,10.386,1.902,16.31
			c0.93,12.272,17.57,11.192,20.974,11.207c0.605-0.002,1.386,0.086,2.333,0.26l0,0
			C206.011,192.445,178.299,193.075,178.299,193.075z"/>
		<path opacity="0.4" fill="#B65915" d="M260.074,217.336c0.31-5.501-4.81-10.695-12.129-15.445
			c10.074,26.466-14.908,21.69-20.745,17.17c-12.531-9.711-24.248-4.444-34.22-7.764c-8.741-2.914-4.896-23.122-10.616-38.273
			c-5.179-13.715-18.759-32.271-16.853-41.34c1.878-8.943,23.135-11.081,23.135-11.081l0,0c-1.957-5.091-3.107-8.279-3.107-8.279
			c-7.241,0.135-31.196,14.26-31.196,14.26s11.816,31.125,17.939,46.606c6.127,15.481,6.99,23.917,7.918,36.198
			c0.93,12.272,17.57,11.192,20.974,11.207c3.406,0.008,11.992,2.463,27.616,10.009C244.416,238.15,259.516,227.34,260.074,217.336z
			"/>
	</g>
	<g>
		<path fill="#08A8A4" d="M158.135,124.324c0,0-11.022,70.658-1.326,84.392c9.693,13.738,19.661,29.606,14.78,37.378
			c-4.888,7.776-21.844,8.947-31.079-4.931c-9.238-13.875-15.065-20.137-17.803-21.843c-2.736-1.712-16.615-9.146-11.919-19.493
			c4.697-10.353,7.744-17.575,9.676-33.103c1.934-15.522,6.223-46.485,6.223-46.485S152.242,120.82,158.135,124.324z"/>
		<path fill="#006C64" d="M158.135,124.324c-5.893-3.504-31.447-4.085-31.447-4.085s-1.144,8.259-2.517,18.377
			c0.004,0,24.531,0.826,31.489,4.335l0,0C156.924,132.079,158.135,124.324,158.135,124.324z"/>
		<path fill="#006C64" d="M145.356,246.615c9.419,7.889,22.114,6.035,26.233-0.521c2.173-3.461,1.397-8.528-0.983-14.297
			C170.445,231.432,155.158,227.022,145.356,246.615z"/>
		<g>
			<polygon fill="#006B6E" points="125.364,156.687 122.983,153.377 126.096,150.849 128.476,154.16 			"/>
			<polygon fill="#006B6E" points="131.432,157.55 129.049,154.241 132.163,151.716 134.545,155.021 			"/>
			<polygon fill="#006B6E" points="137.498,158.413 135.118,155.104 138.227,152.579 140.611,155.888 			"/>
			<polygon fill="#006B6E" points="143.564,159.278 141.181,155.969 144.294,153.441 146.677,156.754 			"/>
			<polygon fill="#006B6E" points="149.63,160.137 147.249,156.832 150.362,154.304 152.746,157.616 			"/>
		</g>
		<g>
			<defs>
				<path id="SVGID_3_" d="M158.135,124.324c0,0-11.022,70.658-1.326,84.392c9.693,13.738,19.661,29.606,14.78,37.378
					c-4.888,7.776-21.844,8.947-31.079-4.931c-9.238-13.875-15.065-20.137-17.803-21.843c-2.736-1.712-16.615-9.146-11.919-19.493
					c4.697-10.353,7.744-17.575,9.676-33.103c1.934-15.522,6.223-46.485,6.223-46.485S152.242,120.82,158.135,124.324z"/>
			</defs>
			<clipPath id="SVGID_4_">
				<use xlink:href="#SVGID_3_"  overflow="visible"/>
			</clipPath>
			<g clip-path="url(#SVGID_4_)">
				<g>
					<path fill="#23BAB7" d="M126.966,225.834c-0.052-0.013-0.105-0.043-0.157-0.069c-0.3-0.197-0.394-0.62-0.208-0.938
						c14.088-24.466,30.964-25.344,31.674-25.369c0.35-0.017,0.649,0.278,0.664,0.655c0.013,0.374-0.265,0.689-0.618,0.703
						c-0.17,0.005-16.922,0.921-30.627,24.718C127.537,225.805,127.236,225.92,126.966,225.834z"/>
				</g>
				<g>
					<path fill="#23BAB7" d="M131.384,232.895c-0.053-0.021-0.102-0.054-0.15-0.091c-0.282-0.226-0.335-0.652-0.119-0.953
						c16.34-22.837,33.216-21.903,33.921-21.854c0.354,0.021,0.62,0.349,0.598,0.726c-0.025,0.372-0.33,0.656-0.683,0.631
						c-0.168-0.012-16.92-0.891-32.818,21.319C131.955,232.928,131.643,233.009,131.384,232.895z"/>
				</g>
				<g>
					<path fill="#23BAB7" d="M134.248,241.209c-0.095-0.029-0.185-0.08-0.26-0.15c-0.262-0.26-0.273-0.689-0.033-0.966
						c18.441-20.961,35.136-18.215,35.839-18.091c0.327,0.054,0.582,0.414,0.522,0.784c-0.057,0.368-0.389,0.619-0.738,0.553
						c-0.165-0.023-16.749-2.706-34.684,17.685C134.721,241.214,134.472,241.283,134.248,241.209z"/>
				</g>
				<g>
					<path fill="#23BAB7" d="M113.972,178.499c-0.029-0.049-0.055-0.103-0.077-0.161c-0.118-0.357,0.054-0.742,0.388-0.872
						c25.453-9.657,39.102,0.9,39.674,1.358c0.281,0.219,0.34,0.646,0.124,0.949c-0.213,0.296-0.612,0.356-0.895,0.136
						c-0.138-0.109-13.716-10.555-38.472-1.161C114.438,178.852,114.137,178.74,113.972,178.499z"/>
				</g>
				<g>
					<path fill="#23BAB7" d="M115.264,190.497c-0.037-0.042-0.071-0.093-0.098-0.148c-0.164-0.333-0.037-0.746,0.273-0.918
						c23.96-13.263,38.848-4.792,39.468-4.429c0.313,0.181,0.423,0.597,0.252,0.925c-0.176,0.329-0.561,0.449-0.872,0.267
						c-0.148-0.088-14.952-8.459-38.258,4.445C115.77,190.784,115.456,190.717,115.264,190.497z"/>
				</g>
				<g>
					<path fill="#23BAB7" d="M120.369,210.27c-0.092-0.03-0.186-0.087-0.257-0.158c-0.262-0.257-0.277-0.688-0.04-0.962
						c18.361-21.042,35.065-18.375,35.77-18.252c0.325,0.056,0.584,0.412,0.527,0.78c-0.057,0.373-0.388,0.62-0.738,0.559
						c-0.167-0.024-16.761-2.63-34.617,17.835C120.842,210.267,120.592,210.33,120.369,210.27z"/>
				</g>
				<g>
					<path fill="#23BAB7" d="M117.639,164.311c-0.27-0.057-0.54-2.889-0.569-3.192c-0.04-0.374,0.215-0.71,0.569-0.749
						c24.11-2.681,38.982,5.236,39.13,5.315c0.317,0.169,0.444,0.579,0.28,0.916c-0.161,0.33-0.491,3.061-0.809,2.884
						c-0.141-0.078-14.698-7.801-38.412-5.167C117.763,164.325,117.699,164.319,117.639,164.311z"/>
				</g>
				<g>
					<path fill="#23BAB7" d="M119.705,149.974c-0.268-0.054-0.484-0.29-0.516-0.596c-0.036-0.374,0.615-2.283,0.967-2.324
						c24.114-2.678,38.986,5.238,39.134,5.317c0.314,0.169,0.043,2.155-0.122,2.49c-0.161,0.333-0.543,0.464-0.861,0.292
						c-0.142-0.073-14.699-7.803-38.413-5.171C119.829,149.991,119.766,149.985,119.705,149.974z"/>
				</g>
			</g>
		</g>
		<path fill="#006C64" d="M116.492,185.744h-0.003c-1.557,4.818-3.434,9.09-5.701,14.084c-4.696,10.347,9.183,17.781,11.919,19.493
			c0.488,0.303,1.079,0.761,1.766,1.37l0,0C139.086,199.065,116.492,185.744,116.492,185.744z"/>
		<path opacity="0.4" fill="#B65915" d="M171.589,246.094c2.687-4.278,0.87-11.013-2.919-18.492
			c-3.623,26.344-21.626,10.029-24.321,3.475c-5.783-14.073-17.561-15.683-24.116-23.333c-5.747-6.707,6.312-21.061,8.425-36.119
			c1.913-13.632-0.794-35.351,4.762-41.704c5.48-6.266,23.546,2.622,23.546,2.622l0,0c0.682-5.078,1.169-8.218,1.169-8.218
			c-5.893-3.504-31.447-4.085-31.447-4.085s-4.289,30.963-6.223,46.485c-1.932,15.528-4.979,22.75-9.676,33.103
			c-4.696,10.347,9.183,17.781,11.919,19.493c2.738,1.706,8.565,7.968,17.803,21.843
			C149.746,255.041,166.701,253.87,171.589,246.094z"/>
	</g>
</g>
</svg>
