<?xml version="1.0" encoding="utf-8"?>
<!-- Generator: Adobe Illustrator 16.0.0, SVG Export Plug-In . SVG Version: 6.00 Build 0)  -->
<!DOCTYPE svg PUBLIC "-//W3C//DTD SVG 1.1//EN" "http://www.w3.org/Graphics/SVG/1.1/DTD/svg11.dtd">
<svg version="1.1" id="Capa_1" xmlns="http://www.w3.org/2000/svg" xmlns:xlink="http://www.w3.org/1999/xlink" x="0px" y="0px"
	 width="400px" height="400px" viewBox="0 0 400 400" enable-background="new 0 0 400 400" xml:space="preserve">
<g>
	<g>
		<ellipse fill="#F2F2F2" cx="303.528" cy="283.75" rx="40.408" ry="4.92"/>
		<g>
			<g>
				<path fill="#FFB291" d="M309.092,254.364l-6.58,7.779l-12.574,13.24l-2.818,2.969l-0.492-3.92
					c0.354-0.684,1.205-2.31,2.346-4.309c2.646-4.64,6.852-11.298,9.984-12.871c0,0,2.496-4.715,5.932-10.088
					C306.077,249.16,307.993,252.472,309.092,254.364z"/>
			</g>
			<path fill="#E9E9E9" d="M289.938,275.384l-2.818,2.969l-0.492-3.92c0.354-0.684,1.205-2.31,2.346-4.309L289.938,275.384z"/>
			<path fill="#1B1464" d="M321.983,283.578c-0.527-0.611-0.97-1.568-1.31-2.491c-0.719-1.953-1.62-3.75-2.687-5.329
				c-0.278-0.41-0.484-0.931-0.521-1.505c-0.146-2.33,2.513-3.291,2.513-3.291s1.133,1.669,1.762,2.599l1.128,9.236
				C322.96,283.512,322.38,284.035,321.983,283.578z"/>
			<path fill="#1B1464" d="M283.631,286.646c-0.202-0.934-0.199-2.086-0.125-3.125c0.156-2.203,0.103-4.421-0.172-6.594
				c-0.072-0.567-0.043-1.165,0.148-1.67c0.779-2.052,3.106-0.852,3.106-0.852c0.061-0.085,0.123-0.162,0.187-0.237
				c0.179,1.318,0.356,2.695,0.521,3.974l-2.632,8.573C284.465,287.381,283.781,287.345,283.631,286.646z"/>
			<path fill="#FFB291" d="M336.125,256.251l-11.72,14.123l-2.668,3.216l-1.761-2.628c0,0,0.831-1.493,2.063-3.648
				c2.948-5.17,8.198-14.158,9.867-15.616c-1.449-0.354-2.862-0.765-4.23-1.248c1.778-2.624,3.797-5.564,4.954-7.246l3.069,2.867
				C338.18,248.385,338.396,253.52,336.125,256.251z"/>
			<path fill="#E9E9E9" d="M324.405,270.374l-2.668,3.216l-1.761-2.628c0,0,0.831-1.493,2.063-3.648L324.405,270.374z"/>
			<linearGradient id="SVGID_1_" gradientUnits="userSpaceOnUse" x1="304.8838" y1="241.8301" x2="320.5186" y2="241.8301">
				<stop  offset="0" style="stop-color:#4F7586"/>
				<stop  offset="1" style="stop-color:#1B4C62"/>
			</linearGradient>
			<path fill="url(#SVGID_1_)" d="M320.519,240.901l-2.786,3.289l-2.999,3.552l-0.677,0.798l-4.97,5.881
				c-1.099-1.891-3.015-5.203-4.203-7.198c1.711-2.68,3.659-5.528,5.647-8.036c0.146-0.188,0.294-0.383,0.447-0.564
				c1.067-1.321,2.448-3.585,3.582-5.552c0.552-0.951,1.039-1.841,1.409-2.521c0.438-0.796,0.709-1.31,0.709-1.31l1.156,3.518
				L320.519,240.901z"/>
			<linearGradient id="SVGID_2_" gradientUnits="userSpaceOnUse" x1="313.4072" y1="238.502" x2="332.7471" y2="238.502">
				<stop  offset="0" style="stop-color:#4F7586"/>
				<stop  offset="1" style="stop-color:#1B4C62"/>
			</linearGradient>
			<path fill="url(#SVGID_2_)" d="M332.747,243.262c-1.157,1.682-3.176,4.622-4.956,7.244c-5.354-1.886-10.012-4.906-13.175-10.316
				c-1.56-2.662-1.618-6.537-0.13-9.28l2.396-4.411l9.745,6.921l-2.204,2.378L332.747,243.262z"/>
			<path fill="#FFB291" d="M326.705,201.738l-2.381,6.145l-3.397-1.037l-8.725,2.758c-3.468,5.957-3.853,4.349-3.853,4.349
				c-0.119-0.381,0.578-1.248,0.963-1.681c-1.408,1.476-3.301,0.536-3.301,0.536c-0.834-0.429-0.166-1.066-0.166-1.066
				c0.76,0.269,1.779-0.205,2.059-0.348c-0.886,0.343-1.845,0.028-2.334-0.205c-0.224-0.102-0.393-0.417-0.393-0.793
				c-0.021-1.88,1.125-2.098,1.125-2.098l2.271-0.307c1.209-1.339,2.976-1.431,2.976-1.431l7.745-5.107
				c1.094-0.724,2.31-0.957,3.495-0.678C323.832,201.025,325.221,201.356,326.705,201.738z"/>
			<linearGradient id="SVGID_3_" gradientUnits="userSpaceOnUse" x1="324.3242" y1="206.1816" x2="335.8789" y2="206.1816">
				<stop  offset="0" style="stop-color:#31BA99"/>
				<stop  offset="0.9981" style="stop-color:#96DCCB"/>
			</linearGradient>
			<path fill="url(#SVGID_3_)" d="M335.879,207.273c0,1.173-0.413,2.354-1.275,2.985c-0.492,0.366-1.056,0.456-1.594,0.274
				l-1.973-0.604l-6.713-2.046l2.381-6.145c2.68,0.689,5.67,1.532,7.478,2.28c0.404,0.165,0.739,0.456,0.999,0.819
				C335.642,205.489,335.879,206.378,335.879,207.273z"/>
			<polygon fill="#FFB291" points="341.862,207.935 338.492,211.588 336.233,207.198 339.989,203.59 			"/>
			<g>
				<path fill="#FFB291" d="M347.214,198.318c-0.105,0.92-0.26,1.952-0.472,2.712c-0.109,0.393-0.12,0.829,0,1.216l0.582,1.895
					c0.063,0.2,0.02,0.44-0.105,0.563c-0.186,0.186-0.473,0.404-0.754,0.366c0,0-0.672,2.132-1.911,3.378
					c-0.391,0.393-0.876,0.537-1.347,0.444c-5.049-1.002-6.425-5.159-5.067-12.104c0.297-1.521,0.987-2.815,1.921-3.634
					c1.474-1.286,4.21-2.97,6.146,0.034C347.088,194.557,347.428,196.473,347.214,198.318z"/>
				<g>
					<path fill="#1B1464" d="M344.643,200.391c0.038,0.019,0.08,0.014,0.115-0.021c0.682-0.664,1.137,0.18,1.156,0.217
						c0.044,0.083,0.126,0.099,0.183,0.037c0.057-0.063,0.068-0.182,0.025-0.264c-0.211-0.409-0.798-0.995-1.509-0.303
						c-0.061,0.059-0.075,0.176-0.036,0.262C344.594,200.354,344.618,200.379,344.643,200.391z"/>
				</g>
				<g>
					<path fill="#1B1464" d="M345.393,205.883c-0.017-0.052-0.048-0.094-0.088-0.108c-0.797-0.289-0.669-1.344-0.664-1.389
						c0.015-0.104-0.032-0.202-0.103-0.221c-0.07-0.02-0.139,0.047-0.152,0.147c-0.067,0.502,0.024,1.525,0.856,1.829
						c0.069,0.024,0.139-0.039,0.156-0.139C345.406,205.961,345.403,205.919,345.393,205.883z"/>
				</g>
				<path fill="#1B1464" d="M345.729,202.103c-0.044,0.284-0.237,0.463-0.434,0.4c-0.195-0.063-0.319-0.344-0.277-0.627
					c0.045-0.284,0.238-0.463,0.435-0.4C345.647,201.537,345.772,201.819,345.729,202.103z"/>
			</g>
			<linearGradient id="SVGID_4_" gradientUnits="userSpaceOnUse" x1="321.1055" y1="219.0342" x2="344.2041" y2="219.0342">
				<stop  offset="0" style="stop-color:#31BA99"/>
				<stop  offset="0.9981" style="stop-color:#96DCCB"/>
			</linearGradient>
			<path fill="url(#SVGID_4_)" d="M339.797,212.532l-1.657,7.433c-0.126,0.558-0.271,1.106-0.438,1.636
				c-0.857,2.76-2.242,5.113-3.989,6.781c-0.401,0.39-0.827,0.736-1.268,1.044l-6.245,4.365l-9.502-7.089
				c3.85-5.095,7.159-10.438,9.87-16.046c1.146-2.376,2.76-4.189,4.646-5.157l2.261-1.078c0.715-0.341,1.501-0.063,2.028,0.716
				L339.797,212.532z"/>
			<path fill="#E9E9E9" d="M337.702,221.601c-0.857,2.76-2.242,5.113-3.989,6.781c-0.735-1.041-1.642-2.249-1.642-2.249
				s2.803-1.644,4.816-5.986L337.702,221.601z"/>
			<path fill="#FFB291" d="M354.48,223.566l-3.608,2.225l-9.328,9.01c-1.185,1.146-2.798,0.45-3.354-1.447l-1.396-6.486
				c1.103-0.434,3.199-1.288,4.703-1.893c0.02,0.986,0.034,1.978,0.051,2.976l8.084-5.489l0.236-1.538
				c0.13-0.861,0.46-1.632,0.937-2.183l1.447-1.671c0.548-0.639,1.362-0.342,1.642,0.593l1.149,3.882
				C355.275,222.324,355.022,223.235,354.48,223.566z"/>
			<linearGradient id="SVGID_5_" gradientUnits="userSpaceOnUse" x1="334.6406" y1="219.2266" x2="341.4971" y2="219.2266">
				<stop  offset="0" style="stop-color:#31BA99"/>
				<stop  offset="0.9981" style="stop-color:#96DCCB"/>
			</linearGradient>
			<path fill="url(#SVGID_5_)" d="M341.497,224.975c-1.504,0.604-3.601,1.459-4.703,1.893l-2.007-9.295
				c-0.099-0.453-0.146-0.913-0.146-1.376c0-1.015,0.233-2.006,0.669-2.826c1.701-3.163,5.188-1.897,5.647,2.052
				C341.288,218.311,341.427,221.577,341.497,224.975z"/>
			<g>
				<g>
					<path fill="#3B3384" d="M348.926,197.419c-0.033-1.002-0.124-1.993-0.461-2.895c-0.893-2.385-2.282-4.459-4.195-4.871
						c-1.702-0.368-3.762,0.967-5.079,2.434c-1.281,1.427-2.054,3.815-2.05,6.132c0.001,0.959-0.002,1.917,0,2.874
						c0.003,1.422-0.236,2.053-0.935,3.038c0.392,0.185,1.161,0.17,1.56,0.001c0.017,0.543-0.295,0.847-0.519,1.217
						c0.862,0.697,3.081-0.32,3.521-1.516c-1.022-0.253-1.685-1.759-1.288-3.207c0.295-1.071,0.826-0.935,1.24-0.436
						c0.02,0.831,0.201,1.323,0.642,1.957c0.004,0.006,0.007,0.011,0.011,0.014c0.431,0.609,1.168,0.429,1.438-0.349
						c0.494-1.418,1.601-2.714,1.855-3.994c-0.045,0.428-0.063,0.849-0.134,1.277c-0.081,0.486-0.406,1.08-0.347,1.521
						c1.273-0.762,2.522-1.989,3.205-3.79c0.191,1.248,0.06,2.576,0.186,3.831c0.509-0.44,0.573-1.206,0.609-1.999
						c0.131,0.879,0.376,1.861,0.318,2.778C348.668,200.059,348.978,198.902,348.926,197.419z"/>
				</g>
			</g>
		</g>
	</g>
	<g>
		
			<line fill="none" stroke="#FFFFFF" stroke-width="2" stroke-linecap="round" stroke-linejoin="round" stroke-miterlimit="10" x1="310.584" y1="234.997" x2="288.693" y2="234.997"/>
		
			<line fill="none" stroke="#FFFFFF" stroke-width="2" stroke-linecap="round" stroke-linejoin="round" stroke-miterlimit="10" x1="312.588" y1="230.121" x2="290.698" y2="230.121"/>
		
			<line fill="none" stroke="#FFFFFF" stroke-width="2" stroke-linecap="round" stroke-linejoin="round" stroke-miterlimit="10" x1="311.078" y1="225.939" x2="289.188" y2="225.939"/>
		
			<line fill="none" stroke="#FFFFFF" stroke-width="2" stroke-linecap="round" stroke-linejoin="round" stroke-miterlimit="10" x1="314.538" y1="221.693" x2="292.648" y2="221.693"/>
	</g>
</g>
<g>
	<ellipse fill="#F2F2F2" cx="244.258" cy="255.659" rx="18.942" ry="5.404"/>
	<g>
		<path fill="#FFB291" d="M275.698,169.684l-4.201,5.75l-5.617-1.421l-2.129-0.538l-5.607,10.158c0,0,1.578,2.142,0,5.842
			l-0.428,1.05c0,0-1.002,0.69-0.211-2.721c0,0-0.971,1.875-1.141,3.99c-0.031,0.409-0.273,0.705-0.555,0.685
			c-0.359-0.03-0.734-0.843-0.996-1.921c-0.246-1.008-0.275-2.104-0.086-3.142c0.254-1.405,0.791-3.359,1.861-3.783l4.643-14.587
			c0.398-1.245,1.313-1.974,2.25-1.787c1.029,0.071,2.037,0.15,3.01,0.246C270.269,167.885,273.536,168.509,275.698,169.684z"/>
		<linearGradient id="SVGID_6_" gradientUnits="userSpaceOnUse" x1="270.7783" y1="170.4316" x2="281.015" y2="164.4758">
			<stop  offset="0" style="stop-color:#FDC338"/>
			<stop  offset="0.9942" style="stop-color:#FFFF00"/>
		</linearGradient>
		<path fill="url(#SVGID_6_)" d="M275.698,169.684l-4.201,5.75l-5.617-1.421c0.176-2.008,0.432-4.67,0.611-6.508
			C270.269,167.885,273.536,168.509,275.698,169.684z"/>
		<g>
			<linearGradient id="SVGID_7_" gradientUnits="userSpaceOnUse" x1="259.4248" y1="210.9053" x2="270.7088" y2="199.6213">
				<stop  offset="0" style="stop-color:#FDC338"/>
				<stop  offset="0.9942" style="stop-color:#FFFF00"/>
			</linearGradient>
			<path fill="url(#SVGID_7_)" d="M267.837,207.063l-1.895,3.875l-2.037,4.171l-0.461,0.939l-0.457,0.946l-5.477-4.986
				c0.408-0.998,0.832-1.979,1.266-2.931c0.096-0.217,0.193-0.436,0.297-0.654c0.715-1.537,1.547-4.01,2.213-6.135
				c0.699-2.242,1.217-4.113,1.217-4.113L267.837,207.063z"/>
			<path fill="#FFB291" d="M262.987,216.997l-0.594,1.204l-6.797,13.92l-7.942,14.911l-2.685-2.862
				c1.533-5.013,4.154-12.558,6.686-15.086c0,0,2.232-8.014,5.318-15.766c0.176-0.438,0.352-0.871,0.535-1.308L262.987,216.997z"/>
			<path fill="#FFFFFF" d="M247.654,247.032l-1.945,3.652l-1.993-2.166c0.187-0.699,0.63-2.316,1.254-4.349L247.654,247.032z"/>
		</g>
		<polygon fill="#FFB291" points="282.032,171.482 279.526,175.69 276.921,172.426 279.776,168.147 		"/>
		<g>
			<path fill="#FFB291" d="M285.493,161.404c0.031,0.85,0.033,1.811-0.053,2.549c-0.045,0.38,0.006,0.771,0.164,1.081l0.775,1.521
				c0.08,0.162,0.076,0.387-0.02,0.533c-0.139,0.216-0.365,0.493-0.621,0.538c0,0-0.309,2.089-1.242,3.55
				c-0.295,0.46-0.707,0.728-1.139,0.779c-4.629,0.542-6.418-2.768-6.148-9.335c0.059-1.438,0.496-2.787,1.219-3.778
				c1.135-1.564,3.344-3.841,5.473-1.717C284.87,158.092,285.433,159.702,285.493,161.404z"/>
			<g>
				<path fill="#1B1464" d="M283.485,163.979c0.035,0.006,0.072-0.011,0.098-0.052c0.52-0.784,1.037-0.163,1.061-0.136
					c0.051,0.062,0.125,0.053,0.166-0.02c0.043-0.072,0.037-0.18-0.012-0.242c-0.244-0.304-0.844-0.657-1.385,0.16
					c-0.045,0.069-0.045,0.178,0.004,0.242C283.437,163.96,283.462,163.976,283.485,163.979z"/>
			</g>
			<g>
				<path fill="#1B1464" d="M284.896,168.654c-0.021-0.041-0.055-0.069-0.094-0.07c-0.746-0.032-0.777-1.007-0.777-1.049
					c-0.002-0.096-0.057-0.17-0.121-0.167c-0.066,0.002-0.117,0.081-0.115,0.175c0.008,0.465,0.227,1.35,1.008,1.384
					c0.066,0.003,0.119-0.072,0.123-0.167C284.919,168.721,284.909,168.684,284.896,168.654z"/>
			</g>
			<ellipse fill="#1B1464" cx="284.354" cy="165.194" rx="0.331" ry="0.479"/>
		</g>
		<linearGradient id="SVGID_8_" gradientUnits="userSpaceOnUse" x1="262.6572" y1="207.8965" x2="276.7829" y2="195.587">
			<stop  offset="0" style="stop-color:#FDC338"/>
			<stop  offset="0.9942" style="stop-color:#FFFF00"/>
		</linearGradient>
		<path fill="url(#SVGID_8_)" d="M274.626,209.198l-5.32,6.7c-3.457-2.832-7.355-6.004-9.354-8.763
			c-0.072-0.099-0.141-0.197-0.207-0.301c-1.836-2.847-1.637-7.193,0.373-9.578c0.387-0.453,0.771-0.915,1.119-1.429l2.549-2.71
			l6.436,5.058l-0.754,3.376C269.468,201.552,272.126,205.017,274.626,209.198z"/>
		<path fill="#FFB291" d="M278.233,222.375c-2.502,3.371-8.564,2.75-16.779,3.455l-0.838-4.451c4.52-1.74,8.59-3.277,11.518-3.136
			c-0.58-0.501-1.207-1.013-1.857-1.55c-0.32-0.259-0.641-0.529-0.973-0.791l5.318-6.704c0.225,0.374,0.443,0.748,0.662,1.128
			C277.921,214.942,280.073,220.101,278.233,222.375z"/>
		<path fill="#FFFFFF" d="M261.454,225.83c-0.99,0.083-2.01,0.187-3.059,0.32l-0.895-3.578c1.057-0.397,2.098-0.801,3.115-1.193
			L261.454,225.83z"/>
		<path fill="#1B1464" d="M256.46,234.287c-0.303-0.777-0.449-1.806-0.52-2.754c-0.146-2.004-0.484-3.968-1.012-5.83
			c-0.139-0.486-0.189-1.026-0.084-1.529c0.428-2.042,2.658-1.606,2.658-1.606c0.043-0.094,0.26-0.028,0.307-0.112
			c0.332,1.125,0.561,2.563,0.871,3.658l-1.291,7.952C257.298,234.715,256.685,234.869,256.46,234.287z"/>
		<path fill="#1B1464" d="M246.483,259.753c-0.513-0.495-0.967-1.313-1.326-2.109c-0.761-1.69-1.677-3.219-2.732-4.529
			c-0.275-0.34-0.492-0.789-0.556-1.307c-0.259-2.099,1.864-3.182,1.864-3.182c0.01-0.11,0.023-0.216,0.037-0.324
			c0.648,0.786,1.32,1.613,1.941,2.383l1.531,8.258C247.365,259.581,246.866,260.122,246.483,259.753z"/>
		<linearGradient id="SVGID_9_" gradientUnits="userSpaceOnUse" x1="264.6426" y1="187.8989" x2="288.5308" y2="176.052">
			<stop  offset="0" style="stop-color:#D96A9A"/>
			<stop  offset="0.3092" style="stop-color:#DC7CA1"/>
			<stop  offset="0.7038" style="stop-color:#DE8DA8"/>
			<stop  offset="1" style="stop-color:#DF93AA"/>
		</linearGradient>
		<path fill="url(#SVGID_9_)" d="M279.435,174.428l-1.223-1.532l-2.246-2.873l-0.268-0.342c-0.133-0.167-0.324-0.192-0.475-0.058
			l-0.623,0.452c-1.572,1.127-2.885,2.851-3.813,4.96c-0.389,0.868-0.707,1.803-0.951,2.79c-0.309,1.235-0.666,2.466-0.893,3.506
			c-1.107,5.092-5.158,11.787-5.158,11.787l6.434,5.058l3.473-4.243l2.568-2.702c1.111-0.113,1.896-0.497,2.463-1.1
			c0.188-0.194,0.348-0.411,0.488-0.649c0.904-1.506,0.973-3.814,1.135-6.233l0.125-1.892l0.344-5.193L279.435,174.428z"/>
		<path fill="#FFFFFF" d="M280.472,181.356l-0.125,1.892c-0.188,2.8-0.248,5.447-1.623,6.883c-0.863-0.723-1.904-1.638-1.803-1.751
			c4.002-4.468,3.471-6.986,3.436-7.144L280.472,181.356z"/>
		<path fill="#FFB291" d="M296.312,185.282l-2.912,3.004l-7.078,10.671c-0.9,1.354-2.43,1.191-3.184-0.337l-2.363-5.993
			l-1.531-3.873c-1.266-3.208-1.369-7.112-0.273-10.449l1.037-3.15c2.322,2.362,3.654,7.883,4.768,14.087
			c0.215,1.187,0.422,2.395,0.623,3.616l6.365-7.191l0.084-1.426c0-0.804,0.193-1.582,0.541-2.212l1.063-1.899
			c0.402-0.716,1.166-0.688,1.537,0.066l1.553,3.129C296.851,183.953,296.749,184.833,296.312,185.282z"/>
		<linearGradient id="SVGID_10_" gradientUnits="userSpaceOnUse" x1="275.9727" y1="186.4619" x2="289.3018" y2="178.7068">
			<stop  offset="0" style="stop-color:#FDC338"/>
			<stop  offset="0.9942" style="stop-color:#FFFF00"/>
		</linearGradient>
		<path fill="url(#SVGID_10_)" d="M284.774,189.241l-4,3.386l-1.531-3.873c-1.266-3.208-1.369-7.112-0.273-10.449l1.037-3.15
			C282.329,177.517,283.661,183.037,284.774,189.241z"/>
		<g>
			<g>
				<path fill="#1B1464" d="M281.376,165.614c0.002-0.015,0-0.029,0.002-0.044c-0.02,0-0.039,0.003-0.061,0.001L281.376,165.614z"/>
			</g>
			<g>
				<path fill="#1B1464" d="M286.294,160.122c0.721-0.359,0.707-1.495,0.35-2.314c-0.494-1.137-1.33-1.154-2.076-1.646
					c0.527-1.042-0.748-1.689-1.225-1.852c-0.938-0.316-1.674,0.305-2.502,0.77c-0.297-0.543-1.369-0.028-1.684,0.228
					c-0.592,0.482-1.141,1.129-1.578,1.88c-0.193,0.333-0.238,0.595-0.506,0.69c-0.213,0.074-0.414,0.014-0.629,0.138
					c-0.572,0.331-0.99,1.206-1.004,2.074c-0.006,0.461,0.012,0.904,0.053,1.356c0.027,0.271,0.127,0.631,0.094,0.896
					c-0.725-0.137-0.262,2.436-0.109,2.801c0.092,0.219,0.213,0.397,0.318,0.598c0.186,0.355,0.127,0.247,0.08,0.604
					c-0.068,0.521-0.1,1.151-0.027,1.677c0.178,1.305,1.17,1.997,1.969,2.354c0.139,0.063,0.277,0.089,0.381,0.179
					c0.119,0.104,0.215,0.313,0.332,0.434c0.207,0.213,0.363,0.233,0.621,0.214c0.262-0.019,0.504-0.076,0.748-0.225
					c0.336-0.204,0.447-0.424,0.588-0.859c0.078-0.244,0.039-0.179,0.176-0.364c0.127-0.175,0.195-0.194,0.266-0.438
					c0.074-0.26,0.072-0.612,0.063-0.896c-0.02-0.619-0.119-0.486-0.504-0.527c-0.406-0.042-0.666-0.299-0.947-0.724
					c-0.371-0.563-0.477-1.232-0.396-1.995c0.195-1.872,2.365-1.185,2.234,0.397c0.307-0.005,0.506-0.286,0.619-0.71
					c0.125-0.463-0.027-0.832-0.016-1.262c0.277,0.012,0.734-0.116,0.902-0.477c0.15-0.322,0.039-0.758-0.02-1.105
					c0.393,0.336,0.654,0.692,1.133,0.719c0.342,0.018,0.93-0.085,1.094-0.599c0.209,0.142,0.33,0.498,0.531,0.687
					c0.156,0.146,0.41,0.283,0.59,0.358c0.314,0.133,0.689,0.131,0.938-0.208C287.788,162.097,286.802,160.582,286.294,160.122z"/>
			</g>
		</g>
		<g>
			<path fill="#1B1464" d="M278.458,159.602c0.094-2.336-0.9-4.54-2.457-5.161c-0.297-0.118-0.602-0.177-0.9-0.165
				c-0.771,0.029-1.064,0.58-1.68,1.173c-0.742,0.713-1.563,1.403-2.463,1.476c-2.596,0.208-5.094-1.104-7.721-0.723
				c-0.727,0.105-2.529,0.591-2.566,2.027c-0.031,1.258,1.096,1.913,1.816,1.947c0.609,0.03,1.924-0.282,1.531,1.226
				c-0.375,1.446-1.811,1.272-2.629,1.572c-0.729,0.266-2.592,1.144-2.002,2.762s2.652,0.899,3.473,0.269
				c1.17-0.9,2.902-3.232,4.369-2.54c1.145,0.539,0.082,1.761-0.398,2.318c-0.824,0.963-1.693,3.065-0.205,3.683
				c1.535,0.639,2.771-0.977,3.277-2.854c0.299-1.115,0.631-2.416,1.586-2.582c0.426-0.074,0.715,0.139,0.938,0.703
				c0.338,0.859-0.09,2.139,0.764,2.54c1.094,0.514,3.102-0.975,3.965-1.839C278.116,164.472,278.386,161.466,278.458,159.602z"/>
		</g>
	</g>
</g>
<g>
	<ellipse fill="#F2F2F2" cx="109.243" cy="256.436" rx="17.021" ry="4.983"/>
	<g>
		<g>
			<path fill="#FFB291" d="M152.813,178.172c-0.245,1.837-1.359,1.695-1.359,1.695l-2.198-0.386c-1.337,0.933-3.02,0.483-3.02,0.483
				l-9.268,3.001c-2.21,0.717-4.275-1.877-4.168-5.237l0.046-1.64c1.355-0.375,3.119-0.863,4.642-1.307l-0.077,1.618l-0.03,0.432
				l8.664-0.027c4.13-4.746,4.268-3.06,4.268-3.06c0.057,0.404-0.725,1.037-1.153,1.345c1.547-1.009,3.207,0.481,3.207,0.481
				c0.729,0.67,0.003,1.085,0.003,1.085c-0.797-0.579-2.072-0.276-2.072-0.276c0.92-0.105,1.817,0.515,2.26,0.9
				C152.752,177.451,152.871,177.808,152.813,178.172z"/>
			<linearGradient id="SVGID_11_" gradientUnits="userSpaceOnUse" x1="262.7402" y1="115.1025" x2="273.4973" y2="110.7539">
				<stop  offset="0" style="stop-color:#FDC338"/>
				<stop  offset="0.9942" style="stop-color:#FFFF00"/>
			</linearGradient>
			<path fill="url(#SVGID_11_)" d="M138.06,162.491l-0.571,12.291c-1.523,0.443-3.287,0.932-4.642,1.307l0.42-15.085
				c0.026-0.965,0.309-1.826,0.744-2.451c0.436-0.618,1.026-1.004,1.676-1.004c0.073,0,0.146,0.004,0.218,0.014
				c0.979,0.129,1.771,1.246,2.017,2.66c0.001,0.006,0.002,0.011,0.003,0.017C138.051,160.974,138.095,161.734,138.06,162.491z"/>
		</g>
		<g>
			<path fill="#FFB291" d="M125.067,216.259l-6.589,13.842l-10.523,20.282l-2.126-2.372c0.69-2.645,4.668-17.354,8.451-21.236
				c0,0,2.86-8.284,5.058-14.646C120.99,213.333,123.204,214.938,125.067,216.259z"/>
		</g>
		<linearGradient id="SVGID_12_" gradientUnits="userSpaceOnUse" x1="127.8711" y1="202.0859" x2="120.5071" y2="212.751">
			<stop  offset="0" style="stop-color:#D96A9A"/>
			<stop  offset="1" style="stop-color:#DF93AA"/>
		</linearGradient>
		<path fill="url(#SVGID_12_)" d="M131.501,202.72l-5.512,14.131c-1.863-1.324-5-3.518-6.652-4.722
			c0.022-0.064,0.044-0.132,0.068-0.199c1.201-3.453,4.429-12.144,5.122-14.426c0.745-2.451,1.294-4.49,1.294-4.49L131.501,202.72z"
			/>
		<polygon fill="#FFB291" points="139.741,154.851 137.076,159.447 134.303,155.88 137.342,151.206 		"/>
		<g>
			<path fill="#FFB291" d="M143.425,143.84c0.033,0.927,0.035,1.978-0.057,2.783c-0.046,0.415,0.007,0.843,0.175,1.182l0.826,1.661
				c0.087,0.178,0.081,0.422-0.02,0.583c-0.149,0.237-0.388,0.537-0.662,0.587c0,0-0.329,2.283-1.323,3.879
				c-0.313,0.503-0.752,0.795-1.212,0.852c-4.926,0.592-6.828-3.024-6.544-10.199c0.063-1.57,0.53-3.044,1.297-4.128
				c1.209-1.709,3.559-4.196,5.825-1.875C142.762,140.221,143.36,141.979,143.425,143.84z"/>
			<g>
				<path fill="#1B1464" d="M141.289,146.652c0.037,0.006,0.077-0.012,0.105-0.058c0.549-0.855,1.103-0.177,1.126-0.147
					c0.054,0.067,0.133,0.058,0.178-0.021c0.044-0.079,0.039-0.196-0.014-0.265c-0.259-0.331-0.899-0.719-1.474,0.174
					c-0.048,0.076-0.046,0.194,0.004,0.267C141.236,146.632,141.262,146.647,141.289,146.652z"/>
			</g>
			<g>
				<path fill="#1B1464" d="M142.789,151.761c-0.021-0.045-0.058-0.077-0.098-0.079c-0.796-0.033-0.828-1.1-0.829-1.146
					c-0.002-0.104-0.06-0.185-0.129-0.182c-0.07,0.003-0.125,0.088-0.124,0.191c0.008,0.511,0.243,1.476,1.074,1.512
					c0.069,0.003,0.127-0.08,0.129-0.183C142.813,151.833,142.805,151.792,142.789,151.761z"/>
			</g>
			<ellipse fill="#1B1464" cx="142.211" cy="147.979" rx="0.352" ry="0.523"/>
		</g>
		<g>
			<linearGradient id="SVGID_13_" gradientUnits="userSpaceOnUse" x1="122.6372" y1="182.3516" x2="163.9965" y2="158.2254">
				<stop  offset="0" style="stop-color:#FDC338"/>
				<stop  offset="0.9942" style="stop-color:#FFFF00"/>
			</linearGradient>
			<path fill="url(#SVGID_13_)" d="M137.987,174.161c-0.138,0.597-0.298,1.187-0.478,1.761l-0.172,0.556
				c-0.206,0.659-1.996,6.976-1.996,6.976l-1.969,12.654c0,0-4.485-0.58-10.18-3.462c0.29-3.57,1.684-7.309,3.978-13.693
				c0,0,1.293-14.392,2.202-16.905c0.932-2.578,3.088-4.972,3.726-5.358c0.313-0.188,0.683-0.51,0.988-0.799
				c0.32-0.302,0.564-0.563,0.564-0.563s2.244,2.423,3.019,5.209c0.16,0.567,0.302,1.352,0.439,2.243
				c0.137,0.913,0.264,1.935,0.371,2.945c0.056,0.537,0.094,1.077,0.118,1.622C138.701,169.657,138.486,171.972,137.987,174.161z"/>
		</g>
		<path fill="#FFFFFF" d="M137.987,174.161l-3.405-0.708c0.344-1.816,0.657-6.633,0.657-6.633l3.359,0.526
			C138.701,169.657,138.486,171.972,137.987,174.161z"/>
		<path fill="#FFB291" d="M134.376,188.758c0.011,1.277-0.611,0.591-0.611,0.591c-0.099-1.316-0.954-2.752-0.954-2.752
			c0.549,1.096,0.68,2.553,0.699,3.313c0.007,0.343-0.134,0.677-0.367,0.802c-1.175,0.682-1.695-0.802-1.695-0.802l-0.954-2.967
			c-1.245-1.175-1.89-3.535-1.89-3.535l-6.665-10.033c-1.587-2.396-1.217-6.379,0.749-8.042l4.271-3.66l2.092,6.22l-3.145,2.525
			l-0.26,0.194l4.649,10.871c4.905,2.646,4.023,3.719,4.023,3.719c-0.199,0.295-0.98-0.353-1.381-0.729
			C134.338,185.875,134.376,188.758,134.376,188.758z"/>
		<linearGradient id="SVGID_14_" gradientUnits="userSpaceOnUse" x1="117.2559" y1="170.2822" x2="156.6931" y2="147.2772">
			<stop  offset="0" style="stop-color:#FDC338"/>
			<stop  offset="0.9942" style="stop-color:#FFFF00"/>
		</linearGradient>
		<path fill="url(#SVGID_14_)" d="M134.803,163.272l-5.751,4.619l-2.092-6.22l5.481-4.693c0.382-0.329,0.798-0.483,1.21-0.483
			c0.806,0,1.588,0.597,2.046,1.675C136.452,159.935,136.04,162.279,134.803,163.272z"/>
		<path fill="#FFB291" d="M142.563,219.449c-2.981,4.125-10.721,2.775-21.107,4.125l-0.955-3.916
			c6.111-2.349,11.756-4.913,15.574-4.725c-1.214-1.063-2.6-2.215-4.024-3.411c1.84-1.901,5.039-5.196,6.535-6.708
			C141.738,210.182,144.72,216.719,142.563,219.449z"/>
		<path fill="#1B1464" d="M119.392,232.466c-0.322-0.85-0.478-1.972-0.553-3.008c-0.155-2.189-0.513-4.335-1.076-6.37
			c-0.146-0.531-0.202-1.122-0.09-1.671c0.456-2.23,2.831-1.757,2.831-1.757c0.046-0.1,0.095-0.191,0.144-0.285
			c0.352,1.23,0.711,2.518,1.044,3.713l-1.308,9.136C120.285,232.934,119.632,233.103,119.392,232.466z"/>
		<path fill="#1B1464" d="M108.776,260.289c-0.546-0.541-1.029-1.437-1.413-2.306c-0.809-1.847-1.784-3.516-2.908-4.946
			c-0.292-0.374-0.523-0.863-0.591-1.428c-0.276-2.295,1.983-3.479,1.983-3.479c0.011-0.12,0.025-0.236,0.041-0.352
			c0.69,0.857,1.405,1.761,2.066,2.603l1.629,9.021C109.713,260.101,109.184,260.691,108.776,260.289z"/>
		<linearGradient id="SVGID_15_" gradientUnits="userSpaceOnUse" x1="124.2354" y1="203.2891" x2="134.317" y2="196.568">
			<stop  offset="0" style="stop-color:#D96A9A"/>
			<stop  offset="1" style="stop-color:#DF93AA"/>
		</linearGradient>
		<path fill="url(#SVGID_15_)" d="M138.586,204.814c-1.497,1.512-5.245,6.446-7.084,8.348c-3.405-2.867-6.459-7.625-8.394-10.356
			c-1.817-2.573-2.176-6.688-0.885-9.895l1.648-4.095l10.02,3.949l-0.653,3.938C133.238,196.704,135.971,200.357,138.586,204.814z"
			/>
		<g>
			<path fill="#1B1464" d="M144.836,140.58c-0.063-0.574-0.586-1.63-1.064-1.333c0.456-1.005-0.692-1.78-1.147-2.11
				c-0.299-0.216-1.059-0.46-1.195,0.197c-0.025-0.764-1.805-1.072-2.09-1.036c-0.311,0.043-1.817,1.092-1.147,1.756
				c-0.23-0.304-0.747-0.132-1.019-0.06c-0.54,0.143-1.093,0.322-1.513,0.89c-0.428,0.579-0.626,1.73,0.119,1.898
				c-0.805-0.034-1.589,0.935-1.988,1.913c-0.228,0.559-0.344,1.163-0.124,1.781c0.194,0.55,0.517,0.706,0.781,1.098
				c-1.235,0.681-1.166,4.859,0.272,4.897c-1.138,1.686,0.924,4.573,2.095,2.901c0.245-0.35,0.145-0.389,0.488-0.124
				c0.371,0.285,0.648,0.314,1.048,0.122c0.435-0.208,0.769-0.811,0.583-1.528c-0.883,0.389-2.279-0.9-2.202-2.385
				c0.09-1.702,2.058-1.521,1.985,0.237c0.66,0.049,0.942-2.025,0.973-2.696c0.023-0.522,0.05-1.177-0.049-1.679
				c-0.043-0.216-0.118-0.396-0.198-0.567c0.139,0.063,0.282,0.098,0.397,0.104c0.25,0.016,0.517,0.019,0.693-0.292
				c0.129-0.228,0.097-0.505,0.165-0.745c0.358,0.197,0.552,0.567,0.996,0.396c0.31-0.121,0.496-0.395,0.471-0.873
				c0.534,1.138,2.297,0.665,2.057-0.935C144.704,143.086,144.87,140.896,144.836,140.58z"/>
		</g>
	</g>
</g>
<g>
	<g>
		<ellipse fill="#F2F2F2" cx="198.031" cy="278.763" rx="44.387" ry="5.403"/>
		<g>
			<path fill="#1B1464" d="M159.94,248.534c0.159-1.259,0.645-2.589,1.166-3.727c1.105-2.408,1.975-5.023,2.568-7.778
				c0.155-0.72,0.439-1.387,0.873-1.801c1.762-1.688,3.987,2.072,3.987,2.072c0.106-0.045,0.212-0.078,0.316-0.111
				c-0.346,1.684-0.701,2.856-1.048,4.479l-6.694,7.857C160.597,250.117,159.821,249.475,159.94,248.534z"/>
			<g>
				<path fill="#3B3384" d="M203.718,149.263c-2.17-1.852-5.351,5.962-6.072,8.016c-1.568,4.466-3.194,7.337-6.163,9.911
					c2.43,2.261,6.842,0.435,9.229-1.343c-1.942,6.276,2.428,11.639,5.419,15.24c1.35-7.279,6.407-11.14,8.048-18.431
					c0.631-2.802,1.24-5.641,1.68-8.52c0.326-2.128,1.101-4.907,0.24-6.963"/>
			</g>
			<path fill="#FFB291" d="M195.876,221.881l7.144,8.96c-3.048,4.112-6.305,7.867-9.771,11.29c-0.856,0.844-1.87,1.27-2.9,1.196
				l-22.65-1.695l0.737-4.313c-0.743,0.357,16.808-6.904,22.365-3.568L195.876,221.881z"/>
			<linearGradient id="SVGID_16_" gradientUnits="userSpaceOnUse" x1="195.8765" y1="219.5605" x2="209.2158" y2="219.5605">
				<stop  offset="0" style="stop-color:#4F7586"/>
				<stop  offset="1" style="stop-color:#1B4C62"/>
			</linearGradient>
			<path fill="url(#SVGID_16_)" d="M209.216,221.536c-1.955,3.28-4.02,6.381-6.195,9.305l-7.144-8.96l5.816-13.602
				c0.119,3.052,1.086,6.381,3.619,9.606L209.216,221.536z"/>
			<path fill="#FFB291" d="M231.767,156.809c0,0-1.257-1.276-1.777,8.88l-7.784,12.6l-0.267-0.424l-3.064-17.723
				c-0.549-3.17-3.27-4.528-4.926-2.311c-0.076,0.102-0.149,0.208-0.221,0.322l0,0c-1.168,1.887-1.102,4.771,0.15,6.542
				l4.803,21.022c2.169,3.104,5.779,2.385,7.287-1.454l6.318-16.08c0,0,1.822-2.056,2.398-4.812l2.238-2.847
				c0,0,1.1-1.499,0.08-3.467c-0.195-0.397-0.541-0.543-0.832-0.404c-0.656,0.304-1.883,1.064-2.64,2.487
				c0,0,0.946-2.112,2.054-2.767c0,0,0.373-1.414-0.736-0.941c0,0-2.502,1.1-3.211,4.226
				C231.815,158.775,232.095,157.079,231.767,156.809z"/>
			<polygon fill="#FFB291" points="218.962,149.717 218.583,159.07 213.709,157.238 214.387,148.763 			"/>
			<g>
				<path fill="#FFB291" d="M222.817,136.271c0.201,1.184,0.385,2.537,0.402,3.608c0.008,0.554,0.152,1.083,0.435,1.458l1.376,1.838
					c0.145,0.195,0.18,0.514,0.074,0.758c-0.158,0.36-0.423,0.837-0.775,1.001c0,0-0.045,3.063-1.086,5.486
					c-0.329,0.763-0.859,1.302-1.459,1.543c-6.415,2.581-9.552-1.379-10.403-10.729c-0.187-2.049,0.179-4.119,1.009-5.801
					c1.309-2.647,3.99-6.719,7.387-4.564C221.321,131.852,222.414,133.897,222.817,136.271z"/>
				<g>
					<path fill="#1B1464" d="M220.473,140.685c0.052-0.006,0.101-0.044,0.13-0.111c0.58-1.307,1.43-0.637,1.465-0.606
						c0.084,0.066,0.186,0.023,0.231-0.094c0.046-0.118,0.019-0.268-0.063-0.335c-0.4-0.331-1.313-0.595-1.92,0.769
						c-0.051,0.114-0.028,0.267,0.052,0.34C220.399,140.677,220.437,140.689,220.473,140.685z"/>
				</g>
				<g>
					<path fill="#1B1464" d="M223.332,146.715c-0.036-0.051-0.089-0.077-0.144-0.064c-1.06,0.25-1.283-1.112-1.291-1.171
						c-0.022-0.134-0.113-0.217-0.203-0.187c-0.092,0.029-0.149,0.159-0.13,0.291c0.097,0.653,0.573,1.812,1.679,1.553
						c0.094-0.021,0.155-0.149,0.141-0.282C223.378,146.799,223.358,146.751,223.332,146.715z"/>
				</g>
				<path fill="#1B1464" d="M222.387,141.926c0.05,0.372-0.12,0.732-0.376,0.805c-0.258,0.071-0.506-0.173-0.557-0.546
					c-0.049-0.372,0.12-0.732,0.377-0.804C222.089,141.309,222.337,141.553,222.387,141.926z"/>
			</g>
			<g>
				<linearGradient id="SVGID_17_" gradientUnits="userSpaceOnUse" x1="203.9873" y1="179.335" x2="223.6055" y2="179.335">
					<stop  offset="0" style="stop-color:#31BA99"/>
					<stop  offset="0.9981" style="stop-color:#96DCCB"/>
				</linearGradient>
				<path fill="url(#SVGID_17_)" d="M223.593,172.38c-0.055,1.079-0.332,2.127-0.808,3.01l-2.101,3.866
					c-0.174,0.918-1.609,9.668-1.609,9.668l-0.723,17.012l-14.365-3.977c0,0,2.448-9.349,4.44-17.166
					c1.021-4.021,1.136-8.411,0.328-12.53c-0.665-3.373-1.243-7.3-0.813-9.126c0.855-3.639,3.359-7.431,4.151-8.139
					c0.383-0.346,0.83-0.883,1.192-1.351c0.383-0.493,0.664-0.913,0.664-0.913s3.346,2.418,4.793,5.771
					c1.176,2.399,2.219,4.779,3.118,7.159c0.515,1.345,0.983,2.688,1.403,4.027C223.538,170.549,223.645,171.475,223.593,172.38z"/>
			</g>
			<path fill="#FFFFFF" d="M223.593,172.38l-4.657,0.369v-6.578l2.926-0.506c0.515,1.345,0.983,2.688,1.403,4.027
				C223.538,170.549,223.645,171.475,223.593,172.38z"/>
			<path fill="#FFB291" d="M232.211,237.858l-3.261,36.243h-3.123c-1.11-16.058-2.162-31.884-0.663-37.644l-8.643-8.083l10.84-5.853
				l2.065,3.102C231.589,228.88,232.615,233.381,232.211,237.858z"/>
			<path fill="#54B5F7" d="M213.222,211.473c0,1.794-0.392,3.62-1.243,5.204c-0.894,1.66-1.813,3.28-2.763,4.859l-3.904-3.65
				c-2.533-3.226-3.5-6.555-3.619-9.606l0.574-1.351c1.354-3.164,3.965-4.704,6.459-3.803
				C211.523,204.129,213.222,207.736,213.222,211.473z"/>
			<path fill="#1B1464" d="M236.433,281.04c-0.857,0.308-1.895,0.211-2.824-0.013c-1.971-0.475-3.973-0.553-5.953-0.207
				c-0.516,0.09-1.053-0.012-1.491-0.416c-1.784-1.635-0.517-5.936-0.517-5.936l0.164-0.589c1.201-0.23,2.04-0.315,3.204-0.52
				l7.563,5.734C237.163,279.525,237.075,280.812,236.433,281.04z"/>
			<linearGradient id="SVGID_18_" gradientUnits="userSpaceOnUse" x1="201.6787" y1="212.1982" x2="227.3613" y2="212.1982">
				<stop  offset="0" style="stop-color:#4F7586"/>
				<stop  offset="1" style="stop-color:#1B4C62"/>
			</linearGradient>
			<path fill="url(#SVGID_18_)" d="M218.25,208.84l0.179-4.767l-13.117-8.052c0,0-3.896,5.457-3.619,12.258
				c0.119,3.052,1.086,6.381,3.619,9.606l3.904,3.65l7.306,6.839l10.84-5.853L218.25,208.84z"/>
			<g>
				<path fill="#FFB291" d="M212.335,191.598c-0.289,0.352-1.29-0.616-1.806-1.165c1.784,2.048,1.632,5.826,1.632,5.826
					c-0.078,1.67-0.865,0.677-0.865,0.677c-0.038-1.62-0.958-3.494-1.072-3.723c0.65,1.511,0.719,3.428,0.689,4.421
					c-0.014,0.443-0.227,0.864-0.554,0.992c-1.626,0.703-2.218-1.307-2.218-1.307l-1.068-4.026
					c-1.589-1.739-2.287-4.921-2.287-4.921l-8.238-14.145c-1.963-3.379-1.184-8.534,1.579-10.408l7.681-5.297l2.605,8.379
					l-6.326,4.058l-0.365,0.217l5.475,14.934C213.595,190.327,212.335,191.598,212.335,191.598z"/>
				<linearGradient id="SVGID_19_" gradientUnits="userSpaceOnUse" x1="205.8076" y1="160.4092" x2="216.4912" y2="160.4092">
					<stop  offset="0" style="stop-color:#31BA99"/>
					<stop  offset="0.9981" style="stop-color:#96DCCB"/>
				</linearGradient>
				<path fill="url(#SVGID_19_)" d="M214.544,162.975l-6.131,3.927l-2.605-8.379l6.012-4.144c0.452-0.314,0.934-0.462,1.4-0.462
					c1.176,0,2.305,0.918,2.892,2.521C216.997,158.861,216.277,161.864,214.544,162.975z"/>
			</g>
			<g>
				<path fill="#3B3384" d="M221.204,128.932c-0.949-0.814-6.926-2.873-9.928,4.465c-0.337,0.819-3.811,6.635-5.82,7.127
					c-2.645,0.648-4.9-0.443-7.447,1.382c-2.418,1.727-4.274,4.896-6.816,6.4c-2.631,1.566-4.402,0.191-6.961-0.352
					c2.146,7.547,6.757,7.035,11.589,7.418c-1.826,3.656-4.802,3.052-7.233,4.822c4.525,0.443,9.856,0.117,14.296-1.018
					c2.946-0.753,5.412-2.128,7.941-4.471c1.703-1.579,4.257-3.213,5.104-6.08c0.265-0.407,0.455-0.813,0.489-1.184
					c-0.191-0.013-0.354-0.056-0.498-0.13c-0.271-0.13-0.49-0.376-0.74-0.752c-0.52-0.789-0.656-2.115-0.447-3.256
					c0.111-0.592,0.311-1.135,0.6-1.523c0.92-1.232,2.065,0.031,2.18,1.579l0.119-0.086c0.171-0.734,0.555-1.431,0.853-2.066
					c0.31-0.672,0.591-1.381,0.782-2.146c0.073-0.277,0.107-0.678,0.239-0.869c0.038,0.875,0.017,1.764,0.038,2.645
					c0.566-0.332,1.167-1.301,1.523-1.984c0.23-0.445,0.481-0.87,0.703-1.32c0.145-0.296,0.341-0.906,0.584-1.023
					c0.013,0.697,0.047,1.486-0.141,2.14c0.686-0.642,1.584-1.961,1.656-3.182C223.972,133.76,224.173,131.479,221.204,128.932z"/>
			</g>
		</g>
	</g>
	<g>
		
			<line fill="none" stroke="#FFFFFF" stroke-width="2" stroke-linecap="round" stroke-linejoin="round" stroke-miterlimit="10" x1="197.078" y1="205.936" x2="175.188" y2="205.936"/>
		
			<line fill="none" stroke="#FFFFFF" stroke-width="2" stroke-linecap="round" stroke-linejoin="round" stroke-miterlimit="10" x1="199.083" y1="201.062" x2="177.192" y2="201.062"/>
		
			<line fill="none" stroke="#FFFFFF" stroke-width="2" stroke-linecap="round" stroke-linejoin="round" stroke-miterlimit="10" x1="197.572" y1="196.878" x2="175.681" y2="196.878"/>
		
			<line fill="none" stroke="#FFFFFF" stroke-width="2" stroke-linecap="round" stroke-linejoin="round" stroke-miterlimit="10" x1="201.032" y1="192.632" x2="179.142" y2="192.632"/>
	</g>
</g>
<g>
	<g>
		<ellipse fill="#F2F2F2" cx="56.021" cy="275.469" rx="23.069" ry="6.753"/>
		<g>
			<g>
				<path fill="#FFB291" d="M75.396,209.867l-2.431,5.1l-0.958,2.019l-1.65,3.477l-0.59,1.232l-1.492,3.138l-1.771,3.729
					l-0.133,0.283l-2.913,6.122l-1.569,3.3l-2.18,4.582l-10.018,19.308l-2.657,5.118l-2.561-2.85
					c0.238-0.914,0.805-3.031,1.597-5.689c1.966-6.595,5.331-16.559,8.583-19.891c0,0,1.497-5.502,3.818-12.398
					c0.129-0.38,0.259-0.771,0.396-1.163c0.376-1.111,0.776-2.246,1.193-3.402c1.128-3.125,2.39-6.356,3.721-9.362
					c0.125-0.287,0.25-0.57,0.38-0.859c0.274-0.608,0.562-1.317,0.854-2.101c0.683-1.827,1.386-4.009,1.986-5.976
					c0.893-2.952,1.557-5.41,1.557-5.41L75.396,209.867z"/>
			</g>
			<linearGradient id="SVGID_20_" gradientUnits="userSpaceOnUse" x1="60.0576" y1="211.502" x2="75.394" y2="211.502">
				<stop  offset="0" style="stop-color:#31BA99"/>
				<stop  offset="0.9981" style="stop-color:#96DCCB"/>
			</linearGradient>
			<path fill="url(#SVGID_20_)" d="M75.394,209.867l-2.431,5.1l-2.608,5.495l-0.59,1.232l-1.493,3.138l-8.214-2.952
				c1.129-3.125,2.39-6.356,3.721-9.362c0.125-0.287,0.25-0.57,0.38-0.859c0.917-2.021,1.986-5.273,2.839-8.076
				c0.895-2.952,1.558-5.41,1.558-5.41L75.394,209.867z"/>
			<g>
				<path fill="#3B3384" d="M90.244,134.324c-0.753,2.429,0.917,5.997,1.215,8.418c0.4,3.228-0.177,5.763-1.3,8.521
					c-1.469,3.606-4.228,4.17-6.821,4.795c-2.701,0.653-7.847,2.014-6.979-4.393c0.52-3.838,2.448-7.556,4.247-10.226
					c1.126-1.672,2.208-3.455,3.556-4.738c0.88-0.835,1.864-1.534,2.78-2.277"/>
			</g>
			<path fill="#FDFDF4" d="M49.689,262.155l-2.657,5.118l-2.561-2.85c0.238-0.914,0.805-3.031,1.597-5.689L49.689,262.155z"/>
			<path fill="#FFB291" d="M97.752,176.059c0,0-0.165-2.026-5.139,3.688l-10.437,0.032l1.059-18.761
				c-0.066-2.336-1.406-4.469-3.1-4.466l0,0c-1.564,0.002-2.849,1.839-2.914,4.163l-0.562,20.14
				c-0.129,4.047,2.359,7.177,5.021,6.313l11.16-3.619c0,0,2.032,0.542,3.641-0.58l2.646,0.468c0,0,1.346,0.167,1.639-2.049
				c0.067-0.437-0.074-0.867-0.311-1.069c-0.533-0.463-1.614-1.21-2.72-1.086c0,0,1.535-0.36,2.498,0.335c0,0,0.873-0.5-0.009-1.307
				c0,0-1.999-1.798-3.859-0.583C96.878,177.313,97.825,176.548,97.752,176.059z"/>
			<polygon fill="#FFB291" points="85.32,152.201 82.109,157.74 78.77,153.443 82.431,147.813 			"/>
			<g>
				<path fill="#FFB291" d="M89.757,138.939c0.038,1.116,0.042,2.383-0.069,3.354c-0.057,0.5,0.008,1.013,0.211,1.422l0.993,2.001
					c0.105,0.214,0.099,0.51-0.022,0.702c-0.18,0.286-0.469,0.648-0.797,0.708c0,0-0.396,2.75-1.594,4.673
					c-0.377,0.604-0.906,0.957-1.46,1.024c-5.934,0.713-8.225-3.643-7.882-12.285c0.076-1.892,0.638-3.667,1.563-4.974
					c1.457-2.057,4.287-5.053,7.017-2.259C88.959,134.579,89.679,136.698,89.757,138.939z"/>
				<g>
					<path fill="#1B1464" d="M87.183,142.327c0.046,0.009,0.093-0.014,0.127-0.067c0.662-1.031,1.328-0.215,1.357-0.18
						c0.065,0.082,0.161,0.068,0.214-0.025c0.054-0.095,0.048-0.237-0.016-0.317c-0.313-0.399-1.083-0.867-1.775,0.21
						c-0.058,0.091-0.055,0.234,0.005,0.32C87.121,142.303,87.152,142.322,87.183,142.327z"/>
				</g>
				<g>
					<path fill="#1B1464" d="M88.992,148.48c-0.027-0.056-0.07-0.093-0.119-0.095c-0.96-0.04-0.997-1.324-0.998-1.379
						c-0.004-0.127-0.073-0.224-0.157-0.22c-0.083,0.003-0.15,0.105-0.148,0.23c0.01,0.613,0.292,1.776,1.293,1.82
						c0.083,0.004,0.154-0.096,0.156-0.22C89.021,148.568,89.01,148.52,88.992,148.48z"/>
				</g>
				<ellipse fill="#1B1464" cx="88.295" cy="143.927" rx="0.424" ry="0.631"/>
			</g>
			<g>
				<linearGradient id="SVGID_21_" gradientUnits="userSpaceOnUse" x1="64.6587" y1="185.4946" x2="86.1011" y2="172.7788">
					<stop  offset="0" style="stop-color:#DF93AA"/>
					<stop  offset="0.2962" style="stop-color:#DE8DA8"/>
					<stop  offset="0.6908" style="stop-color:#DC7CA1"/>
					<stop  offset="1" style="stop-color:#D96A9A"/>
				</linearGradient>
				<path fill="url(#SVGID_21_)" d="M84.839,174.968c-0.057,0.087-0.114,0.17-0.17,0.247l-2.245,3.044
					c-0.036,0.108-0.109,0.361-0.21,0.709c-0.606,2.088-2.192,7.691-2.192,7.691l-2.374,15.236l-12.263-6.745
					c0,0,3.11-7.926,5.666-14.571c1.311-3.416,1.86-7.359,1.565-11.269c-0.242-3.198-0.352-6.878,0.215-8.437
					c1.124-3.109,3.716-5.988,4.485-6.457c0.376-0.229,0.825-0.62,1.189-0.962c0.392-0.367,0.679-0.68,0.679-0.68
					s2.706,2.923,3.64,6.277c1.031,3.156,1.864,6.249,2.487,9.267c0.129,0.619,0.251,1.231,0.36,1.846
					C85.983,171.879,85.656,173.699,84.839,174.968z"/>
			</g>
			<path fill="#FFFFFF" d="M85.672,170.165c0.312,1.714-0.016,3.534-0.833,4.803c-0.966-0.313-1.848-1.081-1.848-1.081
				c0.792-1.912,1.374-3.836,0.493-5.815c0.732,0.204,1.335,0.277,1.829,0.248C85.441,168.938,85.563,169.551,85.672,170.165z"/>
			<path fill="#FFB291" d="M78.787,188.763c0,0,1.063-1.292-4.845-4.484l-5.602-13.093l0.316-0.235l10.715-8.604
				c1.49-1.197,1.985-4.022,1.078-6.148l0,0c-0.838-1.963-2.569-2.597-3.925-1.435l-11.745,10.067
				c-2.37,2.002-2.816,6.802-0.902,9.686l8.026,12.083c0,0,0.779,2.841,2.278,4.263l1.148,3.572c0,0,0.624,1.781,2.041,0.966
				c0.284-0.152,0.454-0.557,0.443-0.963c-0.023-0.918-0.177-2.678-0.839-3.997c0,0,1.026,1.734,1.146,3.317
				c0,0,0.75,0.827,0.737-0.71c0,0-0.047-3.475-1.732-5.159C77.607,188.334,78.547,189.114,78.787,188.763z"/>
			<path fill="#FFB291" d="M88.722,230.016c-3.114,4.312-10.544,3.655-20.626,4.474c-1.488,0.115-3.037,0.27-4.639,0.477
				c-0.053,0.003-0.109,0.01-0.162,0.017l-1.149-4.714c1.412-0.539,2.799-1.095,4.158-1.629c0.065-0.025,0.133-0.055,0.198-0.079
				c5.649-2.23,10.733-4.167,14.406-3.987c-1.105-0.962-2.321-1.983-3.587-3.049c-1.747-1.46-3.575-2.993-5.314-4.539
				c-2.694-2.393-5.161-4.812-6.721-7.016c-0.093-0.134-0.187-0.271-0.271-0.412c-1.95-3.114-2.285-7.817-0.797-11.5l1.99-4.943
				l12.068,4.755l-0.789,4.744c0,0,3.612,4.83,6.891,10.549C88.002,219.469,91.218,226.86,88.722,230.016z"/>
			<path fill="#FDFDF4" d="M68.095,234.489c-1.488,0.115-3.037,0.27-4.639,0.477c-0.053,0.003-0.109,0.01-0.162,0.017l-1.149-4.714
				c1.412-0.539,2.799-1.095,4.158-1.629l0.065,0.204L68.095,234.489z"/>
			<path fill="#1B1464" d="M60.808,245.695c-0.386-1.024-0.576-2.377-0.665-3.622c-0.188-2.64-0.62-5.224-1.297-7.676
				c-0.177-0.639-0.244-1.352-0.109-2.013c0.549-2.685,3.409-2.116,3.409-2.116c0.056-0.121,0.114-0.23,0.174-0.346
				c0.424,1.483,0.857,3.035,1.257,4.475l-1.576,11.008C61.883,246.259,61.097,246.461,60.808,245.695z"/>
			<path fill="#1B1464" d="M48.02,279.207c-0.657-0.649-1.24-1.728-1.7-2.777c-0.976-2.221-2.15-4.235-3.503-5.958
				c-0.354-0.45-0.63-1.039-0.712-1.719c-0.333-2.763,2.389-4.188,2.389-4.188c0.012-0.146,0.03-0.288,0.049-0.428
				c0.832,1.034,1.691,2.123,2.489,3.138l1.962,10.866C49.15,278.98,48.511,279.695,48.02,279.207z"/>
			<g>
				<g>
					<path fill="#FFB291" d="M78.467,136.495l0.011,0.37C78.48,136.74,78.477,136.617,78.467,136.495z"/>
				</g>
				<g>
					<path fill="#3B3384" d="M90.143,132.583c-1.74-2.016-3.514-2.794-5.697-2.42c-2.051,0.354-3.942,1.417-5.319,3.792
						c-0.632,1.09-1.147,2.355-1.5,3.711c-0.865,3.321-2.409,6.181-4.438,8.077c-0.183,0.171-0.358,0.322-0.522,0.449
						c-1.174,0.909-2.53,1.388-3.792,1.971c-0.611,0.283-1.332,0.626-1.786,1.337c-0.584,0.915-0.291,1.613,0.093,2.461
						c0.884,1.954-0.454,2.563-1.506,3.228c-0.953,0.604-2.627,1.92-2.925,3.555c-0.454,2.492,1.554,2.374,2.485,1.747
						c0.55-0.369,1.099-1.122,1.704-1.28c0.775-0.201,0.978,0.712,0.608,1.657c-0.313,0.802-1.305,1.913-0.291,2.442
						c0.671,0.353,1.225-0.366,1.76-0.866c1.978-1.855,3.61-4.304,5.658-6.032c1.415-1.194,3.148-2.619,4.865-2.181
						c1.274,0.327,1.958,2.561,2.061,4.267c0.126,2.102-0.195,3.731-1.011,5.484c-0.804,1.729-1.767,4.762-1.11,6.865
						c0.85,2.726,2.963-0.326,3.398-1.864c1.908-6.757,0.398-21.807,0.398-21.807c-1.336,0.475-1.727-1.378-1.448-2.982
						c0.137-0.791,0.491-1.726,1.099-1.763c0.367-0.021,0.82,0.323,0.896,0.868c0.324-0.408,0.708-1.353,0.889-1.806
						c0.341-0.855,0.299-1.623,0.335-2.575c0.647,1.242,1.651,2.016,2.266,0.246c0.361,0.581,0.599,1.193,1.212,0.924
						c0.42-0.186,0.94-0.809,1.022-1.468c1.021,1.619,2.588,0.809,2.67-1.372C92.303,134.973,91.24,133.856,90.143,132.583z"/>
				</g>
			</g>
			<linearGradient id="SVGID_22_" gradientUnits="userSpaceOnUse" x1="63.29" y1="207.3193" x2="84.3765" y2="207.3193">
				<stop  offset="0" style="stop-color:#31BA99"/>
				<stop  offset="0.9981" style="stop-color:#96DCCB"/>
			</linearGradient>
			<path fill="url(#SVGID_22_)" d="M84.376,213.162l-7.058,8.362c-4.445-3.727-9.463-7.924-12.036-11.555
				c-2.188-3.105-2.621-8.06-1.068-11.912l1.99-4.943l12.068,4.755l-0.789,4.744C77.485,202.613,81.097,207.443,84.376,213.162z"/>
		</g>
	</g>
	<g>
		
			<line fill="none" stroke="#FFFFFF" stroke-width="2" stroke-linecap="round" stroke-linejoin="round" stroke-miterlimit="10" x1="56.468" y1="207.844" x2="29.81" y2="207.844"/>
		
			<line fill="none" stroke="#FFFFFF" stroke-width="2" stroke-linecap="round" stroke-linejoin="round" stroke-miterlimit="10" x1="58.909" y1="201.748" x2="32.251" y2="201.748"/>
		
			<line fill="none" stroke="#FFFFFF" stroke-width="2" stroke-linecap="round" stroke-linejoin="round" stroke-miterlimit="10" x1="57.069" y1="196.517" x2="30.411" y2="196.517"/>
		
			<line fill="none" stroke="#FFFFFF" stroke-width="2" stroke-linecap="round" stroke-linejoin="round" stroke-miterlimit="10" x1="61.284" y1="191.212" x2="34.626" y2="191.212"/>
	</g>
</g>
<g>
	<defs>
		<rect id="SVGID_23_" x="279.362" y="119.144" width="141.641" height="209.82"/>
	</defs>
	<clipPath id="SVGID_24_">
		<use xlink:href="#SVGID_23_"  overflow="visible"/>
	</clipPath>
	<path clip-path="url(#SVGID_24_)" fill="#375A64" d="M383.727,222.438l-0.001-75.23c0-2.399-0.863-4.615-2.266-5.815l-11.508-9.841
		c-1.402-1.2-3.129-1.2-4.531,0l-48.329,41.334c-0.689,0.59-1.262,1.438-1.659,2.458l-11.507,29.523
		c-0.397,1.021-0.608,2.18-0.608,3.357v75.23c0,0.993,0.444,1.984,1.328,2.74c1.771,1.515,4.64,1.515,6.41,0
		c0.885-0.756,1.328-1.747,1.328-2.74v-73.432l10.292-26.408l45.011-38.495l6.974,5.965l0.001,71.354l0,0
		c-0.001,0.994,0.441,1.987,1.328,2.745c1.77,1.515,4.639,1.515,6.409,0C383.285,224.425,383.727,223.432,383.727,222.438
		L383.727,222.438z"/>
	<path clip-path="url(#SVGID_24_)" fill="#2B454E" d="M312.384,210.022c0,0-1.445-2.938-5.768-3.544c0,0,3.076-1.276,6.458,1.772
		L312.384,210.022z"/>
	<path clip-path="url(#SVGID_24_)" fill="#2B454E" d="M322.676,183.614c0,0,0.36-3.524-2.238-6.517c0,0,2.391,1.067,3.198,5.695
		L322.676,183.614z"/>
	<path clip-path="url(#SVGID_24_)" fill="#2B454E" d="M367.687,145.119c0.854-1.283,1.549-4.578,1.372-7.53
		c0,0,1.008,3.104-0.468,8.302L367.687,145.119z"/>
	<path clip-path="url(#SVGID_24_)" fill="#2B454E" d="M374.66,151.084c2.324,0.138,4.613-1.15,5.688-3.461
		c0,0-0.911,4.654-5.688,5.121V151.084z"/>
	<path clip-path="url(#SVGID_24_)" fill="#2B454E" d="M357.489,153.84v-11.266c0-0.58-0.275-0.814-0.615-0.525l-28.69,24.539
		c-0.339,0.291-0.612,0.995-0.612,1.575v11.266L357.489,153.84z"/>
	<path clip-path="url(#SVGID_24_)" fill="#00DEBE" d="M358.059,140.021c-0.111-0.1-0.267-0.086-0.438,0.061l-28.691,24.539
		c-0.339,0.289-0.614,0.994-0.614,1.573v15.616c0,0.289,0.069,0.493,0.181,0.588c0.11,0.094,1.039,0.888,1.15,0.984
		c0.11,0.094,0.265,0.081,0.434-0.065l28.691-24.537c0.339-0.29,0.614-0.995,0.614-1.573V141.59c0-0.293-0.072-0.498-0.184-0.591
		C359.091,140.907,358.167,140.117,358.059,140.021"/>
	<path clip-path="url(#SVGID_24_)" fill="#00DEBE" d="M330.08,165.604l28.69-24.539c0.34-0.29,0.615-0.054,0.615,0.524v15.616
		c0,0.579-0.275,1.284-0.615,1.574l-28.69,24.537c-0.339,0.29-0.613,0.057-0.613-0.524v-15.614
		C329.467,166.6,329.741,165.895,330.08,165.604"/>
	<g opacity="0.15" clip-path="url(#SVGID_24_)">
		<g>
			<defs>
				<rect id="SVGID_25_" x="328.315" y="165.301" width="1.332" height="18.048"/>
			</defs>
			<clipPath id="SVGID_26_">
				<use xlink:href="#SVGID_25_"  overflow="visible"/>
			</clipPath>
			<path clip-path="url(#SVGID_26_)" d="M329.466,182.795c0,0.256,0.055,0.444,0.145,0.554c-0.203-0.172-1.011-0.865-1.117-0.953
				c-0.109-0.092-0.178-0.298-0.178-0.587v-15.614c0-0.29,0.068-0.608,0.182-0.894l1.15,0.981c-0.113,0.286-0.182,0.609-0.182,0.898
				V182.795z"/>
		</g>
	</g>
	<g opacity="0.4" clip-path="url(#SVGID_24_)">
		<g>
			<defs>
				<rect id="SVGID_27_" x="328.497" y="139.959" width="30.674" height="26.323"/>
			</defs>
			<clipPath id="SVGID_28_">
				<use xlink:href="#SVGID_27_"  overflow="visible"/>
			</clipPath>
			<path clip-path="url(#SVGID_28_)" fill="#FFFFFF" d="M358.059,140.021c0.104,0.092,0.92,0.788,1.112,0.952
				c-0.106-0.063-0.247-0.037-0.399,0.093l-28.69,24.541c-0.17,0.142-0.32,0.39-0.434,0.675l-1.15-0.981
				c0.111-0.286,0.264-0.534,0.434-0.681l28.69-24.54C357.791,139.938,357.947,139.925,358.059,140.021"/>
		</g>
	</g>
	<path clip-path="url(#SVGID_24_)" fill="#F9F9F9" d="M337.454,163.358c0.043-0.038,0.083-0.033,0.115,0.013
		c0.032,0.047,0.049,0.12,0.049,0.222v1.472c0,0.102-0.017,0.204-0.049,0.306c-0.032,0.103-0.072,0.172-0.115,0.21l-1.82,1.556
		v1.902l1.697-1.453c0.046-0.038,0.083-0.033,0.117,0.013c0.032,0.047,0.047,0.121,0.047,0.222v1.472
		c0,0.103-0.015,0.204-0.047,0.307c-0.034,0.102-0.071,0.171-0.117,0.209l-1.697,1.453v2.997c0,0.103-0.016,0.204-0.049,0.307
		c-0.032,0.102-0.071,0.172-0.115,0.21l-0.798,0.682c-0.044,0.038-0.083,0.033-0.115-0.013s-0.049-0.12-0.049-0.222v-8.968
		c0-0.102,0.017-0.203,0.049-0.305c0.032-0.103,0.071-0.172,0.115-0.21L337.454,163.358z"/>
	<path clip-path="url(#SVGID_24_)" fill="#F9F9F9" d="M338.427,172.243c-0.044,0.038-0.083,0.034-0.115-0.013
		c-0.032-0.046-0.049-0.12-0.049-0.222v-8.968c0-0.102,0.017-0.203,0.049-0.305c0.032-0.103,0.071-0.172,0.115-0.21l0.798-0.682
		c0.044-0.038,0.083-0.035,0.116,0.012c0.032,0.046,0.048,0.12,0.048,0.222v8.967c0,0.103-0.016,0.204-0.048,0.307
		c-0.033,0.102-0.072,0.171-0.116,0.21L338.427,172.243z"/>
	<path clip-path="url(#SVGID_24_)" fill="#F9F9F9" d="M343.01,168.323c-0.069,0.06-0.125,0.065-0.166,0.018
		c-0.044-0.047-0.07-0.088-0.083-0.123l-1.394-3.557v4.692c0,0.103-0.017,0.204-0.049,0.306c-0.033,0.102-0.07,0.173-0.115,0.211
		l-0.797,0.682c-0.046,0.037-0.083,0.033-0.115-0.013c-0.034-0.046-0.05-0.12-0.05-0.222v-8.968c0-0.102,0.016-0.204,0.05-0.306
		c0.032-0.102,0.069-0.172,0.115-0.21l0.632-0.541c0.069-0.059,0.126-0.065,0.168-0.019s0.069,0.089,0.081,0.124l1.395,3.556v-4.692
		c0-0.102,0.017-0.203,0.049-0.305s0.071-0.172,0.115-0.21l0.798-0.683c0.044-0.037,0.083-0.034,0.115,0.013
		c0.033,0.046,0.049,0.12,0.049,0.222v8.967c0,0.104-0.016,0.204-0.049,0.307c-0.032,0.102-0.071,0.171-0.115,0.209L343.01,168.323z
		"/>
	<path clip-path="url(#SVGID_24_)" fill="#F9F9F9" d="M344.824,166.772c-0.045,0.038-0.082,0.034-0.114-0.013
		c-0.034-0.046-0.05-0.12-0.05-0.222v-8.968c0-0.102,0.016-0.203,0.05-0.305c0.032-0.103,0.069-0.172,0.114-0.211l0.798-0.682
		c0.045-0.039,0.082-0.034,0.115,0.012c0.032,0.047,0.049,0.12,0.049,0.223v8.967c0,0.103-0.017,0.204-0.049,0.307
		c-0.033,0.102-0.07,0.172-0.115,0.21L344.824,166.772z"/>
	<path clip-path="url(#SVGID_24_)" fill="#F9F9F9" d="M348.22,154.012c0.26-0.222,0.499-0.341,0.716-0.355
		c0.217-0.014,0.405,0.046,0.563,0.179c0.158,0.134,0.282,0.323,0.371,0.571c0.089,0.246,0.138,0.516,0.14,0.809
		c0,0.084-0.013,0.168-0.039,0.25c-0.025,0.082-0.056,0.137-0.088,0.166l-0.798,0.682c-0.057,0.049-0.102,0.069-0.136,0.062
		c-0.035-0.007-0.071-0.032-0.106-0.075c-0.013-0.018-0.032-0.047-0.058-0.09c-0.028-0.041-0.065-0.078-0.113-0.105
		c-0.049-0.027-0.109-0.036-0.184-0.023c-0.072,0.012-0.161,0.063-0.268,0.152c-0.076,0.066-0.15,0.142-0.222,0.225
		c-0.071,0.084-0.135,0.175-0.188,0.272c-0.056,0.099-0.1,0.208-0.135,0.329c-0.034,0.123-0.052,0.253-0.052,0.392
		c0,0.14,0.02,0.239,0.058,0.298c0.038,0.061,0.104,0.09,0.195,0.09c0.091,0.002,0.211-0.025,0.361-0.08
		c0.15-0.054,0.337-0.125,0.561-0.215c0.223-0.09,0.417-0.126,0.584-0.111c0.166,0.016,0.305,0.093,0.417,0.232
		c0.112,0.143,0.194,0.348,0.249,0.621c0.056,0.271,0.083,0.625,0.083,1.06c0,0.472-0.046,0.935-0.141,1.384
		c-0.093,0.45-0.225,0.879-0.393,1.286c-0.167,0.408-0.366,0.779-0.597,1.115c-0.229,0.334-0.479,0.618-0.751,0.85
		c-0.276,0.237-0.528,0.368-0.755,0.396c-0.227,0.027-0.424-0.025-0.588-0.157c-0.164-0.133-0.293-0.33-0.386-0.592
		c-0.094-0.263-0.143-0.569-0.146-0.917c0-0.084,0.013-0.166,0.039-0.249c0.025-0.083,0.056-0.138,0.088-0.166l0.798-0.682
		c0.057-0.048,0.102-0.07,0.134-0.066c0.032,0.006,0.064,0.026,0.098,0.063c0.016,0.023,0.04,0.063,0.072,0.117
		c0.032,0.057,0.076,0.104,0.131,0.145c0.056,0.042,0.125,0.06,0.207,0.053c0.083-0.006,0.187-0.062,0.308-0.166
		c0.215-0.184,0.395-0.391,0.539-0.62s0.216-0.483,0.216-0.761c0-0.14-0.026-0.231-0.079-0.28c-0.053-0.047-0.133-0.064-0.238-0.053
		s-0.24,0.051-0.404,0.116c-0.164,0.067-0.358,0.142-0.58,0.221c-0.419,0.154-0.724,0.074-0.917-0.237
		c-0.193-0.313-0.289-0.865-0.289-1.661c0-0.398,0.039-0.812,0.119-1.239c0.079-0.43,0.193-0.847,0.344-1.253
		c0.148-0.405,0.331-0.78,0.544-1.124C347.718,154.521,347.956,154.237,348.22,154.012"/>
	<path clip-path="url(#SVGID_24_)" fill="#F9F9F9" d="M354.179,149.054c0.046-0.038,0.083-0.034,0.115,0.013
		s0.049,0.119,0.049,0.222v8.968c0,0.102-0.017,0.204-0.049,0.305c-0.032,0.102-0.069,0.172-0.115,0.21l-0.797,0.682
		c-0.045,0.04-0.083,0.035-0.115-0.011c-0.034-0.047-0.049-0.121-0.049-0.223v-3.401l-1.352,1.155v3.401
		c0,0.103-0.017,0.204-0.049,0.307c-0.032,0.101-0.071,0.171-0.115,0.209l-0.798,0.683c-0.044,0.038-0.083,0.035-0.116-0.006
		c-0.032-0.042-0.048-0.118-0.048-0.229v-8.968c0-0.103,0.016-0.203,0.048-0.306c0.033-0.102,0.072-0.171,0.116-0.211l0.798-0.682
		c0.044-0.037,0.083-0.033,0.115,0.013s0.049,0.12,0.049,0.222v3.346l1.352-1.154v-3.346c0-0.103,0.015-0.205,0.049-0.307
		c0.032-0.102,0.07-0.172,0.115-0.209L354.179,149.054z"/>
	<path clip-path="url(#SVGID_24_)" fill="#375A64" d="M350.886,167.804c-0.111-0.098-0.266-0.085-0.438,0.061l-11.776,10.08
		c-0.339,0.29-0.612,0.993-0.612,1.574v7.747c0,0.289,0.068,0.493,0.178,0.587c0.112,0.095,1.041,0.889,1.151,0.985
		c0.111,0.094,0.264,0.08,0.434-0.065l11.775-10.077c0.34-0.29,0.615-0.994,0.615-1.574v-7.747c0-0.294-0.071-0.498-0.185-0.592
		C351.917,168.69,350.994,167.9,350.886,167.804"/>
	<path clip-path="url(#SVGID_24_)" fill="#1A2E35" d="M339.209,188.25c0,0.256,0.054,0.444,0.146,0.554
		c-0.205-0.173-1.013-0.865-1.117-0.953c-0.11-0.092-0.178-0.298-0.178-0.588v-7.747c0-0.287,0.067-0.607,0.181-0.892l1.15,0.981
		c-0.114,0.285-0.182,0.608-0.182,0.897V188.25z"/>
	<path clip-path="url(#SVGID_24_)" fill="#2B454E" d="M350.885,167.804c0.104,0.094,0.921,0.789,1.113,0.952
		c-0.107-0.063-0.248-0.037-0.4,0.094l-11.774,10.081c-0.17,0.141-0.318,0.388-0.433,0.675l-1.15-0.981
		c0.11-0.286,0.263-0.533,0.435-0.681l11.773-10.08C350.617,167.72,350.774,167.708,350.885,167.804"/>
	<path clip-path="url(#SVGID_24_)" fill="#00DEBE" d="M341.129,180.007c0.119-0.101,0.226-0.159,0.318-0.168
		c0.094-0.014,0.166,0.009,0.221,0.065c0.053,0.056,0.097,0.132,0.133,0.232c0.034,0.099,0.058,0.198,0.069,0.294
		c0.012,0.097,0.019,0.191,0.019,0.283v2.411c0,0.092-0.007,0.197-0.019,0.313c-0.012,0.117-0.035,0.254-0.069,0.415
		c-0.036,0.159-0.08,0.312-0.133,0.46c-0.055,0.146-0.127,0.294-0.221,0.442c-0.093,0.147-0.199,0.273-0.318,0.374
		c-0.086,0.074-0.165,0.123-0.238,0.15c-0.072,0.024-0.135,0.031-0.186,0.016c-0.052-0.014-0.098-0.045-0.137-0.09
		c-0.041-0.045-0.071-0.099-0.098-0.161c-0.022-0.063-0.044-0.133-0.059-0.209s-0.026-0.147-0.032-0.218
		c-0.006-0.066-0.008-0.132-0.008-0.197v-2.408c0-0.065,0.002-0.138,0.008-0.214c0.006-0.078,0.018-0.168,0.032-0.271
		c0.015-0.103,0.036-0.206,0.059-0.31c0.026-0.103,0.057-0.213,0.098-0.327c0.039-0.114,0.085-0.222,0.137-0.325
		c0.051-0.101,0.113-0.202,0.186-0.301C340.964,180.166,341.043,180.081,341.129,180.007 M341.129,184.865
		c0.064-0.056,0.123-0.126,0.173-0.213c0.051-0.085,0.09-0.175,0.117-0.263c0.03-0.09,0.054-0.186,0.072-0.287
		c0.019-0.101,0.031-0.19,0.037-0.269c0.007-0.079,0.01-0.153,0.01-0.225v-2.781c0-0.072-0.003-0.142-0.01-0.209
		c-0.006-0.067-0.019-0.135-0.037-0.204c-0.021-0.069-0.044-0.123-0.073-0.163c-0.029-0.041-0.068-0.061-0.118-0.061
		s-0.107,0.026-0.171,0.08c-0.064,0.057-0.121,0.126-0.171,0.213c-0.05,0.086-0.089,0.173-0.119,0.263
		c-0.029,0.09-0.054,0.184-0.07,0.287c-0.019,0.099-0.031,0.188-0.037,0.267c-0.007,0.079-0.011,0.155-0.011,0.225v2.784
		c0,0.069,0.004,0.139,0.011,0.206c0.006,0.069,0.019,0.137,0.038,0.206c0.019,0.069,0.042,0.123,0.07,0.162
		c0.029,0.04,0.069,0.061,0.119,0.063C341.008,184.946,341.065,184.919,341.129,184.865"/>
	<path clip-path="url(#SVGID_24_)" fill="#00DEBE" d="M342.237,179.325l0.584-0.766v5.059l-0.35,0.299v-4.294
		c0-0.094-0.01-0.156-0.025-0.188c-0.019-0.031-0.042-0.035-0.071-0.011c-0.007,0.007-0.053,0.061-0.138,0.166V179.325z"/>
	<path clip-path="url(#SVGID_24_)" fill="#00DEBE" d="M343.579,179.24v0.533c0,0.038,0,0.065-0.003,0.081
		c-0.002,0.016-0.009,0.036-0.022,0.059c-0.013,0.022-0.032,0.045-0.062,0.069l-0.175,0.15c-0.039,0.031-0.063,0.042-0.074,0.033
		c-0.009-0.009-0.014-0.04-0.014-0.092v-0.536c0-0.02,0-0.038,0.001-0.049c0.002-0.012,0.004-0.027,0.009-0.048
		c0.006-0.02,0.015-0.038,0.027-0.056c0.012-0.016,0.03-0.033,0.051-0.052l0.175-0.15c0.04-0.033,0.064-0.045,0.074-0.033
		C343.574,179.161,343.579,179.192,343.579,179.24 M343.579,182.43v0.533c0,0.036,0,0.065-0.003,0.081
		c-0.002,0.016-0.009,0.036-0.022,0.059c-0.013,0.022-0.032,0.045-0.062,0.069l-0.175,0.15c-0.039,0.031-0.063,0.043-0.074,0.033
		c-0.009-0.011-0.014-0.04-0.014-0.094v-0.531c0-0.025,0-0.041,0.001-0.052c0.002-0.012,0.004-0.027,0.009-0.048
		c0.006-0.02,0.015-0.038,0.027-0.056c0.012-0.018,0.03-0.033,0.051-0.052l0.175-0.15c0.04-0.033,0.064-0.047,0.074-0.033
		C343.574,182.351,343.579,182.383,343.579,182.43"/>
	<path clip-path="url(#SVGID_24_)" fill="#00DEBE" d="M344.746,176.913c0.118-0.102,0.225-0.158,0.318-0.169
		c0.094-0.012,0.168,0.011,0.221,0.065c0.054,0.057,0.098,0.134,0.132,0.233c0.036,0.1,0.061,0.197,0.072,0.294
		c0.011,0.097,0.017,0.19,0.017,0.283v2.409c0,0.095-0.006,0.2-0.017,0.316c-0.012,0.114-0.036,0.254-0.072,0.413
		c-0.034,0.161-0.078,0.313-0.132,0.459c-0.053,0.148-0.127,0.294-0.221,0.444c-0.094,0.148-0.2,0.273-0.318,0.375
		c-0.085,0.071-0.165,0.123-0.237,0.147c-0.073,0.027-0.135,0.032-0.187,0.019c-0.051-0.016-0.096-0.045-0.137-0.09
		c-0.04-0.047-0.072-0.101-0.096-0.164c-0.025-0.063-0.044-0.132-0.061-0.208c-0.016-0.074-0.026-0.148-0.032-0.216
		s-0.009-0.135-0.009-0.197v-2.409c0-0.064,0.003-0.137,0.009-0.214s0.017-0.167,0.032-0.271c0.017-0.104,0.035-0.206,0.061-0.311
		c0.023-0.104,0.056-0.213,0.096-0.327c0.041-0.114,0.086-0.223,0.137-0.324c0.052-0.103,0.113-0.202,0.187-0.301
		C344.581,177.072,344.661,176.987,344.746,176.913 M344.746,181.772c0.065-0.057,0.123-0.128,0.173-0.213
		c0.05-0.088,0.089-0.176,0.119-0.265c0.027-0.09,0.052-0.185,0.07-0.285c0.02-0.101,0.031-0.19,0.038-0.27
		c0.007-0.078,0.01-0.152,0.01-0.224v-2.783c0-0.07-0.003-0.14-0.01-0.207s-0.02-0.136-0.039-0.204
		c-0.019-0.069-0.043-0.123-0.072-0.163c-0.027-0.04-0.066-0.062-0.117-0.062c-0.051-0.001-0.106,0.026-0.172,0.081
		c-0.064,0.055-0.122,0.126-0.171,0.212c-0.05,0.086-0.09,0.174-0.117,0.264c-0.03,0.09-0.054,0.185-0.072,0.286
		c-0.019,0.101-0.031,0.19-0.037,0.268c-0.007,0.079-0.009,0.153-0.009,0.225v2.781c0,0.071,0.002,0.142,0.009,0.209
		c0.006,0.066,0.019,0.134,0.037,0.203c0.019,0.07,0.043,0.124,0.072,0.164c0.029,0.041,0.069,0.061,0.117,0.061
		C344.626,181.853,344.682,181.826,344.746,181.772"/>
	<path clip-path="url(#SVGID_24_)" fill="#00DEBE" d="M345.854,176.231l0.585-0.766v5.057l-0.351,0.301v-4.294
		c0-0.093-0.008-0.156-0.026-0.188c-0.017-0.031-0.04-0.035-0.069-0.01c-0.007,0.005-0.054,0.061-0.139,0.165V176.231z"/>
	<path clip-path="url(#SVGID_24_)" fill="#00DEBE" d="M347.197,176.146v0.535c0,0.037-0.002,0.063-0.004,0.081
		c-0.003,0.017-0.01,0.035-0.021,0.058c-0.014,0.022-0.034,0.047-0.063,0.07l-0.176,0.148c-0.036,0.033-0.063,0.045-0.071,0.035
		c-0.011-0.01-0.015-0.042-0.015-0.093v-0.534c0-0.022,0.001-0.04,0.001-0.052c0-0.011,0.003-0.025,0.009-0.047
		c0.005-0.02,0.014-0.037,0.026-0.055c0.014-0.018,0.029-0.035,0.05-0.053l0.176-0.149c0.04-0.035,0.065-0.046,0.074-0.033
		C347.193,176.068,347.197,176.099,347.197,176.146 M347.197,179.336v0.532c0,0.038-0.002,0.064-0.004,0.08
		c-0.003,0.019-0.01,0.036-0.021,0.059c-0.014,0.022-0.034,0.047-0.063,0.072l-0.176,0.147c-0.036,0.034-0.063,0.045-0.071,0.036
		c-0.011-0.011-0.015-0.043-0.015-0.094v-0.534c0-0.022,0.001-0.04,0.001-0.052c0-0.011,0.003-0.026,0.009-0.045
		c0.005-0.02,0.014-0.04,0.026-0.056c0.014-0.019,0.029-0.036,0.05-0.054l0.176-0.148c0.04-0.036,0.065-0.047,0.074-0.033
		C347.193,179.258,347.197,179.287,347.197,179.336"/>
	<path clip-path="url(#SVGID_24_)" fill="#00DEBE" d="M348.364,173.819c0.119-0.102,0.226-0.158,0.317-0.169
		c0.094-0.013,0.167,0.01,0.222,0.065c0.053,0.056,0.097,0.133,0.133,0.232c0.034,0.101,0.058,0.199,0.069,0.294
		c0.012,0.097,0.019,0.192,0.019,0.285v2.409c0,0.093-0.007,0.198-0.019,0.315c-0.012,0.115-0.035,0.254-0.069,0.413
		c-0.036,0.161-0.08,0.314-0.133,0.46c-0.055,0.147-0.128,0.294-0.222,0.443c-0.092,0.147-0.198,0.272-0.317,0.373
		c-0.086,0.074-0.165,0.124-0.237,0.15c-0.074,0.024-0.137,0.031-0.188,0.016c-0.051-0.014-0.097-0.042-0.136-0.09
		c-0.041-0.045-0.072-0.099-0.098-0.161c-0.022-0.063-0.044-0.133-0.058-0.209c-0.017-0.075-0.027-0.147-0.032-0.215
		c-0.007-0.068-0.01-0.135-0.01-0.198v-2.409c0-0.065,0.003-0.136,0.01-0.215c0.005-0.077,0.016-0.167,0.032-0.27
		c0.014-0.104,0.035-0.207,0.058-0.31c0.025-0.104,0.057-0.215,0.098-0.328c0.039-0.115,0.085-0.223,0.136-0.325
		c0.051-0.102,0.113-0.201,0.188-0.3C348.199,173.979,348.278,173.893,348.364,173.819 M348.364,178.678
		c0.064-0.055,0.122-0.126,0.172-0.213c0.051-0.086,0.091-0.175,0.118-0.264c0.03-0.09,0.053-0.184,0.071-0.286
		c0.019-0.101,0.031-0.19,0.037-0.269c0.007-0.079,0.011-0.152,0.011-0.224v-2.783c0-0.07-0.004-0.141-0.011-0.208
		c-0.006-0.066-0.019-0.136-0.037-0.204c-0.02-0.069-0.044-0.123-0.071-0.162c-0.03-0.04-0.069-0.062-0.119-0.062
		c-0.05-0.001-0.107,0.025-0.171,0.08c-0.064,0.057-0.121,0.126-0.171,0.212c-0.05,0.087-0.09,0.174-0.119,0.264
		s-0.054,0.186-0.071,0.286c-0.018,0.102-0.031,0.19-0.036,0.269c-0.008,0.078-0.01,0.153-0.01,0.224v2.783
		c0,0.071,0.002,0.14,0.01,0.207c0.005,0.068,0.02,0.136,0.038,0.205s0.041,0.124,0.07,0.164c0.028,0.038,0.069,0.059,0.119,0.061
		C348.244,178.758,348.301,178.733,348.364,178.678"/>
	<path clip-path="url(#SVGID_24_)" fill="#00DEBE" d="M350.334,177.258c-0.1,0.086-0.189,0.14-0.271,0.162
		c-0.081,0.023-0.148,0.017-0.2-0.02c-0.052-0.034-0.097-0.084-0.134-0.146c-0.038-0.063-0.066-0.14-0.085-0.229
		c-0.02-0.09-0.033-0.174-0.041-0.254c-0.01-0.079-0.012-0.158-0.012-0.234v-2.403c0-0.063,0.002-0.136,0.009-0.214
		c0.006-0.078,0.019-0.169,0.035-0.272c0.017-0.104,0.037-0.209,0.063-0.314c0.025-0.106,0.059-0.217,0.1-0.332
		c0.041-0.114,0.088-0.225,0.139-0.327c0.052-0.104,0.114-0.205,0.188-0.304c0.074-0.102,0.154-0.187,0.24-0.261l0.056-0.047
		c0.077-0.066,0.179-0.12,0.305-0.164c0.127-0.041,0.217-0.057,0.268-0.045l-0.06,0.359l-0.261,0.029
		c-0.111,0.008-0.199,0.04-0.264,0.095c-0.079,0.068-0.15,0.162-0.215,0.279c-0.063,0.118-0.111,0.24-0.146,0.367
		c-0.034,0.124-0.061,0.245-0.078,0.358c-0.019,0.114-0.028,0.213-0.028,0.3v0.905l0.358-0.632c0.059-0.099,0.118-0.188,0.184-0.268
		c0.062-0.081,0.11-0.136,0.146-0.165c0.129-0.111,0.242-0.118,0.337-0.02s0.144,0.277,0.144,0.537v1.374
		c0,0.075-0.005,0.157-0.015,0.246c-0.01,0.09-0.024,0.19-0.047,0.305c-0.021,0.114-0.052,0.229-0.091,0.347
		s-0.087,0.234-0.142,0.35c-0.054,0.117-0.122,0.23-0.205,0.341C350.526,177.074,350.435,177.172,350.334,177.258 M349.939,174.768
		v1.657c0,0.071,0.003,0.141,0.01,0.207c0.005,0.066,0.017,0.137,0.033,0.208c0.018,0.07,0.041,0.128,0.068,0.168
		c0.028,0.041,0.064,0.062,0.114,0.064c0.049,0.002,0.105-0.024,0.169-0.079c0.06-0.05,0.112-0.117,0.162-0.202
		s0.089-0.174,0.119-0.268c0.032-0.093,0.058-0.19,0.081-0.292c0.021-0.102,0.037-0.194,0.046-0.278
		c0.011-0.084,0.015-0.161,0.015-0.227v-1.292c0-0.217-0.023-0.373-0.072-0.467c-0.049-0.096-0.113-0.107-0.195-0.038
		c-0.034,0.028-0.078,0.088-0.135,0.179L349.939,174.768z"/>
</g>
</svg>
