<?xml version="1.0" encoding="utf-8"?>
<!-- Generator: Adobe Illustrator 16.0.0, SVG Export Plug-In . SVG Version: 6.00 Build 0)  -->
<!DOCTYPE svg PUBLIC "-//W3C//DTD SVG 1.1//EN" "http://www.w3.org/Graphics/SVG/1.1/DTD/svg11.dtd">
<svg version="1.1" id="Capa_1" xmlns="http://www.w3.org/2000/svg" xmlns:xlink="http://www.w3.org/1999/xlink" x="0px" y="0px"
	 width="400px" height="400px" viewBox="0 0 400 400" enable-background="new 0 0 400 400" xml:space="preserve">
<g>
	<g>
		<path fill="#FFA681" d="M235.402,221.032c-9.748,6.997-25,11.798-25,11.798l-3.123-11.231l-2.436-8.763l-1.72-6.177l-17.48-0.012
			c0.947,3.275,1.925,6.622,2.907,9.918c1.261,4.251,2.52,8.414,3.715,12.252c1.687,5.401,3.243,10.151,4.497,13.545
			c0.293,0.792,0.634,1.654,1.015,2.574c2.336,6.312,4.223,13.156,13.141,8.861c7.85-3.78,18.496-9.021,23.815-12.501
			L235.402,221.032z"/>
		<g>
			<path fill="#F97853" d="M188.551,216.565c1.262,4.25,2.519,8.414,3.715,12.251c7.136-0.756,12.075-4.292,15.015-7.218
				l-2.436-8.763L188.551,216.565z"/>
			<path fill="#6020BD" d="M184.84,155.262c0,0,18.235,43.489,26.078,57.579c0,0-10.991,9.345-21.697,9.6
				C189.221,222.44,183.052,174.693,184.84,155.262z"/>
		</g>
		<g>
			<g>
				<g>
					<path fill="#9C78ED" d="M142.145,331.975c0.184-3.044,0.356-5.94,0.514-8.626c0.646-10.978,1.061-18.471,1.061-18.471
						l-4.299-0.192l-2.424-0.109l-29.229-1.299c0,0-0.532,8.381-1.159,20.687c-0.128,2.519-0.261,5.202-0.394,8.011H142.145z"/>
				</g>
			</g>
			<path fill="#7846D1" d="M139.42,304.686l4.299,0.192c0,0-0.415,7.493-1.061,18.471c-11.23,0.937-23.491,1.317-36.05,0.615
				c0.627-12.306,1.159-20.687,1.159-20.687l29.229,1.299L139.42,304.686z"/>
			<g>
				<path fill="#7846D1" d="M137.885,331.975c0.678-11.727,1.235-21.772,1.537-27.288l-2.424-0.109
					c-0.303,5.541-0.861,15.632-1.542,27.397H137.885z"/>
			</g>
		</g>
		<g>
			<g>
				<g>
					<path fill="#9C78ED" d="M151.565,331.975h35.929c-0.132-2.809-0.265-5.492-0.393-8.011
						c-0.627-12.306-1.159-20.687-1.159-20.687l-29.229,1.299l-2.423,0.109l-4.3,0.192c0,0,0.415,7.493,1.061,18.471
						C151.209,326.034,151.382,328.931,151.565,331.975z"/>
				</g>
			</g>
			<path fill="#7846D1" d="M154.29,304.686l-4.3,0.192c0,0,0.415,7.493,1.061,18.471c11.23,0.937,23.491,1.317,36.051,0.615
				c-0.627-12.306-1.159-20.687-1.159-20.687l-29.229,1.299L154.29,304.686z"/>
			<g>
				<path fill="#7846D1" d="M158.253,331.975c-0.68-11.766-1.238-21.856-1.541-27.397l-2.424,0.109
					c0.302,5.516,0.858,15.562,1.536,27.288H158.253z"/>
			</g>
		</g>
		<g>
			<g>
				<g>
					<g>
						<path fill="#7846D1" d="M101.424,282.437c-0.004,0.603,0,1.196,0,1.781c0.013,10.689,0.066,18.974,0.119,23.041
							c10.325,2.797,20.649,4.604,30.979,5.439c0.47,0.035,0.932,0.07,1.403,0.105c0.25,0.018,0.501,0.035,0.751,0.049
							c0.554,0.039,1.113,0.074,1.662,0.101c0.616,0.04,1.227,0.07,1.847,0.102c7.027,0.325,14.053,0.197,21.084-0.378
							c1.42-0.119,2.832-0.255,4.252-0.409c0.093-0.009,0.181-0.018,0.272-0.026c0.361-0.04,0.722-0.084,1.087-0.128
							c0.22-0.026,0.439-0.053,0.654-0.079c8.175-0.976,16.35-2.572,24.528-4.775c0.021-1.847,0.03-4.586,0.03-8.038
							c0-0.642,0-1.302-0.004-1.992v-0.004c-0.005-4.938-0.035-11.085-0.088-18.033c-0.005-0.594-0.009-1.191-0.014-1.798
							c-0.039-4.626-0.088-9.582-0.149-14.749c-0.009-0.598-0.013-1.195-0.021-1.798c-0.066-5.299-0.146-10.804-0.238-16.393
							c-0.057-3.413-0.118-6.855-0.188-10.303c-0.07-3.491-0.146-6.987-0.229-10.461c-0.018-0.757-0.035-1.513-0.058-2.27
							c-0.8-32.852-2.186-63.047-4.477-66.415c-1.587-2.331-5.224-5.07-9.507-7.832c-0.522-0.334-1.055-0.673-1.596-1.011
							c-1.825-1.139-16.71-6.196-18.601-7.309l-15.733-1.099c-0.097,0.057-15.14,5.132-15.236,5.185
							c-0.646,0.369-1.302,0.743-1.948,1.117c-5.571,3.214-11.068,6.6-14.234,9.516c-0.462,0.422-0.875,0.835-1.227,1.24
							c-0.281,0.321-0.532,0.633-0.734,0.941c-0.189,0.277-0.374,0.743-0.549,1.38c-1.904,6.917-2.902,34.101-3.399,63.676
							c-0.036,2.12-0.066,4.253-0.097,6.39c-0.013,0.937-0.026,1.878-0.04,2.818c-0.013,0.646-0.022,1.297-0.026,1.943
							c-0.004,0.325-0.009,0.646-0.013,0.972c-0.022,1.609-0.04,3.215-0.053,4.811c-0.013,1.184-0.026,2.361-0.04,3.54
							C101.455,256.181,101.411,270.647,101.424,282.437z"/>
					</g>
				</g>
			</g>
		</g>
		<g>
			<g>
				<path fill="#FFA681" d="M73.29,324.678c-0.387,4.199,4.727,1.922,3.28-6.587c-1.442-8.509,2.656-16.213,4.424-15.966
					c1.772,0.25-1.464,9.291,0.11,12.549c1.57,3.259,3.601-3.073,5.624-6.912c2.098-3.988,1.975-12.69,1.021-18.899
					c-0.955-6.213,10.302-43.937,10.359-54.868l1.372-4.635l5.021-16.969l7.862-26.572c0,0-4.709-20.113-12.651-18.385
					c0,0-4.204,14.01-8.698,29.809c-0.76,2.683-1.53,5.418-2.291,8.144c-3.201,11.455-6.208,22.765-7.607,29.475
					c-3.694,17.717-3.979,54.543-3.979,54.543s-6.517,13.53-6.67,19.55C70.304,315.373,73.672,320.479,73.29,324.678z"/>
				<path fill="#F97853" d="M88.724,205.386l10.756,23.974l5.021-16.969l-13.486-15.148
					C90.254,199.925,89.484,202.66,88.724,205.386z"/>
			</g>
			<path fill="#7846D1" d="M88.19,198.245c4.718,8.091,9.516,16.138,14.295,24.198c1.574-5.272,3.206-10.334,4.736-14.986
				c0.004-0.013,0.009-0.021,0.013-0.035c0.611-1.859,1.209-3.653,1.781-5.369c0.009-0.03,0.018-0.062,0.031-0.088
				c0.198-0.602,0.391-1.195,0.589-1.776v-0.004c2.282-6.899,4.05-12.383,4.556-15.579c1.363-8.605-2.353-25.465-7.585-28.789l0,0
				c-0.136,0.304-0.549-0.633-0.795-0.062c-0.919,2.124-5,7.37-7.019,12.479c-0.26,0.65-0.523,1.328-0.796,2.018
				C95.072,177.768,91.497,187.542,88.19,198.245z"/>
		</g>
		<g>
			<g>
				<g>
					<path fill="#6020BD" d="M146.363,153.488c6.813,0,11.615-6.216,11.816-6.48c0.287-0.377,0.233-0.931-0.119-1.237
						c-0.353-0.307-0.87-0.25-1.156,0.127c-0.063,0.081-4.534,5.832-10.541,5.832c-5.937,0-9.557-6.508-9.592-6.574
						c-0.229-0.419-0.733-0.562-1.124-0.317c-0.392,0.244-0.526,0.781-0.298,1.201C135.514,146.343,139.469,153.488,146.363,153.488
						z"/>
				</g>
			</g>
			<g>
				<path fill="#6020BD" d="M175.169,213.049c0.126,0,0.254-0.031,0.374-0.096c0.408-0.222,0.572-0.755,0.365-1.192l-2.972-6.278
					c-0.206-0.438-0.705-0.612-1.114-0.391c-0.408,0.221-0.572,0.755-0.365,1.191l2.972,6.279
					C174.574,212.871,174.866,213.049,175.169,213.049z"/>
			</g>
			<g>
				<path fill="#6020BD" d="M181.361,207.904c0.106,0.072,0.23,0.118,0.364,0.131c0.456,0.043,0.859-0.317,0.899-0.806l0.582-7.009
					c0.041-0.487-0.296-0.919-0.752-0.962c-0.456-0.044-0.859,0.317-0.899,0.805l-0.582,7.01
					C180.944,207.418,181.104,207.733,181.361,207.904z"/>
			</g>
			<g>
				<path fill="#6020BD" d="M165.398,197.036c0.398,0,0.75-0.308,0.817-0.742l1.073-6.943c0.074-0.483-0.231-0.939-0.683-1.02
					c-0.454-0.079-0.879,0.247-0.954,0.73l-1.073,6.943c-0.074,0.483,0.231,0.939,0.684,1.02
					C165.309,197.032,165.354,197.036,165.398,197.036z"/>
			</g>
			<g>
				<path fill="#6020BD" d="M138.706,199.62c0.144,0,0.289-0.039,0.421-0.124c0.394-0.249,0.525-0.793,0.291-1.214l-3.352-6.056
					c-0.233-0.422-0.742-0.562-1.136-0.312s-0.525,0.793-0.291,1.215l3.352,6.056C138.146,199.465,138.422,199.62,138.706,199.62z"
					/>
			</g>
			<g>
				<path fill="#6020BD" d="M171.497,172.479c0.154,0,0.311-0.045,0.449-0.142l5.525-3.822c0.385-0.266,0.495-0.814,0.246-1.226
					c-0.249-0.411-0.762-0.528-1.146-0.263l-5.524,3.822c-0.385,0.267-0.495,0.814-0.246,1.226
					C170.959,172.336,171.226,172.479,171.497,172.479z"/>
			</g>
			<g>
				<path fill="#6020BD" d="M146.885,228.894c0.126,0,0.254-0.03,0.374-0.096c0.408-0.221,0.571-0.755,0.365-1.191l-2.972-6.279
					c-0.207-0.437-0.705-0.611-1.114-0.391c-0.408,0.221-0.572,0.755-0.365,1.191l2.972,6.279
					C146.29,228.716,146.582,228.894,146.885,228.894z"/>
			</g>
			<g>
				<path fill="#6020BD" d="M159.939,177.203c0.276,0,0.546-0.147,0.704-0.416c0.242-0.415,0.125-0.963-0.264-1.223l-5.577-3.734
					c-0.388-0.259-0.899-0.135-1.143,0.281c-0.243,0.415-0.125,0.963,0.263,1.223l5.577,3.734
					C159.637,177.159,159.789,177.203,159.939,177.203z"/>
			</g>
			<g>
				<path fill="#6020BD" d="M173.204,151.094c-0.013,0.172,0.021,0.339,0.095,0.479c0.127,0.259,0.378,0.444,0.674,0.466
					c0.456,0.036,0.851-0.334,0.884-0.822l0.264-4.042c-0.522-0.334-1.053-0.672-1.596-1.011L173.204,151.094z"/>
			</g>
			<g>
				<path fill="#6020BD" d="M180.639,189.62c0.276,0,0.546-0.147,0.703-0.416c0.243-0.415,0.126-0.963-0.262-1.223l-5.578-3.734
					c-0.388-0.259-0.899-0.134-1.143,0.281s-0.125,0.963,0.263,1.223l5.577,3.734C180.336,189.576,180.488,189.62,180.639,189.62z"
					/>
			</g>
			<g>
				<path fill="#6020BD" d="M136.162,158.979c0.156,0,0.315-0.047,0.455-0.146c0.382-0.27,0.488-0.819,0.236-1.228l-3.18-5.162
					c-0.251-0.409-0.766-0.523-1.148-0.252c-0.382,0.27-0.488,0.819-0.236,1.229l3.18,5.162
					C135.628,158.839,135.893,158.979,136.162,158.979z"/>
			</g>
			<g>
				<path fill="#6020BD" d="M133.311,248.146c0.218,0,0.435-0.091,0.598-0.272l4.557-5.076c0.317-0.354,0.307-0.915-0.024-1.254
					c-0.33-0.34-0.855-0.328-1.172,0.025l-4.557,5.077c-0.317,0.353-0.306,0.914,0.024,1.253
					C132.898,248.065,133.104,248.146,133.311,248.146z"/>
			</g>
			<g>
				<path fill="#6020BD" d="M150.057,247.091c0.218,0,0.436-0.091,0.598-0.272l4.558-5.076c0.317-0.354,0.306-0.915-0.024-1.254
					c-0.331-0.339-0.854-0.327-1.172,0.026l-4.557,5.076c-0.317,0.353-0.307,0.914,0.023,1.253
					C149.644,247.01,149.85,247.091,150.057,247.091z"/>
			</g>
			<g>
				<path fill="#6020BD" d="M162.096,281.405c0.076-0.218,0.072-0.468-0.029-0.694l-2.845-6.346
					c-0.198-0.441-0.693-0.628-1.105-0.416c-0.413,0.212-0.587,0.741-0.39,1.183l2.845,6.346c0.198,0.442,0.693,0.628,1.106,0.416
					C161.879,281.791,162.022,281.612,162.096,281.405z"/>
			</g>
			<g>
				<path fill="#6020BD" d="M114.042,302.344c0.076-0.218,0.072-0.468-0.029-0.694l-2.845-6.346
					c-0.198-0.442-0.693-0.628-1.105-0.416c-0.414,0.212-0.587,0.74-0.389,1.183l2.845,6.346c0.198,0.441,0.693,0.628,1.106,0.416
					C113.825,302.729,113.969,302.551,114.042,302.344z"/>
			</g>
			<g>
				<path fill="#6020BD" d="M134.676,312.854c0.555,0.039,1.11,0.074,1.661,0.101l0.58-3.953c0.07-0.483-0.239-0.937-0.691-1.012
					c-0.452-0.074-0.875,0.256-0.946,0.739L134.676,312.854z"/>
			</g>
			<g>
				<path fill="#6020BD" d="M128.058,300.907c0.179-0.133,0.308-0.341,0.344-0.59l1.018-6.952c0.071-0.484-0.238-0.938-0.69-1.014
					c-0.453-0.075-0.876,0.255-0.947,0.739l-1.018,6.952c-0.071,0.484,0.238,0.938,0.69,1.014
					C127.675,301.094,127.889,301.034,128.058,300.907z"/>
			</g>
			<g>
				<path fill="#6020BD" d="M168.066,242.774c0.141,0,0.284-0.039,0.415-0.119c0.396-0.245,0.531-0.788,0.302-1.212l-3.296-6.091
					c-0.229-0.424-0.736-0.567-1.133-0.323c-0.396,0.245-0.532,0.788-0.303,1.212l3.297,6.091
					C167.502,242.616,167.78,242.774,168.066,242.774z"/>
			</g>
			<g>
				<path fill="#6020BD" d="M158.388,227.551c0.301,0,0.591-0.175,0.737-0.48l3.017-6.254c0.21-0.435,0.051-0.97-0.356-1.194
					c-0.405-0.226-0.906-0.054-1.117,0.382l-3.017,6.254c-0.21,0.435-0.05,0.97,0.356,1.194
					C158.13,227.52,158.26,227.551,158.388,227.551z"/>
			</g>
			<g>
				<path fill="#6020BD" d="M184.601,226.634c0.086,0.109,0.197,0.193,0.313,0.246c0.279,0.123,0.608,0.079,0.854-0.141l3.393-3.048
					c-0.017-0.756-0.033-1.512-0.054-2.269l-4.407,3.958C184.35,225.697,184.305,226.256,184.601,226.634z"/>
			</g>
			<g>
				<path fill="#6020BD" d="M158.431,161.2c0.301,0,0.591-0.175,0.738-0.48l3.017-6.254c0.21-0.435,0.05-0.97-0.357-1.194
					c-0.405-0.225-0.906-0.054-1.116,0.381l-3.017,6.254c-0.211,0.435-0.051,0.97,0.356,1.194
					C158.173,161.168,158.303,161.2,158.431,161.2z"/>
			</g>
			<g>
				<path fill="#6020BD" d="M139.096,184.112c0.052,0,0.105-0.005,0.158-0.016c0.45-0.094,0.744-0.559,0.657-1.039l-1.248-6.909
					c-0.086-0.481-0.522-0.795-0.971-0.703c-0.45,0.093-0.744,0.559-0.657,1.039l1.248,6.909
					C138.359,183.818,138.707,184.112,139.096,184.112z"/>
			</g>
			<g>
				<path fill="#6020BD" d="M149.86,190.179c0.053,0,0.105-0.005,0.158-0.016c0.45-0.093,0.744-0.558,0.657-1.039l-1.248-6.909
					c-0.086-0.481-0.522-0.794-0.971-0.703c-0.45,0.094-0.744,0.559-0.657,1.039l1.248,6.91
					C149.124,189.885,149.472,190.179,149.86,190.179z"/>
			</g>
			<g>
				<path fill="#6020BD" d="M142.149,167.382c0.274,0,0.543-0.146,0.701-0.412l3.526-5.941c0.245-0.414,0.131-0.962-0.256-1.224
					c-0.388-0.262-0.899-0.14-1.145,0.273l-3.526,5.941c-0.246,0.414-0.131,0.962,0.255,1.224
					C141.843,167.338,141.997,167.382,142.149,167.382z"/>
			</g>
			<g>
				<path fill="#6020BD" d="M174.495,228.649c0.227-0.259,0.295-0.649,0.144-0.988l-2.834-6.352
					c-0.197-0.441-0.691-0.629-1.105-0.418c-0.414,0.212-0.589,0.74-0.391,1.182l2.834,6.352c0.196,0.441,0.691,0.63,1.104,0.418
					C174.344,228.794,174.427,228.728,174.495,228.649z"/>
			</g>
			<g>
				<path fill="#6020BD" d="M153.164,210.223c0.331,0,0.645-0.214,0.772-0.564l2.397-6.553c0.167-0.456-0.043-0.971-0.47-1.148
					c-0.427-0.179-0.907,0.046-1.074,0.502l-2.397,6.554c-0.167,0.456,0.043,0.97,0.47,1.148
					C152.962,210.203,153.063,210.223,153.164,210.223z"/>
			</g>
			<g>
				<path fill="#6020BD" d="M126.818,250.698c0.126,0,0.253-0.03,0.374-0.096c0.409-0.221,0.572-0.754,0.365-1.191l-2.971-6.279
					c-0.206-0.437-0.705-0.611-1.114-0.39c-0.408,0.221-0.572,0.754-0.365,1.191l2.971,6.278
					C126.224,250.521,126.516,250.698,126.818,250.698z"/>
			</g>
			<g>
				<path fill="#6020BD" d="M170.482,295.826c0.002,0.135,0.031,0.271,0.094,0.399c0.21,0.435,0.711,0.604,1.117,0.379l5.842-3.237
					c0.407-0.225,0.566-0.76,0.355-1.195c-0.211-0.435-0.712-0.604-1.118-0.379l-5.842,3.237
					C170.643,295.188,170.479,295.503,170.482,295.826z"/>
			</g>
			<g>
				<path fill="#6020BD" d="M186.344,299.852c0,0.137,0.028,0.272,0.09,0.4c0.21,0.436,0.712,0.603,1.119,0.378l2.54-1.407
					c0-0.642,0-1.302-0.004-1.992l-3.297,1.825C186.504,299.214,186.34,299.53,186.344,299.852z"/>
			</g>
			<g>
				<path fill="#6020BD" d="M161.795,307.679l1.998,4.564c0.362-0.04,0.724-0.084,1.09-0.128c0.218-0.026,0.436-0.053,0.653-0.079
					l-2.24-5.109c-0.193-0.444-0.687-0.638-1.103-0.427C161.778,306.707,161.598,307.234,161.795,307.679z"/>
			</g>
			<g>
				<path fill="#6020BD" d="M116.036,234.687c0.399,0,0.75-0.308,0.817-0.742l1.073-6.943c0.075-0.483-0.231-0.939-0.683-1.02
					c-0.453-0.079-0.878,0.247-0.953,0.73l-1.073,6.943c-0.075,0.483,0.231,0.939,0.683,1.02
					C115.945,234.683,115.991,234.687,116.036,234.687z"/>
			</g>
			<g>
				<path fill="#6020BD" d="M115.352,183.456c0.144,0,0.289-0.04,0.421-0.124c0.395-0.249,0.525-0.793,0.291-1.215l-3.352-6.055
					c-0.233-0.422-0.742-0.562-1.136-0.312c-0.394,0.249-0.524,0.793-0.291,1.215l3.352,6.055
					C114.792,183.301,115.068,183.456,115.352,183.456z"/>
			</g>
			<g>
				<path fill="#6020BD" d="M126.128,208.069c0.154,0,0.31-0.046,0.45-0.143l5.525-3.821c0.384-0.267,0.495-0.815,0.246-1.227
					c-0.25-0.411-0.762-0.528-1.146-0.263l-5.525,3.821c-0.385,0.267-0.495,0.814-0.247,1.227
					C125.59,207.926,125.856,208.069,126.128,208.069z"/>
			</g>
			<g>
				<path fill="#6020BD" d="M184.627,249.349c0.126,0,0.254-0.03,0.374-0.096c0.408-0.221,0.572-0.754,0.365-1.191l-2.972-6.278
					c-0.206-0.438-0.704-0.612-1.113-0.391c-0.409,0.221-0.572,0.754-0.365,1.191l2.971,6.279
					C184.032,249.172,184.324,249.349,184.627,249.349z"/>
			</g>
			<g>
				<path fill="#6020BD" d="M116.715,217.607c0.276,0,0.546-0.147,0.704-0.416c0.243-0.416,0.125-0.963-0.263-1.223l-5.577-3.734
					c-0.388-0.259-0.9-0.135-1.143,0.281c-0.243,0.415-0.125,0.963,0.263,1.223l5.577,3.733
					C116.412,217.563,116.564,217.607,116.715,217.607z"/>
			</g>
			<g>
				<path fill="#6020BD" d="M130.085,226.489c0.203,0.2,0.495,0.288,0.781,0.205c0.442-0.129,0.703-0.616,0.583-1.089l-1.727-6.79
					c-0.121-0.473-0.575-0.752-1.018-0.624c-0.442,0.129-0.703,0.616-0.583,1.089l1.727,6.791
					C129.891,226.237,129.975,226.38,130.085,226.489z"/>
			</g>
			<g>
				<path fill="#6020BD" d="M106.547,154.814l1.443,2.339c0.16,0.255,0.423,0.396,0.694,0.396c0.156,0,0.313-0.044,0.453-0.145
					c0.382-0.268,0.489-0.818,0.238-1.227l-1.604-2.603C107.312,153.996,106.9,154.409,106.547,154.814z"/>
			</g>
			<g>
				<path fill="#6020BD" d="M100.24,170.252l1.533,2.489c0.161,0.26,0.424,0.4,0.695,0.4c0.156,0,0.313-0.049,0.457-0.146
					c0.382-0.272,0.485-0.822,0.234-1.23l-2.175-3.531C100.742,168.885,100.495,169.562,100.24,170.252z"/>
			</g>
			<g>
				<path fill="#6020BD" d="M171.955,271.272c0.218,0,0.435-0.091,0.598-0.272l4.557-5.077c0.317-0.353,0.307-0.914-0.023-1.253
					c-0.33-0.34-0.855-0.328-1.173,0.025l-4.557,5.076c-0.317,0.354-0.307,0.915,0.024,1.254
					C171.541,271.19,171.748,271.272,171.955,271.272z"/>
			</g>
			<g>
				<path fill="#6020BD" d="M141.634,289.021c0.218,0,0.435-0.092,0.598-0.273l4.557-5.076c0.317-0.354,0.307-0.914-0.023-1.254
					s-0.855-0.328-1.173,0.026l-4.557,5.076c-0.317,0.354-0.306,0.914,0.024,1.253C141.221,288.938,141.428,289.021,141.634,289.021
					z"/>
			</g>
			<g>
				<path fill="#6020BD" d="M133.207,281.971c0.138-0.181,0.208-0.419,0.178-0.669l-0.822-6.982
					c-0.057-0.485-0.472-0.83-0.926-0.769c-0.455,0.061-0.776,0.504-0.719,0.99l0.822,6.982c0.057,0.486,0.471,0.83,0.926,0.769
					C132.888,282.263,133.078,282.143,133.207,281.971z"/>
			</g>
			<g>
				<path fill="#6020BD" d="M150.478,301.65c0.217,0,0.435-0.092,0.598-0.273l4.557-5.076c0.317-0.354,0.307-0.914-0.023-1.253
					c-0.33-0.341-0.855-0.328-1.173,0.025l-4.557,5.076c-0.317,0.354-0.307,0.914,0.024,1.253
					C150.063,301.568,150.271,301.65,150.478,301.65z"/>
			</g>
			<g>
				<path fill="#6020BD" d="M101.424,282.438c-0.004,0.603,0,1.196,0,1.781l5.143,0.461c0.456,0.044,0.859-0.32,0.896-0.809
					c0.041-0.488-0.3-0.915-0.757-0.959L101.424,282.438z"/>
			</g>
			<g>
				<path fill="#6020BD" d="M161.662,260.598c0.218,0,0.435-0.092,0.598-0.272l4.557-5.077c0.317-0.353,0.307-0.914-0.023-1.253
					c-0.331-0.34-0.854-0.328-1.172,0.025l-4.558,5.076c-0.317,0.354-0.306,0.915,0.024,1.254
					C161.248,260.516,161.455,260.598,161.662,260.598z"/>
			</g>
			<g>
				<path fill="#6020BD" d="M139.738,258.392c0.014,0.232,0.114,0.459,0.294,0.62l5.036,4.529c0.351,0.315,0.873,0.267,1.168-0.108
					s0.249-0.934-0.102-1.249l-5.036-4.529c-0.35-0.315-0.873-0.267-1.168,0.108C139.787,257.945,139.724,258.172,139.738,258.392z"
					/>
			</g>
			<g>
				<path fill="#6020BD" d="M115.743,283.305c0.141,0,0.284-0.039,0.415-0.12c0.396-0.245,0.532-0.787,0.302-1.211l-3.296-6.091
					c-0.229-0.424-0.736-0.568-1.133-0.323c-0.396,0.245-0.532,0.788-0.302,1.212l3.296,6.091
					C115.178,283.146,115.457,283.305,115.743,283.305z"/>
			</g>
			<g>
				<path fill="#6020BD" d="M110.037,265.201c0.301,0,0.59-0.175,0.738-0.48l3.017-6.254c0.21-0.435,0.05-0.97-0.356-1.194
					c-0.406-0.226-0.907-0.054-1.117,0.381l-3.017,6.254c-0.21,0.436-0.05,0.971,0.357,1.195
					C109.779,265.169,109.909,265.201,110.037,265.201z"/>
			</g>
			<g>
				<path fill="#6020BD" d="M119.035,194.193c0.301,0,0.59-0.175,0.738-0.48l3.016-6.254c0.21-0.436,0.051-0.971-0.356-1.194
					c-0.406-0.225-0.906-0.055-1.117,0.381l-3.017,6.254c-0.21,0.436-0.05,0.971,0.356,1.194
					C118.777,194.161,118.907,194.193,119.035,194.193z"/>
			</g>
			<g>
				<path fill="#6020BD" d="M115.741,167.948c0.052,0,0.105-0.005,0.158-0.016c0.45-0.093,0.744-0.558,0.657-1.039l-1.248-6.909
					c-0.086-0.481-0.522-0.795-0.971-0.703c-0.45,0.093-0.744,0.558-0.657,1.039l1.248,6.91
					C115.004,167.654,115.352,167.948,115.741,167.948z"/>
			</g>
			<g>
				<path fill="#6020BD" d="M100.589,191.791c0.052,0,0.105-0.005,0.158-0.016c0.45-0.094,0.744-0.559,0.657-1.039l-1.248-6.909
					c-0.086-0.481-0.522-0.795-0.971-0.703c-0.45,0.093-0.744,0.559-0.657,1.039l1.248,6.909
					C99.853,191.497,100.2,191.791,100.589,191.791z"/>
			</g>
			<g>
				<path fill="#6020BD" d="M126.506,174.015c0.052,0,0.105-0.005,0.158-0.016c0.45-0.093,0.744-0.559,0.657-1.039l-1.248-6.909
					c-0.086-0.481-0.522-0.794-0.971-0.703c-0.45,0.093-0.744,0.559-0.657,1.039l1.248,6.909
					C125.77,173.721,126.117,174.015,126.506,174.015z"/>
			</g>
			<g>
				<path fill="#6020BD" d="M121.565,149.946c0.161,0.04,0.317,0.026,0.46-0.026c0.259-0.097,0.469-0.33,0.535-0.633l1.394-6.345
					c-0.645,0.37-1.299,0.743-1.949,1.117l-1.057,4.819C120.842,149.357,121.118,149.832,121.565,149.946z"/>
			</g>
			<g>
				<path fill="#6020BD" d="M102.597,202.474c0.274,0,0.543-0.146,0.701-0.411l3.526-5.941c0.246-0.413,0.131-0.962-0.255-1.224
					c-0.388-0.263-0.899-0.14-1.145,0.273l-3.526,5.94c-0.246,0.414-0.131,0.962,0.255,1.225
					C102.291,202.43,102.444,202.474,102.597,202.474z"/>
			</g>
			<g>
				<path fill="#6020BD" d="M126.145,266.3c0.227-0.259,0.294-0.649,0.143-0.989l-2.833-6.351c-0.197-0.441-0.692-0.629-1.105-0.418
					c-0.415,0.211-0.589,0.74-0.391,1.182l2.833,6.352c0.197,0.441,0.692,0.629,1.105,0.418
					C125.993,266.444,126.076,266.378,126.145,266.3z"/>
			</g>
			<g>
				<path fill="#6020BD" d="M184.465,278.234l5.538,0.959c-0.004-0.594-0.009-1.191-0.017-1.799l-5.255-0.914
					c-0.452-0.075-0.879,0.251-0.949,0.734C183.708,277.698,184.013,278.155,184.465,278.234z"/>
			</g>
			<g>
				<path fill="#6020BD" d="M186.15,262.009l3.688,0.638c-0.008-0.598-0.012-1.195-0.021-1.798l-3.399-0.59
					c-0.452-0.079-0.876,0.251-0.95,0.734C185.394,261.478,185.698,261.93,186.15,262.009z"/>
			</g>
			<g>
				<path fill="#6020BD" d="M104.813,247.873c0.332,0,0.645-0.214,0.772-0.564l2.398-6.553c0.167-0.456-0.043-0.971-0.47-1.149
					s-0.908,0.047-1.074,0.503l-2.398,6.553c-0.167,0.456,0.043,0.971,0.47,1.149C104.611,247.853,104.713,247.873,104.813,247.873z
					"/>
			</g>
		</g>
		<g>
			<g>
				<g>
					<path fill="#6020BD" d="M101.767,227.199c1.557-6.434,3.514-13.583,5.453-19.743c0.004-0.014,0.009-0.022,0.013-0.036
						c0.598-1.903,1.196-3.711,1.781-5.368c0.009-0.031,0.018-0.062,0.031-0.088c0.18-0.523,0.365-1.029,0.545-1.521
						c0.026-0.088,0.044-0.172,0.044-0.255v-0.005c0-0.295-0.185-0.571-0.479-0.682c-0.383-0.137-0.805,0.058-0.941,0.439
						c-1.987,5.418-4.335,13.219-6.349,20.869C101.829,222.93,101.798,225.063,101.767,227.199z"/>
				</g>
			</g>
		</g>
		<g>
			<path fill="#403657" d="M125.542,102.998c0,0-5.774-6.364-3.595-13.766c2.179-7.402,8.14-7.321,8.14-7.321
				s3.478-7.874,9.401-8.133c5.923-0.259,11.506-10.779,16.897-7.922c5.39,2.857-0.584,9.091-0.584,9.091s9.234-9.74,12.279-6.883
				c3.045,2.857-4.228,10.519-4.228,10.519s7.759-5.454,10.308-3.376c2.549,2.078-6.08,11.039-6.08,11.039
				s5.583,10.064-0.036,14.578L125.542,102.998z"/>
			<g>
				<path fill="#F97853" d="M165.88,105.128c0,0,3.692-4.922,6.438-0.852c2.745,4.07-1.136,16.093-7.857,13.158L165.88,105.128z"/>
				<g>
					<path fill="#EA5143" d="M165.928,113.719c0.248,0,0.477-0.164,0.547-0.415c1.042-3.711,4.887-5.216,4.926-5.231
						c0.293-0.112,0.44-0.44,0.329-0.732c-0.111-0.293-0.439-0.441-0.731-0.33c-0.18,0.068-4.418,1.712-5.617,5.987
						c-0.085,0.302,0.092,0.615,0.394,0.7C165.825,113.712,165.877,113.719,165.928,113.719z"/>
				</g>
				<g>
					<path fill="#EA5143" d="M169.81,111.85c0.105,0,0.212-0.029,0.307-0.091c0.264-0.17,0.34-0.521,0.17-0.785
						c-0.028-0.044-0.708-1.082-2.132-1.718c-0.285-0.128-0.622,0-0.75,0.287c-0.128,0.286,0,0.622,0.286,0.75
						c1.101,0.493,1.636,1.289,1.641,1.297C169.44,111.758,169.623,111.85,169.81,111.85z"/>
				</g>
			</g>
			<g>
				<path fill="#F97853" d="M127.833,105.128c0,0-3.692-4.922-6.437-0.852c-2.746,4.07,1.136,16.093,7.857,13.158L127.833,105.128z"
					/>
				<g>
					<path fill="#EA5143" d="M127.785,113.719c-0.248,0-0.476-0.164-0.546-0.415c-1.042-3.711-4.887-5.216-4.926-5.231
						c-0.292-0.112-0.44-0.44-0.329-0.732c0.111-0.293,0.439-0.441,0.731-0.33c0.18,0.068,4.417,1.712,5.617,5.987
						c0.085,0.302-0.091,0.615-0.394,0.7C127.887,113.712,127.836,113.719,127.785,113.719z"/>
				</g>
				<g>
					<g>
						<path fill="#EA5143" d="M123.903,111.85c-0.105,0-0.212-0.029-0.307-0.091c-0.264-0.17-0.339-0.521-0.17-0.785
							c0.028-0.044,0.708-1.082,2.132-1.718c0.285-0.128,0.622,0,0.75,0.287c0.128,0.286,0,0.622-0.286,0.75
							c-1.101,0.493-1.636,1.289-1.641,1.297C124.272,111.758,124.09,111.85,123.903,111.85z"/>
					</g>
				</g>
			</g>
			<path fill="#FFA681" d="M137.768,127.632v11.956c0,0,3.566,6.089,8.387,6.503c4.817,0.42,9.099-5.242,9.099-5.242v-12.377
				L137.768,127.632z"/>
			<path fill="#F97853" d="M137.768,127.632v5.305c3.236,3.59,8.982,4.487,17.486,3.231v-7.696L137.768,127.632z"/>
			<path fill="#FFA681" d="M125.165,96.928c0.219,4.646,0.661,10.458,1.549,15.1v0.014c0,0.013,0.004,0.026,0.009,0.044
				c0,0.004,0.005,0.004,0.005,0.009c0.218,1.134,0.464,2.201,0.732,3.16c0.161,0.563,0.334,1.151,0.531,1.754
				c2.834,8.891,9.4,21.759,25.901,15.872c6.949-2.477,10.569-9.654,12.412-17.438c0.107-0.464,0.21-0.924,0.3-1.366
				c0.062-0.294,0.12-0.58,0.174-0.861l0.08-0.415c0.014-0.072,0.022-0.121,0.026-0.152c0.005-0.018,0.005-0.027,0.005-0.027
				c1.089-5.985,1.254-12.038,1.174-16.363c-0.085-4.41-2.495-8.445-6.333-10.618c-10.396-5.896-21.371-3.696-28.597-0.919
				C128.115,86.645,124.906,91.568,125.165,96.928z"/>
			<path fill="#403657" d="M126.709,112.028c0,0,0,0.004,0.004,0.014c0,0.013,0.004,0.026,0.009,0.044
				c0,0.004,0.005,0.004,0.005,0.009c0.107,0.389,0.687,2.518,1.263,4.915c2.834,8.891,9.4,21.759,25.901,15.872
				c6.949-2.477,10.569-9.654,12.412-17.438c0.107-0.464,0.21-0.924,0.3-1.366c0.062-0.294,0.12-0.58,0.174-0.861l0.08-0.415
				c0.014-0.072,0.022-0.121,0.026-0.152c0.005-0.018,0.005-0.027,0.005-0.027l-2.428-0.491c-0.465,2.299-1.491,4.464-2.75,6.387
				c-2.053-4.918-12.471-1.651-12.471-1.651l-0.049,0.018c-0.634,0.196-1.285,0.299-1.941,0.299c-0.674,0-1.344-0.107-1.995-0.317
				c0,0-10.292-3.41-12.426,1.281c-2.133-3.303-3.58-6.297-3.58-6.297l-2.535,0.178H126.709z M147.223,119.094
				c11.779-1.589,9.927,4.753,9.927,4.753c-1.308,1.192-2.504,2.063-3.308,2.513c-2.57,1.433-5.102,1.977-6.936,1.888
				c-1.808-0.076-2.303,0.294-6.874-2.178c-0.808-0.433-1.625-1.076-2.424-1.839c0,0,0,0-0.004,0v-0.004
				C137.408,122.985,135.413,117.063,147.223,119.094z"/>
			<ellipse fill="#403657" cx="138.019" cy="105.574" rx="1.469" ry="2.311"/>
			<ellipse fill="#403657" cx="156.384" cy="105.574" rx="1.469" ry="2.311"/>
			<path fill="#403657" d="M132.788,97.782c0,0,6.071-2.399,10.745-0.38l-0.467,2.6c0,0-6.861-0.58-10.318,0.821
				C132.439,99.822,132.394,98.811,132.788,97.782z"/>
			<path fill="#403657" d="M161.653,97.794c0,0-6.115-2.417-10.824-0.383l0.471,2.619c0,0,6.911-0.584,10.394,0.826
				C162.006,99.849,162.052,98.83,161.653,97.794z"/>
			<g>
				<g>
					<path fill="#F97853" d="M146.659,115.902c-0.958,0-1.909-0.373-2.056-0.433c-0.29-0.119-0.43-0.45-0.311-0.74
						c0.117-0.29,0.45-0.43,0.739-0.312c0.514,0.208,1.745,0.535,2.278,0.215c0.104-0.062,0.244-0.184,0.279-0.529
						c0.206-1.983-0.338-8.632-0.343-8.699c-0.026-0.313,0.207-0.587,0.52-0.613c0.313-0.026,0.587,0.207,0.612,0.52
						c0.022,0.278,0.558,6.821,0.341,8.909c-0.081,0.786-0.493,1.188-0.825,1.387C147.53,115.826,147.094,115.902,146.659,115.902z"
						/>
				</g>
			</g>
			<path fill="#FFFFFF" d="M153.9,120.229c-0.432,2.169-1.865,6.161-6.693,6.161c-4.839,0-6.197-3.647-6.663-6.161H153.9z"/>
			<path fill="#403657" d="M125.163,96.926c0.222,4.646,0.665,10.457,1.551,15.103l2.539-0.18c0,0-0.615-3.923-0.899-6.479
				c-0.284-2.556-0.767-7.333,1.415-7.93c2.175-0.59,0.899-6.041,3.926-8.404c3.027-2.368,9.799-3.018,14.264-0.269
				c4.464,2.744,9.495-0.208,11.552,0.269c2.062,0.472,4.855,3.312,4.101,5.964c-0.762,2.647,1.511,4.26,2.062,7.004
				c0.551,2.743-1.21,10.127-1.21,10.127l2.426,0.489c1.091-5.987,1.255-12.036,1.176-16.358c-0.085-4.413-2.494-8.446-6.333-10.621
				c-10.4-5.896-21.374-3.698-28.599-0.92C128.117,86.646,124.907,91.57,125.163,96.926z"/>
		</g>
	</g>
	<g>
		<g>
			<g>
				<g>
					<g>
						<path fill="#7846D1" d="M229.683,224.864c-1.544,14.082-10.738,45.542-17.104,51.705c-8.287,8.022-35.563,24.913-49.77,33.573
							c-2.563,1.563,9.476,11.966,9.476,11.966s37.722-16.131,52.128-28.849c4.075-3.598,12.35-14.945,21.691-36.561
							c2.832-6.554,9.695-19.771,9.34-28.389C255.033,218.392,239.275,220.024,229.683,224.864z"/>
					</g>
				</g>
				<path fill="#FFA681" d="M200.248,305.756c0,0-10.26,3.896-13.896,8.183c-3.637,4.285-8.441,7.921-7.272,9.609
					s6.493-3.246,6.493-3.246s1.459,5.425,6.623,6.01s14.935-9.517,14.935-9.517L200.248,305.756z"/>
				<g>
					<g>
						<path fill="#9C78ED" d="M301.521,264.183c0.003,0.892-0.005,1.945-0.021,3.141c-0.016,1.189-0.041,2.517-0.078,3.969
							c-0.028,0.995-0.06,2.047-0.096,3.15c-0.034,0.93-0.07,1.894-0.109,2.894c-0.044,1.021-0.091,2.072-0.143,3.158
							c-0.714,14.748-2.441,35.111-6.239,51.436h-79.819c2.662-11.864,6.735-30.578,9.966-54.858
							c0.136-1.021,0.271-2.052,0.403-3.094c0.132-1.042,0.262-2.094,0.392-3.153c0.07-0.563,0.138-1.133,0.205-1.701
							c0.055-0.47,0.109-0.938,0.161-1.4c0.148-1.309,0.283-2.597,0.403-3.859c0.101-1.055,0.194-2.091,0.283-3.114
							c1.368-16.324,0.885-28.558,2.852-35.885c2.291-8.53,29.002-18.309,29.002-18.309l16.734,0.875c0,0,15.956,5.21,24.486,12.698
							c8.532,7.491,1.396,29.841,1.604,42.532C301.517,263.098,301.52,263.606,301.521,264.183z"/>
						<g>
							<path fill="#E0D5F8" d="M301.501,267.323c-7.257,0.88-14.828,1.229-22.257,1.229c-24.329,0-47.168-3.72-52.697-4.688
								c0.101-1.055,0.194-2.091,0.283-3.114c6.426,1.138,43.611,7.288,74.691,3.434
								C301.524,265.074,301.517,266.128,301.501,267.323z"/>
						</g>
						<g>
							<path fill="#E0D5F8" d="M301.423,271.292c-0.028,0.995-0.06,2.047-0.096,3.15c-7.205,0.865-14.714,1.205-22.083,1.205
								c-25.703,0-49.742-4.15-53.467-4.823c0.07-0.563,0.138-1.133,0.205-1.701c0.055-0.47,0.109-0.938,0.161-1.4
								C229.843,268.398,268.943,275.297,301.423,271.292z"/>
						</g>
						<g>
							<path fill="#E0D5F8" d="M301.218,277.336c-0.044,1.021-0.091,2.072-0.143,3.158c-7.496,0.953-15.345,1.325-23.041,1.325
								c-24.886,0-48.207-3.889-53.052-4.748c0.136-1.021,0.271-2.052,0.403-3.094C231.146,275.004,269.559,281.479,301.218,277.336
								z"/>
						</g>
						<g>
							<path fill="#7846D1" d="M263.511,222.61c8.321,0,15.998-8.845,16.33-9.233c0.211-0.246,0.183-0.616-0.063-0.827
								c-0.245-0.212-0.616-0.183-0.828,0.063c-0.08,0.094-8.119,9.356-16.155,8.798c-0.321-0.023-0.604,0.222-0.626,0.545
								s0.222,0.604,0.545,0.627C262.979,222.602,263.246,222.61,263.511,222.61z"/>
						</g>
						<g>
							<path fill="#7846D1" d="M270.726,322.077c0.294,0,0.547-0.221,0.582-0.52c0.037-0.322-0.194-0.613-0.517-0.65
								c-21.494-2.475-30.397-39.68-30.485-40.056c-0.073-0.315-0.389-0.512-0.705-0.438c-0.315,0.073-0.512,0.39-0.438,0.705
								c0.364,1.566,9.187,38.388,31.495,40.955C270.68,322.076,270.702,322.077,270.726,322.077z"/>
						</g>
						<g>
							<path fill="#7846D1" d="M262.166,310.819c0.197,0,0.389-0.1,0.5-0.279c0.17-0.276,0.085-0.638-0.191-0.808
								c-11.433-7.049-13.132-17.438-13.148-17.543c-0.048-0.319-0.345-0.543-0.668-0.492c-0.32,0.049-0.541,0.348-0.492,0.667
								c0.066,0.447,1.774,11.02,13.692,18.367C261.954,310.791,262.061,310.819,262.166,310.819z"/>
						</g>
					</g>
					<g>
						<circle fill="#403657" cx="268.841" cy="167.88" r="23.547"/>
						<path fill="#403657" d="M245.679,163.658c0,0-6.668-1.841-5.789-8.313c0.749-5.508,7.219-1.938,6.65-6.242
							c-0.569-4.305-1.833-8.219,3.735-9.295c4.872-0.941,4.954,2.397,11.351-2.446c7.557-5.722,13.362,7.527,20.106,7.925
							c9.947,0.587,11.203,6.213,12.182,10.713c0.979,4.501-2.851,7.657-2.851,7.657H245.679z"/>
						<g>
							<path fill="#F97853" d="M249.25,174.469c0,0-3.729-4.973-6.503-0.86s1.147,16.258,7.938,13.293L249.25,174.469z"/>
							<g>
								<path fill="#EA5143" d="M249.202,183.148c-0.251,0-0.481-0.166-0.553-0.419c-1.053-3.75-4.937-5.271-4.977-5.285
									c-0.295-0.113-0.444-0.444-0.332-0.74s0.443-0.444,0.739-0.333c0.182,0.068,4.463,1.729,5.675,6.048
									c0.085,0.306-0.093,0.622-0.398,0.708C249.306,183.142,249.253,183.148,249.202,183.148z"/>
							</g>
							<g>
								<g>
									<path fill="#EA5143" d="M245.28,181.26c-0.106,0-0.214-0.03-0.31-0.092c-0.268-0.172-0.344-0.526-0.173-0.793
										c0.029-0.044,0.717-1.093,2.154-1.736c0.288-0.13,0.629,0,0.758,0.289c0.13,0.29,0,0.629-0.289,0.759
										c-1.112,0.497-1.652,1.302-1.657,1.31C245.653,181.166,245.469,181.26,245.28,181.26z"/>
								</g>
							</g>
						</g>
						<path fill="#FFA681" d="M276.302,197.204v12.078c0,0-4.966,5.323-9.837,5.742c-4.866,0.425-7.827-5.356-7.827-5.356v-11.615
							L276.302,197.204z"/>
						<path fill="#F97853" d="M276.302,197.204v5.359c-3.269,3.627-9.073,4.533-17.664,3.265v-7.775L276.302,197.204z"/>
						<path fill="#FFA681" d="M289.037,166.183c-0.225,4.694-0.672,10.564-1.567,15.257c-0.224,1.171-0.476,2.272-0.757,3.26
							c-2.542,8.9-8.9,24.163-26.7,17.806c-7.861-2.806-11.505-11.563-13.129-20.468c-1.102-6.049-1.268-12.16-1.188-16.526
							c0.086-4.458,2.52-8.532,6.398-10.73c10.506-5.956,21.593-3.736,28.892-0.93C286.053,155.797,289.295,160.772,289.037,166.183
							z"/>
						<g>
							<g>
								<g>
									<g>
										<g>
											<path fill="#403657" d="M267.683,174.715v0.952c0,1.92,0.748,3.721,2.109,5.072c1.341,1.333,3.114,2.064,4.999,2.064
												h0.232c1.635-0.035,3.121-0.693,4.423-1.957c1.307-1.275,2.055-3.098,2.055-5.006v-1.126c0-0.313-0.059-0.61-0.166-0.887
												c-0.125-0.336-0.319-0.635-0.568-0.884c-0.453-0.454-1.077-0.734-1.771-0.734h-8.81c-0.997,0-1.856,0.582-2.258,1.427
												c-0.149,0.309-0.236,0.651-0.243,1.012C267.683,174.67,267.683,174.694,267.683,174.715z M268.722,174.715
												c0-0.811,0.658-1.466,1.465-1.466h8.81c0.811,0,1.466,0.655,1.466,1.466v1.126c0,1.628-0.634,3.184-1.742,4.261
												c-1.105,1.074-2.356,1.632-3.718,1.663h-0.211c-1.607,0-3.121-0.624-4.269-1.764c-1.16-1.153-1.801-2.691-1.801-4.334
												V174.715z"/>
										</g>
									</g>
								</g>
								<g>
									<g>
										<g>
											<path fill="#403657" d="M250.042,174.715v0.952c0,1.92,0.752,3.721,2.11,5.072c1.341,1.333,3.114,2.064,4.999,2.064
												h0.235c1.631-0.035,3.121-0.693,4.42-1.957c1.307-1.275,2.058-3.098,2.058-5.006v-1.126c0-0.018,0-0.031-0.003-0.049
												c-0.004-0.34-0.08-0.665-0.212-0.96c-0.388-0.883-1.268-1.496-2.289-1.496h-8.813c-0.772,0-1.465,0.354-1.926,0.904
												c-0.222,0.271-0.392,0.585-0.481,0.929C250.073,174.257,250.042,174.482,250.042,174.715z M251.082,174.715
												c0-0.811,0.658-1.466,1.465-1.466h8.813c0.807,0,1.465,0.655,1.465,1.466v1.126c0,1.628-0.638,3.184-1.742,4.261
												c-1.105,1.074-2.355,1.632-3.718,1.663h-0.214c-1.608,0-3.122-0.624-4.265-1.764c-1.164-1.153-1.805-2.691-1.805-4.334
												V174.715z"/>
										</g>
									</g>
								</g>
								<g>
									<g>
										<path fill="#403657" d="M287.78,171.789c-2.992-0.129-5.13,0.734-5.975,1.155c-0.235,0.114-0.865,0.524-0.893,0.541
											l0.495,0.882c0.007-0.003,0.695-0.415,0.966-0.54c0.829-0.387,2.669-1.162,5.406-1.001V171.789z"/>
									</g>
								</g>
								<g>
									<g>
										<path fill="#403657" d="M268.38,174.754l0.342-0.982c-0.062-0.021-1.521-0.522-3.123-0.522
											c-1.706,0-2.805,0.523-2.851,0.546l0.454,0.935c0.008-0.003,0.944-0.441,2.396-0.441
											C267.021,174.288,268.366,174.749,268.38,174.754z"/>
									</g>
								</g>
								<g>
									<g>
										<path fill="#403657" d="M246.403,172.04v1.042c2.152,0.178,4.141,1.139,4.169,1.151l0.457-0.933
											C250.912,173.242,248.777,172.213,246.403,172.04z"/>
									</g>
								</g>
							</g>
						</g>
						<ellipse fill="#403657" cx="256.713" cy="176.046" rx="1.484" ry="2.334"/>
						<ellipse fill="#403657" cx="274.094" cy="176.046" rx="1.484" ry="2.334"/>
						<path fill="#403657" d="M251.886,168.876c0,0,6.179-2.442,10.936-0.387l-0.397,2.208c0,0-5.152-1.15-10.196,0.731
							C251.912,170.411,251.484,169.923,251.886,168.876z"/>
						<path fill="#403657" d="M280.158,168.876c0,0-6.179-2.442-10.936-0.387l0.396,2.208c0,0,5.152-1.15,10.197,0.731
							C280.132,170.411,280.56,169.923,280.158,168.876z"/>
						<g>
							<g>
								<path fill="#F97853" d="M266.314,185.83c0.969,0,1.929-0.377,2.077-0.438c0.293-0.12,0.434-0.455,0.314-0.748
									s-0.455-0.435-0.748-0.314c-0.519,0.21-1.762,0.54-2.302,0.217c-0.104-0.063-0.246-0.186-0.282-0.534
									c-0.207-2.004,0.342-8.72,0.347-8.788c0.026-0.315-0.209-0.593-0.524-0.618c-0.317-0.027-0.593,0.209-0.619,0.524
									c-0.022,0.28-0.563,6.892-0.345,9c0.083,0.794,0.499,1.2,0.835,1.401C265.435,185.752,265.876,185.83,266.314,185.83z"/>
							</g>
						</g>
						<path fill="#FFFFFF" d="M259.202,188.743c0.469,2.359,2.027,6.7,7.278,6.7c5.264,0,6.74-3.967,7.247-6.7H259.202z"/>
						<g>
							<path fill="#F97853" d="M266.409,198.439c1.485,0,2.745-0.752,2.798-0.784c0.271-0.164,0.357-0.517,0.193-0.788
								s-0.517-0.358-0.788-0.194c-0.009,0.006-1.046,0.619-2.203,0.619c-1.062,0-2.078-0.61-2.088-0.616
								c-0.27-0.166-0.623-0.083-0.789,0.188c-0.167,0.269-0.084,0.622,0.187,0.789
								C263.771,197.685,265.008,198.439,266.409,198.439z"/>
						</g>
						<path fill="#403657" d="M248.66,178.297c-0.434-2.366-0.862-5.42-0.551-6.986c0.559-2.771,2.854-4.399,2.089-7.07
							c-0.766-2.682,2.059-5.553,4.141-6.029c2.076-0.482,6.936,0.553,11.718-1.718c4.564-2.17,12.5-0.618,13.794,2.312
							c1.564,3.547-0.564,3.882,3.706,7.718c1.7,1.529-0.318,5.5-0.606,8.083c-0.129,1.188-0.148,1.768-0.101,3.044l0.017,0.647
							h5.111c0.563-4.005,0.886-8.421,1.062-12.115c0.259-5.412-2.988-10.382-8.053-12.33c-7.301-2.806-18.383-5.029-28.895,0.93
							c-3.876,2.2-6.312,6.271-6.394,10.729c-0.065,3.462,0.026,8.026,0.618,12.786H248.66z"/>
						<g>
							<path fill="#FFA681" d="M285.712,180.505c-0.016-1.336,0.079-2.674,0.313-3.989c0.319-1.801,0.842-3.434,2.684-4.185
								c1.482-0.604,3.064-0.615,4.191,1.055c2.773,4.113-0.315,16.909-7.105,13.945L285.712,180.505z"/>
							<g>
								<g>
									<path fill="#F97853" d="M287.106,183.604c0.246-0.049,0.439-0.257,0.459-0.52c0.298-3.883,3.811-6.134,3.846-6.156
										c0.268-0.169,0.35-0.522,0.181-0.791c-0.167-0.268-0.521-0.35-0.789-0.182c-0.165,0.103-4.038,2.57-4.381,7.042
										c-0.024,0.315,0.212,0.591,0.528,0.615C287.004,183.617,287.056,183.613,287.106,183.604z"/>
								</g>
							</g>
							<g>
								<g>
									<path fill="#F97853" d="M290.582,180.983c0.104-0.021,0.204-0.071,0.286-0.15c0.228-0.221,0.233-0.584,0.014-0.812
										c-0.037-0.037-0.916-0.932-2.452-1.28c-0.308-0.071-0.616,0.123-0.687,0.432s0.123,0.616,0.433,0.687
										c1.188,0.271,1.875,0.954,1.881,0.961C290.198,180.966,290.397,181.021,290.582,180.983z"/>
								</g>
							</g>
						</g>
					</g>
				</g>
				<g>
					<path fill="#7846D1" d="M296.511,217.509c-8.387,12.711-40.482,56.657-47.725,61.763c-9.427,6.646-35.126,16.096-49.881,25.948
						c-5.013,3.347,6.831,12.82,6.831,12.82s35.966-10.11,52.164-20.451c4.582-2.925,23.641-22.016,35.791-38.949
						c4.162-5.8,10.934-13.857,11.913-22.427C306.732,226.351,303.634,221.073,296.511,217.509z"/>
				</g>
			</g>
		</g>
		<g>
			<path fill="#1A0B42" d="M232.896,331.93h-99.983c-1.278,0-2.313-1.035-2.313-2.313v-7.967c0-1.277,1.036-2.313,2.313-2.313
				h99.983c1.278,0,2.313,1.036,2.313,2.313v7.967C235.21,330.895,234.175,331.93,232.896,331.93z"/>
			<path fill="#403657" d="M130.622,331.93l-19.664-73.639c-1.104-4.136,2.013-8.195,6.293-8.195h43.268
				c2.919,0,5.482,1.942,6.271,4.753l21.652,77.081H130.622z"/>
			<path fill="#1A0B42" d="M166.794,254.85l21.473,76.446h4.943l-21.472-76.446c-0.795-2.812-3.354-4.756-6.273-4.756h-4.945
				C163.44,250.094,165.999,252.038,166.794,254.85z"/>
			<path fill="#614C6E" d="M155.67,294.31c1.124,4.857-1.902,8.795-6.76,8.795s-9.706-3.938-10.83-8.795
				c-1.124-4.856,1.902-8.794,6.759-8.794C149.697,285.516,154.546,289.453,155.67,294.31z"/>
		</g>
	</g>
	<g>
		<path fill="#5B23A9" d="M345.722,339.45v0.719c0,4.145-2.358,7.506-5.268,7.506H67.265c-2.909,0-5.266-3.361-5.266-7.506v-0.719
			c0-4.146,2.356-7.507,5.266-7.507h273.189C343.363,331.943,345.722,335.305,345.722,339.45z"/>
		<path fill="#7846D1" d="M345.722,339.45v0.359H62v-0.359c0-4.146,2.356-7.507,5.266-7.507h273.189
			C343.363,331.943,345.722,335.305,345.722,339.45z"/>
	</g>
</g>
</svg>
