<?xml version="1.0" encoding="utf-8"?>
<!-- Generator: Adobe Illustrator 16.0.0, SVG Export Plug-In . SVG Version: 6.00 Build 0)  -->
<!DOCTYPE svg PUBLIC "-//W3C//DTD SVG 1.1//EN" "http://www.w3.org/Graphics/SVG/1.1/DTD/svg11.dtd">
<svg version="1.1" id="Capa_1" xmlns="http://www.w3.org/2000/svg" xmlns:xlink="http://www.w3.org/1999/xlink" x="0px" y="0px"
	 width="400px" height="400px" viewBox="0 0 400 400" enable-background="new 0 0 400 400" xml:space="preserve">
<g>
	<g>
		<path fill="#FFB49B" d="M278.284,166.941c0,0,5.332,44.614,8.371,48.288l-31.379,10.943l6.115,12.762
			c0,0,48.73-6.947,50.141-12.588c0,0-7.213-45.76-15.514-65.199"/>
		<path fill="#B15B32" d="M276.229,134.559c0,0,16.658,1.135,19.348,6.601s-16.91,46.347-16.91,46.347l1.152,39.9l-69.564,4.906
			c0,0-12.691-38.907-14.609-62.133c-1.918-23.227-2.892-31.729-2.892-31.729L276.229,134.559z"/>
		<path fill="#B15B32" d="M283.097,137.41c0,0,16.537-0.872,17.566,12.43c1.027,13.303,8.537,49.388,8.537,49.388l-28.332,3.025
			l-3.564-17.036l-1.766-24.774L283.097,137.41z"/>
		<g>
			<g>
				<path fill="#FFB672" d="M280.562,200.595c8.881-0.833,17.396-3.337,26.182-4.561c1.758-0.245,0.982-3.322-0.742-2.689
					c-8.125,2.979-17.201,3.892-25.682,5.454C279.31,198.986,279.536,200.691,280.562,200.595L280.562,200.595z"/>
			</g>
		</g>
		<g>
			<g>
				<path fill="#FFB672" d="M279.526,197.989c9.246-1.038,19.178-3.108,27.914-6.328c1.637-0.603,1.01-2.979-0.723-2.621
					c-9.168,1.893-18.436,4.236-27.521,6.509C277.862,195.882,278.114,198.147,279.526,197.989L279.526,197.989z"/>
			</g>
		</g>
		<g>
			<g>
				<path fill="#904623" d="M279.13,217.988c1.023-3.879,0.824-8.098,1.014-12.08c0.252-5.322,0.551-10.64,0.98-15.951
					c0.736-9.116,2.971-18.106,3.646-27.175c0.092-1.248-1.602-1.244-2.004-0.271c-3.184,7.728-3.369,17.627-4.148,25.866
					c-0.859,9.091-2.838,20.763,0.082,29.611C278.769,218.191,279.071,218.209,279.13,217.988L279.13,217.988z"/>
			</g>
		</g>
		<g>
			<g>
				<path fill="#904623" d="M284.315,160.681c4.965-4.541,6.742-14.116,6.055-20.556c-0.193-1.799-2.645-1.82-2.813,0
					c-0.334,3.614-0.49,7.113-1.287,10.68c-0.725,3.244-2.158,6.325-2.555,9.627C283.677,160.76,284.114,160.866,284.315,160.681
					L284.315,160.681z"/>
			</g>
		</g>
		<g>
			<g>
				<path fill="#904623" d="M195.538,179.141c8.874-1.557,16-11.906,16.871-20.443c0.144-1.405-2.13-1.678-2.439-0.33
					c-0.985,4.28-2.451,7.966-5.195,11.442c-2.723,3.447-6.486,5.668-9.635,8.646C194.817,178.76,195.16,179.208,195.538,179.141
					L195.538,179.141z"/>
			</g>
		</g>
	</g>
	<g>
		<g opacity="0.26">
			<path fill="#623019" d="M203.677,148.291c-0.948,3.193,2.096,6.795,5.955,7.046c2.84,0.186,5.576-1.174,8.419-1.023
				c2.072,0.11,3.958,1.008,5.761,1.882c2.661,1.289,5.355,2.585,8.294,3.315c2.938,0.729,6.188,0.854,8.998-0.182
				c2.474-0.912,4.46-2.656,7.011-3.4c4.535-1.322,9.553,0.822,14.273,0.107c4.674-0.709,8.342-4.359,9.004-8.359
				c0.664-4-1.414-8.135-4.879-10.896"/>
		</g>
		<g>
			<g>
				<path fill="#231814" d="M196.641,85.444c0.633,3.782,1.268,7.59,1.086,11.406c-0.182,3.817-1.229,7.687-3.713,10.868
					c-1.118,1.433-2.581,2.888-2.454,4.604c0.113,1.533,1.517,2.975,1.059,4.461c-0.447,1.454-2.374,2.093-3.923,2.813
					c-4.54,2.11-7.261,6.742-6.522,11.098c0.739,4.357,4.889,8.145,9.944,9.076c5.056,0.932,10.675-1.054,13.466-4.76"/>
			</g>
			<g>
				<path fill="#231814" d="M224.433,52.135c-7.854-1.515-15.983,5.148-20.898,11.037c-4.916,5.888-6.851,13.521-7.125,20.968
					c-0.273,7.446,0.977,14.857,1.786,22.271c0.809,7.413,1.163,15.006-0.855,22.218c-0.997,3.563,4.965,8.168,4.01,11.739
					c-0.957,3.572-1.477,7.163,0,10.578c0,0,1.504,5.505,11.984,1.007c4.424-1.897,10.002-1.038,13.898,1.704
					c2.678,1.886,5.035,4.807,8.396,4.788c5.104-0.03,7.264-6.606,12.098-8.13c3.834-1.208,7.889,1.152,11.938,1.188
					c4.967,0.043,9.563-4.003,9.781-8.611c0.145-3.056-1.045-6.897,1.678-8.619c0.994-0.63,2.262-0.729,3.396-1.105
					c4.834-1.598,6.016-7.76,4.182-12.21c-1.834-4.451-5.662-7.907-8.307-11.991c-6.969-10.76-5.107-24.641-10.338-36.22
					c-3.518-7.789-10.303-14.256-18.596-17.722c-8.291-3.467-18.004-3.896-26.612-1.177"/>
			</g>
			<g>
				<g>
					<path fill="#231814" d="M257.905,70.6c4.367,7.167,3.23,15.685,5.391,23.522c0.758,2.749,2.186,5.169,4.014,7.33
						c0.98,1.161,2.268,1.989,3.521,2.813c0.902,0.528,1.811,1.047,2.725,1.554c3.178,1.444,3.906,4.439,2.186,8.985
						c-0.416,0.182-0.117,0.884,0.309,0.732c1.871-0.669,4.105-2.6,3.188-4.938c-1.814-4.622-6.697-5.831-10.334-8.743
						c-9.102-7.287-4.684-22.173-10.76-31.395C258.048,70.312,257.812,70.446,257.905,70.6L257.905,70.6z"/>
				</g>
			</g>
			<g>
				<g>
					<path fill="#231814" d="M222.772,52.702c8.818,1.777,17.207,4.52,25.18,8.731c3.727,1.97,7.402,4.283,10.436,7.222
						c4.9,4.749,2.967,11.577,1.408,17.258c-0.07,0.253,0.305,0.351,0.389,0.107c3.23-9.446,2.127-16.003-6.332-21.747
						c-9.172-6.227-20.084-10.172-30.98-11.933C222.638,52.302,222.532,52.653,222.772,52.702L222.772,52.702z"/>
				</g>
			</g>
			<g>
				<g>
					<path fill="#231814" d="M270.937,135.242c-4.154,4.845,0.805,11.251,5.627,12.9c0.309,0.106,0.42-0.361,0.133-0.479
						c-2.338-0.956-4.242-2.361-5.58-4.531c-1.588-2.578-0.805-5.177-0.086-7.836C271.044,135.245,270.974,135.198,270.937,135.242
						L270.937,135.242z"/>
				</g>
			</g>
			<g>
				<g>
					<path fill="#231814" d="M196.708,84.968c0.079,3.654,0.035,7.201-0.72,10.801c-0.762,3.631-3.139,6.101-4.916,9.176
						c-1.988,3.44,1.767,6.937,4.067,8.858c0.273,0.229,0.662-0.142,0.397-0.398c-2.804-2.718-5.045-6.726-2.366-10.53
						c1.239-1.76,2.149-3.475,2.866-5.49c1.381-3.887,1.071-8.381,0.92-12.416C196.951,84.809,196.705,84.808,196.708,84.968
						L196.708,84.968z"/>
				</g>
			</g>
			<g>
				<g>
					<path fill="#321F1B" d="M213.104,58.765c-13.551,17.008-2.033,39.785-1.891,58.895c0.002,0.274,0.404,0.27,0.422,0
						c1.288-19.841-12.261-40.772,1.549-58.833C213.221,58.781,213.141,58.719,213.104,58.765L213.104,58.765z"/>
				</g>
			</g>
			<g>
				<g>
					<path fill="#321F1B" d="M203.744,79.404c2.492,13.385,3.224,26.819,2.97,40.407c-0.002,0.116,0.17,0.113,0.178,0
						c0.993-13.583-0.244-27.146-2.886-40.479C203.972,79.159,203.712,79.233,203.744,79.404L203.744,79.404z"/>
				</g>
			</g>
			<g>
				<g>
					<path fill="#321F1B" d="M228.133,118.004c3.606-12.175,10.798-22.415,9.592-35.589c-0.933-10.177-6.728-20.263-14.845-26.396
						c-0.158-0.119-0.346,0.137-0.208,0.269c8.349,7.98,14.077,17.178,14.853,28.946c0.803,12.19-7.17,21.349-9.677,32.692
						C227.808,118.112,228.078,118.188,228.133,118.004L228.133,118.004z"/>
				</g>
			</g>
			<g>
				<g>
					<path fill="#321F1B" d="M221.407,53.315c13.838,1.502,27.105,8.791,32.48,22.167c4.984,12.405,1.375,26.513,6.578,38.938
						c0.049,0.117,0.24,0.071,0.195-0.053c-5.172-14.01-1.373-29.859-8.436-43.291c-5.797-11.024-18.835-17.212-30.818-17.958
						C221.278,53.11,221.283,53.302,221.407,53.315L221.407,53.315z"/>
				</g>
			</g>
			<g>
				<g>
					<path fill="#321F1B" d="M224.673,53.675c11.594,5.482,20.898,15.126,24.793,27.46c3.785,11.985-2.357,25.439,4.648,36.613
						c0.139,0.223,0.479,0.026,0.352-0.205c-6.92-12.669-0.359-27.382-6.027-40.508c-4.65-10.768-13.165-18.563-23.676-23.514
						C224.659,53.473,224.569,53.626,224.673,53.675L224.673,53.675z"/>
				</g>
			</g>
			<g>
				<path fill="#231814" d="M230.11,57.22c-0.51-2.569-0.223-5.28,1.057-7.647c1.278-2.367,3.586-4.362,6.444-5.295
					c4.545-1.483,10.194,0.102,12.812,3.595c2.617,3.493,1.922,8.519-1.576,11.399c-3.5,2.881-9.426,3.307-13.442,0.966"/>
			</g>
			<g>
				<g>
					<path fill="#321F1B" d="M234.752,60.083c-0.47-3.608-0.586-6.856,1.229-10.167c1.9-3.466,5.977-5.03,9.723-4.97
						c0.416,0.006,0.406-0.608,0-0.638c-8.778-0.646-13.541,8.076-11.334,15.826C234.429,60.339,234.781,60.306,234.752,60.083
						L234.752,60.083z"/>
				</g>
			</g>
			<g>
				<g>
					<path fill="#321F1B" d="M246.517,44.57c-6.288,2.48-8.465,10.918-3.737,15.884c0.147,0.155,0.417-0.048,0.298-0.23
						c-4.035-6.192-1.975-11.252,3.535-15.422C246.718,44.723,246.661,44.513,246.517,44.57L246.517,44.57z"/>
				</g>
			</g>
			<g>
				<g>
					<path fill="#321F1B" d="M245.278,60.195c5.102-2.801,8.406-9.215,4.41-14.432c-0.166-0.217-0.488-0.039-0.369,0.215
						c2.582,5.541,1.223,10.829-4.186,13.97C244.976,60.041,245.116,60.284,245.278,60.195L245.278,60.195z"/>
				</g>
			</g>
			<g>
				<g>
					<path fill="#321F1B" d="M243.507,44.09c-6.225-0.694-13.868,3.875-11.949,11.042c0.064,0.236,0.394,0.131,0.357-0.099
						c-1.077-6.943,5.259-11.068,11.592-10.719C243.653,44.323,243.647,44.106,243.507,44.09L243.507,44.09z"/>
				</g>
			</g>
			<g>
				<g>
					<path fill="#FF5126" d="M229.611,55.749c-0.202,7.516,12.333,6.203,16.747,4.976c0.648-0.181,0.375-1.145-0.277-1.004
						c-5.063,1.098-13.113,1.339-15.749-4.167C230.157,55.189,229.621,55.389,229.611,55.749L229.611,55.749z"/>
				</g>
			</g>
			<g>
				<g>
					<path fill="#321F1B" d="M218.645,57.511c-6.769,18.262,4.61,37.261-1.321,55.777c-0.104,0.322,0.379,0.439,0.496,0.137
						c7.053-18.137-5.567-37.509,1.015-55.861C218.878,57.443,218.688,57.393,218.645,57.511L218.645,57.511z"/>
				</g>
			</g>
		</g>
	</g>
	<g>
		<path fill="#FFB49B" d="M192.408,119.691c26.96-0.943,78.179-2.772,82.136-3.194c5.391-0.573,11.119,0,11.119,0
			s12.465,6.308,11.117,8.888s-6.064,12.901-6.064,12.901l-14.486-3.727c0,0-71.939,11.754-83.475,8.887l-16.696-23.188
			C176.059,120.258,182.641,120.033,192.408,119.691"/>
		
			<text transform="matrix(1.1682 -0.0923 0.1085 0.9941 228.9473 131.8027)" opacity="0.41" font-family="'Daniel-Regular'" font-size="5.1951">always together</text>
	</g>
	<path fill="#FFB49B" d="M78.774,234.023c0,0-2.581-46.119,1.475-66.511c4.056-20.392,5.038-26.353,5.038-26.353l20.401,20.078
		c0,0-2.581,53.961-4.792,58.04l33.181,5.961l-3.318,13.49C130.758,238.729,81.354,239.355,78.774,234.023z"/>
	<g>
		<path fill="#FFB49B" d="M118.025,222.355c0,0-20.266,36.121-25.059,48.043s9.404,88.441,9.404,88.441h42.767
			c0,0,1.339-67.051,2.813-66.738c1.475,0.314,5.666,66.738,5.666,66.738h42.03c0,0,4.074-71.559,0-89.766
			c-2.569-11.479-5.898-39.443-5.898-39.443L118.025,222.355z"/>
		<g>
			<g>
				<path fill="#1E211A" d="M102.606,359.447c14.779-7.443,28.261-16.43,41.598-26.17c0.263-0.191-0.019-0.559-0.273-0.354
					c-12.691,10.248-27.075,18.691-41.557,26.127C102.11,359.188,102.343,359.58,102.606,359.447L102.606,359.447z"/>
			</g>
		</g>
		<g>
			<g>
				<path fill="#1E211A" d="M100.753,350.371c14.733-8.494,29.252-17.461,44.163-25.635c0.339-0.186,0.026-0.723-0.303-0.518
					c-14.416,9.018-29.334,17.305-43.943,26.01C100.579,350.283,100.661,350.424,100.753,350.371L100.753,350.371z"/>
			</g>
		</g>
		<g>
			<g>
				<path fill="#1E211A" d="M98.375,339.971c15.58-8.434,31.011-17.156,46.446-25.85c0.306-0.172,0.032-0.641-0.274-0.469
					c-15.485,8.602-30.994,17.182-46.333,26.043C98.035,339.799,98.194,340.068,98.375,339.971L98.375,339.971z"/>
			</g>
		</g>
		<g>
			<g>
				<path fill="#1E211A" d="M95.333,325.879c16.174-8.223,32.289-16.482,48.688-24.26c0.411-0.195,0.053-0.795-0.354-0.607
					c-16.429,7.592-32.799,15.578-48.596,24.418C94.775,325.596,95.035,326.031,95.333,325.879L95.333,325.879z"/>
			</g>
		</g>
		<g>
			<g>
				<path fill="#1E211A" d="M96.731,313.496c14.543-6.912,29.048-13.904,43.528-20.949c0.362-0.176,0.045-0.713-0.314-0.539
					c-14.493,7.004-28.959,14.059-43.387,21.193C96.359,313.299,96.533,313.59,96.731,313.496L96.731,313.496z"/>
			</g>
		</g>
		<g>
			<g>
				<path fill="#1E211A" d="M123.843,358.402c7.754-3.783,15.305-8.041,22.224-13.217c0.204-0.152,0.012-0.5-0.203-0.348
					c-7.094,4.982-14.347,9.543-22.146,13.35C123.574,358.258,123.7,358.473,123.843,358.402L123.843,358.402z"/>
			</g>
		</g>
		<g>
			<g>
				<path fill="#1E211A" d="M98.193,339.936c7.58,6.648,14.677,13.846,22.787,19.873c0.25,0.186,0.48-0.229,0.241-0.412
					c-7.962-6.125-15.208-13.131-22.826-19.664C98.256,339.613,98.054,339.813,98.193,339.936L98.193,339.936z"/>
			</g>
		</g>
		<g>
			<g>
				<path fill="#1E211A" d="M96.555,324.469c11.25,12.082,22.818,24.219,35.754,34.533c0.224,0.178,0.543-0.121,0.321-0.322
					c-12.32-11.166-24.44-22.316-35.897-34.391C96.622,324.17,96.444,324.35,96.555,324.469L96.555,324.469z"/>
			</g>
		</g>
		<g>
			<g>
				<path fill="#1E211A" d="M94.677,311.51c17.905,14.678,35.038,30.285,51.813,46.232c0.145,0.139,0.36-0.076,0.219-0.219
					c-16.283-16.393-33.834-31.725-51.771-46.275C94.756,311.1,94.492,311.357,94.677,311.51L94.677,311.51z"/>
			</g>
		</g>
		<g>
			<g>
				<path fill="#1E211A" d="M104.841,303.51c14.551,12.643,27.869,26.408,41.817,39.67c0.199,0.189,0.476-0.094,0.298-0.299
					c-12.585-14.383-27.378-27.209-41.889-39.596C104.911,303.152,104.685,303.375,104.841,303.51L104.841,303.51z"/>
			</g>
		</g>
		<g>
			<g>
				<path fill="#1E211A" d="M127.717,300.773c6.695,6.553,12.662,13.707,18.169,21.277c0.235,0.322,0.779,0.014,0.542-0.316
					c-5.473-7.656-11.765-14.611-18.519-21.152C127.783,300.459,127.591,300.65,127.717,300.773L127.717,300.773z"/>
			</g>
		</g>
		<g>
			<g>
				<path fill="#1E211A" d="M153.208,358.746c15.713-5.473,30.135-14.02,43.543-23.758c0.422-0.307-0.026-0.889-0.438-0.566
					c-13.104,10.303-27.894,17.566-43.224,23.895C152.833,358.424,152.932,358.844,153.208,358.746L153.208,358.746z"/>
			</g>
		</g>
		<g>
			<g>
				<path fill="#1E211A" d="M151.996,347.123c15.511-6.693,30.714-14.941,45.132-23.734c0.307-0.188,0.032-0.66-0.281-0.482
					c-14.796,8.463-29.833,16.197-44.988,23.982C151.699,346.971,151.839,347.191,151.996,347.123L151.996,347.123z"/>
			</g>
		</g>
		<g>
			<g>
				<path fill="#1E211A" d="M151.314,334.539c15.62-7.59,30.895-16.039,45.953-24.684c0.417-0.238,0.04-0.887-0.376-0.643
					c-15.023,8.797-30.346,16.928-45.745,25.039C150.955,334.354,151.123,334.633,151.314,334.539L151.314,334.539z"/>
			</g>
		</g>
		<g>
			<g>
				<path fill="#1E211A" d="M150.963,322.031c16.18-6.373,31.863-14.324,47.171-22.541c0.37-0.199,0.041-0.762-0.329-0.563
					c-15.369,8.268-31.166,15.43-46.996,22.74C150.605,321.762,150.753,322.113,150.963,322.031L150.963,322.031z"/>
			</g>
		</g>
		<g>
			<g>
				<path fill="#1E211A" d="M178.076,357.854c6.722-2.246,12.877-5.527,18.606-9.691c0.317-0.23,0.01-0.764-0.31-0.529
					c-5.667,4.137-11.881,7.254-18.428,9.742C177.65,357.486,177.769,357.957,178.076,357.854L178.076,357.854z"/>
			</g>
		</g>
		<g>
			<g>
				<path fill="#1E211A" d="M153.653,346.314c4.316,5.273,9.351,9.748,15.208,13.25c0.261,0.156,0.49-0.242,0.236-0.404
					c-5.673-3.641-10.913-7.85-15.312-12.979C153.707,346.088,153.578,346.221,153.653,346.314L153.653,346.314z"/>
			</g>
		</g>
		<g>
			<g>
				<path fill="#1E211A" d="M151.183,328.154c10.794,10.854,22.204,21.104,33.764,31.135c0.29,0.252,0.714-0.166,0.424-0.424
					c-11.42-10.213-22.969-20.264-34.078-30.82C151.22,327.977,151.113,328.082,151.183,328.154L151.183,328.154z"/>
			</g>
		</g>
		<g>
			<g>
				<path fill="#1E211A" d="M153.857,312.764c6.616,6.506,13.445,12.803,20.218,19.145c7.229,6.768,14.261,13.975,21.918,20.254
					c0.17,0.141,0.401-0.08,0.245-0.246c-6.334-6.727-13.484-12.816-20.248-19.113c-7.28-6.775-14.507-13.623-21.951-20.221
					C153.916,312.473,153.738,312.646,153.857,312.764L153.857,312.764z"/>
			</g>
		</g>
		<g>
			<g>
				<path fill="#1E211A" d="M169.845,307.965c9.135,8.98,18.208,18.063,27.665,26.707c0.244,0.223,0.6-0.127,0.364-0.365
					c-9.045-9.076-18.51-17.754-27.877-26.494C169.896,307.717,169.745,307.867,169.845,307.965L169.845,307.965z"/>
			</g>
		</g>
		<g>
			<g>
				<path fill="#1E211A" d="M183.635,304.58c5.824,4.672,10.692,10.164,14.79,16.396c0.218,0.332,0.748,0.027,0.534-0.313
					c-3.982-6.352-9.217-11.705-15.129-16.279C183.692,304.277,183.495,304.469,183.635,304.58L183.635,304.58z"/>
			</g>
		</g>
		<path opacity="0.39" fill="#81401F" d="M93.688,302.357c0,0,51.982,16.119,52.278,15.48c0.294-0.639,0-19.656,0-19.656
			L93.688,302.357z"/>
		<path opacity="0.39" fill="#81401F" d="M150.91,317.855c0,0,30.838,5.809,47.06-5.93l0.723-12.717l-42.34,2.107l-6.606,4.459
			l0.807,11.354"/>
	</g>
	<g>
		<polyline fill="#FFB49B" points="190.733,229.168 211.565,234.533 214.03,251.428 191.199,246.807 189.663,230.029 		"/>
		<polyline fill="#FFB49B" points="208.706,223.754 199.211,232.633 211.565,234.533 209.044,225.508 		"/>
	</g>
	<g>
		<g>
			<path fill="#81401F" d="M164.873,120.021c0.169,0,0.169-0.262,0-0.262S164.704,120.021,164.873,120.021L164.873,120.021z"/>
		</g>
	</g>
	<g>
		<path fill="#1E211A" d="M118.025,222.355c0,0-24.311,41.158-26.047,49.039c-1.737,7.881-2.201,30.33-2.201,30.33l25.427,4.113
			l6.04-4.113v4.113l8.456,3.426l2.416-5.482l4.832,6.854h8.23l2.773-18.533l2.106,20.785l22.158-0.197
			c0,0,2.178-12.334,2.178-10.621s2.416,8.908,2.416,8.908l9.122-2.74v-4.797l6.156,1.713c2.037-1.371,5.372-2.742,5.372-2.742
			l4.839-2.055c0,0-3.958-29.537-7.222-42.143c-3.264-12.607-5.326-28.582-5.326-28.582L118.025,222.355z"/>
		<g>
			<g>
				<g>
					<path fill="#3B3D36" d="M108.468,257.842c-0.692,3.602-1.319,7.217-1.896,10.84c-0.556,3.49-1.689,7.738-0.994,11.266
						c0.554,2.814,6.235,5.396,8.308,6.674c1.997,1.23,6.168,4.805,8.643,4.805c2.584,0,6.649-3.082,8.917-4.166
						c1.196-0.572,7.76-2.604,7.986-4.156c1.054-7.217,2.107-14.434,3.161-21.65c0.09-0.613-0.236-1.078-0.868-1.139
						c-10.796-1.045-21.593-2.09-32.39-3.135c-1.155-0.111-1.145,1.689,0,1.801c10.796,1.045,21.593,2.09,32.39,3.135
						c-0.289-0.381-0.579-0.76-0.868-1.141c-0.962,6.588-1.924,13.176-2.886,19.764c-0.067,0.461-0.135,0.922-0.202,1.383
						c-0.131,0.898,0.449-0.086,0.089,0.086c-1.302,0.621-2.604,1.244-3.907,1.865c-3.642,1.74-7.285,3.482-10.927,5.223
						c-1.482,0.707,0.221,0.598-0.569,0.17c-1.431-0.775-2.847-1.574-4.258-2.383c-3.447-1.975-8.472-4.201-10.832-7.512
						c-0.678-0.951,0.042-3.754,0.155-4.793c0.279-2.559,0.699-5.105,1.113-7.645c0.48-2.945,1.006-5.883,1.569-8.813
						C110.421,257.186,108.687,256.701,108.468,257.842z"/>
				</g>
			</g>
			<g>
				<g>
					<path fill="#3B3D36" d="M108.685,261.314c10.473,1.529,21.086,2.006,31.548,3.611c1.301,0.199,1.54-1.689,0.239-1.77
						c-10.568-0.646-21.046-2.434-31.609-3.154C108.117,259.951,107.939,261.205,108.685,261.314L108.685,261.314z"/>
				</g>
			</g>
		</g>
		<g>
			<g>
				<g>
					<path fill="#3B3D36" d="M156.875,263.773c0.434,3.551,0.93,7.094,1.47,10.631c0.475,3.109,0.487,8.994,2.677,11.52
						c2.367,2.73,7.662,3.686,10.91,4.703c1.612,0.504,7.364,3.262,9.036,2.283c2.959-1.732,5.616-4.689,8.238-6.885
						c1.07-0.896,5.566-3.438,5.275-5.166c-1.206-7.18-2.412-14.359-3.618-21.537c-0.059-0.354-0.506-0.709-0.868-0.662
						c-10.74,1.404-21.48,2.809-32.221,4.213c-1.134,0.148-1.148,1.949,0,1.801c9.581-1.254,19.162-2.506,28.743-3.758
						c1.146-0.15,2.292-0.301,3.438-0.449c-0.951,0.123-0.904-1.117-0.604,0.67c0.191,1.137,0.382,2.273,0.573,3.41
						c0.916,5.449,1.831,10.898,2.746,16.346c0.174,1.037,0.493-0.521,0.095-0.188c-0.707,0.592-1.413,1.182-2.119,1.773
						c-2.382,1.994-4.764,3.988-7.145,5.982c-0.93,0.779-1.86,1.559-2.79,2.336c-1.122,0.939-0.317,0.375-0.231,0.398
						c-2.372-0.621-4.729-1.299-7.078-2.002c-3.049-0.912-6.108-1.885-9.016-3.188c-2.623-1.176-2.734-3.393-3.262-5.998
						c-1.083-5.357-1.789-10.813-2.452-16.234C158.537,262.637,156.735,262.623,156.875,263.773z"/>
				</g>
			</g>
			<g>
				<g>
					<path fill="#3B3D36" d="M158.118,267.045c10.545-0.859,20.994-2.777,31.545-3.561c1.302-0.098,1.057-1.984-0.239-1.77
						c-10.435,1.74-21.037,2.352-31.483,4.018C157.197,265.852,157.371,267.105,158.118,267.045L158.118,267.045z"/>
				</g>
			</g>
		</g>
		<g>
			<g>
				<path fill="#3B3D36" d="M147.84,292.998c3.484-21.244,6.939-42.979,8.416-64.463c0.045-0.66-1.042-0.813-1.16-0.156
					c-3.834,21.195-5.816,43.115-7.642,64.566C147.434,293.166,147.804,293.217,147.84,292.998L147.84,292.998z"/>
			</g>
		</g>
		<g>
			<g>
				<path fill="#3B3D36" d="M128.151,223.602c-1.296,2.049-2.192,4.293-2.416,6.732c-0.073,0.793,1.288,0.98,1.395,0.188
					c0.311-2.289,0.782-4.502,1.664-6.648C128.951,223.49,128.355,223.279,128.151,223.602L128.151,223.602z"/>
			</g>
		</g>
		<g>
			<g>
				<path fill="#3B3D36" d="M131.75,224.398c-0.71,1.957-1.308,3.967-1.76,6.004c-0.217,0.977,1.295,1.387,1.491,0.412
					c0.422-2.092,0.702-4.219,0.849-6.338C132.355,224.123,131.857,224.102,131.75,224.398L131.75,224.398z"/>
			</g>
		</g>
		<g>
			<g>
				<path fill="#3B3D36" d="M170.108,228.91c-0.214,2.023-0.589,4.094-0.607,6.127c-0.008,0.887,1.265,0.85,1.35,0
					c0.202-2.014,0.054-4.104,0.059-6.127C170.911,228.383,170.161,228.406,170.108,228.91L170.108,228.91z"/>
			</g>
		</g>
		<g>
			<g>
				<path fill="#3B3D36" d="M176.077,229.027c-0.711,2.043-1.343,4.396-1.149,6.578c0.088,0.994,1.462,0.998,1.547,0
					c0.18-2.133,0.208-4.166,0.754-6.26C177.426,228.592,176.328,228.307,176.077,229.027L176.077,229.027z"/>
			</g>
		</g>
	</g>
	<g>
		<path fill="#1993A0" d="M279.673,222.355c0,0,27.182,32.24,26.281,50.838c-0.959,19.762,0.023,85.338,0.023,85.338l-40.764,0.309
			l-1.576-68.104l-11.727,68.625l-44.311-0.83l1.801-128.9L279.673,222.355z"/>
		<g>
			<g>
				<g>
					<path fill="#79BBC5" d="M220.079,257.936c0.431,3.525,0.924,7.043,1.459,10.551c0.463,3.027,0.469,8.932,2.6,11.389
						c2.332,2.688,7.584,3.625,10.779,4.625c1.478,0.463,7.305,3.193,8.805,2.314c2.934-1.719,5.574-4.66,8.176-6.838
						c0.912-0.764,5.439-3.443,5.199-4.875c-1.207-7.178-2.412-14.357-3.619-21.537c-0.039-0.236-0.338-0.473-0.578-0.439
						c-10.74,1.402-21.48,2.807-32.221,4.211c-0.756,0.1-0.766,1.301,0,1.199c9.58-1.252,19.162-2.504,28.742-3.756
						c1.146-0.15,2.293-0.301,3.438-0.449c-0.686,0.088-0.547-0.496-0.313,0.891c0.189,1.137,0.381,2.273,0.572,3.41
						c0.916,5.449,1.83,10.896,2.746,16.346c0.146,0.863,0.326-0.154,0.018,0.104c-0.705,0.592-1.412,1.184-2.117,1.773
						c-2.383,1.994-4.764,3.988-7.146,5.984c-0.93,0.777-1.859,1.557-2.789,2.334c-0.885,0.742-0.509,0.479-0.522,0.475
						c-2.372-0.621-4.729-1.297-7.079-2c-3.074-0.92-6.154-1.906-9.087-3.219c-2.702-1.213-2.858-3.504-3.399-6.178
						c-1.089-5.383-1.796-10.865-2.463-16.314C221.187,257.178,219.985,257.17,220.079,257.936z"/>
				</g>
			</g>
			<g>
				<g>
					<path fill="#79BBC5" d="M221.021,260.984c10.538-0.994,21.003-2.695,31.546-3.639c0.867-0.078,0.705-1.309-0.16-1.178
						c-10.465,1.58-21.033,2.41-31.504,3.941C220.407,260.182,220.523,261.031,221.021,260.984L221.021,260.984z"/>
				</g>
			</g>
		</g>
		<g>
			<g>
				<g>
					<path fill="#79BBC5" d="M297.198,246.85c-7.111,0.928-14.223,1.857-21.332,2.787c-0.293,0.039-0.645,0.246-0.6,0.6
						c0.6,4.918,1.295,9.828,2.145,14.707c0.764,4.375,0.889,7.422,5.188,9.211c5.088,2.115,10.453,3.609,15.777,5.004
						c1.738,0.455,6.646-5.119,8.021-6.262c0.596-0.496-0.258-1.34-0.848-0.848c-2.201,1.828-4.402,3.658-6.604,5.486
						c-0.934,0.777,0.104,0.563-1.213,0.211c-1.475-0.395-2.943-0.811-4.408-1.232c-3.934-1.135-7.967-2.297-11.65-4.107
						c-2.773-1.363-2.814-6.105-3.283-8.795c-0.684-3.934-1.223-7.895-1.734-11.852c-0.209-1.611-0.057-1.02-0.566-0.953
						c0.977-0.127,1.953-0.254,2.928-0.383c6.061-0.791,12.119-1.584,18.18-2.375C297.954,247.949,297.964,246.748,297.198,246.85
						L297.198,246.85z"/>
				</g>
			</g>
			<g>
				<g>
					<path fill="#79BBC5" d="M276.208,253.285c7.514-0.658,14.967-1.922,22.482-2.549c0.869-0.072,0.705-1.314-0.158-1.178
						c-7.451,1.172-14.988,1.713-22.441,2.852C275.595,252.486,275.71,253.33,276.208,253.285L276.208,253.285z"/>
				</g>
			</g>
		</g>
		<g>
			<g>
				<path fill="#79BBC5" d="M209.479,250.154c6.442-3.895,10.149-11.924,9.167-19.334c-0.096-0.723-1.236-0.756-1.162,0
					c0.769,7.912-2.84,13.59-8.402,18.818C208.808,249.895,209.161,250.346,209.479,250.154L209.479,250.154z"/>
			</g>
		</g>
		<g>
			<g>
				<path fill="#79BBC5" d="M225.063,305.441c15.035,2.443,31.539-3.135,39.674-16.543c2.039-3.361,2.17-7.176,2.48-10.99
					c0.494-6.047,0.455-12.127,0.104-18.18c-0.674-11.6-3.117-23.086-7.205-33.955c-0.119-0.318-0.631-0.186-0.516,0.143
					c6.369,17.975,8.428,36.666,6.516,55.621c-1.838,18.201-25.57,25.695-40.914,23.398
					C224.873,304.885,224.728,305.387,225.063,305.441L225.063,305.441z"/>
			</g>
		</g>
		<g>
			<g>
				<path fill="#79BBC5" d="M269.702,288.973c6.455,2.871,13.584,4.826,20.707,4.406c0.625-0.037,0.621-0.922,0-0.965
					c-7.066-0.498-13.701-1.354-20.244-4.234C269.628,287.943,269.159,288.732,269.702,288.973L269.702,288.973z"/>
			</g>
		</g>
		<g>
			<g>
				<path fill="#79BBC5" d="M255.462,297.994c-5,6.082-10.381,11.898-15.072,18.23c-0.365,0.494,0.445,1.109,0.848,0.654
					c5.188-5.898,9.723-12.361,14.602-18.508C256.05,298.105,255.683,297.725,255.462,297.994L255.462,297.994z"/>
			</g>
		</g>
		<g opacity="0.56">
			<path fill="#007F8A" d="M263.651,291.346c-3.578,3.641-7.668,7.287-10.852,11.184c-5.02,6.143-10.158,12.516-11.88,19.854
				c-1.032,4.398-0.78,8.934-0.522,13.414c0.334,5.809,0.668,11.615,1.002,17.424c0.081,1.418,0.377,3.119,1.902,3.695
				c1.248,0.473,2.768-0.131,3.576-1.066c0.809-0.938,1.076-2.123,1.324-3.266C252.349,333.408,259.505,310.52,263.651,291.346"/>
		</g>
		<g>
			<g>
				<path fill="#79BBC5" d="M263.981,288.436c2.756,6.924,7.768,12.725,14.725,15.711c0.48,0.205,0.895-0.436,0.422-0.721
					c-6.111-3.695-11.74-8.346-14.459-15.18C264.501,287.824,263.812,288.008,263.981,288.436L263.981,288.436z"/>
			</g>
		</g>
	</g>
	<g>
		<polygon fill="#FFA23E" points="209.313,235.037 283.403,227.029 280.247,220.115 208.513,226.76 		"/>
		<g>
			<g>
				<path fill="#AC610C" d="M212.445,233.811c0.987,0.238,2.053-0.049,3.013-0.297c1.125-0.289,1.793-1.516,1.488-2.621
					c-0.146-0.533-0.502-0.994-0.979-1.273c-0.713-0.418-1.436-0.32-2.152,0c-0.719,0.322-1.629,0.689-2.127,1.324
					c-0.39,0.498-0.619,1.023-0.441,1.67C211.402,233.174,211.87,233.672,212.445,233.811L212.445,233.811z"/>
			</g>
		</g>
		<g>
			<path fill="#AC610C" d="M219.22,226.221c0.809,1.115,1.755,2.191,3.025,2.934c1.27,0.742,2.911,1.113,4.383,0.729
				c1.473-0.385,2.656-1.641,2.49-2.943c-0.057-0.436-0.285-0.887-0.736-1.098c-0.344-0.162-0.758-0.158-1.15-0.15
				c-2.394,0.055-4.785,0.168-7.171,0.34"/>
		</g>
		<g>
			<path fill="#AC610C" d="M239.052,231.896c0.722-1.207,1.548-2.402,2.755-3.285s2.864-1.414,4.413-1.104
				c1.549,0.313,2.838,1.627,2.59,2.965"/>
		</g>
		<g>
			<g>
				<path fill="#AC610C" d="M254.714,223.541c-0.869,1.344-0.088,3.063,1.037,3.967c1.203,0.969,2.719,1.541,4.273,1.156
					c1.135-0.281,1.936-1.393,1.936-2.545c0-1.537-1.207-2.504-2.637-2.637c-0.195-0.018-1.162-0.09-0.324,0.043
					c-0.209-0.033-1.021-0.35-0.348-0.039c-0.098-0.047-0.189-0.102-0.279-0.16c0.844,0.518-0.555-0.41-0.361-0.279
					c0.391,0.316,0.316,0.262-0.225-0.164c-0.236-0.115-0.471-0.242-0.73-0.295C256.103,222.395,255.249,222.713,254.714,223.541
					L254.714,223.541z"/>
			</g>
		</g>
		<g>
			<path fill="#AC610C" d="M266.575,222.105c-0.037,1.105-0.066,2.24,0.367,3.283c0.434,1.041,1.445,1.986,2.734,2.123
				c0.777,0.082,1.563-0.135,2.238-0.473c1.156-0.578,2.068-1.555,2.307-2.678c0.24-1.123-0.266-2.373-1.365-3.027
				c-1.385-0.826-3.254-0.586-4.912-0.311"/>
		</g>
		<g>
			<g>
				<path fill="#AC610C" d="M235.724,226.025c-0.376,0.262-0.755,0.518-1.113,0.801c-0.434,0.346-0.666,0.813-0.849,1.326
					c-0.405,1.141,0.841,2.25,1.932,1.932c0.908-0.266,1.39-0.861,1.947-1.574c0.445-0.568,0.64-1.246,0.247-1.916
					C237.478,225.895,236.433,225.533,235.724,226.025L235.724,226.025z"/>
			</g>
		</g>
		<g>
			<path fill="#AC610C" d="M281.216,222.678c-1.836,0.785-2.729,2.865-1.918,4.473l4.105-0.121L281.216,222.678z"/>
		</g>
	</g>
	<path opacity="0.39" fill="#81401F" d="M193.624,228.91c0,0,8.051,16.992,8.223,18.539c0.171,1.547,0.171,1.547,0.171,1.547
		l-9.932-1.547l-2.338-17.818l5.326-0.721"/>
	<g>
		<path fill="#DFDFDF" d="M126.703,110.728c0,0-3.318,10.98-5.53,11.922c-2.212,0.94-34.288,9.726-35.762,16
			s10.692,15.373,10.692,15.373s2.95,14.687,6.636,20.833c3.687,6.146,11.429,46.617,11.429,46.617l75.58,8.158l4.501-76.366
			l-1.494-29.36c0,0-17.386-5.02-23.285-3.765s-13.641,1.568-13.641,1.568l0.369-10.98H126.703z"/>
		<path fill="#DFDFDF" d="M85.41,138.65c0,0-7.446,17.522-13.395,40.232c0,0,34.55,13.524,34.005,11.073
			c-0.546-2.451-0.546-14.859-0.546-14.859S91.951,138.774,85.41,138.65z"/>
		<path fill="#DFDFDF" d="M179.484,120.14c0,0,42.7-3.897,39.948-1.408c-0.528,0.478,3.55,28.483,2.752,29.501
			c0,0-19.889-1.657-27.282-1.061c-7.229,0.582-16.89,4.829-16.89,4.829S173.432,125.687,179.484,120.14z"/>
		<g>
			<g>
				<path fill="#AA1400" d="M72.5,176.664c10.256,5.705,22.189,9.074,32.995,13.664c1.249,0.53,1.982-1.221,0.721-1.709
					c-10.949-4.24-21.861-10.145-33.19-13.201C72.283,175.216,71.816,176.284,72.5,176.664L72.5,176.664z"/>
			</g>
		</g>
		<g>
			<g>
				<path fill="#FFC349" d="M72.928,174.845c10.371,5.365,21.923,9.429,32.872,13.468c0.931,0.344,1.588-1.209,0.677-1.606
					c-10.7-4.674-21.844-9.756-33.04-13.069C72.724,173.426,72.257,174.499,72.928,174.845L72.928,174.845z"/>
			</g>
		</g>
		<g>
			<g>
				<path fill="#436E24" d="M73.64,172.666c10.606,4.338,21.323,8.093,31.535,13.371c1.211,0.625,2.281-1.227,1.064-1.822
					c-10.317-5.052-21.027-10.156-32.184-13.055C73.054,170.9,72.734,172.294,73.64,172.666L73.64,172.666z"/>
			</g>
		</g>
		<g>
			<g>
				<path fill="#AA1400" d="M216.263,118.452c-0.354,9.426,0.341,19.35,1.347,28.726c0.118,1.109,1.78,1.167,1.771,0
					c-0.065-9.501-0.526-19.485-1.958-28.883C217.319,117.611,216.287,117.816,216.263,118.452L216.263,118.452z"/>
			</g>
		</g>
		<g>
			<g>
				<path fill="#FFC349" d="M213.614,118.295c-0.805,9.487,0.422,19.331,0.211,28.882c-0.033,1.498,2.28,1.493,2.32,0
					c0.254-9.449,0.926-19.792-1.012-29.088C214.944,117.182,213.684,117.476,213.614,118.295L213.614,118.295z"/>
			</g>
		</g>
		<g>
			<g>
				<path fill="#436E24" d="M210.982,118.391c-0.083,9.511,0.19,18.963-0.101,28.481c-0.041,1.325,1.904,1.276,2.025,0
					c0.89-9.387,0.988-19.346-0.543-28.668C212.231,117.402,210.989,117.622,210.982,118.391L210.982,118.391z"/>
			</g>
		</g>
		<path fill="#DFDFDF" d="M114.167,221.473c0,0-5.586-4.275-3.6-6.201c1.987-1.922,2.35-4.291,2.35-4.291l77.404,8.904
			c0,0,7.125,6.053,3.927,8.219c-3.199,2.166-4.501,1.527-4.501,1.527L114.167,221.473z"/>
		<g>
			<g>
				<path fill="#C7C7C7" d="M95.834,158.761c4.092,12.951,7.85,26.012,11.996,38.955c0.987,3.082,1.982,6.163,2.976,9.243
					c1.165,3.609-0.697,5.469-1.548,8.563c-0.685,2.49,1.077,3.967,3.221,4.254c0.897,0.121,1.075-1.367,0.212-1.564
					c-3.714-0.85-0.042-5.125,0.301-6.369c0.389-1.416,0.158-2.324-0.056-3.719c-0.838-5.459-3.531-11.153-5.225-16.412
					c-3.577-11.102-7.545-22.068-11.164-33.147C96.401,158.113,95.69,158.303,95.834,158.761L95.834,158.761z"/>
			</g>
		</g>
		<g>
			<g>
				<path fill="#C7C7C7" d="M118.019,214.117c17.607,4.168,36.048,7.691,54.196,8.086c0.542,0.012,0.504-0.75,0-0.816
					c-18.094-2.377-36.073-4.301-53.954-8.146C117.69,213.117,117.446,213.98,118.019,214.117L118.019,214.117z"/>
			</g>
		</g>
		<g>
			<g>
				<path fill="#C7C7C7" d="M126.166,219.615c19.514,3.754,39.89,6.154,59.764,4.27c0.509-0.049,0.529-0.801,0-0.807
					c-20.038-0.18-39.722-0.674-59.484-4.475C125.784,218.475,125.501,219.486,126.166,219.615L126.166,219.615z"/>
			</g>
		</g>
		<g>
			<g>
				<path fill="#C7C7C7" d="M186.547,120.996c-0.947,8.194,0.43,17.116,5.585,23.809c0.435,0.564,1.299,0.099,0.972-0.568
					c-3.728-7.586-6.494-14.598-5.948-23.24C187.182,120.597,186.591,120.615,186.547,120.996L186.547,120.996z"/>
			</g>
		</g>
	</g>
	<g>
		<path opacity="0.39" fill="#81401F" d="M96.564,131.174c0,0,12.513,66.813,23.548,67.409c11.035,0.597,71.973-8.628,71.973-8.628
			v-14.326l-69.346,0.597L96.564,131.174z"/>
		<g>
			<path fill="#FFB49B" d="M97.16,132.266c0,0,5.56-15.667,7.771-16.45c2.211-0.782,12.454,0,12.454,0v8.399L97.16,132.266z"/>
			<path fill="#FFB49B" d="M96.564,131.174c0,0,16.069,59.603,23.756,60.584c7.687,0.981,79.188-19.389,79.392-20.043
				c0.205-0.653-3.591-24.979-3.591-24.979c-3.037-0.865-59.773,24.32-62.045,25.399c-3.354,1.594-8.375-11.119-12.219-21.585
				c-3.843-10.466-10.417-24.751-10.406-24.795C111.504,125.554,96.569,130.9,96.564,131.174z"/>
			<path fill="#B15B32" d="M202.296,177.016l-39.868,5.732l-8.838-22.309c21.076-8.155,42.951-13.747,41.313-13.268
				c0,0,3.678-1.242,4.817,0.935C200.86,150.283,202.296,177.016,202.296,177.016z"/>
			<g>
				<g>
					<path fill="#FFB672" d="M157.305,159.33c1.076,3.688,3.122,7.077,4.787,10.529c1.867,3.869,3.632,7.778,5.435,11.678
						c0.643,1.391,3.074,0.374,2.485-1.048c-3.005-7.253-6.284-15.914-11.512-21.855
						C158.019,158.087,157.111,158.664,157.305,159.33L157.305,159.33z"/>
				</g>
			</g>
			<g>
				<g>
					<path fill="#FFB672" d="M161.629,157.805c1.376,3.691,3.736,7.037,5.672,10.462c2.463,4.355,4.572,8.876,6.922,13.288
						c0.621,1.166,2.676,0.341,2.163-0.912c-3.179-7.766-7.745-17.526-13.935-23.316
						C162.117,157.013,161.447,157.317,161.629,157.805L161.629,157.805z"/>
				</g>
			</g>
		</g>
	</g>
	<g>
		<g opacity="0.39">
			<path fill="#81401F" d="M120.125,123.606c0.483,2.903,6.929,0.521,9.357,2.602c2.429,2.079,3.921,4.797,5.446,7.427
				c3.016,5.201,6.415,10.362,11.356,14.356c4.941,3.995,11.674,6.723,18.457,6.149c7.263-0.613,13.605-4.982,17.089-10.439
				c3.484-5.456,4.419-11.863,4.101-18.068c-0.128-2.493-0.739-5.375-3.319-6.563c-1.601-0.737-3.538-0.598-5.348-0.438
				c-16.079,1.419-31.382-0.706-47.461,0.713C129.803,119.345,119.701,121.056,120.125,123.606z"/>
		</g>
		<g>
			<g>
				<path fill="#B06630" d="M117.303,124.697c-2.531-9.324,4.981-31.559,7.518-40.882c2.538-9.324,8.486-18.138,17.509-23.852
					c9.022-5.715,21.223-8.021,31.927-5.081c10.703,2.94,19.299,11.463,19.948,21.018c1,14.724-15.33,27.126-14.911,41.871
					c0.113,3.981,1.467,7.999,0.489,11.893c-1.239,4.932-7.276,10.356-13.014,11.619c-5.737,1.263-18.701-16.745-11.298-0.082
					c0,0-12.717-4.872-17.278-14.457c-1.634-3.434-5.806-6.529-10.849-5.778C123.319,121.564,121.054,124.611,117.303,124.697"/>
			</g>
			<g>
				<g>
					<path fill="#81401F" d="M137.188,123.937c3.393,8.339,9.843,14.16,18.043,17.671c0.359,0.153,0.819-0.096,0.695-0.534
						c-0.712-2.508-1.461-5.005-2.203-7.504c-1-0.633-0.974-0.358,0.077,0.824c0.537,0.823,1.253,1.528,1.921,2.24
						c2.796,2.979,6.942,4.63,10.904,5.163c0.659,0.088,0.974-0.867,0.284-1.031c-5.968-1.416-10.301-4.038-13.759-9.167
						c-0.232-0.344-0.803-0.136-0.686,0.289c0.697,2.512,1.357,5.033,2.025,7.554c0.399,1.507-5.072-1.987-5.693-2.4
						c-4.907-3.262-8.754-7.945-11.13-13.307C137.548,123.464,137.076,123.663,137.188,123.937L137.188,123.937z"/>
				</g>
			</g>
			<g>
				<g>
					<path fill="#81401F" d="M171.305,137.41c-0.695-9.515-1.08-19.03-0.99-28.572c0.003-0.299-0.441-0.293-0.459,0
						c-0.599,9.553-0.389,19.068,0.792,28.572C170.7,137.819,171.336,137.839,171.305,137.41L171.305,137.41z"/>
				</g>
			</g>
			<g>
				<g>
					<path fill="#81401F" d="M175.918,134.463c-3.586-20.091,2.354-38.668,14.571-54.653c0.334-0.437-0.399-0.993-0.758-0.585
						c-13.143,14.946-18.82,36-14.608,55.457C175.236,135.208,176.01,134.98,175.918,134.463L175.918,134.463z"/>
				</g>
			</g>
			<g>
				<g>
					<path fill="#81401F" d="M148.777,60.983c-14.541,14.683-22.707,34.386-20.76,55.156c0.036,0.387,0.64,0.394,0.609,0
						c-1.587-20.492,6.449-40.043,20.522-54.785C149.382,61.109,149.016,60.742,148.777,60.983L148.777,60.983z"/>
				</g>
			</g>
			<g>
				<g>
					<path fill="#81401F" d="M150.164,67.247c-13.47,14.711-21.478,34.302-18.117,54.406c0.055,0.328,0.609,0.252,0.58-0.078
						c-1.755-19.902,4.385-39.138,17.834-54.03C150.644,67.344,150.348,67.045,150.164,67.247L150.164,67.247z"/>
				</g>
			</g>
			<g>
				<path fill="#B06630" d="M189.499,89.753c-3.22,6.422-3.97,13.721-2.107,20.521c0.762,2.784,1.937,5.762,0.647,8.401
					c-0.761,1.558-2.43,2.815-4.384,3.096s-4.115-0.521-5.036-2.015c-0.716-1.161-0.654-2.547-0.526-3.854
					c0.568-5.807,2.085-11.546,4.493-17.001"/>
			</g>
		</g>
		<g>
			<path fill="#B06630" d="M172.681,60.507c6.248,1.557,10.154,7.031,11.384,12.471s0.389,11.042,0.427,16.583
				c0.031,4.577,0.668,9.15,1.895,13.607c0.521,1.891,1.149,3.771,1.333,5.707c0.184,1.935-0.113,3.966-1.322,5.612
				c-1.208,1.647-3.457,2.822-5.723,2.599c-2.266-0.225-4.26-2.105-3.891-4.021c-1.2,3.217-2.807,6.323-4.785,9.249
				c-0.581,0.858-1.25,1.747-2.303,2.17c-1.417,0.57-3.103,0.133-4.511-0.454c-6.888-2.873-11.245-9.067-12.789-15.461
				c-1.544-6.395-0.639-13.024,0.661-19.458c1.259-6.233,2.894-12.438,5.548-18.345c1.401-3.119,3.151-6.228,6.022-8.504
				c2.871-2.277,8.614-2.35,12.365,0.132"/>
		</g>
		<g>
			<g>
				<path fill="#81401F" d="M162.422,64.925c-4.974,6.955-7.575,15.31-9.583,23.533c-1.75,7.167-3.98,15.229-2.7,22.614
					c0.978,5.643,6.07,13.263,12.502,13.312c7.467,0.056,11.396-5.549,13.095-12.208c-0.512,0.066-1.024,0.134-1.536,0.2
					c1.934,3.19,5.584,7.254,9.757,4.81c4.637-2.716,3.319-12.559,2.738-16.737c-0.638-4.588-1.579-9.125-2.184-13.717
					c-0.595-4.516-0.186-9.079-0.714-13.6c-0.618-5.284-3.735-9.786-8.741-11.634c-0.807-0.298-1.336,0.991-0.582,1.379
					c9.895,5.089,7.189,16.4,8.382,25.602c0.606,4.674,1.679,9.27,2.258,13.95c0.285,2.31,0.303,4.611,0.202,6.932
					c0.357,4.261-2.145,5.949-7.506,5.064c-0.841-0.879-1.561-1.845-2.159-2.897c-0.375-0.598-1.354-0.529-1.536,0.2
					c-2.091,8.404-9.677,15.039-17.755,7.952c-5.955-5.226-5.559-13.266-4.34-20.284c2.071-11.932,5.313-23.364,11.203-34.002
					C163.519,64.86,162.765,64.446,162.422,64.925L162.422,64.925z"/>
			</g>
		</g>
		<g>
			<g>
				<path fill="#81401F" d="M166.271,77.521c-1.906,9.153-3.043,18.522-2.644,27.883c0.02,0.47,0.725,0.474,0.731,0
					c0.123-9.361,0.717-18.504,2.526-27.713C166.964,77.29,166.355,77.118,166.271,77.521L166.271,77.521z"/>
			</g>
		</g>
		<g>
			<g>
				<path fill="#81401F" d="M169.235,83.121c-2.205,12.891-2.797,26.297-0.184,39.177c0.069,0.34,0.645,0.266,0.608-0.082
					c-1.384-13.099-1.86-25.856,0.182-38.928C169.902,82.894,169.303,82.72,169.235,83.121L169.235,83.121z"/>
			</g>
		</g>
		<g>
			<g>
				<path fill="#FF5126" d="M159.218,69.504c3.691-6.83,13.676-10.274,19.234-3.549c0.872,1.055,2.266-0.287,1.767-1.363
					c-1.873-4.042-7.739-4.836-11.661-4.487c-5.261,0.468-8.437,4.48-10.085,9.085C158.316,69.629,159.001,69.906,159.218,69.504
					L159.218,69.504z"/>
			</g>
		</g>
		<g opacity="0.39">
			<path fill="#81401F" d="M157.985,69.337c-4.061,8.404-8.145,16.874-10.231,25.786c-2.085,8.911-2.067,18.4,1.932,26.826
				c1.732,3.65,4.444,7.245,8.678,8.832c3.923,1.471,8.712,0.902,12.228-1.186c3.516-2.087,5.756-5.559,6.312-9.176
				c1.191-1.141,1.704-2.77,1.342-4.264c-0.177-0.732-0.599-1.473-1.367-1.836c-1.36-0.644-3.104,0.204-3.926,1.329
				s-1.082,2.482-1.79,3.662c-1.89,3.148-6.86,4.37-10.785,3.208c-3.924-1.163-6.757-4.235-8.101-7.582
				c-1.343-3.347-1.388-6.964-1.178-10.495c0.728-12.222,4.325-24.171,7.904-36.022"/>
		</g>
	</g>
</g>
</svg>
