<?xml version="1.0" encoding="utf-8"?>
<!-- Generator: Adobe Illustrator 16.0.0, SVG Export Plug-In . SVG Version: 6.00 Build 0)  -->
<!DOCTYPE svg PUBLIC "-//W3C//DTD SVG 1.1//EN" "http://www.w3.org/Graphics/SVG/1.1/DTD/svg11.dtd">
<svg version="1.1" id="Capa_1" xmlns="http://www.w3.org/2000/svg" xmlns:xlink="http://www.w3.org/1999/xlink" x="0px" y="0px"
	 width="400px" height="400px" viewBox="0 0 400 400" enable-background="new 0 0 400 400" xml:space="preserve">
<linearGradient id="SVGID_1_" gradientUnits="userSpaceOnUse" x1="181.5889" y1="244.1182" x2="119.7124" y2="245.0701">
	<stop  offset="0" style="stop-color:#FFFFFF"/>
	<stop  offset="1" style="stop-color:#000000"/>
</linearGradient>
<polygon opacity="0.48" fill="url(#SVGID_1_)" points="185.785,257.007 182.993,244.319 111.972,234.894 117.203,238.485 
	74.467,232.813 85.974,240.714 148.279,254.927 146.78,248.108 "/>
<linearGradient id="SVGID_2_" gradientUnits="userSpaceOnUse" x1="296.9141" y1="244.7393" x2="266.3104" y2="245.2101">
	<stop  offset="0" style="stop-color:#FFFFFF"/>
	<stop  offset="1" style="stop-color:#000000"/>
</linearGradient>
<polygon opacity="0.48" fill="url(#SVGID_2_)" points="298.788,257.265 243.894,236.601 245.444,232.976 298.788,238.052 "/>
<linearGradient id="SVGID_3_" gradientUnits="userSpaceOnUse" x1="295.7979" y1="236.3105" x2="218.7821" y2="237.4954">
	<stop  offset="0" style="stop-color:#FFFFFF"/>
	<stop  offset="0.7527" style="stop-color:#000000"/>
	<stop  offset="0.8564" style="stop-color:#707070"/>
	<stop  offset="0.9559" style="stop-color:#D7D7D7"/>
	<stop  offset="1" style="stop-color:#FFFFFF"/>
</linearGradient>
<polygon opacity="0.18" fill="url(#SVGID_3_)" points="219.702,224.458 298.633,232.251 298.633,249.288 218.152,229.532 "/>
<g>
	<path d="M73.684,230.671c-0.699,1.168-2.098,4.32-1.798,5.256c0.3,0.934,2.298,0.816,4.996,2.334
		c2.013,1.135,7.793,2.453,9.092,2.453s2.598-2.453,1.399-3.971s-6.195-1.635-7.194-5.256
		C79.179,227.868,73.684,230.671,73.684,230.671z"/>
	<path d="M110.453,233.591c0,0.467-0.4,6.422,0.6,6.422c0.999,0,5.995-0.115,8.692,0.586c2.698,0.699,6.195,1.752,7.494-0.469
		c1.299-2.219-1.1-4.32-2.898-4.32s-6.594-1.051-7.593-3.621C115.749,229.62,110.453,233.591,110.453,233.591z"/>
	<path fill="#FFB18F" d="M82.314,171.721c0,0,1.517,4.699,1.311,5.737c-0.487,2.453-2.091,2.918-3.896,2.803
		c-2.735-0.175-3.297-1.576-3.709-2.321s0.15-2.059,0.899-1.752c0.24,0.099,1.249,0.845,1.162,0.438
		c-0.113-0.525-0.04-1.621-0.075-2.19c-0.075-1.226,0.15-1.927,1.086-2.715C80.029,170.933,82.314,171.721,82.314,171.721z"/>
	<path fill="#1E1C34" d="M123.941,136.597c1.209,0.209,3.497,0.642,4.145,2.923c0.947,3.335,0.408,25.239,2.173,26.351
		c0.755,0.476,4.216,2.313,6.671,4.186c3.285,2.507,5.562,6.229,5.795,6.774c0.407,0.952-1.911,6.031-2.998,6.19
		c-1.086,0.157-16.499-10.209-17.585-11.796c-1.086-1.588-5.6-21.387-5.057-23.292C117.629,146.029,120.275,135.962,123.941,136.597
		z"/>
	<path fill="#1E1C34" d="M106.894,127.663c-4.297-1.586-29.013,9.868-29.612,13.547c-0.278,1.702-1.461,8.579-1.699,15.299
		c-0.276,7.805,1.647,14.897,2.198,15.299c0.799,0.585,4.896,0.585,5.395-0.7c0.509-1.309,1.507-6.831,2.099-12.496
		c0.505-4.846,0.623-10.044,0.899-10.044c0.6,0,15.137-6.716,17.085-7.416C105.208,140.451,109.741,128.713,106.894,127.663z"/>
	<path fill="#1E1C34" d="M110.453,169.005c0.15,1.577,10.042,24.351,11.241,30.833c0.392,2.117-1.049,34.512-1.799,34.512
		s-8.992,1.752-9.892,0.174c-0.899-1.576-0.15-33.109-0.3-33.811c-0.149-0.701-6.544-16.526-7.744-16.175
		c-1.199,0.351-2.521,17.039-2.897,17.927c-2.698,6.365-15.737,32.234-16.787,32.059c-1.049-0.174-9.742-1.051-9.742-2.627
		c0-1.578,13.639-30.949,13.639-32.176s1.649-36.322,4.796-37.723C94.117,160.597,110.303,167.429,110.453,169.005z"/>
	<path fill="#1E1C34" d="M88.622,167.137c-0.105-0.709-2.198-6.949,2.997-20.497c3.521-9.181,13.553-18.73,14.688-18.919
		c2.099-0.351,19.633,8.234,20.533,10.335c0.66,1.543-11.84,16.643-12.589,24c-0.465,4.566-2.398,9.11-3.747,9.811
		C109.154,172.568,88.921,169.152,88.622,167.137z"/>
	<path fill="#11111E" d="M122.105,134.713c0.15,0.088,2.96,1.971,3.41,2.321c0.449,0.35,1.986,1.489,1.986,1.62
		c0,0.132-0.975,2.584-1.199,2.54c-0.225-0.043-5.771-4.073-6.07-4.116C119.933,137.035,122.105,134.713,122.105,134.713z"/>
	<path fill="#161628" d="M104.308,128.363c0.368-0.086,1.349-0.176,3.522,0.35c2.279,0.551,4.159,0.876,4.234,1.577
		c0.075,0.701-0.412,2.979-0.861,2.627c-0.45-0.35-6.295-1.489-6.595-1.401C104.308,131.604,104.121,128.407,104.308,128.363z"/>
	<path fill="#161628" d="M120.944,136.013c0,0,0.699-1.577,0.849-1.577s3.297,3.679,3.047,3.854c-0.25,0.175-6.594,1.051-6.794,1.11
		c-0.2,0.058-3.397,3.328-3.647,3.27c-0.25-0.059,1.948-4.788,2.098-4.847C116.648,137.765,120.295,136.713,120.944,136.013z"/>
	<path fill="#FFB18F" d="M112.951,129.765c0,0,3.097,8.058,3.547,8.058c0.449,0,3.782-1.475,4.146-1.576
		c1.049-0.292,3.597-8.176,3.747-8.701c0.15-0.525-7.495-3.291-7.693-2.92C114.949,127.896,113.476,128.889,112.951,129.765z"/>
	<path fill="#FFB18F" d="M118.247,115.137c-0.674,1.927-2.398,7.153-1.949,9.897c0.315,1.924,3.847,9.869,6.595,10.511
		c1.866,0.437,4.347-1.927,6.07-6.131c1.724-4.204,4.646-10.336,2.848-12.701C130.012,114.348,118.247,115.137,118.247,115.137z"/>
	<path fill="#969696" d="M123.592,120.596c-0.122,0-1.499,1.927-2.048,5.431c-0.073,0.463-1.849,0.701-1.898,0.292
		c-0.032-0.26,0.6-3.036-0.999-3.036c-0.899,0-1.499,2.1-1.499,4.029c0,0.175-1.388-0.565-1.499-1.227
		c-0.5-2.978,0.5-7.183,1.549-8.233C118.247,116.801,123.592,120.596,123.592,120.596z"/>
	<path d="M122.181,119.297c0,0-0.532,1.32,3.372,5.431c3.016,3.176,6.254,5.374,7.756,5.679c3.447,0.701-0.075-8.307-0.075-8.307
		L122.181,119.297z"/>
	<path d="M116.897,116.917c-0.149,0.613-0.974,2.205-0.6,2.511c0.886,0.724,17.086,6.161,17.086,6.161l0.524-4.905L116.897,116.917z
		"/>
	<path fill="#1E1C34" d="M115.149,111.02c0.53-0.372,7.344-1.285,15.987,0.701c5.353,1.229,8.093,2.745,7.644,3.971
		s-4.796,7.811-5.058,7.811c-0.45,0-16.674-6.584-16.824-6.584C116.748,116.917,113.65,112.071,115.149,111.02z"/>
	<path fill="#DB826A" d="M121.619,134.932c0,0-2.023-1.839-2.698-2.671c-0.674-0.832-0.974-3.153-1.011-3.547
		c-0.038-0.394-0.712-0.569-0.712-0.35c0,0.219-0.112,4.058,0.75,5.197s2.36,2.687,2.698,2.687S121.394,135.458,121.619,134.932z"/>
	<path fill="#AFAFAF" d="M94.082,177.796c0.296,0.615,1.097,0.366,1.242-0.195c0.262-1.012-0.328-1.386-0.701-1.321
		C94.048,176.381,93.816,177.246,94.082,177.796z M94.636,176.619c0.236-0.041,0.609,0.195,0.443,0.836
		c-0.092,0.356-0.598,0.514-0.786,0.123C94.125,177.23,94.271,176.682,94.636,176.619z"/>
	<path fill="#282747" d="M112.951,129.765c0,0,3.647,7.766,3.547,8.058c-0.249,0.728-1.899,4.788-2.098,4.847
		c-0.339,0.1,0.267-4.451-0.25-5.313c-0.35-0.584-5.972-6.534-5.795-6.658C108.604,130.524,112.851,129.473,112.951,129.765z"/>
	<path fill="#A8963D" d="M132.406,119.42c0.46-0.771,1.749-0.688,1.916,0.421c0.15,0.991-0.571,2.174-1.462,1.997
		C132.281,121.723,131.576,120.812,132.406,119.42z"/>
	<path fill="#282747" d="M98.619,164.48c-0.814-6.389,3.373-16.313,4.419-20.118c1.047-3.807-0.116-10.74-0.465-11.012
		c-0.349-0.272-2.559,4.622-4.187,5.981c-1.273,1.063-4.531,3.872-6.562,6.801c-0.069,0.17-0.14,0.339-0.206,0.508
		c-5.195,13.548-3.103,19.788-2.997,20.497c0.151,1.019,5.397,2.395,10.722,3.417C99.245,169.18,98.977,167.291,98.619,164.48z"/>
	<path fill="#A8963D" d="M106.17,129.653c0.143-0.203,0.594-0.139,0.678,0.179c0.075,0.284-0.149,0.594-0.464,0.516
		C106.18,130.298,105.913,130.019,106.17,129.653z"/>
	<path fill="#A8963D" d="M125.691,138.543c0.142-0.203,0.594-0.138,0.677,0.179c0.076,0.284-0.148,0.594-0.463,0.517
		C125.701,139.188,125.434,138.91,125.691,138.543z"/>
	<path fill="#282747" d="M89.155,166.877c-1.963,10.008-2.981,31.879-2.981,32.844c0,1.227-13.639,30.598-13.639,32.176
		c0,0.969,3.293,1.674,6.07,2.113c2.749-5.182,8.065-16.57,10.129-21.814c2.675-6.797,3.489-9.381,4.07-15.498
		c0.582-6.117-0.93-28.683-0.93-28.683S90.455,167.262,89.155,166.877z"/>
	<path fill="#282747" d="M109.704,200.714c0.15,0.701-0.599,32.234,0.3,33.811c0.484,0.85,3.096,0.732,5.522,0.445
		c0.792-7.223,0.729-30.629,0.597-32.086c-0.291-3.193-2.5-8.359-3.896-9.992c-1.396-1.631-9.537-11.827-10.266-8.354
		C103.159,184.188,109.554,200.013,109.704,200.714z"/>
	<path fill="#AFAFAF" d="M116.572,145.219c0.588-0.968,2.26-0.842,2.49,0.563c0.206,1.254-0.715,2.738-1.874,2.5
		C116.437,148.127,115.512,146.964,116.572,145.219z"/>
	<path fill="#AFAFAF" d="M115.674,149.362c0.185-0.304,0.711-0.265,0.783,0.177c0.064,0.395-0.225,0.862-0.59,0.787
		C115.631,150.277,115.34,149.911,115.674,149.362z"/>
	<path fill="#282747" d="M116.819,145.513c0.454-0.747,1.745-0.649,1.923,0.435c0.159,0.968-0.553,2.114-1.447,1.93
		C116.714,147.758,116,146.861,116.819,145.513z"/>
	<path fill="#1E1C34" d="M98.212,170.598c0,0-1.163-1.768-1.628-4.215c-0.24-1.263,0.407-3.942,0.407-3.942
		s-1.861,1.359-1.687,3.671S97.107,170.666,98.212,170.598z"/>
	<path fill="#161628" d="M101.526,164.548c0,0,0.988,4.69,0.872,6.594c-0.116,1.902,0.989,1.224,0.989,1.224s0.349-3.467-0.174-4.69
		S101.526,164.548,101.526,164.548z"/>
	<path fill="#161628" d="M104.259,172.161c0,0,0.349-1.631,0.233-2.922c-0.116-1.292-0.931-2.855-0.931-2.855
		s1.396,1.156,1.861,2.516c0.465,1.359,0.058,3.534,0.058,3.534L104.259,172.161z"/>
	<path d="M114.1,141.21c-0.3,0.525-7.444,10.977-7.844,12.438c-0.453,1.653-1.299,10.628-1.249,11.328
		c0.05,0.701,2.947,4.497,3.297,4.438c0.35-0.059,1.648-3.737,1.798-3.971c0.15-0.234,0.699-9.811,0.899-10.103
		c0.2-0.292,4.696-13.606,4.896-13.665S114.1,141.21,114.1,141.21z"/>
	<path fill="#111119" d="M113.95,139.692c0.275-0.386,1.699-0.584,2.099-0.584s0.819,2.123,0.799,2.306
		c-0.05,0.468-3.622,2.015-4.021,1.781C112.486,142.996,113.7,140.042,113.95,139.692z"/>
	<path d="M88.497,166.26c0.371-0.173,13.166,4.497,16.773,4.833c6.107,0.569,6.438-1.288,6.744-0.788
		c0.188,0.307,0.712,5.124,0.487,5.167c-0.591,0.115-2.173,0.965-7.981,0.526c-5.384-0.406-16.524-4.103-16.524-4.687
		C87.997,171.079,88.247,166.378,88.497,166.26z"/>
	<path fill="#111119" d="M86.873,166.669c0.674-0.613,6.969,1.606,6.969,2.189c0,0.585-2.473,15.242-2.773,15.242
		s-3.122-0.088-3.222-0.789c-0.1-0.7,0.139-3.627-0.225-7.883c-0.075-0.876-2.11-1.536-2.473-2.103
		C84.925,172.977,85.919,167.538,86.873,166.669z"/>
	<path fill="#A8963D" d="M106.256,153.648c0.229,0.03,3.183,1.003,3.298,1.037c0.075,0.021-0.076,0.371-0.15,0.35
		c-0.182-0.053-3.118-0.871-3.222-0.919C106.088,154.071,106.144,153.633,106.256,153.648z"/>
	<path fill="#AFAFAF" d="M103.259,140.042c0.162-0.094,6.115,3.439,6.295,3.65c0.149,0.175-0.25,1.139-0.5,1.08
		c-0.25-0.059-6.145-3.445-6.295-3.62C102.609,140.976,102.959,140.217,103.259,140.042z"/>
	<path fill="#7C7C7C" d="M96.345,172.086c-0.455-2.779-3.767-3.029-4.932-1.113c-2.1,3.457-0.268,5.76,1.22,6.066
		C94.928,177.512,96.752,174.573,96.345,172.086z M92.956,175.734c-0.942-0.194-2.102-1.651-0.772-3.84
		c0.737-1.214,2.834-1.056,3.122,0.705C95.563,174.172,94.409,176.034,92.956,175.734z"/>
	<path fill="#AFAFAF" d="M95.821,171.298c-0.455-2.78-3.767-3.03-4.933-1.113c-2.1,3.457-0.268,5.76,1.22,6.066
		C94.404,176.724,96.228,173.785,95.821,171.298z M92.431,174.946c-0.942-0.194-2.102-1.652-0.772-3.84
		c0.737-1.214,2.834-1.056,3.122,0.705C95.039,173.384,93.884,175.246,92.431,174.946z"/>
	<path fill="#AFAFAF" d="M91.882,177.155c-0.114-0.692-0.94-0.756-1.23-0.277c-0.524,0.862-0.067,1.437,0.304,1.514
		C91.528,178.509,91.983,177.776,91.882,177.155z M91.036,178.065c-0.235-0.048-0.524-0.412-0.193-0.958
		c0.184-0.302,0.708-0.263,0.779,0.177C91.687,177.676,91.398,178.14,91.036,178.065z"/>
	<path fill="#AFAFAF" d="M91.612,177.892c-0.515-0.371-1.112,0.301-1.006,0.874c0.191,1.033,0.863,1.027,1.161,0.758
		C92.228,179.11,92.072,178.222,91.612,177.892z M91.616,179.235c-0.189,0.171-0.614,0.175-0.735-0.479
		c-0.067-0.363,0.311-0.788,0.636-0.554C91.809,178.411,91.908,178.972,91.616,179.235z"/>
	<path fill="#AFAFAF" d="M91.697,178.988c-0.544,0.307-0.383,1.257,0.087,1.462c0.848,0.369,1.205-0.295,1.173-0.733
		C92.907,179.039,92.184,178.714,91.697,178.988z M92.667,179.708c0.021,0.278-0.205,0.699-0.742,0.465
		c-0.298-0.13-0.4-0.73-0.056-0.925C92.178,179.075,92.636,179.28,92.667,179.708z"/>
	<path fill="#AFAFAF" d="M92.443,179.333c-0.228,0.654,0.437,1.232,0.903,1.017c0.841-0.39,0.725-1.163,0.449-1.463
		C93.371,178.424,92.647,178.75,92.443,179.333z M93.577,179.109c0.175,0.19,0.248,0.68-0.285,0.926
		c-0.295,0.137-0.716-0.229-0.572-0.644C92.85,179.022,93.308,178.816,93.577,179.109z"/>
	<path fill="#AFAFAF" d="M93.422,178.894c0.099,0.697,0.923,0.783,1.224,0.313c0.542-0.847,0.098-1.435-0.271-1.521
		C93.805,177.551,93.334,178.271,93.422,178.894z M94.288,178.009c0.233,0.055,0.515,0.427,0.172,0.963
		c-0.19,0.298-0.712,0.242-0.775-0.198C93.628,178.379,93.927,177.924,94.288,178.009z"/>
	<path fill="#AFAFAF" d="M90.77,174.7c-0.05,0.35-0.455,1.799-0.35,1.897c0.25,0.233,1.488,0.812,1.773,0.7
		c0.15-0.058,0.362-1.942,0.362-1.942L90.77,174.7z"/>
	<path fill="#A8963D" d="M101.311,170.173c0.2-0.029,2.537,0.637,3.822,0.788c1.973,0.234,2.797,0.059,2.847,0.234
		c0.05,0.175-0.225,4.992-0.35,5.051c-0.125,0.059-1.698,0.175-2.897,0c-1.199-0.175-3.997-0.555-4.021-0.788
		C100.687,175.224,101.111,170.203,101.311,170.173z"/>
	<path fill="#FFB18F" d="M142.526,177.765c0.5,0,1.811-0.197,3.409,0.854c1.599,1.052,5.208,3.76,5.108,4.212
		c-0.37,1.677-2.591,0.058-3.722-0.438c-0.3-0.132-0.144,1.729-2.042,3.715c-1.898,1.985-5.852-1.803-5.552-3.087
		C140.028,181.736,142.526,177.765,142.526,177.765z"/>
	<path d="M145.461,181.429c0.375,0.146,10.029,5.533,10.029,5.533s1.799-0.613,2.96-0.921c0.117-0.03,1.658,0.526,0.512,3.841
		c-0.949,2.744-2.621,2.61-2.686,2.555c-0.487-0.424-1.835-3.724-1.835-3.724s-9.742-4.905-9.967-4.992
		c-0.112-0.044-0.085-0.97,0.225-1.679C144.986,181.386,145.397,181.405,145.461,181.429z"/>
	<path fill="#FFB18F" d="M142.264,183.808c0.062-0.248,2.91-1.736,3.734-1.444c0.262,0.093,0.437,0.467,0.399,0.948
		c-0.023,0.291-0.188,0.556-0.188,0.556s0.762-0.833,1.312-0.569c0.549,0.262,0.087,1.255,0.087,1.255s0.487-0.555,0.999-0.307
		c0.512,0.248,0.25,0.993-0.4,1.519s-2.885,1.197-4.071,0.905S142.264,183.808,142.264,183.808z"/>
	<path fill="#FFF9B3" d="M158.338,186.437c-0.299,0.023-1.149,0.803-1.574,2.146s-0.824,3.052-0.3,3.401
		c0.524,0.351,1.699-0.935,2.248-2.569S159.087,186.378,158.338,186.437z"/>
	<g>
		<path fill="#282747" d="M81.057,165.432c-0.465-5.573,0.465-16.585,1.163-18.487c0.698-1.904,2.443-0.544,2.443-1.633
			c0-1.086-2.675-1.494-2.21-2.718c0.465-1.223,8.025-4.078,12.444-5.981c3.477-1.497,7.054-6.333,7.493-8.546
			c-8.503,2.176-24.626,10.181-25.109,13.143c-0.278,1.703-1.461,8.579-1.699,15.3c-0.276,7.805,1.647,14.897,2.198,15.299
			c0.45,0.33,1.95,0.473,3.261,0.306C81.263,170.221,81.265,167.923,81.057,165.432z"/>
	</g>
	<path fill="#282747" d="M134.788,175.627c-2.209-1.631-10.583-5.573-10.001-7.068c0.582-1.496,3.023-2.312,2.209-2.854
		c-0.814-0.545-2.791,1.223-3.256,0.679c-0.465-0.543,0.233-5.302,0.931-7.477s-0.349-14.138-0.931-15.089
		c-0.527-0.864-4.708,6.054-6.072,9.319c1.184,6.561,3.701,16.955,4.476,18.088c1.086,1.587,16.499,11.953,17.585,11.796
		c0.35-0.052,0.828-0.617,1.302-1.387C139.322,179.56,136.29,176.736,134.788,175.627z"/>
	<path fill="#282747" d="M127.345,112.279c-0.814-0.544-6.048-1.087-10.933-0.952c-0.589,0.017-1.093,0.013-1.524-0.007
		c-0.786,1.455,1.871,5.597,2.009,5.597c0.091,0,6.079,2.416,10.887,4.32C128.114,118.353,127.967,112.695,127.345,112.279z"/>
	<path fill="#161628" d="M77.181,170.407c0.194,0.023,1.723,0.351,3.072,0.292c1.349-0.058,3.072-0.525,3.123-0.379
		c0.05,0.146,0.125,2.103,0.025,2.131c-0.1,0.029-1.299,0.468-2.773,0.468c-1.474,0-2.947-0.205-2.997-0.438
		C77.581,172.247,76.931,170.378,77.181,170.407z"/>
	<path fill="#151528" d="M95.944,204.108c-1.454-0.137-2.733-2.787-2.733-2.787s0.058,2.922,1.512,4.146
		c1.031,0.867,1.745,0.611,2.675-0.273C98.328,204.312,97.398,204.243,95.944,204.108z"/>
	<path fill="#151528" d="M93.443,207.981c-0.007-0.547-10.7,20.664-10.816,20.867s0.756,2.244,1.105,2.65
		C84.082,231.907,93.501,212.604,93.443,207.981z"/>
	<path fill="#151528" d="M117.75,203.36c-0.562-0.191,1.686-0.137,2.733-1.359c0.552-0.645,0.698-1.768,0.872-2.107
		s0.291,2.65,0.058,3.059C121.181,203.36,119.553,203.972,117.75,203.36z"/>
	<path fill="#151528" d="M118.099,204.515c0,0,2.966,16.449,2.907,17.061c-0.058,0.611-0.756,11.42-0.872,11.625
		C120.018,233.403,117.809,204.651,118.099,204.515z"/>
	<path fill="#151528" d="M85.651,142.729c0.375,0.731,1.861,2.516,1.396,3.671s-0.874,2.167-0.874,2.167l1.455-0.604
		c0,0,0.988-1.7,0.523-2.924C87.687,143.818,85.477,142.391,85.651,142.729z"/>
	<path fill="#151528" d="M83.325,146.808c0,0,1.047,0,1.628,0.544c0.582,0.543,1.22,1.216,1.22,1.216l-0.231,1.774
		c0,0-0.465-1.02-1.104-1.835S83.325,146.808,83.325,146.808z"/>
	<path fill="#151528" d="M124.903,165.635c0,0,1.628-0.747,3.14-0.476c1.512,0.272,2.216,0.711,2.216,0.711l-0.646-1.934
		c0,0-0.698-0.272-2.384,0C125.542,164.208,124.903,165.635,124.903,165.635z"/>
	<path fill="#161628" d="M141.927,175.488c0.104-0.237,1.686,1.357,1.611,1.839c-0.075,0.482-2.248,6.22-3.409,6.132
		c-0.456-0.034-1.799-0.788-1.799-1.051C138.33,182.144,140.241,179.342,141.927,175.488z"/>
</g>
<g>
	<path fill="#C0856B" d="M260.983,194.384c0.475,0.477,2.082,3.766,1.531,4.76c-0.551,0.996-1.924-2.658-2.078-2.045
		c-0.154,0.611,1.144,4,0.508,5.543c-0.637,1.545-2.789,2.836-2.789,2.836s-2.588-7.428-1.743-9.65
		C257.257,193.603,260.983,194.384,260.983,194.384z"/>
	<path d="M272.44,151.729c1.664,0.868,2.227,2.561,3.484,7.329c1.159,4.388-7.852,14.68-11.453,16.717
		c-2.172,1.229-3.307,15.466-3.061,17.908c0.247,2.443-6.084,1.928-6.084,1.928l7.201-26.676L272.44,151.729z"/>
	<path fill="#161515" d="M282.229,141.633c-0.406,2.508-1.705,7.749-3.186,9.711c-1.48,1.963-5.2,6.555-7.451,5.933
		c-2.252-0.622-9.356-21.106-4.186-24.228C272.577,129.929,282.908,137.453,282.229,141.633z"/>
	<path fill="#161515" d="M204.479,206.663c-0.846-0.66-5.108-0.84-5.471-0.332c-0.361,0.508,2.863,20.027,3.734,20.678
		c2.07,1.555,3.16-15.592,3.16-15.592L204.479,206.663z"/>
	<path fill="#161515" d="M245.442,230.806c-0.09,0.418-2.279,5.291-1.246,6.184c1.033,0.891,15.873,6.496,16.473,5.447
		c0.602-1.047-10.309-8.76-10.512-10.332C249.956,230.532,245.442,230.806,245.442,230.806z"/>
	<path fill="#262626" d="M246.462,184.577c0,0-11.748,27.111-12.269,27.424c-3.21,1.924-28.679,3.775-29.282,3.188
		c-0.604-0.59-1.03-8.021-0.272-8.797c0.759-0.775,21.968-1.664,22.323-2.832s6.322-24.18,6.797-25.339
		C234.232,177.062,246.462,184.577,246.462,184.577z"/>
	<path fill="#262626" d="M249.8,185.919c2.572,2.986,15.152,18.971,14.736,22.23c-0.416,3.262-11.726,26.703-11.691,27.135
		c0.033,0.43-6.826-2.346-7.734-3.58s9.047-23.041,9.001-24.6c-0.046-1.561-20.688-19.93-14.147-26.287
		C242.328,178.521,249.8,185.919,249.8,185.919z"/>
	<path fill="#303030" d="M235.283,188.978l-3.761-2.645c-1.9,7.143-4.337,16.492-4.561,17.227
		c-0.355,1.168-21.564,2.057-22.323,2.832c-0.468,0.479-0.483,3.486-0.286,5.859c0.162,0.023,0.332,0.02,0.516-0.025
		c2.707-0.668,14.213-3.271,19.045-3.781c4.832-0.512,8.662,0.199,8.955-0.113c0.294-0.311-0.627-3.672-0.424-6.504
		C232.647,198.997,235.283,188.978,235.283,188.978z"/>
	<path fill="#2B2B2B" d="M258.345,206.261c-1.962-1.486-8.801-13.416-10.108-16.049l-5.089-0.297l-0.275,3.563
		c4.559,6.443,11.213,12.742,11.239,13.627c0.046,1.559-9.909,23.365-9.001,24.6c0.402,0.547,1.972,1.395,3.592,2.135
		c0.436-2.146,1.188-5.58,2.168-9.004c1.598-5.578,7.811-15.268,8.089-15.887C259.238,208.329,260.306,207.747,258.345,206.261z"/>
	<path fill="#161515" d="M236.193,172.031c1.095-1.77,17.077-21.9,19.331-25.312c2.256-3.411,7.352-4.366,11.369-1.999
		c4.019,2.368,9.039,4.399,8.138,11.971c-0.903,7.571-11.562,20.839-14.69,26.216c-3.131,5.377-1.468,12.959-1.895,14.247
		c-0.73,2.209-27.688-5.043-27.987-7.119C230.159,187.96,233.052,177.111,236.193,172.031z"/>
	<path fill="#C0856B" d="M270.04,129.818c-0.957,1.308-4.008,7.296-4.348,10.696c-0.34,3.398,0.078,6.942,1.686,8.405
		c1.606,1.462,6.67,1.051,10.074-1.863c3.404-2.913,6.107-8.516,6.107-8.516L270.04,129.818z"/>
	<path fill="#191717" d="M247.688,196.042c0.101-1.455,0.069-2.986-0.002-4.508c-0.323-6.846,6.052-16.878,13.109-25.939
		c5.171-6.638,6.755-15.93,5.62-21.128c-3.936-2.027-8.723-1.025-10.891,2.252c-2.254,3.411-18.236,23.542-19.331,25.312
		c-3.142,5.08-6.034,15.929-5.734,18.003C230.634,191.245,239.87,194.214,247.688,196.042z"/>
	<path d="M266.691,136.31c1.386,0.844,10.761,10.746,10.761,10.746c-1.537,1.258-3.883,4.22-7.033,4.292
		c-2.219,0.051-3.682-3.924-4.332-6.208C264.621,139.996,266.691,136.31,266.691,136.31z"/>
	<path fill="#161515" d="M252.419,155.551c0,0,0.195,12.452-0.066,15.933c-0.449,5.968-5.582,11.56-5.582,11.56
		s3.017-7.663,3.098-11.721C249.952,167.266,252.419,155.551,252.419,155.551z"/>
	<path fill="#262626" d="M254.09,145.052c0.77-1.307,5.604-3.005,8.226,0.945s-3.58,21.754-3.191,21.972
		c0.389,0.219,4.535-15.657,5.324-15.423c0.787,0.235,5.234,1.603,5.109,2.98c-0.123,1.377-3.859,15.57-5.249,17.921
		c-5.03,8.509-7.589,6.897-8.688,6.456C253.872,179.201,245.661,159.332,254.09,145.052z"/>
	<path fill="#2D2D2D" d="M261.665,169.638c0,0-4.994,5.579-5.233,3.548c-0.237-2.03,0.181-9.632,0.979-18.901
		c0.682-7.883,0.139-9.088-2.16-10.15c-0.559,0.274-0.979,0.606-1.161,0.918c-8.429,14.279-0.218,34.148,1.53,34.852
		c0.797,0.32,2.363,1.252,5.077-1.499c0.31-0.568,0.585-1.149,0.818-1.729C263.604,171.478,261.665,169.638,261.665,169.638z"/>
	<path fill="#9C5C4B" d="M266.962,133.314l-0.135,2.612c0,0,1.07,0.294,2.459,0.988c0.92,0.458,1.532-0.285,2.256-0.009
		c0.725,0.275,0.127,2.03,0.703,2.72c0.575,0.689,5.348,6.819,5.734,6.957c0.188,0.068,2.807-3.017,2.807-3.017
		s-4.123-6.214-6.282-8.706C272.345,132.369,266.962,133.314,266.962,133.314z"/>
	<path fill="#201E1E" d="M260.284,143.613c-1.949,0.413-3.682,1.475-4.76,3.106c-2.254,3.411-18.236,23.542-19.331,25.312
		c-3.142,5.08-6.034,15.929-5.734,18.003c0.092,0.643,2.733,1.777,6.355,2.975c0.821-5.531,2.282-13.806,4.341-19.53
		C243.812,166.09,255.181,150.222,260.284,143.613z"/>
	<path fill="#404040" d="M256.347,151.818c-1.069,0.31,5.592,8.614,5.974,8.155c0.38-0.46,2.533-8.073,2.954-9.206
		c0.912-2.454,1.549-5.638-0.451-10.35c-3.104-7.313-26.256-14.683-34.141-8.95c-13.755,10.002-11.12,26.123,0.248,37.708
		c7.96,8.114,16.992-8.178,20.123-14.162c3.129-5.985,10.181-9.207,11.285-7.689C263.442,148.842,260.702,150.559,256.347,151.818z"
		/>
	<path fill="#808080" d="M264.823,140.417c-3.104-7.313-26.256-14.683-34.141-8.95c-9.253,6.729-11.081,16.223-7.832,25.246
		c0.65,1.053,1.438,2.029,2.397,2.894c8.984,8.078,20.745-1.139,24.508-9.507c3.258-7.243,8.646-10.378,15.244-9.238
		C264.94,140.714,264.886,140.568,264.823,140.417z"/>
	<path fill="#262626" d="M281.337,127.91c-7.573-3.925-14.609,3.836-15.301,6.098c-0.605,1.149-2.605,5.54-1.043,11.014
		c1.826,6.387,6.033,12.1,6.033,12.1s-4.447-11.793-4.337-15.167c0.081-2.554,0.843-5.977,1.209-7.492
		c0.796,0.274,1.915,0.767,3.494,1.624c2.083,1.13,4.72,4.773,6.813,8.088c-0.447,1.683-1.005,3.538-1.683,5.362
		c-1.755,4.716-5.497,7.585-5.497,7.585s8.027-2.058,10.736-6.818C281.763,150.303,287.196,130.947,281.337,127.91z"/>
	<g>
		<path fill="#262626" d="M233.548,143.519c-1.139-2.19-1.371-4.854,0.234-6.792c1.498-1.809,3.956-1.676,5.649-0.312l1.776-2.143
			l1.547,1.75l-1.775,2.144c1.152,1.555,1.42,3.761,1.231,5.748l-2.003-0.113c0.076-2.418-0.088-3.254-0.577-4.007l-3.509,4.235
			c1.532,2.336,2.053,5.376,0.148,7.676c-1.775,2.144-4.65,1.792-6.396-0.134l-1.775,2.145l-1.549-1.752l1.776-2.145
			c-1.304-1.626-1.491-4.09-1.107-6.207l2.07,0.342c-0.219,1.453-0.457,2.985,0.385,4.239L233.548,143.519z M238.083,138.042
			c-0.898-0.618-2.135-0.315-2.82,0.512c-0.705,0.853-0.753,2.148-0.281,3.234L238.083,138.042z M231.222,149.945
			c1.015,1.048,2.541,1.173,3.523-0.016c0.943-1.137,0.721-2.938-0.078-4.143L231.222,149.945z"/>
	</g>
	<path fill="#1F1F1F" d="M254.341,161.016c0.84-0.089,4.721,6.091,4.4,6.739c-0.321,0.648-2.523-4.134-3.986-4.659
		S253.374,161.119,254.341,161.016z"/>
	<path fill="#1F1F1F" d="M258.541,168.451c-0.961-0.73-4.441-3.926-5.179-3.393c-0.738,0.534-0.533,1.082,0.023,1.972
		C253.94,167.92,258.541,168.451,258.541,168.451z"/>
	<path fill="#262626" d="M264.827,148.497c0,0-0.098-7.204-3.429-9.596c-3.331-2.391-7.114-4.289-7.595-2.091
		c-0.643,2.937,4.418,2.15,7.021,4.931C263.963,145.088,264.827,148.497,264.827,148.497z"/>
	<path fill="#262626" d="M263.481,147.212c0,0-1.914-3.566-7.006-5.414c-5.092-1.849-4.422,3.985-2.263,4.335
		C256.372,146.482,259.378,143.816,263.481,147.212z"/>
	<path fill="#1C1C1C" d="M227.981,203.388c0,0,0.239,1.416,1.996,3.129c1.756,1.713,2.804,2.246,2.804,2.246
		s-2.276,0.139-3.851-0.91C227.354,206.806,227.981,203.388,227.981,203.388z"/>
	<path fill="#1C1C1C" d="M260.526,206.13c0,0-1.834,1.711-2.674,1.801c-2.459,0.266-2.887-0.795-2.887-0.795
		s1.605,3.447,3.715,2.432S260.526,206.13,260.526,206.13z"/>
	<path fill="#1C1C1C" d="M230.759,211.411c0,0-2.791-0.658-3.787-3.02c-0.994-2.363,0.124-3.027,0.124-3.027
		s-1.397,1.324-1.007,3.396C226.479,210.835,230.759,211.411,230.759,211.411z"/>
	<g>
		<path fill="#2D2D2D" d="M268.942,153.889c1.164,1.978,2.084,3.232,2.084,3.232s-1.319-3.503-2.504-7.235
			C268.668,151.334,268.813,152.701,268.942,153.889z"/>
		<path fill="#2D2D2D" d="M274.583,154.646c2.156-2.043,3.364-5.215,5.077-9.781c1.714-4.565,1.098-11.117-2.899-13.527
			c-3.796-2.29-7.27,1.469-8.719,3.178c0.785,0.281,1.861,0.762,3.351,1.57c2.083,1.13,4.72,4.773,6.813,8.088
			c-0.447,1.683-1.005,3.538-1.683,5.362c-1.755,4.716-5.497,7.585-5.497,7.585s0.112-0.03,0.29-0.081
			C272.319,156.449,273.549,155.626,274.583,154.646z"/>
		<path fill="#2D2D2D" d="M267.827,134.77l-0.002,0.001c-0.1,0.119-0.166,0.431-0.202,0.891
			C267.696,135.329,267.765,135.033,267.827,134.77z"/>
	</g>
	<g>
		<path fill="#202020" d="M281.763,150.303c0,0,5.434-19.356-0.426-22.393c-1.652-0.857-3.279-1.157-4.82-1.078
			c2.544,0.775,4.799,2.977,5.137,5.647c0.563,4.455,1.607,9.929-1.587,16.978c-1.159,2.554-2.696,4.429-4.185,5.79
			C278.101,154.138,280.504,152.516,281.763,150.303z"/>
		<path fill="#202020" d="M265.567,138.604c0.899-2.837,1.625-5.743,3.153-8.14c-1.476,1.367-2.448,2.775-2.685,3.544
			c-0.605,1.149-2.605,5.54-1.043,11.014c0.291,1.017,0.646,2.011,1.029,2.974C265.384,144.798,264.856,140.842,265.567,138.604z"/>
	</g>
	<g>
		<path fill="#4D4D4D" d="M271.393,136.086c2.075,1.126,4.701,4.749,6.792,8.054c-0.261-1.548-1.684-4.352-3.99-6.302
			c-4.672-3.95-6.4-2.939-6.296-3.375C268.694,134.736,269.813,135.229,271.393,136.086z"/>
	</g>
	<path fill="#202020" d="M262.112,176.758c0.674-0.881,1.404-1.971,2.196-3.311c1.39-2.351,5.126-16.544,5.249-17.921
		c0.074-0.836-1.534-1.668-2.988-2.245c0.016,1.477-0.131,3.525-0.652,6.306c-1.379,7.358-1.004,9.671-3.098,15.359
		C262.586,175.582,262.349,176.184,262.112,176.758z"/>
	<path fill="#C0856B" d="M268.751,154.391c0.518-1.234-0.263-4.517-2.529-7.347c-2.164-2.696-4.957-0.324-4.609,0.922
		c0.375,1.346,1.992,0.68,2.054,1.603c0.04,0.583-1.936-1.242-2.351-0.129c-0.415,1.114,2.87,1.791,3.729,3.444L268.751,154.391z"/>
</g>
</svg>
