<?xml version="1.0" encoding="utf-8"?>
<!-- Generator: Adobe Illustrator 16.0.0, SVG Export Plug-In . SVG Version: 6.00 Build 0)  -->
<!DOCTYPE svg PUBLIC "-//W3C//DTD SVG 1.1//EN" "http://www.w3.org/Graphics/SVG/1.1/DTD/svg11.dtd">
<svg version="1.1" id="Capa_1" xmlns="http://www.w3.org/2000/svg" xmlns:xlink="http://www.w3.org/1999/xlink" x="0px" y="0px"
	 width="400px" height="400px" viewBox="0 0 400 400" enable-background="new 0 0 400 400" xml:space="preserve">
<g>
	<path fill="#ECCC00" d="M367.04,244.217c-0.22-0.123,0.873-6.883-3.826-7.926c-7.899-2.539-37.589,13.682-45.642,11.568
		c-14.098-3.697-30.98,3.387-45.453,1.662c-10.818-1.287-21.728-1.773-32.618-2.391c-3.449-0.316-6.902-0.543-10.356-0.666
		c-1.146-0.084-2.295-0.164-3.44-0.258c-15.444-1.281-30.618-3.727-45.668-7.41c-6.748-1.65-13.46-3.678-20.036-6.102
		c-0.596-0.236-1.197-0.465-1.802-0.688c-18.286-6.973-35.417-17.092-49.075-31.123c-9.684-9.95-14.003-22.353-19.594-34.751
		c-5.239-11.62-13.4-21.26-20.685-31.559c-0.028-0.155-0.042-0.31-0.073-0.465c-0.08-0.41-0.268-0.718-0.518-0.937
		c0-0.11-0.003-0.219-0.004-0.33c-0.003-1.196-0.921-1.798-1.848-1.811c-0.134-0.201-0.272-0.398-0.406-0.6
		c-0.314-0.492-0.629-0.984-0.943-1.477c-1.331-2.084-4.189-0.28-3.238,1.893c1.098,2.507,1.843,5.138,2.941,7.647
		c0.01,0.024,0.025,0.042,0.036,0.065c0.093,0.809,0.205,1.617,0.363,2.428c0.054,0.274,0.157,0.502,0.293,0.69
		c-0.955,8.97,0.8,17.954,1.324,26.923c0.67,11.465,0.622,22.579,3.026,33.891c3.942,18.545,14.05,33.152,28.89,44.734
		c13.78,10.754,30.022,18.115,46.443,23.834c19.36,6.744,39.936,11.197,60.468,12.654c3.877,0.803,7.781,1.471,11.695,1.898
		c7.855,2.471,17.058,1.961,24.883,1.664c12.045-0.459,24.005-2.096,36.043-2.643c17.924-0.814,43.178-15.912,57.663-23.109
		C337.313,260.814,369.594,245.648,367.04,244.217z"/>
	<path fill="#ECCC00" d="M345.83,184.11c-0.344-1.068-1.354-1.404-2.219-1.246c-0.352-0.166-0.775-0.215-1.264-0.063
		c-46.699,14.49-96.439,20.317-143.838,5.482c-12.119-3.794-23.853-8.749-35.334-14.15c-10.759-5.061-21.454-10.364-31.222-17.179
		c-9.298-6.488-17.657-14.249-27-20.665c-9.339-6.414-19.51-13.106-25.195-23.215c-0.524-0.931-1.448-1.08-2.215-0.776
		c-1.271-0.365-2.904,0.597-2.388,2.221c2.333,7.346,9.924,10.613,14.885,15.933c6.692,7.177,5.116,18.448,8.645,27.008
		c0.276,0.671,0.806,1.045,1.382,1.182c0.154,0.204,0.367,0.386,0.656,0.527c0.714,0.349,1.408,0.728,2.114,1.09
		c0.101,0.628,0.799,0.788,1.275,1.452c2.642,3.683,3.604,3.443,6.892,5.683c0.688,0.468,4.744,2.855,5.25,2.5
		c4.851,3.162,9.419,4.676,14.081,8.131c-0.117,1.245,0.374,2.529,1.795,3.352c3.925,2.272,7.851,4.6,11.818,6.853
		c6.178,4.599,7.506,9.364,20.165,16.233c0.221,0.211,6.052,1.252,6.281,1.447c0.002,0.563,0.271,1.121,0.917,1.496
		c1.905,1.1,3.803,2.068,5.781,2.855c11.47,5.293,23.892,8.641,36.491,10.443c0.436,0.49,1.025,0.873,1.795,1.051
		c6.795,1.572,13.612,1.859,20.434,1.467c0.287,0.221,23.71,0.449,24.191,0.422c22.929-1.326,19,1.25,46-7
		C322.393,211.635,352.754,205.643,345.83,184.11z M97.29,136.238c-0.1-0.312-0.183-0.628-0.291-0.938
		c0.286,0.205,0.571,0.409,0.857,0.613C97.66,136.006,97.471,136.114,97.29,136.238z M150.076,172.67
		c-0.494-0.377-0.986-0.758-1.477-1.141c0.559,0.3,1.113,0.605,1.675,0.901C150.205,172.507,150.138,172.586,150.076,172.67z"/>
	<path fill="#F7DF2A" d="M367.678,232.92c0.203-0.814,2.103-0.813-1.458-3.279c-0.142-0.225-23.573,2.086-23.868,2.096
		c-14.121,0.455-25.689,0.545-40.146-1.434c-11.138-1.523-22.005-5.318-33.167-6.625c-8.773-1.027-17.66-1.342-26.285-0.785
		c-26.27-4.211-52.621-2.793-75.663-17.994c-1.059-0.697-2.094-0.76-2.979-0.438c-0.258-0.164-0.517-0.33-0.775-0.494
		c-10.448-6.652-20.43-13.72-30.213-21.306c-11.174-8.665-23.702-15.384-34.641-24.4c-3.416-2.815-6.955-6.03-9.981-9.59
		c1.758-1.229-1.438-5.706-3.499-7.527c-4.024-3.557-2.796-6.93-4.408-12.52c0.145-1.752,0.518-3.543,1.16-5.371
		c0.856-2.437-0.803-4.115-2.778-4.48c-0.009-0.211-0.024-0.426-0.029-0.634c-0.111-4.829-7.611-4.839-7.5,0
		c0.078,3.402,0.565,7.052,1.455,10.674c-0.048,0.598-0.093,1.194-0.103,1.783c-1.936-2.292-3.975-4.521-6.126-6.749
		c-3.262-3.376-6.78-6.828-9.626-10.687c0.08-0.298,0.136-0.601,0.136-0.904c0-0.991-0.398-1.952-1.098-2.652
		c-0.125-0.125-0.26-0.219-0.394-0.319c-0.459-0.557-1.074-0.968-1.778-1.188c-0.621-1.25-1.157-2.544-1.57-3.897
		c-0.183-0.601-0.469-1.085-0.818-1.471c-0.603-0.761-1.53-1.282-2.798-1.282c-1.236,0-2.152,0.493-2.756,1.223
		c-0.863,0.809-2.049,2.501-0.86,3.524c7.733,6.65,14.744,14.331,22.439,22.532c4.363,4.65,5.389,14.431,8.724,19.829
		c4.032,6.528,8.31,12.9,12.347,19.424c6.949,11.227,11.882,23.385,20.185,33.753c6.91,8.631,15.811,15.561,25.342,21.066
		c19.748,11.406,42.638,16.273,64.543,21.693c13.529,3.348,26.841,6.176,40.723,7.68c14.65,1.586,26.652,0.291,41.352,1.246
		c7.201,0.467,17.563-3.41,24.779-2.916c12.207-2.004,41.725-11.113,59.307-13.027C368.693,237.057,367.495,233.648,367.678,232.92z
		"/>
	<path fill="#F7DF2A" d="M344.254,176.643c-4.27-1.801-5.908-2.212-10.25-3.25c-0.449-0.531-3.013-1.595-3.75-1.75
		c-2.671-0.562-3.526-1.992-6.209-1.942c-25.539-3.312-51.984,2.957-77.854,3.21c-14.063,0.138-28.097-1.027-42.072-2.487
		c-1.104-0.115-2.207-0.243-3.31-0.37c-0.421-0.38-0.962-0.68-1.673-0.827c-9.502-1.969-18.132-6.361-27.059-10
		c-1.931-0.788-3.355,0.105-4.038,1.519c-0.709-0.379-1.42-0.754-2.125-1.141c-0.37-0.203-0.733-0.318-1.09-0.396
		c-7.02-3.822-14.311-7.138-21.196-11.216c-10.223-6.054-19.343-14.085-28.719-21.332c-0.838-0.648-1.752-0.875-2.629-0.831
		c-0.3-0.312-0.606-0.617-0.9-0.934c-0.82-0.882-1.764-1.215-2.668-1.166c-4.743-3.75-9.391-7.617-13.803-11.775
		c-2.901-2.734-7.012,0.391-6.386,3.434c-0.476-0.361-0.958-0.714-1.432-1.08c-3.829-2.954-7.557,3.567-3.785,6.476
		c1.227,0.947,2.464,1.88,3.707,2.806c0.232,0.231,0.508,0.443,0.843,0.626c8.919,6.605,18.169,12.745,27.345,18.987
		c0.262,0.399,0.603,0.776,1.046,1.11c0.361,0.271,0.729,0.534,1.093,0.802c0.093,0.721,0.427,1.457,1.09,2.141
		c4.684,4.836,9.976,8.757,15.62,12.124c27.665,19.422,59.991,32.128,93.038,38.74c19.723,3.947,38.934,5.351,58.711,1.047
		c19.881-4.327,38.867-12.768,59.4-13.754c2.422-0.115,3.629-2.072,3.615-3.958C349.73,179.583,346.764,177.702,344.254,176.643z"/>
	<path fill="#A9CA01" d="M104.954,136.289c-5.43-4.919-4.875-14.833-7.327-21.34c-2.649-7.026-8.155-12.44-10.577-19.573
		c-1.056-3.108-5.044-3.697-6.854-0.896c-5.547,8.584-19.875,7.563-27.811,3.361c-2.287-1.211-4.349-0.1-5.15,1.673
		c-3.175-0.415-5.461,4.714-2.165,7.155c7.031,5.207,10.21,14.018,13.949,21.596c4.471,9.063,13.826,5.754,17.944,21.637
		c0.917,3.537,5.886,5.738,6.103,1.765c0.373-6.817-4.202-20.562-1.397-27.059c2.409-5.58,14.305,5.058,17.059,7.059
		C102.196,134.187,108.078,139.119,104.954,136.289z"/>
	<path fill="#926037" d="M370.504,228.393c0.04-0.037-1.798-0.643-2.75-0.5c-11.75,1.5-18.75,2.25-30.5,3
		c-13.027,0.832-24.538-0.18-37.207-2.986c-7.77-1.719-15.627-2.826-23.529-3.611c8.961-0.977,17.785-3.117,26.553-5.318
		c9.019-2.264,18.025-4.625,26.568-8.357c6.021-2.631,11.664-6.264,15.83-11.313c0.266-0.123,0.465-0.35,0.545-0.675
		c0.65-0.835,1.264-1.704,1.83-2.615c1.584-2.553,4.109-8.51,3.941-12.893c0.059-0.314,0.021-0.611-0.087-0.879
		c-0.221-1.639-0.889-2.986-2.259-3.715c-0.211-0.113-0.458-0.137-0.699-0.102c0.095-0.407-0.045-0.834-0.561-1.056
		c-10.887-4.677-22-8.386-33.774-9.997c-12.589-1.722-25.338-0.455-37.873,1.1c-13.315,1.651-26.521,3.648-39.976,3.437
		c-14.391-0.227-28.652-2.724-42.668-5.823c-12.87-2.845-25.068-6.334-36.851-12.365c-11.225-5.745-20.931-13.353-30.936-20.914
		c-7.238-5.47-14.911-10.308-21.995-15.994c-6.993-5.613-15.214-12.794-16.744-22.105c-0.122-0.74-0.759-0.926-1.316-0.744
		c0.181-0.655-0.392-1.479-1.102-1.416c-13.806,1.22-27.884-0.272-37.205-11.67c-0.612-0.748-1.994-0.146-1.92,0.795
		c0.512,6.535-0.187,13.858-4.337,19.205c-0.098,0.126-0.16,0.258-0.202,0.391c-0.652,0.269-1.092,1.175-0.465,1.867
		c8.565,9.455,16.789,19.247,20.956,31.497c4.187,12.307,3.21,26.21,3.656,39.037c0.872,25.087,5.071,49.052,23.743,67.265
		c18.373,17.922,43.347,27.988,67.611,35.008c29.707,8.594,59.729,11.795,90.604,10.922c18.934-0.537,42.218-0.107,68.272-13.771
		c33.487-17.564,51.472-26.328,52.838-27.057C376.294,241.881,375.254,230.893,370.504,228.393z M366.312,244.672
		c-26.966,13.756-66.031,36.283-92.161,38.408c-32.314,2.629-64.986,2.836-96.801-4.146c-26.628-5.842-53.705-14.664-76.008-30.734
		c-11.796-8.498-21.445-19.33-26.909-32.902c-4.902-12.18-6.04-25.548-6.632-38.535c-0.647-14.185,0.418-29.014-3.859-42.724
		c-3.662-11.736-11.624-21.448-19.725-30.482c9.204,1.271,18.284,5.454,27.668,3.363c6.007-1.338,9.912-6.881,13.311-11.663
		c0.002,0.019-0.005,0.034-0.002,0.054c1.316,8.015,7.388,14.302,13.16,19.557c6.896,6.278,14.732,11.476,22.35,16.817
		c9.29,6.514,17.837,13.814,27.58,19.721c10.591,6.421,21.997,11.296,34.02,14.264c12.89,3.183,25.878,5.924,39.078,7.46
		c13.992,1.629,27.814,1.037,41.762-0.672c14.01-1.716,27.969-3.97,42.131-3.589c14.553,0.391,28.498,4.746,41.77,10.447
		c0.166,0.071,0.325,0.09,0.48,0.09c-4.99,4.438-3.828,12.287-3.714,18.438c-0.339,0.424-0.686,0.841-1.044,1.246
		c-5.125,5.798-12.703,9.185-19.811,11.808c-7.811,2.883-15.979,4.791-24.043,6.801c-11.361,2.83-22.865,5.246-34.635,4.855
		c-0.545-0.02-0.885,0.289-1.02,0.682c-13.785-0.887-27.634-1.271-41.324-2.629c-13.363-1.326-26.626-3.773-39.247-8.447
		c-13.229-4.898-24.738-13.208-35.888-21.666c-11.426-8.666-22.641-17.589-35.287-24.453c-4.138-2.246-8.148-5.035-11.8-8.258
		c0.34-0.317,0.502-0.815,0.203-1.339c-3.646-6.381-2.329-15.038-5.509-21.805c-4.159-8.852-14.814-11.984-18.377-21.259
		c-0.515-1.34-2.69-0.758-2.169,0.598c3.546,9.229,13.537,12.341,18.07,20.661c3.386,6.214,2.465,13.941,4.857,20.376
		c-4.753-4.779-8.707-10.326-11.231-16.374c-1.63-3.904-2.449-8.101-2.82-12.296c-0.127-1.434-2.378-1.446-2.25,0
		c0.965,10.903,5.539,20.275,12.906,28.29c8.542,9.291,19.971,14.52,30.273,21.462c11.793,7.947,22.61,17.243,34.315,25.318
		c10.623,7.328,21.972,12.752,34.392,16.252c25.111,7.076,51.752,6.406,77.551,8.389c13.557,1.043,27.697,3.949,40.998,5.863
		c17.73,2.551,28.544,1.17,39.446-0.273c6.195-0.82,9.293-0.729,14.668-1.641C360.268,234.855,362.394,240.391,366.312,244.672z"/>
	<path fill="#926037" d="M340.621,241.119c-59.398,17.217-103.479,10.742-150.908,0.549c-17.932-3.854-35.425-10.969-51.48-19.74
		c-16.625-9.082-33.057-21.234-42.316-38.152c-0.697-1.272-2.64-0.137-1.943,1.137c8.566,15.648,23.075,27.048,38.126,36.095
		c16.029,9.633,33.772,16.787,51.83,21.574c48.584,12.879,100.938,18.123,157.602-0.188
		C342.9,241.951,342.012,240.715,340.621,241.119z"/>
	<path fill="#926037" d="M319.313,188.592c-16.221,3.485-32.513,6.638-49.064,8.031c-16.795,1.414-33.48,0.402-50.089-2.318
		c-32.125-5.262-62.44-17.756-89.98-34.933c-1.235-0.77-2.363,1.177-1.136,1.943c27.804,17.342,58.164,29.615,90.517,35.16
		c33.992,5.826,66.95,1.463,100.35-5.713C321.328,190.458,320.727,188.289,319.313,188.592z"/>
	<path fill="#926037" d="M122.846,150.706c-2.597-1.98-4.949-4.332-6.93-6.93c-0.867-1.138-2.823-0.019-1.943,1.136
		c2.233,2.928,4.809,5.504,7.737,7.737C122.865,153.529,123.983,151.573,122.846,150.706z"/>
	<path fill="#926037" d="M92.407,168.215c-1.856-1.925-3.032-4.264-3.71-6.837c-0.37-1.402-2.541-0.807-2.17,0.598
		c0.776,2.94,2.171,5.632,4.29,7.83C91.824,170.853,93.414,169.26,92.407,168.215z"/>
</g>
</svg>
