<?xml version="1.0" encoding="utf-8"?>
<!-- Generator: Adobe Illustrator 16.0.0, SVG Export Plug-In . SVG Version: 6.00 Build 0)  -->
<!DOCTYPE svg PUBLIC "-//W3C//DTD SVG 1.1//EN" "http://www.w3.org/Graphics/SVG/1.1/DTD/svg11.dtd">
<svg version="1.1" id="Capa_1" xmlns="http://www.w3.org/2000/svg" xmlns:xlink="http://www.w3.org/1999/xlink" x="0px" y="0px"
	 width="400px" height="400px" viewBox="0 0 400 400" enable-background="new 0 0 400 400" xml:space="preserve">
<g>
	<g>
		<path fill-rule="evenodd" clip-rule="evenodd" fill="#C0384F" d="M148.701,273.287l97.507-10.153l-1.852-17.79l-97.508,10.152
			c-4.893,0.51-8.479,4.93-7.969,9.822l0,0C139.389,270.211,143.809,273.797,148.701,273.287z"/>
		<path fill-rule="evenodd" clip-rule="evenodd" fill="#FFFFFF" d="M148.484,271.209l97.508-10.152l-1.42-13.637l-97.507,10.154
			c-3.746,0.39-6.498,3.781-6.108,7.527C141.348,268.848,144.739,271.6,148.484,271.209z"/>
	</g>
	<path fill-rule="evenodd" clip-rule="evenodd" fill="#D9465F" d="M124.998,132.001l13.882,133.317
		c-0.51-4.893,3.076-9.313,7.969-9.822l97.508-10.152c-5.093-48.911-8.79-84.408-13.883-133.318l-97.507,10.154
		C128.075,122.688,124.488,127.108,124.998,132.001L124.998,132.001z"/>
	
		<rect x="140.004" y="121.593" transform="matrix(-0.9946 0.1036 -0.1036 -0.9946 303.1331 363.5697)" fill-rule="evenodd" clip-rule="evenodd" fill="#C0384F" width="4.242" height="136.128"/>
</g>
<g>
	<g>
		<g>
			<path fill-rule="evenodd" clip-rule="evenodd" fill="#61C3C6" d="M186.793,285.774l95.821-20.71l-3.778-17.484l-95.822,20.711
				c-4.808,1.039-7.891,5.822-6.852,10.631l0,0C177.201,283.73,181.984,286.813,186.793,285.774z"/>
			<path fill-rule="evenodd" clip-rule="evenodd" fill="#FFFFFF" d="M186.352,283.732l95.821-20.711l-2.896-13.399l-95.822,20.711
				c-3.681,0.796-6.047,4.466-5.251,8.147C178.999,282.162,182.67,284.529,186.352,283.732z"/>
		</g>
		<path fill-rule="evenodd" clip-rule="evenodd" fill="#73D6D9" d="M147.845,147.91l28.317,131.012
			c-1.04-4.809,2.044-9.592,6.852-10.631l95.822-20.711c-10.389-48.064-17.929-82.948-28.317-131.013l-95.822,20.711
			C149.89,138.317,146.806,143.102,147.845,147.91L147.845,147.91z"/>
		
			<rect x="169.028" y="135.294" transform="matrix(-0.9774 0.2112 -0.2112 -0.9774 381.3926 365.9735)" fill-rule="evenodd" clip-rule="evenodd" fill="#61C3C6" width="4.242" height="136.127"/>
	</g>
	<g>
		<polygon fill-rule="evenodd" clip-rule="evenodd" fill="#9DE8EB" points="178.754,170.939 246.108,156.595 248.957,169.776 
			181.604,184.121 		"/>
		<polygon fill-rule="evenodd" clip-rule="evenodd" fill="#9DE8EB" points="183.027,190.711 250.382,176.367 253.23,189.548 
			185.878,203.893 		"/>
		<polygon fill-rule="evenodd" clip-rule="evenodd" fill="#9DE8EB" points="188.727,217.073 256.081,202.729 257.063,207.279 
			189.711,221.623 		"/>
		<polygon fill-rule="evenodd" clip-rule="evenodd" fill="#9DE8EB" points="190.693,226.172 258.047,211.828 259.03,216.378 
			191.677,230.723 		"/>
	</g>
</g>
</svg>
