<?xml version="1.0" encoding="utf-8"?>
<!-- Generator: Adobe Illustrator 16.0.0, SVG Export Plug-In . SVG Version: 6.00 Build 0)  -->
<!DOCTYPE svg PUBLIC "-//W3C//DTD SVG 1.1//EN" "http://www.w3.org/Graphics/SVG/1.1/DTD/svg11.dtd">
<svg version="1.1" id="Capa_1" xmlns="http://www.w3.org/2000/svg" xmlns:xlink="http://www.w3.org/1999/xlink" x="0px" y="0px"
	 width="400px" height="400px" viewBox="0 0 400 400" enable-background="new 0 0 400 400" xml:space="preserve">
<g>
	<g>
		<path fill="#3F3F3F" d="M154.593,208.517c0,0,0.655,4.994,8.542,9.397c5.146-4.411,4.55-14.602,4.55-14.602L154.593,208.517z"/>
		<path fill="#F9C3B3" d="M157.726,190.37c0,0-17.858,12.523-21.086,15.016c-4.516,3.486-4.225,7.447-1.81,11.399
			c2.187,3.58,6.191,10.732,9.54,16.417c3.35,5.687,8.336,17.496,8.336,17.496s0.295,0.908,5.472,1.204
			c2.868,0.165,5.846-3.141,5.846-3.141s-4.614-17.791-5.059-21.492c-0.787-6.563-7.308-11.69-7.308-11.69l19.858-8.768
			C171.516,206.812,161.826,191.29,157.726,190.37z"/>
		<g>
			<g>
				<path fill="#F1851A" d="M150.122,249.647c-0.482-0.059-0.986-0.074-1.493-0.056c-1.712,1.537-4.437,3.933-7.041,6.025
					c-2.91,2.337-4.524,4.576-7.591,6.481c-2.647,1.646,1.15,3.692,5.468,4.834c2.157,0.571,5.341,0.232,7.541-0.296
					c3.12-0.747,3.648-2.244,7.615-5.451c-0.004-1.388-0.013-2.798-0.028-4.097C154.516,251.791,150.122,249.647,150.122,249.647z"
					/>
				<path fill="#CE6315" d="M162.787,256.995c2.59-1.324,4.226-4.013,4.226-4.013s-0.275-7.104-3.045-7.342
					c-1.853-0.155-0.61,4.905-3.485,4.664c-3.425-0.284-7.718-2.938-10.094-2.305c0,0-0.686,0.631-1.76,1.592
					c0.507-0.019,1.011-0.003,1.493,0.056c0,0,4.394,2.144,4.471,7.441c0.016,1.299,0.024,2.709,0.028,4.097
					c0.081-0.064,0.145-0.12,0.225-0.188C156.838,259.411,160.453,258.19,162.787,256.995z"/>
			</g>
			<path fill="#FFFFFF" d="M151.657,254.412c0,0,0.655,2.539,0,6.336c-0.432,2.488-2.047,4.765-2.047,4.765l3.493-3.044
				C153.104,262.469,154.682,256.448,151.657,254.412z"/>
			<path fill="#FFFFFF" d="M154.621,251.498c0,0,2.339,3.511,1.988,8.019c-0.351,4.511,2.343-1.111,2.343-1.111
				S158.376,252.657,154.621,251.498z"/>
			<path fill="#FFFFFF" d="M151.665,247.933c-2.643,1.873-4.409,4.337-6.31,6.277c-1.897,1.94,0.254,3.148,2.525,1.212
				c2.551-2.171,6.712-6.766,6.712-6.766S152.393,247.746,151.665,247.933z"/>
			<path fill="#3F3F3F" d="M133.144,263.136c0,0,2.604-0.32,4.359,1.307c1.751,1.629,3.709,2.247,7.37,1.964
				c3.658-0.282,5.913-3.452,9.829-5.826c3.915-2.376,7.612-3.356,9.159-4.321c2.013-1.258,2.91-5.581,2.91-5.581
				s1.019,2.254,0.905,3.13c-0.208,1.556-1.599,2.918-2.428,3.527c-1.129,0.824-2.165,1.687-4.868,2.396
				c-1.383,0.361-4.427,1.764-5.713,2.657c-1.289,0.889-3.853,4.809-8.212,5.551c-4.361,0.74-9.236,0.239-11.723-1.785
				C132.247,264.131,133.144,263.136,133.144,263.136z"/>
		</g>
		<path fill="#F49E8E" d="M135.922,212.309c0,0,2.901,2.438,3.687,4.022c0.792,1.583,0.792,1.583,0.792,1.583
			S137.313,217.055,135.922,212.309z"/>
		<path fill="#3F3F3F" d="M175.225,217.914c0,0,1.899,8.539,10.834,10.52c8.941,1.98,16.803-0.009,16.803-0.009
			S196.979,206.48,175.225,217.914z"/>
		<path fill="#F9C3B3" d="M178.807,215.519c0,0,2.656-6.98,14.493-5.307c11.837,1.676,10.26,4.269,10.26,4.269
			s-6.312,12.021-7.358,15.656c-1.054,3.636,5.814,8.645,6.077,16.161c0.122,3.452-0.132,23.058-0.132,23.058h-10.68
			c0,0-3.264-10.575-5.149-17.02c-2.736-9.353-6.335-13.051-9.332-20.275C175.419,228.295,178.807,218.074,178.807,215.519z"/>
		<path fill="#F49E8E" d="M180.313,232.428c1.543,0.75,4.697,1.907,5.223,3.93c0.522,2.023,0.522,2.023,0.522,2.023
			s-3.775-2.297-5.125-3.395C179.585,233.891,180.313,232.428,180.313,232.428z"/>
		<g>
			<g>
				<path fill="#F1851A" d="M187.092,271.267c-1.497,3.529-3.472,8.214-4.563,10.98c-1.409,3.574-1.201,5.114-1.201,5.114
					s5.066,4.459,8.563,4.008c3.493-0.453,6.852-2.442,8.149-4.146c0.508-0.665,1.011-1.668,1.493-2.798
					c-0.669-4.245-1.913-10.156-3.861-12.112C193.929,270.563,190.137,270.752,187.092,271.267z"/>
				<path fill="#CE6315" d="M202.242,267.542c0,0-7.813-4.973-13.143-0.969c0,0-0.866,2.017-2.008,4.693
					c3.045-0.515,6.837-0.703,8.58,1.047c1.948,1.956,3.192,7.867,3.861,12.112c1.218-2.862,2.267-6.562,2.709-7.836
					C203.631,272.654,202.242,267.542,202.242,267.542z"/>
			</g>
			<path fill="#FFFFFF" d="M198.129,286.538c0.803-3.789-2.195-10.214-2.195-10.214s-0.485,5.817-0.076,11.741
				C196.37,287.346,197.178,286.811,198.129,286.538z"/>
			<path fill="#FFFFFF" d="M201.424,281.739c2.279-6.219-3.151-10.104-3.151-10.104s2.298,5.732,2.25,11.677
				C200.675,282.731,200.967,282.184,201.424,281.739z"/>
			<path fill="#FFFFFF" d="M191.549,265.358c0,0-2.018,6.392-2.693,8.993c-0.678,2.602,2.409,5.558,4.384,0.434
				c1.972-5.126,3.637-9.427,3.637-9.427S194.203,263.658,191.549,265.358z"/>
			<path fill="#3F3F3F" d="M181.327,287.361c0,0,3.04-1.699,5.802-0.792c2.762,0.903,4.073,4.298,7.624,1.357
				c3.548-2.942,5.762-5.988,6.195-7.316c0.433-1.33,1.913-7.173,1.913-7.173s0.481,2.313,0,4.781
				c-0.488,2.467-3.261,7.715-5.481,9.594c-2.219,1.878-5.913,5.091-13.405,2.488C179.568,288.771,181.327,287.361,181.327,287.361z
				"/>
		</g>
		<path fill="#3F3F3F" d="M172.628,179.782l-26.516,17.532c0,0,9.638,3.326,12.84,8.486c3.201,5.161,4.183,12.113,4.183,12.113
			s16.822-9.397,25.314-15.505c6.301,1.368,25.386,4.84,29.369,0.903c5.15-5.087,2.626-17.306,0.525-23.724L172.628,179.782z"/>
		<path fill="#3F3F3F" d="M175.225,217.914c0,0,7.878-1.358,13.536,0c5.659,1.356,12.548,6.213,14.101,10.511
			c4.338-2.365,9.24-10.49,10.75-13.313c6.31-11.799,7.273-19.734,7.24-19.943c-0.039-0.21-37.563,3.358-38.649,3.583
			c-0.815,0.171-4.355,10.942-6.059,16.258C175.585,216.755,175.225,217.914,175.225,217.914z"/>
		<path fill="#F49E8E" d="M168.061,128.5c0,0-7.409,10.063-6.914,13.051c0.499,2.989,11.794,7.401,11.794,7.401
			s7.447,2.562,13.084-1.708c5.643-4.27,3.782-18.744,3.782-18.744l-12.971-7.584L168.061,128.5z"/>
		<path fill="#F1851A" d="M164.83,135.27c0,0-0.871,7.851,3.171,9.572c4.044,1.721,12.446-6.643,16.366-9.572
			c3.917-2.931,0.563-9.241,0.563-9.241l-8.203-2.646c0,0,0.075-3.203,2.013-3.773c1.937-0.567,19.592,5.988,24.814,10.787
			c5.22,4.798,5.22,4.798,5.22,4.798s3.082,28.382,6.88,34.637s5.171,13.86,5.171,13.86s-25.943,16.557-40.017,10.315
			c-14.07-6.242-16.053-11.397-16.053-11.397l5.446-5.734c0,0-7.058-3.584-2.496-5.235c4.563-1.648,9.833-5.169,5.155-6.56
			c-4.676-1.393-16.725-18.21-16.768-23.106c-0.042-4.895,0-16.971,0-16.971l9.071,7.679L164.83,135.27z"/>
		<g>
			<g>
				<path fill="#F9C3B3" d="M179.267,110.74c-3.792-3.704-16.94-6.638-22.648,2.297c-1.256,1.968-1.265,5.801-1.431,7.986
					c-0.625,8.219,5.413,16.68,10.137,15.636c3.351-0.74,10.718-4.012,13.567-8.985C182.098,122.073,184.207,115.568,179.267,110.74
					z"/>
			</g>
			<path fill="#3F3F3F" d="M157.29,112.142c0,0,1.434,4.039,6.089,4.894c4.952,0.906,11.596-1.764,11.596-1.764
				s2.364,3.182,2.014,4.703c2.938-0.729,4.348,2.903,4.348,2.903s3.395-3.424,1.94-9.229c-0.672-2.669-1.979-6.514-6.452-7.994
				c-0.817-0.269-2.953-0.769-5.267-1.205c-3.361-0.633-5.726-2.866-5.726-2.866s-0.579,1.055-0.405,3.544
				c-2.432-1.442-4.47-3.242-4.47-3.242s-0.964,2.64-0.528,4.363c-1.663-0.953-3.621-0.953-3.621-0.953
				S156.559,110.414,157.29,112.142z"/>
		</g>
		<path fill="#F9C3B3" d="M199.533,131.158c-3.734,1.141-9.075,6.802-10.492,11.19c-1.104,3.438,4.651,13.821,7.887,15.505
			c3.234,1.683,15.216,0,15.216,0s12.687,11.093,20.134,12.128c10.864,1.507,21.732,13.71,21.732,13.71l11.215-2.065
			c0,0-11.215-19.487-24.507-24.767c-9.54-3.789-15.102-16.782-25.97-16.782C212.249,137.044,208.761,128.336,199.533,131.158z"/>
		<path fill="#F9C3B3" d="M251.908,181.626c0,0,0.347,8.548,3.501,13.534c3.155,4.986,4.559,3.591,4.559,3.591v-6.748
			c0,0,6.31,5.427,8.411,8.443c2.106,3.018,9.466,1.811,8.416-3.315c-1.053-5.128-12.821-17.542-12.821-17.542L251.908,181.626z"/>
		<path fill="#3F3F3F" d="M256.314,169.253c0,0-3.531-1.007-6.947,2.161c-4.133,3.828-2.019,6.094-2.019,6.094l4.56,4.118
			c0,0-0.102-1.784,4.292-3.764c2.762-1.244,6.34-0.449,6.34-0.449L256.314,169.253z"/>
		<path fill="#CE6315" d="M172.628,179.782c0,0,1.811,4.752,11.013,7.468c9.202,2.715,24.975-3.559,24.975-3.559
			s-11.938,1.644-20.166,0C180.224,182.047,172.628,179.782,172.628,179.782z"/>
		<path fill="#CE6315" d="M172.628,172.092c0,0,14.556,5.43,24.351,4.752c9.798-0.678,15.316-5.882,15.316-5.882
			s-9.565,1.13-16.603,1.585C188.656,172.998,172.628,172.092,172.628,172.092z"/>
		<g>
			<path fill="#3F3F3F" d="M154.478,172.89c0,0,5.942-1.603,9.287-2.504c3.346-0.901,9.422-10.619,9.422-10.619l6.327,17.375
				c0,0-11.499-5.525-14.963-4.592c-5.638,1.521-9.283,2.504-9.283,2.504L154.478,172.89z"/>
			<polygon fill="#F1851A" points="160.56,175.354 132.966,182.796 131.215,177.988 158.809,170.546 			"/>
			<g>
				<path fill="#3F3F3F" d="M221.218,156.468c-3.26-8.949-16.809-13.263-30.27-9.632c-13.46,3.63-21.728,13.826-18.469,22.775
					c3.262,8.948,16.81,13.259,30.271,9.629C216.208,175.612,224.479,165.414,221.218,156.468z M201.804,176.645
					c-11.301,3.047-22.68-0.573-25.416-8.087c-2.736-7.512,4.207-16.077,15.507-19.123c11.3-3.049,22.682,0.573,25.417,8.086
					S213.104,173.596,201.804,176.645z"/>
			</g>
			<g>
				<g>
					<path fill="#3F3F3F" d="M183.392,178.53l-7.926-21.757c-0.173,0.237-0.333,0.479-0.473,0.721l7.565,20.771
						C182.824,178.364,183.108,178.447,183.392,178.53z"/>
					<path fill="#3F3F3F" d="M187.108,179.1l0.313-0.086l-9.067-24.897c-0.199,0.137-0.394,0.272-0.584,0.414l8.94,24.544
						C186.842,179.081,186.978,179.097,187.108,179.1z"/>
				</g>
				<g>
					<path fill="#3F3F3F" d="M191.903,179.215l-9.896-27.174c-0.211,0.101-0.419,0.206-0.621,0.31l9.747,26.773
						C191.384,179.147,191.642,179.179,191.903,179.215z"/>
					<path fill="#3F3F3F" d="M195.814,179.367l-10.513-28.87c-0.211,0.097-0.418,0.193-0.629,0.293l10.449,28.691
						C195.372,179.462,195.604,179.43,195.814,179.367z"/>
				</g>
				<g>
					<polygon fill="#3F3F3F" points="199.348,178.974 200.015,178.795 188.986,148.509 188.317,148.69 					"/>
					<polygon fill="#3F3F3F" points="202.861,178.027 203.529,177.847 192.501,147.562 191.827,147.742 					"/>
				</g>
				<g>
					<polygon fill="#3F3F3F" points="206.873,176.943 207.542,176.764 196.514,146.479 195.842,146.658 					"/>
					<path fill="#3F3F3F" d="M210.469,175.073c0.084-0.06,0.166-0.119,0.249-0.179l-10.212-28.042
						c-0.259,0.007-0.509,0.003-0.744-0.028l10.385,28.515C210.254,175.25,210.354,175.156,210.469,175.073z"/>
				</g>
				<g>
					<path fill="#3F3F3F" d="M214.183,172.302l-9.207-25.282c-0.271-0.068-0.542-0.132-0.803-0.187l9.442,25.931
						C213.81,172.613,213.99,172.455,214.183,172.302z"/>
					<path fill="#3F3F3F" d="M217.035,169.546l-7.729-21.218c-0.221-0.075-0.428-0.169-0.66-0.232
						c-0.055-0.016-0.122-0.037-0.178-0.054l8.062,22.136C216.724,169.969,216.88,169.759,217.035,169.546z"/>
				</g>
				<g>
					<polygon fill="#3F3F3F" points="218.14,159.252 217.933,158.675 172.919,170.815 173.127,171.393 					"/>
					<polygon fill="#3F3F3F" points="217.041,156.23 216.829,155.653 171.816,167.794 172.027,168.369 					"/>
				</g>
				<g>
					<path fill="#3F3F3F" d="M171.263,164.708c-0.152,0.093-0.317,0.167-0.479,0.245l0.17,0.469l45.012-12.139l-0.212-0.576
						L171.263,164.708z"/>
					<path fill="#3F3F3F" d="M213.115,150.101l-39.357,10.615c-0.076,0.231-0.156,0.466-0.237,0.696l40.387-10.892
						C213.646,150.378,213.374,150.242,213.115,150.101z"/>
				</g>
				<g>
					<path fill="#3F3F3F" d="M208.871,148.176l-33.765,9.104c-0.148,0.246-0.279,0.491-0.397,0.741l35.176-9.487
						C209.555,148.404,209.222,148.278,208.871,148.176z"/>
					<path fill="#3F3F3F" d="M202.315,146.624l-20.599,5.556c-0.791,0.392-1.564,0.808-2.31,1.256l24.592-6.634
						C203.398,146.688,202.822,146.613,202.315,146.624z"/>
				</g>
				<g>
					<path fill="#3F3F3F" d="M178.294,176.008c0.238,0.15,0.476,0.294,0.711,0.44l39.747-10.721
						c0.068-0.218,0.133-0.429,0.208-0.653c0.006-0.013,0.013-0.025,0.018-0.04L178.294,176.008z"/>
					<path fill="#3F3F3F" d="M174.455,173.726c0.267,0.132,0.532,0.272,0.791,0.417l43.997-11.865l-0.211-0.577L174.455,173.726z"/>
				</g>
				<g>
					<path fill="#3F3F3F" d="M191.747,179.192c0.508,0.067,1.04,0.146,1.564,0.209l17.82-4.808c0.467-0.328,0.922-0.665,1.38-1.001
						L191.747,179.192z"/>
					<path fill="#3F3F3F" d="M182.705,178.313c0.348,0.126,0.702,0.243,1.07,0.342l33.117-8.933
						c0.206-0.257,0.419-0.518,0.575-0.786L182.705,178.313z"/>
				</g>
			</g>
		</g>
		<path fill="#F49E8E" d="M155.251,120.055c-2.478,1.061-6.321,3.753-9.869,8.178c-8.703,3.482-16.244,9.825-20.016,13.772
			c-3.245,3.394,0.172,13.12,2,24.745c1.197,7.599,5.167,9.083,7.104,10.893c1.938,1.812,9.933,3.847,11.875,3.983
			c5.967,0.421,9.434-5.727,6.203-9.228c-3.227-3.5-11.993-3.019-14.391-5.735c-3.511-3.982,0.791-15.564-2.236-19.907
			c5.395-3.071,13.896-6.073,20.154-7.954c0.397-2.734,0.597-6.772,0.17-10.479C155.143,125.941,155.349,122.889,155.251,120.055z"
			/>
	</g>
	<path fill="#F1851A" d="M155.143,117.345c0,0,6.9,3.477,13.532,3.571c7.78,0.109,12.889-1.676,14.717-4.682
		c0.711-1.176-0.796-4.793-0.796-4.793s-9.394,6.471-16.569,4.793c-7.175-1.678-8.736-4.093-8.736-4.093
		S155.099,113.665,155.143,117.345z"/>
</g>
</svg>
