<?xml version="1.0" encoding="utf-8"?>
<!-- Generator: Adobe Illustrator 16.0.0, SVG Export Plug-In . SVG Version: 6.00 Build 0)  -->
<!DOCTYPE svg PUBLIC "-//W3C//DTD SVG 1.1//EN" "http://www.w3.org/Graphics/SVG/1.1/DTD/svg11.dtd">
<svg version="1.1" xmlns="http://www.w3.org/2000/svg" xmlns:xlink="http://www.w3.org/1999/xlink" x="0px" y="0px" width="400px"
	 height="400px" viewBox="0 0 400 400" enable-background="new 0 0 400 400" xml:space="preserve">
<g id="BACKGROUND">
	<rect x="-50" y="-50" fill="#F4FFFD" width="500" height="500"/>
</g>
<g id="OBJECTS">
	<g>
		<path fill="#252732" d="M205.508,198.404h-17.83c-6.6,0-12-5.4-12-12v-82.979c0-6.6,5.4-12,12-12h30.902
			c9.485,0,17.247,7.762,17.247,17.248v59.412C235.827,184.76,222.184,198.404,205.508,198.404z"/>
		<ellipse opacity="0.1" fill="#252732" cx="185.911" cy="366.18" rx="56.959" ry="27.535"/>
		<g>
			<g>
				<g>
					<path fill="#DE3641" d="M182.462,352.785c-1.631,6.123-11.919,8.164-15.431,8.898c-3.51,0.734-7.754,4.328-10.368,6.205
						c-2.613,1.877-8.737,3.674-13.797,2.531c-2.58-0.582-3.802-2.646-4.379-4.531c-0.091-0.293-0.167-0.582-0.228-0.859
						c-0.191-0.867-0.103-1.754,0.228-2.545c0-0.002,0-0.002,0-0.004c0.237-0.566,0.597-1.084,1.068-1.51
						c2.667-2.402,7.945-7.041,9.925-7.941c2.694-1.225,8.408-7.348,9.063-10.205c0.651-2.859,3.069-2.695,3.069-2.695
						c3.321,0.633,6.021,0.918,8.198,0.992c6.26,0.219,8.208-1.299,8.208-1.299s1.426,3.98,3.304,7.41
						c0.35,0.639,0.61,1.232,0.799,1.775C182.95,351.379,182.462,352.785,182.462,352.785z"/>
					<path fill="#252732" d="M182.462,352.785c-1.631,6.123-11.919,8.164-15.431,8.898c-3.51,0.734-7.754,4.328-10.368,6.205
						c-2.613,1.877-8.737,3.674-13.797,2.531c-2.58-0.582-3.802-2.646-4.379-4.531c3.867,6.004,11.563,2.734,15.563,0.775
						c4.002-1.961,8.166-6.041,11.757-6.859c3.593-0.814,6.613-1.469,11.351-4.08c2.944-1.627,4.333-4.656,4.962-6.717
						C182.95,351.379,182.462,352.785,182.462,352.785z"/>
				</g>
				<path fill="#252732" d="M158.716,206.318c0,0-5.482,31.428-3.767,39.021c1.714,7.592,1.764,17.227,1.453,24.738
					c-0.31,7.512-1.159,13.063,0,16.492c1.16,3.43,0.996,15.84,2.466,20.9c1.47,5.063-1.306,8.492,0,12.084s3.266,6.531,2.613,7.512
					c-0.653,0.979-3.919,2.613-2.123,7.021c1.796,4.408,2.252,6.041,2.252,6.041s6.198,4.041,16.363,0c0,0,0.49-3.756,1.796-6.531
					c1.306-2.775,0.326-6.205-0.816-13.391c-1.144-7.184-1.633-14.043-1.47-20.41c0.163-6.369,1.061-11.471,1.061-11.471
					s1.655-5.186,1.848-11.064c0.193-5.877,0.683-7.184,1.826-10.123s1.633-2.939,2.286-7.512c0.653-4.572,1.143-9.961,2.449-10.287
					s2.776,0.652,5.062,8.654s3.521,23.352,5.108,26.943c1.587,3.592,0.629,7.674,2.006,11.104s2.521,5.063,2.193,6.369
					c-0.327,1.305,0.112,12.246,0.056,17.145c-0.056,4.898,0.394,7.674,0.006,13.227c-0.388,5.553,2.061,7.004,2.061,8.074
					s-3.592,6.949-0.816,11.521c0,0,3.267,4.408,3.756,6.367c0,0,9.798,2.449,11.758-2.613c0,0,0.489-6.041,2.122-9.959
					c1.633-3.92,2.449-5.553,2.286-9.961c-0.163-4.41,0.368-10.615,0.021-24.984s-2.47-20.084-2.796-24.004
					c-0.327-3.918-0.98-5.551-1.144-7.021c-0.163-1.469,0.979-0.488,1.47-4.082c0.489-3.592-0.49-9.145,0.979-13.389
					c1.47-4.246,1.425-8.982,1.611-11.105c0.186-2.121,2.308-5.715,2.308-11.92s-1.96-3.918,0-11.104
					c1.96-7.184-1.001-20.08-1.001-20.08C200.173,215.371,178.715,212.736,158.716,206.318z"/>
				<g>
					<path fill="#595F6C" d="M174.936,314.602c0.129,1.111,0.255,2.176,0.374,3.168l0.729-0.088
						c-0.119-0.992-0.245-2.055-0.374-3.164L174.936,314.602z"/>
					<path fill="#595F6C" d="M173.828,303.861c0.084,0.992,0.182,2.061,0.292,3.178l0.731-0.072
						c-0.109-1.113-0.207-2.18-0.291-3.168L173.828,303.861z"/>
					<path fill="#595F6C" d="M173.461,298.465c0.043,0.961,0.108,2.035,0.192,3.191l0.733-0.053
						c-0.083-1.15-0.148-2.217-0.191-3.172L173.461,298.465z"/>
					<path fill="#595F6C" d="M176.656,323.061c-0.022-0.338-0.05-0.652-0.083-0.936c-0.076-0.646-0.167-1.404-0.27-2.252
						l-0.729,0.088c0.103,0.846,0.194,1.604,0.27,2.25c0.032,0.27,0.059,0.572,0.079,0.896L176.656,323.061z"/>
					<path fill="#595F6C" d="M174.342,309.236c0.112,1.068,0.228,2.133,0.344,3.172l0.73-0.082
						c-0.116-1.037-0.231-2.098-0.343-3.166L174.342,309.236z"/>
					<path fill="#595F6C" d="M175.905,328.457l0.734,0.033c0.052-1.184,0.079-2.262,0.079-3.203h-0.735
						C175.983,326.217,175.957,327.283,175.905,328.457z"/>
					<path fill="#595F6C" d="M176.045,274.832l0.367-0.029c-0.004-0.121-0.005-0.242-0.005-0.363c0-0.871,0.094-1.752,0.288-2.695
						l-0.72-0.148c-0.204,0.992-0.303,1.924-0.303,2.844c0,0.129,0.002,0.256,0.006,0.4L176.045,274.832z"/>
					<path fill="#595F6C" d="M175.362,336.021c-0.08,0.867-0.169,1.76-0.262,2.658c0.221-0.229,0.496-0.332,0.773-0.334
						c0.078-0.762,0.153-1.52,0.221-2.258L175.362,336.021z"/>
					<path fill="#595F6C" d="M176.52,330.699l-0.733-0.045c-0.063,0.99-0.141,2.059-0.232,3.172l0.732,0.061
						C176.378,332.768,176.457,331.695,176.52,330.699z"/>
					<path fill="#595F6C" d="M180.475,253.822l0.71,0.186c0.259-0.988,0.57-2.004,0.926-3.016l-0.693-0.244
						C181.055,251.779,180.738,252.814,180.475,253.822z"/>
					<path fill="#595F6C" d="M176.355,277.061l-0.733-0.051c-0.062,0.898-0.173,1.928-0.339,3.143l0.729,0.098
						C176.179,279.02,176.292,277.977,176.355,277.061z"/>
					<path fill="#595F6C" d="M178.326,264.34l0.698,0.229c0.374-1.135,0.647-2.119,0.863-3.1l-0.718-0.158
						C178.959,262.266,178.691,263.229,178.326,264.34z"/>
					<path fill="#595F6C" d="M179.598,258.611c-0.019,0.189-0.039,0.377-0.062,0.563l0.729,0.09c0.023-0.191,0.045-0.385,0.064-0.58
						c0.08-0.824,0.206-1.68,0.373-2.549l-0.722-0.139C179.809,256.887,179.68,257.766,179.598,258.611z"/>
					<path fill="#595F6C" d="M183.183,246.48c-0.245,0.506-0.589,1.252-0.974,2.188l0.68,0.279c0.372-0.904,0.709-1.635,0.949-2.131
						C183.617,246.709,183.399,246.598,183.183,246.48z"/>
					<path fill="#595F6C" d="M177.475,266.76c-0.334,0.918-0.65,1.787-0.928,2.672l0.701,0.219c0.273-0.867,0.586-1.729,0.917-2.641
						l0.127-0.35l-0.691-0.25L177.475,266.76z"/>
					<path fill="#595F6C" d="M174.129,296.238c-0.002-0.178-0.003-0.354-0.003-0.523c0-0.813,0.034-1.697,0.101-2.629l-0.733-0.053
						c-0.068,0.949-0.103,1.852-0.103,2.682c0,0.174,0.001,0.35,0.003,0.531L174.129,296.238z"/>
					<path fill="#595F6C" d="M175.365,284.467c0.11-0.684,0.219-1.361,0.323-2.027l-0.726-0.113
						c-0.104,0.664-0.212,1.34-0.323,2.023l-0.18,1.121l0.726,0.115L175.365,284.467z"/>
					<path fill="#595F6C" d="M174.848,287.76l-0.727-0.107c-0.176,1.188-0.313,2.225-0.42,3.17l0.73,0.082
						C174.537,289.967,174.673,288.939,174.848,287.76z"/>
				</g>
				<path opacity="0.2" fill="#252732" d="M182.462,352.785c-1.631,6.123-11.919,8.164-15.431,8.898
					c-3.51,0.734-7.754,4.328-10.368,6.205c-2.613,1.877-8.737,3.674-13.797,2.531c-2.58-0.582-3.802-2.646-4.379-4.531
					c-0.091-0.293-0.167-0.582-0.228-0.859c-0.191-0.867-0.103-1.754,0.228-2.545c-0.216,3.328,2.175,3.283,6.665,3.199
					c4.49-0.08,13.777-7.184,17.146-9.695c3.368-2.51,9.92-2.449,10.532-6.184c0.612-3.736-3.062-8.328-3.062-8.328
					c0.007-0.123,0.022-0.24,0.042-0.355c6.26,0.219,8.208-1.299,8.208-1.299s1.426,3.98,3.304,7.41
					c0.35,0.639,0.61,1.232,0.799,1.775C182.95,351.379,182.462,352.785,182.462,352.785z"/>
				<g>
					<g>
						<path fill="#DE3641" d="M223.286,374.584c-0.49,5.471-2.859,10.369-6.532,11.92c-3.675,1.553-8.859,0.652-11.207-1.715
							c-2.346-2.367-3.244-7.674-2.916-11.104c0.232-2.445,1.17-3.105,1.543-5.531c0.031-0.234,0.049-0.365,0.049-0.365
							c0.109-0.922,0.142-2.088,0.039-3.656c-0.059-0.881-0.125-1.676-0.196-2.391c0-0.002,0-0.002,0-0.004
							c-0.421-4.313-0.913-5.793,0.257-6.912c0,0,1.123,1.543,1.225,2.016c0,0,2.063-3.24,6.961-3.119
							c4.748,0.119,5.512,2.439,5.556,2.584l0.003,0.008c0,0,0.431-3.094,0.556-3.885c0,0,2.256,1.408,2.501,4.412
							s-0.409,4.395-0.164,5.006c0.017,0.041,0.044,0.109,0.078,0.203c0.2,0.52,0.673,1.82,1.144,3.52l0.003,0.006
							c0,0.002,0.003,0.008,0.003,0.012c0.051,0.191,0.102,0.385,0.154,0.582c0,0.004,0.002,0.006,0.002,0.01
							C222.979,368.637,223.538,371.768,223.286,374.584z"/>
						<path fill="#252732" d="M223.286,374.584c-0.49,5.471-2.859,10.369-6.532,11.92c-3.675,1.553-8.859,0.652-11.207-1.715
							c-2.346-2.367-3.244-7.674-2.916-11.104c0.232-2.445,1.17-3.105,1.543-5.531c-0.187,1.434-0.823,6.734-0.402,9.125
							c0.49,2.775,2.031,7.611,5.156,7.979l1.499-1.102l2.233,0.061l1.44,1.377c0,0,6.001-0.723,7.715-8.479
							c1.318-5.965,0.826-9.582,0.527-10.936C222.979,368.637,223.538,371.768,223.286,374.584z"/>
					</g>
					<path opacity="0.2" fill="#252732" d="M220.959,361.848c0.017,0.041,0.044,0.109,0.078,0.203
						c-0.661,0.924-1.59-0.867-1.621-1.879c-0.082-2.695-1.35-3.857-1.35-3.857s0.431-3.094,0.556-3.885
						c0,0,2.256,1.408,2.501,4.412S220.714,361.236,220.959,361.848z"/>
					<path opacity="0.2" fill="#252732" d="M205.547,356.842c0,0-1.352,1.461-1.481,4.896c-0.421-4.313-0.913-5.793,0.257-6.912
						C204.322,354.826,205.445,356.369,205.547,356.842z"/>
				</g>
				<g>
					<path fill="#595F6C" d="M221.106,246.506c0-0.881-0.029-1.766-0.088-2.705l-0.733,0.047c0.059,0.922,0.087,1.793,0.087,2.658
						c0,0.164-0.002,0.328-0.004,0.494l0.735,0.01C221.105,246.84,221.106,246.672,221.106,246.506z"/>
					<path fill="#595F6C" d="M220.958,250.023c0.021-0.27,0.041-0.533,0.059-0.791l-0.733-0.049
						c-0.018,0.254-0.036,0.514-0.059,0.779c-0.063,0.775-0.139,1.576-0.223,2.381l0.731,0.076
						C220.817,251.611,220.894,250.805,220.958,250.023z"/>
					<path fill="#595F6C" d="M219.747,259.969l-0.727-0.111c-0.147,0.969-0.312,1.996-0.501,3.141l0.726,0.119
						C219.434,261.971,219.598,260.939,219.747,259.969z"/>
					<path fill="#595F6C" d="M221.792,228.543c0.06-0.203,0.117-0.404,0.172-0.604l-0.709-0.193
						c-0.053,0.195-0.109,0.391-0.168,0.588c-0.258,0.865-0.479,1.709-0.657,2.504l0.717,0.16
						C221.321,230.219,221.538,229.393,221.792,228.543z"/>
					<path fill="#595F6C" d="M220.043,241.002l0.064,0.66l0.73-0.068l-0.063-0.664c-0.083-0.857-0.162-1.666-0.215-2.496
						l-0.733,0.047C219.881,239.322,219.959,240.137,220.043,241.002z"/>
					<path fill="#595F6C" d="M221.163,214.508c0.059,0.191,0.118,0.389,0.177,0.604l0.708-0.195
						c-0.084-0.309-0.17-0.592-0.256-0.857C221.581,214.207,221.372,214.357,221.163,214.508z"/>
					<path fill="#595F6C" d="M219.766,236.25l0.734,0.01c0.013-1.045,0.095-2.066,0.248-3.123l-0.727-0.105
						C219.863,234.119,219.779,235.172,219.766,236.25z"/>
					<path fill="#595F6C" d="M218.527,267.361c0.117-0.682,0.235-1.371,0.354-2.068l-0.725-0.123
						c-0.118,0.697-0.236,1.387-0.353,2.068l-0.183,1.07l0.724,0.125L218.527,267.361z"/>
					<path fill="#595F6C" d="M220.485,254.617l-0.729-0.088c-0.121,1.006-0.261,2.066-0.414,3.15l0.727,0.104
						C220.223,256.695,220.364,255.629,220.485,254.617z"/>
					<path fill="#595F6C" d="M221.001,296.904l-0.714,0.176c0.289,1.164,0.528,2.174,0.73,3.094l0.718-0.158
						C221.53,299.09,221.291,298.072,221.001,296.904z"/>
					<path fill="#595F6C" d="M219.957,292.828l-0.299-1.152l-0.711,0.186l0.299,1.152c0.168,0.645,0.336,1.289,0.5,1.932
						l0.712-0.184C220.293,294.119,220.125,293.475,219.957,292.828z"/>
					<path fill="#595F6C" d="M221.738,225.627l0.722,0.133c0.195-1.063,0.324-2.141,0.383-3.205l-0.734-0.041
						C222.053,223.547,221.928,224.594,221.738,225.627z"/>
					<path fill="#595F6C" d="M221.81,217.227c0.176,1.021,0.283,2.068,0.32,3.117l0.734-0.027c-0.039-1.08-0.15-2.16-0.33-3.213
						L221.81,217.227z"/>
					<path fill="#595F6C" d="M217.978,270.605l-0.725-0.121c-0.204,1.219-0.364,2.221-0.505,3.148l0.727,0.111
						C217.615,272.818,217.775,271.82,217.978,270.605z"/>
					<path fill="#595F6C" d="M217.051,277.646c0-0.596,0.033-1.148,0.1-1.643l0.011-0.084l-0.729-0.098l-0.011,0.086
						c-0.07,0.525-0.106,1.111-0.106,1.738c0,0.447,0.019,0.928,0.054,1.43l0.732-0.053
						C217.067,278.541,217.051,278.076,217.051,277.646z"/>
					<path fill="#595F6C" d="M218.361,286.451l-0.717,0.166c0.213,0.92,0.459,1.936,0.755,3.104l0.712-0.18
						C218.818,288.377,218.572,287.367,218.361,286.451z"/>
					<path fill="#595F6C" d="M217.34,281.189l-0.729,0.105c0.138,0.959,0.32,1.992,0.561,3.158l0.719-0.146
						C217.654,283.154,217.475,282.135,217.34,281.189z"/>
				</g>
			</g>
			<path fill="#F7B385" d="M162.133,142.057l-5.009,18.162c0,0-5.734,6.902-14.255,1.673h-0.002c-0.46-0.282-0.929-0.6-1.406-0.958
				c0,0,2.93-14.157,6.663-22.316c0.57-1.249,1.161-2.359,1.763-3.255C151.338,138.396,156.291,140.362,162.133,142.057z"/>
			<path fill="#F19368" d="M162.133,142.057l-5.009,18.162c0,0-5.734,6.902-14.255,1.673c7.515-1.558,11.345-15.718,9.632-18.691
				c-1.275-2.213-3.315-3.373-4.378-4.583c0.57-1.249,1.161-2.359,1.763-3.255C151.338,138.396,156.291,140.362,162.133,142.057z"/>
			<path fill="#DE3641" d="M246.8,141.364c-3.063,8.695-22.167,8.695-22.167,8.695l-1.653-3.356l-1.082-2.197
				c0,0,2.777,29.23,2.449,32.985c-0.326,3.755,1.959,14.371,0,18.779c-1.96,4.408,0,14.367,0,14.367
				c-2.121,3.104-19.921,12.248-39.516,11.758c-19.595-0.49-26.617-13.063-26.617-13.063s0.612-3.434,1.163-7.52
				c0.346-2.582,0.669-5.428,0.796-7.83c0.328-6.205,2.613-6.205,3.757-9.959c1.141-3.758-1.47-1.799-0.164-12.248
				c1.305-10.451-1.634-29.721-1.634-29.721c-10.449,0.165-14.696-7.02-14.696-7.02l1.168-2.65l11.453-25.968
				c0.904-2.045,2.655-3.593,4.796-4.235l12.357-3.706l4.837-1.45l24.073-1.144c0,0,1.408,0.345,3.543,0.882
				c2.406,0.602,5.737,1.445,9.021,2.3c0,0,0.002,0,0.008,0.002c5.592,1.453,11.052,2.944,11.573,3.351
				c1.102,0.857,3.104,2.608,5.879,8.695c2.055,4.504,3.796,12.981,3.796,12.981s2.038,4.967,3.062,7.471
				c1.017,2.483,1.213,3.174,2.572,5.633c0.017,0.034,0.036,0.066,0.054,0.098C247.003,139.833,246.8,141.364,246.8,141.364z"/>
			<path fill="#252732" d="M246.8,141.364c-3.063,8.695-22.167,8.695-22.167,8.695l-1.653-3.356
				c1.945-0.095,17.227-1.119,22.649-9.405C247.003,139.833,246.8,141.364,246.8,141.364z"/>
			<path fill="#252732" d="M162.133,139.623v2.435c-10.449,0.165-14.696-7.02-14.696-7.02l1.168-2.65
				C150.623,134.525,156.021,139.571,162.133,139.623z"/>
			<path fill="#252732" d="M209.664,96.767c-0.109,1.783-4.664,10.729-14.791,12.47c-8.945,1.539-17.215,1.551-15.707-11.344
				l2.882-0.864l24.073-1.144C206.121,95.885,207.529,96.23,209.664,96.767z"/>
			<path opacity="0.2" fill="#252732" d="M246.8,141.364c-3.063,8.695-22.167,8.695-22.167,8.695l-2.735-5.553
				c0,0,2.777,29.23,2.449,32.985c-0.326,3.755,1.959,14.371,0,18.779c-1.96,4.408,0,14.367,0,14.367
				c-2.121,3.104-19.921,12.248-39.516,11.758c-19.595-0.49-26.617-13.063-26.617-13.063s0.612-3.434,1.163-7.52
				c3.113,1.531,9.045,3.393,19.789,3.765c18.831,0.651,22.485-1.144,29.543-8.167c7.06-7.02,11.066-28.902,8.757-41.614
				c-2.31-12.715,0.513-24.844,2.528-19.595c2.016,5.251,9.089,5.364,13.987,1.148c4.899-4.213-2.613-17.5-4.408-26.318
				c-1.771-8.68-10.606-11.867-10.88-11.965c5.592,1.453,11.052,2.944,11.573,3.351c1.102,0.857,3.104,2.608,5.879,8.695
				c2.055,4.504,3.796,12.981,3.796,12.981s2.038,4.967,3.062,7.471c1.017,2.483,1.213,3.174,2.572,5.633
				C247.008,139.794,246.8,141.364,246.8,141.364z"/>
			<g>
				<circle fill="#252732" cx="198.775" cy="57.442" r="14.54"/>
				<circle fill="#252732" cx="203.771" cy="77.079" r="6.919"/>
				<circle fill="#252732" cx="172.354" cy="52.477" r="6.726"/>
				<circle fill="#252732" cx="174.794" cy="61.226" r="6.726"/>
				<g>
					<path fill="#F7B385" d="M211.506,73.858c-2.377,7.66-6.603,6.339-6.603,6.339c-1.321,12.679,1.849,16.905,1.849,16.905
						c-6.912,8.293-15.182,9.58-20.074,9.477c-1.342-0.029-2.431-0.162-3.167-0.283c-0.583-0.096-0.972-0.641-0.896-1.227
						c1.027-7.844-3.45-15.46-3.45-15.46c24.976-3.529,23.888-21.561,23.888-21.561l1.849-1.32
						C209.129,64.085,213.884,66.198,211.506,73.858z"/>
					<path fill="#F7B385" d="M199.198,82.046c-6.106,6.881-15.293,8.685-20.808,7.409c-0.132-0.032-0.264-0.063-0.391-0.098
						c0,0,0,0-0.003,0c-0.827-0.222-1.561-0.515-2.176-0.872c-0.198-0.116-0.383-0.238-0.555-0.364
						c-0.933-0.692-1.772-1.791-2.48-3.03c-1.936-3.399-1.95-7.007-1.646-10.872l0.748-8.576l-0.002-0.061l-0.259-4.847
						l-0.486-9.065c0.544-0.446,1.091-0.861,1.646-1.242c13.18-9.144,28.888-0.871,28.888-0.871S208.406,71.671,199.198,82.046z"/>
					<path fill="#F19368" d="M178.39,89.455c0,0-0.137,0.008-0.391-0.098c0,0,0,0-0.003,0c-0.095-0.04-0.208-0.098-0.338-0.18
						L178.39,89.455z"/>
					<path fill="#FFFFFF" d="M190.255,75.796h-15.458c0,0-0.316,7.224,7.729,7.224C190.255,83.02,190.255,75.796,190.255,75.796z"/>
					<circle fill="#252732" cx="177.117" cy="63.092" r="1.397"/>
					<circle fill="#252732" cx="191.923" cy="62.756" r="1.397"/>
					<path fill="#252732" d="M187.078,57.148l0.075,2.135c0,0,2.793-0.958,5.567,0.213c2.775,1.171,2.966,1.73,2.966,1.73
						l0.699-1.239C196.386,59.987,193.71,55.645,187.078,57.148z"/>
					<path fill="#252732" d="M197.045,48.094c0,0,0.33,4.963,4.933,7.077c0,0,0.334,9.232-1.074,13.98h3.016l1.688-15.455
						C205.607,53.696,200.882,44.854,197.045,48.094z"/>
					<path fill="#252732" d="M200.408,48.97c0,0-12.919-2.46-16.254-0.784c-4.636,2.33-4.539-1.534-11.387,2.164
						c0,0-0.414,2.972-1.455,4.557l-0.174-3.236l4.577-6.075l7.353-2.729l7.563-1.321l7.565-0.264L200.408,48.97z"/>
					<path fill="#F19368" d="M200.904,79.7c0,0-0.218,10.629-9.835,15.376c-1.629,0.804-2.998,2.076-3.785,3.714
						c-0.84,1.747-1.358,4.278-0.606,7.788c-1.372-0.03-2.479-0.168-3.215-0.291c-0.556-0.093-0.928-0.611-0.853-1.17
						c1.052-7.862-3.443-15.51-3.443-15.51S192.682,92.674,200.904,79.7z"/>
					<path fill="#F19368" d="M208.909,69.544c0,0-5.003-0.215-3.302,6.779C205.607,76.323,205.255,71.261,208.909,69.544z"/>
					<path fill="#F19368" d="M205.753,74.22c0,0,0.751-2.255,2.556-1.287c0,0-0.367-1.232-2.261-0.924L205.753,74.22z"/>
					<path fill="#F19368" d="M184.235,70.16c0,0-0.063-2.019-3.368-2.019c-2.949,0-3.75,2.019-3.75,2.019H184.235L184.235,70.16z"/>
					<path fill="#252732" d="M172.354,60.486l0.589,1.468c0,0,1.212-1.83,3.731-2.278c1.925-0.343,2.917,0.1,2.917,0.1l0.04-2.004
						C179.631,57.772,175.094,56.08,172.354,60.486z"/>
					<path fill="#F19368" d="M178.39,83.71c0,0,0.463,0.591,3.886,0.757c3.423,0.166,5.535-0.714,5.535-0.714
						S182.459,88.913,178.39,83.71z"/>
				</g>
				<circle fill="#252732" cx="187.811" cy="36.51" r="6.726"/>
				<circle fill="#252732" cx="197.046" cy="39.025" r="6.726"/>
				<circle fill="#252732" cx="202.954" cy="45.126" r="6.726"/>
				<circle fill="#252732" cx="175.985" cy="39.025" r="9.894"/>
				<circle fill="#252732" cx="175.985" cy="48.919" r="6.726"/>
				<circle fill="#252732" cx="183.1" cy="46.829" r="4.748"/>
			</g>
			<path fill="#252732" d="M209.148,96.63c0,0-7.537,13.41-5.101,31.875c2.827,21.432,19.293,32.43,19.293,32.43
				s4.518-7.038-1.443-16.428c0,0-8.042-8.654-9.144-20.778c-1.103-12.125,6.84-24.426,6.84-24.426S216.918,93.139,209.148,96.63z"
				/>
			<path fill="#252732" d="M182.049,97.028c0,0-8.363-1.468-15.71,6.126c-6.347,6.56-15.635,29.366-2.735,51.688l-0.571-12.744
				c0,0-1.395-10.755,2.572-24.371c3.86-13.251,17.002-17.686,17.002-17.686C182.462,98.96,182.285,97.941,182.049,97.028z"/>
			<path fill="#F7B385" d="M252.923,168.675c-1.837,5.021-1.837,7.96-4.898,8.45c-3.063,0.49-4.776-1.959-8.205-2.572
				c-2.653-0.473-7.18-4.012-14.148-9.307c-0.431-0.329-2.402-1.497-3.757-2.293c-0.382-0.223-0.718-0.418-0.952-0.553
				c-0.233-0.135-0.371-0.216-0.371-0.216l2.328-9.185l0.447-1.959c0,0,1.234,0.062,3.096,0.375
				c-0.398-0.911-0.602-1.697-0.705-2.236c2.563-1.35,5.117-2.788,7.963-4.049c0.943-0.419,1.916-0.815,2.932-1.183
				c1.313-0.478,2.697-0.906,4.177-1.264c1.278-0.311,3.307-0.98,5.405-1.293l0.576,1.624l3.123,8.8
				c0.494,1.33,0.977,2.597,1.398,3.635C253.168,159.979,254.76,163.653,252.923,168.675z"/>
			<path fill="#F19368" d="M241.962,151.414c3.307,4.293,2.021,7.737,2.021,7.737c-2.021-4.994-6.859-4.744-9.799-5.663
				c-2.938-0.919-7.723-2.075-7.723-2.075c-0.398-0.911-0.602-1.697-0.705-2.236c2.563-1.35,5.117-2.788,7.963-4.049
				c0.01-0.005,0.018-0.007,0.027-0.012c0.411-0.184,0.83-0.362,1.256-0.534c0.052-0.022,0.104-0.044,0.154-0.063
				c0.488-0.198,0.988-0.39,1.494-0.573c1.313-0.478,2.697-0.906,4.177-1.264c1.278-0.311,3.307-0.98,5.405-1.293l0.576,1.624
				c0,0-10.248,0.24-7.459,4.872C240.138,148.989,241.024,150.194,241.962,151.414z"/>
			<path fill="#F19368" d="M236.651,143.946c-0.506,0.184-1.006,0.375-1.494,0.573C235.646,144.321,236.142,144.129,236.651,143.946
				z"/>
			<path fill="#F19368" d="M221.914,162.953c-0.382-0.223-0.718-0.418-0.952-0.553c0,0,1.058-1.065,1.589-3.111
				C222.551,159.289,222.886,161.199,221.914,162.953z"/>
			<g>
				<path fill="#F7B385" d="M223.366,151.039l-2.04,11.267c0,0-4.445,0.021-7.875-0.408c-3.429-0.429-8.046-2.531-8.229-3.878
					c-0.169-1.235,0.485-1.389,0.598-1.406c0.005,0,0.01-0.002,0.015-0.002c0,0-0.398-0.152-0.865-0.465h-0.002
					c-0.717-0.487-1.594-1.357-1.403-2.657c0.247-1.715,0.769-1.94,0.968-1.962c0.002,0,0.002,0,0.004,0
					c0.047-0.005,0.074,0.003,0.074,0.003s-0.313-0.177-0.573-0.59c-0.292-0.46-0.517-1.217-0.161-2.349
					c0.674-2.143,1.408-1.898,1.408-1.898s-0.029-0.237-0.037-0.598c-0.021-0.906,0.101-2.586,1.2-3.199
					c1.45-0.808,5.931-0.69,7.825-0.316c0.118,0.022,0.224,0.046,0.318,0.071c0,0,1.471-1.409,1.715-2.939
					c0.094-0.585-0.322-1.894-0.607-3.377c-0.455-2.398-0.568-5.251,2.383-6.236c0,0,1.471-0.612,1.348,2.266
					c-0.122,2.878,0.674,3.552,1.163,6.001c0.49,2.449,1.041,3.98,0.857,6.43C221.265,147.243,223.366,151.039,223.366,151.039z"/>
				<path fill="#F19368" d="M215.367,142.915l-1.096-0.335c0.118,0.022,0.224,0.046,0.318,0.071c0,0,1.471-1.409,1.715-2.939
					c0.094-0.585-0.322-1.894-0.607-3.377h0.003c0,0,1.013,1.847,1.462,3.847C217.459,141.5,215.367,142.915,215.367,142.915z"/>
				<path fill="#F19368" d="M209.891,147.343c-1.632-0.61-4.607-0.652-4.607-0.652s-0.029-0.237-0.037-0.598
					C208.394,145.961,209.809,147.265,209.891,147.343z"/>
				<path fill="#F19368" d="M204.609,151.529c-0.024,0-0.049,0-0.074-0.003C204.582,151.521,204.609,151.529,204.609,151.529z"/>
				<path fill="#F19368" d="M209.283,152.345c-1.08-0.59-4.674-0.815-4.674-0.815s-0.313-0.177-0.573-0.59
					C208.295,151,209.283,152.345,209.283,152.345z"/>
				<path fill="#F19368" d="M208.709,157.385c-1.061-0.59-2.875-0.774-2.875-0.774s-0.398-0.152-0.865-0.465
					C207.632,156.109,208.648,157.31,208.709,157.385z"/>
			</g>
			<g>
				<path fill="#F7B385" d="M153.516,157.549l4.028,10.719c0,0,4.377-0.777,7.673-1.814c3.297-1.037,7.462-3.933,7.401-5.291
					c-0.055-1.245-0.726-1.279-0.84-1.276c-0.004,0.001-0.01,0-0.015,0c0,0,0.366-0.221,0.767-0.613l0.002,0
					c0.619-0.608,1.325-1.621,0.904-2.866c-0.551-1.643-1.104-1.771-1.304-1.757c-0.002,0-0.002,0-0.005,0.001
					c-0.047,0.003-0.072,0.016-0.072,0.016s0.277-0.23,0.458-0.684c0.204-0.505,0.29-1.291-0.262-2.34
					c-1.047-1.988-1.726-1.615-1.726-1.615s-0.014-0.239-0.071-0.594c-0.141-0.896-0.563-2.527-1.754-2.932
					c-1.572-0.535-5.958,0.384-7.756,1.092c-0.111,0.043-0.211,0.086-0.3,0.127c0,0-1.698-1.122-2.214-2.584
					c-0.197-0.559-0.021-1.921-0.008-3.432c0.019-2.44-0.382-5.268-3.463-5.708c0,0-1.555-0.339-0.919,2.471
					c0.637,2.809-0.025,3.615-0.068,6.112c-0.042,2.498-0.311,4.102,0.31,6.479C154.903,153.438,153.516,157.549,153.516,157.549z"
					/>
				<path fill="#F19368" d="M159.929,148.122l1.017-0.526c-0.111,0.043-0.211,0.086-0.3,0.127c0,0-1.698-1.122-2.214-2.584
					c-0.197-0.559-0.021-1.921-0.008-3.432l-0.002,0c0,0-0.666,1.999-0.749,4.047C157.618,147.105,159.929,148.122,159.929,148.122z
					"/>
				<path fill="#F19368" d="M166.111,151.497c1.495-0.893,4.416-1.467,4.416-1.467s-0.014-0.239-0.071-0.594
					C167.335,149.869,166.177,151.405,166.111,151.497z"/>
				<path fill="#F19368" d="M172.057,154.668c0.024-0.004,0.048-0.009,0.072-0.016C172.082,154.656,172.057,154.668,172.057,154.668
					z"/>
				<path fill="#F19368" d="M167.606,156.308c0.957-0.774,4.451-1.64,4.451-1.64s0.277-0.23,0.458-0.684
					C168.335,154.809,167.606,156.308,167.606,156.308z"/>
				<path fill="#F19368" d="M169.074,161.165c0.938-0.771,2.69-1.277,2.69-1.277s0.366-0.221,0.767-0.613
					C169.905,159.716,169.12,161.079,169.074,161.165z"/>
			</g>
			<path fill="#F7B385" d="M157.545,168.268c0,0-0.193,0.328-0.615,0.837c-0.972,1.173-3.16,3.302-7.002,4.59
				c-7.275,2.442-10.41-6.613-9.43-10.743c0.979-4.129,5.633-4.198,6.001-4.443c0.367-0.245,7.644-3.363,7.644-3.363l3.4,13.116
				C157.545,168.266,157.545,168.268,157.545,168.268z"/>
			<path fill="#F19368" d="M157.545,168.268c0,0,0,0.087-0.421,0.597c-0.854-1.809-0.835-3.938-0.835-3.938
				c0.752,1.898,1.203,3.219,1.254,3.337C157.545,168.266,157.545,168.268,157.545,168.268z"/>
		</g>
	</g>
</g>
<g id="DESIGNED_BY_FREEPIK">
</g>
</svg>
