<?xml version="1.0" encoding="utf-8"?>
<!-- Generator: Adobe Illustrator 16.0.0, SVG Export Plug-In . SVG Version: 6.00 Build 0)  -->
<!DOCTYPE svg PUBLIC "-//W3C//DTD SVG 1.1//EN" "http://www.w3.org/Graphics/SVG/1.1/DTD/svg11.dtd">
<svg version="1.1" id="Capa_1" xmlns="http://www.w3.org/2000/svg" xmlns:xlink="http://www.w3.org/1999/xlink" x="0px" y="0px"
	 width="400px" height="400px" viewBox="0 0 400 400" enable-background="new 0 0 400 400" xml:space="preserve">
<g>
	<circle fill="#3976BB" cx="329.995" cy="249.952" r="10.289"/>
	<circle fill="#3976BB" cx="327.937" cy="227.954" r="4.63"/>
	<g>
		<path fill="#241F3F" d="M273.072,338.97c0,0,14.019,7.073,13.89,10.932c-0.106,3.188-24.719,3.127-33.261,3.01
			c-1.6-0.021-2.879-1.324-2.879-2.925v-12.174L273.072,338.97z"/>
		<path fill="#241F3F" d="M182.273,338.97c0,0-14.02,7.073-13.891,10.932c0.106,3.188,24.719,3.127,33.261,3.01
			c1.601-0.021,2.879-1.324,2.879-2.925v-12.174L182.273,338.97z"/>
		<path fill="#241F3F" d="M227.672,242.591H171.47l9.774,90.592h21.863l7.949-54.905c1.195-8.256,8.273-14.383,16.615-14.383
			c8.344,0,15.421,6.127,16.616,14.383l7.949,54.905h21.864l9.773-90.592H227.672z"/>
		<path fill="#2F2763" d="M279.846,328.724c0-5.659-4.779-4.493-4.779-4.493l-0.385,3.575h-11.984h-11.248l-0.512-3.598
			c0,0-5.26-0.752-5.389,4.516c-0.137,5.606-2.008,13.232,17.148,13.369C281.854,341.956,279.846,334.332,279.846,328.724z"/>
		<path fill="#2F2763" d="M175.5,328.724c0-5.659,4.778-4.493,4.778-4.493l0.386,3.575h11.983h11.248l0.512-3.598
			c0,0,5.26-0.752,5.388,4.516c0.138,5.606,2.009,13.232-17.147,13.369C173.491,341.956,175.5,334.332,175.5,328.724z"/>
	</g>
	<path fill="#44358C" d="M336.853,158.013l-34.714,21.607c-5.66-10.289-20.836-13.911-20.836-13.911l6.688,78.916
		c-27.295,12.202-53.82,4.29-59.294,2.418c-0.669-0.237-1.028-0.381-1.028-0.381s-0.361,0.144-1.029,0.381
		c-5.474,1.872-31.988,9.784-59.285-2.418l6.688-78.916l-48.872,1.308v-42.442l78.535-13.118l22.625,12.347l1.307,7.81l0.031,0.164
		l0.03-0.164l1.317-7.81l22.625-12.347l28.634,5.145C296.479,119.944,336.853,158.013,336.853,158.013z"/>
	<path fill="#F4A9AC" d="M125.17,124.574v41.135l-29.107,2.983l-7.963,0.813l-1.801,0.185l-15.311,1.564l-15.268-15.434
		c1.913-2.818,6.502-5.957,12.459-9.126C88.613,135.82,125.17,124.574,125.17,124.574z"/>
	<path fill="#F18E93" d="M96.063,168.692l-7.963,0.813l-0.031-0.124l-1.78,0.248l0.011,0.061l-15.311,1.564l-15.268-15.434
		c1.913-2.818,6.502-5.957,12.459-9.126c0.967-0.124,1.935-0.175,2.891-0.175c11.061,0,21.031,7.418,23.974,18.438L96.063,168.692z"
		/>
	<path fill="#2F2763" d="M227.672,139.752l14.447,9.089c0,0,16.977-7.889,22.293-25.895l-7.313-10.135L227.672,139.752z"/>
	<path fill="#2F2763" d="M227.672,139.752l-14.447,9.089c0,0-16.977-7.889-22.292-25.895l7.313-10.135L227.672,139.752z"/>
	<path fill="#2F2763" d="M299.566,187.252c0,0-2.23-12.347,6.173-20.749c6.985-6.986,24.519-16.223,38.216-14.41
		c4.728,0.625,8.627,4.096,9.838,8.707c2.266,8.635,3.685,24.177-12.043,31.822L299.566,187.252z"/>
	<path fill="#F18D94" d="M293.732,221.372c0,0,0.668,6.554-9.436,9.146c-2.396,0.617-4.795-1.019-5.031-3.487l-1.162-12.45
		l-0.607-6.431c-0.186-1.944,0.854-3.816,2.635-4.63c1.604-0.74,3.816-0.987,6.398,0.71c0,0,20.979-41.752,44.747-45.62
		c6.616-1.08,12.933,2.006,16.308,7.182c1.656,2.51,2.613,5.504,2.593,8.745C350.074,187.82,338.047,206.689,293.732,221.372z"/>
	<path fill="#F4A9AC" d="M293.732,221.372c0,0,0.668,6.554-9.436,9.146c-2.396,0.617-4.795-1.019-5.031-3.487l-1.162-12.45
		c0.494-0.915,1.266-1.677,2.253-2.13c1.749-0.802,4.146-1.08,6.956,0.772c0,0,22.789-45.344,48.594-49.563
		c4.197-0.678,8.271,0.176,11.678,2.131c1.656,2.51,2.613,5.504,2.593,8.745C350.074,187.82,338.047,206.689,293.732,221.372z"/>
	<polygon fill="#2F2763" points="211.596,182.814 201.307,186.566 190.933,182.814 190.933,165.709 211.596,165.709 	"/>
	<path fill="#F4A9AC" d="M88.355,170.142l-1.45-5.32h-0.003l-0.002-0.004c-2.6-9.769-12.219-15.947-22.19-14.261
		c-4.481,0.763-8.403,3.009-11.283,6.2c-2.654,2.945-4.417,6.685-4.9,10.801c-0.054,0.354-0.086,0.709-0.107,1.063l-0.258,4.095
		v0.074h0.011l0.376,2.537c0.129,0.859,0.581,1.601,1.235,2.138c0.656,0.537,1.516,0.859,2.43,0.859
		c2.234,0,3.911-1.858,3.546-3.933l-0.462-2.568l0.924-0.118l0.002-0.001l0.39,2.668c0.25,1.713,1.824,2.999,3.668,2.999
		c2.233-0.002,3.913-1.864,3.543-3.931l-0.481-2.693l1.25-0.17l0.008-0.002l0.428,2.92c0.25,1.713,1.824,2.999,3.668,2.998
		c2.233-0.001,3.912-1.863,3.543-3.93l-0.529-2.953l0.008-0.001l1.16-0.15l0.007-0.001l0.425,2.908c0.251,1.713,1.825,3,3.669,2.999
		c2.233-0.001,3.913-1.864,3.543-3.93l-0.525-2.934l1.408-0.19l0.817,3.402c0.375,1.557,1.852,2.588,3.441,2.406
		C87.588,173.897,88.865,172.013,88.355,170.142z"/>
	<path fill="#2F2763" d="M121.679,122.757l5.964-1.296c2.638-0.573,5.097,1.515,4.955,4.21c-0.479,9.155-1.104,28.143,0.955,41.832
		c0.375,2.491-1.521,4.738-4.04,4.738h-4.753c-2.121,0-4.003-1.383-4.607-3.416c-1.906-6.407-5.205-21.459-2.223-42.05
		C118.219,124.788,119.717,123.183,121.679,122.757z"/>
	<path fill="#2F2763" d="M228.696,132.61v114.433c-0.669-0.237-1.028-0.381-1.028-0.381s-0.361,0.144-1.029,0.381V132.61
		c0-0.658,0.494-0.988,0.998-0.998h0.062C228.203,131.622,228.696,131.952,228.696,132.61z"/>
	<g>
		<g>
			<path fill="#F4A9AC" d="M254.943,91.514c-1.579,1.579-5.504,2.943-7.082,1.364c-1.579-1.578-0.215-5.503,1.363-7.082
				c1.58-1.579,4.14-1.579,5.719,0C256.521,87.375,256.521,89.935,254.943,91.514z"/>
			<path fill="#F4A9AC" d="M200.402,91.514c1.578,1.579,5.503,2.943,7.082,1.364c1.578-1.578,0.215-5.503-1.364-7.082
				s-4.14-1.579-5.718,0C198.823,87.375,198.823,89.935,200.402,91.514z"/>
		</g>
		<polygon fill="#F4A9AC" points="254.037,109.974 201.307,109.974 211.339,73.903 244.006,73.903 		"/>
		<path fill="#241F3F" d="M257.1,112.812l-8.983-33.717c-0.452-1.696-1.987-2.877-3.743-2.877h-5.125c0,0-0.387,5.916,6.301,7.717
			l4.116,20.191c0,0-10.289-4.379-21.993-4.379c-11.703,0-21.992,4.379-21.992,4.379l4.115-20.191
			c6.688-1.801,6.303-7.717,6.303-7.717h-5.126c-1.755,0-3.291,1.181-3.743,2.877l-8.983,33.717c-0.445,1.67-0.265,3.459,0.54,4.99
			c9.742,18.523,28.887,21.95,28.887,21.95s19.146-3.427,28.888-21.95C257.365,116.271,257.545,114.481,257.1,112.812z"/>
		<path fill="#F18D94" d="M229.95,105.026h-4.556c-2.008,0-3.41-1.992-2.73-3.883l1.139-3.17c0.587-1.633,2.135-2.721,3.869-2.721
			l0,0c1.735,0,3.283,1.088,3.87,2.721l1.14,3.17C233.359,103.034,231.959,105.026,229.95,105.026z"/>
		<path fill="#241F3F" d="M212.213,78.6c1.838-1.146,4.123-1.333,6.115-0.483c5.939,2.531,12.304,4.339,18.523,2.969
			c6.648-1.466,12.308-6.765,14.205-13.303c-2.807,1.756-6.492,0.723-9.557-0.535c-3.063-1.26-5.928-3.105-9.18-3.736
			c-5.512-1.071-11.561,1.942-14.026,6.988c-1.216-0.99-3.015-1.02-4.515-0.564c-1.5,0.453-2.775,1.477-3.789,2.672
			c-2.183,2.572-3.272,6.041-2.953,9.398C208.531,80.786,210.428,79.713,212.213,78.6z"/>
	</g>
	<path fill="#2F2763" d="M281.721,163.165c-3.732-1.918-6.268-5.243-7.133-9.35c-0.273-1.298-2.257-0.747-1.984,0.547
		c0.966,4.585,3.912,8.439,8.079,10.58C281.86,165.547,282.902,163.771,281.721,163.165z"/>
	<path fill="#2F2763" d="M183.468,152.268c-1.972,4.449-5.051,8.132-9.134,10.792c-1.107,0.721-0.076,2.504,1.039,1.777
		c4.364-2.844,7.758-6.764,9.871-11.531C185.777,152.104,184.004,151.057,183.468,152.268z"/>
	<path fill="#2F2763" d="M278.424,199.505c-2.514-0.157-3.924,1.461-4.672,3.694c-0.605,1.807-0.182,4.14-0.119,5.985
		c0.088,2.561,0.174,5.122,0.261,7.683c0.045,1.323,2.103,1.328,2.058,0c-0.088-2.584-2.051-15.587,2.473-15.305
		C279.75,201.646,279.742,199.587,278.424,199.505z"/>
	<path fill="#2F2763" d="M179.164,123.755l-39.495,6.17c-1.308,0.204-0.751,2.187,0.548,1.984l39.494-6.171
		C181.02,125.534,180.461,123.552,179.164,123.755z"/>
	<g>
		<circle fill="#241F3F" cx="237.962" cy="91.431" r="2.122"/>
		<circle fill="#241F3F" cx="217.384" cy="91.431" r="2.122"/>
	</g>
	<path fill="#241F3F" d="M241.022,88.012c-2.024-2.024-5.307-2.024-7.331,0c-0.516-0.515-1.031-1.03-1.546-1.546
		c2.878-2.878,7.545-2.878,10.423,0C242.053,86.981,241.537,87.497,241.022,88.012z"/>
	<path fill="#241F3F" d="M221.049,88.012c-2.023-2.024-5.307-2.024-7.33,0c-0.516-0.515-1.031-1.03-1.547-1.546
		c2.879-2.878,7.545-2.878,10.424,0C222.08,86.981,221.564,87.497,221.049,88.012z"/>
	<path fill="#FFFFFF" d="M221.456,114.966c2.415,3.309,6.948,4.438,10.675,2.465c3.727-1.972,5.344-6.355,3.965-10.213
		L221.456,114.966z"/>
</g>
</svg>
