<?xml version="1.0" encoding="utf-8"?>
<!-- Generator: Adobe Illustrator 16.0.0, SVG Export Plug-In . SVG Version: 6.00 Build 0)  -->
<!DOCTYPE svg PUBLIC "-//W3C//DTD SVG 1.1//EN" "http://www.w3.org/Graphics/SVG/1.1/DTD/svg11.dtd">
<svg version="1.1" id="Capa_1" xmlns="http://www.w3.org/2000/svg" xmlns:xlink="http://www.w3.org/1999/xlink" x="0px" y="0px"
	 width="400px" height="400px" viewBox="0 0 400 400" enable-background="new 0 0 400 400" xml:space="preserve">
<g>
	
		<linearGradient id="SVGID_1_" gradientUnits="userSpaceOnUse" x1="2404.3418" y1="-139.3945" x2="2415.7305" y2="-139.3945" gradientTransform="matrix(0.1011 -0.1602 0.1318 0.0832 64.4929 499.2281)">
		<stop  offset="0" style="stop-color:#000000"/>
		<stop  offset="0.0374" style="stop-color:#050505"/>
		<stop  offset="0.0847" style="stop-color:#151515"/>
		<stop  offset="0.1373" style="stop-color:#2F2F2F"/>
		<stop  offset="0.1933" style="stop-color:#535353"/>
		<stop  offset="0.2389" style="stop-color:#757575"/>
		<stop  offset="0.4755" style="stop-color:#E6E6E6"/>
		<stop  offset="0.7062" style="stop-color:#999999"/>
		<stop  offset="0.8334" style="stop-color:#B3B3B3"/>
		<stop  offset="0.9487" style="stop-color:#CCCCCC"/>
		<stop  offset="1" style="stop-color:#E6E6E6"/>
	</linearGradient>
	<polygon fill="url(#SVGID_1_)" points="289.819,100.358 289.059,101.563 289.496,102.704 290.646,100.88 	"/>
	<path fill="#666666" d="M217.469,231.082l-2.887,14.128l11.508-8.691c-1.043-1.293-2.338-2.463-3.864-3.426
		S219.085,231.465,217.469,231.082z"/>
	<path fill="#F1AE66" d="M222.166,208.103l-4.697,22.979c1.616,0.383,3.23,1.048,4.757,2.011s2.821,2.133,3.864,3.426l18.716-14.135
		l68.092-107.949l-22.64-14.281L222.166,208.103z"/>
	<path fill="#C1272D" d="M324.742,95.657l-3.201,5.076l-22.64-14.281l3.201-5.075c6.008-9.525,8.186-12.573,19.323-5.548
		C332.563,82.854,330.751,86.133,324.742,95.657z"/>
	<path fill="#F70F0F" d="M324.742,95.657l-3.201,5.076l-22.64-14.281l3.201-5.075c6.008-9.525,8.186-12.573,19.323-5.548
		C332.563,82.854,330.751,86.133,324.742,95.657z"/>
	<path fill="#E55194" stroke="#726D6F" stroke-miterlimit="10" d="M295.803,103.651L229.394,208.93
		c-2.635,1.129-5,0.576-7.228-0.827l68.092-107.949L295.803,103.651z"/>
	<path fill="#E55194" stroke="#726D6F" stroke-miterlimit="10" d="M307.354,110.938l-66.408,105.279
		c0.117,2.864,1.634,4.76,3.861,6.167l68.092-107.949L307.354,110.938z"/>
	<path fill="#E55194" stroke="#726D6F" stroke-miterlimit="10" d="M307.354,110.938l-66.408,105.279
		c-5.352-0.414-9.274-2.746-11.552-7.287l66.409-105.278L307.354,110.938z"/>
	
		<linearGradient id="SVGID_2_" gradientUnits="userSpaceOnUse" x1="1753.7559" y1="-98.8169" x2="1753.7559" y2="-140.8716" gradientTransform="matrix(0.1011 -0.1602 0.1318 0.0832 64.4929 499.2281)">
		<stop  offset="0" style="stop-color:#CCCCCC"/>
		<stop  offset="0.3443" style="stop-color:#6E6E6E"/>
		<stop  offset="0.709" style="stop-color:#6E6E6E"/>
		<stop  offset="1" style="stop-color:#E8E8E8"/>
	</linearGradient>
	<path fill="url(#SVGID_2_)" d="M229.668,208.494l-0.277,0.438c-2.635,1.126-5,0.573-7.226-0.832l0.274-0.435
		C224.666,209.069,227.031,209.622,229.668,208.494z"/>
	
		<linearGradient id="SVGID_3_" gradientUnits="userSpaceOnUse" x1="1753.7529" y1="30.8706" x2="1753.7529" y2="-24.7206" gradientTransform="matrix(0.1011 -0.1602 0.1318 0.0832 64.4929 499.2281)">
		<stop  offset="0" style="stop-color:#000000"/>
		<stop  offset="0.1567" style="stop-color:#050505"/>
		<stop  offset="0.3546" style="stop-color:#151515"/>
		<stop  offset="0.5746" style="stop-color:#2F2F2F"/>
		<stop  offset="0.809" style="stop-color:#535353"/>
		<stop  offset="1" style="stop-color:#757575"/>
	</linearGradient>
	<path fill="url(#SVGID_3_)" d="M241.221,215.781c0.114,2.865,1.631,4.76,3.86,6.166l-0.274,0.437
		c-2.229-1.408-3.746-3.302-3.862-6.164L241.221,215.781z"/>
	
		<linearGradient id="SVGID_4_" gradientUnits="userSpaceOnUse" x1="1756.998" y1="-11.1841" x2="1756.998" y2="-98.8169" gradientTransform="matrix(0.1011 -0.1602 0.1318 0.0832 64.4929 499.2281)">
		<stop  offset="0" style="stop-color:#B8B8B8"/>
		<stop  offset="0.3876" style="stop-color:#6E6E6E"/>
		<stop  offset="0.6474" style="stop-color:#6E6E6E"/>
		<stop  offset="1" style="stop-color:#E8E8E8"/>
	</linearGradient>
	<path fill="url(#SVGID_4_)" d="M241.221,215.781l-0.276,0.438c-5.354-0.414-9.272-2.749-11.554-7.287l0.277-0.438
		C231.947,213.034,235.867,215.367,241.221,215.781z"/>
	<path opacity="0.8" fill="#333333" d="M217.469,231.082l-2.887,14.128l11.508-8.691c-1.043-1.293-2.338-2.463-3.864-3.426
		S219.085,231.465,217.469,231.082z"/>
	<g>
		
			<linearGradient id="SVGID_5_" gradientUnits="userSpaceOnUse" x1="2452.3975" y1="30.8784" x2="2452.3975" y2="-140.8638" gradientTransform="matrix(0.1011 -0.1602 0.1318 0.0832 64.4929 499.2281)">
			<stop  offset="0" style="stop-color:#B8B8B8"/>
			<stop  offset="0.4263" style="stop-color:#8F8F8F"/>
			<stop  offset="0.6474" style="stop-color:#8F8F8F"/>
			<stop  offset="1" style="stop-color:#E8E8E8"/>
		</linearGradient>
		<path opacity="0" fill="url(#SVGID_5_)" d="M303.775,90.971c-2.36-1.171-3.573-1.7-6.058-2.644
			c-0.361,0.573-0.723,1.146-1.084,1.719c-0.507,0.804-1.014,1.607-1.521,2.411c-1.872,2.969-3.745,5.937-5.618,8.905
			c-0.253,0.402-0.146,0.232-0.319,0.507c-0.228,0.362,3.518,1.86,5.862,3.057c4.029,2.18,7.821,4.571,11.523,7.269
			c2.085,1.598,5.026,4.316,5.255,3.955c0.173-0.274,0.065-0.104,0.318-0.507c1.873-2.968,3.746-5.937,5.619-8.905
			c0.506-0.804,1.014-1.607,1.52-2.412c0.362-0.572,0.723-1.145,1.085-1.718c-1.932-1.841-2.935-2.71-5.012-4.338
			C311.639,95.522,307.852,93.133,303.775,90.971z"/>
		
			<linearGradient id="SVGID_6_" gradientUnits="userSpaceOnUse" x1="2453.6211" y1="30.876" x2="2453.6211" y2="-140.8657" gradientTransform="matrix(0.1011 -0.1602 0.1318 0.0832 64.4929 499.2281)">
			<stop  offset="0" style="stop-color:#B8B8B8"/>
			<stop  offset="0.4263" style="stop-color:#8F8F8F"/>
			<stop  offset="0.6474" style="stop-color:#8F8F8F"/>
			<stop  offset="1" style="stop-color:#E8E8E8"/>
		</linearGradient>
		<path opacity="0.0909" fill="url(#SVGID_6_)" d="M295.301,92.159c-1.585,2.514-3.171,5.029-4.758,7.543
			c-0.215,0.339-0.431,0.68-0.645,1.021c-0.059,0.094-0.117,0.187-0.176,0.28c-0.048,0.077-0.097,0.152-0.145,0.227
			c-0.243,0.383-0.155,0.248-0.324,0.515c-0.094,0.149,0.267,0.429,0.855,0.791c1.318,0.659,3.361,1.478,4.897,2.269
			c0.28,0.145,0.558,0.298,0.837,0.451c3.755,2.06,7.329,4.286,10.771,6.857c1.185,0.885,2.433,2.046,3.562,2.979
			c0.271,0.152,0.52,0.296,0.741,0.42c0.211,0.118,0.399,0.211,0.56,0.28c0.088,0.038,0.164,0.069,0.232,0.092
			c0.145,0.048,0.238,0.058,0.278-0.005c0.174-0.272,0.09-0.144,0.335-0.533c1.873-2.968,3.746-5.937,5.619-8.905
			c0.506-0.803,1.014-1.607,1.52-2.411c0.362-0.572,0.723-1.146,1.085-1.718c-1.932-1.841-2.913-2.739-5.012-4.338
			c-3.671-2.797-7.466-5.192-11.571-7.299c-2.344-1.203-3.573-1.7-6.058-2.644c-0.361,0.572-0.723,1.146-1.084,1.719
			C296.314,90.552,295.808,91.355,295.301,92.159z"/>
		
			<linearGradient id="SVGID_7_" gradientUnits="userSpaceOnUse" x1="2454.623" y1="30.8784" x2="2454.623" y2="-140.8618" gradientTransform="matrix(0.1011 -0.1602 0.1318 0.0832 64.4929 499.2281)">
			<stop  offset="0" style="stop-color:#B8B8B8"/>
			<stop  offset="0.4263" style="stop-color:#8F8F8F"/>
			<stop  offset="0.6474" style="stop-color:#8F8F8F"/>
			<stop  offset="1" style="stop-color:#E8E8E8"/>
		</linearGradient>
		<path opacity="0.1818" fill="url(#SVGID_7_)" d="M295.488,91.861c-1.613,2.56-3.229,5.12-4.843,7.679
			c-0.219,0.346-0.438,0.693-0.656,1.039c-0.061,0.096-0.12,0.191-0.18,0.286c-0.05,0.079-0.099,0.156-0.147,0.232
			c-0.232,0.366-0.166,0.262-0.329,0.522c-0.106,0.17,0.193,0.458,0.693,0.833c1.402,0.681,3.383,1.435,4.95,2.229
			c0.281,0.143,0.562,0.294,0.845,0.449c3.782,2.071,7.382,4.311,10.845,6.898c1.277,0.954,2.471,2.131,3.685,3.152
			c0.273,0.089,0.521,0.177,0.743,0.257c0.208,0.075,0.395,0.129,0.559,0.165c0.086,0.02,0.161,0.038,0.229,0.05
			c0.14,0.023,0.232,0.024,0.276-0.046c0.172-0.273,0.115-0.182,0.353-0.56c1.872-2.968,3.746-5.937,5.618-8.904
			c0.507-0.804,1.014-1.607,1.521-2.412c0.362-0.572,0.723-1.145,1.085-1.719c-1.932-1.841-2.913-2.739-5.012-4.338
			c-3.67-2.797-7.466-5.192-11.571-7.299c-2.344-1.203-3.573-1.7-6.058-2.644c-0.361,0.573-0.724,1.146-1.084,1.719
			C296.503,90.254,295.996,91.058,295.488,91.861z"/>
		
			<linearGradient id="SVGID_8_" gradientUnits="userSpaceOnUse" x1="2455.6211" y1="30.8774" x2="2455.6211" y2="-140.8638" gradientTransform="matrix(0.1011 -0.1602 0.1318 0.0832 64.4929 499.2281)">
			<stop  offset="0" style="stop-color:#B8B8B8"/>
			<stop  offset="0.4263" style="stop-color:#8F8F8F"/>
			<stop  offset="0.6474" style="stop-color:#8F8F8F"/>
			<stop  offset="1" style="stop-color:#E8E8E8"/>
		</linearGradient>
		<path opacity="0.2727" fill="url(#SVGID_8_)" d="M295.676,91.563c-1.643,2.604-3.285,5.21-4.93,7.815
			c-0.222,0.352-0.445,0.703-0.667,1.057c-0.062,0.099-0.123,0.195-0.183,0.291c-0.051,0.082-0.102,0.161-0.151,0.239
			c-0.221,0.348-0.176,0.277-0.334,0.529c-0.121,0.192,0.122,0.488,0.532,0.874c1.486,0.703,3.403,1.394,5.003,2.191
			c0.281,0.141,0.565,0.291,0.852,0.447c3.814,2.076,7.435,4.333,10.921,6.939c1.368,1.022,2.506,2.217,3.807,3.324
			c0.276,0.025,0.521,0.059,0.744,0.095c0.204,0.032,0.393,0.001,0.559,0.049c0.079,0.022,0.158-0.009,0.227,0.008
			c0.129,0.03,0.226-0.009,0.275-0.086c0.173-0.271,0.139-0.221,0.368-0.586c1.873-2.968,3.746-5.937,5.618-8.905
			c0.507-0.803,1.014-1.607,1.52-2.411c0.363-0.573,0.724-1.146,1.086-1.718c-1.932-1.842-2.913-2.739-5.012-4.339
			c-3.671-2.797-7.467-5.192-11.571-7.299c-2.344-1.203-3.573-1.7-6.058-2.644c-0.361,0.573-0.723,1.146-1.084,1.719
			C296.69,89.956,296.184,90.759,295.676,91.563z"/>
		
			<linearGradient id="SVGID_9_" gradientUnits="userSpaceOnUse" x1="2456.6211" y1="30.8784" x2="2456.6211" y2="-140.8584" gradientTransform="matrix(0.1011 -0.1602 0.1318 0.0832 64.4929 499.2281)">
			<stop  offset="0" style="stop-color:#B8B8B8"/>
			<stop  offset="0.4263" style="stop-color:#8F8F8F"/>
			<stop  offset="0.6474" style="stop-color:#8F8F8F"/>
			<stop  offset="1" style="stop-color:#E8E8E8"/>
		</linearGradient>
		<path opacity="0.3636" fill="url(#SVGID_9_)" d="M295.864,91.266c-1.671,2.651-3.343,5.301-5.016,7.952
			c-0.227,0.357-0.453,0.717-0.679,1.075c-0.063,0.101-0.126,0.199-0.187,0.295c-0.053,0.083-0.104,0.165-0.154,0.245
			c-0.21,0.331-0.185,0.293-0.339,0.538c-0.134,0.213,0.049,0.518,0.371,0.915c1.569,0.726,3.424,1.351,5.055,2.152
			c0.282,0.139,0.569,0.288,0.859,0.445c3.845,2.083,7.487,4.357,10.996,6.98c1.461,1.092,2.543,2.302,3.928,3.497
			c0.28-0.038,0.521-0.086,0.747-0.068c0.197,0.015,0.376-0.036,0.558-0.066c0.078-0.013,0.152-0.022,0.225-0.034
			c0.124-0.021,0.219-0.042,0.272-0.126c0.172-0.271,0.163-0.26,0.386-0.613c1.873-2.967,3.746-5.937,5.618-8.904
			c0.506-0.804,1.014-1.607,1.52-2.411c0.362-0.573,0.724-1.146,1.085-1.719c-1.932-1.842-2.913-2.739-5.012-4.338
			c-3.67-2.797-7.466-5.193-11.57-7.299c-2.345-1.203-3.574-1.7-6.059-2.644c-0.361,0.573-0.723,1.146-1.083,1.719
			C296.878,89.658,296.372,90.462,295.864,91.266z"/>
		
			<linearGradient id="SVGID_10_" gradientUnits="userSpaceOnUse" x1="2457.6191" y1="30.8784" x2="2457.6191" y2="-140.8638" gradientTransform="matrix(0.1011 -0.1602 0.1318 0.0832 64.4929 499.2281)">
			<stop  offset="0" style="stop-color:#B8B8B8"/>
			<stop  offset="0.4263" style="stop-color:#8F8F8F"/>
			<stop  offset="0.6474" style="stop-color:#8F8F8F"/>
			<stop  offset="1" style="stop-color:#E8E8E8"/>
		</linearGradient>
		<path opacity="0.4545" fill="url(#SVGID_10_)" d="M296.053,90.968c-1.7,2.696-3.4,5.393-5.102,8.088
			c-0.23,0.364-0.462,0.729-0.691,1.094c-0.064,0.104-0.127,0.203-0.188,0.3c-0.054,0.086-0.107,0.168-0.159,0.25
			c-0.199,0.313-0.194,0.308-0.344,0.546c-0.147,0.234-0.022,0.547,0.21,0.956c1.653,0.748,3.443,1.312,5.106,2.113
			c0.285,0.138,0.573,0.285,0.867,0.443c3.877,2.087,7.54,4.381,11.072,7.022c1.552,1.16,2.58,2.387,4.05,3.668
			c0.284-0.102,0.52-0.172,0.749-0.23c0.192-0.049,0.366-0.113,0.557-0.182c0.074-0.026,0.147-0.051,0.223-0.076
			c0.116-0.039,0.212-0.075,0.271-0.167c0.171-0.27,0.188-0.299,0.401-0.639c1.873-2.968,3.746-5.937,5.619-8.905
			c0.506-0.803,1.014-1.607,1.52-2.411c0.362-0.572,0.723-1.146,1.085-1.718c-1.932-1.841-2.913-2.739-5.012-4.338
			c-3.671-2.797-7.466-5.193-11.571-7.299c-2.344-1.203-3.573-1.7-6.059-2.643c-0.36,0.572-0.723,1.146-1.083,1.719
			C297.066,89.361,296.56,90.164,296.053,90.968z"/>
		
			<linearGradient id="SVGID_11_" gradientUnits="userSpaceOnUse" x1="2458.6172" y1="30.8784" x2="2458.6172" y2="-140.8594" gradientTransform="matrix(0.1011 -0.1602 0.1318 0.0832 64.4929 499.2281)">
			<stop  offset="0" style="stop-color:#B8B8B8"/>
			<stop  offset="0.4263" style="stop-color:#8F8F8F"/>
			<stop  offset="0.6474" style="stop-color:#8F8F8F"/>
			<stop  offset="1" style="stop-color:#E8E8E8"/>
		</linearGradient>
		<path opacity="0.5455" fill="url(#SVGID_11_)" d="M296.24,90.67c-1.729,2.741-3.458,5.483-5.188,8.225
			c-0.234,0.37-0.471,0.741-0.703,1.112c-0.065,0.105-0.13,0.207-0.191,0.305c-0.056,0.088-0.109,0.173-0.162,0.256
			c-0.188,0.296-0.204,0.323-0.349,0.553c-0.161,0.256-0.096,0.576,0.048,0.998c1.736,0.77,3.464,1.271,5.159,2.074
			c0.285,0.135,0.576,0.281,0.874,0.44c3.907,2.095,7.593,4.406,11.147,7.063c1.644,1.229,2.616,2.472,4.173,3.841
			c0.287-0.165,0.518-0.285,0.75-0.394c0.187-0.087,0.357-0.188,0.556-0.298c0.072-0.04,0.144-0.078,0.221-0.118
			c0.108-0.056,0.205-0.108,0.269-0.207c0.171-0.269,0.212-0.338,0.418-0.666c1.873-2.967,3.746-5.937,5.619-8.905
			c0.506-0.804,1.014-1.607,1.52-2.411c0.361-0.573,0.723-1.146,1.085-1.718c-1.932-1.842-2.913-2.739-5.012-4.338
			c-3.671-2.797-7.466-5.193-11.571-7.299c-2.344-1.203-3.573-1.7-6.058-2.644c-0.361,0.573-0.724,1.146-1.084,1.719
			C297.254,89.063,296.748,89.866,296.24,90.67z"/>
		
			<linearGradient id="SVGID_12_" gradientUnits="userSpaceOnUse" x1="2459.6133" y1="30.8784" x2="2459.6133" y2="-140.8638" gradientTransform="matrix(0.1011 -0.1602 0.1318 0.0832 64.4929 499.2281)">
			<stop  offset="0" style="stop-color:#B8B8B8"/>
			<stop  offset="0.4263" style="stop-color:#8F8F8F"/>
			<stop  offset="0.6474" style="stop-color:#8F8F8F"/>
			<stop  offset="1" style="stop-color:#E8E8E8"/>
		</linearGradient>
		<path opacity="0.6364" fill="url(#SVGID_12_)" d="M296.428,90.372c-1.757,2.787-3.516,5.574-5.273,8.361
			c-0.238,0.376-0.476,0.754-0.714,1.131c-0.067,0.107-0.133,0.21-0.195,0.31c-0.058,0.091-0.112,0.178-0.166,0.262
			c-0.176,0.278-0.214,0.338-0.354,0.56c-0.175,0.277-0.167,0.606-0.113,1.04c1.82,0.792,3.484,1.23,5.212,2.035
			c0.286,0.133,0.58,0.278,0.882,0.439c3.935,2.104,7.644,4.43,11.222,7.104c1.736,1.298,2.654,2.557,4.295,4.013
			c0.291-0.229,0.52-0.397,0.753-0.556c0.182-0.124,0.35-0.261,0.555-0.414c0.069-0.052,0.141-0.105,0.218-0.16
			c0.103-0.072,0.199-0.141,0.267-0.247c0.17-0.269,0.237-0.376,0.436-0.692c1.873-2.968,3.745-5.937,5.618-8.905
			c0.506-0.804,1.014-1.607,1.52-2.411c0.362-0.573,0.723-1.146,1.085-1.718c-1.931-1.842-2.913-2.739-5.012-4.339
			c-3.671-2.797-7.466-5.193-11.571-7.3c-2.343-1.202-3.572-1.699-6.058-2.643c-0.36,0.573-0.723,1.146-1.083,1.719
			C297.441,88.766,296.936,89.568,296.428,90.372z"/>
		
			<linearGradient id="SVGID_13_" gradientUnits="userSpaceOnUse" x1="2460.6133" y1="30.8784" x2="2460.6133" y2="-140.8594" gradientTransform="matrix(0.1011 -0.1602 0.1318 0.0832 64.4929 499.2281)">
			<stop  offset="0" style="stop-color:#B8B8B8"/>
			<stop  offset="0.4263" style="stop-color:#8F8F8F"/>
			<stop  offset="0.6474" style="stop-color:#8F8F8F"/>
			<stop  offset="1" style="stop-color:#E8E8E8"/>
		</linearGradient>
		<path opacity="0.7273" fill="url(#SVGID_13_)" d="M296.615,90.074c-1.785,2.833-3.572,5.665-5.359,8.497
			c-0.241,0.383-0.485,0.766-0.726,1.149c-0.069,0.11-0.135,0.215-0.198,0.315c-0.059,0.093-0.115,0.182-0.17,0.268
			c-0.165,0.26-0.223,0.354-0.357,0.568c-0.188,0.298-0.24,0.635-0.275,1.081c1.904,0.814,3.504,1.191,5.264,1.997
			c0.288,0.132,0.585,0.274,0.89,0.437c3.967,2.109,7.697,4.455,11.298,7.146c1.828,1.366,2.69,2.642,4.416,4.185
			c0.295-0.291,0.523-0.507,0.756-0.717c0.179-0.161,0.347-0.334,0.554-0.53c0.067-0.064,0.138-0.132,0.216-0.203
			c0.096-0.087,0.191-0.173,0.264-0.287c0.17-0.268,0.262-0.416,0.452-0.718c1.873-2.968,3.746-5.937,5.618-8.905
			c0.507-0.804,1.014-1.606,1.521-2.411c0.361-0.573,0.723-1.146,1.085-1.718c-1.932-1.842-2.914-2.739-5.013-4.339
			c-3.67-2.797-7.466-5.193-11.57-7.3c-2.344-1.203-3.573-1.699-6.059-2.643c-0.36,0.573-0.723,1.146-1.083,1.719
			C297.629,88.468,297.123,89.271,296.615,90.074z"/>
		
			<linearGradient id="SVGID_14_" gradientUnits="userSpaceOnUse" x1="2461.6152" y1="30.8784" x2="2461.6152" y2="-140.8628" gradientTransform="matrix(0.1011 -0.1602 0.1318 0.0832 64.4929 499.2281)">
			<stop  offset="0" style="stop-color:#B8B8B8"/>
			<stop  offset="0.4263" style="stop-color:#8F8F8F"/>
			<stop  offset="0.6474" style="stop-color:#8F8F8F"/>
			<stop  offset="1" style="stop-color:#E8E8E8"/>
		</linearGradient>
		<path opacity="0.8182" fill="url(#SVGID_14_)" d="M296.803,89.777c-1.813,2.878-3.629,5.755-5.444,8.633
			c-0.246,0.389-0.495,0.777-0.738,1.167c-0.07,0.112-0.137,0.218-0.201,0.32c-0.06,0.095-0.117,0.186-0.173,0.274
			c-0.154,0.243-0.232,0.368-0.363,0.575c-0.201,0.318-0.312,0.665-0.437,1.122c1.987,0.836,3.524,1.152,5.315,1.958
			c0.289,0.13,0.589,0.271,0.897,0.435c3.996,2.119,7.75,4.478,11.374,7.186c1.92,1.435,2.728,2.728,4.538,4.358
			c0.298-0.355,0.525-0.62,0.757-0.88c0.177-0.199,0.346-0.404,0.553-0.646c0.067-0.078,0.137-0.159,0.214-0.246
			c0.092-0.104,0.186-0.206,0.262-0.327c0.169-0.268,0.286-0.454,0.469-0.745c1.873-2.968,3.746-5.937,5.618-8.905
			c0.508-0.804,1.014-1.606,1.521-2.41c0.362-0.574,0.723-1.146,1.085-1.719c-1.932-1.842-2.913-2.74-5.012-4.339
			c-3.67-2.798-7.466-5.192-11.571-7.299c-2.344-1.203-3.573-1.7-6.059-2.643c-0.36,0.572-0.723,1.146-1.083,1.719
			C297.816,88.169,297.311,88.973,296.803,89.777z"/>
		
			<linearGradient id="SVGID_15_" gradientUnits="userSpaceOnUse" x1="2462.6094" y1="30.8862" x2="2462.6094" y2="-140.8638" gradientTransform="matrix(0.1011 -0.1602 0.1318 0.0832 64.4929 499.2281)">
			<stop  offset="0" style="stop-color:#B8B8B8"/>
			<stop  offset="0.4263" style="stop-color:#8F8F8F"/>
			<stop  offset="0.6474" style="stop-color:#8F8F8F"/>
			<stop  offset="1" style="stop-color:#E8E8E8"/>
		</linearGradient>
		<path opacity="0.9091" fill="url(#SVGID_15_)" d="M296.99,89.479c-1.842,2.923-3.686,5.846-5.53,8.77
			c-0.25,0.395-0.501,0.79-0.749,1.186c-0.072,0.115-0.14,0.223-0.205,0.326c-0.062,0.097-0.12,0.19-0.176,0.279
			c-0.143,0.226-0.243,0.384-0.368,0.583c-0.215,0.34-0.385,0.694-0.599,1.164c2.071,0.858,3.543,1.113,5.369,1.918
			c0.289,0.128,0.592,0.268,0.904,0.433c4.027,2.123,7.802,4.501,11.448,7.228c2.012,1.504,2.765,2.813,4.661,4.53
			c0.301-0.419,0.528-0.731,0.758-1.043c0.175-0.237,0.345-0.478,0.553-0.762c0.066-0.09,0.136-0.186,0.212-0.287
			c0.089-0.12,0.179-0.239,0.26-0.367c0.168-0.267,0.31-0.493,0.485-0.771c1.872-2.968,3.746-5.938,5.618-8.905
			c0.507-0.804,1.013-1.607,1.521-2.411c0.361-0.573,0.723-1.146,1.085-1.719c-1.932-1.842-2.914-2.739-5.013-4.339
			c-3.669-2.797-7.466-5.193-11.57-7.299c-2.344-1.203-3.573-1.7-6.059-2.643c-0.36,0.573-0.723,1.146-1.083,1.719
			C298.005,87.872,297.499,88.675,296.99,89.479z"/>
		
			<linearGradient id="SVGID_16_" gradientUnits="userSpaceOnUse" x1="2463.4805" y1="30.8784" x2="2463.4805" y2="-140.856" gradientTransform="matrix(0.1011 -0.1602 0.1318 0.0832 64.4929 499.2281)">
			<stop  offset="0" style="stop-color:#B8B8B8"/>
			<stop  offset="0.4263" style="stop-color:#8F8F8F"/>
			<stop  offset="0.6474" style="stop-color:#8F8F8F"/>
			<stop  offset="1" style="stop-color:#E8E8E8"/>
		</linearGradient>
		<path fill="url(#SVGID_16_)" d="M305.842,87.695c-2.36-1.17-3.573-1.7-6.059-2.643c-0.36,0.573-0.723,1.146-1.083,1.719
			c-0.508,0.804-1.014,1.607-1.521,2.411c-1.871,2.969-3.744,5.937-5.617,8.906c-0.253,0.401-0.507,0.804-0.761,1.205
			c-0.072,0.117-0.142,0.226-0.208,0.331c-0.206,0.327-0.379,0.601-0.553,0.876c-0.228,0.361-0.456,0.724-0.76,1.205
			c2.493,1.019,3.987,1.114,6.333,2.311c4.03,2.181,7.821,4.571,11.524,7.269c2.084,1.598,2.801,2.897,4.782,4.702
			c0.305-0.482,0.533-0.844,0.761-1.205c0.174-0.274,0.347-0.549,0.552-0.877c0.066-0.104,0.136-0.212,0.209-0.33
			c0.254-0.401,0.507-0.804,0.76-1.205c1.873-2.968,3.746-5.937,5.618-8.905c0.507-0.804,1.014-1.607,1.521-2.411
			c0.361-0.573,0.723-1.146,1.085-1.719c-1.932-1.842-2.936-2.71-5.013-4.339C313.705,92.247,309.917,89.858,305.842,87.695z"/>
	</g>
	<path fill="#58B8DD" stroke="#76A5A2" stroke-miterlimit="10" d="M305.728,87.624c-2.403-1.197-3.638-1.741-6.165-2.711
		c-2.994,4.747-5.988,9.494-8.982,14.241c-0.074,0.116-0.143,0.225-0.208,0.33c-0.478,0.758-0.778,1.234-1.313,2.081
		c2.537,1.046,3.766,1.612,6.155,2.835c4.104,2.229,7.961,4.66,11.739,7.405c2.128,1.625,3.163,2.487,5.188,4.32
		c0.534-0.848,0.836-1.324,1.313-2.081c0.065-0.104,0.134-0.213,0.208-0.331c2.994-4.746,5.988-9.494,8.982-14.24
		c-1.974-1.869-2.999-2.751-5.12-4.407C313.741,92.271,309.88,89.835,305.728,87.624z"/>
	
		<linearGradient id="SVGID_17_" gradientUnits="userSpaceOnUse" x1="2488.5137" y1="32.5503" x2="2488.5137" y2="-142.5356" gradientTransform="matrix(0.1011 -0.1602 0.1318 0.0832 64.4929 499.2281)">
		<stop  offset="0" style="stop-color:#B8B8B8"/>
		<stop  offset="0.4263" style="stop-color:#8F8F8F"/>
		<stop  offset="0.6474" style="stop-color:#8F8F8F"/>
		<stop  offset="1" style="stop-color:#E8E8E8"/>
	</linearGradient>
	<path opacity="0.4" fill="url(#SVGID_17_)" d="M314.883,99.235c2.125,1.629,3.16,2.493,5.183,4.327l-0.217,0.344
		c-2.022-1.834-3.057-2.697-5.183-4.327c-3.779-2.746-7.638-5.179-11.744-7.407c-2.391-1.22-3.621-1.785-6.156-2.826l0.217-0.344
		c2.535,1.041,3.766,1.605,6.156,2.825C307.247,94.053,311.104,96.485,314.883,99.235z"/>
	<path opacity="0.4" fill="#6B6165" d="M304.643,89.355c-2.401-1.2-3.636-1.746-6.164-2.724c-0.608,0.964-0.913,1.447-1.521,2.411
		c2.529,0.989,3.762,1.538,6.162,2.743c4.14,2.215,8.001,4.65,11.783,7.433c2.123,1.648,3.15,2.525,5.138,4.385
		c0.607-0.964,0.912-1.446,1.521-2.411c-1.979-1.866-3.006-2.746-5.127-4.399C312.65,94.003,308.79,91.567,304.643,89.355z"/>
	<path fill="#EF6E4B" d="M160.256,331.286c-1.455-1.502-6.476-7.934-6.566-11.168c-0.129-4.566-0.039-10.844,0.172-17.684h-7.193
		c0.288,7.461,0.312,16.758,0.208,19.568c-0.154,0.473-0.679,3.602-0.938,4.055c-0.392,0.686-0.063,5.875-0.063,5.875l14.557-0.588
		c-0.057-0.018-0.104-0.033-0.133-0.041C160.272,331.296,160.264,331.294,160.256,331.286z"/>
	<path fill="#EF6E4B" d="M153.673,310.317c0.304-19.305,4.16-48.533,4.691-53.373c0.343-3.129,3.032-11.297,6.628-23.238
		c8.341-27.699,8.883-47.686,6.026-65.725l-18.633,0.43c-3.227,14.324-21.51,29.785-9.071,46.354
		c0.501,6.188,4.031,27.166,2.534,36.406c-1.768,10.904-2.823,16.242-2.16,28.904c0.275,5.271,3.136,21.795,3.122,30.242H153.673z"
		/>
	<path fill="#FF8B66" d="M141.834,303.847h-8.504c0.958,8.789,1.666,16.25,1.666,16.25l-0.93,12.967h9.267
		c-0.614-3.881-2.356-15.514-2.005-20.42C141.535,309.763,141.699,306.819,141.834,303.847z"/>
	<path fill="#FF8B66" d="M127.875,231.493L127.875,231.493c0.744,6.168,2.13,10.293,2.685,15.482
		c0.807,7.555-3.814,18.502-0.818,30.67c1.418,5.76,3.475,24.779,4.546,35.297h7.025c0.005-0.1,0.009-0.203,0.016-0.299
		c1.836-25.6,1.434-55.119,2.788-66.725c0.571-4.891,3.974-12.834,5.301-19.146c0.007-0.031,4.04-18.357,6.802-19.896
		c11.312-6.295,14.8-38.895,14.8-38.895l-27.804,1.293c0,0-17.105,13.453-14.586,37.402c0,0-0.034,0.246-0.087,0.676
		C127.058,218.626,127.2,225.903,127.875,231.493z"/>
	<path fill="#0E3944" d="M133.461,323.04c0,0,0.345-3.193,4.733-2.82s3.842,3.584,3.842,3.584s0.702-0.516,1.246,0
		c0.544,0.518-0.266,4.947,0.784,5.879c1.051,0.934,0.526,3.381,0.526,3.381h-12.896c0,0-0.472-3.146,0.89-4.313
		C133.948,327.585,130.996,323.39,133.461,323.04z"/>
	<path fill="#04191C" d="M144.923,333.063c0,0-0.709-9.582,1.162-12.084c0,0,2.071,3.289,4.905,3.289
		c1.845,0,2.588-4.244,4.166-3.289c1.385,0.836,2.315,3.23,6.033,5.682c3.719,2.451,6.739,1.754,6.972,6.402H144.923z"/>
	<g>
		<path fill="#105E99" d="M183.758,257.976c0,0-1.33,0.381-3.7,0.92c-0.81,0.189-1.729,0.391-2.76,0.609
			c-1.47,0.311-3.16,0.641-5.05,0.961c-0.86,0.16-1.771,0.311-2.71,0.449c-2.33,0.371-4.891,0.721-7.63,1.021
			c-0.86,0.09-1.73,0.18-2.631,0.26c-2.42,0.219-4.96,0.4-7.59,0.5c-0.91,0.039-1.83,0.07-2.75,0.09
			c-4.38,0.09-8.96-0.02-13.609-0.439c-0.92-0.07-1.84-0.16-2.771-0.281c-2.939-0.33-5.91-0.789-8.859-1.41
			c-0.91-0.18-1.83-0.389-2.74-0.609c-2.851-0.689-5.681-1.52-8.45-2.529c0,0,2.75-57.65,27.75-97.431l26.29-6.489
			C166.548,153.596,183.758,194.366,183.758,257.976z"/>
		<path fill="#0D527C" d="M180.058,258.896c-0.81,0.189-1.729,0.391-2.76,0.609c-0.01-2.279-0.03-5.01-0.07-8.09
			c-0.06-4.619-0.2-10-0.43-15.77c-0.14-2.879-0.24-5.859-0.44-8.891c-0.17-3.02-0.35-6.1-0.6-9.158
			c-0.12-1.541-0.24-3.07-0.36-4.602c-0.149-1.529-0.29-3.049-0.439-4.549c-0.26-3.031-0.65-5.98-0.99-8.85
			c-0.31-2.871-0.8-5.611-1.18-8.23c-0.101-0.66-0.2-1.301-0.29-1.941c-0.12-0.629-0.24-1.25-0.36-1.859
			c-0.229-1.219-0.46-2.41-0.67-3.539c-0.39-2.281-0.979-4.311-1.4-6.141c-0.22-0.92-0.43-1.77-0.619-2.561
			c-0.24-0.77-0.46-1.49-0.671-2.129c-0.659-2.09-1.09-3.451-1.22-3.891c0.15,0.43,0.63,1.779,1.351,3.85
			c0.22,0.641,0.46,1.35,0.729,2.111c0.22,0.789,0.45,1.639,0.7,2.539c0.47,1.82,1.13,3.85,1.58,6.119
			c0.26,1.131,0.52,2.311,0.79,3.531c0.13,0.609,0.27,1.23,0.41,1.859c0.12,0.631,0.239,1.27,0.359,1.93
			c0.45,2.611,1.03,5.352,1.431,8.221c0.43,2.859,0.909,5.82,1.26,8.84c0.189,1.5,0.39,3.029,0.58,4.551
			c0.17,1.529,0.33,3.068,0.5,4.6c0.35,3.07,0.63,6.15,0.89,9.18c0.29,3.02,0.48,6.01,0.71,8.9c0.41,5.77,0.7,11.17,0.91,15.799
			C179.888,254.175,179.988,256.726,180.058,258.896z"/>
		<path fill="#0D527C" d="M172.248,260.466c-0.86,0.16-1.771,0.311-2.71,0.449c0-1.74-0.011-3.689-0.021-5.809
			c-0.029-4.51-0.109-9.76-0.229-15.4c-0.07-2.811-0.15-5.721-0.23-8.68c-0.12-2.961-0.189-5.961-0.34-8.961
			c-0.14-3-0.27-6.01-0.45-8.959c-0.09-1.48-0.17-2.941-0.26-4.391c-0.1-1.439-0.21-2.869-0.31-4.279
			c-0.181-2.811-0.431-5.521-0.681-8.09c-0.22-2.57-0.51-5-0.779-7.23c-0.141-1.121-0.25-2.201-0.4-3.221
			c-0.16-1.01-0.3-1.971-0.44-2.879c-0.279-1.811-0.51-3.391-0.81-4.67c-0.4-1.941-0.67-3.25-0.771-3.781
			c0.131,0.531,0.44,1.83,0.9,3.75c0.34,1.281,0.61,2.85,0.95,4.66c0.17,0.9,0.35,1.859,0.54,2.871
			c0.17,1.01,0.319,2.078,0.49,3.199c0.34,2.23,0.72,4.65,1.01,7.221c0.33,2.568,0.66,5.279,0.939,8.09
			c0.141,1.398,0.29,2.83,0.44,4.279c0.13,1.439,0.26,2.91,0.4,4.381c0.27,2.949,0.5,5.959,0.72,8.959c0.25,3,0.42,6.01,0.62,8.971
			c0.18,2.959,0.35,5.869,0.51,8.689c0.3,5.631,0.54,10.9,0.71,15.41C172.118,257.005,172.188,258.815,172.248,260.466z"/>
		<path fill="#0D527C" d="M160.218,208.446c0.01-5.611-0.02-10.84-0.1-15.32c-0.051-2.24-0.07-4.301-0.16-6.121
			c-0.07-1.818-0.101-3.408-0.19-4.709c-0.12-1.961-0.21-3.291-0.24-3.83c0.061,0.539,0.181,1.859,0.37,3.82
			c0.13,1.299,0.21,2.889,0.341,4.709c0.14,1.82,0.22,3.871,0.34,6.111c0.229,4.49,0.42,9.719,0.59,15.33
			c0.16,5.6,0.29,11.59,0.399,17.568c0.23,13.371,0.311,26.73,0.341,35.932c-0.86,0.09-1.73,0.18-2.631,0.26
			c0.261-9.191,0.601-22.691,0.79-36.191C160.147,220.026,160.208,214.046,160.218,208.446z"/>
		<path fill="#0D527C" d="M150.928,224.136c0.1,14.98,0.5,29.949,0.76,38.561c-0.91,0.039-1.83,0.07-2.75,0.09
			c0.011-8.621,0.11-23.65,0.49-38.66c0.14-5.75,0.33-11.5,0.55-16.891c0.09-2.689,0.24-5.299,0.351-7.77
			c0.109-2.461,0.279-4.801,0.399-6.949c0.12-2.15,0.29-4.121,0.42-5.871s0.261-3.27,0.391-4.52c0.25-2.5,0.399-3.93,0.399-3.93
			s-0.1,1.43-0.27,3.939c-0.09,1.25-0.17,2.779-0.24,4.529c-0.08,1.75-0.18,3.721-0.229,5.871c-0.051,2.16-0.15,4.49-0.171,6.959
			c-0.039,2.471-0.1,5.07-0.1,7.76C150.878,212.646,150.878,218.396,150.928,224.136z"/>
		<path fill="#0D527C" d="M145.107,176.386c0,0-0.3,1.43-0.83,3.92c-0.279,1.25-0.59,2.76-0.89,4.51c-0.3,1.76-0.7,3.721-1.02,5.881
			c-0.33,2.16-0.721,4.5-1.061,6.979c-0.319,2.48-0.71,5.092-1.03,7.811c-0.31,2.711-0.68,5.51-0.97,8.361
			c-0.3,2.859-0.62,5.75-0.89,8.648c-0.57,5.801-1.05,11.611-1.49,17.061c-0.43,5.439-0.79,10.529-1.08,14.891
			c-0.2,3.02-0.38,5.689-0.52,7.9c-0.92-0.07-1.84-0.16-2.771-0.281c0.22-2.189,0.47-4.84,0.771-7.83
			c0.43-4.359,0.949-9.439,1.56-14.879c0.61-5.441,1.28-11.24,2.04-17.031c0.36-2.889,0.78-5.779,1.17-8.629
			c0.38-2.85,0.84-5.641,1.24-8.34c0.41-2.711,0.88-5.311,1.28-7.791c0.43-2.469,0.89-4.799,1.29-6.949
			c0.39-2.15,0.85-4.111,1.21-5.85c0.35-1.74,0.72-3.25,1.029-4.49C144.758,177.806,145.107,176.386,145.107,176.386z"/>
		<path fill="#0D527C" d="M140.198,169.306c-0.171,0.439-0.7,1.801-1.511,3.881c-0.25,0.648-0.52,1.359-0.819,2.129
			c-0.15,0.381-0.311,0.791-0.471,1.201c-0.14,0.43-0.279,0.869-0.43,1.33c-0.59,1.818-1.26,3.879-1.99,6.119
			c-0.649,2.27-1.3,4.74-2.02,7.34c-0.681,2.609-1.271,5.41-1.95,8.27c-0.63,2.881-1.16,5.881-1.77,8.91
			c-0.521,3.051-1.051,6.15-1.53,9.25c-0.42,3.111-0.92,6.211-1.26,9.291c-0.37,3.07-0.74,6.09-1.011,9.02
			c-0.31,2.93-0.54,5.77-0.76,8.459c-0.24,2.691-0.37,5.23-0.54,7.58c-0.2,3.281-0.34,6.182-0.439,8.57
			c-0.91-0.18-1.83-0.389-2.74-0.609c0.16-2.311,0.38-5.061,0.649-8.15c0.25-2.359,0.46-4.91,0.78-7.609
			c0.29-2.701,0.62-5.541,1.021-8.471c0.35-2.939,0.81-5.959,1.279-9.029c0.431-3.08,1.03-6.18,1.54-9.301
			c0.58-3.1,1.2-6.189,1.811-9.24c0.7-3.02,1.33-6.01,2.05-8.879c0.77-2.861,1.43-5.641,2.2-8.24c0.8-2.59,1.529-5.051,2.25-7.301
			c0.79-2.229,1.52-4.27,2.17-6.08c0.16-0.449,0.319-0.889,0.47-1.309c0.17-0.41,0.34-0.811,0.5-1.191
			c0.33-0.77,0.62-1.469,0.89-2.1C139.448,171.085,140.008,169.735,140.198,169.306z"/>
	</g>
	<path fill="#A1B1B5" d="M192.15,140.717c0.789-1.467,5.355,4.344,3.524,9.149c-1.832,4.805-4.524-2.982-4.524-2.982
		S189.857,144.978,192.15,140.717z"/>
	<path fill="#FF8B66" d="M195.677,137.749l-5.443,7.255l1.314,8.618c0,0,4.889-8.573,6.518-11.25
		C199.694,139.693,195.677,137.749,195.677,137.749z"/>
	<path fill="#BCC7C9" d="M153.79,115.519c0,0,12.01,4.364,15.602,7.698l9.759,30.224c0,0,0.333-2.112,1-1.253l12-11.471
		c0,0-1.717,9.149,3.524,9.149l-1.667,3c0,0-1.121,3.927-1.583,4.667c-3.893,6.229-8.518,15.548-12.608,16.683
		c-6,1.668-16.333-24.506-16.333-24.506L153.79,115.519z"/>
	<path fill="#CFD8DC" d="M137.97,160.866c4.707,6.663,28.627,7.108,32.63,0c2.541-4.512-2.664-7.609-2.664-7.609
		c12.781-21.815-9.546-37.1-9.546-37.1s-20.833-7.631-32.261,2.172c-11.427,9.803,12.76,40.088,12.76,40.088
		C138.614,159.091,137.394,160.049,137.97,160.866z"/>
	<g>
		<path fill="#8B383E" d="M132.874,83.233c0,0-4.894-5.016-9.613-0.683c-4.72,4.333,0.239,13.229,0.01,14.864
			s-4.063,2.036-3.146,4.085c0.917,2.05,3.376,2.384,3.146,3.384s-2.563,2.606-1.563,3.637c1,1.03,3.189-0.039,3.012,1.746
			c-0.178,1.784-1.345,4.118,0.822,4.284c0,0-1.667-2.003-0.167-2.668c1.5-0.665,2.655,0.067,3.328-2.049
			c0.672-2.116-2.429-2.949-1.045-4.116c1.384-1.167,4.439-1.167,2.995-3c-1.445-1.833-1.953-3.505,0.722-5.048
			C134.049,96.125,132.874,83.233,132.874,83.233z"/>
		<path fill="#8B383E" d="M154.053,80.787c5.507-0.145,5.868,11.926-0.738,18.345C146.707,105.55,145.064,81.023,154.053,80.787z"/>
		<path fill="#FF8B66" d="M135.271,79.618c0,0,16.421-5.498,19.728,6.063c3.308,11.562,0.305,23.757-7.404,22.941
			C136.749,107.475,122.516,86.121,135.271,79.618z"/>
		
			<ellipse transform="matrix(-0.9945 -0.1048 0.1048 -0.9945 279.3533 206.7293)" fill="#DB614D" cx="145.11" cy="96.023" rx="1.577" ry="1.261"/>
		<g>
			<path fill="#8B383E" d="M144.816,88.768c0.105-0.006,0.207-0.062,0.268-0.157c0.684-1.068,2.008-0.943,2.021-0.941
				c0.188,0.021,0.355-0.116,0.375-0.303c0.021-0.188-0.116-0.355-0.303-0.375c-0.071-0.008-1.76-0.168-2.667,1.252
				c-0.102,0.159-0.055,0.37,0.104,0.471C144.676,88.755,144.748,88.772,144.816,88.768z"/>
		</g>
		<g>
			<path fill="#8B383E" d="M152.386,87.014c0.069-0.004,0.139-0.03,0.196-0.078c0.97-0.804,2.162-0.302,2.212-0.28
				c0.173,0.075,0.374-0.004,0.449-0.177c0.074-0.172-0.003-0.373-0.175-0.448c-0.066-0.029-1.624-0.696-2.922,0.379
				c-0.145,0.121-0.165,0.335-0.045,0.48C152.174,86.978,152.28,87.02,152.386,87.014z"/>
		</g>
		<path fill="#1A4850" d="M154.053,99.131c0,0-2.479,1.597-6.811,0.197c0,0,1.302,5.135,4.056,4.482
			C154.052,103.158,154.053,99.131,154.053,99.131z"/>
		<path fill="#8B383E" d="M141.811,85.56c0,0-3.758,4.789-3.564,11.007c0,0-2.756-3.376-4.197-0.442
			c-1.44,2.934,4.331,7.22,4.331,7.22s-9.295,0.524-10.386-11.496C127.534,86.784,134.107,82.16,141.811,85.56z"/>
		<path fill="#EF6E4B" d="M150.426,115.026c-1.822-1.99-0.637-6.684-0.637-6.684c-5.115,1.679-9.945-4.199-11.206-7.592
			c0,0-0.443,1.539-1.825,0.626c0,0,3.524,7.08,1.316,13.145c3.589,1.476,7.022,3.351,10.518,5.062
			c0.179-0.039,0.332-0.088,0.487-0.137C149.207,117.921,149.644,116.425,150.426,115.026z"/>
		<g>
			<path fill="#DB614D" d="M153.236,97.414l-0.305-0.686c0.125-0.057,1.209-0.582,0.774-1.64c-0.133-0.321-0.315-0.525-0.543-0.606
				c-0.403-0.145-0.86,0.103-0.865,0.105l-0.363-0.656c0.03-0.017,0.75-0.41,1.472-0.158c0.441,0.154,0.775,0.5,0.993,1.03
				C154.977,96.208,153.891,97.125,153.236,97.414z"/>
		</g>
		
			<ellipse transform="matrix(-0.9979 0.065 -0.065 -0.9979 299.3242 175.9579)" fill="#1A4850" cx="146.802" cy="92.845" rx="0.849" ry="1.341"/>
		<path fill="#1A4850" d="M145.51,92.708c0,0,0.391-1.701,0.993-1.74c0.604-0.04,1.611,1.092,1.611,1.092l1.106-0.806l-1.065,0.418
			c0,0-0.921-1.295-1.759-1.031C145.559,90.906,145.51,92.708,145.51,92.708z"/>
		
			<ellipse transform="matrix(-0.9979 0.065 -0.065 -0.9979 312.9206 173.3967)" fill="#1A4850" cx="153.642" cy="91.785" rx="0.849" ry="1.341"/>
		<path fill="#1A4850" d="M152.35,91.649c0,0,0.391-1.7,0.993-1.74c0.604-0.04,1.611,1.092,1.611,1.092l1.106-0.806l-1.066,0.418
			c0,0-0.92-1.295-1.758-1.031C152.398,89.846,152.35,91.649,152.35,91.649z"/>
		<path fill="#8B383E" d="M143.283,82.741c0,0,0.559,12.125-5.037,13.826c0,0-3.646-6.196-8.459-1.86c0,0-5.146-14.134,6.971-16.396
			c0,0,2.354-5.415,11.783-3.694c13.166,2.404,11.217,14.151,8.342,17.168C156.883,91.785,154.697,79.64,143.283,82.741z"/>
	</g>
	<path fill="#BCC7C9" d="M138.626,112.425c0,0,1.882,3.165,10.007,6.178c0,0,1.793-2.612,0.813-6.178c0,0,4.606,1.691,6.884,5.26
		h-4.085l-0.612,4.312l-10.625-4.312l-6.117,0.917C134.891,118.603,133.744,113.233,138.626,112.425z"/>
	<path fill="#BCC7C9" d="M150.426,120.435c0,0,6.332,5.931,9.207,15.431s2.132,15.422,2.132,15.422s0.258-18.784-12.563-30.853
		H150.426z"/>
	<g>
		<path fill="#FF8B66" d="M201.378,129.5c0,0,0,0-3.57,4.25c-3.583,4.246-2.684,4.587-2.008,7.505
			c0.628,2.731,5.741,2.133,7.776,1.31c1.725-0.684,6.32,0.372,7.592-0.58c0.514-0.384,0.002-0.59-1.481-0.736
			c-1.742-0.175-3.277-0.93-3.277-0.93c1.095-1.611,7.334-0.354,8.244-2.255c0.439-0.925-7.011,0.721-7.721-0.235
			c0,0,0.342-0.623,3.932-1.724c2.06-0.635,4.187-1.27,4.306-1.962c0.211-1.259-3.873,0.817-9.053,1.28c0,0,2.092-1.073,4.096-1.937
			c1.833-0.781,3.628-1.32,3.202-2.103c-0.346-0.644-3.173,0.654-5.006,1.413c-3.419,1.408-6.227,1.695-7.685,1.737
			c-0.698,0.029-1.087-0.016-1.087-0.016C202.922,129.883,201.378,129.5,201.378,129.5z"/>
		<path fill="#EF6E4B" d="M199.638,134.517c0,0,0.345,2.423-0.962,3.76c0,0,2.728-0.771,2.049-3.744
			C200.026,134.562,199.638,134.517,199.638,134.517z"/>
	</g>
	<g>
		<g>
			<path fill="#EF6E4B" d="M148.178,177.937c0,0,1.861,0.426,2.688,1.318s2.23,3.697,3.595,4.039
				c1.364,0.34,1.265,1.963-2.159,0.145C148.877,181.62,146.129,180.411,148.178,177.937z"/>
			<path fill="#FF8B66" d="M147.727,179.991l4.575,3.447c0,0,3.149,2.379,2.707,2.998c-0.442,0.617-3.302-0.365-3.302-0.365
				s-1.721,1.244-2.282,1.107c-0.561-0.135-2.356-1.018-2.994-0.285c-0.637,0.732-6.813-2.572-6.813-2.572
				S145.693,179.88,147.727,179.991z"/>
		</g>
		<path fill="#FF8B66" d="M150.345,181.964c-1.951-1.469-2.167-4.027-2.167-4.027s-4.051-1.17-5.754-0.752
			c-1.704,0.418-7.354-2.619-7.354-2.619l-1.555,5.6c0,0,4.081,3.131,6.104,4.156C141.642,185.345,150.345,181.964,150.345,181.964z
			"/>
	</g>
	<path fill="#BCC7C9" d="M124.793,119.781c0,0,7.298-0.681,7.765,10.418c0.662,15.744-11.6,26.729-11.6,26.729
		s4.809,6.865,6.429,7.688c1.62,0.823,5.171,7.188,5.171,7.188l3.513,2.488c0.611,2.512-3.513,7.199-3.513,7.199l-4.8-2.563
		c0,0-3.688,0.35-6.188-0.463s-14.813-12.217-17.479-13.742C101.425,163.199,116.994,127.364,124.793,119.781z"/>
</g>
</svg>
