<?xml version="1.0" encoding="utf-8"?>
<!-- Generator: Adobe Illustrator 16.0.0, SVG Export Plug-In . SVG Version: 6.00 Build 0)  -->
<!DOCTYPE svg PUBLIC "-//W3C//DTD SVG 1.1//EN" "http://www.w3.org/Graphics/SVG/1.1/DTD/svg11.dtd">
<svg version="1.1" id="Capa_1" xmlns="http://www.w3.org/2000/svg" xmlns:xlink="http://www.w3.org/1999/xlink" x="0px" y="0px"
	 width="400px" height="400px" viewBox="0 0 400 400" enable-background="new 0 0 400 400" xml:space="preserve">
<g>
	<path opacity="0.5" fill="#04B2AD" d="M257.575,131.748c-0.055-0.053-0.109-0.104-0.164-0.157
		c-0.054-0.053-0.109-0.105-0.165-0.158c-0.054-0.053-0.109-0.105-0.165-0.158c-0.054-0.052-0.108-0.104-0.163-0.156
		c-0.055-0.053-0.109-0.104-0.163-0.157c-0.055-0.052-0.109-0.104-0.164-0.156c-0.055-0.053-0.109-0.105-0.165-0.158
		c-0.055-0.053-0.109-0.105-0.165-0.158c-0.055-0.053-0.108-0.104-0.163-0.157c-0.055-0.052-0.109-0.104-0.163-0.157
		c-0.055-0.052-0.109-0.104-0.164-0.156c-0.055-0.053-0.109-0.105-0.165-0.158c-0.055-0.053-0.109-0.105-0.165-0.158
		c-0.055-0.052-0.108-0.104-0.163-0.156c-0.055-0.053-0.109-0.105-0.164-0.157c-0.054-0.053-0.108-0.104-0.163-0.157
		c-0.055-0.052-0.109-0.104-0.165-0.158c-0.055-0.053-0.109-0.104-0.165-0.157c-0.055-0.053-0.108-0.104-0.163-0.157
		c-0.055-0.052-0.109-0.104-0.164-0.157c-0.054-0.052-0.108-0.104-0.163-0.156c-0.055-0.053-0.109-0.105-0.165-0.158
		c-0.055-0.053-0.109-0.105-0.165-0.158c-0.055-0.052-0.108-0.104-0.163-0.156c-0.055-0.053-0.109-0.105-0.164-0.157
		c-0.054-0.053-0.108-0.104-0.163-0.157s-0.109-0.105-0.165-0.158c-0.055-0.053-0.109-0.105-0.165-0.158
		c-0.055-0.052-0.109-0.104-0.163-0.156c-2.486-2.391-5.065-4.64-7.722-6.753l-48.001-70.989c-0.07-0.105-0.162-0.191-0.26-0.269
		c-0.051-0.058-0.104-0.11-0.164-0.157c-0.051-0.058-0.104-0.11-0.164-0.157c-0.051-0.058-0.105-0.111-0.165-0.158
		c-0.05-0.058-0.104-0.11-0.163-0.157c-0.051-0.057-0.104-0.11-0.165-0.157c-0.05-0.058-0.104-0.111-0.163-0.158
		c-0.051-0.057-0.104-0.11-0.164-0.157c-0.051-0.058-0.105-0.111-0.165-0.158c-0.05-0.058-0.104-0.11-0.163-0.157
		c-0.051-0.058-0.105-0.11-0.165-0.157c-0.05-0.058-0.104-0.111-0.163-0.158c-0.051-0.057-0.104-0.11-0.165-0.157
		c-0.05-0.058-0.104-0.11-0.164-0.157c-0.05-0.058-0.104-0.111-0.163-0.158c-0.051-0.057-0.105-0.11-0.165-0.157
		c-0.05-0.058-0.104-0.111-0.163-0.158c-0.051-0.057-0.105-0.11-0.165-0.157c-0.05-0.058-0.104-0.11-0.164-0.157
		c-0.05-0.058-0.104-0.111-0.164-0.158c-0.05-0.057-0.104-0.11-0.164-0.157c-0.05-0.058-0.104-0.11-0.163-0.157
		c-0.051-0.057-0.105-0.11-0.165-0.157c-0.05-0.058-0.104-0.111-0.164-0.158c-0.05-0.058-0.104-0.11-0.164-0.157
		c-0.05-0.057-0.104-0.11-0.164-0.157c-0.05-0.058-0.104-0.11-0.164-0.157c-0.05-0.058-0.104-0.11-0.164-0.157
		c-0.05-0.058-0.104-0.111-0.164-0.158c-0.051-0.058-0.104-0.11-0.164-0.157c-0.226-0.257-0.551-0.418-0.906-0.427
		c-0.433-0.017-0.792,0.175-1.029,0.492l-53.245,71.139c-10.309,7.017-19.574,16.091-27.428,26.782
		c-0.57,0.775-1.133,1.561-1.688,2.353c-6.659,9.512-12.23,20.223-16.473,31.834c-0.354,0.968-0.698,1.941-1.033,2.922
		c-5.36,15.681-8.324,32.92-8.324,51.017l0,0c0,3.393,0.104,6.756,0.309,10.084c0.137,2.219,0.318,4.422,0.542,6.608
		c0.224,2.187,0.493,4.356,0.803,6.509c0.311,2.15,0.664,4.283,1.058,6.398c1.044,5.595,2.383,11.051,3.986,16.347
		c0.516,1.706,1.054,3.398,1.625,5.069c0.335,0.98,0.679,1.954,1.033,2.922c0.452,1.236,0.924,2.46,1.406,3.675
		c0.649,1.639,1.319,3.262,2.021,4.86c2.854,6.5,6.139,12.668,9.808,18.444c1.048,1.65,2.128,3.27,3.238,4.855
		c0.555,0.792,1.117,1.576,1.688,2.353c4.025,5.479,8.422,10.534,13.139,15.106c0.055,0.054,0.11,0.105,0.165,0.158
		c0.054,0.054,0.109,0.104,0.163,0.157c0.054,0.052,0.109,0.104,0.163,0.155c0.055,0.054,0.11,0.105,0.165,0.159
		s0.11,0.104,0.164,0.157c0.055,0.054,0.11,0.105,0.165,0.158c0.054,0.053,0.109,0.104,0.163,0.156
		c0.054,0.053,0.109,0.104,0.163,0.156c0.055,0.054,0.111,0.105,0.165,0.158c0.055,0.054,0.11,0.105,0.164,0.157
		c0.055,0.054,0.11,0.105,0.165,0.158c0.054,0.054,0.109,0.104,0.163,0.157c0.054,0.052,0.109,0.104,0.163,0.156
		c0.055,0.054,0.111,0.104,0.165,0.158c0.055,0.054,0.11,0.104,0.165,0.157c0.055,0.054,0.11,0.105,0.165,0.158
		c0.054,0.053,0.109,0.104,0.163,0.157c0.054,0.052,0.109,0.104,0.163,0.155c0.055,0.054,0.111,0.105,0.165,0.158
		c0.055,0.054,0.11,0.105,0.165,0.158c0.055,0.054,0.11,0.104,0.165,0.158c0.054,0.053,0.109,0.104,0.163,0.156
		c0.054,0.053,0.109,0.104,0.163,0.156c0.055,0.054,0.111,0.105,0.165,0.158c0.055,0.054,0.11,0.105,0.165,0.157
		c0.055,0.054,0.11,0.105,0.165,0.158c0.054,0.054,0.109,0.104,0.163,0.157c0.054,0.052,0.109,0.104,0.163,0.156
		c0.055,0.054,0.11,0.104,0.165,0.158c0.679,0.66,1.364,1.312,2.056,1.952c0.68,0.629,1.366,1.247,2.058,1.856
		c1.384,1.219,2.793,2.396,4.226,3.533c1.433,1.136,2.889,2.231,4.368,3.283c3.696,2.63,7.534,4.992,11.494,7.065
		c0.792,0.414,1.589,0.817,2.391,1.208c1.604,0.782,3.227,1.518,4.867,2.205c1.641,0.687,3.299,1.325,4.975,1.914
		c3.351,1.178,6.77,2.156,10.248,2.925c6.086,1.346,12.352,2.047,18.75,2.047c58.501,0,105.925-58.679,105.925-131.063
		C298.722,193.248,282.604,155.719,257.575,131.748z M191.139,99.725L191.139,99.725C191.139,99.725,191.139,99.725,191.139,99.725
		c-1.082-0.041-2.166-0.068-3.254-0.068c-0.004,0-0.007,0-0.01,0c-11.135,0-21.867,2.129-31.948,6.074l35.171-46.991
		c0.03,0.028,0.063,0.053,0.095,0.081c0.055,0.053,0.107,0.107,0.164,0.157c0.055,0.054,0.107,0.107,0.164,0.157
		c0.055,0.054,0.107,0.107,0.164,0.157c0.055,0.054,0.107,0.107,0.164,0.158c0.055,0.053,0.107,0.106,0.165,0.157
		c0.054,0.054,0.106,0.107,0.163,0.157c0.055,0.054,0.107,0.107,0.164,0.158c0.055,0.054,0.107,0.106,0.164,0.157
		c0.055,0.054,0.107,0.107,0.164,0.158c0.055,0.053,0.107,0.107,0.165,0.158c0.717,0.711,1.714,1.162,2.83,1.162
		c1.551,0,2.88-0.862,3.532-2.106l36.869,54.526C222.52,105.397,207.283,100.33,191.139,99.725z"/>
	<g>
		<g>
			<g>
				<path fill="#575756" d="M272.366,167.251c-0.006,0-0.011,0-0.016,0H100.387c-0.461,0-0.884-0.248-1.095-0.642
					c-0.21-0.394-0.174-0.867,0.095-1.227l90.346-120.707c0.236-0.317,0.597-0.509,1.028-0.492c0.407,0.009,0.783,0.21,1.004,0.538
					l81.521,120.566c0.192,0.208,0.31,0.482,0.31,0.782C273.597,166.723,273.047,167.251,272.366,167.251z M102.785,164.891h167.3
					L190.682,47.457L102.785,164.891z"/>
			</g>
			<ellipse fill="#575756" cx="190.336" cy="53.03" rx="3.967" ry="3.805"/>
		</g>
		<g>
			<g>
				<ellipse fill="#F4DE7F" cx="187.468" cy="230.722" rx="105.925" ry="131.063"/>
				<path fill="#DDC252" d="M88.073,230.722c0-71.033,45.67-128.862,102.66-130.997c-1.084-0.041-2.172-0.068-3.264-0.068
					c-58.501,0-105.926,58.68-105.926,131.065s47.425,131.063,105.926,131.063c1.092,0,2.18-0.026,3.264-0.067
					C133.743,359.583,88.073,301.754,88.073,230.722z"/>
			</g>
			<g>
				<g>
					<g>
						<path fill="#B8E3FE" d="M283.309,230.725c0,65.486-42.909,118.578-95.841,118.578c-25.353,0-48.402-12.177-65.537-32.063
							c-6.927-8.034-12.892-17.33-17.641-27.59c-5.957-12.84-10.023-27.185-11.735-42.468c-0.506-4.507-0.81-9.095-0.886-13.746
							c-0.025-0.899-0.034-1.805-0.034-2.711c0-65.495,42.901-118.587,95.833-118.587c23.487,0,45.001,10.453,61.663,27.808
							c2.853,2.962,5.552,6.117,8.092,9.466c8.31,10.891,14.958,23.723,19.454,37.89c3.426,10.753,5.611,22.274,6.354,34.297
							C283.216,224.607,283.309,227.65,283.309,230.725z"/>
					</g>
					<path fill="#A3D6EF" d="M283.095,221.598c-0.744-12.022-2.929-23.544-6.354-34.297c-4.497-14.167-11.146-26.999-19.455-37.89
						c-2.539-3.349-5.239-6.504-8.091-9.466c-2.047-2.131-4.166-4.156-6.353-6.072c2.785,2.907,5.428,5.997,7.914,9.277
						c8.31,10.89,14.958,23.722,19.455,37.889c3.425,10.753,5.609,22.274,6.353,34.297c0.186,3.01,0.277,6.053,0.277,9.127
						c0,65.486-42.908,118.578-95.84,118.578c-20.593,0-39.666-8.033-55.285-21.708c16.685,17.449,38.253,27.97,61.814,27.97
						c52.932,0,95.841-53.092,95.841-118.578C283.372,227.65,283.279,224.607,283.095,221.598z"/>
				</g>
				<g>
					<g>
						<path fill="#D9F5FC" d="M257.223,149.411L92.555,247.182c-0.506-4.507-0.81-9.095-0.886-13.746l157.462-93.49
							C251.983,142.907,254.683,146.063,257.223,149.411z"/>
					</g>
					<g>
						<path fill="#D9F5FC" d="M283.03,221.598l-161.099,95.642c-6.927-8.034-12.892-17.33-17.641-27.59l172.387-102.349
							C280.103,198.054,282.288,209.575,283.03,221.598z"/>
					</g>
				</g>
			</g>
		</g>
	</g>
</g>
</svg>
