<?xml version="1.0" encoding="utf-8"?>
<!-- Generator: Adobe Illustrator 16.0.0, SVG Export Plug-In . SVG Version: 6.00 Build 0)  -->
<!DOCTYPE svg PUBLIC "-//W3C//DTD SVG 1.1//EN" "http://www.w3.org/Graphics/SVG/1.1/DTD/svg11.dtd">
<svg version="1.1" id="Capa_1" xmlns="http://www.w3.org/2000/svg" xmlns:xlink="http://www.w3.org/1999/xlink" x="0px" y="0px"
	 width="400px" height="400px" viewBox="0 0 400 400" enable-background="new 0 0 400 400" xml:space="preserve">
<g>
	<g>
		<path fill-rule="evenodd" clip-rule="evenodd" fill="#9F714C" d="M131.907,191.047c-0.515,1.171-31.846,132.224-21.784,106.901
			c13.717-34.562,24.011-71.233,31.139-101.922C141.776,193.813,134.03,189.593,131.907,191.047L131.907,191.047z"/>
		<path fill-rule="evenodd" clip-rule="evenodd" fill="#9F714C" d="M266.885,191.047c0.516,1.171,31.847,132.224,21.784,106.901
			c-13.729-34.562-24.01-71.233-31.138-101.922C257.017,193.813,264.763,189.593,266.885,191.047L266.885,191.047z"/>
		<path fill-rule="evenodd" clip-rule="evenodd" fill="#9F714C" d="M205.663,213.462c0.205,1.261-3.179,135.659-6.396,108.472
			c-4.4-37.084-4.929-75.146-3.924-106.555C195.42,213.114,203.99,211.416,205.663,213.462L205.663,213.462z"/>
		<path fill-rule="evenodd" clip-rule="evenodd" fill="#8F6340" d="M103.638,184.769c7.013,57.979,193.537,44.404,193.1,0.103
			c-0.373-38.281-77.204-36.234-100.249-35.822C149.974,149.897,100.46,158.467,103.638,184.769L103.638,184.769z"/>
		<path fill-rule="evenodd" clip-rule="evenodd" fill="#E69846" d="M103.407,180.457c7.012,57.979,193.535,44.405,193.111,0.09
			c-0.373-38.28-77.216-36.221-100.249-35.81C149.741,145.587,100.229,154.157,103.407,180.457L103.407,180.457z"/>
	</g>
	<g>
		<path fill-rule="evenodd" clip-rule="evenodd" fill="#CAD3E6" d="M195.018,187.778c1.036,3.632,4.566,7.58,10.086,4.77
			c1.449-0.737,5.392-5.202,3.358-9.711L195.018,187.778z"/>
		<path fill-rule="evenodd" clip-rule="evenodd" fill="#8F6340" d="M171.575,184.292c4.473-3.876,18.455-14.543,20.032-7.395
			c0.957,4.337-1.005,3.962-0.965,3.007c0.433-10.132-14.644,2.232-19.024,6.242C170.99,186.722,170.889,186.092,171.575,184.292
			L171.575,184.292z"/>
		<path fill-rule="evenodd" clip-rule="evenodd" fill="#8F6340" d="M176.861,177.542c-3.91,0-6.213,3.941-6.155,7.652
			c0.067,4.337,4.268,11.372,11.647,7.612C186.987,190.446,190.988,177.542,176.861,177.542L176.861,177.542z M177.056,178.412
			c-3.496,0-5.551,3.522-5.498,6.837c0.058,3.876,3.812,10.159,10.404,6.8C186.102,189.941,189.676,178.412,177.056,178.412
			L177.056,178.412z"/>
		<path fill-rule="evenodd" clip-rule="evenodd" fill="#CAD3E6" d="M171.876,187.278c1.037,3.635,4.567,7.584,10.086,4.771
			c1.445-0.737,5.392-5.199,3.359-9.708L171.876,187.278z"/>
		<path fill-rule="evenodd" clip-rule="evenodd" fill="#8F6340" d="M203.576,177.931c3.914,0,6.213,3.942,6.155,7.653
			c-0.067,4.337-4.268,11.368-11.647,7.612C193.45,190.835,189.449,177.931,203.576,177.931L203.576,177.931z M203.385,178.802
			c3.493,0,5.548,3.521,5.499,6.837c-0.062,3.872-3.815,10.158-10.408,6.799C194.339,190.33,190.762,178.802,203.385,178.802
			L203.385,178.802z"/>
		<path fill-rule="evenodd" clip-rule="evenodd" fill="#8F6340" d="M186.445,184.329c0.73-3.08,6.067-4.64,7.951-0.606
			c0.575,1.233-0.075,2.186-0.444,1.152c-0.708-1.986-2.665-2.671-3.978-2.334c-1.635,0.418-3.17,2.926-3.341,2.784
			C186.625,185.319,186.445,184.329,186.445,184.329L186.445,184.329z"/>
		<path fill-rule="evenodd" clip-rule="evenodd" fill="#8F6340" d="M209.586,184.538c4.475-3.875,18.453-14.539,20.029-7.392
			c0.958,4.337-1.005,3.963-0.964,3.008c0.436-10.132-14.641,2.232-19.025,6.241C209,186.971,208.901,186.338,209.586,184.538
			L209.586,184.538z"/>
	</g>
</g>
</svg>
