<?xml version="1.0" encoding="utf-8"?>
<!-- Generator: Adobe Illustrator 16.0.0, SVG Export Plug-In . SVG Version: 6.00 Build 0)  -->
<!DOCTYPE svg PUBLIC "-//W3C//DTD SVG 1.1//EN" "http://www.w3.org/Graphics/SVG/1.1/DTD/svg11.dtd">
<svg version="1.1" id="Capa_1" xmlns="http://www.w3.org/2000/svg" xmlns:xlink="http://www.w3.org/1999/xlink" x="0px" y="0px"
	 width="400px" height="400px" viewBox="0 0 400 400" enable-background="new 0 0 400 400" xml:space="preserve">
<path fill="#6EA4B2" d="M242.287,204.037c-1.275,1.796-3.974,8.323-3.974,8.323s1.316-9.734,1.359-12.199
	c0.042-2.466-2.907-3.912-4.621-0.696c-1.715,3.214-3.816,11.093-3.816,11.093s-0.341-10.786-0.44-13.954
	c-0.1-3.164-3.63-3.772-4.867-0.806c-0.397,0.953-0.716,2.836-0.965,4.952c-1.947-2.669-4.3-5.383-6.727-6.994
	c-0.062-0.04-0.122-0.078-0.183-0.119c-0.229-4.598-1.395-9.391-3.039-14.886c-4.084-13.643,15.884-63.234-35.17-63.234
	c-37.894,0-34.035,41.579-31.313,53.057c1.995,8.414-3.689,17.062-4.275,28.499c-2.182,1.757-3.852,3.525-5.02,5.149
	c-3.003,4.173-6.099,14.974-6.806,17.533c-0.296,0.059-0.496,0.237-0.521,0.539c-0.066,0.804,1.047,1.551,1.633,2.029
	c0.44,0.358,0.896,0.697,1.364,1.022c-1.827,15.429-5.767,50.312-6.85,53.774c-1.357,4.341-2.766,5.525-3.112,8.647
	c-0.345,3.123,3.104,8.27,5.747,9.688c1.643,0.88,3.372,0.801,2.594-1.121c0,0,1.815,0.081,1.47-1.04
	c-0.345-1.121-1.514-2.042-2.118-3.884c-0.604-1.841,0.409-3.71,0.994-4.522c0.346-0.481-0.39,3.202,0.648,4.804
	c1.037,1.601,3.092,1.04,3.025-1.762c-0.088-3.683,0.432-6.806,0.864-9.768c0.639-4.385,10.609-38.559,13.112-49.416
	c0.163,0.422,0.356,0.839,0.576,1.277c0.017,0.031,0.037,0.056,0.057,0.076c0.305,3.766,0.924,10.106,1.967,15.081
	c1.546,7.377-4.909,27.655-7.502,32.885c-0.483,0.038-0.648,0.778-0.189,0.983c0.715,0.318,1.465,0.576,2.232,0.804
	c-1.385,5.052-3.971,15.076-6.639,26.466h77.333c-0.046-0.258-0.091-0.514-0.138-0.767c-1.771-9.59-4.001-18.844-5.976-26.256
	c0.872-0.341,1.719-0.732,2.529-1.193c1.085-0.617,0.246-2.13-0.822-1.821c-1.006-2.116-7.844-17.018-6.033-27.709
	c1.624-9.591,3.754-15.191,4.354-19.732c3.262,3.92,7.679,7.38,13.357,8.369c7.874,1.372,11.997-3.376,13.99-9.297
	c1.991-5.922,5.208-19.034,5.48-21.858C246.135,203.229,243.563,202.244,242.287,204.037z"/>
<g>
	<path fill="#528B98" d="M154.285,276.385c-0.028,0.041-0.1,0.244-0.207,0.596c-0.863,2.795-4.096,14.987-7.458,29.338h77.333
		c-0.045-0.258-0.09-0.514-0.137-0.767c-3.356-18.172-8.358-35.145-10.165-40.644C211.846,259.41,154.285,276.385,154.285,276.385z"
		/>
	<path fill="#763A37" d="M184.745,115.518c-36.051,0-32.379,41.578-29.79,53.056c2.591,11.478-8.419,23.389-2.158,42.229
		c6.26,18.84,53.535,16.458,61.953,3.682c8.419-12.778,7.34-22.09,3.454-35.733C214.318,165.108,233.314,115.518,184.745,115.518z"
		/>
	<path fill="#F7C2AF" d="M143.006,278.162c0.684-4.684,11.508-43.059,13.01-50.991l-15.34-11.098
		c-0.299,0.417-6.393,56.604-7.782,61.047c-1.357,4.341-2.765,5.525-3.111,8.647c-0.346,3.123,3.104,8.27,5.747,9.688
		c1.643,0.88,3.372,0.801,2.594-1.121c0,0,1.814,0.081,1.47-1.04c-0.346-1.121-1.514-2.042-2.118-3.884
		c-0.604-1.841,0.409-3.71,0.994-4.522c0.346-0.481-0.39,3.202,0.648,4.804c1.036,1.601,3.091,1.04,3.025-1.762
		C142.056,284.247,142.574,281.124,143.006,278.162z"/>
	<path fill="#EA5E5C" d="M167.506,188.204c-12.326,3.278-20.015,9.27-23.433,14.018c-3.416,4.748-6.956,18.089-6.956,18.089
		s10.251,7.8,19.404,6.556c0,0,0.61,10.74,2.196,18.314c1.587,7.574-5.262,28.755-7.701,33.277c0,0,39.856,11.427,68.657-1.913
		c0,0-8.111-16.442-6.159-27.973c1.952-11.531,4.638-17.297,4.516-22.384c0,0,17.347-6.928,16.657-17.607
		c0,0-5.581-10.82-11.614-14.825c-6.243-4.143-10.78-4.082-17.248-5.891c-6.468-1.81-25.75,0.226-26.237,0.339
		C179.099,188.317,167.506,188.204,167.506,188.204z"/>
	<path fill="#F7C2AF" d="M176.536,174.978c-0.122,0.339,0.366,4.86-0.854,7.801c-1.22,2.939-8.176,5.426-8.176,5.426
		s4.271,10.514,19.893,10.514s18.427-10.853,18.427-10.853s-7.444-2.147-9.03-5.087c-1.587-2.94-1.22-9.045-1.22-9.045
		L176.536,174.978z"/>
	<path fill="#F7C2AF" d="M231.226,237.209c-11.077-1.929-17.365-13.259-19.606-19.065c-2.242-5.807,1.845-6.738,3.604-4.674
		c1.761,2.063,6.236,5.815,8.19,6.349c0,0-0.342-3.159-1.366-8.764c-1.025-5.605-1.403-9.937-0.877-12.415
		c0.527-2.479,3.281-2.002,4.376,0.586c1.095,2.587,3.512,11.521,3.512,11.521s0.468-11.981,1.707-14.949
		c1.237-2.967,4.767-2.358,4.866,0.806c0.1,3.168,0.44,13.954,0.44,13.954s2.103-7.879,3.817-11.093
		c1.713-3.216,4.663-1.77,4.621,0.696c-0.044,2.465-1.36,12.199-1.36,12.199s2.698-6.527,3.974-8.323
		c1.274-1.793,3.849-0.808,3.573,2.017c-0.272,2.824-3.49,15.937-5.482,21.858C243.223,233.833,239.1,238.581,231.226,237.209z"/>
	<path fill="#F4A28C" d="M177.855,185.411c3.447-0.019,6.79-0.787,9.952-2.04c2.499-0.992,5.593-2.219,8.012-3.933
		c-0.421-2.776-0.244-5.705-0.244-5.705l-19.039,1.244c-0.122,0.339,0.366,4.86-0.854,7.8c-0.329,0.795-1.08,1.556-1.999,2.245
		C175.145,185.308,176.617,185.417,177.855,185.411z"/>
	<path fill="#F7C2AF" d="M164.698,149.965c0,0-3.905-0.303-4.394,4.221c-0.488,4.521,4.231,5.576,4.231,5.576
		s6.408,20.41,22.454,20.41c15.926,0,20.016-20.561,20.016-20.561s5.085-1.097,5.044-4.974s-4.557-4.824-4.557-4.824
		s-18.062-7.119-20.015-15.258C187.479,134.556,178.693,148.155,164.698,149.965z"/>
	<path fill="#F4A28C" d="M210.006,152.523c-0.351-0.178-0.741,0.03-1.026,0.226c-0.586,0.4-0.938,1.02-1.117,1.662
		c-0.094,0.334-0.143,0.68-0.162,1.022c-0.022,0.376-0.032,0.791,0.142,1.139c0.353,0.712,1.376,0.694,1.891,0.15
		c0.737-0.782,0.139-1.823-0.584-2.398c-0.123-0.099-0.284-0.137-0.435-0.112c0.085-0.216,0.197-0.422,0.346-0.606
		c0.141-0.174,0.317-0.324,0.52-0.436c0.103-0.056,0.201-0.094,0.314-0.126c0.037-0.011,0.071-0.021,0.108-0.027
		c0.028-0.005,0.062-0.012,0.091-0.011c-0.001,0.004-0.005,0.006-0.003,0.014c0.011,0.031,0.053,0.042,0.078,0.019
		C210.371,152.859,210.209,152.625,210.006,152.523z"/>
	<path fill="#F4A28C" d="M165.107,154.163c-0.075-0.525-0.219-1.062-0.539-1.508c-0.311-0.435-0.814-0.805-1.375-0.907
		c-0.264-0.048-0.561-0.067-0.813,0.032c-0.117,0.047-0.414,0.216-0.281,0.375c0.136,0.162,0.437,0.11,0.635,0.138
		c0.261,0.036,0.521,0.146,0.73,0.294c0.305,0.215,0.491,0.528,0.613,0.862c-0.145-0.076-0.317-0.095-0.53,0.001
		c-0.276,0.124-0.438,0.424-0.564,0.673c-0.134,0.264-0.24,0.539-0.302,0.823c-0.111,0.516-0.172,1.182,0.142,1.649
		c0.339,0.507,1.049,0.561,1.557,0.241c0.433-0.271,0.66-0.723,0.742-1.189C165.209,155.154,165.18,154.657,165.107,154.163z"/>
	<path fill="#8D4442" d="M183.845,126.689c-0.186-0.451-0.82-0.383-0.867,0.115c-0.086,0.916-0.964,1.71-1.493,2.438
		c-0.587,0.805-1.282,1.536-1.967,2.263c-1.384,1.473-2.867,2.832-4.402,4.151c-3.138,2.692-6.735,4.793-10.719,6.07
		c-1.097,0.354-2.211,0.655-3.341,0.881c-0.596,0.119-1.195,0.222-1.797,0.297c-0.576,0.071-1.234,0.021-1.713,0.38
		c-0.327,0.247-0.396,0.715,0,0.949c0.849,0.502,2.287,0.103,3.221-0.032c1.142-0.164,2.274-0.401,3.386-0.708
		c2.215-0.611,4.363-1.507,6.385-2.577c3.966-2.097,7.517-4.791,10.636-7.959c0.844-0.857,1.798-1.743,2.437-2.764
		C184.296,129.103,184.324,127.861,183.845,126.689z"/>
	<path fill="#8D4442" d="M181.546,122.516c-0.082-0.265-0.408-0.342-0.614-0.159c-0.192,0.171-0.298,0.375-0.462,0.565
		c-0.161,0.188-0.304,0.271-0.494,0.438c-0.437,0.383-0.791,0.896-1.156,1.345c-0.708,0.876-1.498,1.699-2.303,2.492
		c-1.604,1.583-3.28,3.073-5.106,4.411c-1.826,1.339-3.761,2.567-5.789,3.598c-1.05,0.533-2.124,1.023-3.221,1.46
		c-0.992,0.396-2.016,0.648-2.856,1.316c-0.068,0.056-0.035,0.193,0.057,0.205c0.878,0.115,1.621-0.096,2.456-0.344
		c0.902-0.267,1.794-0.563,2.673-0.894c1.742-0.65,3.481-1.396,5.117-2.272c3.339-1.789,6.457-4.089,9.065-6.799
		c0.724-0.753,1.542-1.544,2.081-2.435c0.262-0.435,0.517-0.942,0.558-1.449C181.589,123.526,181.689,122.972,181.546,122.516z"/>
	<path fill="#8D4442" d="M179.35,118.925c-0.371,0.273-0.738,0.402-1.115,0.663c-0.358,0.247-0.734,0.478-1.083,0.735
		c-0.756,0.556-1.461,1.214-2.156,1.839c-1.411,1.269-2.89,2.472-4.435,3.586c-1.521,1.1-3.09,2.155-4.69,3.145
		c-0.832,0.515-1.666,1.03-2.507,1.53c-0.703,0.417-1.66,0.846-2.021,1.608c-0.045,0.096-0.013,0.21,0.1,0.24
		c0.818,0.225,1.718-0.213,2.456-0.521c0.911-0.38,1.81-0.78,2.683-1.236c1.776-0.929,3.476-1.956,5.106-3.111
		c1.605-1.136,3.155-2.348,4.635-3.639c0.729-0.635,1.459-1.32,2.063-2.071c0.298-0.369,0.548-0.78,0.805-1.175
		c0.248-0.384,0.363-0.773,0.606-1.159C179.955,119.104,179.618,118.728,179.35,118.925z"/>
	<path fill="#8D4442" d="M210.281,140.202c-0.68-0.425-1.356-0.723-2.1-1.021c-0.77-0.31-1.615-0.447-2.415-0.681
		c-1.563-0.452-3.063-1.065-4.496-1.825c-2.922-1.549-5.509-3.661-7.578-6.198c-0.571-0.698-1.091-1.438-1.568-2.199
		c-0.243-0.385-0.475-0.772-0.726-1.152c-0.123-0.186-0.229-0.396-0.364-0.571c-0.153-0.199-0.368-0.306-0.541-0.485
		c-0.241-0.251-0.769-0.069-0.734,0.296c0.039,0.424,0.021,0.741,0.183,1.153c0.168,0.424,0.344,0.834,0.568,1.232
		c0.411,0.731,0.863,1.443,1.353,2.13c1.022,1.432,2.193,2.769,3.5,3.963c2.593,2.367,5.655,4.204,8.985,5.409
		c1.922,0.697,3.865,1.219,5.86,0.492C210.453,140.656,210.513,140.347,210.281,140.202z"/>
	<path fill="#8D4442" d="M212.128,134.522c-0.099-0.019-0.193-0.099-0.308-0.154c-0.224-0.109-0.455-0.098-0.691-0.158
		c-0.432-0.111-0.839-0.178-1.281-0.253c-0.942-0.157-1.852-0.415-2.736-0.771c-1.626-0.653-3.151-1.54-4.594-2.517
		c-1.472-0.994-2.831-2.142-4.11-3.361c-0.635-0.605-1.26-1.216-1.865-1.847c-0.306-0.317-0.612-0.611-0.947-0.9
		c-0.169-0.146-0.344-0.351-0.538-0.464c-0.146-0.085-0.297-0.081-0.446-0.162c-0.16-0.087-0.355,0.058-0.309,0.231
		c0.049,0.178,0.017,0.334,0.074,0.513c0.062,0.19,0.217,0.388,0.314,0.561c0.254,0.444,0.538,0.84,0.855,1.241
		c0.578,0.738,1.172,1.463,1.808,2.158c1.318,1.441,2.748,2.788,4.313,3.977c1.577,1.193,3.293,2.202,5.13,2.968
		c0.981,0.408,1.982,0.75,3.061,0.776c0.618,0.016,1.069-0.11,1.603-0.406c0.171-0.095,0.387-0.193,0.527-0.332
		c0.181-0.18,0.207-0.414,0.344-0.617C212.441,134.837,212.337,134.563,212.128,134.522z"/>
	<path fill="#8D4442" d="M210.697,128.291c-0.044-0.054-0.126-0.087-0.204-0.117c-0.032-0.026-0.069-0.058-0.12-0.103
		c-0.129-0.108-0.259-0.178-0.417-0.236c-1.971-0.726-3.841-1.558-5.666-2.582c-1.039-0.585-2.046-1.218-3.002-1.926
		c-0.931-0.69-1.938-1.278-2.906-1.917c-0.083-0.056-0.171,0.049-0.13,0.125c0.503,0.915,1.055,1.713,1.745,2.506
		c0.673,0.776,1.538,1.44,2.358,2.069c1.675,1.285,3.53,2.324,5.493,3.138c0.92,0.38,2.209,0.776,2.82-0.26
		C210.789,128.783,210.868,128.496,210.697,128.291z"/>
	<path fill="#8D4442" d="M162.19,175.347c-0.275-5.081-2.648-9.757-3.177-14.794c-0.152-1.461-0.178-2.922-0.17-4.39
		c0.011-1.452,0.195-2.938-0.329-4.315c-0.059-0.157-0.268-0.194-0.363-0.047c-0.732,1.105-0.817,2.323-0.961,3.608
		c-0.148,1.33-0.173,2.681-0.138,4.018c0.072,2.635,0.554,5.204,1.162,7.765c0.582,2.451,1.271,4.925,1.334,7.453
		c0.062,2.488-0.621,4.725-1.483,7.038c-0.454,1.215-0.909,2.445-1.119,3.727c-0.21,1.292-0.041,2.991,1.046,3.888
		c0.381,0.313,0.902,0.187,1.071-0.275c0.176-0.481,0.211-0.949,0.305-1.445c0.108-0.587,0.234-1.17,0.348-1.757
		c0.218-1.133,0.609-2.226,1.008-3.307C161.585,180.163,162.327,177.875,162.19,175.347z"/>
	<path fill="#8D4442" d="M168.668,177.538c-0.072-1.435-0.278-2.868-0.709-4.245c-0.214-0.692-0.471-1.387-0.799-2.035
		c-0.302-0.596-0.684-1.352-1.341-1.626c-0.283-0.117-0.721-0.056-0.785,0.313c-0.113,0.643,0.147,1.201,0.32,1.813
		c0.176,0.621,0.345,1.241,0.464,1.875c0.244,1.316,0.302,2.686,0.249,4.021c-0.056,1.457-0.187,2.906-0.431,4.347
		c-0.217,1.275-0.752,3.125,0.366,4.151c0.095,0.088,0.249,0.146,0.378,0.098c1.511-0.549,1.731-2.454,1.93-3.796
		C168.55,180.828,168.749,179.182,168.668,177.538z"/>
	<path fill="#8D4442" d="M173.051,178.229c-0.089-0.207-0.182-0.406-0.343-0.572c-0.23-0.238-0.651-0.31-0.905-0.063
		c-0.085,0.084-0.14,0.183-0.171,0.297c-0.01,0.058-0.015,0.115-0.021,0.173c-0.001,0.005-0.002,0.008-0.004,0.015
		c-0.043,0.135-0.094,0.269-0.137,0.403c-0.136,0.416-0.219,0.889-0.26,1.323c-0.036,0.389-0.099,0.78-0.078,1.169
		c0.007,0.14-0.002,0.312,0.041,0.44c0.026,0.062,0.053,0.122,0.079,0.183c0.033,0.064,0.035,0.071,0.008,0.017
		c0.02,0.094,0.023,0.188,0.043,0.282c0.018,0.085,0.088,0.179,0.085,0.265c-0.006,0.268,0.352,0.328,0.489,0.128
		c0.049-0.068,0.179-0.118,0.243-0.184c0.032-0.035,0.063-0.073,0.094-0.111c-0.002,0.003,0.11-0.143,0.075-0.1
		c0.037-0.044,0.255-0.216,0.33-0.331c0.059-0.086,0.105-0.182,0.154-0.273c0.254-0.475,0.396-1.114,0.42-1.647
		C173.215,179.173,173.233,178.672,173.051,178.229z"/>
	<path fill="#8D4442" d="M200.863,180.943c-0.128-0.438-0.247-0.882-0.322-1.332c-0.024-0.258-0.031-0.513-0.05-0.768
		c0.029-0.233-0.044-0.464-0.155-0.672c-0.159-0.295-0.516-0.476-0.85-0.476c-0.312,0-0.718,0.176-0.849,0.476
		c-0.056,0.126-0.122,0.251-0.164,0.383c-0.046,0.138-0.048,0.291-0.059,0.436c-0.012,0.131-0.018,0.262-0.019,0.394
		c-0.003,0.357,0.038,0.709,0.091,1.063c0.042,0.284,0.113,0.546,0.223,0.813c0.075,0.186,0.146,0.383,0.251,0.555
		c0.134,0.219,0.325,0.37,0.546,0.468c-0.004-0.001-0.009-0.002-0.011-0.003c0.05,0.024,0.092,0.059,0.141,0.087
		c0.191,0.114,0.421,0.148,0.639,0.091c0.134-0.035,0.254-0.105,0.353-0.201c0.14-0.136,0.22-0.322,0.233-0.515
		c0.006-0.013,0.012-0.022,0.017-0.037C200.949,181.455,200.938,181.192,200.863,180.943z"/>
	<path fill="#8D4442" d="M208.762,181.105c-0.354-1.273-0.68-2.559-0.935-3.854c-0.256-1.291-0.492-2.579-0.687-3.879
		c-0.093-0.623-0.209-3.159-1.418-2.738c-0.626,0.22-0.728,0.729-0.809,1.316c-0.089,0.659-0.137,1.314-0.134,1.979
		c0.003,1.356,0.114,2.712,0.316,4.054c0.194,1.312,0.452,2.608,0.81,3.888c0.265,0.949,0.983,3.186,2.402,2.803
		C209.725,184.292,209.019,182.02,208.762,181.105z"/>
	<path fill="#8D4442" d="M216.434,183.041c-1.416-4.595-1.816-9.332-1.583-14.109c0.135-2.771,0.35-5.535,0.274-8.313
		c-0.037-1.326-0.156-2.65-0.37-3.959c-0.109-0.673-0.248-1.334-0.455-1.984c-0.085-0.268-0.145-0.604-0.3-0.844
		c-0.16-0.245-0.465-0.332-0.696-0.499c-0.084-0.062-0.185,0.01-0.217,0.085c-0.105,0.265-0.308,0.449-0.325,0.741
		c-0.017,0.261,0.081,0.565,0.109,0.824c0.065,0.593,0.133,1.186,0.171,1.781c0.081,1.202,0.059,2.408-0.011,3.612
		c-0.146,2.496-0.547,4.966-0.8,7.452c-0.245,2.418-0.404,4.831-0.23,7.259c0.174,2.43,0.564,4.853,1.18,7.215
		c0.305,1.172,0.63,2.37,1.105,3.487c0.403,0.943,1.004,2.581,2.21,2.726C218.777,188.786,216.711,183.939,216.434,183.041z"/>
	<path fill="#F4A28C" d="M233.61,228.417c-0.317-1.167-0.882-2.314-1.531-3.355c-0.636-1.016-1.411-1.97-2.287-2.817
		c-0.448-0.436-0.929-0.816-1.45-1.175c-0.53-0.367-1.044-0.743-1.742-0.687c-0.397,0.033-0.692,0.336-0.59,0.718
		c0.154,0.573,0.586,0.884,1.011,1.29c0.408,0.389,0.804,0.796,1.181,1.212c0.709,0.786,1.299,1.673,1.781,2.595
		c0.481,0.918,0.79,1.889,1.05,2.878c0.279,1.063,0.157,2.481,1.21,3.182c0.367,0.245,0.855,0.099,1.163-0.139
		C234.454,231.315,233.892,229.453,233.61,228.417z"/>
	<path fill="#F4A28C" d="M137.5,293.187c-0.187-0.288-0.352-0.586-0.531-0.878c-0.395-0.649-0.776-1.306-1.047-2.008
		c-0.279-0.721-0.469-1.473-0.525-2.237c-0.027-0.384-0.021-0.765,0-1.148c0.022-0.401,0.134-0.808,0.12-1.206
		c-0.016-0.389-0.581-0.552-0.803-0.201c-0.435,0.69-0.457,1.701-0.423,2.479c0.041,0.881,0.222,1.761,0.526,2.595
		c0.284,0.771,0.657,1.511,1.134,2.194c0.386,0.555,0.961,1.37,1.717,1.443c0.082,0.008,0.139-0.066,0.144-0.133
		C137.846,293.718,137.7,293.498,137.5,293.187z"/>
	<path fill="#F4A28C" d="M244.919,218.981c-0.739-0.258-1.309,0.05-1.959,0.371c-0.675,0.333-1.396,0.57-2.142,0.721
		c-1.629,0.331-3.327,0.213-4.974,0.1c-1.491-0.103-2.991-0.256-4.429-0.65c-0.729-0.2-1.38-0.505-2.07-0.789
		c-0.279-0.116-1.008-0.4-1.151,0.063c-0.338,1.086,2.414,1.831,3.186,2.053c1.561,0.45,3.195,0.627,4.816,0.771
		c1.746,0.156,3.49,0.387,5.234,0.093c1.281-0.215,3.886-0.773,3.82-2.327C245.243,219.186,245.112,219.049,244.919,218.981z"/>
	<path fill="#41707A" d="M187.277,284.916c-0.931,0.131-0.935,1.359-0.972,1.883c-0.06,0.858-0.069,1.72-0.104,2.577
		c-0.069,1.752-0.117,3.505-0.161,5.258c-0.031,1.235-0.063,2.471-0.094,3.708c-0.024-0.02-0.052-0.037-0.076-0.057
		c-0.539-0.429-1.011-0.896-1.436-1.389c-0.855-0.994-1.481-2.065-1.93-3.19c-0.524-1.313-0.804-2.663-0.985-4.022
		c-0.098-0.715-0.163-1.435-0.212-2.152c-0.046-0.689,0.01-1.438-0.293-2.099c-0.22-0.481-1.162-0.506-1.369,0
		c-0.298,0.728-0.191,1.544-0.174,2.295c0.016,0.718,0.047,1.437,0.116,2.151c0.144,1.476,0.439,2.961,0.993,4.386
		c0.477,1.217,1.141,2.42,2.018,3.512c0.443,0.554,0.953,1.076,1.51,1.57c0.488,0.435,1.092,0.987,1.78,1.282
		c-0.015,0.613-0.03,1.228-0.046,1.84c-0.021,0.854-0.122,1.739,0.628,2.45c0.233,0.221,0.827,0.209,1.063,0
		c0.774-0.689,0.695-1.604,0.705-2.45c0.012-0.894,0.021-1.787,0.033-2.681c0.022-1.787,0.044-3.573,0.066-5.36
		c0.021-1.787,0.036-3.573,0.031-5.36C188.369,288.462,188.827,284.696,187.277,284.916z"/>
	<path fill="#41707A" d="M165.348,284.25c-0.394-1.161-1.508-0.125-1.939,0.433c-0.289,0.371-0.469,0.817-0.719,1.213
		c-0.285,0.447-0.604,0.878-0.951,1.284c-0.662,0.773-1.425,1.469-2.248,2.097c-0.972,0.739-2.03,1.391-3.11,1.984
		c-0.581,0.317-1.172,0.618-1.768,0.908c-0.214,0.105-0.933,0.354-0.848,0.678c0.27,1.021,1.989,0.479,2.636,0.213
		c1.086-0.443,2.154-0.942,3.168-1.514c1.93-1.087,3.686-2.534,4.909-4.302C165.094,286.354,165.713,285.332,165.348,284.25z"/>
	<path fill="#41707A" d="M217.208,290.58c-0.147-0.373-0.317-0.66-0.714-0.858c-0.294-0.148-0.632-0.248-0.951-0.339
		c-0.571-0.166-1.138-0.343-1.706-0.518c-1.087-0.335-2.137-0.741-3.114-1.3c-0.827-0.474-1.564-1.059-2.186-1.75
		c-0.308-0.34-0.581-0.705-0.814-1.093c-0.266-0.442-0.437-0.895-0.779-1.294c-0.316-0.37-1.067-0.165-1.158,0.283
		c-0.208,1.03,0.438,2.213,1.055,3.047c0.691,0.931,1.555,1.71,2.53,2.384c1.067,0.74,2.265,1.283,3.493,1.753
		c0.582,0.223,1.177,0.403,1.781,0.57c0.318,0.087,0.631,0.166,0.961,0.211c0.579,0.077,0.938-0.033,1.395-0.369
		C217.206,291.156,217.296,290.805,217.208,290.58z"/>
	<path fill="#A74542" d="M205.485,187.827c-0.506,0.462-0.759,1.104-1.129,1.659c-0.351,0.526-0.738,1.036-1.184,1.497
		c-0.913,0.947-2.075,1.781-3.21,2.487c-2.603,1.619-5.628,2.575-8.684,3.15c-5.911,1.112-12.54,0.955-17.66-2.323
		c-1.187-0.761-2.278-1.695-3.163-2.753c-0.948-1.137-1.491-2.399-2.137-3.687c-0.45-0.896-1.735-0.206-1.594,0.623
		c0.225,1.311,1.014,2.618,1.813,3.702c0.837,1.134,1.839,2.165,2.974,3.047c2.474,1.921,5.439,3.175,8.598,3.767
		c3.461,0.649,6.992,0.579,10.473,0.12c3.525-0.463,7.033-1.371,10.079-3.123c1.501-0.864,2.788-1.879,3.902-3.146
		c0.573-0.649,1.138-1.308,1.615-2.023c0.467-0.699,1.007-1.495,1.027-2.337C207.225,187.668,206.096,187.27,205.485,187.827z"/>
	<path fill="#A74542" d="M157.682,219.042c0.007-0.553-0.1-1.077-0.131-1.624c-0.009-0.153-0.241-0.231-0.329-0.081
		c-0.262,0.446-0.556,0.839-0.752,1.32c-0.213,0.519-0.35,1.046-0.476,1.587c-0.259,1.118-0.362,2.245-0.412,3.387
		c-0.035,0.788-0.046,1.58-0.006,2.37c-0.447-0.055-0.933-0.02-1.399-0.039c-0.848-0.036-1.695-0.107-2.534-0.229
		c-1.768-0.261-3.507-0.675-5.185-1.252c-1.625-0.558-3.182-1.286-4.647-2.142c-0.77-0.449-1.531-0.918-2.265-1.416
		c-0.586-0.397-1.415-1.27-2.198-1.186c-0.342,0.037-0.574,0.228-0.601,0.557c-0.065,0.804,1.047,1.551,1.633,2.029
		c0.692,0.566,1.415,1.099,2.183,1.573c1.6,0.991,3.314,1.802,5.101,2.465c1.766,0.655,3.608,1.142,5.486,1.426
		c0.927,0.14,1.862,0.243,2.799,0.299c0.611,0.036,1.332,0.133,1.934-0.017c0.196,0.664,0.477,1.283,0.813,1.953
		c0.145,0.289,0.546,0.104,0.577-0.144c0.126-1.038,0.297-2.001,0.25-3.055c-0.047-1.065-0.101-2.128-0.078-3.193
		c0.022-1.023,0.113-2.045,0.163-3.066C157.63,220.057,157.677,219.551,157.682,219.042z"/>
	<path fill="#E73E3A" d="M211.258,235.604c-0.028-0.57-0.493-1.036-1.126-1.043c-1.292-0.018-2.812-0.257-4.403,0.223
		c-2.087,0.627-3.797,1.11-6.023,0.899c-4.531-0.431-8.334-3.56-12.929-3.396c-4.32,0.153-7.11,3.917-11.338,4.076
		c-2.109,0.08-4.093-0.675-5.906-1.609c-1.757-0.905-3.027-2.396-4.805-3.234c-1.458-0.688-2.903,0.439-2.626,1.87
		c0.784,4.061,5.849,7.539,9.86,8.639c2.368,0.648,5.03,0.769,7.423,0.183c2.51-0.616,4.315-2.428,6.694-3.178
		c2.299-0.725,5.003,1.174,7.118,1.911c2.508,0.872,5.246,1.424,7.935,1.411C205.926,242.332,211.517,240.722,211.258,235.604z"/>
	<path fill="#A74542" d="M219.288,276.39c-3.585,2.026-7.897,2.528-11.952,3.235c-4.546,0.793-9.039,1.84-13.625,2.42
		c-4.582,0.58-9.237,0.532-13.849,0.324c-4.535-0.204-9.056-0.646-13.537-1.323c-2.546-0.384-5.076-0.842-7.59-1.376
		c-2.459-0.521-4.917-1.305-7.418-1.612c-0.565-0.069-0.782,0.771-0.289,0.991c2.062,0.917,4.419,1.365,6.634,1.862
		c2.241,0.504,4.497,0.949,6.766,1.334c4.564,0.773,9.18,1.305,13.809,1.593c4.679,0.292,9.401,0.402,14.075,0
		c4.729-0.408,9.443-1.215,14.114-2.002c4.698-0.792,9.8-1.373,13.944-3.733C221.542,277.436,220.471,275.721,219.288,276.39z"/>
	<g>
		<path fill="#763A37" d="M181.073,150.175c-0.297-0.943-1.454-1.413-2.365-1.75c-0.719-0.267-1.545-0.411-2.32-0.38
			c-0.743,0.03-1.506,0.193-2.148,0.549c-0.319,0.177-0.615,0.401-0.842,0.675c-0.272,0.327-0.369,0.761-0.396,1.166
			c-0.023,0.379,0.309,0.743,0.69,0.841c0.428,0.108,0.816-0.085,1.063-0.401c-0.014,0.018-0.021,0.027-0.028,0.037
			c0.009-0.01,0.021-0.022,0.038-0.038c0.023-0.021,0.05-0.043,0.075-0.064c0.004-0.004,0.006-0.004,0.011-0.007
			c0.097-0.066,0.194-0.135,0.281-0.213c0.007-0.004,0.008-0.007,0.013-0.011c0.029-0.019,0.059-0.037,0.088-0.054
			c0.056-0.032,0.114-0.057,0.17-0.087c0.034-0.019,0.047-0.025,0.051-0.03c0.086-0.023,0.194-0.042,0.231-0.052
			c0.067-0.015,0.135-0.026,0.2-0.042c0.129-0.028,0.046-0.023-0.019-0.011c0.101-0.021,0.292-0.009,0.357-0.009
			c0.112-0.001,0.223,0.005,0.333,0.012c0.03,0.007,0.177,0.024,0.19,0.028c0.152,0.027,0.303,0.063,0.451,0.103
			c0.15,0.039,0.298,0.086,0.444,0.133c0.065,0.021,0.13,0.043,0.194,0.065c0.014,0.004,0.02,0.006,0.03,0.009c0,0,0,0,0.001,0
			c0.279,0.129,0.554,0.257,0.817,0.415c0.415,0.252,0.766,0.424,1.271,0.473C180.713,151.607,181.266,150.787,181.073,150.175z"/>
		<path fill="#763A37" d="M174.727,150.911C174.698,150.938,174.7,150.941,174.727,150.911L174.727,150.911z"/>
	</g>
	<g>
		<path fill="#763A37" d="M193.286,151.531c0.506-0.049,0.855-0.221,1.271-0.473c0.263-0.158,0.537-0.286,0.817-0.415
			c0.001,0,0.001,0,0.001,0c0.011-0.003,0.016-0.005,0.029-0.009c0.065-0.022,0.129-0.044,0.194-0.065
			c0.147-0.047,0.295-0.094,0.444-0.133c0.148-0.04,0.3-0.075,0.452-0.103c0.014-0.004,0.159-0.021,0.189-0.028
			c0.11-0.007,0.222-0.013,0.334-0.012c0.064,0,0.256-0.013,0.356,0.009c-0.065-0.013-0.146-0.018-0.019,0.011
			c0.067,0.016,0.135,0.027,0.2,0.042c0.038,0.01,0.146,0.028,0.231,0.052c0.006,0.005,0.018,0.012,0.051,0.03
			c0.057,0.03,0.114,0.055,0.17,0.087c0.029,0.017,0.059,0.035,0.088,0.054c0.005,0.004,0.006,0.007,0.014,0.011
			c0.086,0.078,0.184,0.146,0.281,0.213c0.004,0.003,0.005,0.003,0.011,0.007c0.023,0.021,0.05,0.043,0.075,0.064
			c0.017,0.016,0.029,0.028,0.038,0.038c-0.008-0.01-0.016-0.02-0.029-0.037c0.246,0.316,0.635,0.51,1.063,0.401
			c0.381-0.098,0.713-0.462,0.69-0.841c-0.025-0.405-0.122-0.839-0.395-1.166c-0.228-0.273-0.523-0.498-0.841-0.675
			c-0.645-0.355-1.407-0.519-2.149-0.549c-0.775-0.031-1.603,0.113-2.322,0.38c-0.909,0.337-2.068,0.807-2.364,1.75
			C191.976,150.787,192.53,151.607,193.286,151.531z"/>
		<path fill="#763A37" d="M198.517,150.911C198.544,150.938,198.543,150.941,198.517,150.911L198.517,150.911z"/>
	</g>
	<path fill="#763A37" d="M194.414,156.255c0.021-0.885,0.272-1.984,1.12-2.317c0.136-0.053,0.271-0.105,0.404-0.158
		c0.227-0.065,0.45-0.074,0.676-0.028c0.151,0.001,0.294,0.037,0.427,0.108c0.209,0.063,0.391,0.171,0.545,0.323
		c0.646,0.646,0.749,1.645,0.67,2.482c-0.067,0.716-0.274,1.967-1.094,2.287c-0.123,0.049-0.246,0.097-0.369,0.145
		c-0.206,0.061-0.412,0.069-0.619,0.026c-1.146-0.239-1.647-1.3-1.74-2.293C194.417,156.66,194.41,156.462,194.414,156.255z"/>
	<path fill="#763A37" d="M175.718,156.255c0.02-0.885,0.272-1.984,1.12-2.317c0.135-0.053,0.27-0.105,0.403-0.158
		c0.225-0.065,0.45-0.074,0.674-0.028c0.153,0.001,0.296,0.037,0.428,0.108c0.21,0.063,0.391,0.171,0.544,0.323
		c0.648,0.646,0.75,1.645,0.671,2.482c-0.066,0.716-0.272,1.967-1.092,2.287c-0.125,0.049-0.247,0.097-0.37,0.145
		c-0.207,0.061-0.412,0.069-0.618,0.026c-1.149-0.239-1.647-1.3-1.741-2.293C175.72,156.66,175.711,156.462,175.718,156.255z"/>
	<path fill="#F4A28C" d="M189.07,162.638c-0.369-0.002-0.607,0.184-0.91,0.339c-0.097,0.049-0.194,0.097-0.293,0.146
		c-0.047,0.023-0.099,0.046-0.146,0.067c-0.01,0.005-0.011,0.005-0.018,0.009c-0.007,0.001-0.009,0.001-0.019,0.005
		c-0.21,0.068-0.422,0.129-0.642,0.167c-0.011,0.002-0.051,0.008-0.084,0.013c-0.034,0.004-0.078,0.008-0.09,0.009
		c-0.123,0.009-0.245,0.014-0.368,0.013c-0.11-0.002-0.222-0.019-0.333-0.017c-0.004,0-0.005,0-0.008,0
		c-0.004-0.001-0.007-0.002-0.013-0.002c-0.103-0.016-0.204-0.029-0.308-0.04c-0.053-0.006-0.108-0.011-0.161-0.014
		c0.17,0.008-0.037-0.006-0.063-0.011c-0.108-0.019-0.216-0.042-0.321-0.068c-0.203-0.052-0.452-0.118-0.62-0.141
		c-0.147-0.019-0.501-0.029-0.554,0.161c-0.143,0.519,0.382,0.925,0.807,1.176c0.515,0.304,1.067,0.433,1.674,0.474
		c0.536,0.035,1.1-0.026,1.614-0.17c0.281-0.08,0.573-0.181,0.822-0.325c0.337-0.197,0.742-0.448,0.814-0.84
		C189.937,163.112,189.641,162.642,189.07,162.638z"/>
	<path fill="#EE735E" d="M189.313,167.833c-0.998-0.338-2.058-0.446-3.103-0.263c-0.474,0.083-0.981,0.25-1.37,0.516
		c-0.225,0.154-0.449,0.313-0.637,0.506c-0.256,0.268-0.406,0.581-0.503,0.924c-0.249,0.873,0.829,1.727,1.7,1.21
		c0.142-0.083,0.3-0.139,0.439-0.225c0.063-0.038,0.126-0.077,0.19-0.11c0.044-0.023,0.089-0.043,0.135-0.066
		c0.015-0.008,0.025-0.014,0.034-0.018c0.055-0.021,0.108-0.043,0.164-0.064c-0.105,0.045,0.095-0.03,0.144-0.044
		c0.087-0.024,0.175-0.047,0.264-0.064c0.019-0.004,0.037-0.007,0.055-0.01c0.156-0.01,0.311-0.017,0.468-0.009
		c0.027,0.002,0.055,0.004,0.082,0.006c0.099,0.04,0.266,0.045,0.364,0.067c0.434,0.101,0.838,0.286,1.274,0.371
		c0.457,0.091,0.909,0.064,1.303-0.188c0.347-0.223,0.56-0.497,0.56-0.903C190.875,168.6,190.107,168.102,189.313,167.833z"/>
	<path fill="#8D4442" d="M214.221,148.745c-2.348,0.042-4.581-0.316-6.831-0.93c-1.119-0.303-2.237-0.631-3.33-1.013
		c-1-0.35-1.89-0.856-2.77-1.412c-0.9-0.568-1.802-1.099-2.784-1.539c-0.892-0.397-1.778-0.786-2.621-1.271
		c-1.586-0.913-3.002-2.063-4.211-3.385c-0.688-0.754-1.294-1.569-1.824-2.427c-0.252-0.409-0.476-0.828-0.7-1.25
		c-0.244-0.461-0.404-0.953-0.932-1.182c-0.006-0.003-0.014-0.003-0.019-0.006c0.002-0.109-0.006-0.224-0.032-0.345
		c-0.066-0.308-0.51-0.465-0.786-0.298c-0.478,0.287-0.638,0.654-0.922,1.096c-0.316,0.49-0.679,0.953-1.049,1.409
		c-0.718,0.891-1.447,1.774-2.214,2.63c-1.515,1.688-3.286,3.12-5.174,4.434c-0.914,0.635-1.832,1.271-2.775,1.866
		c-1.018,0.643-2.103,1.063-3.259,1.438c-2.39,0.771-4.792,1.485-7.288,1.891c-1.292,0.209-2.608,0.286-3.919,0.242
		c-0.664-0.022-1.318-0.108-1.979-0.159c-0.63-0.05-1.245-0.206-1.874-0.126c-0.166,0.021-0.185,0.229-0.091,0.325
		c0.75,0.767,2.189,1.008,3.242,1.14c1.25,0.155,2.505,0.164,3.761,0.057c2.648-0.225,5.2-0.94,7.71-1.729
		c1.226-0.387,2.486-0.752,3.62-1.347c1.037-0.543,1.992-1.241,2.952-1.892c2.034-1.38,4.023-2.83,5.694-4.592
		c0.929-0.979,1.767-2.028,2.602-3.077c0.399-0.502,0.8-1.004,1.156-1.534c0.17,0.462,0.454,0.915,0.672,1.306
		c0.453,0.809,0.978,1.585,1.563,2.316c1.206,1.509,2.634,2.832,4.272,3.934c1.758,1.183,3.806,1.854,5.595,2.978
		c0.923,0.58,1.814,1.205,2.826,1.646c1.114,0.482,2.295,0.834,3.462,1.183c2.628,0.785,5.472,1.48,8.255,1.213
		C215.288,150.23,215.342,148.726,214.221,148.745z"/>
	<ellipse fill="#F49F95" cx="172.078" cy="160.998" rx="3.345" ry="2.33"/>
	<ellipse fill="#F49F95" cx="201.3" cy="160.998" rx="3.345" ry="2.33"/>
</g>
<g>
	<path fill="#FFFFFF" d="M287.378,129.877c-2.396-2.005-5.193-3.603-8.17-4.725c-3.065-1.157-6.382-1.727-9.67-1.926
		c-6.541-0.398-12.978,0.694-18.933,3.217c-5.881,2.491-11.158,6.332-15.148,11.073c-4.048,4.812-6.813,10.507-8.234,16.481
		c-1.099,4.624-1.322,9.688-1.129,14.409c0.095,2.299,0.09,5.287,1.29,7.383c1.287,2.248,3.613,3.287,4.671-0.039
		c0.009-0.031,0.015-0.048,0.019-0.065c0.008-0.014,0.017-0.026,0.03-0.053c0.079-0.147,0.161-0.292,0.249-0.437
		c0.021-0.033,0.045-0.065,0.067-0.098c0.146-0.119,0.259-0.287,0.396-0.417c0.099-0.095,0.206-0.182,0.312-0.273
		c0.064-0.04,0.125-0.088,0.188-0.129c0.3-0.201,0.615-0.381,0.939-0.546c0.141-0.072,0.284-0.141,0.429-0.206
		c0.061-0.029,0.123-0.056,0.184-0.083c0.006-0.001,0.008-0.002,0.014-0.004c0.355-0.125,0.703-0.263,1.063-0.381
		c1.732-0.561,3.531-0.972,5.315-1.354c9.632-2.069,19.744-0.034,29.287-2.646c7.687-2.104,15.457-6.387,20.262-12.478
		C297.415,148.209,295.644,136.796,287.378,129.877z"/>
	<g>
		<path fill="#5B838C" d="M254.759,140.651c-0.021-0.097-0.049-0.19-0.072-0.285c-0.001-0.009-0.001-0.017-0.002-0.024
			c-0.001,0.001-0.002,0.002-0.004,0.002c-0.04-0.159-0.078-0.318-0.119-0.477c-0.18-0.683-1.089-1.123-1.768-1.143
			c-0.729-0.021-1.586,0.372-1.852,1.051c-0.293,0.748-0.315,1.518-0.35,2.309c-0.037,0.827-0.055,1.654-0.042,2.481
			c0.022,1.428,0.125,2.853,0.227,4.276c0.056,0.788,0.109,1.578,0.153,2.368c-0.652-0.952-1.307-1.904-1.955-2.859
			c-0.887-1.312-1.776-2.623-2.664-3.935c-0.443-0.655-0.889-1.312-1.333-1.967c-0.406-0.6-0.846-1.213-1.502-1.604
			c-1.329-0.791-2.737-0.277-3.183,1.11c-0.423,1.323-0.325,2.751-0.099,4.099c0.239,1.407,0.516,2.802,0.667,4.221
			c0.15,1.43,0.213,2.865,0.215,4.302c0.002,0.749-0.01,1.191-0.053,1.884c-0.061,1.018-0.081,1.852,0.565,2.72
			c0.598,0.802,1.695,0.646,2.353,0.057c0.696-0.621,0.854-1.428,0.921-2.288c0.063-0.805,0.097-1.613,0.117-2.421
			c0.037-1.436-0.025-2.873-0.164-4.304c-0.049-0.486-0.111-0.97-0.181-1.453c0.432,0.637,0.864,1.276,1.298,1.912
			c1.759,2.591,3.488,5.199,5.231,7.8c0.916,1.368,3.386,0.738,3.609-0.79c0.426-2.924,0.273-5.885,0.074-8.818
			c-0.094-1.392-0.192-2.782-0.24-4.173c-0.024-0.729-0.035-1.458-0.013-2.187c0.001-0.118,0.001-0.14,0-0.061
			c-0.003,0.112,0,0.058,0.009-0.164c0.011-0.173,0.021-0.347,0.031-0.52c0.01-0.122,0.021-0.247,0.034-0.371
			C254.772,141.164,254.813,140.909,254.759,140.651z"/>
		<path fill="#5B838C" d="M274.204,145.203c-0.556-2.139-1.619-4.138-3.385-5.641c-1.856-1.581-4.559-2.418-7.041-1.864
			c-1.247,0.276-2.318,0.841-3.239,1.657c-0.122,0.036-0.235,0.073-0.323,0.114c-0.243,0.106-0.65,0.331-0.938,0.594
			c-0.198,0.183-0.401,0.368-0.579,0.568c-0.662,0.745-1.141,1.732-1.469,2.644c-0.722,2-0.943,4.118-0.484,6.195
			c0.849,3.857,3.752,8.64,8.544,8.831c2.122,0.086,4.248-0.557,5.869-1.85c1.717-1.369,2.78-3.183,3.26-5.225
			C274.887,149.24,274.711,147.164,274.204,145.203z M270.578,149.075c-0.005,0.074-0.009,0.149-0.015,0.225
			c-0.02,0.232-0.047,0.465-0.084,0.695c-0.055,0.347-0.157,0.68-0.225,1.022c-0.002,0.012-0.003,0.019-0.005,0.028
			c-0.03,0.081-0.059,0.163-0.09,0.243c-0.075,0.19-0.158,0.377-0.248,0.561c-0.078,0.157-0.162,0.313-0.251,0.465
			c-0.038,0.063-0.076,0.127-0.116,0.19c-0.011,0.016-0.021,0.03-0.039,0.052c-0.219,0.277-0.463,0.525-0.703,0.786
			c-0.063,0.051-0.124,0.103-0.189,0.151c-0.131,0.102-0.268,0.198-0.407,0.29c-0.139,0.091-0.284,0.175-0.429,0.26
			c-0.005,0.004-0.02,0.011-0.035,0.02c-0.082,0.034-0.254,0.112-0.254,0.112c-0.261,0.107-0.527,0.188-0.797,0.269
			c0.029-0.01-0.146,0.039-0.277,0.06c-0.221,0.031-0.44,0.043-0.662,0.059c-0.035,0.004-0.052,0.004-0.072,0.007
			c-0.015-0.002-0.022-0.003-0.044-0.005c-0.165-0.019-0.329-0.034-0.493-0.063c-0.089-0.016-0.177-0.038-0.265-0.055
			c-0.185-0.073-0.373-0.136-0.556-0.221c-0.067-0.031-0.259-0.144-0.287-0.156c-0.151-0.101-0.3-0.2-0.441-0.311
			c-0.146-0.112-0.283-0.231-0.42-0.352c-0.009-0.008-0.014-0.012-0.021-0.018c-0.068-0.071-0.138-0.143-0.204-0.217
			c-0.264-0.291-0.509-0.601-0.735-0.921c-0.113-0.159-0.223-0.319-0.327-0.484c-0.013-0.021-0.102-0.17-0.139-0.229
			c-0.035-0.066-0.096-0.18-0.104-0.197c-0.185-0.349-0.349-0.705-0.495-1.068c-0.085-0.212-0.164-0.425-0.235-0.641
			c-0.032-0.093-0.061-0.186-0.088-0.279c-0.007-0.02-0.047-0.166-0.064-0.232c-0.013-0.055-0.029-0.126-0.029-0.127
			c-0.025-0.127-0.052-0.253-0.074-0.38c-0.044-0.254-0.081-0.511-0.105-0.767c-0.022-0.225-0.035-0.45-0.042-0.675
			c-0.002-0.097-0.002-0.193-0.004-0.29c0-0.042,0-0.082,0-0.124c0-0.009,0-0.014,0.002-0.024c0.029-0.408,0.078-0.812,0.157-1.212
			c0.046-0.229,0.1-0.456,0.162-0.682c0.02-0.071,0.04-0.143,0.063-0.214c0.009-0.024,0.019-0.054,0.03-0.083
			c0.162-0.425,0.361-0.831,0.574-1.23c0.478-0.085,0.906-0.331,1.246-0.695c0.033-0.034,0.064-0.072,0.097-0.108l0,0
			c0.234-0.108,0.408-0.309,0.595-0.482c0.047-0.03,0.22-0.159,0.292-0.209c0.035-0.022,0.174-0.105,0.257-0.157
			c0.085-0.035,0.258-0.115,0.304-0.132c0.077-0.028,0.156-0.058,0.236-0.082c0.014-0.005,0.188-0.044,0.271-0.065
			c0.096-0.013,0.221-0.027,0.256-0.031c0.059-0.006,0.297-0.013,0.381-0.018c0.029,0.001,0.055,0.003,0.063,0.004
			c0.121,0.016,0.241,0.026,0.361,0.045c0.09,0.015,0.178,0.03,0.268,0.049c0.019,0.004,0.108,0.025,0.177,0.04
			c0.085,0.031,0.302,0.102,0.355,0.122c0.198,0.077,0.388,0.168,0.579,0.258c0.05,0.022,0.079,0.034,0.1,0.042
			c0.017,0.014,0.042,0.031,0.081,0.058c0.177,0.116,0.349,0.235,0.515,0.362c0.135,0.104,0.262,0.216,0.39,0.329
			c0.02,0.025,0.189,0.193,0.241,0.252c0.278,0.318,0.531,0.66,0.754,1.014c0.022,0.046,0.139,0.246,0.166,0.299
			c0.086,0.17,0.168,0.343,0.245,0.518c0.18,0.41,0.331,0.829,0.46,1.254c0.026,0.093,0.132,0.537,0.066,0.234
			c0.045,0.205,0.092,0.408,0.131,0.616c0.07,0.375,0.123,0.755,0.157,1.136C270.569,148.334,270.575,148.703,270.578,149.075z"/>
		<path fill="#5B838C" d="M282.278,137.594c-0.368-1.126-1.384-2.202-2.76-2.108c-1.571,0.107-2.171,1.501-2.546,2.704
			c-0.618,1.986-0.406,4.137,0.063,6.129c0.306,1.295,0.726,2.557,1.085,3.838c0.162,0.578,0.308,1.165,0.438,1.751
			c0.147,0.665,0.342,1.449,0.796,2.001c0.244,0.293,0.66,0.429,1.037,0.365c0.802,0.205,1.913-0.128,2.194-0.933
			c0.77-2.199,0.851-4.74,0.803-7.034C283.342,142.074,282.979,139.733,282.278,137.594z"/>
		<path fill="#5B838C" d="M283.473,155.176c-0.025-0.134-0.061-0.266-0.099-0.39c-0.055-0.182-0.171-0.346-0.269-0.506
			c-0.04-0.065-0.085-0.125-0.14-0.181c-0.131-0.135-0.262-0.282-0.427-0.384c-0.131-0.078-0.264-0.167-0.408-0.227
			c-0.144-0.062-0.305-0.099-0.456-0.136c-0.037-0.009-0.074-0.018-0.113-0.021c-0.079-0.008-0.166-0.007-0.241-0.009
			c-0.078-0.002-0.169-0.01-0.252-0.005c-0.098,0.005-0.199,0.035-0.291,0.057c-0.097,0.021-0.197,0.035-0.288,0.074
			c-0.137,0.059-0.275,0.128-0.4,0.205c-0.081,0.048-0.148,0.119-0.217,0.178c-0.068,0.061-0.146,0.121-0.205,0.19
			c-0.096,0.115-0.176,0.248-0.254,0.374c-0.01,0.016-0.019,0.031-0.025,0.047c-0.013,0.022-0.11,0.312-0.114,0.339
			c-0.001,0.01-0.002,0.02-0.003,0.029c-0.01,0.151-0.01,0.302-0.012,0.452c0.021,0.189,0.094,0.359,0.195,0.52
			c-0.01,0.095-0.011,0.19,0.002,0.288c0.036,0.138,0.072,0.276,0.108,0.414c0.004,0.015,0.009,0.026,0.015,0.039
			c0.003,0.009,0.008,0.017,0.013,0.025c0.071,0.121,0.142,0.241,0.213,0.361c0.009,0.012,0.015,0.023,0.023,0.034
			c0.098,0.126,0.217,0.249,0.351,0.343c0.113,0.079,0.271,0.167,0.396,0.229c0.012,0.007,0.024,0.013,0.037,0.019
			c0.144,0.065,0.343,0.12,0.518,0.138c0.369,0.04,0.474,0.027,0.785-0.042c0.112-0.024,0.229-0.04,0.334-0.087
			c0.389-0.177,0.474-0.23,0.771-0.521c0.152-0.151,0.273-0.338,0.359-0.525c0.128-0.277,0.241-0.656,0.183-0.962
			C283.538,155.416,283.51,155.295,283.473,155.176z"/>
	</g>
</g>
</svg>
