<?xml version="1.0" encoding="utf-8"?>
<!-- Generator: Adobe Illustrator 16.0.0, SVG Export Plug-In . SVG Version: 6.00 Build 0)  -->
<!DOCTYPE svg PUBLIC "-//W3C//DTD SVG 1.1//EN" "http://www.w3.org/Graphics/SVG/1.1/DTD/svg11.dtd">
<svg version="1.1" id="Capa_1" xmlns="http://www.w3.org/2000/svg" xmlns:xlink="http://www.w3.org/1999/xlink" x="0px" y="0px"
	 width="400px" height="400px" viewBox="0 0 400 400" enable-background="new 0 0 400 400" xml:space="preserve">
<g>
	<g>
		<path fill="#2D2D2D" d="M255.373,134.499c-9.002-1.886-17.043-8.909-25.891-8.229c-1.811,0-3.016,5.437-4.766,8.711
			c-0.52,1.094-0.863,1.822-0.863,1.822c-0.061,0.168-0.119,0.335-0.178,0.502l-0.125-0.049c-0.168,0.636-0.348,1.272-0.527,1.907
			c-1.721,4.895-3.445,9.802-4.846,14.821c-0.928,3.32-2.281,7.723-1.4,11.328c0.135,1.145,0.48,2.234,1.17,3.16
			c1.525,2.046,4.143,2.7,6.377,3.057c0.58,0.092,1.191,0.178,1.826,0.249c2.072,0.319,4.24,0.372,6.328-0.011
			c1.928-0.292,3.754-0.921,5.217-2.088c0.139-0.111,0.271-0.233,0.404-0.354c1.006-0.775,1.889-1.696,2.674-2.725
			c0.785-1.029,1.471-2.166,2.102-3.379c0.582-1.327,1.201-2.613,1.855-3.867c3.25-6.355,9.08-9.752,13.504-15.189
			c1.811-2.265,3.82-6.116,0.885-8.316C258.16,135.252,256.834,134.877,255.373,134.499z"/>
		<path fill="#FFFFFF" d="M223.049,142.24c1.047-0.128,1.979,0.568,3.008,0.584c-1.912,3.511-2.953,7.999-3.787,11.953
			c-0.643,3.041-1.207,6.298-1.52,9.404c-0.107,1.062,0.021,2.195,0.375,3.188c-3.209-0.644-3.574-3.908-3.262-7.043
			c0.482-4.823,2.053-9.604,3.514-14.146c0.393-1.225,0.789-2.922,1.672-3.826V142.24z"/>
		<path fill="#444445" d="M223.248,167.16c3.6,1.409,8.184,1.142,11.684-0.682c4.359-2.272,7.473-7.881,9.225-12.708
			c0.867-2.395,1.482-4.853,1.82-7.409c-1.754,4.405-5.047,8.663-8.295,11.701c-3.166,2.963-7.104,5.807-10.992,7.388
			c-1.211,0.492-2.477,0.6-3.541,1.483L223.248,167.16z"/>
		<path fill="#444445" d="M232.564,118.643c1.199-1.434,5.492-0.979,7.221-0.883c-0.842,1.61-2.135,2.979-3.205,4.394
			c-0.904,1.193-1.621,2.838-2.746,1.394c-0.824-1.055-1.709-4.917-0.063-5.508L232.564,118.643z"/>
		<path fill="#444445" d="M302.988,173.181c4.568,9.896-13.174,13.135-18.59,14.482c-6.979,1.736-13.477,3.481-20.719,3.904
			c-6.813,0.398-13.631-0.075-18.35-5.328c-8.75-9.732,19.826-7.695,23.986-7.709c10.613-0.033,23.379-5.47,33.547-2.031
			L302.988,173.181z"/>
		<path fill="#161616" d="M221.707,138.125c6.582,0.48,13.844-2.01,19.67-5.45c1.51-0.891,3.5-2.402,5.24-1.795
			c2.281,0.795,4.127,2.087,6.617,2.371c1.941,0.222,3.977,0.829,5.32,2.575c-4.486,2.792-8.9,3.684-13.916,4.511
			c-2.611,0.431-5.148,1.121-7.803,1.143c-3.861,0.03-7.99-0.238-11.596-1.843c-1.004-0.446-2.994-0.708-3.533-1.813V138.125z"/>
		<path fill="#444445" d="M243.98,159.576c-2.066,2.296-3.883,4.788-4.846,7.924c-1.445,5.381,0.486,10.277,3.771,14.014
			C239.262,174.834,240.059,165.984,243.98,159.576z"/>
		<path fill="#981B37" d="M308.967,123.739c-1.471-3.359-3.48-6.303-5.576-9.322c-1.049-1.395-2.154-2.704-3.326-3.929
			c-3.506-3.666-7.605-6.576-12.186-8.317c-1.207-0.535-2.434-1.013-3.66-1.427c-2.455-0.829-4.91-1.403-7.199-1.675
			c-8.83-1.05-17.861,1.029-25.996,4.874c-4.131,1.954-20.953,12.21-16.195,19.781c1.301,2.069,3.969,3.275,5.811,4.623
			c3.078,2.251,9.008,4.199,10.607,8.074c0.559,1.353,0.822,2.951,0.895,4.617c0.07,1.668-0.051,3.402-0.27,5.026
			c0.131,2.858-0.674,5.577-2.281,7.616c-1.787,2.014-3.795,3.878-5.609,5.896c-3.922,6.408-4.719,15.259-1.074,21.938
			c2.662,3.026,6.213,5.291,9.578,6.434c1.029,0.454,2.07,0.78,3.125,1.004c5.273,1.121,10.891-0.326,16.133-1.014
			c6.18-0.81,12.707-1.383,18.578-3.867c1.432-0.607,3.186-0.594,4.523-1.216c1.803-0.838,3.455-2.558,5.051-3.762
			c2.383-1.797,4.387-3.916,6.051-6.28c0.83-1.181,1.578-2.423,2.256-3.703c5.729-12.03,6.936-26.756,3.066-39.602
			C310.623,127.504,309.85,125.571,308.967,123.739z"/>
		<path fill="#750F29" d="M247.455,139.497c-0.354,2.15,1.51,3.795,1.842,5.785c0.779,4.685-3.773,7.506-3.518,11.607
			c0.221,3.52,3.82,4.038,6.154,4.544c3.316,0.718,6.691,1.118,10.051,1.403c5.9,0.499,12.066,2.711,17.986,1.963
			c5.867-0.74,9.242-5.846,6.221-12.068c-3.033-6.256-9.529-10.979-14.787-14.64c-3.943-2.744-8.336-3.597-12.904-3.1
			C255.695,135.294,248.156,135.234,247.455,139.497z"/>
		<path fill="#2D2D2D" d="M245.568,131.027c-4.146,1.906-8.324,3.291-12.627,4.642c-3.281,1.028-6.727,3.238-10.191,3.164
			c-3.406-0.072-5.486-3.167-4.121-6.805c1.381-3.679,4.637-6.424,6.904-9.404c2.385-3.137,4.375-4.196,8.061-4.374
			c-0.939,0.892-1.512,1.611-0.756,2.834c0.664,1.073,1.688,2.083,2.533,2.966c1.844,1.924,4.293,3.214,6.438,4.669
			c1.055,0.715,2.248,1.754,3.457,2.081L245.568,131.027z"/>
		<path fill="#A52A4C" d="M249.305,143.021c1.906,3.813-0.625,8.847,2.904,11.907c2.701,2.343,6.744,2.774,9.998,3.252
			c4.418,0.648,8.896,1.071,13.35,1.212c1.969,0.063,5.914,0.609,7.369-1.419c1.266-1.767-0.262-4.637-1.094-6.214
			c-1.58-2.989-3.666-5.699-6.002-7.971c-1.996-1.941-4.277-3.479-6.682-4.689c-2.045-1.029-4.68-2.271-6.914-2.419
			c-1.764-0.116-3.496-0.617-5.268-0.571c-2.268,0.06-9.105-0.276-9.377,3.675C247.504,141.046,248.807,142.024,249.305,143.021z"/>
		<path fill="#161616" d="M281.418,154.362c0.932,1.628,0.428,4.704-0.854,5.875c-1.072,0.979-2.684,1.345-3.996,0.855
			c-3.789-1.412-3.516-7.488,0.24-8.74C278.381,151.829,280.514,152.781,281.418,154.362z"/>
		<path fill="#444445" d="M244.713,130.858c-1.891-0.34-3.756-0.989-5.543-1.76c-1.9-0.821-4.217-2.571-5.816-3.961
			c-1.324-1.15-4.363-3.722-2.508-5.936c0.83-0.991,1.795-1.156,2.951-1.078c-0.688,2.541,0.119,4.51,1.902,6.135
			c2.055,1.87,4.643,3.362,6.953,4.787c0.908,0.561,2.254,1.34,3.117,1.982L244.713,130.858z"/>
		<path fill="none" d="M293.555,160.778c0.684,0.37,1.514,0.327,2.279,0.302L293.555,160.778z"/>
		<path fill="#161616" d="M222.043,126.646c-0.945,1.581-1.859,3.508-1.037,5.409c0.867,2.005,3.053,2.421,4.832,2.538
			c4.141,0.271,8.111-0.805,12.154-1.607c1.859-0.368,3.715-0.733,5.559-1.188c-2.719,1.392-5.451,2.69-8.393,3.358
			c-2.879,0.651-5.871,0.937-8.807,0.958c-1.758,0.014-4.35,0.118-5.641-1.525c-0.82-1.042-0.838-2.617-0.621-3.915
			c0.248-1.486,0.945-2.697,1.752-3.875L222.043,126.646z"/>
		<path fill="#161616" d="M297.822,162.564c-0.195,0.609-5.119-1.401-5.555-1.661c-0.744-0.444-1.838-1.197-1.121-2.246
			c0.9-1.322,2.896,0.27,3.816,0.599c1.029,0.369,3.037,0.616,3.699,1.522C298.33,161.335,298.021,161.94,297.822,162.564z"/>
		<path fill="#161616" d="M295.945,167.108c-0.195,0.609-5.117-1.401-5.553-1.661c-0.744-0.444-1.838-1.198-1.125-2.247
			c0.904-1.321,2.898,0.27,3.818,0.6c1.029,0.368,3.037,0.615,3.699,1.522C296.455,165.879,296.145,166.484,295.945,167.108z"/>
		<path fill="#444445" d="M239.326,133.067c-4.285,1.349-9.047,2.456-13.504,2.549c-1.871,0.04-4.297-0.187-5.43-2.135
			c-1.307-2.245,0.248-4.731,1.449-6.532l1.105-0.906c-2.105,1.198-3.867,2.629-4.811,5.16c-0.883,2.368-1.1,5.612,0.91,7.349
			c2.15,1.855,5.324,1.076,7.719,0.403c6.305-1.776,13.672-3.243,18.787-8.025C243.461,131.585,241.416,132.41,239.326,133.067z"/>
		<path fill="#BB3A61" d="M275.467,100.698c-11.803-2.519-27.688,0.879-34.096,13.395c-0.416,1.303-0.598,2.648-0.463,3.95
			c0.135,1.303,0.588,2.563,1.443,3.695c2.563,3.511,5.666,5.55,9.07,6.534c1.699,0.491,3.477,0.721,5.297,0.738
			c9.357,0.203,19.412-3.648,25.242-12.709c2.613-4.305,0.201-10.194-3.594-12.77C277.203,102.237,276.117,101.217,275.467,100.698z
			"/>
		<path fill="#FFFFFF" d="M246.674,108.373c-0.623,0.282-0.422,1.751-0.387,2.456c1.648-1.15,3.592-2.063,5.121-3.249
			c-0.363-0.648-0.35-1.607-0.43-2.364c-0.955,0.371-1.824,1.468-2.703,2.117c-0.643,0.474-1.336,0.805-1.904,1.266L246.674,108.373
			z"/>
		<path fill="#FFFFFF" d="M253.008,106.788c0.223-0.112-0.176-1.749-0.086-2.359c1.641-0.429,3.207-1.155,4.791-1.595
			c0.072,0.948,0.352,2.081,0.205,3.03c-1.648-0.159-3.086,1.39-4.709,1.376L253.008,106.788z"/>
		<path fill="#750F29" d="M235.213,116.529c-1.283,3.453,3.83,8.201,6.189,9.657c3.932,2.425,8.016,4.267,12.139,6.196
			c1.584,0.741,3.135,1.611,4.658,2.503c-5.434-0.641-10.195-3.271-15.258-5.343c-2.078-0.851-3.836-2.012-5.486-3.684
			c-1.145-1.161-2.836-2.452-3.541-4.017c-0.936-2.071,0.322-3.997,1.6-5.426L235.213,116.529z"/>
		<path fill="#BB3A61" d="M245.77,158.098c-4.389,7.589-5.242,18.664,0.918,25.342c0.957,1.036,1.867,2.112,2.865,3.098
			c-3.66-2.073-7.822-4.734-8.91-9.509c-1.068-4.695-0.738-10.727,1.207-15.096c0.867-1.946,2.119-3.46,3.92-4.288V158.098z"/>
		<path fill="#FFFFFF" d="M222.039,130.74c0.211-0.456-0.229-1.776-0.121-2.383c0.119-0.672,0.486-1.242,0.861-1.767
			c0.898-1.262,2.023-2.276,3.07-3.373c0.053,0.591,0.281,1.19,0.455,1.732C224.732,126.823,223.09,128.477,222.039,130.74z"/>
		<path fill="#BB3A61" d="M251.299,136.351c-0.914,0.718-1.992,1.798-2.357,3.061c-0.5,1.731,0.557,3.118,0.953,4.7
			c0.357,1.438,0.688,3.21,0.605,4.707c-0.107,1.959-1.293,2.858-2.271,4.287c-0.918,1.341-1.465,3.879-0.664,5.431
			c-3.514-2.02,0.723-6.937,1.426-9.522c0.484-1.779,0.602-3.473-0.199-5.135c-0.727-1.505-1.883-2.89-1.301-4.739
			c0.721-2.294,2.467-2.138,4.109-2.903L251.299,136.351z"/>
		<path fill="#2D2D2D" d="M280.471,155.003c0.682,1.191,0.313,3.444-0.627,4.302c-0.785,0.717-1.965,0.985-2.926,0.627
			c-2.775-1.033-2.574-5.484,0.178-6.401C278.244,153.148,279.809,153.845,280.471,155.003z"/>
	</g>
	<g>
		<path fill="#0E3944" d="M132.99,96.66c-1.255,3.958,3.929,8.192,3.272,11.12c-0.656,2.928-11.547,13.846-11.547,13.846
			l-12.232,4.572c0,0-11.667-5.754-12.833-11.566c-1.167-5.812,0.98-9.569,1.573-14.752c0.593-5.182-3.924-6.318-1.915-12.75
			c0.737-2.359,1.647-5.027,1.49-7.543c-0.245-3.896,0.473-8.165,3.179-11.215c3.045-3.433,8.247-5.43,12.783-5.02
			c11.75,1.062,12.312,1.386,14.519,9.041C133.485,80.048,137.496,82.455,132.99,96.66z"/>
		<path fill="#EF6E4B" d="M180.485,321.002c-1.872-1.514-6.676-7.992-7.664-11.248c-1.396-4.602-3.049-10.926-4.736-17.816h-7.193
			c2.359,7.516,3.869,13.805,4.545,16.637c-0.022,0.475-0.132,0.871-0.266,1.328c-0.202,0.691-0.602,11.16-0.602,11.16h16.109
			c-0.063-0.02-0.113-0.033-0.145-0.041C180.505,321.012,180.495,321.01,180.485,321.002z"/>
		<path fill="#0E3944" d="M163.757,321.063c0,0-0.71-9.582,1.162-12.084c0,0,2.071,3.289,4.904,3.289
			c1.845,0,2.589-4.244,4.167-3.289c1.384,0.836,2.315,3.23,6.033,5.682s6.739,1.754,6.972,6.402H163.757z"/>
		<path fill="#FF8B66" d="M126.484,291.938h-8.504c1.588,8.76,2.832,16.199,2.832,16.199v12.926h9.266
			c-0.892-3.869-3.469-15.465-3.469-20.355C126.609,297.836,126.563,294.9,126.484,291.938z"/>
		<path fill="#0E3944" d="M119.488,311.07c0,0,0.116-3.184,4.531-2.811c4.415,0.369,4.099,3.572,4.099,3.572s0.665-0.516,1.246,0
			c0.581,0.516,0.089,4.932,1.207,5.861c1.117,0.93,0.769,3.369,0.769,3.369h-12.897c0,0-0.697-3.137,0.581-4.299
			C120.301,315.602,117.047,311.418,119.488,311.07z"/>
		<g>
			<path fill="#8B383E" d="M170.085,299.881c-5.055-19.449-11.312-48.893-12.125-53.77c-0.524-3.15-0.994-13.152-2.234-25.432
				c-0.324-14-1.938-46.014-9.802-64.186l-18.513,0.432c0.749,14.432-13.243,30.004,3.794,46.695
				c2.218,6.232,9.57,27.367,10.637,36.676c1.259,10.984,3.306,15.854,9.658,28.105c5.498,10.605,9.392,22.967,11.722,31.479
				H170.085z"/>
			<path fill="#8B383E" d="M107.336,219.809L107.336,219.809c1.186,6.148,2.869,10.26,3.795,15.434
				c1.348,7.531-2.488,18.445,1.381,30.574c1.832,5.742,5.252,24.703,7.078,35.188h7.025c-0.002-0.1-0.005-0.203-0.005-0.297
				c0-25.521-3.521-55.949-2.998-67.518c0.221-4.877,1.052-11.793,1.927-18.086c0.004-0.031,2.723-18.303,5.375-19.836
				c10.859-6.275,15.011-38.773,15.011-38.773l-27.71,1.289c0,0-16.141,13.412-11.903,37.285c0,0-0.017,0.246-0.039,0.674
				C105.596,206.982,106.261,214.236,107.336,219.809z"/>
			<path fill="#8B383E" d="M150.647,171.865l-39.96-4.41c1.06-1.721,1.92-3.34,2.6-4.801c1.03-2.17,1.7-4.01,2.12-5.43
				c0.61-2.02,0.74-3.189,0.74-3.189l26.23-5.871c1.19,1.26,2.549,4.48,3.81,8.15c0.56,1.621,1.101,3.34,1.59,5.01
				C149.438,166.814,150.647,171.865,150.647,171.865z"/>
			<path fill="#08262D" d="M147.777,161.324c-8.36,5.061-28.68,2.26-34.49,1.33c1.03-2.17,1.7-4.01,2.12-5.43l30.78-0.91
				C146.747,157.936,147.288,159.654,147.777,161.324z"/>
			<path fill="#98A5A8" d="M133.442,155.24l-0.609,9.625c0,0,4.377,0.535,6.859-0.48l-0.75-9.145H133.442z"/>
			<polygon fill="#8B383E" points="125.763,155.24 123.792,166.115 121.692,166.115 123.792,155.697 			"/>
			<polygon fill="#8B383E" points="142.567,155.24 144.474,165.006 146.398,164.268 143.942,155.24 			"/>
		</g>
		<g>
			<path fill="#FF8B66" d="M191.732,144.927c0,0,0,0-5.312,1.608c-5.321,1.599-4.754,2.375-5.783,5.188
				c-0.966,2.631,3.644,4.924,5.798,5.346c1.818,0.369,5.09,3.766,6.674,3.662c0.641-0.041,0.324-0.494-0.838-1.426
				c-1.363-1.1-2.237-2.57-2.237-2.57c1.797-0.75,6.336,3.711,8.137,2.617c0.873-0.535-6.266-3.227-6.338-4.416
				c0,0,0.627-0.334,4.234,0.705c2.072,0.594,4.201,1.225,4.678,0.709c0.866-0.939-3.689-1.432-8.281-3.874
				c0,0,2.338,0.243,4.488,0.615c1.963,0.348,3.762,0.875,3.832-0.012c0.063-0.729-3.016-1.187-4.965-1.553
				c-3.633-0.688-6.141-1.982-7.385-2.743c-0.6-0.358-0.9-0.607-0.9-0.607C192.816,146.091,191.732,144.927,191.732,144.927z"/>
			<path fill="#EF6E4B" d="M187.534,148.178c0,0-1.035,2.218-2.861,2.623c0,0,2.707,0.845,3.762-2.016
				C187.835,148.427,187.534,148.178,187.534,148.178z"/>
		</g>
		<path fill="#FF8B66" d="M132.833,104.512c8.856,2.357,10.356,7.645,19.606,37.126c0,0,5.25,0.131,10.5,2.306
			s21.733,4.756,21.733,4.756l-1.483,4.131c0,0-29.663,0.156-33.75-1.913c-4.087-2.068-13.702-26.563-13.702-26.563L132.833,104.512
			z"/>
		<path fill="#BCC7C9" d="M135.737,105.406c0,0,5.08,2.082,6.455,3.333c1.375,1.251,11.375,32.899,11.375,32.899
			s-4.251,5.31-2.777,9.713c0,0-2.807,0.347-4.232-0.434c-1.227-0.67-13.724-37.895-13.724-37.895L135.737,105.406z"/>
		<path fill="#8C989B" d="M126.073,101.839c-3.511-1.038-12.798-1.264-16.232,0.001c-3.435,1.265,6.92,14.665,6.92,14.665
			l16.073-6.508C132.833,109.996,132.328,103.688,126.073,101.839z"/>
		<g>
			<path fill="#FF8B66" d="M110.221,67.617c0,0,16.421-5.498,19.728,6.063c3.307,11.562,0.304,23.757-7.405,22.941
				C111.698,95.474,97.465,74.12,110.221,67.617z"/>
			
				<ellipse transform="matrix(-0.9945 -0.1048 0.1048 -0.9945 230.6499 180.1654)" fill="#DB614D" cx="120.059" cy="84.022" rx="1.577" ry="1.261"/>
			<g>
				<path fill="#0E3944" d="M119.766,76.767c0.105-0.006,0.207-0.062,0.268-0.157c0.683-1.068,2.007-0.943,2.021-0.941
					c0.188,0.021,0.355-0.116,0.375-0.303c0.021-0.188-0.116-0.355-0.303-0.375c-0.07-0.008-1.759-0.168-2.667,1.252
					c-0.102,0.159-0.055,0.37,0.104,0.471C119.625,76.754,119.697,76.771,119.766,76.767z"/>
			</g>
			<g>
				<path fill="#0E3944" d="M127.335,75.013c0.069-0.004,0.139-0.03,0.197-0.078c0.969-0.804,2.162-0.302,2.212-0.28
					c0.173,0.075,0.374-0.004,0.448-0.177c0.075-0.172-0.002-0.373-0.174-0.448c-0.066-0.029-1.624-0.696-2.921,0.379
					c-0.145,0.121-0.165,0.335-0.045,0.48C127.124,74.977,127.229,75.019,127.335,75.013z"/>
			</g>
			<path fill="#1A4850" d="M129.002,87.13c0,0-2.479,1.597-6.81,0.197c0,0,1.302,5.135,4.056,4.482
				C129.001,91.157,129.002,87.13,129.002,87.13z"/>
			<path fill="#0E3944" d="M116.76,73.559c0,0-3.758,4.789-3.565,11.007c0,0-2.755-3.376-4.196-0.442s4.331,7.22,4.331,7.22
				s-9.295,0.524-10.386-11.496C102.483,74.783,109.057,70.159,116.76,73.559z"/>
			<path fill="#EF6E4B" d="M113.533,88.749c1.26,3.393,6.09,9.271,11.206,7.592c0,0-1.285,5.059,0.842,6.902
				c0,0,2.248,3.915-2.869,4.473c-6.4,0.697-9.964-4.473-9.964-4.473c2.789-6.208-1.041-13.868-1.041-13.868
				C113.089,90.288,113.533,88.749,113.533,88.749z"/>
			<g>
				<path fill="#DB614D" d="M128.186,85.413l-0.304-0.686c0.125-0.057,1.209-0.582,0.774-1.64c-0.132-0.321-0.315-0.525-0.543-0.606
					c-0.403-0.145-0.86,0.103-0.865,0.105l-0.363-0.656c0.03-0.017,0.75-0.41,1.472-0.158c0.441,0.154,0.775,0.5,0.993,1.03
					C129.926,84.207,128.84,85.124,128.186,85.413z"/>
			</g>
			
				<ellipse transform="matrix(-0.9979 0.065 -0.065 -0.9979 248.496 153.6085)" fill="#1A4850" cx="121.751" cy="80.844" rx="0.849" ry="1.341"/>
			<path fill="#1A4850" d="M120.458,80.708c0,0,0.391-1.701,0.994-1.74c0.603-0.04,1.611,1.092,1.611,1.092l1.106-0.806
				l-1.066,0.418c0,0-0.92-1.295-1.758-1.031C120.508,78.905,120.458,80.708,120.458,80.708z"/>
			
				<ellipse transform="matrix(-0.9979 0.065 -0.065 -0.9979 262.0933 151.0448)" fill="#1A4850" cx="128.591" cy="79.784" rx="0.849" ry="1.341"/>
			<path fill="#1A4850" d="M127.298,79.648c0,0,0.391-1.7,0.994-1.74S129.903,79,129.903,79l1.106-0.806l-1.065,0.418
				c0,0-0.92-1.295-1.758-1.031C127.348,77.845,127.298,79.648,127.298,79.648z"/>
			<path fill="#0E3944" d="M120.918,70.216c0,0,2.482,13.034-7.723,14.35c0,0-3.646-6.196-8.458-1.86c0,0-5.145-14.134,6.971-16.396
				c0,0,2.348-5.377,11.783-3.694c10.327,1.843,8.023,6.866,9.374,9.791c2.544,5.511,8.579,8.716,0.126,24.253
				C132.99,96.66,139.433,68.36,120.918,70.216z"/>
		</g>
		<path fill="#EF6E4B" d="M103.043,105.352c1.38,0.76,3.02,1.57,4.95,2.43c35.16,15.73,26.9,0.99,26.9,0.99
			c-0.02-1.06-0.37-2.05-0.99-2.97c-0.29-0.45-0.65-0.88-1.07-1.29c-2.87-0.96-18.51-5.75-29.12,0.44
			C103.483,105.072,103.263,105.212,103.043,105.352z"/>
		<path fill="#FF8B66" d="M103.043,105.352c1.38,0.76,3.02,1.57,4.95,2.43c35.16,15.73,26.9,0.99,26.9,0.99
			c-0.02-1.06-0.37-2.05-0.99-2.97c-1.28,0.6-3.89,1.78-4.75,1.98l-0.56,2.16l-3-1.94c0,0-10.57,0.3-21.88-3.05
			C103.483,105.072,103.263,105.212,103.043,105.352z"/>
		<path fill="#CFD8DC" d="M129.417,103.518c0,0,5.922,0.974,8.183,3.083c2.262,2.109,11.052,17.379,12.218,22.071
			c0.873,3.508-3.419,25.067-3.419,25.067s2.918,3,1.919,6.383c-0.445,1.506-10.875,0.168-10.875,0.168s-15.701,3.635-23.811,1.635
			s-15.018-27.061-15.666-35.895c-0.648-8.833-2.08-18.239,7.636-22.203c0,0,13.772,1.359,23.911,9.947
			C129.512,113.776,132.349,108.338,129.417,103.518z"/>
		<path fill="#FF8B66" d="M100.1,107.78c5.501-3.578,9.74,7.755,9.006,15.237c-0.331,3.373-9.006,27.9-9.006,27.9l25.973-13.363
			l1.59,4.084c0,0-12.223,8.646-19.557,14.856c-7.333,6.209-15.167,6.273-17.833,4.24c-2.667-2.031,1.667-20.699,3.167-28.365
			S96.901,109.86,100.1,107.78z"/>
		<path fill="#BCC7C9" d="M109.84,101.84c0,0,14.242,3.473,19.672,11.936c0,0,2.566-8.088-3.439-11.937c0,0,4.135-0.455,9.665,4.763
			l-3.748,0.498l-1.769,7.91c0,0-7.425-6.188-11.977-7.229l-7.677-0.681l-6.125-3.271L109.84,101.84z"/>
		<path fill="#BCC7C9" d="M129.951,113.536c0,0,1.008,1.895,2.128,4.871c0.561,1.487,1.153,3.245,1.682,5.157
			c0.264,0.957,0.508,1.952,0.74,2.967c0.216,1.019,0.42,2.056,0.587,3.1c0.668,4.17,0.912,8.394,0.896,11.552
			c-0.004,3.161-0.246,5.255-0.246,5.255s0.176-2.101,0.083-5.253c-0.082-3.151-0.456-7.344-1.246-11.464
			c-0.195-1.029-0.426-2.049-0.668-3.05c-0.258-0.998-0.526-1.974-0.814-2.912c-0.576-1.874-1.209-3.592-1.804-5.041
			c-0.594-1.449-1.148-2.63-1.554-3.445c-0.409-0.819-0.66-1.258-0.66-1.258L129.951,113.536z"/>
		<path fill="#BCC7C9" d="M101.224,106.602c0,0,2.718-1.099,6.093,3.395s1.825,18.677,1.825,18.677l-7.918,21.667
			c0,0-10.657,5.254-9.407,11.952c0,0-2.25,0.348-3.375-1.727s4.625-33.33,4.625-33.33s-1.25-1.245,0.125-4.495
			S95.506,109.338,101.224,106.602z"/>
		<path fill="#A1B1B5" d="M101.224,150.339c0,0-5.282,1.092-7.532,2.746c-2.25,1.655-3.5,5.78-3.5,6.155s1,4.25,1,4.25l2.5-1.176
			l-0.375,1.967l4.175-2.355C97.492,161.926,92.006,159.314,101.224,150.339z"/>
		<path fill="#FF8B66" d="M135.943,133.734c0,0,0,0-5.313,1.609c-5.321,1.599-4.754,2.375-5.783,5.188
			c-0.966,2.63,3.644,4.924,5.798,5.346c1.818,0.37,5.09,3.766,6.675,3.662c0.64-0.04,0.324-0.493-0.838-1.426
			c-1.363-1.099-2.237-2.569-2.237-2.569c1.798-0.751,6.336,3.711,8.137,2.617c0.874-0.535-6.266-3.229-6.338-4.416
			c0,0,0.627-0.335,4.235,0.704c2.072,0.594,4.201,1.224,4.677,0.71c0.865-0.939-3.689-1.433-8.28-3.875
			c0,0,2.338,0.244,4.488,0.615c1.962,0.348,3.76,0.877,3.831-0.012c0.062-0.728-3.015-1.186-4.965-1.552
			c-3.632-0.689-6.141-1.982-7.385-2.744c-0.6-0.357-0.901-0.606-0.901-0.606C137.026,134.899,135.943,133.734,135.943,133.734z"/>
		<path fill="#A1B1B5" d="M154.483,141.638c0,0-3.582,5.187-3.582,6.54s2.666,3.625,2.666,3.625s-2.416,1.413-4.25,1.445
			c0,0,0.084-3.341,0-5.07c-0.084-1.73,4.25-6.54,4.25-6.54H154.483z"/>
	</g>
</g>
</svg>
