<?xml version="1.0" encoding="utf-8"?>
<!-- Generator: Adobe Illustrator 16.0.0, SVG Export Plug-In . SVG Version: 6.00 Build 0)  -->
<!DOCTYPE svg PUBLIC "-//W3C//DTD SVG 1.1//EN" "http://www.w3.org/Graphics/SVG/1.1/DTD/svg11.dtd">
<svg version="1.1" id="Capa_1" xmlns="http://www.w3.org/2000/svg" xmlns:xlink="http://www.w3.org/1999/xlink" x="0px" y="0px"
	 width="400px" height="400px" viewBox="0 0 400 400" enable-background="new 0 0 400 400" xml:space="preserve">
<g>
	<path opacity="0.2" fill="#64328A" d="M326.777,276.041l-57.446,28.844c-1.347,0.676-2.916,0.747-4.318,0.194l-79.034-31.129
		L326.777,276.041z"/>
	<g>
		<g>
			<path fill="#F2EFE3" d="M327.141,264.943v12.1c0,0-56.301,24.233-58.201,23.467s-3.854-9.836-1.2-12.101
				C270.395,286.144,327.141,264.943,327.141,264.943z"/>
			<path fill="#4092A9" d="M175.576,258.843c0.551,1.152,89.568,29.891,90.877,29.563c0,0,43.536-16.387,62.479-24.787
				l-89.563-29.292C239.369,234.327,174.616,256.837,175.576,258.843z"/>
			<path opacity="0.2" fill="#64328A" d="M221.103,273.133c0.552,1.153,64.081,7.944,65.39,7.617c0,0,23.497-8.73,42.439-17.131
				l-89.563-29.292C239.369,234.327,220.144,271.127,221.103,273.133z"/>
			<path fill="#4FB1CC" d="M175.368,270.366c0.552,1.152,90.538,30.469,91.848,30.142c0,0-2.652-4.672-0.307-12.996l-91.333-28.669
				C175.576,258.843,174.408,268.36,175.368,270.366z"/>
			<path fill="#2F7589" d="M266.909,287.512l60.623-23.797c0,0,1.527-0.706,1.692,0.327c0.166,1.033-1.322,1.611-2.396,2.024
				s-57.64,23.151-58.519,24.226c-0.878,1.073-0.391,8.492,0.781,8.883c1.171,0.39,57.687-23.134,57.687-23.134
				s2.049-0.977,2.244-0.098c0.195,0.878-0.78,1.659-4.587,3.221c-3.807,1.563-52.221,21.963-54.66,21.963
				c-2.44,0-2.559-0.619-2.559-0.619S262.482,295.663,266.909,287.512z"/>
		</g>
		<path fill="#67328A" d="M296.154,236.376c0.322,0.055,0.641,0.086,0.951,0.087c-0.026-0.001-0.077-0.006-0.149-0.015
			L296.154,236.376z"/>
		<g>
			<path fill="#51BBB4" d="M317.939,241.141c0.184-0.164,0.382-0.273,0.583-0.339c1.717-2.771,3.627-3.456,3.627-3.456
				l-113.958-5.127l-25.022,13.654l106.417,15.061C295.242,250.771,309.529,248.631,317.939,241.141z"/>
			<g>
				<path fill="#FFFFFF" d="M296.399,255.748c-2.604,3.587-4.078,15.627-1.08,19.018c2.997,3.391,8.157-1.671,11.794-4.57
					c3.088-2.462,11.878-9.883,14.46-12.065v-17.492c-0.011,0.005-0.021,0.011-0.031,0.016
					C320.422,241.142,299.005,252.16,296.399,255.748z"/>
				<path fill="#399B94" d="M323.87,257.517c-0.64-0.884-1.572,0-1.572,0s-0.267,0.227-0.725,0.613
					c-2.582,2.183-11.372,9.604-14.46,12.065c-3.637,2.899-8.797,7.961-11.794,4.57c-2.998-3.391-1.523-15.431,1.08-19.018
					c2.605-3.588,24.022-14.606,25.143-15.095c0.011-0.005,0.021-0.011,0.031-0.016c1.101-0.487,1.775-1.174,1.52-2.396
					c-0.259-1.234-1.149-0.862-1.407-0.862c-0.259,0-10.813,5.612-24.558,13.62c0,0-4.323,1.548-5.804,9.434
					c-0.307,1.629-0.494,3.521-0.494,5.733c0,2.029,0.158,3.736,0.42,5.183c1.24,6.861,4.875,7.726,5.706,7.832l0.172,0.016
					c4.904,0,22.664-16.617,24.433-17.896C323.33,260.023,324.509,258.401,323.87,257.517z"/>
			</g>
			<path fill="#75C6C7" d="M290.83,266.166c0-12.924,6.298-15.167,6.298-15.167l-113.959-5.126c0,0-10.04,9.825,0,22.964
				l112.985,10.271l0.802,0.072C295.95,279.052,290.83,277.82,290.83,266.166z"/>
			<path opacity="0.2" fill="#64328A" d="M229.959,247.978l0.878,3.302l42.579,10.791c2.656,0.673,5.381-0.667,6.541-3.148
				c3.066-6.55,12.256-8.144,12.256-8.144L229.959,247.978z"/>
		</g>
		<path fill="#6C4192" d="M297.105,236.463c0.008,0,0.016,0.001,0.022,0.001l-0.172-0.016
			C297.028,236.457,297.079,236.462,297.105,236.463z"/>
		<g>
			<polygon fill="#FFFEF6" points="317.188,219.268 317.188,235.887 276.263,255.797 269.31,251.373 268.52,243.393 
				274.761,237.532 			"/>
			<polygon fill="#D19C18" points="319.324,217.717 218.55,200.63 173.597,217.821 272.539,237.905 			"/>
			<polygon opacity="0.2" fill="#64328A" points="291.422,228.524 314.528,216.903 218.55,200.63 173.597,217.821 219.992,222.307 
							"/>
			<path fill="#B08111" d="M272.539,237.905l43.991-19.422c0,0,2.523-1.577,2.794-0.767c0.271,0.812-0.991,1.849-2.884,2.614
				s-40.917,18.112-40.917,18.112s-6.623,3.011-4.884,10.972s9.366,4.081,12.979,2.342s33.049-16.525,33.049-16.525
				s2.008-1.404,2.342-0.535c0.335,0.87-0.735,1.673-2.676,2.609s-40.021,20.695-43.794,20.684
				c-3.772-0.011-8.055-13.324-8.055-13.324l5.419-6.021L272.539,237.905z"/>
			<path fill="#F3B520" d="M173.597,217.821c-1.41,1.127-3.806,11.979,0,17.899c0,0,97.533,22.41,98.942,22.269
				c0,0-4.651-2.255-4.369-10.57c0.281-8.315,4.369-9.514,4.369-9.514L173.597,217.821z"/>
		</g>
		<g>
			<path fill="#FFFFFF" d="M322.884,197.066v13.045c0,0-28.851,15.052-30.405,14.952c-1.556-0.101-4.866-14.551,0-16.558
				C297.346,206.499,322.884,197.066,322.884,197.066z"/>
			<path fill="#D5455D" d="M174.989,200.487c0,0,33.717-9.875,36.261-10.096c2.543-0.222,112.796,4.91,112.796,4.91l-32.624,12.259
				L174.989,200.487z"/>
			<path fill="#B43249" d="M291.422,207.561l31.939-12.092c0,0,1.463-0.575,1.647,0.409c0.185,0.985-0.369,1.785-1.601,2.216
				c-1.23,0.432-29.054,10.526-29.792,11.449c-0.738,0.924-2.462,3.509-2.462,9.172s2.646,4.985,2.646,4.985l28.931-14.588
				c0,0,1.601-0.921,1.662,0.094c0.062,1.014-0.616,1.445-1.539,1.938s-29.248,15.326-31.433,15.238
				c-2.186-0.087-5.746-6.56-4.762-10.561C287.646,211.821,291.422,207.561,291.422,207.561z"/>
			<path fill="#EA526E" d="M291.422,207.561c0,0-115.37-7.985-116.433-7.073c-1.062,0.913-2.007,16.427,0.576,18.024
				c2.583,1.597,112.434,7.87,115.856,7.87C291.422,226.382,284.235,218.739,291.422,207.561z"/>
		</g>
	</g>
	<g>
		<path opacity="0.2" fill="#64328A" d="M224.513,239.475c-2.31-0.427-4.623-0.834-6.94-1.221c0.018-0.239,0.034-0.479,0.051-0.72
			c-0.714-0.181-1.411-0.347-2.117-0.518c0.045-0.629,0.088-1.259,0.132-1.887c-1.851-0.533-3.682-1.008-5.501-1.448
			c0.055-0.779,0.109-1.559,0.164-2.338c-2.533-0.518-5.019-0.949-7.459-1.313c0.049-0.702,0.098-1.404,0.146-2.106
			c-43.671-6.04-58.374,6.466-58.313,5.967c-0.01,0.502-12.828-13.928-56.915-14.024c-0.05,0.702-0.099,1.404-0.147,2.106
			c-2.468,0.02-4.988,0.102-7.569,0.262c-0.055,0.779-0.109,1.559-0.163,2.337c-1.863,0.184-3.742,0.399-5.649,0.669
			c-0.044,0.629-0.088,1.258-0.132,1.887c-0.723,0.071-1.437,0.139-2.169,0.219c-0.017,0.239-0.033,0.479-0.051,0.72
			c-2.347,0.061-4.694,0.142-7.042,0.242c-0.832,0.036-1.611,0.485-1.643,0.942c-1.41,20.156-2.819,40.313-4.229,60.471
			c-0.025,0.381,0.483,0.632,1.183,0.584c23.635-1.626,47.313-1.191,70.871,1.289l0,0c-0.132,1.89,2.191,2.768,9.394,3.254
			c7.2,0.521,9.624-0.025,9.756-1.915c23.674,0.822,47.183,3.688,70.36,8.587c0.686,0.145,1.226-0.033,1.252-0.414
			c1.41-20.156,2.819-40.313,4.229-60.471C226.041,240.179,225.332,239.626,224.513,239.475z"/>
		<path fill="#5C61A9" d="M150.929,189.977L82.426,163.88c-0.811-0.309-1.697,0.081-1.87,0.822l-22.946,97.854
			c-0.146,0.617,0.265,1.26,0.95,1.49l69.516,23.384L150.929,189.977z"/>
		<path fill="#5C61A9" d="M156.811,208.114l-9.296-3.581l-19.439,82.897c-0.711,3.034,1.359,4.921,8.584,6.615
			s9.918,0.925,10.63-2.11l19.438-82.896L156.811,208.114z"/>
		<path fill="#5C61A9" d="M170.142,194.482l72.963,7.076c0.862,0.083,1.483,0.827,1.31,1.567l-22.946,97.854
			c-0.146,0.617-0.798,1.011-1.515,0.913l-72.664-9.958L170.142,194.482z"/>
		<polygon opacity="0.2" fill="#64328A" points="235.81,200.852 170.142,194.482 147.289,291.936 216.182,298.988 		"/>
		<polygon opacity="0.2" fill="#64328A" points="89.274,166.489 150.929,189.977 128.075,287.431 63.229,263.121 		"/>
		<polygon opacity="0.2" fill="#64328A" points="137.327,291.198 128.298,286.481 66.816,262.258 95.048,225.651 135.444,251.135 		
			"/>
		<polygon opacity="0.2" fill="#64328A" points="137.327,291.198 147.511,290.987 213.353,296.62 204.339,251.279 156.823,256.147 
					"/>
		<path fill="#B4B1A8" d="M159.79,195.405c0,0-24.554-19.367-70.243-30.081l-22.73,96.934c41.466,5.521,70.511,28.94,70.511,28.94
			L159.79,195.405z"/>
		<path fill="#CDC9C0" d="M137.327,291.198c0,0-27.189-25.788-67.366-32.608l22.464-95.793
			c40.176,6.819,67.365,32.608,67.365,32.608L137.327,291.198z"/>
		<path opacity="0.05" fill="#64328A" d="M137.327,291.198c0,0-25.75-24.806-63.919-31.241l21.717-92.608
			c38.168,6.436,63.919,31.241,63.919,31.241L137.327,291.198z"/>
		<path fill="#E6E3D8" d="M137.327,291.198c0,0-22.875-24.577-60.802-35.271l22.463-95.793
			c37.927,10.694,60.802,35.271,60.802,35.271"/>
		<path opacity="0.05" fill="#64328A" d="M137.327,291.198c0,0-20.991-23.584-56.095-33.564l21.818-93.047
			c35.104,9.981,56.095,33.564,56.095,33.564"/>
		<path fill="#FFFEF6" d="M137.327,291.198c0,0-9.361-21.808-52.556-36.34l22.463-95.793c43.194,14.532,52.556,36.34,52.556,36.34
			L137.327,291.198z"/>
		<g>
			<path fill="#CDC9C0" d="M133.575,179.853c-5.329-3.465-12.173-7.152-20.847-10.605l-0.878,3.741
				c7.701,2.933,14.635,6.577,20.85,10.596L133.575,179.853z"/>
			<path fill="#CDC9C0" d="M149.45,205.892c-0.329-0.321-0.667-0.644-1.014-0.97c-9.767-9.172-22.43-18.286-38.362-24.353
				l0.877-3.742c15.596,6.209,25.28,13.176,30.869,18.238c4.26,3.858,6.747,7.134,8.036,9.094L149.45,205.892z"/>
			<path fill="#CDC9C0" d="M142.585,205.083c-0.769-0.78-1.61-1.594-2.542-2.438c-5.589-5.063-15.273-12.03-30.869-18.238
				l-0.878,3.741c13.437,5.116,24.547,12.399,33.557,20.058L142.585,205.083z"/>
			<path fill="#CDC9C0" d="M133.959,215.628c-5.821-4.776-14.877-10.701-28.34-16.061l-0.878,3.741
				c10.97,4.177,20.39,9.799,28.381,15.889L133.959,215.628z"/>
			<path fill="#CDC9C0" d="M142.34,236.211c-0.328-0.32-0.666-0.644-1.013-0.969c-9.768-9.173-22.431-18.287-38.363-24.354
				l0.877-3.741c15.596,6.209,25.281,13.177,30.87,18.239c4.26,3.857,6.747,7.134,8.035,9.093L142.34,236.211z"/>
			<path fill="#CDC9C0" d="M140.563,243.791c-0.328-0.32-0.666-0.644-1.014-0.97c-9.767-9.172-22.43-18.286-38.362-24.353
				l0.877-3.742c15.596,6.209,25.28,13.176,30.87,18.238c4.26,3.858,6.747,7.134,8.035,9.094L140.563,243.791z"/>
			<path fill="#CDC9C0" d="M138.785,251.37c-0.328-0.319-0.666-0.644-1.013-0.969c-9.768-9.172-22.431-18.286-38.363-24.354
				l0.877-3.741c15.596,6.208,25.281,13.177,30.869,18.238c4.26,3.858,6.747,7.135,8.036,9.094L138.785,251.37z"/>
			<path fill="#CDC9C0" d="M113.063,236.722c-4.151-2.294-8.973-4.613-14.554-6.835l-0.878,3.741
				c5.198,1.979,10.045,4.284,14.56,6.808L113.063,236.722z"/>
			<path fill="#CDC9C0" d="M135.23,266.53c-0.329-0.32-0.667-0.644-1.014-0.969c-9.767-9.173-22.43-18.286-38.362-24.354
				l0.877-3.741c15.596,6.208,25.28,13.176,30.869,18.237c4.26,3.859,6.747,7.135,8.036,9.095L135.23,266.53z"/>
			<path fill="#CDC9C0" d="M133.452,274.11c-0.328-0.32-0.666-0.644-1.012-0.969c-9.769-9.172-22.432-18.287-38.364-24.354
				l0.878-3.741c15.595,6.208,25.281,13.176,30.869,18.238c4.26,3.857,6.747,7.134,8.035,9.093L133.452,274.11z"/>
		</g>
		<path fill="#F2EFE3" d="M129.989,281.203c5.563,5.863,7.338,9.995,7.338,9.995l22.463-95.793L129.989,281.203z"/>
		<path fill="#CDC9C0" d="M159.79,195.405c0,0,30.604-6.433,76.293,4.281l-22.73,96.934c-39.598-13.487-76.025-5.422-76.025-5.422
			L159.79,195.405z"/>
		<path fill="#E6E3D8" d="M137.327,291.198c0,0,35.818-11.013,74.839,0.738l22.464-95.793c-39.021-11.752-74.84-0.738-74.84-0.738
			L137.327,291.198z"/>
		<path opacity="0.05" fill="#64328A" d="M137.327,291.198c0,0,34.314-10.897,71.589,0.383l21.921-93.482
			c-37.274-11.279-71.589-0.382-71.589-0.382L137.327,291.198z"/>
		<path fill="#F2EFE3" d="M137.327,291.198c0,0,31.416-11.846,70.144-4.565l22.463-95.793c-38.728-7.28-70.144,4.565-70.144,4.565
			L137.327,291.198z"/>
		<path opacity="0.05" fill="#64328A" d="M137.327,291.198c0,0,29.53-11.667,65.776-4.911l21.737-92.7
			c-36.245-6.756-65.776,4.911-65.776,4.911L137.327,291.198z"/>
		<path fill="#FFFFFF" d="M137.327,291.198c0,0,18.08-15.373,63.231-9.188l22.463-95.793c-45.151-6.186-63.231,9.188-63.231,9.188
			L137.327,291.198z"/>
		<g>
			<path fill="#CDC9C0" d="M185.756,193.752c-3.077,0.515-5.721,1.13-7.941,1.758c-5.53,1.563-9.215,3.391-11.239,4.573
				l-0.406,1.732c0.436-0.142,0.882-0.281,1.337-0.418c5.369-1.622,11.189-3.007,17.384-3.95L185.756,193.752z"/>
			<path fill="#CDC9C0" d="M164.391,209.395c0.437-0.141,0.884-0.28,1.339-0.417c12.827-3.874,28.221-6.409,45.19-4.761l0.877-3.741
				c-16.729-1.372-28.503,0.563-35.76,2.613c-5.53,1.563-9.215,3.392-11.24,4.574L164.391,209.395z"/>
			<path fill="#CDC9C0" d="M205.833,207.775c-14.524-0.758-24.938,1.02-31.573,2.894c-5.53,1.563-9.215,3.391-11.24,4.573
				l-0.405,1.732c0.436-0.141,0.883-0.28,1.338-0.417c11.766-3.555,25.693-5.979,41.014-5.083L205.833,207.775z"/>
			<path fill="#CDC9C0" d="M171.296,225.665c-0.199,0.055-0.397,0.109-0.591,0.164c-5.531,1.563-9.216,3.391-11.24,4.573
				l-0.406,1.731c0.437-0.141,0.884-0.279,1.339-0.417c3.208-0.969,6.577-1.854,10.092-2.611L171.296,225.665z"/>
			<path fill="#CDC9C0" d="M157.282,239.715c0.436-0.141,0.882-0.28,1.337-0.418c12.827-3.874,28.222-6.409,45.19-4.761l0.878-3.741
				c-16.73-1.371-28.503,0.564-35.761,2.614c-5.529,1.563-9.214,3.391-11.239,4.573L157.282,239.715z"/>
			<path fill="#CDC9C0" d="M155.504,247.294c0.436-0.141,0.883-0.279,1.338-0.417c12.827-3.874,28.222-6.409,45.19-4.761
				l0.877-3.741c-16.729-1.372-28.502,0.563-35.759,2.613c-5.531,1.563-9.216,3.392-11.24,4.574L155.504,247.294z"/>
			<path fill="#CDC9C0" d="M178.844,246.065c-5.543,0.579-10.02,1.528-13.472,2.504c-5.53,1.562-9.215,3.391-11.24,4.572
				l-0.405,1.732c0.437-0.141,0.883-0.28,1.338-0.417c6.936-2.096,14.623-3.797,22.904-4.658L178.844,246.065z"/>
			<path fill="#CDC9C0" d="M151.949,262.454c0.436-0.141,0.882-0.28,1.338-0.418c12.827-3.874,28.222-6.408,45.19-4.76l0.877-3.741
				c-16.729-1.372-28.502,0.563-35.76,2.613c-5.53,1.563-9.215,3.392-11.239,4.574L151.949,262.454z"/>
			<path fill="#CDC9C0" d="M150.171,270.034c0.437-0.141,0.884-0.28,1.339-0.418c12.826-3.874,28.221-6.408,45.19-4.76l0.877-3.742
				c-16.729-1.372-28.503,0.564-35.76,2.614c-5.53,1.563-9.215,3.391-11.24,4.573L150.171,270.034z"/>
			<path fill="#CDC9C0" d="M148.395,277.614c0.437-0.141,0.883-0.28,1.338-0.418c12.826-3.874,28.221-6.409,45.19-4.76l0.877-3.742
				c-16.729-1.371-28.503,0.564-35.76,2.614c-5.53,1.563-9.215,3.391-11.24,4.573L148.395,277.614z"/>
		</g>
	</g>
</g>
</svg>
