<?xml version="1.0" encoding="utf-8"?>
<!-- Generator: Adobe Illustrator 16.0.0, SVG Export Plug-In . SVG Version: 6.00 Build 0)  -->
<!DOCTYPE svg PUBLIC "-//W3C//DTD SVG 1.1//EN" "http://www.w3.org/Graphics/SVG/1.1/DTD/svg11.dtd">
<svg version="1.1" id="Layer_1" xmlns="http://www.w3.org/2000/svg" xmlns:xlink="http://www.w3.org/1999/xlink" x="0px" y="0px"
	 width="800px" height="800px" viewBox="0 0 800 800" enable-background="new 0 0 800 800" xml:space="preserve">
<g>
	<g>
		<path fill="#5E2C00" d="M478.888,457.943c-4.506-3.93-8.667-7.695-14.048-10.371c-5.706-2.838-11.801-4.309-17.987-5.777
			c-3.847-0.912-8.419-0.716-12.368-0.898c-7.197-0.338-14.037,3.098-21.233,2.854c-6.563-0.221-12.985-1.803-19.549-1.768
			c-6.228,0.033-12.281,1.672-18.063,3.843c-5.77,2.164-11.015,5.632-15.615,9.713c-1.681,1.491-3.013,3.01-4.302,4.751
			c-10.095,9.961-12.626,27.408-11.914,40.546c1.125,20.726,12.166,40.845,26.12,55.71c6.03,6.424,13.739,13.595,22.479,15.929
			c4.139,1.104,7.758,2.226,11.961,0.878c2.021-0.648,3.766-1.848,5.699-2.689c2.551-1.113,5.447-1.002,8.171-0.981
			c5.104,0.038,9.28,3.007,14.084,4.071c0.073,0.017,0.17-0.023,0.269-0.095c3.727,0.829,7.057-0.181,10.816-1.184
			c8.739-2.334,16.45-9.505,22.479-15.929c13.954-14.865,24.996-34.984,26.121-55.71
			C492.748,487.169,490.028,467.659,478.888,457.943z"/>
		<path fill="#ED1C28" d="M488.939,505.962c-3.718,19.836-13.923,38.4-28.787,52.095c-5.729,5.276-13.012,11.476-21.062,12.982
			c-4.098,1.296-8.35,0.76-12.628-0.758c-3.049-1.081-6.336-3.05-9.646-3.011c-2.992,0.033-5.687,1.204-8.46,2.18
			c-0.675,0.335-1.358,0.66-2.063,0.946c-2.783,1.132-4.469,1.167-7.404,0.942c-8.909-0.68-16.989-7.536-23.229-13.282
			c-14.865-13.694-25.07-32.259-28.788-52.095c-2.598-13.857-0.891-35.248,10.752-45.28c11.188-13.707,31.458-19.348,48.562-14.796
			c1.568,0.277,3.143,0.484,4.755,0.465c5.27-0.066,10.299-1.541,15.455-2.441c4.822-0.842,9.739-1.256,14.627-0.758
			c8.596,0.875,17.721,3.054,24.977,7.913c3.457,2.317,6.707,3.753,9.474,7.01c1.465,0.94,3.25,3.174,4.556,4.356
			C490.011,473.041,491.394,492.869,488.939,505.962z"/>
		<path fill="#FDE8E9" d="M352.39,523.323c-5.328-18.958-5.034-42.526,7.838-58.542c6.134-7.631,14.332-12.988,23.666-15.892
			c5.363-1.669,10.962-2.56,16.587-2.451c2.402,0.047,4.944,0.073,7.377-0.296c-0.559-0.074-1.114-0.158-1.671-0.256
			c-17.103-4.552-37.373,1.089-48.562,14.796c-11.643,10.032-13.35,31.423-10.752,45.28c1.396,7.453,3.711,14.728,6.844,21.633
			C353.241,526.181,352.794,524.759,352.39,523.323z"/>
		<path fill="#DB4726" d="M480.03,462.431c-1.306-1.183-3.091-3.416-4.556-4.356c-2.767-3.257-6.017-4.692-9.474-7.01
			c-7.256-4.859-16.381-7.038-24.977-7.913c-4.888-0.498-9.805-0.084-14.627,0.758c-5.156,0.9-10.186,2.375-15.455,2.441
			c-1.15,0.015-2.282-0.09-3.406-0.251c0.776,0.979,0.865,2.156-0.275,3.296c-2.475,2.47-7.961,3.296-6.11,7.998
			c0.088,0.227,0.191,0.443,0.304,0.659c0.019,0.038,0.039,0.077,0.061,0.116c0.074,0.137,0.158,0.271,0.241,0.404
			c0.556,0.864,1.342,1.613,2.511,2.225c0.44,0.229,0.886,0.427,1.339,0.605c2.77,0.727,5.616,0.686,8.446,0.186
			c4.686-0.828,9.382-2.465,14.199-2.066c0.037,0.004,0.072,0.009,0.109,0.012c6.392-0.446,13.213,2.581,17.148,7.451
			c6.151,7.621,9.132,18.078,10.819,27.55c2.034,11.405,2.152,23.159,0.874,34.663c-0.929,8.35-2.814,17.164-7.711,24.17
			c-2.324,3.33-5.256,6.283-8.834,8.265c-4.284,2.375-8.716,2.868-13.525,2.237c-4.833-0.635-9.686-2.232-14.607-1.623
			c-5.223,0.648-9.785,3.88-15.14,4.001c-5.149,0.117-9.696-2.337-13.85-5.169c-4.352-2.965-8.306-6.469-11.891-10.318
			c-8.414-9.031-15.528-19.574-21.014-30.868c5.108,14.483,13.713,27.737,25.031,38.164c6.24,5.746,14.319,12.603,23.229,13.282
			c2.935,0.225,4.621,0.189,7.404-0.942c0.705-0.286,1.389-0.611,2.063-0.946c2.773-0.976,5.468-2.146,8.46-2.18
			c3.31-0.039,6.597,1.93,9.646,3.011c4.278,1.518,8.53,2.054,12.628,0.758c8.05-1.507,15.332-7.706,21.062-12.982
			c14.864-13.694,25.069-32.259,28.787-52.095C491.394,492.869,490.011,473.041,480.03,462.431z"/>
		<g>
			<path fill="#5E2C00" d="M430.07,416.618c0.942-1.311,2.853-3.028,2.686-4.808c0.084-2.299-2.06-4.419-3.517-5.934
				c-1.829-1.9-4.778-2.477-6.813-0.513c-0.688,0.663-1.075,1.554-1.132,2.452c-0.04,0.054-0.07,0.102-0.077,0.134
				c-2.253,9.468-5.974,18.476-8.748,27.786c-1.889,6.354-3.725,15.365-1.427,22.249c-2.808-0.662-5.475-2.062-7.955-3.511
				c0.442,0.68,0.942,1.314,1.494,1.897c0.549,0.552,1.118,1.079,1.783,1.502c0.705,0.446,1.428,0.862,2.159,1.265
				c1.261,0.533,2.626,0.842,4.073,0.847c4.219,0.017,7.983-1.362,11.192-3.918c-2.021,0.651-3.874,1.392-5.812,1.86
				c-1.123-9.839-0.101-18.826,4.399-28.115C424.548,425.334,427.161,420.666,430.07,416.618z"/>
			<path fill="#843A1C" d="M415.645,458.33c-0.734,0.068-1.493,0.084-2.292,0.027c-0.522-3.195-1.25-6.31-1.273-9.623
				c-0.038-5.209,1.227-10.354,2.695-15.312c2.35-7.934,5.86-15.634,6.874-23.876c0.173,0.348,0.394,0.675,0.703,0.96
				c0.003,0.003,0.007,0.001,0.007,0.003c-0.487-1.482-0.537-3.37,0.412-4.412c1.589-1.747,4.061-0.516,5.505,0.807
				c1.396,1.278,4.349,4.342,2.944,6.393c-0.854,1.25-2.633,1.409-4.152,1.034c-0.067,0.188-0.069,0.362,0.069,0.468
				c0.854,0.646,1.957,0.705,2.957,0.367c-0.584,0.643-1.177,1.246-1.604,1.775c-1.385,1.709-2.41,3.744-3.596,5.593
				c-2.547,3.965-4.785,8.271-6.501,12.657C415.972,441.38,413.74,451.035,415.645,458.33z"/>
			<path fill="#843A1C" d="M415.755,437.284c1.498-4.965,3.367-9.878,5.295-14.692c1.221-3.047,2.605-6.056,4.562-8.674
				c-0.852-2.368-1.205-4.85,0.79-5.382c1.759-0.469,3.199,0.21,4.443,1.355c-0.738-1.212-1.854-2.331-2.569-2.987
				c-1.444-1.322-3.916-2.554-5.505-0.807c-0.949,1.042-0.899,2.93-0.412,4.412c0-0.002-0.004,0-0.007-0.003
				c-0.31-0.285-0.53-0.612-0.703-0.96c-1.014,8.242-4.524,15.942-6.874,23.876c-1.469,4.958-2.733,10.103-2.695,15.312
				c0.019,2.797,0.541,5.451,1.018,8.133C412.735,450.29,413.852,443.593,415.755,437.284z"/>
		</g>
	</g>
	<g>
		<g>
			<path fill="#5E2C00" d="M631.997,410.622c0.25-1.297,0.346-2.626,0.122-3.932c-0.379-2.215-1.501-3.077-3.556-3.784
				c-1.34-0.461-3.273-0.635-4.391,0.428c-0.561,0.531-0.678,1.303-0.4,1.931c1.902,10.487-1.549,21.236-5.011,30.966
				c-0.085,0.239,0.02,0.301,0.194,0.279c0,0.227,0.025,0.457,0.105,0.691c0.246,0.697,1.538,1.208,2.234,1.042
				c0.993-0.237,1.862-0.652,2.52-1.45c0.08-0.096,0.146-0.211,0.172-0.332c2.983-3.609,4.338-8.652,5.767-13.008
				C631.031,419.546,631.96,414.956,631.997,410.622z"/>
			<path fill="#904B15" d="M622.567,436.532c-0.652,0.146-1.43-0.077-1.669-0.76c-0.188-0.54,0.313-1.339,0.441-1.881
				c0.028-0.122,0.06-0.243,0.09-0.366c2.171-4.394,3.245-9.273,3.852-14.123c0.558-4.436,0.934-9.158-0.397-13.482
				c0.127-0.097,0.225-0.225,0.198-0.322c-0.128-0.51-0.107-1.103,0.062-1.629c1.891-0.305,4.254,1.207,5.034,2.684
				c0.581,1.1,0.794,2.352,0.945,3.605C630.451,419.4,626.353,428.445,622.567,436.532z"/>
			<path fill="#843A1C" d="M625.281,419.402c-0.606,4.85-1.681,9.729-3.852,14.123c-0.03,0.123-0.062,0.244-0.09,0.366
				c-0.128,0.542-0.63,1.341-0.441,1.881c0.04,0.117,0.103,0.216,0.171,0.306c1.924-2.237,3.132-5.666,3.943-7.996
				c1.535-4.395,3.261-9.528,2.988-14.244c-0.148-2.596-1.011-5.581-0.304-8.14c0.145-0.53,0.43-0.759,0.777-0.797
				c-1.007-0.673-2.243-1.108-3.331-0.933c-0.169,0.526-0.189,1.119-0.062,1.629c0.026,0.098-0.071,0.226-0.198,0.322
				C626.215,410.244,625.839,414.966,625.281,419.402z"/>
			<path fill="#5E2C00" d="M647.388,513.113c-1.205-9.799-2.677-19.693-1.975-29.586c0.647-9.133,4.569-17.806,4.856-26.96
				c0.134-4.227,0.207-8.111-1.104-12.215c-1.221-3.814-3.607-7.283-6.586-9.924c-3.327-2.948-6.662-3.76-11.027-3.955
				c-3.153-0.142-6.415-0.272-9.281-1.741c-6.631-3.398-13.123-3.621-20.326-2.028c-10.643,2.354-17.361,11.521-24.414,18.938
				c-3.929,4.133-7.336,8.993-11.096,13.327c-5.358,6.183-11.52,10.408-18.592,14.379c-10.526,5.909-20.221,11.333-28.502,20.263
				c-6.954,7.495-8.885,18.7-9.03,28.508c-0.174,11.661,5.396,23.141,11.946,32.388c14.994,21.174,42.944,30.346,67.979,29.422
				c16.396-0.607,32.432-5.74,43.611-18.273C647.075,550.831,649.744,532.212,647.388,513.113z"/>
			<path fill="#CDDA60" d="M558.884,576.705c-24.105-8.521-46.029-30.604-45.627-57.617c0.103-6.809,1.498-13.637,4.547-19.748
				c3.052-6.111,8.809-11.086,14.242-15.036c5.719-4.159,12.479-7.328,18.627-10.812c5.312-3.007,9.73-6.41,14.165-10.58
				c4.211-3.959,8.76-8.896,11.966-13.724c3.849-5.798,9.345-10.834,14.431-15.489c5.947-5.444,16.186-7.473,23.819-5.449
				c3.532,0.936,6.66,2.488,9.91,3.771c0.435,0.063,0.873,0.116,1.312,0.15c1.517,0.116,2.98-0.075,4.493-0.126
				c10.313-0.346,16.963,12.271,17.274,21.072c0.108,3.082-0.249,6.15-0.604,9.206c-0.745,6.37-2.879,12.61-3.809,18.972
				c-1.823,12.473-0.087,25.461,1.438,37.871c1.831,14.901-1.32,29.477-9.786,41.886
				C619.069,584.816,583.476,585.396,558.884,576.705z"/>
			<path fill="#CDDA60" d="M514.004,519.036c2.722-11.925,9.54-22.035,19.771-28.779c9.449-6.229,20.215-9.962,30.077-15.435
				c5.807-3.221,10.486-7.117,13.729-12.988c3.235-5.852,5.617-12.259,9.363-17.817c5.264-7.806,13.084-13.896,22.375-15.989
				c0.711-0.16,1.419-0.291,2.13-0.406c-7.021-0.695-15.165,1.452-20.215,6.078c-5.086,4.655-10.582,9.691-14.431,15.489
				c-3.206,4.827-7.755,9.765-11.966,13.724c-4.435,4.17-8.854,7.573-14.165,10.58c-6.147,3.483-12.908,6.652-18.627,10.812
				c-5.434,3.95-11.19,8.925-14.242,15.036c-3.049,6.111-4.444,12.939-4.547,19.748c-0.017,1.163,0.021,2.312,0.087,3.457
				C513.527,521.368,513.737,520.197,514.004,519.036z"/>
			<path fill="#CDDA60" d="M645.068,519.166c-1.525-12.41-3.262-25.398-1.438-37.871c0.93-6.361,3.063-12.602,3.809-18.972
				c0.355-3.056,0.713-6.124,0.604-9.206c-0.312-8.802-6.962-21.418-17.274-21.072c-1.513,0.051-2.977,0.242-4.493,0.126
				c-0.438-0.034-0.877-0.087-1.312-0.15c-3.25-1.282-6.378-2.835-9.91-3.771c-3.743-0.993-8.114-1.004-12.297-0.123
				c4.604,0.031,9.12,1.303,13.394,3.074c4.227,1.752,8.512,3.992,11.204,7.788c0.493-1.794,0.861-3.503,0.283-5.398
				c-0.107-0.356,0.327-0.72,0.65-0.497c5.019,3.444,5.043,10.209,3.789,15.586c-2.396,10.284-10.008,18.044-15.16,27.022
				c-2.745,7.608-4.142,15.634-4.148,23.978c-0.012,12.341,3.127,24.492,2.789,36.818c-0.291,10.564-4.001,20.361-12.776,26.732
				c-7.263,5.273-16.307,7.313-25.183,7.164c-9.162-0.154-18.336-2.196-26.791-5.703c-9.218-3.824-17.964-9.176-24.332-17.001
				c-6.797-8.352-10.393-18.709-10.113-29.505c0.14-5.389,1.215-10.521,2.836-15.493c1.11-3.905,2.638-7.681,4.475-11.313
				c-2.348,2.406-4.416,5.052-5.869,7.96c-3.049,6.111-4.444,12.939-4.547,19.748c-0.402,27.014,21.521,49.097,45.627,57.617
				c24.592,8.691,60.186,8.111,76.398-15.653C643.748,548.642,646.899,534.067,645.068,519.166z"/>
		</g>
		<g opacity="0.4">
			<path fill="#8E8E00" d="M561.41,496.654c-0.408-0.609-1.206-0.554-1.834-0.487c-0.636,0.068-1.288,0.364-1.88,0.741
				c-1.027,0.43-2.019,1.508-2.453,2.291c-0.772,1.393-0.994,3.823,1.189,3.848c1.878,0.019,3.514-1.411,4.482-2.894
				C561.539,499.201,562.11,497.71,561.41,496.654z"/>
			<path fill="#8E8E00" d="M525.363,524.456c-0.053-0.054-0.104-0.093-0.157-0.126c-0.077-0.541-1.09-0.312-1.367-0.204
				c-0.846,0.325-1.749,1.023-2.041,1.915c-0.217,0.67,0.172,0.981,0.798,1.035c0.753,0.066,1.591-0.519,2.104-1.004
				C524.981,525.804,525.8,524.909,525.363,524.456z"/>
			<g>
				<path fill="#8E8E00" d="M544.846,527.804c-0.55-1.253-2.24-0.262-2.898,0.391c-0.124,0.123-0.336,0.369-0.526,0.653
					c-0.375,0.427-0.66,0.943-0.828,1.408c-0.176,0.493-0.216,1.024-0.033,1.515c0.067,0.179,0.27,0.326,0.447,0.368
					c0.207,0.049,0.365,0.058,0.576,0.022c0.14-0.03,0.602-0.122,0.59-0.117c1.004-0.336,1.768-1.161,2.281-2.056
					C544.826,529.337,545.169,528.538,544.846,527.804z"/>
				<path fill="#8E8E00" d="M541.601,532.16c-0.007,0.002-0.012,0-0.018,0.002C541.529,532.171,541.519,532.174,541.601,532.16z"/>
			</g>
			<path fill="#8E8E00" d="M574.458,536.378c-0.474-1.094-2.011-0.83-2.826-0.371c-1.074,0.605-2.186,1.678-2.332,2.966
				c-0.102,0.386-0.113,0.79,0.012,1.178c0.293,0.932,1.178,1.495,2.15,1.333c1.314-0.22,2.486-1.278,2.97-2.498
				C574.761,538.154,574.815,537.208,574.458,536.378z"/>
			<path fill="#8E8E00" d="M631.485,555.998c-0.652-0.689-1.669-0.654-2.529-0.514c-1.027,0.164-1.976,0.739-2.794,1.43
				c-0.463,0.259-0.891,0.59-1.262,0.953c-1.239,1.212-1.747,2.761-1.751,4.463c-0.001,1.668,0.892,2.955,2.657,2.75
				c2.535-0.297,4.732-2.682,5.749-4.89C632.126,558.953,632.544,557.119,631.485,555.998z"/>
			<path fill="#8E8E00" d="M637.951,447.507c-0.408-0.434-1.045-0.41-1.588-0.323c-0.647,0.104-1.241,0.465-1.758,0.898
				c-0.291,0.163-0.561,0.372-0.792,0.602c-0.779,0.761-1.099,1.734-1.103,2.806c0,1.048,0.562,1.857,1.673,1.729
				c1.592-0.188,2.976-1.686,3.614-3.074C638.354,449.365,638.617,448.212,637.951,447.507z"/>
			<path fill="#8E8E00" d="M526.893,495.361c-0.41-0.434-1.049-0.41-1.593-0.324c-0.645,0.104-1.242,0.466-1.756,0.899
				c-0.291,0.164-0.56,0.372-0.795,0.6c-0.776,0.763-1.1,1.735-1.1,2.808c-0.001,1.047,0.562,1.857,1.672,1.729
				c1.593-0.187,2.977-1.686,3.614-3.074C527.293,497.219,527.557,496.066,526.893,495.361z"/>
			<path fill="#8E8E00" d="M632.488,523.751c0-0.004,0.002-0.006,0.002-0.011c0,0.003,0,0.003,0,0.003
				c0.005-0.073,0.008-0.146,0.017-0.222c0.046-0.694-1.092-0.431-1.397-0.313c-0.708,0.273-1.599,0.867-1.917,1.591
				c-0.038,0.085-0.077,0.172-0.113,0.258c-0.121,0.277-0.305,0.633-0.089,0.925c0.295,0.401,0.98,0.206,1.344,0.066
				c0.722-0.276,1.558-0.849,1.942-1.589c0.01-0.017,0.021-0.031,0.03-0.048C632.43,524.191,632.468,523.978,632.488,523.751z"/>
			<path fill="#8E8E00" d="M608.915,552.976c-0.094-1.738-1.857-2.469-3.255-1.584c-0.741,0.469-1.564,1.057-1.918,1.893
				c-0.284,0.674-0.419,1.342-0.465,2.07c-0.04,0.601,0.104,1.377,0.582,1.776c0.334,0.276,0.742,0.318,1.147,0.247
				c0.618,0.063,1.326-0.189,1.875-0.582C608.146,555.89,609,554.562,608.915,552.976z"/>
			<path fill="#8E8E00" d="M634.414,540.447c-0.161-0.527-0.74-0.42-1.156-0.259c-0.667,0.254-1.204,0.727-1.589,1.315
				c-0.154,0.238-0.423,0.578-0.329,0.875c0.178,0.564,0.792,0.451,1.246,0.278c0.714-0.274,1.291-0.782,1.706-1.417
				C634.464,540.98,634.5,540.728,634.414,540.447z"/>
			<path fill="#8E8E00" d="M577.713,568.673c-0.469-0.124-0.936,0.083-1.346,0.294c-0.567,0.294-0.729,0.491-1.107,0.868
				c-0.107,0.107-0.221,0.234-0.328,0.373c-0.007,0.009-0.018,0.017-0.028,0.026c-0.578,0.552-0.834,1.319-0.605,2.095
				c0.255,0.87,1.25,0.679,1.875,0.336c0.848-0.471,1.545-1.188,1.884-2.105C578.256,570.015,578.498,568.883,577.713,568.673z"/>
			<path fill="#8E8E00" d="M607.011,566.54c-0.273-0.374-0.913-0.192-1.252-0.062c-0.818,0.313-2.02,1.155-2.01,2.15
				c-0.005,0.055,0,0.109,0.011,0.164c0.097,0.614,0.895,0.439,1.29,0.287c0.711-0.273,1.382-0.803,1.765-1.466
				c0.045-0.067,0.081-0.139,0.113-0.212C607.051,567.152,607.204,566.804,607.011,566.54z"/>
			<path fill="#8E8E00" d="M546.911,553.99c-0.064,0.229,0.217-1.502,0.009-0.379c0.06-0.332,0.115-0.621,0.035-0.943
				c-0.013,0.008-0.026,0.016-0.037,0.024c-0.107-0.791-0.94-1.035-1.824-0.858c-0.764,0.152-1.485,0.504-2.156,0.943
				c-0.401,0.11-0.798,0.309-1.033,0.439c-0.695,0.387-1.581,1.034-1.91,1.799c-0.384,0.889-0.406,1.8-0.706,2.697
				c-0.215,0.641,0.256,1.268,0.791,1.562c0.677,0.371,1.497,0.122,2.173-0.088c1.663-0.523,3.163-1.957,3.979-3.476
				c0.18-0.332,0.311-0.688,0.418-1.051C546.758,554.443,546.847,554.219,546.911,553.99z"/>
			<path fill="#8E8E00" d="M612.419,506.258c-0.336-0.212-0.95,0.091-1.236,0.245c-0.794,0.434-1.696,1.211-1.832,2.165
				c-0.09,0.632,0.017,1.214,0.617,1.534c0.108,0.059,0.234,0.076,0.365,0.066c0.257,0.097,0.542,0.122,0.792,0.051
				c0.894-0.252,1.719-0.981,1.895-1.922C613.149,507.711,613.144,506.715,612.419,506.258z"/>
			<path fill="#8E8E00" d="M631.269,500.573c0.034-0.319-0.041-0.483-0.18-0.757c-0.28-0.553-1.44,0.146-1.704,0.338
				c-0.354,0.262-1.186,0.994-0.835,1.521c0.104,0.162,0.187,0.333,0.382,0.403c0.376,0.136,0.816-0.048,1.146-0.229
				C630.491,501.619,631.213,501.107,631.269,500.573z"/>
			<path fill="#8E8E00" d="M601.217,528.677c-0.569-0.063-1.283,0.14-1.948,0.5c-0.074,0.004-0.146-0.007-0.222,0.005
				c-0.868,0.144-1.556,0.88-2.019,1.571c-0.691,1.041-0.877,2.72-0.214,3.815c0.459,0.763,1.54,0.595,2.221,0.312
				c1.621-0.678,2.761-2.05,3.369-3.664C602.815,530.128,602.557,528.824,601.217,528.677z"/>
		</g>
	</g>
	<g>
		<g>
			<path fill="#5E2C00" d="M274.259,425.34c-0.389-5.96-0.923-12.364-3.084-18.057c-0.294-1.335-0.674-2.652-1.103-3.923
				c-0.884-2.609-2.644-3.216-5.194-2.374c-1.651,0.547-3.468,2.078-4.364,3.575c-0.962,1.609-0.569,2.44,0.409,3.535
				c2.843,4.875,4.126,10.884,5.37,16.279c1.543,6.688,1.759,12.824,0.759,19.314c-0.303,0.959-0.552,1.939-0.769,2.905
				c-0.236,1.049-0.357,2.269,0.962,2.343c1.409,0.081,3.085-0.79,4.14-1.66c0.725-0.597,1.659-1.668,1.814-2.722
				C275.436,438.82,274.642,431.202,274.259,425.34z"/>
			<path fill="#904B15" d="M271.86,444.786c-0.335,0.753-0.621,1.301-1.468,1.722c-0.612,0.305-2.875,1.493-2.868,0.133
				c0-0.118,0.013-0.233,0.02-0.349c2.444-6.522,1.827-12.565,0.612-19.308c-1.105-6.139-2.457-13.939-6.148-19.031
				c-0.436-1.611-1.23-2.826,0.497-4.199c1.524-1.213,3.638-2.165,5.322-0.727c1.027,0.875,1.587,3.131,2.011,4.361
				c0.136,0.396,0.267,0.796,0.399,1.197c1.332,5.475,2.441,13.948,2.942,19.482C273.762,434.513,273.056,438.404,271.86,444.786z"
				/>
			<path fill="#904B15" d="M267.525,446.64c-0.003,0.907,1,0.68,1.851,0.338c0.032-0.217,0.057-0.396,0.074-0.508
				c0.296-1.845,0.487-3.707,0.614-5.572c0.324-4.756,0.079-9.531-0.451-14.266c-0.404-3.613-1.179-7.152-2.18-10.647
				c-0.463-1.614-0.832-3.356-1.597-4.861c-0.535-1.05-1.114-2.074-1.603-3.146c-0.749-1.633-0.778-3.225,0.109-4.808
				c0.127-0.226,0.267-0.456,0.417-0.682c-0.808,0.253-1.587,0.734-2.253,1.265c-1.728,1.373-0.933,2.588-0.497,4.199
				c3.691,5.092,5.042,12.893,6.148,19.031c1.214,6.742,1.832,12.785-0.612,19.308C267.538,446.407,267.525,446.522,267.525,446.64z
				"/>
			<path fill="#5E2C00" d="M308.156,473.156c-1.937-8.178-3.963-16.535-10.526-24.505c-5.095-6.078-6.415-7.042-11.203-9.95
				c-9.024-5.479-20.115-7.587-30.394-5.463c-9.77,2.02-19.403,6.186-27.006,12.686c-7.856,6.717-15.001,15.486-18.53,25.275
				c-3.807,10.557-5.286,21.678-9.606,32.111c-2.367,5.713-5.795,11.688-10.613,15.614c-4.41,3.593-9.225,6.569-13.629,10.151
				c-6.194,5.037-12.198,12.305-10.525,20.922c1.665,8.575,9.939,14.46,17.552,17.571c10.135,4.142,22.46,3.985,33.207,3.463
				c21.107-1.025,41.513-8.068,59.181-19.617c3.94-2.575,7.337-5.954,10.775-9.146c3.549-3.296,7.458-6.929,10.081-11.043
				c2.818-4.426,9.902-15.221,12.124-27.748C310.862,493.217,310.569,483.347,308.156,473.156z"/>
			<path fill="#FDC762" d="M307.749,497.58c-0.888,8.168-3.296,16.166-6.924,23.534c-1.217,2.472-2.563,4.88-4.009,7.226
				c-0.953,1.548-1.962,3.074-3.1,4.494c-4.009,4.994-8.987,9.195-13.724,13.472c-9.102,8.217-21.904,12.954-33.281,16.925
				c-12.049,4.205-24.596,5.391-37.31,5.443c-10.98,0.047-23.809-1.475-32.741-8.384c-4.212-3.257-8.137-7.677-8.881-13.067
				c-1.132-8.188,5.276-13.676,10.891-18.364c3.924-3.276,8.468-5.866,12.479-9.084c3.677-2.948,5.965-6.743,8.354-10.714
				c7.694-12.787,8.437-27.452,14.03-40.96c8.464-20.448,33.767-36.302,55.955-32.393c15.266,2.69,26.204,11.569,32.14,25.825
				c1.549,3.715,3.044,7.654,4.02,11.563c1.535,6.145,2.613,12.536,2.471,18.888C308.076,493.853,307.953,495.72,307.749,497.58z"/>
			<path fill="#FDC762" d="M305.646,473.095c-0.976-3.908-2.471-7.848-4.02-11.563c-5.936-14.256-16.874-23.135-32.14-25.825
				c-5.434-0.957-11.055-0.723-16.569,0.467c3.995-0.402,8.079-0.242,12.211,0.624c8.35,1.748,16.128,5.928,21.646,12.523
				c5.82,6.955,9.073,15.69,10.306,24.613c2.488,18.018-5.101,35.701-16.6,49.25c-11.938,14.064-28.053,25.118-45.564,30.982
				c-9.089,3.044-18.896,4.648-28.48,4.68c-9.225,0.031-19.474-1.227-27.272-6.584c-3.053-2.097-5.76-4.982-6.241-8.811
				c-0.404-3.213,0.689-5.958,2.065-8.807c0.767-1.586,1.597-3.148,2.41-4.718c-5.26,4.456-10.667,9.721-9.618,17.294
				c0.745,5.391,4.669,9.811,8.881,13.067c8.933,6.909,21.761,8.431,32.741,8.384c12.713-0.053,25.26-1.238,37.31-5.443
				c11.376-3.971,24.179-8.708,33.281-16.925c4.737-4.276,9.715-8.478,13.724-13.472c1.138-1.42,2.147-2.946,3.1-4.494
				c1.446-2.346,2.792-4.754,4.009-7.226c3.628-7.368,6.037-15.366,6.924-23.534c0.204-1.859,0.327-3.727,0.368-5.597
				C308.259,485.631,307.181,479.24,305.646,473.095z"/>
			<path fill="#FDC762" d="M174.196,534.146c5.686-4.577,12.992-6.304,18.75-10.724c5.001-3.839,8.759-8.965,11.463-14.628
				c7.373-15.438,7.857-33.768,17.068-48.377c5.446-8.637,13.162-15.338,22.222-19.962c2.989-1.527,6.107-3.011,9.31-4.298
				c-17.036,3.643-33.076,16.476-39.478,31.942c-5.593,13.508-6.336,28.173-14.03,40.96c-2.389,3.971-4.677,7.766-8.354,10.714
				c-4.011,3.218-8.555,5.808-12.479,9.084c-3.925,3.278-8.232,6.954-10.084,11.665C169.979,538.13,171.898,535.996,174.196,534.146
				z"/>
		</g>
		<path fill="#FDC762" d="M275.064,536.578c-1.874,0.359-4.801,4.449-2.767,6.019C275.809,545.308,278.574,535.904,275.064,536.578z
			"/>
		<path fill="#FDC762" d="M252.36,528.908c-1.142,0.219-2.924,2.708-1.684,3.665C252.813,534.223,254.498,528.498,252.36,528.908z"
			/>
		<path fill="#FDC762" d="M178.6,544.341c-1.142,0.219-2.923,2.708-1.686,3.665C179.052,549.657,180.736,543.931,178.6,544.341z"/>
		<g>
			<path fill="#FDC762" d="M220.267,554.419c-1.108,0.213-2.922,2.709-1.685,3.666C220.72,559.736,222.34,554.023,220.267,554.419z"
				/>
		</g>
	</g>
	<g>
		<g>
			<path fill="#5E2C00" d="M322.378,309.552c-1.527-11.22-10.386-21.671-19.717-27.36c-10.815-6.596-23.639-7.532-35.708-4.649
				c-3.578,0.855-9.348,5.069-9.364,5.091c-2.445,1.441-4.732,3.217-6.978,4.948c-5.081,3.919-9.381,8.991-12.496,14.583
				c-2.543,4.57-4.287,9.369-5.178,14.288c-2.952-3.734-6.452-7.071-10.328-9.942c-2.956-2.191-9.895-3.9-9.921-3.896
				c-2.675-0.946-5.507-1.555-8.277-2.16c-6.268-1.371-12.918-1.402-19.203-0.189c-11.269,2.174-20.933,7.934-27.638,17.241
				c-6.512,9.038-9.189,20.173-7.333,31.202c2.111,12.545,9.218,22.824,19.906,29.7c10.366,6.668,22.909,9.42,35.025,7.27
				c11.604-2.058,20.703-7.461,28.576-16.138c4.497-4.954,7.128-11.697,8.2-18.612c3.002,3.607,6.615,6.726,10.772,9.172
				c10.964,6.452,23.407,7.622,35.546,3.859c11.771-3.648,21.947-11.484,28.094-22.144
				C322.246,331.604,323.959,321.163,322.378,309.552z"/>
			<path fill="#ED1C28" d="M237.824,360.078c-4.942,12.141-16.125,20.221-28.719,23.004c-11.718,2.592-22.563,1.077-33.304-4.217
				c-20.767-10.236-31.083-35.858-19.739-56.884c12.432-23.048,41.723-24.36,63.143-14.495c0.125,0.058,8.552,3.319,16.307,17.179
				C241.595,335.542,242.558,348.45,237.824,360.078z"/>
			<path fill="#FDE8E9" d="M166.112,314.151c10.118-9.923,24.335-12.383,38.36-11.383c-18.555-3.564-38.664,1.144-48.411,19.213
				c-9.699,17.979-3.554,39.311,11.413,51.517C152.487,358.471,150.531,329.428,166.112,314.151z"/>
			<path fill="#DB4726" d="M235.511,324.666c-7.754-13.86-16.182-17.121-16.307-17.179c-5.688-2.622-11.936-4.442-18.275-5.288
				c-1.739,0.529-3.37,1.424-4.482,2.763c-0.697,0.838-1.075,1.688-1.227,2.53c0.206,0.882,0.284,1.809,0.451,2.667
				c0.721,3.688,4.911,4.918,8.2,5.495c3.083,0.543,6.078,0.445,9.188,0.466c5.363,0.038,8.905,2.588,11.728,7.104
				c5.597,8.959,6.644,21.399,3.172,31.344c-3.507,10.044-11.567,17.511-21.561,20.998c-6.535,2.281-13.859,3.277-20.823,2.291
				c-10.405-0.428-20.352-6.015-26.45-14.88c-4.565-6.64-6.93-14.837-7.138-22.868c-0.062-2.374-0.034-4.764,0.131-7.139
				c-3.592,18.279,6.433,37.394,23.681,45.896c10.741,5.294,21.586,6.81,33.304,4.217c12.594-2.784,23.777-10.863,28.719-23.004
				C242.558,348.45,241.595,335.542,235.511,324.666z"/>
			<path fill="#ED1C28" d="M316.9,337.133c-5.551,10.639-13.687,17.969-24.648,22.789c-17.437,7.666-38.291,3.207-50.042-10.977
				c0.463-4.142,0.386-8.292-0.194-12.104c-1.076-7.078-3.952-13.482-8.048-19.049c3.051-16.097,16.413-29.881,31.544-37.015
				c0.124-0.058,8.04-4.413,23.641-1.436c12.242,2.336,22.746,9.902,28.606,21.004C323.875,311.937,322.87,325.698,316.9,337.133z"
				/>
			<path fill="#FDE8E9" d="M246.985,298.579c4.315-6.48,10.793-12.429,17.477-17.29c-14.694,7.268-27.514,20.779-30.494,36.503
				c1.961,2.665,3.633,5.527,4.971,8.559C239.507,316.81,241.588,306.68,246.985,298.579z"/>
			<path fill="#DB4726" d="M317.758,300.345c-5.86-11.102-16.364-18.668-28.606-21.004c-11.381-2.171-18.655-0.443-21.813,0.674
				c3.03,0.624,7.483,2.02,7.258,5.363c-0.244,3.648-4.056,6.498-6.607,8.663c-3.201,2.719-7.632,5.918-8.339,10.376
				c-0.284,1.79-0.245,5.413,2.371,5.33c1.708-0.053,3.329-0.915,4.75-1.799c2.851-1.774,5.487-3.952,7.921-6.263
				c6.511-6.188,13.895-14.374,23.761-9.715c6.727,3.174,11.701,10.387,13.161,17.85c0.432,1.73,0.705,3.479,0.799,5.194
				c0.515,9.342-2.78,18.897-8.468,26.279c-8.813,11.434-28.27,20.799-42.212,14.272c-5.641-1.7-10.957-5.201-14.67-9.088
				c-1.673-1.752-3.229-3.646-4.654-5.646c0.154,2.646,0.106,5.375-0.199,8.113c11.752,14.183,32.606,18.642,50.042,10.977
				c10.961-4.82,19.097-12.15,24.648-22.789C322.87,325.698,323.875,311.937,317.758,300.345z"/>
			<path fill="#5E2C00" d="M274.121,232.882c1.055-1.041,2.627-2.07,3.481-3.424c-1.792-1.822-4.675-3.313-7.385-3.13
				c-0.482,0.303-0.955,0.867-1.643,1.83c-5.885,8.248-14.714,14.414-22.527,20.703c-7.302,5.876-14.168,12.125-20.154,19.358
				c-5.956,7.194-10.928,14.982-15.322,23.212c-2.136,4.003-3.992,8.173-5.533,12.438c-0.761,2.104-1.845,4.538-2.144,6.918
				c-1.682-1.063-3.151-2.709-3.68-4.456c-0.106-0.347-0.794,0.382-0.759,0.641c0.99,7.225,7.591,9.386,13.499,5.591
				c0.093-0.06,0.621-0.786,0.267-0.771c-1.45,0.064-2.887,0.284-4.312,0.309c1.523-3.484,2.206-7.307,3.771-10.785
				c2.109-4.689,4.674-9.089,6.884-13.718c7.989-16.74,23.853-29.543,38.925-39.667c-0.329,0.767-0.611,1.557-0.917,2.319
				c-1.297,3.224-1.83,6.964-2.376,10.373c-1.163,7.235-0.625,14.946,0.741,22.106c1.377,7.21,4.397,15.308,10.167,20.077
				c0.717,0.59,1.378,1.396,2.137,1.83c-1.526,0.999-3.094,1.928-4.559,3.015c-0.245,0.183-1.233,1.548-0.353,1.438
				c5.54-0.692,16.854-10.17,12.115-16.343c-0.145-0.19-0.574,0.378-0.509,0.559c0.911,2.549-0.416,5.366-2.216,7.539
				c-0.076-0.358-0.218-0.729-0.453-1.122c-0.277-0.464-0.587-0.904-0.897-1.343c-1.528-1.986-3.197-3.885-4.367-6.181
				c-2.057-4.039-3.633-8.341-4.72-12.732c-2.784-11.247-1.49-21.719,3.137-32.259C266.744,241.908,269.981,236.957,274.121,232.882
				z"/>
			<path fill="#904B15" d="M260.047,284.522c1.089,3.762,2.88,7.321,4.791,10.73c1.54,2.748,3.77,4.553,5.857,6.712
				c-0.479,0.475-0.964,0.901-1.433,1.261c-0.364,0.279-0.745,0.536-1.121,0.797c-3.474-1.294-7.693-10.46-8.432-12.106
				c-2.734-6.086-3.788-13.004-4.238-19.608c-0.456-6.743,0.359-13.483,1.874-20.039c0.529-2.292,1.378-4.34,2.388-6.395
				c-0.667,0.095-1.322,0.243-1.98,0.369c-12.222,6.888-22.714,17.181-31.684,27.843c-4.837,5.75-8.059,12.365-11.802,18.801
				c-1.805,3.11-2.95,6.694-4.414,9.969c-0.593,1.327-1.009,2.701-1.366,4.104c-0.267,0.916-0.554,1.825-0.862,2.727
				c-0.201,0.612-0.908,1.61-1.664,2.286c-0.386-0.062-0.771-0.143-1.157-0.268c-0.314-0.101-0.63-0.231-0.945-0.38
				c0.359-4.182,3.058-8.827,4.675-12.447c2.164-4.852,4.865-9.385,7.502-13.982c4.634-8.076,10.567-15.645,17.046-22.324
				c11.831-12.194,27.552-20.508,37.354-34.632c-0.336,0.487,3.981,1.336,4.308,1.424c1.349,0.361,1.127-0.183,0.022,1.018
				c-2.93,3.181-5.713,6.194-8.259,9.742c-4.271,5.953-7.009,13.948-8.407,21.084C256.602,268.865,257.907,277.125,260.047,284.522z
				"/>
		</g>
	</g>
	<g>
		<g>
			<path fill="#5E2C00" d="M415.603,269.915c1.506-14.953,9.326-28.661,9.324-43.764c-0.003-12.429-13.98-11.566-21.725-7.244
				c-10.228,5.71-19.085,17.836-23.896,28.242c-5.992,12.961-6.584,26.717-6.202,40.959c0.173,6.383,1.667,12.807,3.37,18.924
				c0.94,3.379,1.868,8.234,3.593,12.103c2.884,11.556,8.979-0.187,13.791-4.084c6.73-5.452,15.787-7.956,24.4-7.424
				c2.096,0.131,4.471,1.172,5.396-1.627c1.293-3.909-1.467-8.183-3.502-11.379C415.649,287.547,414.789,277.978,415.603,269.915z"
				/>
			<path fill="#FFFFDE" d="M417.237,304.442c-2.275-0.026-4.525,0.368-6.74,0.836c-3.949,0.833-9.381,1.673-12.739,4.16
				c-2.653,1.964-5.215,3.962-7.663,6.175c-0.849,0.765-1.816,1.641-2.454,2.598c-2.533,3.797-4.703,0.914-5.727-2.11
				c-0.038-0.115-0.113-0.16-0.2-0.176c-0.888-2.43-2.021-4.873-2.638-6.844c-1.917-6.122-3.282-12.366-4.186-18.715
				c-1.816-12.771,0.879-26.936,5.283-38.938c4.861-13.251,14.804-28.19,28.819-32.848c5.337-1.772,11.908-1.489,13.979,4.621
				c1.98,5.847-0.689,13.807-2.259,19.469c-2.742,9.896-5.937,19.398-6.976,29.675c-1.079,10.663,3.487,19.336,7.834,28.654
				C423.496,305.118,419.827,304.472,417.237,304.442z"/>
			<path fill="#FFFFE5" d="M417.934,220.378c-1.134,7.14-6.961,13.033-10.381,19.206c-8.2,14.81-12.633,31.458-9.066,48.33
				c1.387,6.558,3.763,12.727,6.937,18.44c1.775-0.423,3.537-0.752,5.074-1.076c2.215-0.468,4.465-0.862,6.74-0.836
				c2.59,0.03,6.259,0.676,4.336-3.445c-4.347-9.318-8.913-17.991-7.834-28.654c1.039-10.276,4.233-19.779,6.976-29.675
				c1.569-5.662,4.239-13.622,2.259-19.469c-0.93-2.745-2.771-4.307-4.998-5.042C418.069,218.86,418.056,219.607,417.934,220.378z"
				/>
		</g>
		<g>
			<path fill="#5E2C00" d="M491.021,376.139c-0.431-2.226-1.289-5.414-3.139-6.912c-0.568-0.459-1.343-0.712-2.085-0.582
				c-3.485,0.616-6.062,0.379-9.417-0.948c-2.758-1.087-5.263-2.604-7.732-4.217c-0.441-0.288-1.16-0.659-1.953-1.069
				c0.029-3.185-0.424-6.338-1.634-9.477c-2.328-6.031-6.8-11.54-10.942-16.412c-4.583-5.387-9.803-10.082-14.148-15.694
				c-4.842-6.256-9.452-12.936-13.351-19.818c-0.055-0.094-0.101-0.189-0.154-0.282c0.208,1.367,0.679,2.597,1.529,3.566
				c0.463,0.53-0.146,1.461-0.79,1.024c-8.888-6.042-23.742-3.754-32.688,1.083c-7.283,3.936-13.17,9.788-17.658,16.624
				c7.887,16.484,19.42,32.585,33.476,43.923c7.39,5.963,15.869,10.261,25.097,12.501c7.59,1.847,20.413,2.581,26.563-3.92
				c0.624,0.609,1.251,1.22,1.876,1.833c2.481,2.442,5.063,5.119,5.605,8.708c0.145,0.943,0.315,1.901,0.903,2.687
				c1.632,2.167,4.81,1.277,7.087,1.1c4.595-0.361,7.942-2.527,11.38-5.447C491.58,382.09,491.661,379.432,491.021,376.139z"/>
			<path fill="#FEE96F" d="M488.874,376.621c-0.28-1.455-0.766-5.442-3.117-5.024c-3.283,0.584-6.167-0.17-9.177-1.58
				c-3.313-1.548-6.858-3.603-9.935-6.063c-0.117,2.118-0.427,4.252-0.853,6.412c-0.049,0.252-0.25,0.198-0.421,0.055
				c-0.149-2.644-0.189-5.286-0.533-7.922c-0.079-0.619-0.186-1.615-0.419-2.606c-0.636-4.398-1.94-8.561-4.872-12.705
				c-4.229-5.981-8.943-11.363-14.1-16.557c-4.74-4.775-8.759-10.31-12.536-15.857c-2.241-3.292-4.475-6.56-6.522-9.942
				c-8.957-5.395-23.189-3.126-31.874,1.571c-6.564,3.547-11.995,8.656-16.29,14.633c7.178,15.259,17.229,30.373,29.818,41.35
				c7.559,6.59,16.545,12.061,26.48,14.088c5.01,1.022,10.365,1.746,15.453,0.89c1.228-0.205,2.584-0.505,3.96-0.899
				c1.922-0.435,3.774-1.079,5.685-1.759c1.276-0.454,2.773-0.945,3.912-1.802c0.082,0.228,0.1,0.457-0.003,0.625
				c-0.088,0.143-0.184,0.278-0.275,0.415c2.986,2.509,5.759,5.251,7.312,8.569c0.471,1.005,0.977,2.007,1.144,3.123
				c0.356,2.356,2.291,1.65,4.353,1.494c3.872-0.292,7.028-1.927,9.967-4.411C488.06,380.996,489.424,379.448,488.874,376.621z"/>
			<path fill="#FEE96F" d="M486.235,380.976c-2.146-0.143-4.293-0.059-6.436-0.29c-4.985-0.531-8.793-4.18-12.301-7.492
				c-0.49,1.097-0.951,2.182-1.53,3.196c1.888,1.845,3.533,3.845,4.599,6.122c0.471,1.005,0.977,2.007,1.144,3.123
				c0.356,2.356,2.291,1.65,4.353,1.494c3.872-0.292,7.028-1.927,9.967-4.411c0.593-0.503,1.117-0.996,1.565-1.502
				C487.178,381.096,486.733,381.007,486.235,380.976z"/>
			<path fill="#FEE96F" d="M432.912,314.774c-2.241-3.292-4.475-6.56-6.522-9.942c-1.615-0.973-3.396-1.704-5.291-2.206
				c1.537,2.836,3.297,5.555,5.314,8.111c3.813,4.837,8.252,9.05,12.964,12.957C437.102,320.803,434.969,317.795,432.912,314.774z"
				/>
			<path fill="#F8C447" d="M474.285,376.127c2.762,1.63,5.519,3.6,8.936,2.997c2.369-0.418,4.56-2.316,5.211-4.663
				c-0.408-1.544-1.145-3.137-2.675-2.865c-3.283,0.584-6.167-0.17-9.177-1.58c-3.14-1.469-6.479-3.402-9.438-5.697
				c0.16,1.702,0.36,3.392,0.729,5.028C468.684,372.963,471.327,374.38,474.285,376.127z"/>
			<path fill="#9FC443" d="M476.063,387.128c3.872-0.292,7.028-1.927,9.967-4.411c2.029-1.722,3.394-3.269,2.844-6.096
				c-0.28-1.455-0.766-5.442-3.117-5.024c-3.283,0.584-6.167-0.17-9.177-1.58c-3.313-1.548-6.858-3.603-9.935-6.063
				c-0.117,2.118-0.427,4.252-0.853,6.412c-0.049,0.252-0.25,0.198-0.421,0.055c-0.149-2.644-0.189-5.286-0.533-7.922
				c-0.079-0.619-0.186-1.615-0.419-2.606c-0.345-2.381-0.897-4.691-1.784-6.969c1.013,4.18,1.137,8.543,0.07,12.846
				c-0.903,3.652-2.655,6.951-5.141,9.647c0.683-0.228,1.365-0.463,2.057-0.711c1.276-0.454,2.773-0.945,3.912-1.802
				c0.082,0.228,0.1,0.457-0.003,0.625c-0.088,0.143-0.184,0.278-0.275,0.415c2.986,2.509,5.759,5.251,7.312,8.569
				c0.471,1.005,0.977,2.007,1.144,3.123C472.067,387.991,474.002,387.285,476.063,387.128z"/>
			<path fill="#FEE96F" d="M463.531,373.528c-0.088,0.143-0.184,0.278-0.275,0.415c0.595,0.5,1.174,1.011,1.742,1.531
				c0.649-1.18,1.14-2.454,1.726-3.705c0.186-0.393,0.74-0.397,1.024-0.13c2.788,2.613,5.846,6,9.596,7.173
				c2.732,0.853,5.441,0.632,8.246,0.818c1.05,0.068,1.964,0.252,2.772,0.541c0.563-0.977,0.795-2.093,0.512-3.55
				c-0.28-1.455-0.766-5.442-3.117-5.024c-3.283,0.584-6.167-0.17-9.177-1.58c-3.313-1.548-6.858-3.603-9.935-6.063
				c-0.117,2.118-0.427,4.252-0.853,6.412c-0.049,0.252-0.25,0.198-0.421,0.055c-0.149-2.644-0.189-5.286-0.533-7.922
				c-0.079-0.619-0.186-1.615-0.419-2.606c-0.636-4.398-1.94-8.561-4.872-12.705c-4.229-5.981-8.943-11.363-14.1-16.557
				c-4.74-4.775-8.759-10.31-12.536-15.857c-2.241-3.292-4.475-6.56-6.522-9.942c-8.957-5.395-23.189-3.126-31.874,1.571
				c-6.564,3.547-11.995,8.656-16.29,14.633c6.003,12.759,14.022,25.408,23.846,35.633c-1.907-4.052-3.402-8.286-4.108-12.657
				c-1.073-6.664,0.569-14.311,3.925-20.174c2.21-3.861,6.402-8.318,10.731-4.337c2.582,2.372,4.282,5.458,6.607,8.049
				c3.159,3.525,6.271,7.1,9.51,10.553c3.69,3.936,7.462,7.919,11.836,11.108c3.692,2.688,7.607,5.053,11.308,7.728
				c4.986,3.608,7.663,9.593,7.676,15.804c0.002,0.878-0.33,1.637-0.878,2.295c0.314-0.11,0.627-0.219,0.943-0.332
				c1.276-0.454,2.773-0.945,3.912-1.802C463.616,373.131,463.634,373.36,463.531,373.528z"/>
		</g>
		<path fill="#5E2C00" d="M485.586,307.776c-0.486-0.946-1.089-1.825-1.76-2.67c-1.073-1.044-2.318-1.968-3.085-2.701
			c-2.099-2.009-3.848-4.579-5.316-7.071c-0.068-0.12-0.132-0.244-0.203-0.365c-2.599-3.958-4.751-8.202-7.649-11.972
			c-6.415-8.339-15.065-15.688-26.062-15.679c-6.997,0.007-12.538,4.123-16.393,9.619c-2.215,3.155-5.481,12.597-3.408,16.897
			c0.001,0.597,0.013,1.201,0.078,1.848c0.025,0.236,0.133,0.326,0.271,0.352c0.196,0.956,0.5,1.889,0.883,2.815
			c0.155,0.698,0.322,1.31,0.48,1.793c-1.754-1.603-3.652-2.958-5.749-3.778c-7.204-2.827-14.329-0.76-21.419,1.526
			c-9.167,2.957-20.457,9.371-27.238,17.318c-2.667,1.708-6.369,2.863-8.647,4.388c-2.069,1.383-4.366,3.522-5.769,5.547
			c-4.291,6.192-4.442,12.964-2.573,20.137c2.565,9.835,10.249,15.876,16.707,22.974c2.432,2.675,4.417,5.522,6.229,8.458
			c3.065,4.161,5.772,8.553,7.654,13.295c0.151,0.254,0.293,0.506,0.451,0.758c1.218,3.605,2.18,7.345,2.707,11.321
			c0.023,0.171,0.048,0.23,0.209,0.294c0.156,0.063,0.311,0.124,0.464,0.187c0.205,0.081,0.544-0.206,0.666-0.329
			c10.202-10.22,13.563-25.096,10.336-38.926c-2.453-10.518-6.155-20.864-7.167-31.677c-0.794-8.508,1.981-15.824,9.254-21.035
			c4.767-3.412,10.457-5.229,16.044-4.302c0.011,0.005,0.003,0.023,0.02,0.025c3.96,0.961,7.652,3.183,11.225,5.057
			c3.406,1.788,5.809,4.313,8.675,6.681c0.093,0.001,0.19,0.024,0.289,0.078c0.683,0.367,1.711,0.958,2.542,0.932
			c-1.717-2.877-3.272-5.856-4.922-8.79c0.031-0.082,0.043-0.166-0.009-0.222c-0.129-0.144-0.241-0.304-0.37-0.45
			c-0.424-0.744-0.881-1.471-1.327-2.204c7.778-11.392,24.958-6.729,35.04-2.06c1.056,0.491,2.327,1.234,3.694,1.98
			c1.296,0.347,2.592,0.699,3.907,0.996c3.522,0.798,6.936,0.95,10.409,0.513C485.216,308.986,485.844,308.274,485.586,307.776z"/>
		<path opacity="0.4" fill="#BEC0C2" d="M357.482,327.307c1.739-0.582,3.57-0.727,5.35-1.079c0.901-2.392,2.097-4.69,3.418-6.796
			c0.33-0.525,0.692-1.042,1.063-1.558c-1.47,0.756-2.99,1.41-3.907,1.944c-4.231,2.458-7.06,5.604-8.697,9.129
			C355.525,328.246,356.428,327.661,357.482,327.307z"/>
		<path fill="#FEE96F" d="M432.134,313.749c-3.377-2.647-7.01-5.166-10.985-6.536c0.009-0.101-0.01-0.186-0.089-0.228
			c-7.92-4.119-16.311-1.163-23.188,3.664c-6.723,4.714-9.424,12.5-9.482,20.405c-0.085,11.5,4.414,23.426,7.347,34.412
			c2.17,8.13,1.461,16.301-1.361,24.174c-1.345,3.757-3.571,7.01-5.931,10.181c-2.145,2.884-1.854-3.312-2.006-4.366
			c-0.181-1.256-0.433-2.511-0.735-3.763c-1.923-5.634-5.011-10.877-8.398-15.739c-2.192-3.149-4.408-6.163-6.978-9.012
			c-0.56-0.623-1.1-1.249-1.623-1.884c-3.862-4.045-7.837-7.911-10.913-12.782c-7.219-11.429-7.117-25.065,5.615-32.456
			c0.917-0.535,2.437-1.188,3.907-1.944c-0.371,0.516-0.733,1.033-1.063,1.558c-1.586,2.528-3.017,5.322-3.939,8.238
			c-0.081,2.653,0.362,5.388,0.967,7.978c-0.195-3.303,0.136-6.533,1.207-9.57c4.637-13.146,20.274-22.146,32.905-26.261
			c7.04-2.293,14.149-3.72,21.021-0.248c2.994,1.512,5.646,3.978,8.052,6.625c1.652,2.334,3.563,4.591,5.004,6.646
			C431.684,313.148,431.913,313.444,432.134,313.749z"/>
		<path fill="#FFFFFF" d="M432.134,313.749c-3.377-2.647-7.01-5.166-10.985-6.536c0.009-0.101-0.01-0.186-0.089-0.228
			c-7.92-4.119-16.311-1.163-23.188,3.664c-6.723,4.714-9.424,12.5-9.482,20.405c-0.085,11.5,4.414,23.426,7.347,34.412
			c2.17,8.13,1.461,16.301-1.361,24.174c-1.345,3.757-3.571,7.01-5.931,10.181c-2.145,2.884-1.854-3.312-2.006-4.366
			c-0.181-1.256-0.433-2.511-0.735-3.763c-1.923-5.634-5.011-10.877-8.398-15.739c-2.192-3.149-4.408-6.163-6.978-9.012
			c-0.56-0.623-1.1-1.249-1.623-1.884c-3.862-4.045-7.837-7.911-10.913-12.782c-7.219-11.429-7.117-25.065,5.615-32.456
			c0.917-0.535,2.437-1.188,3.907-1.944c-0.371,0.516-0.733,1.033-1.063,1.558c-1.586,2.528-3.017,5.322-3.939,8.238
			c-0.081,2.653,0.362,5.388,0.967,7.978c-0.195-3.303,0.136-6.533,1.207-9.57c4.637-13.146,20.274-22.146,32.905-26.261
			c7.04-2.293,14.149-3.72,21.021-0.248c2.994,1.512,5.646,3.978,8.052,6.625c1.652,2.334,3.563,4.591,5.004,6.646
			C431.684,313.148,431.913,313.444,432.134,313.749z"/>
		<path fill="#FEE96F" d="M466.525,302.819c-5.733-2.307-11.573-4.129-17.789-4.222c-4.475-0.066-8.757,1.351-12.588,3.534
			c-1.376,0.784-2.534,1.979-3.674,3.051c-0.931,0.877-1.322,1.335-1.443,1.607c-0.073-0.117-0.138-0.237-0.212-0.354
			c-1.652-2.561-3.61-5.097-5.101-7.763c-0.962-1.718-1.963-5.745-1.675-8.781c1.83-6.541,9.976-7.317,16.711-6.181
			c7.766,1.312,12.828,4.187,18.206,9.915c3.467,3.693,7.008,7.568,10.883,10.915C468.624,303.84,467.493,303.208,466.525,302.819z"
			/>
		<path fill="#FFFFFF" d="M481.735,308.026c-0.033-0.063-0.111-0.084-0.234-0.053c-3.191-0.597-6.877-2.939-8.605-4.25
			c-3.44-2.612-5.903-6.185-9.206-8.934c-3.458-2.876-6.216-6.524-9.763-9.378c-3.287-2.643-7.776-3.33-11.811-3.929
			c-8.083-1.2-16.644,0.452-19.451,7.179c0.004-0.058,0.013-0.129,0.017-0.186c0.435-7.474,4.114-14.161,10.802-17.68
			c7.947-4.181,17.165-0.031,23.688,4.724c6.431,4.688,10.936,11.897,14.89,18.625c1.475,2.509,3.154,4.827,4.923,7.133
			c1.841,2.4,4.438,4.343,6.156,6.849C482.692,308.144,482.219,308.104,481.735,308.026z"/>
		<path opacity="0.4" fill="#BEC0C2" d="M476.983,301.277c-1.769-2.306-3.448-4.624-4.923-7.133c-0.583-0.99-1.183-1.987-1.79-2.991
			c-5.739-4.965-12.076-9.101-19.381-12.027c-6.487-2.6-13.115-4.459-19.544-0.447c-3.3,2.06-6.22,4.688-8.46,7.806
			c-0.091,0.656-0.165,1.319-0.204,1.991c-0.004,0.056-0.013,0.128-0.017,0.186c2.808-6.727,11.368-8.378,19.451-7.179
			c4.034,0.599,8.523,1.286,11.811,3.929c3.547,2.854,6.305,6.502,9.763,9.378c3.303,2.749,5.766,6.322,9.206,8.934
			c1.729,1.311,5.414,3.653,8.605,4.25c0.123-0.031,0.201-0.01,0.234,0.053c0.483,0.078,0.957,0.118,1.404,0.1
			C481.421,305.62,478.824,303.677,476.983,301.277z"/>
		<path opacity="0.4" fill="#BEC0C2" d="M431.467,312.84c-1.441-2.055-3.352-4.312-5.004-6.646
			c-2.405-2.648-5.058-5.114-8.052-6.625c-6.872-3.472-13.981-2.045-21.021,0.248c-12.53,4.081-28.001,12.978-32.775,25.948
			c0.133-0.043,0.267-0.08,0.399-0.129c0.053-0.021,0.098-0.017,0.146-0.024c0.233-0.461,0.453-0.928,0.711-1.379
			c4.797-8.387,12.78-13.465,22.168-15.323c0.658-0.131,1.062,0.581,0.634,1.086c-11.066,13.11-7.494,29.749-3.361,44.863
			c3.24,11.85,9.418,25.971,3.683,37.989c-0.196,0.408-0.729,0.381-1.024,0.131c-1.11-0.937-2.068-2.019-2.963-3.168
			c0.246,0.624,0.481,1.248,0.696,1.881c0.302,1.252,0.554,2.507,0.735,3.763c0.152,1.054-0.138,7.25,2.006,4.366
			c2.36-3.171,4.586-6.424,5.931-10.181c2.822-7.873,3.532-16.044,1.361-24.174c-2.933-10.986-7.432-22.913-7.347-34.412
			c0.058-7.905,2.759-15.691,9.482-20.405c6.877-4.827,15.268-7.782,23.188-3.664c0.079,0.042,0.098,0.127,0.089,0.228
			c3.976,1.37,7.608,3.889,10.985,6.536C431.913,313.444,431.684,313.148,431.467,312.84z"/>
		<path fill="#FEE96F" d="M426.463,306.194c-2.405-2.648-5.058-5.114-8.052-6.625c-1.391-0.705-2.792-1.197-4.199-1.531
			c-5.87,0.29-11.916,2.306-16.659,5.284c-12.09,7.592-18.939,22.424-16.348,36.55c2.383,12.984,9.247,24.602,12.024,37.467
			c0.954,4.419,1.251,9.093,0.65,13.562c0.175-0.415,0.342-0.833,0.495-1.261c2.822-7.873,3.532-16.044,1.361-24.174
			c-2.933-10.986-7.432-22.913-7.347-34.412c0.058-7.905,2.759-15.691,9.482-20.405c6.877-4.827,15.268-7.782,23.188-3.664
			c0.079,0.042,0.098,0.127,0.089,0.228c3.976,1.37,7.608,3.889,10.985,6.536c-0.221-0.304-0.45-0.601-0.667-0.908
			C430.025,310.785,428.115,308.528,426.463,306.194z"/>
	</g>
	<g>
		<g>
			<path fill="#5E2C00" d="M586.282,222.336c-1.64,1.107-1.604,2.605-1.151,4.226c0.638,2.287,2.443,4.476,3.442,6.645
				c0.523,1.335,0.95,2.701,1.28,4.099c0.188,1.387,0.376,2.776,0.565,4.166c0.302,5.944-2.75,10.338-9.16,13.181
				c-0.064-0.591-0.872,0.355-0.9,0.653c-0.012,0.126-0.024,0.25-0.035,0.376c-0.006,0.077,0.047,0.206,0.146,0.204
				c0.952-0.04,1.831-0.18,2.646-0.398c-0.029,0.119-0.039,0.223-0.019,0.316c1.375,6.466,10.371,5.965,12.484,0.181
				c1.738-4.759,2.201-9.852,3.825-14.727c1.843-5.532,2.673-10.373,2.638-16.19C601.99,216.452,590.552,219.455,586.282,222.336z"
				/>
			<path fill="#9FC443" d="M600.079,232.179c-0.196,5.075-2.643,9.881-4.088,14.645c-0.44,1.448-0.812,2.496-0.962,3.957
				c-0.591,5.756-7.877,9.895-9.999,4.006c8.228-3.987,8.05-17.829,4.676-25.197c-0.771-1.687-1.862-3.2-2.653-4.88
				c-0.926-1.966,4.665-2.797,5.501-2.861C600.314,221.253,600.322,225.971,600.079,232.179z"/>
			<path fill="#5E2C00" d="M648.548,291.631c-4.49-19.605-22.906-29.1-40.884-33.384c-18.942-4.513-40.003-7.364-59.354-3.62
				c-9.35,1.809-19.372,5.107-25.313,12.196c-0.043,0.049-0.09,0.099-0.134,0.148c-0.157,0.192-0.299,0.396-0.45,0.592
				c-0.979,1.218-1.854,2.534-2.539,4.016c-8.172,17.729-3.547,40.347-0.394,58.798c1.808,10.574,5.963,21.896,10.952,31.355
				c5.074,9.611,9.824,18.597,18.197,25.796c7.272,6.253,14.057,8.953,23.612,7.404c8.923-1.442,17.659-7.114,25.137-11.911
				c15.883-10.186,28.303-24.734,38.827-40.166C645.966,328.548,652.541,309.055,648.548,291.631z"/>
			<path fill="#ED1C28" d="M638.304,278.725c-5.085-5.005-10.807-8.866-16.945-11.866c-4.794-3.31-10.799-5.169-16.231-6.513
				c-9.567-2.367-19.566-4.254-29.411-4.859c-9.598-0.589-19.796,0.091-29.175,2.242c-2.363,0.543-4.784,1.267-7.154,2.166
				c-1.588,0.348-3.15,0.741-4.644,1.236c-4.736,1.927-9.008,4.635-11.91,8.474c-6.353,9.501-5.313,23.566-4.466,34.337
				c1.762,22.385,7.48,43.155,18.11,62.918c4.695,8.723,11.488,17.619,20.319,22.59c11.312,6.37,22.724,1.671,33.116-4.229
				c19.302-10.963,33.617-26.441,45.996-44.664C646.757,324.582,654.027,294.21,638.304,278.725z"/>
			<path fill="#F7B19C" d="M551.233,385.129c-7.005-10.082-11.471-21.896-15.015-33.573c-3.391-11.174-6.021-22.608-7.883-34.138
				c-2.088-12.926-4.527-28.412,1.354-40.583c4.601-9.521,12.433-15.598,21.381-20.007c-1.525,0.27-3.041,0.56-4.53,0.901
				c-2.363,0.543-4.784,1.267-7.154,2.166c-1.588,0.348-3.15,0.741-4.644,1.236c-4.736,1.927-9.008,4.635-11.91,8.474
				c-6.353,9.501-5.313,23.566-4.466,34.337c1.762,22.385,7.48,43.155,18.11,62.918c3.824,7.105,9.041,14.324,15.615,19.444
				C551.805,385.912,551.511,385.527,551.233,385.129z"/>
			<path fill="#ED1C28" d="M638.304,278.725c-5.085-5.005-10.807-8.866-16.945-11.866c-4.794-3.31-10.799-5.169-16.231-6.513
				c-9.567-2.367-19.566-4.254-29.411-4.859c-5.301-0.325-10.779-0.23-16.205,0.257c-8.899,10.595-14.508,24.607-6.481,36.962
				c3.043-12.943,14.547-23.54,26.677-28.062c0.494-0.185,0.947,0.279,0.972,0.739c0.494,9.166,8.494,16.38,15.429,21.42
				c6.004,4.365,12.475,8.049,19.197,11.19c0.169-3.445-0.016-6.88-0.052-10.33c-0.009-0.706,0.824-0.969,1.311-0.544
				c9.247,8.072,9.277,22.365,7.428,33.522c-1.951,11.785-6.379,22.29-12.995,32.177c-7.578,11.331-16.593,22.194-27.471,30.5
				c-4.938,3.771-10.523,7.203-16.466,9.134c7.86,0.401,15.608-3.12,22.854-7.234c19.302-10.963,33.617-26.441,45.996-44.664
				C646.757,324.582,654.027,294.21,638.304,278.725z"/>
			<path fill="#5E2C00" d="M645.443,260.258c0.052-1.695-0.241-3.415-0.929-4.681c-5.22,3.244-8.927,7.573-16.046,6.363
				c-5.441-0.928-11.14-4.37-15.945-6.944c-8.575-4.593-16.845-5.594-25.889-5.969c-6.949-2.961-17.525-1.236-24.647-0.183
				c-5.82,0.86-11.109,1.448-17.012,0.665c-3.37-0.444-6.277-1.996-9.02-3.949c-1.433-1.018-2.125-2.626-3.918-2.91
				c-0.406-0.063-0.954,0.303-1.233,0.722c-0.07,0.26-0.129,0.521-0.185,0.782c-0.198,7.045,4.639,13.394,10.742,16.281
				c6.042,2.854,12.621,2.133,18.894,0.326c-0.201,0.237-0.4,0.469-0.585,0.696c-2.255,2.761-4.127,5.706-5.036,9.198
				c-0.632,2.43-2.441,8.27-0.395,10.478c0.247,0.267,0.728,0.055,0.977-0.075c2.318-1.214,3.262-4.607,4.608-6.67
				c5.277-8.096,16.655-12.639,25.84-14.353c0.037-0.006,0.087-0.034,0.14-0.071c-0.031,5.241,1.7,9.7,5.348,14.636
				c5.78,7.823,14.489,13.308,23.805,15.609c0.536,0.131,1.494-0.771,1.218-1.307c-2.22-4.266-6.263-7.547-8.55-12.074
				c-1.404-2.781-2.167-5.694-2.733-8.669c3.382,4.993,8.807,8.444,14.855,10.137c4.506,1.258,15.574,3.449,19.308-0.089
				c0.267-0.254,0.955-1.084,0.368-1.36c-4.05-1.909-7.019-3.74-9.69-6.252C635.669,270.008,643.522,266.261,645.443,260.258z"/>
			<path fill="#9FC443" d="M629.053,268.904c-0.154,0.026-0.389,0.174-0.623,0.37c-0.74-0.786-1.466-1.642-2.196-2.57
				c0.164,2.942,1.563,5.841,3.866,7.673c1.081,0.878,2.236,1.713,3.49,2.532c0.407,0.265,0.795,0.467,1.178,0.644
				c-0.858,0.016-1.72,0.014-2.579-0.015c-8.672-0.075-18.208-2.479-24.311-8.521c-2.155-1.577-4.034-3.597-5.44-5.823
				c0.048,0.144,0.088,0.295,0.14,0.437c-0.438,5.179,1.083,9.798,3.328,14.453c0.948,1.966,2.201,3.785,3.414,5.594
				c0.943,1.405,2.394,2.596,3.633,3.878c-12.098-5.344-23.845-14.859-25.569-28.006c-0.626-0.056-1.253-0.126-1.875-0.208
				c-8.506,0.687-19.835,5.266-25.22,11.96c-1.593,1.979-2.971,4.067-4.368,6.187c0.035-0.599,0.081-1.472,0.154-2.782
				c0.302-5.312,2.815-10.572,6.571-14.682c0.08-0.026,0.157-0.057,0.236-0.085c0.325-0.438,0.649-0.88,0.979-1.317
				c-0.753,0.068-1.504,0.12-2.258,0.156c-6.108,1.419-12.068,1.909-18.658-0.281c-4.429-1.471-7.825-5.486-9.486-9.687
				c-0.352-0.892-2.483-5.098-0.474-3.188c1.123,1.066,2.183,2.179,3.575,2.92c7.857,4.192,15.698,3.616,24.243,2.244
				c7.276-1.166,14.602-1.3,21.93-1.072c6.229,1.031,12.444,1.252,18.673,2.943c8.081,2.197,15.431,7.191,23.207,10.286
				c4.479,1.782,8.781,1.481,13.088-0.42c1.915-0.848,3.589-2.769,5.04-4.184c1.203,1.398,0.941,2.875-0.779,4.429
				C639.4,267.773,633.678,268.152,629.053,268.904z"/>
			<path fill="#9FC443" d="M585.904,259.387c0.382-0.177,0.774-0.339,1.183-0.471c-5.854-2.788-14.148,0.579-19.197,3.659
				c-3.429,2.09-7.529,4.399-9.605,7.98c-0.564,0.973-1.669,2.897-2.242,4.757c-0.057,0.972-0.095,1.679-0.122,2.177
				c1.397-2.119,2.775-4.208,4.368-6.187c5.385-6.695,16.714-11.274,25.22-11.96C585.638,259.36,585.772,259.371,585.904,259.387z"
				/>
			<path fill="#9FC443" d="M609.319,283.679c-1.213-1.81-2.466-3.628-3.414-5.594c-2.245-4.655-3.766-9.274-3.328-14.453
				c-0.052-0.142-0.092-0.293-0.14-0.437c0.102,0.162,0.225,0.314,0.333,0.476c-0.104-0.88-0.173-1.778-0.185-2.698
				c-4.55,1.597-2.227,11.469-1.104,14.662c1.469,4.184,5.275,8.31,9.521,11.018c0.647,0.312,1.298,0.617,1.95,0.906
				C611.713,286.275,610.263,285.083,609.319,283.679z"/>
			<path fill="#9FC443" d="M642.74,258.34c-1.451,1.415-3.125,3.336-5.04,4.184c-4.307,1.901-8.609,2.202-13.088,0.42
				c-7.776-3.094-15.126-8.088-23.207-10.286c-6.229-1.691-12.443-1.913-18.673-2.943c-7.328-0.228-14.653-0.094-21.93,1.072
				c-8.545,1.372-16.386,1.949-24.243-2.244c-1.393-0.741-2.452-1.854-3.575-2.92c-0.318-0.304-0.524-0.438-0.657-0.471
				c3.824,4.431,11.216,6.832,16.163,8.028c11.85,2.864,23.847,1.102,35.837,0.768c10.405-0.286,22.168,0.189,30.701,6.939
				c6.863,5.429,11.752,12.633,19.276,16.662c0.155-0.001,0.31,0.006,0.463,0.003c-0.383-0.177-0.771-0.378-1.178-0.644
				c-1.254-0.819-2.409-1.654-3.49-2.532c-2.303-1.833-3.702-4.731-3.866-7.673c0.73,0.929,1.456,1.785,2.196,2.57
				c0.234-0.195,0.469-0.343,0.623-0.37c4.625-0.752,10.348-1.131,12.908-6.135C643.682,261.215,643.943,259.738,642.74,258.34z"/>
			<g>
				<path fill="#F19C54" d="M533.698,288.053c-0.436,2.695-2.167,4.653-3.869,4.379c-1.705-0.275-2.732-2.682-2.298-5.375
					c0.434-2.692,2.168-4.648,3.871-4.372C533.106,282.958,534.134,285.36,533.698,288.053z"/>
				
					<ellipse transform="matrix(0.9872 0.1597 -0.1597 0.9872 52.4455 -80.9381)" fill="#FBE25F" cx="529.922" cy="285.913" rx="1.086" ry="1.716"/>
				
					<ellipse transform="matrix(0.9872 0.1596 -0.1596 0.9872 56.9203 -84.6216)" fill="#E76225" cx="555.32" cy="312.079" rx="1.086" ry="1.715"/>
				
					<ellipse transform="matrix(0.948 0.3184 -0.3184 0.948 130.0846 -186.2786)" fill="#F19C54" cx="634.893" cy="304.806" rx="3.122" ry="4.936"/>
				
					<ellipse transform="matrix(0.9872 0.1594 -0.1594 0.9872 54.2972 -89.6219)" fill="#F19C54" cx="585.696" cy="293.584" rx="3.124" ry="4.938"/>
				
					<ellipse transform="matrix(0.9872 0.1596 -0.1596 0.9872 57.214 -84.7867)" fill="#F19C54" cx="556.427" cy="313.779" rx="3.124" ry="4.937"/>
				
					<ellipse transform="matrix(0.8328 0.5535 -0.5535 0.8328 298.0476 -279.6217)" fill="#F19C54" cx="611.981" cy="353.654" rx="3.124" ry="4.939"/>
				<path fill="#F19C54" d="M590.409,378.196c-1.511,2.272-3.896,3.339-5.336,2.386c-1.437-0.954-1.379-3.567,0.133-5.843
					c1.509-2.273,3.895-3.333,5.33-2.382C591.975,373.31,591.918,375.924,590.409,378.196z"/>
				
					<ellipse transform="matrix(0.9762 -0.2168 0.2168 0.9762 -68.1512 128.8924)" fill="#F19C54" cx="553.244" cy="374.989" rx="3.123" ry="4.939"/>
				
					<ellipse transform="matrix(0.9872 0.1595 -0.1595 0.9872 62.2404 -86.969)" fill="#F19C54" cx="572.965" cy="344.293" rx="3.123" ry="4.938"/>
				
					<ellipse transform="matrix(0.8948 0.4465 -0.4465 0.8948 208.4912 -238.2168)" fill="#F19C54" cx="609.745" cy="323.313" rx="3.124" ry="4.937"/>
				
					<ellipse transform="matrix(0.9952 -0.098 0.098 0.9952 -30.8179 54.2373)" fill="#F19C54" cx="536.428" cy="340.675" rx="3.122" ry="4.936"/>
				
					<ellipse transform="matrix(0.9872 0.1596 -0.1596 0.9872 56.9203 -84.6216)" fill="#FBE25F" cx="555.32" cy="312.079" rx="1.086" ry="1.715"/>
				
					<ellipse transform="matrix(0.9873 0.1588 -0.1588 0.9873 60.6078 -80.633)" fill="#FBE25F" cx="534.912" cy="338.972" rx="1.086" ry="1.716"/>
			</g>
		</g>
		
			<ellipse transform="matrix(0.9906 -0.1371 0.1371 0.9906 -46.0347 79.2446)" fill="#FBE25F" cx="552.092" cy="373.715" rx="1.086" ry="1.716"/>
		<path fill="#FBE25F" d="M572.885,342.645c-0.229,0.919-0.887,1.546-1.468,1.403c-0.584-0.145-0.867-1.01-0.639-1.926
			c0.229-0.921,0.886-1.547,1.469-1.405C572.828,340.864,573.115,341.725,572.885,342.645z"/>
	</g>
</g>
</svg>
