<?xml version="1.0" encoding="utf-8"?>
<!-- Generator: Adobe Illustrator 16.0.0, SVG Export Plug-In . SVG Version: 6.00 Build 0)  -->
<!DOCTYPE svg PUBLIC "-//W3C//DTD SVG 1.1//EN" "http://www.w3.org/Graphics/SVG/1.1/DTD/svg11.dtd">
<svg version="1.1" id="Capa_1" xmlns="http://www.w3.org/2000/svg" xmlns:xlink="http://www.w3.org/1999/xlink" x="0px" y="0px"
	 width="400px" height="400px" viewBox="0 0 400 400" enable-background="new 0 0 400 400" xml:space="preserve">
<g>
	<path fill="#A8D8D6" d="M349.668,241.3c0,10.097-9.541,18.283-21.312,18.283H86.037c-5.887,0-11.213-2.047-15.072-5.358
		c-3.853-3.305-6.238-7.879-6.238-12.925c0-10.103,9.535-18.282,21.311-18.282h28.666c7.05,0,12.766-4.903,12.766-10.953v-0.005
		c0-0.46-0.032-0.913-0.098-1.354c-0.774-5.409-6.152-9.598-12.668-9.598h-8.716c-2.986,0-5.696-1.038-7.659-2.722
		c-1.963-1.678-3.172-4.003-3.172-6.565c0-5.13,4.851-9.285,10.831-9.285h32.293c3.772,0,7.189-1.315,9.667-3.435
		c2.472-2.127,4.005-5.058,4.005-8.294c0-6.48-6.126-11.729-13.672-11.729H112.47c-4.791,0-9.139-1.667-12.278-4.359
		c-3.146-2.699-5.088-6.423-5.088-10.533c0-8.226,7.777-14.898,17.366-14.898h45.006c3.014,0,5.75-1.049,7.725-2.744
		c1.977-1.695,3.199-4.036,3.199-6.621c0-5.177-4.891-9.371-10.924-9.371h-9.369c-3.001,0-5.717-1.043-7.679-2.727
		c-1.969-1.684-3.185-4.014-3.185-6.588c0-5.146,4.863-9.313,10.863-9.313H263.23c5.584,0,10.075,3.991,9.812,8.832
		c-0.25,4.535-4.804,8.022-10.091,8.022h-10.156c-4.156,0-7.52,2.93-7.446,6.514c0.079,3.52,3.595,6.27,7.697,6.27h58.851
		c3.456,0,6.588,1.201,8.849,3.146c2.267,1.945,3.668,4.627,3.668,7.592c0,5.929-5.605,10.736-12.517,10.736h-27.673
		c-4.189,0-7.574,2.942-7.493,6.549c0.072,3.537,3.614,6.309,7.736,6.309h28.355c6.218,0,11.854,2.166,15.933,5.658
		c4.069,3.498,6.594,8.333,6.594,13.668c0,10.675-10.083,19.325-22.526,19.325H299.21c-4.58,0-8.729,1.594-11.736,4.172
		c-3.007,2.574-4.864,6.135-4.864,10.063c0,0.651,0.055,1.298,0.159,1.928c1.092,6.955,8.035,12.313,16.441,12.313h29.146
		c5.882,0,11.215,2.047,15.067,5.352C347.283,231.68,349.668,236.249,349.668,241.3z"/>
	<g>
		<defs>
			<path id="SVGID_1_" d="M328.358,223.016h-29.152c-9.163,0-16.593-6.374-16.593-14.235l0,0c0-7.862,7.43-14.236,16.593-14.236
				h13.614c12.441,0,22.528-8.652,22.528-19.327l0,0c0-10.674-10.087-19.327-22.528-19.327h-28.352c-4.126,0-7.664-2.769-7.74-6.308
				c-0.077-3.605,3.308-6.549,7.493-6.549h27.673c6.912,0,12.517-4.808,12.517-10.736l0,0c0-5.931-5.604-10.736-12.517-10.736
				h-58.849c-4.103,0-7.62-2.753-7.695-6.271c-0.076-3.585,3.288-6.51,7.448-6.51h10.151c5.29,0,9.842-3.49,10.09-8.022
				c0.268-4.842-4.229-8.838-9.813-8.838h-115.12c-5.999,0-10.861,4.171-10.861,9.316l0,0c0,5.146,4.862,9.318,10.861,9.318h9.37
				c6.031,0,10.92,4.192,10.92,9.367l0,0c0,5.173-4.889,9.367-10.92,9.367h-45.009c-9.589,0-17.361,6.668-17.361,14.894v0.001
				c0,8.226,7.772,14.894,17.361,14.894h25.811c7.55,0,13.671,5.251,13.671,11.729l0,0c0,6.478-6.121,11.729-13.671,11.729h-32.295
				c-5.979,0-10.826,4.158-10.826,9.288l0,0c0,5.129,4.848,9.287,10.826,9.287h8.72c7.052,0,12.768,4.904,12.768,10.954l0,0
				c0,6.049-5.716,10.953-12.768,10.953H95.157h-9.122c-11.77,0-21.311,8.185-21.311,18.282l0,0
				c0,10.098,9.541,18.283,21.311,18.283h242.323c11.771,0,21.312-8.186,21.312-18.283l0,0
				C349.67,231.2,340.129,223.016,328.358,223.016z"/>
		</defs>
		<clipPath id="SVGID_2_">
			<use xlink:href="#SVGID_1_"  overflow="visible"/>
		</clipPath>
		<g clip-path="url(#SVGID_2_)">
			<g>
				<path fill="#B4DDDB" d="M355.271,233.923c-18.585,4.235-37.706,6.376-56.891,7.195c-19.313,0.824-38.665,0.356-57.964-0.511
					c-19.092-0.856-38.157-2.127-57.254-2.919c-19.031-0.788-38.119-1.122-57.15-0.157c-18.678,0.948-37.325,3.157-55.391,7.405
					c-2.274,0.535-4.539,1.104-6.793,1.702c-1.209,0.32-0.693,1.954,0.524,1.632c18.089-4.793,36.83-7.461,55.686-8.7
					c18.995-1.247,38.078-1.104,57.099-0.422c19.074,0.683,38.111,1.934,57.169,2.865c19.309,0.944,38.662,1.577,58,1.015
					c18.99-0.554,37.992-2.274,56.517-5.979c2.334-0.467,4.656-0.967,6.972-1.494C357.021,235.275,356.501,233.643,355.271,233.923z
					"/>
				<path fill="#B4DDDB" d="M327.87,216.826c-15.188,6.554-31.428,11.249-48.131,13.96c-16.836,2.732-34.067,3.38-51.122,2.01
					c-18.093-1.452-35.882-4.828-53.951-6.446c-17.881-1.602-35.656-0.734-53.311,2.107c-17.688,2.846-34.94,7.349-52.066,12.027
					c-2.169,0.592-4.337,1.188-6.506,1.785c-1.203,0.331-0.688,1.965,0.525,1.632c17.204-4.732,34.458-9.455,52.142-12.704
					c17.733-3.257,35.766-4.812,53.881-3.578c18.201,1.24,36.079,4.624,54.202,6.413c17.104,1.688,34.316,1.506,51.331-0.81
					c16.64-2.264,32.903-6.492,48.208-12.537c1.946-0.771,3.878-1.571,5.793-2.398C330,217.798,329.002,216.338,327.87,216.826z"/>
				<path fill="#B4DDDB" d="M298.738,208.598c-11.676,3.226-23.82,5.131-36.075,5.651c-12.187,0.518-24.45-0.305-36.383-2.506
					c-12.161-2.243-23.815-6.059-35.853-8.7c-12.135-2.663-24.509-3.571-36.997-2.724c-12.519,0.85-24.844,3.193-36.865,6.249
					c-1.471,0.374-2.937,0.76-4.399,1.152c-1.208,0.325-0.692,1.959,0.523,1.633c12.022-3.233,24.333-5.869,36.879-7.032
					c12.431-1.151,24.911-0.744,37.107,1.679c12.128,2.408,23.785,6.262,35.889,8.753c11.865,2.442,24.114,3.545,36.313,3.306
					c12.196-0.24,24.376-1.811,36.102-4.706c1.436-0.354,2.862-0.729,4.284-1.122C300.467,209.898,299.952,208.263,298.738,208.598z
					"/>
				<path fill="#B4DDDB" d="M340.491,180.512c-12.877-2.819-25.774-5.626-38.869-7.609c-12.885-1.951-25.991-3.114-39.086-2.604
					c-12.853,0.501-25.412,2.892-37.984,5.07c-12.45,2.157-25.095,4.051-37.848,3.342c-13.021-0.725-25.635-3.931-37.994-7.331
					c-1.546-0.426-3.093-0.855-4.638-1.285c-1.211-0.337-1.729,1.297-0.524,1.632c12.303,3.424,24.7,6.844,37.583,8.222
					c12.676,1.355,25.302,0.099,37.786-1.913c12.608-2.03,25.111-4.727,37.916-5.714c13.128-1.013,26.363-0.229,39.362,1.514
					c13.138,1.761,26.072,4.455,38.953,7.258c1.606,0.349,3.211,0.7,4.817,1.052C341.196,182.413,341.722,180.782,340.491,180.512z"
					/>
				<path fill="#B4DDDB" d="M337.192,169.708c-11.796-4.208-24.178-7.171-36.81-8.81c-12.662-1.642-25.524-1.974-38.276-0.951
					c-13.359,1.071-26.506,3.45-39.679,5.562c-12.513,2.006-25.122,3.753-37.882,3.854c-12.034,0.097-24.213-1.254-35.402-5.211
					c-1.413-0.499-2.804-1.049-4.176-1.631c-1.134-0.481-2.135,0.979-0.994,1.462c10.833,4.595,22.819,6.622,34.839,7.006
					c12.542,0.401,25.034-0.952,37.367-2.796c13.279-1.984,26.456-4.531,39.838-5.978c12.897-1.394,25.911-1.554,38.829-0.261
					c12.77,1.277,25.362,3.935,37.373,7.862c1.492,0.488,2.974,0.997,4.449,1.522C337.84,171.758,338.351,170.12,337.192,169.708z"
					/>
				<path fill="#B4DDDB" d="M289.923,148.759c-12.266-3.551-25.439-3.297-38.074-1.521c-13.167,1.85-25.881,5.423-38.82,8.128
					c-6.573,1.374-13.219,2.532-19.955,3.116c-6.526,0.566-13.104,0.646-19.649,0.319c-13.272-0.661-26.357-2.992-39.124-6.101
					c-12.91-3.143-25.53-7.09-38.078-11.153c-1.58-0.513-3.16-1.026-4.739-1.54c-1.188-0.388-1.702,1.248-0.525,1.631
					c12.532,4.082,25.097,8.128,37.931,11.464c12.668,3.292,25.623,5.89,38.813,7.006c13.223,1.119,26.407,0.499,39.406-1.848
					c13.11-2.367,25.848-6.03,38.962-8.38c12.635-2.263,25.966-3.348,38.636-0.668c1.584,0.335,3.149,0.73,4.695,1.18
					C290.604,150.74,291.122,149.106,289.923,148.759z"/>
				<path fill="#B4DDDB" d="M337.566,125.419c-12.118-1.798-24.447-2.499-36.737-2.049c-12.288,0.45-24.48,2.059-36.384,4.707
					c-11.865,2.641-23.53,6.073-35.679,7.679c-11.996,1.588-24.278,1.154-36.225-0.549c-12.017-1.715-23.757-4.658-35.225-8.147
					c-1.417-0.431-2.831-0.87-4.24-1.316c-1.193-0.378-1.708,1.257-0.525,1.631c11.42,3.616,23.077,6.764,35.035,8.774
					c11.806,1.985,23.929,2.867,35.931,1.864c12.21-1.02,23.93-4.153,35.694-6.967c11.921-2.853,23.986-4.939,36.346-5.721
					c12.314-0.778,24.745-0.427,36.966,1.105c1.509,0.189,3.016,0.397,4.52,0.621C338.284,127.235,338.817,125.605,337.566,125.419z
					"/>
				<path fill="#B4DDDB" d="M290.518,107.572c-9.604-3.106-20.006-3.827-30.188-3.331c-10.732,0.523-21.289,2.387-31.827,4.1
					c-10.479,1.704-20.974,3.108-31.659,3.29c-10.196,0.174-20.412-0.57-30.426-2.228c-9.964-1.646-19.745-4.169-29.091-7.563
					c-1.191-0.431-2.372-0.88-3.549-1.339c-1.146-0.447-2.15,1.011-0.995,1.461c9.308,3.634,19.039,6.442,29.022,8.346
					c9.931,1.893,20.096,2.916,30.268,3.029c10.574,0.117,21.028-0.896,31.424-2.488c10.749-1.646,21.435-3.734,32.322-4.62
					c10.181-0.829,20.638-0.649,30.493,1.901c1.241,0.321,2.468,0.682,3.68,1.074C291.182,109.589,291.696,107.953,290.518,107.572z
					"/>
				<path fill="#B4DDDB" d="M311.392,213.395c-28.885,13.335-62.912,10.962-94.221,7.094c-17.027-2.104-34.025-4.618-51.227-5.427
					c-16.033-0.752-32.114-0.071-48.004,1.889c-18.473,2.277-36.58,6.426-53.951,12.269c-3.117,1.049-1.76,5.414,1.399,4.352
					c31.163-10.481,64.672-15.375,98.127-14.098c33.901,1.292,67.121,9.667,101.203,8.466c17.128-0.604,34.144-3.636,49.328-10.646
					C317.029,215.915,314.376,212.018,311.392,213.395z"/>
				<path fill="#B4DDDB" d="M333.981,188.088c-63.249,16.242-128.768-2.737-192.946-1.566c-17.922,0.327-35.83,2.249-53.026,6.687
					c-3.233,0.835-1.855,5.191,1.398,4.353c63.229-16.32,128.766,2.645,192.937,1.518c17.923-0.315,35.834-2.221,53.037-6.639
					C338.615,191.608,337.237,187.252,333.981,188.088z"/>
				<path fill="#B4DDDB" d="M332.612,137.643c-30.249-6.328-61.073-0.63-91.249,3.017c-30.608,3.7-61.584,3.614-92.04-1.132
					c-16.738-2.609-33.165-6.535-49.089-11.67c-3.172-1.023-4.543,3.337-1.398,4.352c28.28,9.119,58.197,14.345,88.385,15.445
					c15,0.548,30.032,0.049,44.942-1.454c15.748-1.588,31.346-4.118,47.103-5.656c17.318-1.691,34.899-2.116,51.948,1.451
					C334.503,142.683,335.906,138.332,332.612,137.643z"/>
				<path fill="#B4DDDB" d="M286.411,87.047c-25.468-1.184-49.345,7.477-74.06,11.126c-25.265,3.73-51.425,1.299-75.335-6.531
					c-3.166-1.037-4.535,3.324-1.398,4.353c23.686,7.755,49.455,10.18,74.538,7.023c25.562-3.218,50.037-12.676,76.255-11.459
					C289.794,91.717,289.785,87.202,286.411,87.047z"/>
				<path fill="#B4DDDB" d="M277.033,114.145c-19.687,0.218-38.385,6.071-57.869,7.649c-19.99,1.62-39.966-1.251-59.276-5.537
					c-3.28-0.728-4.679,3.623-1.399,4.352c19.329,4.29,39.4,7.217,59.419,5.794c19.924-1.414,39.047-7.523,59.126-7.745
					C280.416,118.619,280.426,114.106,277.033,114.145z"/>
				<path fill="#B4DDDB" d="M358.511,241.997c-74.526,26.121-154.899-1.742-231.845,3.959c-20.523,1.52-40.707,5.359-59.517,12.677
					c-3.079,1.197-0.407,5.088,2.656,3.896c72.56-28.228,153.187-1.497,228.836-5.137c20.94-1.007,41.794-4.218,61.269-11.044
					C363.001,245.265,361.647,240.897,358.511,241.997z"/>
			</g>
			<g>
				<ellipse fill="#F6A249" cx="213.72" cy="209.909" rx="28.307" ry="24.285"/>
				<g>
					<rect x="55.513" y="212.075" fill="#5ABDB5" width="306.338" height="52.591"/>
					<g>
						<rect x="62.23" y="250.405" fill="#A8D8D6" width="292.685" height="11.247"/>
						<g>
							<path fill="#00957F" d="M103.463,239.35c2.264-1.745,5.431-2.82,8.703-2.998c1.636-0.114,3.302,0.038,4.903,0.37
								c1.595,0.353,3.063,0.906,4.488,1.445c1.419,0.558,2.801,1.114,4.237,1.506c1.428,0.41,2.927,0.642,4.401,0.579
								c0.741-0.036,1.451-0.166,2.172-0.37c0.722-0.2,1.445-0.463,2.214-0.673c0.766-0.205,1.603-0.352,2.429-0.308
								c0.819,0.03,1.656,0.267,2.197,0.73c-0.643-0.376-1.443-0.481-2.195-0.432c-0.765,0.047-1.482,0.234-2.175,0.5
								c-0.699,0.254-1.382,0.563-2.124,0.835c-0.738,0.275-1.574,0.466-2.409,0.553c-1.687,0.18-3.371-0.068-4.931-0.449
								c-1.57-0.395-3.014-0.971-4.433-1.507c-1.406-0.557-2.801-1.082-4.245-1.436c-1.438-0.354-2.958-0.518-4.484-0.51
								C109.155,237.208,106.088,237.959,103.463,239.35z"/>
							<path fill="#00957F" d="M135.722,220.799c2.735-2.447,7.036-3.82,11.316-3.701c2.138,0.026,4.304,0.502,6.197,1.245
								c1.898,0.73,3.626,1.619,5.461,2.189c0.909,0.292,1.842,0.501,2.784,0.56c0.94,0.067,1.878-0.055,2.849-0.244
								c0.97-0.188,1.954-0.447,3.001-0.639c1.037-0.195,2.187-0.289,3.272-0.169c2.181,0.209,4.077,0.928,6.039,1.261
								c0.978,0.173,1.995,0.245,2.993,0.14c0.989-0.107,1.977-0.406,2.716-0.98c-0.624,0.654-1.613,1.078-2.647,1.261
								c-1.037,0.194-2.12,0.201-3.176,0.101c-2.111-0.233-4.071-0.836-6.028-0.944c-1.941-0.138-3.783,0.486-5.832,0.956
								c-1.023,0.227-2.156,0.377-3.284,0.309c-1.123-0.061-2.204-0.297-3.206-0.612c-2.003-0.649-3.74-1.557-5.532-2.28
								c-1.765-0.752-3.669-1.188-5.665-1.315C143.014,217.695,138.838,218.658,135.722,220.799z"/>
							<path fill="#00957F" d="M167.754,233.894c1.164,0.917,2.815,1.191,4.356,1.098c1.566-0.081,3.066-0.468,4.484-1.006
								c1.436-0.541,2.876-1.146,4.462-1.607c0.793-0.228,1.633-0.396,2.504-0.477c0.868-0.082,1.776-0.041,2.626,0.094
								c3.429,0.576,6.029,2.297,9.023,2.786c0.743,0.115,1.491,0.119,2.237,0.044c0.741-0.092,1.488-0.318,2.274-0.515
								c0.778-0.19,1.644-0.356,2.496-0.267c0.836,0.067,1.699,0.388,2.085,0.964c-0.516-0.507-1.343-0.678-2.105-0.666
								c-0.779,0.006-1.508,0.208-2.238,0.465c-0.731,0.244-1.474,0.536-2.323,0.709c-0.853,0.152-1.74,0.18-2.603,0.095
								c-3.458-0.417-6.14-2.117-9.119-2.56c-1.462-0.271-2.956-0.098-4.432,0.288c-1.482,0.369-2.923,0.945-4.457,1.414
								c-1.53,0.5-3.221,0.81-4.906,0.765c-0.841-0.031-1.688-0.148-2.459-0.417C168.889,234.838,168.213,234.418,167.754,233.894z"
								/>
							<path fill="#00957F" d="M203.45,245.971c0.948-0.714,2.063-1.34,3.448-1.626c0.683-0.153,1.442-0.163,2.152-0.087
								c0.713,0.08,1.379,0.261,2.001,0.461c1.255,0.402,2.319,0.927,3.469,1.207c1.146,0.276,2.389,0.43,3.589-0.046
								c-0.401,0.42-1.053,0.697-1.739,0.829c-0.688,0.121-1.406,0.123-2.092,0.035c-1.401-0.169-2.62-0.665-3.761-1.032
								c-1.154-0.38-2.248-0.648-3.425-0.543C205.909,245.257,204.701,245.629,203.45,245.971z"/>
							<path fill="#00957F" d="M214.571,222.837c0.415-1.17,1.608-2.142,3.022-2.719c1.433-0.563,3.052-0.83,4.665-0.787
								c1.635,0.023,3.192,0.402,4.655,0.853c1.466,0.462,2.831,1.048,4.185,1.604c1.343,0.574,2.677,1.134,4.045,1.562
								c1.373,0.431,2.813,0.735,4.268,0.831c1.445,0.083,2.937-0.043,4.243-0.567c0.664-0.239,1.289-0.604,1.99-0.883
								c0.685-0.283,1.517-0.49,2.273-0.321c-0.783-0.049-1.472,0.24-2.073,0.576c-0.613,0.34-1.173,0.748-1.854,1.087
								c-1.357,0.694-3.025,0.968-4.629,0.947c-1.619-0.002-3.188-0.314-4.686-0.717c-1.496-0.434-2.877-1.008-4.234-1.567
								c-1.347-0.577-2.674-1.147-4.037-1.615c-1.359-0.478-2.773-0.84-4.21-0.952c-1.447-0.108-2.945,0.023-4.321,0.429
								C216.505,221.005,215.278,221.76,214.571,222.837z"/>
							<path fill="#00957F" d="M257.783,237.09c0.199-0.229,0.446-0.44,0.744-0.611c0.303-0.161,0.642-0.29,0.998-0.376
								c0.717-0.167,1.481-0.186,2.22-0.11c0.739,0.072,1.472,0.264,2.142,0.503c0.669,0.238,1.294,0.526,1.909,0.795
								c1.23,0.536,2.42,1.046,3.695,1.142c1.277,0.127,2.61-0.059,3.899-0.379c2.586-0.612,5.069-1.866,8.033-2.272
								c0.729-0.095,1.488-0.153,2.246-0.095c0.752,0.059,1.486,0.199,2.175,0.426c1.367,0.442,2.575,1.325,2.908,2.427
								c-0.633-1.009-1.844-1.651-3.14-1.93c-1.308-0.304-2.658-0.271-3.967-0.006c-2.635,0.513-5.006,1.768-7.841,2.477
								c-1.412,0.33-2.947,0.551-4.496,0.36c-1.568-0.189-2.911-0.818-4.078-1.437c-1.193-0.61-2.295-1.25-3.613-1.494
								C260.341,236.241,258.81,236.272,257.783,237.09z"/>
							<path fill="#00957F" d="M307.919,241.427c0.17-0.208,0.381-0.402,0.638-0.565c0.262-0.154,0.558-0.279,0.869-0.371
								c0.631-0.177,1.313-0.222,1.982-0.18c0.666,0.042,1.341,0.2,1.943,0.412c0.611,0.207,1.169,0.479,1.713,0.742
								c1.088,0.531,2.073,1.097,3.17,1.413c1.09,0.336,2.268,0.509,3.438,0.492c2.377,0.068,4.49-0.959,6.97-1.639
								c0.621-0.156,1.267-0.302,1.947-0.353c0.671-0.052,1.348-0.03,2.004,0.077c0.651,0.114,1.291,0.3,1.833,0.605
								c0.539,0.304,0.961,0.728,1.171,1.194c-0.699-0.848-1.919-1.224-3.101-1.276c-1.208-0.08-2.353,0.16-3.469,0.538
								c-1.117,0.385-2.217,0.854-3.421,1.263c-1.202,0.406-2.575,0.662-3.925,0.666c-1.354-0.004-2.71-0.207-3.951-0.631
								c-1.255-0.433-2.301-1.072-3.28-1.663c-0.997-0.578-1.979-1.13-3.146-1.322C310.169,240.62,308.826,240.699,307.919,241.427z
								"/>
							<path fill="#00957F" d="M270.534,222.67c0.128-0.428,0.472-0.829,0.943-1.116c0.467-0.295,1.041-0.464,1.617-0.577
								c0.583-0.104,1.182-0.132,1.782-0.105c0.605,0.022,1.193,0.146,1.741,0.263c1.11,0.234,2.141,0.568,3.162,0.713
								c0.507,0.073,1.002,0.121,1.488,0.097c0.482-0.027,0.971-0.112,1.465-0.242c0.996-0.239,2.001-0.64,3.136-0.917
								c1.148-0.269,2.361-0.373,3.54-0.282c2.354,0.164,4.605,1.04,6.031,2.412c-1.822-1.035-3.967-1.566-6.084-1.572
								c-1.055,0.015-2.102,0.125-3.076,0.41c-0.991,0.27-1.987,0.677-3.123,0.974c-0.57,0.141-1.184,0.242-1.817,0.268
								c-0.636,0.018-1.261-0.04-1.844-0.154c-1.171-0.233-2.203-0.601-3.217-0.911c-0.514-0.155-1.006-0.285-1.515-0.359
								c-0.511-0.078-1.04-0.104-1.563-0.071C272.163,221.543,271.084,221.88,270.534,222.67z"/>
							<path fill="#00957F" d="M224.393,235.329c1.446-1.015,3.054-2.012,5.132-2.378c1.016-0.191,2.136-0.183,3.196,0.079
								c1.058,0.28,1.901,0.785,2.684,1.238c0.767,0.474,1.492,0.919,2.271,1.181c0.756,0.289,1.627,0.3,2.594,0.292
								c0.944-0.013,2.023-0.065,3.031,0.215c0.492,0.141,0.964,0.34,1.343,0.624c0.186,0.146,0.346,0.308,0.468,0.485
								c0.11,0.182,0.176,0.374,0.202,0.563c-0.378-0.73-1.306-1.055-2.187-1.161c-0.89-0.127-1.793,0.023-2.78,0.112
								c-0.963,0.108-2.109,0.136-3.162-0.185c-1.034-0.313-1.855-0.825-2.626-1.275c-0.756-0.468-1.49-0.895-2.277-1.132
								c-0.782-0.246-1.676-0.288-2.573-0.213C227.901,233.931,226.164,234.672,224.393,235.329z"/>
						</g>
					</g>
				</g>
			</g>
		</g>
	</g>
</g>
<g>
	<path fill="#FCD098" d="M362.599,262.04L362.599,262.04c0-3.165-2.991-5.731-6.682-5.731H55.841c-3.948,0-7.148,2.745-7.148,6.133
		l0,0c0,3.386,3.2,6.132,7.148,6.132h33.191c3.41,0,6.176,2.371,6.176,5.297l0,0c0,2.927-2.766,5.298-6.176,5.298h-7.606
		c-6.045,0-10.945,4.204-10.945,9.39l0,0c0,5.187,4.9,9.39,10.945,9.39h83.539c3.569,0,6.465,2.482,6.465,5.545l0,0
		c0,3.064-2.896,5.547-6.465,5.547h-13.949c-3.855,0-6.98,2.682-6.98,5.989l0,0c0,3.308,3.125,5.989,6.98,5.989H289.05
		c5.075,0,9.191-3.531,9.191-7.886l0,0c0-4.355-4.116-7.886-9.191-7.886h-18.39c-4.633,0-8.388-3.222-8.388-7.196l0,0
		c0-3.973,3.755-7.194,8.388-7.194h69.229c5.116,0,9.264-3.559,9.264-7.947l0,0c0-4.391-4.147-7.948-9.264-7.948h-7.617
		c-2.313,0-4.188-1.609-4.188-3.595l0,0c0-1.984,1.874-3.594,4.188-3.594h23.645C359.607,267.771,362.599,265.205,362.599,262.04z"
		/>
	<g>
		<g>
			<path fill="#F4BD82" d="M211.734,291.242c-1.268,0-1.271,1.692,0,1.692C213.005,292.935,213.006,291.242,211.734,291.242z"/>
			<path fill="#F4BD82" d="M217.797,291.955c-2.539,0-2.543,3.385,0,3.385C220.335,295.34,220.339,291.955,217.797,291.955z"/>
			<path fill="#F4BD82" d="M215.574,288.122c-1.271,0-1.272,1.692,0,1.692C216.844,289.814,216.846,288.122,215.574,288.122z"/>
		</g>
		<g>
			<path fill="#F4BD82" d="M183.136,304.737c-1.27,0-1.271,1.693,0,1.693C184.405,306.431,184.406,304.737,183.136,304.737z"/>
			<path fill="#F4BD82" d="M187.782,307.813c-2.116,0-2.119,2.82,0,2.82C189.898,310.634,189.901,307.813,187.782,307.813z"/>
			<path fill="#F4BD82" d="M183.136,310.912c-0.847,0-0.849,1.128,0,1.128C183.981,312.04,183.983,310.912,183.136,310.912z"/>
			<path fill="#F4BD82" d="M190.005,312.646c-0.848,0-0.848,1.128,0,1.128C190.85,313.773,190.852,312.646,190.005,312.646z"/>
		</g>
		<g>
			<path fill="#F4BD82" d="M174.708,293.326c-2.115,0-2.119,2.82,0,2.82C176.822,296.146,176.826,293.326,174.708,293.326z"/>
			<path fill="#F4BD82" d="M169.455,292.439c-0.846,0-0.848,1.128,0,1.128C170.302,293.567,170.303,292.439,169.455,292.439z"/>
			<path fill="#F4BD82" d="M177.132,298.332c-0.846,0-0.848,1.129,0,1.129C177.979,299.461,177.979,298.332,177.132,298.332z"/>
			<path fill="#F4BD82" d="M182.183,294.757c-1.27,0-1.272,1.693,0,1.693C183.452,296.45,183.454,294.757,182.183,294.757z"/>
		</g>
		<g>
			<path fill="#F4BD82" d="M195.111,264.945c-1.269,0-1.271,1.693,0,1.693S196.384,264.945,195.111,264.945z"/>
			<path fill="#F4BD82" d="M189.455,264.361c-0.846,0-0.848,1.128,0,1.128C190.302,265.489,190.304,264.361,189.455,264.361z"/>
			<path fill="#F4BD82" d="M194.102,261.024c-1.692,0-1.695,2.256,0,2.256C195.794,263.28,195.798,261.024,194.102,261.024z"/>
		</g>
		<g>
			<path fill="#F4BD82" d="M256.778,280.493c-1.771,0-1.774,2.044,0,2.044C258.552,282.537,258.555,280.493,256.778,280.493z"/>
			<path fill="#F4BD82" d="M260.165,283.358c-0.887,0-0.888,1.021,0,1.021C261.052,284.38,261.052,283.358,260.165,283.358z"/>
			<path fill="#F4BD82" d="M263.339,279.964c-1.33,0-1.332,1.533,0,1.533C264.668,281.497,264.67,279.964,263.339,279.964z"/>
		</g>
		<g>
			<path fill="#F4BD82" d="M260.891,309c-1.329,0-1.331,1.532,0,1.532C262.221,310.532,262.223,309,260.891,309z"/>
			<path fill="#F4BD82" d="M264.909,311.57c-1.771,0-1.774,2.043,0,2.043C266.683,313.613,266.687,311.57,264.909,311.57z"/>
			<path fill="#F4BD82" d="M266.604,309.256c-0.886,0-0.888,1.021,0,1.021C267.49,310.277,267.49,309.256,266.604,309.256z"/>
			<path fill="#F4BD82" d="M269.988,310.511c-0.886,0-0.888,1.021,0,1.021C270.873,311.532,270.875,310.511,269.988,310.511z"/>
		</g>
		<g>
			<path fill="#F4BD82" d="M334.623,259.568c-0.887,0-0.888,1.021,0,1.021C335.51,260.59,335.512,259.568,334.623,259.568z"/>
			<path fill="#F4BD82" d="M338.644,261.097c-1.772,0-1.776,2.044,0,2.044C340.417,263.141,340.418,261.097,338.644,261.097z"/>
			<path fill="#F4BD82" d="M338.22,258.313c-0.885,0-0.887,1.021,0,1.021C339.105,259.334,339.107,258.313,338.22,258.313z"/>
			<path fill="#F4BD82" d="M328.487,262.766c-1.329,0-1.331,1.532,0,1.532C329.817,264.298,329.819,262.766,328.487,262.766z"/>
		</g>
		<g>
			<path fill="#F4BD82" d="M225.167,264.666c-1.329,0-1.333,1.533,0,1.533C226.495,266.199,226.499,264.666,225.167,264.666z"/>
			<path fill="#F4BD82" d="M228.552,266.02c-0.886,0-0.888,1.021,0,1.021C229.438,267.041,229.438,266.02,228.552,266.02z"/>
			<path fill="#F4BD82" d="M221.78,261.213c-1.327,0-1.329,1.533,0,1.533C223.11,262.746,223.114,261.213,221.78,261.213z"/>
			<path fill="#F4BD82" d="M228.552,262.254c-0.886,0-0.888,1.021,0,1.021C229.438,263.275,229.438,262.254,228.552,262.254z"/>
			<path fill="#F4BD82" d="M236.803,271.041c-0.887,0-0.887,1.022,0,1.022S237.69,271.041,236.803,271.041z"/>
		</g>
		<g>
			<path fill="#F4BD82" d="M86.106,291.993c-0.887,0-0.888,1.021,0,1.021C86.993,293.015,86.995,291.993,86.106,291.993z"/>
			<path fill="#F4BD82" d="M90.973,291.797c-1.772,0-1.775,2.043,0,2.043C92.745,293.84,92.748,291.797,90.973,291.797z"/>
			<path fill="#F4BD82" d="M87.165,289.228c-1.33,0-1.332,1.531,0,1.531C88.494,290.759,88.496,289.228,87.165,289.228z"/>
			<path fill="#F4BD82" d="M80.183,292.15c-0.886,0-0.887,1.021,0,1.021C81.068,293.172,81.07,292.15,80.183,292.15z"/>
		</g>
		<g>
			<path fill="#F4BD82" d="M278.254,266.674c-0.886,0-0.888,1.022,0,1.022C279.141,267.696,279.141,266.674,278.254,266.674z"/>
			<path fill="#F4BD82" d="M281.639,267.889c-1.772,0-1.774,2.044,0,2.044C283.412,269.933,283.414,267.889,281.639,267.889z"/>
			<path fill="#F4BD82" d="M281.639,265.163c-1.329,0-1.331,1.532,0,1.532C282.969,266.695,282.971,265.163,281.639,265.163z"/>
			<path fill="#F4BD82" d="M271.484,264.222c-1.329,0-1.333,1.531,0,1.531C272.813,265.753,272.814,264.222,271.484,264.222z"/>
			<path fill="#F4BD82" d="M274.656,261.652c-0.885,0-0.887,1.021,0,1.021S275.545,261.652,274.656,261.652z"/>
		</g>
		<g>
			<path fill="#F4BD82" d="M222.146,313.669c-0.887,0-0.889,1.022,0,1.022C223.029,314.691,223.031,313.669,222.146,313.669z"/>
			<path fill="#F4BD82" d="M226.587,310.491c-1.773,0-1.775,2.043,0,2.043C228.359,312.534,228.363,310.491,226.587,310.491z"/>
			<path fill="#F4BD82" d="M221.932,310.845c-0.886,0-0.886,1.021,0,1.021C222.818,311.866,222.82,310.845,221.932,310.845z"/>
			<path fill="#F4BD82" d="M216.644,312.786c-1.33,0-1.331,1.533,0,1.533C217.973,314.319,217.975,312.786,216.644,312.786z"/>
		</g>
		<g>
			<path fill="#F4BD82" d="M243.913,301.282c-1.33,0-1.332,1.532,0,1.532C245.242,302.814,245.244,301.282,243.913,301.282z"/>
			<path fill="#F4BD82" d="M241.375,299.341c-0.887,0-0.889,1.021,0,1.021C242.26,300.362,242.262,299.341,241.375,299.341z"/>
			<path fill="#F4BD82" d="M247.934,298.83c-1.773,0-1.777,2.043,0,2.043C249.704,300.873,249.708,298.83,247.934,298.83z"/>
			<path fill="#F4BD82" d="M248.99,303.165c-1.328,0-1.332,1.533,0,1.533C250.319,304.698,250.323,303.165,248.99,303.165z"/>
			<path fill="#F4BD82" d="M244.124,290.709c-0.887,0-0.887,1.021,0,1.021S245.012,290.709,244.124,290.709z"/>
		</g>
		<g>
			<path fill="#F4BD82" d="M65.404,259.247c-1.772,0-1.775,2.043,0,2.043C67.176,261.29,67.18,259.247,65.404,259.247z"/>
			<path fill="#F4BD82" d="M60.114,259.13c-0.886,0-0.887,1.022,0,1.022S61.003,259.13,60.114,259.13z"/>
			<path fill="#F4BD82" d="M62.23,261.641c-0.887,0-0.887,1.022,0,1.022C63.116,262.663,63.118,261.641,62.23,261.641z"/>
			<path fill="#F4BD82" d="M69.001,262.642c-1.329,0-1.331,1.532,0,1.532C70.331,264.174,70.333,262.642,69.001,262.642z"/>
		</g>
	</g>
</g>
<path fill="#D2EAE9" d="M103.279,164.93h41.41c-0.294-1.466-0.701-2.82-1.328-4.206c-0.628-1.387-1.615-2.692-3.044-3.533
	c-2.179-1.281-5.014-1.308-7.652-1.198c1.33-2.717,0.043-6.122-2.304-8.274c-2.347-2.149-5.887-3.182-9.32-3.109
	c-3.744,0.08-7.505,1.468-9.854,3.97c-2.351,2.502-3.108,6.129-1.576,9.061c-2.13-0.664-4.868,0.193-6.24,1.739
	C102,160.925,101.965,163.346,103.279,164.93z"/>
<path fill="#D2EAE9" d="M239.449,141.932h-70.846c0.572-2.419,2.308-5.071,4.731-6.4s5.482-1.774,8.28-1.206
	c-1.572-4.412-0.129-9.58,3.458-13.018c3.587-3.437,9.33-5.108,14.612-4.254c5.285,0.855,9.923,4.207,11.804,8.528
	c3.75-2.715,9.491-2.881,13.524-0.484c4.034,2.396,5.846,7.215,4.202,11.182c2.083-0.668,4.744-0.189,6.723,0.68
	C237.919,137.827,238.861,140.091,239.449,141.932z"/>
<path fill="#D2EAE9" d="M243.2,104.468h70.845c-0.574-2.418-2.31-5.071-4.731-6.4c-2.423-1.329-5.482-1.774-8.282-1.206
	c1.573-4.411,0.131-9.58-3.456-13.017c-3.586-3.438-9.329-5.108-14.614-4.253c-5.282,0.855-9.922,4.206-11.804,8.528
	c-3.747-2.717-9.49-2.882-13.524-0.486c-4.033,2.396-5.846,7.217-4.202,11.184c-2.081-0.669-4.744-0.189-6.723,0.679
	C244.728,100.365,243.787,102.627,243.2,104.468z"/>
<path fill="#D2EAE9" d="M289.525,175.771H256.58c3.323-4.019,9.449-6.161,14.966-4.791c0.57-2.179,2.389-4.165,4.688-5.211
	c2.048-0.932,4.582-1.144,6.712-0.357c2.012,0.743,3.51,2.303,4.357,4.037C288.15,171.183,289.467,173.891,289.525,175.771z"/>
<ellipse fill="#D59C62" cx="267.889" cy="285.226" rx="21.521" ry="2.828"/>
<g>
	<g>
		<g>
			<path fill="#F6AD8E" d="M276.923,225.819l-22.041,0.285c0,0-2.881,22.933,1.187,56.39c1.701,0.838,3.403,0.784,5.104-0.102
				c0,0,1.42-27.793,3.84-47.734c0.43-0.012,6.146,28.369,11.263,47.727c1.684,0.848,3.338,0.985,5.059,0.109
				C281.334,282.494,278.26,262.037,276.923,225.819z"/>
			<path fill="#F6AD8E" d="M261.173,282.393l-0.168,3.782c0,0-11.861,0.55-11.861-0.647c0-0.911,5.711-1.472,6.314-1.674
				c0.791-0.266,0.61-1.359,0.61-1.359L261.173,282.393z"/>
			<path fill="#F6AD8E" d="M276.275,282.385l0.789,3.828c0,0,11.196,0.512,11.196-0.686c0-0.911-5.705-1.485-6.315-1.674
				c-0.675-0.208-0.611-1.359-0.611-1.359L276.275,282.385z"/>
		</g>
		<path fill="#D26214" d="M254.813,226.705c0,0-1.732,12.731-1.367,24.583c0,0,4.918,2.148,10.291,0.296l1.367-15.852l3.369,15.186
			c0,0,3.643,2.296,9.929-0.149l-1.275-24.072L254.813,226.705z"/>
	</g>
	<g>
		<g>
			<g>
				<path fill="#F6AD8E" d="M273.583,195.552c0,0,11.906,11.275,12.355,36.888h-3.699c0,0-0.735-15.679-6.992-25.222
					L273.583,195.552z"/>
				<path fill="#F6AD8E" d="M281.708,235.437c0.036,0.212,0.049,0.536,0.335,0.638c0.288,0.104,0.55-0.089,0.621-0.31
					c0.097-0.3,0.104-0.635,0.151-0.942c0.015-0.104,0.031-0.207,0.047-0.31c0.264,0.604,0.415,1.24,0.436,1.883
					c0.013,0.415-0.022,0.832-0.116,1.24c-0.069,0.313-0.172,0.696,0.202,0.913c0.188,0.11,0.396,0.098,0.572,0.017
					c0.204,0.075,0.458,0.056,0.658-0.073c0.056-0.034,0.104-0.076,0.149-0.12c0.057,0.06,0.153,0.093,0.258,0.04
					c0.311-0.153,0.517-0.382,0.664-0.644c0.071,0.006,0.146-0.014,0.194-0.075c0.943-1.178,1.212-2.67,0.782-4.026
					c-0.202-0.636-0.566-1.378-1.177-1.829c-0.75-0.556-1.769-0.339-2.623-0.093c-0.024,0.007-0.041,0.019-0.061,0.028
					c-0.091-0.05-0.222-0.052-0.289,0.051C281.792,232.928,281.503,234.197,281.708,235.437z"/>
			</g>
			<g>
				<path fill="#F6AD8E" d="M258.299,195.552c0,0-11.738,11.275-12.188,36.888h3.699c0,0,1.006-16.129,7.262-25.671L258.299,195.552
					z"/>
				<path fill="#F6AD8E" d="M249.538,231.824c-0.067-0.103-0.198-0.101-0.29-0.051c-0.017-0.01-0.036-0.021-0.06-0.028
					c-0.855-0.246-1.872-0.463-2.624,0.093c-0.609,0.451-0.975,1.193-1.177,1.829c-0.43,1.356-0.16,2.849,0.782,4.026
					c0.05,0.062,0.125,0.081,0.196,0.075c0.146,0.262,0.354,0.49,0.662,0.644c0.104,0.053,0.202,0.02,0.26-0.04
					c0.045,0.044,0.092,0.086,0.147,0.12c0.2,0.129,0.455,0.148,0.66,0.073c0.174,0.081,0.382,0.094,0.57-0.017
					c0.374-0.217,0.271-0.601,0.202-0.913c-0.094-0.408-0.129-0.825-0.116-1.24c0.022-0.643,0.173-1.278,0.437-1.883
					c0.015,0.103,0.029,0.206,0.046,0.31c0.047,0.308,0.055,0.643,0.151,0.942c0.071,0.221,0.333,0.414,0.623,0.31
					c0.284-0.102,0.298-0.426,0.333-0.638C250.548,234.197,250.258,232.928,249.538,231.824z"/>
			</g>
			<g>
				<path fill="#F6AD8E" d="M263.436,194.189c-2.02,0.172-4.229,0.666-5.137,1.362c0,0-2.3,17.881-3.557,31.687
					c16.172,2.781,22.407-0.247,22.407-0.247c-0.962-16.256-3.566-31.439-3.566-31.439c-1.195-0.858-3.166-1.323-5.1-1.362H263.436z
					"/>
				<g>
					<path fill="#F6A249" d="M277.216,227.166c0,0-8.804,3.259-22.739,0c0,0,1.042-9.423,1.709-15.166
						c0.071-0.589,0.135-1.134,0.19-1.628c0.04-0.317,0.075-0.611,0.107-0.882c0.027-0.232,0.054-0.448,0.08-0.643
						c0.082-0.673,0.143-1.093,0.163-1.163c0,0,4.125-4.146,4.125-13.106c0,0,0.434-0.471,1.599-0.277c0,0,0.135,6.027,2.775,6.247
						c2.643,0.224,4.082-6.318,4.082-6.318s0.973-0.408,1.58,0.235c0,0-0.832,9.52,4.451,13.227c0,0,0.063,0.538,0.166,1.437
						c0.024,0.201,0.053,0.423,0.077,0.659c0.037,0.307,0.074,0.639,0.118,0.994c0.056,0.507,0.119,1.061,0.187,1.648
						C276.491,217.785,277.36,225.922,277.216,227.166z"/>
					<g>
						<path fill="#D26214" d="M275.582,209.787c-6.285-0.827-12.696-0.921-19.015-0.297c-0.032,0.004-0.06,0.004-0.084,0
							c0.027-0.232,0.054-0.448,0.08-0.643c6.299-0.624,12.677-0.524,18.941,0.28C275.529,209.329,275.558,209.551,275.582,209.787z
							"/>
						<path fill="#D26214" d="M275.887,212.43c-6.498-0.914-13.148-1.043-19.701-0.43c0.071-0.589,0.135-1.134,0.19-1.628
							c6.43-0.585,12.938-0.437,19.324,0.409C275.756,211.288,275.819,211.842,275.887,212.43z"/>
					</g>
				</g>
			</g>
		</g>
		<g>
			<path fill="#E9734B" d="M257.673,183.13c0.022,0.033,0.048,0.065,0.072,0.098c2.009,2.597,6.111,3.408,8.073,6.016
				c0.429,0.569,0.967,1.209,1.889,1.194c0.851-0.013,1.392-0.631,1.827-1.142c1.236-1.45,2.207-3.049,2.904-4.719
				c0.477-1.143,0.666-2.344,0.501-3.544c-0.163-1.199-0.728-2.383-1.741-3.266c-1.129-0.981-2.745-1.531-4.383-1.699
				c-1.641-0.167-3.307,0.022-4.909,0.345c-1.047,0.21-2.099,0.479-3.177,0.445s-2.219-0.445-2.663-1.245
				c-0.531,0.638-0.625,1.539-0.145,2.203c-0.469-0.045-0.871-0.252-1.174-0.548c-0.069,0.848,0.446,1.682,1.343,2.117
				c-0.435,0.144-1.011,0.049-1.437-0.109C255.232,180.702,256.727,181.841,257.673,183.13z"/>
			<g>
				<path fill="#F6AD8E" d="M269.13,180.061c-2.277-3.396-10.292-2.237-10.917,0.464c-1.281,5.556-0.307,7.836,1.592,9.149
					c2.197,1.519,3.631,1.324,3.631,4.516c0.831,1.698,4.018,1.93,5.048,0c-0.063-4.227,1.721-7.431,1.721-7.431
					S270.071,181.461,269.13,180.061z"/>
				<g>
					<g>
						<ellipse fill="#141424" cx="263.72" cy="185.299" rx="0.514" ry="0.417"/>
						<ellipse fill="#FFFFFF" cx="263.532" cy="185.185" rx="0.188" ry="0.152"/>
					</g>
					<g>
						<ellipse fill="#141424" cx="259.747" cy="185.299" rx="0.514" ry="0.417"/>
						<ellipse fill="#FFFFFF" cx="259.557" cy="185.185" rx="0.189" ry="0.152"/>
					</g>
					<path fill="#E9734B" d="M260.604,183.662c-0.646-0.365-1.484-0.345-2.093,0.083c-0.113,0.08-0.135,0.241-0.048,0.346
						c0.09,0.106,0.256,0.124,0.372,0.044c0.248-0.176,0.566-0.256,0.877-0.236c0.157,0.01,0.313,0.044,0.456,0.102
						c0.127,0.052,0.252,0.142,0.396,0.075c0.033-0.017,0.063-0.039,0.086-0.068C260.731,183.91,260.727,183.731,260.604,183.662z"
						/>
					<path fill="#E9734B" d="M262.607,183.662c0.74-0.365,1.702-0.345,2.399,0.083c0.131,0.08,0.153,0.241,0.054,0.346
						c-0.103,0.106-0.293,0.124-0.424,0.044c-0.286-0.176-0.651-0.252-1.006-0.232c-0.182,0.01-0.359,0.044-0.526,0.101
						c-0.146,0.05-0.289,0.138-0.454,0.072c-0.037-0.017-0.071-0.04-0.099-0.068C262.46,183.91,262.467,183.731,262.607,183.662z"/>
					<path fill="#DA6C42" d="M261.532,187.675c-0.28,0-0.572-0.05-0.853-0.171c-0.131-0.057-0.182-0.188-0.112-0.295
						c0.069-0.106,0.229-0.146,0.36-0.092c0.681,0.29,1.438-0.007,1.655-0.249c0.088-0.097,0.256-0.119,0.376-0.048
						s0.146,0.208,0.058,0.306C262.763,187.409,262.18,187.675,261.532,187.675z"/>
					<path fill="#DA6C42" d="M260.898,186.431c-0.028,0-0.057-0.015-0.065-0.038c-0.125-0.356,0.022-0.478,0.17-0.518
						c0.149-0.038,0.327-0.007,0.533,0.095c0.029,0.017,0.039,0.05,0.021,0.075c-0.019,0.026-0.062,0.034-0.094,0.019
						c-0.166-0.085-0.309-0.113-0.419-0.084c-0.133,0.035-0.159,0.163-0.082,0.383c0.011,0.028-0.01,0.059-0.045,0.067
						C260.911,186.431,260.904,186.431,260.898,186.431z"/>
				</g>
			</g>
			<path fill="#E9734B" d="M258.926,178.929c1.174-1.3,4.589-1.622,7.5-1.184c2.91,0.438,4.176,1.467,4.271,3.165
				s0.307,3.819,0.307,3.819l-1.13,0.7c-0.346-0.112-0.665-0.376-0.828-0.65c-0.162-0.274-0.239-0.576-0.315-0.874
				c-0.163-0.646-0.328-1.291-0.492-1.938c-0.625,0.163-1.31,0.071-1.866-0.211c-0.556-0.282-0.948-0.771-1.044-1.3
				c-2.39,0.467-4.959,0.444-7.362,0.021C258.022,179.953,258.544,179.353,258.926,178.929z"/>
			<g>
				<path fill="#F6AD8E" d="M271.962,186.881c-0.688,0.666-1.771,0.848-2.422,0.403c-0.651-0.443-0.621-1.343,0.065-2.009
					c0.688-0.667,1.771-0.848,2.422-0.404C272.678,185.314,272.647,186.214,271.962,186.881z"/>
				<path fill="#DA6C42" d="M271.578,185.197c-0.292-0.126-0.681-0.12-1.042,0.017c-0.179,0.067-0.309,0.15-0.396,0.252
					c-0.119,0.135-0.151,0.304-0.086,0.441c0.059,0.123,0.18,0.204,0.286,0.275c0.077,0.05,0.151,0.099,0.193,0.156
					c0.062,0.089,0.046,0.213-0.038,0.29c-0.086,0.076-0.235,0.101-0.352,0.057c-0.067-0.025-0.146-0.001-0.178,0.054
					c-0.029,0.055-0.002,0.119,0.065,0.145c0.075,0.028,0.153,0.041,0.236,0.041c0.156,0,0.317-0.052,0.426-0.149
					c0.163-0.146,0.192-0.376,0.071-0.546c-0.067-0.093-0.166-0.158-0.254-0.217c-0.09-0.059-0.175-0.114-0.206-0.184
					c-0.032-0.069-0.012-0.163,0.054-0.237c0.026-0.029,0.063-0.057,0.102-0.084c0.135,0,0.301,0.033,0.385,0.107
					c0.096,0.085,0.141,0.208,0.116,0.32c-0.011,0.06,0.037,0.115,0.11,0.126c0.01,0.001,0.015,0.001,0.022,0.001
					c0.065,0,0.122-0.038,0.133-0.092c0.035-0.18-0.032-0.367-0.184-0.502c-0.056-0.051-0.127-0.085-0.202-0.112
					c0.223-0.049,0.443-0.039,0.612,0.034c0.209,0.09,0.37,0.323,0.262,0.513c-0.032,0.056-0.002,0.12,0.065,0.145
					c0.067,0.026,0.146,0.002,0.178-0.053C272.115,185.719,271.94,185.353,271.578,185.197z"/>
			</g>
		</g>
	</g>
</g>
</svg>
