<?xml version="1.0" encoding="utf-8"?>
<!-- Generator: Adobe Illustrator 16.0.0, SVG Export Plug-In . SVG Version: 6.00 Build 0)  -->
<!DOCTYPE svg PUBLIC "-//W3C//DTD SVG 1.1//EN" "http://www.w3.org/Graphics/SVG/1.1/DTD/svg11.dtd">
<svg version="1.1" id="Capa_1" xmlns="http://www.w3.org/2000/svg" xmlns:xlink="http://www.w3.org/1999/xlink" x="0px" y="0px"
	 width="400px" height="400px" viewBox="0 0 400 400" enable-background="new 0 0 400 400" xml:space="preserve">
<g>
	<polygon fill="#FFBF59" points="23.367,96.762 227.553,120.546 232.886,198.811 23.367,240.329 	"/>
	<polygon fill="#FD9533" points="381.188,239.753 381.188,97.338 227.553,120.546 232.886,198.811 	"/>
	<path opacity="0.3" fill="#FFFFFF" d="M230.729,123.552l3.603,71.661l143.426,29.687V103.681L230.729,123.552z M376.565,221.591
		l-140.586-27.12l-3.094-68.304l143.083-21.034L376.565,221.591z"/>
	<path opacity="0.3" fill="#FFFFFF" d="M222.181,123.14L31.202,103.396l-2.617,121.503l198.335-30.503L222.181,123.14z
		 M31.202,223.28l5.224-117.98l183.198,18.939l5.688,68.415L31.202,223.28z"/>
</g>
<polygon opacity="0.2" fill="#CE0000" points="234.806,168.546 240.434,169.466 244.745,179.358 326.063,168.938 350.957,198.152 
	365.413,199.111 381.188,229.086 254.467,204.128 226.92,187.076 226.059,176.724 "/>
<g>
	<polygon fill="#D14F46" points="23.367,236.294 232.886,198.811 381.188,239.753 381.188,273.194 23.367,273.194 	"/>
	<path opacity="0.2" fill="#590800" d="M381.188,250.616l-6.435,2.848l-31.196-8.997l22.635-8.854l-1.49-0.411l-23.195,8.673
		l-23.688-6.832l21.799-8.767l-0.867-0.239l-22.011,8.694l-21.05-6.071l23.624-7.989l-1.042-0.287l-23.77,7.934l-20.203-5.827
		l24.028-7.612l-1.227-0.339l-24.181,7.554l-22.466-6.48l23.941-7.342l-1.377-0.38l-24.116,7.274l-20.458-5.9l25.132-6.742
		l-1.433-0.395l-25.583,6.593l-21.901-6.316l-1.093,0.216l21.876,6.39l-41.232,10.627l-24.599-8.307l-1.615,0.321l24.244,8.493
		l-45.172,11.642l-23.14-11.402l-1.264,0.25l23.16,11.474l-50.291,12.961l-20.834-14.93l-2.578,0.511l21.127,15.009l-59.881,15.434
		v3.184l62.492-16.764l16.638,11.82l-39.323,11.862h6.038l34.912-10.706l14.013,9.954l-2.407,0.752h3.466h1.379h1.417l-0.435-0.312
		L178,255l17.13,8.487l-29.083,9.707h3.877l26.625-9.005l18.176,9.005h2.311l-19.173-9.449l52.472-17.746l22.756,7.973
		l-48.667,19.223h3.497l46.576-18.729l19.979,6.999l-31.369,11.73h7.008l27.331-10.691l30.517,10.691h2.235h4.696h2.013
		l-1.133-0.382l40.726-17.689l4.688,1.369v-1.172l-3.092-0.892l3.092-1.343V250.616z M293.129,230.776l-41.161,13.738l-19.785-6.681
		l40.824-12.935L293.129,230.776z M271.627,224.496l-41.008,12.81l-21.124-7.132l39.788-12.202L271.627,224.496z M227.923,238.148
		l-50.189,15.678l-17.401-8.575l46.852-14.368L227.923,238.148z M227.335,211.563l20.396,5.955l-39.988,12.064l-21.067-7.113
		L227.335,211.563z M184.688,223.002l20.76,7.272l-46.836,14.129l-18.93-9.329L184.688,223.002z M88.104,248.91l50.343-13.504
		l18.921,9.372l-52.801,15.929L88.104,248.91z M120.09,271.832l-13.917-9.973l52.915-16.228l17.354,8.597L120.09,271.832z
		 M196.447,263.048l-17.158-8.455l50.186-15.901l19.487,6.827L196.447,263.048z M253.348,244.98l40.974-13.855l21.05,6.146
		l-39.106,15.446L253.348,244.98z M277.663,253.19l38.797-15.602l23.502,6.864l-41.839,15.646L277.663,253.19z M333.101,271.908
		l-32.043-10.818l40.983-16.03l31.15,9.097L333.101,271.908z"/>
	<polygon opacity="0.1" fill="#FFFFFF" points="273.091,253.972 250.335,245.999 197.863,263.745 217.036,273.194 224.424,273.194 	
		"/>
	<polygon opacity="0.1" fill="#FFFFFF" points="104.566,260.707 88.104,248.91 138.446,235.406 157.367,244.778 	"/>
	<polygon opacity="0.1" fill="#FFFFFF" points="253.576,204.522 228.444,211.265 248.902,217.165 273.019,209.891 	"/>
	<polygon opacity="0.1" fill="#FFFFFF" points="339.617,228.276 317.818,237.043 341.506,243.875 364.701,235.202 	"/>
</g>
<g>
	<polygon fill="#FFFFFF" points="381.188,229.086 232.665,196.777 23.367,231.104 23.367,240.329 232.886,198.811 381.188,239.753 	
		"/>
	<polygon fill="#B9EDDA" points="381.188,231.896 232.394,197.447 23.367,233.41 23.367,231.104 232.665,196.777 381.188,229.086 	
		"/>
</g>
<path opacity="0.08" fill="#CE0000" d="M208.362,118.311l20.082,15.317c0,0,26.811-1.662,75.8,13.817
	c48.988,15.479,76.943,60.236,76.943,60.236V97.338l-153.635,23.208L208.362,118.311z"/>
<polygon opacity="0.5" fill="#E05858" points="381.188,239.753 232.886,198.811 195.185,206.281 298.143,241.921 133.868,267.528 
	108.351,223.488 23.367,240.329 23.367,273.194 381.188,273.194 "/>
<polygon opacity="0.5" fill="#E05858" points="149.725,233.969 197.188,273.194 341.26,273.194 376.565,238.661 323.354,223.905 
	323.338,225.842 218.86,270.384 "/>
<g>
	<polygon fill="#FFBF59" points="249.688,260.707 298.051,241.194 336.46,251.79 293.129,273.194 280.613,273.194 	"/>
	<polygon fill="#590800" points="249.688,260.707 249.688,261.673 277.663,273.194 280.613,273.194 	"/>
	<polygon fill="#590800" points="336.46,251.79 293.129,273.194 295.143,273.194 336.125,252.979 	"/>
	<path opacity="0.6" fill="#C94D44" d="M299.112,243.032l-44.393,17.675l30.861,11.125l44.84-20.042L299.112,243.032z
		 M256.9,260.708l42.268-17.027l28.852,8.109l-41.771,18.671L256.9,260.708z"/>
	<path opacity="0.6" fill="#C94D44" d="M287.379,251.343l-11.973,11.067l24.936-3.289l7.265-10.571L287.379,251.343z
		 M299.451,258.754l-22.422,2.958l10.767-9.951l18.753-2.351L299.451,258.754z"/>
</g>
<g>
	<g>
		<polygon fill="#7C441D" points="319.772,128.58 317.869,155.968 285.069,155.968 284.249,131.175 		"/>
		<polygon fill="#C94D44" points="317.249,130.526 316.494,154.022 285.777,154.526 285.455,132.849 		"/>
		<polygon fill="#FFF594" points="307.183,137.167 306.854,147.381 293.933,147.381 293.933,138.134 		"/>
	</g>
	<g>
		<polygon fill="#7C441D" points="279.898,131.787 278.846,146.922 260.72,146.922 260.267,133.221 		"/>
		<polygon fill="#FFBF59" points="278.503,132.862 278.085,145.847 261.111,146.125 260.933,134.146 		"/>
		<polygon fill="#FFF594" points="272.939,136.532 272.759,142.177 265.617,142.177 265.617,137.067 		"/>
	</g>
	<polygon opacity="0.27" fill="#590800" points="319.772,128.58 320.563,129.934 319.772,157.553 287.343,157.175 285.069,155.968 
		317.869,155.968 	"/>
	<polygon opacity="0.27" fill="#590800" points="279.898,131.787 280.465,132.599 279.898,147.787 262.993,147.49 260.72,146.922 
		278.846,146.922 	"/>
</g>
<g>
	<g>
		<polygon fill="#9B5729" points="203.719,186.488 203.71,221.636 228.731,227.962 229.775,189.716 		"/>
		<polygon fill="#7C441D" points="205,187.707 204.991,220.111 227.45,225.789 227.45,190.658 		"/>
		<polygon fill="#BC7442" points="204.991,203.566 223.929,202.45 227.45,202.45 227.45,207.639 		"/>
		<polygon fill="#7C441D" points="252.136,187.77 218.451,185.535 203.719,186.488 229.775,189.716 228.731,227.962 249.497,221.42 
					"/>
		<polygon fill="#5B1800" points="229.775,189.716 252.136,187.77 249.497,221.42 228.731,227.962 		"/>
		<polygon fill="#9B5729" points="227.45,207.639 204.174,203.419 204.174,204.164 227.45,210.219 		"/>
		<polygon fill="#BC7442" points="204.991,220.111 223.929,218.79 227.45,219.158 227.45,225.789 		"/>
		<polygon opacity="0.24" fill="#590800" points="205,187.707 224.435,195.463 224.9,202.45 227.45,202.45 227.45,190.658 		"/>
		<polygon opacity="0.24" fill="#590800" points="205.259,204.446 227.45,210.219 227.45,219.158 223.929,218.79 223.366,212.17 		
			"/>
		<polygon fill="#590800" points="248.937,221.597 248.559,223.797 245.92,224.555 245.435,223.401 230.253,228.546 
			229.208,229.784 226.8,229.784 225.938,227.962 207.259,223.976 206.241,224.965 204.401,224.52 204.174,221.753 228.731,227.962 
					"/>
	</g>
	<g>
		<path fill="#5B1800" d="M225.541,177.538l0.608,7.232l-2.185,2.953c0,0,1.334,0.092,2.713,0.092c1.669,0,2.714-0.273,2.714-0.273
			l-2.193-2.771l0.243-7.232H225.541z"/>
		<path fill="#FFFFFF" d="M237.552,177.537c0,0-5.509,0.716-11.148,0.71c-3.443-0.005-6.524-0.24-8.514-0.44
			c-1.459-0.144-2.332-0.27-2.332-0.27l3.64-10.408l12.892-1.112l1.901-0.164L237.552,177.537z"/>
		<defs>
			<filter id="Adobe_OpacityMaskFilter" filterUnits="userSpaceOnUse" x="215.559" y="166.252" width="20.946" height="11.844">
				<feFlood  style="flood-color:white;flood-opacity:1" result="back"/>
				<feBlend  in="SourceGraphic" in2="back" mode="normal"/>
			</filter>
		</defs>
		<mask maskUnits="userSpaceOnUse" x="215.559" y="166.252" width="20.946" height="11.844" id="SVGID_1_">
			<g filter="url(#Adobe_OpacityMaskFilter)">
				<defs>
					
						<filter id="Adobe_OpacityMaskFilter_1_" filterUnits="userSpaceOnUse" x="215.559" y="166.252" width="20.946" height="11.844">
						<feFlood  style="flood-color:white;flood-opacity:1" result="back"/>
						<feBlend  in="SourceGraphic" in2="back" mode="normal"/>
					</filter>
				</defs>
				<mask maskUnits="userSpaceOnUse" x="215.559" y="166.252" width="20.946" height="11.844" id="SVGID_1_">
					<g filter="url(#Adobe_OpacityMaskFilter_1_)">
					</g>
				</mask>
				<linearGradient id="SVGID_2_" gradientUnits="userSpaceOnUse" x1="215.5576" y1="172.1738" x2="236.5049" y2="172.1738">
					<stop  offset="0" style="stop-color:#FFFFFF"/>
					<stop  offset="1" style="stop-color:#000000"/>
				</linearGradient>
				<path mask="url(#SVGID_1_)" fill="url(#SVGID_2_)" d="M219.197,167.13l14.879-0.878l2.429,11.391c0,0-3.8,0.453-9.95,0.453
					c-6.845,0-10.997-0.559-10.997-0.559L219.197,167.13z"/>
			</g>
		</mask>
		<linearGradient id="SVGID_3_" gradientUnits="userSpaceOnUse" x1="215.5576" y1="172.1738" x2="236.5049" y2="172.1738">
			<stop  offset="0" style="stop-color:#FFFFFF"/>
			<stop  offset="1" style="stop-color:#000000"/>
		</linearGradient>
		<path opacity="0.5" fill="url(#SVGID_3_)" d="M219.197,167.13l14.879-0.878l2.429,11.391c0,0-3.8,0.453-9.95,0.453
			c-6.845,0-10.997-0.559-10.997-0.559L219.197,167.13z"/>
		<path fill="#C94D44" d="M216.14,175.875l0.379-1.087c0,0,4.816,0.545,9.572,0.545c5.438,0,10.712-0.251,10.712-0.251l0.327,1.074
			c0,0-5.949,0.569-11.071,0.569C221.882,176.724,216.14,175.875,216.14,175.875z"/>
		<path fill="#C94D44" d="M216.962,173.521c0,0,5.776,0.419,9.263,0.473c5.011,0.076,10.104-0.473,10.104-0.473l0.177,0.58
			c0,0-6.532,0.386-10.363,0.347c-3.657-0.038-9.253-0.718-9.253-0.718L216.962,173.521z"/>
		<path opacity="0.04" fill="#590800" d="M237.552,177.537c0,0-5.509,0.716-11.148,0.71c-3.443-0.005-6.524-0.24-8.514-0.44
			c0.771-0.07,7.811-0.808,11.004-4.521c2.704-3.146,3.135-6.185,3.195-7.269l1.901-0.164L237.552,177.537z"/>
	</g>
</g>
<g>
	<g>
		<path fill="#5B1800" d="M42.705,136.073l1.789,75.392l40.002-5.904l3.561-69.212L42.705,136.073z M83.525,204.128l-37.492,4.539
			l-1.658-69.843l42.057-0.589L83.525,204.128z"/>
		<polygon fill="#BDFFE7" points="83.525,204.128 86.433,138.235 44.375,138.824 46.033,208.667 		"/>
		<path fill="#B0CBFF" d="M83.957,194.356c0,0-11.39,1.448-12.135,2.089c-0.746,0.641-2.05,9.347-2.05,9.347l13.753-1.664
			L83.957,194.356z"/>
		<polygon fill="#FFAC73" points="83.674,200.759 69.772,203.032 69.772,205.792 83.525,204.128 		"/>
		<polygon fill="#FFFFFF" points="86.246,142.46 44.937,162.49 45.529,187.424 85.381,162.065 		"/>
		<polygon fill="#FFFFFF" points="85.03,170.022 45.799,198.811 46.033,208.667 84.663,178.349 		"/>
		<polygon opacity="0.2" fill="#590800" points="42.705,136.073 40.364,139.141 41.557,212.005 80.283,207.356 82.522,205.321 
			44.494,211.465 		"/>
	</g>
	<polygon opacity="0.5" fill="#860400" points="99.156,237.51 43.196,256.474 23.367,245.632 23.367,240.329 43.174,236.404 
		43.489,240.215 58.391,246.135 	"/>
	<polygon opacity="0.2" fill="#CE0000" points="40.099,210.298 23.367,229.202 23.367,240.329 43.174,236.404 41.193,212.43 
		40.099,212.05 	"/>
	<g>
		<g>
			<polygon fill="#683A1B" points="100.753,208.326 99.156,237.51 58.391,246.135 55.042,214.316 			"/>
			<polygon fill="#5B2500" points="41.049,210.695 43.489,240.215 58.391,246.135 55.042,214.316 			"/>
			<path fill="#5B2500" d="M56.466,215.935l1.925,13.032l40.061-6.62l1.091-12.159L56.466,215.935z M97.411,222.22l-38.023,6.282
				l-1.827-12.369l40.843-4.973L97.411,222.22z"/>
			<path fill="#5B2500" d="M58.898,230.593L60.13,243.2l37.86-7.354l0.505-11.979L58.898,230.593z M96.838,235.708l-35.598,6.914
				L60.13,231.27l37.183-6.824L96.838,235.708z"/>
			<polygon fill="#BC7846" points="86.053,205.395 102.725,208.721 55.984,215.257 40.099,210.298 			"/>
			<polygon opacity="0.42" fill="#562300" points="71.702,215.794 68.605,217.27 68.605,218.839 80.891,216.431 83.569,215.109 
				71.702,216.975 			"/>
			<polygon fill="#CC8E5A" points="71.702,215.794 71.702,217.079 84.386,214.974 84.386,214.245 			"/>
			<polygon opacity="0.42" fill="#562300" points="74.193,230.309 71.702,231.537 71.702,233.378 82.126,231.071 84.386,229.202 			
				"/>
			<polygon fill="#CC8E5A" points="74.193,229.897 74.193,231.537 85.415,228.967 85.415,228.278 			"/>
			<polygon fill="#683A1B" points="102.725,208.721 102.382,209.756 56.173,217.634 40.099,212.05 40.099,210.298 55.984,215.257 
							"/>
			<polygon opacity="0.2" fill="#CC8E5A" points="102.382,209.756 102.725,208.721 55.984,215.257 56.173,217.634 			"/>
			<polygon opacity="0.31" fill="#541C00" points="100.659,210.051 100.516,212.656 58.065,243.037 42.898,233.061 41.193,212.43 
				56.173,217.634 			"/>
		</g>
		<defs>
			<filter id="Adobe_OpacityMaskFilter_2_" filterUnits="userSpaceOnUse" x="61.907" y="205.395" width="40.817" height="7.316">
				<feFlood  style="flood-color:white;flood-opacity:1" result="back"/>
				<feBlend  in="SourceGraphic" in2="back" mode="normal"/>
			</filter>
		</defs>
		<mask maskUnits="userSpaceOnUse" x="61.907" y="205.395" width="40.817" height="7.316" id="SVGID_4_">
			<g filter="url(#Adobe_OpacityMaskFilter_2_)">
				<defs>
					<filter id="Adobe_OpacityMaskFilter_3_" filterUnits="userSpaceOnUse" x="61.907" y="205.395" width="40.817" height="7.316">
						<feFlood  style="flood-color:white;flood-opacity:1" result="back"/>
						<feBlend  in="SourceGraphic" in2="back" mode="normal"/>
					</filter>
				</defs>
				<mask maskUnits="userSpaceOnUse" x="61.907" y="205.395" width="40.817" height="7.316" id="SVGID_4_">
					<g filter="url(#Adobe_OpacityMaskFilter_3_)">
					</g>
				</mask>
				<linearGradient id="SVGID_5_" gradientUnits="userSpaceOnUse" x1="75.0869" y1="198.396" x2="89.5456" y2="218.2967">
					<stop  offset="0.2129" style="stop-color:#000000"/>
					<stop  offset="1" style="stop-color:#FFFFFF"/>
				</linearGradient>
				<polygon mask="url(#SVGID_4_)" fill="url(#SVGID_5_)" points="102.725,208.721 74.193,212.711 61.907,207.972 86.053,205.395 
									"/>
			</g>
		</mask>
		<linearGradient id="SVGID_6_" gradientUnits="userSpaceOnUse" x1="75.0869" y1="198.396" x2="89.5456" y2="218.2967">
			<stop  offset="0.2129" style="stop-color:#000000"/>
			<stop  offset="1" style="stop-color:#FFFFFF"/>
		</linearGradient>
		<polygon opacity="0.42" fill="url(#SVGID_6_)" points="102.725,208.721 74.193,212.711 61.907,207.972 86.053,205.395 		"/>
	</g>
</g>
<g>
	<polygon fill="#590800" points="254.538,206.894 253.479,165.588 326.063,168.938 323.338,224.899 	"/>
	<polygon fill="#FFF594" points="256.097,206.894 255.148,167.819 319.806,171.461 317.912,225.071 	"/>
	<polygon opacity="0.18" fill="#590800" points="314.467,224.059 317.294,173.738 319.806,171.461 317.912,225.071 	"/>
	<polygon opacity="0.63" fill="#FFFFFF" points="317.294,173.738 255.148,168.729 255.148,167.819 319.806,171.461 	"/>
	<polygon fill="#CC8E5A" points="148.811,227.636 149.725,233.969 218.86,270.384 219.855,260.324 	"/>
	<polygon fill="#72291B" points="218.86,270.384 323.338,225.842 323.382,220.602 219.855,260.324 	"/>
	<polygon fill="#672100" points="256.358,201.564 148.811,227.657 219.855,260.347 323.382,220.602 	"/>
	<polygon fill="#FFBE92" points="323.914,213.086 323.645,218.574 312.7,222.409 224.135,253.458 220.468,254.742 152.047,226.872 
		150.111,213.618 150.729,213.522 156.918,212.559 254.295,197.406 	"/>
	<polygon fill="#FFAC73" points="150.113,213.619 220.839,243.787 220.467,254.744 152.047,226.872 	"/>
	<polygon fill="#E3784E" points="323.913,213.086 220.839,243.787 220.467,254.744 323.646,218.574 	"/>
	<path fill="#FFD5B8" d="M150.729,213.522c0,0,66.867,28.477,70.11,28.398s97.438-27.157,97.438-27.157s-94.586,27.591-95.946,29.64
		c-0.978,1.472-1.764,7.387-1.764,7.387s0.146-5.61-1.404-7.73C217.596,241.921,150.729,213.522,150.729,213.522z"/>
	<path opacity="0.46" fill="#440300" d="M225.804,264.473v-6.409l-3.331-4.022c0,0,4.182-8.043,1.868-10.974
		c-2.876-3.646-73.612-29.545-73.612-29.545l6.19-0.964l155.782,9.851l9.344,0.593L225.804,264.473z"/>
	<path fill="#B0CBFF" d="M325.166,221.593c-0.063,0.107-3.507,1.59-9.075,3.935c-4.316,1.816-9.902,4.143-16.183,6.745
		c-0.085,0.035-0.169,0.07-0.255,0.104c-20.177,8.208-53.368,21.704-66.827,27.17c-0.022,0.009-0.049,0.021-0.076,0.03
		c-3.663,1.423-5.819,2.206-5.828,2.084c0,0-0.005-0.09-0.013-0.259c0-0.031,0-0.057-0.006-0.087c0-0.073-0.004-0.16-0.009-0.25
		c0-0.057-0.004-0.113-0.009-0.174c-0.004-0.078-0.004-0.16-0.013-0.246c-0.009-0.199-0.022-0.411-0.036-0.645
		c-0.005-0.078-0.009-0.155-0.014-0.234c-0.228-4.307-0.845-14.642-1.624-17.345c-0.008-0.034-0.013-0.056-0.017-0.069
		c-0.055-0.186-0.112-0.332-0.171-0.432c-0.062-0.112-0.675-0.419-1.735-0.895c-0.004-0.006-0.009-0.006-0.014-0.006
		c-2.021-0.903-5.676-2.399-10.296-4.236c-3.623-1.445-7.845-3.097-12.341-4.849c-20.011-7.788-45.5-17.436-48.395-18.529
		c-0.179-0.069-0.273-0.104-0.273-0.104s0.036-0.078,0.098-0.217c0.327-0.696,1.405-2.924,2.384-4.125l0.058-0.064
		c0.201-0.243,0.403-0.441,0.591-0.567c0.836-0.566,42.777-7.001,71.832-11.265l0.64-0.095l1.516-0.221l3.677-0.536l0.712-0.104
		l1.399-0.204l1.463-0.212c0.416-0.06,0.827-0.121,1.234-0.177c9.441-1.354,15.981-2.245,16.625-2.214
		c1.293,0.057,15.355,1.958,30.526,4.523h0.01c9.531,1.607,19.501,3.48,27.016,5.314c4.087,0.998,7.451,1.988,9.625,2.919
		c0.066,0.03,0.138,0.09,0.215,0.185C323.02,208.04,325.483,221.043,325.166,221.593z"/>
	<path opacity="0.2" fill="#003744" d="M325.166,221.593c-0.335,0.574-98.186,40.877-98.244,40.068c0,0-0.828-17.872-1.91-19.74
		c-0.711-1.232-67.972-26.698-72.78-28.515l-0.175-0.32c0.327-0.696,1.405-2.924,2.384-4.125l0.058-0.064
		c0,0,10.507,7.001,21.537,11.675c11.034,4.676,48.752,17.522,50.886,18.388c2.129,0.864,8.901,0.796,27.06-5.043
		c18.164-5.842,67.383-27.856,67.383-27.856l0.215,0.185C323.02,208.04,325.483,221.043,325.166,221.593z"/>
	<path opacity="0.2" fill="#003744" d="M170.181,205.696c0,0,70.563,26.2,72.053,29.3c1.491,3.1,3.076,19.616,3.076,19.616
		l39.497-16.098c0,0-2.799-11.603-7.144-13.615C273.319,222.888,170.181,205.696,170.181,205.696z"/>
	<path fill="#4E91A8" d="M280.586,229.83c-0.156,3.827-0.953,7.507-1.1,7.758c-0.278,0.472-32.129,11.801-33.3,11.421
		c-1.177-0.376-2.192-11.681-2.474-14.829c-0.286-3.147-73.532-28.483-73.532-28.483s0.031-0.778,0.841-1.562
		c0.192-0.19,0.434-0.38,0.729-0.563c1.521-0.925,31.868-5.09,34.105-4.761c2.235,0.329,69.028,19.896,72.758,22.781
		C280.362,222.941,280.725,226.443,280.586,229.83z"/>
	<path opacity="0.3" fill="#003744" d="M280.586,229.83c-0.156,3.827-0.953,7.507-1.1,7.758c-0.278,0.472-32.129,11.801-33.3,11.421
		c-1.177-0.376-2.192-11.681-2.474-14.829c-0.286-3.147-73.532-28.483-73.532-28.483s0.031-0.778,0.841-1.562l0.729-0.563
		c0,0,71.228,25.946,75.253,29.838C250.592,236.879,275.276,231.119,280.586,229.83z"/>
	<path fill="#FFFFFF" d="M285.581,235.404c-1.006,0.816-6.864,2.547-6.864,2.547s0.156-11.01-1.856-14.046
		c-1.374-2.07-37.974-12.636-61.08-19.139c-0.018-0.005-0.031-0.009-0.045-0.009l-0.004-0.004
		c-10.735-3.019-18.544-5.159-18.544-5.159s9.786-2.997,11.651-3.148c1.417-0.116,43.157,11.688,64.18,18.14
		c6.598,2.029,11.153,3.525,11.781,3.966C287.429,220.394,286.589,234.591,285.581,235.404z"/>
	<path opacity="0.2" fill="#590800" d="M215.731,204.754c0,0,0.018,0.004,0.049,0.013c-0.018-0.005-0.031-0.009-0.045-0.009
		L215.731,204.754z"/>
	<path opacity="0.3" fill="#003744" d="M285.581,235.404c-1.006,0.816-6.864,2.547-6.864,2.547s0.156-11.01-1.856-14.046
		c-1.374-2.07-37.974-12.636-61.08-19.139c1.342,0.358,30.07,8.03,39.368,9.401c9.522,1.405,17.87,0.418,17.87,0.418
		c6.598,2.029,11.153,3.525,11.781,3.966C287.429,220.394,286.589,234.591,285.581,235.404z"/>
	<path opacity="0.2" fill="#003744" d="M321.364,206.06l-12.551,5.538c0,0-28.935-3.269-35.017-5.08
		c-6.084-1.812-37.885-10.184-37.885-10.184l1.65-0.817c9.441-1.354,15.981-2.245,16.625-2.214
		C256.737,193.414,308.813,200.688,321.364,206.06z"/>
	<polygon opacity="0.2" fill="#A82329" points="283.014,173.738 288.599,177.563 307.052,178.349 309.578,175.336 323.914,206.06 
		318.836,205.12 308.8,202.45 272.189,181.563 	"/>
	<defs>
		<filter id="Adobe_OpacityMaskFilter_4_" filterUnits="userSpaceOnUse" x="148.811" y="213.303" width="30.431" height="35.337">
			<feFlood  style="flood-color:white;flood-opacity:1" result="back"/>
			<feBlend  in="SourceGraphic" in2="back" mode="normal"/>
		</filter>
	</defs>
	<mask maskUnits="userSpaceOnUse" x="148.811" y="213.303" width="30.431" height="35.337" id="SVGID_7_">
		<g filter="url(#Adobe_OpacityMaskFilter_4_)">
			<defs>
				<filter id="Adobe_OpacityMaskFilter_5_" filterUnits="userSpaceOnUse" x="148.811" y="213.303" width="30.431" height="35.337">
					<feFlood  style="flood-color:white;flood-opacity:1" result="back"/>
					<feBlend  in="SourceGraphic" in2="back" mode="normal"/>
				</filter>
			</defs>
			<mask maskUnits="userSpaceOnUse" x="148.811" y="213.303" width="30.431" height="35.337" id="SVGID_7_">
				<g filter="url(#Adobe_OpacityMaskFilter_5_)">
				</g>
			</mask>
			<linearGradient id="SVGID_8_" gradientUnits="userSpaceOnUse" x1="151.5073" y1="212.6064" x2="177.65" y2="248.5887">
				<stop  offset="0" style="stop-color:#FFFFFF"/>
				<stop  offset="1" style="stop-color:#000000"/>
			</linearGradient>
			<polygon mask="url(#SVGID_7_)" fill="url(#SVGID_8_)" points="151.958,213.303 150.113,213.619 152.047,226.872 148.811,227.657 
				149.725,233.969 177.578,248.64 175.776,239.734 179.241,237.951 176.443,223.111 			"/>
		</g>
	</mask>
	<linearGradient id="SVGID_9_" gradientUnits="userSpaceOnUse" x1="151.5073" y1="212.6064" x2="177.65" y2="248.5887">
		<stop  offset="0" style="stop-color:#FFFFFF"/>
		<stop  offset="1" style="stop-color:#000000"/>
	</linearGradient>
	<polygon opacity="0.61" fill="url(#SVGID_9_)" points="151.958,213.303 150.113,213.619 152.047,226.872 148.811,227.657 
		149.725,233.969 177.578,248.64 175.776,239.734 179.241,237.951 176.443,223.111 	"/>
	<path opacity="0.3" fill="#0082BC" d="M316.988,204.649v20.531l0,0c0,0-7.486,3.191-17.08,7.092
		c-0.085,0.035-0.169,0.07-0.255,0.104c-20.177,8.208-53.368,21.704-66.827,27.17c-0.022,0.009-0.049,0.021-0.076,0.03
		c-3.663,1.423-5.819,2.206-5.828,2.084c0,0-0.005-0.09-0.013-0.259c0-0.031,0-0.057-0.006-0.087c0-0.073-0.004-0.16-0.009-0.25
		c0-0.057-0.004-0.113-0.009-0.174c-0.004-0.078-0.004-0.16-0.013-0.246c-0.009-0.199-0.022-0.411-0.036-0.645
		c-0.005-0.078-0.009-0.155-0.014-0.234c-0.228-4.307-0.845-14.642-1.624-17.345c-0.008-0.034-0.013-0.056-0.017-0.069
		c-0.055-0.186-0.112-0.332-0.171-0.432c-0.062-0.112-0.675-0.419-1.735-0.895c-0.004-0.006-0.009-0.006-0.014-0.006
		c-2.285-1.171-6.283-2.749-10.296-4.236c-6.208-2.301-12.341-4.849-12.341-4.849s-0.066,0.282,0,0
		c0.176-0.739,0.528-2.11,0.811-2.353c0.393-0.332,20.615-5.137,20.615-5.137s0.276-2.105,1.247-2.158
		c0.971-0.047,35.733-15.541,35.733-15.541l-32.11-9.683l0.64-0.095l1.516-0.221l3.677-0.536l0.712-0.104l1.399-0.204l1.463-0.212
		l48.386,2.133h0.01l10.05,0.441l16.966,4.873L316.988,204.649z"/>
	<g>
		<path fill="#FFFFFF" d="M282.117,198.301c-1.092,2.97-7.866,3.514-10.733,2.966c-0.214-0.042-0.406-0.087-0.572-0.142
			c-0.721-0.226-2.188-0.511-4.125-0.824l-0.956-0.152c-1.544-0.24-3.323-0.5-5.226-0.764c-0.614-0.086-1.237-0.172-1.873-0.26
			c-1.667-0.23-3.4-0.462-5.127-0.692c-0.316-0.041-0.637-0.087-0.956-0.132c-1.745-0.231-3.473-0.467-5.111-0.689
			c-0.551-0.077-1.087-0.152-1.612-0.223c-1.621-0.23-3.122-0.449-4.428-0.651l-0.068-0.013c-2.444-0.379-4.189-0.709-4.73-0.949
			c-0.547-0.238-0.214-0.523,0.592-0.957c1.012-0.543,2.769-1.318,4.505-2.527c3.127-2.174,6.349-21.373,7.304-21.732
			c0.947-0.355,2.734,1.275,4.249,1.827c0.025,0.009,0.047,0.017,0.073,0.025c0.106,0.037,0.307,0.082,0.593,0.128
			c0.861,0.153,2.479,0.363,4.479,0.585c0.208,0.025,0.422,0.05,0.641,0.07c0.84,0.095,1.735,0.19,2.666,0.28
			c0.003,0,0.003,0,0.003,0c0.278,0.034,0.556,0.059,0.841,0.087c0.004,0,0.004,0,0.004,0c0.926,0.095,1.874,0.186,2.82,0.272
			c0.222,0.02,0.443,0.041,0.665,0.061c1.681,0.153,3.35,0.297,4.881,0.413c0.004,0,0.004,0,0.004,0l0.628,0.049
			c1.177,0.087,2.256,0.157,3.178,0.21h0.005c0.208,0.008,0.409,0.017,0.602,0.025c0.545,0.024,1.019,0.041,1.407,0.041
			c0.512,0.009,0.871-0.008,1.028-0.049c1.578-0.416,3.98-1.756,5.098-1.084C283.981,174.168,283.291,195.111,282.117,198.301z"/>
		<path fill="#4E91A8" d="M253.914,172.539c-0.708,0.4-1.583,1.051-2.266,2.045c-1.386,2.025-5.081,16.664-6.646,18.659
			c-1.565,1.993-3.604,3.494-3.604,3.494l-0.068-0.013l-0.798-0.169c0,0,0.474-1.286,3.093-3.313
			c2.624-2.028,5.678-17.289,7.244-19.004c0.764-0.838,1.659-1.448,2.38-1.853c0.025,0.009,0.047,0.017,0.073,0.025
			C253.428,172.448,253.628,172.493,253.914,172.539z"/>
		<path fill="#4E91A8" d="M259.034,173.194c-1.123,0.586-3.047,1.708-3.827,2.879c-1.139,1.704-3.964,15.83-5.192,17.996
			c-0.794,1.397-1.898,2.755-2.577,3.542c-0.551-0.077-1.087-0.152-1.612-0.223l-0.004-0.004c0,0,1.774-1.459,3.268-3.799
			c1.493-2.334,3.469-16.408,6.118-18.325c1.544-1.118,2.584-1.778,3.187-2.137C258.602,173.149,258.815,173.174,259.034,173.194z"
			/>
		<path fill="#4E91A8" d="M262.544,173.562c-0.892,0.602-2.401,1.823-3.093,3.542c-1.011,2.529-2.611,11.706-3.464,15.468
			c-0.618,2.721-1.848,4.878-2.482,5.86c-0.316-0.041-0.637-0.087-0.956-0.132c0.328-0.549,2.064-3.588,3.174-8.563
			c1.224-5.514,2.078-12.014,3.57-13.92c0.939-1.196,1.855-1.946,2.407-2.343c0.003,0,0.003,0,0.003,0
			C261.981,173.508,262.259,173.533,262.544,173.562z"/>
		<path fill="#4E91A8" d="M266.033,173.895c-0.605,0.529-1.476,1.407-1.867,2.405c-0.641,1.613-2.065,12.58-2.773,17.116
			c-0.5,3.168-0.768,5.095-0.888,5.969c-0.614-0.086-1.237-0.172-1.873-0.26c0.696-2.128,2.534-7.984,3.222-12.377
			c0.853-5.466,0.959-9.281,1.813-10.691c0.542-0.891,1.25-1.729,1.702-2.223C265.59,173.854,265.812,173.875,266.033,173.895z"/>
		<path fill="#4E91A8" d="M270.919,174.31c0,0-2.826,1.713-3.627,4.085c-0.8,2.372,0.641,12.219,0,16.034
			c-0.64,3.815-1.563,5.719-1.563,5.719l0.96,0.153c0,0,1.323-2.676,1.458-6.825c0.132-4.151-1.147-13.121-0.161-15.029
			c0.986-1.908,3.56-4.09,3.56-4.09L270.919,174.31z"/>
		<path fill="#4E91A8" d="M275.33,174.593c-0.452,1.271-2.253,6.45-2.56,9.302c-0.273,2.561-1.255,15.64-1.387,17.372
			c-0.214-0.042-0.406-0.087-0.572-0.142c0,0,0.747-9.086,1.195-15.586c0.438-6.373,2.632-10.794,2.717-10.971h0.005
			C274.937,174.576,275.138,174.584,275.33,174.593z"/>
		<path opacity="0.2" fill="#004FFF" d="M282.117,198.301c-1.092,2.97-7.866,3.514-10.733,2.966
			c-0.214-0.042-0.406-0.087-0.572-0.142c-0.721-0.226-2.188-0.511-4.125-0.824l-0.956-0.152c-1.544-0.24-3.323-0.5-5.226-0.764
			c-0.614-0.086-1.237-0.172-1.873-0.26c-1.667-0.23-3.4-0.462-5.127-0.692c-0.316-0.041-0.637-0.087-0.956-0.132
			c-1.745-0.231-3.473-0.467-5.111-0.689c-0.551-0.077-1.087-0.152-1.612-0.223c-1.621-0.23-3.122-0.449-4.428-0.651l-0.068-0.013
			c-2.444-0.379-4.189-0.709-4.73-0.949c-0.547-0.238-0.214-0.523,0.592-0.957c0,0,22.495,2.93,28.109,0.797
			c5.618-2.133,4.952-12.716,6.246-15.879c0.806-1.973,3.37-3.915,5.191-5.103c0.512,0.009,0.871-0.008,1.028-0.049
			c1.578-0.416,3.98-1.756,5.098-1.084C283.981,174.168,283.291,195.111,282.117,198.301z"/>
	</g>
	<g>
		<path fill="#00A1CC" d="M308.758,200.96c0.228,2.368,0.786,4.229-0.512,4.45c-1.813,0.31-13.672-1.793-20.54-1.464
			c-6.869,0.331-14.633-0.288-15.699-0.907c-0.594-0.342-0.542-0.774-0.248-1.349c0.29-0.565,0.814-1.27,1.194-2.16
			c0.106-0.24,0.196-0.491,0.269-0.759c0.048-0.154,0.081-0.311,0.112-0.471c0.127-0.71,0.225-2.603,0.328-4.991
			c0.013-0.26,0.025-0.523,0.033-0.796c0.051-1.18,0.103-2.454,0.157-3.75c0.014-0.296,0.026-0.598,0.039-0.898
			c0.056-1.254,0.114-2.512,0.184-3.703c0.018-0.326,0.035-0.648,0.056-0.961v-0.01c0.086-1.389,0.183-2.668,0.303-3.719
			c0.018-0.194,0.043-0.379,0.064-0.557c0.158-1.267,0.35-2.112,0.58-2.273c1.173-0.825,2.772,0.689,4.159,1.307
			c1.387,0.619,20.93,0.24,24.002-0.688c3.07-0.928,5.362-2.095,6.214-1.992c0.047,0.004,0.091,0.029,0.125,0.067
			c0.447,0.494-0.329,3.649-0.662,5.542v0.009c-0.08,0.471-0.136,0.866-0.136,1.119v0.039c0.004,0.334,0.029,1.131,0.063,2.199
			c0.009,0.21,0.018,0.434,0.021,0.664c0.052,1.484,0.107,3.361,0.133,5.255c0.009,0.338,0.013,0.681,0.013,1.019
			c0.014,1.432,0.009,2.838-0.029,4.063c-0.009,0.268-0.018,0.523-0.029,0.771c-0.039,0.775-0.095,1.443-0.171,1.963
			c-0.106,0.734-0.12,1.464-0.085,2.161C308.708,200.421,308.729,200.692,308.758,200.96z"/>
		<path fill="#FFFFFF" d="M308.916,180.878v0.009c-0.08,0.471-0.136,0.866-0.136,1.119v0.039c-1.438-0.064-14.01-0.646-21.915-1.277
			c-6.813-0.541-11.066-1.102-12.432-1.295c0.018-0.194,0.043-0.379,0.064-0.557c0,0,6.953,0.949,17.802,1.694
			C303.152,181.361,308.916,180.878,308.916,180.878z"/>
		<path fill="#FFFFFF" d="M308.864,184.908c-2.354,0.285-10.288,1.159-17.575,1.043c-8.08-0.123-16.147-1.592-17.214-1.789
			c0.018-0.326,0.035-0.648,0.056-0.961v-0.01c0,0,7.205,1.771,17.726,1.906c8.57,0.111,14.928-0.59,16.987-0.854
			C308.853,184.454,308.861,184.678,308.864,184.908z"/>
		<path fill="#FFFFFF" d="M309.01,191.182c-2.585,0.074-10.165,0.23-18.681-0.239c-8.784-0.491-14.743-1.77-16.477-2.179
			c0.014-0.296,0.026-0.598,0.039-0.898c1.4,0.639,5.784,2.107,16.898,2.488c10.294,0.35,15.887,0.02,18.207-0.19
			C309.006,190.501,309.01,190.844,309.01,191.182z"/>
		<path fill="#FFFFFF" d="M308.98,195.244c-0.009,0.268-0.018,0.523-0.029,0.771c-2.552,0.115-9.724,0.334-18.323-0.434
			c-9.381-0.842-15.529-1.988-16.966-2.272c0.013-0.26,0.025-0.523,0.033-0.796c1.643,0.363,6.707,1.344,17.167,2.326
			C300.551,195.751,306.506,195.459,308.98,195.244z"/>
		<path fill="#FFFFFF" d="M308.758,200.96c-1.843,0.231-10.264,1.159-20.455,0.495c-9.245-0.602-13.869-1.566-15.35-1.925
			c0.106-0.24,0.196-0.491,0.269-0.759c2.154,0.448,11.545,2.288,19.667,2.136c8.272-0.152,14.573-0.665,15.807-0.768
			C308.708,200.421,308.729,200.692,308.758,200.96z"/>
		<path opacity="0.2" fill="#004FFF" d="M308.758,200.96c0.228,2.368,0.786,4.229-0.512,4.45c-1.813,0.31-13.672-1.793-20.54-1.464
			c-6.869,0.331-14.633-0.288-15.699-0.907c-0.594-0.342-0.542-0.774-0.248-1.349c0,0,21.912,0,27.796-3.712
			c5.287-3.336,2.835-14.896,4.021-17.5c1.071-2.343,5.2-4.702,6.003-5.143c0.447,0.494-0.329,3.649-0.662,5.542v0.009
			c-0.08,0.471-0.136,0.866-0.136,1.119v0.039c0.004,0.334,0.029,1.131,0.063,2.199c0.009,0.21,0.018,0.434,0.021,0.664
			c0.052,1.484,0.107,3.361,0.133,5.255c0.009,0.338,0.013,0.681,0.013,1.019c0.014,1.432,0.009,2.838-0.029,4.063
			c-0.009,0.268-0.018,0.523-0.029,0.771c-0.039,0.775-0.095,1.443-0.171,1.963c-0.106,0.734-0.12,1.464-0.085,2.161
			C308.708,200.421,308.729,200.692,308.758,200.96z"/>
	</g>
	<path opacity="0.32" fill="#770300" d="M200.718,231.973c0,0-2.765,0.651-3.53,0.979c-0.766,0.329-0.949,11.918-0.949,11.918
		l-6.485,1.567l-0.585,8.307l29.692,15.64l89.076-37.977l3.698-4.92l-84.713,34.174c0,0-0.719-18.581-1.91-19.74
		C223.821,240.762,200.718,231.973,200.718,231.973z"/>
</g>
<g>
	<polygon fill="#BDFFE7" points="189.995,183.887 191.939,131.514 100.265,124.404 101.383,194.953 	"/>
	<polygon fill="#FD9533" points="194.128,129.987 198.251,129.987 194.178,185.447 192.119,185.199 	"/>
	<path fill="#FFFFFF" d="M95.154,119.681l3.042,78.924l98.17-11.97l5.165-58.739L95.154,119.681z M194.178,185.447l-93.651,11.418
		l-1.156-74.374l98.881,7.496L194.178,185.447z"/>
	<polygon fill="#B9EDDA" points="95.154,119.681 99.37,121.626 198.699,129.482 201.531,127.896 199.09,129.987 195.185,186.132 
		194.178,185.447 198.251,129.987 99.37,122.492 	"/>
	<path fill="#D6C822" d="M101.259,186.488c0,0,32.767-8.047,52.824-10.733c25.158-3.37,36.312-2.631,36.312-2.631l-0.399,10.763
		l-88.612,11.066L101.259,186.488z"/>
	<path fill="#FFFFFF" d="M121.244,146.01c1.061-0.256,1.415-0.513,1.415-0.513s4.422,0.779,6.236,0.496
		c1.813-0.282,3.007-1.521,3.007-1.521s1.371,0.821,2.742,1.009c1.371,0.188,1.946-0.54,1.946-0.54s4.776,1.079,7.076,0.54
		c2.299-0.54,2.343-1.438,2.343-1.438s2.278,0.898,5.13,1.411c2.853,0.513,3.98-0.578,3.98-0.578s3.814,1.075,6.069,1.443
		c2.255,0.369,2.952,0.17,2.952,0.17l11.343,0.247c0,0-0.132-0.513-3.052-1.283c-2.918-0.77-8.159,0.449-8.159,0.449
		s0.644-2.737-1.281-3.1c-1.923-0.364-5.485,1.453-5.485,1.453s3.883-4.597-0.495-5.558c-4.378-0.962-8.66,3.484-8.66,3.484
		s2.839-4.847-1.438-5.537c-3.71-0.599-4.93,4.521-4.93,4.521s-0.531-4.565-4.113-4.372c-3.582,0.192-2.521,6.605-2.521,6.605
		s-4.186-2.739-7.917-2.354c-3.177,0.328-3.36,3.893-3.36,3.893s-3.302-2.216-7.083-2.152c-3.781,0.064-4.659,3.692-4.659,3.692
		l2.322,0.009C114.656,146.49,120.183,146.267,121.244,146.01z"/>
	<path opacity="0.36" fill="#E7D39C" d="M161.189,146.32c-2.255-0.368-6.069-1.443-6.069-1.443s-1.128,1.09-3.98,0.578
		c-2.853-0.513-5.13-1.411-5.13-1.411s-0.044,0.898-2.343,1.438c-2.3,0.539-7.076-0.54-7.076-0.54s-0.575,0.727-1.946,0.54
		c-1.371-0.188-2.742-1.009-2.742-1.009s-1.194,1.239-3.007,1.521c-1.813,0.283-6.236-0.496-6.236-0.496s-0.354,0.256-1.415,0.513
		c-1.062,0.257-6.588,0.48-6.589,0.48l60.83,0.247l-11.343-0.247C164.142,146.49,163.445,146.688,161.189,146.32z"/>
	<path fill="#FFFFFF" d="M134.74,155.603c0.659-0.16,0.878-0.319,0.878-0.319s2.746,0.484,3.871,0.309
		c1.126-0.175,1.867-0.945,1.867-0.945s0.851,0.51,1.702,0.626c0.852,0.116,1.208-0.335,1.208-0.335s2.965,0.669,4.394,0.335
		c1.428-0.335,1.455-0.892,1.455-0.892s1.414,0.557,3.185,0.875c1.771,0.319,2.471-0.357,2.471-0.357s2.368,0.667,3.769,0.896
		c1.4,0.229,1.833,0.105,1.833,0.105l7.042,0.153c0,0-0.083-0.318-1.895-0.797c-1.813-0.477-5.066,0.279-5.066,0.279
		s0.399-1.699-0.795-1.924c-1.194-0.227-3.406,0.902-3.406,0.902s2.411-2.854-0.307-3.451c-2.718-0.597-5.376,2.164-5.376,2.164
		s1.762-3.009-0.893-3.438c-2.303-0.372-3.061,2.807-3.061,2.807s-0.33-2.833-2.553-2.714c-2.225,0.119-1.565,4.101-1.565,4.101
		s-2.599-1.7-4.915-1.461c-1.973,0.205-2.087,2.417-2.087,2.417s-2.049-1.376-4.397-1.337c-2.347,0.04-2.892,2.292-2.892,2.292
		l1.441,0.006C130.65,155.9,134.081,155.762,134.74,155.603z"/>
	<path opacity="0.36" fill="#E7D39C" d="M159.54,155.794c-1.4-0.228-3.769-0.896-3.769-0.896s-0.7,0.677-2.471,0.357
		c-1.771-0.318-3.185-0.875-3.185-0.875s-0.027,0.557-1.455,0.892c-1.428,0.334-4.394-0.335-4.394-0.335s-0.356,0.451-1.208,0.335
		c-0.851-0.117-1.702-0.626-1.702-0.626s-0.741,0.77-1.867,0.945c-1.125,0.176-3.871-0.309-3.871-0.309s-0.22,0.159-0.878,0.319
		c-0.659,0.159-4.09,0.297-4.091,0.297l37.766,0.153l-7.042-0.153C161.372,155.9,160.939,156.023,159.54,155.794z"/>
	<path fill="#9BAE05" d="M101.344,192.305c0,0,34.214-2.643,60.156-7.76c25.942-5.116,28.774-8.072,28.774-8.072l-0.28,7.414
		l-88.612,11.066L101.344,192.305z"/>
	<path fill="#D6C822" d="M168.582,174.275c0,0-4.733-1.478-4.174-2.271s1.714-0.684,1.714-0.684s-3.206-3.568-2.162-4.468
		c1.043-0.901,2.311,0.576,2.311,0.576s-1.342-3.82-0.038-4.252c1.305-0.432,3.094,1.297,3.094,1.297s-0.522-3.316,0.597-3.604
		c1.118-0.288,2.124,2.523,2.124,2.523s1.64-3.027,3.168-2.847c1.528,0.18,1.715,3.892,1.715,3.892s3.019-1.477,4.51-0.685
		c1.491,0.793-0.708,2.848-0.708,2.848s2.312-0.613,3.541-0.217c1.23,0.396-0.447,2.919-0.447,2.919s2.013-0.288,3.094,0.145
		c1.081,0.432,1.006,1.909,1.006,1.909s0.112-0.793,0.895-0.936c0.783-0.145,1.573,2.704,1.573,2.704L168.582,174.275z"/>
	<path fill="#D6C822" d="M116.337,184.595c0,0,3.088-3.342,2.025-3.616c-1.063-0.273-2.08,1.429-2.08,1.429s2.043-4.573,1.245-4.803
		s-2.44,3.341-2.44,3.341s-1.625-2.985-2.57-2.449c-0.946,0.536,1.114,3.214,1.114,3.214s-3.608-0.971-3.907-0.463
		c-0.299,0.51,3.974,3.03,3.974,3.03L116.337,184.595z"/>
	<polygon opacity="0.5" fill="#FFFFFF" points="169.613,129.783 100.921,165.806 101.12,178.349 182.608,130.79 	"/>
	<polygon opacity="0.5" fill="#FFFFFF" points="189.434,131.319 101.203,183.541 101.296,189.454 191.843,134.095 191.939,131.514 	
		"/>
	<polygon opacity="0.5" fill="#FFFFFF" points="192.893,163.953 192.719,168.701 190.509,170.055 162.206,187.36 158.797,189.445 
		147.365,190.898 150.979,188.762 190.688,165.259 	"/>
	<path fill="#443551" d="M192.119,147.302v-0.811H174.5l0.493-16.504l-1.118-0.468l-0.335,16.973h-22.935l-0.562-18.482h-1.877
		l0.855,18.482h-24.122v-20.408h-1.486l-0.048,20.408h-22.839v1.513l22.836-0.175l-0.056,23.882l-22.78,1.374v0.919l22.778-1.458
		l-0.046,19.674l1.641,0.084v-19.86l25.248-1.616l0.88,19.014h0.894l-0.58-19.092l21.747-1.392l-0.332,16.773h0.559l0.502-16.82
		l17.892-1.145l0.229-0.595l-18.101,1.092l0.634-21.227L192.119,147.302z M124.899,171.616v-23.798l24.174-0.186l1.04,22.463
		L124.899,171.616z M173.101,168.709l-21.782,1.313l-0.68-22.402l22.882-0.176L173.101,168.709z"/>
	<path fill="#443551" d="M99.368,122.492l1.158,74.374l46.839-5.967l11.432-1.453l33.322-4.246l0.6-16.499l0.174-4.748l1.234-33.967
		L99.368,122.492z M190.509,170.055l-0.514,13.833l-27.79,3.472l-11.227,1.401l-49.594,6.193l-1.123-70.552l91.678,7.109
		l-1.252,33.747L190.509,170.055z"/>
</g>
<g>
	<g>
		<polygon fill="#FFF9BD" points="381.188,97.338 227.553,120.546 23.367,96.762 23.367,78.6 381.188,78.6 		"/>
		<polygon fill="#E3784E" points="366.676,78.6 224.424,112.329 38.45,78.6 		"/>
		<polygon fill="#F4E67D" points="350.772,78.6 224.424,109.951 224.424,112.329 366.676,78.6 		"/>
		<polygon fill="#F2CE7E" points="224.424,112.329 224.424,109.951 56.167,78.6 38.45,78.6 		"/>
		<polygon opacity="0.2" fill="#590800" points="331.688,78.6 220.367,108.293 66.61,78.6 58.546,78.6 224.424,109.951 
			350.772,78.6 		"/>
		<path opacity="0.08" fill="#CE0000" d="M276.376,78.6c0,0-5.367,7.351-19.084,15.675c-16.709,10.141-42.086,13.934-42.086,13.934
			l1.471,2.715l-8.314,7.387l19.19,2.235l153.635-23.208V78.6H276.376z"/>
	</g>
	<defs>
		<filter id="Adobe_OpacityMaskFilter_6_" filterUnits="userSpaceOnUse" x="85.03" y="87.048" width="115.566" height="29.961">
			<feFlood  style="flood-color:white;flood-opacity:1" result="back"/>
			<feBlend  in="SourceGraphic" in2="back" mode="normal"/>
		</filter>
	</defs>
	<mask maskUnits="userSpaceOnUse" x="85.03" y="87.048" width="115.566" height="29.961" id="SVGID_10_">
		<g filter="url(#Adobe_OpacityMaskFilter_6_)">
			<defs>
				<filter id="Adobe_OpacityMaskFilter_7_" filterUnits="userSpaceOnUse" x="85.03" y="87.048" width="115.566" height="29.961">
					<feFlood  style="flood-color:white;flood-opacity:1" result="back"/>
					<feBlend  in="SourceGraphic" in2="back" mode="normal"/>
				</filter>
			</defs>
			<mask maskUnits="userSpaceOnUse" x="85.03" y="87.048" width="115.566" height="29.961" id="SVGID_10_">
				<g filter="url(#Adobe_OpacityMaskFilter_7_)">
				</g>
			</mask>
			<linearGradient id="SVGID_11_" gradientUnits="userSpaceOnUse" x1="115.8618" y1="64.647" x2="168.8595" y2="137.592">
				<stop  offset="0.2129" style="stop-color:#000000"/>
				<stop  offset="1" style="stop-color:#FFFFFF"/>
			</linearGradient>
			<polygon mask="url(#SVGID_10_)" fill="url(#SVGID_11_)" points="91.75,104.728 85.03,87.048 200.597,108.007 197.188,117.009 			
				"/>
		</g>
	</mask>
	<linearGradient id="SVGID_12_" gradientUnits="userSpaceOnUse" x1="115.8618" y1="64.647" x2="168.8595" y2="137.592">
		<stop  offset="0.2129" style="stop-color:#000000"/>
		<stop  offset="1" style="stop-color:#FFFFFF"/>
	</linearGradient>
	<polygon fill="url(#SVGID_12_)" points="91.75,104.728 85.03,87.048 200.597,108.007 197.188,117.009 	"/>
</g>
<g>
	<g>
		<polygon fill="#9B5729" points="316.996,197.83 316.988,232.979 342.008,239.304 343.052,201.058 		"/>
		<polygon fill="#7C441D" points="318.276,199.05 318.268,231.454 340.727,237.132 340.727,202 		"/>
		<polygon fill="#BC7442" points="318.268,214.909 337.205,213.792 340.727,213.792 340.727,218.981 		"/>
		<polygon fill="#7C441D" points="365.413,199.111 331.728,196.877 316.996,197.83 343.052,201.058 342.008,239.304 
			362.774,232.762 		"/>
		<polygon fill="#5B1800" points="343.052,201.058 365.413,199.111 362.774,232.762 342.008,239.304 		"/>
		<polygon fill="#9B5729" points="340.727,218.981 317.45,214.761 317.45,215.507 340.727,221.561 		"/>
		<polygon fill="#BC7442" points="318.268,231.454 337.205,230.133 340.727,230.501 340.727,237.132 		"/>
		<polygon opacity="0.24" fill="#590800" points="318.276,199.05 337.711,206.805 338.178,213.792 340.727,213.792 340.727,202 		
			"/>
		<polygon opacity="0.24" fill="#590800" points="318.535,215.788 340.727,221.561 340.727,230.501 337.205,230.133 
			336.643,223.512 		"/>
		<polygon fill="#590800" points="362.214,232.938 361.836,235.139 359.196,235.896 358.712,234.743 343.53,239.888 
			342.485,241.127 340.077,241.127 339.214,239.304 320.535,235.317 319.518,236.308 317.678,235.861 317.45,233.096 
			342.008,239.304 		"/>
	</g>
	<g>
		<path fill="#FFFDF0" d="M348.226,186.354l-3.1,13.102c0,0-3.167,0.441-6.295,0.088l-0.039-0.009
			c-0.542-0.062-1.081-0.145-1.604-0.264l-0.005-0.001c-0.351-0.08-0.695-0.173-1.025-0.281l-1.324-12.893l10.397,0.199
			c0.005,0.001,0.005,0.001,0.005,0.001L348.226,186.354z"/>
		<path opacity="0.1" fill="#440200" d="M345.231,186.295c-0.147,0.067-3.271,1.492-4.96,4.469c-1.732,3.046-1.44,8.779-1.44,8.779
			l-0.039-0.009l-1.604-0.264l-0.005-0.001c-0.351-0.08-0.695-0.173-1.025-0.281l-1.324-12.893L345.231,186.295z"/>
		<path fill="#7C441D" d="M334.851,186.26c0,0,2.586,0.768,6.852,0.849c3.745,0.07,6.464-0.505,6.464-0.505L334.851,186.26z"/>
		<path fill="#668D12" d="M347.112,186.539l1.268-8.236l-1.54,3.862l0.413-6.427l-0.896,4.391l0.154-3.545l-2.119,5.514l0.452-4.03
			l-2.082,5.191v-7.993l-1.238,5.417l-0.66-4.89l-0.881,6.931l-1.126-8.846l-0.45,7.266l-2.265-6.381l1.083,10.145l-2.667-6.043
			l1.286,7.421c0,0,2.636,0.51,5.612,0.589C344.435,186.953,347.112,186.539,347.112,186.539z"/>
		<polygon fill="#9BAE05" points="336.681,186.331 334.352,174.017 337.99,186.693 		"/>
		<polygon fill="#9BAE05" points="338.848,186.723 340.248,175.927 339.809,186.857 		"/>
		<polygon fill="#9BAE05" points="336.329,186.414 334.028,179.896 335.75,186.354 		"/>
		<polygon fill="#9BAE05" points="340.961,186.9 344.828,176.208 342.493,186.982 		"/>
		<polygon fill="#9BAE05" points="344.188,186.834 348.2,176.562 346.211,186.691 		"/>
		<polygon fill="#9BAE05" points="346.545,186.623 348.213,179.79 347.259,186.615 		"/>
		<polygon fill="#9BAE05" points="342.908,186.892 345.977,176.002 344.18,186.889 		"/>
	</g>
</g>
</svg>
