<?xml version="1.0" encoding="utf-8"?>
<!-- Generator: Adobe Illustrator 16.0.0, SVG Export Plug-In . SVG Version: 6.00 Build 0)  -->
<!DOCTYPE svg PUBLIC "-//W3C//DTD SVG 1.1//EN" "http://www.w3.org/Graphics/SVG/1.1/DTD/svg11.dtd">
<svg version="1.1" id="Capa_1" xmlns="http://www.w3.org/2000/svg" xmlns:xlink="http://www.w3.org/1999/xlink" x="0px" y="0px"
	 width="400px" height="400px" viewBox="0 0 400 400" enable-background="new 0 0 400 400" xml:space="preserve">
<g>
	<g>
		<g>
			<g>
				<path fill="#FFF37E" d="M157.445,230.511c0.742,3.276,2.017,10.626-1.146,11.875c-2.786,1.101-6.216-3.135-8.126-5.954
					c-3.752,2.16-8.093,4.295-11.903,5.201c0,0-19.973,48.729-18.528,68.925c0.435,6.03,41.27,22.13,70.22,5.598
					C190.973,314.438,182.805,258.11,157.445,230.511z"/>
				<path fill="#832F0A" d="M158.183,324.047c-0.002,0-0.002,0-0.002,0c-20.292,0-40.728-8.504-41.084-13.44
					c-1.438-20.117,17.755-67.223,18.572-69.218c0.08-0.192,0.245-0.336,0.45-0.386c3.188-0.756,7.135-2.483,11.731-5.13
					c0.293-0.166,0.666-0.085,0.855,0.197c2.891,4.256,5.594,6.404,7.357,5.715c2.215-0.877,1.84-6.324,0.751-11.13
					c-0.064-0.285,0.071-0.58,0.331-0.716c0.259-0.136,0.578-0.081,0.775,0.136c23.699,25.789,32.558,75.978,31.148,85.029
					c-0.138,0.884-0.38,1.382-0.787,1.614C179.766,321.58,169.637,324.047,158.183,324.047z M136.743,242.183
					c-1.68,4.156-19.714,49.342-18.357,68.33c0.241,3.354,18.556,12.239,39.795,12.243c11.227,0,21.139-2.411,29.46-7.16
					c2.313-2.895-5.241-55.047-29.096-82.873c0.686,4.049,0.896,9.116-2.008,10.263c-0.377,0.15-0.774,0.224-1.186,0.224
					c-2.622,0.002-5.401-3.109-7.373-5.921C143.645,239.745,139.869,241.391,136.743,242.183z"/>
			</g>
			<g>
				<g>
					<path fill="#78ABDC" d="M186.344,297.851c-0.37-1.975-0.801-4.06-1.288-6.229c-25.244,10.078-52.129,1.436-63.595-4.537
						c-0.543,2.166-1.038,4.299-1.477,6.379C130.032,298.58,158.127,310.18,186.344,297.851z"/>
				</g>
			</g>
			<g>
				<path fill="#78ABDC" d="M119.194,298.225l-0.323,3.069c0,0,10.485,9.534,33.438,10.017c23.102,0.484,35.218-5.653,35.218-5.653
					l-0.807-3.231c0,0-18.254,7.269-36.51,5.332C131.957,305.818,119.194,298.225,119.194,298.225z"/>
			</g>
			<g>
				<path fill="#FEDBC5" d="M156.299,242.386c3.163-1.249,1.889-8.599,1.146-11.875c-0.024-0.023-0.047-0.052-0.072-0.077
					c0,0-4.042,3.028-9.2,5.998C150.083,239.251,153.513,243.486,156.299,242.386z"/>
				<path fill="#832F0A" d="M155.352,243.209L155.352,243.209c-2.777,0-5.728-3.486-7.716-6.415
					c-0.101-0.147-0.135-0.331-0.094-0.506s0.152-0.326,0.309-0.415c5.063-2.915,9.097-5.926,9.137-5.957
					c0.251-0.188,0.603-0.168,0.831,0.048c0.085,0.085,0.229,0.286,0.257,0.406c0.933,4.114,1.973,11.229-1.538,12.615
					C156.16,243.136,155.763,243.209,155.352,243.209z M149.1,236.64c2.382,3.363,4.642,5.277,6.252,5.277l0,0
					c0.251,0,0.484-0.042,0.712-0.132c2.085-0.824,1.875-5.7,0.935-10.277C155.654,232.47,152.667,234.55,149.1,236.64z"/>
			</g>
		</g>
		<g>
			<g>
				<g>
					<g>
						<path fill="#CD8C2A" d="M115.974,235.664c0,0-5.532-18.078,5.254-16.974s4.03,9.626-1.441,17.501
							C116.543,240.856,115.974,235.664,115.974,235.664z"/>
						<path fill="#832F0A" d="M117.478,238.782c-1.763,0-2.112-2.736-2.145-3.05c-0.113-0.326-3.272-10.83,0.192-15.515
							c1.258-1.694,3.139-2.438,5.767-2.168c3.223,0.331,5.167,1.319,5.948,3.026c1.551,3.397-2.06,8.544-5.884,13.995l-1.042,1.488
							C119.262,238.075,118.359,238.782,117.478,238.782z M120.309,219.291c-1.671,0-2.896,0.553-3.743,1.695
							c-3.079,4.162-0.007,14.386,0.024,14.488c0.112,0.891,0.491,2.016,0.888,2.016c0.104,0,0.673-0.081,1.779-1.668l1.043-1.493
							c3.446-4.912,7.011-9.993,5.765-12.716c-0.563-1.236-2.215-2.003-4.902-2.277C120.865,219.304,120.58,219.291,120.309,219.291
							z"/>
					</g>
					<g>
						<path fill="#CD8C2A" d="M109.029,246.288c0,0-5.534-18.079,5.25-16.974c10.787,1.103,4.032,9.626-1.439,17.5
							C109.593,251.482,109.029,246.288,109.029,246.288z"/>
						<path fill="#832F0A" d="M110.529,249.406c-1.761,0-2.109-2.736-2.146-3.05c-0.109-0.326-3.268-10.831,0.195-15.515
							c1.256-1.694,3.132-2.438,5.764-2.169c3.224,0.328,5.17,1.32,5.949,3.025c1.554,3.397-2.056,8.545-5.88,13.993l-1.042,1.492
							C112.315,248.702,111.412,249.406,110.529,249.406z M113.359,229.915c-1.674,0-2.896,0.553-3.74,1.694
							c-3.079,4.16-0.005,14.387,0.026,14.488c0.111,0.894,0.489,2.019,0.884,2.019c0.105,0,0.676-0.083,1.779-1.672l1.045-1.493
							c3.445-4.914,7.009-9.992,5.762-12.716c-0.563-1.236-2.215-2.001-4.903-2.276
							C113.914,229.928,113.632,229.915,113.359,229.915z"/>
					</g>
					<g>
						<path fill="#CD8C2A" d="M103.793,261.127c0,0-5.531-18.083,5.25-16.976c10.787,1.104,4.034,9.626-1.438,17.5
							C104.358,266.318,103.793,261.127,103.793,261.127z"/>
						<path fill="#832F0A" d="M105.295,264.243c-1.761,0-2.109-2.733-2.143-3.047c-0.113-0.324-3.271-10.835,0.193-15.518
							c1.255-1.696,3.134-2.435,5.763-2.17c3.224,0.33,5.171,1.319,5.948,3.027c1.555,3.397-2.057,8.546-5.88,13.995l-1.042,1.49
							C107.08,263.539,106.177,264.243,105.295,264.243z M108.125,244.75c-1.672,0-2.896,0.554-3.74,1.694
							c-3.083,4.167-0.006,14.392,0.025,14.493c0.111,0.892,0.488,2.015,0.885,2.015c0.102,0,0.675-0.081,1.778-1.668l1.046-1.493
							c3.445-4.914,7.011-9.993,5.764-12.717c-0.565-1.238-2.217-2.005-4.906-2.279C108.679,244.765,108.396,244.75,108.125,244.75z
							"/>
					</g>
				</g>
				<g>
					<g>
						<path fill="#CD8C2A" d="M105.781,261.753c0,0,3.502,17.498,5.872,24.045l-6.346-2.474c0,0-1.408-7.372-1.341-12.891
							c0.07-5.512-3.127,9.358-2.597,11.023c0.53,1.662-5.251-1.189-5.251-1.189C92.683,278.201,105.781,261.753,105.781,261.753
							L105.781,261.753z"/>
					</g>
					<g>
						<path fill="#832F0A" d="M111.653,286.443c-0.079,0-0.157-0.015-0.232-0.043l-6.352-2.473
							c-0.207-0.082-0.357-0.264-0.396-0.481c-0.053-0.27-1.126-5.932-1.323-11.057c-0.761,3.206-1.591,8.131-1.363,8.871
							c0.147,0.459,0.02,0.767-0.111,0.949c-0.202,0.274-0.531,0.414-0.97,0.414c-1.429,0-4.702-1.593-5.071-1.772
							c-0.498-0.298-0.789-0.743-0.891-1.315c-0.747-4.129,9.198-16.758,10.333-18.188c0.159-0.191,0.415-0.281,0.661-0.224
							c0.245,0.061,0.429,0.256,0.48,0.501c0.035,0.176,3.516,17.529,5.845,23.954c0.089,0.234,0.023,0.504-0.155,0.679
							C111.981,286.381,111.82,286.443,111.653,286.443L111.653,286.443z M105.878,282.85l4.719,1.843
							c-1.944-6.046-4.355-17.479-5.167-21.443c-4.236,5.472-9.669,13.54-9.215,16.06c0.045,0.262,0.154,0.355,0.238,0.406
							c1.151,0.564,3.266,1.475,4.242,1.602c-0.209-2.361,1.653-11.299,2.454-12.389c0.226-0.306,0.881-0.416,1.148-0.146
							c0.254,0.256,0.329,0.658,0.315,1.661C104.555,275.154,105.606,281.33,105.878,282.85L105.878,282.85z"/>
					</g>
				</g>
				<g>
					<polygon fill="#009ADA" points="105.328,261.858 94.358,253.534 94.666,268.142 105.145,263.015 116.512,269.661 
						117.063,254.489 					"/>
					<path fill="#832F0A" d="M116.512,270.306c-0.111,0-0.223-0.028-0.324-0.086l-11.069-6.472l-10.169,4.976
						c-0.196,0.095-0.432,0.085-0.619-0.029c-0.188-0.115-0.306-0.317-0.309-0.539l-0.311-14.608
						c-0.005-0.246,0.131-0.476,0.353-0.588c0.224-0.116,0.486-0.09,0.685,0.06l10.614,8.057l11.355-7.135
						c0.204-0.128,0.462-0.131,0.667-0.012c0.208,0.119,0.332,0.344,0.322,0.581l-0.549,15.174
						c-0.008,0.228-0.134,0.435-0.336,0.544C116.727,270.279,116.62,270.306,116.512,270.306z M105.508,262.48l10.397,6.076
						l0.467-12.872l-10.702,6.723C105.619,262.438,105.565,262.462,105.508,262.48z M95.031,254.857l0.259,12.259l9.572-4.683
						c0.032-0.016,0.067-0.029,0.102-0.038c-0.008-0.007-0.017-0.015-0.026-0.024L95.031,254.857z"/>
				</g>
			</g>
			<g>
				<g>
					<g>
						<path fill="#CD8C2A" d="M72.086,237.233c0,0-13.801-16.51-2.005-20.124c11.802-3.616,8.489,8.311,6.235,18.991
							C74.98,242.432,72.086,237.233,72.086,237.233z"/>
						<path fill="#832F0A" d="M74.371,239.887c-1.473,0-2.635-1.947-2.85-2.34c-0.281-0.317-8.469-10.21-6.569-16.608
							c0.636-2.142,2.299-3.638,4.94-4.446c3.831-1.175,6.457-0.834,7.928,0.987c2.503,3.1,1.074,9.718-0.438,16.728l-0.434,2.027
							C76.757,237.137,76.178,239.887,74.371,239.887z M73.823,217.095c-0.987,0-2.184,0.214-3.552,0.632
							c-2.234,0.685-3.568,1.856-4.081,3.579c-1.705,5.743,6.31,15.417,6.39,15.515c0.449,0.774,1.257,1.775,1.791,1.775
							c0.366,0,0.904-0.691,1.313-2.629l0.437-2.033c1.379-6.403,2.81-13.024,0.694-15.642
							C76.166,217.485,75.187,217.095,73.823,217.095z"/>
					</g>
					<g>
						<path fill="#CD8C2A" d="M69.501,251.449c0,0-13.803-16.51-2.004-20.124c11.802-3.618,8.49,8.309,6.235,18.991
							C72.395,256.646,69.501,251.449,69.501,251.449z"/>
						<path fill="#832F0A" d="M71.786,254.104c-1.471,0-2.631-1.95-2.85-2.342c-0.28-0.316-8.468-10.21-6.568-16.609
							c0.635-2.142,2.296-3.637,4.939-4.446c3.833-1.174,6.457-0.834,7.928,0.988c2.503,3.098,1.074,9.718-0.438,16.725
							l-0.436,2.031C74.171,251.354,73.594,254.104,71.786,254.104z M71.24,231.311c-0.99,0-2.187,0.212-3.554,0.632
							c-2.233,0.685-3.567,1.854-4.08,3.577c-1.704,5.736,6.311,15.418,6.392,15.515c0.445,0.776,1.254,1.776,1.788,1.776
							c0.367,0,0.904-0.688,1.313-2.628l0.436-2.036c1.383-6.402,2.808-13.023,0.695-15.641
							C73.579,231.7,72.602,231.311,71.24,231.311z"/>
					</g>
					<g>
						<path fill="#CD8C2A" d="M70.579,269.326c0,0-13.805-16.508-2.005-20.123c11.801-3.616,8.489,8.31,6.235,18.99
							C73.473,274.524,70.579,269.326,70.579,269.326z"/>
						<path fill="#832F0A" d="M72.864,271.979c-1.472,0-2.635-1.946-2.851-2.338c-0.28-0.317-8.468-10.212-6.568-16.609
							c0.635-2.143,2.297-3.638,4.94-4.446c3.826-1.173,6.455-0.834,7.928,0.987c2.503,3.1,1.074,9.72-0.439,16.73l-0.434,2.023
							C75.25,269.229,74.672,271.979,72.864,271.979z M72.317,249.188c-0.99,0-2.186,0.214-3.552,0.632
							c-2.234,0.686-3.569,1.854-4.082,3.579c-1.703,5.735,6.31,15.416,6.391,15.515c0.448,0.773,1.256,1.773,1.79,1.773
							c0.366,0,0.903-0.689,1.313-2.629l0.434-2.027c1.381-6.404,2.811-13.027,0.696-15.646
							C74.657,249.58,73.68,249.188,72.317,249.188z"/>
					</g>
				</g>
				<g>
					<g>
						<path fill="#CD8C2A" d="M73.805,271.142c0,0,11.412,16.8,16.798,22.613l-7.754,0.216c0,0-4.737-7.105-7.108-12.921
							c-2.368-5.816,0.864,11.196,2.155,12.705c1.292,1.511-6.03,1.077-6.03,1.077C67.341,294.187,73.805,271.142,73.805,271.142
							L73.805,271.142z"/>
					</g>
					<g>
						<path fill="#832F0A" d="M74.004,295.537c-1.192,0-2.175-0.059-2.175-0.059c-0.623-0.089-1.101-0.411-1.452-0.94
							c-2.586-3.971,2.244-21.579,2.805-23.572c0.067-0.244,0.269-0.424,0.518-0.463c0.242-0.038,0.498,0.064,0.639,0.273
							c0.115,0.169,11.449,16.828,16.738,22.54c0.172,0.186,0.223,0.457,0.123,0.688c-0.099,0.235-0.325,0.39-0.577,0.396
							l-7.754,0.218c-0.208,0-0.435-0.103-0.555-0.286c-0.046-0.065-4.077-6.135-6.563-11.63c0.559,3.68,2.008,9.903,2.635,10.634
							c0.439,0.512,0.304,0.97,0.222,1.141C78.356,295.027,77.623,295.537,74.004,295.537L74.004,295.537z M71.954,294.19
							c0.034,0,0.954,0.057,2.05,0.057c2.027,0,2.9-0.175,3.256-0.286c-1.248-2.188-3.479-13.041-2.888-14.318
							c0.106-0.229,0.418-0.445,0.67-0.445c0.548,0,0.855,0.518,1.301,1.608c2.042,5.025,5.936,11.109,6.848,12.511l6.002-0.166
							c-4.762-5.509-12.614-16.821-15.133-20.492c-1.596,6.024-4.371,18.45-2.597,21.172
							C71.651,294.118,71.834,294.174,71.954,294.19L71.954,294.19L71.954,294.19z"/>
					</g>
				</g>
				<g>
					<polygon fill="#009ADA" points="72.512,269.419 57.326,265.542 64.111,280.727 72.834,270.711 87.697,272.649 81.558,256.496 
											"/>
					<path fill="#832F0A" d="M64.111,281.372c-0.031,0-0.062-0.003-0.095-0.007c-0.216-0.032-0.403-0.174-0.493-0.377l-6.786-15.183
						c-0.102-0.226-0.064-0.491,0.096-0.681c0.159-0.189,0.412-0.272,0.653-0.211l14.752,3.767l8.791-12.555
						c0.136-0.199,0.369-0.301,0.607-0.273c0.239,0.03,0.44,0.187,0.525,0.413l6.075,15.983c0.085,0.111,0.138,0.249,0.138,0.4
						c0,0.359-0.341,0.664-0.663,0.646c-0.031,0.004-0.065,0-0.099-0.007l-14.519-1.892l-8.496,9.754
						C64.476,281.293,64.298,281.372,64.111,281.372z M58.461,266.499l5.83,13.041l8.057-9.254c0.143-0.163,0.357-0.251,0.572-0.216
						l13.788,1.799l-5.32-14.004l-8.347,11.924c-0.154,0.22-0.43,0.321-0.688,0.255L58.461,266.499z"/>
				</g>
			</g>
			<g>
				<path fill="#CD8C2A" d="M122.264,130.925c-0.857-7.325-1.074-5.386,4.094-1.295c2.113,1.673,22.313,19.611,41.604,21.622
					c-11.059-16.461-30.042-27.33-51.618-27.33c-34.141,0-61.817,27.193-61.817,60.739c0,13.768,4.668,26.456,12.522,36.645
					C86.598,213.77,129.267,190.477,122.264,130.925z"/>
				<path fill="#832F0A" d="M67.047,221.953c-0.195,0-0.387-0.09-0.511-0.251c-8.279-10.741-12.656-23.546-12.656-37.041
					c0-33.847,28.021-61.386,62.463-61.386c20.987,0,40.436,10.27,52.062,27.481c0.145,0.118,0.234,0.295,0.234,0.495
					c0,0.363-0.313,0.668-0.661,0.646c-0.031-0.001-0.057-0.001-0.083-0.001c-8.25-0.862-22.094-5.23-41.209-21.159
					c-0.332-0.276-0.577-0.482-0.73-0.6c-1.293-1.027-2.253-1.916-2.951-2.564c-0.183-0.171-0.37-0.344-0.539-0.495
					c0.045,0.515,0.133,1.238,0.232,2.025l0.209,1.744c7.067,60.11-36.546,83.706-55.626,91.061
					C67.203,221.939,67.126,221.953,67.047,221.953z M116.343,124.569c-33.729,0-61.17,26.958-61.17,60.092
					c0,13.045,4.18,25.437,12.093,35.868c19.025-7.442,61.264-30.79,54.357-89.529l-0.209-1.74
					c-0.312-2.522-0.396-3.201-0.005-3.642c0.123-0.138,0.419-0.272,0.603-0.272c0.491,0,0.895,0.374,1.871,1.281
					c0.684,0.634,1.618,1.501,2.875,2.496c0.158,0.125,0.412,0.338,0.756,0.623c17.803,14.834,30.897,19.501,39.098,20.688
					C155.153,134.21,136.471,124.569,116.343,124.569z"/>
			</g>
			<g>
				<path fill="#FEDBC5" d="M167.961,151.251c-19.29-2.01-39.7-19.715-41.604-21.622c-2.154-2.155-5.598-6.03-4.738,1.295
					c7,59.552-35.021,82.845-54.572,90.381c11.287,14.638,29.164,24.097,49.295,24.097c34.14,0,61.814-27.195,61.814-60.741
					C178.157,172.314,174.402,160.838,167.961,151.251z"/>
				<path fill="#832F0A" d="M116.343,246.049c-19.721,0-37.876-8.875-49.807-24.347c-0.126-0.16-0.165-0.374-0.111-0.57
					c0.055-0.196,0.202-0.354,0.39-0.427c18.612-7.176,61.148-30.281,54.162-89.705c-0.285-2.438-0.139-3.83,0.472-4.518
					c0.272-0.308,0.636-0.469,1.046-0.469c1.109,0,2.331,1.15,3.937,2.772l0.384,0.387c0.193,0.192,21.099,19.34,41.214,21.436
					c0.19,0.02,0.361,0.125,0.468,0.282c6.744,10.034,10.309,21.712,10.309,33.77C178.805,218.512,150.784,246.049,116.343,246.049z
					 M68.091,221.593c11.688,14.733,29.226,23.162,48.252,23.162c33.728,0,61.169-26.958,61.169-60.094
					c0-11.701-3.43-23.036-9.922-32.799c-18.559-2.092-38.51-18.592-41.689-21.775l-0.389-0.391
					c-0.885-0.895-2.363-2.392-3.018-2.392c-0.197,0.168-0.555,0.809-0.233,3.543C129.253,190.326,87.377,213.96,68.091,221.593z"/>
			</g>
		</g>
		<g>
			<path fill="#832F0A" d="M174.392,389.605c-0.145,0-0.287-0.023-0.43-0.074c-0.673-0.237-1.03-0.975-0.792-1.647
				c10.708-30.439-0.325-64.734-0.438-65.076c-0.223-0.678,0.144-1.407,0.822-1.63c0.677-0.229,1.408,0.144,1.635,0.822
				c0.111,0.35,11.426,35.456,0.42,66.742C175.422,389.273,174.922,389.605,174.392,389.605L174.392,389.605z"/>
		</g>
		<g>
			<path fill="#832F0A" d="M153.049,358.824c-7.687,0-22.606-7.4-24.473-8.342c-0.639-0.323-0.893-1.1-0.573-1.735
				c0.325-0.638,1.096-0.894,1.738-0.572c7.516,3.79,20.929,9.289,24.888,7.861c0.486-0.177,0.637-0.403,0.701-0.556
				c6.729-15.138,9.571-32.043,9.601-32.21c0.116-0.705,0.76-1.192,1.485-1.063c0.704,0.116,1.18,0.781,1.063,1.485
				c-0.027,0.173-2.926,17.402-9.786,32.837c-0.397,0.898-1.157,1.569-2.196,1.938C154.809,358.712,153.981,358.824,153.049,358.824
				L153.049,358.824z"/>
		</g>
		<g>
			<path fill="#FBB36A" d="M172.02,389.607c-2.868-0.847,4.522-0.217,8.4-2.156s10.769-11.628,18.094-8.398
				C205.836,382.282,194.635,396.286,172.02,389.607z"/>
			<path fill="#832F0A" d="M183.543,392.036c-3.702,0-7.641-0.607-11.705-1.81c-0.466-0.139-1.17-0.345-1.107-0.989
				c0.066-0.675,0.609-0.726,2.414-0.895c1.866-0.177,4.988-0.471,6.986-1.468c1.006-0.504,2.279-1.608,3.752-2.89
				c3.196-2.778,7.174-6.233,11.566-6.233c1.14,0,2.258,0.239,3.324,0.708c1.999,0.882,2.938,2.608,2.515,4.618
				C200.359,387.482,193.468,392.036,183.543,392.036z M174.22,389.535c3.231,0.803,6.358,1.209,9.323,1.209
				c10.102,0,15.806-4.733,16.479-7.932c0.304-1.43-0.31-2.524-1.771-3.169c-0.898-0.397-1.845-0.6-2.802-0.6
				c-3.91,0-7.687,3.28-10.721,5.917c-1.536,1.337-2.866,2.494-4.02,3.07C178.812,388.979,176.23,389.332,174.22,389.535z"/>
		</g>
		<g>
			<path fill="#FBB36A" d="M134.217,378.836c0,0-0.968-30.855-6.944-31.501c-5.979-0.646-4.363,14.054-2.909,23.747
				C125.818,380.775,134.702,386.911,134.217,378.836z"/>
			<path fill="#832F0A" d="M132.317,383.218L132.317,383.218c-3.074,0-7.594-5.371-8.593-12.041
				c-1.241-8.274-2.532-19.691,0.567-23.293c0.793-0.919,1.805-1.328,3.05-1.19c6.221,0.671,7.357,26.875,7.521,32.124
				c0.104,1.712-0.195,2.967-0.888,3.7C133.543,382.977,132.973,383.218,132.317,383.218z M126.899,347.961
				c-0.652,0-1.183,0.25-1.627,0.767c-3.074,3.567-0.965,17.634-0.271,22.259c0.938,6.241,5.084,10.939,7.315,10.939l0,0
				c0.298,0,0.53-0.096,0.718-0.292c0.426-0.455,0.619-1.435,0.539-2.759c-0.369-11.73-2.424-30.472-6.371-30.897
				C127.1,347.966,126.996,347.961,126.899,347.961z"/>
		</g>
		<g>
			<path fill="#572800" d="M127.768,191.843c1.007,3.646-0.157,7.147-2.6,7.823c-2.445,0.674-5.241-1.737-6.247-5.385
				c-1.007-3.65,0.157-7.152,2.603-7.828C123.966,185.782,126.762,188.193,127.768,191.843z"/>
		</g>
		<g>
			<path fill="#832F0A" d="M157.373,181.753c-0.008,0-0.021,0-0.034,0c-0.301-0.017-0.555-0.242-0.603-0.544
				c-0.943-5.984-0.145-10.758,2.375-14.189c2.912-3.965,7.043-4.617,7.213-4.644c0.353-0.054,0.682,0.192,0.734,0.544
				c0.054,0.351-0.189,0.681-0.542,0.733c-0.038,0.007-3.796,0.618-6.38,4.152c-1.96,2.684-2.769,6.313-2.41,10.813
				c1.525-2.86,5.06-7.116,12.092-5.244c0.343,0.094,0.551,0.448,0.461,0.792c-0.096,0.344-0.446,0.542-0.793,0.458
				c-8.928-2.375-11.388,6.283-11.486,6.65C157.922,181.558,157.666,181.753,157.373,181.753L157.373,181.753z"/>
		</g>
		<g>
			<g>
				<path fill="#832F0A" d="M145.276,221.279c-8.159,0-15.081-2.786-15.501-2.955c-0.334-0.138-0.489-0.514-0.354-0.845
					c0.134-0.331,0.514-0.484,0.845-0.354c0.141,0.059,14.63,5.87,26.075,0.658c5.551-2.532,9.533-7.259,11.837-14.052
					c0.114-0.337,0.482-0.517,0.816-0.404c0.337,0.114,0.521,0.48,0.407,0.818c-2.421,7.145-6.635,12.127-12.528,14.814
					C153.092,220.683,149.053,221.279,145.276,221.279L145.276,221.279z"/>
			</g>
			<g>
				<path fill="#832F0A" d="M127.869,221.388c-0.147,0-0.291-0.047-0.41-0.146c-0.277-0.226-0.319-0.634-0.091-0.908
					c3.667-4.485,3.73-8.813,3.73-8.854c0-0.357,0.287-0.646,0.646-0.646l0,0c0.356,0,0.645,0.288,0.645,0.646
					c0,0.193-0.044,4.813-4.023,9.67C128.239,221.306,128.055,221.388,127.869,221.388L127.869,221.388z"/>
			</g>
			<g>
				<path fill="#E03526" d="M136.479,219.449c0,0-1.72,10.552,4.954,11.199c6.677,0.646,6.248-9.907,6.248-9.907
					S142.512,221.174,136.479,219.449z"/>
				<path fill="#832F0A" d="M142.011,231.323c-0.206,0-0.419-0.01-0.639-0.032c-1.645-0.158-2.968-0.875-3.933-2.127
					c-2.609-3.389-1.64-9.56-1.599-9.818c0.032-0.183,0.136-0.343,0.293-0.442c0.157-0.099,0.345-0.126,0.524-0.073
					c4.003,1.143,7.641,1.313,9.453,1.313c0.947,0,1.502-0.046,1.518-0.046c0.171-0.02,0.35,0.043,0.481,0.161
					c0.132,0.116,0.21,0.281,0.218,0.458c0.008,0.249,0.217,6.138-2.563,9.032C144.763,230.793,143.5,231.323,142.011,231.323z
					 M137.031,220.271c-0.166,1.655-0.358,5.781,1.434,8.106c0.748,0.971,1.739,1.503,3.031,1.628
					c1.394,0.132,2.464-0.244,3.338-1.151c1.902-1.982,2.175-5.886,2.202-7.434c-0.249,0.009-0.561,0.017-0.925,0.017
					C144.34,221.437,140.895,221.277,137.031,220.271z"/>
			</g>
			<g>
				<path fill="#832F0A" d="M141.434,231.294c-0.11,0-0.223-0.027-0.324-0.089c-0.308-0.177-0.414-0.576-0.233-0.881
					c2.8-4.803,0.233-9.659,0.208-9.706c-0.17-0.313-0.057-0.708,0.258-0.879c0.312-0.163,0.705-0.051,0.879,0.263
					c0.119,0.225,2.932,5.551-0.23,10.973C141.872,231.181,141.657,231.294,141.434,231.294L141.434,231.294z"/>
			</g>
		</g>
		<g>
			<path fill="#832F0A" d="M124.848,171.416c-0.045,0-0.094-0.004-0.144-0.018c-0.346-0.078-0.563-0.426-0.482-0.773
				c5.908-25.748-3.083-43.535-3.177-43.71c-0.138-0.268-0.074-0.593,0.154-0.789c0.228-0.193,0.557-0.209,0.799-0.033
				c0.2,0.145,19.865,14.68,21.159,39.258c0.02,0.357-0.256,0.662-0.608,0.68c-0.335,0.071-0.662-0.254-0.684-0.611
				c-1.011-19.249-13.601-32.197-18.599-36.608c2.264,5.844,6.941,21.5,2.215,42.103
				C125.412,171.214,125.146,171.416,124.848,171.416L124.848,171.416z"/>
		</g>
		<g>
			<g>
				<path fill="#FFF37E" d="M130.663,300.003c-11.462-32.351,17.51-63.571,17.51-63.571c-3.752,2.16-8.093,4.295-11.903,5.201
					c0,0-19.973,48.729-18.528,68.925c0.374,5.182,30.587,17.784,57.452,10.734l-0.267-0.288
					C174.927,321.004,139.711,325.526,130.663,300.003z"/>
			</g>
		</g>
		<g opacity="0.5">
			<g>
				<path fill="#FEDBC5" d="M88.553,209.862c-7.9,5.557-15.695,9.206-21.505,11.443c11.287,14.638,29.164,24.097,49.295,24.097
					c10.409,0,20.214-2.538,28.819-7.004l-0.283-0.429C105.817,245.64,92.717,222.387,88.553,209.862z"/>
			</g>
		</g>
	</g>
	<g>
		<g>
			<path fill="#832F0A" d="M273.037,382.928c-0.324,0-0.65-0.122-0.898-0.367c-24.87-24.225-25.166-67.052-25.166-67.481
				c0-0.716,0.58-1.292,1.295-1.292c0.712,0,1.289,0.576,1.289,1.292c0,0.422,0.306,42.175,24.382,65.632
				c0.514,0.496,0.524,1.313,0.025,1.825C273.708,382.793,273.374,382.928,273.037,382.928L273.037,382.928z"/>
		</g>
		<g>
			<path fill="#832F0A" d="M298.455,366.559c-0.332,0-0.668-0.13-0.92-0.388c-25.171-25.598-33.219-61.445-33.295-61.802
				c-0.152-0.696,0.288-1.387,0.986-1.537c0.706-0.146,1.385,0.289,1.536,0.986c0.079,0.351,7.979,35.486,32.615,60.542
				c0.5,0.511,0.494,1.326-0.017,1.828C299.109,366.434,298.785,366.559,298.455,366.559L298.455,366.559z"/>
		</g>
		<g>
			<path fill="#009ADA" d="M274.113,381.849c0,0-24.765-9.905-28.645-0.429C241.594,390.895,268.727,386.803,274.113,381.849z"/>
			<path fill="#832F0A" d="M253.862,387.776c-0.003,0-0.003,0-0.003,0c-3.197-0.002-7.328-0.474-8.836-2.723
				c-0.719-1.068-0.77-2.372-0.15-3.879c1.223-2.989,4.377-4.504,9.376-4.504c8.558,0,19.636,4.39,20.104,4.579
				c0.205,0.082,0.354,0.262,0.396,0.481c0.04,0.221-0.036,0.442-0.195,0.592C271.449,385.178,261.588,387.776,253.862,387.776z
				 M254.249,377.962c-4.422,0-7.175,1.246-8.181,3.701c-0.45,1.102-0.441,1.973,0.025,2.67c0.932,1.386,3.689,2.149,7.766,2.149
				h0.003c6.702,0,15.327-2.076,18.938-4.439C269.789,380.939,261.048,377.962,254.249,377.962z"/>
		</g>
		<g>
			<path fill="#009ADA" d="M299.102,364.619c0,0-24.771-0.646-20.676,8.615C282.514,382.495,298.887,374.743,299.102,364.619z"/>
			<path fill="#832F0A" d="M285.053,378.023c0,0,0,0-0.002,0c-3.363,0-5.927-1.608-7.218-4.527c-0.737-1.67-0.681-3.178,0.168-4.481
				c2.969-4.56,15.037-5.052,20.087-5.052c0.654,0,1.031,0.008,1.031,0.008c0.354,0.01,0.636,0.306,0.629,0.66
				C299.594,371.845,291.537,378.023,285.053,378.023z M298.088,365.254c-7.781,0-16.858,1.175-19.004,4.465
				c-0.604,0.928-0.626,1.993-0.067,3.253c1.371,3.107,4.037,3.762,6.034,3.762c0.002,0,0.002,0,0.002,0
				c5.72,0,12.776-5.229,13.365-11.478C298.317,365.256,298.208,365.254,298.088,365.254z"/>
		</g>
		<g>
			<g>
				<path fill="#FBCFAC" d="M261.285,152.129c-11.389,10.112-26.14,16.215-42.258,16.215c-36.045,0-63.375-23.894-63.375-61.545
					c0-17.869,4.695-40.755,15.466-52.911c0,0,10.593,15.111,46.778,33.85C254.082,106.477,261.285,152.129,261.285,152.129z"/>
				<path fill="#832F0A" d="M219.027,168.993c-37.695,0-64.022-25.575-64.022-62.193c0-16.47,4.093-40.32,15.631-53.34
					c0.131-0.147,0.321-0.214,0.519-0.216c0.198,0.01,0.379,0.111,0.492,0.272c0.106,0.15,10.969,15.223,46.547,33.647
					c36.059,18.674,43.657,64.405,43.731,64.866c0.033,0.217-0.044,0.438-0.21,0.581
					C249.82,163.176,234.658,168.993,219.027,168.993z M171.084,54.916c-10.899,12.873-14.787,35.893-14.787,51.884
					c0,35.856,25.795,60.9,62.73,60.9c15.197,0,29.943-5.614,41.56-15.816c-0.769-4.246-9.167-46.06-42.988-63.572
					C185.464,71.67,173.547,58.043,171.084,54.916z"/>
			</g>
			<g>
				<path fill="#832F0A" d="M168.418,109.765c-0.822,0-1.694-0.123-2.621-0.411c-6.686-2.075-5.845-9.452-5.834-9.53
					c0.046-0.352,0.36-0.604,0.724-0.558c0.354,0.043,0.604,0.363,0.561,0.721c-0.03,0.259-0.709,6.381,4.933,8.133
					c5.697,1.774,9.131-3.751,9.166-3.81c0.188-0.305,0.584-0.4,0.888-0.218c0.304,0.185,0.4,0.583,0.217,0.888
					C176.418,105.039,173.479,109.765,168.418,109.765L168.418,109.765z"/>
			</g>
			<g>
				<path fill="#832F0A" d="M203.509,118.486c-0.445,0-0.907-0.02-1.386-0.059c-8.31-0.673-11.094-9.408-11.118-9.498
					c-0.108-0.342,0.085-0.701,0.425-0.808c0.342-0.098,0.704,0.085,0.806,0.426c0.027,0.079,2.566,7.991,9.995,8.592
					c7.516,0.603,11.228-4.418,11.266-4.471c0.209-0.292,0.61-0.357,0.901-0.145c0.288,0.207,0.354,0.611,0.147,0.9
					C214.387,113.642,210.81,118.486,203.509,118.486L203.509,118.486z"/>
			</g>
			<g>
				<path fill="#832F0A" d="M191.234,155.5c-13.288,0-18.674-11.915-18.731-12.039c-0.141-0.328,0.007-0.708,0.334-0.852
					c0.324-0.15,0.706,0.003,0.854,0.331c0.051,0.12,5.447,11.831,18.545,11.247c13.175-0.619,17.139-10.984,17.304-11.424
					c0.121-0.333,0.49-0.507,0.827-0.383c0.336,0.122,0.506,0.491,0.382,0.827c-0.039,0.117-4.396,11.613-18.451,12.271
					C191.938,155.493,191.584,155.5,191.234,155.5L191.234,155.5z"/>
			</g>
			<g>
				<path fill="#832F0A" d="M213.645,144.526c-5.117,0-6.264-3.912-6.274-3.954c-0.094-0.341,0.106-0.696,0.446-0.793
					c0.348-0.098,0.699,0.104,0.796,0.446c0.042,0.137,1.046,3.338,5.792,2.978c0.353-0.008,0.663,0.236,0.693,0.591
					c0.027,0.357-0.238,0.669-0.594,0.697C214.208,144.513,213.92,144.526,213.645,144.526L213.645,144.526z"/>
			</g>
		</g>
		<g>
			<path fill="#9E713E" d="M283.483,41.86c0,0,27.937-11.318,43.939,10.662c24.231,33.277,5.813,103.388-37.155,135.695l-9.047-5.17
				l10.339-15.508l-11.631,7.754l-3.229-4.2c0,0,5.491-7.432,10.338-17.448c0,0-9.049,8.724-16.154,12.599l-6.462-8.72
				C264.421,157.524,313.206,122.63,283.483,41.86z"/>
			<path fill="#832F0A" d="M290.268,188.863c-0.112,0-0.221-0.029-0.319-0.086l-9.048-5.17c-0.156-0.089-0.268-0.238-0.306-0.414
				c-0.044-0.173-0.011-0.356,0.089-0.506l8.545-12.82l-8.941,5.962c-0.282,0.193-0.663,0.125-0.869-0.145l-3.232-4.199
				c-0.175-0.229-0.179-0.545-0.007-0.778c0.048-0.064,4.368-5.948,8.676-14.167c-3.225,2.891-8.837,7.643-13.662,10.272
				c-0.286,0.155-0.638,0.074-0.83-0.184l-6.46-8.722c-0.102-0.137-0.145-0.313-0.118-0.485c0.025-0.17,0.118-0.324,0.262-0.424
				c0.482-0.347,48.027-35.576,18.83-114.916c-0.12-0.328,0.042-0.691,0.364-0.822c0.299-0.122,7.414-2.962,16.609-2.962
				c11.787,0,21.503,4.787,28.098,13.841c24.82,34.092,5.653,104.304-37.291,136.593
				C290.542,188.818,290.405,188.863,290.268,188.863z M282.144,182.83l8.075,4.613c42.21-32.03,61.074-101.04,36.682-134.541
				c-6.431-8.831-15.531-13.31-27.051-13.31c-7.46,0-13.657,1.98-15.539,2.647c27.439,75.35-13.813,111.278-18.992,115.409
				l5.746,7.757c6.873-3.915,15.436-12.142,15.523-12.228c0.227-0.214,0.575-0.241,0.829-0.058c0.252,0.185,0.337,0.524,0.201,0.805
				c-4.188,8.661-8.917,15.477-10.114,17.154l2.568,3.34l11.128-7.418c0.256-0.17,0.599-0.137,0.817,0.08
				c0.217,0.218,0.251,0.559,0.081,0.814L282.144,182.83z"/>
		</g>
		<g>
			<g>
				<ellipse fill="#009ADA" cx="279.661" cy="38.738" rx="4.897" ry="5.119"/>
				<path fill="#832F0A" d="M279.66,44.503c-3.055,0-5.543-2.586-5.543-5.765c0-3.181,2.488-5.767,5.543-5.767
					c3.057,0,5.545,2.585,5.545,5.767C285.205,41.917,282.717,44.503,279.66,44.503z M279.66,34.263
					c-2.343,0-4.249,2.008-4.249,4.475s1.906,4.471,4.249,4.471c2.345,0,4.251-2.004,4.251-4.471S282.005,34.263,279.66,34.263z"/>
			</g>
			<g>
				<path fill="#009ADA" d="M296.947,47.383c0,3.325-2.588,6.021-5.762,6.021c-3.179,0-5.764-2.696-5.764-6.021
					s2.585-6.021,5.764-6.021C294.359,41.362,296.947,44.058,296.947,47.383z"/>
				<path fill="#832F0A" d="M291.186,54.049c-3.536,0-6.412-2.991-6.412-6.667s2.876-6.667,6.412-6.667
					c3.535,0,6.406,2.991,6.406,6.667S294.721,54.049,291.186,54.049z M291.186,42.008c-2.822,0-5.117,2.411-5.117,5.375
					c0,2.965,2.295,5.376,5.117,5.376c2.821,0,5.114-2.411,5.114-5.376C296.3,44.419,294.007,42.008,291.186,42.008z"/>
			</g>
			<g>
				<path fill="#009ADA" d="M292.989,41.479c0,3.661-2.843,6.631-6.341,6.631c-3.5,0-6.341-2.97-6.341-6.631
					c0-3.659,2.841-6.627,6.341-6.627C290.146,34.853,292.989,37.82,292.989,41.479z"/>
				<path fill="#832F0A" d="M286.648,48.756c-3.854,0-6.988-3.263-6.988-7.276c0-4.009,3.135-7.272,6.988-7.272
					c3.852,0,6.986,3.263,6.986,7.272C293.635,45.493,290.5,48.756,286.648,48.756z M286.648,35.5c-3.142,0-5.695,2.683-5.695,5.98
					c0,3.299,2.554,5.984,5.695,5.984c3.137,0,5.694-2.685,5.694-5.984C292.343,38.183,289.785,35.5,286.648,35.5z"/>
			</g>
		</g>
		<g>
			<g>
				<path fill="#9E713E" d="M261.285,152.129c0,0-7.203-45.653-43.389-64.391c-36.186-18.739-46.778-33.85-46.778-33.85
					l-2.976-1.367c0,0,10.015-38.771,67.201-33.601c57.184,5.167,79.286,62.423,62.465,104.679
					C284.563,156.878,261.285,152.129,261.285,152.129z"/>
				<path fill="#832F0A" d="M264.361,153.011c-1.972,0-3.154-0.238-3.203-0.25c-0.267-0.052-0.47-0.265-0.512-0.532
					c-0.072-0.453-7.576-45.549-43.048-63.917c-34.457-17.844-45.668-32.222-46.903-33.909l-2.823-1.294
					c-0.282-0.131-0.434-0.447-0.355-0.75c0.091-0.344,9.492-34.56,57.646-34.56c3.292,0,6.736,0.161,10.241,0.478
					c24.504,2.216,44.716,14.365,56.907,34.21c12.914,21.019,15.252,48.359,6.101,71.351
					C287.929,150.167,271.11,153.011,264.361,153.011z M261.842,151.562c0.482,0.066,1.355,0.154,2.52,0.154
					c6.483,0,22.659-2.763,32.848-28.356c9.003-22.62,6.705-49.519-5.998-70.197c-11.973-19.49-31.837-31.421-55.926-33.599
					c-3.463-0.313-6.869-0.472-10.123-0.472c-43.922,0-54.871,28.841-56.238,33.077l2.465,1.132
					c0.102,0.047,0.192,0.123,0.258,0.215c0.106,0.15,10.969,15.223,46.547,33.647C252.292,104.82,260.941,146.675,261.842,151.562z
					"/>
			</g>
			<g>
				<path fill="#9E713E" d="M169.727,53.728c0,0-25.797,3.765-16.74,39.737C152.986,93.464,149.524,64.419,169.727,53.728z"/>
				<path fill="#832F0A" d="M152.985,94.112c-0.29,0-0.552-0.197-0.626-0.488c-3.273-13.007-2.433-23.344,2.508-30.726
					c5.609-8.387,14.396-9.756,14.766-9.808c0.307-0.051,0.609,0.138,0.707,0.438c0.1,0.299-0.032,0.624-0.311,0.771
					c-19.585,10.365-16.436,38.804-16.4,39.091c0.041,0.339-0.189,0.649-0.526,0.711C153.064,94.109,153.024,94.112,152.985,94.112z
					 M165.299,55.82c-2.879,1.286-6.578,3.633-9.371,7.816c-3.785,5.669-5.032,13.218-3.735,22.503
					C152.558,77.672,154.877,63.93,165.299,55.82z"/>
			</g>
			<g>
				<path fill="#9E713E" d="M169.437,52.736c0,0-17.878,44.156,21.538,52.555C190.975,105.291,163.618,94.737,169.437,52.736z"/>
				<path fill="#832F0A" d="M190.975,105.938c-0.043,0-0.09-0.005-0.134-0.015c-10.702-2.28-18.229-7.394-22.374-15.2
					c-8.475-15.96,0.004-37.329,0.37-38.23c0.121-0.301,0.452-0.461,0.766-0.379c0.313,0.082,0.517,0.39,0.474,0.711
					c-5.681,41.019,20.863,51.759,21.132,51.863c0.315,0.122,0.483,0.464,0.387,0.786
					C191.513,105.753,191.256,105.938,190.975,105.938z M168.149,58.951c-1.972,7.528-4.078,20.742,1.461,31.172
					c3.302,6.214,8.886,10.649,16.634,13.224C179.166,98.493,166.403,85.906,168.149,58.951z"/>
			</g>
			<g>
				<path fill="#9E713E" d="M169.437,52.736c0,0,1.507,47.818,53.419,46.523C222.855,99.259,186.881,93.877,169.437,52.736z"/>
				<path fill="#832F0A" d="M220.809,99.933c0,0-0.003,0-0.006,0c-49.942-0.004-52-46.706-52.015-47.177
					c-0.009-0.309,0.205-0.583,0.508-0.651c0.305-0.071,0.613,0.093,0.733,0.378c17.106,40.343,52.565,46.085,52.923,46.138
					c0.33,0.051,0.567,0.345,0.548,0.678c-0.021,0.337-0.295,0.599-0.631,0.607C222.173,99.925,221.488,99.933,220.809,99.933z
					 M170.536,56.758c1.726,10.894,9.811,40.126,46.891,41.807C207.096,95.384,184.184,85.367,170.536,56.758z"/>
			</g>
		</g>
		<g>
			<path fill="#C46628" d="M305.614,261.071c0,0,8.075,0.646,5.493,10.984c-2.586,10.339-14.701,21.484-41.032,27.626
				c0,0,7.53-8.861,10.823-14.058C289.298,272.381,297.052,259.617,305.614,261.071z"/>
			<path fill="#832F0A" d="M270.075,300.327c-0.223,0-0.433-0.115-0.555-0.311c-0.144-0.237-0.118-0.542,0.06-0.755
				c0.078-0.088,7.543-8.888,10.772-13.983l0.837-1.324c7.702-12.157,14.975-23.643,23.082-23.643c0.485,0,0.971,0.042,1.451,0.121
				c0.076,0.004,3.203,0.285,5.12,2.952c1.525,2.122,1.823,5.094,0.892,8.828c-3.107,12.429-18.238,22.67-41.512,28.097
				C270.173,300.319,270.123,300.327,270.075,300.327z M304.271,261.604c-7.395,0-14.486,11.192-21.986,23.041l-0.842,1.326
				c-2.461,3.886-7.318,9.854-9.615,12.621c21.707-5.41,35.75-15.087,38.651-26.693c0.835-3.342,0.607-5.947-0.677-7.746
				c-1.557-2.184-4.214-2.436-4.241-2.439C305.099,261.639,304.684,261.604,304.271,261.604z"/>
		</g>
		<g>
			<path fill="#FBB36A" d="M211.758,168.185c0,0-39.93,75.092-9.691,155.729c3.877,10.335,57.832-5.171,77.217-35.54
				c19.385-30.371,21.646-28.432,30.371-25.848c0,0-8.026-4.211-17.447-9.372c-13.571-7.43-50.079-46.845-57.51-86.584
				C234.697,166.569,227.266,169.478,211.758,168.185z"/>
			<path fill="#832F0A" d="M210.303,327.752c-4.896,0-7.957-1.247-8.842-3.613c-29.993-79.983,9.326-155.503,9.727-156.258
				c0.121-0.228,0.357-0.363,0.625-0.339c2.617,0.216,5.177,0.328,7.607,0.328c10.027,0,14.994-1.884,15.043-1.904
				c0.176-0.068,0.378-0.057,0.551,0.038c0.166,0.093,0.285,0.258,0.319,0.447c7.418,39.676,43.901,78.863,57.181,86.136
				c8.761,4.799,16.403,8.822,17.343,9.316c0.272,0.075,0.474,0.325,0.474,0.622c0,0.361-0.294,0.584-0.66,0.646
				c-0.063-0.001-0.137-0.006-0.201-0.026l-0.861-0.258c-1.862-0.561-3.468-1.046-4.991-1.046c-4.492,0-9.2,4.023-23.789,26.88
				C264.85,312.185,228.065,327.752,210.303,327.752z M212.136,168.862c-2.963,5.856-38.162,78.296-9.465,154.821
				c0.669,1.792,3.384,2.777,7.632,2.777c17.479,0,53.688-15.331,68.434-38.436c14.592-22.859,19.789-28.087,25.915-27.418
				c-3.229-1.722-7.817-4.181-12.757-6.887c-13.354-7.313-49.894-46.484-57.692-86.303c-1.739,0.534-6.582,1.745-14.782,1.745
				C217.088,169.162,214.641,169.063,212.136,168.862z"/>
		</g>
		<g>
			<defs>
				<path id="SVGID_1_" d="M211.886,169.121c0,0-39.124,73.579-9.497,152.59c3.802,10.133,56.67-5.062,75.663-34.822
					c18.997-29.759,21.212-27.857,29.757-25.325c0,0-7.865-4.127-17.093-9.18c-13.297-7.282-49.072-45.906-56.351-84.845
					C234.365,167.539,227.085,170.389,211.886,169.121z"/>
			</defs>
			<clipPath id="SVGID_2_">
				<use xlink:href="#SVGID_1_"  overflow="visible"/>
			</clipPath>
			<g clip-path="url(#SVGID_2_)">
				<g>
					<path fill="#FDCBA2" d="M244.916,206.9c0,1.981-1.606,3.59-3.585,3.59c-1.984,0-3.589-1.608-3.589-3.59
						c0-1.98,1.604-3.587,3.589-3.587C243.31,203.313,244.916,204.92,244.916,206.9z"/>
				</g>
				<g>
					<circle fill="#FDCBA2" cx="230.406" cy="228.903" r="3.589"/>
				</g>
				<g>
					<path fill="#FDCBA2" d="M259.16,231.751c0,1.979-1.605,3.589-3.585,3.589c-1.981,0-3.586-1.609-3.586-3.589
						c0-1.979,1.604-3.587,3.586-3.587C257.555,228.164,259.16,229.772,259.16,231.751z"/>
				</g>
				<g>
					<path fill="#FDCBA2" d="M258.056,257.078c0,1.981-1.606,3.59-3.59,3.59c-1.986,0-3.588-1.608-3.588-3.59
						c0-1.979,1.602-3.587,3.588-3.587C256.449,253.491,258.056,255.1,258.056,257.078z"/>
				</g>
				<g>
					<path fill="#FDCBA2" d="M285.598,252.332c0,1.981-1.606,3.587-3.587,3.587c-1.985,0-3.591-1.605-3.591-3.587
						c0-1.982,1.605-3.592,3.591-3.592C283.991,248.74,285.598,250.35,285.598,252.332z"/>
				</g>
				<g>
					<path fill="#FDCBA2" d="M254.571,283.672c0,1.981-1.604,3.591-3.588,3.591c-1.985,0-3.585-1.609-3.585-3.591
						s1.6-3.591,3.585-3.591C252.967,280.081,254.571,281.69,254.571,283.672z"/>
				</g>
				<g>
					<path fill="#FDCBA2" d="M229.564,282.09c0,1.982-1.607,3.59-3.589,3.59c-1.986,0-3.591-1.607-3.591-3.59
						c0-1.981,1.604-3.59,3.591-3.59C227.957,278.5,229.564,280.108,229.564,282.09z"/>
				</g>
				<g>
					<path fill="#FDCBA2" d="M208.668,238.717c0,1.982-1.603,3.59-3.588,3.59s-3.59-1.607-3.59-3.59s1.604-3.591,3.59-3.591
						S208.668,236.734,208.668,238.717z"/>
				</g>
				<g>
					<path fill="#FDCBA2" d="M219.749,208.643c0,1.979-1.603,3.587-3.589,3.587c-1.983,0-3.589-1.608-3.589-3.587
						c0-1.98,1.605-3.588,3.589-3.588C218.146,205.055,219.749,206.662,219.749,208.643z"/>
				</g>
				<g>
					<circle fill="#FDCBA2" cx="203.497" cy="267.21" r="3.588"/>
				</g>
				<g>
					<circle fill="#FDCBA2" cx="220.434" cy="312.533" r="3.584"/>
				</g>
				<g>
					<path fill="#FDCBA2" d="M203.601,292.851c0,1.981-1.604,3.591-3.584,3.591c-1.985,0-3.59-1.609-3.59-3.591
						s1.604-3.587,3.59-3.587C201.996,289.264,203.601,290.869,203.601,292.851z"/>
				</g>
				<g>
					<path fill="#FDCBA2" d="M199.169,217.191c0,1.979-1.606,3.587-3.584,3.587c-1.985,0-3.591-1.608-3.591-3.587
						c0-1.982,1.605-3.59,3.591-3.59C197.563,213.602,199.169,215.209,199.169,217.191z"/>
				</g>
				<g>
					<path fill="#FDCBA2" d="M210.249,185.215c0,1.979-1.605,3.588-3.584,3.588c-1.983,0-3.59-1.609-3.59-3.588
						c0-1.981,1.606-3.59,3.59-3.59C208.644,181.625,210.249,183.233,210.249,185.215z"/>
				</g>
				<g>
					<path fill="#FDCBA2" d="M228.608,172.868c0,1.982-1.604,3.591-3.583,3.591c-1.985,0-3.59-1.608-3.59-3.591
						c0-1.978,1.604-3.587,3.59-3.587C227.004,169.281,228.608,170.89,228.608,172.868z"/>
				</g>
				<g>
					<path fill="#FDCBA2" d="M242.225,187.748c0,1.982-1.604,3.59-3.585,3.59c-1.984,0-3.589-1.607-3.589-3.59
						s1.604-3.588,3.589-3.588C240.62,184.16,242.225,185.766,242.225,187.748z"/>
				</g>
				<g>
					<path fill="#FDCBA2" d="M250.459,307.415c0,1.982-1.605,3.591-3.591,3.591c-1.984,0-3.588-1.608-3.588-3.591
						s1.604-3.587,3.588-3.587C248.854,303.828,250.459,305.433,250.459,307.415z"/>
				</g>
				<g>
					<path fill="#FDCBA2" d="M231.618,251.748c0,1.981-1.606,3.591-3.583,3.591c-1.986,0-3.592-1.609-3.592-3.591
						s1.605-3.587,3.592-3.587C230.012,248.161,231.618,249.767,231.618,251.748z"/>
				</g>
				<g>
					<path fill="#FDCBA2" d="M278.156,276.39c0,1.982-1.604,3.59-3.59,3.59c-1.975,0-3.584-1.607-3.584-3.59
						c0-1.981,1.609-3.589,3.584-3.589C276.552,272.801,278.156,274.408,278.156,276.39z"/>
				</g>
			</g>
		</g>
		<g opacity="0.5">
			<path fill="#FBB36A" d="M292.207,253.153c-13.571-7.43-50.079-46.845-57.51-86.584c0,0-7.432,2.909-22.939,1.616
				c0,0-1.386,2.613-3.445,7.38c1.664-0.813,24.843-11.186,35.43,33.652c10.931,46.274,45.699,45.37,22.123,94.103
				c5.264-4.456,9.914-9.456,13.418-14.946c19.385-30.371,21.646-28.432,30.371-25.848
				C309.654,262.525,301.628,258.314,292.207,253.153z"/>
		</g>
		<g>
			<g>
				<path fill="#832F0A" d="M170.084,273.51c-0.373,0-0.735-0.155-0.991-0.462c-0.462-0.547-0.388-1.362,0.159-1.821
					c33.229-27.849,45.979-73.842,46.105-74.302c0.189-0.688,0.897-1.103,1.586-0.91c0.688,0.187,1.094,0.896,0.907,1.585
					c-0.124,0.47-13.097,47.246-46.937,75.606C170.672,273.412,170.375,273.51,170.084,273.51L170.084,273.51z"/>
			</g>
			<g>
				<path fill="#FBCFAC" d="M173.746,284.71c0,0-3.231-9.474-2.803-11.629c0.429-2.156-3.017-2.156-7.97-2.156
					c-4.954,0-8.612-3.013-9.476-0.861c-0.863,2.153,5.597,4.955,5.597,4.955s-8.183,3.877-6.89,6.031
					c1.293,2.153,8.829-3.018,8.829-3.018s-3.661,9.05-1.721,9.911c1.938,0.861,6.677-8.401,6.677-8.401s1.076,9.691,2.585,9.477
					c1.508-0.214,1.508-8.829,1.508-8.829s0.215,7.968,2.8,7.968C175.467,288.157,173.746,284.71,173.746,284.71z"/>
				<path fill="#832F0A" d="M168.525,289.668c-1.222,0-2.204-2.697-2.928-8.021c-1.551,2.787-4.198,6.998-6.01,6.998
					c-0.188,0-0.368-0.036-0.537-0.111c-1.866-0.829-0.513-5.615,0.675-8.894c-1.796,1.084-4.589,2.581-6.365,2.581
					c-0.998,0-1.479-0.458-1.709-0.839c-0.245-0.406-0.295-0.881-0.146-1.372c0.553-1.833,4.154-3.941,6.113-4.971
					c-2.062-1.038-5.55-3.149-4.721-5.216c0.217-0.538,0.709-1.182,1.834-1.182c0.756,0,1.688,0.282,2.762,0.608
					c1.512,0.458,3.393,1.028,5.48,1.028c4.325,0,7.184,0,8.245,1.295c0.252,0.305,0.518,0.837,0.36,1.634
					c-0.288,1.446,1.552,7.695,2.778,11.297c0.082,0.149,1.072,2.208,0.303,3.45c-0.241,0.386-0.742,0.851-1.777,0.851
					c-1.21,0-1.996-1.123-2.508-2.568c-0.334,2.159-0.905,3.306-1.709,3.42L168.525,289.668z M165.99,278.896
					c0.039,0,0.079,0.003,0.117,0.011c0.28,0.052,0.495,0.28,0.524,0.565c0.417,3.735,1.263,8.007,1.917,8.83
					c0.454-0.666,0.888-4.272,0.888-8.112c0-0.354,0.282-0.642,0.636-0.647c0.385,0.019,0.646,0.277,0.654,0.628
					c0.086,3.077,0.881,7.342,2.156,7.342c0.352,0,0.582-0.079,0.679-0.238c0.281-0.453-0.069-1.625-0.394-2.275
					c-0.37-1.066-3.31-9.783-2.858-12.042c0.065-0.324-0.015-0.472-0.09-0.563c-0.676-0.823-3.865-0.823-7.246-0.823
					c-2.28,0-4.262-0.599-5.854-1.084c-0.978-0.295-1.822-0.551-2.388-0.551c-0.411,0-0.537,0.125-0.634,0.368
					c-0.411,1.024,2.788,3.051,5.256,4.122c0.232,0.102,0.383,0.33,0.391,0.583c0.002,0.254-0.144,0.484-0.37,0.595
					c-2.342,1.108-6.212,3.388-6.633,4.779c-0.054,0.177-0.02,0.269,0.019,0.335c0.031,0.052,0.127,0.208,0.601,0.208
					c1.894,0,5.917-2.473,7.307-3.426c0.235-0.16,0.55-0.148,0.771,0.029c0.222,0.179,0.3,0.48,0.195,0.747
					c-1.897,4.69-2.677,8.802-2.058,9.076l0,0c1.016,0,3.836-4.191,5.84-8.104C165.529,279.03,165.753,278.896,165.99,278.896z"/>
			</g>
		</g>
		<g>
			<path fill="#F58422" d="M223.551,199.361c6.961,0,12.603-5.712,12.603-12.76c0-7.05-5.642-12.764-12.603-12.764
				c-6.957,0-12.601,5.714-12.601,12.764c0,0-3.878-0.81-3.554,2.1c0.323,2.906,4.686,4.039,4.686,4.039s-0.486,4.198,5.654,5.008
				c0,0,0.971,5.652,4.521,5.491C225.814,203.076,223.551,199.361,223.551,199.361z"/>
			<path fill="#832F0A" d="M222.109,203.889c-3.328,0-4.584-4.147-4.914-5.569c-4.907-0.816-5.657-3.84-5.752-5.099
				c-1.227-0.411-4.387-1.729-4.688-4.447c-0.093-0.836,0.093-1.514,0.546-2.021c0.527-0.589,1.404-0.901,2.533-0.901
				c0.177,0,0.34,0.007,0.49,0.019c0.375-7.055,6.166-12.676,13.227-12.676c7.304,0,13.248,6.015,13.248,13.409
				c0,7.048-5.404,12.843-12.236,13.368c0.3,0.763,0.551,1.843,0.089,2.711c-0.398,0.745-1.19,1.149-2.361,1.204
				C222.278,203.885,222.119,203.889,222.109,203.889z M209.834,187.143c-0.739,0-1.3,0.168-1.568,0.471
				c-0.203,0.227-0.277,0.557-0.227,1.016c0.269,2.428,4.168,3.476,4.204,3.486c0.31,0.081,0.517,0.379,0.481,0.697
				c-0.016,0.144-0.299,3.584,5.094,4.295c0.281,0.035,0.506,0.251,0.553,0.529c0.01,0.049,0.893,4.959,3.738,4.959v0.647
				l0.117-0.649c0.686-0.033,1.113-0.206,1.284-0.519c0.354-0.664-0.268-1.973-0.514-2.378c-0.119-0.201-0.123-0.448-0.01-0.652
				c0.114-0.203,0.331-0.33,0.563-0.33c6.593,0,11.953-5.434,11.953-12.113s-5.36-12.116-11.953-12.116
				c-6.591,0-11.953,5.437-11.953,12.116c0,0.192-0.088,0.376-0.24,0.5c-0.149,0.122-0.347,0.173-0.536,0.132
				C210.815,187.231,210.375,187.143,209.834,187.143z"/>
		</g>
		<g opacity="0.5">
			<g>
				<path fill="#F7CFA9" d="M261.285,152.129c0,0-7.154-45.26-42.938-64.143l-0.232,0.289c0,0,26.709,17.662,21.54,46.954
					c-4.761,26.968-35.419,30.203-40.261,30.547c6.139,1.684,12.723,2.568,19.633,2.568
					C235.146,168.344,249.896,162.242,261.285,152.129z"/>
			</g>
		</g>
		<g>
			<path fill="#832F0A" d="M248.913,63.507c-0.112,0-0.223-0.029-0.324-0.088c-0.311-0.178-0.414-0.577-0.232-0.881
				c9.993-17.222,24.447-24.114,28.398-25.738c-3.817-3.122-21.501-15.585-52.017-7.777c-0.355,0.09-0.7-0.122-0.789-0.463
				c-0.089-0.345,0.122-0.7,0.463-0.786c35.278-9.035,53.847,8.601,54.031,8.78c0.16,0.155,0.228,0.384,0.174,0.604
				c-0.045,0.219-0.208,0.399-0.422,0.469c-0.172,0.058-17.361,5.988-28.726,25.561C249.352,63.393,249.135,63.507,248.913,63.507
				L248.913,63.507z"/>
		</g>
		<g>
			<path fill="#832F0A" d="M163.33,257.897c-10.797,0-18.567-1.099-19.281-1.202c-0.707-0.102-1.195-0.757-1.094-1.465
				c0.104-0.708,0.762-1.183,1.466-1.093c0.392,0.055,39.642,5.582,66.081-8.581c0.627-0.34,1.412-0.104,1.746,0.527
				c0.342,0.627,0.106,1.412-0.524,1.75C196.374,256.057,177.317,257.897,163.33,257.897L163.33,257.897z"/>
		</g>
		<g>
			<path fill="#FEDBC5" d="M219.136,253.81c0,0-6.458-4.885-8.215-5.102c-1.768-0.22-0.894-2.86,0.363-6.661
				c1.256-3.801-0.128-7.376,1.744-7.49c1.87-0.115,2.386,5.555,2.386,5.555s5.048-5.296,6.37-3.758
				c1.327,1.538-4.554,6.013-4.554,6.013s7.869-0.518,8.042,1.192c0.167,1.705-8.142,2.989-8.142,2.989s7.163,3.288,6.618,4.387
				c-0.547,1.103-7.16-1.079-7.16-1.079s6.065,2.182,5.407,4.166C221.334,256.005,219.136,253.81,219.136,253.81z"/>
			<path fill="#832F0A" d="M221.042,255.498c-1.1,0-2.237-1.106-2.362-1.23c-2.378-1.79-6.683-4.775-7.839-4.917
				c-0.702-0.089-1.067-0.456-1.255-0.749c-0.755-1.193-0.023-3.408,1.085-6.758c0.523-1.583,0.563-3.163,0.596-4.431
				c0.044-1.749,0.084-3.4,1.723-3.502h0.004c1.822,0,2.588,2.87,2.898,4.811c1.351-1.29,3.696-3.295,5.227-3.295
				c0.474,0,0.871,0.175,1.155,0.506c0.27,0.311,0.387,0.714,0.342,1.161c-0.146,1.4-2.045,3.299-3.488,4.557
				c0.198-0.002,0.404-0.004,0.621-0.004c5.303,0,6.08,0.988,6.168,1.847c0.155,1.604-3.197,2.673-6.684,3.349
				c2.113,1.058,4.759,2.561,5.13,3.605c0.118,0.341,0.047,0.607-0.036,0.773c-0.331,0.672-1.244,0.672-1.545,0.672
				c-0.348,0-0.758-0.04-1.198-0.105c0.821,0.725,1.317,1.557,1.025,2.438C222.241,255.332,221.47,255.498,221.042,255.498z
				 M213.086,235.201c-0.408,0.023-0.486,0.555-0.525,2.244c-0.037,1.354-0.079,3.039-0.662,4.805
				c-0.813,2.449-1.649,4.984-1.222,5.662c0.025,0.04,0.083,0.125,0.324,0.154c1.834,0.229,7.421,4.395,8.523,5.229
				c0.423,0.412,1.112,0.911,1.518,0.911c0.075,0,0.213,0,0.34-0.39c0.265-0.79-2.431-2.424-5.013-3.354
				c-0.334-0.12-0.506-0.487-0.389-0.82c0.114-0.333,0.472-0.517,0.812-0.401c0.041,0.015,4.138,1.357,5.989,1.357
				c0.051,0,0.098,0,0.14-0.004c-0.818-0.788-3.583-2.323-6.061-3.459c-0.26-0.12-0.412-0.396-0.368-0.678
				c0.036-0.281,0.257-0.505,0.539-0.549c3.795-0.588,7.338-1.673,7.6-2.328v0.004c-0.049,0-0.667-0.645-4.883-0.645
				c-1.373,0-2.468,0.071-2.475,0.071c-0.301,0.032-0.549-0.154-0.648-0.419c-0.102-0.27-0.012-0.568,0.214-0.741
				c1.795-1.366,4.376-3.788,4.491-4.891c0.014-0.129-0.021-0.167-0.034-0.188c-0.021-0.019-0.052-0.055-0.178-0.055
				c-1.088,0-3.72,2.244-5.238,3.839c-0.171,0.184-0.439,0.248-0.679,0.164c-0.24-0.085-0.408-0.3-0.432-0.552
				C214.555,237.824,213.792,235.201,213.086,235.201z"/>
		</g>
	</g>
</g>
</svg>
