<?xml version="1.0" encoding="utf-8"?>
<!-- Generator: Adobe Illustrator 16.0.0, SVG Export Plug-In . SVG Version: 6.00 Build 0)  -->
<!DOCTYPE svg PUBLIC "-//W3C//DTD SVG 1.1//EN" "http://www.w3.org/Graphics/SVG/1.1/DTD/svg11.dtd">
<svg version="1.1" id="Capa_1" xmlns="http://www.w3.org/2000/svg" xmlns:xlink="http://www.w3.org/1999/xlink" x="0px" y="0px"
	 width="400px" height="400px" viewBox="0 0 400 400" enable-background="new 0 0 400 400" xml:space="preserve">
<g>
	<g>
		<g>
			<g>
				<g>
					<g>
						<path fill="#0A8369" d="M223.898,292.917c-3.713-0.212-12.58-0.141-12.326,3.104c0.258,3.242,4.479,3.875,9.588,1.684
							C227.189,295.123,224.762,292.981,223.898,292.917L223.898,292.917z"/>
					</g>
				</g>
				<g>
					<g>
						<path fill="#0A0A0A" d="M215.09,299.258L215.09,299.258c-2.279-0.175-3.668-1.346-3.818-3.218
							c-0.043-0.58,0.164-1.105,0.611-1.553c2.293-2.286,10.424-1.954,12.037-1.868c0.514,0.042,1.328,0.57,1.471,1.425
							c0.16,0.921-0.422,2.353-4.113,3.933C218.99,298.957,216.85,299.4,215.09,299.258L215.09,299.258z M223.877,293.206
							c-3.469-0.195-9.816-0.052-11.564,1.689c-0.33,0.326-0.471,0.688-0.439,1.104c0.121,1.569,1.279,2.522,3.264,2.68
							c1.641,0.131,3.738-0.313,5.9-1.238c3.641-1.559,3.848-2.829,3.766-3.303C224.705,293.573,224.141,293.229,223.877,293.206
							L223.877,293.206z"/>
					</g>
				</g>
			</g>
			<g>
				<g>
					<g>
						<g>
							<path fill="#0AB679" d="M268.213,285.192c-2.959,3.545-7.42,9.405-6.572,11.1c2.084,0.362,4.734-1.854,7.486-5.258
								c2.689-3.331,3.078-6.326,1.773-7.556C270.27,283.345,269.381,283.791,268.213,285.192z"/>
						</g>
					</g>
					<g>
						<g>
							<path fill="#0A0A0A" d="M261.854,296.616L261.854,296.616c-0.09-0.009-0.182-0.02-0.268-0.036l-0.154-0.025l-0.064-0.134
								c-0.902-1.805,3.102-7.202,6.617-11.412c1.146-1.382,2.168-1.996,2.98-1.814l0.145,0.076
								c1.561,1.471,0.846,4.734-1.752,7.944C266.297,295.002,263.844,296.771,261.854,296.616L261.854,296.616z M261.857,296.027
								c1.789,0.219,4.119-1.57,7.029-5.174c2.613-3.233,2.918-5.983,1.875-7.093c-0.434-0.008-1.154,0.225-2.316,1.619
								C264.01,290.689,261.525,294.718,261.857,296.027L261.857,296.027z"/>
						</g>
					</g>
				</g>
				<g>
					<g>
						<g>
							<path fill="#0A8369" d="M260.012,289.897c-1.584,1.629-1.734,4.19,0.473,5.891c0.355,0.277,0.746,0.436,1.156,0.504
								c-0.848-1.694,3.613-7.555,6.572-11.1c1.168-1.401,2.057-1.848,2.688-1.714c-0.293-0.269-0.66-0.457-1.113-0.54
								C267.311,282.489,261.332,288.534,260.012,289.897z"/>
						</g>
					</g>
					<g>
						<g>
							<path fill="#0A0A0A" d="M262.166,296.679l-0.58-0.099c-0.475-0.077-0.906-0.266-1.287-0.564
								c-1.07-0.821-1.678-1.878-1.768-3.051c-0.082-1.164,0.377-2.355,1.262-3.272c2.176-2.242,7.609-7.475,10.051-7.043
								c0.496,0.092,0.926,0.303,1.266,0.621l0.766,0.723l-1.041-0.225c-0.004-0.003-0.012-0.003-0.016-0.003
								c-0.426-0.035-1.158,0.156-2.373,1.614c-4.602,5.51-7.107,9.645-6.541,10.787L262.166,296.679L262.166,296.679z
								 M269.729,283.227c-1.977-0.152-6.182,3.448-9.5,6.868c-0.77,0.798-1.172,1.823-1.098,2.826
								c0.08,1.008,0.609,1.917,1.535,2.636c0.182,0.139,0.369,0.245,0.578,0.325c-0.096-2.18,3.521-7.024,6.74-10.873
								c0.74-0.895,1.422-1.465,2.037-1.708c-0.09-0.03-0.188-0.055-0.287-0.074H269.729L269.729,283.227z"/>
						</g>
					</g>
				</g>
			</g>
			<g>
				<g>
					<g>
						<path fill="#0A0A0A" d="M223.377,293.197c-7.586-13.313-6.43-36.735-6.375-37.722l1.197,0.058
							c-0.01,0.244-1.189,24.072,6.225,37.095L223.377,293.197L223.377,293.197z"/>
					</g>
				</g>
				<g>
					<g>
						<path fill="#0A0A0A" d="M259.266,290.527c-7.871-10.669-10.418-35.577-10.518-36.631l1.193-0.115
							c0.023,0.258,2.619,25.649,10.295,36.06L259.266,290.527L259.266,290.527z"/>
					</g>
				</g>
			</g>
		</g>
		<g>
			<g>
				<path fill="#0A0A0A" d="M273.336,210.007c-18.789-1.479-30.063-11.747-31.547-13.179l-3.889-0.306
					c-12.746,6.775-31.941,4.568-37.156,3.034c-5.582-1.644-14.896-1.89-14.993-1.89l0.028-1.17
					c0.392,0.006,9.578,0.247,15.312,1.937c5.107,1.506,23.977,3.675,36.387-3.023l0.16-0.085l4.699,0.366l0.154,0.167
					c0.148,0.149,14.824,14.976,40.029,12.963l2.949-0.225l0.092,1.17l-2.945,0.225
					C279.352,210.253,276.252,210.236,273.336,210.007L273.336,210.007z"/>
			</g>
		</g>
		<g>
			<g>
				<g>
					<path fill="#FFE2AF" d="M294.1,211.362c-1.482-0.222-5.24-0.947-5.24-0.947s2.373-0.485,4.195-1.131
						c1.822-0.646,2.131-1.846,0.777-1.896c-1.357-0.049-5.422,1.032-5.422,1.032l1.787-1.6c2.605-2.54,1.936-3.704,0.529-2.642
						c-1.402,1.067-4.084,2.74-4.084,2.74s2.525-3.415,1.73-4.531c-0.797-1.127-1.746,1.306-3.107,2.702
						c-0.512,0.513-1.045,0.812-1.518,0.982c-0.688,0.39-2.504,1.939-1.854,3.918c0.279,0.774,1.182,0.991,1.566,1.796
						c1.396,2.906,3.061,5.555,3.787,4.564c0.723-0.984-0.234-2.812,0.195-3.637c0.432-0.823,3.047,0.274,5.285,0.453
						C294.969,213.352,295.576,211.579,294.1,211.362z"/>
				</g>
			</g>
			<g>
				<g>
					<path fill="#0A0A0A" d="M286.814,216.854c-0.861-0.069-2.078-1.731-3.627-4.941c-0.156-0.331-0.426-0.553-0.715-0.789
						c-0.338-0.276-0.684-0.562-0.859-1.035c-0.717-2.163,1.24-3.848,1.98-4.266c0.568-0.212,1.045-0.519,1.453-0.935
						c0.43-0.443,0.834-1.007,1.184-1.51c0.645-0.906,1.15-1.621,1.752-1.571c0.242,0.019,0.455,0.159,0.633,0.411
						c0.596,0.834-0.211,2.513-0.934,3.688c0.889-0.574,2.078-1.366,2.861-1.96c0.777-0.586,1.48-0.567,1.674-0.052
						c0.238,0.639-0.416,1.777-1.807,3.132l-0.91,0.818c1.324-0.322,3.416-0.785,4.342-0.749c0.006,0,0.006,0,0.012,0
						c0.934,0.073,1.08,0.531,1.109,0.729c0.09,0.621-0.637,1.32-1.805,1.736c-0.938,0.331-2.023,0.621-2.865,0.826
						c1.223,0.234,2.965,0.555,3.852,0.683c0.805,0.121,1.107,0.639,1.055,1.099c-0.082,0.717-0.98,1.41-2.477,1.295l0,0
						c-0.855-0.072-1.754-0.263-2.545-0.436c-1.223-0.268-2.334-0.436-2.469-0.181c-0.146,0.28-0.068,0.827,0.008,1.353
						c0.117,0.787,0.252,1.677-0.227,2.322C287.27,216.823,286.998,216.867,286.814,216.854L286.814,216.854z M287.938,202.391
						c-0.264-0.019-0.809,0.754-1.211,1.323c-0.369,0.518-0.781,1.104-1.248,1.577c-0.477,0.484-1.023,0.837-1.627,1.057
						c-0.59,0.34-2.26,1.764-1.67,3.555c0.113,0.313,0.373,0.526,0.68,0.773c0.303,0.252,0.654,0.538,0.871,0.985
						c1.605,3.346,2.689,4.573,3.127,4.609c0.029,0,0.076,0.006,0.143-0.089c0.336-0.454,0.227-1.187,0.127-1.9
						c-0.096-0.644-0.186-1.25,0.049-1.7c0.25-0.477,0.865-0.484,1.311-0.449c0.508,0.038,1.143,0.175,1.824,0.323
						c0.77,0.164,1.643,0.356,2.443,0.419l0,0c1.193,0.094,1.805-0.406,1.85-0.77c0.027-0.229-0.18-0.403-0.555-0.455
						c-1.469-0.219-5.217-0.944-5.254-0.949v-0.575c0.025-0.006,2.371-0.487,4.154-1.115c1.02-0.363,1.449-0.879,1.416-1.109
						c-0.016-0.109-0.201-0.193-0.473-0.217c-1.363-0.051-5.367,1.009-5.406,1.022l-0.281-0.501l1.789-1.6
						c1.676-1.638,1.717-2.443,1.656-2.52c-0.195,0.012-0.402,0.068-0.74,0.323c-1.398,1.065-4.082,2.741-4.109,2.757l-0.404-0.415
						c0.996-1.351,2.188-3.544,1.729-4.199C288.055,202.454,287.986,202.396,287.938,202.391L287.938,202.391z"/>
				</g>
			</g>
		</g>
		<g>
			<g>
				<g>
					<path fill="#FFE2AF" d="M189.037,195.949c-0.44-0.377-0.932-0.98-1.192-1.892c-0.538-1.86-0.203-4.439-1.447-3.815
						c-1.244,0.625-0.652,4.798-0.652,4.798s-1.563-2.709-2.288-4.293c-0.729-1.586-1.877-0.866-0.808,2.573l0.81,2.234
						c0,0-3.064-2.828-4.287-3.406c-1.22-0.573-1.523,0.621-0.229,2.029c1.298,1.413,3.166,2.923,3.166,2.923
						s-3.668-1.081-5.082-1.564c-1.409-0.49-1.726,1.355,0.338,2.224c2.069,0.868,4.899,1.104,4.884,2.027
						c-0.016,0.925-1.743,2.095-1.573,3.302c0.167,1.203,2.939-0.41,5.44-2.494c0.869-0.729,1.66-1.222,2.326-1.564
						c0.037-0.085,0.08-0.165,0.166-0.244C189.947,197.527,189.37,196.396,189.037,195.949z"/>
				</g>
			</g>
			<g>
				<g>
					<path fill="#0A0A0A" d="M181.1,203.794L181.1,203.794c-0.405-0.036-0.665-0.278-0.722-0.67
						c-0.107-0.783,0.435-1.514,0.915-2.155c0.32-0.429,0.647-0.87,0.652-1.188c0.007-0.359-1.251-0.702-2.265-0.976
						c-0.778-0.213-1.662-0.455-2.43-0.78c-1.349-0.561-1.786-1.516-1.623-2.161c0.147-0.585,0.779-0.856,1.5-0.608
						c0.845,0.294,2.529,0.806,3.721,1.165c-0.638-0.563-1.449-1.31-2.125-2.046c-0.782-0.849-1.096-1.716-0.826-2.254
						c0.219-0.436,0.767-0.537,1.406-0.235c0.835,0.395,2.457,1.764,3.471,2.656l-0.407-1.122c-0.539-1.726-0.597-3.011-0.173-3.528
						c0.39-0.471,1.108-0.2,1.538,0.737c0.4,0.879,1.068,2.122,1.582,3.04c-0.068-1.367,0.019-3.223,0.949-3.685
						c0.188-0.099,0.363-0.142,0.534-0.128c0.749,0.057,0.864,1.024,1.011,2.246c0.072,0.605,0.152,1.29,0.322,1.878
						c0.2,0.701,0.574,1.293,1.104,1.75c0.325,0.433,1.136,1.797-0.42,3.271c-0.042,0.038-0.069,0.081-0.091,0.134l-0.037,0.102
						l-0.104,0.055c-0.775,0.396-1.539,0.914-2.274,1.525C184.516,202.313,182.206,203.878,181.1,203.794L181.1,203.794z
						 M176.65,195.749c-0.169-0.014-0.383,0.022-0.438,0.261c-0.089,0.331,0.184,1.021,1.271,1.479
						c0.736,0.313,1.598,0.546,2.357,0.751c1.519,0.413,2.725,0.736,2.71,1.553c-0.01,0.501-0.386,1-0.777,1.523
						c-0.429,0.579-0.876,1.18-0.8,1.73c0.015,0.117,0.05,0.151,0.171,0.161c0.742,0.057,2.701-1.109,4.775-2.837
						c0.736-0.613,1.511-1.14,2.294-1.553c0.05-0.082,0.106-0.162,0.181-0.232c1.138-1.08,0.738-2.006,0.398-2.462
						c-0.564-0.48-1.009-1.182-1.237-1.987c-0.184-0.629-0.269-1.339-0.343-1.966c-0.088-0.72-0.211-1.709-0.463-1.729
						c-0.029-0.004-0.098,0.005-0.215,0.062c-0.727,0.365-0.727,2.851-0.494,4.497l-0.557,0.184
						c-0.018-0.024-1.576-2.739-2.304-4.319c-0.21-0.459-0.421-0.621-0.493-0.626c-0.093,0.041-0.444,0.767,0.249,2.998l0.811,2.222
						l-0.493,0.313c-0.029-0.03-3.048-2.805-4.213-3.355c-0.373-0.178-0.582-0.083-0.601-0.035
						c-0.108,0.201,0.001,0.815,0.729,1.604c1.268,1.378,3.113,2.879,3.133,2.893l-0.278,0.506
						c-0.039-0.011-3.696-1.088-5.093-1.571C176.828,195.774,176.736,195.756,176.65,195.749L176.65,195.749z"/>
				</g>
			</g>
		</g>
		<g>
			<g>
				<g>
					<path fill="#C44451" d="M222.578,233.194c-1.529,0.271-9.771,0.508-10.369,4.086c-0.584,3.58-3.025,16.125-1.508,18.401
						c1.516,2.275,18.576,3.319,19.617,2.911c1.037-0.408,1.387-9.593,1.387-9.593s2.088,8.787,2.926,9.541
						c0.842,0.754,16.113,0.325,22.107-2.969c2.031-1.114-0.551-20.133-2.506-22.049
						C252.289,231.605,222.578,233.194,222.578,233.194z"/>
				</g>
			</g>
			<g>
				<g>
					<path fill="#0A0A0A" d="M223.707,258.719c-3.602-0.285-12.088-1.129-13.258-2.875c-1.236-1.857-0.156-9.298,1.201-17.059
						c0.105-0.617,0.199-1.144,0.264-1.554c0.545-3.259,6.613-3.895,9.531-4.195c0.479-0.053,0.854-0.091,1.078-0.128
						c0.238-0.018,19.953-1.058,28.213-0.408c2.807,0.222,3.465,0.574,3.715,0.818c1.717,1.689,3.893,15.861,3.195,20.775
						c-0.141,0.974-0.383,1.528-0.764,1.735c-5.152,2.833-17.07,3.563-21.018,3.254l0,0c-1.033-0.082-1.307-0.211-1.438-0.326
						c-0.648-0.582-1.828-4.933-2.521-7.684c-0.186,3.148-0.602,7.446-1.479,7.793C229.898,259.075,226.646,258.948,223.707,258.719
						L223.707,258.719z M250.686,233.082c-8.215-0.643-27.895,0.392-28.092,0.406c-0.199,0.035-0.59,0.079-1.088,0.132
						c-2.551,0.262-8.529,0.886-8.998,3.707c-0.064,0.411-0.158,0.938-0.264,1.556c-0.771,4.406-2.57,14.721-1.295,16.64
						c0.689,1.029,5.715,2.055,12.803,2.612c3.74,0.293,6.15,0.299,6.453,0.187c0.535-0.358,1.039-5.123,1.203-9.33l0.59-0.055
						c0.801,3.36,2.271,8.887,2.834,9.388l0,0c0.006,0,0.182,0.104,1.082,0.179c3.896,0.304,15.627-0.408,20.678-3.187
						c0.068-0.037,0.309-0.243,0.459-1.303c0.666-4.681-1.424-18.708-3.029-20.284C253.895,233.605,253.314,233.291,250.686,233.082
						L250.686,233.082z"/>
				</g>
			</g>
		</g>
		<g>
			<g>
				<g>
					<path fill="#1D3A54" d="M235.385,195.149c0,0-5.271,3.996-10.529,11.078c-5.258,7.084-13.129,22.343-12.646,31.053
						c0,0,8.357,8.15,25.225,6.095c16.865-2.055,21.248-9.652,21.256-11.56c0.006-1.909-7.625-18.376-10.113-25.196
						C243.85,193.682,242.484,192.915,235.385,195.149z"/>
				</g>
			</g>
			<g>
				<g>
					<path fill="#0A0A0A" d="M228.961,243.881L228.961,243.881c-11.189-0.882-16.904-6.34-16.957-6.395l-0.09-0.077v-0.117
						c-0.479-8.571,7.07-23.648,12.699-31.237c5.223-7.034,10.531-11.097,10.582-11.138c2.252-0.726,3.869-1.123,5.254-1.019
						c3.344,0.263,5.033,3.385,8.406,12.625c1.039,2.837,2.988,7.394,4.871,11.801c3.275,7.668,5.262,12.4,5.258,13.493
						c-0.006,2.464-5.121,9.851-21.52,11.851C234.549,244.023,231.688,244.095,228.961,243.881L228.961,243.881z M212.502,237.146
						c0.734,0.657,6.27,5.347,16.51,6.147l0,0c2.684,0.215,5.508,0.141,8.387-0.207c17.314-2.114,20.986-9.84,20.99-11.271
						c0-1.053-2.65-7.258-5.213-13.262c-1.891-4.415-3.842-8.982-4.883-11.835c-4.676-12.799-5.832-13.491-12.82-11.292l0,0
						c0.027,0.003-5.209,4.021-10.375,10.973C219.545,213.881,212.109,228.689,212.502,237.146L212.502,237.146z"/>
				</g>
			</g>
		</g>
		<g>
			<g>
				<g>
					<path fill="#3A5F83" d="M251.961,215.627c-0.41-0.973-0.814-1.926-1.203-2.846c-12.729,5.324-22.877,3.826-30.15,0.625
						c-0.498,0.879-0.986,1.787-1.479,2.715C226.699,219.871,237.775,221.973,251.961,215.627z"/>
				</g>
			</g>
			<g>
				<g>
					<path fill="#3A5F83" d="M249.641,210.062c-0.34-0.832-0.646-1.61-0.914-2.311c-10.006,3.302-18.264,2.376-24.6,0.021
						c-0.615,0.882-1.256,1.863-1.906,2.909C229.104,213.37,238.314,214.422,249.641,210.062z"/>
				</g>
			</g>
			<g>
				<g>
					<path fill="#3A5F83" d="M247.602,204.735c-0.398-1.061-0.773-2.019-1.137-2.881c-6.932,1.848-12.961,1.661-18.031,0.459
						c-0.744,0.839-1.51,1.751-2.287,2.736C231.932,206.806,239.117,207.293,247.602,204.735z"/>
				</g>
			</g>
			<g>
				<g>
					<path fill="#3A5F83" d="M254.141,220.731c-0.361-0.852-0.73-1.715-1.098-2.58c-15.596,7.822-27.627,5.464-35.605,1.37
						c-0.432,0.914-0.844,1.841-1.238,2.769C224.383,226.809,237.229,229.738,254.141,220.731z"/>
				</g>
			</g>
			<g>
				<g>
					<path fill="#3A5F83" d="M258.396,231.788c0.002-0.349-0.256-1.192-0.691-2.372c-20.551,11.584-35.709,7.077-44.486,1.679
						c-0.25,1.076-0.441,2.111-0.557,3.1c8.861,5.556,24.441,10.36,45.682-2.013C258.381,232.033,258.396,231.899,258.396,231.788z"
						/>
				</g>
			</g>
			<g>
				<g>
					<path fill="#3A5F83" d="M256.35,225.977c-0.328-0.794-0.68-1.642-1.055-2.523c-18.27,10.229-31.916,6.563-40.209,1.605
						c-0.361,0.955-0.693,1.903-0.99,2.837C222.5,233.188,236.865,237.462,256.35,225.977z"/>
				</g>
			</g>
		</g>
		<g>
			<g>
				<g>
					<path fill="#FFE2AF" d="M234.467,194.383c0,0,1.779-0.15-0.451,1.898c-2.234,2.046-1.371,6.885,2.793,7.284
						c4.162,0.4,9.92-6.484,4.51-9.3C235.91,191.445,233.662,193.189,234.467,194.383z"/>
				</g>
			</g>
			<g>
				<g>
					<path fill="#0A0A0A" d="M236.848,203.864L236.848,203.864l-0.07-0.006c-1.924-0.188-3.385-1.298-3.986-3.046
						c-0.605-1.728-0.193-3.633,1.018-4.744c1.104-1.014,1.029-1.33,1.025-1.33c-0.004-0.007-0.063-0.048-0.219-0.062
						c-0.064-0.003-0.115,0-0.123,0l-0.182,0.014l-0.096-0.146c-0.262-0.388-0.279-0.831-0.043-1.215
						c0.383-0.643,1.377-0.962,2.65-0.863c1.324,0.106,2.883,0.622,4.643,1.539c1.994,1.041,2.762,2.725,2.162,4.741
						C242.771,201.583,239.48,204.07,236.848,203.864L236.848,203.864z M234.67,194.092c0.51,0.042,0.68,0.3,0.732,0.452
						c0.162,0.452-0.207,1.049-1.182,1.947c-1.045,0.961-1.391,2.621-0.867,4.139c0.529,1.517,1.797,2.481,3.484,2.643l0.031,0.299
						l0.027-0.293c2.34,0.183,5.385-2.146,6.148-4.699c0.367-1.217,0.338-2.909-1.867-4.059c-1.658-0.866-3.18-1.372-4.402-1.466
						c-1.227-0.098-1.883,0.232-2.088,0.572c-0.107,0.176-0.096,0.335-0.043,0.465C234.652,194.092,234.662,194.092,234.67,194.092
						L234.67,194.092z"/>
				</g>
			</g>
		</g>
		<g>
			<g>
				<g>
					<path fill="#FFE2AF" d="M212.65,171.608c0,0-7.607-0.774-6.582,5.05c1.023,5.831,7.217,5.546,9.223,3.076
						C217.299,177.267,212.65,171.608,212.65,171.608z"/>
				</g>
			</g>
			<g>
				<g>
					<path fill="#0A0A0A" d="M210.85,181.677L210.85,181.677c-2.67-0.21-4.57-2.069-5.078-4.967
						c-0.275-1.565,0.02-2.826,0.887-3.751c1.75-1.876,5.256-1.701,5.939-1.648l0.131,0.011l0.156,0.104
						c0.197,0.238,4.777,5.871,2.641,8.492C214.553,181.111,212.676,181.818,210.85,181.677L210.85,181.677z M212.496,171.891
						c-0.77-0.046-3.9-0.137-5.395,1.465c-0.734,0.781-0.98,1.877-0.738,3.257c0.66,3.774,3.391,4.39,4.531,4.48
						c1.637,0.129,3.311-0.49,4.156-1.54C216.756,177.462,213.086,172.646,212.496,171.891L212.496,171.891z"/>
				</g>
			</g>
		</g>
		<g>
			<g>
				<g>
					<path fill="#FFE2AF" d="M270.426,173.532c0,0,7.635,0.418,5.672,6.016c-1.967,5.596-8.031,4.346-9.611,1.594
						C264.91,178.39,270.426,173.532,270.426,173.532z"/>
				</g>
			</g>
			<g>
				<g>
					<path fill="#0A0A0A" d="M270.561,183.749c-1.828-0.143-3.57-1.135-4.338-2.465c-1.674-2.922,3.768-7.768,4.002-7.97
						l0.092-0.082l0.123,0.007c0.006,0,0.006,0,0.012,0c0.783,0.059,4.246,0.442,5.67,2.56c0.701,1.049,0.787,2.339,0.26,3.845
						C275.402,182.424,273.23,183.96,270.561,183.749L270.561,183.749z M270.533,173.836c-0.707,0.645-5.117,4.834-3.783,7.163
						c0.672,1.17,2.221,2.038,3.855,2.166c1.143,0.088,3.936-0.092,5.207-3.713c0.465-1.322,0.398-2.443-0.197-3.33
						C274.365,174.257,271.121,173.884,270.533,173.836L270.533,173.836z"/>
				</g>
			</g>
		</g>
		<g>
			<g>
				<g>
					<path fill="#FFE2AF" d="M224.182,142.169c8.16-4.313,18.039-5.434,27.014-3.005c2.977,0.8,6.068,2.082,8.678,3.694
						c13.996,8.651,18.588,24.661,9.334,39.839c-9.225,15.117-38.182,23.339-55.469-0.716c-7.854-10.921-6.414-26.512,4.285-35.643
						C219.916,144.724,221.988,143.333,224.182,142.169z"/>
				</g>
			</g>
			<g>
				<g>
					<path fill="#0A0A0A" d="M238.939,197.354c-7.023-0.554-17.133-3.637-25.447-15.205c-8.078-11.233-6.174-27.063,4.334-36.029
						c1.881-1.608,3.973-3.023,6.209-4.211c8.145-4.301,18.33-5.439,27.238-3.026c3.117,0.841,6.227,2.162,8.762,3.729
						c14.527,8.982,18.402,25.523,9.428,40.239C263.666,192.346,251.115,198.309,238.939,197.354L238.939,197.354z M244.516,138.31
						c-6.967-0.547-14.135,0.918-20.191,4.117c-2.199,1.166-4.254,2.554-6.105,4.132c-10.281,8.777-12.139,24.264-4.236,35.257
						c8.182,11.376,18.113,14.41,25.004,14.952c11.957,0.938,24.273-4.907,29.957-14.218c8.941-14.649,5.234-30.503-9.227-39.444
						c-2.486-1.533-5.541-2.831-8.602-3.662C248.98,138.865,246.76,138.482,244.516,138.31L244.516,138.31z"/>
				</g>
			</g>
		</g>
		<g>
			<g>
				<g>
					<path fill="#683C32" d="M259.865,142.858c-2.613-1.612-5.701-2.895-8.674-3.694c-8.979-2.429-18.857-1.309-27.018,3.005
						c-2.193,1.161-4.262,2.555-6.156,4.17c-8.293,7.079-10.902,17.6-8.254,27.388c0.688-7.33,3.74-12.984,3.785-13.073
						c4.455-10.041,14.473-15.828,25.203-17.567c14.447-2.345,28.881,5.735,31.709,20.146c0.936,4.743,1.617,10.306,1.238,15.131
						C278.119,164.875,272.498,150.667,259.865,142.858z"/>
				</g>
			</g>
			<g>
				<g>
					<path fill="#0A0A0A" d="M209.473,173.8c-2.83-10.459,0.295-20.805,8.348-27.68c1.883-1.61,3.973-3.026,6.215-4.211
						c8.135-4.301,18.318-5.439,27.236-3.026c3.111,0.841,6.223,2.159,8.762,3.729c13.406,8.289,18.203,22.706,11.939,35.873
						l-0.568-0.145c0.402-5.198-0.449-11.056-1.236-15.053c-2.184-11.134-11.861-19.26-24.074-20.219
						c-2.42-0.191-4.873-0.088-7.289,0.304c-11.822,1.92-20.926,8.26-24.98,17.402c-0.539,1.034-3.135,6.307-3.764,12.975
						L209.473,173.8L209.473,173.8z M244.508,138.31c-6.965-0.547-14.137,0.915-20.186,4.117c-2.203,1.166-4.264,2.554-6.109,4.132
						c-7.467,6.372-10.594,15.796-8.549,25.475c0.865-5.978,3.117-10.561,3.602-11.478c4.146-9.342,13.414-15.807,25.438-17.761
						c2.467-0.396,4.969-0.503,7.438-0.308c12.486,0.979,22.375,9.294,24.615,20.689c0.715,3.62,1.479,8.752,1.332,13.575
						c5.1-12.478,0.264-25.831-12.377-33.646c-2.486-1.533-5.539-2.835-8.6-3.662C248.977,138.865,246.752,138.482,244.508,138.31
						L244.508,138.31z"/>
				</g>
			</g>
		</g>
		<g>
			<g>
				<g>
					<path fill="#FF9F80" d="M225.152,180.51c0,0,12.633,7.331,27.012-2.859c0,0,1.723,15.558-10.58,17.031
						C229.281,196.15,225.152,180.51,225.152,180.51z"/>
				</g>
			</g>
			<g>
				<g>
					<path fill="#0A0A0A" d="M238.975,195.032c-10.393-0.816-14.076-14.313-14.117-14.448l-0.174-0.688l0.621,0.361
						c0.039,0.021,3.537,2.018,8.846,2.434c6.207,0.488,12.209-1.286,17.832-5.273l0.42-0.3l0.057,0.502
						c0.02,0.155,1.613,15.864-10.836,17.349C240.725,195.082,239.834,195.098,238.975,195.032L238.975,195.032z M225.645,181.095
						c0.879,2.685,4.715,12.673,13.379,13.351c0.814,0.067,1.668,0.048,2.527-0.054c10.623-1.273,10.506-13.53,10.35-16.199
						c-5.621,3.858-11.607,5.569-17.797,5.083C229.939,182.946,226.906,181.704,225.645,181.095L225.645,181.095z"/>
				</g>
			</g>
		</g>
		<g>
			<g>
				<path d="M251.051,167.35c-0.125,1.572-1.035,2.782-2.025,2.706c-0.988-0.076-1.688-1.419-1.559-2.987
					c0.127-1.572,1.035-2.786,2.023-2.711C250.484,164.439,251.184,165.775,251.051,167.35z"/>
			</g>
		</g>
		<g>
			<g>
				<path d="M227.959,168.243c0.018,1.577-0.775,2.867-1.77,2.875c-0.992,0.009-1.814-1.263-1.828-2.842
					c-0.016-1.578,0.775-2.862,1.771-2.871C227.123,165.395,227.943,166.665,227.959,168.243z"/>
			</g>
		</g>
		<g>
			<g>
				<g>
					<path fill="#0A0A0A" d="M240.502,144.365c-1.588-0.13-2.385-1.172-2.422-1.219l0.486-0.343c0.029,0.039,0.75,0.973,2.201,0.986
						c1.355,0.019,3.633-0.785,6.795-4.732c1.807-2.25,2.656-5.485,2.707-6.453l0.602,0.03c-0.061,1.176-0.982,4.476-2.834,6.785
						c-2.668,3.326-5.115,4.994-7.293,4.955C240.66,144.373,240.576,144.37,240.502,144.365L240.502,144.365z"/>
				</g>
			</g>
			<g>
				<g>
					<path fill="#0A0A0A" d="M243.873,145.354c-2.266-0.178-3.863-1.04-3.893-1.058l0.295-0.509
						c0.25,0.137,6.201,3.331,11.355-2.172c2.457-2.626,3.248-3.925,4.006-5.675l0.551,0.226c-0.783,1.817-1.596,3.153-4.113,5.841
						C249.281,144.989,246.215,145.534,243.873,145.354L243.873,145.354z"/>
				</g>
			</g>
			<g>
				<g>
					<path fill="#0A0A0A" d="M249.979,147.035c-1.51-0.121-3.061-0.693-4.645-1.724l0.336-0.486c2.396,1.561,4.699,2.01,6.857,1.35
						c4.611-1.419,7.096-7.498,7.121-7.562l0.557,0.215c-0.104,0.259-2.611,6.399-7.494,7.903
						C251.818,147.005,250.902,147.105,249.979,147.035L249.979,147.035z"/>
				</g>
			</g>
		</g>
		<g opacity="0.5">
			<g>
				<path fill="#FFE2AF" d="M226.059,147.389c0,0-16.609,16.375-8.063,33.117c8.541,16.741,26.678,16.832,37.367,13.732
					c0,0-15.777,6.719-30.008-1.438c-14.23-8.155-15.547-19.506-15.547-19.506S210.869,156.347,226.059,147.389z"/>
			</g>
		</g>
		<g opacity="0.51">
			<g>
				<path fill="#C44451" d="M215.574,239.989c0,0-4.889,15.891,9.338,18.526c0,0-13.908-0.506-14.484-3.516
					s1.389-16.044,1.727-17.386C212.154,237.614,214.352,239.382,215.574,239.989z"/>
			</g>
		</g>
	</g>
	<g>
		<g>
			<g>
				<path fill="#FFD9B6" d="M178.757,152.788c3.274,3.337,5.804,10.457,5.804,16.604c0,16.401-15.207,29.7-33.963,29.7
					c-10.373,0-19.663-4.063-25.889-10.472c0,0-8.181,0.726-8.664-4.447c-0.42-4.519,5.726-5.092,7.239-4.018
					c0,0-2.357-7.387,0.59-13.844c0,0,0.844,2.295,2.944,3.942c0,0,2.864-8.749,5.472-10.976c0,0,0.086,2.082,0.925,4.452
					c0,0,6.903-9.186,13.72-12.559c0,0-0.587,4.092-0.921,4.952c0,0,5.048-3.301,12.789-5.524c0,0-1.345,4.018-1.514,4.88
					c-0.168,0.857,7.494-6.386,8.671-7.677c0,0,0.251,2.438,3.114,5.305c0,0-0.087-2.362,1.176-5.232
					C170.25,147.876,171.672,151.423,178.757,152.788z"/>
			</g>
			<g>
				<path fill="#0A0A0A" d="M150.598,199.308c-10.015,0-19.482-3.81-26-10.465c-0.168,0.01-0.483,0.024-0.902,0.024
					c-2.245,0-7.512-0.455-7.9-4.678c-0.124-1.317,0.276-2.413,1.182-3.251c0.996-0.916,2.583-1.465,4.247-1.465
					c0.646,0,1.227,0.09,1.675,0.247c-0.456-1.77-1.768-7.997,0.737-13.487c0.039-0.086,0.141-0.124,0.246-0.135
					c0.106,0,0.199,0.06,0.231,0.147c0.007,0.022,0.766,2.04,2.577,3.606c0.568-1.673,3.064-8.711,5.418-10.721
					c0.071-0.063,0.18-0.086,0.273-0.051c0.096,0.027,0.159,0.106,0.16,0.189c0.002,0.022,0.081,1.827,0.764,3.952
					c1.417-1.799,7.515-9.273,13.504-12.235c0.083-0.04,0.182-0.036,0.263,0.005c0.083,0.05,0.126,0.129,0.113,0.208
					c-0.02,0.143-0.434,3.01-0.768,4.41c1.53-0.909,6.073-3.424,12.304-5.214c0.089-0.025,0.188-0.006,0.255,0.051
					c0.067,0.055,0.097,0.134,0.067,0.211c-0.011,0.036-1.082,3.236-1.423,4.502c1.443-1.029,6.941-6.179,8.137-7.487
					c0.064-0.071,0.174-0.101,0.271-0.077c0.097,0.025,0.169,0.102,0.182,0.187c0.003,0.024,0.256,2.16,2.622,4.741
					c0.053-0.888,0.274-2.674,1.181-4.725c0.036-0.088,0.132-0.153,0.24-0.14c0.106,0,0.2,0.06,0.236,0.145
					c0.013,0.034,1.479,3.451,8.326,4.774c0.056,0.013,0.1,0.035,0.137,0.073c3.341,3.398,5.858,10.599,5.858,16.741
					C184.811,185.891,169.462,199.308,150.598,199.308z M124.708,188.405c0.075,0,0.145,0.029,0.196,0.079
					c6.417,6.607,15.784,10.393,25.693,10.393c18.587,0,33.708-13.225,33.708-29.484c0-6.02-2.441-13.055-5.684-16.409
					c-5.568-1.093-7.668-3.5-8.34-4.544c-1.015,2.577-0.957,4.647-0.957,4.666c0.003,0.091-0.06,0.174-0.162,0.206
					c-0.1,0.032-0.215,0.008-0.284-0.06c-2.165-2.173-2.86-4.089-3.08-4.952c-1.608,1.613-7.694,7.466-8.467,7.466
					c-0.075,0-0.18-0.039-0.227-0.087c-0.041-0.044-0.087-0.119-0.063-0.233c0.138-0.715,1.042-3.468,1.387-4.508
					c-7.361,2.186-12.218,5.324-12.267,5.356c-0.088,0.057-0.208,0.061-0.301,0.005c-0.088-0.055-0.128-0.155-0.091-0.243
					c0.261-0.665,0.687-3.394,0.85-4.47c-6.544,3.478-13.123,12.171-13.193,12.259c-0.051,0.07-0.147,0.112-0.249,0.098
					c-0.094-0.013-0.179-0.07-0.207-0.15c-0.596-1.687-0.817-3.21-0.891-3.981c-2.432,2.644-4.993,10.42-5.021,10.505
					c-0.021,0.069-0.086,0.126-0.171,0.148c-0.086,0.021-0.176,0-0.241-0.05c-1.517-1.188-2.387-2.688-2.772-3.483
					c-2.52,6.181-0.368,13.099-0.347,13.165c0.027,0.094-0.015,0.188-0.108,0.24c-0.093,0.052-0.215,0.046-0.3-0.013
					c-0.366-0.264-1.075-0.417-1.896-0.417c-1.525,0-2.975,0.493-3.877,1.325c-0.809,0.745-1.164,1.731-1.05,2.923
					c0.358,3.87,5.294,4.288,7.398,4.288c0.595,0,0.985-0.037,0.987-0.037C124.692,188.405,124.7,188.405,124.708,188.405z"/>
			</g>
		</g>
		<g>
			<g>
				<path fill="#8E692F" d="M178.757,152.788c-7.085-1.365-8.508-4.912-8.508-4.912c-1.263,2.87-1.176,5.232-1.176,5.232
					c-2.863-2.867-3.114-5.305-3.114-5.305c-1.178,1.291-8.84,8.534-8.671,7.677c0.169-0.862,1.514-4.88,1.514-4.88
					c-7.741,2.224-12.789,5.524-12.789,5.524c0.334-0.86,0.921-4.952,0.921-4.952c-6.817,3.373-13.72,12.559-13.72,12.559
					c-0.839-2.37-0.925-4.452-0.925-4.452c-2.607,2.227-5.472,10.976-5.472,10.976c-2.1-1.647-2.944-3.942-2.944-3.942
					c-2.947,6.457-0.59,13.844-0.59,13.844s-6.523-2.046-7.026,3.555c-0.505,5.592,8.46,5.053,8.46,5.053l4.542,3.552
					c0,0-4.531,1.021-8.084-3.013c-1.132-1.293-2.143,1.073-2.143,2.043s-4.292-1.723-4.292-6.131c0,0-1.39,1.182-1.136,2.368
					c0.251,1.181-3.918-3.556-2.273-8.288c0,0-2.024,0.54-3.029,2.258c-1.011,1.725-1.391-5.271,1.639-7.315
					c0,0-2.144-0.217-4.289,0.646c-2.15,0.86,1.729-3.569,4.289-4.519c2.02-0.753-3.248-0.004-7.195-4.092
					c-1.767-1.829,2.906-0.214,5.051-0.857c0,0-3.318-3.478-2.778-6.458c0.252-1.401,2.144,1.507,4.418,1.724
					c0,0-2.024-6.778,0.503-10.763c0,0,3.664,2.259,5.683,2.259c0,0-0.126-3.872,1.388-7.104c0,0,3.409,2.152,5.049,2.152
					c0,0,0.458-4.984,2.778-7.528c1.769-1.939,4.042,1.719,4.042,1.719s1.688-4.757,4.924-6.134
					c1.769-0.753,1.893,3.553,1.893,3.553s4.334-3.984,9.596-4.626c2.654-0.323-0.758,3.229-0.758,3.229s6.799-4.212,12.624-3.339
					c2.148,0.324-1.512,3.659-1.512,3.659s3.537-1.183,7.827-0.533c4.295,0.643-1.391,2.899-1.391,2.899s5.713,0.249,9.597,3.229
					c1.265,0.97-2.145,1.4-2.145,1.4s8.053,0.43,8.963,3.016c0.382,1.075-0.633,2.691-0.633,2.691s4.546,2.58,4.926,8.928
					C182.792,159.389,181.041,155.015,178.757,152.788z"/>
			</g>
			<g>
				<path fill="#0A0A0A" d="M127.932,192.646c-1.538,0-4.494-0.419-6.953-3.218c-0.12-0.129-0.29-0.287-0.478-0.287
					c-0.572,0-1.217,1.44-1.217,2.204c0,0.246-0.188,0.413-0.47,0.413c-0.61,0.003-1.718-0.785-2.573-1.829
					c-0.726-0.887-1.579-2.298-1.73-4.144c-0.358,0.422-0.798,1.101-0.659,1.756c0.022,0.096,0.037,0.235-0.065,0.345
					c-0.046,0.05-0.165,0.091-0.238,0.091l0,0c-0.137,0-0.33-0.055-0.708-0.49c-0.887-1.006-2.865-4.302-1.884-7.825
					c-0.626,0.261-1.765,0.857-2.431,1.988c-0.054,0.099-0.229,0.39-0.526,0.39l0,0c-0.211,0-0.373-0.134-0.48-0.4
					c-0.451-1.109-0.267-5.294,1.812-7.211c-0.745-0.005-2.151,0.077-3.571,0.652c-0.571,0.224-0.904,0.132-0.972-0.159
					c-0.204-0.813,2.99-3.984,5.053-4.757c0.041-0.015,0.073-0.025,0.103-0.038c-0.134-0.039-0.307-0.077-0.468-0.115
					c-1.445-0.329-4.438-1.023-6.925-3.601c-0.273-0.285-0.569-0.645-0.401-0.945c0.151-0.276,0.594-0.313,0.958-0.313
					c0.377,0,0.86,0.043,1.376,0.088c0.967,0.091,2.156,0.175,2.878,0.055c-0.762-0.88-3.064-3.771-2.596-6.37
					c0.085-0.466,0.356-0.561,0.568-0.561c0.36,0,0.776,0.304,1.351,0.725c0.686,0.505,1.518,1.111,2.414,1.317
					c-0.374-1.421-1.635-7.033,0.618-10.59c0.034-0.055,0.095-0.097,0.167-0.107c0.072-0.013,0.146,0,0.203,0.035
					c0.036,0.02,3.322,2.036,5.278,2.207c0.004-0.895,0.106-4.179,1.412-6.955c0.028-0.063,0.088-0.109,0.165-0.125
					c0.073-0.021,0.158-0.009,0.22,0.034c0.029,0.021,3.052,1.918,4.671,2.093c0.114-0.994,0.708-5.134,2.808-7.433
					c0.391-0.436,0.846-0.655,1.346-0.655c1.205,0,2.317,1.299,2.824,1.991c0.518-1.245,2.145-4.646,4.88-5.808
					c0.168-0.074,0.342-0.113,0.505-0.113c1.304,0,1.64,2.244,1.724,3.354c1.209-1.005,4.919-3.8,9.334-4.342
					c0.8-0.098,1.102,0.156,1.219,0.356c0.289,0.529-0.311,1.492-0.891,2.243c1.936-1.02,5.943-2.827,9.909-2.827
					c0.592,0,1.166,0.045,1.71,0.124c0.547,0.085,0.754,0.334,0.831,0.534c0.3,0.761-0.841,2.111-1.603,2.894
					c0.917-0.218,2.493-0.503,4.414-0.503c0.906,0,1.806,0.065,2.671,0.194c1.142,0.17,1.731,0.484,1.808,0.941
					c0.112,0.749-1.361,1.572-2.355,2.035c1.765,0.192,5.835,0.877,8.878,3.213c0.39,0.293,0.397,0.561,0.338,0.733
					c-0.118,0.331-0.622,0.566-1.159,0.734c2.416,0.263,7.004,1.027,7.715,3.04c0.334,0.946-0.298,2.226-0.553,2.685
					c0.869,0.561,4.479,3.23,4.849,8.919c0.014,0.024,0.02,0.052,0.02,0.079c0,0.12-0.119,0.22-0.258,0.214
					c-0.113,0.008-0.211-0.055-0.248-0.145c-0.017-0.042-1.732-4.289-3.929-6.472c-5.57-1.096-7.67-3.503-8.342-4.547
					c-1.015,2.577-0.957,4.647-0.957,4.666c0.003,0.091-0.06,0.174-0.162,0.206c-0.1,0.032-0.215,0.008-0.284-0.06
					c-2.165-2.173-2.86-4.089-3.08-4.952c-1.608,1.613-7.694,7.466-8.467,7.466c-0.075,0-0.18-0.039-0.227-0.087
					c-0.041-0.044-0.087-0.119-0.063-0.233c0.138-0.715,1.042-3.468,1.387-4.508c-7.354,2.186-12.218,5.324-12.267,5.356
					c-0.088,0.057-0.208,0.057-0.301,0.005c-0.088-0.055-0.128-0.155-0.091-0.243c0.261-0.665,0.687-3.394,0.85-4.47
					c-6.544,3.478-13.123,12.171-13.193,12.259c-0.051,0.07-0.147,0.112-0.249,0.098c-0.094-0.013-0.179-0.07-0.207-0.15
					c-0.596-1.687-0.817-3.21-0.891-3.981c-2.432,2.644-4.993,10.42-5.021,10.505c-0.021,0.069-0.086,0.126-0.171,0.148
					c-0.086,0.021-0.176,0-0.241-0.05c-1.517-1.188-2.387-2.688-2.772-3.483c-2.52,6.181-0.368,13.099-0.347,13.165
					c0.024,0.082-0.005,0.163-0.079,0.219c-0.067,0.055-0.164,0.071-0.255,0.04c-0.011-0.001-1.141-0.347-2.454-0.347
					c-2.587,0-4.014,1.246-4.235,3.716c-0.113,1.241,0.262,2.268,1.104,3.046c2.245,2.064,7.064,1.782,7.088,1.778
					c0.067-0.004,0.134,0.021,0.188,0.056l4.543,3.553c0.07,0.055,0.099,0.134,0.075,0.208c-0.022,0.08-0.09,0.138-0.186,0.156
					C129.304,192.529,128.771,192.646,127.932,192.646z M120.501,188.711c0.314,0,0.612,0.153,0.881,0.466
					c2.329,2.644,5.101,3.036,6.55,3.036c0.308,0,0.574-0.01,0.777-0.037l-4.086-3.191c-0.747,0.033-5.168,0.115-7.383-1.925
					c-0.941-0.867-1.358-2.002-1.236-3.372c0.445-4.953,5.418-4.206,6.934-3.85c-0.431-1.591-1.863-7.982,0.7-13.604
					c0.039-0.086,0.141-0.124,0.246-0.135c0.106,0,0.199,0.06,0.231,0.147c0.007,0.022,0.766,2.04,2.577,3.606
					c0.568-1.673,3.064-8.711,5.418-10.721c0.071-0.063,0.18-0.086,0.273-0.051c0.096,0.027,0.159,0.106,0.16,0.189
					c0.002,0.022,0.081,1.827,0.764,3.952c1.417-1.799,7.515-9.273,13.504-12.235c0.083-0.04,0.182-0.036,0.263,0.005
					c0.083,0.05,0.126,0.129,0.113,0.208c-0.02,0.143-0.434,3.01-0.768,4.41c1.53-0.909,6.073-3.424,12.304-5.214
					c0.089-0.025,0.188-0.006,0.255,0.051c0.067,0.055,0.097,0.134,0.067,0.211c-0.011,0.036-1.082,3.236-1.423,4.502
					c1.443-1.029,6.941-6.179,8.137-7.487c0.064-0.071,0.174-0.101,0.271-0.077c0.097,0.025,0.169,0.102,0.182,0.187
					c0.003,0.024,0.256,2.16,2.622,4.741c0.053-0.888,0.274-2.674,1.181-4.725c0.036-0.088,0.132-0.153,0.24-0.14
					c0.106,0,0.2,0.06,0.236,0.145c0.013,0.034,1.479,3.451,8.326,4.774c0.052,0.013,0.099,0.035,0.135,0.071
					c1.444,1.413,2.669,3.642,3.39,5.129c-0.946-4.999-4.57-7.12-4.612-7.143c-0.109-0.06-0.146-0.181-0.084-0.281
					c0.01-0.015,0.957-1.551,0.612-2.525c-0.848-2.413-8.658-2.854-8.737-2.859c-0.129-0.009-0.233-0.093-0.236-0.205
					c-0.004-0.11,0.086-0.209,0.214-0.222c0.98-0.13,2.103-0.438,2.204-0.739c0.036-0.091-0.085-0.209-0.189-0.291
					c-3.769-2.89-9.383-3.169-9.438-3.171c-0.116-0.005-0.213-0.074-0.237-0.173c-0.021-0.097,0.037-0.194,0.144-0.236
					c1.229-0.49,2.926-1.409,2.844-1.924c-0.035-0.241-0.544-0.444-1.393-0.572c-0.833-0.129-1.706-0.192-2.583-0.192
					c-2.938,0-5.088,0.71-5.109,0.718c-0.109,0.038-0.233,0.003-0.3-0.082c-0.067-0.082-0.056-0.191,0.025-0.266
					c0.938-0.857,2.337-2.442,2.094-3.054c-0.032-0.085-0.113-0.197-0.441-0.25c-0.514-0.073-1.06-0.114-1.622-0.114
					c-5.236,0-10.758,3.379-10.81,3.418c-0.106,0.06-0.247,0.049-0.332-0.03c-0.086-0.08-0.091-0.199-0.011-0.285
					c0.844-0.877,1.921-2.317,1.675-2.764c-0.065-0.118-0.306-0.155-0.688-0.111c-5.117,0.624-9.402,4.519-9.443,4.56
					c-0.076,0.06-0.183,0.082-0.278,0.058c-0.098-0.034-0.159-0.113-0.163-0.197c-0.043-1.427-0.457-3.429-1.247-3.429
					c-0.087,0-0.178,0.019-0.282,0.063c-3.101,1.323-4.777,5.957-4.792,6.007c-0.033,0.079-0.118,0.14-0.22,0.149
					c-0.102,0.006-0.2-0.035-0.247-0.115c-0.377-0.604-1.589-2.172-2.668-2.172c-0.342,0-0.654,0.156-0.949,0.479
					c-2.253,2.468-2.722,7.37-2.729,7.422c-0.008,0.11-0.118,0.196-0.251,0.196c-1.445,0-4.08-1.514-4.932-2.03
					c-1.354,3.095-1.254,6.721-1.252,6.761c0,0.058-0.026,0.115-0.072,0.154c-0.046,0.04-0.11,0.067-0.181,0.067
					c-1.793,0-4.729-1.647-5.589-2.161c-2.25,3.89-0.373,10.322-0.352,10.392c0.018,0.068,0,0.14-0.052,0.194
					c-0.056,0.052-0.138,0.079-0.221,0.071c-1.191-0.113-2.269-0.901-3.055-1.479c-0.396-0.292-0.843-0.618-1.017-0.618
					c-0.004,0.002-0.042,0.043-0.069,0.194c-0.517,2.855,2.689,6.254,2.722,6.288c0.052,0.052,0.068,0.125,0.05,0.193
					c-0.024,0.069-0.083,0.121-0.161,0.143c-0.387,0.121-0.88,0.179-1.494,0.179c-0.648,0-1.345-0.066-1.956-0.118
					c-0.499-0.052-0.97-0.091-1.321-0.091c-0.432,0-0.504,0.066-0.504,0.068l0,0c0,0-0.024,0.118,0.334,0.485
					c2.388,2.471,5.279,3.139,6.669,3.458c0.693,0.162,1.008,0.233,1.03,0.489c0.021,0.229-0.271,0.357-0.594,0.479
					c-2.031,0.752-4.652,3.585-4.763,4.206c0.052-0.006,0.134-0.029,0.262-0.079c1.494-0.605,2.997-0.693,3.759-0.693
					c0.416,0,0.667,0.027,0.667,0.027c0.103,0.011,0.187,0.072,0.214,0.157c0.028,0.084-0.003,0.172-0.085,0.224
					c-1.527,1.034-2.178,3.494-2.264,5.292c-0.055,1.057,0.075,1.648,0.179,1.856c0.016-0.023,0.038-0.059,0.062-0.093
					c1.047-1.786,3.095-2.349,3.179-2.372c0.092-0.019,0.189-0.004,0.253,0.052c0.065,0.058,0.092,0.143,0.065,0.219
					c-1.206,3.474,0.863,7.031,1.746,7.973c-0.028-1.173,1.183-2.222,1.241-2.273c0.073-0.061,0.182-0.08,0.275-0.047
					c0.096,0.039,0.157,0.113,0.157,0.204c0,2.018,0.902,3.543,1.664,4.466c0.904,1.108,1.815,1.607,2.123,1.646
					C118.803,190.482,119.446,188.711,120.501,188.711z"/>
			</g>
		</g>
		<g>
			<g>
				<path fill="#0A0A0A" d="M177.994,150.726c-0.066,0-0.135-0.023-0.182-0.064c-0.021-0.018-1.824-1.601-3.349-2.331
					c-0.122-0.055-0.166-0.187-0.098-0.293c0.064-0.104,0.224-0.143,0.342-0.079c1.594,0.758,3.395,2.336,3.464,2.401
					c0.102,0.09,0.098,0.222-0.002,0.308C178.12,150.704,178.054,150.726,177.994,150.726L177.994,150.726z"/>
			</g>
		</g>
		<g>
			<g>
				<path fill="#0A0A0A" d="M124.717,188.977c-0.078,0-0.159-0.024-0.208-0.084c-0.059-0.072-1.466-1.702-1.727-2.813
					c-0.026-0.115,0.06-0.227,0.2-0.252c0.128-0.024,0.271,0.053,0.297,0.17c0.24,1.014,1.625,2.624,1.638,2.638
					c0.084,0.096,0.06,0.229-0.055,0.3C124.819,188.966,124.767,188.977,124.717,188.977L124.717,188.977z"/>
			</g>
		</g>
		<g>
			<g>
				<path d="M152.463,171.42c0.434,1.339-0.07,2.628-1.122,2.875c-1.054,0.246-2.259-0.638-2.694-1.978
					c-0.433-1.342,0.067-2.628,1.122-2.872C150.824,169.195,152.027,170.084,152.463,171.42z"/>
			</g>
		</g>
		<g>
			<g>
				<path d="M175.441,166.794c0.431,1.342-0.071,2.626-1.124,2.879c-1.051,0.246-2.256-0.639-2.69-1.983
					c-0.437-1.34,0.067-2.627,1.122-2.876C173.802,164.57,175.005,165.454,175.441,166.794z"/>
			</g>
		</g>
		<g>
			<g>
				<path fill="#0A0A0A" d="M159.673,190.496c-6.892,0-9.54-6.011-9.57-6.071c-0.044-0.112,0.021-0.235,0.156-0.274
					c0.124-0.04,0.273,0.015,0.321,0.13c0.028,0.058,2.685,6.021,9.556,5.778c7.829-0.32,10.399-5.625,10.425-5.68
					c0.053-0.113,0.198-0.159,0.331-0.118c0.129,0.045,0.19,0.166,0.141,0.279c-0.026,0.055-2.723,5.619-10.873,5.942
					C159.999,190.49,159.835,190.496,159.673,190.496L159.673,190.496z"/>
			</g>
		</g>
		<g>
			<g>
				<path fill="#0A0A0A" d="M147.314,185.857c-0.122,0-0.232-0.073-0.25-0.181c-0.021-0.115,0.074-0.228,0.209-0.246
					c2.984-0.408,4.089-2.644,4.099-2.668c0.052-0.107,0.2-0.164,0.331-0.117c0.125,0.044,0.193,0.172,0.142,0.284
					c-0.055,0.1-1.235,2.481-4.489,2.928C147.34,185.857,147.327,185.857,147.314,185.857L147.314,185.857z"/>
			</g>
		</g>
		<g>
			<g>
				<path fill="#FFEF43" d="M145.798,198.772c0,0-14.391,10.33-27.017,13.983c0,0-3.098,3.845,3.531,11.947
					c7.578,9.256,24.622,14.741,34.722,11.188c0,0,14.267-16.138,2.78-37.983C159.815,197.908,154.132,199.523,145.798,198.772z"/>
			</g>
			<g>
				<path fill="#0A0A0A" d="M149.936,237.198c-10.256,0-21.959-5.203-27.828-12.367c-6.655-8.139-3.668-12.033-3.535-12.195
					c0.031-0.036,0.071-0.065,0.123-0.082c12.441-3.604,26.796-13.844,26.938-13.948c0.057-0.038,0.125-0.053,0.191-0.049
					c1.464,0.131,2.942,0.2,4.398,0.2c5.74,0,9.472-1.041,9.513-1.05c0.121-0.038,0.258,0.015,0.308,0.115
					c11.416,21.707-2.666,38.037-2.805,38.203c-0.026,0.031-0.063,0.053-0.108,0.069
					C155.043,236.825,152.624,237.198,149.936,237.198z M118.948,212.937c-0.329,0.504-2.431,4.3,3.577,11.645
					c5.685,6.945,17.473,12.188,27.412,12.188c2.591,0,4.923-0.356,6.937-1.049c0.819-0.979,13.63-16.736,2.801-37.55
					c-0.891,0.226-4.413,1.02-9.451,1.02c-1.438,0-2.903-0.069-4.344-0.194C144.684,199.841,130.957,209.429,118.948,212.937z"/>
			</g>
		</g>
		<g>
			<g>
				<path fill="#FFEF43" d="M160.403,199.74c0,0-5.975-1.223-17.422,7.744c-11.45,8.97-18.264,11.192-12.626,23.532
					c0,0-15.154-9.825-11.573-18.261c0,0,8.037-2.183,15.949-7.135c7.915-4.949,11.068-6.849,11.068-6.849l14.017-0.864
					L160.403,199.74z"/>
			</g>
		</g>
		<g>
			<g>
				<g>
					<path fill="#0AA4E4" d="M120.549,222.332c0,0-3.409,13.35-1.137,25.183c0,0,15.861,6.592,33.458,4.09
						c0.758-0.11-0.76-14.526-0.76-14.526S133.3,238.37,120.549,222.332z"/>
				</g>
				<g>
					<path fill="#0A0A0A" d="M144.645,252.387c-13.922,0-25.229-4.633-25.34-4.678c-0.079-0.033-0.131-0.093-0.142-0.158
						c-2.256-11.743,1.103-25.13,1.138-25.258c0.021-0.092,0.101-0.154,0.2-0.168c0.096-0.019,0.2,0.017,0.258,0.091
						c10.824,13.612,25.954,14.672,30.333,14.672c0.639,0,0.989-0.023,1-0.023c0.125-0.005,0.258,0.077,0.269,0.194
						c1.54,14.616,0.82,14.72,0.547,14.759C150.254,252.194,147.472,252.387,144.645,252.387z M119.637,247.369
						c1.235,0.491,11.963,4.582,25.007,4.582c2.767,0,5.487-0.184,8.092-0.544c0.355-0.902-0.319-8.975-0.855-14.103
						c-0.174,0.006-0.444,0.015-0.789,0.015c-4.397,0-19.474-1.052-30.417-14.441C120.1,225.39,117.685,237.012,119.637,247.369z"/>
				</g>
			</g>
			<g>
				<g>
					<g>
						<path fill="#0A0A0A" d="M147.317,252.463c-0.022,0-0.037,0-0.054,0c-0.134-0.027-0.226-0.14-0.194-0.254
							c1.235-5.053-0.612-9.961-0.628-10.007c-0.041-0.109,0.028-0.235,0.165-0.271c0.13-0.039,0.275,0.027,0.316,0.14
							c0.019,0.047,1.902,5.059,0.641,10.223C147.535,252.398,147.434,252.463,147.317,252.463L147.317,252.463z"/>
					</g>
				</g>
				<g>
					<g>
						<path fill="#0A0A0A" d="M145.971,242.517c-1.078,0-1.818-0.411-1.825-0.419c-0.118-0.063-0.148-0.197-0.075-0.298
							c0.078-0.1,0.235-0.124,0.352-0.061c0.087,0.049,2.132,1.157,4.349-0.83c0.098-0.083,0.263-0.085,0.358-0.006
							c0.099,0.082,0.103,0.217,0.008,0.308C147.995,242.232,146.87,242.517,145.971,242.517L145.971,242.517z"/>
					</g>
				</g>
			</g>
			<g>
				<g>
					<g>
						<path fill="#0AC3C8" d="M118.781,232.236c0,0,3.531,2.152,9.844,2.256c0,0-1.132,7.858-2.521,9.152
							c-1.387,1.285-6.946,0.645-6.946,0.645S118.025,239.664,118.781,232.236z"/>
					</g>
					<g>
						<path fill="#0A0A0A" d="M122.115,244.664c-1.563,0-2.976-0.161-2.991-0.164c-0.103-0.012-0.188-0.083-0.211-0.167
							c-0.013-0.053-1.135-4.746-0.384-12.116c0.008-0.077,0.065-0.143,0.145-0.176c0.085-0.035,0.181-0.027,0.251,0.022
							c0.038,0.019,3.559,2.115,9.71,2.216c0.07,0.002,0.137,0.027,0.183,0.073c0.05,0.047,0.074,0.106,0.063,0.167
							c-0.048,0.326-1.162,7.941-2.592,9.268C125.663,244.366,124.258,244.664,122.115,244.664z M119.374,244.092
							c0.42,0.044,1.535,0.14,2.741,0.14c1.969,0,3.283-0.255,3.803-0.734c1.058-0.98,2.077-6.469,2.426-8.794
							c-5.086-0.134-8.309-1.556-9.347-2.095C118.389,238.984,119.193,243.256,119.374,244.092z"/>
					</g>
				</g>
				<g>
					<g>
						<path fill="#0A0A0A" d="M123.741,239.671c-0.084,0-0.166-0.005-0.256-0.011c-3.083-0.276-5.001-2.043-5.081-2.115
							c-0.095-0.092-0.088-0.226,0.015-0.303c0.106-0.082,0.264-0.077,0.357,0.014c0.022,0.017,1.869,1.722,4.765,1.975
							c2.798,0.284,4.825-4.754,4.847-4.803c0.044-0.115,0.191-0.174,0.32-0.134c0.134,0.033,0.206,0.157,0.16,0.271
							C128.782,234.78,126.791,239.671,123.741,239.671L123.741,239.671z"/>
					</g>
				</g>
			</g>
		</g>
		<g>
			<g>
				<path fill="#0AA4E4" d="M155.183,209.137c-0.755-1.239-4.333-9.29-1.433-10.364c2.802-1.041,5.81,3.873,11.49,5.002
					c1.536,0.306,1.012,5.756-5.805,8.233C157.082,212.86,155.939,210.376,155.183,209.137z"/>
			</g>
			<g>
				<path fill="#0A0A0A" d="M158.503,212.395c-1.695,0-2.665-1.663-3.31-2.763c-0.082-0.137-0.159-0.273-0.231-0.395
					c-0.645-1.05-3.39-7.118-2.345-9.638c0.207-0.507,0.558-0.85,1.037-1.026c0.286-0.108,0.589-0.159,0.898-0.159
					c1.275,0,2.591,0.898,4.115,1.941c1.826,1.249,3.897,2.665,6.634,3.21c0.494,0.099,0.822,0.553,0.893,1.254
					c0.188,1.854-1.453,5.494-6.661,7.386C159.184,212.332,158.836,212.395,158.503,212.395z M154.552,198.842
					c-0.242,0-0.471,0.044-0.698,0.128c-0.349,0.129-0.595,0.378-0.758,0.771c-0.943,2.271,1.56,8.064,2.312,9.297
					c0.074,0.123,0.156,0.261,0.239,0.4c0.622,1.067,1.476,2.529,2.856,2.529c0.265,0,0.544-0.052,0.831-0.158
					c4.965-1.799,6.532-5.22,6.357-6.95c-0.051-0.482-0.246-0.822-0.508-0.875c-2.845-0.566-5.056-2.078-6.83-3.291
					C156.904,199.698,155.651,198.842,154.552,198.842z"/>
			</g>
		</g>
		<g>
			<g>
				<path fill="#0A0A0A" d="M147.104,282.665c-0.199,0-0.392-0.1-0.472-0.274c-8.022-17.381-7.781-30.129-7.778-30.257
					c0.007-0.24,0.216-0.423,0.519-0.423c0.276,0.005,0.499,0.205,0.494,0.443c-0.004,0.122-0.239,12.715,7.705,29.925
					c0.107,0.219-0.025,0.466-0.283,0.559C147.228,282.657,147.167,282.665,147.104,282.665L147.104,282.665z"/>
			</g>
		</g>
		<g>
			<g>
				<path fill="#0A0A0A" d="M158.719,282.665c-0.201,0-0.392-0.1-0.472-0.274c-8.021-17.381-7.779-30.313-7.777-30.439
					c0.008-0.235,0.201-0.408,0.514-0.416c0.279,0.006,0.501,0.197,0.497,0.441c-0.003,0.123-0.238,12.893,7.708,30.103
					c0.104,0.219-0.026,0.466-0.285,0.559C158.843,282.657,158.779,282.665,158.719,282.665L158.719,282.665z"/>
			</g>
		</g>
		<g>
			<g>
				<path fill="#FFEF43" d="M154.258,284.432c-1.552,3.891-4.008,6.7-5.48,6.273c-1.47-0.427-1.405-3.924,0.149-7.818
					c1.554-3.894,4.007-6.704,5.481-6.276C155.878,277.034,155.814,280.536,154.258,284.432z"/>
			</g>
			<g>
				<path fill="#0A0A0A" d="M149.09,290.969c-0.136,0-0.267-0.022-0.392-0.055c-1.818-0.531-1.434-4.533-0.012-8.102
					c1.499-3.741,3.774-6.463,5.412-6.463c0.135,0,0.262,0.019,0.393,0.058c0.822,0.235,1.255,1.237,1.227,2.814
					c-0.03,1.501-0.457,3.375-1.221,5.278C153,288.246,150.728,290.969,149.09,290.969z M154.098,276.782
					c-1.212,0-3.39,2.309-4.937,6.173c-1.606,4.034-1.449,7.214-0.303,7.547c1.154,0.332,3.513-2.018,5.159-6.143
					c0.747-1.861,1.167-3.691,1.2-5.142c0.021-1.34-0.31-2.238-0.891-2.405C154.252,276.79,154.179,276.782,154.098,276.782z"/>
			</g>
		</g>
		<g>
			<g>
				<path fill="#FFEF43" d="M148.778,290.705c0,0-5.378-2.303-1.715-9.404c2.972-5.762,7.345-4.69,7.345-4.69
					s-3.361,0.538-5.481,6.276C146.811,288.618,148.778,290.705,148.778,290.705z"/>
			</g>
			<g>
				<path fill="#0A0A0A" d="M148.792,290.925c-0.003,0-0.008-0.004-0.014-0.004c-0.042,0-0.075-0.005-0.113-0.021
					c-0.056-0.027-5.548-2.477-1.837-9.682c2.197-4.267,5.159-4.905,6.73-4.905c0.558,0,0.904,0.086,0.919,0.091
					c0.113,0.024,0.187,0.114,0.183,0.217c-0.004,0.099-0.089,0.183-0.206,0.199c-0.031,0.006-3.249,0.613-5.289,6.126
					c-1.899,5.145-0.445,7.297-0.216,7.592c0.057,0.039,0.096,0.102,0.096,0.167C149.045,290.827,148.932,290.925,148.792,290.925z
					 M153.376,276.749c-1.481,0.053-4.086,0.765-6.084,4.642c-2.63,5.098-0.47,7.658,0.811,8.639
					c-0.444-1.087-0.85-3.336,0.582-7.208C150.143,278.88,152.179,277.339,153.376,276.749z"/>
			</g>
		</g>
		<g>
			<g>
				<path fill="#FFEF43" d="M166.462,280.915c-2.807,3.347-6.108,5.434-7.375,4.661c-1.262-0.772-0.014-4.105,2.792-7.451
					c2.807-3.345,6.105-5.432,7.374-4.662C170.518,274.228,169.269,277.568,166.462,280.915z"/>
			</g>
			<g>
				<path fill="#0A0A0A" d="M159.737,285.954c-0.306,0-0.574-0.063-0.796-0.203c-1.557-0.95,0.165-4.688,2.732-7.753
					c2.427-2.893,5.276-4.913,6.933-4.913c0.305,0,0.574,0.072,0.791,0.203c1.563,0.953-0.157,4.688-2.732,7.753
					C164.243,283.93,161.394,285.954,159.737,285.954z M168.606,273.515c-1.478,0-4.221,1.991-6.522,4.735
					c-2.903,3.465-3.832,6.551-2.848,7.15c0.13,0.083,0.302,0.118,0.501,0.118c1.477,0,4.222-1.988,6.52-4.727
					c2.906-3.47,3.835-6.551,2.851-7.156C168.975,273.559,168.806,273.515,168.606,273.515z"/>
			</g>
		</g>
		<g>
			<g>
				<path fill="#FFEF43" d="M159.087,285.576c0,0-4.367-3.527,1.542-9.426c4.798-4.793,8.624-2.688,8.624-2.688
					s-3.405-0.306-7.374,4.662S159.087,285.576,159.087,285.576z"/>
			</g>
			<g>
				<path fill="#0A0A0A" d="M159.1,285.792c-0.062,0-0.134-0.019-0.183-0.06c-0.046-0.039-4.476-3.738,1.521-9.725
					c2.667-2.662,5.057-3.222,6.597-3.222c1.438,0,2.319,0.475,2.354,0.493c0.097,0.053,0.14,0.162,0.101,0.252
					c-0.041,0.096-0.149,0.154-0.267,0.146c-0.05-0.005-3.314-0.214-7.135,4.571c-3.535,4.419-2.904,6.841-2.781,7.202
					c0.028,0.035,0.046,0.081,0.046,0.126C159.353,285.693,159.243,285.792,159.1,285.792z M167.035,273.219
					c-1.429,0-3.672,0.529-6.216,3.07c-4.244,4.237-3.042,7.214-2.141,8.469c-0.063-1.147,0.311-3.396,2.991-6.757
					c2.724-3.412,5.231-4.382,6.565-4.655C167.909,273.277,167.504,273.219,167.035,273.219z"/>
			</g>
		</g>
		<g>
			<g>
				<path fill="#0A0A0A" d="M185.403,217.308c-15.683,0-22.288-6.888-22.367-6.97c-0.171-0.188-0.133-0.46,0.083-0.604
					c0.219-0.151,0.537-0.115,0.709,0.068c0.096,0.102,9.504,9.851,32.87,5.551c0.269-0.052,0.542,0.098,0.601,0.328
					c0.063,0.235-0.115,0.466-0.388,0.509C192.631,216.981,188.803,217.308,185.403,217.308L185.403,217.308z"/>
			</g>
		</g>
		<g>
			<g>
				<path fill="#FFD9B3" d="M197.311,214.802c0,0,1.263-5.699,1.894-4.518c0.632,1.188,0.632,3.334,0.632,3.334
					s2.904-3.979,4.041-3.012c1.135,0.969-1.262,3.662-1.262,3.662s3.912,0.646,3.789,2.039c-0.131,1.4-3.285,0.757-3.285,0.757
					s4.795,2.476,3.912,3.554c-0.883,1.071-6.143-2.154-6.143-2.154s2.612,3.406,0.84,3.299
					C199.961,221.654,196.848,218.534,197.311,214.802z"/>
			</g>
			<g>
				<path fill="#0A0A0A" d="M201.811,221.979c-0.037,0-0.068,0-0.1-0.004c-0.771-0.047-1.734-0.586-2.58-1.448
					c-1.547-1.573-2.323-3.723-2.07-5.746c0.717-3.24,1.37-4.87,1.95-4.87c0.122,0,0.298,0.048,0.424,0.286
					c0.429,0.8,0.574,1.993,0.626,2.74c0.763-0.953,2.306-2.694,3.392-2.694c0.23,0,0.434,0.071,0.602,0.211
					c1.068,0.915-0.393,2.917-1.01,3.67c1.057,0.216,3.729,0.89,3.607,2.204c-0.043,0.501-0.438,1.098-2.033,1.098
					c-0.137,0-0.268-0.002-0.396-0.008c1.158,0.672,2.93,1.828,3.146,2.709c0.059,0.232,0.014,0.436-0.131,0.611
					c-0.17,0.207-0.447,0.312-0.824,0.312c-1.211,0-3.439-1.139-4.715-1.854c0.527,0.811,1.129,1.953,0.795,2.479
					C202.404,221.813,202.213,221.979,201.811,221.979z M198.973,210.371c-0.321,0.336-0.987,2.534-1.415,4.475
					c-0.234,1.887,0.499,3.917,1.96,5.403c0.747,0.768,1.605,1.257,2.228,1.301h0.064c0.188,0,0.223-0.063,0.238-0.082
					c0.266-0.414-0.645-1.938-1.371-2.889c-0.068-0.086-0.052-0.197,0.036-0.271c0.084-0.074,0.219-0.082,0.325-0.02
					c0.033,0.022,3.814,2.334,5.375,2.334c0.305,0,0.385-0.099,0.412-0.129c0.039-0.049,0.086-0.132,0.051-0.279
					c-0.225-0.904-2.887-2.445-3.891-2.966c-0.107-0.055-0.148-0.17-0.104-0.267c0.053-0.099,0.174-0.155,0.295-0.128
					c0.004,0.005,0.707,0.147,1.441,0.147c0.973,0,1.488-0.241,1.529-0.704c0.09-0.99-2.557-1.647-3.582-1.817
					c-0.084-0.017-0.156-0.068-0.189-0.135c-0.031-0.07-0.016-0.151,0.035-0.208c0.631-0.704,2.09-2.695,1.287-3.378
					c-0.074-0.06-0.15-0.088-0.246-0.088c-0.852,0-2.539,1.881-3.401,3.063c-0.063,0.082-0.177,0.118-0.285,0.097
					c-0.109-0.03-0.183-0.115-0.183-0.212c0-0.019-0.009-2.12-0.609-3.242C198.973,210.373,198.973,210.371,198.973,210.371z"/>
			</g>
		</g>
	</g>
	<g opacity="0.5">
		<g>
			<path fill="#0AA4E4" d="M127.428,229.06c0,0-9.215,16.303,8.27,22.49c0,0-9.844-1.343-16.286-4.035c0,0-2.21-12.968,1.137-25.183
				C120.549,222.332,124.27,227.019,127.428,229.06z"/>
		</g>
	</g>
	<g opacity="0.5">
		<g>
			<path fill="#FFD9B3" d="M132.289,183.385c-6.793-9.128-0.758-19.475-0.758-18.831c0,0.648,1.39,3.229,2.02,1.612
				c1.289-3.292,7.513-10.759,7.513-10.759l-0.032-0.091c-4.4,3.87-7.817,8.415-7.817,8.415c-0.839-2.37-0.925-4.452-0.925-4.452
				c-2.607,2.227-5.472,10.976-5.472,10.976c-2.1-1.647-2.944-3.942-2.944-3.942c-2.947,6.457-0.59,13.844-0.59,13.844
				c-1.513-1.074-7.659-0.501-7.239,4.018c0.483,5.173,8.664,4.447,8.664,4.447c6.227,6.408,15.516,10.472,25.889,10.472
				c8.578,0,16.409-2.788,22.386-7.376C160.309,198.898,139.485,193.052,132.289,183.385z"/>
		</g>
	</g>
</g>
</svg>
