<?xml version="1.0" encoding="utf-8"?>
<!-- Generator: Adobe Illustrator 16.0.0, SVG Export Plug-In . SVG Version: 6.00 Build 0)  -->
<!DOCTYPE svg PUBLIC "-//W3C//DTD SVG 1.1//EN" "http://www.w3.org/Graphics/SVG/1.1/DTD/svg11.dtd">
<svg version="1.1" id="Capa_1" xmlns="http://www.w3.org/2000/svg" xmlns:xlink="http://www.w3.org/1999/xlink" x="0px" y="0px"
	 width="400px" height="400px" viewBox="0 0 400 400" enable-background="new 0 0 400 400" xml:space="preserve">
<g>
	<g>
		<g>
			<g>
				<path fill="#FBDACE" d="M110.47,170.828c0.875-2.238,3.458-9.607,4.195-11.856c0.338-1.161,0.579-2.75,1.44-3.59
					c0.079-0.064,0.159-0.12,0.242-0.179c2.78,0.125,5.075-2.074,6.998-4.148c0.104-0.128,2.966-3.555,2.016-3.682
					c-0.953-0.128-2.124,1.1-2.607,1.89c-0.694-1.478,1.339-5.416,2.642-6.382c1.559-1.155,3.198-1.553,1.24-3.27
					c-0.802-0.703-3.228-2.593-4.2-1.16c-3.388-0.679-4.621,1.435-6.365,3.967c-1.25,1.813-2.275,3.38-2.878,5.533
					c-0.814,2.908-0.024,5.436-1.817,8.003c-2.002,2.876-5.104,6.207-6.899,9.186c-1.658,2.775-4.087,6.235-4.868,9.318
					c-0.96,3.791,2.707,7.265,6.4,4.541C107.381,177.986,109.029,174.421,110.47,170.828z"/>
				<g>
					<g>
						<path fill="#F4A07E" d="M121.026,139.41c0.076,0.188,0.159,0.363,0.158,0.596c0.001,0.219-0.057,0.439-0.165,0.637
							c-0.219,0.394-0.559,0.672-0.889,0.915c-0.665,0.483-1.387,0.842-1.893,1.299c-0.115,0.117-0.215,0.235-0.284,0.353
							c-0.054,0.1-0.178,0.338-0.24,0.488c-0.136,0.319-0.26,0.679-0.374,1.037c-0.115,0.357-0.217,0.724-0.281,1.084
							c-0.034,0.183-0.071,0.36-0.084,0.532c-0.033,0.185-0.012,0.326-0.016,0.485v0.014l0.006,0.024
							c0.013,0.054,0.021,0.108,0.027,0.167l0.069,0.192c0.064,0.14,0.141,0.287,0.232,0.448c0.085,0.164,0.188,0.326,0.258,0.521
							c0.081,0.184,0.122,0.397,0.154,0.601l0.006,0.313c0.005,0.174-0.037,0.199-0.057,0.306l-0.145,0.524
							c-0.039,0.175-0.13,0.349-0.198,0.52l-0.23,0.502l0.051-0.538c0.019-0.177,0.049-0.344,0.045-0.528l0.017-0.541
							c-0.006-0.072,0.023-0.223-0.006-0.229l-0.047-0.223c-0.057-0.143-0.105-0.28-0.198-0.413c-0.073-0.135-0.18-0.268-0.281-0.41
							c-0.106-0.139-0.22-0.297-0.33-0.471c-0.114-0.183-0.193-0.405-0.24-0.657l0.006,0.037c-0.074-0.488-0.06-0.927,0.012-1.339
							c0.064-0.419,0.164-0.819,0.28-1.216c0.116-0.397,0.271-0.777,0.454-1.18c0.101-0.209,0.16-0.322,0.303-0.564
							c0.149-0.214,0.321-0.381,0.5-0.53c0.721-0.552,1.484-0.796,2.167-1.132c0.338-0.168,0.668-0.344,0.911-0.599
							c0.113-0.13,0.213-0.279,0.263-0.451C121.039,139.82,121.041,139.608,121.026,139.41z"/>
					</g>
				</g>
			</g>
			<g>
				<g>
					<path fill="#74340F" d="M192.231,143.912c-1.981,0.03-2.853,1.474-4.514,1.95c-1.954,0.562-2.544-1.601-2.851-2.96
						c-0.444-1.977-0.791-3.616-2.819-4.656c-2.197-1.127-4.349-0.53-6.699-0.583c-3.014-0.069-5.189-1.774-7.061-3.789
						c0.341,0.117,0.681,0.234,1.038,0.326c2.388,0.618,3.552,0.181,5.63-0.712c2.49-1.071,5.146,1.143,7.344,2.181
						c-1.227-0.897-1.992-2.198-3.369-3.017c-2.268-1.349-3.813-0.479-6.164,0.116c-2.901,0.734-5.075-0.582-6.864-2.697
						c-0.126-0.147-0.259-0.311-0.396-0.479c-1.728-4.292-2.231-9.072-4.233-13.263c-1.063-2.229-2.678-4.59-4.745-6.124
						c-1.298-0.963-2.502-2.051-3.98-2.776c-1.532-0.752-3.16-0.536-4.788-0.858c-1.412-0.278-2.644-1.068-4.071-1.389
						c-2.862-0.643-5.817,0.073-8.51,1.012c-4.605,1.606-8.682,4.533-11.429,8.361c-2.201,3.072-3.219,6.606-3.254,10.281
						c-0.03,3.088-1.101,5.88-1.259,8.972c-0.016,0.298-0.026,0.596-0.035,0.894c-0.369,0.938-0.747,1.901-1.133,2.879
						c-0.218,0.55-0.438,1.137-0.633,1.698c-0.193,0.596-0.355,1.195-0.472,1.806c-0.205,1.221-0.234,2.512,0.152,3.729
						c0.38,1.216,1.229,2.286,2.281,2.959c1.042,0.703,2.224,1.045,3.323,1.263c1.11,0.216,2.17,0.274,3.145,0.285
						c1.344,0.009,2.507-0.117,3.471-0.251c0.216,0.526,0.254,1.281,0.167,2.495c-0.257,3.563,1.962,8.659,6.205,9.094
						c1.294,0.133,2.735,0.033,4.011-0.228c0.431-0.088,1.115-0.617,1.591-0.527c1.553,0.291,1.496,2.234,2.503,3.298
						c2.21,2.335,6.523,2.316,9.485,1.552c3.319-0.856,5.532-3.257,8.69-0.512c1.369,1.189,2.172,2.794,3.521,3.99
						c1.706,1.513,4.205,2.128,6.474,2.463c2.329,0.346,7.5,0.512,9.337-1.168c-0.755-0.457-1.719-1.43-2.212-1.698
						c1.852,0.667,3.378,2.297,5.558,1.87c1.492-0.292,2.863-1.534,4.101-2.334c-0.493-0.074-0.947-0.282-1.372-0.422
						c2.804-0.477,6.793-3.597,8.489-1.175c1.191-5.181-5.637-4.686-8.761-6.062c2.017-3.698,2.072-7.103-3.243-8.407
						c-2.731-0.669-7.063,1.312-9.485-0.506c0-0.001-0.002-0.002-0.002-0.003c0.404-0.099,0.816-0.233,1.237-0.414
						c2.357-1.021,5.327-2.489,4.771-5.222c-0.142-0.691-0.556-1.316-0.448-2.031c4.22,0.744,4.138,11.571,10.083,6.946
						c1.332-1.036,1.415-3.842,3.373-3.4c1.545,0.349,3.021,2.688,2.822,4.12C196.924,148.084,196.011,143.854,192.231,143.912z
						 M125.882,148.841c-0.949-0.052-1.974-0.158-3.014-0.409c-1.033-0.255-2.098-0.633-3.008-1.258
						c-0.921-0.611-1.618-1.523-1.93-2.582c-0.32-1.061-0.279-2.23-0.074-3.367c0.102-0.573,0.244-1.139,0.411-1.69
						c0.19-0.579,0.383-1.116,0.595-1.678c0.118-0.315,0.233-0.623,0.348-0.935c0.2,4.36,1.582,8.385,6.534,10.205
						c1.944,0.716,2.988,0.919,3.469,1.696C128.267,148.876,127.149,148.901,125.882,148.841z"/>
				</g>
				<g>
					<path fill="#FCE0D9" d="M129.601,116.155c0.915-1.292,2.588-2.987,4.324-3.246c-0.499,0.533-0.26,2.039-0.103,2.627
						c0.387,1.46,1.879,2.268,2.988,3.135c0.076-0.953-0.562-2.264-0.129-3.133c0.56,1.437,1.439,2.576,2.587,3.644
						c2.472,2.296,5.063,4.498,8.067,6.174c1.104,0.616,2.25,1.135,3.43,1.602c0.305,0.116,2.54,0.79,2.521,1.137l-0.424,3.36
						c4.187-0.114,5.037,1.656,2.773,4.707c-1.236,1.665-3.377,1.505-4.317,1.498c0,0-1.825,3.136-4.968,5.541
						c-1.656,1.269-2.258,1.729-2.558,1.977c0.007,1.468,1.002,3.942,1.364,4.868c0.881,2.215,3.485,3.905,4.948,4.984
						c7.251,5.348-3.521,9.885-9.636,7.758c-2.363-0.815-7.842-3.41-6.526-6.003c0.355-0.707,3.841-2.975,4.2-5.435
						c0.239-1.192-0.219-3.475-0.74-4.505l-1.265-0.088c-0.602-0.145-4.311-1.179-6.069-2.244c-3.362-1.989-4.315-6.27-4.127-9.585
						c0.166-2.787-0.313-5.563-0.233-8.353C125.816,123.172,127.601,118.978,129.601,116.155z"/>
				</g>
				<g>
					<path fill="#010202" d="M133.479,131.885c0.038,0.804-0.403,1.471-0.989,1.495c-0.585,0.024-1.09-0.603-1.127-1.405
						c-0.039-0.798,0.403-1.462,0.988-1.487C132.937,130.463,133.439,131.087,133.479,131.885z"/>
				</g>
				<g>
					<path fill="#010202" d="M146.51,131.317c0.039,0.802-0.403,1.47-0.986,1.494c-0.588,0.024-1.088-0.604-1.126-1.405
						c-0.038-0.797,0.4-1.463,0.986-1.488C145.969,129.894,146.472,130.52,146.51,131.317z"/>
				</g>
				<g>
					<g>
						<g>
							<path fill="#74340F" d="M146.161,126.773c0,0-0.093-0.043-0.24-0.146c-0.151-0.087-0.344-0.272-0.593-0.389
								c-0.115-0.071-0.243-0.132-0.358-0.216c-0.121-0.076-0.286-0.13-0.423-0.212c-0.14-0.087-0.296-0.148-0.455-0.204
								c-0.156-0.058-0.304-0.142-0.472-0.183c-0.325-0.095-0.643-0.195-0.964-0.231c-0.162-0.025-0.318-0.075-0.469-0.064
								c-0.143,0-0.294-0.016-0.432-0.026c-0.141-0.026-0.266,0.003-0.383,0.003c-0.113,0.005-0.224,0.01-0.311,0.019
								c-0.18-0.003-0.288-0.01-0.288-0.01s0.066-0.064,0.21-0.177c0.07-0.05,0.155-0.123,0.259-0.188
								c0.11-0.066,0.225-0.171,0.381-0.21c0.296-0.085,0.67-0.248,1.082-0.222c0.202,0.011,0.428-0.03,0.637,0.028
								c0.206,0.044,0.422,0.096,0.635,0.143c0.205,0.071,0.39,0.179,0.587,0.271c0.194,0.077,0.354,0.206,0.503,0.328
								c0.32,0.237,0.561,0.525,0.732,0.785c0.197,0.243,0.222,0.483,0.289,0.638C146.139,126.676,146.161,126.773,146.161,126.773z
								"/>
						</g>
					</g>
					<g>
						<g>
							<path fill="#74340F" d="M133.077,125.539c0,0-0.11-0.01-0.299-0.039c-0.186-0.01-0.451-0.092-0.743-0.117
								c-0.146-0.013-0.302-0.021-0.456-0.05c-0.148-0.036-0.33-0.012-0.499-0.029c-0.168-0.001-0.349-0.033-0.516-0.008
								c-0.178,0.014-0.349,0.025-0.53,0.033l-0.491,0.107c-0.17,0.021-0.31,0.104-0.459,0.154c-0.146,0.069-0.31,0.101-0.422,0.205
								c-0.118,0.082-0.248,0.158-0.371,0.229c-0.131,0.064-0.192,0.172-0.293,0.242c-0.085,0.078-0.166,0.149-0.236,0.207
								c-0.137,0.113-0.226,0.182-0.226,0.182s0.008-0.094,0.042-0.272c0.022-0.089,0.04-0.194,0.081-0.319
								c0.043-0.116,0.052-0.28,0.161-0.397c0.091-0.136,0.199-0.28,0.322-0.429c0.105-0.166,0.283-0.28,0.468-0.395
								c0.192-0.107,0.367-0.273,0.599-0.313c0.224-0.06,0.453-0.136,0.681-0.18c0.227-0.007,0.464-0.005,0.693-0.014
								c0.228-0.018,0.433,0.075,0.64,0.104c0.417,0.07,0.775,0.274,1.063,0.423c0.284,0.154,0.441,0.348,0.592,0.47
								C133.003,125.455,133.077,125.539,133.077,125.539z"/>
						</g>
					</g>
					<g>
						<path fill="#F4A07E" d="M133.361,138.7l0.011,0.158l0.015,0.073l0.005,0.041l0.017,0.049l0.108,0.289l0.007,0.012
							c0.1,0.144,0.204,0.296,0.324,0.442l-0.025-0.021l0.313,0.277c0.104,0.087,0.225,0.187,0.342,0.238l0.362,0.19l0.181,0.086
							l0.049,0.019l0.009,0.007l0.008,0.004l0.07,0.018l0.022,0.004l0.095,0.029l0.36,0.104l0.182,0.045l0.09,0.022l0.024,0.01
							l0.067,0.006l0.043,0.002c0.252,0.023,0.5,0.057,0.749,0.069l0.065,0.003l0.002,0.002l0.859-0.073l-0.04,0.002l0.855-0.2
							l0.348-0.149c0.121-0.056,0.23-0.083,0.362-0.171l0.354-0.229c0.131-0.078,0.196-0.166,0.298-0.253
							c0.096-0.074,0.186-0.189,0.267-0.299c0.093-0.104,0.125-0.229,0.18-0.342c-0.241,0.146-0.425,0.23-0.668,0.315
							c-0.253,0.092-0.47,0.141-0.685,0.193c-0.089,0.026-0.233,0.047-0.354,0.069l-0.377,0.066
							c0.047-0.014-0.086,0.007-0.123,0.009l-0.173,0.015l-0.339,0.037l-0.035-0.001l-0.007,0.005l-0.737,0.02l0.066,0.001
							c-0.253-0.024-0.506-0.028-0.754-0.046l-0.053-0.001c0.017,0.003-0.047-0.008,0.019,0.005l-0.024-0.005l-0.093-0.018
							l-0.186-0.032l-0.372-0.052l-0.097-0.018l-0.02,0.003l-0.003-0.002h-0.004c0.128,0.029,0.036,0.006,0.063,0.012l0,0
							l-0.007-0.001l-0.009-0.002l-0.039-0.013l-0.168-0.048l-0.335-0.085c-0.127-0.021-0.204-0.081-0.308-0.117l-0.317-0.119
							l-0.025-0.019c-0.111-0.076-0.242-0.143-0.372-0.222l0.007,0.012l-0.244-0.205c-0.003-0.002-0.024-0.029-0.02-0.013
							l-0.021-0.024l-0.055-0.062L133.361,138.7z"/>
					</g>
					<g>
						<path fill="#F4A07E" d="M135.393,131.082c-0.045,0.25-0.071,0.492-0.092,0.743c-0.001,0.252-0.07,0.479-0.119,0.692
							l-0.068,0.327l-0.131,0.292c-0.046,0.094-0.063,0.2-0.145,0.272c-0.071,0.077-0.128,0.161-0.183,0.241
							c-0.045,0.089-0.157,0.151-0.229,0.225l-0.253,0.219l-0.583,0.431c-0.417,0.29-0.809,0.638-1.207,0.976l-0.419,0.357
							l0.411,0.324c0.278,0.22,0.577,0.405,0.89,0.547c0.318,0.124,0.636,0.229,0.956,0.294c0.647,0.131,1.285,0.163,1.927,0.138
							c-0.571-0.277-1.158-0.498-1.694-0.754c-0.27-0.128-0.522-0.258-0.755-0.408l-0.336-0.229l-0.284-0.254l-0.01,0.676
							l1.178-0.897l0.612-0.501c0.1-0.086,0.195-0.205,0.287-0.306c0.092-0.113,0.196-0.198,0.262-0.337
							c0.077-0.127,0.152-0.253,0.211-0.386c0.082-0.126,0.089-0.271,0.123-0.404l0.073-0.41c0-0.139-0.015-0.271-0.023-0.405
							C135.778,131.998,135.571,131.563,135.393,131.082z"/>
					</g>
				</g>
				<g>
					<path fill="#74340F" d="M134.406,107.551l0.021,0.621c2.055-1.469,4.982-2.453,6.933-1.774c1.486,0.518,3.14,2.947,4.494,3.896
						c1.607,1.127,3.335,2.099,5.066,3.045c1.815,0.991,3.717,1.882,5.488,2.963c1.952,1.19,4.097,2.877,4.072,5.121
						c-0.025,2.467-1.242,4.615-3.423,6.013c-1.093,0.7-1.378,0.78-1.891,1.814c-0.991,2.004-1.207,5.806-4.459,5.789
						c3.737-4.597-3.478-6.246-6.461-7.617c-3.66-1.682-7.7-3.248-8.672-7.23c-0.287,1.8,0.072,4.023,1.062,5.667
						c-2.209-1.913-3.799-4.015-4.568-6.445c-0.107,0.999-0.188,2.004-0.268,3.009c-1.605-2.287-1.014-5.256-0.804-7.915
						c-0.412,2.98-2.046,5.544-2.104,8.55C126.345,116.86,129.938,112.091,134.406,107.551z"/>
				</g>
			</g>
			<g>
				<g>
					<path fill="#A15345" d="M135.181,135.551c-0.006,0.02-0.003,0.043-0.004,0.067c-0.009,0.031-0.015,0.058-0.018,0.097
						L135.181,135.551z"/>
				</g>
			</g>
			<g>
				<path fill="#FBDACE" d="M131.072,188.251l0.482,4.016c0,0-1.606,2.224-4.023,8.029c-2.416,5.807,7.847,11.614,7.847,11.614
					l26.271-2.863l5.499-7.412c0,0-1.979-6.364-2.97-8.175c-0.989-1.811-1.905-3.253-1.905-3.253l-2.164-11.005l-25.412-3.821
					L131.072,188.251z"/>
				<g>
					<g>
						<g>
							<path fill="#F2B8A9" d="M154.213,284.203c6.159,2.062,12.34,4.135,17.686,5.94l20.235,8.502l1.906-5.866l-1.381-0.857
								l-20.884-10.791l0,0c0,0-7.174-4.043-14.564-7.98"/>
							<g>
								<g>
									<g>
										<path fill="#B23217" d="M190.396,295.388c0,0-5.469-3.256-7.581-2.511c-2.11,0.744-0.165,2.703-0.165,2.703
											c1.794,1.464,2.783,2.492,2.758,2.966c-0.006,0.141-0.022,0.329-0.046,0.544c-0.221,2.025-1.108,7.153-2.05,11.473
											c1.748-0.77,3.511-0.706,5.022,0.135c1.21-1.613,2.209-3.252,3.113-5.039c1.063-1.959,2.275-3.931,3.332-5.881
											c0.868-1.753,1.429-3.721,2.144-5.581c0,0-2.848-2.116-4.875-2.792C192.049,291.404,191.777,293.199,190.396,295.388z"/>
									</g>
									<g>
										<g>
											<path fill="#EBF7FE" d="M181.705,316.647c0.032-0.11,0.071-0.226,0.112-0.35c0.443-1.226,0.98-3.354,1.495-5.735
												c1.748-0.77,3.511-0.706,5.022,0.135c-0.267,0.351-0.53,0.702-0.818,1.051
												C185.832,313.783,183.829,315.26,181.705,316.647z"/>
										</g>
									</g>
									<g>
										<g>
											<path fill="#BBBCBB" d="M181.705,316.647c2.124-1.388,4.127-2.864,5.812-4.899c1.606-1.944,2.825-3.917,3.932-6.09
												c1.063-1.959,2.275-3.931,3.332-5.881c0.868-1.753,1.429-3.721,2.144-5.581l1.271,0.922c0,0-10.14,21.256-15.471,23.262
												C182.724,318.38,181.25,318.385,181.705,316.647z"/>
										</g>
									</g>
								</g>
								<g>
									<path fill="#EBF7FE" d="M189.501,299.381c-0.101,0.121-0.262,0.194-0.438,0.182c-1.996-0.154-2.931,0.471-3.867,1.603
										c-0.17,0.208-0.485,0.245-0.706,0.085c-0.219-0.16-0.26-0.455-0.089-0.661c0.941-1.14,2.168-2.164,4.74-1.966
										c0.278,0.021,0.486,0.249,0.464,0.508C189.597,299.226,189.559,299.312,189.501,299.381z"/>
								</g>
								<g>
									<path fill="#EBF7FE" d="M189.299,301.688c-0.101,0.121-0.264,0.194-0.438,0.181c-1.998-0.155-2.93,0.472-3.866,1.605
										c-0.171,0.204-0.485,0.242-0.705,0.083c-0.221-0.16-0.262-0.457-0.092-0.661c0.941-1.14,2.168-2.164,4.743-1.968
										c0.276,0.022,0.483,0.25,0.462,0.509C189.394,301.532,189.356,301.616,189.299,301.688z"/>
								</g>
								<g>
									<path fill="#EBF7FE" d="M188.721,304.095c-0.102,0.123-0.264,0.195-0.438,0.182c-1.995-0.154-2.928,0.471-3.865,1.604
										c-0.171,0.207-0.486,0.244-0.705,0.084c-0.222-0.16-0.262-0.456-0.091-0.661c0.941-1.141,2.168-2.167,4.742-1.966
										c0.277,0.021,0.483,0.248,0.46,0.508C188.815,303.938,188.777,304.025,188.721,304.095z"/>
								</g>
							</g>
						</g>
						<g>
							<g>
								<path fill="#423C39" d="M176.711,283.223c-0.586-2.983-23.777-13.331-27.528-18.992c-2.125-3.208,4.249-49.369-7.05-67.476
									c-4.188-0.153-8.432-0.805-12.29-2.286c-4.075,8.481-5.48,13.268-6.141,18.201c-1.541,11.485-1.131,24.943,0.049,36.438
									c0.743,7.242,0.614,14.736,3.064,21.665c2.032,5.75,26.891,19.807,33.564,22.436c2.294,0.903,6.252,3.594,8.688,3.603
									c2.64,0.01,4.528-3.298,5.729-5.855C175.672,289.091,177.112,285.271,176.711,283.223z"/>
							</g>
						</g>
					</g>
					<g>
						<g>
							<path fill="#FCE0D9" d="M139.195,269.094c-0.472,2.337-9.55,50.647-10.23,53.846c-0.269,1.26-1.909,3.111-2.178,4.371
								l7.691,0.417l1.269-2.063c1.618-4.659,9.15-28.162,10.576-32.514c2.219-6.756,5.146-20.307,5.432-22.692"/>
							<g>
								<g>
									<g>
										<path fill="#B23217" d="M131.128,324.754c0,0,1.65-5.867,0.253-7.526c-1.399-1.66-2.801,0.671-2.801,0.671
											c-0.943,2.047-1.688,3.239-2.178,3.363c-0.146,0.033-0.342,0.075-0.568,0.12c-2.126,0.417-7.612,1.179-12.293,1.646
											c1.314,1.329,1.784,2.921,1.389,4.524c2.009,0.595,3.979,0.987,6.071,1.251c2.316,0.358,4.69,0.842,6.994,1.193
											c2.047,0.246,4.22,0.148,6.329,0.225l0.823-2.106l0.475-1.22c0.086-0.199,0.403-0.955,0.784-1.854
											C136.406,325.04,133.776,325.322,131.128,324.754z"/>
									</g>
									<g>
										<g>
											<path fill="#EBF7FE" d="M106.864,323.438c0.12-0.005,0.25-0.005,0.389-0.006c1.381,0.024,3.709-0.14,6.288-0.405
												c1.314,1.329,1.784,2.921,1.389,4.524c-0.438-0.13-0.875-0.26-1.316-0.411
												C111.03,326.254,108.919,324.914,106.864,323.438z"/>
										</g>
									</g>
									<g>
										<g>
											<path fill="#BBBCBB" d="M106.864,323.438c2.055,1.476,4.166,2.815,6.749,3.702c2.466,0.846,4.842,1.334,7.388,1.662
												c2.316,0.358,4.69,0.842,6.994,1.193c2.047,0.246,4.22,0.148,6.329,0.225l-0.552,1.412c0,0-24.702-2.608-28.361-6.761
												C105.411,324.872,104.956,323.558,106.864,323.438z"/>
										</g>
									</g>
								</g>
								<g>
									<path fill="#EBF7FE" d="M126.794,325.165c-0.154-0.052-0.277-0.175-0.316-0.335c-0.449-1.83-1.369-2.473-2.806-2.967
										c-0.262-0.088-0.396-0.359-0.301-0.604c0.096-0.244,0.385-0.369,0.646-0.279c1.445,0.495,2.86,1.278,3.442,3.638
										c0.062,0.253-0.108,0.507-0.377,0.566C126.981,325.204,126.884,325.195,126.794,325.165z"/>
								</g>
								<g>
									<path fill="#EBF7FE" d="M124.387,325.683c-0.152-0.052-0.277-0.177-0.315-0.337c-0.451-1.828-1.37-2.472-2.808-2.964
										c-0.261-0.091-0.396-0.36-0.3-0.604c0.097-0.245,0.385-0.371,0.646-0.281c1.443,0.494,2.859,1.279,3.44,3.637
										c0.063,0.253-0.106,0.508-0.376,0.566C124.574,325.72,124.477,325.713,124.387,325.683z"/>
								</g>
								<g>
									<path fill="#EBF7FE" d="M121.762,325.896c-0.153-0.052-0.277-0.175-0.316-0.336c-0.449-1.827-1.368-2.47-2.807-2.963
										c-0.262-0.091-0.396-0.359-0.3-0.604c0.095-0.246,0.385-0.371,0.645-0.28c1.447,0.495,2.864,1.276,3.441,3.637
										c0.063,0.253-0.106,0.506-0.377,0.564C121.949,325.934,121.852,325.928,121.762,325.896z"/>
								</g>
							</g>
						</g>
						<g>
							<g>
								<g>
									<path fill="#4D4743" d="M169.84,206.451c-1.049-2.813-2.537-8.26-5.185-12.663c-3.746,1.066-14.538,3.756-25.132,2.811
										c-0.442,9.207-0.442,9.207,0.552,13.045c0.792,3.062,2.741,2.813,4.151,5.174c1.325,2.219-14.369,88.859-16.744,90.811
										c-2.202,8.925,13.032,8.92,15.93,7.195c2.261-1.348,8.982-31.104,11.728-40.18c2.505-8.285,6.01-16.435,8.986-24.703
										C168.632,235.426,174.752,219.628,169.84,206.451z"/>
								</g>
							</g>
							<g>
								<g>
									<g>
										<path fill="#333030" d="M139.523,196.599c0,0,0.146,1.25,0.204,3.119c0.017,0.467,0.034,0.973,0.036,1.508
											c-0.002,0.537,0.024,1.097,0.04,1.67c0.012,0.575,0.041,1.168,0.039,1.77c-0.033,0.611,0.122,1.183,0.172,1.78
											c0.031,0.592,0.174,1.188,0.314,1.776c0.069,0.293,0.133,0.586,0.189,0.876l0.077,0.388l0.13,0.421
											c0.166,0.604,0.359,0.975,0.618,1.383c0.272,0.396,0.606,0.734,0.939,1.052c0.343,0.304,0.655,0.622,0.926,0.899
											c0.252,0.303,0.469,0.568,0.615,0.806c0.268,0.495,0.402,0.771,0.402,0.771s-0.214-0.226-0.588-0.621
											c-0.19-0.188-0.457-0.38-0.736-0.614c-0.313-0.209-0.665-0.445-1.05-0.703c-0.391-0.268-0.831-0.586-1.215-1.038
											c-0.379-0.439-0.75-1.067-0.909-1.583l-0.158-0.411l-0.137-0.48c-0.083-0.292-0.161-0.59-0.235-0.892
											c-0.157-0.6-0.319-1.209-0.371-1.862c-0.043-0.641-0.188-1.296-0.142-1.912c0.007-0.621,0.044-1.232,0.064-1.823
											c0.031-1.188,0.187-2.255,0.292-3.188C139.268,197.832,139.523,196.599,139.523,196.599z"/>
									</g>
									<g>
										<path fill="#333030" d="M146.555,304.828c0,0,0.2-0.911,0.551-2.505c0.376-1.587,0.865-3.866,1.536-6.58
											c0.675-2.712,1.415-5.888,2.293-9.27c0.872-3.386,1.802-6.997,2.731-10.608c0.485-1.787,0.954-3.621,1.583-5.342
											c0.602-1.734,1.134-3.454,1.755-5.094c1.226-3.287,2.469-6.311,3.527-8.894c1.072-2.581,1.965-4.731,2.59-6.236
											c0.64-1.502,1.005-2.359,1.005-2.359s-0.286,0.887-0.786,2.439c-0.526,1.543-1.219,3.773-2.177,6.397
											c-0.469,1.315-0.977,2.74-1.514,4.248c-0.519,1.51-1.059,3.103-1.658,4.735c-0.593,1.635-1.104,3.372-1.678,5.111
											c-0.607,1.735-1.027,3.521-1.499,5.334c-0.979,3.59-1.96,7.18-2.878,10.545c-0.922,3.367-1.876,6.486-2.646,9.172
											c-0.775,2.684-1.491,4.901-1.96,6.463C146.837,303.939,146.555,304.828,146.555,304.828z"/>
									</g>
									<g>
										<path fill="#333030" d="M144.227,214.817c0.206,0.945,0.055,1.927,0.02,2.885c-0.069,0.963-0.168,1.922-0.268,2.882
											c-0.202,1.918-0.434,3.833-0.675,5.746c-0.509,3.823-1.076,7.637-1.653,11.449c-0.564,3.814-1.219,7.613-1.864,11.414
											l-1.987,11.393c-0.691,3.792-1.43,7.576-2.164,11.36c-0.746,3.782-1.478,7.567-2.284,11.338
											c-0.811,3.77-1.643,7.535-2.521,11.29c-0.433,1.88-0.92,3.747-1.415,5.612c-0.254,0.931-0.511,1.861-0.793,2.785
											c-0.142,0.462-0.29,0.922-0.449,1.379c-0.182,0.452-0.309,0.917-0.65,1.325l0.021-0.033l-0.203,0.979
											c-0.033,0.33-0.041,0.665-0.063,1c0.002-0.334-0.011-0.671,0.002-1.007l0.146-1.001l0.021-0.033
											c0.465-0.773,0.657-1.773,0.916-2.682c0.238-0.932,0.452-1.87,0.662-2.809l1.181-5.653
											c0.772-3.772,1.498-7.556,2.202-11.343l2.146-11.354l2.078-11.368l2.091-11.365l2.037-11.375
											c0.688-3.791,1.346-7.586,1.979-11.386c0.328-1.897,0.646-3.797,0.935-5.701c0.144-0.951,0.281-1.904,0.399-2.859
											C144.164,216.733,144.374,215.766,144.227,214.817z"/>
									</g>
								</g>
								<g>
									<path fill="#333030" d="M134.735,212.685c0,0,0.619-0.053,1.511,0.022c0.447,0.036,0.963,0.075,1.509,0.239
										c0.55,0.136,1.126,0.325,1.703,0.513c0.551,0.212,1.095,0.419,1.596,0.655c0.502,0.24,0.965,0.44,1.361,0.633
										c0.793,0.381,1.314,0.744,1.314,0.744s-0.609,0.032-1.514-0.084c-0.923-0.077-2.052-0.436-3.17-0.822
										c-0.537-0.199-1.074-0.396-1.568-0.622c-0.253-0.099-0.48-0.236-0.726-0.316c-0.239-0.086-0.463-0.183-0.668-0.272
										C135.26,213.022,134.735,212.685,134.735,212.685z"/>
								</g>
								<g>
									<path fill="#333030" d="M143.729,213.62c0,0-0.2-1.052-0.343-2.629c-0.152-1.578-0.253-3.682-0.257-5.784
										c0.004-2.104,0.103-4.207,0.255-5.785c0.143-1.577,0.345-2.629,0.345-2.629s0.202,1.052,0.345,2.629
										c0.152,1.578,0.251,3.682,0.255,5.785c-0.004,2.103-0.104,4.206-0.257,5.784C143.93,212.568,143.729,213.62,143.729,213.62
										z"/>
								</g>
							</g>
						</g>
					</g>
				</g>
			</g>
			<g>
				<g>
					<path fill="#FBDACE" d="M103.733,174.25c0,0,23.821-17.438,26.171-18.226c2.349-0.788,5.474,1.035,5.474,1.035
						s-2.805,10.184-4.887,11.283c-2.08,1.101-29.458,18.301-30.627,8.985l1.943-3.68L103.733,174.25z"/>
					<g>
						<path fill="#F4A07E" d="M112.305,165.792c0,0-0.095,0.697-0.36,1.697c-0.259,1.003-0.683,2.31-1.183,3.589
							c-0.505,1.276-1.085,2.525-1.581,3.438c-0.487,0.916-0.896,1.496-0.896,1.496s0.094-0.698,0.359-1.698
							c0.258-1.003,0.684-2.31,1.184-3.588c0.506-1.276,1.086-2.524,1.582-3.438C111.896,166.372,112.305,165.792,112.305,165.792z"
							/>
					</g>
				</g>
				<g>
					<g>
						<g>
							<path fill="#8E83BD" d="M143.084,159.096h-0.006c0,0,0,0,0,0.005C143.078,159.096,143.078,159.096,143.084,159.096z"/>
						</g>
					</g>
					<g>
						<path fill="#E3556D" d="M131.557,155.582c-3.565-0.097-6.097,2.961-8.955,4.4c-0.109,1.165,0.862,3.9,2.788,5.81
							c1.141,1.129,4.441,2.551,4.441,2.551c1.26-1.285,0.762-3.354,1.071-5.018C131.262,161.37,132.088,158.275,131.557,155.582z"
							/>
					</g>
					<g>
						<g>
							<path fill="#ED6C81" d="M161.43,182.316c-0.505-3.118-0.184-5.823,0.326-8.889c0.659-3.981,0.684-8.127-0.268-12.068
								c-0.67-2.782-0.512-7.641-4.05-8.139c-0.693-0.099-7.891-0.224-7.947-0.811c0.036-0.782,0.116-1.585,0.236-2.365
								c-2.516,0.067-4.884,0.441-7.399,0.745c-2.066,0.249-4.98,0.472-6.743,0.604c0.52,0.2,0.404,1.336,0.683,1.514
								c-0.313,0.047-0.64,0.099-0.955,0.149c0.14,0.141,0.336,0.649,0.597,0.888c-0.417,0.427-3.216,0.803-5.926,1.799
								c0.2,3.555,0.815,6.662-0.437,10.018c-0.859,2.298-2.43,4.738-2.321,7.249c0.118,2.755,2.106,5.305,2.674,8.021
								c0.598,2.86-0.42,6.425,0.591,9.005c0.424,1.081,19.919,3.425,31.783-1.099C163.111,188.617,161.706,184.035,161.43,182.316z
								"/>
						</g>
					</g>
				</g>
				<g>
					<g>
						<g>
							<g>
								<path fill="#E3556D" d="M129.965,156.912c0.171,1.146,0.335,2.289,0.458,3.444c0.094,1.157,0.114,2.335-0.071,3.504
									c-0.331,2.381-1.688,4.429-2.356,6.58c-0.359,1.075-0.529,2.18-0.348,3.272c0.146,1.103,0.59,2.17,1.015,3.246
									c0.437,1.074,0.921,2.151,1.219,3.293c0.301,1.145,0.317,2.325,0.22,3.474c-0.068-1.153-0.157-2.31-0.562-3.385
									c-0.357-1.089-0.891-2.124-1.393-3.184c-0.505-1.057-0.972-2.159-1.18-3.35c-0.222-1.194-0.033-2.437,0.334-3.562
									c0.737-2.271,2.073-4.245,2.503-6.472C130.276,161.549,129.991,159.22,129.965,156.912z"/>
							</g>
						</g>
					</g>
					<g>
						<path fill="#E3556D" d="M137.649,154.807c0.859,0.358,1.745,0.568,2.639,0.708c0.894,0.129,1.798,0.183,2.704,0.163
							c1.816-0.027,3.619-0.284,5.454-0.655c-1.639,0.879-3.543,1.291-5.444,1.333c-0.952,0.008-1.914-0.079-2.837-0.325
							C139.243,155.795,138.358,155.389,137.649,154.807z"/>
					</g>
					<g>
						<path fill="#E3556D" d="M141.027,154.427c1.119-0.226,2.105-0.583,3.152-0.927c1.039-0.334,2.093-0.705,3.247-0.827
							c-0.939,0.621-1.934,1.102-3.006,1.466c-0.538,0.171-1.093,0.318-1.667,0.385
							C142.184,154.593,141.582,154.597,141.027,154.427z"/>
					</g>
					<g>
						<path fill="#E3556D" d="M150.409,183.485c-0.327,0.104-0.683,0.054-1.015,0.009c-0.336-0.047-0.665-0.115-0.995-0.185
							c-0.655-0.153-1.301-0.331-1.938-0.517c-0.642-0.176-1.274-0.374-1.909-0.53c-0.314-0.077-0.631-0.158-0.936-0.203
							c-0.316-0.048-0.652-0.085-0.979-0.121c-2.63-0.307-5.268-0.428-7.939-0.153c2.566-0.807,5.361-0.817,8.03-0.521
							c0.335,0.044,0.663,0.084,1.005,0.142c0.355,0.061,0.688,0.144,1.012,0.241c0.649,0.198,1.28,0.412,1.902,0.647l1.859,0.698
							c0.309,0.116,0.619,0.233,0.933,0.326C149.754,183.406,150.072,183.516,150.409,183.485z"/>
					</g>
				</g>
				<g>
					<g>
						<g>
							<path fill="#FBDACE" d="M156.927,160.638c1.805,3.416,4.658,10.541,7.839,16.543c1.618,3.058,2.484,6.428,4.423,9.35
								c1.459,2.198,9.154,8.814,10.913,3.962c0.907-2.511-16.321-33.3-17.386-33.044
								C162.713,157.449,156.923,160.635,156.927,160.638z"/>
						</g>
						<g>
							<g>
								<g>
									<path fill="#F0849E" d="M166.448,161.301c-1.378,1.187-7.238,5.814-9.114,4.048c-0.809-0.759-1.068-3.59-1.212-4.595
										c-0.265-1.846-0.189-3.731,0.101-5.57c0.3-1.91,1.004-2.419,3.074-1.686c1.511,0.535,2.63,1.741,3.593,2.905
										C163.257,156.846,166.588,161.18,166.448,161.301z"/>
								</g>
							</g>
						</g>
					</g>
				</g>
			</g>
		</g>
		<g>
			<g>
				<path fill="#BABFC0" d="M245.444,154.956c0.431-3.006,4.591,0.054,3.788-3.047c-0.776-2.999-1.368-8.244-4.052-8.343
					c-3.27-0.122-12.468,0.328-15.375,1.676c-2.236,1.036-2.552,2.111-2.046,4.225c0.48,2.012,0.424,4.414,1.417,6.265
					c1.27,2.366,4.882,3.913,7.651,3.941C240.412,159.71,243.664,156.698,245.444,154.956z"/>
			</g>
			<g>
				<g>
					<g>
						<path fill="#F8BDAD" d="M242.215,211.044c-0.156-2.431,1.151,0.046-0.669-1.658c0,0-15.499-12.635-17.807,0.878
							c-0.095,0.549-2.442,14.621-2.509,15.174c-0.315,2.6-0.633,5.197-0.948,7.796c-0.469,3.856-0.938,7.711-1.406,11.566
							c-0.504,4.14-1.009,8.281-1.513,12.421c-0.419,3.453-0.839,6.905-1.26,10.357c-0.141,1.166-0.283,2.33-0.424,3.495
							c-0.047,0.39-0.093,0.778-0.145,1.167c-0.016,0.134-0.014,0.281-0.049,0.412c-0.199,0.762-0.174,1.394-0.244,2.183
							c-0.189,2.164-3.471,46.859-3.763,49.829c-0.114,1.166-1.414,2.995-1.529,4.164l7.028-0.314l0.942-1.986
							c0.989-4.378,5.417-26.402,6.268-30.484c1.32-6.337,2.588-18.907,2.602-21.102C226.81,272.386,242.508,215.62,242.215,211.044
							z"/>
						<g>
							<g>
								<path fill="#333737" d="M218.005,316.542c0,0-3.477,4.096-4.919,2.714c-1.439-1.381-2.475,0.863-2.475,0.863
									c-0.646,1.942-1.199,3.093-1.631,3.248c-0.13,0.044-0.304,0.102-0.504,0.162c-1.89,0.57-6.795,1.755-10.997,2.604
									c-2.316,0.469-4.412,0.828-5.672,0.932c-0.125,0.012-0.242,0.024-0.352,0.04c2.018,1.155,4.074,2.183,6.511,2.755
									c0.418,0.099,0.828,0.176,1.238,0.257c1.885,0.355,3.717,0.537,5.644,0.589c2.14,0.116,4.346,0.343,6.476,0.455
									c1.883,0.037,3.848-0.244,5.772-0.367l0.528-1.987l0.308-1.149c0.057-0.19,0.269-0.902,0.521-1.756
									C218.454,325.9,220.465,316.819,218.005,316.542z"/>
								<g>
									<g>
										<path fill="#BBBCBB" d="M191.456,327.104c2.018,1.155,4.074,2.183,6.511,2.755c2.328,0.547,4.536,0.777,6.882,0.846
											c2.14,0.116,4.346,0.343,6.476,0.455c1.883,0.037,3.848-0.244,5.772-0.367l-0.356,1.333c0,0-22.705-0.146-26.456-3.59
											C190.284,328.536,189.736,327.385,191.456,327.104z"/>
									</g>
								</g>
							</g>
						</g>
					</g>
					<g>
						<path fill="#5696BA" d="M244.012,202.778c0,0,0.515,9.582-7.353,41.191c0,0-7.761,23.071-7.523,28.104
							c0.332,7.049-8.942,52.995-8.942,52.995s-7.153,0.475-11.327-3.095c0,0,5.263-51.709,5.568-60.125
							c0.931-25.69,5.554-57.449,5.554-57.449L244.012,202.778z"/>
						<g>
							<g>
								<path fill="#2A819C" d="M220.193,322.909c0,0-0.17,0.066-0.485,0.134c-0.318,0.079-0.77,0.128-1.321,0.161
									c-0.545,0.005-1.193,0.016-1.866-0.094c-0.337-0.054-0.692-0.081-1.042-0.159c-0.348-0.088-0.699-0.178-1.052-0.267
									c-0.346-0.11-0.704-0.188-1.033-0.326c-0.336-0.119-0.655-0.271-0.969-0.399c-0.631-0.254-1.192-0.546-1.648-0.85
									c-0.93-0.568-1.489-1.038-1.489-1.038s0.739,0.107,1.76,0.404c0.256,0.071,0.531,0.152,0.817,0.248
									c0.295,0.073,0.606,0.146,0.919,0.242c0.314,0.096,0.644,0.175,0.967,0.29c0.322,0.122,0.667,0.179,1.001,0.273
									c0.664,0.209,1.334,0.387,1.966,0.545c0.316,0.075,0.617,0.185,0.91,0.24c0.292,0.063,0.567,0.137,0.823,0.207
									c0.512,0.104,0.948,0.229,1.252,0.283C220.009,322.876,220.193,322.909,220.193,322.909z"/>
							</g>
							<g>
								<path fill="#2A819C" d="M216.317,262.276c0,0,0.314,0.206,0.642,0.58c0.172,0.181,0.336,0.422,0.512,0.654
									c0.196,0.206,0.361,0.441,0.527,0.677c0.128,0.253,0.339,0.49,0.474,0.746c0.148,0.249,0.267,0.501,0.372,0.73
									c0.208,0.452,0.266,0.822,0.266,0.822s-0.363-0.106-0.786-0.37c-0.217-0.122-0.445-0.305-0.673-0.519
									c-0.231-0.213-0.459-0.442-0.649-0.743c-0.178-0.3-0.357-0.599-0.483-0.894c-0.073-0.143-0.081-0.288-0.117-0.425
									c-0.033-0.136-0.05-0.27-0.065-0.394C216.267,262.649,216.317,262.276,216.317,262.276z"/>
							</g>
						</g>
					</g>
				</g>
				<g>
					<g>
						<path fill="#F8BDAD" d="M291.564,321.446l-0.607-1.298l-10.336-17.954l0,0c0,0-9.797-18.663-13.793-24.28l-0.655-0.819
							l-0.05-0.088l-0.01,0.012l-5.73-7.173l-8.416-53.034l-17.924-1.188c0,0,14.719,55.877,17.758,59.986
							c2.174,2.937,13.469,20.468,24.153,33.561l11.047,15.897L291.564,321.446z"/>
						<g>
							<g>
								<path fill="#333737" d="M290.763,319.469c0,0-2.688-5.229-4.781-4.052c0,0-1.264,0.812-3.088,0.909
									c-2.059,0.108-1.556,2-1.556,2c0.605,1.955,0.821,3.201,0.552,3.554c-0.08,0.104-0.192,0.24-0.324,0.395
									c-1.239,1.454-4.63,4.981-7.636,7.861c-1.651,1.592-3.189,2.978-4.179,3.712c-0.097,0.076-0.188,0.147-0.27,0.217
									c2.363-0.082,4.684-0.288,7.05-1.071c0.406-0.135,0.795-0.282,1.184-0.428c1.782-0.679,3.416-1.476,5.054-2.43
									c1.852-1.011,3.824-1.964,5.667-2.972c1.591-0.943,3.063-2.197,4.594-3.294C293.029,323.87,291.962,320.928,290.763,319.469
									z"/>
								<g>
									<g>
										<path fill="#BBBCBB" d="M269.481,334.064c2.363-0.082,4.684-0.288,7.05-1.071c2.262-0.75,4.239-1.702,6.237-2.857
											c1.852-1.011,3.824-1.964,5.667-2.972c1.591-0.943,3.063-2.197,4.594-3.294l0.488,1.295c0,0-19.016,11.631-24.17,10.702
											C269.348,335.867,268.213,335.188,269.481,334.064z"/>
									</g>
								</g>
							</g>
							<g opacity="0.5">
								<path fill="#BBBCBB" d="M282.045,315.596c0,0,0.212,0.273,0.561,0.763c0.331,0.503,0.876,1.168,1.398,2.063
									c0.265,0.447,0.552,0.931,0.854,1.442c0.315,0.506,0.573,1.089,0.87,1.625c0.136,0.287,0.321,0.516,0.484,0.774
									c0.076,0.14,0.193,0.217,0.289,0.323c0.091,0.086,0.217,0.238,0.271,0.279c0.325,0.226,0.452,0.24,0.753,0.318
									c0.26,0.036,0.54,0.044,0.727-0.054c0.116-0.02,0.162-0.106,0.251-0.149c0.037-0.089,0.127-0.156,0.144-0.25
									c0.102-0.325,0.22-0.662,0.227-0.932c0.102-0.549,0.051-1.231-0.04-1.722c-0.199-0.61-0.392-1.201-0.575-1.761
									c-0.217-0.531-0.423-1.034-0.612-1.499c-0.416-0.938-0.764-1.719-1.007-2.266c-0.244-0.55-0.371-0.87-0.371-0.87
									s0.205,0.278,0.542,0.776c0.328,0.501,0.818,1.209,1.35,2.102c0.251,0.46,0.525,0.962,0.8,1.501
									c0.224,0.545,0.458,1.119,0.701,1.714c0.188,0.758,0.286,1.416,0.161,2.202c-0.031,0.409-0.142,0.716-0.235,1.044
									c-0.06,0.241-0.221,0.436-0.356,0.635c-0.187,0.156-0.376,0.339-0.603,0.401c-0.444,0.188-0.882,0.156-1.286,0.092
									c-0.366-0.063-0.884-0.3-1.102-0.479c-0.655-0.563-1.001-1.171-1.291-1.776c-0.303-0.601-0.49-1.181-0.757-1.699
									c-0.244-0.53-0.475-1.031-0.688-1.493c-0.415-0.934-0.813-1.702-1.066-2.244
									C282.181,315.913,282.045,315.596,282.045,315.596z"/>
							</g>
						</g>
					</g>
					<g>
						<path fill="#5696BA" d="M250.831,278.166c5.854,5.508,29.945,43.011,29.945,43.011s9.923-0.947,10.565-4.553
							c0,0-25.018-46.463-27.029-50.708c-0.944-1.997-0.929-4.701-1.169-6.84c-0.483-4.325-1.231-30.284-1.14-33.728
							c0.198-7.438-0.52-14.899-2.148-22.174c-1.689-1.314-4.019-1.746-6.182-1.572c-2.164,0.177-4.23,0.935-6.189,1.839
							c-3.036,1.404-5.886,3.184-8.46,5.276c-0.662,0.539-2.759,0.296-3.751,1.007c-2.823,2.02-1.184,10.352-0.602,13.318
							c1.279,6.507,4.155,13.721,5.58,20.2c1.496,6.797,3.066,13.584,4.92,20.298c1.21,4.381,2.277,9.409,4.717,13.352
							C250.166,277.341,250.442,277.798,250.831,278.166z"/>
						<g>
							<g>
								<path fill="#2A819C" d="M288.075,317.478c0,0-0.94-1.579-2.585-4.344c-1.627-2.774-3.951-6.738-6.74-11.494
									c-2.778-4.762-6.019-10.316-9.491-16.268c-1.712-2.992-3.511-6.05-5.363-9.164l-0.692-1.169
									c-0.258-0.428-0.446-0.806-0.674-1.212l-0.651-1.204l-0.553-1.316c-0.414-0.869-0.598-1.791-0.885-2.691
									c-0.228-0.919-0.377-1.817-0.56-2.771c-0.387-3.655-0.773-7.311-1.154-10.908c-0.382-3.599-0.605-7.161-0.903-10.597
									c-0.569-6.88-0.987-13.3-1.384-18.796c-0.184-2.751-0.352-5.272-0.501-7.507c-0.182-2.23-0.34-4.175-0.47-5.776
									c-0.251-3.208-0.395-5.042-0.395-5.042s0.228,1.823,0.626,5.014c0.189,1.599,0.42,3.539,0.684,5.767
									c0.217,2.229,0.462,4.744,0.729,7.488c0.511,5.486,1.107,11.888,1.746,18.746c0.323,3.427,0.571,6.972,0.979,10.566
									c0.407,3.595,0.82,7.246,1.233,10.898c0.16,0.85,0.304,1.77,0.513,2.632c0.266,0.848,0.436,1.743,0.811,2.534l0.496,1.219
									l0.642,1.206c0.214,0.391,0.432,0.827,0.643,1.178l0.684,1.175c1.824,3.118,3.613,6.211,5.302,9.213
									c3.394,5.994,6.525,11.62,9.176,16.454c2.631,4.846,4.822,8.884,6.356,11.711
									C287.209,315.856,288.075,317.478,288.075,317.478z"/>
							</g>
							<g>
								<path fill="#2A819C" d="M289.819,314.239c0,0-0.055,0.18-0.166,0.482c-0.128,0.294-0.392,0.729-0.77,1.151
									c-0.387,0.417-0.89,0.867-1.484,1.244c-0.585,0.403-1.263,0.724-1.947,1.021c-0.697,0.267-1.405,0.5-2.09,0.639
									c-0.682,0.148-1.332,0.227-1.893,0.24c-0.559,0.022-1.028-0.022-1.351-0.071c-0.324-0.06-0.503-0.104-0.503-0.104
									s0.183-0.056,0.49-0.134c0.309-0.086,0.74-0.213,1.25-0.37c0.51-0.163,1.097-0.358,1.719-0.578
									c0.62-0.227,1.282-0.46,1.926-0.732c1.299-0.519,2.553-1.119,3.437-1.675c0.202-0.153,0.426-0.275,0.583-0.405
									c0.154-0.136,0.319-0.234,0.433-0.352C289.68,314.365,289.819,314.239,289.819,314.239z"/>
							</g>
							<g>
								<path fill="#2A819C" d="M229.199,231.271c0,0,0.653-0.039,1.593,0.056c0.472,0.042,1.014,0.11,1.592,0.24
									c0.579,0.115,1.187,0.282,1.795,0.445c0.594,0.215,1.188,0.429,1.729,0.668c0.549,0.218,1.033,0.498,1.438,0.754
									c0.816,0.497,1.304,0.921,1.304,0.921s-0.66-0.059-1.565-0.283c-0.227-0.055-0.472-0.114-0.725-0.192
									c-0.252-0.078-0.534-0.12-0.81-0.205c-0.563-0.139-1.145-0.331-1.729-0.518c-1.182-0.342-2.325-0.8-3.201-1.166
									C229.752,231.621,229.199,231.271,229.199,231.271z"/>
							</g>
							<g>
								<path fill="#2A819C" d="M232.396,211.128c0,0,0.278,1.224,0.538,3.067c0.138,0.922,0.266,1.999,0.388,3.153
									c0.184,1.141,0.335,2.359,0.489,3.578c0.064,0.61,0.129,1.221,0.191,1.821c0.065,0.6,0.111,1.184,0.19,1.756
									c0.044,0.271,0.088,0.538,0.131,0.798c0.063,0.254,0.123,0.503,0.183,0.744c0.089,0.228,0.175,0.448,0.258,0.662
									c0.089,0.213,0.225,0.385,0.327,0.574c0.094,0.199,0.267,0.319,0.389,0.476c0.132,0.147,0.251,0.3,0.405,0.396
									c0.294,0.203,0.526,0.442,0.773,0.549c0.472,0.269,0.741,0.422,0.741,0.422s-0.301-0.064-0.84-0.204
									c-0.278-0.05-0.572-0.223-0.933-0.388c-0.188-0.072-0.353-0.207-0.534-0.344c-0.173-0.144-0.389-0.269-0.536-0.473
									c-0.155-0.194-0.35-0.386-0.492-0.615c-0.132-0.234-0.271-0.481-0.396-0.739c-0.099-0.266-0.2-0.539-0.304-0.818
									c-0.08-0.282-0.143-0.576-0.216-0.874c-0.109-0.57-0.229-1.173-0.297-1.784c-0.077-0.608-0.156-1.227-0.234-1.844
									c-0.131-1.239-0.266-2.478-0.349-3.639c-0.036-1.159-0.037-2.243-0.02-3.173
									C232.274,212.372,232.396,211.128,232.396,211.128z"/>
							</g>
							<g>
								<path fill="#2A819C" d="M236.011,211.823c0,0,0.099,0.405,0.243,1.117c0.132,0.713,0.354,1.729,0.561,2.953
									c0.43,2.447,0.897,5.72,1.275,9.002c0.38,3.284,0.664,6.577,0.799,9.052c0.077,1.237,0.088,2.271,0.12,2.994
									c0.021,0.723,0.016,1.138,0.016,1.138s-0.101-0.406-0.248-1.118c-0.135-0.713-0.363-1.729-0.573-2.953
									c-0.439-2.447-0.921-5.717-1.307-8.996c-0.369-3.281-0.637-6.575-0.765-9.052c-0.071-1.237-0.08-2.273-0.109-2.997
									C236.005,212.238,236.011,211.823,236.011,211.823z"/>
							</g>
							<g>
								<path fill="#00818E" d="M250.325,208.932c0,0-0.065,0.23-0.106,0.63c-0.052,0.388-0.074,0.962-0.042,1.635
									c0.031,0.675,0.105,1.459,0.251,2.282c0.129,0.823,0.34,1.695,0.64,2.482c0.071,0.2,0.168,0.377,0.257,0.552
									c0.1,0.163,0.186,0.31,0.333,0.505c0.24,0.331,0.515,0.615,0.796,0.89c0.569,0.528,1.213,0.904,1.819,1.151
									c0.604,0.255,1.157,0.397,1.549,0.5c0.397,0.099,0.625,0.155,0.625,0.155s-0.229,0.064-0.642,0.113
									c-0.411,0.054-1.014,0.086-1.741-0.037c-0.725-0.115-1.576-0.44-2.331-1.026c-0.378-0.284-0.718-0.655-1.03-1.043
									c-0.133-0.162-0.3-0.396-0.425-0.636c-0.115-0.234-0.229-0.47-0.308-0.706c-0.351-0.94-0.476-1.896-0.54-2.788
									c-0.045-0.895,0-1.729,0.115-2.434c0.114-0.707,0.29-1.276,0.47-1.66c0.077-0.195,0.169-0.326,0.224-0.421
									C250.295,208.981,250.325,208.932,250.325,208.932z"/>
							</g>
						</g>
					</g>
				</g>
			</g>
			<g>
				<path fill="#4C2D15" d="M213.088,108.578c-0.987,0.304-1.896,0.841-2.589,1.565c1.102-3.208,3.485-6.386,7.018-7.05
					c-1.121-0.282-2.135-0.916-2.845-1.775c1.215,0.656,2.841,0.573,3.974-0.199c-0.596-0.157-1.202-0.319-1.705-0.656
					c-0.504-0.336-0.889-0.886-0.837-1.461c5.675,0.484,11.421-0.966,16.425-3.517c1.333-0.678,2.64-1.44,4.105-1.799
					c2.928-0.719,5.997,0.267,8.811,1.316c1.074,0.4,2.185,0.833,3.098,1.511c0.768,0.568,1.161,1.498,2.093,1.82
					c3.146,1.081,5.962,1.467,7.747,4.514c1.334,2.281,1.402,5.172,0.177,7.506c0.094-0.585-0.229-1.211-0.777-1.505
					c1.508,4.019,1.137,8.621-0.994,12.384c0.165-0.286,0.329-0.573,0.493-0.858c0.302,1.404-0.08,2.88-0.791,4.146
					c-0.711,1.269-3.228,1.797-4.278,2.835c-3.214,3.17-5.291,6.17-9.238,8.455c-1.229,0.711-2.86,0.937-4.254,1.4
					c-1.242,0.413-3.192,1.271-4.486,0.594c-2.982-1.556-5.316-4-7.09-6.696c-0.874-1.331-1.945-2.484-2.922-3.74
					c-1.102-1.414-1.357-3.379-2.26-4.965c-1.533-2.695-3.193-5.328-4.976-7.887c-0.821-1.18-1.705-2.459-1.605-3.864
					c-0.65,0.313-1.247,0.725-1.761,1.211c-0.253-1.381,0.522-2.875,1.838-3.545C214.66,108.252,213.85,108.345,213.088,108.578z"/>
				<g>
					<path fill="#DD9B63" d="M234.356,108.85c-0.359,0.275-0.62,0.724-0.978,1.001c4.053,0.789,9.322-1.242,12.078-4.154
						c0.695,2.768,1.133,5.171,1.731,7.943c0.57,2.162,0.76,4.163,1.146,6.33c0.16,1.392,0.491,4.438,1.422,4.397
						c0.525-0.54,0.964-1.266,1.178-2.007c1.7-1.694,6.164-0.421,4.84,4.524c-0.621,2.328-2.552,3.286-4.731,3.766
						c-2.343,0.49-1.625,1.024-3.368,2.807c-1.438,1.606-2.626,3.069-6.24,4.794c0,0-0.256,0.836-0.102,2.463
						c0.389,4.138,0.77,4.757,5.3,5.572c-2.372,1.836-4.933,7.078-9.333,6.953c-3.991-0.283-4.782-3.471-7.705-5.196
						c2.256-1.381,4.353-2.592,4.306-3.956c-0.02-0.532,0.145-1.282-0.515-4.875c-5.099-0.059-9.02-3.395-9.951-8.236
						c-0.666-3.669-0.675-8.456-0.536-12.044c0.093-2.41-0.663-5.748-0.579-8.38c0.609,0.322,1.661,0.308,2.797,0.259
						C228.279,110.592,231.418,109.847,234.356,108.85z"/>
				</g>
				<path fill="#4C2D15" d="M248.582,118.822c-0.43,1.366,0.086,3.455-0.085,4.9c-0.087,1.688-0.257,4.26-1.718,5.385
					c-1.115,0.884-2.488,0.241-3.52-0.401c-1.203-0.805-2.231-1.286-3.69-1.286c-1.718,0-3.436,0.24-5.15,0.322
					c-1.547,0.079-3.092,0.159-4.637,0.4c-1.545,0.242-2.231,0.322-3.09,1.688c-0.688,1.206-1.971,0.903-3.258,1.145
					c-0.404,0.074,0.009,3.711,0.114,4.108c0.335,1.281,1.123,2.349,2.28,3.1c2.741,1.775,6.289,1.919,9.486,1.52
					c3.126-0.391,6.767-1.222,9.317-3.042c3.607-2.571,4.895-6.107,5.667-10.044c0.257-1.126,0.601-2.251,0.687-3.455
					c0.086-0.965,0.428-2.572-0.086-3.537L248.582,118.822z"/>
				<g>
					<path fill="#DD9B63" d="M231.66,119.096c0.333,1.331-0.42,3.37-1.007,4.624c-0.67,1.176-1.842,2.352-1.591,3.763
						c0.251,1.333,2.094,1.804,3.35,1.804c1.759,0,3.349-0.784,4.355-2.039"/>
					<path fill="#B16F3D" d="M231.66,119.096c0.059,0.194,0.137,0.383,0.178,0.583c0.021,0.202,0.062,0.421,0.064,0.631
						c0.009,0.417-0.03,0.833-0.089,1.247c-0.075,0.408-0.167,0.813-0.277,1.213c-0.122,0.395-0.259,0.785-0.407,1.173l-0.02,0.037
						c-0.266,0.532-0.585,0.993-0.846,1.452c-0.127,0.227-0.246,0.453-0.344,0.668c-0.101,0.217-0.176,0.432-0.207,0.638
						c-0.05,0.207-0.028,0.403-0.013,0.599l0.001,0.019v0.009v0.005c0.007,0.023-0.052-0.197-0.026-0.103l0.001,0.003l0.018,0.049
						l0.034,0.098l0.066,0.196c0.042,0.175,0.104,0.134,0.134,0.199c0.016,0.043,0.082,0.107,0.17,0.171
						c0.078,0.063,0.143,0.138,0.25,0.183c0.184,0.117,0.397,0.204,0.621,0.292c0.227,0.074,0.461,0.156,0.707,0.193
						c0.23,0.057,0.521,0.067,0.71,0.1c0.266-0.005,0.577,0.024,0.805-0.008c0.239-0.018,0.482-0.046,0.738-0.1
						c0.258-0.032,0.498-0.125,0.75-0.194c0.238-0.1,0.496-0.175,0.728-0.303c0.237-0.12,0.475-0.246,0.697-0.402
						c0.236-0.14,0.437-0.325,0.664-0.495c-0.154,0.228-0.281,0.494-0.48,0.697c-0.178,0.227-0.384,0.429-0.607,0.613
						c-0.443,0.376-0.958,0.68-1.514,0.888c-0.271,0.119-0.569,0.191-0.877,0.255c-0.315,0.076-0.561,0.079-0.844,0.123
						c-0.362,0.011-0.625,0.003-0.938-0.035c-0.304-0.023-0.604-0.096-0.906-0.17c-0.303-0.083-0.601-0.199-0.892-0.369
						c-0.148-0.065-0.286-0.185-0.424-0.293c-0.137-0.1-0.276-0.218-0.408-0.413c-0.118-0.164-0.281-0.394-0.299-0.497l-0.072-0.194
						l-0.036-0.097l-0.017-0.049l-0.03-0.111v-0.009l-0.001-0.017l-0.003-0.033c-0.034-0.356-0.04-0.711,0.043-1.046
						c0.063-0.335,0.188-0.646,0.324-0.923c0.134-0.287,0.297-0.535,0.461-0.777l0.95-1.33l-0.02,0.037
						c0.367-0.684,0.714-1.387,0.992-2.112c0.139-0.363,0.263-0.732,0.355-1.112c0.052-0.188,0.069-0.372,0.107-0.568
						C231.659,119.505,231.649,119.298,231.66,119.096z"/>
				</g>
				<g>
					<g>
						<path fill="#4C2D15" d="M243.742,114.245c-1.13-2.048-3.915-2.839-6.1-1.782L243.742,114.245z"/>
					</g>
					<g>
						<path fill="#4C2D15" d="M229.387,113.522c-1.793-0.445-3.774,0.465-4.225,2.437L229.387,113.522z"/>
					</g>
					<g>
						<path fill="#FFFFFF" d="M239.071,130.328c0,0-0.091,0.121-0.262,0.325c-0.169,0.195-0.451,0.485-0.821,0.762
							c-0.361,0.295-0.836,0.582-1.372,0.845c-0.276,0.112-0.553,0.262-0.858,0.344c-0.302,0.104-0.617,0.181-0.939,0.252
							c-0.326,0.049-0.652,0.103-0.981,0.106c-0.33,0.026-0.656-0.013-0.968-0.051c-0.625-0.102-1.197-0.301-1.603-0.594
							c-0.213-0.123-0.38-0.274-0.512-0.419c-0.144-0.129-0.246-0.26-0.313-0.378c-0.146-0.231-0.215-0.36-0.215-0.36
							L239.071,130.328z"/>
					</g>
					<g>
						<path fill="#010202" d="M228.016,121.66c0.038,0.803-0.404,1.471-0.988,1.495c-0.587,0.024-1.091-0.603-1.128-1.406
							c-0.038-0.798,0.404-1.462,0.989-1.487C227.473,120.237,227.978,120.863,228.016,121.66z"/>
					</g>
					<g>
						<path fill="#010202" d="M241.048,121.093c0.038,0.802-0.404,1.468-0.987,1.493c-0.586,0.024-1.087-0.604-1.126-1.404
							c-0.039-0.799,0.4-1.464,0.987-1.488C240.507,119.669,241.009,120.294,241.048,121.093z"/>
					</g>
				</g>
			</g>
			<g>
				<g>
					<path fill="#FFFFFF" d="M258.449,162.362c-0.08,8.239,4.284,55.112,4.284,55.112c-0.104,1.348-28.701,2.79-45.021-1.851
						c-0.922-0.263,1.426-16.446,1.661-20.345c0.71-11.747,2.057-23.604,0.34-35.317c-0.598-4.059-2.101-9.825,3.308-11.221
						c2.379-0.615,4.127-1.075,5.96-1.331c-1.166,0.188,2.444-1.132,2.747-1.287c4.481,14.977,13.014-0.062,12.578-0.771
						c0.528-0.012,5.396,1.506,6.033,1.608c1.853,0.296,3.997,0.626,5.551,1.71C259.492,151.185,258.484,158.72,258.449,162.362z"/>
				</g>
				<g>
					<g>
						<g>
							<path fill="#F8BDAD" d="M209.326,193.045c6.23,1.604,8.722-6.585,9.737-10.712c0.577-2.352,1.094-4.828,1.229-7.244
								c0.281-5.002,1.659-9.936,1.835-15.011c0.049-1.448-0.081-8.949-2.911-6.479c-1.612,1.406-1.766,4.59-2.437,6.458
								c-2.309,6.431-4.618,12.863-6.929,19.293c-0.381,1.057-0.761,2.113-1.14,3.169"/>
						</g>
						<g>
							<path fill="#DD9B63" d="M204.371,176.884c-2.483-1.526-9.117-6.116-11.656-7.486c-1.323-0.661-2.542-2.268-3.319-3.444
								c-0.056-0.104,0.047,0.104,0,0c0.134-1.617-1.874-5.604-3.856-8.274c-0.505-0.603-3.804-5.684-4.613-3.698
								c-0.493,1.245,2.398,4.754,2.908,5.857c-0.018,0.009-0.028,0.018-0.045,0.026c-3.889-3.687-9.681-8.743-10.429-7.311
								c-0.605,0.886,3.049,3.162,4.824,5.414c-0.906,1.307-8.285-7.306-8.75-4.765c-0.056,1.374,7.647,6.703,7.044,7.481
								c-1.068-0.376-7.42-6.374-8.148-5.22c-0.402,1.049,1.092,2.199,2.198,3.221c0.939,0.712,2.197,1.934,3.589,3.136
								c0.891,0.767,2.015,1.629,0.75,1.109c-0.719-0.296-6.725-4.76-5.177-1.921c0.67,1.232,3.312,2.551,4.475,3.418
								c0.995,0.814,1.987,1.632,3.094,2.396c2.1,1.58,5.693,4.641,8.542,3.543l0.108-0.052c2.933,2.604,5.901,6.201,9.523,9.656
								l8.943,9.148c8.118,9.497,12.08,1.237,9.035-4.545C212.484,182.813,208.347,179.378,204.371,176.884z"/>
							<path fill="#B16F3D" d="M186.908,168.402c0,0-0.103-0.12-0.31-0.284c-0.19-0.165-0.514-0.366-0.882-0.634
								c-0.37-0.27-0.804-0.574-1.228-0.997c-0.202-0.197-0.448-0.497-0.574-0.732c-0.157-0.237-0.307-0.501-0.431-0.813
								c-0.139-0.3-0.201-0.603-0.275-0.9c-0.085-0.294-0.067-0.599-0.102-0.883c-0.002-0.575,0.075-1.099,0.182-1.535
								c0.232-0.868,0.507-1.401,0.507-1.401s0.007,0.149-0.002,0.406c-0.025,0.253-0.004,0.622-0.021,1.049
								c0.004,0.43,0.022,0.92,0.079,1.433c0.094,0.501,0.19,1.052,0.415,1.525c0.077,0.24,0.209,0.494,0.363,0.749
								c0.15,0.272,0.25,0.436,0.427,0.65c0.328,0.406,0.703,0.781,0.996,1.122c0.304,0.334,0.529,0.644,0.681,0.874
								C186.874,168.254,186.898,168.405,186.908,168.402z"/>
						</g>
					</g>
					<g>
						<g>
							<path fill="#BABFC0" d="M223.208,148.328c-2.028-0.092-3.888,3.123-4.64,4.426c-0.98,1.691-4.134,10.041-5.733,14.708
								c-0.511,1.491-3.969,10.755-4.182,10.998c-0.704,0.806-13.04-9.45-15.014-10.432c0,0,0.319,0.247-2.079-1.608
								c-1.802,1.289-5.158,4.46-5.062,5.129c0.061,0.42,1.807,1.385,1.821,2.229c0.016,0.878,13.225,14.587,18.415,18.324
								c4.9,3.525,7.699,2.658,11.211-1.977c4.305-5.678,5.458-11.885,5.46-19.037c0-3.868-0.024-7.462,0.351-11.248
								c0.271-2.729,0.882-6.461,0.045-9.097L223.208,148.328z"/>
						</g>
						<g>
							<g>
								<path fill="#9FA09F" d="M189.137,173.107c0,0-0.012-0.11-0.014-0.297c0.004-0.186-0.005-0.446,0.058-0.75
									c0.044-0.154,0.096-0.326,0.168-0.502c0.071-0.173,0.133-0.388,0.247-0.542c0.199-0.343,0.44-0.699,0.726-1.001
									c0.287-0.308,0.597-0.581,0.913-0.805c0.311-0.227,0.625-0.404,0.902-0.537c0.553-0.266,0.977-0.374,0.977-0.374
									s-0.166,0.42-0.536,0.904c-0.177,0.251-0.396,0.517-0.634,0.79c-0.228,0.281-0.503,0.544-0.739,0.833
									c-0.278,0.258-0.492,0.553-0.748,0.797c-0.237,0.252-0.416,0.485-0.638,0.688c-0.187,0.234-0.346,0.448-0.474,0.582
									C189.219,173.032,189.137,173.107,189.137,173.107z"/>
							</g>
							<g>
								<path fill="#9FA09F" d="M208.364,178.733c0,0,0.31,0.089,0.645,0.315c0.353,0.19,0.687,0.66,0.964,1.136
									c0.2,0.499,0.36,1.007,0.311,1.449c-0.02,0.427-0.144,0.711-0.144,0.711s-0.272-0.2-0.513-0.5
									c-0.119-0.15-0.248-0.323-0.386-0.514c-0.138-0.187-0.237-0.404-0.345-0.617c-0.101-0.206-0.202-0.411-0.263-0.63
									c-0.057-0.214-0.128-0.435-0.182-0.634C208.348,179.058,208.364,178.733,208.364,178.733z"/>
							</g>
							<g>
								<path fill="#9FA09F" d="M209.099,178.675c0,0,0.257-0.077,0.558-0.058c0.304,0.01,0.664,0.117,0.971,0.304
									c0.307,0.239,0.576,0.513,0.668,0.856c0.108,0.313,0.07,0.561,0.07,0.561s-0.286-0.003-0.551-0.066
									c-0.134-0.031-0.267-0.076-0.425-0.128c-0.153-0.049-0.286-0.137-0.423-0.222c-0.292-0.188-0.529-0.455-0.676-0.725
									C209.142,178.938,209.099,178.675,209.099,178.675z"/>
							</g>
						</g>
					</g>
				</g>
				<g>
					<g>
						<path fill="#BABFC0" d="M250.161,146.281c-4.196,2.922-4.278,6.982-4.557,11.719c-0.409,6.933,1.141,48.692,1.141,53.032
							c0,3.679,0.339,7.115,0.51,10.72c2.618,0.086,13.349,0.755,15.572,0.144c-0.046-0.566-0.048-1.283,0.244-1.794
							c0.423-0.743,1.116-0.479,1.622-1.137c0.95-1.237,0.168-5.964,0.087-7.534c-0.424-8.313-0.688-16.667-1.157-24.983
							c-0.429-7.596-2.387-15.084-3.231-22.6c-0.435-3.869-1.361-7.681-2.264-11.483C257.373,149.193,255.6,146.681,250.161,146.281
							z"/>
					</g>
					<g>
						<path fill="#9FA09F" d="M249.835,220.102c0,0,0.771-0.163,1.919-0.249c1.148-0.096,2.674-0.121,4.195-0.051
							c1.521,0.079,3.038,0.252,4.172,0.461c1.134,0.198,1.885,0.438,1.885,0.438s-0.771,0.164-1.919,0.251
							c-1.148,0.096-2.674,0.12-4.195,0.049c-1.521-0.079-3.038-0.255-4.172-0.462C250.586,220.34,249.835,220.102,249.835,220.102z
							"/>
					</g>
					<g>
						<path fill="#9FA09F" d="M251.624,203.353c0,0,0.146,0.116,0.387,0.332c0.241,0.213,0.567,0.54,0.959,0.91
							c0.386,0.376,0.822,0.818,1.294,1.294c0.463,0.477,0.957,0.986,1.451,1.495c0.5,0.497,0.979,1.021,1.453,1.48
							c0.232,0.237,0.457,0.467,0.67,0.685c0.224,0.203,0.428,0.407,0.616,0.599c0.369,0.395,0.715,0.672,0.94,0.904
							c0.229,0.226,0.357,0.366,0.357,0.366s-0.177-0.051-0.481-0.162c-0.298-0.119-0.757-0.261-1.225-0.553
							c-0.49-0.266-1.042-0.611-1.578-1.048c-0.271-0.215-0.564-0.424-0.817-0.683c-0.263-0.248-0.529-0.501-0.797-0.754
							c-0.484-0.551-0.995-1.08-1.39-1.644c-0.418-0.544-0.77-1.086-1.042-1.567C251.865,204.06,251.624,203.353,251.624,203.353z"
							/>
					</g>
				</g>
				<g>
					<g>
						<g>
							<path fill="#BABFC0" d="M223.365,147.384c-0.957,1.676-2.657,1.422-3.288,3.219c-0.819,2.319-0.281,9.312-0.278,11.753
								c0.011,5.326-0.324,9.994-0.595,15.268c-0.16,3.125-2.977,25.618-3.597,29.827c-0.282,1.93-1.027,3.79-0.826,5.774
								c0.143,1.435,0.826,1.342,1.504,2.476c0.54,0.899,0.076,1.705-0.156,2.797c2.554,1.017,5.643,1.245,8.32,2.045
								c1.027-1.753,3.175-50.661,3.528-58.332c0.113-2.521-0.198-4.884-0.393-7.419
								C227.501,153.699,228.763,148.224,223.365,147.384z"/>
						</g>
						<g>
							<g>
								<path fill="#9FA09F" d="M217.732,162.146c0,0,0.273,0.038,0.557,0.19c0.147,0.073,0.297,0.173,0.437,0.296
									c0.145,0.066,0.247,0.135,0.347,0.225c0.146,0.12,0.305,0.239,0.423,0.385c0.123,0.158,0.221,0.325,0.286,0.483
									c0.141,0.307,0.148,0.578,0.148,0.578s-0.288,0.02-0.591-0.051c-0.156-0.03-0.316-0.084-0.471-0.16
									c-0.18-0.064-0.341-0.165-0.51-0.271c-0.181-0.179-0.369-0.368-0.479-0.561c-0.071-0.174-0.119-0.351-0.142-0.515
									C217.684,162.424,217.732,162.146,217.732,162.146z"/>
							</g>
							<g>
								<path fill="#9FA09F" d="M219.73,156.131c0,0,0.031,0.542,0.059,1.491c0.015,0.947,0.07,2.303,0.075,3.928
									c0.054,3.248-0.196,7.585-0.442,11.917c-0.154,2.164-0.333,4.321-0.529,6.344c-0.195,2.021-0.385,3.907-0.601,5.521
									c-0.202,1.614-0.423,2.954-0.553,3.894c-0.143,0.938-0.24,1.473-0.24,1.473s-0.008-0.545,0.008-1.494
									c0.027-0.948,0.03-2.306,0.099-3.928c0.062-1.622,0.122-3.519,0.233-5.544c0.094-2.027,0.257-4.188,0.387-6.345
									c0.148-2.155,0.294-4.311,0.473-6.33c0.177-2.019,0.357-3.905,0.48-5.527c0.13-1.621,0.29-2.97,0.378-3.915
									C219.657,156.67,219.73,156.131,219.73,156.131z"/>
							</g>
							<g>
								<path fill="#9FA09F" d="M216.278,211.823c0,0,0.154-0.06,0.425-0.164c0.238-0.137,0.55-0.317,0.878-0.635
									c0.328-0.299,0.667-0.697,1.001-1.152c0.178-0.218,0.323-0.478,0.501-0.716c0.162-0.253,0.334-0.503,0.482-0.772
									c0.337-0.513,0.622-1.063,0.923-1.565c0.287-0.511,0.555-0.992,0.799-1.404c0.466-0.832,0.843-1.388,0.843-1.388
									s0.011,0.671-0.199,1.634c-0.104,0.481-0.263,1.035-0.487,1.609c-0.124,0.281-0.223,0.588-0.383,0.872
									c-0.145,0.291-0.302,0.582-0.473,0.868c-0.358,0.561-0.749,1.109-1.211,1.554c-0.444,0.454-0.938,0.821-1.421,1.035
									c-0.461,0.239-0.93,0.29-1.229,0.297C216.441,211.859,216.278,211.823,216.278,211.823z"/>
							</g>
							<g>
								<path fill="#9FA09F" d="M217.942,216.494c0,0,0.393-0.071,0.929-0.029c0.543,0.05,1.213,0.126,1.852,0.322
									c0.322,0.09,0.646,0.174,0.942,0.297c0.296,0.124,0.574,0.228,0.812,0.342c0.477,0.218,0.798,0.472,0.798,0.472
									s-0.361,0.148-0.909,0.208c-0.555,0.092-1.263-0.008-1.959-0.161c-0.68-0.217-1.346-0.505-1.768-0.834
									C218.199,216.8,217.942,216.494,217.942,216.494z"/>
							</g>
						</g>
					</g>
					<g>
						<g>
							<path fill="#CFCFCF" d="M230.748,144.612c-2.02,0.189-3.958,0.963-5.754,1.903c-2.605,1.364-4.228,1.984-3.176,5.057
								c1.732,5.055,2.402,9.681,6.522,12.731C227.905,156.131,229.025,147.309,230.748,144.612z"/>
						</g>
						<g>
							<g>
								<path fill="#FFFFFF" d="M224.991,157.902c0.125,3.709,0.317,7.414,0.431,11.123c0.01,0.319,0.991,0.418,0.984,0.178
									c-0.113-3.709-0.307-7.415-0.431-11.123C225.965,157.761,224.983,157.663,224.991,157.902L224.991,157.902z"/>
							</g>
						</g>
					</g>
				</g>
				<g>
					<g>
						<g>
							<path fill="#F8BDAD" d="M261.407,158.547c-0.109-0.396-0.233-0.796-0.381-1.195c-0.628-1.695-2.789-8.759-5.797-7.967
								c-0.449,0.117-0.81,0.433-1.106,0.774c-1.264,1.453-1.386,3.678-1.808,5.45c-1.083,4.56,6.487,23.732,7.492,28.478
								c0.498,2.353-0.522,11.146,4.786,10.721c1.441-0.116,6.03-0.208,6.032-1.562c0.009-5.527-1.244-10.993-2.997-16.247
								c-0.756-2.262-1.396-4.537-2.089-6.78C264.787,167.779,261.828,160.091,261.407,158.547z"/>
						</g>
						<g>
							<path fill="#DD9B63" d="M260.102,182.138c-2.602-1.341-9.597-5.434-12.241-6.617c-1.375-0.562-2.723-2.075-3.594-3.192
								c-0.065-0.101,0.054,0.102,0,0c0-1.622-1.139-5.005-4.533-7.969c-0.553-0.563-4.48-5.188-4.906-3.352
								c-0.3,1.298,2.787,4.563,3.386,5.627c-0.016,0.011-0.026,0.021-0.042,0.03c-4.183-3.393-10.376-8.013-11.001-6.53
								c-0.533,0.927,3.299,2.932,5.257,5.046c-0.797,1.37-8.866-6.681-9.12-4.113c0.059,1.373,8.181,6.128,7.643,6.947
								c-1.096-0.297-7.926-5.815-8.557-4.611c-0.314,1.073,1.273,2.112,2.459,3.05c0.996,0.642,2.352,1.767,3.838,2.865
								c0.952,0.7,2.145,1.478,0.842,1.054c-0.743-0.244-7.102-4.258-5.321-1.541c0.771,1.182,3.514,2.303,4.743,3.082
								c1.059,0.741,2.118,1.484,3.286,2.165c2.221,1.423,6.515,3.195,8.809,2.912l0.104-0.06c3.14,2.384,6.397,5.753,10.295,8.937
								l9.674,8.471c8.882,8.879,12.146,0.355,8.631-5.188C268.68,187.461,264.271,184.336,260.102,182.138z"/>
						</g>
					</g>
					<g>
						<g>
							<path fill="#BABFC0" d="M255.543,148.106c-0.931,0.095-1.776,0.443-2.539,1.428c-0.865,1.118-1.243,1.231-1.579,2.605
								c-0.452,1.855-0.507,5.328-0.335,7.229c0.383,4.261,2.479,9.358,3.984,13.368c0.743,1.98,2.556,4.678,3.541,6.721
								c0.11,0.229,0.266,0.034,0,0c-0.97-0.126-7.634-3.762-9.267-4.565c-1.86-0.915-2.755-1.643-4.029-2.237
								c-1.229,2.486-2.534,5.038-3.853,7.422c0.818,0.636,1.83,0.926,2.684,1.508c1.849,1.263,14.262,15.223,23.979,17.395
								c3.146,0.703,4.368-2.257,4.47-4.81c0.433-11.121-4.213-21.119-7.921-31.839c-1.139-3.294-2.722-6.661-3.914-9.928
								C259.882,149.985,258.2,147.838,255.543,148.106z"/>
						</g>
						<g>
							<g>
								<path fill="#9FA09F" d="M258.615,179.458c0,0,0.32-0.198,0.8-0.337c0.468-0.165,1.145-0.2,1.809-0.164
									c0.657,0.111,1.307,0.268,1.744,0.571c0.444,0.266,0.687,0.538,0.687,0.538s-0.374,0.109-0.854,0.131
									c-0.241,0.014-0.51,0.005-0.805,0.016c-0.293,0.008-0.594-0.03-0.896-0.063c-0.303-0.032-0.605-0.062-0.891-0.132
									c-0.28-0.069-0.562-0.133-0.8-0.211C258.932,179.661,258.615,179.458,258.615,179.458z"/>
							</g>
							<g>
								<path fill="#9FA09F" d="M247.559,174.74c0,0-0.021,0.111-0.075,0.295c-0.043,0.184-0.163,0.438-0.243,0.727
									c-0.043,0.146-0.088,0.299-0.149,0.449c-0.062,0.145-0.104,0.337-0.177,0.503c-0.126,0.345-0.284,0.72-0.443,1.089
									c-0.188,0.367-0.358,0.737-0.59,1.068c-0.206,0.336-0.458,0.627-0.688,0.856c-0.211,0.241-0.471,0.386-0.623,0.493
									c-0.164,0.103-0.263,0.15-0.263,0.15s0.023-0.115,0.075-0.298c0.045-0.188,0.146-0.414,0.228-0.713
									c0.087-0.293,0.206-0.611,0.329-0.967c0.125-0.346,0.282-0.724,0.442-1.093c0.188-0.368,0.363-0.739,0.597-1.069
									c0.204-0.33,0.471-0.634,0.702-0.865c0.222-0.243,0.459-0.363,0.615-0.475C247.457,174.791,247.559,174.74,247.559,174.74z"
									/>
							</g>
							<g>
								<path fill="#9FA09F" d="M263.654,181.884c0.032,0.018-0.075-0.015-0.21-0.059c-0.145-0.049-0.355-0.119-0.624-0.21
									c-0.534-0.189-1.292-0.471-2.187-0.832c-0.445-0.181-0.929-0.377-1.439-0.584c-0.23-0.093-0.564-0.235-0.712-0.268
									c-0.283-0.081-0.554-0.137-0.863-0.272c-0.302-0.123-0.609-0.249-0.92-0.376c-0.284-0.13-0.571-0.263-0.861-0.396
									c-0.571-0.28-1.151-0.564-1.731-0.849c-1.14-0.601-2.275-1.205-3.318-1.809c-0.519-0.3-1.021-0.59-1.497-0.864
									c-0.506-0.297-0.918-0.58-1.329-0.849c-1.614-1.058-2.643-1.862-2.643-1.862s1.216,0.447,2.973,1.258
									c0.433,0.201,0.901,0.42,1.397,0.65c0.514,0.226,1.049,0.464,1.589,0.73c1.092,0.515,2.231,1.104,3.376,1.679
									c0.567,0.293,1.135,0.587,1.694,0.876c0.278,0.144,0.555,0.287,0.827,0.428c0.255,0.127,0.507,0.252,0.754,0.376
									c0.23,0.137,0.542,0.214,0.804,0.327c0.402,0.152,0.573,0.276,0.844,0.413c0.492,0.262,0.943,0.528,1.359,0.775
									c0.835,0.489,1.515,0.925,1.988,1.234C263.393,181.709,263.678,181.908,263.654,181.884z"/>
							</g>
							<g>
								<path fill="#9FA09F" d="M251.103,154.362c0,0,0.037,0.417,0.072,1.146c0.016,0.365,0.034,0.808,0.056,1.315
									c0.027,0.508,0.122,1.066,0.169,1.677c0.034,0.299,0.052,0.636,0.103,0.934c0.06,0.331,0.121,0.673,0.185,1.025
									c0.107,0.716,0.34,1.396,0.496,2.14c0.433,1.475,0.902,3.046,1.473,4.597c0.532,1.563,1.118,3.112,1.624,4.591l0.191,0.548
									l0.087,0.242l0.106,0.262c0.141,0.348,0.278,0.688,0.413,1.02c0.276,0.656,0.585,1.229,0.838,1.792
									c0.541,1.116,0.987,2.065,1.269,2.742c0.285,0.676,0.432,1.065,0.432,1.065s-0.243-0.345-0.638-0.956
									c-0.37-0.624-1.001-1.454-1.667-2.52c-0.327-0.54-0.728-1.122-1.053-1.762c-0.162-0.318-0.328-0.646-0.498-0.981
									l-0.128-0.252l-0.122-0.29l-0.219-0.536c-0.6-1.437-1.205-2.992-1.768-4.569c-0.271-0.792-0.53-1.59-0.762-2.386
									c-0.258-0.785-0.406-1.596-0.604-2.359c-0.139-0.785-0.31-1.563-0.356-2.271c-0.031-0.355-0.063-0.702-0.093-1.037
									c-0.02-0.371,0.005-0.685,0.005-1.009c0.015-0.636,0.017-1.219,0.072-1.724c0.061-0.505,0.113-0.944,0.156-1.307
									C251.034,154.775,251.103,154.362,251.103,154.362z"/>
							</g>
							<g>
								<path fill="#9FA09F" d="M244.15,181.585c0,0,0.098,0.064,0.28,0.187c0.187,0.117,0.445,0.309,0.768,0.57
									c0.639,0.524,1.549,1.263,2.605,2.187c1.058,0.917,2.291,1.988,3.613,3.135c0.663,0.566,1.349,1.152,2.045,1.747
									c0.704,0.585,1.413,1.186,2.141,1.762c0.727,0.575,1.435,1.179,2.174,1.712c0.729,0.549,1.435,1.104,2.153,1.589
									c0.702,0.512,1.4,0.972,2.069,1.401c0.658,0.45,1.317,0.803,1.915,1.158c0.594,0.366,1.172,0.623,1.676,0.883
									c0.254,0.127,0.491,0.245,0.711,0.355c0.229,0.086,0.438,0.166,0.628,0.237c0.762,0.288,1.2,0.472,1.2,0.472
									s-0.459-0.078-1.27-0.248c-0.202-0.045-0.426-0.095-0.67-0.149c-0.236-0.078-0.492-0.162-0.766-0.252
									c-0.545-0.185-1.181-0.363-1.815-0.681c-0.646-0.294-1.364-0.589-2.063-1.003c-0.716-0.388-1.472-0.799-2.205-1.296
									c-0.752-0.472-1.514-0.979-2.257-1.537c-0.762-0.535-1.489-1.133-2.236-1.709c-1.454-1.198-2.872-2.437-4.139-3.661
									c-1.278-1.213-2.421-2.393-3.381-3.421c-0.964-1.021-1.727-1.917-2.285-2.508c-0.28-0.292-0.487-0.545-0.651-0.692
									C244.234,181.668,244.15,181.585,244.15,181.585z"/>
							</g>
						</g>
					</g>
				</g>
				<g>
					<g>
						<path fill="#CFCFCF" d="M245.608,170.021c0.642-1.814,0.782-3.843,1.589-5.749c0.865-2.045,1.578-4.088,2.476-6.12
							c1.994-4.515,3.476-9.449,9.479-8.564c-2.031-2.105-2.874-3.025-5.624-4.204c-2.414-1.034-6.961-1.982-9.676-1.817
							C248.057,144.585,244.017,152.832,245.608,170.021z"/>
					</g>
					<g>
						<g>
							<path fill="#FFFFFF" d="M247.862,157.473c0.027,4.607,0.645,9.159,0.896,13.753c0.015,0.271,0.967,0.517,0.949,0.197
								c-0.248-4.557-0.867-9.071-0.894-13.64C248.812,157.452,247.861,157.262,247.862,157.473L247.862,157.473z"/>
						</g>
					</g>
				</g>
			</g>
		</g>
	</g>
</g>
<g>
	<path fill="#711F0D" d="M153.46,170.488c0.195-1.071,0.685-0.259,0.663-1.346c-0.012-0.66-0.929-3.333-1.713-3.432
		c-0.818-0.104-1.216,0.599-1.602,1.205c-0.822,1.285-2.202,5.441-2.165,6.106c0.031,0.609,0.007,0.808,0.363,1.302
		c0.32,0.443,1.433,1.427,2.063,1.049c0.383-0.229,0.457-1.264,0.581-1.643C152.129,172.265,152.809,170.994,153.46,170.488z"/>
</g>
<g>
	<g>
		<g>
			<g>
				<path fill="#FCE0D9" d="M145.104,169.271c1.192-0.024,2.854,0.042,3.897-0.422c-0.29-0.799-7.072,0.466-6.881-0.94
					c-0.162-0.45,2.199-0.592,3.13-0.671c1.195-0.026,2.338-0.297,3.477-0.37c-1.694-0.76-6.901,0.533-6.86-0.529
					c0.057-0.792,4.67-1.114,6.43-1.08c-2.104-0.729-4.611,0.254-5.993-0.596c-0.178-0.683,3.733-1.241,5.021-0.976
					c1.496,0.365,1.978,0.45,3.205,1.249c1.811,1.231,5.576,5.568,6.973,8.322c4.529,2.897,11.416,4.884,15.517,8.301
					c0,0,0.999-0.213,3.499,2.073c1.877,1.722,5.049,5.759,3.318,8.002c-1.645,2.131-4.002,2.544-5.76,1.495
					c-3.019-1.801-5.72-4.113-8.313-6.409c-2.559-2.265-5.023-4.627-7.422-7.041c-0.497-0.498-2.376-3.137-3.121-3.217
					c-1.041-0.112-1.529,0.395-2.498-0.331c-1.338-0.878-3.361-3.749-4.543-5.177c-0.56-0.148-1.122-0.314-1.952-0.449
					c-1.032-0.114-1.356,0.083-2.709-0.431C142.776,169.612,144.225,169.302,145.104,169.271z"/>
			</g>
			<g>
				<path fill="#F4A07E" d="M161.26,175.297c0,0,0.826,0.207,2.013,0.623c1.187,0.404,2.747,1.01,4.265,1.738
					c0.746,0.39,1.505,0.755,2.172,1.191c0.681,0.405,1.286,0.838,1.778,1.245c0.512,0.375,0.872,0.78,1.135,1.039
					c0.252,0.271,0.396,0.425,0.396,0.425s-0.188-0.098-0.519-0.268c-0.329-0.169-0.764-0.448-1.328-0.717
					c-0.277-0.141-0.577-0.293-0.885-0.465c-0.319-0.156-0.656-0.32-1.004-0.489c-0.34-0.184-0.708-0.343-1.073-0.523
					c-0.366-0.179-0.738-0.359-1.11-0.54c-1.49-0.724-2.979-1.48-4.068-2.119C161.942,175.806,161.26,175.297,161.26,175.297z"/>
			</g>
		</g>
	</g>
</g>
<g>
	<path fill="#B23217" d="M152.604,165.784c2.265,1.58,3.05,3.254,3.05,3.254c0.157,4.111-2.235,7.068-3.211,8.325
		c-0.405,0.081-2.548-1.786-3.039-2.573c0,0,0.926-1.095,1.208-1.708C151.461,171.244,152.261,168.623,152.604,165.784z"/>
</g>
</svg>
