<?xml version="1.0" encoding="utf-8"?>
<!-- Generator: Adobe Illustrator 16.0.0, SVG Export Plug-In . SVG Version: 6.00 Build 0)  -->
<!DOCTYPE svg PUBLIC "-//W3C//DTD SVG 1.1//EN" "http://www.w3.org/Graphics/SVG/1.1/DTD/svg11.dtd">
<svg version="1.1" id="Capa_1" xmlns="http://www.w3.org/2000/svg" xmlns:xlink="http://www.w3.org/1999/xlink" x="0px" y="0px"
	 width="400px" height="400px" viewBox="0 0 400 400" enable-background="new 0 0 400 400" xml:space="preserve">
<g>
	<g>
		<linearGradient id="SVGID_1_" gradientUnits="userSpaceOnUse" x1="143.9238" y1="317.1318" x2="143.9238" y2="267.9326">
			<stop  offset="0" style="stop-color:#6C5760"/>
			<stop  offset="1" style="stop-color:#907A8C"/>
		</linearGradient>
		<polygon fill="url(#SVGID_1_)" points="112.141,317.132 164.703,272.549 169.965,270.055 176.389,269.636 176.979,268.955 
			175.254,267.933 168.34,269.358 165.677,270.543 110.869,316.891 		"/>
		
			<linearGradient id="SVGID_2_" gradientUnits="userSpaceOnUse" x1="129.4297" y1="331.5986" x2="129.4297" y2="283.7773" gradientTransform="matrix(0.9965 -0.0837 0.0837 0.9965 -4.8809 -2.7476)">
			<stop  offset="0" style="stop-color:#6C5760"/>
			<stop  offset="1" style="stop-color:#907A8C"/>
		</linearGradient>
		<polygon fill="url(#SVGID_2_)" points="120.449,316.9 141.301,317.436 142.656,316.096 128.943,302.88 129.769,302.18 
			157.006,296.641 147.315,287.126 148.42,286.359 165.334,286.288 159.293,277.138 160.036,276.507 174.611,274.217 
			166.359,271.542 167.445,270.946 177.676,269.867 174.495,267.073 175.227,266.903 179.326,270.061 178.623,270.942 
			168.061,271.307 175.973,274.271 175.404,274.984 160.036,277.054 166.287,286.43 165.678,287.195 147.908,287.161 
			157.974,296.867 157.314,297.695 130.334,302.795 143.482,315.06 141.971,317.687 120.449,316.9 		"/>
		<linearGradient id="SVGID_3_" gradientUnits="userSpaceOnUse" x1="142.6758" y1="317.1318" x2="142.6758" y2="266.7773">
			<stop  offset="0" style="stop-color:#85757B"/>
			<stop  offset="1" style="stop-color:#BBAEBA"/>
		</linearGradient>
		<polygon fill="url(#SVGID_3_)" points="106.241,316.891 159.844,271.896 168.584,267.933 176.934,266.777 179.111,267.933 
			133.193,317.132 131.016,317.132 176.412,269.023 174.846,268.41 168.34,269.358 159.859,273.131 107.148,317.132 		"/>
		<linearGradient id="SVGID_4_" gradientUnits="userSpaceOnUse" x1="140.0264" y1="317.1318" x2="140.0264" y2="269.25">
			<stop  offset="0" style="stop-color:#85757B"/>
			<stop  offset="1" style="stop-color:#BBAEBA"/>
		</linearGradient>
		<polygon fill="url(#SVGID_4_)" points="110.315,314.489 131.049,316.768 132.512,315.546 126.406,301.057 127.293,300.316 
			148.438,297.358 142.038,288.008 143.376,286.891 157.604,287.739 152.831,278.998 154.168,277.882 167.858,276.487 
			159.859,273.131 160.99,272.628 171.275,272.409 168.34,269.358 169.084,269.25 172.904,272.739 172.131,273.56 161.574,273.039 
			169.211,276.654 168.584,277.317 154.292,278.619 158.541,287.961 157.87,288.673 143.266,288.012 149.385,297.666 
			148.658,298.436 127.293,301.76 133.422,314.582 131.695,317.073 107.148,317.132 		"/>
		<linearGradient id="SVGID_5_" gradientUnits="userSpaceOnUse" x1="160.0352" y1="317.209" x2="160.0352" y2="267.9326">
			<stop  offset="0" style="stop-color:#6C5760"/>
			<stop  offset="1" style="stop-color:#907A8C"/>
		</linearGradient>
		<polygon fill="url(#SVGID_5_)" points="179.111,267.933 180.019,269.25 141.814,317.209 140.053,317.209 179.111,269.817 
			178.112,269.003 		"/>
		<linearGradient id="SVGID_6_" gradientUnits="userSpaceOnUse" x1="156.4277" y1="317.1318" x2="156.4277" y2="267.9326">
			<stop  offset="0" style="stop-color:#6C5760"/>
			<stop  offset="1" style="stop-color:#907A8C"/>
		</linearGradient>
		<polygon fill="url(#SVGID_6_)" points="133.193,317.132 179.111,267.933 179.661,268.731 135.371,317.132 		"/>
	</g>
	<g>
		
			<linearGradient id="SVGID_7_" gradientUnits="userSpaceOnUse" x1="-123.1753" y1="318.6768" x2="-123.1753" y2="269.4775" gradientTransform="matrix(-1 0 0 1 116.5762 0)">
			<stop  offset="0" style="stop-color:#6C5760"/>
			<stop  offset="1" style="stop-color:#907A8C"/>
		</linearGradient>
		<polygon fill="url(#SVGID_7_)" points="271.536,318.676 218.974,274.093 213.711,271.599 207.287,271.18 206.697,270.499 
			208.422,269.477 215.336,270.902 217.999,272.087 272.807,318.435 		"/>
		
			<linearGradient id="SVGID_8_" gradientUnits="userSpaceOnUse" x1="-136.8584" y1="310.7813" x2="-136.8584" y2="262.9609" gradientTransform="matrix(-0.9965 -0.0837 -0.0837 0.9965 121.4571 -2.7476)">
			<stop  offset="0" style="stop-color:#6C5760"/>
			<stop  offset="1" style="stop-color:#907A8C"/>
		</linearGradient>
		<polygon fill="url(#SVGID_8_)" points="263.228,318.444 242.375,318.979 241.02,317.64 254.732,304.424 253.907,303.724 
			226.67,298.185 236.36,288.67 235.256,287.903 218.342,287.832 224.383,278.682 223.64,278.051 209.064,275.761 217.317,273.086 
			216.231,272.49 206,271.411 209.181,268.617 208.449,268.447 204.351,271.604 205.053,272.486 215.615,272.851 207.704,275.814 
			208.271,276.528 223.64,278.599 217.389,287.974 217.999,288.739 235.768,288.705 225.702,298.411 226.362,299.238 
			253.342,304.339 240.194,316.604 241.705,319.23 263.228,318.444 		"/>
		
			<linearGradient id="SVGID_9_" gradientUnits="userSpaceOnUse" x1="-124.4229" y1="318.6768" x2="-124.4229" y2="268.3223" gradientTransform="matrix(-1 0 0 1 116.5762 0)">
			<stop  offset="0" style="stop-color:#85757B"/>
			<stop  offset="1" style="stop-color:#BBAEBA"/>
		</linearGradient>
		<polygon fill="url(#SVGID_9_)" points="277.435,318.435 223.832,273.44 215.092,269.477 206.743,268.321 204.564,269.477 
			250.482,318.676 252.661,318.676 207.265,270.567 208.83,269.954 215.336,270.902 223.817,274.675 276.527,318.676 		"/>
		
			<linearGradient id="SVGID_10_" gradientUnits="userSpaceOnUse" x1="-127.0728" y1="318.6768" x2="-127.0728" y2="270.7949" gradientTransform="matrix(-1 0 0 1 116.5762 0)">
			<stop  offset="0" style="stop-color:#85757B"/>
			<stop  offset="1" style="stop-color:#BBAEBA"/>
		</linearGradient>
		<polygon fill="url(#SVGID_10_)" points="273.361,316.033 252.627,318.312 251.164,317.09 257.27,302.601 256.383,301.86 
			235.237,298.902 241.638,289.552 240.3,288.435 226.072,289.283 230.845,280.542 229.508,279.426 215.817,278.031 
			223.817,274.675 222.686,274.172 212.4,273.953 215.336,270.902 214.592,270.794 210.771,274.284 211.545,275.104 
			222.102,274.583 214.466,278.198 215.092,278.861 229.384,280.163 225.135,289.505 225.806,290.217 240.41,289.556 
			234.292,299.21 235.019,299.979 256.383,303.304 250.255,316.126 251.98,318.617 276.527,318.676 		"/>
		
			<linearGradient id="SVGID_11_" gradientUnits="userSpaceOnUse" x1="-107.0635" y1="318.7539" x2="-107.0635" y2="269.4775" gradientTransform="matrix(-1 0 0 1 116.5762 0)">
			<stop  offset="0" style="stop-color:#6C5760"/>
			<stop  offset="1" style="stop-color:#907A8C"/>
		</linearGradient>
		<polygon fill="url(#SVGID_11_)" points="204.564,269.477 203.657,270.794 241.862,318.753 243.623,318.753 204.564,271.361 
			205.563,270.547 		"/>
		
			<linearGradient id="SVGID_12_" gradientUnits="userSpaceOnUse" x1="-110.6719" y1="318.6768" x2="-110.6719" y2="269.4775" gradientTransform="matrix(-1 0 0 1 116.5762 0)">
			<stop  offset="0" style="stop-color:#6C5760"/>
			<stop  offset="1" style="stop-color:#907A8C"/>
		</linearGradient>
		<polygon fill="url(#SVGID_12_)" points="250.482,318.676 204.564,269.477 204.015,270.275 248.305,318.676 		"/>
	</g>
	<linearGradient id="SVGID_13_" gradientUnits="userSpaceOnUse" x1="193.3926" y1="326.7607" x2="193.3926" y2="316.8906">
		<stop  offset="0" style="stop-color:#561D47"/>
		<stop  offset="1" style="stop-color:#593953"/>
	</linearGradient>
	<polygon fill="url(#SVGID_13_)" points="81.195,326.761 106.241,316.891 284.695,318.488 305.59,325.994 	"/>
	<linearGradient id="SVGID_14_" gradientUnits="userSpaceOnUse" x1="192.7832" y1="163.3467" x2="192.7832" y2="81.4678">
		<stop  offset="0" style="stop-color:#D0EBF8"/>
		<stop  offset="1" style="stop-color:#FFFFFF"/>
	</linearGradient>
	<path fill="url(#SVGID_14_)" d="M208.366,163.347h-31.167l2.843-38.56c0,0,0.392-6.882,2.276-15.778
		c1.861-8.789,5.161-19.537,10.998-27.541c5.826,8.004,9.137,18.752,10.998,27.541c1.873,8.896,2.266,15.778,2.266,15.778
		L208.366,163.347z"/>
	<linearGradient id="SVGID_15_" gradientUnits="userSpaceOnUse" x1="192.8652" y1="177.0137" x2="192.8652" y2="163.3467">
		<stop  offset="0" style="stop-color:#D0EBF8"/>
		<stop  offset="1" style="stop-color:#FFFFFF"/>
	</linearGradient>
	<polygon fill="url(#SVGID_15_)" points="204.435,177.014 181.295,177.014 181.697,163.347 204.054,163.347 	"/>
	<linearGradient id="SVGID_16_" gradientUnits="userSpaceOnUse" x1="192.7832" y1="286.9229" x2="192.7832" y2="187.8926">
		<stop  offset="0" style="stop-color:#B6E0EE"/>
		<stop  offset="1" style="stop-color:#FFFFFF"/>
	</linearGradient>
	<polygon fill="url(#SVGID_16_)" points="207.473,286.923 178.093,286.923 180.979,187.893 204.729,187.893 	"/>
	<polygon fill="#6992CC" points="177.195,163.351 181.566,167.682 204.177,167.682 208.369,163.351 	"/>
	<linearGradient id="SVGID_17_" gradientUnits="userSpaceOnUse" x1="193.3164" y1="109.2783" x2="193.3164" y2="82.193">
		<stop  offset="0" style="stop-color:#A71F48"/>
		<stop  offset="1" style="stop-color:#E42926"/>
	</linearGradient>
	<path fill="url(#SVGID_17_)" d="M204.314,109.009h-21.996c1.861-8.789,5.161-19.537,10.998-27.541
		C199.143,89.472,202.453,100.22,204.314,109.009z"/>
	<linearGradient id="SVGID_18_" gradientUnits="userSpaceOnUse" x1="193.2373" y1="110.4336" x2="193.2373" y2="109.0506">
		<stop  offset="0" style="stop-color:#781D47"/>
		<stop  offset="1" style="stop-color:#991B33"/>
	</linearGradient>
	<polygon fill="url(#SVGID_18_)" points="180.918,109.014 180.51,110.42 205.965,110.42 205.42,109.014 	"/>
	<polygon fill="#6992CC" points="180.766,195.177 180.336,209.903 205.345,209.903 204.938,195.177 	"/>
	<polygon fill="#6992CC" points="204.938,195.177 204.938,195.79 180.748,195.79 180.766,195.177 	"/>
	<polygon opacity="0.5" fill="#6992CC" points="179.391,133.616 197.117,133.616 197.117,163.347 196.301,163.351 196.845,133.958 
		179.344,134.269 	"/>
	<polygon opacity="0.5" fill="#6992CC" points="205.896,118.214 193.316,123.987 180.1,123.987 180.1,123.511 192.998,123.715 
		205.823,117.683 	"/>
	<linearGradient id="SVGID_19_" gradientUnits="userSpaceOnUse" x1="192.8535" y1="187.8926" x2="192.8535" y2="177.0137">
		<stop  offset="0" style="stop-color:#A71F48"/>
		<stop  offset="1" style="stop-color:#E42926"/>
	</linearGradient>
	<polygon fill="url(#SVGID_19_)" points="203.446,187.893 182.261,187.893 182.543,177.014 203.185,177.014 	"/>
	<linearGradient id="SVGID_20_" gradientUnits="userSpaceOnUse" x1="192.8652" y1="178.1182" x2="192.8652" y2="177.0137">
		<stop  offset="0" style="stop-color:#781D47"/>
		<stop  offset="1" style="stop-color:#991B33"/>
	</linearGradient>
	<polygon fill="url(#SVGID_20_)" points="181.295,177.014 182.521,177.845 203.211,178.118 204.435,177.014 	"/>
	<linearGradient id="SVGID_21_" gradientUnits="userSpaceOnUse" x1="192.8535" y1="187.8926" x2="192.8535" y2="186.7031">
		<stop  offset="0" style="stop-color:#781D47"/>
		<stop  offset="1" style="stop-color:#991B33"/>
	</linearGradient>
	<polygon fill="url(#SVGID_21_)" points="204.729,187.893 203.418,186.703 182.291,186.703 180.979,187.893 	"/>
	<g>
		<linearGradient id="SVGID_22_" gradientUnits="userSpaceOnUse" x1="174.9785" y1="303.2139" x2="174.9785" y2="222.2705">
			<stop  offset="0" style="stop-color:#B6E0EE"/>
			<stop  offset="1" style="stop-color:#FFFFFF"/>
		</linearGradient>
		<path fill="url(#SVGID_22_)" d="M190.638,266.211l-0.186,36.861l-31.134,0.142l4.814-38.364c0,0,0.74-6.85,3.081-15.638
			c1.23-4.649,2.907-9.833,5.161-14.832h0.012c1.938-4.334,4.323-8.537,7.22-12.109c0,0,0,0.012,0.011,0.022
			c2.385,3.647,4.247,7.819,5.729,12.087c1.84,5.413,3.049,10.999,3.832,15.954C190.594,259.317,190.638,266.211,190.638,266.211z"
			/>
		<polygon fill="#6992CC" points="190.455,303.077 190.636,263.13 164.133,263.13 159.321,303.219 		"/>
		<linearGradient id="SVGID_23_" gradientUnits="userSpaceOnUse" x1="178.8662" y1="234.3799" x2="178.8662" y2="222.2705">
			<stop  offset="0" style="stop-color:#A71F48"/>
			<stop  offset="1" style="stop-color:#E42926"/>
		</linearGradient>
		<path fill="url(#SVGID_23_)" d="M185.346,234.38h-12.959c1.938-4.334,4.323-8.537,7.22-12.109
			C181.991,225.931,183.864,230.101,185.346,234.38z"/>
		<path fill="#FFFFFF" d="M172.904,302.713c0,0,1.353-23.095,2.074-33.463c0.723-10.368,4.628-46.979,4.628-46.979
			s-3.271,9.842-4.087,12.109c-0.817,2.27-0.541,15.609-0.541,17.515s-3.996,13.794-4.995,17.061
			c-0.998,3.267-3.721,33.758-3.721,33.758H172.904z"/>
		<path opacity="0.2" fill="#6992CC" d="M190.638,266.211l-0.186,36.861l-31.134,0.142l1.046-7.035l23.122-16.524
			c0,0,3.373-18.05,1.859-33.48c-1.471-14.94-5.479-23.369-5.729-23.881c2.385,3.647,4.247,7.819,5.729,12.087
			c1.84,5.413,3.049,10.999,3.832,15.954C190.594,259.317,190.638,266.211,190.638,266.211z"/>
	</g>
	<path fill="#FFFFFF" d="M193.316,81.468c0,0-3.459,9.986-4.911,16.701c-1.452,6.716-2.179,10.799-2.179,10.799l-0.906,0.046v1.406
		h0.816c0,0-1.634,17.692-1.634,21.868s-1.542,30.947-1.542,30.947l1.451,4.446l0.091,9.332l0.907,0.552l0.182,9.138l-0.907,1.189
		c0,0-1.724,25.643-1.724,29.531c0,3.89,0.564,12.251,0.564,12.251l1.82,3.48c0,0-0.889-18.988-0.889-21.848
		c0-2.857,0.889-23.415,0.889-23.415l1.086-1.189l0.477-9.901v-8.984l-0.855-4.9c0,0-0.643-30.219-0.643-33.689
		s3.812-18.808,3.812-18.808h-1.083l0.267-1.411l1.634-0.223c0,0,0.498-8.393,0.498-11.389S193.316,81.468,193.316,81.468z"/>
	<path opacity="0.2" fill="#6992CC" d="M193.316,81.468c0,0,7.146,17.29,8.429,27.41l1.905,0.136v1.406h-1.021
		c0,0,1.685,29.735,1.685,37.917c0,8.183-0.261,15.01-0.261,15.01l-2.854,4.335l5.497,119.241h-6.857l-5.174-119.241l1.635-4.331
		l1.724-52.931h0.791v-1.406l-0.678-0.068C198.138,108.945,198.5,96.257,193.316,81.468z"/>
	<g>
		
			<linearGradient id="SVGID_24_" gradientUnits="userSpaceOnUse" x1="-134.105" y1="303.2148" x2="-134.105" y2="222.2715" gradientTransform="matrix(-1 0 0 1 76.666 0)">
			<stop  offset="0" style="stop-color:#B6E0EE"/>
			<stop  offset="1" style="stop-color:#FFFFFF"/>
		</linearGradient>
		<path fill="url(#SVGID_24_)" d="M195.112,266.211l0.185,36.861l31.134,0.142l-4.813-38.364c0,0-0.741-6.85-3.082-15.638
			c-1.23-4.649-2.907-9.833-5.162-14.832h-0.011c-1.938-4.334-4.323-8.537-7.22-12.109c0,0,0,0.012-0.011,0.022
			c-2.385,3.647-4.247,7.819-5.728,12.087c-1.841,5.413-3.05,10.999-3.833,15.954C195.156,259.317,195.112,266.211,195.112,266.211z
			"/>
		<polygon fill="#6992CC" points="195.295,303.077 195.114,263.13 221.617,263.13 226.429,303.219 		"/>
		
			<linearGradient id="SVGID_25_" gradientUnits="userSpaceOnUse" x1="-130.2178" y1="234.3809" x2="-130.2178" y2="222.2715" gradientTransform="matrix(-1 0 0 1 76.666 0)">
			<stop  offset="0" style="stop-color:#A71F48"/>
			<stop  offset="1" style="stop-color:#E42926"/>
		</linearGradient>
		<path fill="url(#SVGID_25_)" d="M200.405,234.38h12.958c-1.938-4.334-4.323-8.537-7.22-12.109
			C203.759,225.931,201.886,230.101,200.405,234.38z"/>
		<path fill="#FFFFFF" d="M212.846,302.713c0,0-1.353-23.095-2.074-33.463s-4.628-46.979-4.628-46.979s3.271,9.842,4.087,12.109
			c0.817,2.27,0.541,15.609,0.541,17.515s3.997,13.794,4.995,17.061s3.721,33.758,3.721,33.758H212.846z"/>
		<path opacity="0.2" fill="#6992CC" d="M195.112,266.211l0.185,36.861l31.134,0.142l-1.045-7.035l-23.122-16.524
			c0,0-3.373-18.05-1.858-33.48c1.47-14.94,5.477-23.369,5.728-23.881c-2.385,3.647-4.247,7.819-5.728,12.087
			c-1.841,5.413-3.05,10.999-3.833,15.954C195.156,259.317,195.112,266.211,195.112,266.211z"/>
	</g>
	<polygon opacity="0.5" fill="#6992CC" points="166.263,253.036 189.572,253.036 189.514,252.611 166.426,252.338 	"/>
	<polygon opacity="0.5" fill="#6992CC" points="195.551,258.607 207.946,258.952 211.908,249.898 218.717,249.898 218.668,249.711 
		211.89,249.445 207.938,258.429 195.568,258.395 	"/>
	<polygon fill="#465BA6" points="162.406,303.219 163.903,304.755 185.615,304.755 187.93,303.084 	"/>
	<polygon fill="#465BA6" points="197.82,303.084 200.007,304.755 221.618,304.755 224.341,303.084 	"/>
	<g>
		<radialGradient id="SVGID_26_" cx="156.0977" cy="291.9551" r="2.0967" gradientUnits="userSpaceOnUse">
			<stop  offset="0" style="stop-color:#EC621D"/>
			<stop  offset="0.125" style="stop-color:#BF5526"/>
			<stop  offset="0.4484" style="stop-color:#623628"/>
			<stop  offset="0.7119" style="stop-color:#2A1D1B"/>
			<stop  offset="0.9021" style="stop-color:#0A0809"/>
			<stop  offset="1" style="stop-color:#010202"/>
		</radialGradient>
		<circle fill="url(#SVGID_26_)" cx="156.097" cy="291.955" r="2.097"/>
		<circle fill="#FFFFFF" cx="156.098" cy="291.955" r="1.139"/>
	</g>
	<g>
		<radialGradient id="SVGID_27_" cx="223.6406" cy="313.6387" r="2.0972" gradientUnits="userSpaceOnUse">
			<stop  offset="0" style="stop-color:#EC621D"/>
			<stop  offset="0.125" style="stop-color:#BF5526"/>
			<stop  offset="0.4484" style="stop-color:#623628"/>
			<stop  offset="0.7119" style="stop-color:#2A1D1B"/>
			<stop  offset="0.9021" style="stop-color:#0A0809"/>
			<stop  offset="1" style="stop-color:#010202"/>
		</radialGradient>
		<circle fill="url(#SVGID_27_)" cx="223.64" cy="313.64" r="2.097"/>
		<circle fill="#FFFFFF" cx="223.64" cy="313.64" r="1.139"/>
	</g>
	<g>
		<radialGradient id="SVGID_28_" cx="159.3213" cy="309.9238" r="2.0972" gradientUnits="userSpaceOnUse">
			<stop  offset="0" style="stop-color:#EC621D"/>
			<stop  offset="0.125" style="stop-color:#BF5526"/>
			<stop  offset="0.4484" style="stop-color:#623628"/>
			<stop  offset="0.7119" style="stop-color:#2A1D1B"/>
			<stop  offset="0.9021" style="stop-color:#0A0809"/>
			<stop  offset="1" style="stop-color:#010202"/>
		</radialGradient>
		<circle fill="url(#SVGID_28_)" cx="159.321" cy="309.925" r="2.097"/>
		<circle fill="#FFFFFF" cx="159.321" cy="309.925" r="1.139"/>
	</g>
	<g>
		<radialGradient id="SVGID_29_" cx="226.8428" cy="307.2666" r="0.7637" gradientUnits="userSpaceOnUse">
			<stop  offset="0" style="stop-color:#EC621D"/>
			<stop  offset="0.125" style="stop-color:#BF5526"/>
			<stop  offset="0.4484" style="stop-color:#623628"/>
			<stop  offset="0.7119" style="stop-color:#2A1D1B"/>
			<stop  offset="0.9021" style="stop-color:#0A0809"/>
			<stop  offset="1" style="stop-color:#010202"/>
		</radialGradient>
		<circle fill="url(#SVGID_29_)" cx="226.843" cy="307.267" r="0.764"/>
		<circle fill="#FFFFFF" cx="226.843" cy="307.267" r="0.415"/>
	</g>
	<g>
		<radialGradient id="SVGID_30_" cx="150.9355" cy="280.0469" r="1.0483" gradientUnits="userSpaceOnUse">
			<stop  offset="0" style="stop-color:#EC621D"/>
			<stop  offset="0.125" style="stop-color:#BF5526"/>
			<stop  offset="0.4484" style="stop-color:#623628"/>
			<stop  offset="0.7119" style="stop-color:#2A1D1B"/>
			<stop  offset="0.9021" style="stop-color:#0A0809"/>
			<stop  offset="1" style="stop-color:#010202"/>
		</radialGradient>
		<circle fill="url(#SVGID_30_)" cx="150.936" cy="280.047" r="1.048"/>
		<circle fill="#FFFFFF" cx="150.937" cy="280.047" r="0.569"/>
	</g>
	<g>
		<radialGradient id="SVGID_31_" cx="243.6904" cy="280.5703" r="0.5244" gradientUnits="userSpaceOnUse">
			<stop  offset="0" style="stop-color:#EC621D"/>
			<stop  offset="0.125" style="stop-color:#BF5526"/>
			<stop  offset="0.4484" style="stop-color:#623628"/>
			<stop  offset="0.7119" style="stop-color:#2A1D1B"/>
			<stop  offset="0.9021" style="stop-color:#0A0809"/>
			<stop  offset="1" style="stop-color:#010202"/>
		</radialGradient>
		<circle fill="url(#SVGID_31_)" cx="243.69" cy="280.57" r="0.524"/>
		<circle fill="#FFFFFF" cx="243.69" cy="280.57" r="0.285"/>
	</g>
	<g>
		<radialGradient id="SVGID_32_" cx="239.752" cy="294.7344" r="1.0488" gradientUnits="userSpaceOnUse">
			<stop  offset="0" style="stop-color:#EC621D"/>
			<stop  offset="0.125" style="stop-color:#BF5526"/>
			<stop  offset="0.4484" style="stop-color:#623628"/>
			<stop  offset="0.7119" style="stop-color:#2A1D1B"/>
			<stop  offset="0.9021" style="stop-color:#0A0809"/>
			<stop  offset="1" style="stop-color:#010202"/>
		</radialGradient>
		<circle fill="url(#SVGID_32_)" cx="239.752" cy="294.735" r="1.049"/>
		<circle fill="#FFFFFF" cx="239.752" cy="294.735" r="0.569"/>
	</g>
	<g>
		<radialGradient id="SVGID_33_" cx="154.959" cy="310.4941" r="1.0479" gradientUnits="userSpaceOnUse">
			<stop  offset="0" style="stop-color:#EC621D"/>
			<stop  offset="0.125" style="stop-color:#BF5526"/>
			<stop  offset="0.4484" style="stop-color:#623628"/>
			<stop  offset="0.7119" style="stop-color:#2A1D1B"/>
			<stop  offset="0.9021" style="stop-color:#0A0809"/>
			<stop  offset="1" style="stop-color:#010202"/>
		</radialGradient>
		<circle fill="url(#SVGID_33_)" cx="154.958" cy="310.494" r="1.048"/>
		<circle fill="#FFFFFF" cx="154.958" cy="310.494" r="0.569"/>
	</g>
	<g>
		<radialGradient id="SVGID_34_" cx="229.0996" cy="310.4941" r="1.0483" gradientUnits="userSpaceOnUse">
			<stop  offset="0" style="stop-color:#EC621D"/>
			<stop  offset="0.125" style="stop-color:#BF5526"/>
			<stop  offset="0.4484" style="stop-color:#623628"/>
			<stop  offset="0.7119" style="stop-color:#2A1D1B"/>
			<stop  offset="0.9021" style="stop-color:#0A0809"/>
			<stop  offset="1" style="stop-color:#010202"/>
		</radialGradient>
		<circle fill="url(#SVGID_34_)" cx="229.1" cy="310.494" r="1.048"/>
		<circle fill="#FFFFFF" cx="229.1" cy="310.494" r="0.57"/>
	</g>
	<g>
		<radialGradient id="SVGID_35_" cx="229.0996" cy="303.2188" r="1.0483" gradientUnits="userSpaceOnUse">
			<stop  offset="0" style="stop-color:#EC621D"/>
			<stop  offset="0.125" style="stop-color:#BF5526"/>
			<stop  offset="0.4484" style="stop-color:#623628"/>
			<stop  offset="0.7119" style="stop-color:#2A1D1B"/>
			<stop  offset="0.9021" style="stop-color:#0A0809"/>
			<stop  offset="1" style="stop-color:#010202"/>
		</radialGradient>
		<circle fill="url(#SVGID_35_)" cx="229.1" cy="303.219" r="1.048"/>
		<circle fill="#FFFFFF" cx="229.1" cy="303.219" r="0.57"/>
	</g>
	<polygon fill="#754671" points="169.257,242.686 172.387,242.686 172.387,243.947 168.745,243.947 	"/>
	<polygon fill="#754671" points="220.558,258.114 217.591,258.114 217.591,260.281 220.947,260.281 	"/>
	<rect x="194.133" y="135.114" fill="#754671" width="1.625" height="4.107"/>
	<polygon fill="#754671" points="179.344,154.28 178.842,162.198 180.51,162.198 180.51,154.28 	"/>
	<polygon opacity="0.5" fill="#6992CC" points="190.574,211.73 189.829,226.114 196.803,226.114 196.282,211.73 	"/>
	<rect x="177.924" y="128.864" fill="#FFFFFF" width="1.752" height="1"/>
	<rect x="207.494" y="153.78" fill="#FFFFFF" width="1.751" height="1"/>
	<rect x="178.73" y="218.61" fill="#FFFFFF" width="1.752" height="1"/>
	<rect x="169.257" y="238.289" fill="#FFFFFF" width="1.751" height="1"/>
	<rect x="202.07" y="170.802" fill="#754671" width="1.376" height="5.25"/>
</g>
</svg>
