<?xml version="1.0" encoding="utf-8"?>
<!-- Generator: Adobe Illustrator 16.0.0, SVG Export Plug-In . SVG Version: 6.00 Build 0)  -->
<!DOCTYPE svg PUBLIC "-//W3C//DTD SVG 1.1//EN" "http://www.w3.org/Graphics/SVG/1.1/DTD/svg11.dtd">
<svg version="1.1" xmlns="http://www.w3.org/2000/svg" xmlns:xlink="http://www.w3.org/1999/xlink" x="0px" y="0px" width="400px"
	 height="400px" viewBox="0 0 400 400" enable-background="new 0 0 400 400" xml:space="preserve">
<g id="Background">
</g>
<g id="Objects">
	<g id="XMLID_705_">
		<ellipse id="XMLID_700_" fill="#BDD5DB" cx="194.066" cy="262.95" rx="50.625" ry="6.412"/>
		<g id="XMLID_627_">
			<path id="XMLID_676_" fill="#FFC8AC" d="M212.638,193.764c-3.988-13.05-8.882-16.222-9.244-20.572
				c-0.339-4.064-0.434-8.609-0.434-8.609h-18.088c0,0-0.096,4.545-0.435,8.609c-0.362,4.35-5.256,7.522-9.243,20.572
				c-4.599,15.051-5.935,31.356-5.935,31.356s9.62,3.205,24.656,3.205s24.656-3.205,24.656-3.205S217.236,208.815,212.638,193.764z"
				/>
			<path id="XMLID_57_" fill="#CC5440" d="M156.523,133.178c0,0-7.838-0.973-8.004-16.389
				c-0.216-20.002,27.435-41.088,58.281-20.917c16.971-3.792,28.836,9.198,27.863,27.007c-1.121,20.524-0.77,39.126-16.092,43.738
				c-15.322,4.612-26.132,1.724-26.132,1.724L156.523,133.178z"/>
			<g id="XMLID_697_">
				<path id="XMLID_698_" fill="#CC5440" d="M201.003,87.208c1.869,0.217,3.77,2.798,4.51,4.269
					c0.771,1.533,0.638,2.643,0.438,4.319c-0.102,0.844-0.205,0.805-0.009,1.602c0.086,0.345,0.641,0.272,0.81,0.056
					c1.983-2.539,0.468-6.466-1.518-8.489c-0.98-0.999-2.817-2.629-4.354-2.066C200.722,86.957,200.897,87.196,201.003,87.208
					L201.003,87.208z"/>
			</g>
			<path id="XMLID_696_" fill="#CC5440" d="M212.854,91.472c-2.24-1.767-6.424,2.589-6.679,4.572
				c-0.04,0.306-0.074,0.881,0.197,1.098c0.911,0.727,1.848-1.616,2.095-1.958c0.839-1.165,2.819-3.347,4.376-3.473
				C212.978,91.699,212.929,91.53,212.854,91.472z"/>
			<path id="XMLID_31_" fill="#FFC8AC" d="M184.004,173.557c-2.894-1.26-7.893,0.395-16.976,10.577
				c-2.618,2.935-5.181,5.92-7.684,8.954c-1.87,2.266-3.708,4.559-5.5,6.886c-0.659,0.855-1.283,1.772-2.109,2.479
				c-0.932,0.796-2.148,1.104-3.305,1.414c-0.726,0.194-1.627,0.315-2.178,0.878c-0.573,0.583-0.292,1.451,0.434,1.738
				c0.78,0.309,1.746,0.104,2.565,0.167c0.139,0.011,0.274,0.056,0.358,0.165c0.13,0.166-0.006,0.414-0.09,0.54
				c-0.55,0.813-0.893,1.222-1.221,1.697c-0.533,0.773-2.063,2.46-1.393,3.475c0.264,0.397,0.973,0.534,1.328,0.362
				c0.575-0.279,1.09-0.664,1.564-1.09c0.238-0.214,0.468-0.438,0.692-0.667c0.182-0.185,0.431-0.524,0.729-0.489
				c0.252,0.029,0.246,0.343,0.207,0.525c-0.045,0.211-0.148,0.406-0.252,0.593c-0.394,0.71-0.851,1.409-1.146,2.165
				c-0.144,0.367-0.275,0.744-0.309,1.136c-0.026,0.306,0.02,0.643,0.236,0.859c0.158,0.157,0.384,0.229,0.606,0.245
				c0.496,0.035,0.984-0.18,1.373-0.488c0.487-0.388,0.875-0.879,1.255-1.367c0.396-0.51,0.79-1.023,1.206-1.518
				c0.089-0.105,0.195-0.219,0.333-0.227c0.149-0.01,0.28,0.117,0.324,0.26c0.044,0.144,0.02,0.298-0.014,0.443
				c-0.087,0.394-0.265,0.72-0.413,1.088c-0.154,0.382-0.288,0.771-0.402,1.167c-0.122,0.429-0.23,0.899-0.062,1.313
				c0.311,0.759,1.201,0.905,1.871,0.412c0.661-0.486,2.105-3.273,2.34-3.705c1.444-2.649,3.313-5.03,5.065-7.487
				c2.766-3.876,9.23-11.541,11.753-13.777L184.004,173.557z"/>
			<path id="XMLID_30_" fill="#FFC8AC" d="M203.827,173.557c2.894-1.26,7.894,0.395,16.978,10.577
				c2.617,2.935,5.18,5.92,7.684,8.954c1.869,2.266,3.707,4.559,5.5,6.886c0.658,0.855,1.281,1.772,2.107,2.479
				c0.932,0.796,2.148,1.104,3.307,1.414c0.725,0.194,1.627,0.315,2.178,0.878c0.572,0.583,0.291,1.451-0.434,1.738
				c-0.781,0.309-1.746,0.104-2.566,0.167c-0.139,0.011-0.273,0.056-0.359,0.165c-0.129,0.166,0.006,0.414,0.092,0.54
				c0.549,0.813,0.891,1.222,1.219,1.697c0.535,0.773,2.064,2.46,1.393,3.475c-0.262,0.397-0.971,0.534-1.328,0.362
				c-0.574-0.279-1.09-0.664-1.563-1.09c-0.238-0.214-0.469-0.438-0.693-0.667c-0.182-0.185-0.432-0.524-0.729-0.489
				c-0.254,0.029-0.248,0.343-0.207,0.525c0.045,0.211,0.146,0.406,0.252,0.593c0.393,0.71,0.85,1.409,1.146,2.165
				c0.143,0.367,0.273,0.744,0.309,1.136c0.025,0.306-0.02,0.643-0.238,0.859c-0.156,0.157-0.383,0.229-0.605,0.245
				c-0.496,0.035-0.984-0.18-1.373-0.488c-0.486-0.388-0.875-0.879-1.254-1.367c-0.396-0.51-0.791-1.023-1.207-1.518
				c-0.09-0.105-0.195-0.219-0.332-0.227c-0.15-0.01-0.281,0.117-0.324,0.26c-0.045,0.144-0.02,0.298,0.012,0.443
				c0.088,0.394,0.266,0.72,0.414,1.088c0.154,0.382,0.289,0.771,0.402,1.167c0.123,0.429,0.23,0.899,0.063,1.313
				c-0.311,0.759-1.203,0.905-1.871,0.412c-0.662-0.486-2.105-3.273-2.342-3.705c-1.443-2.649-2.967-5.292-4.721-7.748
				c-4.676-6.544-9.574-11.28-12.097-13.517L203.827,173.557z"/>
			<path id="XMLID_98_" fill="#CC5440" d="M227.541,168.835c-0.732,3.396-2.512,8.065-5.41,9.845s-10.171-6.483-7.49-12.584
				c1.508-3.43,4.896-5.057,6.652-5.296C223.049,160.561,228.49,164.427,227.541,168.835z"/>
			<path id="XMLID_183_" fill="#CC5440" d="M227.889,181.304c-0.73,3.396-2.512,8.065-5.41,9.845
				c-2.898,1.78-10.171-6.483-7.49-12.584c1.508-3.43,4.896-5.057,6.652-5.296C223.398,173.03,228.838,176.896,227.889,181.304z"/>
			<path id="XMLID_675_" fill="#F49282" d="M203.017,164.583h-18.145c0,0-0.078,3.673-0.34,7.369
				c1.857,0.105,3.698,0.145,5.483,0.145c4.266,0,10.125-1.47,13.107-3.103C202.96,165.655,203.017,164.583,203.017,164.583z"/>
			<path id="XMLID_674_" fill="#FFC8AC" d="M169.26,225.12l2.6,31.107c0,0-4.796,1.414-7.256,2.83
				c-2.459,1.414-1.857,3.145,9.084,3.145c10.942,0,15.907,0,15.907,0l3.356-37.082H169.26z"/>
			<path id="XMLID_673_" fill="#FFC8AC" d="M218.639,225.12l-2.6,31.107c0,0,4.795,1.414,7.256,2.83
				c2.459,1.414,1.857,3.145-9.085,3.145s-15.907,0-15.907,0l-3.356-37.082H218.639z"/>
			<path id="XMLID_672_" fill="#F49282" d="M192.729,227.571h-23.265l1.134,13.568c4.521,1.252,11.136,2.328,20.677,2.496
				L192.729,227.571z"/>
			<path id="XMLID_671_" fill="#F49282" d="M195.168,227.571l1.454,16.064c9.554-0.174,16.166-1.258,20.679-2.516l1.133-13.549
				H195.168z"/>
			<path id="XMLID_41_" fill="#EC5E76" d="M203.824,175.048l-9.908,4.233l-9.909-4.233c0,0-18.585,27.793-22.461,59.256
				c0,0,4.901,6.906,32.37,6.906s32.369-6.906,32.369-6.906C222.41,202.841,203.824,175.048,203.824,175.048z"/>
			<path id="XMLID_670_" fill="#002030" d="M198.303,262.202c0,0,4.965,0,15.907,0s11.544-1.73,9.085-3.145
				c-2.461-1.416-7.256-2.83-7.256-2.83h-18.277L198.303,262.202z"/>
			<path id="XMLID_669_" fill="#002030" d="M171.859,256.228c0,0-4.796,1.414-7.256,2.83c-2.459,1.414-1.857,3.145,9.084,3.145
				c10.942,0,15.907,0,15.907,0l0.541-5.975H171.859z"/>
			<path id="XMLID_664_" fill="#FFC8AC" d="M190.016,166.616c9.635,0,20.876-1.147,27.76-7.571
				c6.881-6.423,7.57-22.941,3.441-39.229c-4.131-16.288-19.96-19.959-31.201-19.959s-27.071,3.671-31.2,19.959
				c-4.13,16.289-3.441,32.806,3.44,39.229C169.139,165.469,180.38,166.616,190.016,166.616z"/>
			<circle id="XMLID_640_" fill="#FCA39A" cx="164.604" cy="148.947" r="6.921"/>
			<circle id="XMLID_639_" fill="#FCA39A" cx="213.883" cy="148.947" r="6.922"/>
			<path id="XMLID_59_" fill="#CC5440" d="M191.579,99.884c0,0,5.638,15.947,31.155,30.334c0,0,5.23-14.417-4.584-23.454
				C208.336,97.728,191.579,99.884,191.579,99.884z"/>
			<path id="XMLID_103_" fill="#CC5440" d="M191.579,99.884c0,0-5.082,19.773-36.711,29.556c0,0,0.327-13.638,10.141-22.675
				C174.822,97.728,191.579,99.884,191.579,99.884z"/>
			<path id="XMLID_663_" fill="#FCA39A" d="M188.359,145.249c-2.518-0.085-4.792,1.512-4.777,2.26c0.035,1.749,8.953,2.105,8.858,0
				C192.387,146.333,190.52,145.321,188.359,145.249z"/>
			<g id="XMLID_661_">
				<path id="XMLID_662_" fill="#9E5147" d="M183.354,147.979c1.582-1.185,2.732-2.364,4.889-2.372
					c1.984-0.007,3.041,1.06,4.127,2.537c0.187,0.253,0.667,0.264,0.618-0.135c-0.548-4.473-8.572-4.057-9.726-0.159
					C183.248,147.9,183.279,148.036,183.354,147.979L183.354,147.979z"/>
			</g>
			<g id="XMLID_659_">
				<path id="XMLID_660_" fill="#9E5147" d="M180.993,155.605c5.796,3.442,15.385,1.957,19.896-2.947
					c0.481-0.524-0.563-1.027-0.989-0.562c-4.538,4.951-12.954,5.429-18.837,3.036C180.737,155,180.787,155.483,180.993,155.605
					L180.993,155.605z"/>
			</g>
			<g id="XMLID_657_">
				<path id="XMLID_658_" fill="#9E5147" d="M199.825,150.423c-0.563,0.576,0.016,1.611,0.479,2.042
					c0.531,0.496,1.459,0.963,2.2,0.706c0.252-0.088,0.523-0.394,0.246-0.639c-0.218-0.193-0.751-0.025-1.034-0.084
					c-1.035-0.217-1.339-1.076-1.661-1.955C200.016,150.39,199.906,150.341,199.825,150.423L199.825,150.423z"/>
			</g>
			<g id="XMLID_651_">
				<path id="XMLID_656_" fill="#FFFFFF" d="M206.616,125.787c-3.328-0.011-8.229,1.991-9.644,6.775
					c-1.722,5.818,1.849,11.469,9.644,11.194c8.364-0.296,11.323-5.266,10.427-9.879
					C216.084,128.935,212.452,125.806,206.616,125.787z"/>
				<g id="XMLID_654_">
					<path id="XMLID_655_" fill="#002030" d="M196.839,133.586c1.555-4.692,6.912-7.59,11.685-6.629
						c1.933,0.389,4.014,1.453,5.293,2.976c1.43,1.702,1.633,3.913,2.975,5.609c0.213,0.269,0.768,0.431,0.963,0.05
						c1.248-2.438-0.699-5.615-2.439-7.373c-1.814-1.833-4.531-3.058-7.08-3.353c-2.602-0.301-5.485,0.278-7.706,1.694
						c-2.672,1.705-3.438,3.928-3.904,6.948C196.598,133.679,196.773,133.783,196.839,133.586L196.839,133.586z"/>
				</g>
				<circle id="XMLID_653_" fill="#19313A" cx="205.043" cy="136.259" r="7.505"/>
				<circle id="XMLID_652_" fill="#FFFFFF" cx="201.09" cy="135.577" r="2.399"/>
			</g>
			<g id="XMLID_645_">
				<path id="XMLID_650_" fill="#FFFFFF" d="M172.115,125.787c3.328-0.011,8.229,1.991,9.644,6.775
					c1.722,5.818-1.849,11.469-9.644,11.194c-8.364-0.296-11.323-5.266-10.427-9.879
					C162.648,128.935,166.279,125.806,172.115,125.787z"/>
				<g id="XMLID_648_">
					<path id="XMLID_649_" fill="#002030" d="M182.104,133.449c-0.503-3.125-1.786-5.566-4.626-7.195
						c-2.639-1.515-5.991-1.856-8.891-0.992c-2.05,0.61-4.146,1.757-5.557,3.389c-1.426,1.649-3.391,4.627-1.993,6.739
						c0.227,0.343,0.788,0.655,1.077,0.202c0.903-1.417,1.125-3.1,2.013-4.542c0.988-1.606,2.372-2.665,4.084-3.43
						c5.259-2.349,11.888,0.375,13.673,5.979C181.958,133.829,182.129,133.6,182.104,133.449L182.104,133.449z"/>
				</g>
				<circle id="XMLID_647_" fill="#19313A" cx="173.688" cy="136.259" r="7.505"/>
				<circle id="XMLID_646_" fill="#FFFFFF" cx="169.882" cy="135.577" r="2.399"/>
			</g>
			<g id="XMLID_643_">
				<path id="XMLID_644_" fill="#A03717" d="M213.472,118.035c0.055-0.16,0.087-0.319,0.051-0.483
					c-0.185-0.841-0.653-1.461-1.225-2.09c-0.77-0.847-1.726-1.525-2.72-2.083c-1.938-1.086-4.181-1.636-6.401-1.517
					c-0.419,0.022-0.85,0.071-1.219,0.27c-0.479,0.258-0.811,0.77-0.851,1.312c-0.074,1.003,0.73,1.471,1.613,1.604
					c0.668,0.101,1.336,0.202,2.004,0.304c0.489,0.074,0.979,0.148,1.464,0.246c1.624,0.328,3.193,0.925,4.624,1.76
					c0.593,0.345,1.178,0.738,1.849,0.879C212.896,118.288,213.358,118.335,213.472,118.035z"/>
			</g>
			<g id="XMLID_641_">
				<path id="XMLID_642_" fill="#A03717" d="M165.091,117.302c-0.042-0.164-0.062-0.324-0.013-0.485
					c0.248-0.825,0.764-1.407,1.383-1.989c0.832-0.785,1.837-1.387,2.871-1.866c2.016-0.934,4.295-1.309,6.5-1.019
					c0.416,0.055,0.841,0.136,1.194,0.363c0.457,0.294,0.749,0.83,0.747,1.374c-0.004,1.006-0.842,1.41-1.733,1.475
					c-0.674,0.049-1.347,0.099-2.021,0.148c-0.494,0.036-0.988,0.072-1.479,0.132c-1.644,0.202-3.255,0.676-4.746,1.398
					c-0.617,0.298-1.23,0.645-1.91,0.734C165.645,117.598,165.182,117.609,165.091,117.302z"/>
			</g>
			<path id="XMLID_635_" fill="#FFC8AC" d="M223.063,129.226c1.111-3.536,5.977-8.511,11.602-6.348
				c5.623,2.163,6.92,10.599,3.785,16.871c-3.137,6.273-11.693,8.57-14.877,4.015L223.063,129.226z"/>
			<path id="XMLID_634_" fill="#9E5147" d="M222.744,133.648c-0.068,0.209,0.215,0.658,0.463,0.495
				c1.061-0.697,1.816-1.712,2.924-2.338c1.199-0.678,2.52-0.873,3.852-0.729c0.621,0.859,1.178,1.52,1.047,2.838
				c-0.113,1.143-0.602,2.407-1.393,3.25c-0.621,0.663-1.561,0.856-2.322,1.307c-0.059,0.034-0.119,0.218-0.021,0.242
				c3.615,0.882,6.041-4.148,4.928-7.063c2.039,0.86,3.729,2.569,3.619,4.958c-0.004,0.113,0.113,0.087,0.146,0.006
				C238.959,129.124,225.092,126.486,222.744,133.648z"/>
			<path id="XMLID_632_" fill="#CC5440" d="M230.42,122.504c-1.291,9.313-7.463,14.429-8.486,12.678
				c-1.021-1.751,0.498-9.833,0-12.303L230.42,122.504"/>
			<path id="XMLID_629_" fill="#F7F9F9" d="M184.438,173.192c0,0-4.901,1.408-4.579,5.075c0.321,3.667,7.564,7.201,14.058,1.014
				L184.438,173.192z"/>
			<path id="XMLID_628_" fill="#F7F9F9" d="M203.394,173.192c0,0,4.901,1.408,4.58,5.075c-0.322,3.667-7.565,7.201-14.058,1.014
				L203.394,173.192z"/>
		</g>
	</g>
</g>
<g id="Designed_by_Freepik">
</g>
</svg>
