<?xml version="1.0" encoding="utf-8"?>
<!-- Generator: Adobe Illustrator 16.0.0, SVG Export Plug-In . SVG Version: 6.00 Build 0)  -->
<!DOCTYPE svg PUBLIC "-//W3C//DTD SVG 1.1//EN" "http://www.w3.org/Graphics/SVG/1.1/DTD/svg11.dtd">
<svg version="1.1" id="Capa_1" xmlns="http://www.w3.org/2000/svg" xmlns:xlink="http://www.w3.org/1999/xlink" x="0px" y="0px"
	 width="800px" height="800px" viewBox="0 0 800 800" enable-background="new 0 0 800 800" xml:space="preserve">
<g>
	<g>
		<path fill="#FFFFFF" d="M541.587,160.129c14.181,8.845,23.273,20.886,20.325,26.896c-2.955,6.008-16.832,3.722-31.014-5.128
			c-14.178-8.834-23.278-20.871-20.325-26.888C513.521,149.001,527.413,151.286,541.587,160.129z"/>
		<polygon fill="#FFFFFF" points="559.716,191.491 438.176,439.072 386.846,407.062 508.386,159.491 		"/>
		<path fill="#FFFFFF" d="M510.743,154.663l10.596,6.604c0,0,6.384-6.326,21.591-0.281c-3.551,4.401-1.149,13.026-1.149,13.026
			l20.303,12.662l-15.96,32.503l-51.335-32.009L510.743,154.663z"/>
		<polygon fill="#FFFFFF" points="518.974,166.093 397.436,413.661 386.846,407.062 508.386,159.491 		"/>
		<polygon fill="#FFFFFF" points="510.743,154.663 521.339,161.268 505.554,193.429 495.642,185.431 		"/>
		<polygon fill="#FFFFFF" points="559.72,191.498 438.178,439.072 417.871,426.413 539.413,178.838 		"/>
		<polygon fill="#FFFFFF" points="541.78,174.012 562.086,186.683 546.973,217.456 525.989,206.172 		"/>
		<path fill="#FFFFFF" d="M418.576,424.703c1.396-0.599,6.668-0.712,12.006,2.617c5.347,3.341,8.892,9.096,8.155,10.604
			l-2.855,3.035l-48.917-30.23l0.433-4.817c1.049-2.136,1.105-2.249,1.958-3.979c3.445,1.782,8.084,6.35,8.831,10.099
			c1.279-0.733,6.457-0.581,11.855,2.787C414.046,417.317,417.371,420.801,418.576,424.703z"/>
		<path fill="#FFFFFF" d="M417.672,426.55c1.396-0.601,6.886-1.158,12.225,2.171c5.344,3.336,8.11,8.635,8.049,10.075l-66.327,69.11
			l15.625-101.684c0.486-0.988,0.689-1.397,1.542-3.136c3.449,1.788,8.192,7.049,8.495,10.786c1.281-0.732,6.792-1.255,12.19,2.114
			c3.029,1.887,5.416,4.701,6.816,7.035C416.783,423.845,417.411,425.413,417.672,426.55z"/>
		<path fill="#FFFFFF" d="M417.672,426.55c1.396-0.605,6.886-1.158,12.225,2.171c5.344,3.336,8.11,8.635,8.047,10.078
			l-66.325,69.107l41.727-88.728c1.214,1.278,2.217,2.626,2.941,3.844C416.783,423.845,417.411,425.413,417.672,426.55z"/>
		<path fill="#FFFFFF" d="M427.855,427.63c0.679,0.303,1.363,0.671,2.041,1.091c0.92,0.573,1.773,1.209,2.531,1.877l-60.809,77.309
			L427.855,427.63z"/>
		<path fill="#FFFFFF" d="M395.405,409.35c1.04,1.542,1.77,3.141,1.875,4.521c0.625-0.363,2.263-0.657,4.399-0.496l-30.061,94.532
			C373.857,497.993,395.057,408.834,395.405,409.35z"/>
		<path fill="#FFFFFF" d="M397.6,480.665l-25.981,27.241l7.378-48.725C389.384,462.535,399.101,473.667,397.6,480.665z"/>
		<path fill="#FFFFFF" d="M395.918,473.037c0.472,0.866,0.87,1.718,1.163,2.55l-25.463,32.319L395.918,473.037z"/>
		<path fill="#FFFFFF" d="M379.105,459.217c4.239,1.39,8.362,4.067,11.65,7.236l-19.137,41.453L379.105,459.217z"/>
		<path fill="#FFFFFF" d="M382.904,460.811c1.069,0.549,2.122,1.172,3.134,1.84l-14.419,45.256L382.904,460.811z"/>
		<polygon fill="#FFFFFF" points="495.649,185.431 505.554,193.429 525.989,206.172 546.985,217.466 543.863,223.794 
			522.958,212.358 502.492,199.663 492.546,191.733 		"/>
		<path fill-rule="evenodd" clip-rule="evenodd" fill="#572B2A" d="M541.587,160.129c14.181,8.845,23.273,20.886,20.325,26.896
			c-2.955,6.008-16.832,3.722-31.014-5.128c-14.178-8.834-23.278-20.871-20.325-26.888
			C513.521,149.001,527.413,151.286,541.587,160.129z"/>
		<polygon fill-rule="evenodd" clip-rule="evenodd" fill="#696969" points="559.716,191.491 438.176,439.072 387.166,406.401 
			508.386,159.491 		"/>
		
			<linearGradient id="SVGID_1_" gradientUnits="userSpaceOnUse" x1="3.5381" y1="808.9824" x2="4.3752" y2="808.9824" gradientTransform="matrix(25.2038 -56.7286 -56.7286 -25.2038 46322.8125 20796.875)">
			<stop  offset="0" style="stop-color:#D4A19E"/>
			<stop  offset="0.1" style="stop-color:#D4A19E"/>
			<stop  offset="0.556" style="stop-color:#B37874"/>
			<stop  offset="0.9" style="stop-color:#93513E"/>
			<stop  offset="1" style="stop-color:#93513E"/>
		</linearGradient>
		<path fill-rule="evenodd" clip-rule="evenodd" fill="url(#SVGID_1_)" d="M510.743,154.663l10.596,6.604
			c0,0,6.384-6.326,21.591-0.281c-3.551,4.401-1.149,13.026-1.149,13.026l20.303,12.662l-15.96,32.503l-51.335-32.009
			L510.743,154.663z"/>
		<polygon fill-rule="evenodd" clip-rule="evenodd" fill="#E8E046" points="518.974,166.093 397.436,413.661 387.873,404.967 
			508.386,159.491 		"/>
		
			<linearGradient id="SVGID_2_" gradientUnits="userSpaceOnUse" x1="1.6494" y1="811.5449" x2="2.3091" y2="811.5449" gradientTransform="matrix(32.3709 -43.4096 -41.8549 -31.7755 34411.3828 26047)">
			<stop  offset="0" style="stop-color:#75312F"/>
			<stop  offset="0.06" style="stop-color:#75312F"/>
			<stop  offset="0.4032" style="stop-color:#75312F"/>
			<stop  offset="0.94" style="stop-color:#5A2B2A"/>
			<stop  offset="1" style="stop-color:#5A2B2A"/>
		</linearGradient>
		<polygon fill-rule="evenodd" clip-rule="evenodd" fill="url(#SVGID_2_)" points="510.743,154.663 521.339,161.268 
			505.554,193.429 495.642,185.431 		"/>
		<polygon fill-rule="evenodd" clip-rule="evenodd" fill="#DDC043" points="559.72,191.498 438.178,439.072 417.871,426.413 
			539.413,178.838 		"/>
		<polygon fill-rule="evenodd" clip-rule="evenodd" fill="#572B2A" points="541.78,174.012 562.086,186.683 546.973,217.456 
			525.989,206.172 		"/>
		
			<linearGradient id="SVGID_3_" gradientUnits="userSpaceOnUse" x1="-27.7832" y1="808.459" x2="-24.8828" y2="808.459" gradientTransform="matrix(18.2915 10.1203 10.1203 -18.2915 -7287.1094 15476.1094)">
			<stop  offset="0" style="stop-color:#855253"/>
			<stop  offset="0.38" style="stop-color:#F48120"/>
			<stop  offset="1" style="stop-color:#562D28"/>
		</linearGradient>
		<path fill-rule="evenodd" clip-rule="evenodd" fill="url(#SVGID_3_)" d="M418.576,424.703c1.396-0.599,6.668-0.712,12.006,2.617
			c5.347,3.341,8.892,9.096,8.155,10.604l-2.855,3.035l-48.917-30.23l0.433-4.817c1.049-2.136,1.105-2.249,1.958-3.979
			c3.445,1.782,8.084,6.35,8.831,10.099c1.279-0.733,6.457-0.581,11.855,2.787C414.046,417.317,417.371,420.801,418.576,424.703z"/>
		
			<linearGradient id="SVGID_4_" gradientUnits="userSpaceOnUse" x1="3.8789" y1="808.6191" x2="5.58" y2="808.6191" gradientTransform="matrix(19.678 -57.2954 -57.2954 -19.678 46635.4688 16646.8125)">
			<stop  offset="0" style="stop-color:#FDCF9D"/>
			<stop  offset="0.01" style="stop-color:#FDCF9D"/>
			<stop  offset="0.99" style="stop-color:#F8A770"/>
			<stop  offset="1" style="stop-color:#F8A770"/>
		</linearGradient>
		<path fill-rule="evenodd" clip-rule="evenodd" fill="url(#SVGID_4_)" d="M417.672,426.55c1.396-0.601,6.886-1.158,12.225,2.171
			c5.344,3.336,8.11,8.635,8.049,10.075l-66.327,69.11l15.625-101.684c0.486-0.988,0.689-1.397,1.542-3.136
			c3.449,1.788,8.192,7.049,8.495,10.786c1.281-0.732,6.792-1.255,12.19,2.114c3.029,1.887,5.416,4.701,6.816,7.035
			C416.783,423.845,417.411,425.413,417.672,426.55z"/>
		<path fill-rule="evenodd" clip-rule="evenodd" fill="#E79A66" d="M417.672,426.55c1.396-0.605,6.886-1.158,12.225,2.171
			c5.344,3.336,8.11,8.635,8.047,10.078l-66.325,69.107l41.727-88.728c1.214,1.278,2.217,2.626,2.941,3.844
			C416.783,423.845,417.411,425.413,417.672,426.55z"/>
		<path fill-rule="evenodd" clip-rule="evenodd" fill="#D28755" d="M427.855,427.63c0.679,0.303,1.363,0.671,2.041,1.091
			c0.92,0.573,1.773,1.209,2.531,1.877l-60.809,77.309L427.855,427.63z"/>
		<path fill-rule="evenodd" clip-rule="evenodd" fill="#FDCF9D" d="M395.405,409.35c1.04,1.542,1.77,3.141,1.875,4.521
			c0.625-0.363,2.263-0.657,4.399-0.496l-30.061,94.532C373.857,497.993,395.057,408.834,395.405,409.35z"/>
		<path fill-rule="evenodd" clip-rule="evenodd" fill="#6D7071" d="M397.6,480.665l-25.981,27.241l7.378-48.725
			C389.384,462.535,399.101,473.667,397.6,480.665z"/>
		<path fill-rule="evenodd" clip-rule="evenodd" fill="#414243" d="M395.918,473.037c0.472,0.866,0.87,1.718,1.163,2.55
			l-25.463,32.319L395.918,473.037z"/>
		<path fill-rule="evenodd" clip-rule="evenodd" fill="#A7A8AB" d="M379.105,459.217c4.239,1.39,8.362,4.067,11.65,7.236
			l-19.137,41.453L379.105,459.217z"/>
		<path fill-rule="evenodd" clip-rule="evenodd" fill="#FFFFFF" d="M382.904,460.811c1.069,0.549,2.122,1.172,3.134,1.84
			l-14.419,45.256L382.904,460.811z"/>
		<polygon fill="#FFFFFF" points="495.649,185.431 505.554,193.429 525.989,206.172 546.985,217.466 543.863,223.794 
			522.958,212.358 502.492,199.663 492.546,191.733 		"/>
	</g>
	<g>
		<path fill="#545454" d="M367.337,511.995c0.094-0.34-0.146-0.984-0.563-0.728l-0.068,1.227L367.337,511.995z"/>
		<path fill="#545454" d="M363.887,510.71c-0.408,0.688-0.813,1.818-0.257,2.776c0.293-1.234,0.518-0.808,0.8-2.265
			c0.419-0.25,0.856,0.159,0.87,0.597c0.097-0.333,0.75,0.06,0.835-0.718c-0.771-0.722-1.507-0.556-2.122,0.371
			C363.793,511.268,363.892,510.928,363.887,510.71z"/>
		<path fill="#545454" d="M319.777,517.53l0.296,0.101C319.987,517.567,319.887,517.537,319.777,517.53z"/>
		<path fill="#545454" d="M292.801,517.316c0.195,0.014,0.294-0.081,0.322-0.185C292.934,517.168,292.777,517.208,292.801,517.316z"
			/>
		<path fill="#545454" d="M290.25,514.884l0.04,0.148C290.319,514.913,290.324,514.837,290.25,514.884z"/>
		<path fill="#545454" d="M319.777,517.53l-0.766-0.274C318.997,517.642,319.411,517.491,319.777,517.53z"/>
		<path fill="#545454" d="M358.412,514.991c0.14-0.094,0.246-0.23,0.336-0.395c-0.114,0.076-0.228,0.15-0.347,0.207L358.412,514.991
			z"/>
		<path fill="#545454" d="M331.673,514.814l0.22-0.036c0.048-0.145,0.088-0.313,0.121-0.504L331.673,514.814z"/>
		<path fill="#545454" d="M340.822,512.966c-0.214-0.004-0.138,0.991-0.15,1.431c0.054-0.425,0.178-0.646,0.349-0.76
			C340.996,513.449,340.934,513.236,340.822,512.966z"/>
		<path fill="#545454" d="M355.614,511.551l0.231-0.198C355.786,511.413,355.68,511.477,355.614,511.551z"/>
		<path fill="#545454" d="M325.067,515.642c-0.034-0.146-0.081-0.27-0.125-0.342C324.957,515.426,325.002,515.538,325.067,515.642z"
			/>
		<path fill="#545454" d="M194.049,476.796c0.026,0.063,0.053,0.1,0.078,0.152C194.131,476.83,194.114,476.761,194.049,476.796z"/>
		<path fill="#545454" d="M205.657,475.056l-0.108,0.131c0.069,0.176,0.135,0.347,0.214,0.506L205.657,475.056z"/>
		<path fill="#545454" d="M284.3,505.789l0.048,0.044C284.712,505.892,284.517,505.807,284.3,505.789z"/>
		<path fill="#545454" d="M228.464,494.582c1.146,0.387-0.919,1.722,0.679,1.985C228.883,496.273,229.702,494.584,228.464,494.582z"
			/>
		<path fill="#545454" d="M358.148,514.92c-0.121,0.041-0.247,0.085-0.376,0.105C357.95,515.013,358.066,514.98,358.148,514.92z"/>
		<polygon fill="#545454" points="229.143,496.567 229.145,496.576 229.308,496.599 		"/>
		<path fill="#545454" d="M262.333,510.188c0.085,0.155,0.192,0.257,0.301,0.354C262.603,510.444,262.526,510.341,262.333,510.188z"
			/>
		<path fill="#545454" d="M277.374,506.742l-0.433-0.068C277.119,506.736,277.256,506.749,277.374,506.742z"/>
		<path fill="#545454" d="M256.016,513.207c-0.101-0.084-0.111-0.221-0.405-0.112c0.021,0.052,0.043,0.092,0.072,0.128
			C255.804,513.095,255.922,513.04,256.016,513.207z"/>
		<path fill="#545454" d="M248.784,512.154c0.004,0.077,0.025,0.142,0.04,0.216l0.171-0.007L248.784,512.154z"/>
		<path fill="#545454" d="M173.337,491.925c0.288,0.113,0.536,0.295,0.763,0.488C173.636,491.918,174.497,490.94,173.337,491.925z"
			/>
		<path fill="#545454" d="M358.302,514.447c0.002,0.254-0.044,0.392-0.154,0.473l0.253-0.116
			C358.396,514.656,358.374,514.517,358.302,514.447z"/>
		<path fill="#545454" d="M255.327,521.005l-1.322-0.259C254.372,520.879,254.853,520.971,255.327,521.005z"/>
		<path fill="#545454" d="M181.693,526.414l-0.251,0.22C181.558,526.614,181.65,526.549,181.693,526.414z"/>
		<path fill="#545454" d="M249.948,520.365c-0.206-0.392-0.433-0.632-0.689-0.818c-0.07,0.061-0.146,0.114-0.201,0.215
			L249.948,520.365z"/>
		<path fill="#545454" d="M174.106,492.422l-0.006-0.009L174.106,492.422z"/>
		<path fill="#545454" d="M180.065,485.134c-1.059,0.722,0.121,1.43,0.259,2.221c-1.055,1.201-1.032-0.396-1.776-0.649
			c-0.606,0.856-0.613,2.296-1.208,2.676c-0.147-0.146-0.297-0.126-0.298-0.45c-0.299,1.47-2.38,1.857-2.65,3.662
			c-0.128-0.04-0.218-0.104-0.286-0.171c0.481,0.418,0.839,0.946,1.048,1.36c-0.441,0.368-0.413,1.333-1.017,0.769
			c0.288-0.2,0.135-0.501,0.129-0.82l-0.282,0.677c-1.052-0.666,0.426-0.858-0.034-1.603c-0.725,1.061-1.268,2.742-2.138,3.034
			c-0.779-0.853,1.427-1.662-0.064-1.767l1.327-0.508c-1.81-0.875,0.737-0.423-1.073-1.461c-1.632,0.888-1.303,1.798-2.917,2.717
			c0.035,0.807,0.63,0.704,0.667,1.502c-1.343,2.655-3.22-1.027-3.813,1.545c0.065,0.971,0.774,2.271-0.691,2.606l-0.425-1.371
			c-1.42,1.178,0.359,2.199-1.542,2.869c-0.077-0.648,0.77-1.358,0.474-1.284c-1.525,0.074-0.183,1.206-0.857,1.886l-0.86-0.743
			c-1.284,1.587-2.238,3.851-3.469,5.806c-0.165-0.332-0.173-0.901-0.751-0.701c-1.354,2.77-3.813,5.085-5.399,8.816
			c0.169,0.573,0.389,1.161,0.619,1.702c-0.063,0.332-0.479,0.621-0.625,0.188c-0.483,1.622,0.57,0.151,0.873,0.94
			c0.036,0.869-0.529,1.223-0.819,0.613c0.377,1.692,1.384,4.031,2.642,5.639l-0.194-0.362c0.872,1.609,2.07,2.87,2.886,3.954
			l-0.603-0.071c0.84,0.869,1.618,0.631,2.222,0.393c0.632-0.223,1.121-0.474,1.792,0.195l-0.332,0.098
			c3.679,1.328,7.042-0.293,9.63,0.793c0.207-1.528,3.178-0.067,2.94-2.162c1.914,0.517,1.523,1.031,4.076,0.933
			c0.658-0.124,0.614-1.561,1.32-2.037l0.308,1.032l0.735-1.463l0.911,1.036l0.64-0.538c-0.305,0.048-0.744-0.236-0.789-0.553
			c0.975-0.873,2.921-0.324,3.121,0.191l2.329-1.936c0.078,0.434-0.311,0.76-0.569,1.162c1.043-1.621,0.606,0.972,1.563-0.518
			c-0.249-0.161-0.11-0.645-0.151-0.864c0.835,0.348,2.275-0.271,3.234-0.999l0.044,0.789c1.973-0.672,3.884-2.151,5.993-3.138
			c-0.877,0.033-1.147-1.25-0.577-1.656l0.643,0.945c0.151-0.845-0.792-0.097-0.278-1.285c0.826-0.252,0.981,0.952,0.661,1.514
			l0.813-0.826c0.177,0.29,0.017,0.564,0.109,0.993c0.144-0.838,2.052,0.262,2.181-1.146l0.174,0.286
			c2.095-1.025,2.898-1.859,4.568-2.763c-0.329-0.923,0.415-1.055,0.624-2.04c1.353-0.342,3.013-0.329,4.469-1.176
			c0.861-0.988-0.006-0.926,0.244-1.701c0.414,0.784,1.863-0.063,1.335,0.924c1.728-1.057,2.208-1.344,4.179-3.184
			c-0.382-0.211-0.717-0.211-0.69-0.566c0.353-0.348,1.07-0.144,1.173,0.283l-0.072,0.145c2.011-2.554,6.796-0.665,8.088-3.419
			l-0.077,0.142l1.707-1.976c1.012-0.357-0.319,0.914,0.594,1.054c1.676-2.534,3.612-1.637,5.081-3.497
			c2.395,1.703,4.991-2.73,7.511-2.077l-0.328-0.522c0.281-0.811,0.722,0.045,1.136,0.005c-0.217-0.428-0.73-0.266-0.541-0.727
			c0.635-0.435,1.337-0.822,1.993-1.133c0.323-0.155,0.648-0.261,0.858-0.27c0.479-0.045,0.828,0.128,0.917,0.432
			c0.086,0.081-0.054,0.56-0.161,0.818c-0.112,0.283-0.239,0.481-0.337,0.606c-0.084,0.093,0.742-0.294,1.386-0.44
			c0.648-0.195,1.095-0.014,0.269,0.538c-0.355-0.048-0.721-0.053-1.097-0.013c0.317,0.089,0.408,0.367,0.392,0.628
			c-0.004,0.072-0.01,0.123-0.036,0.219l-0.214,0.595c-0.156,0.398-0.334,0.796-0.526,1.208c-0.4,0.867-0.774,1.585-1.248,2.764
			c-0.648,1.557-1.125,3.186-1.089,4.675c-0.179-0.349-0.51-0.372-0.36-0.993c-0.564,0.631-0.755,1.962-0.545,3.01
			c0.213,1.056,0.774,1.787,1.066,1.67c0.207,0.912-0.469,0.432-0.553,1.133c0.047,0.735,0.677,1.378,1.292,1.807
			c0.611,0.446,1.193,0.718,1.168,1.232c-0.001,0.171-0.459-0.036-0.667-0.169c0.759,0.435,3.204,2.294,2.998,1.068
			c0.838,0.682,1.994,0.96,2.869,1.098c0.917,0.15,1.367,0.152,1.941,0.566c0.885-0.93,2.33,0.919,2.721-0.597
			c-0.264,1.59,2.28,1.567,3.163,0.87c-0.157,0.229,0.02,0.369,0.189,0.528c0.152,0.162,0.533,0.362,0.206,0.675
			c0.415,0.052,0.833,0.023,1.22-0.086c0.399-0.08,0.533-0.159,0.737-0.28c0.355-0.232,0.523-0.54,0.377-0.932
			c2.345,1.548,3.465-2.374,4.998-0.314c2.655-1.753,4.888-3.288,7.132-4.529c0.377,1.535-2.552,1.146-1.982,2.693
			c2.064-1.484,2.943-3.289,5.212-3.669c0.61,0.021-0.14,0.771-0.252,1.097c2.002-1.385,4.097-1.166,5.632-2.154
			c0.004,0.149-0.163,0.327-0.316,0.466c0.326-0.092,0.725,0.183,0.671-0.539l-0.295,0.206c-0.64-1.038,1.283-2.247,1.44-2.718
			c-0.355,1.01-0.031,1.154,0.307,1.45c0.37,0.295,0.579,0.649-0.102,1.799c0.211-0.083,0.539-0.344,0.615-0.816
			c0.254,0.241,0.236,0.528-0.169,0.962c0.977-0.013,0.999-0.86,1.711-0.368c-0.186,0.288-0.364,0.299-0.618,0.621
			c0.582-0.405,1.359-0.639,1.612,0.253c-0.177,0.08-0.329,0.317-0.444,0.126c0.376,0.457,1.055,0.967,1.753,1.718
			c0.72,0.749,1.385,1.659,2.222,2.966c-1.58,0.462,0.441,1.133-0.012,2.283c0.575,0.28,1.141,0.44,1.686,0.563
			c-0.129-0.3-0.243-0.587-0.346-0.884c1.296,0.728,2.497,0.02,3.286,0.677l-0.91,0.314c0.688,0.119,1.391,0.191,2.07,0.248
			l-1.045-0.742c1.184-0.423,0.189-1.648,1.486-1c-0.293,0.085,1.006,0.202,1.46,1.038l-0.003,0.003
			c0.56-0.345,1.111-0.723,1.842-0.32c0.167,0.436-0.268,1.435-0.159,1.727c0.589-1.041,2.471-0.121,3.146-1.277
			c-0.219,0.27-0.255,0.958-0.188,1.102l0.448-0.878c0.468,0.301,0.537,0.44,0.447,0.986c1.437,0.196-0.426-1.675,1.263-0.928
			c-0.135,0.072-0.073,0.208-0.351,0.341c1.712,0.397,3.285-0.575,4.849-0.192c0.501,1.313-1.358,0.372-0.801,1.474
			c2.275-0.306,4.608-1.807,6.785-1.672l-0.412-0.113c0.176-1.893,1.671,0.792,2.703-0.197c-0.255,0.169-0.274,1.072-0.216,0.856
			c1.507,0.16,2.999-0.757,5.17-1.611l-0.232,0.513c0.912,0.321,2.313-0.032,3.272,0.056c0.229-0.515,0.771-0.506,0.373-1.155
			c3.195,2.327,5.317-2.248,8.14-0.4c-0.304,0.052-0.674,0.535-0.431,0.496l2.116-0.797c-0.278-0.78-0.351-0.442-0.888-0.996
			c0.212-0.524,0.771-0.994,1.306-1.088c-0.898,0.699,0.183,1.295,0.667,1.67c-0.105-0.235,0.002-0.528-0.067-0.777
			c1.327,1.238-0.034-1.657,1.64-0.958l-0.022,0.438c0.547-0.32,0.999-0.971,1.636-0.964c0.392,0.884-0.551,0.546-0.48,1.317
			c0.867-0.214,1.465-2.08,2.391-1.299c-0.333,0.33-0.865,0.434-1.198,0.756c1.021,0.938,1.082,0.64,1.747,0.692l-0.066-0.013
			l1.557,0.214l-0.423-0.225c0.724-2.635,2.158-0.876,3.377-2.759c-1.188,1.79-0.098,0.916-0.039,1.99
			c0.421,0.22,1.047,0.429,0.93,0.76c0.56-0.991,1.271,0.432,2.052-1.017c0.099,0.331,0.75-0.123,0.733,0.76
			c0.86-0.456-0.311-0.545-0.306-0.982c1.195-1.45,3.514,0.701,5.238-1.335c1.609-1.041,1.718-2.254,3.202-3.192
			c0.637,0.412-0.212,1.333-0.212,1.333c0.959,0.295,1.596,0.046,2.339-0.536c-0.11,0.336,0.107,0.541,0.43,0.858
			c0.639-0.248,0.201-1.331,1.163-1.045c-0.077,0.409-0.151,1.056-0.395,1.513c0.716-0.502,1.354-1.322,2.092-1.821
			c0.332,0.528-0.306,1.007-0.511,1.461c0.851-0.488,2.226-1.124,2.311-2.122l-0.642-0.18c0.317-0.131,0.331,0.748,0.124,0.981
			c-0.625,0.921-1.175-0.037-1.285-0.365l0.524-0.36c-0.974-1.82-2.215,0.894-3.387,1.057l0.2-1.553l-0.944,1.477
			c-0.321-0.314-0.644-1.076-0.12-1.425c-0.952-0.513-0.627,0.685-1.481,0.06c-0.101-0.107-0.079-0.184-0.016-0.255l-0.72,0.613
			c0.101-0.337-0.32-0.983,0.207-0.891c-1.583-0.494-2.117,1.614-2.854,0.646l0.104-0.11c-1.907,0.936-0.003,1.102-1.284,2.68
			l-1.464-2.392l-0.013,1.103c-0.212,0.008-0.634,0.017-0.632-0.422c-0.642,0.893,0.21,0.43-0.118,1.212
			c-1.156-0.746-2.667,1.039-3.17-0.604c-0.224,0.879,1.054,0.422,0.084,1.206c-0.6-1.757-1.178,0.565-2.221-0.087
			c0.128-0.996,1.066-0.674,0.024-1.328c-0.293,1.702-1.82,0.011-2.536,0.461c0.159,1.274-1.584,0.855-2.809,1.52
			c0.019-0.437-2.526-0.245-3.787-0.496l0.007-0.217c-0.052,1.321-1.324,1.299-2.19,1.715c-0.067-0.775,0.054-1.104,0.496-1.533
			l-0.845,0.153c-0.143,0.443-0.379,0.703-0.909,0.944l0.087-0.994c-1.116,0.236-2.123,1.5-3.652,1.084
			c0.024,0.91,1.464,2.318-0.008,3.152c-0.115-0.473-0.272-1.296,0.106-1.555c-0.125,0.081-0.422,0.473-0.713,0.307l0.517-0.907
			c-0.705-0.258-0.264,0.736-0.804,0.738c-0.07-0.692-0.449-0.434-0.438-0.996c0.127-0.087,0.495,0.219,0.665-0.085
			c-0.611-0.032-1.379-0.337-1.676-0.825c0.096,0.387,0.106,0.933-0.319,1.083c-1.126,0.214-0.48-0.775-1.178-1.041
			c-0.22,0.521-0.993,0.122-0.9,1.163c-0.331,0.036-0.442-0.44-0.601-0.701c-0.533,0.539-2.711,0.483-1.943,1.503l0.157,0.054
			l-0.091,0.055h0.006h-0.006c-1.826,1.278-4.045-0.107-5.908,0.518l-0.024-0.344c-1.107,0.508-2.511,0.462-3.279,1.274
			c-0.34,0.023-0.834-0.578-0.714-1.002c-0.852,0.322-0.934,0.723-2.214,0.22c0.843-0.653-0.325-0.518,0.873-0.497
			c-1.141-0.232-1.412-0.778-2.584,0.229c0.378-0.908-0.875-1.089-1.396-0.81l0.8,0.613c-0.597,0.152-1.126,0.09-1.656,0.022
			l0.266-1.178c-2.244-1.379-4.127,2.444-5.766-0.04c-0.631,0.793,1.192,0.645,0.628,1.577c-1.054-0.204-2.011-1.979-2.313-2.009
			c-1.291-0.792-1.437,1.582-2.821,0.908c0.118,0.442,0.166,1.594-1.008,1.769c-1.025-0.375-0.887-2.015-0.237-2.183
			c0.231,0.018,0.322,0.166,0.289,0.306c0.339-0.079,0.772-0.178,0.462-0.703l-0.189,0.389c-0.417-0.5-1.661-0.81-1.218-1.399
			c-0.743,0.191-0.46,0.577,0.018,0.94c-0.566-0.472-0.88-0.588-1.198-0.705c-0.302-0.12-0.583-0.248-0.708-0.621
			c-0.057,0.238-0.22,0.719-0.317,0.627c-0.492-1.243-0.875,0.218-1.644-0.696c0.147-1.004,1.304-0.455,0.289-1.468
			c-0.063-1.084,0.805-0.668,1.217-0.509c-1.135-0.796-0.958-3.21-1.828-4.417c0.347,0.242,0.673,0.521,0.983,0.796
			c-0.557-0.497-0.946-0.994-1.39-1.459c0.004,0.378-0.019,0.755-0.053,1.123c-0.355-0.646-0.807-1.061-0.6-1.317
			c-0.822-0.024-0.427,1.372-1.768,1.183c-0.437-0.9-2.057-0.729-1.921-1.834c0.975,0.623,1.027,0.414,1.059,0.024
			c0.032-0.354,0.016-0.876,1.05-0.357c-0.442-0.133-0.896-0.388-1.396-0.767c-0.042-0.154,0.154-0.181,0.329-0.172
			c-1.989-1.842-1.318,0.741-3.497,0.152c0.475-0.568-0.58-1.271-0.942-1.146c1.026,0.107,0.334,1.051-0.436,1.52
			c-1.361-0.481-1.409,0.42-2.051,0.428l0.753,0.148c-0.207,0.649-0.81,0.62-1.573,0.967c-0.146-0.475,0.685-0.459,0.367-0.623
			c-0.722,1.231-2.217-0.713-3.277,0.359c-0.646-0.243-0.32-1.126-0.875-1.252c-1.131,1.202-1.665-0.359-2.85,0.767
			c0.62,0.665,0.618,0.44-0.087,1.563l2.052-1.344l-1.104,1.662c0.659-0.225,1.266-0.994,1.707-0.984
			c-0.512,0.885-0.487,0.655,0.003,1.224c-1.235-0.905-1.588,1.317-2.837,0.882l-0.55-1.992c-1.818-0.301-2.428,2.064-4.52,2.305
			l0.726,0.102c-0.025,0.89-1.168,0.568-1.701,1.114c-0.133-0.681-0.594-0.781-0.974-1.099c0.168,0.487-1.398,0.438-1.225,1.824
			l-1.068-0.617c-1.575,0.07-1.321,2.439-2.881,2.502c0.333-0.831-0.382-1.188,0.475-1.913c-0.471,0.094-0.894,0.036-0.841,0.518
			c-0.16-0.202-0.452,0.094-0.768,0.325c-0.206,0.241-0.375,0.396-0.644,0.043c-0.239,0.285-0.361,1.016-0.948,0.899
			c-0.054-0.144,0.027-0.342,0.027-0.342c-0.026,0.342-0.96,0.382-0.501,1.198c-0.733-1.167-1.849-1.248-2.938-1.347
			c-1.04-0.078-2.262-0.232-2.498-1.262c-0.739,0.048-1.721-0.074-2.353-0.499c0.203-0.123,0.276-0.251,0.322-0.12
			c-0.103-0.505-0.593-0.274-1.166-0.146c-0.54,0.15-1.231,0.159-1.024-0.76c1.03-1.089,0.743,0.465,1.099-0.131
			c1.112-0.585,0.98-0.762,0.812-1.072c-0.177-0.288-0.331-0.812,0.403-1.021l0.078,0.143c0.437-0.164,0.306-0.371,0.187-0.771
			c-0.178-0.271-0.118-1.214,0.267-1.867c0,0,0.128,0.164,0.271,0.17c-0.456-1.563,0.05-3.475,0.34-5.334
			c0.602,0.762,0.124,0.958,1.027,0.859c0.169-0.887-1.292-0.234-1.07-1.748c0.582-0.395,1.229-1.575,2.134-1.895
			c-0.068,0.583-0.174,1.171-0.299,1.761c1.387-0.9,0.417-2.37,0.664-3.258l0.496-0.021c-0.007-1.418-0.426-1.94-0.775-2.426
			c-0.358-0.492-0.679-0.937-0.906-2.188l-0.257,0.537c-1.264-0.245,0.294-1.685-0.795-2.127c0.259-0.531,0.515-1.077,0.755-1.637
			c-0.136-0.119-0.28-0.387-0.521-0.465c-0.282,0.028-0.61,0.096-0.965,0.202c-1.096,0.706-2.164,1.438-2.926,1.856
			c0.813-1.057,2.13-1.989,3.468-2.866c0.357-0.052,0.688-0.059,0.981-0.065c-0.157-0.144-0.393-0.346-0.666-0.519
			c-1.062,0.409-2.31,1.024-2.806,1.679c0.401-0.273,1.031-0.834,1.277-0.692c-1.705,1.69-2.996,2.689-4.46,3.269
			c0.295-1.555-0.86-1.278-2.251-0.777c-1.494,0.553-2.504,1.002-3.321,0.247c-1.883,1.97-4.544,1.724-7.038,3.161
			c1.666,1.459-0.72,0.432,0.225,2.321c-0.54,0.425-0.776,0.508-0.88,0.407l-2.258-0.261c-0.655-0.354,0.384-0.722,0.152-1.135
			c-1.353,0.517-0.879-0.554-1.946-0.63c0.462,0.607-0.038,1.234-0.88,1.347l1.402,0.369c-1.369,1.978-2.229-0.839-3.611,1.137
			l0.317-0.912c-0.779,0.845-3.423,1.777-3.678,3.823c-0.259-0.139-0.694-0.56-0.347-0.917c-2.305,0.926-4.218,4.258-6.332,4.184
			l-0.03-0.568c-0.355,0.357-0.347,1.278-1.058,1.063c-0.057-0.211-0.033-0.566-0.235-0.494c-0.149,0.278-0.746,1.411-1.406,1.416
			l0.243-0.78c-2.406,0.488-2.762,3.026-4.438,4.281c-0.566-1.413-2.444-1.013-3.381-0.816l-0.049-0.214
			c-2.572,1.086-3.792,3.312-5.913,5.006c-2.037-0.845-5.158,1.709-7.808,1.873c0.451,0.101,0.342,1.153-0.025,1.485
			c-0.651-0.053-1.173,1.681-1.545,0.313l0.204-0.063c-0.865-1.124-1.869-0.285-2.761,0.05l0.434,1.808
			c-3.123-1.555-5.82,3.39-7.762,1.498c-0.437,0.632-1.132,0.878-1.575,1.494l-0.215-0.972c-1.604,0.249-2.392,0.355-4.226,1.061
			l0.243-0.793c-1.045,0.19-0.816,3.141-1.834,3.408l-0.512-1.424c-1.905,0.362-3.658-0.795-5.192,0.374
			c0.046-0.214,0.134-0.64,0.375-0.68c-0.364-0.034-0.941-0.397-1.313-0.507c-0.359-0.111-0.647,0.026-0.969,0.979
			c0.407-1.241-0.563-0.413-1.321-0.702c0.266-0.139,0.529-0.288,0.785-0.447c-0.164,0.065-0.321,0.111-0.464,0.148l11.956-2.939
			l-12.17,2.541c-0.774,0.158-1.137,0.191-1.614-0.492c0.066-0.269,0.622-0.384,0.486-0.069c0.307-0.736-0.969-0.351-0.531-1.387
			c0.189,0.123,0.376,0.234,0.562,0.333c0.073-0.722-0.219-0.67-0.785-1.295c-0.266-0.686,0.685-1.749,1.468-1.481
			c-0.411-0.316-0.781-1.15-0.308-1.588c0.298,0.087,0.361,0.383,0.396,0.524c1.223-1.11,0.394-2.87,1.777-3.312
			c0.242,0.181,0.4,0.218,0.526,0.2c-0.819,1.108-1.39,2.017-1.391,1.891c0.677,0.477,1.324-0.292,1.824,1.095
			c-0.142-1.023-0.313-3.208,0.66-3.799c0.09,0.016,0.181,0.029,0.299,0.095l-0.003,0.154c0.216-0.137,0.3-0.368,0.33-0.634
			c0.312-0.173,0.531-0.261,0.751-0.51c0.561,0.416,1.086-0.686,1.492-1.072c-0.649-0.673-0.043-1.113-1.024-1.183
			c0.105-0.018-0.005,0.163-0.231,0.479c-0.038,0.083-0.096,0.168-0.096,0.255l-0.03-0.091l-0.881,1.119
			c-0.042-0.691,0.006-1.357,0.777-1.442c-0.208-0.675-0.386-1.387-0.449-1.748c1.397,0.39,2.901-0.136,3.553,0.356
			c0.893-1.661,2.75-3.127,2.563-5.33c0.25-0.524,0.733,0.035,1.033,0.144c-0.117,0.338-0.393,0.542-0.363,0.858
			c0.489-1.05,2.149-2.108,1.647-3.302c1.293-0.353,0.087,1.421,1.318,0.124l0.029,0.474c3.703-0.475,2.675-6.258,7.087-6.346
			c-0.293,0.022-0.436,0.039-0.586-0.11c4.058-1.616,6.788-6.209,11.22-7.01c1.186-0.353,0.918-1.142,1.257-2.104l0.701,0.777
			l0.514-1.767c1.117-1.776,3.78,0.554,4.954-2.155l-0.563-0.47c0.751-0.322,2.013-1.771,2.257-0.979
			c0.014-0.156-0.098-0.795,0.337-0.641l0.264,0.473l1.292-1.916c1.502-0.483,0.754,2.064,2.739,0.938
			c0.626-0.646,1.349-2.718,0.916-2.875c-0.304,0.161-0.896,0.172-1.161-0.306l0.532-0.67c-0.595-1.507-0.829-3.291-2.934-3.275
			l-0.688,1.585l-0.709-0.465l0.925-0.643c-0.861-0.313-0.915,0.48-1.1,1.114c-0.273-0.309-0.563-0.47-0.854-0.463l-0.427,2.07
			c-0.415-0.475-0.057-1.428-0.956-1.264c-0.202,0.961,1.125,0.941,0.474,1.901c-0.865-0.31-0.974-0.938-1.33,0.021
			c-0.273-0.313-0.257-0.633-0.088-0.956c-0.343,0.805-1.4,1.142-1.307,2.089c-0.969-0.441-1.797,1.434-2.43,0.046
			c-0.012,0.438-0.451,1.7-0.938,2.094c0.116-2.229-1.982,1.171-2.626-0.715c0.051,1.904-2.189,2.313-2.996,3.94
			c0.008-0.159,0.021-0.479,0.169-0.479c-0.756,0.346-1.187,0.052-1.779,0.087c0.547,1.243-0.382,2.249-0.56,3.375
			c-1.463-0.553-0.244-1.74-1.102-2.65c0.561,0.928-0.948,1.972-0.225,2.569c-1.03-0.252-0.742,0.046-1.612-0.692
			c0.701,1.542-0.462,0.672-0.492,1.947c-1.331-0.059-1.009-1.198-1.778-0.022C179.447,486.305,180.064,485.134,180.065,485.134z
			 M158.791,507.855l-0.014-0.015l0.372-0.566L158.791,507.855z M157.202,510.134c0.219-0.26,0.45-0.625,0.707-0.987
			c0.294,0.136,0.48,0.44,0.31,0.65C158.14,509.527,157.642,509.952,157.202,510.134z M165.063,510.352
			c-0.158,0.374-0.353,0.337-0.519,0.232c0.1-0.145,0.211-0.322,0.348-0.574l-0.047-0.118
			C164.943,510.049,165.028,510.208,165.063,510.352z"/>
		<path fill="#545454" d="M164.688,508.929c0.023-0.061,0.017-0.11,0.06-0.171c-0.106-0.002-0.202,0-0.29,0.012l0.104,0.323
			L164.688,508.929z"/>
		<path fill="#545454" d="M320.125,517.648l-0.052-0.018c0.046,0.036,0.086,0.069,0.118,0.126
			C320.154,517.715,320.149,517.685,320.125,517.648z"/>
		<polygon fill="#545454" points="179.226,527.834 179.156,527.599 179.008,527.88 		"/>
		<path fill="#545454" d="M333.523,519.067c0.035,0.083,0.096,0.166,0.206,0.223C333.711,519.229,333.624,519.15,333.523,519.067z"
			/>
		<path fill="#545454" d="M339.169,518.272l0.847,0.201C339.643,518.341,339.38,518.292,339.169,518.272z"/>
		<path fill="#545454" d="M343.555,517.92c0.028-0.188,0.023-0.318,0.019-0.439l-0.011-0.005L343.555,517.92z"/>
		<path fill="#545454" d="M278.295,513.314c-0.046,0.012-0.086,0.026-0.125,0.059C277.875,513.615,278.086,513.495,278.295,513.314z
			"/>
		<path fill="#545454" d="M294.673,521.474c-0.244,0.15-0.488,0.289-0.74,0.363C294.304,521.972,294.601,522.035,294.673,521.474z"
			/>
		<polygon fill="#545454" points="255.533,521.041 255.538,521.023 255.327,521.005 		"/>
		<path fill="#545454" d="M292.938,521.646c0.353,0.259,0.683,0.285,0.995,0.191C293.629,521.727,293.276,521.55,292.938,521.646z"
			/>
		<path fill="#545454" d="M362.25,514.122l0.212-0.009c-0.015-0.061-0.014-0.122-0.007-0.163L362.25,514.122z"/>
		<path fill="#545454" d="M362.455,513.95l0.206-0.172C362.557,513.805,362.466,513.835,362.455,513.95z"/>
		<path fill="#545454" d="M363.092,513.406l-0.431,0.372C362.83,513.737,363.042,513.711,363.092,513.406z"/>
		<path fill="#545454" d="M356.491,515.078l0.001,0.368C356.515,515.363,356.516,515.244,356.491,515.078z"/>
		<path fill="#545454" d="M354.785,515.583c0.425-0.013,1.172,0.51,1.706,0.155l0.001-0.292
			C356.319,516.034,355.066,514.899,354.785,515.583z"/>
		<path fill="#545454" d="M346.842,512.812l1.485-0.024c-0.318-0.324-0.731-0.76-0.094-0.988
			C346.234,511.061,348.748,512.562,346.842,512.812z"/>
		<path fill="#545454" d="M342.294,513.185c0.746-0.332-0.095-0.549-0.089-0.771C341.771,512.854,341.666,512.966,342.294,513.185z"
			/>
		<path fill="#545454" d="M309.919,517.874l0.028-0.908C309.357,517.141,309.96,517.316,309.919,517.874z"/>
		<polygon fill="#545454" points="303.794,522.826 304.407,523.372 304.679,522.538 		"/>
		<polygon fill="#545454" points="300.146,516.37 300.403,516.248 299.428,516.541 		"/>
		<path fill="#545454" d="M250.035,511.555l-0.015,1.128C250.429,512.562,250.685,511.344,250.035,511.555z"/>
		<path fill="#545454" d="M249.861,491.892c0.353-0.727,0.3-1.974-0.258-2.104C249.798,490.592,249.674,491.617,249.861,491.892z"/>
		<polygon fill="#545454" points="182.667,517.084 182.992,516.552 182.259,517.184 		"/>
	</g>
</g>
</svg>
