<?xml version="1.0" encoding="utf-8"?>
<!-- Generator: Adobe Illustrator 16.0.0, SVG Export Plug-In . SVG Version: 6.00 Build 0)  -->
<!DOCTYPE svg PUBLIC "-//W3C//DTD SVG 1.1//EN" "http://www.w3.org/Graphics/SVG/1.1/DTD/svg11.dtd">
<svg version="1.1" id="Capa_1" xmlns="http://www.w3.org/2000/svg" xmlns:xlink="http://www.w3.org/1999/xlink" x="0px" y="0px"
	 width="400px" height="400px" viewBox="0 0 400 400" enable-background="new 0 0 400 400" xml:space="preserve">
<g>
	<g>
		<g>
			<path fill="#FFFFFF" d="M330.448,100.124c18.637-26.398-2.68-35.403-2.68-35.403s9.208,7.963-2.859,24.163
				c-18.483,24.812-64.521,33.867-81.633,45.659c-17.112,11.792-11.376,30.164-11.376,30.164L330.448,100.124z"/>
		</g>
		<g>
			<path fill="#C5F3F9" d="M346.166,77.354c0,0-6.518,16.262-34.064,30.523c-67.757,35.076-74.91,28.279-77.542,56.355
				c0,0,72.792-25.46,103.246-55.238C337.806,108.994,347.968,96.997,346.166,77.354z"/>
		</g>
		<g>
			<path fill="#C5F3F9" d="M330.205,112.128c0,0-11.66,11.052-40.004,21.302c-30.018,10.855-43.054,16.632-47.402,26.741
				c0,0-0.186-9.105,13.716-16.011S295.959,132.468,330.205,112.128z"/>
		</g>
		<g>
			<path fill="#FFFFFF" d="M339.503,117.896c-14.17,13.052-88.485,45.255-105.21,48.907c0,0-0.329-14.818,14.05-23.701
				c14.379-8.884,90.973-35.959,102.528-64.4c0,0,0.288,4.7-0.704,10.537c-0.844,4.969-2.615,10.762-6.284,15.183
				c0.009-0.003,0.024-0.012,0.048-0.025c0.611-0.339,6.553-3.688,8.902-7.45C352.833,96.946,352.711,105.728,339.503,117.896z"/>
		</g>
		<g>
			<path fill="#C5F3F9" d="M241.899,164.028c0,0-0.941-4.157,4.203-8.428c5.146-4.271,29.056-13.278,29.056-13.278
				s-14.705,6.416-25.167,12.913C243.688,159.15,241.899,164.028,241.899,164.028z"/>
		</g>
		<g>
			<path fill="#C5F3F9" d="M350.167,89.239c-0.844,4.969-2.615,10.762-6.284,15.183c0.009-0.003,0.024-0.012,0.048-0.025
				c-4.275,3.287-10.959,7.854-20.444,12.82c-12.739,6.67-55.835,24.651-55.835,24.651c11.953-7.744,55.907-25.799,65.863-33.566
				c12.672-9.889,16.654-19.071,16.654-19.071L350.167,89.239z"/>
		</g>
	</g>
	<g>
		<g>
			<path fill="#FFFFFF" d="M128.868,97.24c-16.352-19.89-14.201-43.842-14.201-43.842s1.391,16.348,23.972,34.725
				c23.997,19.53,66.994,31.87,84.307,43.366c17.312,11.497,9.075,30.396,9.075,30.396L128.868,97.24z"/>
		</g>
		<g>
			<path fill="#C5F3F9" d="M98.619,78.521c0,0-5.848-9.1-2.563-21.884c0,0,8.599,22.313,50.764,46.503
				c66.12,37.936,87.277,28.207,85.35,57.885C232.17,161.025,113.776,114.197,98.619,78.521z"/>
		</g>
		<g>
			<path fill="#FFFFFF" d="M75.13,91.617l6.102,0.698c0,0-7.583-8.015-10.164-15.844c0,0,0.035,0.03,0.103,0.089
				c0,0,0,0.002,0.002,0.002c1.01,0.869,9.166,7.772,15.776,9.774c0.121,0.038,0.243,0.072,0.364,0.106
				c0,0-5.815-12.225-7.038-19.25c-0.002-0.004-0.003-0.006-0.003-0.01c0,0,0,0,0.001,0.002
				c0.331,0.208,85.185,53.773,118.012,64.632c32.892,10.882,33.885,29.21,33.885,29.21S122.456,138.052,70.947,99.865L75.13,91.617
				z"/>
		</g>
		<g>
			<path fill="#C5F3F9" d="M86.949,86.336c0.121,0.038,0.243,0.072,0.364,0.106c0,0-5.815-12.225-7.038-19.25
				c0.166,0.412,5.488,13.683,15.543,21.61c7.286,5.743,29.854,18.418,30.256,18.645C125.648,107.279,101.884,97.847,86.949,86.336z
				"/>
		</g>
		<g>
			<path fill="#C5F3F9" d="M135.645,110.568c0,0,11.847,10.851,40.363,20.613c30.2,10.339,43.333,15.891,47.854,25.924
				c0,0,0.03-9.107-13.988-15.773C195.855,134.667,170.234,130.318,135.645,110.568z"/>
		</g>
		<g>
			<path fill="#C5F3F9" d="M131.892,116.821c-19.389-7.235-39.032-16.975-50.759-24.518l0.098,0.011c0,0-7.583-8.015-10.164-15.844
				c0.029-0.006,0.044-0.011,0.044-0.011s0.02,0.035,0.059,0.1c0,0,0,0.002,0.002,0.002c0.733,1.22,6.39,10.759,21.179,19.537
				C107.14,104.878,131.892,116.821,131.892,116.821z"/>
		</g>
	</g>
	<g>
		<g>
			<path fill="#FF586A" d="M353.308,114.992l-29.005,74.092l-23.209,59.29c-0.192,0.493-0.499,0.93-0.896,1.277l-73.338,64.22
				c-0.059,0.052-0.118,0.1-0.181,0.146c-4.109,3.092-9.491,8.597-14.265,10.217c-0.067,0.023-0.135,0.046-0.201,0.066
				c-8.331,2.648-17.346,2.897-25.949,0.461c-1.769-0.5-5.664-1.534-7.285-2.259c-0.1-0.046-0.203-0.088-0.306-0.124l-3.393-1.172
				l-0.007-0.003l-6.767-2.337c-0.13-0.045-0.256-0.096-0.379-0.156L28.054,249.786c-1.376-0.678-2.104-2.216-1.752-3.709
				l30.212-128.363l5.33-22.644c0.467-1.978,2.594-3.064,4.47-2.283l149.575,62.331l0.147,0.058c0,0,19.658,12.902,37.736,1.614
				c0.1-0.058,0.201-0.113,0.3-0.168l3.552-1.718l91.188-44.075C351.506,109.525,354.399,112.205,353.308,114.992z"/>
		</g>
	</g>
	<path fill="#E0364C" d="M280.258,143.964c0,0,1.116,8.656-2.301,21.399c-2.326,8.676-6.462,18.634-6.462,18.634l1.879,9.013h1.784
		c0,0,8.6-20.466,9.165-31.124c0.566-10.658-1.368-19.226-1.368-19.226L280.258,143.964z"/>
	<g>
		<path fill="#E0364C" d="M324.303,189.084l-23.209,59.29c-0.192,0.493-0.499,0.93-0.896,1.277l-73.338,64.22
			c-0.059,0.052-0.118,0.1-0.181,0.146c-4.109,3.092-9.491,8.597-14.265,10.217l17.334-71.699c0,0-3.727,32.576,22.49,24.642
			C274.037,270.58,306.389,227.364,324.303,189.084z"/>
	</g>
	<g opacity="0.3">
		<g>
			<path fill="#9D174D" d="M243.066,291.224c-0.107,0.012-0.217,0.008-0.325-0.012c-0.341-0.061-0.637-0.271-0.806-0.574
				c-0.411-0.734-0.929-1.392-1.536-1.953c-1.588-1.469-3.679-2.223-6.049-2.179c-0.36,0.007-0.704-0.155-0.928-0.438
				c-0.225-0.282-0.305-0.653-0.216-1.003l28.211-111.914c0.127-0.506,0.575-0.863,1.097-0.875c0.316-0.007,0.632-0.027,0.967-0.063
				c6.604-0.691,11.413-6.625,10.722-13.228c-0.037-0.348-0.087-0.688-0.15-1.011c-0.101-0.519,0.162-1.04,0.64-1.268l57.687-27.442
				c0.334-0.158,0.723-0.148,1.048,0.027s0.547,0.496,0.597,0.862c0.208,1.531,0.873,2.854,1.923,3.827
				c0.822,0.759,1.819,1.262,2.964,1.493c0.334,0.067,0.621,0.277,0.785,0.576c0.164,0.298,0.189,0.653,0.067,0.971l-38.37,100.737
				c-0.116,0.305-0.354,0.546-0.657,0.665c-1.461,0.576-2.828,1.523-3.954,2.741c-1.735,1.875-2.741,4.175-2.834,6.477
				c-0.013,0.322-0.159,0.625-0.405,0.835l-49.846,42.477C243.517,291.107,243.296,291.2,243.066,291.224z M235.799,284.255
				c2.359,0.248,4.512,1.192,6.172,2.729c0.447,0.414,0.857,0.867,1.225,1.355l48.472-41.307c0.232-2.674,1.434-5.298,3.414-7.439
				c1.238-1.338,2.725-2.409,4.324-3.12l37.745-99.097c-1.034-0.382-1.978-0.956-2.776-1.694c-1.083-1.003-1.868-2.264-2.313-3.701
				l-55.593,26.446c0.014,0.105,0.025,0.212,0.037,0.318c0.824,7.872-4.91,14.947-12.783,15.772c-0.09,0.009-0.18,0.018-0.268,0.025
				L235.799,284.255z"/>
		</g>
	</g>
	<path fill="#FFBE00" d="M294.804,144.93c0.021,1.721-0.14,3.69-0.449,5.801c-0.61,4.37-1.801,9.37-3.15,14.159
		c-1.09,3.851-2.271,7.58-3.34,10.74c-1.82,5.391-3.3,9.15-3.36,9.15l-9.35,8.229l-0.641-4.159l-0.68-4.461
		c0,0,0.71-1.779,1.73-4.619c1.329-3.71,3.17-9.24,4.63-15.011c0.62-2.479,1.18-5,1.58-7.439c0.93-5.55,1.119-10.69-0.271-13.96
		c0,0,4.3-7.67,10.61-5.13C293.994,138.99,294.764,141.48,294.804,144.93z"/>
	<path fill="#FFD71A" d="M294.804,144.93c0.021,1.721-0.14,3.69-0.449,5.801l-14.16,14.029c0.62-2.479,1.18-5,1.58-7.439
		L294.804,144.93z"/>
	<path fill="#FFD71A" d="M291.204,164.89c-1.09,3.851-2.271,7.58-3.34,10.74l-13.351,13.221l-0.68-4.461c0,0,0.71-1.779,1.73-4.619
		L291.204,164.89z"/>
	<g>
		<path fill="#E0364C" d="M189.846,261.535l-14.565,59.672l-0.007-0.003l-6.767-2.337c-0.13-0.045-0.256-0.096-0.379-0.156
			L28.054,249.786c-1.376-0.678-2.104-2.216-1.752-3.709l30.212-128.363h0.002c0,0-25.167,100.299,16.529,136.533
			C144.683,316.502,189.846,261.535,189.846,261.535z"/>
	</g>
	<g opacity="0.3">
		<g>
			<path fill="#9D174D" d="M150.968,304.397c-0.208,0.021-0.419-0.013-0.612-0.103c-32.06-15.017-77.499-38.664-101.731-51.423
				c-0.284-0.15-0.494-0.411-0.578-0.721c-0.084-0.311-0.036-0.642,0.133-0.914c1.708-2.755,2.433-5.92,2.094-9.153
				c-0.632-6.037-5.009-11.085-10.892-12.562c-0.609-0.152-0.985-0.763-0.848-1.375l24.825-110.976
				c0.068-0.305,0.256-0.568,0.521-0.732c0.265-0.164,0.585-0.214,0.888-0.139c1.629,0.405,3.312,0.521,5.002,0.344
				c5.559-0.583,10.343-4.37,12.189-9.648c0.105-0.302,0.331-0.547,0.623-0.677c0.292-0.13,0.625-0.133,0.919-0.009l111.202,46.857
				c0.291,0.123,0.519,0.358,0.632,0.653c0.112,0.295,0.1,0.623-0.035,0.909c-1.132,2.395-1.584,5.059-1.307,7.706
				c0.669,6.391,5.353,11.508,11.653,12.731c0.317,0.062,0.595,0.254,0.765,0.529s0.217,0.609,0.129,0.921l-32.898,116.955
				c-0.092,0.326-0.323,0.597-0.631,0.738c-0.309,0.142-0.664,0.141-0.972-0.002c-2.367-1.102-4.999-1.539-7.611-1.266
				c-5.955,0.624-10.848,4.752-12.465,10.515c-0.092,0.328-0.323,0.599-0.632,0.74C151.213,304.352,151.091,304.385,150.968,304.397
				z M50.763,251.381c24.154,12.71,67.91,35.46,99.388,50.26c2.208-6.002,7.584-10.224,14.035-10.899
				c2.577-0.27,5.171,0.058,7.58,0.948l32.218-114.535c-2.998-0.824-5.766-2.494-7.894-4.783c-2.496-2.686-4.018-6.037-4.401-9.693
				c-0.279-2.666,0.08-5.349,1.041-7.828L83.695,108.905c-2.4,5.519-7.649,9.41-13.685,10.042c-1.561,0.163-3.117,0.111-4.642-0.154
				L41.031,227.589c6.27,2.033,10.852,7.631,11.546,14.254C52.926,245.177,52.3,248.449,50.763,251.381z"/>
		</g>
	</g>
	<g>
		<polygon fill="#C5F3F9" points="80.273,67.184 80.275,67.192 80.272,67.182 		"/>
	</g>
	<g>
		<g>
			<path fill="#9D174D" d="M216.036,155.175c0,0,5.197-0.05,20.425,0.611c9.572,0.415,20.313-0.471,20.313-0.471
				s-8.428,7.208-19.58,7.456C226.04,163.02,216.036,155.175,216.036,155.175z"/>
		</g>
		<g>
			<path fill="#E0364C" d="M257.724,154.905l-45.51,169.396c-0.031,0.01-0.061,0.02-0.091,0.027
				c-8.307,2.622-17.286,2.858-25.857,0.433c-1.826-0.516-5.917-1.602-7.437-2.328l-3.556-1.229l40.108-166.081
				c0.17-0.001,0.34-0.004,0.508-0.006l0.146,0.057c0,0,1.313,0.863,3.576,1.947c6.507,3.119,20.854,8.071,34.3-0.423
				c0.003,0,0.006-0.002,0.009-0.004l3.704-1.792C257.69,154.905,257.724,154.905,257.724,154.905z"/>
		</g>
		<g>
			<path fill="#FF586A" d="M201.141,323.782c-3.86,0.404-7.422-0.087-10.21-0.768c-5.366-1.313-8.995-3.534-9.147-3.628
				c-0.25-0.154-0.372-0.453-0.3-0.738l39.055-155.685c0.053-0.211,0.204-0.383,0.405-0.463c0.201-0.081,0.429-0.06,0.612,0.058
				c6.68,4.255,13.896,5.662,21.442,4.18c5.652-1.109,9.383-3.515,9.42-3.539c0.234-0.153,0.54-0.146,0.767,0.019
				c0.227,0.165,0.328,0.453,0.255,0.724l-42.573,156.482c-0.048,0.176-0.164,0.325-0.323,0.413
				C207.38,322.597,204.168,323.465,201.141,323.782z M182.918,318.482c1.096,0.61,4.229,2.222,8.375,3.229
				c4.672,1.136,11.623,1.712,18.347-1.919l42.071-154.642c-1.636,0.847-4.573,2.145-8.396,2.901
				c-5.279,1.046-13.263,1.189-21.69-3.864L182.918,318.482z"/>
		</g>
		<g opacity="0.3">
			<path fill="#9D174D" d="M244.25,205.055l-1.648,6.137c-15.368,4.283-29.547-2.456-35.289-5.81
				c-3.294,13.622-6.719,28.477-9.532,42.217c16.507,9.097,34.107,3.472,34.107,3.472l-1.392,5.183
				c-16.922,5.302-33.349-4.299-33.569-4.429c-3.78,19-6.199,35.309-5.191,42.376c0.071,0.493,0.148,0.97,0.234,1.435
				c9.044,3.856,22.572,2.799,25.959,2.456c-0.844,1.563-1.827,2.984-2.912,4.241c-9.1,2.063-16.871-0.007-21.79-2.106
				c4.333,11.364,15.009,9.964,21.79,2.106c0.923-0.209,1.858-0.461,2.808-0.758l-5.702,22.754
				c-8.305,2.624-17.284,2.86-25.855,0.433c-1.826-0.515-5.919-1.6-7.438-2.327l-3.555-1.229l40.108-166.081
				c0.171,0,0.341-0.005,0.508-0.006l0.147,0.058c0,0,1.313,0.862,3.576,1.946c0,0-5.304,19.591-11.304,44.157
				C224.79,209.616,244.25,205.055,244.25,205.055z"/>
		</g>
		<g opacity="0.3">
			<path fill="#9D174D" d="M219.841,293.524l-1.122,4.479l-0.895,3.57c-0.949,0.297-1.885,0.549-2.808,0.758
				c1.085-1.257,2.068-2.679,2.912-4.241C218.692,296.678,219.34,295.148,219.841,293.524z"/>
		</g>
		<g>
			<path fill="#9D174D" d="M218.719,298.004l-0.895,3.57c-0.949,0.297-1.885,0.549-2.808,0.758c1.085-1.257,2.068-2.679,2.912-4.241
				C218.439,298.039,218.719,298.004,218.719,298.004z"/>
		</g>
	</g>
	<g>
		<path fill="#FFBE00" d="M235.702,208.873c-2.729,0.286-5.947,0.231-9.681-0.42c-15.219-2.654-21.776-9.259-22.049-9.539
			l4.016-3.897l-0.014-0.014c0.056,0.056,5.741,5.623,19.009,7.938c11.66,2.033,16.601-2.676,16.806-2.877l-0.027,0.027l4.038,3.875
			C247.592,204.182,243.791,208.026,235.702,208.873z"/>
	</g>
	<g>
		<path fill="#FFBE00" d="M222.627,253.756c-2.65,0.278-5.665,0.229-9.035-0.359c-15.235-2.657-21.365-8.95-21.619-9.217
			l4.056-3.856l-0.017-0.018c0.052,0.053,5.317,5.271,18.541,7.578c11.93,2.081,18.066-3.894,18.127-3.954
			c1.093-1.092,2.864-1.092,3.957,0.001s1.093,2.864-0.001,3.957C236.381,248.144,231.586,252.817,222.627,253.756z"/>
	</g>
	<g>
		<path fill="#FFBE00" d="M211.59,300.682c-2.65,0.277-5.666,0.228-9.036-0.36c-15.239-2.657-21.261-8.874-21.509-9.138l4.067-3.844
			l-0.018-0.019c0.051,0.052,5.211,5.184,18.422,7.487c11.93,2.081,18.066-3.893,18.127-3.953c1.093-1.093,2.864-1.093,3.957,0
			c1.092,1.093,1.092,2.864-0.001,3.957C225.343,295.068,220.548,299.743,211.59,300.682z"/>
	</g>
	<g>
		<g>
			<path fill="#FFBE00" d="M166.415,170.048l-1.324,5.387l-3.401,13.836c-0.345,1.404-1.855,2.181-3.198,1.642l-18.06-7.245
				l-7.99-3.206h-0.002l-16.08-6.451l-18.587-7.457l-12.457-4.996c-1.096-0.439-1.705-1.616-1.429-2.764l0.108-0.452l1.534-6.42
				l2.912-12.188c0.338-1.412,1.848-2.196,3.197-1.661l15.908,6.331l8.301,3.306l17.142,6.822l19.031,7.575l12.965,5.161
				c0.721,0.286,1.23,0.892,1.419,1.6C166.504,169.243,166.513,169.648,166.415,170.048z"/>
		</g>
		<g>
			<polygon fill="#FFD71A" points="152.019,162.106 116.36,174.01 97.772,166.553 132.987,154.531 			"/>
		</g>
		<g>
			<polygon fill="#FFD71A" points="115.846,147.709 83.995,158.341 85.528,151.921 107.545,144.403 			"/>
		</g>
		<g>
			<path fill="#FFD71A" d="M166.415,170.048l-1.324,5.387l-24.659,8.232l-7.99-3.206l33.96-11.594
				C166.504,169.243,166.513,169.648,166.415,170.048z"/>
		</g>
	</g>
</g>
</svg>
