<?xml version="1.0" encoding="utf-8"?>
<!-- Generator: Adobe Illustrator 16.0.0, SVG Export Plug-In . SVG Version: 6.00 Build 0)  -->
<!DOCTYPE svg PUBLIC "-//W3C//DTD SVG 1.1//EN" "http://www.w3.org/Graphics/SVG/1.1/DTD/svg11.dtd">
<svg version="1.1" id="Capa_1" xmlns="http://www.w3.org/2000/svg" xmlns:xlink="http://www.w3.org/1999/xlink" x="0px" y="0px"
	 width="400px" height="400px" viewBox="0 0 400 400" enable-background="new 0 0 400 400" xml:space="preserve">
<path fill-rule="evenodd" clip-rule="evenodd" fill="#DB9669" d="M233.127,209.139c1.533,0.135,3.113,1.979,3.645,2.879
	c1.492,1.321,1.296,5.387,1.43,5.703c0.232,0.545-2.137,2.891-3.342,2.894c-0.65,0.298-0.562-1.368-2.059-0.563
	c0.374-1.88-1.215-1.016-1.866-1.073c-0.214-0.255,0.253-1.411,0.026-1.63c-0.317-0.308-1.51,0.24-1.756-0.022
	c-0.316-1.228,1.443-1.947,1.568-3.041c-0.493-0.793-1.358-1.196-1.76-2.4c-0.233-0.699,0.257-1.262-0.172-2.288
	C227.736,206.953,231.925,206.69,233.127,209.139z"/>
<g>
	<path fill-rule="evenodd" clip-rule="evenodd" fill="#4F498F" d="M230.047,151.575c0-11.609-21.486-22.842-27.836-19.49
		l-0.002-0.002l-15.255,8.314l12.854,45.229v8.295l10.584,4.167l3.622,17.579c4.856-0.267,10.339-4.124,13.269-6.741
		c1.456-1.3,2.764-2.545,2.764-4.443V151.575z"/>
	<path fill-rule="evenodd" clip-rule="evenodd" fill="#A25E33" d="M212.255,207.129l1.76,8.538
		c4.856-0.267,10.339-4.124,13.269-6.741c1.456-1.3,2.764-2.545,2.764-4.443v-5.476c-5.203,3.744-12.684,8.775-16.828,8.27
		C212.906,207.238,212.584,207.188,212.255,207.129z"/>
	<path fill-rule="evenodd" clip-rule="evenodd" fill="#635DA5" d="M229.918,150.011c-1.777-11.026-21.643-21.126-27.707-17.926
		l-0.002-0.002l-15.255,8.314C194.496,166.938,225.635,157.771,229.918,150.011z"/>
	<path fill-rule="evenodd" clip-rule="evenodd" fill="#56321A" d="M215.131,159.387c0-14.323-30.236-27.546-30.236-14.757v55.124
		c0,1.291,0.612,2.396,1.727,3.131c7.335,4.819,15.582,9.279,26.564,12.656c0.456,0.141,0.898,0.191,1.307-0.046
		c0.409-0.237,0.639-0.628,0.639-1.083V159.387z"/>
	<path fill-rule="evenodd" clip-rule="evenodd" fill="#423C82" d="M215.131,159.387c0-14.323-30.236-27.546-30.236-14.757v52.89
		c0.206,0.222,0.434,0.433,0.679,0.638c10.123,8.445,20.227,13.972,29.557,12.548V159.387z"/>
	<path fill-rule="evenodd" clip-rule="evenodd" fill="#56321A" d="M184.895,194.379v3.141c1.388,6.363,19.074,16.688,30.236,13.186
		v-3.522c-0.691,0.126-1.335,0.165-1.912,0.094C205.646,206.354,193.366,199.332,184.895,194.379z"/>
	<g>
		<path fill="#333333" d="M219.877,178.347c-0.292,0-0.529-0.224-0.53-0.501l-0.115-21.335c-0.022-4.113-3.186-8.865-8.677-13.037
			c-5.828-4.427-12.875-7.056-16.787-6.235c-0.278,0.061-0.567-0.112-0.631-0.384c-0.063-0.272,0.118-0.541,0.404-0.601
			c4.251-0.889,11.521,1.757,17.676,6.433c5.744,4.363,9.051,9.399,9.074,13.819l0.115,21.335c0.001,0.278-0.234,0.505-0.527,0.506
			C219.878,178.347,219.878,178.347,219.877,178.347z"/>
	</g>
	<path fill-rule="evenodd" clip-rule="evenodd" fill="#423C82" d="M216.49,188.192l13.725-6.881l3.771,1.969l-3.301,7.915v8.973
		l-9.6,5.174l-2.269,4.125l-3.277-1.713c-0.313-0.162-0.492-0.453-0.492-0.79v-16.418
		C215.047,189.544,215.558,188.659,216.49,188.192z"/>
	<path fill-rule="evenodd" clip-rule="evenodd" fill="#4F498F" d="M220.262,190.161c5.018-1.771,9.229-4.098,12.776-6.886
		c0.269-0.21,0.646-0.161,0.947,0.005c0.3,0.166,0.471,0.449,0.471,0.78v16.5c0,1.002-0.637,1.711-1.442,2.354
		c-3.545,2.824-8.029,4.953-12.779,6.887c-0.318,0.129-0.645,0.16-0.945-0.006c-0.299-0.166-0.473-0.45-0.473-0.778v-16.502
		C218.816,191.513,219.272,190.508,220.262,190.161z"/>
	<path fill-rule="evenodd" clip-rule="evenodd" fill="#333333" d="M213.715,189.162c-0.346,1.882,2.736,3.851,4.67,2.233
		c0.322-1.152,0.463-1.862,0.784-3.014c-1.255-0.048-2.51-0.096-3.767-0.145C214.77,188.584,214.349,188.815,213.715,189.162z"/>
	<path fill-rule="evenodd" clip-rule="evenodd" fill="#635DA5" d="M214.974,187.06c4.202-3.117,13.606-6.941,14.614-6.597
		c5.309,1.812,6.07,1.751,5.768,8.612c-2.846,1.555-7.08,5.359-13.252,6.735c-2.605,0.581-1.85-5.069-8.623-6.444
		C213.711,188.489,214.189,187.641,214.974,187.06z"/>
	<g>
		<path fill-rule="evenodd" clip-rule="evenodd" fill="#56321A" d="M226.982,191.372c0.709-0.272,1.473-0.509,2.092-0.975
			l0.229,0.12c0.004,2.548-0.128,5.197-0.229,7.742c-0.076,1.989-2.037,3.354-2.092,0.975
			C226.928,196.788,226.982,193.993,226.982,191.372z"/>
		<path fill-rule="evenodd" clip-rule="evenodd" fill="#A25E33" d="M227.211,191.493c0.707-0.272,1.471-0.509,2.092-0.975
			c0,2.621,0.103,5.243,0,7.861c-0.078,1.991-2.039,3.355-2.092,0.975C227.155,196.909,227.211,194.113,227.211,191.493z"/>
	</g>
	<path fill-rule="evenodd" clip-rule="evenodd" fill="#423C82" d="M216.49,164.101l13.725-6.88l3.771,1.97l-3.301,7.915v8.973
		l-9.6,5.173l-2.269,4.125l-3.277-1.712c-0.313-0.163-0.492-0.453-0.492-0.791v-16.419
		C215.047,165.455,215.558,164.569,216.49,164.101z"/>
	<path fill-rule="evenodd" clip-rule="evenodd" fill="#4F498F" d="M220.262,166.07c5.018-1.77,9.229-4.097,12.776-6.885
		c0.269-0.211,0.646-0.161,0.947,0.005c0.3,0.166,0.471,0.449,0.471,0.779v16.501c0,1.001-0.637,1.712-1.442,2.355
		c-3.545,2.825-8.029,4.952-12.779,6.886c-0.318,0.13-0.645,0.161-0.945-0.005c-0.299-0.167-0.473-0.45-0.473-0.78v-16.501
		C218.816,167.424,219.272,166.419,220.262,166.07z"/>
	<path fill-rule="evenodd" clip-rule="evenodd" fill="#333333" d="M214.281,165.695c-0.349,1.883,2.734,3.852,4.669,2.233
		c0.322-1.152,0.464-1.862,0.784-3.013c-1.254-0.048-2.51-0.097-3.766-0.145C215.336,165.117,214.914,165.349,214.281,165.695z"/>
	<path fill-rule="evenodd" clip-rule="evenodd" fill="#635DA5" d="M215.539,163.592c4.202-3.117,13.606-6.94,14.614-6.596
		c5.31,1.813,6.069,1.75,5.769,8.612c-2.846,1.556-7.08,5.359-13.253,6.735c-2.606,0.582-1.849-5.07-8.623-6.444
		C214.276,165.023,214.755,164.174,215.539,163.592z"/>
	<g>
		<path fill-rule="evenodd" clip-rule="evenodd" fill="#56321A" d="M227.549,167.906c0.709-0.273,1.472-0.509,2.092-0.976
			l0.227,0.121c0.005,2.548-0.127,5.195-0.227,7.742c-0.078,1.99-2.038,3.355-2.092,0.975
			C227.494,173.322,227.549,170.526,227.549,167.906z"/>
		<path fill-rule="evenodd" clip-rule="evenodd" fill="#A25E33" d="M227.775,168.026c0.709-0.272,1.473-0.509,2.094-0.976
			c0,2.621,0.102,5.243,0,7.862c-0.079,1.991-2.039,3.355-2.094,0.975C227.721,173.442,227.775,170.646,227.775,168.026z"/>
	</g>
	<g>
		<polygon fill-rule="evenodd" clip-rule="evenodd" fill="#56321A" points="203.458,134.414 200.584,134.257 200.66,133.944 
			206.363,132.985 		"/>
		<polygon fill-rule="evenodd" clip-rule="evenodd" fill="#56321A" points="216.058,139.111 218.977,142.289 221.619,140.933 
			221.904,140.524 218.681,137.746 		"/>
		<polygon fill-rule="evenodd" clip-rule="evenodd" fill="#A25E33" points="216.498,138.843 219.263,141.88 221.904,140.524 
			219.123,137.523 		"/>
		<polygon fill-rule="evenodd" clip-rule="evenodd" fill="#A25E33" points="203.535,134.101 200.66,133.944 203.436,132.519 
			206.441,132.672 		"/>
		<path fill-rule="evenodd" clip-rule="evenodd" fill="#56321A" d="M206.038,132.932c-1.13,0.556-1.863,0.905-2.993,1.46
			c0.004-0.554-0.102-1.197,1.25-2.136c0.954-0.664,1.577-0.9,3.037-0.959C206.79,131.855,206.221,131.763,206.038,132.932z"/>
		<path fill-rule="evenodd" clip-rule="evenodd" fill="#3C3C3B" d="M206.432,132.964c-1.132,0.555-1.889,0.917-3.02,1.472
			c0.005-0.554-0.307-1.125,1.09-2c0.973-0.655,2.413-0.951,3.485-1.366C207.444,131.628,206.613,131.795,206.432,132.964z"/>
		<path fill-rule="evenodd" clip-rule="evenodd" fill="#56321A" d="M218.682,137.792c-0.875,0.44-1.75,0.88-2.624,1.319
			c-0.716-7.038-8.366-8.433-12.027-6.639c0.95-0.486,1.903-0.972,2.854-1.458C209.375,129.321,218.436,131.471,218.682,137.792z"/>
		<path fill-rule="evenodd" clip-rule="evenodd" fill="#A25E33" d="M219.123,137.523c-0.875,0.439-1.75,0.879-2.625,1.319
			c-0.715-7.037-9.136-8.915-12.027-6.639c0.838-0.678,2.37-1.34,3.637-1.797C211.117,129.324,218.877,131.204,219.123,137.523z"/>
	</g>
</g>
<path fill-rule="evenodd" clip-rule="evenodd" fill="#A6847B" d="M179.581,281.787c0,0-1.75,7.523,1.73,6.188
	c1.482-0.568,1.115,2.316,0.946,3.343c-0.39,0.961-4.995,3.295-5.917,3.253c-0.952-0.039-1.408-0.471-2.289,0.349
	c-0.88,0.814-0.579,1.734-1.96,2.781c-1.186,0.903-6.478,3.198-11.381,1.016c-2.113-0.94-2.883-1.725-2.064-3.775
	c0.253-0.648,5.713-3.333,7.34-4.104c4.159-1.967,5.962-6.098,6.35-7.041c0.398-0.943,1.679-3.817,1.679-3.817
	C174.012,279.978,175.882,279.441,179.581,281.787z"/>
<path fill-rule="evenodd" clip-rule="evenodd" fill="#E1C3B9" d="M178.996,286.526c1.049,1.701,3.822,0.349,3.089,3.075
	c-0.269,0.998-4.867,3.706-5.79,3.666c-2.174-0.093-2.884,2.217-4.358,3.334c-2.488,1.935-8.108,3.46-13.002,0.222
	c-1.026-0.886-0.137-2.248,0.447-2.959c1.049-1.28,4.977-1.95,6.603-2.722C173.391,287.892,169.541,280.532,178.996,286.526z"/>
<path fill-rule="evenodd" clip-rule="evenodd" fill="#A6847B" d="M225.377,277.782c0,0,1.67,7.541,4.262,4.96
	c1.102-1.099,2.021,1.673,2.311,2.675c0.063,1.028-3.119,4.96-3.979,5.283c-0.885,0.336-1.488,0.122-1.936,1.214
	c-0.449,1.084,0.226,1.807-0.578,3.302c-0.689,1.286-4.516,5.45-9.93,5.382c-2.334-0.03-3.484-0.367-3.627-2.557
	c-0.052-0.689,3.869-5.351,5.018-6.689c2.934-3.422,2.785-7.89,2.729-8.902c-0.048-1.016-0.128-4.136-0.128-4.136
	S220.99,277.095,225.377,277.782z"/>
<path fill-rule="evenodd" clip-rule="evenodd" fill="#E1C3B9" d="M227.992,283.48c1.037-0.186,2.275-2.164,3.002,0.438
	c0.063,1.028-2.007,4.902-3.764,5.6c-2.008,0.797-1.532,3.126-2.391,4.722c-1.428,2.736-5.799,6.257-11.664,5.224
	c-1.58-0.443-1.256-1.792-1.034-2.669c0.401-1.575,3.628-3.835,4.776-5.175C230.759,276.415,209.629,280.604,227.992,283.48z"/>
<path fill-rule="evenodd" clip-rule="evenodd" fill="#A84C3D" d="M225.377,277.782c1.696,1.139,4.392,2.974,5.314,6.041
	c0.063,1.028-2.602,5.104-3.461,5.427c-2.021,0.768-1.754,2.916-2.613,4.511c-1.428,2.738-5.576,6.466-11.441,5.435
	c-1.318-0.406-1.438-2.06-1.215-2.938c0.4-1.575,3.809-3.567,4.957-4.906c3.494-3.841,2.167-9.288,2.111-10.301
	c-0.046-1.016,0.49-2.737,0.49-2.737S220.99,277.095,225.377,277.782z"/>
<g>
	<path fill="#FFCC00" d="M220.002,292.519c0.083,0.07,0.088,0.213,0.011,0.314c-0.079,0.102-0.21,0.126-0.294,0.056
		c-0.716-0.603-1.394-0.93-2.039-1.02c-0.633-0.093-1.239,0.045-1.824,0.363c-0.107,0.059-0.228,0.018-0.269-0.092
		c-0.04-0.109,0.017-0.247,0.124-0.305c0.664-0.364,1.356-0.519,2.078-0.416C218.498,291.521,219.234,291.872,220.002,292.519z"/>
	<path fill="#FFCC00" d="M220.6,291.347c0.072,0.062,0.078,0.183,0.01,0.271c-0.065,0.089-0.181,0.111-0.253,0.05
		c-0.62-0.521-1.207-0.805-1.765-0.884c-0.548-0.077-1.072,0.04-1.577,0.316c-0.094,0.051-0.197,0.015-0.231-0.079
		c-0.035-0.096,0.013-0.214,0.106-0.266c0.575-0.314,1.173-0.447,1.798-0.358C219.301,290.484,219.938,290.787,220.6,291.347z"/>
	<path fill="#FFCC00" d="M221.176,290.136c0.072,0.063,0.077,0.183,0.01,0.272c-0.066,0.087-0.182,0.109-0.255,0.048
		c-0.618-0.521-1.204-0.803-1.763-0.883c-0.547-0.078-1.072,0.039-1.578,0.315c-0.094,0.052-0.197,0.016-0.231-0.079
		c-0.034-0.094,0.013-0.213,0.106-0.265c0.576-0.313,1.173-0.446,1.798-0.359C219.877,289.273,220.513,289.576,221.176,290.136z"/>
	<path fill="#FFCC00" d="M221.751,288.927c0.074,0.061,0.079,0.183,0.012,0.271c-0.067,0.089-0.183,0.11-0.255,0.05
		c-0.619-0.522-1.205-0.805-1.765-0.885c-0.546-0.078-1.071,0.039-1.575,0.315c-0.094,0.052-0.197,0.016-0.232-0.078
		c-0.036-0.095,0.014-0.214,0.105-0.264c0.575-0.315,1.172-0.448,1.797-0.359C220.451,288.063,221.088,288.367,221.751,288.927z"/>
	<path fill="#FFCC00" d="M222.328,287.716c0.072,0.061,0.078,0.183,0.01,0.271c-0.066,0.088-0.181,0.109-0.254,0.049
		c-0.617-0.522-1.206-0.805-1.764-0.883c-0.548-0.078-1.072,0.039-1.577,0.315c-0.094,0.05-0.197,0.014-0.231-0.08
		c-0.035-0.095,0.013-0.214,0.106-0.264c0.575-0.314,1.173-0.448,1.798-0.359C221.027,286.853,221.666,287.156,222.328,287.716z"/>
	<path fill="#FFCC00" d="M222.904,286.505c0.074,0.063,0.077,0.184,0.012,0.271c-0.068,0.088-0.184,0.111-0.256,0.049
		c-0.618-0.521-1.205-0.804-1.764-0.883c-0.547-0.078-1.072,0.039-1.578,0.315c-0.094,0.05-0.197,0.016-0.231-0.08
		c-0.034-0.094,0.013-0.212,0.106-0.264c0.576-0.314,1.173-0.447,1.798-0.358C221.605,285.642,222.241,285.946,222.904,286.505z"/>
	<path fill="#FFCC00" d="M223.481,285.295c0.072,0.062,0.077,0.183,0.01,0.271c-0.067,0.089-0.181,0.111-0.255,0.05
		c-0.619-0.521-1.205-0.805-1.764-0.883c-0.547-0.078-1.072,0.039-1.576,0.315c-0.094,0.051-0.197,0.015-0.232-0.079
		c-0.035-0.096,0.012-0.215,0.105-0.265c0.575-0.313,1.172-0.448,1.797-0.359C222.18,284.433,222.816,284.735,223.481,285.295z"/>
</g>
<path fill-rule="evenodd" clip-rule="evenodd" fill="#A84C3D" d="M179.581,281.787c1.051,1.701,2.712,4.429,2.222,7.585
	c-0.39,0.962-4.585,3.63-5.508,3.589c-2.174-0.092-2.865,1.969-4.338,3.086c-2.487,1.935-7.886,3.708-12.78,0.471
	c-1.028-0.886-0.418-2.439,0.166-3.152c1.049-1.277,5.016-1.758,6.643-2.529c4.852-2.13,6.006-7.613,6.395-8.557
	c0.398-0.943,1.635-2.302,1.635-2.302C174.012,279.978,175.882,279.441,179.581,281.787z"/>
<g>
	<path fill="#FFCC00" d="M168.289,293.107c0.046,0.098-0.01,0.229-0.125,0.291c-0.115,0.061-0.247,0.033-0.292-0.064
		c-0.39-0.829-0.867-1.392-1.415-1.728c-0.538-0.331-1.15-0.444-1.821-0.383c-0.123,0.011-0.214-0.073-0.204-0.189
		c0.011-0.114,0.12-0.219,0.245-0.229c0.763-0.07,1.46,0.06,2.074,0.436C167.354,291.609,167.872,292.219,168.289,293.107z"/>
	<path fill="#FFCC00" d="M169.343,292.275c0.04,0.084-0.008,0.196-0.108,0.25c-0.099,0.055-0.214,0.029-0.253-0.055
		c-0.337-0.718-0.75-1.205-1.224-1.496c-0.464-0.285-0.993-0.384-1.574-0.329c-0.107,0.009-0.186-0.064-0.176-0.164
		c0.008-0.101,0.104-0.189,0.21-0.198c0.661-0.062,1.263,0.051,1.794,0.376C168.533,290.979,168.981,291.505,169.343,292.275z"/>
	<path fill="#FFCC00" d="M170.393,291.396c0.041,0.085-0.008,0.197-0.107,0.252c-0.1,0.053-0.214,0.029-0.253-0.055
		c-0.339-0.719-0.75-1.205-1.225-1.497c-0.464-0.284-0.993-0.383-1.572-0.329c-0.108,0.009-0.188-0.063-0.178-0.163
		c0.01-0.1,0.105-0.188,0.212-0.198c0.659-0.061,1.263,0.05,1.792,0.377C169.583,290.102,170.032,290.628,170.393,291.396z"/>
	<path fill="#FFCC00" d="M171.443,290.521c0.04,0.084-0.008,0.196-0.108,0.251c-0.101,0.054-0.212,0.028-0.253-0.056
		c-0.337-0.718-0.75-1.205-1.224-1.495c-0.465-0.285-0.993-0.385-1.574-0.33c-0.107,0.01-0.186-0.063-0.176-0.163
		c0.008-0.1,0.104-0.19,0.21-0.199c0.661-0.062,1.263,0.051,1.792,0.378C170.633,289.225,171.082,289.752,171.443,290.521z"/>
	<path fill="#FFCC00" d="M172.493,289.643c0.041,0.086-0.008,0.198-0.108,0.251c-0.099,0.055-0.212,0.03-0.251-0.055
		c-0.337-0.717-0.75-1.205-1.226-1.495c-0.464-0.286-0.993-0.385-1.572-0.33c-0.108,0.01-0.188-0.063-0.178-0.164
		c0.008-0.1,0.105-0.188,0.212-0.198c0.66-0.061,1.263,0.052,1.792,0.377C171.684,288.349,172.131,288.873,172.493,289.643z"/>
	<path fill="#FFCC00" d="M173.543,288.766c0.04,0.084-0.01,0.197-0.108,0.252c-0.1,0.053-0.212,0.029-0.253-0.055
		c-0.337-0.72-0.75-1.205-1.223-1.497c-0.464-0.285-0.994-0.383-1.574-0.33c-0.107,0.01-0.186-0.063-0.178-0.162
		c0.01-0.101,0.105-0.189,0.212-0.199c0.66-0.061,1.263,0.051,1.792,0.377C172.733,287.47,173.182,287.997,173.543,288.766z"/>
	<path fill="#FFCC00" d="M174.593,287.889c0.042,0.085-0.008,0.197-0.108,0.252c-0.099,0.053-0.212,0.028-0.251-0.057
		c-0.339-0.717-0.75-1.204-1.226-1.495c-0.463-0.284-0.993-0.383-1.574-0.33c-0.107,0.01-0.186-0.063-0.176-0.162
		c0.01-0.1,0.105-0.189,0.212-0.2c0.66-0.061,1.263,0.052,1.792,0.378C173.784,286.594,174.233,287.12,174.593,287.889z"/>
</g>
<path fill-rule="evenodd" clip-rule="evenodd" fill="#2B3E78" d="M195.322,214.117c-1.704,4.957,1.62,7.766,0.317,12.819
	c-2.097,6.281-9.468,18.294-8.697,25.801c1.398,13.583-3.436,21.293-3.136,33.232c-3.742,2.793-15.16,0.63-13.284-3.872
	c1.194-14.374,0.225-31.253,0.64-35.818c0.054-0.583,0.479-4.208,0.429-6.253c-0.294-12.468,1.505-37.916,2.988-42.379
	c0,0,5.921,4.034,15.304,5.825C189.942,205.27,195.568,213.398,195.322,214.117z"/>
<path fill-rule="evenodd" clip-rule="evenodd" fill="#3A5299" d="M211.129,257.849c5.131,4.023,12.475,12.53,18.711,21.051
	c1.445,3.65-5.576,11.255-11.26,8.307c-2.952-3.88-15.165-14.304-21.017-19.754c-0.531-0.495-3.529-3.913-3.755-4.586
	c-4.175-13.243-8.642-17.894-10.183-40.682c-7.819-1.147-3.791-11.978-4.242-21.674c13.123,8.329,22.964,5.053,26.197,2.652
	c4.37,6.605,2.886,19.209,0.368,20.748c1.235,11.494,0.76,22.33,1.87,30.779C209.895,258.078,209.4,256.494,211.129,257.849z"/>
<path fill-rule="evenodd" clip-rule="evenodd" fill="#2B3E78" d="M197.563,255.947c0.071-5.946-0.584-11.893-2.827-17.839
	c4.98-1.031,8.895-2.69,11.859-5.923c1.485,7.555,3.926,17.44,1.072,19.385C203.971,254.023,201.363,255.42,197.563,255.947z"/>
<path fill-rule="evenodd" clip-rule="evenodd" fill="#3A5299" d="M196.088,238.338c5.273-1.732,8.257-3.318,10.853-5.65
	c0.669,1.522,1.342,3.043,2.013,4.564c-2.955,2.741-6.33,5.005-10.863,5.951C197.129,241.733,196.402,240.144,196.088,238.338z"/>
<path fill-rule="evenodd" clip-rule="evenodd" fill="#2B3E78" d="M186.768,208.901c-0.508,9.234,0.855,17.181,2.518,24.46
	c5.37,0.672,11.001-1.02,14.817-3.322c-0.432-3.704-0.72-6.121-1.434-10.104c-6.877-2.368-8.777-6.828-9.593-11.328
	C191.188,209.095,188.656,208.975,186.768,208.901z"/>
<path fill-rule="evenodd" clip-rule="evenodd" fill="#2B3E78" d="M205.982,238.485c-0.275-0.28-0.145-0.893,0.289-1.366
	c0.436-0.475,1.012-0.631,1.287-0.352c0.275,0.28,0.146,0.893-0.29,1.366C206.834,238.608,206.259,238.767,205.982,238.485z"/>
<path fill-rule="evenodd" clip-rule="evenodd" fill="#2B3E78" d="M198.43,242.269c-0.274-0.281-0.145-0.893,0.29-1.367
	c0.436-0.474,1.011-0.632,1.286-0.351c0.276,0.28,0.146,0.891-0.29,1.366C199.282,242.39,198.707,242.548,198.43,242.269z"/>
<path fill-rule="evenodd" clip-rule="evenodd" fill="#A6847B" d="M211.799,149.516c1.925,5.051-9.545,5.884-10.262,12.531
	c-1.733,16.081-35.332,13.133-16.093-18.298C186.903,141.363,203.242,141.584,211.799,149.516z"/>
<path fill-rule="evenodd" clip-rule="evenodd" fill="#A6847B" d="M183.441,148.023c6.454,4.053-2.102,15.072-7.718,18.356
	c-0.345,0.126-7.902,9.355-20.658,12.964c-7.661,1.833-8.598-9.314-3.745-13.514c4.902-4.465,11.97-11.708,13.616-13.833
	C172.9,143.971,177.53,142.588,183.441,148.023z"/>
<path fill-rule="evenodd" clip-rule="evenodd" fill="#B89A92" d="M144.568,177.749c-7.596-3.569-12.191-7.564-15.287-9.209
	c-1.077-3.854,2.595-9.911,4.631-8.872c2.271,0.732,10.141,4.366,17.407,6.162c5.288,2.435,5.873,9.372,4.518,11.841
	C154.968,178.69,153.593,182.488,144.568,177.749z"/>
<path fill-rule="evenodd" clip-rule="evenodd" fill="#DB9669" d="M194.763,171.579c0,4.648,3.197,12.17,8.312,9.205
	c3.752-2.174,7.867-11.445,6.17-15.401c-0.737-1.715-2.663-5.316-4.666-5.891C196.572,157.197,194.763,165.368,194.763,171.579z"/>
<path fill-rule="evenodd" clip-rule="evenodd" fill="#B89A92" d="M198.19,149.073c5.503,1.981,10.726,6.183,12.745,8.222
	c2.552,2.749,0.079,8.964,0.044,9.818c-1.189,18.856-0.909,33.06-0.428,51.025c-1.19,6.32-18.867,11.134-40.073,0.329
	c-0.567-13.684-4.682-50.535,1.786-68.468C175.261,141.69,185.984,146.252,198.19,149.073z"/>
<path fill-rule="evenodd" clip-rule="evenodd" fill="#E1C3B9" d="M202.437,158.641c6.399-6.651,14.431,1.911,17.978,6.116
	c1.445,1.715,8.626,9.953,11.626,20.449c1.5,6.298-8.681,7.338-12.38,3.287c-4.333-3.396-12.85-11.104-14.736-12.494
	C201.758,173.669,196.995,164.296,202.437,158.641z"/>
<path fill-rule="evenodd" clip-rule="evenodd" fill="#E1C3B9" d="M230.455,180.599c4.22,7.282,4.951,22.594,5.365,26.224
	c-1.443,2.06-9.482,3.331-9.99,1.188c-0.906-2.11-3.643-15.642-6.974-22.034c-0.085-1.825,3.103-5.306,5.952-5.951
	C226.188,179.983,225.292,171.979,230.455,180.599z"/>
<path fill-rule="evenodd" clip-rule="evenodd" fill="#A6847B" d="M234.033,206.756c0.252,0.795,0.27,1.661,0.293,2.518
	c-2.332-0.278-3.954-0.191-6.146,0.769c-0.207-0.819-0.699-1.518-0.908-2.336C228.684,205.539,231.129,205.514,234.033,206.756z"/>
<path fill-rule="evenodd" clip-rule="evenodd" fill="#A6847B" d="M129.859,167.158c-0.623-0.363-1.582-0.655-2.063-1.234
	c-0.102-3.072,1.263-5.149,4.313-6.219c0.602,0.414,1.204,0.828,1.808,1.241C134.005,163.539,133.058,165.961,129.859,167.158z"/>
<path fill-rule="evenodd" clip-rule="evenodd" fill="#DB9669" d="M131.212,160.772c-0.036-1.521-0.493-3.131-1.44-3.721
	c-2.113-0.957-8.047-3.942-8.381-4.097c-0.579-0.268-0.054-0.082-0.623-0.279c-0.791-0.273-1.168,0.44-0.744,1.704
	c-0.717,1.393-0.038,1.846,0.87,2.598c-0.701,0.611-0.584,1.266,1.517,2.773c-0.185,0.808-1.459,0.491-1.056,0.883
	c1.369,1.005,4.439,3.905,6.21,3.552c0.697,0.034,0.622-0.237,1.705,0.319C130.735,164.328,132.303,162.2,131.212,160.772z"/>
<path fill-rule="evenodd" clip-rule="evenodd" fill="#3C3C3B" d="M204.158,153.211c-4.407,0.127-13.856,14.112-15.173,19.292
	c-5.403,21.22,17.482,32.967,21.839,31.569c-0.046-1.359-0.199-5.328-0.199-5.747c-36.119-10.626-9.205-42.152,0.557-41.072
	C211.305,155.512,207.91,153.102,204.158,153.211z"/>
<path fill-rule="evenodd" clip-rule="evenodd" fill="#3C3C3B" d="M180.512,143.743c-11.327,12.042-5.167,24.712-11.549,40.944
	c0.074,0.917-0.54,3.86-0.444,5.251c0.044,0.631,0.854,0.66,0.854,0.53c5.896-7.312,10.555-44.439,10.541-43.453
	C180.035,145.272,183.014,141.084,180.512,143.743z"/>
<path fill-rule="evenodd" clip-rule="evenodd" fill="#3C3C3B" d="M174.127,168.306c4.977,2.86,10.477,4.428,16.601,4.452
	c-0.459,1.992-0.918,3.985-1.378,5.977c-5.889-0.072-11.157-1.43-15.668-4.34C173.83,172.364,173.978,170.335,174.127,168.306z"/>
<path fill-rule="evenodd" clip-rule="evenodd" fill="#221F1F" d="M125.575,158.632l-0.143,0.248
	C125.482,158.797,125.53,158.713,125.575,158.632z"/>
<path fill-rule="evenodd" clip-rule="evenodd" fill="#F2B387" d="M121.593,156.869l3.277,1.497c0.997,0.455,0.355,1.556-0.676,1.173
	l-3.327-1.234C119.836,157.923,120.596,156.413,121.593,156.869z"/>
<path fill-rule="evenodd" clip-rule="evenodd" fill="#F2B387" d="M121.859,159.386l3.017,0.454c0.916,0.137,0.679,1.17-0.247,1.099
	l-2.99-0.231C120.713,160.635,120.942,159.247,121.859,159.386z"/>
<path fill-rule="evenodd" clip-rule="evenodd" fill="#F2B387" d="M128.979,155.955c-0.665-0.706-2.666-2.216-3.483-2.755
	c-1.052-0.694-1.822-0.843-2.878-1.536c-0.49,0.863-0.28,1.724,1.786,2.81c2.745,2.014,1.89,4.627,4.815,4.548
	C130.568,158.986,131.257,158.38,128.979,155.955z"/>
<path fill-rule="evenodd" clip-rule="evenodd" fill="#706F6F" d="M204.414,152.197c-4.359-0.629-14.916,15.126-16.233,20.306
	c-5.402,21.22,14.84,32.046,22.651,31.798c-0.047-1.359-0.195-5.138-0.195-5.556c-36.609-10.72-9.876-43.257,0.469-42.065
	C211.227,154.937,208.165,152.739,204.414,152.197z"/>
<path fill-rule="evenodd" clip-rule="evenodd" fill="#706F6F" d="M179.708,143.743c-11.326,12.042-5.167,24.712-11.548,40.944
	c0.108,1.333,0.36,5.669,0.36,5.25c5.897-7.311,10.604-43.909,10.589-42.922C179.231,145.272,182.209,141.084,179.708,143.743z"/>
<path fill-rule="evenodd" clip-rule="evenodd" fill="#706F6F" d="M173.034,168.778c4.977,2.86,10.477,4.429,16.601,4.452
	c-0.459,1.993-0.917,3.985-1.376,5.978c-5.891-0.073-11.159-1.43-15.67-4.34C172.738,172.838,172.886,170.808,173.034,168.778z"/>
<path fill-rule="evenodd" clip-rule="evenodd" fill="#4C4C4C" d="M201.473,150.512c-6.345-3.226-14.089-4.694-23.107-4.563
	c0.174,4.87,0.128,9.658,1.727,15.038c0.497,0.58,0.626,1.158,1.799,1.183C186.71,157.429,193.391,153.62,201.473,150.512z"/>
<path fill-rule="evenodd" clip-rule="evenodd" fill="#E1C3B9" d="M181.198,161.603c0.224,3.216-5.736-7.82-4.781-11.971
	c1.806-7.835,3.886-7.942,3.547-4.956C179.453,149.178,179.737,159.296,181.198,161.603z"/>
<path fill-rule="evenodd" clip-rule="evenodd" fill="#E1C3B9" d="M181.199,162.499c2.845-0.075,8.934-10.791,25.973-8.401
	c5.418,0.759,9.006-3.804,4.369-4.816C195.25,145.724,178.903,162.559,181.199,162.499z"/>
<g>
	<path fill-rule="evenodd" clip-rule="evenodd" fill="#DB9669" d="M181.441,142.888c0,0-1.035,4.532-0.586,7.275
		c0.173,1.068,0.41,2.553,4.077,3.701c3.827,1.2,9.166-2.326,10.077-5.38c-0.439-1.716-0.683-4.354-0.498-10.847
		C194.917,135.34,181.441,142.888,181.441,142.888z"/>
	<path fill-rule="evenodd" clip-rule="evenodd" fill="#F2B387" d="M175.002,124.976c-0.028,1.78-0.727,3.436-1.197,5.149
		c-0.87,1.94,1.724,2.623-0.304,5.339c-0.354,2.003,0.049,5.223,0.567,7.197c0.242,1.461,0.367,3.59,2.719,5.145
		c3.541,2.449,7.519-0.797,11.236-1.879c3.688-1.066,2.265-5.432,3.52-8.255c2.256-5.093,2.296-12.146-3.615-14.623
		c-2.643-1.107-7.044-1.768-9.829-0.879C177.114,122.48,174.978,123.161,175.002,124.976z"/>
	<path fill-rule="evenodd" clip-rule="evenodd" fill="#87470F" d="M186.824,133.208c1,0.508,1.245,0.62,1.5,1.892
		c0.216,1.078-0.001,4.014-2.09,6.903c0.011,0.258,2.623-2.21,3.929-2.755c2.969-2.858,1.811,4.499,4.483,6.756
		c0.242,0.096,2.149-0.605,2.393-1.035c-3.921-5.505,4.419-15.813-0.276-21.415c-6.733,0.207-9.077,0.167-11.787,3.612
		C184.392,128.953,185.535,132.554,186.824,133.208z"/>
	<path fill-rule="evenodd" clip-rule="evenodd" fill="#87470F" d="M185.331,118.705c-9.693,1.279-13.438,7.044-11.114,10.046
		c1.04,1.343,4.599,0.085,10.623-0.884c2.131-2.781,5.065-3.662,11.924-4.313C195.17,118.287,187.857,118.372,185.331,118.705z"/>
	<path fill-rule="evenodd" clip-rule="evenodd" fill="#221F1F" d="M180.951,141.44l-0.101,0.252
		C180.887,141.608,180.921,141.523,180.951,141.44z"/>
	<path fill-rule="evenodd" clip-rule="evenodd" fill="#F2B387" d="M193.927,137.708c-0.842,1.837-2.214,3.036-3.058,2.682
		c-0.847-0.351-1.079-2.259-0.231-4.089c0.837-1.83,2.432-2.894,3.279-2.537C194.769,134.11,194.768,135.882,193.927,137.708z"/>
	<path fill-rule="evenodd" clip-rule="evenodd" fill="#87470F" d="M173.082,140.748c0.401-0.592,1.261-1.027,2.564-0.766
		c1.542,0.31,4.251,1.081,5.895,3.863c0.921,1.56-0.114,3.452,0.271,3.873l-0.615,0.269c-1.046-4.455-4.574-4.339-5.245-5.648
		c-0.489,0.784-1.969-0.019-1.405,2.614C173.9,143.992,172.336,141.849,173.082,140.748z"/>
	<path fill-rule="evenodd" clip-rule="evenodd" fill="#3A5299" d="M174.335,128.371c-1.864,1.112-5.324,3.806-6.778,5.308
		c4.444-1.258,7.735,1.447,10.159,2.51c2.84,1.245,7.098-3.231,9.905-4.542C179.361,131.948,175.805,130.045,174.335,128.371z"/>
	<path fill-rule="evenodd" clip-rule="evenodd" fill="#2B3E78" d="M173.902,129.272c4.009,3.378,16.68,3.087,24.249,0.353
		c1.312-10.031-6.081-12.203-13.067-11.861C177.334,118.141,171.621,123.452,173.902,129.272z"/>
</g>
<path fill-rule="evenodd" clip-rule="evenodd" fill="#F2B387" d="M120.679,152.678l3.508,1.601c1.066,0.486,0.38,1.666-0.722,1.256
	l-3.563-1.321C118.8,153.804,119.613,152.188,120.679,152.678z"/>
<path fill-rule="evenodd" clip-rule="evenodd" fill="#F2B387" d="M121.026,154.515l3.889,1.776c1.184,0.54,0.423,1.847-0.801,1.393
	l-3.95-1.465C118.942,155.766,119.841,153.973,121.026,154.515z"/>
<path fill-rule="evenodd" clip-rule="evenodd" fill="#F2B387" d="M235.188,220.129l0.816-3.468c0.25-1.054-1.096-1.263-1.426-0.229
	l-1.072,3.338C233.175,220.805,234.941,221.184,235.188,220.129z"/>
<path fill-rule="evenodd" clip-rule="evenodd" fill="#F2B387" d="M233.668,219.356l0.906-3.846c0.275-1.169-1.215-1.401-1.584-0.255
	l-1.188,3.702C231.435,220.105,233.394,220.527,233.668,219.356z"/>
<path fill-rule="evenodd" clip-rule="evenodd" fill="#F2B387" d="M231.83,218.398l0.762-3.24c0.232-0.984-1.023-1.182-1.333-0.215
	l-1.001,3.121C229.947,219.029,231.598,219.385,231.83,218.398z"/>
<path fill-rule="evenodd" clip-rule="evenodd" fill="#F2B387" d="M230.199,217.003l1.007-2.618c0.306-0.796-0.719-1.09-1.087-0.318
	l-1.191,2.496C228.561,217.334,229.894,217.802,230.199,217.003z"/>
<path fill-rule="evenodd" clip-rule="evenodd" fill="#F2B387" d="M236.418,210.66c0.671,0.648,1.283,1.566,1.776,2.342
	c0.636,1.002,0.738,1.712,1.373,2.715c-0.901,0.396-1.757,0.15-2.727-1.799c-0.423-0.594-0.803-1.056-1.245-1.271
	c-1.051-0.514-2.791-0.32-2.535-2.455C233.175,209.246,234.11,208.436,236.418,210.66z"/>
<path fill-rule="evenodd" clip-rule="evenodd" fill="#E1C3B9" d="M200.871,203.014c-5.747-0.578-12.925-1.614-18.955-4.054
	l-0.02,6.382c7.216,2.8,12.479,3.49,19.412,3.817L200.871,203.014z"/>
<path fill-rule="evenodd" clip-rule="evenodd" fill="#E1C3B9" d="M169.294,195.841c0.983,0.666,2.552,1.555,3.917,1.484
	c-0.71,2.105-1.313,3.566-1.477,5.633c-1.013,0.018-3.329-1.695-3.858-1.666C168.638,199.557,168.018,198.307,169.294,195.841z"/>
<path fill-rule="evenodd" clip-rule="evenodd" fill="#A6847B" d="M198.917,205.645c-0.516,0.025-0.903,0.613-0.863,1.309
	c0.038,0.696,0.487,1.24,1.003,1.214c0.515-0.025,0.901-0.611,0.864-1.307C199.881,206.164,199.432,205.619,198.917,205.645z"/>
<path fill-rule="evenodd" clip-rule="evenodd" fill="#A6847B" d="M184.209,202.791c-0.516,0.025-0.903,0.611-0.863,1.309
	c0.038,0.697,0.487,1.238,1.003,1.214c0.515-0.024,0.901-0.61,0.861-1.308C185.173,203.309,184.724,202.766,184.209,202.791z"/>
<path fill-rule="evenodd" clip-rule="evenodd" fill="#A6847B" d="M171.277,199.167c-0.256-0.028-0.581,0.503-0.72,1.186
	c-0.142,0.683-0.048,1.261,0.21,1.289c0.256,0.028,0.579-0.503,0.72-1.188C171.629,199.771,171.536,199.194,171.277,199.167z"/>
</svg>
