<?xml version="1.0" encoding="utf-8"?>
<!-- Generator: Adobe Illustrator 16.0.0, SVG Export Plug-In . SVG Version: 6.00 Build 0)  -->
<!DOCTYPE svg PUBLIC "-//W3C//DTD SVG 1.1//EN" "http://www.w3.org/Graphics/SVG/1.1/DTD/svg11.dtd">
<svg version="1.1" id="Capa_1" xmlns="http://www.w3.org/2000/svg" xmlns:xlink="http://www.w3.org/1999/xlink" x="0px" y="0px"
	 width="800px" height="800px" viewBox="0 0 800 800" enable-background="new 0 0 800 800" xml:space="preserve">
<g>
	<g>
		<g>
			<path fill="#FFB87F" d="M510.675,322.673c0,0,8.391-1.587,12.973-4.066c2.002-1.083,3.629-3.206,10.385-5.703
				c0.633-0.234,3.629-0.694,5.742-2.157c0.396-0.274,4.049-2.579,5.662-0.998c0.316,0.311,0.414,0.75,0.215,1.283
				c-0.568,1.518-2.621,2.348-6.293,3.943c-8.391,3.644-5.594,3.855-5.297,3.93c0.807,0.201,11.725-0.397,13.926-0.843
				s8.83-3.83,11.865-4.908c2.588-0.919,4.977,1.883-6.391,6.296c0,0,10.65-5.37,12.225-4.328c0.996,0.659,1.346,2.94-10.797,7.205
				c0,0,9.887-4.06,11.279-2.902c1.053,0.876-1.697,3.572-11.338,5.853c0,0,3.139-0.824,5.832-1.548
				c0.75-0.203,1.721-0.207,1.904,0.11c0.439,0.76-0.119,1.78-2.809,2.939c-1.695,0.731-5.652,1.766-7.904,2.069
				c-3.766,0.509-7.438,0.967-10.592,1.166c-3.154,0.198-8.213,0.595-10.652,0.694c-2.441,0.099-9.521-1.389-11.188-1.24
				c-1.668,0.149-5.297,1.884-5.297,1.884L510.675,322.673z"/>
			<path fill="#F39F6D" d="M528.335,327.763c-4.299-2.497-3.627-5.247-5.156-8.925c-4.658,2.344-12.504,3.835-12.504,3.835
				l3.451,8.678c0,0,3.629-1.735,5.297-1.884c1.666-0.149,8.746,1.339,11.188,1.24c1.623-0.066,4.4-0.263,7.008-0.446
				C535.622,329.586,530.12,328.801,528.335,327.763z"/>
			<path fill="#F39F6D" d="M559.335,316.556c0,0-5.057,1.896-6.076,2.369c-0.65,0.304-5.123,1.869-5.123,1.869
				s4.623-0.877,5.6-1.218C555.448,318.979,559.335,316.556,559.335,316.556z"/>
			<path fill="#F39F6D" d="M560.329,320.202c0,0-5.539,1.4-6.311,1.605s-4.451,1.153-4.451,1.153s3.705-0.128,4.756-0.438
				C555.372,322.213,560.329,320.202,560.329,320.202z"/>
			<path fill="#F39F6D" d="M559.985,323.817c0,0-5.549,1.201-5.92,1.277c-0.371,0.077-4.279,0.81-4.279,0.81
				s2.955-0.096,4.076-0.192C554.657,325.644,559.985,323.817,559.985,323.817z"/>
			<path fill="#F39F6D" d="M534.687,324.193c1.836-0.132,3.68,0.22,5.367,0.829c2.691,0.971,3.006,1.628,4.246,2.162
				c-0.916-0.394-1.143-0.289-7.615-2c-2.676-0.708-6.369,0.784-8.385,3.244c0.053-0.102,0.092-0.156,0.092-0.156
				S529.312,324.581,534.687,324.193z"/>
		</g>
		<path fill="#FFB87F" d="M418.618,498.922c0,0-15.336,75.648-11.37,112.885c0,0,12.692,21.26,15.468,25.227
			c0,0-7.402-1.432-9.65-4.076c-2.247-2.645-15.071-17.846-15.071-17.846s2.842-4.352,2.842-5.344c0-0.93-4.299-55.752-10.31-73.846
			c-1.654-4.977-1.534-10.248,0.268-15.189c0.471-1.291,1.057-2.686,1.779-4.186c5.156-10.686,5.818-21.15,5.818-21.15
			L418.618,498.922z"/>
		<path fill="#FFB87F" d="M396.144,500.684c0,0-46.272,107.598-50.239,121.699c0,0-5.289,19.166-13.089,16.084
			c-7.8-3.086,9.254-19.941,9.254-19.941s15.676-84.516,18.906-89.969c3.925-6.633,12.56-22.254,12.295-26.77
			C373.007,497.27,396.144,500.684,396.144,500.684z"/>
		<path fill="#F39F6D" d="M373.271,501.787c0.265,4.516-8.102,20.334-12.295,26.77c-3.484,5.344-18.906,89.969-18.906,89.969
			s-5.893,5.828-9.166,11.256c2.039-1.273,9.191-8.441,10.125-10.289c1.765-11.941,5.615-22.898,9.739-34.383
			c4.713-13.127,8.477-40.123,14.587-52.859c2.841-5.924,11.412-5.17,16.195-2.092c7.387-17.105,12.593-29.475,12.593-29.475
			S373.007,497.27,373.271,501.787z"/>
		<g>
			<path fill="#F39F6D" d="M390.794,520.732c0.471-1.291,1.057-2.686,1.779-4.186c0.486-1.008,0.92-2.008,1.33-3.004l0,0
				c3.934-9.557,4.488-18.146,4.488-18.146l20.227,3.525c0,0-2.232,13.523-4.605,25.668c-2.211,0.049-5.203,0.631-7.191,1.439
				c-5.107,2.076-9.12,7.18-8.594,16.271c0.986,17.059,1.973,71.621,9.431,84.26c-4.38-5.186-9.664-11.449-9.664-11.449
				s2.842-4.352,2.842-5.344c0-0.93-4.299-55.752-10.31-73.846C388.872,530.945,388.992,525.674,390.794,520.732z"/>
		</g>
		<path fill="#251818" d="M413.459,622.135c0,0,13.62,16.799,16.198,18.535c0,0,2.579,1.652-5.255,1.072
			c0,0-5.591-2.469-13.011-4.471c-0.559-0.15-1.006-0.506-1.194-0.967c-0.937-2.303-4.046-9.523-7.841-13.922v8.922h-2.512
			c0,0,0.199-8.043-1.851-9.805s-4.429-5.701-3.14-7.064s5.981-4.668,5.981-4.668s-1.321,4.709,1.604,8.469
			c2.613,3.359,8.629,9.816,13.7,12.039c0.692,0.305,1.481-0.238,1.218-0.852C416.782,628.09,415.645,625.762,413.459,622.135z"/>
		<path fill="#251818" d="M346.261,621.24c0,0-2.108,11.525-3.166,13.066c-0.931,1.357-8.253,11.309-13.65,13.357
			c-1.039,0.395-4.228,0.895-4.165-0.055c0.348-5.195,2.38-11.457,5.494-17.268c0,0,6.604-8.896,11.297-11.816
			c0,0-11.766,14.873-8.13,16.141C339.911,636.746,346.261,621.24,346.261,621.24z"/>
		<path fill="#FFB87F" d="M394.885,247.291c-3.438-0.411-6.643-1.23-10.035-2.375c-1.839-0.621-3.646-1.313-5.493-1.918
			c0.675,0.257-2.699-0.539-3.129-0.608c-0.733-0.117-1.432-0.305-2.093-0.545c-0.377,7.943-2.507,28.185-14.415,32.051
			c0,0,8.504,8.697,30.151,6.281c21.647-2.416,15.721-11.327,15.721-11.327S390.864,266.534,394.885,247.291z"/>
		<path fill="#F39F6D" d="M368.47,270.617c2.662-1.705,10.782-9.226,14.125-9.924c4.583-0.957,9.003-0.72,13.103,0.357
			c-1.461-3.171-2.102-7.593-0.813-13.76c-3.438-0.411-6.643-1.23-10.035-2.375c-1.839-0.621-3.646-1.313-5.493-1.918
			c0.675,0.257-2.699-0.539-3.129-0.608c-0.733-0.117-1.432-0.305-2.093-0.545c-0.279,5.888-1.527,18.525-6.999,26.25
			C367.414,268.027,366.59,271.822,368.47,270.617z"/>
		<g>
			<path fill="#FFB87F" d="M357.146,190.699c0,0-4.373,34.061,7.225,48.793c11.597,14.733,41.655,15.864,43.488,14.892
				c2.091-1.108,11.408-11.641,16.911-22.662c2.99-5.989,1.869-12.759-1.478-18.615c-1.331-2.327-2.075-4.918-3.272-7.279
				c-2.951-5.815,1.196-20.726-17.816-26.535C383.193,173.484,359.237,179.082,357.146,190.699z"/>
			<path fill="#F39F6D" d="M402.204,179.292c-19.011-5.809-42.967-0.211-45.058,11.406c0,0-0.933,12.307-0.527,22.867
				c2.243-2.056,8.333-9.343,12.519-16.939c1.471-2.668,3.515-9.181,3.515-9.181s7.621,5.899,10.882,6.842
				c12.369,3.577,22.237-0.901,25.819,0c2.158,0.543,7.77,5.784,10.528,6.692C421.246,188.699,412.261,182.365,402.204,179.292z"/>
			<path fill="#4F3D37" d="M356.576,211.108c0,0-19.963-14.1-32.51,1.584c-12.548,15.684,10.922,36.65,38.827,25.375
				C362.893,238.068,355.504,222.866,356.576,211.108z"/>
			<path fill="#37231C" d="M356.497,214.741c-3.789-0.06-7.965,0.118-10.835,1.562c-3.625,1.823-3.269,7.161-2.363,10.278
				c1.68,5.782,6.365,9.809,10.809,14.029c2.854-0.514,5.791-1.333,8.785-2.542C362.893,238.068,356.918,225.77,356.497,214.741z"/>
			<path fill="#FFB87F" d="M357.146,213.881c0,0-3.137-7.129-13.879-3.406c-10.742,3.723,0.951,22.1,16.636,15.604
				C359.903,226.079,359.047,218.792,357.146,213.881z"/>
			<path fill="#EF9261" d="M344.261,213.984c0,0,4.036-2.085,6.326-0.697c2.29,1.389,7.135,9.021,3.544,10.071
				c-3.211,0.939-6.31-0.116-5.445-3.587s0.433-4.257-0.428-3.672C346.452,217.327,342.84,215.901,344.261,213.984z"/>
			<path fill="#4F3D37" d="M359.903,172.454c0,0-36.598-11.089-21.769,35.064c0,0,7.033-2.4,18.409,4.028
				C356.543,211.545,386.234,182.804,359.903,172.454z"/>
			<path fill="#2C160F" d="M403.662,184.177c0,0,16.729-5.175,19.392,2.218s-3.727,14.457-3.727,14.457
				S416.845,184.177,403.662,184.177z"/>
			<path fill="#4F3D37" d="M419.321,203.841c0.178-1.853,15.68-13.644,9.62-23.943c-3.817-6.488-11.419-13.595-30.856-18.11
				c-34.094-7.922-42.671,11.512-42.671,11.512c4.542,1.083,5.154,0.977,21.029,14.363s27.599-1.056,32.352-3.168
				s15.274-3.75,11.915,6.336C418.417,197.716,417.923,200.977,419.321,203.841z"/>
			<path fill="#3D2E29" d="M363.991,205.289c0,0,5.41-6.482,9.162-7.654c3.751-1.173,17.394-1.856,17.607-0.391
				s-1.679,5.321-2.383,5.321s-11.079-2.149-13.542-1.611C372.373,201.491,365.445,205.707,363.991,205.289z"/>
			<path fill="#3D2E29" d="M418.948,199.344c0,0-1.103-3.056-4.313-3.552c-3.213-0.496-11.721,0.539-11.465,1.368
				c0.255,0.83,0.952,4.313,3.42,3.781c2.467-0.533,6.678-2.978,8.381-2.481C416.673,198.955,419.185,199.969,418.948,199.344z"/>
			<g>
				<g>
					<defs>
						<path id="SVGID_1_" d="M387.214,208.287c0,0-11.884-1.095-15.663,3.103c0,0,0.383,5.257,3.505,6.325
							c3.121,1.068,11.267,0.908,11.596,0.452c0.117-0.162,1.152-0.594,1.787-1.643c0.668-1.104,1.242-3.212,0.955-4.928
							C389.185,210.346,388.479,209.553,387.214,208.287z"/>
					</defs>
					<clipPath id="SVGID_2_">
						<use xlink:href="#SVGID_1_"  overflow="visible"/>
					</clipPath>
					<path clip-path="url(#SVGID_2_)" fill="#FFFFF6" d="M387.214,208.287c0,0-11.884-1.095-15.663,3.103
						c0,0,0.383,5.257,3.505,6.325c3.121,1.068,11.267,0.908,11.596,0.452c0.117-0.162,1.152-0.594,1.787-1.643
						c0.668-1.104,1.242-3.212,0.955-4.928C389.185,210.346,388.479,209.553,387.214,208.287z"/>
					
						<radialGradient id="SVGID_3_" cx="416.4141" cy="320.0537" r="6.379" gradientTransform="matrix(1.6621 0 0 1.3849 -311.7695 -222.8154)" gradientUnits="userSpaceOnUse">
						<stop  offset="0" style="stop-color:#71879A"/>
						<stop  offset="0.871" style="stop-color:#2A3A5E"/>
					</radialGradient>
					<ellipse clip-path="url(#SVGID_2_)" fill="url(#SVGID_3_)" cx="380.327" cy="213.566" rx="6.257" ry="5.214"/>
				</g>
				<path fill="#34241F" d="M368.575,209.692c0,0-1.03,3.874,3.379,3.874c0,0,3.046-3.681,10.221-3.454
					c7.173,0.228,7.263,1.825,7.263,1.825s0.386-3.559-4.197-5.019c-4.582-1.46-9.638,0.502-12.814,2.282
					C369.251,210.979,368.575,209.692,368.575,209.692z"/>
				<path fill="#34241F" d="M372.375,214.796c0,0-0.175,3.81,5.86,3.984c6.035,0.174,7.899-0.091,8.17-0.193
					c0.809-0.306,1.876-1.741,1.876-1.741s-1.112,0.74-2.003,0.776c-2.481,0.099-7.328,0.264-8.416,0.093
					C376.384,217.481,373.623,217.038,372.375,214.796z"/>
			</g>
			<g>
				<g>
					<defs>
						<path id="SVGID_4_" d="M407.593,207.596c0,0,9.529-2.006,13.174,1.123c0,0,0.401,4.39-1.996,5.563
							c-2.396,1.172-9.052,1.794-9.381,1.446c-0.117-0.123-1.02-0.385-1.678-1.195c-0.694-0.854-1.447-2.547-1.445-3.995
							C406.267,209.484,406.733,208.762,407.593,207.596z"/>
					</defs>
					<clipPath id="SVGID_5_">
						<use xlink:href="#SVGID_4_"  overflow="visible"/>
					</clipPath>
					<path clip-path="url(#SVGID_5_)" fill="#FFFFF6" d="M407.593,207.596c0,0,9.529-2.006,13.174,1.123c0,0,0.401,4.39-1.996,5.563
						c-2.396,1.172-9.052,1.794-9.381,1.446c-0.117-0.123-1.02-0.385-1.678-1.195c-0.694-0.854-1.447-2.547-1.445-3.995
						C406.267,209.484,406.733,208.762,407.593,207.596z"/>
					
						<radialGradient id="SVGID_6_" cx="675.7852" cy="303.6514" r="5.3347" gradientTransform="matrix(-1.6189 0.1839 0.2245 1.3722 1439.7783 -323.6982)" gradientUnits="userSpaceOnUse">
						<stop  offset="0" style="stop-color:#71879A"/>
						<stop  offset="0.871" style="stop-color:#2A3A5E"/>
					</radialGradient>
					<path clip-path="url(#SVGID_5_)" fill="url(#SVGID_6_)" d="M407.491,211.974c0.391,2.386,2.988,4.06,5.803,3.74
						c2.813-0.319,4.779-2.512,4.389-4.897c-0.391-2.386-2.988-4.06-5.803-3.741C409.065,207.396,407.102,209.588,407.491,211.974z"
						/>
				</g>
				<path fill="#34241F" d="M423.53,206.651c0,0,0.654,3.069-2.55,3.878c0,0-3.022-2.763-8.935-1.899
					c-5.912,0.864-5.77,2.195-5.77,2.195s-0.803-2.912,2.797-4.553c3.598-1.641,8.052-0.491,10.924,0.685
					C422.87,208.133,423.53,206.651,423.53,206.651z"/>
				<path fill="#34241F" d="M420.438,212.063c0,0,0.549,3.05-4.426,3.762c-4.977,0.712-6.084,0.283-6.323,0.224
					c-0.71-0.177-1.79-1.265-1.79-1.265s1.023,0.509,1.764,0.455c2.07-0.151,6.107-0.471,6.985-0.715
					C417.841,214.191,419.708,214.038,420.438,212.063z"/>
			</g>
			
				<radialGradient id="SVGID_7_" cx="441.3789" cy="307.625" r="3.8986" gradientTransform="matrix(1.6662 -0.0349 -0.0419 1.732 -303.6123 -293.8564)" gradientUnits="userSpaceOnUse">
				<stop  offset="0" style="stop-color:#FFAB87"/>
				<stop  offset="0.5034" style="stop-color:#FFAE85"/>
				<stop  offset="0.8953" style="stop-color:#FFB87F"/>
				<stop  offset="0.8984" style="stop-color:#FFB87F"/>
			</radialGradient>
			<path fill="url(#SVGID_7_)" d="M426.592,222.594c0.21,2.883-3.045,5.648-7.269,6.177c-4.225,0.529-7.818-1.379-8.029-4.262
				c-0.209-2.883,3.046-5.648,7.27-6.177C422.788,217.803,426.382,219.711,426.592,222.594z"/>
			
				<radialGradient id="SVGID_8_" cx="425.5342" cy="291.79" r="4.8181" gradientTransform="matrix(1.7837 0.2474 -0.2334 1.7366 -312.5107 -385.0225)" gradientUnits="userSpaceOnUse">
				<stop  offset="0" style="stop-color:#FFAB87"/>
				<stop  offset="0.5034" style="stop-color:#FFAE85"/>
				<stop  offset="0.8953" style="stop-color:#FFB87F"/>
				<stop  offset="0.8984" style="stop-color:#FFB87F"/>
			</radialGradient>
			<path fill="url(#SVGID_8_)" d="M388.667,227.362c-0.111,3.63-4.781,6.39-10.429,6.163c-5.648-0.228-10.137-3.355-10.026-6.986
				c0.112-3.631,4.781-6.391,10.428-6.163C384.289,220.603,388.778,223.731,388.667,227.362z"/>
			<path fill="#E78B57" d="M399.747,210.826c-0.465,0,1.725,5.675,3.025,8.209c2.25,4.385,4.587,6.484,1.195,7.522
				c-2.889,0.884-6.045,1.53-6.723,1.973c0.459,0.122,1.016,0.208,1.691,0.245c5.457,0.303,11.858-0.604,8.373-5.998
				C404.847,218.968,401.218,214.75,399.747,210.826z"/>
			<path fill="#FFFFF6" d="M390.555,234.836c0,0,4.753,8.711,13.118,7.918c8.365-0.792,6.852-6.917,6.852-6.917
				S394.229,235.998,390.555,234.836z"/>
			<path fill="#D00000" d="M390.237,234.836c0,0,4.174,9.245,12.801,9.397c3.687,0.065,6.211-1.109,9.928-8.924l-3.843,1.003
				c0,0-0.892,4.818-6.216,4.502c-5.322-0.317-7.537-2.548-9.453-5.03C393.454,235.784,391.853,236.103,390.237,234.836z"/>
			<path fill="#D00000" d="M414.304,233.329c0,0-0.707,4.515-10.694,4.515c-9.031,0-12.168-0.198-15.4-3.589
				c0,0,5.895,1.586,8.429,1.056c2.535-0.531,4.215-3.117,6.845-0.847c0,0,1.869-2.138,5.075-0.369
				C411.792,235.879,414.304,233.329,414.304,233.329z"/>
			<ellipse fill="#FFFFFF" cx="355.007" cy="228.496" rx="3.185" ry="2.653"/>
		</g>
		<path fill="#5A91AB" d="M411.741,270.673l-9.85-3.206c-1.84,3.098-5.626,5.297-10.004,5.456c2.895-0.105,0.303-0.018-0.479,0.102
			c-1.337,0.209-2.678,0.402-4.021,0.581c-1.578,0.103-3.197,0.124-4.778,0.075c-2.113-0.064-4.777-0.045-6.846-0.648
			c-2.944-0.856-5.083-1.933-7.459-3.56c-0.659-0.451-1.218-0.966-1.695-1.521c-3.04-0.382-7.937,6.587-7.937,6.587
			c15.833,7.301,24.705,87.613,24.705,87.613l28.343,2.577C418.834,296.711,411.741,270.673,411.741,270.673z"/>
		<path fill="#FFFFF6" d="M367.972,267.899c0,0,7.017,6.398,21.513,5.351c0,0,4.232,15.026-16.061,11.967
			C353.13,282.158,360.085,270.199,367.972,267.899z"/>
		<path fill="#FFFFF6" d="M401.27,267.173c0,0-1.927,4.306-11.784,6.077c0,0,6.584,17.751,24.244,2.041l2.332-2.605
			C416.062,272.687,405.323,268.585,401.27,267.173z"/>
		<path fill="#523F3D" d="M431.813,399.301c-2.254-7.596-4.908-13.93-7.392-19.25c-4.083-1.534-6.794-4.96-7.284-8.923
			c-0.006-0.033-0.008-0.056-0.013-0.087c-0.136-0.461-0.278-0.923-0.448-1.377c-0.363-0.922-0.764-1.832-1.211-2.728
			c-0.22-0.331-1.146-1.92-1.307-2.162c-0.469-0.704-0.945-1.403-1.434-2.098c-0.441-0.63-0.795-1.285-1.072-1.954l-36.151-1.148
			c0,0-37.043,25.125-40.909,45.738c-3.865,20.615,28.444,89.811,24.079,103.66c0,0-2.069,9.301-5.313,10.334
			c0.001,0.025-0.001,0.049,0,0.076c2.897-0.42,22.334-2.998,42.502,0.059c18.288,2.773,33.379-3.459,33.379-3.459
			s-4.996-3.91-4.857-11.398c0.129-6.957,2.865-18.102,7.43-35.922C443.089,424.639,437.804,419.486,431.813,399.301z"/>
		<path opacity="0.37" fill="#36302E" d="M424.422,380.051c-4.083-1.534-6.794-4.96-7.284-8.923
			c-0.006-0.033-0.008-0.056-0.013-0.087c-0.136-0.461-0.278-0.923-0.448-1.377c-0.363-0.922-0.764-1.832-1.211-2.728
			c-0.22-0.331-1.146-1.92-1.307-2.162c-0.469-0.704-0.947-1.403-1.434-2.098c-0.441-0.63-0.795-1.285-1.072-1.954l-36.151-1.148
			c0,0-5.297,3.598-12.091,9.181c0.001-0.003,0.002-0.006,0.004-0.009c-0.312,0.255-0.635,0.53-0.953,0.794
			c-0.09,0.075-0.18,0.15-0.271,0.226c-1.325,1.106-2.69,2.278-4.082,3.511c-0.031,0.027-0.063,0.055-0.093,0.083
			c-3.816,3.385-7.763,7.194-11.333,11.215c-0.035,0.039-0.07,0.078-0.105,0.117c-1.291,1.459-2.524,2.942-3.686,4.444
			c-0.08,0.105-0.161,0.209-0.242,0.314c-4.025,5.262-7.09,10.703-8.058,15.863c-3.865,20.615,28.444,89.811,24.079,103.66
			c0,0-2.069,9.301-5.313,10.334c0.001,0.025-0.001,0.049,0,0.076c1.91-0.281,11.421-1.57,23.557-1.402
			c0.073-9.131-0.286-18.635-1.95-27.51c-2.991-15.947-7.861-25.596-12.523-41.197c-4.898-16.391-8.574-29.422-5.464-46.119
			c0.456-2.449,0.825-4.9,1.158-7.353c4.448,0.465,12.59,1.031,16.779,0.063c5.187-1.199,16.54-11.754,23.219-12.981
			c2.385-0.438,5.238,8.109,13.111,11.94c4.726,2.3,13.016,2.298,19.283,0.433C428.587,389.427,426.448,384.394,424.422,380.051z"/>
		<path fill="#201D1D" d="M382.591,355.737c0.521,4.01-2.922,9.377-2.922,9.377l32.926,1.016c0.324-3.094-0.266-7.472,0-10.393
			H382.591z"/>
		<path fill="#226E76" d="M368.502,265.907c0,0-40.875,8.449-40.875,9.026c0,0,14.646,22.953,15.348,38.881
			c0,0,16.35,8.156,26.729,38.238c1.739,5.037-0.208,10.458-4.891,13.957c-8.608,6.431-22.014,16.227-25.12,17.24
			c0,0,20.582,16.39,38.22,4.252c14.515-9.989,14.704-27.908,15.11-38.383c0.234-6.065-0.604-21.844-4.708-41.819
			C385.329,292.771,379.008,274.464,368.502,265.907z"/>
		<path opacity="0.35" fill="#514A4E" d="M351.823,309.947c-2.357-3.616-11.14-13.817-14.569-17.083
			c2.94,7.02,5.446,14.696,5.722,20.95c0,0,16.35,8.156,26.729,38.238c1.739,5.037-0.208,10.458-4.891,13.957
			c-8.608,6.431-22.014,16.227-25.12,17.24c0,0,20.582,16.39,38.22,4.252c12.554-8.64,14.389-23.204,14.919-33.761
			C377.249,350.836,367.02,333.262,351.823,309.947z"/>
		<path fill="#226E76" d="M399.702,266.116c0,0,17.904,2.526,31.779,4.693c5.551,0.867,8.017,4.421,9.773,7.81
			c7.956,15.349,19.736,56.029,22.816,56.029c3.785,0,54.908-15.127,54.908-15.127l5.035,11.15c0,0-55.533,24.594-64.669,24.593
			c-13.384-0.001-20.388-21.563-26.053-32.694c0,0-12.196,12.815-13.95,17.818c-2.266,6.459-4.686,14.38-4.917,19.3
			c-0.236,5.042,11.292,20.645,16.734,26.464c0,0-7.351,7.266-16.272,4.731c-8.922-2.535-7.994-48.155-8.555-71.303
			C405.774,296.43,409.198,281.35,399.702,266.116z"/>
		<path opacity="0.35" fill="#514A4E" d="M417.554,345.75c-0.347,0.377-4.859,7.396-10.537,8.16
			c0.709,18.396,2.514,35.45,7.871,36.971c8.922,2.535,16.272-4.731,16.272-4.731c-5.442-5.82-16.971-21.422-16.734-26.464
			C414.595,356.071,415.95,350.835,417.554,345.75z"/>
		<path opacity="0.35" fill="#514A4E" d="M466.835,349.639c-11.541-2.248-18.681-9.135-21.584-18.561
			c-3.659-11.875-5.658-23.709-11.021-35.156c0,0,1.869,7.974,3.604,14.038c2.074,7.26-4.54,12.608-4.54,12.608
			c5.649,11.151,12.733,32.863,26.053,32.694c5.369-0.067,13.772-4.493,24.101-7.634
			C477.568,348.52,472.918,350.823,466.835,349.639z"/>
		<path fill="#A69A8E" d="M359.427,372.983c0,0,9.542-5.191,6.995-15.201C366.422,357.783,354.304,356.992,359.427,372.983z"/>
		<g>
			<path fill="#FFB87F" d="M355.592,355.872c0,0,0.779,4.945,6.719,4.052c0.047-0.007,0.093-0.019,0.14-0.025
				c0.599-0.799,2.508,1.052,3.842,0.117c1.335-0.936,1.796-4.316,3.997-4.703c0.04,1.512,0.016,2.357-0.177,2.851
				c2.685-1.089,4.93-2.697,6.071-2.135c2.051,1.01,11.108,8.735,17.51,10.773c0.495,0.159,0.811,0.575,0.586,0.976
				c-0.635,1.132-2.536,2.639-8.131-0.227c-7.92-4.058-9.478-7.032-9.803-5.519c-0.3,1.399,9.842,7.267,14.001,8.899
				c0.522,0.204,0.665,1.161,0.278,1.518c-0.973,0.9-3.297,1.844-8.242-1.273c-7.206-4.544-8.817-6.218-9.531-6.056
				c-0.651,0.147,9.856,6.683,13.283,8.651c0.472,0.271,0.396,1.063-0.052,1.361c-0.961,0.639-2.946,1.186-6.427-0.927
				c-5.282-3.208-9.088-6.545-9.478-6.383c-0.39,0.162,8.331,6.302,10.083,7.6c1.325,0.98-2.796,3.016-6.951-0.284
				c-4.155-3.299-5.091-5.123-7.234-5.068c-2.142,0.054-6.156,3.648-15.829-4.25C350.249,365.82,348.16,356.98,355.592,355.872z"/>
			<path fill="#F39F6D" d="M359.7,359.914c0.738,0.135,1.594,0.163,2.612,0.01c0.047-0.007,0.093-0.019,0.14-0.025
				c0.598-0.799,2.907,0.163,4.241-0.772c1.335-0.935,1.397-3.427,3.597-3.813c0.119,2.064-0.177,2.851-0.177,2.851
				c2.218-0.899,4.071-2.113,5.354-2.221c-2.697,3.466,1.361,4.372,4.363,6.428c1.83,1.253,5.184,3.638,7.233,4.555
				c2.016,0.901,3.708,1.966,6.099,1.915c-1.16,0.585-3.248,0.638-7.012-1.29c-6.484-3.321-8.702-5.913-9.472-5.915
				c-0.748-0.591-1.858-0.932-2.836,0.937c-1.073,2.052,6.367,6.408,11.296,9.047c1.765,0.946,3.213,1.603,4.616,1.39
				c-1.273,0.555-3.529,0.586-7.369-1.834c-5.564-3.509-7.788-5.301-8.843-5.863c-1.461-0.549-1.822-0.622-2.329,0.283
				c-0.627,1.118,1.026,2.556,3.668,4.375c2.053,1.414,4.651,3.58,6.923,4.632c1.448,0.671,2.401,1.001,4.088,0.637
				c-1.02,0.583-2.958,0.954-6.234-1.035c-1.054-0.64-2.047-1.285-2.969-1.907c-1.676-1.246-3.461-2.497-4.694-3.346
				c-0.696-0.508-1.215-0.875-1.522-1.039l-0.004-0.003l-0.006-0.001c-0.139-0.073-0.237-0.106-0.283-0.087
				c-0.021,0.009-0.003,0.042,0.026,0.083c-0.253,0.045-0.672,0.24-1.2,0.957c-0.537,0.729,2.667,4.149,6.005,6.221
				c1.653,1.026,3.112,1.861,4.642,1.581c-1.277,0.512-3.799,0.493-6.341-1.526c-4.155-3.299-5.091-5.123-7.234-5.068
				c-1.39,0.035-3.95,1.887-8.948-0.004C355.271,364.32,359.675,360.038,359.7,359.914z"/>
			<path opacity="0.24" fill="#CB6D21" d="M364.357,359.561c-0.842-0.023-1.6-0.072-1.906,0.337
				c-0.047,0.007-0.093,0.019-0.14,0.025c-1.018,0.153-1.874,0.125-2.612-0.01c-0.024,0.125-4.429,4.406-2.571,10.152
				c2.727,1.032,4.722,0.947,6.203,0.654C360.91,367.241,361.206,362.461,364.357,359.561z"/>
			<path fill="#FFDDC4" d="M390.587,366.584c-0.727,1.19,2.422,2.246,2.555,2.208c0,0,1.213-0.351,1.213-1.387
				c-0.695-0.362-1.32-0.609-1.971-0.863C391.859,366.338,390.81,366.219,390.587,366.584z"/>
			<path fill="#FFDDC4" d="M386.911,370.934c-0.727,1.19,2.532,2.086,2.663,2.048c0,0,1.638-0.281,1.18-1.608
				c-0.695-0.363-1.648-0.636-2.356-0.748C387.685,370.516,387.134,370.568,386.911,370.934z"/>
			<path fill="#FFDDC4" d="M382.92,373.571c-0.494,0.899,2.353,1.945,2.467,1.91c0,0,1.219-0.105,1.049-1.274
				c-0.608-0.343-1.601-0.813-2.219-0.919C383.594,373.181,383.11,373.228,382.92,373.571z"/>
			<path fill="#FFDDC4" d="M377.532,374.892c-0.549,0.685,1.626,1.859,1.726,1.843c0,0,1.208,0.056,1.253-0.924
				c-0.445-0.349-1.399-0.967-1.891-1.123C378.125,374.532,377.743,374.63,377.532,374.892z"/>
		</g>
		<path fill="#226E76" d="M328.399,274.931c3.812,5.914,13.14,25.377,15.594,38.902c0,0-24.556,25.967-22.551,29.625
			c0.338,0.616,38.757,12.882,44.98,14.325c0,0-9.394,2.478-6.995,15.201c0,0-32.195-7.084-58.083-13.409
			c-6.489-1.585-8.924-6.658-6.744-12.279c6.638-17.112,13.356-31.197,22.294-54.431
			C321.556,280.75,327.551,273.615,328.399,274.931z"/>
		<path opacity="0.35" fill="#514A4E" d="M338.262,295.252c-1.611,17.924-10.479,30.968-15.529,40.422
			c-0.918,1.718-1.507,3.543-1.718,5.416c-0.113,1.007-0.118,1.892,0.316,1.968c0.087-2.754,4.395-8.119,6.949-11.315
			c6.662-8.339,15.712-17.911,15.712-17.911C343.008,308.4,340.798,301.706,338.262,295.252z"/>
		<ellipse fill="#FFFFFF" cx="382.916" cy="212.062" rx="1.005" ry="0.759"/>
		<ellipse fill="#FFFFFF" cx="414.113" cy="210.382" rx="0.929" ry="0.701"/>
	</g>
	<g>
		<g>
			<path fill="#6B9E55" d="M543.179,296.027c-0.225-3.652-2.32-7.199-5.658-9.574c0.73,1.46-0.07,3.145,0.244,4.704
				c0.229,1.129,1.041,2.129,2.043,2.912C540.81,294.851,541.999,295.442,543.179,296.027z"/>
			<path opacity="0.35" fill="#6B9E55" d="M539.71,292.51c-1.193-1.458-1.199-3.648-1.92-5.311
				c-0.096-0.226-0.133-0.457-0.191-0.686c-0.027-0.019-0.051-0.042-0.078-0.061c0.73,1.46-0.07,3.145,0.244,4.704
				c0.229,1.129,1.041,2.129,2.043,2.912c1.002,0.782,2.191,1.374,3.371,1.958c-0.016-0.248-0.059-0.492-0.092-0.739
				C542.229,294.56,541.319,294.477,539.71,292.51z"/>
			<g>
				<path fill="#6B9E55" d="M551.181,288.409c1.357,0.342,2.438,1.187,3.441,2.02c1.008,0.833,2.037,1.706,3.361,2.131
					c1.324,0.425,3.035,0.265,3.861-0.696c-0.471,1.171-2.09,1.768-3.574,1.792c-1.479,0.025-2.92-0.375-4.389-0.542
					c-4.035-0.46-8.307,0.983-10.818,3.654c0.043-2.086,0.357-4.255,1.715-6.008C546.138,289.008,548.786,287.805,551.181,288.409z"
					/>
				<path opacity="0.35" fill="#6B9E55" d="M557.983,292.56c-0.559-0.179-1.057-0.447-1.527-0.749
					c-1.125-0.105-2.238-0.366-3.367-0.495c-4.008-0.457-8.344,0.689-10.01,5.024c-0.006,0.143-0.014,0.286-0.016,0.428
					c2.512-2.672,6.783-4.114,10.818-3.654c1.469,0.167,2.91,0.567,4.389,0.542c1.484-0.025,3.104-0.622,3.574-1.792
					C561.019,292.825,559.308,292.985,557.983,292.56z"/>
				<path fill="#8EB569" d="M548.7,293.141c0.625-0.8,0.916-1.744,1.346-2.629c-0.889,1.623-2.365,3.018-4.188,3.953
					c0.119,0.013,0.236,0.014,0.354,0.01c0.623-0.312,1.279-0.576,1.961-0.791C548.37,293.517,548.55,293.333,548.7,293.141z"/>
				<path fill="#8EB569" d="M549.569,293.321c0.389-0.079,0.781-0.145,1.176-0.191c0.182-0.086,0.355-0.183,0.508-0.301
					c0.504-0.391,0.813-0.947,0.848-1.518C551.429,292.112,550.558,292.794,549.569,293.321z"/>
				<path fill="#8EB569" d="M553.562,293.088c0.711-0.2,1.318-0.692,1.471-1.31c-0.744,0.471-1.533,0.888-2.352,1.26
					C552.974,293.045,553.267,293.062,553.562,293.088z"/>
			</g>
		</g>
		<path fill="#6B9E55" d="M541.884,315.49c0.293-7.04,0.984-14.066,2-21.059c-3.246,6.914-3.404,14.526-3.52,21.95
			c0.004,0.405,0.762,0.523,1.113,0.243C541.829,316.344,541.866,315.895,541.884,315.49z"/>
		<path opacity="0.35" fill="#6B9E55" d="M542.321,308.466c0.367-4.689,0.885-9.37,1.563-14.035
			c-2.074,4.416-2.883,9.117-3.23,13.871C541.222,308.299,541.776,308.361,542.321,308.466z"/>
		<path fill="#6B9E55" d="M560.94,296.422c-1.5,1.37-2.441,3.092-3.344,4.789c-0.902,1.696-1.814,3.425-3.273,4.827
			s-3.58,2.452-5.803,2.343c-2.912-0.142-5.344-2.18-8.26-2.24c0.533-2.396,1.699-4.742,3.701-6.518
			c2.004-1.776,4.908-2.921,7.824-2.737c1.512,0.095,2.975,0.533,4.488,0.6C557.915,297.558,559.577,297.179,560.94,296.422z"/>
		<path opacity="0.35" fill="#6B9E55" d="M542.802,305.556c-0.842,0.016-1.592-0.093-2.293-0.253
			c-0.082,0.28-0.186,0.557-0.248,0.838c2.916,0.059,5.348,2.098,8.26,2.24c2.223,0.108,4.344-0.941,5.803-2.343
			s2.371-3.131,3.273-4.827c0.338-0.632,0.689-1.262,1.064-1.882C553.843,302.313,549.241,305.433,542.802,305.556z"/>
		<path fill="#8EB569" d="M540.706,305.888c2.672-1.495,5.826-2.244,8.842-3.181c3.018-0.937,6.063-2.158,8.016-4.289
			c-0.604,1.362-1.908,2.445-3.389,3.211c-1.48,0.767-3.141,1.252-4.785,1.73C546.493,304.203,543.601,305.046,540.706,305.888z"/>
		<path fill="#8EB569" d="M547.228,302.276c0.918-1.038,1.85-2.098,2.348-3.318c-1.965,1.971-3.928,3.942-5.893,5.914
			C545.22,304.491,546.276,303.352,547.228,302.276z"/>
		<path fill="#8EB569" d="M551.677,301.576c0.551-0.844,1.111-1.717,1.223-2.672c-0.805,1.574-2.035,2.995-3.572,4.131
			c0.514,0.107,1.063-0.083,1.451-0.38C551.165,302.356,551.425,301.962,551.677,301.576z"/>
		<path fill="#8EB569" d="M546.224,304.51c-0.504-0.163-1.105-0.354-1.545-0.092c1.469,0.513,2.967,1.032,4.553,1.147
			c1.584,0.114,3.301-0.24,4.355-1.232C551.292,305.205,548.575,305.271,546.224,304.51z"/>
		<path fill="#8EB569" d="M555.819,302.649c-2.018,0.332-4.102,0.398-6.145,0.193c0.324,0.358,0.844,0.555,1.363,0.671
			C552.675,303.877,554.513,303.546,555.819,302.649z"/>
		<path fill="#6B9E55" d="M541.286,300.457c-0.963-1.75-2.613-3.231-4.635-4.166c-2.012-0.929-4.328-1.308-6.621-1.463
			s-4.602-0.1-6.896-0.228c1.574,1.347,2.195,3.275,2.506,5.137c0.311,1.863,0.383,3.775,1.121,5.553
			c0.736,1.777,2.322,3.458,4.527,3.858c1.691,0.308,3.439-0.178,5.029-0.752c1.232-0.446,2.447-0.957,3.471-1.679
			c1.025-0.724,1.854-1.681,2.139-2.775C542.228,302.773,541.888,301.543,541.286,300.457z"/>
		<path opacity="0.35" fill="#6B9E55" d="M539.993,304.25c-3.297,1.741-8.34,1.029-10.32-1.937
			c-0.826-1.236-1.383-2.518-2.014-3.812c0.006,0.055-0.197-0.216-0.633-0.845c-0.414-0.53-0.814-1.067-1.205-1.611
			c-0.318-0.468-0.596-0.924-0.859-1.375c-0.611-0.016-1.219-0.036-1.828-0.069c1.574,1.347,2.195,3.275,2.506,5.137
			c0.311,1.863,0.383,3.775,1.121,5.553c0.736,1.777,2.322,3.458,4.527,3.858c1.691,0.308,3.439-0.178,5.029-0.752
			c1.232-0.446,2.447-0.957,3.471-1.679c1.025-0.724,1.854-1.681,2.139-2.775c0.107-0.418,0.109-0.844,0.07-1.269
			C541.476,303.272,540.819,303.814,539.993,304.25z"/>
		<path fill="#8EB569" d="M540.878,305.651c-2.471-0.334-4.701-1.471-6.527-2.892c-1.828-1.421-3.303-3.124-4.764-4.815
			c2.561,0.979,3.824,3.366,5.865,4.983C536.989,304.145,538.952,304.908,540.878,305.651z"/>
		<path fill="#8EB569" d="M538.437,305.029c-0.512-1.657-1.025-3.315-1.539-4.973c-0.029,1.414,0.215,2.832,0.715,4.183
			C537.743,304.596,537.991,305.012,538.437,305.029z"/>
		<path fill="#8EB569" d="M534.603,302.582c-0.424-1.407-0.85-2.813-1.275-4.219c-0.039,0.75-0.078,1.507,0.082,2.246
			C533.563,301.347,533.938,302.077,534.603,302.582z"/>
		<path fill="#8EB569" d="M532.63,302.507c-1.6,0.003-3.477-0.629-4.828-1.343c1.857,1.519,4.549,2.3,7.139,2.071
			c-0.035-0.438-0.234-0.527-0.74-0.649C533.694,302.464,533.157,302.506,532.63,302.507z"/>
		<path fill="#8EB569" d="M529.722,303.786c0.969,1.06,2.418,1.806,3.986,2.054c1.57,0.248,3.605-0.118,4.971-0.81
			c-0.293-0.14-0.898-0.238-1.053-0.487c-1.199,0.571-2.668,0.638-4.023,0.42C532.249,304.744,530.979,304.263,529.722,303.786z"/>
	</g>
	<g opacity="0.45">
		<path fill="#E39F6D" d="M529.306,323.868c3.275,2.671,9.164,0.41,13.029,2.021c3.256,1.357,10.199-2.677,12.611-4.278
			c2.102-1.393-14.285-4.953-16.992-4.568c-3.387,0.48-6.543,2.047-9.879,2.812C523.075,320.998,527.866,322.693,529.306,323.868z"
			/>
	</g>
	<g>
		<path fill="#A86425" d="M529.425,321.79c1.662,2.489,2.773,0.874,4.053,0.974c1.215,0.094,1.453,0.262,2.277,0.819
			c1.078,0.729,2.035,0.113,3.191-0.16c1.734-0.408,2.955,0.551,4.531,0.836c1.508,0.272,1.875-0.719,3.078-1.127
			c1.27-0.431,2.504,0.113,3.719-0.144c0.752-0.159,0.316-0.425,0.498-0.926c0.244-0.673,5.271,0.029,3.609-1.27
			c-1.682-1.21-4.15-2.772-6.051-3.726c-2.525-1.266-5.398-2.153-8.346-2.139c-2.73,0.012-5.408,0.804-7.703,2.036
			c-1.734,0.929-5.012,2.12-6.051,3.916C525.452,322.439,529.194,321.445,529.425,321.79z"/>
	</g>
</g>
</svg>
