<?xml version="1.0" encoding="utf-8"?>
<!-- Generator: Adobe Illustrator 16.0.0, SVG Export Plug-In . SVG Version: 6.00 Build 0)  -->
<!DOCTYPE svg PUBLIC "-//W3C//DTD SVG 1.1//EN" "http://www.w3.org/Graphics/SVG/1.1/DTD/svg11.dtd">
<svg version="1.1" id="Capa_1" xmlns="http://www.w3.org/2000/svg" xmlns:xlink="http://www.w3.org/1999/xlink" x="0px" y="0px"
	 width="400px" height="400px" viewBox="0 0 400 400" enable-background="new 0 0 400 400" xml:space="preserve">
<g>
	<ellipse opacity="0.4" fill="#D2D1D3" cx="200.094" cy="278.886" rx="41.585" ry="3.304"/>
	<path fill="#5B1800" d="M210,159.709c0,0,2.186-5.48,5.933-8.852c3.745-3.373,7.371-0.421,9.546,1.475
		c2.176,1.897,4.593,5.375,4.472,7.377c-0.121,2.002-14.624,4.811-14.624,4.811L210,159.709z"/>
	<path fill="#471100" d="M214.039,163.357c0,0,8.963-7.436,11.801-6.438c2.842,0.999,1.634,3.211,0.848,3.633
		c-0.786,0.421-11.724,3.64-11.724,3.64L214.039,163.357z"/>
	<path fill="#5B1800" d="M174.219,156.618c0,0-1.82-7.627-5.827-8.681c-4.007-1.054-15.207,5.149-15.207,7.167
		c0,2.018,11.92,6.779,11.92,6.779L174.219,156.618z"/>
	<path fill="#471100" d="M165.501,160.662c0,0-8.813-6.819-11.168-5.812c-2.357,1.007,10.756,6.593,10.756,6.593L165.501,160.662z"
		/>
	<path fill="#5B1800" d="M210.889,158.597c0,0,2.103-7.021,4.116-9.277c2.015-2.257,5.829-1.502,5.829-1.502
		s-4.702-1.809-7.441,0.861c-2.327,2.268-3.524,9.417-3.524,9.417L210.889,158.597z"/>
	<path fill="#5B1800" d="M173.752,155.755c0,0-0.072-1.359-0.757-3.326c-0.685-1.968-1.369-2.979-1.369-2.979
		s1.45,1.608,2.296,3.329c0.845,1.722,0.926,3.197,0.926,3.197L173.752,155.755z"/>
	<path fill="#EFC16F" d="M209.868,158.096l0.132-2.119c0,0,2.991,0.347,5.529,2.619c2.537,2.273,2.894,5.272,2.894,5.272
		l-1.818,0.393L209.868,158.096z"/>
	<path fill="#EFC16F" d="M174.809,155.618l-14.134,4.501l-1.388-0.8c0,0,2.785-2.268,7.458-3.801
		c4.673-1.534,7.835-0.993,7.835-0.993L174.809,155.618z"/>
	<path fill="#E3784E" d="M200.092,274.694c0.074,1.422-2.037,3.025-4.763,3.382c-2.728,0.354-4.608,1.671-6.792,1.553
		c-2.172-0.129-6.574-2.357-5.352-3.133c1.222-0.774,2.814-0.263,4.036-0.434c1.223-0.183,3.537-1.427,3.39-2.229
		c-0.104-0.563-3.473-1.682-7.118-2.829c-8.023-2.523-20.957-6.24-22.649-10.186c-0.104-0.225-0.167-0.453-0.188-0.681
		c-0.544-5.996,13.811-17.063,13.811-17.063c6.038-1.858,17.049-0.638,17.049-0.638s-19.754,13.126-20.371,15.451
		C170.539,260.2,200.03,273.266,200.092,274.694z"/>
	<path fill="#FFAC73" d="M184.559,270.688l-1.065,0.316c-8.023-2.523-20.957-6.24-22.649-10.186c1.253-0.49,3.134-0.908,5.349-0.464
		C170.288,261.195,184.559,270.688,184.559,270.688z"/>
	<path fill="#990000" d="M190.314,273.598c0,0,2.233-0.08,3.469-0.349c1.236-0.269,1.653-0.657,1.653-0.657s1.52,0.791,2.166,1.762
		c0.646,0.974,0,2.248,0,2.248s-4.428,3.081-8.502,3.316c-4.073,0.233-6.38-0.638-6.764-1.005c-0.385-0.37-0.73-2.11,0.807-3.084
		c1.538-0.971,4.305-0.837,5.573-1.239S190.314,273.598,190.314,273.598z"/>
	<path fill="#FFAC73" d="M186.543,257.05c4.899,3.998,19.094,19.471,17.193,20.182c-0.721,0.263-1.095,1.281-2.098,1.646
		c-0.03,0.008-0.043,0.008-0.043,0.008c-1.67,0.601-3.446,0.815-5.63,1.354c-4.356,1.075-6.956-1.03-6.758-1.622
		c0.209-0.593,1.618-0.542,2.715-0.781c1.087-0.235,5.192-2.456,4.921-3.284c-0.272-0.829-26.995-11.855-27.601-16.257
		c-0.188-1.3,1.515-3.325,4.074-5.491c1.327-1.121,2.884-2.288,4.514-3.408c5.307-3.643,11.501-6.86,13.685-6.959
		c4.147-0.175,16.591,4.563,16.591,4.563s2.318,1.775-4.044,4.465c-2.393,1.02-5.631,1.939-8.671,2.741
		C190.366,255.519,185.874,256.502,186.543,257.05z"/>
	<path fill="#E3784E" d="M203.736,277.231c-0.721,0.263-1.095,1.281-2.098,1.646c-0.03,0.008-0.043,0.008-0.043,0.008
		s0.296-3.628-1.5-5.449c-1.787-1.823-14.807-15.098-15.36-15.373c-0.809-0.405,0.554-1.728,0.554-1.728s-2.816-0.311-6.912-1.521
		c-4.095-1.223-6.45-0.764-6.45-0.764l0,0c1.327-1.121,3.408-3.771,5.038-4.892l18.427,5.047c-5.025,1.312-9.518,2.295-8.849,2.843
		C191.442,261.048,205.637,276.521,203.736,277.231z"/>
	<path fill="#E3784E" d="M195.095,203.603c-3.201-2.138-21.149,6.454-27.542,8.149c-6.393,1.694-21.992,5.602-24.303,6.344
		c-2.31,0.743-13.112,0.875-14.128,2.227s4.75,0.533,5.764,0.853c1.014,0.319,3.097,1.372,5.737,1.478
		c2.639,0.104,6.479-1.971,6.479-1.971s9.925,2.25,20.901,0.292c10.976-1.958,14.057-3.505,19.823-4.32
		C193.591,215.836,199.658,206.65,195.095,203.603z"/>
	<path fill="#FFAC73" d="M186.753,203.695c0,0-3.497,9.853-0.226,9.236c2.006-0.379,12.551-2.184,13.737-3.69
		c0.506-0.64-2.571-7.325-2.571-7.325s-1.535-0.66-2.068-1.588c-0.548-0.93-0.165-2.156-0.165-2.156l-0.354,0.106l-7.363,2.109
		c0,0,0.1,0.036,0.103,1.072c0.001,0.052,0.001,0.104,0.002,0.154c-0.01,0.355-0.105,0.681-0.243,0.968
		C187.282,203.257,186.753,203.695,186.753,203.695z"/>
	<path fill="#E3784E" d="M187.604,202.581c1.051-0.315,3.045-0.794,5.06-0.753c1.695,0.043,4.841,1.031,5.612,1.334
		c0.793-0.355-0.583-1.246-0.583-1.246s-1.535-0.66-2.068-1.588c-0.548-0.93-0.165-2.156-0.165-2.156l-0.354,0.106l-7.261,3.181
		c0.001,0.052,0.001,0.104,0.002,0.154C187.838,201.969,187.742,202.294,187.604,202.581z"/>
	<path fill="#FFAC73" d="M211.698,186.971c-1.286,3.937-14.623,11.831-22.103,14.295c-0.952,0.327-1.784,0.564-2.461,0.714
		c-0.402,0.098-0.854,0.172-1.31,0.228c-2.251,0.284-5.003,0.147-7.639-0.179c-4.694-0.574-9.039-1.771-9.669-2.35
		c-1.068-0.969-0.876-2.786-1.483-7.004c-0.606-4.217-3.918-7.816-5.381-12.489c-0.831-2.647-0.722-5.303-0.447-7.102
		c0.178-1.372,0.458-2.264,0.458-2.264c1.275-2.856,3.852-13.402,18.662-14.956c14.81-1.555,24.222,2.371,27.594,6.801
		C211.303,167.095,213.149,182.531,211.698,186.971z"/>
	<g>
		<g>
			<path fill="#FFFFFF" d="M194.563,181.013c0.896,3.87-1.161,7.498-4.596,8.103s-6.945-2.042-7.842-5.912
				c-0.896-3.87,1.161-7.498,4.597-8.103C190.156,174.496,193.668,177.143,194.563,181.013z"/>
			
				<linearGradient id="SVGID_1_" gradientUnits="userSpaceOnUse" x1="229.7168" y1="173.145" x2="237.209" y2="173.145" gradientTransform="matrix(0.9899 -0.1417 0.1417 0.9899 -68.8203 45.6509)">
				<stop  offset="0" style="stop-color:#A43113"/>
				<stop  offset="1" style="stop-color:#6F160D"/>
			</linearGradient>
			<path fill="url(#SVGID_1_)" d="M190.396,183.047c0.744,2.306-0.254,4.587-2.229,5.094c-1.976,0.507-4.181-0.952-4.925-3.258
				c-0.745-2.306,0.253-4.587,2.228-5.094C187.445,179.283,189.65,180.741,190.396,183.047z"/>
			<path fill="#5B1800" d="M189.209,183.634c0.526,1.63-0.18,3.244-1.576,3.602c-1.397,0.359-2.956-0.672-3.482-2.303
				c-0.527-1.631,0.179-3.244,1.575-3.602C187.123,180.972,188.682,182.004,189.209,183.634z"/>
			<path fill="#FFFFFF" d="M187.812,184.629c-0.084-0.244,0.888-0.737,2.172-1.103c1.285-0.367,2.394-0.467,2.478-0.224
				c0.085,0.243-0.889,0.737-2.172,1.103C189.005,184.771,187.896,184.872,187.812,184.629z"/>
			<path fill="#E3784E" d="M194.795,182.905c0.108-0.872-0.014-0.953-0.231-1.893c-0.896-3.87-4.407-6.517-7.841-5.912
				c-3.277,0.577-5.439,3.027-4.839,6.693C185.679,175.911,194.767,182.729,194.795,182.905z"/>
		</g>
		<path fill="#5B1800" d="M195.073,183.271c0,0-2.204-4.958-8.087-5.549c-5.613-0.563-7.035,4.083-7.035,4.083l2.175,1.399
			c0,0,0.276-3.319,4.557-3.279C191.209,179.967,195.073,183.271,195.073,183.271z"/>
	</g>
	<g>
		<g>
			<path fill="#FFFFFF" d="M174.483,184.786c0.8,3.72-0.713,7.087-3.378,7.523c-2.665,0.436-5.474-2.226-6.273-5.945
				c-0.799-3.719,0.713-7.087,3.378-7.522C170.875,178.406,173.684,181.067,174.483,184.786z"/>
			
				<linearGradient id="SVGID_2_" gradientUnits="userSpaceOnUse" x1="212.1133" y1="173.9863" x2="217.916" y2="173.9863" gradientTransform="matrix(0.9899 -0.1417 0.1417 0.9899 -68.8203 45.6509)">
				<stop  offset="0" style="stop-color:#A43113"/>
				<stop  offset="1" style="stop-color:#6F160D"/>
			</linearGradient>
			<path fill="url(#SVGID_2_)" d="M171.443,186.684c0.642,2.225-0.078,4.354-1.607,4.756c-1.528,0.402-3.287-1.076-3.928-3.301
				c-0.641-2.224,0.08-4.354,1.608-4.756S170.803,184.458,171.443,186.684z"/>
			<path fill="#5B1800" d="M170.533,187.194c0.454,1.573-0.056,3.079-1.136,3.363c-1.081,0.284-2.325-0.761-2.778-2.333
				c-0.454-1.574,0.056-3.08,1.136-3.364C168.836,184.576,170.08,185.621,170.533,187.194z"/>
			<path fill="#FFFFFF" d="M169.746,187.555c-0.082-0.231,0.673-0.611,1.688-0.848c1.015-0.238,1.903-0.244,1.986-0.012
				c0.083,0.231-0.673,0.611-1.688,0.849C170.718,187.781,169.829,187.786,169.746,187.555z"/>
			<path fill="#E3784E" d="M174.752,186.894c0.062-0.825-0.074-1.204-0.269-2.107c-0.8-3.719-3.609-6.38-6.273-5.944
				c-2.543,0.416-4.031,3.502-3.468,7.014C167.082,180.703,174.726,186.725,174.752,186.894z"/>
		</g>
		<path fill="#5B1800" d="M174.752,186.994c0,0-1.244-4.825-5.938-5.215c-4.483-0.372-5.716,3.167-5.716,3.167l0.46,2.142
			c0,0,1.925-2.896,5.266-2.684C172.359,184.628,174.752,186.994,174.752,186.994z"/>
	</g>
	<path fill="#E3784E" d="M184.482,192.561c0,0-3.085,0.903-5.585,1.091c-2.499,0.188-4.341,0.204-4.341,0.204
		s3.02,2.112,5.333,1.568C181.578,195.027,184.482,192.561,184.482,192.561z"/>
	<path fill="#E3784E" d="M201.375,190.399c-1.163,5.364-11.783,10.871-11.783,10.871c7.479-2.462,20.223-9.685,21.513-13.626
		c1.449-4.442,0.199-20.55-3.187-24.979c-3.363-4.433-12.784-8.353-27.594-6.801c-14.809,1.552-17.384,12.095-18.658,14.958
		c0,0-0.279,0.887-0.462,2.264c3.004-1.002,13.646-3.961,21.37-2.918C191.315,171.339,202.537,185.035,201.375,190.399z"/>
	<path fill="#471100" d="M181.188,170.017c0,0,4.044-0.9,8.563,1.439c4.518,2.34,5.961,6.686,5.961,6.686s-2.525-3.307-5.786-4.494
		C186.607,172.44,182.899,173.997,181.188,170.017z"/>
	<path fill="#471100" d="M168.618,172.26c0,0-3.786,1.984-5.152,4.5s-1.001,4.907-1.001,4.907s0.886-2.814,3.078-4.135
		C167.735,176.212,168.966,174.354,168.618,172.26z"/>
	<path fill="#FCCBA9" d="M179.248,192.319c0.039,0.212,1.153,0.235,2.49,0.053c1.338-0.183,2.391-0.502,2.353-0.714
		c-0.038-0.211-1.152-0.235-2.49-0.052C180.264,191.789,179.211,192.108,179.248,192.319z"/>
	<path fill="#FCCBA9" d="M177.256,192.721c0.047,0.151,0.442,0.191,0.886,0.088c0.442-0.103,0.764-0.309,0.717-0.461
		c-0.046-0.152-0.442-0.191-0.885-0.089C177.531,192.363,177.209,192.57,177.256,192.721z"/>
	<path fill="#5B1800" d="M209.287,189.147c-1.138-3.759-10.229-14.067-19.177-18.362c-8.959-4.293-14.045-5.751-14.045-5.751
		s-15.731,10.672-14.412,15.741c1.329,5.067,3.187,17.756,2.172,10.122c-1.006-7.645-13.932-20.645-4.013-30.028
		c6.519-6.166,18.39-5.246,18.39-5.246s1.409-0.176,3.69-0.352c0.11-0.013,0.221-0.027,0.334-0.031
		c3.637-0.266,9.24-0.482,14.889-0.012c6.76,0.559,13.586,2.136,17.188,5.863c0.424,0.441,0.763,0.922,1.138,1.409
		c0.721,0.946,1.314,1.939,1.777,2.968C222.895,177.774,210.343,192.619,209.287,189.147z"/>
	<path fill="#5B1800" d="M175.688,165.3c0,0,11.098,5.984,19.251,13.139c8.152,7.154,15.062,27.596,15.062,27.596
		s-3.722-18.88-14.07-29.926c-6.808-7.268-16.177-11.104-16.177-11.104l-4.304-0.485L175.688,165.3z"/>
	<path fill="#7C250A" d="M173.237,164.082c0,0-11.106,5.46-14.528,10.143c-3.422,4.683,4.98,16.423,6.331,21.544
		c1.352,5.121,1.087,6.782,1.087,6.782s0.705-4.459-1.429-13.158c-2.134-8.7-4.086-11.536-0.384-16.493
		C168.017,167.943,173.237,164.082,173.237,164.082z"/>
	<path fill="#E3784E" d="M213.481,190.097c-4.588,1.303-5.007,0.625-5.007,0.625l-2.97-5.82c0,0,0.134-0.155,0.396-0.415
		c1.533-1.564,7.297-7.082,11.493-6.006c0.438,0.113,0.795,0.287,1.081,0.517c0.309,0.228,0.549,0.514,0.715,0.839l0.005,0.019
		l0.012,0.009C220.708,182.796,217.224,189.027,213.481,190.097z"/>
	<path fill="#FFAC73" d="M219.19,179.835l0.005,0.019c-0.182-0.066-1.761-0.58-4.683,0.594c-3.104,1.237-6.576,4.781-6.576,4.781
		l-2.035-0.744c1.533-1.564,7.297-7.082,11.493-6.006c0.438,0.113,0.795,0.287,1.081,0.517L219.19,179.835z"/>
	<path fill="#7C250A" d="M217.218,165.468c-3.247,1.461-13.106,5.141-23.35,1.442c-12.52-4.53-15.666-11.286-15.666-11.286
		s1.409-0.176,3.69-0.352c0.11-0.013,0.221-0.027,0.334-0.031c3.637-0.266,9.24-0.482,14.889-0.012
		c6.76,0.559,13.586,2.136,17.188,5.863c0.424,0.441,0.763,0.922,1.138,1.409C216.161,163.446,216.755,164.439,217.218,165.468z"/>
	<path fill="#5B1800" d="M187.539,196.789c0.456,0.965,0.226,1.963-0.514,2.229c-0.739,0.265-1.708-0.303-2.163-1.27
		s-0.225-1.965,0.514-2.229C186.115,195.252,187.084,195.82,187.539,196.789z"/>
	<path fill="#02B695" d="M208.637,256.033c-0.521,1.981-1.006,3.33-1.083,3.551c-0.02,0.023-0.02,0.034-0.02,0.034
		s-3.247-0.868-7.869-2.009c-1.064-0.268-2.195-0.538-3.385-0.825c-2.03-0.48-4.195-0.987-6.399-1.467
		c-1.296-0.287-2.611-0.563-3.906-0.834c-0.977-0.204-1.953-0.39-2.91-0.574c-0.995-0.185-1.981-0.37-2.93-0.531
		c-1.479-0.252-2.871-0.464-4.138-0.624c-1.141-0.143-2.185-0.244-3.104-0.287c-1.092-0.049-2.117-0.092-3.094-0.115h-0.01
		c-1.528-0.043-2.92-0.052-4.167-0.043h-0.01c-5.192,0.023-7.985,0.404-7.985,0.404s1.885-2.631,4.514-5.465
		c0.822-0.893,1.721-1.813,2.668-2.671c0.494-0.456,0.997-0.896,1.508-1.298c1.663-1.333,3.19-2.582,4.487-3.754
		c0.996-0.886,1.855-1.728,2.562-2.521c1.083-1.195,1.808-2.273,2.079-3.244c0.048-0.153,0.087-0.312,0.105-0.464
		c0.184-0.783,0.242-1.577,0.224-2.396c-0.021-2.378-0.619-4.958-0.629-8.042c0-1.132,0.077-2.327,0.3-3.617
		c1.701-10.008,9.677-15.125,9.677-15.125l1.886-0.675c0,0,0.406,0.564,3.307,0.413c2.969-0.169,7-2.124,7-2.124
		s3.064,0.504,3.721,0.961c0.667,0.455,2.101,4.94,2.101,4.94s-0.089,1.35-0.185,3.32c-0.04,0.903-0.088,1.931-0.117,3.02
		c-0.135,4.282-0.163,9.544,0.406,11.719c0.978,3.768,4.063,8.694,5.714,13.861c0.378,1.164,0.676,2.336,0.86,3.508
		c0.077,0.456,0.126,0.917,0.165,1.373C210.299,248.581,209.419,253.032,208.637,256.033z"/>
	<path fill="#009579" d="M207.535,259.613c0,0-13.464-3.609-24.475-5.701c0,0,24.33-4.463,22.844-9.785
		c-1.488-5.323-7.249-20.579-9.335-22.186c-2.087-1.606-21.412,0.92-21.412,0.92s0,0-0.011,0c0-1.135,0.078-2.333,0.3-3.62
		c1.698-10.008,9.679-15.13,9.679-15.13l1.887-0.667c0,0,0.4,0.562,3.308,0.406c2.964-0.165,6.993-2.12,6.993-2.12
		s3.063,0.504,3.729,0.959c0.666,0.455,2.098,4.946,2.098,4.946s-0.932,14.103,0.1,18.052c1.287,4.945,6.195,11.877,6.738,18.747
		C210.532,251.579,207.535,259.613,207.535,259.613z"/>
	<path fill="#B70400" d="M204.135,277.556c0,0-4.432,3.079-8.509,3.317c-4.067,0.238-6.378-0.636-6.76-1.009
		c-0.273-0.26-0.528-1.214-0.101-2.086c0.173-0.364,0.464-0.705,0.909-0.992c1.539-0.976,4.305-0.842,5.569-1.244
		c0.073-0.024,0.146-0.049,0.209-0.072c1.102-0.389,1.393-0.912,1.393-0.912s2.229-0.089,3.468-0.359
		c1.236-0.26,1.654-0.648,1.654-0.648s1.521,0.785,2.167,1.762C204.78,276.279,204.135,277.556,204.135,277.556z"/>
	<path opacity="0.2" fill="#FFF9BD" d="M199.685,276.279c0,0-2.575,1.451-5.878,1.848c-2.002,0.238-3.876-0.069-5.041-0.349
		c0.173-0.364,0.464-0.705,0.909-0.992c1.539-0.976,4.305-0.842,5.569-1.244c0.073-0.024,0.146-0.049,0.209-0.072L199.685,276.279z"
		/>
	<path fill="#FFF9BD" d="M201.968,273.55c0,0-0.756-1.001-1.398-1.781c-0.641-0.783-0.765-0.931-0.765-0.931
		s-1.175,1.215-3.001,1.929c-1.827,0.713-2.327,0.467-2.327,0.467l2.369,1.324c0,0,1.974,0.043,3.248-0.316
		S201.968,273.55,201.968,273.55z"/>
	<path fill="#FFF9BD" d="M194.261,273.129c0,0-0.389,0.189-1.685,0.303c-1.295,0.115-2.262,0.166-2.262,0.166l-3.923-1.657
		c0,0,1.335,0.086,2.217-0.198c0.721-0.23,1.214-0.737,1.214-0.737L194.261,273.129z"/>
	<ellipse opacity="0.2" fill="#FFF9BD" cx="183.845" cy="246.076" rx="2.115" ry="1.842"/>
	<ellipse opacity="0.2" fill="#FFF9BD" cx="193.369" cy="246.355" rx="2.115" ry="1.845"/>
	<ellipse opacity="0.2" fill="#FFF9BD" cx="202.957" cy="246.849" rx="2.114" ry="1.842"/>
	<ellipse opacity="0.2" fill="#FFF9BD" cx="173.871" cy="245.583" rx="2.115" ry="1.845"/>
	<path opacity="0.2" fill="#FFF9BD" d="M165.149,245.58c0,1.019-0.938,1.845-2.108,1.845c-0.319,0-0.628-0.066-0.899-0.177
		c0.822-0.893,1.721-1.813,2.668-2.671C165.023,244.872,165.149,245.207,165.149,245.58z"/>
	<path opacity="0.2" fill="#FFF9BD" d="M169.829,252.046c0,0.102-0.009,0.203-0.029,0.306h-0.01
		c-1.528-0.043-2.92-0.052-4.167-0.043h-0.01c-0.009-0.086-0.02-0.169-0.02-0.263c0-1.02,0.948-1.846,2.117-1.846
		C168.881,250.2,169.829,251.026,169.829,252.046z"/>
	<path opacity="0.2" fill="#FFF9BD" d="M180.212,252.891c0,0.169-0.028,0.335-0.077,0.487c-1.479-0.252-2.871-0.464-4.138-0.624
		c0.077-0.952,0.986-1.711,2.107-1.711C179.265,251.043,180.212,251.868,180.212,252.891z"/>
	<path opacity="0.2" fill="#FFF9BD" d="M190.189,254.365c0,0.346-0.116,0.673-0.309,0.952c-1.296-0.287-2.611-0.563-3.906-0.834
		c-0.01-0.035-0.01-0.075-0.01-0.118c0-1.021,0.938-1.848,2.107-1.848S190.189,253.344,190.189,254.365z"/>
	<path opacity="0.2" fill="#FFF9BD" d="M200.399,256.21c0,0.558-0.279,1.054-0.734,1.399c-1.064-0.268-2.195-0.538-3.385-0.825
		c-0.067-0.178-0.105-0.37-0.105-0.574c0-1.019,0.947-1.845,2.107-1.845C199.452,254.365,200.399,255.191,200.399,256.21z"/>
	<path opacity="0.2" fill="#FFF9BD" d="M208.637,256.033c-0.521,1.981-1.006,3.33-1.083,3.551c-0.996-0.153-1.74-0.901-1.74-1.813
		c0-1.019,0.947-1.845,2.117-1.845C208.183,255.926,208.413,255.966,208.637,256.033z"/>
	<path opacity="0.2" fill="#FFF9BD" d="M209.815,243.06c-0.279,0.118-0.59,0.185-0.918,0.185c-1.17,0-2.117-0.826-2.117-1.848
		c0-1.019,0.947-1.845,2.117-1.845h0.058C209.333,240.716,209.631,241.888,209.815,243.06z"/>
	<ellipse opacity="0.2" fill="#FFF9BD" cx="199.133" cy="239.61" rx="2.115" ry="1.846"/>
	<ellipse opacity="0.2" fill="#FFF9BD" cx="189.76" cy="239.048" rx="2.115" ry="1.845"/>
	<ellipse opacity="0.2" fill="#FFF9BD" cx="180.946" cy="239.048" rx="2.115" ry="1.845"/>
	<path opacity="0.2" fill="#FFF9BD" d="M173.551,237.763c0,1.022-0.947,1.848-2.107,1.848c-0.223,0-0.436-0.026-0.638-0.085
		c0.996-0.886,1.855-1.728,2.562-2.521C173.483,237.232,173.551,237.487,173.551,237.763z"/>
	<path opacity="0.2" fill="#FFF9BD" d="M179.381,232.218c0,1.019-0.947,1.845-2.117,1.845c-0.706,0-1.334-0.303-1.712-0.767
		c0.184-0.783,0.242-1.577,0.224-2.396c0.386-0.327,0.908-0.53,1.488-0.53C178.434,230.37,179.381,231.195,179.381,232.218z"/>
	<ellipse opacity="0.2" fill="#FFF9BD" cx="185.009" cy="232.215" rx="2.115" ry="1.845"/>
	<ellipse opacity="0.2" fill="#FFF9BD" cx="194.274" cy="232.518" rx="2.115" ry="1.843"/>
	<ellipse opacity="0.2" fill="#FFF9BD" cx="202.957" cy="232.215" rx="2.114" ry="1.845"/>
	<ellipse opacity="0.2" fill="#FFF9BD" cx="199.133" cy="226.648" rx="2.115" ry="1.844"/>
	<ellipse opacity="0.2" fill="#FFF9BD" cx="190.333" cy="226.648" rx="2.115" ry="1.844"/>
	<path opacity="0.2" fill="#FFF9BD" d="M183.061,226.068c0,1.02-0.947,1.846-2.115,1.846s-2.114-0.826-2.114-1.846
		c0-1.016,0.946-1.842,2.114-1.842S183.061,225.053,183.061,226.068z"/>
	<ellipse opacity="0.2" fill="#FFF9BD" cx="178.608" cy="220.1" rx="2.115" ry="1.845"/>
	<path opacity="0.2" fill="#FFF9BD" d="M188.779,218.254c0,1.02-0.946,1.846-2.114,1.846s-2.115-0.826-2.115-1.846
		c0-1.016,0.947-1.842,2.115-1.842S188.779,217.238,188.779,218.254z"/>
	<ellipse opacity="0.2" fill="#FFF9BD" cx="195.484" cy="218.957" rx="2.115" ry="1.845"/>
	<path opacity="0.2" fill="#FFF9BD" d="M202.952,210.952c-0.04,0.903-0.088,1.931-0.117,3.02c-0.329,0.185-0.724,0.295-1.149,0.295
		c-1.171,0-2.117-0.825-2.117-1.848c0-1.011,0.946-1.837,2.117-1.837C202.159,210.582,202.604,210.725,202.952,210.952z"/>
	<path fill="#FFF9BD" d="M157.628,252.713c0,0-1.881,0.687-1.096,0.949c0.786,0.264,2.659-0.475,2.659-0.475
		s1.207,0.729,2.598,0.729c1.299,0,2.659-0.78,2.659-0.78s1.025,0.984,2.325,0.78c1.301-0.201,2.509-0.938,2.509-0.938
		s-0.573,0.646,0.648,0.786c1.346,0.152,2.494-0.649,2.494-0.649s0.157,0.625,1.126,0.877c0.969,0.25,3.265-0.381,3.265-0.381
		s0.685,1.052,1.792,1.475c1.108,0.422,2.881-0.493,2.881-0.493s0.147,1.073,1.231,1.531c1.084,0.459,2.596-0.807,2.596-0.807
		s0.274,1.118,1.45,1.244s2.285-0.177,2.285-0.177s0.689,0.659,2.203,1.225c1.514,0.566,3.165-0.171,3.165-0.171
		s0.767,1.478,2.216,1.651c1.451,0.178,2.498-0.668,2.498-0.668s0.322,1.162,1.895,1.548c1.569,0.386,2.595-0.143,2.595-0.143
		s0.379,0.95,1.449,1.089c1.071,0.143,1.877-0.984,1.877-0.984s0.765,1.336,1.933,1.196c1.169-0.14-1.327-1.544-1.327-1.544
		s-16.115-4.637-29.449-6.535C164.771,251.152,157.628,252.713,157.628,252.713z"/>
	<path fill="#FFF9BD" d="M187.012,203.444c0,0-1.685,0.424-4.118,1.107c-2.433,0.687-5.212,2.03-2.977,2.135
		c2.236,0.104,4.565-0.651,4.565-0.651s1.158,1.732,5.851,1.468c4.69-0.265,9-5.37,9-5.37l-2.272-0.543
		C197.061,201.59,193.442,204.391,187.012,203.444z"/>
	<path fill="#FFAC73" d="M198.104,214.355c-0.032,0.021-0.064,0.04-0.097,0.051c-0.702,0.404-1.469,0.77-2.29,1.083
		c-0.064,0.019-0.097,0.04-0.097,0.04c-0.378,0.143-0.778,0.285-1.188,0.405c-5.917,1.788-9.179,4.076-20.926,5.927
		c-10.583,1.67-22.341,1.002-22.341,1.002s-3.444,1.993-6.263,1.993s-5.463-0.628-7.267-0.821c-1.133-0.109-6.651,0.68-5.636-0.799
		c1.015-1.477,12.515-2.072,14.944-2.963c2.418-0.891,18.853-5.703,25.581-7.779c1.554-0.475,3.735-1.375,6.23-2.438
		c0,0,0.021-0.008,0.054-0.029c8.304-3.551,19.955-9.013,22.653-7.363C205.674,205.232,203.859,211.038,198.104,214.355z"/>
	<path fill="#E3784E" d="M139.703,221.734c0,0-5.805,0.76-6.502,1.267c-0.697,0.504-0.203,0.858,0.447,0.923
		c0.687,0.066,1.425,0.066,1.425,0.066s-1.453-0.078-1.197-0.694C134.133,222.679,139.703,221.734,139.703,221.734z"/>
	<path fill="#E3784E" d="M140.479,221.944c0,0-5.69,0.774-5.691,1.41c0,0.78,4.648,0.872,4.648,0.872s-4.1-0.273-3.763-0.906
		C136.01,222.689,140.479,221.944,140.479,221.944z"/>
	<path fill="#E3784E" d="M198.104,214.355c-0.032,0.021-0.064,0.04-0.097,0.051c-1.123,0.547-1.998,0.951-2.29,1.083
		c-0.064,0.019-0.097,0.04-0.097,0.04s-0.27-4.743-6.35-5.473c-6.068-0.737-10.517,0-10.517,0s0.021-0.008,0.054-0.029
		c8.304-3.551,19.955-9.013,22.653-7.363C205.674,205.232,203.859,211.038,198.104,214.355z"/>
</g>
</svg>
