<?xml version="1.0" encoding="utf-8"?>
<!-- Generator: Adobe Illustrator 16.0.0, SVG Export Plug-In . SVG Version: 6.00 Build 0)  -->
<!DOCTYPE svg PUBLIC "-//W3C//DTD SVG 1.1//EN" "http://www.w3.org/Graphics/SVG/1.1/DTD/svg11.dtd">
<svg version="1.1" id="Capa_1" xmlns="http://www.w3.org/2000/svg" xmlns:xlink="http://www.w3.org/1999/xlink" x="0px" y="0px"
	 width="400px" height="400px" viewBox="0 0 400 400" enable-background="new 0 0 400 400" xml:space="preserve">
<g>
	<g>
		<g>
			<path fill="#0E3944" d="M174.231,372.057h25.892c1.81-10.293-1.077-20.596-1.077-20.596l-11.835-2.031
				c-1.077,6.506-2.376,9.07-4.175,10.391c-0.012,0-0.012,0-0.012,0c-1.31,0.955-2.875,1.266-4.829,1.943
				c-2.231,0.777-3.408,2.188-3.997,3.719C173.032,368.525,174.231,372.057,174.231,372.057z"/>
			<path fill="#205260" d="M174.198,365.482c6.384,0.801,20.406,2.166,19.552-1.531c-0.711-3.086-6.628-3.92-10.714-4.131
				c-0.012,0-0.012,0-0.012,0c-1.31,0.955-2.875,1.266-4.829,1.943C175.964,362.541,174.787,363.951,174.198,365.482z"/>
		</g>
		<g>
			<path fill="#0E3944" d="M260.942,372.057h25.892c0,0,0.821-2.42,0.444-4.986c-0.312-2.086-1.422-4.273-4.408-5.307
				c-2.242-0.777-3.964-1.066-5.374-2.387c-1.531-1.443-2.675-4.107-3.642-9.947l-11.835,2.031
				C262.02,351.461,259.144,361.764,260.942,372.057z"/>
			<path fill="#205260" d="M287.278,367.07c-0.312-2.086-1.422-4.273-4.408-5.307c-2.242-0.777-3.964-1.066-5.374-2.387
				c-3.274,1.01-7.86,2.865-9.281,5.674C266.238,368.902,281.371,368.293,287.278,367.07z"/>
		</g>
		<g>
			<g>
				<path fill="#8B383E" d="M275.715,351.193c0,0-1.97,6.43-14.87,1.99c0,0-9.58-71.961-11.06-73.539
					c-1.48-1.592-16.681-48.592-16.681-48.592h-4.76c0,0-15.2,47-16.68,48.592c-1.48,1.578-11.05,73.539-11.05,73.539
					c-12.91,4.439-14.88-1.99-14.88-1.99l6.199-77.58l12.92-79.99l25.87,2.89l25.87-2.89l3.37,20.89l0.14,0.82l9.41,58.279
					L275.715,351.193z"/>
			</g>
			<g>
				<path fill="#662C33" d="M260.104,215.334c-8.949-2.32-11.579-10.34-11.609-10.431l0.72-0.22c0.03,0.08,2.47,7.51,10.75,9.83
					L260.104,215.334z"/>
				<path fill="#662C33" d="M232.505,223.953c-0.68,0.721-1.56,1.09-2.62,1.09c0.03,1.93,0,3.971-0.109,6.01h-0.75
					c0.43-8.408-0.53-16.949-0.54-17.059l0.739-0.091c0.011,0.08,0.53,4.64,0.641,10.38c0.859,0,1.55-0.27,2.1-0.84
					c2.47-2.609,1.04-10.15,1.021-10.22l0.739-0.14C233.785,213.403,235.245,221.074,232.505,223.953z"/>
			</g>
		</g>
		<g>
			<path fill="#FF8B66" d="M302.237,52.908c-1.187,0.245-4.375,2.276-4.375,2.276c-2.236,2.041-3.482,3.158-5.139,3.619
				c-1.646,0.468-1.785,3.477-1.785,3.477s-6.331,2.703-7.498-1.391c0,0,2.698-5.93,2.822-6.685
				c0.258-1.502-1.097-3.429-0.063-6.071c1.041-2.65,1.046-6.472,1.046-6.472s1.379-0.739,1.814,0.674
				c0.438,1.429-0.269,3.636,0.12,4.208c0.08,0.116,0.166,0.223,0.266,0.312c0,0,0.009,0.007,0.02,0.029
				c0.359,0.354,0.834,0.573,1.262,0.521c0.025,0.005,0.064,0.007,0.103-0.006c1.646-0.356,4.111-3.198,5.086-4.563
				c1.352-1.901,3.362-4.417,4.169-3.127c0.807,1.291-1.013,1.545-3.232,6.31l0.385,0.375c-0.141,0.353,2.739-1.841,4.898-4.315
				c1.491-1.699,2.168-0.145,1.997,0.617c-0.163,0.768-1.912,2.257-2.976,3.5c-0.711,0.813-1.457,1.654-1.903,2.152l0.289,0.649
				c4.145-1.769,4.51-3.523,5.603-2.796c1.083,0.721-1.275,3.072-2.59,3.651c-0.566,0.254-1.479,0.984-2.334,1.729
				c3.433-0.733,4.064-1.995,4.807-1.227C305.788,51.152,303.424,52.663,302.237,52.908z"/>
			<path fill="#EF6E4B" d="M290.629,51.811c0.671-2.178-0.956-4.63-1.164-4.926c0.359,0.354,0.834,0.573,1.262,0.521
				C292.162,50.02,290.629,51.811,290.629,51.811z"/>
		</g>
		<g>
			<path fill="#FF8B66" d="M107.875,89.923c1.193-0.208,4.904,0.508,4.904,0.508c2.829,1.076,4.4,1.657,6.109,1.478
				c1.703-0.17,2.938,2.577,2.938,2.577s6.881,0.187,6.462-4.049c0,0-4.689-4.523-5.082-5.179c-0.792-1.303-0.24-3.593-2.173-5.669
				c-1.941-2.083-3.351-5.635-3.351-5.635s-1.555-0.181-1.439,1.294c0.118,1.49,1.586,3.283,1.435,3.958
				c-0.031,0.137-0.072,0.268-0.133,0.387c0,0-0.006,0.01-0.008,0.034c-0.203,0.461-0.564,0.839-0.981,0.949
				c-0.021,0.013-0.058,0.03-0.098,0.032c-1.662,0.273-4.999-1.463-6.407-2.375c-1.955-1.271-4.75-2.873-5.026-1.376
				c-0.275,1.497,1.51,1.064,5.326,4.68l-0.221,0.49c0.261,0.276-3.225-0.706-6.142-2.212c-2.011-1.032-2.069,0.663-1.631,1.308
				c0.434,0.654,2.608,1.396,4.054,2.161c0.96,0.495,1.963,1.003,2.561,1.302l-0.029,0.71c-4.505-0.121-5.489-1.62-6.238-0.542
				c-0.743,1.068,2.315,2.388,3.75,2.444c0.621,0.027,1.738,0.371,2.807,0.75c-3.462,0.58-4.514-0.361-4.921,0.626
				C103.926,89.595,106.682,90.131,107.875,89.923z"/>
			<path fill="#EF6E4B" d="M118.267,84.636c-1.425-1.779-0.813-4.658-0.729-5.009c-0.203,0.461-0.564,0.839-0.981,0.949
				C116.183,83.534,118.267,84.636,118.267,84.636z"/>
		</g>
		<g>
			<g>
				<path fill="#CFD8DC" d="M292.645,63.583c0,0-0.689,2.53-1.81,6.35c-0.45,1.56-0.98,3.33-1.56,5.24
					c-0.9,2.95-1.931,6.21-3.021,9.45c-0.59,1.77-1.2,3.53-1.82,5.23c-1.569,4.33-3.189,8.31-4.689,11.1
					c-0.21,0.39-0.42,0.76-0.62,1.1c-0.57,0.96-1.43,2.07-2.51,3.3c-1.73,1.99-4.04,4.28-6.66,6.68c-1.311,1.21-2.7,2.45-4.13,3.69
					c-2.34,2.03-4.79,4.09-7.221,6.07c-1.52,1.25-3.029,2.47-4.489,3.63c-7.49,5.97-13.69,10.56-13.69,10.56l-11.18-22.84
					c3.189-2.16,9.07-5.78,15.22-9.48c1.45-0.88,2.91-1.76,4.36-2.63c2.25-1.34,4.46-2.65,6.5-3.87c1.6-0.94,3.1-1.83,4.45-2.62
					c1.909-1.13,3.52-2.07,4.67-2.75c1.239-0.73,1.96-1.15,1.96-1.15s0.51-0.99,1.359-2.64c0.99-1.93,2.46-4.77,4.141-7.98
					c0.739-1.42,1.52-2.92,2.33-4.44c1.27-2.42,2.6-4.91,3.88-7.29c0.83-1.54,1.649-3.04,2.41-4.43c2.149-3.88,3.949-6.98,4.88-8.22
					C285.405,55.644,291.135,57.583,292.645,63.583z"/>
			</g>
			<g>
				<path fill="#8BBDDB" d="M258.604,121.793c-1.52,1.25-3.029,2.47-4.489,3.63c-1.32-10.33-6.33-17.81-9.65-21.76
					c1.45-0.88,2.91-1.76,4.36-2.63C252.225,105.193,256.755,112.233,258.604,121.793z"/>
			</g>
			<g>
				<path fill="#8BBDDB" d="M269.955,112.034c-1.311,1.21-2.7,2.45-4.13,3.69c-2.61-9.9-7.41-15.69-10.5-18.56
					c1.6-0.94,3.1-1.83,4.45-2.62C263.055,97.874,267.265,103.474,269.955,112.034z"/>
			</g>
			<g>
				<path fill="#8BBDDB" d="M279.745,100.954c-0.21,0.39-0.42,0.76-0.62,1.1c-0.57,0.96-1.43,2.07-2.51,3.3
					c-4.311-6.85-8.971-11.14-12.17-13.56c1.239-0.73,1.96-1.15,1.96-1.15s0.51-0.99,1.359-2.64
					C271.065,90.534,275.505,94.664,279.745,100.954z"/>
			</g>
			<g>
				<path fill="#8BBDDB" d="M286.255,84.624c-0.59,1.77-1.2,3.53-1.82,5.23c-4.279-4.43-9.239-7.82-12.529-9.83
					c0.739-1.42,1.52-2.92,2.33-4.44C277.354,77.463,281.945,80.543,286.255,84.624z"/>
			</g>
			<g>
				<path fill="#8BBDDB" d="M290.835,69.934c-0.45,1.56-0.98,3.33-1.56,5.24c-3.83-3.48-8.271-5.69-11.16-6.88
					c0.83-1.54,1.649-3.04,2.41-4.43C283.335,65.063,287.175,67.023,290.835,69.934z"/>
			</g>
		</g>
		<g>
			<g>
				<path fill="#CFD8DC" d="M198.185,119.063l-2,25.35c0,0-7.01-1.87-15.79-4.54c-1.689-0.51-3.439-1.05-5.21-1.61
					c-3.13-0.99-6.34-2.05-9.439-3.14c-1.69-0.59-3.34-1.18-4.93-1.79c-3.73-1.4-7.08-2.81-9.65-4.15c-1.41-0.73-2.58-1.43-3.45-2.1
					c-0.29-0.22-0.59-0.47-0.91-0.75c-2.1-1.78-4.649-4.46-7.34-7.51c-1.109-1.28-2.25-2.61-3.399-3.98
					c-2.25-2.71-4.5-5.53-6.561-8.18c-1.11-1.41-2.149-2.77-3.12-4.04c-3.54-4.66-6-8.07-6-8.07c0.25-5.91,4.641-7.59,4.641-7.59
					c1.56,0.96,5.199,3.83,9.439,7.29c1.26,1.03,2.58,2.11,3.91,3.21c2.25,1.86,4.54,3.78,6.67,5.58c1.36,1.14,2.65,2.23,3.84,3.23
					c1.94,1.65,3.59,3.06,4.74,4.04c1.1,0.93,1.74,1.48,1.74,1.48s1.08,0.17,2.92,0.45c1.62,0.25,3.84,0.6,6.399,1.01
					c1.57,0.24,3.261,0.51,5.04,0.8c2.19,0.36,4.5,0.73,6.841,1.12c1.659,0.27,3.329,0.55,4.979,0.82
					C188.265,117.133,194.604,118.264,198.185,119.063z"/>
			</g>
			<g>
				<path fill="#8BBDDB" d="M180.395,139.874c-1.689-0.51-3.439-1.05-5.21-1.61c-0.93-9.8,0.141-17.74,1.381-23.09
					c1.659,0.27,3.329,0.55,4.979,0.82C180.295,121.273,179.135,129.583,180.395,139.874z"/>
			</g>
			<g>
				<path fill="#8BBDDB" d="M169.725,114.054c-1.569,4.39-3.659,11.85-3.979,21.07c-1.69-0.59-3.34-1.18-4.93-1.79
					c0.47-8.56,2.31-15.54,3.869-20.08C166.255,113.494,167.945,113.764,169.725,114.054z"/>
			</g>
			<g>
				<path fill="#8BBDDB" d="M158.285,112.244c-2.43,4.6-5.34,10.8-7.12,16.94c-1.41-0.73-2.58-1.43-3.45-2.1
					c-0.29-0.22-0.59-0.47-0.91-0.75c1.851-5.89,4.521-11.62,6.82-16.02c1.1,0.93,1.74,1.48,1.74,1.48
					S156.445,111.963,158.285,112.244z"/>
			</g>
			<g>
				<path fill="#8BBDDB" d="M148.885,106.273c-2.81,3.23-6.47,7.76-9.42,12.55c-1.109-1.28-2.25-2.61-3.399-3.98
					c2.939-4.56,6.31-8.74,8.979-11.8C146.405,104.184,147.695,105.273,148.885,106.273z"/>
			</g>
			<g>
				<path fill="#8BBDDB" d="M138.375,97.463c-2.63,2.4-6,5.7-8.87,9.2c-1.11-1.41-2.149-2.77-3.12-4.04
					c2.681-3.18,5.63-6.11,8.08-8.37C135.725,95.284,137.045,96.364,138.375,97.463z"/>
			</g>
		</g>
		<g>
			<path fill="#CFD8DC" d="M265.125,199.684c0,0-13.99,14.631-33.021,18.25c-16.689,3.18-31.689,3.221-31.689,3.221
				s-0.85-3.811-2.16-9.791c-0.33-1.539-0.7-3.23-1.09-5.029c-0.7-3.23-1.48-6.84-2.29-10.661c-0.35-1.63-0.7-3.29-1.06-4.99
				c-0.66-3.11-1.33-6.31-2-9.52c-0.341-1.65-0.681-3.31-1.011-4.96c-0.83-4.07-1.64-8.1-2.38-11.92c-0.34-1.73-0.66-3.41-0.96-5.04
				c-0.87-4.58-1.6-8.72-2.13-12.09c-0.31-2-0.55-3.73-0.7-5.12c-0.05-0.5-0.09-0.96-0.12-1.37c-0.25-3.47-0.38-6.69-0.42-9.58
				c-0.029-1.88-0.02-3.61,0-5.17c0.09-5.51,0.42-8.88,0.42-8.88c3.95-2.7,31.181,6.04,31.181,6.04s20.109-17.31,23.26-16.06
				c1.78,0.7,3.47,2.29,5.08,4.57c0.91,1.29,1.79,2.8,2.64,4.5c1.44,2.85,2.79,6.21,4.07,9.94c0.58,1.72,1.149,3.52,1.71,5.38
				c0.92,3.07,1.78,6.3,2.61,9.62c0.409,1.68,0.819,3.39,1.21,5.11c0.739,3.24,1.439,6.53,2.079,9.81c0.351,1.74,0.681,3.47,1,5.19
				c0.551,2.96,1.07,5.88,1.54,8.7c0.311,1.82,0.601,3.61,0.87,5.34c0.61,3.85,1.141,7.44,1.59,10.62
				c0.271,1.95,0.511,3.74,0.721,5.35C264.775,196.434,265.125,199.684,265.125,199.684z"/>
			<g>
				<path fill="#8BBDDB" d="M246.675,116.083c-6.08,6.2-16.79,15.33-29.109,17.79c-2.471,0.49-5.221,0.71-8.141,0.71
					c-8,0-17.229-1.61-25.33-3.5c-0.029-1.88-0.02-3.61,0-5.17c10.78,2.6,23.8,4.79,32.49,3.06c11.61-2.31,22.02-11.69,27.45-17.39
					C244.945,112.874,245.825,114.383,246.675,116.083z"/>
			</g>
			<g>
				<path fill="#8BBDDB" d="M252.455,131.403c-6.21,5.82-21.8,16.7-51.42,16.7c-4.851,0-10.08-0.29-15.7-0.95
					c-0.31-2-0.55-3.73-0.7-5.12c43.15,5.35,61.91-11.48,66.11-16.01C251.325,127.744,251.895,129.543,252.455,131.403z"/>
			</g>
			<g>
				<path fill="#8BBDDB" d="M256.275,146.133c-12.021,6.77-36.591,18.18-65.601,18.18c-0.75,0-1.5-0.01-2.25-0.03
					c-0.34-1.73-0.66-3.41-0.96-5.04c30.101,0.87,56.17-11.7,67.601-18.22C255.475,142.704,255.885,144.414,256.275,146.133z"/>
			</g>
			<g>
				<path fill="#8BBDDB" d="M259.354,161.133c-10.42,5.69-36.96,18.47-67.539,20.03c-0.341-1.65-0.681-3.31-1.011-4.96
					c31.11-1.45,58.65-15.32,67.55-20.26C258.705,157.684,259.035,159.414,259.354,161.133z"/>
			</g>
			<g>
				<path fill="#8BBDDB" d="M261.765,175.173c-11.93,6.99-37.91,19.99-66.89,20.5c-0.35-1.63-0.7-3.29-1.06-4.99
					c29.409-0.26,56.38-14.44,67.079-20.85C261.205,171.653,261.495,173.443,261.765,175.173z"/>
			</g>
			<g>
				<path fill="#8BBDDB" d="M264.075,191.144c-12.29,6.85-39.46,20.25-64.05,20.25c-0.591,0-1.181-0.011-1.771-0.03
					c-0.33-1.539-0.7-3.23-1.09-5.029c25.06,1.17,54.87-14.13,66.189-20.541C263.625,187.744,263.865,189.534,264.075,191.144z"/>
			</g>
		</g>
		<path fill="#EF6E4B" d="M219.425,112.935c0,0-0.815,6.781,1.687,8.857c0,0-1.268,4.832-5.024,5.75
			c-4.341,1.061-6.786-3.501-6.786-3.501s1.143-6.617-1.59-8.346L219.425,112.935z"/>
		<g>
			<path fill="#105E99" d="M222.708,98.562c0,0,2.646-4.488-3.687-11.599c0,0-3-6.811-13.333-8.378
				c-10.334-1.567-18,9.707-18,15.903c0,6.196,3.666,0,3.666,0s0.834,4.343,2,6.27c0,0-0.382,6.244,3.56,6.252
				C200.854,107.017,222.708,98.562,222.708,98.562z"/>
			<path fill="#FF8B66" d="M198.986,106.051c0,0-4.109-2.04-3.283,1.679c0.955,4.309,5.297,4.717,5.592,3.146
				S198.986,106.051,198.986,106.051z"/>
			<path fill="#FF8B66" d="M220.617,99.04c0,0,2.049-4.105,3.632-0.641c1.835,4.014-1.383,6.958-2.565,5.882
				C220.502,103.205,220.617,99.04,220.617,99.04z"/>
			<path fill="#FF8B66" d="M214.495,117.618c-6.831,2.291-12.184-0.878-16.671-14.262c-2.314-6.903-0.222-12.315,7.43-14.881
				c7.651-2.565,12.294,0.588,14.608,7.491C224.685,110.347,221.552,115.251,214.495,117.618z"/>
			
				<ellipse transform="matrix(0.8793 -0.4762 0.4762 0.8793 -22.4382 116.0285)" fill="#DB614D" cx="217.737" cy="102.291" rx="1.664" ry="1.331"/>
			
				<ellipse transform="matrix(0.9668 -0.2555 0.2555 0.9668 -20.5803 55.5859)" fill="#DB614D" cx="203.666" cy="107.009" rx="1.665" ry="1.331"/>
			<g>
				<path fill="#FFB878" d="M213.748,95.602c-0.091,0.03-0.191,0.025-0.282-0.022c-1.279-0.675-2.923-0.077-2.948-0.069
					c-0.184,0.063-0.394-0.025-0.462-0.213c-0.07-0.186,0.025-0.393,0.212-0.462c0.071-0.029,1.973-0.717,3.533,0.107
					c0.177,0.093,0.244,0.311,0.151,0.486C213.907,95.514,213.832,95.573,213.748,95.602z"/>
			</g>
			<g>
				<path fill="#FFB878" d="M200.886,99.915c-0.085,0.028-0.18,0.026-0.267-0.015c-0.181-0.084-0.258-0.298-0.175-0.479
					c0.749-1.599,2.679-2.194,2.755-2.216c0.19-0.057,0.391,0.051,0.448,0.241c0.058,0.19-0.06,0.391-0.24,0.449
					c-0.014,0.001-1.703,0.533-2.31,1.832C201.054,99.819,200.976,99.884,200.886,99.915z"/>
			</g>
			
				<ellipse transform="matrix(0.9481 -0.3179 0.3179 0.9481 -20.6202 73.0392)" fill="#1A4850" cx="213.52" cy="99.71" rx="0.9" ry="1.62"/>
			
				<ellipse transform="matrix(0.948 -0.3183 0.3183 0.948 -22.0795 70.3955)" fill="#1A4850" cx="204.397" cy="102.769" rx="0.9" ry="1.62"/>
			<path fill="#1A4850" d="M208.294,111.56c0,0,6.284-1.245,8.884-3.771c0,0-0.377,4.689-3.79,5.424S208.294,111.56,208.294,111.56z
				"/>
			<g>
				<path fill="#DB614D" d="M212.513,107.757c-0.663,0.223-1.396,0.277-1.618,0.289l-0.041-0.764
					c0.783-0.043,1.947-0.301,2.096-0.673c0.051-0.129-0.062-0.351-0.309-0.609c-1.691-1.769-3.68-7.016-3.763-7.238l0.717-0.27
					c0.02,0.054,2.016,5.323,3.6,6.979c0.482,0.504,0.64,0.982,0.466,1.42C213.492,107.317,213.022,107.586,212.513,107.757z"/>
			</g>
			<path fill="#FFB878" d="M203.271,85.434c-15.274,5.664-6.101,20.077-6.101,20.077l2.217,2.014
				c-0.989-4.136-0.283-6.425-0.283-6.425c-1.059-1.624-1.165-4.58-0.854-5.972c1.941-1.635,6.696-4.725,15.49-5.665
				c0.071,0.072,2.367,2.422,2.613,4.72c0,0,3.511,3.209,5.006,6.979l0.268-3.544C221.628,97.619,218.104,79.934,203.271,85.434z"/>
		</g>
	</g>
	<g>
		<g>
			<g>
				<path fill="#8BBDDB" d="M196.325,341.365l-6.73,1.57c0,0-10.52-56.381-12.939-62.34c-2.08-5.141-10.971-24.801-13.921-39.9
					c-0.14,0.07-1.06-0.09-2.31-0.33h-0.01c-0.311-0.07-0.641-0.141-0.99-0.209c-0.31-0.07-0.64-0.141-0.97-0.211
					c-0.25,15.051-3.521,33.609-4.521,38.811c-1.21,6.311-0.56,63.699-0.56,63.699l-6.91-0.23c-13.11-46.469-6.19-63.93-6.19-63.93
					s-12.02-41.83-7.76-56.58c1.41-4.92,3.15-9.379,4.83-13.129c0.14-0.311,0.271-0.611,0.42-0.9c3.2-6.98,6.11-11.31,6.11-11.31
					l14.05,1.76l0.13-0.23l0.41,0.08v4.41l1.78-0.09l0.399-0.03h0.011l5.829-0.311l0.801-0.039l5.1-0.27c0,0,3.06,4.869,7.42,12.699
					c0.16,0.301,0.33,0.6,0.49,0.9c1.55,2.811,3.25,5.969,5.03,9.4c7.05,13.648,4.64,52.83,4.64,52.83
					S200.145,293.236,196.325,341.365z"/>
			</g>
			<g>
				<path fill="#6097B2" d="M148.505,197.996c-0.05,0.1-3.67,8.709-11.16,10.59c0.14-0.311,0.271-0.611,0.42-0.9
					c6.72-2.09,10-9.88,10.04-9.97L148.505,197.996z"/>
			</g>
			<g>
				<path fill="#6097B2" d="M180.295,215.256c-8.39-1.801-12.67-10.58-13.811-13.291c-0.199-0.489-0.3-0.779-0.31-0.799l0.71-0.25
					c0.01,0.02,0.14,0.4,0.4,1.01c1.199,2.779,5.13,10.471,12.52,12.43C179.965,214.656,180.135,214.955,180.295,215.256z"/>
			</g>
			<g>
				<path fill="#6097B2" d="M160.415,240.365c-0.311-0.07-0.641-0.141-0.99-0.209c-1.22-2.25-3.44-7.09-5.26-15.16
					c-2.62-11.621,3.34-24,3.399-24.121l0.681,0.33c-0.061,0.121-5.91,12.27-3.351,23.631c0.11,0.48,0.221,0.949,0.33,1.4
					c0.061,0.25,0.12,0.488,0.181,0.729C157.265,234.355,159.435,238.646,160.415,240.365z"/>
			</g>
			<g>
				<path fill="#6097B2" d="M155.021,227.006c-0.035,0-0.072-0.002-0.109-0.004l0.047-0.748c0.403,0.02,0.862-0.201,1.23-0.621
					c0.497-0.566,1.562-2.363,0.703-6.771c-1.152-5.92,3.23-16.29,3.418-16.729l0.689,0.294c-0.045,0.105-4.48,10.599-3.371,16.292
					c0.889,4.564-0.167,6.602-0.876,7.408C156.259,226.689,155.634,227.006,155.021,227.006z"/>
			</g>
		</g>
		<path fill="#F24052" d="M155.17,143.367c0,0,2.225-4.028-0.904-10.948c-3.13-6.92-2.487-26.048,13.191-25.234
			c0,0,9.3-1.541,13.989,4.553c4.689,6.094,8.5,27.565,3.595,43.497C180.136,171.166,148.87,166.902,155.17,143.367z"/>
		<path fill="#FF8B66" d="M172.386,201.656c0,0-14.67,5.17-28.51-5.281c0,0-2.57-52.83,2.32-56.37c2.14-1.55,6.359-0.31,10.43,1.58
			c5.25,2.44,10.27,5.95,10.27,5.95s9.11-1.29,16.29-0.5c4.57,0.49,8.351,1.83,8.521,4.86
			C192.156,159.706,172.386,201.656,172.386,201.656z"/>
		<path fill="#EF6E4B" d="M183.576,147.156c-3.08-0.32-3.65,2.01-6.73,3.13c-3.09,1.13-6.79,2-8.189,2.13
			c-1.4,0.13-2.141,1.87-2.141,1.87s-0.5-2.35-1.26-2.55c-0.74-0.19-7.27-6.76-8.63-10.15c5.25,2.44,10.27,5.95,10.27,5.95
			s9.11-1.29,16.29-0.5C183.436,147.116,183.576,147.156,183.576,147.156z"/>
		<g>
			<path fill="#CFD8DC" d="M143.363,348.086c0.422-2.875-0.64-4.92,0.111-6.307c1.161-2.145,2.387,0.566,2.387,0.566
				c0.099-3.264,5.568-3.258,6.116-1.764c0.146,0.398,0.313,0.758,0.485,1.102c0.34-0.785,0.915-1.549,1.664-1.102
				c2.923,1.75-0.712,6.268,1.948,9.559c3.385,4.191,1.301,10.525,1.301,10.525h-16.212
				C139.266,351.783,142.941,350.951,143.363,348.086z"/>
			<path fill="#ADBEC4" d="M153.377,347.014c0,0-3.833-2.016-8.917,0.652l1-1.834c0,0,3.367-2.1,7.45-0.533L153.377,347.014z"/>
			<path fill="#ADBEC4" d="M154.045,350.061c0,0-5.457-1.896-10.54,0.77l0.955-1.943c0,0,4.834-2.092,8.917-0.525L154.045,350.061z"
				/>
		</g>
		<g>
			<path fill="#CFD8DC" d="M199.298,348.086c-0.422-2.875,0.64-4.92-0.111-6.307c-1.16-2.145-2.387,0.566-2.387,0.566
				c-0.099-3.264-5.568-3.258-6.115-1.764c-0.146,0.398-0.313,0.758-0.485,1.102c-0.34-0.785-0.916-1.549-1.665-1.102
				c-2.923,1.75,0.712,6.268-1.947,9.559c-3.386,4.191-1.302,10.525-1.302,10.525h16.212
				C203.396,351.783,199.72,350.951,199.298,348.086z"/>
			<path fill="#ADBEC4" d="M189.284,347.014c0,0,3.834-2.016,8.917,0.652l-1-1.834c0,0-3.366-2.1-7.45-0.533L189.284,347.014z"/>
			<path fill="#ADBEC4" d="M188.616,350.061c0,0,5.457-1.896,10.54,0.77l-0.955-1.943c0,0-4.833-2.092-8.917-0.525L188.616,350.061z
				"/>
		</g>
		<path fill="#EF6E4B" d="M165.718,130.061c0,0,1.168,14.104-2.757,16.122c0,0,2.9,5.346,10.675,2.092c0,0-1.313-7.255,3.828-15.868
			C180.907,126.639,165.718,130.061,165.718,130.061z"/>
		<g>
			<path fill="#FF8B66" d="M179.886,125.218c0,0,2.92-3.394,3.589,0.263c0.775,4.236-2.972,6.252-3.833,4.951
				S179.886,125.218,179.886,125.218z"/>
			<path fill="#FF8B66" d="M157.776,127.125c0,0-3.399-2.913-3.508,0.803c-0.126,4.305,3.885,5.729,4.539,4.313
				S157.776,127.125,157.776,127.125z"/>
			<path fill="#FF8B66" d="M170.333,141.504c7.012-0.534,10.619-5.415,9.573-19.15c-0.539-7.084-4.475-11.156-12.327-10.558
				c-7.854,0.598-10.83,5.195-10.29,12.281C158.413,138.835,163.091,142.055,170.333,141.504z"/>
			
				<ellipse transform="matrix(-0.9953 -0.0965 0.0965 -0.9953 310.0042 272.9024)" fill="#DB614D" cx="161.601" cy="128.955" rx="1.624" ry="1.299"/>
			
				<ellipse transform="matrix(-0.9901 0.1407 -0.1407 -0.9901 368.3183 229.677)" fill="#DB614D" cx="176.042" cy="127.855" rx="1.625" ry="1.299"/>
			<g>
				<path fill="#F24052" d="M162.473,121.396c0.143,0.066,0.317,0.031,0.421-0.096c0.893-1.091,2.606-1.18,2.623-1.18
					c0.193-0.009,0.344-0.173,0.336-0.367c-0.009-0.194-0.171-0.344-0.367-0.336c-0.083,0.003-2.046,0.106-3.136,1.438
					c-0.123,0.15-0.101,0.371,0.05,0.494C162.422,121.368,162.447,121.384,162.473,121.396z"/>
			</g>
			<g>
				<path fill="#F24052" d="M172.629,119.532c0.057,0.026,0.12,0.038,0.186,0.031c0.018-0.001,1.727-0.172,2.772,0.771
					c0.145,0.131,0.366,0.118,0.496-0.026c0.13-0.144,0.118-0.366-0.025-0.496c-1.279-1.154-3.235-0.956-3.318-0.947
					c-0.192,0.021-0.331,0.193-0.311,0.387C172.441,119.377,172.521,119.481,172.629,119.532z"/>
			</g>
			
				<ellipse transform="matrix(-0.9971 0.0759 -0.0759 -0.9971 337.8364 237.2349)" fill="#1A4850" cx="164.412" cy="125.034" rx="0.879" ry="1.581"/>
			
				<ellipse transform="matrix(-0.9971 0.0759 -0.0759 -0.9971 357.1169 234.9009)" fill="#1A4850" cx="174.097" cy="124.234" rx="0.879" ry="1.581"/>
			<path fill="#1A4850" d="M172.661,132.898c0,0-4.32,0.943-6.656-0.058c0,0,1.517,3.137,3.88,2.665
				C172.247,135.034,172.661,132.898,172.661,132.898z"/>
			<path fill="#1A4850" d="M165.86,124.49c0,0-0.802-2.096-1.633-1.878c-0.83,0.218-1.329,2.104-1.329,2.104l-1.295-0.565
				l1.257,0.068c0,0,0.503-1.965,1.335-2.032C165.381,122.09,165.86,124.49,165.86,124.49z"/>
			<path fill="#1A4850" d="M172.688,124.233c0,0,0.475-2.193,1.329-2.103c0.854,0.089,1.633,1.877,1.633,1.877l1.194-0.754
				l-1.232,0.257c0,0-0.794-1.867-1.627-1.807C172.799,121.79,172.688,124.233,172.688,124.233z"/>
			<g>
				<path fill="#DB614D" d="M168.864,129.583c0.154,0.072,0.325,0.126,0.511,0.162l0.142-0.745c-0.634-0.121-0.8-0.495-0.826-0.787
					c-0.037-0.413,0.184-0.818,0.407-0.905c0.131-0.05,0.276,0.029,0.435,0.237l0.604-0.46c-0.528-0.692-1.094-0.569-1.313-0.483
					c-0.563,0.22-0.952,0.958-0.887,1.68C167.989,128.871,168.326,129.333,168.864,129.583z"/>
			</g>
			<path fill="#F24052" d="M170.101,114.041c0,0,2.594-0.846,3.675,3.109c1.875,6.858,3.229,18.008,7.671,23.516
				c3.227,4,5.189,2.375,5.189,2.375s0.875-3.96-0.5-7.917c-1.375-3.958,0.371-18.188-4.689-23.385
				c-5.061-5.198-13.989-1.875-13.989-1.875s-4.301-2.552-8.499,0c-4.197,2.552-5.385,14.006-1.104,19.091
				c0,0-0.219-4.309,1.656-5.987S162.44,111.916,170.101,114.041z"/>
		</g>
		<g>
			<path fill="#FF8B66" d="M137.197,57.719c-1.614,5.191,2.353,7.537-0.585,11.087c-1.818,2.199-4.574,0.409-4.574,0.409
				c-1.326-2.769-4.464-6.431-6.096-8.012c-1.624-1.589-0.468-1.612-0.468-1.612c-0.162-0.134-0.323-0.253-0.484-0.372
				c-1.214-0.918-2.246-1.412-1.104-1.765c1.286-0.405,4.853,2.042,4.853,2.042c-4.247-4.725-5.851-4.25-4.729-4.734
				c1.53-0.665,5.814,2.865,5.942,2.972c-2.05-3.252-3.863-4.335-2.691-4.446c1.188-0.112,5.548,5.138,7.129,7.094
				c0.356,0.439,0.572,0.719,0.572,0.719C135.997,56.784,137.197,57.719,137.197,57.719z"/>
			<path fill="#EF6E4B" d="M134.39,60.381c0.356,0.439,0.572,0.719,0.572,0.719s-1.312,1.307-0.637,3.609
				C134.325,64.709,132.513,62.72,134.39,60.381z"/>
			<path fill="#EF6E4B" d="M129.125,62.251c-0.39-0.365-2.601-2.483-3.65-2.66c-0.162-0.134-0.323-0.253-0.484-0.372
				C125.915,58.485,128.707,61.747,129.125,62.251z"/>
		</g>
		<path fill="#FF8B66" d="M136.612,68.806c0,0-0.581,34.256-2.362,41.058c0,0,6.229,21.516,15.558,29.326
			c0,0,1.455,5.835-6.608,17.322c0,0-15.688-28.064-18.209-44.122l7.048-43.175L136.612,68.806z"/>
		<path fill="#105E99" d="M157.228,141.872c0.8,2.836,1.243,12.809,10.701,17.926c9.457,5.117,19.579-2.374,22.329-10.543
			c0,0,1.149-1.736,4.893,2.481c0,0,19.671,9.533,22.203,14.481s1.011,23.883-6.854,24.166s-17.364-8.467-19.864-2.717
			s-17.123,26.286-47.437,9.768c0,0-3.813-4.768-3.813-9.018s-1.936-32.273-1.936-32.273s-11.175-3.236-8.369-29.606
			c0,0,7.696,4.261,7.5-9.805c0,0,6.35-2.947,8.452,8.869c1.408,7.916,9.232,13.704,9.232,13.704S156.011,137.555,157.228,141.872z"
			/>
		<path fill="#FF8B66" d="M221.832,176.034c6.692-2.803,21.412-14.957,26.665-22.006l-3.152-2.92c0,0-17.337,11.759-23.992,13.853
			c-6.656,2.093-10.174,5.911-9.363,10.641C212.799,180.33,220.424,176.624,221.832,176.034z"/>
		<g>
			<path fill="#FF8B66" d="M253.987,144.143c-3.261,4.351-7.486,2.51-8.643,6.97c-0.716,2.762,2.35,3.946,2.35,3.946
				c3.021-0.547,7.826-0.15,10.063,0.246c2.24,0.386,1.58-0.565,1.58-0.565c0.204,0.053,0.396,0.114,0.586,0.175
				c1.455,0.446,2.461,0.993,2.077-0.138c-0.425-1.28-4.497-2.737-4.497-2.737c6.316,0.674,6.871,2.251,6.606,1.059
				c-0.357-1.63-5.729-3.033-5.89-3.075c3.837-0.244,5.776,0.591,5.18-0.424c-0.605-1.028-7.414-1.486-9.926-1.621
				c-0.564-0.032-0.917-0.043-0.917-0.043C255.449,144.567,253.987,144.143,253.987,144.143z"/>
			<path fill="#EF6E4B" d="M253.475,147.979c-0.564-0.032-0.917-0.043-0.917-0.043s-0.291,1.829-2.552,2.63
				C250.006,150.566,252.68,150.869,253.475,147.979z"/>
			<path fill="#EF6E4B" d="M255.044,153.34c0.524,0.101,3.536,0.652,4.294,1.399c0.204,0.053,0.396,0.114,0.586,0.175
				C259.977,153.735,255.698,153.383,255.044,153.34z"/>
		</g>
	</g>
</g>
</svg>
