<?xml version="1.0" encoding="utf-8"?>
<!-- Generator: Adobe Illustrator 16.0.0, SVG Export Plug-In . SVG Version: 6.00 Build 0)  -->
<!DOCTYPE svg PUBLIC "-//W3C//DTD SVG 1.1//EN" "http://www.w3.org/Graphics/SVG/1.1/DTD/svg11.dtd">
<svg version="1.1" id="Capa_1" xmlns="http://www.w3.org/2000/svg" xmlns:xlink="http://www.w3.org/1999/xlink" x="0px" y="0px"
	 width="400px" height="400px" viewBox="0 0 400 400" enable-background="new 0 0 400 400" xml:space="preserve">
<g>
	<g>
		<path fill="#F7C283" d="M216.393,199.705l0.601,1.307l-23.549,11.972v0.001c-0.139,0.069-0.415-0.23-0.616-0.669
			s-0.253-0.85-0.114-0.92L216.393,199.705z"/>
		<path fill="#FF4376" d="M220.328,187.694c-4.664,2.301-6.489,7.832-4.212,12.779c2.273,4.945,7.89,7.065,12.54,4.736
			c4.651-2.33,6.577-8.229,4.303-13.176c-1.522-3.31-4.215-5.356-7.615-4.918C223.749,186.971,222.702,186.523,220.328,187.694z"/>
		<path fill="#D42E5B" d="M226.766,197.543c-0.554,0.928-2.586,1.184-3.491-0.594c-0.906-1.777,0.638-3.592,2.557-3.792
			c1.921-0.199,4.184,3.429,2.693,6.463c1.695-2.058,1.371-3.98,1.371-3.98s-1.125-3.546-2.168-4.064
			c-1.043-0.521-3.265-0.634-4.448,0.479c-1.185,1.114-1.641,2.328-1.606,3.352c0.034,1.025,0.184,1.88,0.519,2.344
			c0.337,0.465,1.877,1.646,2.33,1.493c0.455-0.153,2.285-0.698,2.357-0.808"/>
		<path fill="#D42E5B" d="M215.905,195.415c0.081,9.221,7.588,11.108,12.289,10.009c-4.555,1.972-9.88-0.169-12.078-4.951
			c-2.277-4.947-0.452-10.478,4.212-12.779c2.374-1.17,3.421-0.723,5.016-0.579c2.588-0.333,4.763,0.774,6.325,2.78
			c-1.806-1.934-4.066-2.457-6.433-1.646c-3.054,1.046-6.877,4.822-4.75,9.597c2.126,4.774,6.394,3.864,9.291,2.784
			c-2.758,4.804-9.584,3.349-11.898-2.52c-2.316-5.871,3.577-9.865,3.381-10.139C221.064,187.697,215.857,189.955,215.905,195.415z"
			/>
		<path fill="#FFD754" d="M225.121,197.047c0.038-0.062-0.159-0.194-0.272-0.503c-0.055-0.156-0.063-0.353,0.021-0.558
			c0.079-0.202,0.256-0.415,0.493-0.491c0.233-0.082,0.506-0.024,0.777,0.201c0.133,0.11,0.272,0.264,0.376,0.424
			c0.104,0.163,0.181,0.347,0.22,0.543c0.039,0.198,0.043,0.411,0.003,0.62c-0.043,0.211-0.127,0.417-0.249,0.602
			c-0.123,0.183-0.288,0.338-0.477,0.457c-0.193,0.115-0.415,0.184-0.655,0.208c-0.476,0.05-1.046-0.119-1.567-0.434
			c-0.504-0.306-0.912-0.762-1.096-1.337c-0.094-0.287-0.139-0.597-0.126-0.915c0.018-0.319,0.088-0.644,0.211-0.955
			c0.246-0.623,0.709-1.177,1.306-1.563c0.299-0.193,0.633-0.343,0.986-0.451c0.348-0.105,0.702-0.151,1.051-0.133
			c0.349,0.02,0.692,0.104,1.016,0.254c0.321,0.156,0.625,0.374,0.896,0.647c0.267,0.277,0.498,0.608,0.688,0.972
			c0.184,0.366,0.322,0.766,0.409,1.183c0.173,0.833,0.129,1.737-0.135,2.56c-0.264,0.815-0.751,1.531-1.383,2.064
			c-0.633,0.532-1.393,0.887-2.176,1.047c-0.784,0.146-1.589,0.117-2.32-0.123c-0.735-0.229-1.396-0.647-1.935-1.19
			c-0.55-0.534-0.965-1.208-1.287-1.904c-0.321-0.699-0.522-1.426-0.601-2.146c-0.082-0.717-0.054-1.426,0.062-2.094
			c0.117-0.668,0.323-1.294,0.576-1.866c0.512-1.146,1.215-2.065,1.931-2.753c0.357-0.345,0.715-0.645,1.065-0.886
			c0.171-0.128,0.348-0.228,0.509-0.337c0.17-0.093,0.329-0.191,0.484-0.271c0.624-0.321,1.144-0.51,1.501-0.628
			c0.356-0.122,0.552-0.197,0.546-0.264c-0.005-0.061-0.214-0.109-0.609-0.104c-0.396,0.004-0.979,0.087-1.701,0.328
			c-0.18,0.061-0.364,0.139-0.561,0.219c-0.191,0.093-0.397,0.178-0.6,0.297c-0.412,0.217-0.837,0.503-1.269,0.847
			c-0.86,0.688-1.731,1.657-2.403,2.942c-0.33,0.643-0.613,1.364-0.792,2.158c-0.177,0.791-0.252,1.653-0.185,2.543
			c0.062,0.89,0.28,1.803,0.646,2.673c0.047,0.109,0.093,0.217,0.14,0.326c0.049,0.109,0.105,0.214,0.159,0.321
			c0.056,0.106,0.107,0.215,0.169,0.32c0.063,0.104,0.126,0.207,0.189,0.313c0.061,0.106,0.13,0.209,0.203,0.308
			c0.072,0.1,0.143,0.201,0.217,0.302c0.078,0.096,0.158,0.193,0.239,0.289c0.078,0.099,0.162,0.193,0.252,0.281
			c0.694,0.735,1.583,1.333,2.576,1.664c0.992,0.344,2.075,0.404,3.126,0.22c1.051-0.198,2.073-0.66,2.946-1.384
			c0.87-0.725,1.572-1.734,1.944-2.895c0.368-1.153,0.423-2.388,0.175-3.552c-0.125-0.58-0.322-1.142-0.593-1.665
			c-0.273-0.52-0.618-1.002-1.028-1.416c-0.413-0.411-0.894-0.751-1.415-0.99c-0.523-0.235-1.087-0.36-1.637-0.377
			s-1.087,0.072-1.578,0.234c-0.483,0.157-0.95,0.381-1.372,0.671c-0.845,0.577-1.517,1.418-1.862,2.39
			c-0.174,0.485-0.269,0.997-0.275,1.513c-0.002,0.514,0.09,1.028,0.267,1.502c0.175,0.473,0.445,0.898,0.766,1.245
			c0.32,0.349,0.688,0.618,1.064,0.822c0.377,0.201,0.748,0.342,1.15,0.431c0.398,0.088,0.813,0.11,1.216,0.043
			s0.79-0.219,1.118-0.451c0.325-0.233,0.594-0.535,0.781-0.87c0.187-0.336,0.302-0.7,0.342-1.065
			c0.039-0.365,0.004-0.729-0.095-1.057c-0.098-0.331-0.257-0.625-0.447-0.865c-0.197-0.243-0.402-0.424-0.638-0.576
			c-0.233-0.15-0.499-0.255-0.769-0.279c-0.271-0.028-0.536,0.037-0.749,0.151c-0.431,0.235-0.646,0.64-0.712,0.999
			c-0.068,0.366,0.034,0.698,0.176,0.888c0.143,0.198,0.302,0.283,0.403,0.322C225.05,197.079,225.108,197.073,225.121,197.047z"/>
		<path fill="#E37C1B" fill-opacity="0.3" d="M223.657,187.25c0.722-0.241,1.305-0.324,1.701-0.328
			c0.396-0.005,0.604,0.044,0.609,0.104c0.006,0.066-0.189,0.142-0.546,0.264c-0.357,0.119-0.877,0.307-1.501,0.628
			c-0.155,0.08-0.314,0.178-0.484,0.271c-0.161,0.109-0.338,0.209-0.509,0.337c-0.351,0.241-0.708,0.541-1.065,0.886
			c-0.716,0.688-1.419,1.607-1.931,2.753c-0.253,0.571-0.459,1.197-0.576,1.866c-0.115,0.668-0.144,1.377-0.062,2.094
			c0.078,0.721,0.279,1.447,0.601,2.146c0.322,0.696,0.737,1.371,1.287,1.904c0.539,0.542,1.199,0.961,1.935,1.19
			c0.731,0.24,1.536,0.27,2.32,0.123c0.783-0.16,1.543-0.516,2.176-1.047c0.632-0.534,1.119-1.25,1.383-2.064
			c0.264-0.823,0.308-1.728,0.135-2.56c-0.087-0.417-0.226-0.816-0.409-1.183c-0.189-0.364-0.421-0.695-0.688-0.972
			c-0.271-0.273-0.574-0.491-0.896-0.647c-0.323-0.15-0.667-0.234-1.016-0.254c-0.349-0.019-0.703,0.028-1.051,0.133
			c-0.354,0.107-0.688,0.257-0.986,0.451c-0.381,0.247-0.708,0.562-0.957,0.921c0.765-2.332,4.466-2.602,6.023-0.356
			c1.21,1.743,0.938,4.887-0.476,6.378c-1.414,1.488-6.938,3.279-9.081-2.174c-2.142-5.456,2.391-9.288,1.943-9.064
			c-0.447,0.224-4.701,3.638-2.57,9.238c1.993,5.238,7.53,5.16,9.868,3.49c-0.042,0.037-0.082,0.075-0.124,0.111
			c-0.873,0.724-1.896,1.186-2.946,1.384c-1.051,0.185-2.134,0.124-3.126-0.22c-0.993-0.331-1.882-0.929-2.576-1.664
			c-0.09-0.088-0.174-0.183-0.252-0.281c-0.081-0.096-0.161-0.193-0.239-0.289c-0.074-0.101-0.145-0.202-0.217-0.302
			c-0.073-0.099-0.143-0.202-0.203-0.308c-0.063-0.105-0.127-0.209-0.189-0.313c-0.062-0.105-0.113-0.214-0.169-0.32
			c-0.054-0.106-0.11-0.212-0.159-0.321c-0.047-0.109-0.093-0.217-0.14-0.326c-0.366-0.87-0.585-1.783-0.646-2.673
			c-0.067-0.89,0.008-1.752,0.185-2.543c0.179-0.794,0.462-1.515,0.792-2.158c0.672-1.285,1.543-2.254,2.403-2.942
			c0.432-0.344,0.856-0.63,1.269-0.847c0.202-0.119,0.408-0.204,0.6-0.297C223.293,187.39,223.478,187.312,223.657,187.25z"/>
		<path fill="#E37C1B" fill-opacity="0.3" d="M221.797,196.816c0.867,2.693,3.166,3.364,4.782,2.625
			c-0.313,0.205-0.672,0.345-1.046,0.406c-0.402,0.067-0.817,0.045-1.216-0.043c-0.402-0.089-0.773-0.23-1.15-0.431
			c-0.377-0.204-0.744-0.473-1.064-0.822c-0.32-0.346-0.591-0.772-0.766-1.245c-0.177-0.474-0.269-0.988-0.267-1.502
			c0.007-0.516,0.102-1.028,0.275-1.513c0.346-0.972,1.018-1.813,1.862-2.39c0.243-0.167,0.501-0.309,0.769-0.433
			C222.624,192.432,221.085,194.611,221.797,196.816z"/>
		<path fill="#E37C1B" fill-opacity="0.3" d="M225.702,198.479c0.109-0.034,0.214-0.081,0.311-0.137
			c0.188-0.118,0.354-0.273,0.477-0.457c0.122-0.185,0.206-0.391,0.249-0.602c0.04-0.209,0.036-0.422-0.003-0.62
			c-0.039-0.197-0.115-0.381-0.22-0.543c-0.104-0.16-0.243-0.314-0.376-0.424c-0.271-0.225-0.544-0.283-0.777-0.201
			c-0.237,0.077-0.414,0.29-0.493,0.491c-0.083,0.205-0.075,0.401-0.021,0.558c0.113,0.31,0.311,0.441,0.272,0.503
			c-0.013,0.026-0.071,0.032-0.177-0.002c-0.102-0.039-0.261-0.125-0.403-0.322c-0.142-0.19-0.244-0.522-0.176-0.888
			c0.066-0.359,0.281-0.764,0.712-0.999c0.213-0.114,0.478-0.18,0.749-0.151c0.102,0.009,0.203,0.033,0.303,0.064
			c-0.575,0.031-1.135,0.281-1.392,0.63c-0.296,0.406-0.148,1.006,0.083,0.407c0.46-0.827,1.59-0.612,2.07,0.394
			C227.286,197.009,226.921,198.285,225.702,198.479z"/>
		<path fill="#FF99B5" d="M232.324,200.617c-0.559,0.521,0.376-2.476,0.251-4.683c-0.084-1.473-0.507-3.409-0.29-3.424
			c0.224-0.017,0.803,1.655,1.014,3.118C233.545,197.332,233.17,199.832,232.324,200.617z"/>
		<path fill="#FF99B5" d="M231.875,201.141c0.245,0.298-0.215,1.53-0.766,1.359C230.559,202.33,231.518,200.705,231.875,201.141z"/>
		<path fill="#F7D4AA" d="M215.469,201.059c-0.631,0.965-21.901,11.761-22.152,11.328
			C193.064,211.954,215.469,201.059,215.469,201.059z"/>
	</g>
	<g>
		<g>
			<path fill="#0A0A0A" d="M186.289,193.188l0.618-0.502c-14.712-17.385-20.525-20.35-20.762-20.468l-0.363,0.7
				C165.84,172.945,171.733,175.992,186.289,193.188L186.289,193.188z"/>
		</g>
	</g>
	<g>
		<g>
			<path fill="#0A0A0A" d="M141.164,254.538l0.767-0.222c-6.469-21.428-4.165-39.373-4.145-39.552l-0.793-0.101
				C136.967,214.842,134.641,232.954,141.164,254.538L141.164,254.538z"/>
		</g>
	</g>
	<g>
		<g>
			<path fill="#0A0A0A" d="M184.564,248.2l0.539-0.589c-5.795-5.085-13.994-26.153-14.075-26.36l-0.756,0.275
				C170.611,222.399,178.628,242.987,184.564,248.2L184.564,248.2z"/>
		</g>
	</g>
	<g>
		<g>
			<g>
				<path fill="#ABA82B" d="M161.359,173.083c0,0-4.688-1.172-7.71,3.549c-3.013,4.724-19.716,20.326-27.354,21.373
					c0,0-1.011,16.521,14.18,23.384c15.187,6.854,35.305,7.845,36.111-2.48c0.809-10.322-0.101-40.566-7.446-45.299
					C161.798,168.871,161.359,173.083,161.359,173.083z"/>
			</g>
		</g>
		<g>
			<g>
				<path fill="#0A0A0A" d="M162.99,226.801c-6.896,0-15.344-1.958-22.599-5.238c-15.141-6.836-14.312-23.405-14.304-23.568
					l0.013-0.162l0.165-0.024c7.333-1.008,24.052-16.328,27.218-21.273c2.096-3.287,5.012-3.777,6.563-3.777
					c0.525,0,0.931,0.055,1.157,0.097c0.133-0.498,0.632-1.69,2.391-1.69c1.405,0,3.311,0.765,5.659,2.281
					c7.408,4.779,8.391,34.472,7.529,45.479C176.396,223.929,171.367,226.801,162.99,226.801L162.99,226.801z M163.595,171.555
					c-1.843,0-2.027,1.487-2.031,1.55l-0.022,0.225l-0.228-0.051c-0.005,0-0.507-0.127-1.267-0.127c-1.47,0-4.229,0.467-6.224,3.588
					c-2.839,4.442-19.307,20.146-27.337,21.433c-0.046,1.709-0.022,16.67,14.072,23.034c7.209,3.256,15.594,5.201,22.432,5.201
					c4.785,0,12.887-0.978,13.393-7.515c0.826-10.587-0.185-40.496-7.353-45.122C166.753,172.303,164.922,171.555,163.595,171.555
					L163.595,171.555z"/>
			</g>
		</g>
	</g>
	<g>
		<g>
			<g>
				<path fill="#85823A" d="M171.051,171.512c0,0,0.069,8.407-5.831,8.993c-5.9,0.589-6.237-10.972-6.237-10.972L171.051,171.512z"
					/>
			</g>
		</g>
		<g>
			<g>
				<path fill="#0A0A0A" d="M164.788,180.726c-5.62,0-5.993-10.729-6.007-11.187l-0.008-0.24l12.475,2.048v0.165
					c0,0.092,0.002,8.59-6.01,9.187C165.086,180.713,164.933,180.726,164.788,180.726L164.788,180.726L164.788,180.726z
					 M170.844,171.683l-11.652-1.915c0.096,1.638,0.816,11.063,6.007,10.544C170.398,179.79,170.812,172.848,170.844,171.683
					L170.844,171.683z"/>
			</g>
		</g>
	</g>
	<g>
		<g>
			<g>
				<path fill="#FFD9B3" d="M170.304,170.213c0,0,0.349,8.455-5.084,8.129c-5.434-0.324-4.63-8.657-3.892-10.424
					C162.064,166.154,170.304,170.213,170.304,170.213z"/>
			</g>
		</g>
		<g>
			<g>
				<path fill="#0A0A0A" d="M165.519,178.546c-0.104,0-0.204,0-0.315-0.008c-1.484-0.09-2.638-0.756-3.43-1.991
					c-1.709-2.652-1.215-7.303-0.632-8.706c0.158-0.372,0.563-0.561,1.212-0.561c2.41,0,7.813,2.648,8.036,2.763l0.109,0.053
					l0.004,0.113c0.008,0.198,0.174,4.874-2.055,7.142c-0.782,0.796-1.766,1.195-2.927,1.195
					C165.519,178.546,165.519,178.546,165.519,178.546L165.519,178.546z M170.102,170.339c-0.783-0.378-5.612-2.668-7.748-2.668
					c-0.467,0-0.751,0.107-0.836,0.321c-0.546,1.307-1.012,5.844,0.598,8.345c0.719,1.12,1.768,1.728,3.116,1.81
					c0.098,0.006,0.196,0.008,0.287,0.008c0,0,0,0,0.003,0c1.048,0,1.932-0.36,2.634-1.073
					C170.082,175.119,170.115,171.076,170.102,170.339L170.102,170.339z"/>
			</g>
		</g>
	</g>
	<g>
		<g>
			<g>
				<g>
					<path fill="#FFE00A" d="M106.453,141.885c0-4.734,3.303-8.7,7.777-9.843c0.482-2.297,2.563-4.022,5.053-4.022
						c0.519,0,1.016,0.074,1.482,0.211c0.364-2.084,2.031-3.73,4.154-4.108c-1.265-1.766-2.019-3.916-2.019-6.236
						c0-6.019,4.987-10.891,11.143-10.891c2.412,0,4.638,0.752,6.46,2.023c1.377-1.634,3.466-2.679,5.807-2.679
						c1.678,0,3.226,0.545,4.473,1.458c0.443-4.486,4.305-7.997,9.01-7.997c2.854,0,5.397,1.299,7.057,3.311
						c0.863-0.343,1.805-0.528,2.795-0.528c3.023,0,5.619,1.745,6.813,4.258c1.248-0.9,2.782-1.438,4.452-1.438
						c4.149,0,7.515,3.284,7.515,7.343c0,1.938-0.774,3.693-2.032,5.006c0.055,0.041,0.117,0.076,0.172,0.112
						c1.26-2.331,3.762-3.924,6.646-3.924c4.059,0,7.359,3.146,7.499,7.082c1.929,0.071,3.519,1.426,3.882,3.22
						c1.09-0.301,2.241-0.479,3.436-0.479c6.924,0,12.534,5.485,12.534,12.252c0,4.832-2.866,8.994-7.023,10.987
						c0.021,0.206,0.034,0.411,0.034,0.619c0,1.956-0.978,3.687-2.48,4.76c0.16,0.593,0.255,1.217,0.255,1.862
						c0,4.053-3.367,7.342-7.515,7.342c-0.304,0-0.599-0.027-0.896-0.06c-0.637,2.588-3.019,4.513-5.865,4.513
						c-3.331,0-6.034-2.64-6.034-5.896c0-0.207,0.011-0.407,0.035-0.611c-11.177,3.503-27.168,7.963-37.272,9.803
						c-0.252,3.031-2.844,5.414-6.009,5.414c-1.823,0-3.445-0.791-4.554-2.032c-1.219,2.396-3.751,4.057-6.687,4.057
						c-4.123,0-7.461-3.268-7.461-7.296c0-0.141,0.013-0.269,0.022-0.406c-1.368,1.496-3.353,2.441-5.566,2.441
						c-4.125,0-7.466-3.263-7.466-7.29c0-1.115,0.264-2.172,0.724-3.12c-2.145-1.281-3.577-3.585-3.577-6.216
						c0-1.159,0.28-2.246,0.776-3.223C109.641,150.442,106.453,146.532,106.453,141.885z"/>
				</g>
			</g>
			<g>
				<g>
					<path fill="#0A0A0A" d="M136.549,176.966c-4.188,0-7.604-3.305-7.661-7.383c-1.428,1.359-3.349,2.131-5.344,2.131
						c-4.229,0-7.667-3.364-7.667-7.492c0-1.05,0.224-2.073,0.671-3.047c-2.213-1.385-3.526-3.724-3.526-6.289
						c0-1.076,0.232-2.112,0.696-3.099c-4.41-1.338-7.466-5.378-7.466-9.902c0-4.672,3.205-8.769,7.806-10.001
						c0.557-2.361,2.736-4.06,5.226-4.06c0.445,0,0.895,0.053,1.331,0.162c0.425-1.964,1.98-3.524,3.972-3.996
						c-1.236-1.818-1.887-3.925-1.887-6.104c0-6.115,5.09-11.088,11.345-11.088c2.304,0,4.524,0.676,6.426,1.959
						c1.469-1.664,3.588-2.614,5.841-2.614c1.548,0,3.032,0.447,4.313,1.302c0.611-4.492,4.494-7.838,9.17-7.838
						c2.766,0,5.353,1.188,7.119,3.27c0.877-0.323,1.799-0.49,2.732-0.49c2.909,0,5.583,1.624,6.891,4.157
						c1.295-0.873,2.802-1.336,4.374-1.336c4.256,0,7.715,3.38,7.715,7.539c0,1.04-0.22,2.054-0.632,2.984
						c1.398-1.257,3.247-1.987,5.217-1.987c4.111,0,7.453,3.103,7.692,7.093c1.852,0.147,3.392,1.41,3.839,3.158
						c1.091-0.283,2.194-0.426,3.285-0.426c7.023,0,12.736,5.582,12.736,12.447c0,4.727-2.683,8.972-7.012,11.105
						c0.014,0.167,0.02,0.328,0.02,0.501c0,1.887-0.916,3.687-2.451,4.837c0.152,0.599,0.228,1.199,0.228,1.785
						c0,4.154-3.457,7.536-7.716,7.536c-0.229,0-0.477-0.013-0.748-0.04c-0.734,2.656-3.181,4.497-6.013,4.497
						c-3.438,0-6.234-2.734-6.234-6.095c0-0.115,0.005-0.222,0.012-0.333c-11.369,3.551-27.058,7.889-36.863,9.688
						c-0.337,3.069-3.024,5.448-6.194,5.448c-1.705,0-3.332-0.688-4.51-1.893C141.931,175.475,139.382,176.966,136.549,176.966
						L136.549,176.966z M143.191,172.36l0.195,0.225c1.112,1.251,2.717,1.966,4.402,1.966c3.012,0,5.563-2.297,5.808-5.233
						l0.014-0.152l0.148-0.022c9.863-1.798,25.813-6.215,37.247-9.8l0.296-0.089l-0.034,0.301c-0.018,0.194-0.03,0.389-0.03,0.588
						c0,3.147,2.615,5.699,5.832,5.699c2.704,0,5.036-1.788,5.669-4.361l0.04-0.168l0.181,0.019
						c0.288,0.034,0.577,0.055,0.871,0.055c4.034,0,7.31-3.203,7.31-7.142c0-0.594-0.078-1.202-0.243-1.818l-0.035-0.126
						l0.111-0.079c1.498-1.074,2.396-2.791,2.396-4.599c0-0.202-0.012-0.403-0.034-0.597l-0.013-0.14l0.126-0.058
						c4.261-2.047,6.912-6.188,6.912-10.813c0-6.649-5.536-12.055-12.335-12.055c-1.12,0-2.256,0.156-3.379,0.473l-0.212,0.058
						l-0.04-0.211c-0.354-1.732-1.872-2.998-3.693-3.067l-0.188-0.004l-0.005-0.182c-0.14-3.863-3.345-6.889-7.299-6.889
						c-2.715,0-5.196,1.461-6.468,3.819l-0.104,0.191l-0.554-0.365l0.164-0.163c1.274-1.331,1.974-3.062,1.974-4.875
						c0-3.943-3.279-7.143-7.312-7.143c-1.563,0-3.063,0.479-4.331,1.396l-0.201,0.146l-0.1-0.22
						c-1.197-2.522-3.799-4.15-6.633-4.15c-0.93,0-1.848,0.176-2.719,0.519l-0.137,0.052l-0.096-0.111
						c-1.693-2.058-4.21-3.235-6.9-3.235c-4.583,0-8.371,3.358-8.808,7.812l-0.031,0.353l-0.29-0.21
						c-1.271-0.923-2.781-1.419-4.354-1.419c-2.193,0-4.251,0.956-5.651,2.609l-0.119,0.143l-0.15-0.104
						c-1.871-1.304-4.062-1.991-6.346-1.991c-6.032,0-10.938,4.792-10.938,10.693c0,2.197,0.683,4.316,1.981,6.121l0.179,0.246
						l-0.31,0.063c-2.037,0.362-3.643,1.95-3.99,3.946l-0.039,0.22l-0.219-0.063c-0.462-0.138-0.942-0.206-1.425-0.206
						c-2.345,0-4.385,1.626-4.856,3.866l-0.024,0.121l-0.12,0.029c-4.493,1.151-7.632,5.117-7.632,9.654
						c0,4.431,3.048,8.372,7.4,9.593l0.231,0.064l-0.109,0.213c-0.495,0.985-0.746,2.042-0.746,3.131
						c0,2.485,1.297,4.746,3.482,6.051l0.151,0.095l-0.077,0.158c-0.466,0.961-0.702,1.982-0.702,3.032
						c0,3.912,3.254,7.098,7.263,7.098c2.06,0,4.032-0.867,5.413-2.377l0.384-0.423l-0.04,0.683
						c-0.007,0.091-0.016,0.187-0.016,0.274c0,3.917,3.262,7.098,7.264,7.098c2.776,0,5.268-1.514,6.507-3.951L143.191,172.36
						L143.191,172.36z"/>
				</g>
			</g>
		</g>
		<g>
			<g>
				<path fill="#0A0A0A" d="M135.861,161.443c1.236-1.273,1.822-2.603,1.744-3.948c-0.085-1.471-0.933-2.563-1.423-3.078
					c3.302-0.243,3.896-2.046,4.002-2.668c1.615,0.088,2.776-0.322,3.452-1.212c1.046-1.367,0.645-3.501,0.336-4.596
					c0.868,0.687,2.678,1.847,4.799,1.813c1.678-0.034,3.22-0.813,4.596-2.31c3.59-3.914,2.061-7.759,1.127-9.363
					c1.333,0.721,4.158,1.81,7.454,0.369c3.322-1.453,3.993-4.691,4.119-6.228c0.67,1.145,2.346,3.108,5.819,2.571
					c1.589-0.24,2.737-0.857,3.426-1.829c0.626-0.879,0.708-1.84,0.687-2.409c0.969,0.771,3.593,2.612,6.34,2.338
					c3.043-0.295,4.077-3.172,4.289-3.884c0.452-0.002,0.793-0.137,1.02-0.399c0.188-0.222,0.257-0.495,0.277-0.736
					c0.47,0.446,1.321,1.09,2.335,1.126c0.801,0.043,1.531-0.311,2.198-1.017c0.894-0.952,1.167-2.111,0.784-3.357
					c-0.403-1.312-1.406-2.328-1.725-2.407l-0.096,0.383l0.049-0.188l-0.051,0.188c0.169,0.063,1.188,1.046,1.498,2.355
					c0.246,1.036-0.006,1.964-0.756,2.759c-0.583,0.62-1.205,0.928-1.885,0.895c-1.342-0.055-2.426-1.386-2.435-1.405l-0.356,0.167
					c0.002,0.009,0.155,0.633-0.149,0.986c-0.166,0.192-0.452,0.283-0.846,0.252l-0.174-0.011l-0.038,0.165
					c-0.008,0.035-0.817,3.428-3.98,3.737c-3.234,0.31-6.383-2.536-6.413-2.563l-0.461-0.424l0.123,0.605
					c0.003,0.014,0.287,1.427-0.569,2.629c-0.621,0.87-1.684,1.43-3.154,1.658c-4.475,0.685-5.731-3.038-5.743-3.08l-0.393,0.077
					c0,0.047,0.256,4.866-3.906,6.686c-4.326,1.895-7.803-0.798-7.836-0.825l-0.283,0.277c0.16,0.19,3.856,4.784-0.602,9.639
					c-1.292,1.417-2.741,2.147-4.3,2.18c-2.763,0.059-5.038-2.163-5.059-2.185l-0.33,0.208c0.007,0.029,1.237,3.226-0.06,4.922
					c-0.619,0.805-1.728,1.161-3.295,1.037l-0.215-0.013v0.211c0,0.098-0.066,2.396-4.097,2.505l-0.527,0.014l0.406,0.334
					c0.013,0.012,1.512,1.263,1.619,3.122c0.07,1.235-0.479,2.463-1.638,3.653L135.861,161.443L135.861,161.443z"/>
			</g>
		</g>
		<g>
			<g>
				<g>
					<path fill="#FFD9B3" d="M143.561,145.363c0,0,5.027,5.046,9.657,0c4.625-5.042,0.601-9.893,0.601-9.893s3.55,2.818,8.048,0.849
						c4.341-1.899,4.023-6.88,4.023-6.88s1.272,3.931,5.968,3.208c4.693-0.717,3.889-4.519,3.889-4.519s3.219,2.946,6.57,2.621
						c3.353-0.329,4.156-3.892,4.156-3.892c0.27,0.016,0.481-0.018,0.652-0.079c2.354,2.051,5.429,5.715,7.39,11.872
						c3.583,11.222,0.477,30.863-18.434,35.481c-18.949,4.631-34.632-7.338-36.077-22.543
						C146.176,152.048,143.561,145.363,143.561,145.363z"/>
				</g>
			</g>
			<g>
				<g>
					<path fill="#0A0A0A" d="M167.903,175.337c-14.739,0-26.819-10.205-28.1-23.729l-0.02-0.233l0.234,0.019
						c1.651,0.127,2.745-0.257,3.347-1.113c1.206-1.712,0.015-4.817,0.008-4.845l0.33-0.209c0.021,0.024,2.212,2.186,4.952,2.186
						c1.603,0,3.084-0.734,4.406-2.177c4.458-4.864,0.762-9.448,0.602-9.644l0.283-0.276c0.019,0.017,1.935,1.504,4.667,1.504
						c1.072,0,2.138-0.23,3.169-0.679c4.162-1.819,3.906-6.642,3.906-6.688l0.393-0.072c0.012,0.032,1.066,3.158,4.664,3.158
						c0.346,0,0.709-0.022,1.079-0.079c1.471-0.23,2.533-0.786,3.154-1.661c0.856-1.202,0.572-2.621,0.569-2.627l-0.123-0.605
						l0.461,0.421c0.028,0.027,3.175,2.884,6.413,2.568c3.163-0.312,3.973-3.705,3.98-3.738l0.038-0.17l0.174,0.015
						c0.219,0.016,0.402-0.006,0.558-0.069l0.118-0.04l0.088,0.082c2.298,1.999,5.455,5.696,7.451,11.953
						c1.859,5.812,2.307,15.575-2.519,23.982c-3.427,5.959-8.977,10.022-16.059,11.754
						C173.375,174.997,170.606,175.337,167.903,175.337L167.903,175.337z M187.076,127.001c-0.138,0.037-0.284,0.056-0.448,0.056
						c-0.212,0.716-1.246,3.591-4.289,3.888c-2.747,0.268-5.374-1.567-6.34-2.345c0.021,0.572-0.061,1.537-0.687,2.416
						c-0.688,0.97-1.837,1.585-3.426,1.832c-0.39,0.053-0.775,0.084-1.142,0.084c-2.709,0-4.09-1.647-4.68-2.658
						c-0.124,1.535-0.795,4.773-4.117,6.23c-1.08,0.468-2.209,0.711-3.335,0.711c-1.813,0-3.263-0.606-4.109-1.075
						c0.93,1.616,2.441,5.449-1.137,9.354c-1.405,1.535-2.989,2.31-4.712,2.31c-2.093-0.002-3.831-1.137-4.683-1.813
						c0.304,1.068,0.694,3.139-0.271,4.511c-0.661,0.94-1.807,1.375-3.474,1.301c1.377,13.21,13.229,23.145,27.676,23.145
						c2.673,0,5.411-0.34,8.134-1.008c6.965-1.7,12.426-5.696,15.799-11.563c4.766-8.293,4.317-17.93,2.487-23.673
						C192.378,132.611,189.326,128.985,187.076,127.001L187.076,127.001z"/>
				</g>
			</g>
		</g>
		<g>
			<g>
				<g>
					<g>
						<polygon fill="#E32C3B" points="164.062,110.586 159.651,115.837 159.114,110.586 163.505,115.364 						"/>
					</g>
				</g>
				<g>
					<g>
						<path fill="#0A0A0A" d="M159.502,116.333l-0.646-6.325l2.835,3.094l2.646-3.154l-0.681,5.877l-1.949-2.119L159.502,116.333
							L159.502,116.333z M161.438,113.405l-2.062-2.24l0.428,4.188L161.438,113.405L161.438,113.405z M163.784,111.227l-1.819,2.172
							l1.395,1.508L163.784,111.227L163.784,111.227z"/>
					</g>
				</g>
			</g>
			<g>
				<g>
					<g>
						<polygon fill="#0AA4E4" points="134.575,134.2 136.319,139.874 129.748,137.037 131.869,141.576 						"/>
					</g>
				</g>
				<g>
					<g>
						<path fill="#0A0A0A" d="M131.891,142.102l-2.55-5.447l3.562,1.53l1.688-4.611l2.046,6.657l-3.503-1.514L131.891,142.102
							L131.891,142.102z M132.764,138.555l-2.615-1.128l1.699,3.635L132.764,138.555L132.764,138.555z M134.557,134.828
							l-1.288,3.516l2.731,1.184L134.557,134.828L134.557,134.828z"/>
					</g>
				</g>
			</g>
			<g>
				<g>
					<g>
						<polygon fill="#894BA0" points="133.03,159.438 133.03,163.562 127.502,161.307 129.312,165.139 						"/>
					</g>
				</g>
				<g>
					<g>
						<path fill="#0A0A0A" d="M129.278,165.546l-2.18-4.616l3.728,1.521l2.407-3.69v5.094l-2.25-0.914L129.278,165.546
							L129.278,165.546z M130.609,162.785l-2.711-1.103l1.438,3.045L130.609,162.785L130.609,162.785z M132.832,160.109
							l-1.627,2.496l1.627,0.663V160.109L132.832,160.109z"/>
					</g>
				</g>
			</g>
			<g>
				<g>
					<g>
						<polygon fill="#87CD62" points="203.946,131.324 201.027,136.632 199.119,130.438 196.261,134.768 						"/>
					</g>
				</g>
				<g>
					<g>
						<path fill="#0A0A0A" d="M200.977,137.142l-1.161-3.751l-4.1,1.831l3.469-5.246l0.886,2.866l4.334-1.941L200.977,137.142
							L200.977,137.142z M203.484,131.749l-3.299,1.474l0.896,2.897L203.484,131.749L203.484,131.749z M199.7,133.01l-0.652-2.109
							l-2.245,3.406L199.7,133.01L199.7,133.01z"/>
					</g>
				</g>
			</g>
			<g>
				<g>
					<g>
						<path fill="#FFC4D1" d="M200.427,151.576l-1.813,3.832l5.936-1.164c0,0-3.22,3.032-2.969,2.739
							C201.832,156.688,200.427,151.576,200.427,151.576z"/>
					</g>
				</g>
				<g>
					<g>
						<path fill="#0A0A0A" d="M201.567,157.193h-0.13l-0.114-0.205l0.082-0.099c0.012-0.049,0.032-0.334-0.289-1.774l-2.851,0.562
							l2.209-4.677l0.147,0.525c0.004,0.013,0.455,1.667,0.8,3.133l3.76-0.737l-0.494,0.463
							C201.704,157.193,201.676,157.193,201.567,157.193L201.567,157.193z M203.915,154.564l-2.406,0.472l0,0
							c0.167,0.748,0.252,1.211,0.289,1.506C202.267,156.109,203.146,155.285,203.915,154.564L203.915,154.564z M201.027,154.731
							c-0.223-0.947-0.489-1.975-0.654-2.577l-1.412,2.982L201.027,154.731L201.027,154.731z"/>
					</g>
				</g>
			</g>
		</g>
		<g>
			<g>
				<path d="M164.462,148.159c0,1.073,0.538,1.947,1.205,1.947c0.664,0,1.204-0.874,1.204-1.947c0-1.079-0.54-1.953-1.204-1.953
					C165,146.206,164.462,147.08,164.462,148.159z"/>
			</g>
		</g>
		<g>
			<g>
				<path d="M183.456,146.461c0.234,1.05,0.948,1.788,1.6,1.656c0.65-0.142,0.989-1.103,0.752-2.161
					c-0.236-1.053-0.95-1.787-1.601-1.647C183.558,144.445,183.221,145.412,183.456,146.461z"/>
			</g>
		</g>
		<g>
			<g>
				<path fill="#0A0A0A" d="M190.515,155.452c0.221,0,0.449-0.021,0.694-0.066l-0.074-0.389c-2.782,0.516-3.463-2.533-3.487-2.661
					l-0.396,0.079C187.258,152.447,187.918,155.452,190.515,155.452L190.515,155.452z"/>
			</g>
		</g>
		<g>
			<g>
				<path fill="#0A0A0A" d="M155.786,158.467c4.106-0.422,5.186-3.691,5.203-3.729l-0.39-0.115c-0.039,0.124-1.019,3.059-4.856,3.45
					L155.786,158.467L155.786,158.467z"/>
			</g>
		</g>
		<g>
			<g>
				<g>
					<path fill="#FF9F80" d="M188.857,154.882c0,0-3.619,14.094-14.384,14.877c-10.763,0.791-16.092-10.714-15.843-12.188
						C158.631,157.571,179.201,167.628,188.857,154.882z"/>
				</g>
			</g>
			<g>
				<g>
					<path fill="#0A0A0A" d="M173.427,169.993c-5.389,0-9.148-3.027-11.352-5.569c-2.604-3.005-3.772-6.121-3.642-6.886l0.044-0.26
						l0.243,0.116c0.08,0.037,7.762,3.748,15.813,3.748c6.188,0,10.957-2.145,14.162-6.376l0.354,0.165
						c-0.036,0.141-3.778,14.233-14.563,15.024C174.125,169.986,173.771,169.993,173.427,169.993L173.427,169.993z M188.36,155.813
						c-3.264,3.796-7.905,5.724-13.826,5.724c-7.243,0-14.189-2.966-15.695-3.65c0.154,0.986,1.288,3.678,3.547,6.285
						c2.289,2.638,6.313,5.816,12.072,5.397C183.299,168.913,187.3,159.004,188.36,155.813L188.36,155.813z"/>
				</g>
			</g>
		</g>
		<g>
			<g>
				<path fill="#FFFFFF" d="M180.578,160.707c0,0-0.119,4.749-4.694,4.896c-4.578,0.151-9.921-5.269-9.921-5.269
					S173.359,162.594,180.578,160.707z"/>
			</g>
		</g>
		<g>
			<g>
				<path fill="#FD837C" d="M167.107,168.033c0,0,2.638-2.6,5.054-1.421c2.41,1.181,1.033,3.138-0.053,2.902
					C171.022,169.273,168.768,169.047,167.107,168.033z"/>
			</g>
		</g>
		<g opacity="0.5">
			<g>
				<path fill="#FFD9B3" d="M150.381,147.319c0,0-8.212,23.693,18.759,27.823c0,0-24.173,1.823-29.136-23.553
					c0,0,2.685,0.428,3.74-1.687c1.057-2.117-0.184-4.54-0.184-4.54S146.104,148.364,150.381,147.319z"/>
			</g>
		</g>
	</g>
	<g>
		<g>
			<g>
				<g>
					<path fill="#F27333" d="M151.553,243.923c0,0.002,0.002,0.002,0.002,0.002c-0.03-0.204-0.079-0.387-0.135-0.552
						C151.491,243.507,151.537,243.693,151.553,243.923z"/>
				</g>
			</g>
			<g>
				<g>
					<g>
						<path fill="#EBA42D" d="M151.42,243.373c0.056,0.165,0.104,0.348,0.135,0.552c0,0.006,0,0.013,0,0.013
							c0.464,3.104-1.7,10.666-6.248,12.816c-0.902,0.43-1.635,0.607-2.233,0.607c1.358-1.525,2.596-3.806,3.843-6.898
							C149.587,243.803,151.001,242.573,151.42,243.373z"/>
					</g>
				</g>
				<g>
					<g>
						<path fill="#0A0A0A" d="M142.637,257.559l0.288-0.326c1.295-1.462,2.539-3.699,3.802-6.844
							c1.359-3.384,3.226-7.427,4.385-7.427c0.117,0,0.339,0.044,0.498,0.354c0.061,0.169,0.107,0.364,0.144,0.597
							c0.492,3.286-1.801,10.864-6.36,13.022c-0.886,0.41-1.662,0.621-2.319,0.624H142.637L142.637,257.559z M151.111,243.355
							c-0.113,0-1.211,0.198-4.013,7.175c-1.181,2.939-2.351,5.104-3.563,6.602c0.492-0.077,1.054-0.261,1.682-0.554
							c4.406-2.078,6.616-9.423,6.136-12.622c-0.026-0.195-0.07-0.362-0.111-0.49C151.183,243.355,151.136,243.355,151.111,243.355
							L151.111,243.355z"/>
					</g>
				</g>
			</g>
			<g>
				<g>
					<path fill="#F27333" d="M151.555,243.938c0,0,0-0.007,0-0.013C151.555,243.931,151.555,243.938,151.555,243.938z"/>
				</g>
			</g>
			<g>
				<g>
					<g>
						<path fill="#F27333" d="M142.284,249.182c1.812-3.046,4.938-6.271,8.251-6.584c0.419-0.038,0.709,0.258,0.885,0.775
							c-0.419-0.8-1.833,0.43-4.504,7.09c-1.247,3.093-2.484,5.373-3.843,6.898C139.796,257.366,140.754,251.758,142.284,249.182z"
							/>
					</g>
				</g>
				<g>
					<g>
						<path fill="#0A0A0A" d="M143.071,257.559c-0.847,0-1.509-0.364-1.912-1.049c-1.109-1.882-0.142-5.581,0.954-7.422
							c1.789-3.01,4.937-6.358,8.402-6.688l0.09-0.003c0.322,0,0.749,0.162,1.004,0.918l-0.368,0.15
							c-0.059-0.11-0.105-0.11-0.13-0.11c-0.113,0-1.211,0.198-4.013,7.175c-1.278,3.189-2.547,5.464-3.87,6.957l-0.06,0.071
							H143.071L143.071,257.559L143.071,257.559z M150.984,242.98c-0.116-0.125-0.274-0.199-0.428-0.186
							c-3.313,0.312-6.354,3.553-8.097,6.487c-1.071,1.803-1.952,5.344-0.954,7.03c0.32,0.548,0.816,0.827,1.478,0.853
							c1.273-1.464,2.499-3.682,3.743-6.776C148.037,247.124,149.814,243.258,150.984,242.98L150.984,242.98z"/>
					</g>
				</g>
			</g>
		</g>
		<g>
			<g>
				<g>
					<g>
						<path fill="#F27333" d="M183.556,243.373c0.703-7.378,4.556-7.798,6.14-6.573c0.065,0.049,0.121,0.12,0.179,0.179
							c-1.104-0.49-2.619,3.91-3.265,9.064c-0.378,3.045-0.514,5.159-0.93,6.504C183.376,253.638,182.981,249.425,183.556,243.373z"
							/>
					</g>
				</g>
				<g>
					<g>
						<path fill="#0A0A0A" d="M185.001,252.913c-0.35,0-0.657-0.139-0.91-0.41c-0.966-1.035-1.214-4.116-0.733-9.147
							c0.64-6.756,3.777-7.278,4.726-7.278c0.642,0,1.263,0.202,1.736,0.566c0.052,0.041,0.094,0.083,0.139,0.132l0.057,0.063
							l-0.224,0.318c-0.029-0.014-0.059-0.02-0.089-0.02c-0.839,0-2.254,3.817-2.893,8.928c-0.108,0.846-0.192,1.619-0.269,2.322
							c-0.214,1.876-0.365,3.227-0.672,4.215l-0.026,0.086l-0.077,0.037C185.495,252.854,185.238,252.913,185.001,252.913
							L185.001,252.913L185.001,252.913z M185.508,252.408c0.282-0.95,0.432-2.266,0.628-4.06c0.085-0.707,0.169-1.484,0.272-2.334
							c0.521-4.151,1.706-8.54,2.981-9.188c-0.381-0.232-0.831-0.362-1.307-0.362c-0.86,0-3.716,0.505-4.326,6.93
							c-0.581,6.126,0.023,8.191,0.631,8.846c0.178,0.189,0.379,0.284,0.613,0.284l0,0
							C185.158,252.524,185.325,252.481,185.508,252.408L185.508,252.408z"/>
					</g>
				</g>
			</g>
			<g>
				<g>
					<g>
						<path fill="#EBA42D" d="M189.874,236.979c0.216,0.207,0.406,0.442,0.566,0.734c0.023,0.042,0.05,0.101,0.074,0.136
							c1.447,2.911,0.35,9.354-3.033,13.173c-0.697,0.789-1.299,1.284-1.802,1.525c0.416-1.345,0.552-3.459,0.93-6.504
							C187.255,240.889,188.77,236.488,189.874,236.979z"/>
					</g>
				</g>
				<g>
					<g>
						<path fill="#0A0A0A" d="M185.354,252.919l0.13-0.429c0.298-0.953,0.445-2.295,0.652-4.142
							c0.085-0.707,0.169-1.484,0.272-2.334c0.56-4.494,1.909-9.273,3.294-9.273c0.087,0,0.172,0.025,0.313,0.097
							c0.24,0.228,0.442,0.49,0.631,0.835l0.051,0.097c1.46,2.938,0.442,9.427-3.063,13.378c-0.704,0.797-1.318,1.312-1.868,1.577
							L185.354,252.919L185.354,252.919z M189.702,237.137c-0.839,0-2.254,3.817-2.893,8.928c-0.108,0.846-0.192,1.619-0.269,2.322
							c-0.182,1.589-0.319,2.808-0.543,3.744c0.396-0.277,0.848-0.693,1.333-1.241c3.349-3.782,4.383-10.177,3.012-12.937
							l-0.08-0.146c-0.146-0.26-0.314-0.484-0.472-0.651C189.762,237.143,189.732,237.137,189.702,237.137L189.702,237.137z"/>
					</g>
				</g>
			</g>
			<g>
				<g>
					<path fill="#F27333" d="M190.328,237.512c0.036,0.073,0.074,0.134,0.112,0.201c-0.16-0.292-0.351-0.527-0.566-0.734
						C190.04,237.052,190.188,237.228,190.328,237.512z"/>
				</g>
			</g>
			<g>
				<g>
					<g>
						<path fill="#F27333" d="M190.515,237.849c-0.024-0.035-0.051-0.094-0.074-0.136
							C190.464,237.755,190.494,237.803,190.515,237.849z"/>
					</g>
				</g>
				<g>
					<g>
						<polygon fill="#0A0A0A" points="190.343,237.953 190.696,237.77 190.638,237.663 190.264,237.808 190.343,237.953 						"/>
					</g>
				</g>
			</g>
		</g>
	</g>
	<g opacity="0.5">
		<g>
			<path fill="#ABA82B" d="M159.586,173.986c0,0-2.404,0.46-14.55,14.37c-11.267,12.902-10.729,26.356-1.438,34.334
				c0,0-17.424-5.749-17.303-24.686c0,0,5.632-1.008,12.877-7.249c7.244-6.244,11.756-10.417,13.551-12.845
				C154.521,175.482,157.397,171.807,159.586,173.986z"/>
		</g>
	</g>
	<g>
		<g>
			<g>
				<polygon fill="#E1D630" points="130.327,197.035 129.396,200.337 132.772,201.247 133.705,197.946 				"/>
			</g>
		</g>
		<g>
			<g>
				<polygon fill="#E1D630" points="132.756,201.475 131.826,204.771 135.207,205.681 136.134,202.38 				"/>
			</g>
		</g>
		<g>
			<g>
				<polygon fill="#E1D630" points="135.331,205.681 135.117,209.101 138.617,209.302 138.823,205.883 				"/>
			</g>
		</g>
		<g>
			<g>
				<polygon fill="#E1D630" points="138.647,209.523 138.438,212.943 141.931,213.146 142.143,209.731 				"/>
			</g>
		</g>
		<g>
			<g>
				<polygon fill="#E1D630" points="161.513,218.855 164.071,221.196 166.467,218.698 163.91,216.356 				"/>
			</g>
		</g>
		<g>
			<g>
				<polygon fill="#E1D630" points="166.657,218.818 169.216,221.156 171.61,218.658 169.053,216.32 				"/>
			</g>
		</g>
		<g>
			<g>
				<polygon fill="#E1D630" points="151.668,216.846 153.57,219.723 156.509,217.865 154.609,214.99 				"/>
			</g>
		</g>
		<g>
			<g>
				<polygon fill="#E1D630" points="156.675,218.026 158.571,220.902 161.513,219.045 159.615,216.167 				"/>
			</g>
		</g>
		<g>
			<g>
				<polygon fill="#E1D630" points="142.124,213.152 143.54,216.284 146.744,214.898 145.329,211.764 				"/>
			</g>
		</g>
		<g>
			<g>
				<polygon fill="#E1D630" points="146.873,215.082 148.292,218.213 151.496,216.827 150.078,213.696 				"/>
			</g>
		</g>
	</g>
	<g>
		<g>
			<path fill="#A8E6DD" d="M171.019,203.311c-0.756-4.709-6.143-9.104-9.332-11.118c-3.123,1.899-5.055,6.429-4.594,7
				s0.707,1.038,0.707,1.038c-1.65,1.498-4.043,4.674-1.203,5.021c2.84,0.35,11.059-2.799,13.736-1.172
				c-1.326,2.078-2.002,4.535-1.1,5.438c0.902,0.904,10.625,6.33,19.746,13.486c9.121,7.154,18.5,12.543,19.119,12.563
				c0.617,0.018,3.457-1.199,3.457-1.199c2.148,3.41,0.924,8.977,4.564,9.875c3.389-0.41,2.389-1.668,2.389-1.668l-0.256-1.369
				c1.545-0.346,4.457-1.508,4.613-2.844s0.785-3.549,1.271-3.461c-3.039-2.627-10.156-0.215-11.676-1.92
				c1.938-2.902,1.424-4.072,1.051-4.41c-0.371-0.336-21.748-14.434-26.809-18.248c-5.063-3.814-11.029-7.811-12.197-7.852
				S171.622,203.148,171.019,203.311z"/>
			<g>
				<g>
					<path opacity="0.5" fill="#69B0A6" d="M218.509,242.574l-0.193-1.025c-0.111-0.135-0.219-0.271-0.33-0.406
						c-0.252,0.127-0.506,0.25-0.764,0.367c-0.189,0.123-0.379,0.242-0.572,0.357c0.059,0.113,0.115,0.227,0.178,0.336
						c-0.508-0.385-1.096-2.393-1.779-3.943s-2.223-3.074-1.953-3.123c0.271-0.049,4.412,0.695,4.943,0.9
						c-1.236-0.82-4.426-1.658-4.139-2.281c0.029-0.064,0.059-0.119,0.09-0.172c-0.543-0.066-0.99-0.193-1.307-0.412
						c0-0.002,0-0.002,0-0.002c-0.08-0.057-0.156-0.119-0.221-0.189c1.938-2.902,1.424-4.072,1.051-4.41
						c-0.082-0.076-1.238-0.854-3.031-2.055c0.309,0.434,0.443,0.682,0.652,0.904c1.211,1.285,0.494,2.824-0.201,3.234
						c-0.693,0.408-1.631,1.717-2.342,2.447c-1.934,0.742-36.039-22.564-39.57-26.146c-0.299,1.107-0.281,2.068,0.213,2.563
						c0.902,0.904,10.625,6.33,19.746,13.486c9.121,7.154,18.5,12.543,19.119,12.563c0.408,0.012,1.791-0.518,2.678-0.877l0,0
						c0.01-0.002,0.018-0.006,0.025-0.008c0.039-0.018,0.076-0.033,0.113-0.047c0.023-0.01,0.047-0.02,0.07-0.029
						c0.035-0.016,0.07-0.029,0.104-0.041c0.01-0.006,0.018-0.008,0.025-0.012c0.07-0.029,0.135-0.055,0.189-0.08
						c0.018-0.006,0.033-0.014,0.049-0.02c0.021-0.01,0.039-0.016,0.059-0.025c0.02-0.008,0.035-0.014,0.053-0.021
						c0.006-0.002,0.016-0.008,0.021-0.01c0,0,0,0,0.002,0c0.043-0.018,0.068-0.029,0.068-0.029c2.148,3.41,0.924,8.977,4.564,9.875
						c1.709-0.207,2.301-0.629,2.469-0.998l0,0C218.753,242.881,218.509,242.574,218.509,242.574z"/>
				</g>
				<g>
					<path opacity="0.5" fill="#69B0A6" d="M157.278,200.736c1.232-0.819,2.523-1.703,3.113-2.208
						c0.51-0.437,0.133-1.094-0.242-1.189c-0.373-0.095-1.762,0.863-2.582,1.401c-0.084,0.055-0.441,0.125-0.541,0.205
						c0.004,0.112,0.025,0.196,0.066,0.248c0.461,0.571,0.707,1.038,0.707,1.038C157.632,200.383,157.456,200.553,157.278,200.736z"
						/>
				</g>
			</g>
			<g>
				<g>
					<path opacity="0.5" fill="#69B0A6" d="M171.798,203.057c-0.328,0.109-0.602,0.207-0.779,0.254
						c-0.475-2.957-2.777-5.792-5.213-7.99c1.404,2.096,2.438,5.244,1.719,5.244c-0.893,0-4.436-0.964-5.908-1.739
						c2.209,1.309,4.789,2.481,6.736,3.487c-1.492-0.332-2.908-0.295-3.766-0.213c-1.404,0.135-2.375,0-5.6-1.348
						c0.557,3.443-1.578,4.662-3.254,4.223c0.207,0.135,0.488,0.232,0.863,0.277c2.84,0.35,11.059-2.799,13.736-1.172
						c-0.043,0.066-0.084,0.137-0.125,0.203c0.346-0.498,0.77-0.574,0.963-0.803c-0.027-0.018-0.055-0.031-0.082-0.049
						c0.299-0.156,0.641-0.334,0.697-0.354C171.79,203.076,171.794,203.068,171.798,203.057z"/>
				</g>
				<g>
					<path opacity="0.5" fill="#69B0A6" d="M170.208,204.283c-0.043,0.063-0.086,0.131-0.125,0.207
						C170.122,204.422,170.167,204.354,170.208,204.283z"/>
				</g>
			</g>
			<g>
				<defs>
					<path id="SVGID_1_" d="M171.019,203.311c-0.756-4.709-6.143-9.104-9.332-11.118c-3.123,1.899-5.055,6.429-4.594,7
						s0.707,1.038,0.707,1.038c-1.65,1.498-4.043,4.674-1.203,5.021c2.84,0.35,11.059-2.799,13.736-1.172
						c-1.326,2.078-2.002,4.535-1.1,5.438c0.902,0.904,10.625,6.33,19.746,13.486c9.121,7.154,18.5,12.543,19.119,12.563
						c0.617,0.018,3.457-1.199,3.457-1.199c2.148,3.41,0.924,8.977,4.564,9.875c3.389-0.41,2.389-1.668,2.389-1.668l-0.256-1.369
						c1.545-0.346,4.457-1.508,4.613-2.844s0.785-3.549,1.271-3.461c-3.039-2.627-10.156-0.215-11.676-1.92
						c1.938-2.902,1.424-4.072,1.051-4.41c-0.371-0.336-21.748-14.434-26.809-18.248c-5.063-3.814-11.029-7.811-12.197-7.852
						S171.622,203.148,171.019,203.311z"/>
				</defs>
				<clipPath id="SVGID_2_">
					<use xlink:href="#SVGID_1_"  overflow="visible"/>
				</clipPath>
				<g clip-path="url(#SVGID_2_)">
					<path fill="#37C8C9" d="M170.161,210.357c-0.465-2.012,2.988-6.879,6.756-7.143c3.131,0.922,3.764,2.797,3.764,2.797
						c-2.139,0.115-6.691,4.197-6.891,7.154C170.712,211.918,170.161,210.357,170.161,210.357z"/>
					<path fill="#FFFFFF" d="M173.577,213.307c0.434-2.537,2.164-6.48,7.766-7.516c2.26,0.92,2.936,1.984,2.936,1.984
						c-3.172,1.057-6.773,4.559-7.277,7.262C175.517,215.254,173.577,213.307,173.577,213.307z"/>
					<path fill="#8CC800" d="M176.927,215.342c-0.168-2.199,4.055-7.137,7.465-7.328c2.139,0.65,3.523,2.697,3.523,2.697
						c-2.131,0.156-5.973,4.455-6.527,7.123C179.024,217.203,176.927,215.342,176.927,215.342z"/>
					<path fill="#FFFFFF" d="M181.388,217.834c-0.334-1.662,3.363-6.793,6.527-7.123c2.879,0.342,3.701,2.643,3.701,2.643
						c-3.074,0.725-5.846,4.764-6.094,6.92C184.69,221.76,181.388,217.834,181.388,217.834z"/>
					<path fill="#D9E021" d="M185.522,220.273c-0.469-2.012,2.986-6.877,6.754-7.141c3.131,0.92,3.766,2.795,3.766,2.795
						c-2.139,0.115-6.691,4.197-6.893,7.154C186.073,221.834,185.522,220.273,185.522,220.273z"/>
					<path fill="#FFFFFF" d="M189.077,222.848c0.236,1.227,4.197,3.361,4.197,3.361c0.131-3.152,4.193-7.107,7.809-7.52
						c-1.916-2.643-5.156-2.951-5.156-2.951S189.396,217.852,189.077,222.848z"/>
					<path fill="#F7931E" d="M200.542,218.375c-2.938,0.713-7.457,4.309-7.268,7.834c1.105,1.229,4.221,2.795,4.221,2.795
						c0.699-3.768,4.754-7.039,7.197-7.666C203.622,220.027,200.542,218.375,200.542,218.375z"/>
					<path fill="#FFFFFF" d="M204.638,221.264c-2.938,0.711-7.457,4.307-7.268,7.832c1.105,1.229,4.221,2.797,4.221,2.797
						c0.699-3.77,4.754-7.041,7.197-7.668C207.718,222.914,204.638,221.264,204.638,221.264z"/>
					<path fill="#FF4376" d="M208.905,224.055c-2.938,0.711-7.457,4.307-7.27,7.832c1.107,1.229,4.223,2.797,4.223,2.797
						c0.699-3.77,4.754-7.041,7.197-7.666C211.983,225.705,208.905,224.055,208.905,224.055z"/>
				</g>
				<g clip-path="url(#SVGID_2_)">
					<path opacity="0.2" fill="#363636" d="M170.522,208.252c-0.096,0.26-0.191,0.521-0.295,0.779
						c-0.076,0.365-0.123,0.738-0.135,1.115c2.725,1.811,11.027,6.691,18.887,12.857c6.803,5.336,13.746,9.688,17.096,11.564
						c0-0.006,0-0.012,0-0.018c0.045-0.49,0.146-0.951,0.322-1.396c0.002-0.008,0.006-0.016,0.008-0.025
						c0.061-0.238,0.139-0.475,0.24-0.707C199.724,228.953,177.085,213.506,170.522,208.252z"/>
				</g>
				<g clip-path="url(#SVGID_2_)">
					<path opacity="0.2" fill="#363636" d="M172.349,202.859c1.277-0.268,1.713,0.004,4.662,1.611
						c2.951,1.607,20.1,14.365,34.328,23.242c1.699-0.656,1.775,0.223,1.4-0.176c-0.469-0.488,0.438-0.473-1.285-1.357
						c-1.865-0.959-35.586-25.367-36.795-25.105"/>
				</g>
			</g>
			<g>
				<g>
					<g>
						<path fill="#69B0A6" d="M159.017,200.811c0.176-0.014,0.389,0.342,0.512,0.992c0.096,0.621,0.166,1.684-0.596,2.66
							c-0.176,0.248-0.4,0.426-0.631,0.576c-0.203,0.166-0.5,0.293-0.721,0.354c-0.463,0.131-0.883,0.154-1.256,0.102
							c-0.367-0.055-0.693-0.209-0.848-0.418c-0.154-0.219-0.098-0.369-0.029-0.408c0.08-0.049,0.201-0.002,0.324-0.014
							c0.125-0.006,0.299-0.031,0.543-0.094c0.238-0.061,0.549-0.164,0.846-0.309c0.156-0.078,0.254-0.131,0.383-0.258
							c0.133-0.104,0.266-0.209,0.355-0.352c0.434-0.51,0.57-1.279,0.697-1.846C158.712,201.221,158.829,200.824,159.017,200.811z"
							/>
					</g>
				</g>
			</g>
			<g>
				<g>
					<path fill="none" stroke="#FFFFFF" stroke-miterlimit="10" d="M158.534,203.133"/>
				</g>
			</g>
			<g>
				<g>
					<g>
						<path fill="#69B0A6" d="M170.671,203.273c-0.072,0.182-0.756,0.041-1.803-0.186c-0.521-0.137-1.139-0.223-1.807-0.342
							c-0.332-0.018-0.678-0.037-1.037-0.059c-0.369-0.004-0.744,0.031-1.168,0.055c-0.811,0.064-1.723,0.068-2.494-0.113
							c-0.729-0.238-1.389-0.451-1.9-0.684c-0.979-0.525-1.545-0.934-1.477-1.104c0.068-0.168,0.754-0.066,1.803,0.23
							c0.527,0.109,1.135,0.205,1.797,0.363c0.646,0.086,1.342,0.055,2.191-0.01c0.408-0.021,0.852-0.053,1.266-0.029
							c0.426,0.047,0.84,0.092,1.223,0.152c0.742,0.199,1.396,0.4,1.9,0.656C170.192,202.676,170.735,203.117,170.671,203.273z"/>
					</g>
				</g>
			</g>
			<g>
				<g>
					<g>
						<path fill="#69B0A6" d="M157.001,198.927c0.025-0.097,0.135-0.162,0.314-0.31c0.201-0.166,0.482-0.399,0.828-0.687
							c0.182-0.148,0.387-0.312,0.621-0.482l0.184-0.129c0.059-0.041,0.123-0.084,0.258-0.153c0.23-0.14,0.484-0.234,0.754-0.311
							c0.494-0.13,1.045,0.19,1.174,0.734l0.049,0.421l-0.078,0.45l-0.225,0.448c-0.088,0.127-0.188,0.229-0.281,0.345
							c-0.658,0.654-1.258,0.936-1.801,1.266c-0.539,0.307-1.004,0.574-1.381,0.816c-0.768,0.463-1.15,0.875-1.324,0.777
							c-0.15-0.07,0.006-0.754,0.725-1.49c0.344-0.373,0.807-0.752,1.322-1.123c0.494-0.362,1.115-0.765,1.486-1.128l0.061-0.065
							h0.002c0.004,0,0.008-0.002,0.014-0.009c0.016-0.013,0.016-0.045-0.004-0.054c-0.008-0.007-0.025-0.01-0.061-0.003
							c0.002-0.008-0.059,0.022-0.125,0.055l-0.182,0.087c-0.25,0.121-0.482,0.234-0.695,0.339
							c-0.438,0.205-0.836,0.347-1.143,0.378C157.169,199.132,156.974,199.009,157.001,198.927z"/>
					</g>
				</g>
			</g>
			<g>
				<g>
					<g>
						<path fill="#69B0A6" d="M168.263,202.354c-0.123,0.146-0.609-0.047-1.393-0.311c-0.779-0.277-1.885-0.621-3.113-1.15
							c-1.221-0.527-2.328-1.236-2.896-2.026c-0.584-0.781-0.584-1.425-0.432-1.467c0.189-0.069,0.488,0.36,1.102,0.819
							c0.602,0.478,1.586,0.959,2.756,1.467c1.17,0.503,2.275,1.007,3.012,1.529C168.042,201.727,168.376,202.223,168.263,202.354z"
							/>
					</g>
				</g>
			</g>
			<g>
				<g>
					<g>
						<path fill="#69B0A6" d="M174.104,202.561c0.025,0.381-0.676,0.738-1.553,1.051c-0.889,0.338-1.764,0.426-1.91,0.086
							c-0.143-0.328,0.465-0.945,1.465-1.326C173.14,202.002,174.087,202.213,174.104,202.561z"/>
					</g>
				</g>
			</g>
			<g>
				<g>
					<g>
						<path fill="#69B0A6" d="M212.245,229.74c0.135,0.309-1.002,1.268-2.227,2.654c-0.611,0.678-1.086,1.316-1.328,1.779
							c-0.24,0.445-0.199,0.779-0.361,0.895c-0.078,0.045-0.195-0.004-0.348-0.191c-0.135-0.188-0.223-0.527-0.195-0.924
							c0.076-0.781,0.561-1.672,1.248-2.436C210.401,229.963,212.097,229.371,212.245,229.74z"/>
					</g>
				</g>
			</g>
			<g>
				<g>
					<g>
						<path fill="#69B0A6" d="M219.161,236.744c-0.066,0.061-0.215,0.047-0.412-0.02c-0.1-0.031-0.205-0.08-0.328-0.135
							c-0.139-0.039-0.287-0.09-0.445-0.15c-0.645-0.229-1.572-0.463-2.658-0.752c-0.541-0.15-1.063-0.301-1.553-0.502
							c-0.486-0.195-0.838-0.383-1.205-0.594c-0.346-0.217-0.627-0.455-0.742-0.709c-0.117-0.242-0.078-0.41-0.002-0.438
							c0.195-0.045,0.43,0.16,1.109,0.289c0.318,0.064,0.793,0.195,1.236,0.303c0.463,0.117,0.971,0.244,1.506,0.379
							c1.094,0.291,2.119,0.707,2.764,1.209c0.16,0.131,0.299,0.252,0.414,0.363c0.107,0.127,0.186,0.252,0.244,0.354
							C219.206,236.547,219.229,236.682,219.161,236.744z"/>
					</g>
				</g>
			</g>
			<g>
				<g>
					<g>
						<path fill="#69B0A6" d="M216.759,242.15c-0.145,0.105-0.551-0.201-0.959-0.824c-0.416-0.617-0.84-1.52-1.252-2.502
							c-0.414-0.982-0.766-1.846-1.059-2.426c-0.279-0.582-0.547-0.863-0.479-1.045c0.051-0.17,0.646-0.098,1.221,0.48
							c0.57,0.555,1.104,1.461,1.529,2.477c0.43,1.02,0.707,1.953,0.887,2.629C216.819,241.615,216.909,242.041,216.759,242.15z"/>
					</g>
				</g>
			</g>
			<g>
				<g>
					<g>
						<path fill="#69B0A6" d="M218.226,243.648c-0.059-0.068-0.068-0.184-0.053-0.311c0.021-0.066-0.016-0.121-0.016-0.16
							c-0.031,0.016,0.127,0.043,0.127,0.027c-0.037,0.014-0.016,0.002-0.164,0.111c-0.07,0.098-0.297-0.016-0.604-0.066
							l-0.123-0.035l-0.217-0.076c-0.133-0.064-0.289-0.121-0.414-0.203c-0.252-0.166-0.459-0.373-0.547-0.629
							c-0.24-0.598,0.24-0.947,0.67-1.203c0.611-0.287,0.77-0.271,1.039-0.307c0.48-0.045,0.789,0.023,0.855,0.191
							c0.068,0.17-0.158,0.422-0.539,0.686c-0.162,0.113-0.527,0.318-0.424,0.314c0.008,0.033,0.043,0.039,0.043,0.037
							c0,0-0.008,0.002-0.012,0.01l-0.004,0.016l0.002,0.012l0.09,0.047c0.268,0.152,0.545,0.236,0.854,0.613
							c0.072,0.082,0.131,0.25,0.143,0.393c0,0.133-0.051,0.248-0.094,0.34c-0.1,0.109-0.199,0.207-0.279,0.221
							C218.396,243.73,218.286,243.717,218.226,243.648z"/>
					</g>
				</g>
			</g>
			<path fill="#CEFFF8" fill-opacity="0.5" d="M159.255,195.732c0.803-0.627,2.242-1.779,2.699-1.659
				c0.455,0.12,2.434,1.583,2.416,1.373c-0.02-0.209-2.043-2.573-2.646-2.441C161.118,193.135,159.86,194.426,159.255,195.732z"/>
			<path fill="#CEFFF8" fill-opacity="0.5" d="M170.966,204.277c-0.484-0.057-1.16,1.617-1.105,2.246s3.877,2.809,4.266,2.543
				c0.387-0.268-3.521-2.477-3.313-3.393C171.087,204.48,171.446,204.275,170.966,204.277z"/>
			<path fill="#CEFFF8" fill-opacity="0.5" d="M216.479,234.535c1.139-0.037,4.816,2.848,5.135,3.869
				c0.318,1.023,0.691-0.969,0.506-1.52C221.935,236.336,220.384,234.271,216.479,234.535z"/>
			<path fill="#CEFFF8" fill-opacity="0.5" d="M214.948,236.729c1.199,1.184,2,3.66,2.373,3.635c0.375-0.023,1.221,0.25,1.221,0.25
				s-1.73,0.83-1.791,0.664C215.798,238.6,214.632,236.238,214.948,236.729z"/>
		</g>
		<g>
			<path fill="#F2A5E1" d="M174.597,188.56c3.479-0.515,5.012,1.345,5.633,2.491c0.619,1.146,0.025,2.121,2.289,2.315
				c0.713-1.148,2.461-3.625,4.93-4.026c2.469-0.401,14.254,0.578,15.393,0.766c1.137,0.188,2.926,2.65,2.941,4.591
				c0.195-0.19,1.066-0.201,1.066-0.201c0.525-1.95,4.068-4.715,9.002-3.353c-0.627,0.433-0.543,3.347-0.256,4.786
				c0.289,1.439-1.926,1.564-1.895,2.401c0.031,0.836-0.498,1.32-0.498,1.32c-2.166,0.149-5.227-0.932-6.113-3.447
				c-0.621-0.853-1.961,0.142-1.961,0.142c-0.424,3.174-2.248,2.625-4.482,2.974c-2.232,0.35-11.006,0.425-12.576-0.106
				c-1.568-0.532-3.313-0.219-4.279-2.424c-0.965-2.206-1.072-2.146-1.955-2.022c-1.262,0.976-4.91,3.802-8.623,1.032
				C172.513,194.375,171.929,191.315,174.597,188.56z"/>
			<path fill="#A62EA1" d="M201.866,194.317c1.334,0.088,2.766-0.221,3.9,0.151c-0.043-0.587-0.234-1.209-0.512-1.796
				c-0.889-0.418-2.486-0.673-3.322-0.74c-1.137-0.09-10.881-0.251-13.148-0.31c-2.268-0.06-3.492,1.972-5.66,2.159
				c1.811,0.601,5.293,0.341,6.072,0.243C189.972,193.924,200.507,194.228,201.866,194.317z"/>
			<path fill="#A62EA1" d="M182.981,194.351c0.889-0.002,2.299,2.301,6.527,2.414c4.227,0.113,11.012,0.515,12.168,0.381
				s2.248,0.087,3.428-1.518c-0.52,2.07-0.961,2.657-4.412,3.031c-3.449,0.375-12.252-0.191-14.416-0.859
				C184.112,197.13,185.134,195.95,182.981,194.351z"/>
			<path fill="#A62EA1" d="M181.063,193.382c-4.273,0.03-3.586-3.49-7.236-3.898c-0.387,0.546-0.666,1.095-0.855,1.634
				C174.747,191.689,176.987,194.579,181.063,193.382z"/>
			<path fill="#A62EA1" d="M181.021,193.906c-2.703,1.595-5.99,1.083-8.365-0.104c0.084,0.808,0.314,1.5,0.557,1.994
				c0.043,0.031,0.084,0.058,0.125,0.088C176.288,197.112,179.466,196.66,181.021,193.906z"/>
			<path fill="#A62EA1" d="M215.415,194.474c-0.045-0.623-0.051-1.281-0.01-1.853c-1.098-0.05-2.678,0.017-3.883,0.874
				c-1.547,1.101-2.701,1.43-4.4,1.513C211.06,197.148,212.558,193.805,215.415,194.474z"/>
			<path fill="#A62EA1" d="M207.077,195.728c1.477,2.849,4.754,3.701,6.459,3.428c0.098-0.214,0.176-0.492,0.164-0.827
				c-0.016-0.394,0.467-0.629,0.951-0.918C211.44,197.568,208.171,196.641,207.077,195.728z"/>
			<g>
				<g opacity="0.2">
					<path fill="#8C3E9B" d="M215.528,196.601c-1.121-0.367-2.344-0.222-3.529-0.083c-0.861,0.093-2.594,0.16-3.34-0.311
						c-1.119-0.705,0.221-1.369,0.801-1.961c0.781-0.76,1.492-1.48,2.385-2.143c-1.34-0.118-2.682,1.401-3.451,2.208
						c-0.221,0.196-0.648,0.596-1.033,0.511c-0.256-0.056-0.48,0.022-0.518-0.327c-0.018,0-0.078,0.002-0.16,0.006l0,0
						c-0.006,0-0.012,0-0.018,0c-0.025,0.002-0.051,0.003-0.078,0.005c-0.016,0.001-0.031,0.003-0.049,0.004
						c-0.02,0.001-0.039,0.003-0.059,0.004c0,0,0,0,0,0.001c-0.264,0.023-0.588,0.072-0.697,0.18
						c-0.016-1.94-1.805-4.403-2.941-4.591c-1.139-0.188-12.924-1.167-15.393-0.766c-1.713,0.278-3.076,1.555-3.99,2.695
						c-0.016,0.021-0.033,0.041-0.049,0.06c-0.055,0.069-0.107,0.137-0.156,0.203c-0.041,0.052-0.078,0.104-0.115,0.154
						c-0.02,0.024-0.037,0.049-0.055,0.073c-0.229,0.317-0.42,0.607-0.564,0.842c-0.23-0.02-0.426-0.049-0.6-0.084
						c0,0,0,0.001,0,0.001c-0.527-0.105-0.83-0.276-1.016-0.498c-0.043,0.129-0.125,0.255-0.264,0.375
						c-0.482,0.45-1.582,0.497-2.24,0.619c-0.627,0.139-1.824,0.136-2.248,0.499c1.316,1.199,3.521-0.806,4.947-0.486
						c-0.383,0.891-1.311,1.537-2.264,1.895c-1.287,0.457-2.725,0.287-3.973,0.686c0.572,0.729,1.996,0.267,2.758,0.122
						c0.975-0.192,2.162-0.504,2.979-1.051c0.551-0.386,0.955-0.835,1.246-1.327c-0.031,0.293-0.137,0.585-0.295,0.868
						c0.105-0.08,0.201-0.153,0.285-0.218c0.883-0.123,0.99-0.183,1.955,2.022c0.967,2.206,2.711,1.892,4.279,2.424
						c1.57,0.531,10.344,0.456,12.576,0.106c1.639-0.256,3.055-0.031,3.861-1.142l0.014-0.019c0.092-0.129,0.176-0.275,0.25-0.441
						c0.006-0.013,0.012-0.027,0.016-0.041c0.033-0.072,0.063-0.148,0.092-0.229c0.004-0.014,0.01-0.028,0.014-0.042
						c0.031-0.092,0.061-0.189,0.088-0.292c0.004-0.017,0.008-0.035,0.014-0.052c0.021-0.086,0.041-0.177,0.061-0.271
						c0.006-0.029,0.012-0.058,0.018-0.089c0.02-0.113,0.041-0.232,0.057-0.357c0,0,0.006-0.004,0.012-0.009
						c0.002-0.001,0.008-0.005,0.012-0.007c0.006-0.005,0.016-0.011,0.025-0.018c0.006-0.005,0.014-0.01,0.021-0.016
						c0.012-0.007,0.023-0.015,0.037-0.023c0.01-0.007,0.02-0.014,0.031-0.021c0.016-0.01,0.033-0.02,0.051-0.031
						c0.012-0.007,0.021-0.013,0.035-0.021c0.029-0.017,0.061-0.035,0.094-0.053c0.016-0.008,0.033-0.017,0.047-0.025
						c0.021-0.011,0.043-0.022,0.066-0.034c0.018-0.009,0.039-0.018,0.059-0.027c0.021-0.011,0.043-0.021,0.066-0.031
						c0.021-0.009,0.043-0.018,0.064-0.027c0.025-0.01,0.051-0.02,0.076-0.029c0.02-0.008,0.041-0.016,0.063-0.023
						c0.043-0.015,0.088-0.028,0.135-0.041c0.02-0.005,0.039-0.009,0.061-0.014c0.027-0.006,0.057-0.013,0.086-0.018
						c0.021-0.004,0.045-0.007,0.068-0.01c0.027-0.003,0.055-0.005,0.082-0.007c0.021-0.001,0.045-0.002,0.068-0.002
						c0.029,0,0.086,0.004,0.086,0.004c0.15,0.027,0.463,0.131,0.615,0.339c0.156,0.444,0.383,0.842,0.656,1.198
						c0.113-0.037,0.289-0.036,0.559-0.013c1.371,0.135,2.293,0.347,3.711-0.042c1.1-0.327,2.143-0.568,3.273-0.401
						C215.386,196.841,215.47,196.729,215.528,196.601z M201.933,197.553c-4.24-0.062-14.77-0.048-16.211-1.159
						c-1.184-0.91-1.703-2.464-1.68-3.413c0.168-1.365,2.414-2.893,5.781-2.923c3.617-0.033,10.783,0.688,12.293,0.72
						c1.396,0.029,3.941,2.466,2.719,5.188C204.341,196.569,203.356,197.574,201.933,197.553z"/>
				</g>
			</g>
			<g>
				<g>
					<g>
						<path fill="#9C45AD" d="M180.761,195.526c-0.207-0.334,0.746-1.097,1.613-1.957c0.363-0.423,0.84-0.951,1.215-1.259
							c0.379-0.311,0.682-0.443,0.824-0.332c0.145,0.112,0.104,0.444-0.072,0.883c-0.184,0.44-0.453,0.965-1.018,1.622
							C182.144,195.624,180.921,195.805,180.761,195.526z"/>
					</g>
				</g>
			</g>
			<g>
				<g>
					<g>
						<path fill="#9C45AD" d="M178.093,194.358c0.023-0.39,0.775-0.667,1.721-1.036c0.488-0.19,1.012-0.3,1.398-0.314
							c0.447-0.016,0.721,0.101,0.715,0.28c-0.004,0.185-0.168,0.402-0.41,0.601c-0.293,0.234-0.711,0.462-1.252,0.672
							C179.138,194.999,178.06,194.705,178.093,194.358z"/>
					</g>
				</g>
			</g>
			<g>
				<g>
					<g>
						<path fill="#9C45AD" d="M181.72,194.312c-0.236-0.276-0.275-0.7-0.074-0.934c0.303-0.365,0.758-0.432,0.986-0.148
							c0.229,0.285,0.275,0.701,0.072,0.934C182.403,194.528,181.956,194.59,181.72,194.312z"/>
					</g>
				</g>
			</g>
			<g>
				<g>
					<g>
						<path fill="#9C45AD" d="M204.997,196.977c-0.182-0.015-0.332-0.188-0.426-0.459c-0.066-0.282-0.172-0.671,0.123-1.245
							c0.086-0.129,0.186-0.251,0.287-0.354c0.109-0.082,0.221-0.154,0.328-0.214c0.209-0.09,0.4-0.129,0.557-0.132
							c0.311,0.013,0.514,0.115,0.568,0.289c0.146,0.343-0.514,0.835-0.596,1.065c-0.082,0.122-0.193,0.469-0.34,0.685
							C205.356,196.85,205.179,196.992,204.997,196.977z"/>
					</g>
				</g>
			</g>
			<g>
				<g>
					<g>
						<path fill="#9C45AD" d="M206.089,195.91c-0.098-0.159-0.029-0.371,0.037-0.565c0.014-0.096,0.055-0.16,0.049-0.252
							c0.006-0.04,0.016-0.075,0.033-0.105c0.006-0.056,0.016-0.113,0.031-0.168c0.018-0.063,0.045-0.122,0.076-0.178
							c-0.004,0.024-0.006,0.046-0.01,0.068c0.148-0.404,0.377-0.695,0.561-0.769c0.191-0.106,0.361-0.116,0.488-0.028
							c0.129,0.088,0.201,0.255,0.227,0.442c0.021,0.085-0.008,0.212,0.02,0.275c0.008,0.036,0.01,0.068,0.008,0.099l-0.006,0.044
							l-0.008,0.021c-0.014,0,0.027,0.007-0.031,0.002l-0.16-0.011l-0.324-0.012l0.498,0.109c-0.02,0.114-0.049,0.233-0.088,0.354
							c-0.033,0.106-0.068,0.208-0.113,0.302c-0.07,0.102-0.146,0.195-0.223,0.276c-0.141,0.176-0.338,0.246-0.49,0.293
							C206.368,196.166,206.179,196.061,206.089,195.91z"/>
					</g>
				</g>
			</g>
			<g>
				<g>
					<g>
						<path fill="#9C45AD" d="M210.946,192.451c0.043,0.176-0.1,0.407-0.328,0.62c-0.107,0.117-0.271,0.186-0.398,0.323
							c-0.129,0.134-0.275,0.259-0.447,0.371c-0.586,0.539-1.168,1.117-1.514,0.944c-0.301-0.136-0.238-1.103,0.65-1.94
							c0.24-0.173,0.486-0.32,0.715-0.433c0.225-0.115,0.467-0.112,0.654-0.132C210.663,192.186,210.901,192.274,210.946,192.451z"
							/>
					</g>
				</g>
			</g>
			<g>
				<g>
					<g>
						<path fill="#9C45AD" d="M207.503,196.146c0.086-0.182,0.547-0.097,1.227-0.035c0.684,0.076,1.574,0.1,2.627-0.015
							c1.025-0.118,2.115-0.244,2.891-0.101c0.387,0.061,0.697,0.154,0.904,0.288c0.201,0.118,0.287,0.222,0.26,0.308
							c-0.027,0.087-0.164,0.15-0.361,0.195c-0.199,0.035-0.473,0.083-0.809,0.141c-0.686,0.098-1.578,0.343-2.756,0.48
							c-1.158,0.132-2.299-0.06-3.008-0.4C207.753,196.683,207.431,196.289,207.503,196.146z"/>
					</g>
				</g>
			</g>
			<path fill="#FFFFFF" fill-opacity="0.5" d="M179.274,190.724c0.09-0.46-2.215-2.1-4.096-1.878
				c-0.449,0.271-0.594,0.547-0.594,0.547C175.415,189.282,176.978,189.205,179.274,190.724z"/>
			<path fill="#FFFFFF" fill-opacity="0.5" d="M214.302,191.364c0.074-0.255-3.826-0.526-5.592,1.24
				c-1.678,1.637-0.898,1.715-0.627,1.398C209.767,192.027,210.132,191.75,214.302,191.364z"/>
			<path fill="#FFFFFF" fill-opacity="0.5" d="M187.06,190.891c1.619-0.359,1.84,3.155,1.107,3.568
				c-0.754,0.423-0.922-0.152-1.26-1.773C186.69,191.634,186.591,190.996,187.06,190.891z"/>
			<path fill="#FFFFFF" fill-opacity="0.5" d="M187.757,195.356c-0.541-0.341-1.145,1.097-0.527,1.07
				C187.849,196.399,188.315,195.709,187.757,195.356z"/>
		</g>
		<g>
			<path fill="#F2A5E1" d="M205.06,207.959c2.736-2.496,6.918-4.148,10.717-2.42c2.102,0.955,4.129,3.059,4.129,6.498
				s-1.014,5.479-4.852,7.135c-3.84,1.656-9.994,0-10.863-3.248C203.321,212.674,203.104,209.744,205.06,207.959z"/>
			<path fill="#A62EA1" d="M213.96,214.586c-1.664-0.799-2.145-1.619-2.104-2.178c0.029-0.01,0.057,0.002,0.082,0.027
				c0.098,1.326,2.988,2.225,5.467,0.465c1.188-0.842,1.781-1.725,2.35-2.395c-0.156-0.799-0.432-1.51-0.795-2.129
				c-1.508,1.291-2.088,3.422-3.553,3.965c-1.762,0.652-2.793,0.463-3.258,0.08c0.006-0.025,0.018-0.047,0.041-0.061
				c1.217,0.826,3.887-0.604,3.865-3.439c-0.012-1.619-0.611-2.676-0.785-3.59c-0.754-0.283-1.521-0.439-2.285-0.488
				c0.119,1.914,1.773,3.711,1.328,5.104c-0.492,1.537-1.248,2.148-1.863,2.277c-0.02-0.025-0.037-0.049-0.055-0.068
				c1.436-0.391,1.775-3.061-0.719-4.787c-1.301-0.898-2.494-1.189-3.393-1.564c-0.723,0.334-1.408,0.742-2.045,1.199
				c1.773,1.049,4.32,1.053,5.264,2.203c1.055,1.291,1.131,2.189,0.867,2.693c-0.027-0.016-0.055-0.037-0.076-0.055
				c0.457-1.23-1.686-3.061-4.727-2.43c-1.887,0.393-2.939,1.203-3.959,1.531c-0.08,0.639-0.072,1.322,0.004,2.041
				c2.154-0.486,3.807-2.379,5.48-2.309c2.016,0.088,2.836,0.709,3.01,1.254c-0.021,0.002-0.049-0.002-0.074-0.008
				c-0.641-1.256-3.805-1.012-5.207,1.576c-1.025,1.895-0.697,3.32-1.445,4.246c0.508,0.461,1.141,0.854,1.852,1.17
				c1.332-1.822,0.459-4.469,1.67-5.67c1.297-1.291,2.342-1.492,2.941-1.303c-0.018,0.02-0.043,0.039-0.07,0.057
				c-1.5-0.258-3.182,2.037-1.773,4.576c0.895,1.615,2.104,2.332,2.658,3.191c0.777-0.08,1.525-0.252,2.211-0.523
				c-0.992-1.779-3.512-2.787-3.803-4.256c-0.338-1.699,0.135-2.545,0.68-2.836c0.012,0.021,0.02,0.047,0.023,0.076
				c-1.189,0.859-0.205,3.463,2.941,4.08c1.768,0.344,3.059,0.084,4.102,0.125c0.393-0.566,0.662-1.188,0.834-1.879
				C217.569,214.346,215.343,215.25,213.96,214.586z"/>
			<g>
				<g opacity="0.1">
					<path fill="#363636" d="M215.776,205.539c-3.799-1.729-7.98-0.076-10.717,2.42c-1.955,1.785-1.738,4.715-0.869,7.965
						c0.869,3.248,7.023,4.904,10.863,3.248c3.838-1.656,4.852-3.695,4.852-7.135S217.878,206.494,215.776,205.539z
						 M210.708,218.523c-5.576,0.096-7.273-5.826-6.301-8.334c1.352-3.482,5.25-5.012,7.748-5.043
						c4.854,0.158,6.555,3.598,6.555,6.975S216.284,218.428,210.708,218.523z"/>
				</g>
			</g>
			<path fill="#FFFFFF" fill-opacity="0.5" d="M205.603,210.084c0.166,0.748,0.875-0.828,1.92-2.008
				c0.75-0.848,2.035-1.453,1.773-1.561C208.669,206.262,205.12,207.918,205.603,210.084z"/>
			<path fill="#FFFFFF" fill-opacity="0.5" d="M205.396,212.789c0.732,0,0.742-2.209,0.041-2.09
				C204.792,210.807,204.61,212.789,205.396,212.789z"/>
		</g>
		<g>
			<path fill="#FFEC7A" d="M202.198,202.223c-2.711-1.256-5.305-0.811-6.984,1.996s-2,3.256-3.678,5.441
				c-1.674,2.189-0.598,4.162,2.723,5.303c3.318,1.141,5.561,0.98,7.949-2.836C204.595,208.311,206.856,204.383,202.198,202.223z"/>
			<path fill="#AFCC11" d="M203.024,202.67c-0.246-0.154-0.521-0.305-0.826-0.447c-0.383-0.178-0.766-0.32-1.143-0.428
				c-0.045,0.018-0.07,0.029-0.07,0.029c-2.627,0.775-4.109,2.57-6.494,5.654c-2.188,2.832-3.443,3.156-2.813,6.064
				c0.59,0.553,1.455,1.035,2.58,1.42c0.051,0.018,0.1,0.033,0.152,0.051c-0.398-2.377-0.313-4.01,2.318-7.131
				C199.284,204.85,202.034,203.967,203.024,202.67z"/>
			<path fill="#AFCC11" d="M204.786,206.863c0.264-1.207,0.133-2.322-0.668-3.268c0.346,1.176,0.172,1.832-2.65,3.408
				c-3.318,1.852-5.303,5.633-6.008,8.322c0.926,0.234,1.768,0.322,2.559,0.201c1.02-0.484,2.006-1.604,2.846-3.574
				C202.253,209.156,203.966,208.541,204.786,206.863z"/>
			<g>
				<path opacity="0.1" fill="#363636" d="M202.198,202.223c-0.229-0.105-0.455-0.197-0.68-0.279c2.014,1.148,2.945,4.18,0.83,5.832
					c-2.043,1.598-2,3.229-4.252,5.357c-2.016,1.904-7.334,0.008-7.02-2.744c-0.943,1.893,0.232,3.563,3.182,4.574
					c3.318,1.141,5.561,0.98,7.949-2.836C204.595,208.311,206.856,204.383,202.198,202.223z"/>
			</g>
			<path fill="#FFFFFF" fill-opacity="0.5" d="M199.595,202.699c-1.826,0.793,1.066,3.607,1.967,2.992
				C202.46,205.076,201.39,201.92,199.595,202.699z"/>
		</g>
	</g>
	<g>
		<g>
			<g>
				<path fill="#FFD9B3" d="M168.536,200.234c0,0,3.321-6.719,3.321-4.199c0,2.525-1.655,3.262,1.413,2.944
					c3.069-0.313,3.256,0.862,0.469,1.939c-2.788,1.08-2.071,0.9,0.436,2.16c2.5,1.266,3.819,3.738,0.299,2.169
					c-3.522-1.578-2.478-0.854-1.893,0.507c0.586,1.358,0.175,4.015-1.53,0.964c-1.706-3.049-1.306-0.982-1.406,0.49
					c-0.102,1.477-0.201,3.934-1.108,0.1C167.635,203.476,167.786,201.671,168.536,200.234z"/>
			</g>
		</g>
		<g>
			<g>
				<path fill="#0A0A0A" d="M169.283,209.554c-0.238,0-0.461-0.164-0.938-2.199c-0.969-4.098-0.694-5.848,0.011-7.206
					c0.727-1.468,2.491-4.876,3.28-4.876c0.281,0,0.42,0.257,0.42,0.763c0,0.853-0.18,1.505-0.313,1.979
					c-0.095,0.344-0.173,0.631-0.101,0.725c0.05,0.067,0.377,0.172,1.605,0.046c0.356-0.036,0.672-0.052,0.951-0.052
					c1.298,0,1.644,0.361,1.701,0.657c0.105,0.545-0.641,1.147-2.086,1.711c-0.674,0.258-1.594,0.62-1.668,0.734
					c0.051,0.104,0.51,0.318,0.958,0.52c0.326,0.148,0.711,0.326,1.157,0.551c1.518,0.764,2.706,2.006,2.546,2.66
					c-0.037,0.143-0.169,0.386-0.634,0.386c-0.405,0-1.005-0.181-1.785-0.529c-0.877-0.389-1.803-0.79-2.188-0.858
					c0.042,0.101,0.124,0.251,0.198,0.383c0.115,0.211,0.25,0.457,0.365,0.729c0.304,0.706,0.383,1.869,0.041,2.383
					c-0.149,0.214-0.336,0.262-0.463,0.262c-0.425,0-0.902-0.492-1.471-1.506c-0.578-1.032-0.842-1.342-0.954-1.44
					c-0.051,0.181-0.051,0.628-0.051,0.962c0,0.293,0,0.6-0.02,0.887l-0.018,0.23C169.729,208.976,169.654,209.554,169.283,209.554
					L169.283,209.554L169.283,209.554z M169.879,204.947c0.258,0,0.562,0.278,1.343,1.675c0.696,1.244,1.056,1.307,1.121,1.307
					c0.018,0,0.062,0,0.127-0.09c0.217-0.323,0.233-1.296-0.076-2.011c-0.109-0.259-0.24-0.492-0.347-0.692
					c-0.223-0.4-0.354-0.639-0.234-0.833c0.039-0.069,0.127-0.145,0.303-0.145c0.304,0,0.92,0.228,2.44,0.912
					c0.906,0.402,1.378,0.484,1.618,0.484c0.082,0,0.222-0.008,0.241-0.082c0.083-0.317-0.768-1.424-2.336-2.216
					c-0.441-0.222-0.83-0.399-1.149-0.546c-0.819-0.377-1.193-0.549-1.186-0.864c0.013-0.354,0.504-0.56,1.922-1.109
					c1.423-0.556,1.878-1.062,1.841-1.27c-0.024-0.129-0.331-0.343-1.308-0.343c-0.269,0-0.569,0.017-0.905,0.05
					c-0.465,0.051-0.803,0.07-1.066,0.07c-0.491,0-0.762-0.083-0.907-0.266c-0.194-0.253-0.099-0.591,0.034-1.063
					c0.129-0.46,0.302-1.077,0.302-1.882c0-0.252-0.038-0.348-0.03-0.361c-0.424,0.088-1.831,2.468-2.907,4.648
					c-0.671,1.284-0.927,2.96,0.016,6.942c0.26,1.096,0.43,1.568,0.523,1.768c0.088-0.35,0.141-1.144,0.17-1.604l0.016-0.23
					c0.018-0.279,0.021-0.583,0.021-0.862C169.466,205.502,169.466,204.947,169.879,204.947L169.879,204.947z"/>
			</g>
		</g>
	</g>
	<g>
		<g>
			<path fill="#0A0A0A" d="M169.359,202.692l0.57-0.558c-10.729-10.465-11.243-25.655-11.248-25.804l-0.805,0.017
				C157.881,176.503,158.41,192.007,169.359,202.692L169.359,202.692z"/>
		</g>
	</g>
</g>
</svg>
