<?xml version="1.0" encoding="utf-8"?>
<!-- Generator: Adobe Illustrator 16.0.0, SVG Export Plug-In . SVG Version: 6.00 Build 0)  -->
<!DOCTYPE svg PUBLIC "-//W3C//DTD SVG 1.1//EN" "http://www.w3.org/Graphics/SVG/1.1/DTD/svg11.dtd">
<svg version="1.1" id="Capa_1" xmlns="http://www.w3.org/2000/svg" xmlns:xlink="http://www.w3.org/1999/xlink" x="0px" y="0px"
	 width="400px" height="400px" viewBox="0 0 400 400" enable-background="new 0 0 400 400" xml:space="preserve">
<g>
	<g>
		<g>
			<g>
				<path d="M176.037,175.498c-0.79-1.709-2.235-4.864-2.235-4.864l0.478-0.22c0,0,1.446,3.155,2.235,4.864L176.037,175.498
					L176.037,175.498z"/>
			</g>
		</g>
		<g>
			<g>
				<g>
					<g>
						<g>
							<path fill="#938785" d="M141.628,306.676c-1.626,6.615,22.74,1.431,22.904-1.791c0.024-0.471,0.041-0.94,0.053-1.408
								c-1.158,1.15-4.125,2.319-11.479,3.795C142.307,309.44,141.628,306.676,141.628,306.676z"/>
						</g>
						<g>
							<path d="M147.413,310.141c-2.956,0-4.87-0.528-5.688-1.574c-0.42-0.536-0.539-1.192-0.352-1.953h0.51
								c0.001,0.004,0.431,1.227,4.292,1.227c1.836,0,4.15-0.279,6.878-0.825c6.586-1.325,10.085-2.473,11.346-3.725l0.464-0.46
								l-0.016,0.653c-0.011,0.471-0.029,0.94-0.053,1.413C164.674,307.278,154.016,310.141,147.413,310.141L147.413,310.141z
								 M141.815,307.355c0.013,0.334,0.121,0.628,0.325,0.888c0.703,0.896,2.526,1.371,5.273,1.371
								c7.009,0,16.77-3.025,16.857-4.745c0.014-0.27,0.025-0.541,0.034-0.81c-1.609,1.183-5.034,2.242-11.147,3.469
								c-2.762,0.556-5.111,0.837-6.982,0.837C143.553,308.365,142.357,307.817,141.815,307.355L141.815,307.355z"/>
						</g>
					</g>
					<g>
						<g>
							<path fill="#3D2E31" d="M156.138,297.745c0,0-12.882,2.316-14.509,8.931c0,0,0.679,2.765,11.477,0.596
								c7.355-1.476,10.322-2.645,11.479-3.795C164.696,298.702,163.832,294.482,156.138,297.745z"/>
						</g>
						<g>
							<path d="M146.176,308.365L146.176,308.365c-4.279,0-4.762-1.459-4.802-1.625l-0.016-0.064l0.016-0.063
								c1.648-6.704,14.185-9.032,14.717-9.127c3.484-1.492,5.946-1.55,7.339-0.123c1.342,1.376,1.471,3.866,1.418,6.12
								l-0.003,0.105l-0.075,0.077c-1.356,1.346-4.829,2.501-11.613,3.862C150.396,308.084,148.047,308.365,146.176,308.365
								L146.176,308.365z M141.905,306.657c0.12,0.22,0.841,1.183,4.271,1.183l0,0c1.836,0,4.15-0.279,6.878-0.825
								c6.46-1.298,9.951-2.427,11.271-3.65c0.04-2-0.08-4.412-1.271-5.631c-1.229-1.259-3.474-1.163-6.813,0.254
								C156.058,298.027,143.559,300.346,141.905,306.657L141.905,306.657z"/>
						</g>
					</g>
				</g>
				<g opacity="0.5">
					<g>
						<path fill="#3D2E31" d="M156.138,297.745c0,0-3.283,0.593-6.744,2.027c0.374-0.156,1.951,0.428,2.369,0.484
							c2.612,0.351,8.714-0.357,9.167,2.64c0.093,0.619-0.042,1.576-0.521,2.604c-0.437,0.936-1.202,1.937-2.499,2.818
							c3.694-1.012,6.567-2.336,6.623-3.435c0.024-0.471,0.041-0.94,0.053-1.408C164.696,298.702,163.832,294.482,156.138,297.745z"
							/>
					</g>
				</g>
			</g>
			<g>
				<g>
					<g>
						<g>
							<path fill="#938785" d="M201.977,302.943c2.54,6.321-22.312,4.609-22.928,1.441c-0.09-0.46-0.172-0.923-0.25-1.383
								c1.308,0.974,4.41,1.713,11.899,2.142C201.695,305.772,201.977,302.943,201.977,302.943z"/>
						</g>
						<g>
							<path d="M191.947,307.487c-5.267,0-12.77-1.062-13.157-3.052c-0.09-0.465-0.172-0.93-0.25-1.39l-0.107-0.646l0.524,0.393
								c1.423,1.063,5.049,1.705,11.757,2.09c1.053,0.062,2.054,0.091,2.974,0.091c7.6,0,8.026-2.042,8.03-2.064l0.152-0.928
								l0.352,0.865c0.315,0.783,0.262,1.495-0.158,2.117C200.523,307.242,194.476,307.487,191.947,307.487L191.947,307.487z
								 M179.158,303.538c0.047,0.265,0.097,0.531,0.148,0.798c0.263,1.35,6.405,2.625,12.641,2.625c5.091,0,8.709-0.857,9.68-2.292
								c0.21-0.313,0.299-0.648,0.262-1.021c-0.666,0.758-2.6,1.851-8.201,1.851c0,0,0,0,0,0c-0.93,0-1.941-0.028-3.004-0.09
								C184.458,305.051,180.918,304.483,179.158,303.538L179.158,303.538z"/>
						</g>
					</g>
					<g>
						<g>
							<path fill="#3D2E31" d="M186.358,296.14c0,0,13.08,0.481,15.619,6.804c0,0-0.281,2.829-11.279,2.2
								c-7.489-0.429-10.591-1.168-11.899-2.142C178.019,298.289,178.281,293.987,186.358,296.14z"/>
						</g>
						<g>
							<path d="M193.687,305.498c-0.93,0-1.941-0.028-3.004-0.09c-6.908-0.396-10.509-1.053-12.041-2.196l-0.085-0.063l-0.018-0.103
								c-0.386-2.33-0.605-4.916,0.688-6.441c1.22-1.439,3.603-1.675,7.198-0.72c0.483,0.013,13.222,0.553,15.795,6.961l0.024,0.061
								l-0.007,0.063C202.213,303.229,201.752,305.498,193.687,305.498L193.687,305.498z M179.041,302.853
								c1.479,1.025,5.094,1.652,11.672,2.029c1.053,0.062,2.054,0.091,2.974,0.091c6.913,0,7.891-1.691,8.014-2.013
								c-2.527-6.015-15.225-6.554-15.354-6.558c-3.522-0.922-5.636-0.733-6.719,0.543
								C178.488,298.291,178.707,300.791,179.041,302.853L179.041,302.853z"/>
						</g>
					</g>
				</g>
				<g opacity="0.5">
					<g>
						<path fill="#3D2E31" d="M186.358,296.14c0,0,3.334,0.125,6.962,1.06c-0.392-0.103-1.871,0.695-2.278,0.811
							c-2.536,0.715-8.678,0.872-8.706,3.905c-0.005,0.624,0.263,1.552,0.882,2.502c0.563,0.866,1.462,1.75,2.87,2.44
							c-3.799-0.479-6.83-1.39-7.04-2.473c-0.09-0.46-0.172-0.923-0.25-1.383C178.019,298.289,178.281,293.987,186.358,296.14z"/>
					</g>
				</g>
			</g>
			<g>
				<g>
					<path fill="#002C5B" d="M141.789,217.272c0,0-2.231,32.993,6.59,80.282c0,0,6.779,2.871,15.674-0.929
						c0,0-2.858-29.184-1.713-51.256l5.516-1.055c0,0,5.111,40.773,8.395,52.588c0,0,6.759,2.561,14.625-1.464
						c0,0-3.852-69.045-7.465-82.072C179.797,200.34,141.789,217.272,141.789,217.272z"/>
				</g>
				<g>
					<path d="M154.73,298.857c-3.903,0-6.351-1.017-6.454-1.061l-0.13-0.057l-0.025-0.137c-8.727-46.782-6.617-80.02-6.595-80.348
						l0.011-0.159l0.144-0.064c0.199-0.089,20.018-8.854,32.307-8.854c5.479,0,8.734,1.722,9.676,5.119
						c3.58,12.906,7.436,81.436,7.475,82.128l0.01,0.169l-0.152,0.078c-2.977,1.524-6.134,2.296-9.378,2.296
						c-0.001,0-0.001,0-0.001,0c-3.257,0-5.371-0.785-5.458-0.819l-0.125-0.047l-0.036-0.127
						c-3.108-11.188-7.908-48.727-8.367-52.349l-5.038,0.964c-1.102,21.776,1.694,50.721,1.723,51.012l0.019,0.191l-0.177,0.075
						C161.067,298.188,157.896,298.857,154.73,298.857L154.73,298.857z M148.611,297.363c0.551,0.204,2.823,0.97,6.119,0.97
						c3.033,0,6.075-0.632,9.044-1.873c-0.245-2.577-2.78-30.198-1.696-51.104l0.01-0.206l5.994-1.146l0.035,0.278
						c0.051,0.406,5.108,40.583,8.351,52.417c0.494,0.164,2.429,0.741,5.149,0.741h0.001c3.106,0,6.128-0.727,8.986-2.161
						c-0.217-3.844-3.969-69.307-7.445-81.844c-0.872-3.141-3.957-4.733-9.17-4.733c-11.625,0-30.117,7.945-31.947,8.745
						C141.893,219.99,140.237,252.388,148.611,297.363L148.611,297.363z"/>
				</g>
			</g>
			<g opacity="0.52">
				<g>
					<g>
						<path fill="#000022" d="M183.411,213.367c-3.614-13.027-41.623,3.905-41.623,3.905s-0.439,6.542-0.152,17.958l0.019,0.009
							c0,0-0.403-11.732,2.537-10.727c2.939,1.006,21.96,4.871,33.899,1.04c0,0,3.975-1.348,4.765,5.813
							c0.791,7.163,6.687,63.042,4.692,63.613c-1.993,0.57-7.666,1.841-10.281,0.604c0,0-6.994-33.09-7.798-51.188
							c0,0,0.18-2.491-1.334-2.372c-1.516,0.12-6.046,0.685-8.209,1.268c-2.325,0.628-2.265,9.675-1.241,28.58
							c1.025,18.906,2.165,23.565,0.843,24.082c-1.32,0.517-8.339,1.896-10.293,0.399c0,0-4.442-22.146-6.438-40.356
							c-0.009-0.087-0.029-0.155-0.04-0.239c0.977,11.888,2.685,26.044,5.623,41.798c0,0,6.779,2.871,15.674-0.929
							c0,0-2.858-29.184-1.713-51.256l5.516-1.055c0,0,5.111,40.773,8.395,52.588c0,0,6.759,2.561,14.625-1.464
							C190.876,295.439,187.024,226.395,183.411,213.367z"/>
					</g>
				</g>
			</g>
		</g>
		<g>
			<g>
				<path fill="#665D58" d="M141.179,219.641v4.558c0,0,28.918,4.032,43.465-6.484l-0.876-6.485L141.179,219.641z"/>
			</g>
			<g>
				<path d="M153.98,225.221c-0.001,0-0.001,0-0.003,0c-7.287,0-12.78-0.754-12.835-0.761l-0.227-0.031v-5.003l43.075-8.509
					l0.935,6.918l-0.127,0.092C176.459,223.954,163.436,225.221,153.98,225.221L153.98,225.221z M141.442,223.968
					c1.104,0.141,6.119,0.728,12.536,0.728c0.001,0,0.002,0,0.003,0c9.33,0,22.151-1.236,30.381-7.103l-0.817-6.052l-42.103,8.315
					V223.968L141.442,223.968z"/>
			</g>
		</g>
		<g>
			<g>
				<path fill="#F0EDEC" d="M158.705,218.765l0.877,6.486c0,0,7.711,0.174,11.216-1.754l-0.701-5.783L158.705,218.765z"/>
			</g>
			<g>
				<path d="M160.083,225.518L160.083,225.518c-0.324,0-0.507-0.004-0.507-0.004l-0.225-0.006l-0.943-6.979l11.92-1.101l0.753,6.214
					l-0.156,0.085C167.906,225.389,161.864,225.518,160.083,225.518L160.083,225.518z M159.812,224.99
					c1.266,0.014,7.559-0.024,10.704-1.641l-0.648-5.351l-10.865,1.003L159.812,224.99L159.812,224.99z"/>
			</g>
		</g>
		<g>
			<g>
				<g>
					<path fill="#FACEAB" d="M127.958,224.872c-0.225,0.492-0.639,1.093-1.396,1.576c-1.544,0.98-3.975,1.398-3.075,2.326
						s4.527-0.732,4.527-0.732s-2.04,2.123-3.283,3.202c-1.245,1.081-0.281,1.901,2.553,0.008l1.808-1.33
						c0,0-1.742,3.496-1.938,4.738c-0.196,1.238,0.97,1.179,1.903-0.357c0.93-1.537,1.802-3.605,1.802-3.605s0.002,3.55-0.061,4.937
						c-0.064,1.381,1.693,1.157,1.928-0.911c0.236-2.068-0.312-4.647,0.532-4.885c0.843-0.239,2.368,0.968,3.417,0.49
						c1.05-0.479-1.16-2.496-3.719-4.141c-0.891-0.571-1.55-1.136-2.044-1.635c-0.085-0.007-0.169-0.027-0.262-0.08
						C129.143,223.631,128.277,224.455,127.958,224.872z"/>
				</g>
				<g>
					<path d="M131.426,236.77c-0.236,0-0.454-0.092-0.613-0.258c-0.14-0.146-0.3-0.418-0.278-0.891
						c0.038-0.848,0.052-2.529,0.057-3.689c-0.343,0.732-0.82,1.695-1.312,2.508c-0.513,0.847-1.142,1.352-1.683,1.352
						c-0.211,0-0.399-0.085-0.529-0.235c-0.124-0.146-0.255-0.427-0.175-0.937c0.136-0.864,0.965-2.72,1.502-3.859l-0.957,0.703
						c-1.145,0.767-2.123,1.185-2.761,1.185c-0.49,0-0.654-0.244-0.708-0.391c-0.127-0.341,0.082-0.771,0.589-1.21
						c0.71-0.617,1.692-1.587,2.395-2.296c-0.77,0.274-1.771,0.568-2.552,0.568c-0.5,0-0.87-0.123-1.103-0.362
						c-0.218-0.224-0.303-0.455-0.258-0.689c0.104-0.52,0.837-0.839,1.766-1.241c0.528-0.23,1.127-0.49,1.614-0.8
						c0.588-0.375,1.024-0.868,1.298-1.464c0.277-0.375,0.823-0.917,1.697-0.917c0.43,0,0.888,0.133,1.36,0.398
						c0.059,0.032,0.106,0.042,0.159,0.047l0.094,0.01l0.067,0.067c0.572,0.577,1.245,1.114,2,1.599
						c0.702,0.451,4.198,2.764,4.105,4.033c-0.018,0.251-0.166,0.452-0.419,0.566c-0.2,0.092-0.426,0.137-0.673,0.137h-0.001
						c-0.501,0-1.018-0.181-1.518-0.356c-0.501-0.175-0.989-0.334-1.262-0.256c-0.339,0.095-0.312,1.313-0.29,2.291
						c0.017,0.748,0.037,1.596-0.052,2.37C132.837,236.076,132.088,236.77,131.426,236.77L131.426,236.77z M130.616,230.596
						l0.505,0.102c0,0.036,0.001,3.572-0.062,4.947c-0.01,0.225,0.037,0.402,0.134,0.505c0.29,0.302,1.118-0.104,1.271-1.457
						c0.084-0.739,0.066-1.568,0.049-2.299c-0.033-1.455-0.059-2.603,0.672-2.809c0.42-0.119,0.992,0.062,1.58,0.266
						c0.458,0.16,0.933,0.327,1.344,0.327c0.001,0,0.001,0,0.001,0c0.175,0,0.323-0.029,0.454-0.09
						c0.108-0.048,0.112-0.098,0.114-0.126c0.035-0.496-1.307-1.909-3.867-3.554c-0.76-0.488-1.441-1.027-2.026-1.608
						c-0.095-0.017-0.181-0.05-0.266-0.098c-0.393-0.219-0.764-0.331-1.104-0.331c-0.648,0-1.061,0.415-1.249,0.661
						c-0.282,0.629-0.798,1.212-1.464,1.638c-0.522,0.332-1.141,0.601-1.687,0.838c-0.628,0.272-1.41,0.612-1.459,0.863
						c-0.014,0.071,0.068,0.167,0.119,0.22c0.127,0.133,0.378,0.202,0.725,0.202c1.325,0,3.482-0.979,3.503-0.991l0.298,0.422
						c-0.02,0.021-2.063,2.144-3.3,3.22c-0.42,0.364-0.456,0.593-0.441,0.631c0.002,0.006,0.055,0.047,0.216,0.047
						c0.25,0,0.99-0.104,2.46-1.088l1.799-1.324l0.391,0.328c-0.017,0.036-1.727,3.477-1.915,4.665
						c-0.037,0.235-0.017,0.427,0.055,0.512c0.021,0.023,0.053,0.051,0.129,0.051c0.273,0,0.776-0.343,1.233-1.099
						C129.742,232.664,130.607,230.616,130.616,230.596L130.616,230.596z"/>
				</g>
			</g>
		</g>
		<g>
			<g>
				<path fill="#E2F3F6" d="M151.695,176.877l6.66-6.484c0,0,2.454,0.701,4.031-0.175l6.835,5.258l3.014-10.665
					c-0.535,0.046-1.071,0.093-1.611,0.149l-20.64,1.107C149.903,168.53,150.054,172.895,151.695,176.877z"/>
			</g>
			<g>
				<path d="M151.599,177.337l-0.147-0.359c-1.681-4.081-1.807-8.593-1.732-10.918l0.008-0.241l20.882-1.12
					c0.527-0.056,1.063-0.102,1.598-0.148l0.378-0.032l-0.098,0.365l-3.119,11.038l-7.01-5.393c-0.541,0.261-1.21,0.394-1.992,0.394
					c-0.863,0-1.622-0.16-1.934-0.237L151.599,177.337L151.599,177.337z M150.239,166.316c-0.054,2.272,0.102,6.343,1.555,10.099
					l6.487-6.316l0.146,0.042c0.009,0.002,0.909,0.254,1.939,0.254c0.769,0,1.405-0.136,1.892-0.407l0.151-0.083l6.664,5.127
					l2.805-9.926c-0.409,0.036-0.817,0.073-1.228,0.116L150.239,166.316L150.239,166.316z"/>
			</g>
		</g>
		<g>
			<g>
				<g>
					<path fill="#2A5CAA" d="M154.586,208.249l9.069,5.652l6.179-7.755l-6.967-25.764l2.68-7.732l-3.163-2.432
						c-1.577,0.875-4.031,0.175-4.031,0.175l-2.557,2.491l4.441,7.63C160.239,180.515,156.558,198.786,154.586,208.249z"/>
				</g>
				<g>
					<path d="M163.716,214.249l-9.424-5.873l0.038-0.18c1.875-8.998,5.338-26.178,5.633-27.637l-4.496-7.72l2.814-2.74l0.146,0.042
						c0.009,0.002,0.909,0.254,1.939,0.254c0.769,0,1.405-0.136,1.892-0.407l0.151-0.083l3.449,2.654l-2.715,7.833l6.98,25.814
						L163.716,214.249L163.716,214.249z M154.881,208.123l8.715,5.432l5.949-7.469l-6.953-25.713l2.645-7.629l-2.879-2.216
						c-0.541,0.261-1.21,0.394-1.992,0.394c-0.863,0-1.622-0.16-1.934-0.237l-2.305,2.244l4.388,7.538l-0.019,0.1
						C160.46,180.747,156.839,198.716,154.881,208.123L154.881,208.123z"/>
				</g>
			</g>
			<g>
				<g>
					<path fill="#E2F3F6" d="M172.234,164.812l-3.014,10.665l-3.673-2.826l-2.68,7.732l6.967,25.764l-6.179,7.755l-9.069-5.652
						c1.972-9.463,5.652-27.734,5.652-27.734l-4.441-7.63l-4.103,3.993c-1.641-3.983-1.792-8.348-1.712-10.81l-2.231,0.119
						c0,0-20.769,5.521-20.769,58.888c0,0,3.943,2.367,7.361,1.315c0,0-1.752-17.262,4.907-41.273c0,0,1.928,19.103,1.577,37.33
						c0,0,23.835,1.228,43.465-7.536c0,0,0.351-21.556-8.587-40.31c0,0,18.053-3.156,34.001,1.401v-7.711
						C209.707,168.29,193.366,163.011,172.234,164.812z"/>
				</g>
				<g>
					<path d="M132.454,226.922c-2.872,0-5.497-1.555-5.606-1.621l-0.128-0.076v-0.15c0-52.956,20.754-59.085,20.964-59.142
						l2.571-0.144l-0.009,0.287c-0.072,2.215,0.042,6.447,1.548,10.339l4.061-3.954l4.661,8.006l-0.019,0.1
						c-0.037,0.18-3.657,18.148-5.615,27.556l8.715,5.432l5.949-7.469l-6.953-25.713l2.826-8.153l3.654,2.812l2.958-10.466
						l0.181-0.016c2.923-0.25,5.923-0.375,8.917-0.375c16.501,0,28.539,3.826,28.658,3.864l0.184,0.06v8.251l-0.336-0.095
						c-5.703-1.63-12.301-2.455-19.613-2.455c-7.018,0-12.534,0.787-13.929,1.004c8.71,18.523,8.467,39.896,8.464,40.112
						l-0.003,0.167l-0.153,0.068c-15.402,6.876-33.417,7.618-40.446,7.618c-1.97,0-3.128-0.059-3.14-0.059l-0.254-0.014l0.004-0.254
						c0.292-15.146-1.009-31.072-1.44-35.86c-6.125,22.97-4.537,39.611-4.52,39.78l0.022,0.216l-0.206,0.063
						C133.814,226.827,133.153,226.922,132.454,226.922L132.454,226.922z M127.245,224.922c0.555,0.307,2.831,1.474,5.209,1.474
						c0.568,0,1.108-0.067,1.608-0.2c-0.169-2.089-1.261-18.809,4.936-41.149l0.515,0.043c0.02,0.191,1.907,19.147,1.583,37.107
						c0.44,0.016,1.435,0.047,2.859,0.047c6.973,0,24.802-0.732,40.077-7.505c0.005-2.048-0.167-22.407-8.563-40.025l-0.148-0.312
						l0.341-0.06c0.062-0.011,6.205-1.068,14.361-1.068c7.219,0,13.75,0.801,19.422,2.381v-7.17
						c-1.563-0.478-13.003-3.783-28.314-3.783c-2.917,0-5.84,0.12-8.691,0.356l-3.07,10.863l-3.691-2.838l-2.534,7.309l6.98,25.814
						l-6.407,8.043l-9.424-5.873l0.038-0.18c1.875-8.998,5.338-26.178,5.633-27.637l-4.223-7.252l-4.14,4.03l-0.147-0.359
						c-1.614-3.919-1.794-8.236-1.74-10.633l-1.946,0.104C147.613,166.495,127.285,172.571,127.245,224.922L127.245,224.922z"/>
				</g>
			</g>
		</g>
		<g>
			<g>
				<path fill="#FACEAB" d="M163.262,162.9l-8.413,2.629c0,0,2.103,4.996,4.733,4.996C160.992,170.524,164.47,171.053,163.262,162.9
					z"/>
			</g>
			<g>
				<path d="M160.139,170.794L160.139,170.794l-0.557-0.007c-2.772,0-4.887-4.946-4.975-5.156l-0.113-0.266l8.983-2.807l0.045,0.303
					c0.513,3.461,0.256,5.729-0.784,6.935C161.975,170.681,160.948,170.794,160.139,170.794L160.139,170.794z M155.211,165.692
					c0.471,1.011,2.28,4.569,4.371,4.569l0.557,0.007c0,0,0,0,0.001,0c0.739,0,1.58-0.098,2.2-0.816
					c0.892-1.035,1.129-3.122,0.705-6.208L155.211,165.692L155.211,165.692z"/>
			</g>
		</g>
		<g>
			<g>
				<path fill="#FACEAB" d="M163.262,162.9l-8.413,2.629c0,0,2.103,4.996,4.733,4.996C160.992,170.524,164.47,171.053,163.262,162.9
					z"/>
			</g>
		</g>
		<g>
			<g>
				<path fill="#C2E9F3" d="M155.043,165.796l-5.061,0.271l-2.231,0.119c0,0-5.769,1.537-11.226,10.8
					c0.232-0.244,0.443-0.509,0.622-0.809c3.33-5.608,8.238-7.361,8.238-7.361c4.031,2.453,9.639,2.104,9.639,2.104l-2.804,3.505
					c-1.227-0.702-1.929-2.979-1.929-2.979l1.425,5.411l6.901-6.639C157.163,169.336,155.414,167.989,155.043,165.796z"/>
			</g>
		</g>
		<g>
			<g>
				<path fill="#C2E9F3" d="M202.979,166.624c2.314,2.55,1.056,5.101-5.188,4.296c-10.867-1.402-21.384-0.876-21.384-0.876
					l-1.021-5.448c-1.038,0.057-2.086,0.125-3.151,0.216c-0.535,0.046-1.071,0.093-1.611,0.149l-6.835-0.001
					c-0.512,2.173-0.051,4.268-1.378,5.277l3.138,2.414l-2.68,7.732l6.967,25.764l-6.179,7.755l-9.069-5.652l9.201,7.713
					l7.537-10.164l-7.361-23.661c0,0,2.104-7.361,4.031-5.61c1.928,1.752,1.752,0.877,3.331-0.7
					c1.577-1.577,6.485,23.31,5.959,32.248c-0.526,8.938-7.011,9.64-19.279,11.217c-12.268,1.577-12.969,1.402-12.793-10.516
					c0.175-11.918-2.279-30.32-5.96-26.815c-3.681,3.505-7.01,18.403-8.062,25.764c-0.544,3.806-2.257,4.799-3.787,4.871
					c-0.27,3.84-0.42,7.986-0.42,12.479c0,0,3.943,2.367,7.361,1.315c0,0-1.752-17.262,4.907-41.273c0,0,1.928,19.103,1.577,37.33
					c0,0,23.835,1.228,43.465-7.536c0,0,0.351-21.556-8.587-40.31c0,0,18.053-3.156,34.001,1.401v-7.711
					C209.707,168.29,207.233,167.493,202.979,166.624z M168.52,173.724l-4.557-3.681l0.701-0.876l5.784-1.577L168.52,173.724z"/>
			</g>
		</g>
		<g>
			<g>
				<g>
					<path fill="#2A5CAA" d="M162.868,180.382l2.68-7.732l-3.163-2.432c-1.577,0.875-4.031,0.175-4.031,0.175l-2.557,2.491
						l0.688,1.183l2.307-2.491c0,0,2.629,0.131,3.155-0.132c0.526-0.263,0.657,5.521-0.263,6.704
						c-0.678,0.871-1.57,0.951-2.675,0.256l1.229,2.11c0,0-0.254,1.259-0.662,3.279l0.005,0.007c0,0,1.577-4.995,3.022,0.657
						c1.446,5.652,5.521,20.506,4.601,21.689c-0.919,1.183-3.812,6.047-6.31,4.601c-2.044-1.185-5.055-2.982-6.08-3.597
						c-0.079,0.377-0.156,0.746-0.229,1.099l9.069,5.652l6.179-7.755L162.868,180.382z"/>
				</g>
			</g>
		</g>
		<g>
			<g>
				<g>
					<g>
						<path fill="#FACEAB" d="M193.463,140.617c-0.732-5.95-6.596-3.228-6.596-3.228l-2.978,9.159
							C187.398,151.645,194.173,146.566,193.463,140.617z"/>
					</g>
					<g>
						<path d="M187.484,148.904L187.484,148.904c-1.046,0-2.556-0.382-3.813-2.208l-0.073-0.107l3.054-9.391l0.104-0.048
							c0.057-0.026,1.407-0.646,2.926-0.646c1.615,0,3.626,0.709,4.042,4.082c0.265,2.214-0.451,4.46-1.96,6.161
							C190.545,148.118,188.986,148.904,187.484,148.904L187.484,148.904z M184.179,146.503c0.882,1.227,2.022,1.875,3.305,1.875h0
							c1.352,0,2.769-0.722,3.886-1.98c1.41-1.589,2.078-3.685,1.832-5.75c-0.296-2.399-1.479-3.618-3.52-3.618
							c-1.171,0-2.269,0.416-2.602,0.553L184.179,146.503L184.179,146.503z"/>
					</g>
				</g>
				<g>
					<g>
						<path d="M186.741,142.552l-0.286-0.442c0.082-0.052,2.035-1.289,4.886-0.116l-0.201,0.487
							C188.558,141.415,186.814,142.504,186.741,142.552L186.741,142.552z"/>
					</g>
				</g>
				<g>
					<g>
						<path fill="#FACEAB" d="M189.738,146.345c-3.371,0.646-1.083-5.51-0.811-7.47c0.272-1.959,1.852-1.8,1.852-1.8l0.051-0.153
							c-1.855-0.506-3.963,0.466-3.963,0.466l-2.978,9.159c2.769,4.013,7.528,1.708,9.096-2.356
							C192.31,145.311,191.283,146.05,189.738,146.345z"/>
					</g>
				</g>
			</g>
			<g>
				<g>
					<g>
						<path fill="#FACEAB" d="M122.214,146.018c0.607-5.961,6.466-3.316,6.466-3.316l3.129,9.124
							C128.435,156.973,121.629,151.979,122.214,146.018z"/>
					</g>
					<g>
						<path d="M128.239,154.232c-1.472,0-3.014-0.769-4.23-2.109c-1.524-1.682-2.274-3.917-2.057-6.131
							c0.348-3.421,2.365-4.139,3.996-4.139c1.476,0,2.785,0.583,2.84,0.609l0.103,0.047l3.209,9.354l-0.071,0.107
							C130.803,153.84,129.292,154.232,128.239,154.232L128.239,154.232z M125.948,142.379c-2.057,0-3.226,1.233-3.473,3.666
							c-0.202,2.065,0.499,4.152,1.923,5.725c1.116,1.231,2.517,1.937,3.84,1.937c1.288,0,2.42-0.663,3.28-1.918l-3.049-8.89
							C128.144,142.767,127.083,142.379,125.948,142.379L125.948,142.379z"/>
					</g>
				</g>
				<g>
					<g>
						<path d="M128.904,147.865c-0.075-0.045-1.822-1.11-4.355-0.015l-0.208-0.483c2.799-1.209,4.762,0.001,4.844,0.054
							L128.904,147.865L128.904,147.865z"/>
					</g>
				</g>
				<g>
					<g>
						<path fill="#FACEAB" d="M126.012,151.702c3.352,0.604,0.965-5.526,0.657-7.485c-0.309-1.958-1.869-1.777-1.869-1.777
							l-0.053-0.151c1.827-0.532,3.933,0.413,3.933,0.413l3.129,9.124c-2.665,4.053-7.419,1.809-9.051-2.237
							C123.448,150.699,124.479,151.425,126.012,151.702z"/>
					</g>
				</g>
			</g>
			<g>
				<g>
					<g>
						<path fill="#A05E12" d="M171.45,107.036c0,0,3.419-5.629-2.389-0.841c0,0-4.791-6.574-3.393-0.109
							c0,0-11.956-9.571-26.585,1.562c-5.383,4.201-10.303-1.007-6.576-2.321c3.743-1.315-3.794-3.915-6.91,2.76
							c-2.759,6.046,3.26,9.604,3.26,9.604c-4.316,7.085-5.142,16-2.263,22.909c0,0,0.808,3.377,2.002,0.547
							c0,0-0.291-13.87,7.338-20.879c0,0,4.017,0.813,9.877,0.977c7.721,0.217,18.699-0.699,28.274-6.092
							c2.387,1.526,10.975,7.917,12.739,21.126c0,0,0.088,2.11,1.069-0.104c0.027-0.06,0.073-0.138,0.108-0.208
							C188.947,131.47,192.012,111.691,171.45,107.036z"/>
					</g>
					<g>
						<path d="M127.651,142.539c-0.821,0-1.237-1.564-1.312-1.878c-2.874-6.889-2.026-15.859,2.163-22.889
							c-1.084-0.742-5.656-4.288-3.144-9.795c1.56-3.339,4.288-4.529,6.321-4.529c1.161,0,2.004,0.382,2.102,0.951
							c0.056,0.327-0.104,0.796-1.186,1.176c-0.822,0.29-1.216,0.789-1.111,1.405c0.166,0.969,1.511,2.014,3.396,2.014
							c1.343-0.001,2.741-0.537,4.042-1.553c4.748-3.613,9.71-5.444,14.754-5.444c5.872,0,10.14,2.495,11.607,3.487
							c-0.269-1.55-0.072-2.034,0.111-2.261c0.129-0.161,0.308-0.245,0.517-0.245c0.964,0,2.598,2.043,3.197,2.839
							c1.999-1.623,2.682-1.815,3.024-1.815c0.3,0,0.441,0.169,0.497,0.269c0.306,0.543-0.368,1.88-0.771,2.589
							c19.904,4.73,17.593,23.494,16.402,29.161l-0.124,0.259c-0.368,0.831-0.649,1.168-0.969,1.168l0,0
							c-0.483,0-0.585-0.727-0.604-1.159c-1.713-12.816-9.819-19.093-12.486-20.83c-8.997,5.02-19.216,6.077-26.221,6.077
							c-0.705,0-1.391-0.01-2.051-0.028c-5.228-0.148-9.042-0.817-9.789-0.957c-7.354,6.876-7.161,20.453-7.157,20.591l0,0.056
							l-0.021,0.051C128.467,142.129,128.09,142.539,127.651,142.539L127.651,142.539z M131.679,103.974
							c-1.871,0-4.39,1.11-5.843,4.225c-2.625,5.755,2.919,9.125,3.157,9.266l0.228,0.136l-0.138,0.228
							c-4.217,6.923-5.098,15.821-2.245,22.671c0.18,0.737,0.55,1.515,0.813,1.515c0.047,0,0.304-0.044,0.682-0.919
							c-0.007-0.991,0.046-14.243,7.425-21.021l0.099-0.091l0.131,0.027c0.04,0.008,4.065,0.811,9.833,0.972
							c0.656,0.019,1.336,0.029,2.036,0.029c6.978,0,17.17-1.056,26.102-6.087l0.138-0.077l0.133,0.085
							c2.567,1.641,11.083,8.028,12.857,21.313c0.013,0.272,0.07,0.561,0.126,0.669c0.02-0.065,0.181-0.254,0.443-0.845
							c0.019-0.043,0.047-0.098,0.076-0.15c1.188-5.584,3.475-24.139-16.339-28.625l-0.356-0.081l0.189-0.313
							c0.634-1.042,1.084-2.173,0.946-2.37c-0.001,0-0.001,0-0.001,0c-0.276,0-0.969,0.243-2.941,1.869l-0.215,0.177l-0.164-0.226
							c-0.862-1.182-2.343-2.846-2.938-2.846c-0.049,0-0.078,0.014-0.107,0.049c-0.098,0.122-0.283,0.607,0.122,2.479l0.156,0.717
							l-0.576-0.456c-0.194-0.154-4.836-3.769-11.829-3.769c-4.925,0-9.782,1.795-14.433,5.334
							c-1.393,1.086-2.902,1.662-4.363,1.662c-2.187,0-3.707-1.247-3.913-2.452c-0.15-0.872,0.394-1.616,1.454-1.989
							c0.704-0.248,0.859-0.496,0.843-0.592C133.227,104.277,132.643,103.974,131.679,103.974L131.679,103.974z"/>
					</g>
				</g>
				<g>
					<g>
						<path fill="#FACEAB" d="M188.002,135.967c-0.036,0.069-0.082,0.147-0.108,0.208c-0.98,2.214-1.069,0.104-1.069,0.104
							c-1.764-13.208-10.352-19.6-12.739-21.126c-9.575,5.393-20.553,6.309-28.274,6.092c-5.861-0.165-9.877-0.977-9.877-0.977
							c-7.629,7.01-7.338,20.879-7.338,20.879c-1.194,2.831-2.002-0.547-2.002-0.547c0.968,5.666,6.646,31.365,32.679,28.465
							c29.562-3.257,28.516-32.175,28.516-32.175S187.879,136.552,188.002,135.967z"/>
					</g>
					<g>
						<path d="M155.299,169.555C155.298,169.555,155.298,169.555,155.299,169.555c-22.29-0.001-27.805-22.13-28.964-28.911
							l0.515-0.106c0.167,0.698,0.538,1.476,0.801,1.476c0.047,0,0.304-0.044,0.682-0.919c-0.007-0.991,0.046-14.243,7.425-21.021
							l0.099-0.091l0.131,0.027c0.04,0.008,4.065,0.811,9.833,0.972c0.656,0.019,1.335,0.029,2.036,0.029
							c6.978,0,17.17-1.056,26.102-6.087l0.138-0.077l0.133,0.085c2.567,1.641,11.083,8.028,12.857,21.313
							c0.013,0.272,0.07,0.561,0.126,0.669c0.02-0.065,0.181-0.254,0.443-0.845c0.019-0.043,0.047-0.098,0.076-0.15l0.013,0.002
							c0.001-0.002,0.001-0.003,0.001-0.007l0.515,0.109c-0.125,0.593-0.216,0.937-0.216,0.937
							c0.019,0.214,0.723,29.122-28.741,32.368C157.939,169.478,156.592,169.555,155.299,169.555L155.299,169.555z M127.204,142.373
							c1.736,8.125,7.921,26.655,28.094,26.656h0.001c1.273,0,2.601-0.077,3.945-0.225c27.129-2.989,28.26-28.082,28.285-31.518
							c-0.119,0.111-0.238,0.162-0.363,0.162c-0.483,0-0.585-0.726-0.604-1.159c-1.713-12.816-9.819-19.093-12.486-20.83
							c-8.997,5.02-19.216,6.077-26.221,6.077c-0.706,0-1.39-0.01-2.051-0.028c-5.228-0.148-9.042-0.817-9.789-0.957
							c-7.358,6.879-7.161,20.453-7.157,20.591l0,0.056l-0.021,0.051c-0.372,0.88-0.749,1.291-1.188,1.291
							C127.485,142.541,127.337,142.477,127.204,142.373L127.204,142.373z"/>
					</g>
				</g>
			</g>
			<g opacity="0.6">
				<g>
					<g>
						<path fill="#FACEAB" d="M188.002,135.967c-0.036,0.069-0.082,0.147-0.108,0.208c-0.98,2.214-1.069,0.104-1.069,0.104
							c-1.764-13.208-10.352-19.6-12.739-21.126c-9.575,5.393-20.553,6.309-28.274,6.092c-5.861-0.165-9.877-0.977-9.877-0.977
							c-7.629,7.01-7.338,20.879-7.338,20.879c-1.194,2.831-2.002-0.547-2.002-0.547c0.968,5.666,6.646,31.365,32.679,28.465
							c29.562-3.257,28.516-32.175,28.516-32.175S187.879,136.552,188.002,135.967z M158.532,167.063
							c-24.099,2.103-28.391-23.661-28.391-23.661c0.671-16.475,6.542-21.382,6.542-21.382c24.598,6.484,36.575-3.856,36.575-3.856
							C187.708,134.29,182.072,165.023,158.532,167.063z"/>
					</g>
				</g>
			</g>
			<g>
				<g>
					<path d="M170.326,142.822c0.031,1.451-0.679,2.69-1.584,2.763c-0.904,0.074-1.668-1.043-1.705-2.495
						c-0.04-1.453,0.667-2.689,1.58-2.765C169.528,140.252,170.293,141.37,170.326,142.822z"/>
				</g>
			</g>
			<g>
				<g>
					<path d="M147.158,145.518c0.202,1.445-0.355,2.721-1.243,2.851c-0.887,0.131-1.775-0.937-1.985-2.382
						c-0.211-1.445,0.343-2.723,1.237-2.851C146.063,143.006,146.955,144.072,147.158,145.518z"/>
				</g>
			</g>
			<g>
				<g>
					<path d="M174.109,137.793c-0.003-0.039-0.285-4.018-2.469-5.803c-0.863-0.706-1.924-0.98-3.158-0.813
						c-4.172,0.568-4.722,6.144-4.727,6.2l-0.523-0.047c0.005-0.061,0.591-6.049,5.18-6.673c1.378-0.188,2.58,0.124,3.563,0.928
						c2.361,1.933,2.648,6.003,2.659,6.176L174.109,137.793L174.109,137.793z"/>
				</g>
			</g>
			<g>
				<g>
					<path d="M138.229,141.539c-0.004-0.072-0.419-7.253,5.29-8.249c5.034-0.884,6.904,5.444,6.922,5.508l-0.505,0.146
						c-0.017-0.062-1.757-5.932-6.326-5.137c-5.249,0.916-4.861,7.629-4.856,7.697L138.229,141.539L138.229,141.539z"/>
				</g>
			</g>
			<g>
				<g>
					<path d="M145.297,145.277c0.047,0.435-0.176,0.816-0.5,0.85c-0.325,0.033-0.627-0.297-0.677-0.734
						c-0.051-0.436,0.173-0.816,0.498-0.849C144.944,144.511,145.249,144.841,145.297,145.277z"/>
				</g>
			</g>
			<g>
				<g>
					
						<ellipse transform="matrix(0.9914 0.1305 -0.1305 0.9914 19.9969 -20.7037)" cx="167.973" cy="142.229" rx="0.595" ry="0.796"/>
				</g>
			</g>
			<g>
				<g>
					<path fill="#88370D" d="M167.601,110.504l-0.137-0.207c-1.113-1.678-4.575-1.984-4.609-1.987l0.044-0.524
						c0.147,0.012,3.504,0.312,4.864,2.029c0.699-0.338,3.001-1.247,5.498,0.016l-0.237,0.47c-2.682-1.356-5.183,0.063-5.208,0.078
						L167.601,110.504L167.601,110.504z"/>
				</g>
			</g>
			<g opacity="0.52">
				<g>
					<path fill="#A05E12" d="M179.146,115.579c-6.204-6.477-0.737-5.837-0.36-5.787c-2.036-1.155-4.449-2.107-7.336-2.756
						c0,0,3.419-5.629-2.389-0.841c0,0-4.791-6.574-3.393-0.109c0,0-1.28-1.033-3.523-2.025c5.534,3.146-5.344,3.777-0.735,3.894
						c5.208,0.131,6.735,2.892,6.735,2.892c8.736-1.84,3.624,7.099-19.161,8.544c-22.677,1.445-24.025-8.808-24.025-8.808
						l-0.043,0.024c-0.396,4.497,3.942,7.083,3.942,7.083c-0.017,0.028-0.031,0.056-0.047,0.083
						c2.204,1.384,4.465,2.012,4.465,2.012s-3.655,6.046-5.554,13.013c-1.579,5.948-2.553,0.21-2.809-1.597
						c-0.059,3.295,0.491,6.521,1.682,9.397c0,0,0.808,3.377,2.002,0.547c0,0-0.291-13.87,7.338-20.879c0,0,4.017,0.813,9.877,0.977
						c7.721,0.217,18.699-0.699,28.274-6.092c2.387,1.526,10.975,7.917,12.739,21.126c0,0,0.088,2.11,1.069-0.104
						c0.027-0.06,0.073-0.138,0.108-0.208c0.314-1.501,0.853-4.709,0.701-8.486C187.553,132.506,185.343,122.192,179.146,115.579z"
						/>
				</g>
			</g>
			<g opacity="0.52">
				<g>
					<path fill="#A05E12" d="M129.758,107.956c-0.163,1.972,3.122,5.784,9.41,0.92c3.687-2.815,5.791-4.726,8.783-5.815
						c-2.797,0.783-5.788,2.21-8.867,4.588c-5.383,4.201-10.303-1.007-6.576-2.321c0.756-0.267,1.047-0.584,1.011-0.868
						C131.869,104.946,129.927,105.943,129.758,107.956z"/>
				</g>
			</g>
		</g>
	</g>
	<g>
		<g>
			<g>
				<g>
					<g>
						<path fill="#F05662" d="M237.661,301.592c-6.555-2.656-2.569-4.037-2.569-4.037s-3.301,0.91-3.293,2.759
							c0.01,2.206,9.26,6.968,15.732,6.715c4.699-0.186,4.824-4.71-1.855-7.454c0.018,0.015,0.034,0.034,0.051,0.05
							C248.555,302.497,243.792,304.074,237.661,301.592z"/>
					</g>
					<g>
						<path d="M247.025,307.301c-6.369,0-15.479-4.52-15.49-6.987c-0.01-2.024,3.344-2.975,3.486-3.014l0.156,0.502
							c-0.28,0.099-1.012,0.465-1.023,0.97c-0.01,0.414,0.445,1.297,3.605,2.577c1.934,0.784,3.895,1.215,5.523,1.215
							c1.551,0,2.682-0.401,2.953-1.048c0.243-0.58-0.244-1.248-0.696-1.709l0.235-0.475c4.371,1.795,5.613,4.184,5.348,5.682
							c-0.238,1.347-1.578,2.199-3.58,2.277C247.372,307.299,247.2,307.301,247.025,307.301L247.025,307.301z M233.699,298.398
							c-0.805,0.422-1.643,1.065-1.639,1.912c0.009,1.777,8.33,6.464,14.965,6.464c0.168,0,0.333-0.002,0.496-0.01
							c1.738-0.065,2.891-0.757,3.083-1.841c0.228-1.285-0.964-3.166-4.067-4.676c0.373,0.648,0.324,1.138,0.184,1.471
							c-0.365,0.869-1.617,1.371-3.438,1.371c-1.693,0-3.727-0.445-5.721-1.253c-2.672-1.083-3.959-2.092-3.934-3.081
							C233.633,298.629,233.658,298.509,233.699,298.398L233.699,298.398z"/>
					</g>
				</g>
				<g>
					<g>
						<path fill="#FACEAB" d="M235.092,297.555c0,0-3.985,1.381,2.569,4.037c6.131,2.482,10.894,0.905,8.065-1.968
							c-0.017-0.016-0.033-0.035-0.051-0.05C243.156,298.538,239.674,297.753,235.092,297.555z"/>
					</g>
					<g>
						<path d="M243.285,303.09c-0.002,0-0.002,0-0.002,0c-1.695-0.002-3.727-0.448-5.721-1.253
							c-2.672-1.083-3.959-2.092-3.934-3.081c0.025-0.971,1.32-1.432,1.377-1.451c4.336,0.169,7.926,0.856,10.77,2.027l0.102,0.071
							c1.059,1.071,1.039,1.848,0.844,2.315C246.355,302.588,245.104,303.09,243.285,303.09L243.285,303.09z M235.08,297.816
							c-0.183,0.084-0.914,0.45-0.925,0.955c-0.011,0.414,0.444,1.297,3.604,2.577c1.933,0.784,3.895,1.212,5.523,1.215
							c0,0,0,0,0.002,0c1.549,0,2.682-0.401,2.951-1.048c0.243-0.58-0.244-1.248-0.696-1.709
							C242.788,298.671,239.258,297.997,235.08,297.816L235.08,297.816z"/>
					</g>
				</g>
			</g>
			<g>
				<g>
					<g>
						<path fill="#F05662" d="M219.271,302.091c6.51-2.765,2.502-4.078,2.502-4.078s3.316,0.856,3.338,2.705
							c0.026,2.203-9.146,7.117-15.623,6.97c-4.701-0.11-4.897-4.632,1.734-7.484c-0.016,0.018-0.033,0.034-0.05,0.05
							C208.393,303.174,213.18,304.672,219.271,302.091z"/>
					</g>
					<g>
						<path d="M209.778,307.952l-0.296-0.002c-2.004-0.048-3.356-0.874-3.616-2.219c-0.29-1.493,0.911-3.902,5.253-5.771
							l0.296,0.422c-0.493,0.514-0.968,1.189-0.722,1.765c0.266,0.619,1.348,1.006,2.825,1.006h0.001
							c1.658,0,3.665-0.463,5.65-1.305c3.139-1.332,3.578-2.224,3.561-2.637c-0.025-0.6-1.029-0.947-1.039-0.95l0.147-0.504
							c0.144,0.037,3.511,0.931,3.536,2.955c0.005,0.458-0.292,0.993-0.883,1.591C222.271,304.554,215.27,307.952,209.778,307.952
							L209.778,307.952z M210.361,300.896c-3.07,1.56-4.228,3.454-3.979,4.735c0.21,1.081,1.373,1.752,3.112,1.791l0.282,0.003
							c5.359,0,12.182-3.306,14.342-5.491c0.475-0.479,0.733-0.911,0.729-1.215c-0.01-0.849-0.857-1.476-1.669-1.885
							c0.044,0.109,0.07,0.228,0.076,0.354c0.042,0.989-1.229,2.019-3.881,3.144c-2.049,0.867-4.129,1.347-5.855,1.347h-0.001
							c-1.741,0-2.947-0.484-3.309-1.326C210.067,302.022,210.014,301.533,210.361,300.896L210.361,300.896z"/>
					</g>
				</g>
				<g>
					<g>
						<path fill="#FACEAB" d="M221.773,298.013c0,0,4.008,1.313-2.502,4.078c-6.092,2.581-10.879,1.083-8.099-1.838
							c0.017-0.016,0.034-0.032,0.05-0.05C213.727,299.127,217.195,298.284,221.773,298.013z"/>
					</g>
					<g>
						<path d="M213.519,303.68c-1.741,0-2.947-0.484-3.309-1.326c-0.198-0.463-0.226-1.234,0.772-2.282l0.137-0.11
							c2.83-1.217,6.41-1.961,10.639-2.213c0.152,0.031,1.457,0.47,1.498,1.441c0.042,0.989-1.229,2.019-3.881,3.144
							C217.326,303.2,215.246,303.68,213.519,303.68L213.519,303.68z M211.377,300.424c-0.479,0.51-0.924,1.163-0.684,1.724
							c0.266,0.619,1.348,1.006,2.825,1.006c1.658,0,3.666-0.463,5.651-1.305c3.137-1.332,3.578-2.224,3.561-2.637
							c-0.02-0.504-0.757-0.856-1.04-0.95C217.646,298.52,214.144,299.244,211.377,300.424L211.377,300.424z"/>
					</g>
				</g>
			</g>
			<g>
				<g>
					<polygon points="221.149,297.979 216.633,258.786 217.678,258.664 222.193,297.857 221.149,297.979 					"/>
				</g>
			</g>
			<g>
				<g>
					<polygon points="236.299,297.42 235.249,297.366 237.137,259.75 238.186,259.804 236.299,297.42 					"/>
				</g>
			</g>
		</g>
		<g>
			<g>
				<g>
					<path fill="#C2611D" d="M265.755,171.357c-1.512-0.955-0.796,0.08-0.796,0.08c2.229,2.706-1.592,10.189-7.165,6.528
						c-7.342-4.824,1.752-12.895,6.369-29.135c5.121-18.015-4.22-38.769-24.28-44.342c-20.062-5.574-28.022,6.049-28.022,6.049
						c-5.253,1.035-6.687-6.049-6.367-7.801c0.318-1.751-0.716-0.319-0.716-0.319c-1.123,1.722-2.594,8.153,1.795,10.374
						c-3.607,1.564-8.947,5.701-11.31,15.738c-3.343,14.21,1.075,24.002,7.644,33.197c6.566,9.194,2.984,17.313-0.359,17.313
						c-3.343,0-2.626-4.179-1.671-5.85c0.956-1.672-0.397-0.638-0.397-0.638c-5.891,4.617-2.07,18.15,13.214,8.278
						c15.284-9.871,33.126-7.409,39.007-0.237c4.896,5.97,11.941,5.97,14.807,1.193
						C270.844,176.224,267.268,172.313,265.755,171.357z"/>
				</g>
				<g>
					<path d="M261.318,185.496L261.318,185.496c-3.14,0-6.354-1.728-8.822-4.737c-3.137-3.826-9.713-6.201-17.158-6.201
						c-7.383,0-15.018,2.306-21.503,6.494c-3.661,2.365-6.913,3.564-9.663,3.564c-3.037,0-5.3-1.506-6.206-4.133
						c-0.992-2.871-0.003-6.294,2.35-8.137c0.148-0.115,0.516-0.373,0.784-0.373c0.142,0,0.26,0.065,0.326,0.179
						c0.125,0.215,0.035,0.542-0.322,1.167c-0.633,1.107-1.127,3.3-0.409,4.537c0.354,0.61,0.978,0.92,1.853,0.92
						c1.016,0,2.056-0.847,2.785-2.265c1.51-2.933,1.723-8.524-2.641-14.633c-6.073-8.503-11.208-18.436-7.685-33.41
						c2.378-10.103,7.712-14.14,10.986-15.704c-1.183-0.741-1.982-1.86-2.377-3.332c-0.769-2.862,0.234-6.076,0.941-7.161
						c0.186-0.256,0.531-0.67,0.845-0.67h0.124l0.167,0.136c0.146,0.174,0.163,0.476,0.06,1.044
						c-0.191,1.045,0.298,4.11,1.873,5.999c1.078,1.292,2.457,1.804,4.085,1.515c0.649-0.864,6.082-7.586,17.86-7.586
						c3.254,0,6.746,0.513,10.383,1.522c9.07,2.52,16.583,8.394,21.154,16.539c4.77,8.497,5.975,18.749,3.309,28.128
						c-1.654,5.819-3.909,10.652-5.722,14.536c-3.296,7.067-5.286,11.333-0.755,14.308c0.955,0.628,1.902,0.947,2.813,0.947
						c1.971,0,3.379-1.498,4.041-2.898c0.742-1.576,0.729-3.26-0.037-4.189c-0.156-0.223-0.301-0.513-0.188-0.729
						c0.063-0.118,0.183-0.185,0.329-0.185c0.137,0,0.373,0.05,0.998,0.445c1.564,0.988,5.256,5.09,1.837,10.787
						C266.369,184.192,264.031,185.496,261.318,185.496L261.318,185.496z M235.338,174.031c7.6,0,14.33,2.451,17.564,6.395
						c2.367,2.887,5.436,4.543,8.416,4.543l0,0c2.523,0,4.697-1.208,5.961-3.319c3.22-5.363-0.11-9.089-1.665-10.071
						c-0.161-0.102-0.288-0.176-0.389-0.228c0.843,1.09,0.868,2.916,0.042,4.667c-0.729,1.547-2.299,3.199-4.516,3.199
						c-1.017,0-2.06-0.347-3.104-1.031c-4.908-3.227-2.729-7.898,0.569-14.972c1.804-3.865,4.05-8.678,5.692-14.457
						c2.629-9.245,1.439-19.351-3.26-27.726c-4.503-8.023-11.904-13.808-20.84-16.291c-3.588-0.998-7.033-1.503-10.24-1.503
						c-12.234,0-17.441,7.374-17.493,7.449l-0.061,0.089l-0.105,0.02c-1.862,0.368-3.463-0.206-4.689-1.675
						c-1.702-2.042-2.198-5.271-1.987-6.43c0.041-0.224,0.055-0.372,0.057-0.468c-0.088,0.086-0.208,0.221-0.302,0.35
						c-0.634,0.974-1.583,4.057-0.866,6.726c0.404,1.505,1.268,2.601,2.566,3.259l0.5,0.253l-0.513,0.223
						c-3.118,1.353-8.714,5.173-11.158,15.558c-3.476,14.77,1.599,24.582,7.601,32.982c4.502,6.303,4.258,12.116,2.68,15.18
						c-0.82,1.597-2.037,2.549-3.252,2.549c-1.061,0-1.859-0.408-2.307-1.181c-0.854-1.473-0.262-3.891,0.407-5.062
						c0.12-0.208,0.192-0.357,0.237-0.462c-0.08,0.046-0.169,0.105-0.246,0.163c-2.179,1.709-3.095,4.886-2.174,7.551
						c0.828,2.402,2.91,3.779,5.708,3.779c2.646,0,5.803-1.17,9.377-3.48C220.117,176.368,227.856,174.031,235.338,174.031
						L235.338,174.031z"/>
				</g>
			</g>
			<g opacity="0.53">
				<g>
					<g>
						<path fill="#C2611D" d="M265.755,171.357c-1.512-0.955-0.796,0.08-0.796,0.08c2.229,2.706-1.592,10.189-7.165,6.528
							c-7.342-4.824,1.752-12.895,6.369-29.135c4.767-16.768-3.002-35.902-20.274-42.965c0.071,0.04,0.141,0.079,0.213,0.119
							c26.947,14.985,16.168,44.166,14.328,42.063c-1.84-2.104-6.836-0.395-9.07,3.68c-2.234,4.075-1.708-6.31-2.366-9.99
							c-0.657-3.681,5.652,0.657,9.202-3.549c3.549-4.207-1.446-2.892-1.446-2.892c-14.985,2.761-35.358-15.248-39.565-21.82
							c-4.195-6.556,9.652-10.102,9.725-10.12c-9.163,1.526-13.048,7.181-13.048,7.181c-1.397,0.275-2.517-0.033-3.411-0.653
							c0.009,0.015,0.021,0.029,0.03,0.044c2.892,2.628-1.052,2.497-3.289,1.808c0.248,0.262,0.521,0.51,0.841,0.723
							c2.355,0.886,4.229,0.645,4.895,0.493c0.363-0.126,0.333-0.075,0,0c-0.241,0.083-0.65,0.241-1.263,0.524
							c-5.127,2.366-12.356,15.774-13.408,19.454c-0.89,3.114-1.496,0.119-1.662-0.877c-1.887,12.337,2.302,21.26,8.313,29.673
							c1.631,2.286,2.636,4.504,3.172,6.549c2.334,1.616,5.189,3.794,6.213,5.404c1.838,2.888-6.414,14.158-13.243,8.307
							c2.077,2.831,6.877,3.862,14.644-1.155c15.284-9.871,33.126-7.409,39.007-0.237c4.896,5.97,11.941,5.97,14.807,1.193
							C270.844,176.224,267.268,172.313,265.755,171.357z"/>
					</g>
				</g>
			</g>
		</g>
		<g>
			<g>
				<path fill="#FFE98F" d="M220.047,172.496c0,0-21.031,44.166-29.707,72.559c0,0,20.244,35.229,69.404,9.727
					c0,0-16.3-66.249-24.449-80.708C235.295,174.073,227.408,170.918,220.047,172.496z"/>
			</g>
			<g>
				<path d="M226.521,264.31c-0.004,0-0.004,0-0.007,0c-25.118-0.003-36.291-18.932-36.401-19.123l-0.057-0.101l0.033-0.108
					c8.582-28.086,29.511-72.153,29.721-72.595l0.056-0.117l0.127-0.027c1.385-0.297,2.889-0.448,4.468-0.448
					c5.771,0,10.882,2.017,10.933,2.038l0.086,0.035l0.045,0.081c8.074,14.324,24.313,80.111,24.477,80.775l0.049,0.199
					l-0.184,0.097C247.976,261.182,236.756,264.31,226.521,264.31L226.521,264.31z M190.625,245.02
					c0.891,1.457,12.007,18.762,35.888,18.765c0.002,0,0.006,0,0.007,0c10.1,0,21.173-3.075,32.919-9.141
					c-1.001-4.041-16.496-66.328-24.327-80.358c-0.687-0.261-5.391-1.968-10.652-1.968c-1.495,0-2.917,0.138-4.231,0.409
					C219.02,175.278,198.999,217.682,190.625,245.02L190.625,245.02z"/>
			</g>
		</g>
		<g opacity="0.56">
			<g>
				<g>
					<path fill="#FBAE3B" d="M235.295,174.073c0,0-7.887-3.154-15.248-1.577c0,0-3.826,8.039-8.891,19.459l0.215,0.258l8.413-14.722
						c0,0,3.681,2.892,8.149,0.526c4.47-2.366-2.892,72.559-2.892,72.559s12.356,4.995,21.294-2.365l1.381,11.849
						c3.802-1.354,7.805-3.086,12.027-5.277C259.744,254.781,243.444,188.532,235.295,174.073z"/>
				</g>
			</g>
		</g>
		<g>
			<g>
				<g>
					<path d="M229.782,251.93c-0.002,0-0.001,0-0.003,0c-3.816,0-7.547-1.059-11.092-3.144
						c-20.837-12.257,3.338-55.998,3.584-56.438c9.824-17.487,20.309-21.158,27.376-21.158c4.002,0,6.514,1.196,6.618,1.247
						c17.18,8.765,8.291,38.396,8.199,38.694C262.629,229.97,247.072,251.93,229.782,251.93L229.782,251.93z M249.647,171.716
						c-6.927,0-17.219,3.624-26.919,20.889c-0.243,0.437-24.17,43.731-3.774,55.729c3.463,2.037,7.104,3.07,10.825,3.07
						c17.023,0.003,32.347-21.701,34.172-40.375c0.101-0.346,8.861-29.559-7.92-38.121
						C256.012,172.897,253.52,171.716,249.647,171.716L249.647,171.716z"/>
				</g>
			</g>
		</g>
		<g>
			<g>
				<path d="M226.521,264.31c-0.004,0-0.004,0-0.007,0c-25.118-0.003-36.291-18.932-36.401-19.123l-0.057-0.101l0.033-0.108
					c8.582-28.086,29.511-72.153,29.721-72.595l0.056-0.117l0.127-0.027c1.385-0.297,2.889-0.448,4.468-0.448
					c5.771,0,10.882,2.017,10.933,2.038l0.086,0.035l0.045,0.081c8.074,14.324,24.313,80.111,24.477,80.775l0.049,0.199
					l-0.184,0.097C247.976,261.182,236.756,264.31,226.521,264.31L226.521,264.31z M190.625,245.02
					c0.891,1.457,12.007,18.762,35.888,18.765c0.002,0,0.006,0,0.007,0c10.1,0,21.173-3.075,32.919-9.141
					c-1.001-4.041-16.496-66.328-24.327-80.358c-0.687-0.261-5.391-1.968-10.652-1.968c-1.495,0-2.917,0.138-4.231,0.409
					C219.02,175.278,198.999,217.682,190.625,245.02L190.625,245.02z"/>
			</g>
		</g>
		<g>
			<g>
				<g>
					<path fill="#F3B58B" d="M228.324,170.637c0,0-8.771-0.298-8.809-0.299c-0.153-0.006,0.822,3.849,0.951,4.123
						c0.656,1.4,1.746,2.577,3.385,2.615C227.055,177.148,227.854,173.087,228.324,170.637z"/>
				</g>
				<g>
					<path d="M223.936,177.339L223.936,177.339l-0.09-0.001c-1.939-0.044-3.037-1.528-3.617-2.765
						c-0.016-0.035-1.17-4.015-0.944-4.371l0.078-0.123l0.152-0.005c0.044,0,8.819,0.298,8.819,0.298l0.307,0.01l-0.059,0.302
						C228.104,173.174,227.303,177.339,223.936,177.339L223.936,177.339z M219.787,170.61c0.139,0.821,0.793,3.457,0.918,3.74
						c0.517,1.102,1.482,2.424,3.152,2.463l0.078,0.263v-0.262c2.811,0,3.615-3.577,4.072-5.925
						C226.639,170.842,221.102,170.654,219.787,170.61L219.787,170.61z"/>
				</g>
			</g>
			<g>
				<g>
					<g>
						<path d="M250.438,138.499c-4.693,0-7.913-1.448-8.066-1.518l0.221-0.479c0.041,0.019,4.215,1.892,9.854,1.379l0.048,0.523
							C251.782,138.47,251.095,138.499,250.438,138.499L250.438,138.499z"/>
					</g>
				</g>
				<g>
					<g>
						<g>
							<path fill="#FACEAB" d="M257.51,151.728c-3.644-2.586-6.09,0.788-9.244,3.943c-3.155,3.154-2.104-1.227-2.104-1.227
								c1.578-9.465-3.681-17.702-3.681-17.702c-20.856-9.114-29.62-23.836-29.62-23.836s-10.165,4.908-14.546,23.661
								c-5.856,25.061,18.953,53.133,46.938,27.874c1.346,1.026,1.97,1.972,4.063,2.271
								C259.132,168.114,261.584,154.62,257.51,151.728z"/>
						</g>
						<g>
							<path d="M223.277,174.615c-7.303,0-14.056-3.44-19.013-9.688c-6.12-7.717-8.499-18.606-6.206-28.42
								c4.359-18.659,14.585-23.788,14.688-23.837l0.218-0.105l0.123,0.207c0.088,0.146,8.969,14.758,29.5,23.73l0.115,0.099
								c0.053,0.083,5.295,8.433,3.719,17.886c-0.157,0.655-0.264,1.689-0.023,1.994c0.039,0.05,0.082,0.069,0.146,0.069
								c0.177,0,0.607-0.138,1.535-1.065c0.367-0.367,0.725-0.737,1.076-1.103c1.906-1.973,3.705-3.836,5.824-3.836
								c0.887,0,1.764,0.317,2.681,0.966c1.964,1.394,2.567,5.193,1.405,8.838c-1.343,4.213-4.466,6.727-8.355,6.727
								c0,0,0,0-0.002,0c-0.464,0-0.945-0.035-1.43-0.105c-1.709-0.244-2.488-0.906-3.391-1.673
								c-0.195-0.166-0.399-0.339-0.622-0.515C238.081,171.216,230.481,174.615,223.277,174.615L223.277,174.615z M212.77,113.255
								c-1.459,0.83-10.244,6.45-14.199,23.371c-2.257,9.662,0.083,20.381,6.106,27.974c4.854,6.119,11.46,9.49,18.601,9.49
								c7.127,0,14.665-3.405,21.8-9.844l0.163-0.146l0.173,0.131c0.3,0.229,0.563,0.453,0.816,0.667
								c0.876,0.744,1.565,1.332,3.124,1.554c0.461,0.065,0.916,0.099,1.357,0.099l0,0c3.648,0,6.585-2.377,7.854-6.36
								c1.096-3.438,0.576-6.983-1.208-8.25c-0.824-0.585-1.602-0.87-2.377-0.87c-1.895,0-3.539,1.703-5.446,3.675
								c-0.354,0.368-0.714,0.74-1.083,1.109c-1.24,1.24-2.044,1.485-2.466,0.95c-0.482-0.612-0.149-2.126-0.079-2.424
								c1.465-8.791-3.119-16.631-3.605-17.432C223.024,128.502,213.955,115.108,212.77,113.255L212.77,113.255z"/>
						</g>
					</g>
					<g>
						<g>
							<g>
								<g>
									<g>
										
											<ellipse transform="matrix(0.9382 0.346 -0.346 0.9382 65.0027 -70.6756)" cx="230.431" cy="146.705" rx="1.972" ry="2.665"/>
									</g>
								</g>
								<g>
									<g>
										
											<ellipse transform="matrix(0.9834 0.1814 -0.1814 0.9834 29.0078 -35.3966)" cx="208.013" cy="140.884" rx="1.972" ry="2.663"/>
									</g>
								</g>
								<g>
									<g>
										
											<ellipse transform="matrix(0.9433 0.3321 -0.3321 0.9433 58.3192 -60.9829)" cx="207.594" cy="140.149" rx="0.834" ry="1.126"/>
									</g>
								</g>
								<g>
									<g>
										
											<ellipse transform="matrix(0.9167 0.3995 -0.3995 0.9167 77.4248 -79.7221)" cx="229.96" cy="145.876" rx="0.834" ry="1.126"/>
									</g>
								</g>
								<g>
									<g>
										<g>
											<path d="M207.116,139.095c-0.155-0.035-0.718-0.25-1.186-1.554l0.298-0.106c0.447,1.25,0.922,1.353,0.963,1.353
												l-0.041,0.312C207.144,139.101,207.133,139.099,207.116,139.095L207.116,139.095z"/>
										</g>
									</g>
								</g>
								<g>
									<g>
										<g>
											<path d="M206.361,139.656c-0.279-0.063-0.767-0.297-1.379-1.106l0.25-0.191c0.805,1.058,1.321,1.001,1.326,1l0.056,0.31
												C206.593,139.674,206.504,139.687,206.361,139.656L206.361,139.656z"/>
										</g>
									</g>
								</g>
								<g>
									<g>
										<g>
											<path d="M231.928,145.434c-0.018-0.005-0.029-0.008-0.035-0.013l0.119-0.291c0.027,0.002,0.5,0.162,1.501-0.708
												l0.208,0.238C232.676,145.569,232.079,145.479,231.928,145.434L231.928,145.434z"/>
										</g>
									</g>
								</g>
								<g>
									<g>
										<g>
											<path d="M232.311,146.292c-0.141-0.042-0.211-0.097-0.229-0.113l0.201-0.242c0.003,0.003,0.427,0.305,1.645-0.222
												l0.125,0.29C233.123,146.409,232.583,146.375,232.311,146.292L232.311,146.292z"/>
										</g>
									</g>
								</g>
							</g>
						</g>
						<g>
							<g>
								<path d="M235.028,142.746l-0.519-0.088c0.01-0.05,0.813-4.931-1.809-6.568c-0.975-0.611-1.963-0.775-2.938-0.492
									c-2.521,0.734-4.205,4.203-4.222,4.238l-0.474-0.225c0.072-0.152,1.799-3.717,4.547-4.517
									c1.125-0.328,2.257-0.143,3.365,0.551C235.9,137.469,235.064,142.531,235.028,142.746L235.028,142.746z"/>
							</g>
						</g>
						<g>
							<g>
								<path d="M212.948,136.242l-0.524-0.048c0.006-0.055,0.458-5.585-3.319-6.736c-4.769-1.453-7.372,4.01-7.397,4.066
									l-0.477-0.223c0.027-0.059,2.825-5.931,8.027-4.347C213.444,130.229,212.953,136.182,212.948,136.242L212.948,136.242z"/>
							</g>
						</g>
						<g>
							<g>
								<g>
									<path fill="#EF5659" d="M214.614,162.507c-1.71-0.27-3.15-0.792-4.356-1.405c1.427,3.051,4.964,6.358,8.738,5.787
										c5.783-0.876,6.834-7.712,6.834-7.712S221.274,163.559,214.614,162.507z"/>
								</g>
								<g>
									<path d="M218.131,167.216c-3.482,0-6.715-3.02-8.111-6.003l-0.322-0.691l0.68,0.346c1.332,0.677,2.772,1.142,4.278,1.379
										c0.672,0.106,1.353,0.16,2.024,0.16c5.342,0,8.934-3.386,8.969-3.42l0.561-0.536l-0.119,0.766
										c-0.01,0.069-1.148,7.038-7.055,7.932C218.732,167.195,218.43,167.216,218.131,167.216L218.131,167.216z M210.849,161.673
										c1.597,2.83,4.798,5.463,8.107,4.957c4.403-0.668,5.981-4.984,6.446-6.746c-1.264,0.992-4.41,3.05-8.723,3.05
										c-0.699,0-1.408-0.057-2.106-0.167C213.275,162.561,212.027,162.194,210.849,161.673L210.849,161.673z"/>
								</g>
							</g>
							<g>
								<g>
									<path d="M216.656,162.931c-0.669,0-1.364-0.05-2.083-0.164c-6.394-1.009-9.181-5.369-9.296-5.553l0.446-0.28
										c0.026,0.044,2.784,4.343,8.932,5.314c6.454,1.024,10.948-3.217,10.993-3.26l0.364,0.38
										C225.972,159.406,222.233,162.931,216.656,162.931L216.656,162.931z"/>
								</g>
							</g>
						</g>
						<g>
							<g>
								
									<ellipse transform="matrix(0.9499 0.3125 -0.3125 0.9499 56.5825 -55.9033)" fill="#F8C3B1" cx="202.696" cy="148.572" rx="2.366" ry="1.489"/>
							</g>
						</g>
						<g>
							<g>
								
									<ellipse transform="matrix(0.9962 0.0867 -0.0867 0.9962 14.1983 -19.6599)" fill="#F8C3B1" cx="233.542" cy="153.707" rx="3.065" ry="1.93"/>
							</g>
						</g>
					</g>
					<g opacity="0.61">
						<g>
							<g>
								<path fill="#FACEAB" d="M259.04,154.089c-0.272,3.16-1.185,6.157-2.714,8.241c-3.856,5.257-9.99,1.051-6.66-5.608
									c3.332-6.66,6.311-5.608,6.311-5.608l-0.133-0.182c-2.777-0.701-4.93,2.089-7.578,4.738
									c-3.155,3.154-2.104-1.227-2.104-1.227c1.578-9.465-3.681-17.702-3.681-17.702c-20.856-9.114-29.62-23.836-29.62-23.836
									s-10.165,4.908-14.546,23.661c-5.856,25.061,18.953,53.133,46.938,27.874c1.346,1.026,1.97,1.972,4.063,2.271
									C257.414,167.868,260.496,158.892,259.04,154.089z M234.419,167.238c-12.443,8.589-32.247,5.257-36.104-19.104
									c0,0-2.454-21.381,14.195-32.773c0,0,8.062,15.073,28.218,23.134C240.729,138.495,246.861,158.65,234.419,167.238z"/>
							</g>
						</g>
					</g>
				</g>
			</g>
			<g>
				<g>
					<path d="M250.762,158.484l-0.477-0.214c0.047-0.14,1.174-3.459,3.422-4.492c0.857-0.396,1.77-0.402,2.703-0.02l-0.199,0.486
						c-0.795-0.324-1.563-0.321-2.283,0.011c-1.219,0.559-2.099,1.929-2.612,2.949c0.839-0.565,2.217-0.981,4.2-0.064l-0.219,0.477
						C252.135,156.16,250.816,158.388,250.762,158.484L250.762,158.484z"/>
				</g>
			</g>
		</g>
		<g>
			<g>
				<g>
					<g>
						<g>
							<path fill="#96D1F2" d="M256.15,172.673c0,0-17.701-8.588-33.65,19.804c0,0-24.535,43.814-3.68,56.083
								s43.115-14.196,45.393-37.505C264.213,211.055,273.327,181.437,256.15,172.673z"/>
						</g>
						<g>
							<path d="M229.782,251.93c-0.002,0-0.001,0-0.003,0c-3.816,0-7.547-1.059-11.092-3.144
								c-20.837-12.257,3.338-55.998,3.584-56.438c9.824-17.487,20.309-21.158,27.376-21.158c4.002,0,6.514,1.196,6.618,1.247
								c17.18,8.765,8.291,38.396,8.199,38.694C262.629,229.97,247.072,251.93,229.782,251.93L229.782,251.93z M249.647,171.716
								c-6.927,0-17.219,3.624-26.919,20.889c-0.243,0.437-24.17,43.731-3.774,55.729c3.463,2.037,7.104,3.07,10.825,3.07
								c17.023,0.003,32.347-21.701,34.172-40.375c0.101-0.346,8.861-29.559-7.92-38.121
								C256.012,172.897,253.52,171.716,249.647,171.716L249.647,171.716z"/>
						</g>
					</g>
				</g>
				<g>
					<g>
						<path fill="#58B6E7" d="M244.409,176.879c0,0-14.196,2.103-16.476,16.999c-2.279,14.898,12.093,16.126,7.186,21.384
							c-4.906,5.258-1.051,2.804,4.908,0.7c7.37-2.602,15.807-5.466,20.473-12.17c5.408-7.77,3.172-20.795-5.691-25.188
							C251.932,177.178,247.59,176.522,244.409,176.879z"/>
					</g>
				</g>
				<g>
					<g>
						<path d="M234.561,217.409l-0.283-0.443c0.02-0.012,1.93-1.238,3.986-3.294c0.305-0.305,0.441-0.667,0.417-1.11
							c-0.113-2.034-3.515-4.78-3.55-4.809l0.328-0.411c0.148,0.119,3.621,2.922,3.746,5.191c0.033,0.592-0.159,1.1-0.569,1.51
							C236.536,216.143,234.578,217.396,234.561,217.409L234.561,217.409z"/>
					</g>
				</g>
				<g>
					<g>
						<g>
							<path fill="#58B6E7" d="M256.15,172.673c0,0-4.942-2.394-11.955-0.468c0.188-0.019,0.375-0.043,0.563-0.06
								c20.155-1.753,19.28,19.98,18.403,16.299c-0.877-3.68-6.134-8.412-6.134-8.412s-7.489,31.704-4.383,30.671
								c0.263-0.087,4.294-1.401,3.155,4.908c-1.563,8.651-16.475,29.092-32.424,23.484c-18.815-6.616-4.557-38.559-4.557-38.559
								l-0.32,0.063c-5.95,13.269-14.895,39.008,0.32,47.959c20.855,12.269,43.115-14.196,45.393-37.505
								C264.213,211.055,273.327,181.437,256.15,172.673z"/>
						</g>
					</g>
				</g>
				<g>
					<g>
						<g>
							<g>
								<g>
									<path fill="#FACEAB" d="M254.804,181.389c-3.626-2.285-8.104-3.104-12.015-2.389c-2.307,0.428-5.174,1.506-7.104,3.084
										c-5.795,4.775-9.123,15.63-4.3,21.843c5.788,7.164,16.349,9.241,23.718,3.335c3.761-2.979,6.771-8.646,7.016-13.246
										C262.406,188.513,259.176,184.073,254.804,181.389z"/>
								</g>
								<g>
									<path d="M245.271,210.967c0,0,0,0-0.002,0c-5.344-0.001-10.611-2.57-14.089-6.873c-4.888-6.298-1.624-17.3,4.337-22.212
										c2.102-1.718,5.109-2.748,7.224-3.14c4.025-0.735,8.64,0.18,12.202,2.424c4.994,3.064,7.705,7.753,7.438,12.864
										c-0.247,4.644-3.305,10.421-7.113,13.439C252.412,209.756,248.957,210.967,245.271,210.967L245.271,210.967z
										 M245.613,179.013c-0.947,0-1.882,0.083-2.777,0.246c-2.049,0.379-4.962,1.374-6.984,3.029
										c-5.78,4.765-8.971,15.407-4.259,21.479c3.376,4.177,8.489,6.674,13.677,6.674c0.002,0,0.002,0,0.002,0
										c3.563,0,6.906-1.17,9.668-3.383c3.703-2.936,6.678-8.547,6.916-13.056c0.258-4.91-2.363-9.426-7.189-12.389
										C252.004,179.936,248.79,179.013,245.613,179.013L245.613,179.013z"/>
								</g>
							</g>
							<g opacity="0.5">
								<g>
									<g>
										<path fill="#FACEAB" d="M260.24,186.776c-1.11-1.736-2.84-3.282-4.574-4.488c2.512,2.358,6.914,8.396,2.59,17.374
											c-1.932,4.013-4.82,7.535-9.142,8.758c-9.729,2.795-19.32-4.381-17.675-15.594c0.484-3.311,3.084-8.42,5.373-10.369
											c1.73-1.465,3.444-3.048,5.75-3.576c-2.432,0.356-4.783,1.31-6.828,2.983c-1.687,1.383-3.475,3.583-4.43,5.671
											c-2.415,5.267-3.371,11.971,0.081,16.392c5.788,7.164,16.349,9.241,23.718,3.335
											C260.848,202.724,264.277,192.951,260.24,186.776z"/>
									</g>
								</g>
							</g>
						</g>
						<g>
							<g>
								<g>
									<path d="M252.041,183.104c-1.06-0.841-1.624-1.825-1.678-2.924c-0.101-2.055,1.623-3.746,1.695-3.816l0.367,0.378
										c-0.017,0.016-1.627,1.601-1.538,3.416c0.048,0.939,0.546,1.793,1.479,2.535L252.041,183.104L252.041,183.104z"/>
								</g>
							</g>
							<g>
								<g>
									<path d="M249.703,182.524c-3.736-2.826-2.092-6.613-2.074-6.651l0.48,0.216c-0.063,0.139-1.483,3.448,1.91,6.016
										L249.703,182.524L249.703,182.524z"/>
								</g>
							</g>
						</g>
						<g>
							<g>
								<path d="M240.788,190.678l-0.487-0.201c0.006-0.012,0.459-1.133,0.102-1.925c-0.146-0.319-0.4-0.538-0.78-0.668
									c-1.651-0.569-2.406,1.474-2.438,1.56l-0.495-0.177c0.327-0.909,1.396-2.473,3.105-1.881
									c0.516,0.178,0.883,0.498,1.087,0.951C241.332,189.337,240.81,190.624,240.788,190.678L240.788,190.678z"/>
							</g>
						</g>
						<g>
							<g>
								<path d="M255.438,195.874l-0.483-0.207c0.005-0.011,0.437-1.038,0.088-1.805c-0.158-0.35-0.449-0.588-0.891-0.733
									c-1.544-0.509-2.312,1.473-2.343,1.558l-0.493-0.183c0.329-0.883,1.382-2.409,3-1.874c0.581,0.189,0.988,0.532,1.207,1.018
									C255.965,194.627,255.459,195.823,255.438,195.874L255.438,195.874z"/>
							</g>
						</g>
					</g>
					<g>
						<g>
							<path fill="#EF5659" d="M235.528,195.546c0,0,4.873,5.731,13.877,6.203c0,0-3.94,7.293-10.976,3.859
								C232.576,202.729,235.528,195.546,235.528,195.546z"/>
						</g>
						<g>
							<path d="M242.109,206.791c-1.232,0-2.508-0.319-3.794-0.947c-6.007-2.953-3.06-10.323-3.03-10.396l0.164-0.398l0.279,0.327
								c0.049,0.057,4.912,5.65,13.689,6.11l0.416,0.022l-0.198,0.366C249.528,202.074,246.924,206.791,242.109,206.791
								L242.109,206.791z M235.628,196.037c-0.515,1.516-1.946,6.943,2.918,9.336c1.212,0.592,2.411,0.892,3.563,0.892
								c3.754,0,6.139-3.189,6.845-4.28C241.44,201.441,236.809,197.24,235.628,196.037L235.628,196.037z"/>
						</g>
					</g>
					<g>
						<g>
							<g>
								<path fill="#F3B58B" d="M252.319,201.561c-0.06,0-0.116-0.033-0.142-0.091c-0.038-0.079-0.004-0.172,0.074-0.21l3.005-1.398
									c0.077-0.037,0.172-0.003,0.21,0.076c0.035,0.079,0.002,0.173-0.076,0.209l-3.004,1.399
									C252.365,201.556,252.342,201.561,252.319,201.561L252.319,201.561z"/>
							</g>
						</g>
						<g>
							<g>
								<path fill="#F3B58B" d="M253.55,202.366c-0.06,0-0.116-0.034-0.144-0.092c-0.036-0.078-0.002-0.173,0.076-0.209l3.004-1.398
									c0.077-0.039,0.173-0.003,0.21,0.076c0.036,0.078,0.003,0.173-0.076,0.209l-3.004,1.398
									C253.596,202.361,253.572,202.366,253.55,202.366L253.55,202.366z"/>
							</g>
						</g>
					</g>
					<g>
						<g>
							<g>
								<path fill="#F3B58B" d="M231.417,192.894c-0.06,0-0.116-0.033-0.143-0.091c-0.036-0.079-0.003-0.174,0.076-0.209
									l3.013-1.397c0.078-0.038,0.172-0.005,0.209,0.075c0.037,0.079,0.004,0.174-0.076,0.209l-3.012,1.397
									C231.463,192.89,231.439,192.894,231.417,192.894L231.417,192.894z"/>
							</g>
						</g>
						<g>
							<g>
								<path fill="#F3B58B" d="M232.617,193.697c-0.06,0-0.117-0.034-0.143-0.092c-0.038-0.079-0.004-0.173,0.075-0.21l3.012-1.396
									c0.079-0.038,0.173-0.003,0.21,0.075c0.037,0.081,0.004,0.175-0.076,0.211l-3.012,1.396
									C232.662,193.691,232.64,193.697,232.617,193.697L232.617,193.697z"/>
							</g>
						</g>
					</g>
				</g>
			</g>
			<g>
				<g>
					<g>
						<path d="M229.782,251.93c-0.002,0-0.001,0-0.003,0c-3.816,0-7.547-1.059-11.092-3.144
							c-20.837-12.257,3.338-55.998,3.584-56.438c9.824-17.487,20.309-21.158,27.376-21.158c4.002,0,6.514,1.196,6.618,1.247
							c17.18,8.765,8.291,38.396,8.199,38.694C262.629,229.97,247.072,251.93,229.782,251.93L229.782,251.93z M249.647,171.716
							c-6.927,0-17.219,3.624-26.919,20.889c-0.243,0.437-24.17,43.731-3.774,55.729c3.463,2.037,7.104,3.07,10.825,3.07
							c17.023,0.003,32.347-21.701,34.172-40.375c0.101-0.346,8.861-29.559-7.92-38.121
							C256.012,172.897,253.52,171.716,249.647,171.716L249.647,171.716z"/>
					</g>
				</g>
			</g>
		</g>
		<g>
			<g>
				<path d="M222.916,219.206c-20.408-13.252-5.591-42.193-5.438-42.484l0.932,0.487c-0.148,0.282-14.527,28.385,5.078,41.115
					L222.916,219.206L222.916,219.206z"/>
			</g>
		</g>
		<g>
			<g>
				<g>
					<path fill="#FACEAB" d="M222.631,220.421c0.209,0.498,0.371,1.211,0.213,2.094c-0.326,1.8-1.67,3.869-0.377,3.839
						c1.294-0.031,2.531-3.825,2.531-3.825s0.179,2.939,0.127,4.586c-0.049,1.647,1.207,1.497,1.738-1.871l0.248-2.231
						c0,0,1.389,3.65,2.168,4.639c0.777,0.982,1.524,0.088,1.027-1.643c-0.498-1.725-1.428-3.769-1.428-3.769
						s2.609,2.405,3.586,3.393c0.973,0.984,2.002-0.46,0.639-2.035c-1.361-1.577-3.627-2.924-3.228-3.702
						c0.395-0.783,2.315-1.085,2.676-2.18c0.36-1.096-2.62-0.84-5.564-0.074c-1.024,0.268-1.886,0.369-2.589,0.394
						c-0.063,0.057-0.134,0.105-0.237,0.139C222.523,218.707,222.541,219.904,222.631,220.421z"/>
				</g>
				<g>
					<path d="M225.555,228.4c-0.149,0-0.288-0.061-0.398-0.176c-0.207-0.213-0.31-0.601-0.295-1.118
						c0.029-0.939-0.017-2.314-0.062-3.311c-0.501,1.183-1.361,2.797-2.327,2.82h-0.002c-0.33,0-0.548-0.096-0.683-0.284
						c-0.306-0.432-0.044-1.184,0.289-2.136c0.19-0.544,0.404-1.16,0.508-1.729c0.153-0.854-0.022-1.529-0.196-1.945
						c-0.115-0.621-0.146-2,1.69-2.599c0.064-0.021,0.103-0.049,0.142-0.085l0.072-0.065l0.096-0.003
						c0.808-0.026,1.66-0.156,2.532-0.384c1.64-0.427,3.185-0.672,4.239-0.672c0.831,0,1.343,0.15,1.564,0.458
						c0.088,0.121,0.175,0.329,0.077,0.624c-0.233,0.71-0.985,1.108-1.647,1.461c-0.467,0.249-0.906,0.483-1.044,0.756
						c-0.161,0.313,0.753,1.118,1.485,1.765c0.561,0.496,1.197,1.057,1.707,1.647c0.785,0.908,0.826,1.755,0.604,2.243
						c-0.156,0.342-0.456,0.548-0.799,0.548c-0.198,0-0.503-0.07-0.83-0.401c-0.596-0.604-1.822-1.755-2.672-2.544
						c0.305,0.747,0.69,1.753,0.953,2.665c0.257,0.889,0.223,1.67-0.092,2.086c-0.145,0.192-0.344,0.297-0.561,0.297
						c-0.197,0-0.503-0.087-0.833-0.506c-0.543-0.687-1.344-2.555-1.817-3.722l-0.133,1.18
						C226.816,227.235,226.23,228.4,225.555,228.4L225.555,228.4z M224.748,222.447l0.514,0.065c0,0.03,0.178,2.97,0.125,4.608
						c-0.012,0.421,0.07,0.659,0.146,0.736l0.021,0.017c0.168,0,0.729-0.634,1.049-2.672l0.247-2.219l0.506-0.065
						c0.015,0.036,1.384,3.624,2.129,4.569c0.226,0.285,0.379,0.307,0.421,0.307c0.021,0,0.076,0,0.141-0.087
						c0.172-0.228,0.24-0.817,0.006-1.626c-0.486-1.687-1.402-3.713-1.412-3.732l0.417-0.303c0.026,0.024,2.626,2.421,3.595,3.401
						c0.155,0.156,0.316,0.244,0.455,0.244c0.184,0,0.279-0.151,0.32-0.241c0.149-0.324,0.101-0.96-0.523-1.682
						c-0.486-0.563-1.108-1.11-1.657-1.597c-1.09-0.961-1.952-1.721-1.605-2.398c0.212-0.419,0.724-0.69,1.267-0.979
						c0.603-0.32,1.227-0.652,1.395-1.161c0.032-0.102,0.008-0.138-0.004-0.153c-0.029-0.039-0.219-0.237-1.139-0.237
						c-1.012,0-2.508,0.237-4.105,0.653c-0.879,0.229-1.74,0.363-2.559,0.397c-0.062,0.046-0.146,0.096-0.255,0.13
						c-1.393,0.455-1.444,1.419-1.353,1.953c0.186,0.425,0.389,1.204,0.213,2.185c-0.109,0.609-0.332,1.248-0.527,1.811
						c-0.227,0.645-0.506,1.446-0.355,1.655c0.037,0.054,0.139,0.064,0.22,0.064C223.267,226.071,224.291,223.846,224.748,222.447
						L224.748,222.447z"/>
				</g>
			</g>
		</g>
		<g>
			<g>
				<path d="M250.043,224.034c-0.189,0-0.381-0.004-0.572-0.011l0.041-1.052c12.57,0.521,15.555-17.083,15.584-17.261l1.039,0.171
					C266.104,206.065,263.016,224.034,250.043,224.034L250.043,224.034z"/>
			</g>
		</g>
		<g>
			<g>
				<g>
					<path fill="#FACEAB" d="M250.699,225.289c-0.385,0.379-0.813,0.975-1.006,1.85c-0.396,1.785,0.043,4.214-1.139,3.686
						c-1.181-0.531-0.854-4.506-0.854-4.506s-1.302,2.641-1.891,4.18c-0.594,1.536-1.694,0.911-0.881-2.399l0.635-2.153
						c0,0-2.693,2.83-3.793,3.438c-1.097,0.605-1.441-0.51-0.311-1.911c1.125-1.396,2.772-2.924,2.772-2.924
						s-3.337,1.209-4.619,1.741c-1.278,0.531-1.668-1.197,0.198-2.123c1.866-0.928,4.477-1.292,4.41-2.165
						c-0.063-0.874-1.717-1.896-1.625-3.046s2.741,0.239,5.158,2.085c0.842,0.643,1.598,1.07,2.236,1.364
						c0.037,0.076,0.082,0.149,0.166,0.219C251.461,223.752,250.982,224.848,250.699,225.289z"/>
				</g>
				<g>
					<path d="M245.121,231.559c-0.174,0-0.336-0.086-0.457-0.239c-0.386-0.491-0.381-1.688,0.011-3.283l0.339-1.149
						c-0.889,0.893-2.351,2.304-3.115,2.728c-0.591,0.325-1.108,0.231-1.311-0.19c-0.239-0.498,0.018-1.308,0.668-2.117
						c0.594-0.737,1.338-1.515,1.91-2.087c-1.09,0.4-2.667,0.988-3.451,1.313c-0.678,0.282-1.281,0.024-1.418-0.555
						c-0.141-0.604,0.237-1.47,1.398-2.046c0.699-0.347,1.502-0.617,2.211-0.857c0.926-0.313,2.081-0.704,2.054-1.053
						c-0.022-0.306-0.338-0.692-0.671-1.101c-0.476-0.581-1.014-1.239-0.953-1.985c0.032-0.413,0.322-0.661,0.776-0.661
						c1.071,0,3.183,1.321,4.804,2.558c0.715,0.546,1.45,0.994,2.188,1.334l0.086,0.04l0.041,0.088
						c0.023,0.048,0.048,0.089,0.097,0.129c1.464,1.268,0.903,2.526,0.593,3.008c-0.359,0.363-0.781,0.919-0.971,1.766
						c-0.125,0.563-0.166,1.215-0.201,1.791c-0.072,1.165-0.134,2.173-0.898,2.173c-0.125,0-0.257-0.031-0.402-0.096
						c-0.882-0.396-1.05-2.218-1.055-3.501c-0.427,0.901-1.002,2.152-1.338,3.028C245.814,231.214,245.482,231.559,245.121,231.559
						L245.121,231.559z M245.374,225.765l0.442,0.256l-0.633,2.153c-0.438,1.772-0.273,2.607-0.106,2.82l0.044,0.038
						c0.039,0,0.244-0.112,0.443-0.63c0.588-1.531,1.887-4.173,1.9-4.199l0.496,0.138c-0.119,1.465-0.035,3.913,0.701,4.242
						c0.094,0.042,0.153,0.052,0.188,0.052c0.27,0,0.326-0.933,0.373-1.681c0.037-0.594,0.08-1.268,0.213-1.871
						c0.217-0.975,0.707-1.614,1.078-1.98c0.256-0.411,0.581-1.318-0.529-2.278c-0.086-0.073-0.143-0.151-0.184-0.218
						c-0.744-0.351-1.484-0.807-2.203-1.356c-1.92-1.465-3.724-2.45-4.485-2.45c-0.238,0-0.245,0.091-0.253,0.177
						c-0.043,0.536,0.404,1.083,0.836,1.611c0.389,0.476,0.756,0.925,0.789,1.395c0.059,0.756-1.031,1.124-2.41,1.59
						c-0.693,0.234-1.479,0.499-2.145,0.83c-0.961,0.476-1.195,1.131-1.119,1.455c0.062,0.269,0.336,0.34,0.703,0.19
						c1.271-0.529,4.597-1.734,4.631-1.747l0.268,0.441c-0.016,0.016-1.646,1.528-2.748,2.896c-0.62,0.771-0.7,1.354-0.604,1.559
						c0.039,0.083,0.092,0.228,0.583-0.042C242.697,228.571,245.348,225.793,245.374,225.765L245.374,225.765z"/>
				</g>
			</g>
		</g>
	</g>
	<g>
		<g>
			<g>
				<path fill="#EF5659" d="M155.144,158.704c-1.827-0.123-3.387-0.503-4.704-0.987c1.718,2.763,5.686,5.606,9.638,4.776
					c6.057-1.27,6.701-7.788,6.701-7.788S162.259,159.182,155.144,158.704z"/>
			</g>
			<g>
				<path d="M159.185,162.869c-3.683,0.268-7.31-2.329-8.989-5.03l-0.39-0.626l0.744,0.274c1.455,0.534,3.01,0.861,4.62,0.969
					c0.717,0.048,1.44,0.047,2.152-0.005c5.649-0.411,9.215-3.876,9.252-3.912l0.555-0.548l-0.072,0.731
					c-0.007,0.066-0.733,6.716-6.919,8.012C159.819,162.801,159.501,162.845,159.185,162.869L159.185,162.869z M151.103,158.208
					c1.884,2.543,5.449,4.776,8.915,4.044c4.612-0.967,5.985-5.154,6.357-6.849c-1.27,1.032-4.457,3.211-9.018,3.543
					c-0.739,0.054-1.492,0.055-2.239,0.006C153.732,158.857,152.385,158.609,151.103,158.208L151.103,158.208z"/>
			</g>
		</g>
	</g>
</g>
</svg>
