<?xml version="1.0" encoding="utf-8"?>
<!-- Generator: Adobe Illustrator 16.0.0, SVG Export Plug-In . SVG Version: 6.00 Build 0)  -->
<!DOCTYPE svg PUBLIC "-//W3C//DTD SVG 1.1//EN" "http://www.w3.org/Graphics/SVG/1.1/DTD/svg11.dtd">
<svg version="1.1" id="Capa_1" xmlns="http://www.w3.org/2000/svg" xmlns:xlink="http://www.w3.org/1999/xlink" x="0px" y="0px"
	 width="800px" height="800px" viewBox="0 0 800 800" enable-background="new 0 0 800 800" xml:space="preserve">
<g>
	<g>
		<g>
			<g>
				<path fill="#FDC400" d="M363.759,445.843v15.795c0,1.506-0.772,2.953-2.21,4.318c-0.409,0.387-0.884,0.773-1.407,1.16
					c-1.01,0.73-2.226,1.434-3.615,2.109c-0.45,0.207-0.916,0.428-1.407,0.635c-1.695,0.732-3.616,1.406-5.729,2.016
					c-0.458,0.137-0.923,0.275-1.398,0.414c-2.322,0.619-4.839,1.186-7.538,1.668c-0.459,0.082-0.933,0.166-1.406,0.248
					c-2.21,0.359-4.523,0.691-6.935,0.953c-0.467,0.039-0.933,0.098-1.398,0.139c-1.606,0.162-3.247,0.289-4.926,0.398
					c-0.466,0.041-0.933,0.07-1.406,0.098c-2.098,0.109-4.242,0.178-6.43,0.221c-0.465,0-0.933,0.014-1.405,0.014h-1.005
					c-2.041,0-4.05-0.041-6.027-0.111c-0.474-0.014-0.94-0.041-1.406-0.055c-2.018-0.096-3.993-0.236-5.923-0.402
					c-0.474-0.039-0.948-0.082-1.414-0.123c-1.334-0.123-2.635-0.275-3.912-0.426c-0.475-0.07-0.941-0.125-1.408-0.195
					c-1.623-0.219-3.205-0.469-4.725-0.744c-0.475-0.082-0.94-0.164-1.398-0.262c-1.325-0.248-2.596-0.525-3.826-0.828
					c-0.473-0.109-0.938-0.221-1.396-0.344c-1.526-0.387-2.966-0.801-4.323-1.256c-0.483-0.152-0.948-0.316-1.405-0.482
					c-1.432-0.512-2.742-1.049-3.914-1.629c-0.499-0.234-0.966-0.482-1.415-0.73c-1.174-0.65-2.177-1.324-3.006-2.029
					c-0.555-0.469-1.027-0.951-1.413-1.434c-0.853-1.076-1.304-2.195-1.304-3.34c0-4.689,0-15.795,0-15.795H363.759z"/>
				<ellipse fill="#FFDE00" cx="315.542" cy="445.849" rx="48.216" ry="12.746"/>
				<ellipse fill="#FFD000" cx="315.542" cy="444.151" rx="39.577" ry="8.768"/>
				<path fill="#F8AB08" d="M277.173,446.308c4.338-3.801,19.87-6.613,38.37-6.613s34.032,2.813,38.368,6.613
					c0.786-0.689,1.208-1.412,1.208-2.156c0-4.844-17.718-8.768-39.576-8.768c-21.859,0-39.577,3.924-39.577,8.768
					C275.966,444.896,276.388,445.618,277.173,446.308z"/>
				<g>
					<path fill="#F8AB08" d="M270.043,452.919v13.492c-0.555-0.469-1.027-0.951-1.413-1.434v-12.059H270.043z"/>
					<path fill="#F8AB08" d="M274.464,456.88v12.291c-0.499-0.234-0.966-0.482-1.415-0.73V456.88H274.464z"/>
					<path fill="#F8AB08" d="M279.783,459.306v11.977c-0.483-0.152-0.948-0.316-1.405-0.482v-11.494H279.783z"/>
					<path fill="#F8AB08" d="M285.503,460.935v11.947c-0.473-0.109-0.938-0.221-1.396-0.344v-11.604H285.503z"/>
					<path fill="#F8AB08" d="M290.728,462.493v11.479c-0.475-0.082-0.94-0.164-1.398-0.262v-11.217H290.728z"/>
					<path fill="#F8AB08" d="M296.86,463.528v11.383c-0.475-0.07-0.941-0.125-1.408-0.195v-11.188H296.86z"/>
					<path fill="#F8AB08" d="M302.187,463.528v11.932c-0.474-0.039-0.948-0.082-1.414-0.123v-11.809H302.187z"/>
					<path fill="#F8AB08" d="M309.516,463.528v12.389c-0.474-0.014-0.94-0.041-1.406-0.055v-12.334H309.516z"/>
					<path fill="#F8AB08" d="M317.953,462.493v13.521c-0.465,0-0.933,0.014-1.405,0.014v-13.535H317.953z"/>
					<path fill="#F8AB08" d="M325.789,460.935v14.762c-0.466,0.041-0.933,0.07-1.406,0.098v-14.859H325.789z"/>
					<path fill="#F8AB08" d="M332.113,460.935v14.225c-0.467,0.039-0.933,0.098-1.398,0.139v-14.363H332.113z"/>
					<path fill="#F8AB08" d="M340.454,459.306v14.652c-0.459,0.082-0.933,0.166-1.406,0.248v-14.9H340.454z"/>
					<path fill="#F8AB08" d="M349.39,457.747v14.129c-0.458,0.137-0.923,0.275-1.398,0.414v-14.543H349.39z"/>
					<path fill="#F8AB08" d="M356.526,453.954v15.271c-0.45,0.207-0.916,0.428-1.407,0.635v-15.906H356.526z"/>
					<path fill="#F8AB08" d="M361.549,451.36v14.596c-0.409,0.387-0.884,0.773-1.407,1.16V451.36H361.549z"/>
				</g>
				<path fill="#EBDEDE" d="M361.549,458.978c-0.409,0.385-0.884,0.77-1.407,1.156c-1.01,0.732-2.226,1.436-3.615,2.111
					c-0.45,0.207-0.916,0.428-1.407,0.635c-1.695,0.73-3.616,1.406-5.729,2.014c-0.458,0.139-0.923,0.275-1.398,0.414
					c-2.322,0.621-4.839,1.188-7.538,1.67c-0.459,0.082-0.933,0.166-1.406,0.248c-2.21,0.359-4.523,0.691-6.935,0.953
					c-0.467,0.039-0.933,0.096-1.398,0.137c-1.606,0.166-3.247,0.291-4.926,0.4c-0.466,0.041-0.933,0.068-1.406,0.096
					c-2.098,0.111-4.242,0.18-6.43,0.221c-0.465,0-0.933,0.014-1.405,0.014h-1.005c-2.041,0-4.05-0.039-6.027-0.109
					c-0.474-0.014-0.94-0.041-1.406-0.057c-2.018-0.096-3.993-0.234-5.923-0.398c-0.474-0.041-0.948-0.084-1.414-0.123
					c-1.334-0.125-2.635-0.277-3.912-0.43c-0.475-0.068-0.941-0.123-1.408-0.193c-1.623-0.221-3.205-0.469-4.725-0.744
					c-0.475-0.082-0.94-0.164-1.398-0.262c-1.325-0.248-2.596-0.525-3.826-0.828c-0.473-0.111-0.938-0.221-1.396-0.344
					c-1.526-0.389-2.966-0.801-4.323-1.256c-0.483-0.152-0.948-0.318-1.405-0.484c-1.432-0.51-2.742-1.047-3.914-1.627
					c-0.499-0.234-0.966-0.482-1.415-0.73c-1.174-0.65-2.177-1.326-3.006-2.029c-0.555-0.469-1.027-0.951-1.413-1.434
					c-0.853-1.078-1.304-2.193-1.304-3.34c0,2.613,0,5.238,0,6.98c0,1.145,0.451,2.264,1.304,3.34
					c0.386,0.482,0.858,0.965,1.413,1.434c0.829,0.705,1.832,1.379,3.006,2.029c0.449,0.248,0.916,0.496,1.415,0.73
					c1.172,0.58,2.482,1.117,3.914,1.629c0.457,0.166,0.922,0.33,1.405,0.482c1.357,0.455,2.797,0.869,4.323,1.256
					c0.458,0.123,0.924,0.234,1.396,0.344c1.23,0.303,2.501,0.58,3.826,0.828c0.458,0.098,0.924,0.18,1.398,0.262
					c1.52,0.275,3.102,0.525,4.725,0.744c0.467,0.07,0.934,0.125,1.408,0.195c1.277,0.15,2.578,0.303,3.912,0.426
					c0.466,0.041,0.94,0.084,1.414,0.123c1.93,0.166,3.905,0.307,5.923,0.402c0.466,0.014,0.933,0.041,1.406,0.055
					c1.978,0.07,3.986,0.111,6.027,0.111h1.005c0.472,0,0.94-0.014,1.405-0.014c2.188-0.043,4.332-0.111,6.43-0.221
					c0.474-0.027,0.94-0.057,1.406-0.098c1.679-0.109,3.319-0.236,4.926-0.398c0.466-0.041,0.932-0.1,1.398-0.139
					c2.411-0.262,4.725-0.594,6.935-0.953c0.474-0.082,0.947-0.166,1.406-0.248c2.699-0.482,5.216-1.049,7.538-1.668
					c0.475-0.139,0.939-0.277,1.398-0.414c2.113-0.609,4.034-1.283,5.729-2.016c0.491-0.207,0.957-0.428,1.407-0.635
					c1.39-0.676,2.605-1.379,3.615-2.109c0.523-0.387,0.998-0.773,1.407-1.16c1.438-1.365,2.21-2.813,2.21-4.318v-6.98
					C363.759,456.161,362.986,457.61,361.549,458.978z"/>
			</g>
			<g>
				<path fill="#FDC400" d="M359.604,426.661v15.797c0,1.504-0.77,2.951-2.21,4.318c-0.409,0.387-0.883,0.771-1.405,1.158
					c-1.013,0.73-2.227,1.436-3.615,2.111c-0.45,0.207-0.917,0.428-1.407,0.633c-1.695,0.732-3.616,1.408-5.729,2.016
					c-0.46,0.139-0.925,0.275-1.398,0.416c-2.322,0.619-4.838,1.184-7.537,1.668c-0.459,0.082-0.935,0.166-1.407,0.248
					c-2.211,0.357-4.524,0.689-6.937,0.951c-0.465,0.043-0.93,0.098-1.397,0.139c-1.606,0.166-3.247,0.289-4.926,0.4
					c-0.466,0.041-0.93,0.068-1.406,0.096c-2.097,0.111-4.243,0.18-6.43,0.223c-0.465,0-0.932,0.014-1.406,0.014h-1.004
					c-2.042,0-4.05-0.043-6.026-0.113c-0.475-0.012-0.939-0.041-1.406-0.055c-2.017-0.096-3.994-0.232-5.922-0.398
					c-0.475-0.041-0.949-0.084-1.414-0.125c-1.335-0.123-2.636-0.275-3.915-0.428c-0.474-0.068-0.941-0.123-1.406-0.193
					c-1.623-0.221-3.207-0.469-4.725-0.744c-0.476-0.082-0.941-0.166-1.4-0.262c-1.325-0.248-2.594-0.525-3.824-0.828
					c-0.474-0.111-0.94-0.221-1.397-0.346c-1.528-0.387-2.967-0.799-4.325-1.254c-0.482-0.152-0.948-0.318-1.405-0.484
					c-1.43-0.51-2.74-1.047-3.913-1.629c-0.499-0.232-0.965-0.48-1.415-0.73c-1.175-0.646-2.178-1.324-3.004-2.027
					c-0.555-0.469-1.029-0.951-1.415-1.434c-0.852-1.076-1.302-2.195-1.302-3.34c0-4.691,0-15.797,0-15.797H359.604z"/>
				<ellipse fill="#FFDE00" cx="311.389" cy="426.669" rx="48.215" ry="12.746"/>
				<ellipse fill="#FFD000" cx="311.388" cy="424.972" rx="39.578" ry="8.768"/>
				<path fill="#F8AB08" d="M273.021,427.126c4.336-3.799,19.869-6.611,38.368-6.611c18.501,0,34.032,2.813,38.368,6.611
					c0.788-0.689,1.209-1.41,1.209-2.154c0-4.844-17.72-8.77-39.577-8.77s-39.578,3.926-39.578,8.77
					C271.811,425.716,272.233,426.437,273.021,427.126z"/>
				<g>
					<path fill="#F8AB08" d="M265.891,433.739v13.492c-0.555-0.469-1.029-0.951-1.415-1.434v-12.059H265.891z"/>
					<path fill="#F8AB08" d="M270.31,437.698v12.291c-0.499-0.232-0.965-0.48-1.415-0.73v-11.561H270.31z"/>
					<path fill="#F8AB08" d="M275.628,440.126v11.977c-0.482-0.152-0.948-0.318-1.405-0.484v-11.492H275.628z"/>
					<path fill="#F8AB08" d="M281.351,441.755v11.947c-0.474-0.111-0.94-0.221-1.397-0.346v-11.602H281.351z"/>
					<path fill="#F8AB08" d="M286.575,443.313v11.479c-0.476-0.082-0.941-0.166-1.4-0.262v-11.217H286.575z"/>
					<path fill="#F8AB08" d="M292.706,444.347v11.383c-0.474-0.068-0.941-0.123-1.406-0.193v-11.189H292.706z"/>
					<path fill="#F8AB08" d="M298.034,444.347v11.936c-0.475-0.041-0.949-0.084-1.414-0.125v-11.811H298.034z"/>
					<path fill="#F8AB08" d="M305.362,444.347v12.389c-0.475-0.012-0.939-0.041-1.406-0.055v-12.334H305.362z"/>
					<path fill="#F8AB08" d="M313.799,443.313v13.521c-0.465,0-0.932,0.014-1.406,0.014v-13.535H313.799z"/>
					<path fill="#F8AB08" d="M321.634,441.755v14.762c-0.466,0.041-0.93,0.068-1.406,0.096v-14.857H321.634z"/>
					<path fill="#F8AB08" d="M327.958,441.755v14.223c-0.465,0.043-0.93,0.098-1.397,0.139v-14.361H327.958z"/>
					<path fill="#F8AB08" d="M336.302,440.126v14.652c-0.459,0.082-0.935,0.166-1.407,0.248v-14.9H336.302z"/>
					<path fill="#F8AB08" d="M345.237,438.569v14.125c-0.46,0.139-0.925,0.275-1.398,0.416v-14.541H345.237z"/>
					<path fill="#F8AB08" d="M352.373,434.772v15.273c-0.45,0.207-0.917,0.428-1.407,0.633v-15.906H352.373z"/>
					<path fill="#F8AB08" d="M357.394,432.181v14.596c-0.409,0.387-0.883,0.771-1.405,1.158v-15.754H357.394z"/>
				</g>
				<path fill="#EBDEDE" d="M357.394,439.796c-0.409,0.385-0.883,0.771-1.405,1.158c-1.013,0.73-2.227,1.436-3.615,2.111
					c-0.45,0.207-0.917,0.428-1.407,0.635c-1.695,0.73-3.616,1.406-5.729,2.014c-0.46,0.139-0.925,0.275-1.398,0.414
					c-2.322,0.621-4.838,1.186-7.537,1.668c-0.459,0.084-0.935,0.166-1.407,0.248c-2.211,0.361-4.524,0.691-6.937,0.953
					c-0.465,0.041-0.93,0.096-1.397,0.139c-1.606,0.164-3.247,0.291-4.926,0.398c-0.466,0.043-0.93,0.07-1.406,0.098
					c-2.097,0.111-4.243,0.18-6.43,0.221c-0.465,0-0.932,0.014-1.406,0.014h-1.004c-2.042,0-4.05-0.041-6.026-0.109
					c-0.475-0.014-0.939-0.043-1.406-0.055c-2.017-0.098-3.994-0.236-5.922-0.402c-0.475-0.041-0.949-0.082-1.414-0.123
					c-1.335-0.125-2.636-0.277-3.915-0.428c-0.474-0.068-0.941-0.125-1.406-0.193c-1.623-0.221-3.207-0.469-4.725-0.746
					c-0.476-0.082-0.941-0.164-1.4-0.262c-1.325-0.246-2.594-0.523-3.824-0.826c-0.474-0.111-0.94-0.221-1.397-0.346
					c-1.528-0.387-2.967-0.799-4.325-1.256c-0.482-0.15-0.948-0.316-1.405-0.482c-1.43-0.512-2.74-1.049-3.913-1.629
					c-0.499-0.234-0.965-0.48-1.415-0.73c-1.175-0.648-2.178-1.324-3.004-2.027c-0.555-0.471-1.029-0.953-1.415-1.436
					c-0.852-1.076-1.302-2.193-1.302-3.338c0,2.613,0,5.238,0,6.98c0,1.145,0.45,2.264,1.302,3.34
					c0.386,0.482,0.86,0.965,1.415,1.434c0.826,0.703,1.829,1.381,3.004,2.027c0.45,0.25,0.916,0.498,1.415,0.73
					c1.173,0.582,2.483,1.119,3.913,1.629c0.457,0.166,0.923,0.332,1.405,0.484c1.358,0.455,2.797,0.867,4.325,1.254
					c0.457,0.125,0.924,0.234,1.397,0.346c1.23,0.303,2.499,0.58,3.824,0.828c0.459,0.096,0.925,0.18,1.4,0.262
					c1.518,0.275,3.102,0.523,4.725,0.744c0.464,0.07,0.932,0.125,1.406,0.193c1.279,0.152,2.58,0.305,3.915,0.428
					c0.465,0.041,0.938,0.084,1.414,0.125c1.928,0.166,3.906,0.303,5.922,0.398c0.467,0.014,0.932,0.043,1.406,0.055
					c1.977,0.07,3.985,0.113,6.026,0.113h1.004c0.475,0,0.941-0.014,1.406-0.014c2.187-0.043,4.333-0.111,6.43-0.223
					c0.476-0.027,0.939-0.055,1.406-0.096c1.679-0.111,3.32-0.234,4.926-0.4c0.468-0.041,0.933-0.096,1.397-0.139
					c2.412-0.262,4.726-0.594,6.937-0.951c0.473-0.082,0.948-0.166,1.407-0.248c2.699-0.484,5.215-1.049,7.537-1.668
					c0.473-0.141,0.938-0.277,1.398-0.416c2.113-0.607,4.033-1.283,5.729-2.016c0.49-0.205,0.957-0.426,1.407-0.633
					c1.389-0.676,2.603-1.381,3.615-2.111c0.522-0.387,0.996-0.771,1.405-1.158c1.44-1.367,2.21-2.814,2.21-4.318v-6.98
					C359.604,436.981,358.834,438.431,357.394,439.796z"/>
			</g>
			<g>
				<path fill="#FDC400" d="M363.759,406.522v15.797c0,1.504-0.772,2.953-2.21,4.32c-0.409,0.383-0.884,0.77-1.407,1.158
					c-1.01,0.73-2.226,1.434-3.615,2.109c-0.45,0.207-0.916,0.428-1.407,0.635c-1.695,0.732-3.616,1.406-5.729,2.014
					c-0.458,0.139-0.923,0.275-1.398,0.416c-2.322,0.619-4.839,1.186-7.538,1.668c-0.459,0.082-0.933,0.166-1.406,0.25
					c-2.21,0.357-4.523,0.688-6.935,0.951c-0.467,0.041-0.933,0.096-1.398,0.137c-1.606,0.166-3.247,0.291-4.926,0.4
					c-0.466,0.041-0.933,0.068-1.406,0.096c-2.098,0.111-4.242,0.182-6.43,0.221c-0.465,0-0.933,0.016-1.405,0.016h-1.005
					c-2.041,0-4.05-0.041-6.027-0.111c-0.474-0.014-0.94-0.041-1.406-0.055c-2.018-0.098-3.993-0.234-5.923-0.4
					c-0.474-0.041-0.948-0.084-1.414-0.125c-1.334-0.123-2.635-0.275-3.912-0.428c-0.475-0.068-0.941-0.123-1.408-0.193
					c-1.623-0.221-3.205-0.469-4.725-0.744c-0.475-0.082-0.94-0.164-1.398-0.262c-1.325-0.248-2.596-0.525-3.826-0.828
					c-0.473-0.111-0.938-0.221-1.396-0.344c-1.526-0.389-2.966-0.801-4.323-1.256c-0.483-0.152-0.948-0.318-1.405-0.484
					c-1.432-0.51-2.742-1.047-3.914-1.627c-0.499-0.234-0.966-0.482-1.415-0.732c-1.174-0.648-2.177-1.322-3.006-2.027
					c-0.555-0.469-1.027-0.951-1.413-1.436c-0.853-1.076-1.304-2.191-1.304-3.338c0-4.689,0-15.797,0-15.797H363.759z"/>
				<ellipse fill="#FFDE00" cx="315.542" cy="406.53" rx="48.216" ry="12.746"/>
				<ellipse fill="#FFD000" cx="315.542" cy="404.833" rx="39.577" ry="8.768"/>
				<path fill="#F8AB08" d="M277.173,406.989c4.338-3.801,19.87-6.613,38.37-6.613s34.032,2.812,38.368,6.613
					c0.786-0.689,1.208-1.412,1.208-2.156c0-4.842-17.718-8.768-39.576-8.768c-21.859,0-39.577,3.926-39.577,8.768
					C275.966,405.577,276.388,406.3,277.173,406.989z"/>
				<g>
					<path fill="#F8AB08" d="M270.043,413.601v13.492c-0.555-0.469-1.027-0.951-1.413-1.436v-12.057H270.043z"/>
					<path fill="#F8AB08" d="M274.464,417.56v12.293c-0.499-0.234-0.966-0.482-1.415-0.732V417.56H274.464z"/>
					<path fill="#F8AB08" d="M279.783,419.989v11.975c-0.483-0.152-0.948-0.318-1.405-0.484v-11.49H279.783z"/>
					<path fill="#F8AB08" d="M285.503,421.616v11.947c-0.473-0.111-0.938-0.221-1.396-0.344v-11.604H285.503z"/>
					<path fill="#F8AB08" d="M290.728,423.175v11.479c-0.475-0.082-0.94-0.164-1.398-0.262v-11.217H290.728z"/>
					<path fill="#F8AB08" d="M296.86,424.21v11.381c-0.475-0.068-0.941-0.123-1.408-0.193V424.21H296.86z"/>
					<path fill="#F8AB08" d="M302.187,424.21v11.934c-0.474-0.041-0.948-0.084-1.414-0.125V424.21H302.187z"/>
					<path fill="#F8AB08" d="M309.516,424.21v12.389c-0.474-0.014-0.94-0.041-1.406-0.055V424.21H309.516z"/>
					<path fill="#F8AB08" d="M317.953,423.175v13.52c-0.465,0-0.933,0.016-1.405,0.016v-13.535H317.953z"/>
					<path fill="#F8AB08" d="M325.789,421.616v14.762c-0.466,0.041-0.933,0.068-1.406,0.096v-14.857H325.789z"/>
					<path fill="#F8AB08" d="M332.113,421.616v14.225c-0.467,0.041-0.933,0.096-1.398,0.137v-14.361H332.113z"/>
					<path fill="#F8AB08" d="M340.454,419.989v14.65c-0.459,0.082-0.933,0.166-1.406,0.25v-14.9H340.454z"/>
					<path fill="#F8AB08" d="M349.39,418.429v14.127c-0.458,0.139-0.923,0.275-1.398,0.416v-14.543H349.39z"/>
					<path fill="#F8AB08" d="M356.526,414.636v15.271c-0.45,0.207-0.916,0.428-1.407,0.635v-15.906H356.526z"/>
					<path fill="#F8AB08" d="M361.549,412.042v14.598c-0.409,0.383-0.884,0.77-1.407,1.158v-15.756H361.549z"/>
				</g>
				<path fill="#EBDEDE" d="M361.549,419.657c-0.409,0.387-0.884,0.771-1.407,1.158c-1.01,0.732-2.226,1.436-3.615,2.111
					c-0.45,0.207-0.916,0.428-1.407,0.635c-1.695,0.732-3.616,1.406-5.729,2.016c-0.458,0.137-0.923,0.273-1.398,0.412
					c-2.322,0.621-4.839,1.188-7.538,1.67c-0.459,0.082-0.933,0.166-1.406,0.248c-2.21,0.357-4.523,0.689-6.935,0.951
					c-0.467,0.041-0.933,0.098-1.398,0.139c-1.606,0.164-3.247,0.289-4.926,0.4c-0.466,0.041-0.933,0.068-1.406,0.096
					c-2.098,0.111-4.242,0.18-6.43,0.221c-0.465,0-0.933,0.014-1.405,0.014h-1.005c-2.041,0-4.05-0.041-6.027-0.109
					c-0.474-0.014-0.94-0.041-1.406-0.057c-2.018-0.096-3.993-0.234-5.923-0.4c-0.474-0.041-0.948-0.082-1.414-0.123
					c-1.334-0.123-2.635-0.275-3.912-0.428c-0.475-0.068-0.941-0.125-1.408-0.193c-1.623-0.219-3.205-0.469-4.725-0.744
					c-0.475-0.084-0.94-0.166-1.398-0.264c-1.325-0.246-2.596-0.523-3.826-0.826c-0.473-0.111-0.938-0.221-1.396-0.346
					c-1.526-0.387-2.966-0.801-4.323-1.254c-0.483-0.152-0.948-0.318-1.405-0.484c-1.432-0.51-2.742-1.047-3.914-1.629
					c-0.499-0.234-0.966-0.48-1.415-0.73c-1.174-0.648-2.177-1.324-3.006-2.027c-0.555-0.469-1.027-0.953-1.413-1.436
					c-0.853-1.076-1.304-2.193-1.304-3.338c0,2.613,0,5.238,0,6.98c0,1.146,0.451,2.262,1.304,3.338
					c0.386,0.484,0.858,0.967,1.413,1.436c0.829,0.705,1.832,1.379,3.006,2.027c0.449,0.25,0.916,0.498,1.415,0.732
					c1.172,0.58,2.482,1.117,3.914,1.627c0.457,0.166,0.922,0.332,1.405,0.484c1.357,0.455,2.797,0.867,4.323,1.256
					c0.458,0.123,0.924,0.232,1.396,0.344c1.23,0.303,2.501,0.58,3.826,0.828c0.458,0.098,0.924,0.18,1.398,0.262
					c1.52,0.275,3.102,0.523,4.725,0.744c0.467,0.07,0.934,0.125,1.408,0.193c1.277,0.152,2.578,0.305,3.912,0.428
					c0.466,0.041,0.94,0.084,1.414,0.125c1.93,0.166,3.905,0.303,5.923,0.4c0.466,0.014,0.933,0.041,1.406,0.055
					c1.978,0.07,3.986,0.111,6.027,0.111h1.005c0.472,0,0.94-0.016,1.405-0.016c2.188-0.039,4.332-0.109,6.43-0.221
					c0.474-0.027,0.94-0.055,1.406-0.096c1.679-0.109,3.319-0.234,4.926-0.4c0.466-0.041,0.932-0.096,1.398-0.137
					c2.411-0.264,4.725-0.594,6.935-0.951c0.474-0.084,0.947-0.168,1.406-0.25c2.699-0.482,5.216-1.049,7.538-1.668
					c0.475-0.141,0.939-0.277,1.398-0.416c2.113-0.607,4.034-1.281,5.729-2.014c0.491-0.207,0.957-0.428,1.407-0.635
					c1.39-0.676,2.605-1.379,3.615-2.109c0.523-0.389,0.998-0.775,1.407-1.158c1.438-1.367,2.21-2.816,2.21-4.32v-6.98
					C363.759,416.843,362.986,418.292,361.549,419.657z"/>
			</g>
			<g>
				<path fill="#FDC400" d="M368.951,387.343v15.796c0,1.504-0.771,2.951-2.21,4.318c-0.41,0.387-0.885,0.771-1.408,1.158
					c-1.012,0.73-2.225,1.436-3.615,2.111c-0.451,0.207-0.917,0.428-1.406,0.635c-1.695,0.73-3.616,1.406-5.729,2.014
					c-0.458,0.139-0.924,0.277-1.398,0.414c-2.322,0.621-4.837,1.186-7.537,1.67c-0.458,0.082-0.932,0.166-1.406,0.248
					c-2.21,0.357-4.524,0.689-6.934,0.951c-0.468,0.041-0.933,0.098-1.398,0.139c-1.608,0.164-3.248,0.289-4.928,0.4
					c-0.463,0.041-0.931,0.068-1.404,0.096c-2.098,0.111-4.243,0.18-6.43,0.221c-0.466,0-0.932,0.014-1.405,0.014h-1.005
					c-2.042,0-4.05-0.041-6.028-0.109c-0.473-0.014-0.939-0.043-1.404-0.055c-2.018-0.098-3.994-0.236-5.924-0.402
					c-0.474-0.039-0.948-0.082-1.415-0.123c-1.333-0.125-2.636-0.277-3.913-0.428c-0.474-0.068-0.941-0.125-1.408-0.193
					c-1.622-0.221-3.205-0.469-4.724-0.746c-0.474-0.082-0.94-0.164-1.399-0.262c-1.325-0.248-2.595-0.523-3.825-0.826
					c-0.473-0.111-0.938-0.221-1.396-0.346c-1.528-0.385-2.966-0.799-4.325-1.256c-0.482-0.15-0.947-0.316-1.405-0.48
					c-1.432-0.514-2.74-1.051-3.914-1.631c-0.499-0.234-0.965-0.482-1.415-0.73c-1.173-0.648-2.177-1.324-3.004-2.027
					c-0.557-0.469-1.03-0.953-1.414-1.436c-0.853-1.076-1.304-2.193-1.304-3.338c0-4.692,0-15.796,0-15.796H368.951z"/>
				<ellipse fill="#FFDE00" cx="320.735" cy="387.349" rx="48.216" ry="12.748"/>
				<ellipse fill="#FFD000" cx="320.735" cy="385.654" rx="39.577" ry="8.767"/>
				<path fill="#F8AB08" d="M282.366,387.808c4.338-3.801,19.869-6.613,38.369-6.613c18.5,0,34.031,2.812,38.37,6.613
					c0.785-0.689,1.207-1.411,1.207-2.154c0-4.844-17.718-8.77-39.577-8.77c-21.858,0-39.577,3.925-39.577,8.77
					C281.158,386.397,281.58,387.119,282.366,387.808z"/>
				<g>
					<path fill="#F8AB08" d="M275.236,394.42v13.493c-0.557-0.469-1.03-0.953-1.414-1.436V394.42H275.236z"/>
					<path fill="#F8AB08" d="M279.655,398.379v12.292c-0.499-0.234-0.965-0.482-1.415-0.73v-11.561H279.655z"/>
					<path fill="#F8AB08" d="M284.975,400.806v11.976c-0.482-0.15-0.947-0.316-1.405-0.48v-11.496H284.975z"/>
					<path fill="#F8AB08" d="M290.695,402.437v11.947c-0.473-0.111-0.938-0.221-1.396-0.346v-11.602H290.695z"/>
					<path fill="#F8AB08" d="M295.92,403.995v11.477c-0.474-0.082-0.94-0.164-1.399-0.262v-11.215H295.92z"/>
					<path fill="#F8AB08" d="M302.052,405.03v11.381c-0.474-0.068-0.941-0.125-1.408-0.193V405.03H302.052z"/>
					<path fill="#F8AB08" d="M307.379,405.03v11.932c-0.474-0.039-0.948-0.082-1.415-0.123V405.03H307.379z"/>
					<path fill="#F8AB08" d="M314.707,405.03v12.389c-0.473-0.014-0.939-0.043-1.404-0.055V405.03H314.707z"/>
					<path fill="#F8AB08" d="M323.146,403.995v13.52c-0.466,0-0.932,0.014-1.405,0.014v-13.533H323.146z"/>
					<path fill="#F8AB08" d="M330.979,402.437v14.762c-0.463,0.041-0.931,0.068-1.404,0.096v-14.857H330.979z"/>
					<path fill="#F8AB08" d="M337.306,402.437v14.223c-0.468,0.041-0.933,0.098-1.398,0.139v-14.361H337.306z"/>
					<path fill="#F8AB08" d="M345.646,400.806v14.654c-0.458,0.082-0.932,0.166-1.406,0.248v-14.902H345.646z"/>
					<path fill="#F8AB08" d="M354.582,399.25v14.126c-0.458,0.139-0.924,0.277-1.398,0.414V399.25H354.582z"/>
					<path fill="#F8AB08" d="M361.718,395.455v15.273c-0.451,0.207-0.917,0.428-1.406,0.635v-15.908H361.718z"/>
					<path fill="#F8AB08" d="M366.741,392.861v14.597c-0.41,0.387-0.885,0.771-1.408,1.158v-15.755H366.741z"/>
				</g>
				<path fill="#EBDEDE" d="M366.741,400.477c-0.41,0.386-0.885,0.771-1.408,1.159c-1.012,0.73-2.225,1.434-3.615,2.111
					c-0.451,0.207-0.917,0.426-1.406,0.635c-1.695,0.73-3.616,1.404-5.729,2.014c-0.458,0.137-0.924,0.275-1.398,0.414
					c-2.322,0.621-4.837,1.186-7.537,1.668c-0.458,0.084-0.932,0.166-1.406,0.25c-2.21,0.357-4.524,0.689-6.934,0.951
					c-0.468,0.041-0.933,0.098-1.398,0.139c-1.608,0.164-3.248,0.289-4.928,0.398c-0.463,0.043-0.931,0.07-1.404,0.098
					c-2.098,0.109-4.243,0.178-6.43,0.221c-0.466,0-0.932,0.014-1.405,0.014h-1.005c-2.042,0-4.05-0.041-6.028-0.111
					c-0.473-0.014-0.939-0.041-1.404-0.055c-2.018-0.096-3.994-0.234-5.924-0.4c-0.474-0.041-0.948-0.084-1.415-0.123
					c-1.333-0.123-2.636-0.277-3.913-0.43c-0.474-0.068-0.941-0.123-1.408-0.191c-1.622-0.221-3.205-0.469-4.724-0.746
					c-0.474-0.08-0.94-0.164-1.399-0.262c-1.325-0.248-2.595-0.523-3.825-0.826c-0.473-0.111-0.938-0.223-1.396-0.346
					c-1.528-0.387-2.966-0.801-4.325-1.256c-0.482-0.15-0.947-0.316-1.405-0.482c-1.432-0.51-2.74-1.049-3.914-1.629
					c-0.499-0.234-0.965-0.482-1.415-0.73c-1.173-0.648-2.177-1.324-3.004-2.029c-0.557-0.469-1.03-0.951-1.414-1.434
					c-0.853-1.076-1.304-2.194-1.304-3.34c0,2.614,0,5.24,0,6.982c0,1.145,0.451,2.262,1.304,3.338
					c0.384,0.482,0.857,0.967,1.414,1.436c0.828,0.703,1.831,1.379,3.004,2.027c0.45,0.248,0.916,0.496,1.415,0.73
					c1.174,0.58,2.482,1.117,3.914,1.631c0.458,0.164,0.923,0.33,1.405,0.48c1.358,0.457,2.797,0.871,4.325,1.256
					c0.458,0.125,0.923,0.234,1.396,0.346c1.23,0.303,2.5,0.578,3.825,0.826c0.459,0.098,0.926,0.18,1.399,0.262
					c1.519,0.277,3.102,0.525,4.724,0.746c0.467,0.068,0.935,0.125,1.408,0.193c1.276,0.15,2.579,0.303,3.913,0.428
					c0.466,0.041,0.941,0.084,1.415,0.123c1.93,0.166,3.906,0.305,5.924,0.402c0.465,0.012,0.932,0.041,1.404,0.055
					c1.978,0.068,3.986,0.109,6.028,0.109h1.005c0.474,0,0.939-0.014,1.405-0.014c2.187-0.041,4.332-0.109,6.43-0.221
					c0.473-0.027,0.941-0.055,1.404-0.096c1.681-0.111,3.32-0.236,4.928-0.4c0.465-0.041,0.93-0.098,1.398-0.139
					c2.41-0.262,4.724-0.594,6.934-0.951c0.475-0.082,0.948-0.166,1.406-0.248c2.7-0.484,5.215-1.049,7.537-1.67
					c0.475-0.137,0.94-0.275,1.398-0.414c2.113-0.607,4.034-1.283,5.729-2.014c0.489-0.207,0.955-0.428,1.406-0.635
					c1.391-0.676,2.604-1.381,3.615-2.111c0.523-0.387,0.998-0.771,1.408-1.158c1.438-1.367,2.21-2.814,2.21-4.318v-6.982
					C368.951,397.663,368.18,399.11,366.741,400.477z"/>
			</g>
		</g>
	</g>
	<g>
		<g>
			<g>
				<path fill="#FDC400" d="M475.106,445.843v15.795c0,1.506-0.772,2.953-2.21,4.318c-0.409,0.387-0.884,0.773-1.407,1.16
					c-1.011,0.73-2.226,1.434-3.616,2.109c-0.449,0.207-0.915,0.428-1.406,0.635c-1.695,0.732-3.616,1.406-5.729,2.016
					c-0.458,0.137-0.923,0.275-1.397,0.414c-2.323,0.619-4.839,1.186-7.537,1.668c-0.46,0.082-0.933,0.166-1.407,0.248
					c-2.21,0.359-4.523,0.691-6.935,0.953c-0.466,0.039-0.934,0.098-1.397,0.139c-1.608,0.162-3.248,0.289-4.926,0.398
					c-0.467,0.041-0.934,0.07-1.407,0.098c-2.098,0.109-4.242,0.178-6.43,0.221c-0.466,0-0.932,0.014-1.404,0.014h-1.007
					c-2.04,0-4.049-0.041-6.025-0.111c-0.475-0.014-0.939-0.041-1.406-0.055c-2.018-0.096-3.994-0.236-5.922-0.402
					c-0.476-0.039-0.949-0.082-1.416-0.123c-1.334-0.123-2.636-0.275-3.913-0.426c-0.474-0.07-0.939-0.125-1.407-0.195
					c-1.623-0.219-3.205-0.469-4.724-0.744c-0.476-0.082-0.941-0.164-1.398-0.262c-1.326-0.248-2.597-0.525-3.826-0.828
					c-0.474-0.109-0.94-0.221-1.397-0.344c-1.526-0.387-2.966-0.801-4.324-1.256c-0.482-0.152-0.946-0.316-1.405-0.482
					c-1.431-0.512-2.74-1.049-3.913-1.629c-0.499-0.234-0.967-0.482-1.415-0.73c-1.173-0.65-2.178-1.324-3.005-2.029
					c-0.555-0.469-1.028-0.951-1.414-1.434c-0.852-1.076-1.304-2.195-1.304-3.34c0-4.689,0-15.795,0-15.795H475.106z"/>
				<ellipse fill="#FFDE00" cx="426.89" cy="445.849" rx="48.216" ry="12.746"/>
				<ellipse fill="#FFD000" cx="426.891" cy="444.151" rx="39.576" ry="8.768"/>
				<path fill="#F8AB08" d="M388.521,446.308c4.339-3.801,19.869-6.613,38.368-6.613c18.501,0,34.032,2.813,38.37,6.613
					c0.785-0.689,1.207-1.412,1.207-2.156c0-4.844-17.719-8.768-39.577-8.768c-21.857,0-39.575,3.924-39.575,8.768
					C387.314,444.896,387.735,445.618,388.521,446.308z"/>
				<g>
					<path fill="#F8AB08" d="M381.392,452.919v13.492c-0.555-0.469-1.028-0.951-1.414-1.434v-12.059H381.392z"/>
					<path fill="#F8AB08" d="M385.812,456.88v12.291c-0.499-0.234-0.967-0.482-1.415-0.73V456.88H385.812z"/>
					<path fill="#F8AB08" d="M391.13,459.306v11.977c-0.482-0.152-0.946-0.316-1.405-0.482v-11.494H391.13z"/>
					<path fill="#F8AB08" d="M396.852,460.935v11.947c-0.474-0.109-0.94-0.221-1.397-0.344v-11.604H396.852z"/>
					<path fill="#F8AB08" d="M402.076,462.493v11.479c-0.476-0.082-0.941-0.164-1.398-0.262v-11.217H402.076z"/>
					<path fill="#F8AB08" d="M408.207,463.528v11.383c-0.474-0.07-0.939-0.125-1.407-0.195v-11.188H408.207z"/>
					<path fill="#F8AB08" d="M413.536,463.528v11.932c-0.476-0.039-0.949-0.082-1.416-0.123v-11.809H413.536z"/>
					<path fill="#F8AB08" d="M420.864,463.528v12.389c-0.475-0.014-0.939-0.041-1.406-0.055v-12.334H420.864z"/>
					<path fill="#F8AB08" d="M429.301,462.493v13.521c-0.466,0-0.932,0.014-1.404,0.014v-13.535H429.301z"/>
					<path fill="#F8AB08" d="M437.138,460.935v14.762c-0.467,0.041-0.934,0.07-1.407,0.098v-14.859H437.138z"/>
					<path fill="#F8AB08" d="M443.461,460.935v14.225c-0.466,0.039-0.934,0.098-1.397,0.139v-14.363H443.461z"/>
					<path fill="#F8AB08" d="M451.803,459.306v14.652c-0.46,0.082-0.933,0.166-1.407,0.248v-14.9H451.803z"/>
					<path fill="#F8AB08" d="M460.737,457.747v14.129c-0.458,0.137-0.923,0.275-1.397,0.414v-14.543H460.737z"/>
					<path fill="#F8AB08" d="M467.873,453.954v15.271c-0.449,0.207-0.915,0.428-1.406,0.635v-15.906H467.873z"/>
					<path fill="#F8AB08" d="M472.896,451.36v14.596c-0.409,0.387-0.884,0.773-1.407,1.16V451.36H472.896z"/>
				</g>
				<path fill="#EBDEDE" d="M472.896,458.978c-0.409,0.385-0.884,0.77-1.407,1.156c-1.011,0.732-2.226,1.436-3.616,2.111
					c-0.449,0.207-0.915,0.428-1.406,0.635c-1.695,0.73-3.616,1.406-5.729,2.014c-0.458,0.139-0.923,0.275-1.397,0.414
					c-2.323,0.621-4.839,1.188-7.537,1.67c-0.46,0.082-0.933,0.166-1.407,0.248c-2.21,0.359-4.523,0.691-6.935,0.953
					c-0.466,0.039-0.934,0.096-1.397,0.137c-1.608,0.166-3.248,0.291-4.926,0.4c-0.467,0.041-0.934,0.068-1.407,0.096
					c-2.098,0.111-4.242,0.18-6.43,0.221c-0.466,0-0.932,0.014-1.404,0.014h-1.007c-2.04,0-4.049-0.039-6.025-0.109
					c-0.475-0.014-0.939-0.041-1.406-0.057c-2.018-0.096-3.994-0.234-5.922-0.398c-0.476-0.041-0.949-0.084-1.416-0.123
					c-1.334-0.125-2.636-0.277-3.913-0.43c-0.474-0.068-0.939-0.123-1.407-0.193c-1.623-0.221-3.205-0.469-4.724-0.744
					c-0.476-0.082-0.941-0.164-1.398-0.262c-1.326-0.248-2.597-0.525-3.826-0.828c-0.474-0.111-0.94-0.221-1.397-0.344
					c-1.526-0.389-2.966-0.801-4.324-1.256c-0.482-0.152-0.946-0.318-1.405-0.484c-1.431-0.51-2.74-1.047-3.913-1.627
					c-0.499-0.234-0.967-0.482-1.415-0.73c-1.173-0.65-2.178-1.326-3.005-2.029c-0.555-0.469-1.028-0.951-1.414-1.434
					c-0.852-1.078-1.304-2.193-1.304-3.34c0,2.613,0,5.238,0,6.98c0,1.145,0.452,2.264,1.304,3.34
					c0.386,0.482,0.859,0.965,1.414,1.434c0.827,0.705,1.832,1.379,3.005,2.029c0.448,0.248,0.916,0.496,1.415,0.73
					c1.173,0.58,2.482,1.117,3.913,1.629c0.459,0.166,0.923,0.33,1.405,0.482c1.358,0.455,2.798,0.869,4.324,1.256
					c0.457,0.123,0.924,0.234,1.397,0.344c1.229,0.303,2.5,0.58,3.826,0.828c0.457,0.098,0.923,0.18,1.398,0.262
					c1.519,0.275,3.101,0.525,4.724,0.744c0.468,0.07,0.934,0.125,1.407,0.195c1.277,0.15,2.579,0.303,3.913,0.426
					c0.467,0.041,0.94,0.084,1.416,0.123c1.928,0.166,3.904,0.307,5.922,0.402c0.467,0.014,0.932,0.041,1.406,0.055
					c1.977,0.07,3.985,0.111,6.025,0.111h1.007c0.473,0,0.938-0.014,1.404-0.014c2.188-0.043,4.332-0.111,6.43-0.221
					c0.474-0.027,0.94-0.057,1.407-0.098c1.678-0.109,3.317-0.236,4.926-0.398c0.464-0.041,0.932-0.1,1.397-0.139
					c2.411-0.262,4.725-0.594,6.935-0.953c0.475-0.082,0.947-0.166,1.407-0.248c2.698-0.482,5.214-1.049,7.537-1.668
					c0.475-0.139,0.939-0.277,1.397-0.414c2.113-0.609,4.034-1.283,5.729-2.016c0.491-0.207,0.957-0.428,1.406-0.635
					c1.391-0.676,2.605-1.379,3.616-2.109c0.523-0.387,0.998-0.773,1.407-1.16c1.438-1.365,2.21-2.813,2.21-4.318v-6.98
					C475.106,456.161,474.334,457.61,472.896,458.978z"/>
			</g>
			<g>
				<path fill="#FDC400" d="M470.951,426.661v15.797c0,1.504-0.77,2.951-2.208,4.318c-0.41,0.387-0.884,0.771-1.406,1.158
					c-1.013,0.73-2.227,1.436-3.617,2.111c-0.448,0.207-0.916,0.428-1.406,0.633c-1.695,0.732-3.615,1.408-5.729,2.016
					c-0.458,0.139-0.924,0.275-1.397,0.416c-2.321,0.619-4.838,1.184-7.537,1.668c-0.459,0.082-0.934,0.166-1.408,0.248
					c-2.209,0.357-4.523,0.689-6.935,0.951c-0.466,0.043-0.931,0.098-1.398,0.139c-1.607,0.166-3.246,0.289-4.926,0.4
					c-0.466,0.041-0.931,0.068-1.405,0.096c-2.098,0.111-4.244,0.18-6.431,0.223c-0.464,0-0.932,0.014-1.405,0.014h-1.004
					c-2.042,0-4.051-0.043-6.027-0.113c-0.474-0.012-0.939-0.041-1.406-0.055c-2.018-0.096-3.994-0.232-5.922-0.398
					c-0.474-0.041-0.949-0.084-1.415-0.125c-1.334-0.123-2.636-0.275-3.913-0.428c-0.475-0.068-0.941-0.123-1.406-0.193
					c-1.623-0.221-3.207-0.469-4.725-0.744c-0.475-0.082-0.94-0.166-1.399-0.262c-1.325-0.248-2.596-0.525-3.825-0.828
					c-0.473-0.111-0.939-0.221-1.397-0.346c-1.528-0.387-2.966-0.799-4.325-1.254c-0.481-0.152-0.948-0.318-1.405-0.484
					c-1.431-0.51-2.739-1.047-3.913-1.629c-0.499-0.232-0.965-0.48-1.415-0.73c-1.174-0.646-2.178-1.324-3.005-2.027
					c-0.554-0.469-1.028-0.951-1.414-1.434c-0.852-1.076-1.303-2.195-1.303-3.34c0-4.691,0-15.797,0-15.797H470.951z"/>
				<ellipse fill="#FFDE00" cx="422.736" cy="426.669" rx="48.215" ry="12.746"/>
				<ellipse fill="#FFD000" cx="422.737" cy="424.972" rx="39.577" ry="8.768"/>
				<path fill="#F8AB08" d="M384.368,427.126c4.338-3.799,19.869-6.611,38.369-6.611s34.031,2.813,38.367,6.611
					c0.788-0.689,1.209-1.41,1.209-2.154c0-4.844-17.72-8.77-39.576-8.77c-21.858,0-39.577,3.926-39.577,8.77
					C383.16,425.716,383.58,426.437,384.368,427.126z"/>
				<g>
					<path fill="#F8AB08" d="M377.237,433.739v13.492c-0.554-0.469-1.028-0.951-1.414-1.434v-12.059H377.237z"/>
					<path fill="#F8AB08" d="M381.657,437.698v12.291c-0.499-0.232-0.965-0.48-1.415-0.73v-11.561H381.657z"/>
					<path fill="#F8AB08" d="M386.976,440.126v11.977c-0.481-0.152-0.948-0.318-1.405-0.484v-11.492H386.976z"/>
					<path fill="#F8AB08" d="M392.698,441.755v11.947c-0.473-0.111-0.939-0.221-1.397-0.346v-11.602H392.698z"/>
					<path fill="#F8AB08" d="M397.923,443.313v11.479c-0.475-0.082-0.94-0.166-1.399-0.262v-11.217H397.923z"/>
					<path fill="#F8AB08" d="M404.054,444.347v11.383c-0.475-0.068-0.941-0.123-1.406-0.193v-11.189H404.054z"/>
					<path fill="#F8AB08" d="M409.382,444.347v11.936c-0.474-0.041-0.949-0.084-1.415-0.125v-11.811H409.382z"/>
					<path fill="#F8AB08" d="M416.71,444.347v12.389c-0.474-0.012-0.939-0.041-1.406-0.055v-12.334H416.71z"/>
					<path fill="#F8AB08" d="M425.146,443.313v13.521c-0.464,0-0.932,0.014-1.405,0.014v-13.535H425.146z"/>
					<path fill="#F8AB08" d="M432.982,441.755v14.762c-0.466,0.041-0.931,0.068-1.405,0.096v-14.857H432.982z"/>
					<path fill="#F8AB08" d="M439.307,441.755v14.223c-0.466,0.043-0.931,0.098-1.398,0.139v-14.361H439.307z"/>
					<path fill="#F8AB08" d="M447.649,440.126v14.652c-0.459,0.082-0.934,0.166-1.408,0.248v-14.9H447.649z"/>
					<path fill="#F8AB08" d="M456.584,438.569v14.125c-0.458,0.139-0.924,0.275-1.397,0.416v-14.541H456.584z"/>
					<path fill="#F8AB08" d="M463.72,434.772v15.273c-0.448,0.207-0.916,0.428-1.406,0.633v-15.906H463.72z"/>
					<path fill="#F8AB08" d="M468.743,432.181v14.596c-0.41,0.387-0.884,0.771-1.406,1.158v-15.754H468.743z"/>
				</g>
				<path fill="#EBDEDE" d="M468.743,439.796c-0.41,0.385-0.884,0.771-1.406,1.158c-1.013,0.73-2.227,1.436-3.617,2.111
					c-0.448,0.207-0.916,0.428-1.406,0.635c-1.695,0.73-3.615,1.406-5.729,2.014c-0.458,0.139-0.924,0.275-1.397,0.414
					c-2.321,0.621-4.838,1.186-7.537,1.668c-0.459,0.084-0.934,0.166-1.408,0.248c-2.209,0.361-4.523,0.691-6.935,0.953
					c-0.466,0.041-0.931,0.096-1.398,0.139c-1.607,0.164-3.246,0.291-4.926,0.398c-0.466,0.043-0.931,0.07-1.405,0.098
					c-2.098,0.111-4.244,0.18-6.431,0.221c-0.464,0-0.932,0.014-1.405,0.014h-1.004c-2.042,0-4.051-0.041-6.027-0.109
					c-0.474-0.014-0.939-0.043-1.406-0.055c-2.018-0.098-3.994-0.236-5.922-0.402c-0.474-0.041-0.949-0.082-1.415-0.123
					c-1.334-0.125-2.636-0.277-3.913-0.428c-0.475-0.068-0.941-0.125-1.406-0.193c-1.623-0.221-3.207-0.469-4.725-0.746
					c-0.475-0.082-0.94-0.164-1.399-0.262c-1.325-0.246-2.596-0.523-3.825-0.826c-0.473-0.111-0.939-0.221-1.397-0.346
					c-1.528-0.387-2.966-0.799-4.325-1.256c-0.481-0.15-0.948-0.316-1.405-0.482c-1.431-0.512-2.739-1.049-3.913-1.629
					c-0.499-0.234-0.965-0.48-1.415-0.73c-1.174-0.648-2.178-1.324-3.005-2.027c-0.554-0.471-1.028-0.953-1.414-1.436
					c-0.852-1.076-1.303-2.193-1.303-3.338c0,2.613,0,5.238,0,6.98c0,1.145,0.451,2.264,1.303,3.34
					c0.386,0.482,0.86,0.965,1.414,1.434c0.827,0.703,1.831,1.381,3.005,2.027c0.45,0.25,0.916,0.498,1.415,0.73
					c1.174,0.582,2.482,1.119,3.913,1.629c0.457,0.166,0.924,0.332,1.405,0.484c1.359,0.455,2.797,0.867,4.325,1.254
					c0.458,0.125,0.925,0.234,1.397,0.346c1.229,0.303,2.5,0.58,3.825,0.828c0.459,0.096,0.925,0.18,1.399,0.262
					c1.518,0.275,3.102,0.523,4.725,0.744c0.465,0.07,0.932,0.125,1.406,0.193c1.277,0.152,2.579,0.305,3.913,0.428
					c0.466,0.041,0.941,0.084,1.415,0.125c1.928,0.166,3.904,0.303,5.922,0.398c0.467,0.014,0.933,0.043,1.406,0.055
					c1.977,0.07,3.985,0.113,6.027,0.113h1.004c0.474,0,0.941-0.014,1.405-0.014c2.187-0.043,4.333-0.111,6.431-0.223
					c0.475-0.027,0.939-0.055,1.405-0.096c1.68-0.111,3.318-0.234,4.926-0.4c0.468-0.041,0.933-0.096,1.398-0.139
					c2.411-0.262,4.726-0.594,6.935-0.951c0.475-0.082,0.949-0.166,1.408-0.248c2.699-0.484,5.216-1.049,7.537-1.668
					c0.474-0.141,0.939-0.277,1.397-0.416c2.114-0.607,4.034-1.283,5.729-2.016c0.49-0.205,0.958-0.426,1.406-0.633
					c1.391-0.676,2.604-1.381,3.617-2.111c0.522-0.387,0.996-0.771,1.406-1.158c1.438-1.367,2.208-2.814,2.208-4.318v-6.98
					C470.951,436.981,470.182,438.431,468.743,439.796z"/>
			</g>
			<g>
				<path fill="#FDC400" d="M475.106,406.522v15.797c0,1.504-0.772,2.953-2.21,4.32c-0.409,0.383-0.884,0.77-1.407,1.158
					c-1.011,0.73-2.226,1.434-3.616,2.109c-0.449,0.207-0.915,0.428-1.406,0.635c-1.695,0.732-3.616,1.406-5.729,2.014
					c-0.458,0.139-0.923,0.275-1.397,0.416c-2.323,0.619-4.839,1.186-7.537,1.668c-0.46,0.082-0.933,0.166-1.407,0.25
					c-2.21,0.357-4.523,0.688-6.935,0.951c-0.466,0.041-0.934,0.096-1.397,0.137c-1.608,0.166-3.248,0.291-4.926,0.4
					c-0.467,0.041-0.934,0.068-1.407,0.096c-2.098,0.111-4.242,0.182-6.43,0.221c-0.466,0-0.932,0.016-1.404,0.016h-1.007
					c-2.04,0-4.049-0.041-6.025-0.111c-0.475-0.014-0.939-0.041-1.406-0.055c-2.018-0.098-3.994-0.234-5.922-0.4
					c-0.476-0.041-0.949-0.084-1.416-0.125c-1.334-0.123-2.636-0.275-3.913-0.428c-0.474-0.068-0.939-0.123-1.407-0.193
					c-1.623-0.221-3.205-0.469-4.724-0.744c-0.476-0.082-0.941-0.164-1.398-0.262c-1.326-0.248-2.597-0.525-3.826-0.828
					c-0.474-0.111-0.94-0.221-1.397-0.344c-1.526-0.389-2.966-0.801-4.324-1.256c-0.482-0.152-0.946-0.318-1.405-0.484
					c-1.431-0.51-2.74-1.047-3.913-1.627c-0.499-0.234-0.967-0.482-1.415-0.732c-1.173-0.648-2.178-1.322-3.005-2.027
					c-0.555-0.469-1.028-0.951-1.414-1.436c-0.852-1.076-1.304-2.191-1.304-3.338c0-4.689,0-15.797,0-15.797H475.106z"/>
				<ellipse fill="#FFDE00" cx="426.89" cy="406.53" rx="48.216" ry="12.746"/>
				<ellipse fill="#FFD000" cx="426.891" cy="404.833" rx="39.576" ry="8.768"/>
				<path fill="#F8AB08" d="M388.521,406.989c4.339-3.801,19.869-6.613,38.368-6.613c18.501,0,34.032,2.812,38.37,6.613
					c0.785-0.689,1.207-1.412,1.207-2.156c0-4.842-17.719-8.768-39.577-8.768c-21.857,0-39.575,3.926-39.575,8.768
					C387.314,405.577,387.735,406.3,388.521,406.989z"/>
				<g>
					<path fill="#F8AB08" d="M381.392,413.601v13.492c-0.555-0.469-1.028-0.951-1.414-1.436v-12.057H381.392z"/>
					<path fill="#F8AB08" d="M385.812,417.56v12.293c-0.499-0.234-0.967-0.482-1.415-0.732V417.56H385.812z"/>
					<path fill="#F8AB08" d="M391.13,419.989v11.975c-0.482-0.152-0.946-0.318-1.405-0.484v-11.49H391.13z"/>
					<path fill="#F8AB08" d="M396.852,421.616v11.947c-0.474-0.111-0.94-0.221-1.397-0.344v-11.604H396.852z"/>
					<path fill="#F8AB08" d="M402.076,423.175v11.479c-0.476-0.082-0.941-0.164-1.398-0.262v-11.217H402.076z"/>
					<path fill="#F8AB08" d="M408.207,424.21v11.381c-0.474-0.068-0.939-0.123-1.407-0.193V424.21H408.207z"/>
					<path fill="#F8AB08" d="M413.536,424.21v11.934c-0.476-0.041-0.949-0.084-1.416-0.125V424.21H413.536z"/>
					<path fill="#F8AB08" d="M420.864,424.21v12.389c-0.475-0.014-0.939-0.041-1.406-0.055V424.21H420.864z"/>
					<path fill="#F8AB08" d="M429.301,423.175v13.52c-0.466,0-0.932,0.016-1.404,0.016v-13.535H429.301z"/>
					<path fill="#F8AB08" d="M437.138,421.616v14.762c-0.467,0.041-0.934,0.068-1.407,0.096v-14.857H437.138z"/>
					<path fill="#F8AB08" d="M443.461,421.616v14.225c-0.466,0.041-0.934,0.096-1.397,0.137v-14.361H443.461z"/>
					<path fill="#F8AB08" d="M451.803,419.989v14.65c-0.46,0.082-0.933,0.166-1.407,0.25v-14.9H451.803z"/>
					<path fill="#F8AB08" d="M460.737,418.429v14.127c-0.458,0.139-0.923,0.275-1.397,0.416v-14.543H460.737z"/>
					<path fill="#F8AB08" d="M467.873,414.636v15.271c-0.449,0.207-0.915,0.428-1.406,0.635v-15.906H467.873z"/>
					<path fill="#F8AB08" d="M472.896,412.042v14.598c-0.409,0.383-0.884,0.77-1.407,1.158v-15.756H472.896z"/>
				</g>
				<path fill="#EBDEDE" d="M472.896,419.657c-0.409,0.387-0.884,0.771-1.407,1.158c-1.011,0.732-2.226,1.436-3.616,2.111
					c-0.449,0.207-0.915,0.428-1.406,0.635c-1.695,0.732-3.616,1.406-5.729,2.016c-0.458,0.137-0.923,0.273-1.397,0.412
					c-2.323,0.621-4.839,1.188-7.537,1.67c-0.46,0.082-0.933,0.166-1.407,0.248c-2.21,0.357-4.523,0.689-6.935,0.951
					c-0.466,0.041-0.934,0.098-1.397,0.139c-1.608,0.164-3.248,0.289-4.926,0.4c-0.467,0.041-0.934,0.068-1.407,0.096
					c-2.098,0.111-4.242,0.18-6.43,0.221c-0.466,0-0.932,0.014-1.404,0.014h-1.007c-2.04,0-4.049-0.041-6.025-0.109
					c-0.475-0.014-0.939-0.041-1.406-0.057c-2.018-0.096-3.994-0.234-5.922-0.4c-0.476-0.041-0.949-0.082-1.416-0.123
					c-1.334-0.123-2.636-0.275-3.913-0.428c-0.474-0.068-0.939-0.125-1.407-0.193c-1.623-0.219-3.205-0.469-4.724-0.744
					c-0.476-0.084-0.941-0.166-1.398-0.264c-1.326-0.246-2.597-0.523-3.826-0.826c-0.474-0.111-0.94-0.221-1.397-0.346
					c-1.526-0.387-2.966-0.801-4.324-1.254c-0.482-0.152-0.946-0.318-1.405-0.484c-1.431-0.51-2.74-1.047-3.913-1.629
					c-0.499-0.234-0.967-0.48-1.415-0.73c-1.173-0.648-2.178-1.324-3.005-2.027c-0.555-0.469-1.028-0.953-1.414-1.436
					c-0.852-1.076-1.304-2.193-1.304-3.338c0,2.613,0,5.238,0,6.98c0,1.146,0.452,2.262,1.304,3.338
					c0.386,0.484,0.859,0.967,1.414,1.436c0.827,0.705,1.832,1.379,3.005,2.027c0.448,0.25,0.916,0.498,1.415,0.732
					c1.173,0.58,2.482,1.117,3.913,1.627c0.459,0.166,0.923,0.332,1.405,0.484c1.358,0.455,2.798,0.867,4.324,1.256
					c0.457,0.123,0.924,0.232,1.397,0.344c1.229,0.303,2.5,0.58,3.826,0.828c0.457,0.098,0.923,0.18,1.398,0.262
					c1.519,0.275,3.101,0.523,4.724,0.744c0.468,0.07,0.934,0.125,1.407,0.193c1.277,0.152,2.579,0.305,3.913,0.428
					c0.467,0.041,0.94,0.084,1.416,0.125c1.928,0.166,3.904,0.303,5.922,0.4c0.467,0.014,0.932,0.041,1.406,0.055
					c1.977,0.07,3.985,0.111,6.025,0.111h1.007c0.473,0,0.938-0.016,1.404-0.016c2.188-0.039,4.332-0.109,6.43-0.221
					c0.474-0.027,0.94-0.055,1.407-0.096c1.678-0.109,3.317-0.234,4.926-0.4c0.464-0.041,0.932-0.096,1.397-0.137
					c2.411-0.264,4.725-0.594,6.935-0.951c0.475-0.084,0.947-0.168,1.407-0.25c2.698-0.482,5.214-1.049,7.537-1.668
					c0.475-0.141,0.939-0.277,1.397-0.416c2.113-0.607,4.034-1.281,5.729-2.014c0.491-0.207,0.957-0.428,1.406-0.635
					c1.391-0.676,2.605-1.379,3.616-2.109c0.523-0.389,0.998-0.775,1.407-1.158c1.438-1.367,2.21-2.816,2.21-4.32v-6.98
					C475.106,416.843,474.334,418.292,472.896,419.657z"/>
			</g>
			<g>
				<path fill="#FDC400" d="M480.298,387.343v15.796c0,1.504-0.771,2.951-2.209,4.318c-0.41,0.387-0.885,0.771-1.407,1.158
					c-1.012,0.73-2.226,1.436-3.616,2.111c-0.449,0.207-0.917,0.428-1.406,0.635c-1.695,0.73-3.616,1.406-5.729,2.014
					c-0.458,0.139-0.923,0.277-1.397,0.414c-2.322,0.621-4.839,1.186-7.538,1.67c-0.459,0.082-0.932,0.166-1.406,0.248
					c-2.21,0.357-4.523,0.689-6.934,0.951c-0.468,0.041-0.934,0.098-1.399,0.139c-1.608,0.164-3.248,0.289-4.928,0.4
					c-0.464,0.041-0.931,0.068-1.404,0.096c-2.098,0.111-4.242,0.18-6.43,0.221c-0.467,0-0.933,0.014-1.405,0.014h-1.005
					c-2.041,0-4.05-0.041-6.027-0.109c-0.474-0.014-0.939-0.043-1.406-0.055c-2.017-0.098-3.993-0.236-5.923-0.402
					c-0.474-0.039-0.948-0.082-1.414-0.123c-1.334-0.125-2.636-0.277-3.913-0.428c-0.473-0.068-0.941-0.125-1.408-0.193
					c-1.622-0.221-3.204-0.469-4.724-0.746c-0.474-0.082-0.94-0.164-1.398-0.262c-1.326-0.248-2.596-0.523-3.826-0.826
					c-0.473-0.111-0.938-0.221-1.396-0.346c-1.528-0.385-2.968-0.799-4.324-1.256c-0.483-0.15-0.948-0.316-1.405-0.48
					c-1.433-0.514-2.741-1.051-3.915-1.631c-0.498-0.234-0.965-0.482-1.414-0.73c-1.174-0.648-2.179-1.324-3.005-2.027
					c-0.557-0.469-1.028-0.953-1.413-1.436c-0.854-1.076-1.305-2.193-1.305-3.338c0-4.692,0-15.796,0-15.796H480.298z"/>
				<ellipse fill="#FFDE00" cx="432.082" cy="387.349" rx="48.216" ry="12.748"/>
				<ellipse fill="#FFD000" cx="432.083" cy="385.654" rx="39.576" ry="8.767"/>
				<path fill="#F8AB08" d="M393.714,387.808c4.338-3.801,19.869-6.613,38.369-6.613c18.501,0,34.029,2.812,38.369,6.613
					c0.785-0.689,1.207-1.411,1.207-2.154c0-4.844-17.718-8.77-39.576-8.77s-39.576,3.925-39.576,8.77
					C392.507,386.397,392.928,387.119,393.714,387.808z"/>
				<g>
					<path fill="#F8AB08" d="M386.584,394.42v13.493c-0.557-0.469-1.028-0.953-1.413-1.436V394.42H386.584z"/>
					<path fill="#F8AB08" d="M391.003,398.379v12.292c-0.498-0.234-0.965-0.482-1.414-0.73v-11.561H391.003z"/>
					<path fill="#F8AB08" d="M396.323,400.806v11.976c-0.483-0.15-0.948-0.316-1.405-0.48v-11.496H396.323z"/>
					<path fill="#F8AB08" d="M402.043,402.437v11.947c-0.473-0.111-0.938-0.221-1.396-0.346v-11.602H402.043z"/>
					<path fill="#F8AB08" d="M407.268,403.995v11.477c-0.474-0.082-0.94-0.164-1.398-0.262v-11.215H407.268z"/>
					<path fill="#F8AB08" d="M413.399,405.03v11.381c-0.473-0.068-0.941-0.125-1.408-0.193V405.03H413.399z"/>
					<path fill="#F8AB08" d="M418.727,405.03v11.932c-0.474-0.039-0.948-0.082-1.414-0.123V405.03H418.727z"/>
					<path fill="#F8AB08" d="M426.056,405.03v12.389c-0.474-0.014-0.939-0.043-1.406-0.055V405.03H426.056z"/>
					<path fill="#F8AB08" d="M434.493,403.995v13.52c-0.467,0-0.933,0.014-1.405,0.014v-13.533H434.493z"/>
					<path fill="#F8AB08" d="M442.327,402.437v14.762c-0.464,0.041-0.931,0.068-1.404,0.096v-14.857H442.327z"/>
					<path fill="#F8AB08" d="M448.654,402.437v14.223c-0.468,0.041-0.934,0.098-1.399,0.139v-14.361H448.654z"/>
					<path fill="#F8AB08" d="M456.994,400.806v14.654c-0.459,0.082-0.932,0.166-1.406,0.248v-14.902H456.994z"/>
					<path fill="#F8AB08" d="M465.93,399.25v14.126c-0.458,0.139-0.923,0.277-1.397,0.414V399.25H465.93z"/>
					<path fill="#F8AB08" d="M473.065,395.455v15.273c-0.449,0.207-0.917,0.428-1.406,0.635v-15.908H473.065z"/>
					<path fill="#F8AB08" d="M478.089,392.861v14.597c-0.41,0.387-0.885,0.771-1.407,1.158v-15.755H478.089z"/>
				</g>
				<path fill="#EBDEDE" d="M478.089,400.477c-0.41,0.386-0.885,0.771-1.407,1.159c-1.012,0.73-2.226,1.434-3.616,2.111
					c-0.449,0.207-0.917,0.426-1.406,0.635c-1.695,0.73-3.616,1.404-5.729,2.014c-0.458,0.137-0.923,0.275-1.397,0.414
					c-2.322,0.621-4.839,1.186-7.538,1.668c-0.459,0.084-0.932,0.166-1.406,0.25c-2.21,0.357-4.523,0.689-6.934,0.951
					c-0.468,0.041-0.934,0.098-1.399,0.139c-1.608,0.164-3.248,0.289-4.928,0.398c-0.464,0.043-0.931,0.07-1.404,0.098
					c-2.098,0.109-4.242,0.178-6.43,0.221c-0.467,0-0.933,0.014-1.405,0.014h-1.005c-2.041,0-4.05-0.041-6.027-0.111
					c-0.474-0.014-0.939-0.041-1.406-0.055c-2.017-0.096-3.993-0.234-5.923-0.4c-0.474-0.041-0.948-0.084-1.414-0.123
					c-1.334-0.123-2.636-0.277-3.913-0.43c-0.473-0.068-0.941-0.123-1.408-0.191c-1.622-0.221-3.204-0.469-4.724-0.746
					c-0.474-0.08-0.94-0.164-1.398-0.262c-1.326-0.248-2.596-0.523-3.826-0.826c-0.473-0.111-0.938-0.223-1.396-0.346
					c-1.528-0.387-2.968-0.801-4.324-1.256c-0.483-0.15-0.948-0.316-1.405-0.482c-1.433-0.51-2.741-1.049-3.915-1.629
					c-0.498-0.234-0.965-0.482-1.414-0.73c-1.174-0.648-2.179-1.324-3.005-2.029c-0.557-0.469-1.028-0.951-1.413-1.434
					c-0.854-1.076-1.305-2.194-1.305-3.34c0,2.614,0,5.24,0,6.982c0,1.145,0.451,2.262,1.305,3.338
					c0.385,0.482,0.856,0.967,1.413,1.436c0.826,0.703,1.831,1.379,3.005,2.027c0.449,0.248,0.916,0.496,1.414,0.73
					c1.174,0.58,2.482,1.117,3.915,1.631c0.457,0.164,0.922,0.33,1.405,0.48c1.356,0.457,2.796,0.871,4.324,1.256
					c0.457,0.125,0.923,0.234,1.396,0.346c1.23,0.303,2.5,0.578,3.826,0.826c0.458,0.098,0.925,0.18,1.398,0.262
					c1.52,0.277,3.102,0.525,4.724,0.746c0.467,0.068,0.936,0.125,1.408,0.193c1.277,0.15,2.579,0.303,3.913,0.428
					c0.466,0.041,0.94,0.084,1.414,0.123c1.93,0.166,3.906,0.305,5.923,0.402c0.467,0.012,0.933,0.041,1.406,0.055
					c1.978,0.068,3.986,0.109,6.027,0.109h1.005c0.473,0,0.938-0.014,1.405-0.014c2.188-0.041,4.332-0.109,6.43-0.221
					c0.474-0.027,0.94-0.055,1.404-0.096c1.68-0.111,3.319-0.236,4.928-0.4c0.466-0.041,0.932-0.098,1.399-0.139
					c2.41-0.262,4.724-0.594,6.934-0.951c0.475-0.082,0.947-0.166,1.406-0.248c2.699-0.484,5.216-1.049,7.538-1.67
					c0.475-0.137,0.939-0.275,1.397-0.414c2.113-0.607,4.034-1.283,5.729-2.014c0.489-0.207,0.957-0.428,1.406-0.635
					c1.391-0.676,2.604-1.381,3.616-2.111c0.522-0.387,0.997-0.771,1.407-1.158c1.438-1.367,2.209-2.814,2.209-4.318v-6.982
					C480.298,397.663,479.526,399.11,478.089,400.477z"/>
			</g>
		</g>
	</g>
	<g>
		<g>
			<g>
				<path fill="#FDC400" d="M478.187,364.519v15.796c0,1.504-0.772,2.953-2.21,4.318c-0.41,0.386-0.884,0.772-1.408,1.159
					c-1.01,0.731-2.225,1.435-3.616,2.11c-0.449,0.207-0.915,0.428-1.405,0.635c-1.696,0.731-3.617,1.406-5.73,2.015
					c-0.458,0.137-0.923,0.276-1.397,0.413c-2.323,0.621-4.839,1.187-7.537,1.67c-0.459,0.083-0.933,0.166-1.406,0.248
					c-2.211,0.359-4.524,0.69-6.935,0.952c-0.466,0.041-0.935,0.097-1.398,0.139c-1.607,0.165-3.248,0.29-4.926,0.399
					c-0.466,0.041-0.933,0.069-1.407,0.096c-2.098,0.112-4.242,0.18-6.429,0.222c-0.466,0-0.933,0.014-1.405,0.014h-1.006
					c-2.041,0-4.05-0.04-6.026-0.11c-0.475-0.013-0.94-0.042-1.406-0.055c-2.017-0.097-3.993-0.234-5.922-0.4
					c-0.476-0.041-0.949-0.083-1.416-0.124c-1.333-0.125-2.636-0.276-3.912-0.428c-0.474-0.069-0.94-0.125-1.408-0.194
					c-1.622-0.22-3.205-0.468-4.724-0.745c-0.475-0.081-0.94-0.163-1.398-0.263c-1.325-0.247-2.596-0.523-3.826-0.825
					c-0.473-0.111-0.939-0.222-1.397-0.345c-1.525-0.387-2.966-0.801-4.323-1.256c-0.482-0.152-0.947-0.317-1.406-0.483
					c-1.43-0.51-2.74-1.049-3.912-1.629c-0.5-0.233-0.966-0.482-1.414-0.73c-1.176-0.648-2.178-1.324-3.007-2.027
					c-0.555-0.47-1.028-0.952-1.413-1.435c-0.853-1.076-1.305-2.194-1.305-3.339c0-4.69,0-15.796,0-15.796H478.187z"/>
				<ellipse fill="#FFDE00" cx="429.97" cy="364.525" rx="48.217" ry="12.747"/>
				<ellipse fill="#FFD000" cx="429.97" cy="362.829" rx="39.577" ry="8.768"/>
				<path fill="#F8AB08" d="M391.601,364.985c4.339-3.801,19.87-6.614,38.369-6.614c18.5,0,34.031,2.813,38.369,6.614
					c0.786-0.69,1.208-1.413,1.208-2.157c0-4.843-17.719-8.769-39.577-8.769s-39.576,3.925-39.576,8.769
					C390.394,363.573,390.814,364.295,391.601,364.985z"/>
				<g>
					<path fill="#F8AB08" d="M384.471,371.596v13.493c-0.555-0.47-1.028-0.952-1.413-1.435v-12.058H384.471z"/>
					<path fill="#F8AB08" d="M388.892,375.556v12.291c-0.5-0.233-0.966-0.482-1.414-0.73v-11.561H388.892z"/>
					<path fill="#F8AB08" d="M394.21,377.984v11.975c-0.482-0.152-0.947-0.317-1.406-0.483v-11.492H394.21z"/>
					<path fill="#F8AB08" d="M399.931,379.612v11.948c-0.473-0.111-0.939-0.222-1.397-0.345v-11.603H399.931z"/>
					<path fill="#F8AB08" d="M405.155,381.17v11.478c-0.475-0.081-0.94-0.163-1.398-0.263V381.17H405.155z"/>
					<path fill="#F8AB08" d="M411.287,382.206v11.382c-0.474-0.069-0.94-0.125-1.408-0.194v-11.188H411.287z"/>
					<path fill="#F8AB08" d="M416.615,382.206v11.934c-0.476-0.041-0.949-0.083-1.416-0.124v-11.81H416.615z"/>
					<path fill="#F8AB08" d="M423.943,382.206v12.389c-0.475-0.013-0.94-0.042-1.406-0.055v-12.334H423.943z"/>
					<path fill="#F8AB08" d="M432.381,381.17v13.521c-0.466,0-0.933,0.014-1.405,0.014V381.17H432.381z"/>
					<path fill="#F8AB08" d="M440.217,379.612v14.761c-0.466,0.041-0.933,0.069-1.407,0.096v-14.857H440.217z"/>
					<path fill="#F8AB08" d="M446.541,379.612v14.223c-0.466,0.041-0.935,0.097-1.398,0.139v-14.362H446.541z"/>
					<path fill="#F8AB08" d="M454.882,377.984v14.651c-0.459,0.083-0.933,0.166-1.406,0.248v-14.899H454.882z"/>
					<path fill="#F8AB08" d="M463.816,376.425v14.127c-0.458,0.137-0.923,0.276-1.397,0.413v-14.54H463.816z"/>
					<path fill="#F8AB08" d="M470.952,372.631v15.271c-0.449,0.207-0.915,0.428-1.405,0.635v-15.906H470.952z"/>
					<path fill="#F8AB08" d="M475.977,370.037v14.596c-0.41,0.386-0.884,0.772-1.408,1.159v-15.755H475.977z"/>
				</g>
				<path fill="#EBDEDE" d="M475.977,377.653c-0.41,0.386-0.884,0.771-1.408,1.158c-1.01,0.732-2.225,1.435-3.616,2.111
					c-0.449,0.208-0.915,0.427-1.405,0.634c-1.696,0.731-3.617,1.408-5.73,2.015c-0.458,0.137-0.923,0.276-1.397,0.415
					c-2.323,0.62-4.839,1.186-7.537,1.668c-0.459,0.083-0.933,0.165-1.406,0.249c-2.211,0.357-4.524,0.689-6.935,0.951
					c-0.466,0.041-0.935,0.097-1.398,0.138c-1.607,0.164-3.248,0.29-4.926,0.4c-0.466,0.041-0.933,0.069-1.407,0.097
					c-2.098,0.11-4.242,0.18-6.429,0.221c-0.466,0-0.933,0.014-1.405,0.014h-1.006c-2.041,0-4.05-0.041-6.026-0.11
					c-0.475-0.014-0.94-0.041-1.406-0.056c-2.017-0.096-3.993-0.235-5.922-0.401c-0.476-0.04-0.949-0.081-1.416-0.122
					c-1.333-0.125-2.636-0.276-3.912-0.428c-0.474-0.069-0.94-0.125-1.408-0.195c-1.622-0.219-3.205-0.468-4.724-0.743
					c-0.475-0.082-0.94-0.166-1.398-0.263c-1.325-0.247-2.596-0.524-3.826-0.827c-0.473-0.111-0.939-0.221-1.397-0.345
					c-1.525-0.387-2.966-0.801-4.323-1.255c-0.482-0.152-0.947-0.318-1.406-0.483c-1.43-0.51-2.74-1.048-3.912-1.628
					c-0.5-0.234-0.966-0.482-1.414-0.73c-1.176-0.649-2.178-1.325-3.007-2.028c-0.555-0.47-1.028-0.952-1.413-1.435
					c-0.853-1.076-1.305-2.194-1.305-3.339c0,2.614,0,5.24,0,6.981c0,1.145,0.452,2.263,1.305,3.339
					c0.385,0.483,0.858,0.965,1.413,1.435c0.829,0.703,1.831,1.379,3.007,2.027c0.448,0.248,0.914,0.497,1.414,0.73
					c1.172,0.58,2.482,1.119,3.912,1.629c0.459,0.166,0.924,0.331,1.406,0.483c1.357,0.455,2.798,0.869,4.323,1.256
					c0.458,0.123,0.925,0.233,1.397,0.345c1.23,0.302,2.501,0.578,3.826,0.825c0.458,0.1,0.924,0.182,1.398,0.263
					c1.519,0.277,3.102,0.525,4.724,0.745c0.468,0.069,0.935,0.125,1.408,0.194c1.276,0.151,2.579,0.303,3.912,0.428
					c0.467,0.041,0.94,0.083,1.416,0.124c1.929,0.166,3.905,0.304,5.922,0.4c0.466,0.013,0.932,0.042,1.406,0.055
					c1.977,0.07,3.985,0.11,6.026,0.11h1.006c0.473,0,0.939-0.014,1.405-0.014c2.187-0.042,4.331-0.109,6.429-0.222
					c0.475-0.026,0.941-0.055,1.407-0.096c1.678-0.109,3.318-0.234,4.926-0.399c0.464-0.042,0.933-0.098,1.398-0.139
					c2.41-0.262,4.724-0.593,6.935-0.952c0.474-0.082,0.947-0.165,1.406-0.248c2.698-0.483,5.214-1.049,7.537-1.67
					c0.475-0.137,0.939-0.276,1.397-0.413c2.113-0.608,4.034-1.283,5.73-2.015c0.49-0.207,0.956-0.428,1.405-0.635
					c1.392-0.676,2.606-1.379,3.616-2.11c0.524-0.387,0.998-0.773,1.408-1.159c1.438-1.365,2.21-2.814,2.21-4.318v-6.981
					C478.187,374.838,477.414,376.287,475.977,377.653z"/>
			</g>
			<g>
				<path fill="#FDC400" d="M474.031,345.339v15.796c0,1.503-0.77,2.952-2.209,4.317c-0.41,0.387-0.884,0.772-1.407,1.159
					c-1.012,0.73-2.227,1.435-3.615,2.111c-0.449,0.207-0.916,0.427-1.406,0.634c-1.695,0.731-3.616,1.407-5.729,2.015
					c-0.46,0.138-0.926,0.275-1.399,0.414c-2.321,0.621-4.837,1.186-7.537,1.668c-0.458,0.083-0.934,0.166-1.407,0.249
					c-2.209,0.358-4.523,0.69-6.936,0.952c-0.466,0.041-0.931,0.097-1.397,0.138c-1.607,0.166-3.247,0.29-4.927,0.4
					c-0.466,0.041-0.932,0.07-1.406,0.097c-2.096,0.11-4.243,0.179-6.429,0.221c-0.466,0-0.933,0.015-1.406,0.015h-1.004
					c-2.042,0-4.05-0.042-6.027-0.112c-0.474-0.013-0.938-0.041-1.406-0.055c-2.017-0.096-3.992-0.234-5.922-0.4
					c-0.474-0.041-0.948-0.083-1.415-0.124c-1.334-0.124-2.635-0.276-3.912-0.428c-0.475-0.068-0.941-0.124-1.407-0.193
					c-1.623-0.22-3.206-0.469-4.724-0.746c-0.476-0.082-0.941-0.165-1.4-0.262c-1.325-0.247-2.595-0.523-3.823-0.828
					c-0.475-0.11-0.941-0.22-1.399-0.344c-1.527-0.387-2.966-0.8-4.324-1.256c-0.482-0.151-0.947-0.317-1.405-0.483
					c-1.432-0.51-2.74-1.048-3.913-1.628c-0.5-0.234-0.965-0.482-1.414-0.731c-1.176-0.648-2.179-1.324-3.007-2.028
					c-0.554-0.469-1.028-0.952-1.413-1.434c-0.853-1.077-1.303-2.194-1.303-3.338c0-4.691,0-15.796,0-15.796H474.031z"/>
				<ellipse fill="#FFDE00" cx="425.816" cy="345.345" rx="48.215" ry="12.747"/>
				<ellipse fill="#FFD000" cx="425.816" cy="343.649" rx="39.577" ry="8.767"/>
				<path fill="#F8AB08" d="M387.448,345.804c4.336-3.8,19.868-6.613,38.368-6.613c18.501,0,34.032,2.813,38.367,6.613
					c0.788-0.689,1.21-1.412,1.21-2.155c0-4.844-17.72-8.771-39.577-8.771c-21.858,0-39.577,3.927-39.577,8.771
					C386.239,344.392,386.66,345.115,387.448,345.804z"/>
				<g>
					<path fill="#F8AB08" d="M380.316,352.416v13.492c-0.554-0.469-1.028-0.952-1.413-1.434v-12.058H380.316z"/>
					<path fill="#F8AB08" d="M384.737,356.375v12.292c-0.5-0.234-0.965-0.482-1.414-0.731v-11.561H384.737z"/>
					<path fill="#F8AB08" d="M390.056,358.803v11.975c-0.482-0.151-0.947-0.317-1.405-0.483v-11.492H390.056z"/>
					<path fill="#F8AB08" d="M395.779,360.431v11.947c-0.475-0.11-0.941-0.22-1.399-0.344v-11.603H395.779z"/>
					<path fill="#F8AB08" d="M401.003,361.99v11.478c-0.476-0.082-0.941-0.165-1.4-0.262V361.99H401.003z"/>
					<path fill="#F8AB08" d="M407.134,363.025v11.382c-0.475-0.068-0.941-0.124-1.407-0.193v-11.188H407.134z"/>
					<path fill="#F8AB08" d="M412.461,363.025v11.934c-0.474-0.041-0.948-0.083-1.415-0.124v-11.81H412.461z"/>
					<path fill="#F8AB08" d="M419.789,363.025v12.389c-0.474-0.013-0.938-0.041-1.406-0.055v-12.334H419.789z"/>
					<path fill="#F8AB08" d="M428.227,361.99v13.521c-0.466,0-0.933,0.015-1.406,0.015V361.99H428.227z"/>
					<path fill="#F8AB08" d="M436.062,360.431v14.762c-0.466,0.041-0.932,0.07-1.406,0.097v-14.859H436.062z"/>
					<path fill="#F8AB08" d="M442.386,360.431v14.224c-0.466,0.041-0.931,0.097-1.397,0.138v-14.362H442.386z"/>
					<path fill="#F8AB08" d="M450.729,358.803v14.651c-0.458,0.083-0.934,0.166-1.407,0.249v-14.9H450.729z"/>
					<path fill="#F8AB08" d="M459.665,357.245v14.127c-0.46,0.138-0.926,0.275-1.399,0.414v-14.541H459.665z"/>
					<path fill="#F8AB08" d="M466.8,353.45v15.273c-0.449,0.207-0.916,0.427-1.406,0.634V353.45H466.8z"/>
					<path fill="#F8AB08" d="M471.822,350.857v14.596c-0.41,0.387-0.884,0.772-1.407,1.159v-15.755H471.822z"/>
				</g>
				<path fill="#EBDEDE" d="M471.822,358.473c-0.41,0.386-0.884,0.771-1.407,1.159c-1.012,0.731-2.227,1.435-3.615,2.11
					c-0.449,0.208-0.916,0.428-1.406,0.634c-1.695,0.732-3.616,1.408-5.729,2.016c-0.46,0.137-0.926,0.275-1.399,0.414
					c-2.321,0.621-4.837,1.186-7.537,1.669c-0.458,0.082-0.934,0.166-1.407,0.248c-2.209,0.358-4.523,0.69-6.936,0.952
					c-0.466,0.042-0.931,0.096-1.397,0.138c-1.607,0.166-3.247,0.29-4.927,0.399c-0.466,0.042-0.932,0.07-1.406,0.097
					c-2.096,0.11-4.243,0.18-6.429,0.222c-0.466,0-0.933,0.014-1.406,0.014h-1.004c-2.042,0-4.05-0.042-6.027-0.11
					c-0.474-0.015-0.938-0.042-1.406-0.056c-2.017-0.096-3.992-0.235-5.922-0.4c-0.474-0.042-0.948-0.083-1.415-0.125
					c-1.334-0.124-2.635-0.276-3.912-0.427c-0.475-0.069-0.941-0.125-1.407-0.194c-1.623-0.22-3.206-0.469-4.724-0.745
					c-0.476-0.082-0.941-0.166-1.4-0.262c-1.325-0.248-2.595-0.524-3.823-0.827c-0.475-0.111-0.941-0.221-1.399-0.345
					c-1.527-0.387-2.966-0.8-4.324-1.255c-0.482-0.151-0.947-0.317-1.405-0.482c-1.432-0.511-2.74-1.049-3.913-1.629
					c-0.5-0.234-0.965-0.482-1.414-0.73c-1.176-0.649-2.179-1.325-3.007-2.028c-0.554-0.469-1.028-0.953-1.413-1.434
					c-0.853-1.076-1.303-2.194-1.303-3.339c0,2.613,0,5.239,0,6.981c0,1.145,0.45,2.262,1.303,3.338
					c0.385,0.482,0.859,0.965,1.413,1.434c0.828,0.704,1.831,1.38,3.007,2.028c0.449,0.249,0.914,0.497,1.414,0.731
					c1.173,0.58,2.481,1.118,3.913,1.628c0.458,0.166,0.923,0.332,1.405,0.483c1.358,0.456,2.797,0.869,4.324,1.256
					c0.458,0.125,0.925,0.234,1.399,0.344c1.229,0.304,2.498,0.581,3.823,0.828c0.459,0.097,0.925,0.18,1.4,0.262
					c1.518,0.277,3.101,0.526,4.724,0.746c0.466,0.069,0.933,0.125,1.407,0.193c1.277,0.152,2.578,0.304,3.912,0.428
					c0.467,0.042,0.941,0.083,1.415,0.124c1.93,0.166,3.905,0.305,5.922,0.4c0.468,0.014,0.933,0.042,1.406,0.055
					c1.978,0.069,3.985,0.112,6.027,0.112h1.004c0.474,0,0.94-0.015,1.406-0.015c2.186-0.042,4.333-0.11,6.429-0.221
					c0.475-0.027,0.94-0.056,1.406-0.097c1.68-0.11,3.319-0.234,4.927-0.4c0.467-0.041,0.932-0.097,1.397-0.138
					c2.412-0.262,4.727-0.594,6.936-0.952c0.474-0.083,0.949-0.166,1.407-0.249c2.7-0.483,5.216-1.047,7.537-1.668
					c0.474-0.139,0.939-0.276,1.399-0.414c2.112-0.608,4.033-1.284,5.729-2.015c0.49-0.207,0.957-0.427,1.406-0.634
					c1.389-0.676,2.604-1.38,3.615-2.111c0.523-0.387,0.997-0.772,1.407-1.159c1.439-1.366,2.209-2.814,2.209-4.317v-6.981
					C474.031,355.659,473.262,357.106,471.822,358.473z"/>
			</g>
			<g>
				<path fill="#FDC400" d="M478.187,325.201v15.795c0,1.504-0.772,2.952-2.21,4.32c-0.41,0.385-0.884,0.771-1.408,1.158
					c-1.01,0.731-2.225,1.434-3.616,2.11c-0.449,0.208-0.915,0.428-1.405,0.635c-1.696,0.731-3.617,1.407-5.73,2.014
					c-0.458,0.138-0.923,0.276-1.397,0.414c-2.323,0.621-4.839,1.186-7.537,1.669c-0.459,0.083-0.933,0.167-1.406,0.25
					c-2.211,0.358-4.524,0.689-6.935,0.951c-0.466,0.041-0.935,0.097-1.398,0.139c-1.607,0.164-3.248,0.289-4.926,0.399
					c-0.466,0.042-0.933,0.07-1.407,0.097c-2.098,0.11-4.242,0.179-6.429,0.221c-0.466,0-0.933,0.014-1.405,0.014h-1.006
					c-2.041,0-4.05-0.041-6.026-0.11c-0.475-0.014-0.94-0.041-1.406-0.056c-2.017-0.096-3.993-0.234-5.922-0.401
					c-0.476-0.041-0.949-0.082-1.416-0.124c-1.333-0.124-2.636-0.275-3.912-0.428c-0.474-0.068-0.94-0.124-1.408-0.193
					c-1.622-0.221-3.205-0.469-4.724-0.745c-0.475-0.082-0.94-0.165-1.398-0.262c-1.325-0.248-2.596-0.524-3.826-0.827
					c-0.473-0.111-0.939-0.222-1.397-0.345c-1.525-0.387-2.966-0.801-4.323-1.256c-0.482-0.152-0.947-0.318-1.406-0.483
					c-1.43-0.51-2.74-1.048-3.912-1.628c-0.5-0.234-0.966-0.482-1.414-0.731c-1.176-0.649-2.178-1.324-3.007-2.028
					c-0.555-0.469-1.028-0.952-1.413-1.435c-0.853-1.077-1.305-2.194-1.305-3.339c0-4.69,0-15.795,0-15.795H478.187z"/>
				<ellipse fill="#FFDE00" cx="429.97" cy="325.207" rx="48.217" ry="12.748"/>
				<ellipse fill="#FFD000" cx="429.97" cy="323.51" rx="39.577" ry="8.768"/>
				<path fill="#F8AB08" d="M391.601,325.666c4.339-3.8,19.87-6.613,38.369-6.613c18.5,0,34.031,2.813,38.369,6.613
					c0.786-0.69,1.208-1.413,1.208-2.156c0-4.843-17.719-8.768-39.577-8.768s-39.576,3.925-39.576,8.768
					C390.394,324.253,390.814,324.976,391.601,325.666z"/>
				<g>
					<path fill="#F8AB08" d="M384.471,332.278v13.492c-0.555-0.469-1.028-0.952-1.413-1.435v-12.058H384.471z"/>
					<path fill="#F8AB08" d="M388.892,336.237v12.292c-0.5-0.234-0.966-0.482-1.414-0.731v-11.561H388.892z"/>
					<path fill="#F8AB08" d="M394.21,338.665v11.976c-0.482-0.152-0.947-0.318-1.406-0.483v-11.492H394.21z"/>
					<path fill="#F8AB08" d="M399.931,340.292v11.949c-0.473-0.111-0.939-0.222-1.397-0.345v-11.604H399.931z"/>
					<path fill="#F8AB08" d="M405.155,341.852v11.479c-0.475-0.082-0.94-0.165-1.398-0.262v-11.217H405.155z"/>
					<path fill="#F8AB08" d="M411.287,342.887v11.381c-0.474-0.068-0.94-0.124-1.408-0.193v-11.188H411.287z"/>
					<path fill="#F8AB08" d="M416.615,342.887v11.933c-0.476-0.041-0.949-0.082-1.416-0.124v-11.809H416.615z"/>
					<path fill="#F8AB08" d="M423.943,342.887v12.389c-0.475-0.014-0.94-0.041-1.406-0.056v-12.333H423.943z"/>
					<path fill="#F8AB08" d="M432.381,341.852v13.521c-0.466,0-0.933,0.014-1.405,0.014v-13.535H432.381z"/>
					<path fill="#F8AB08" d="M440.217,340.292v14.762c-0.466,0.042-0.933,0.07-1.407,0.097v-14.859H440.217z"/>
					<path fill="#F8AB08" d="M446.541,340.292v14.225c-0.466,0.041-0.935,0.097-1.398,0.139v-14.363H446.541z"/>
					<path fill="#F8AB08" d="M454.882,338.665v14.651c-0.459,0.083-0.933,0.167-1.406,0.25v-14.901H454.882z"/>
					<path fill="#F8AB08" d="M463.816,337.106v14.127c-0.458,0.138-0.923,0.276-1.397,0.414v-14.542H463.816z"/>
					<path fill="#F8AB08" d="M470.952,333.313v15.272c-0.449,0.208-0.915,0.428-1.405,0.635v-15.907H470.952z"/>
					<path fill="#F8AB08" d="M475.977,330.719v14.597c-0.41,0.385-0.884,0.771-1.408,1.158v-15.755H475.977z"/>
				</g>
				<path fill="#EBDEDE" d="M475.977,338.334c-0.41,0.385-0.884,0.772-1.408,1.159c-1.01,0.731-2.225,1.435-3.616,2.11
					c-0.449,0.208-0.915,0.428-1.405,0.635c-1.696,0.731-3.617,1.407-5.73,2.014c-0.458,0.138-0.923,0.275-1.397,0.414
					c-2.323,0.621-4.839,1.187-7.537,1.67c-0.459,0.083-0.933,0.166-1.406,0.248c-2.211,0.358-4.524,0.689-6.935,0.952
					c-0.466,0.041-0.935,0.096-1.398,0.139c-1.607,0.165-3.248,0.289-4.926,0.399c-0.466,0.042-0.933,0.069-1.407,0.097
					c-2.098,0.111-4.242,0.18-6.429,0.221c-0.466,0-0.933,0.014-1.405,0.014h-1.006c-2.041,0-4.05-0.041-6.026-0.11
					c-0.475-0.014-0.94-0.042-1.406-0.056c-2.017-0.096-3.993-0.233-5.922-0.399c-0.476-0.042-0.949-0.084-1.416-0.125
					c-1.333-0.124-2.636-0.276-3.912-0.427c-0.474-0.069-0.94-0.125-1.408-0.194c-1.622-0.22-3.205-0.469-4.724-0.745
					c-0.475-0.082-0.94-0.164-1.398-0.262c-1.325-0.248-2.596-0.524-3.826-0.827c-0.473-0.11-0.939-0.221-1.397-0.345
					c-1.525-0.387-2.966-0.8-4.323-1.255c-0.482-0.153-0.947-0.317-1.406-0.483c-1.43-0.511-2.74-1.048-3.912-1.628
					c-0.5-0.234-0.966-0.482-1.414-0.73c-1.176-0.649-2.178-1.324-3.007-2.028c-0.555-0.469-1.028-0.953-1.413-1.436
					c-0.853-1.076-1.305-2.192-1.305-3.339c0,2.614,0,5.24,0,6.981c0,1.146,0.452,2.263,1.305,3.339
					c0.385,0.482,0.858,0.965,1.413,1.435c0.829,0.704,1.831,1.379,3.007,2.028c0.448,0.249,0.914,0.497,1.414,0.731
					c1.172,0.58,2.482,1.118,3.912,1.628c0.459,0.165,0.924,0.331,1.406,0.483c1.357,0.455,2.798,0.869,4.323,1.256
					c0.458,0.123,0.925,0.233,1.397,0.345c1.23,0.303,2.501,0.58,3.826,0.827c0.458,0.097,0.924,0.18,1.398,0.262
					c1.519,0.276,3.102,0.524,4.724,0.745c0.468,0.069,0.935,0.125,1.408,0.193c1.276,0.152,2.579,0.304,3.912,0.428
					c0.467,0.042,0.94,0.083,1.416,0.124c1.929,0.167,3.905,0.305,5.922,0.401c0.466,0.015,0.932,0.042,1.406,0.056
					c1.977,0.07,3.985,0.11,6.026,0.11h1.006c0.473,0,0.939-0.014,1.405-0.014c2.187-0.042,4.331-0.11,6.429-0.221
					c0.475-0.027,0.941-0.055,1.407-0.097c1.678-0.11,3.318-0.235,4.926-0.399c0.464-0.042,0.933-0.098,1.398-0.139
					c2.41-0.262,4.724-0.593,6.935-0.951c0.474-0.083,0.947-0.167,1.406-0.25c2.698-0.483,5.214-1.048,7.537-1.669
					c0.475-0.138,0.939-0.276,1.397-0.414c2.113-0.607,4.034-1.283,5.73-2.014c0.49-0.207,0.956-0.427,1.405-0.635
					c1.392-0.676,2.606-1.379,3.616-2.11c0.524-0.387,0.998-0.773,1.408-1.158c1.438-1.368,2.21-2.815,2.21-4.32v-6.981
					C478.187,335.52,477.414,336.969,475.977,338.334z"/>
			</g>
			<g>
				<path fill="#FDC400" d="M483.377,306.02v15.796c0,1.504-0.771,2.952-2.208,4.318c-0.411,0.387-0.886,0.772-1.407,1.159
					c-1.013,0.731-2.226,1.435-3.617,2.111c-0.45,0.208-0.917,0.428-1.405,0.634c-1.695,0.732-3.617,1.408-5.73,2.016
					c-0.458,0.137-0.924,0.275-1.398,0.414c-2.321,0.621-4.838,1.186-7.536,1.669c-0.459,0.083-0.933,0.166-1.407,0.249
					c-2.209,0.358-4.522,0.689-6.934,0.953c-0.467,0.041-0.934,0.096-1.399,0.138c-1.606,0.165-3.247,0.289-4.927,0.399
					c-0.465,0.042-0.932,0.069-1.404,0.097c-2.099,0.11-4.243,0.179-6.431,0.221c-0.466,0-0.932,0.014-1.405,0.014h-1.005
					c-2.041,0-4.049-0.041-6.027-0.111c-0.474-0.014-0.939-0.041-1.405-0.055c-2.018-0.096-3.994-0.234-5.922-0.4
					c-0.475-0.041-0.949-0.083-1.416-0.124c-1.334-0.124-2.636-0.277-3.913-0.428c-0.473-0.069-0.939-0.125-1.407-0.193
					c-1.623-0.22-3.205-0.469-4.725-0.746c-0.474-0.081-0.939-0.165-1.397-0.262c-1.327-0.248-2.597-0.524-3.826-0.826
					c-0.473-0.111-0.939-0.222-1.396-0.346c-1.528-0.386-2.968-0.8-4.324-1.255c-0.483-0.151-0.948-0.317-1.405-0.482
					c-1.432-0.512-2.74-1.049-3.914-1.629c-0.499-0.235-0.965-0.482-1.414-0.73c-1.175-0.648-2.179-1.325-3.006-2.029
					c-0.555-0.469-1.028-0.952-1.413-1.434c-0.853-1.076-1.305-2.195-1.305-3.339c0-4.691,0-15.796,0-15.796H483.377z"/>
				<ellipse fill="#FFDE00" cx="435.161" cy="306.026" rx="48.216" ry="12.748"/>
				<ellipse fill="#FFD000" cx="435.163" cy="304.33" rx="39.577" ry="8.767"/>
				<path fill="#F8AB08" d="M396.794,306.485c4.338-3.801,19.868-6.613,38.368-6.613c18.501,0,34.03,2.812,38.369,6.613
					c0.786-0.69,1.208-1.412,1.208-2.155c0-4.843-17.719-8.769-39.577-8.769s-39.576,3.926-39.576,8.769
					C395.586,305.074,396.008,305.795,396.794,306.485z"/>
				<g>
					<path fill="#F8AB08" d="M389.663,313.097v13.492c-0.555-0.469-1.028-0.952-1.413-1.434v-12.059H389.663z"/>
					<path fill="#F8AB08" d="M394.083,317.057v12.292c-0.499-0.235-0.965-0.482-1.414-0.73v-11.562H394.083z"/>
					<path fill="#F8AB08" d="M399.402,319.484v11.976c-0.483-0.151-0.948-0.317-1.405-0.482v-11.494H399.402z"/>
					<path fill="#F8AB08" d="M405.123,321.113v11.948c-0.473-0.111-0.939-0.222-1.396-0.346v-11.602H405.123z"/>
					<path fill="#F8AB08" d="M410.347,322.671v11.478c-0.474-0.081-0.939-0.165-1.397-0.262v-11.216H410.347z"/>
					<path fill="#F8AB08" d="M416.479,323.706v11.382c-0.473-0.069-0.939-0.125-1.407-0.193v-11.189H416.479z"/>
					<path fill="#F8AB08" d="M421.808,323.706v11.934c-0.475-0.041-0.949-0.083-1.416-0.124v-11.81H421.808z"/>
					<path fill="#F8AB08" d="M429.135,323.706v12.389c-0.474-0.014-0.939-0.041-1.405-0.055v-12.334H429.135z"/>
					<path fill="#F8AB08" d="M437.572,322.671v13.521c-0.466,0-0.932,0.014-1.405,0.014v-13.534H437.572z"/>
					<path fill="#F8AB08" d="M445.407,321.113v14.762c-0.465,0.042-0.932,0.069-1.404,0.097v-14.858H445.407z"/>
					<path fill="#F8AB08" d="M451.733,321.113v14.225c-0.467,0.041-0.934,0.096-1.399,0.138v-14.362H451.733z"/>
					<path fill="#F8AB08" d="M460.074,319.484v14.652c-0.459,0.083-0.933,0.166-1.407,0.249v-14.901H460.074z"/>
					<path fill="#F8AB08" d="M469.009,317.926v14.127c-0.458,0.137-0.924,0.275-1.398,0.414v-14.541H469.009z"/>
					<path fill="#F8AB08" d="M476.145,314.132v15.272c-0.45,0.208-0.917,0.428-1.405,0.634v-15.906H476.145z"/>
					<path fill="#F8AB08" d="M481.169,311.539v14.596c-0.411,0.387-0.886,0.772-1.407,1.159v-15.754H481.169z"/>
				</g>
				<path fill="#EBDEDE" d="M481.169,319.154c-0.411,0.386-0.886,0.772-1.407,1.158c-1.013,0.731-2.226,1.435-3.617,2.11
					c-0.45,0.208-0.917,0.428-1.405,0.636c-1.695,0.731-3.617,1.406-5.73,2.014c-0.458,0.137-0.924,0.276-1.398,0.414
					c-2.321,0.621-4.838,1.187-7.536,1.669c-0.459,0.083-0.933,0.166-1.407,0.249c-2.209,0.359-4.522,0.69-6.934,0.952
					c-0.467,0.041-0.934,0.096-1.399,0.138c-1.606,0.165-3.247,0.291-4.927,0.4c-0.465,0.041-0.932,0.068-1.404,0.096
					c-2.099,0.111-4.243,0.179-6.431,0.222c-0.466,0-0.932,0.014-1.405,0.014h-1.005c-2.041,0-4.049-0.042-6.027-0.111
					c-0.474-0.013-0.939-0.041-1.405-0.054c-2.018-0.097-3.994-0.235-5.922-0.401c-0.475-0.041-0.949-0.083-1.416-0.124
					c-1.334-0.124-2.636-0.277-3.913-0.428c-0.473-0.068-0.939-0.124-1.407-0.193c-1.623-0.22-3.205-0.468-4.725-0.745
					c-0.474-0.082-0.939-0.164-1.397-0.262c-1.327-0.248-2.597-0.524-3.826-0.827c-0.473-0.11-0.939-0.222-1.396-0.345
					c-1.528-0.386-2.968-0.8-4.324-1.256c-0.483-0.151-0.948-0.317-1.405-0.482c-1.432-0.51-2.74-1.048-3.914-1.628
					c-0.499-0.234-0.965-0.482-1.414-0.731c-1.175-0.648-2.179-1.325-3.006-2.029c-0.555-0.468-1.028-0.952-1.413-1.434
					c-0.853-1.076-1.305-2.194-1.305-3.339c0,2.614,0,5.239,0,6.981c0,1.145,0.452,2.263,1.305,3.339
					c0.385,0.481,0.858,0.964,1.413,1.434c0.827,0.704,1.831,1.38,3.006,2.029c0.449,0.248,0.915,0.496,1.414,0.73
					c1.174,0.58,2.482,1.117,3.914,1.629c0.457,0.166,0.922,0.331,1.405,0.482c1.356,0.455,2.796,0.869,4.324,1.255
					c0.457,0.125,0.924,0.235,1.396,0.346c1.229,0.302,2.499,0.579,3.826,0.826c0.458,0.097,0.924,0.181,1.397,0.262
					c1.52,0.277,3.102,0.526,4.725,0.746c0.468,0.068,0.935,0.124,1.407,0.193c1.277,0.151,2.579,0.304,3.913,0.428
					c0.467,0.041,0.941,0.083,1.416,0.124c1.928,0.166,3.904,0.304,5.922,0.4c0.466,0.014,0.932,0.041,1.405,0.055
					c1.979,0.07,3.986,0.111,6.027,0.111h1.005c0.474,0,0.939-0.014,1.405-0.014c2.188-0.042,4.332-0.111,6.431-0.221
					c0.473-0.027,0.939-0.055,1.404-0.097c1.68-0.11,3.32-0.234,4.927-0.399c0.466-0.042,0.933-0.097,1.399-0.138
					c2.411-0.264,4.725-0.595,6.934-0.953c0.475-0.083,0.948-0.166,1.407-0.249c2.698-0.483,5.215-1.048,7.536-1.669
					c0.475-0.138,0.94-0.276,1.398-0.414c2.113-0.608,4.035-1.284,5.73-2.016c0.488-0.207,0.955-0.427,1.405-0.634
					c1.392-0.676,2.604-1.379,3.617-2.111c0.521-0.387,0.996-0.772,1.407-1.159c1.438-1.366,2.208-2.814,2.208-4.318v-6.981
					C483.377,316.339,482.606,317.788,481.169,319.154z"/>
			</g>
		</g>
	</g>
	<g>
		<path fill="#CC9007" d="M369.509,348.085c0,0.799-0.018,1.583-0.065,2.367c-0.031,0.656-0.079,1.296-0.161,1.936
			c-0.143,1.425-0.35,2.814-0.64,4.189c-0.127,0.659-0.271,1.297-0.432,1.938c-0.687,2.669-1.613,5.229-2.782,7.66
			c-0.287,0.657-0.623,1.312-0.959,1.936c-0.816,1.504-1.713,2.943-2.704,4.335c-0.447,0.656-0.928,1.311-1.455,1.935
			c-1.151,1.488-2.432,2.896-3.807,4.191c-0.705,0.688-1.424,1.328-2.159,1.935c-1.743,1.471-3.598,2.783-5.551,3.935
			c-1.183,0.72-2.399,1.36-3.646,1.934c-5.438,2.56-11.5,3.984-17.897,3.984h-9.599v-84.548c0,0,2.863,0,9.599,0
			c6.923,0,13.481,1.681,19.257,4.655c1.167,0.575,2.302,1.232,3.39,1.935c1.951,1.231,3.808,2.64,5.517,4.191
			c0.705,0.607,1.376,1.265,2.033,1.935c2.176,2.223,4.109,4.686,5.759,7.342c0.381,0.625,0.768,1.264,1.118,1.92
			c1.376,2.496,2.494,5.15,3.343,7.934c0.192,0.639,0.384,1.279,0.543,1.935c0.528,2.063,0.896,4.175,1.089,6.333
			c0.079,0.64,0.127,1.28,0.159,1.934C369.491,346.646,369.509,347.366,369.509,348.085z"/>
		<g>
			<path fill="#AA7A07" d="M369.443,350.453c-0.031,0.656-0.079,1.296-0.161,1.936h-11.803v-1.936H369.443z"/>
			<path fill="#AA7A07" d="M368.643,356.577c-0.127,0.659-0.271,1.297-0.432,1.938h-14.505v-1.938H368.643z"/>
			<path fill="#AA7A07" d="M365.429,366.175c-0.287,0.657-0.623,1.312-0.959,1.936h-14.285v-1.936H365.429z"/>
			<path fill="#AA7A07" d="M361.766,372.445c-0.447,0.656-0.928,1.311-1.455,1.935h-14.828v-1.935H361.766z"/>
			<path fill="#AA7A07" d="M356.504,378.572c-0.705,0.688-1.424,1.328-2.159,1.935h-13.884v-1.935H356.504z"/>
			<path fill="#AA7A07" d="M348.794,384.441c-1.183,0.72-2.399,1.36-3.646,1.934h-11.916v-1.934H348.794z"/>
			<path fill="#AA7A07" d="M369.459,345.925h-12.778v-1.934H369.3C369.379,344.631,369.427,345.271,369.459,345.925z"/>
			<path fill="#AA7A07" d="M368.211,337.657h-12.987v-1.935h12.444C367.86,336.362,368.052,337.001,368.211,337.657z"/>
			<path fill="#AA7A07" d="M364.325,327.789h-13.019v-1.92h11.9C363.588,326.494,363.975,327.133,364.325,327.789z"/>
			<path fill="#AA7A07" d="M357.448,318.527h-14.492v-1.935h12.459C356.12,317.2,356.791,317.857,357.448,318.527z"/>
			<path fill="#AA7A07" d="M349.898,312.401h-14.043v-1.935h10.653C347.675,311.042,348.81,311.699,349.898,312.401z"/>
		</g>
		<circle fill="#FFD000" cx="317.646" cy="348.083" r="42.27"/>
		<circle fill="#FCBC00" cx="317.646" cy="348.083" r="35.085"/>
		<path fill="#C57F0C" d="M320.578,380.236c-19.377,0-35.085-15.708-35.085-35.084c0-8.941,3.351-17.096,8.855-23.292
			c-7.228,6.427-11.787,15.79-11.787,26.223c0,19.377,15.708,35.085,35.085,35.085c10.437,0,19.803-4.563,26.23-11.792
			C337.681,376.885,329.522,380.236,320.578,380.236z"/>
		<g>
			<path fill="#CC9007" d="M318.025,376.351v-7.283c-4.183-0.072-8.509-1.37-11.033-3.173l1.73-4.832
				c2.596,1.731,6.346,3.101,10.384,3.101c5.12,0,8.582-2.957,8.582-7.067c0-3.966-2.813-6.418-8.149-8.582
				c-7.355-2.885-11.898-6.202-11.898-12.476c0-5.985,4.254-10.529,10.889-11.61v-7.283h4.471v6.995
				c4.327,0.145,7.284,1.298,9.375,2.524l-1.803,4.76c-1.515-0.865-4.471-2.452-9.086-2.452c-5.553,0-7.644,3.317-7.644,6.202
				c0,3.75,2.668,5.625,8.942,8.221c7.428,3.029,11.178,6.779,11.178,13.197c0,5.697-3.966,11.033-11.394,12.259v7.5H318.025z"/>
		</g>
	</g>
	<g>
		<path fill="#CC9007" d="M507.94,476.749c-0.623,0.5-1.245,0.979-1.886,1.432c-0.531,0.389-1.061,0.75-1.609,1.088
			c-1.199,0.781-2.413,1.49-3.666,2.125c-0.592,0.314-1.181,0.602-1.78,0.879c-2.511,1.137-5.088,2.018-7.713,2.629
			c-0.693,0.188-1.414,0.336-2.109,0.467c-1.685,0.305-3.367,0.508-5.074,0.607c-0.792,0.063-1.603,0.098-2.419,0.078
			c-1.882,0.035-3.78-0.082-5.651-0.342c-0.978-0.117-1.929-0.277-2.86-0.469c-2.239-0.438-4.424-1.063-6.546-1.861
			c-1.302-0.473-2.563-1.02-3.791-1.631c-5.402-2.635-10.311-6.469-14.317-11.453l-6.014-7.482l65.898-52.969
			c0,0,1.794,2.23,6.014,7.48c4.337,5.398,7.136,11.563,8.436,17.926c0.283,1.271,0.482,2.566,0.616,3.855
			c0.264,2.291,0.328,4.621,0.189,6.926c-0.03,0.93-0.123,1.865-0.234,2.797c-0.37,3.088-1.077,6.139-2.114,9.088
			c-0.247,0.688-0.504,1.391-0.797,2.072c-1.083,2.639-2.45,5.174-4.088,7.578c-0.379,0.551-0.757,1.1-1.167,1.637
			c-1.277,1.703-2.693,3.313-4.256,4.814c-0.448,0.465-0.916,0.902-1.408,1.336C509.052,475.835,508.501,476.298,507.94,476.749z"/>
		<g>
			<path fill="#AA7A07" d="M506.055,478.181c-0.531,0.389-1.061,0.75-1.609,1.088l-7.395-9.199l1.509-1.213L506.055,478.181z"/>
			<path fill="#AA7A07" d="M500.779,481.394c-0.592,0.314-1.181,0.602-1.78,0.879l-9.088-11.307l1.511-1.213L500.779,481.394z"/>
			<path fill="#AA7A07" d="M491.286,484.901c-0.693,0.188-1.414,0.336-2.109,0.467l-8.949-11.135l1.508-1.213L491.286,484.901z"/>
			<path fill="#AA7A07" d="M484.103,485.976c-0.792,0.063-1.603,0.098-2.419,0.078l-9.29-11.559l1.508-1.211L484.103,485.976z"/>
			<path fill="#AA7A07" d="M476.032,485.712c-0.978-0.117-1.929-0.277-2.86-0.469l-8.7-10.822l1.51-1.211L476.032,485.712z"/>
			<path fill="#AA7A07" d="M466.626,483.382c-1.302-0.473-2.563-1.02-3.791-1.631l-7.466-9.289l1.507-1.211L466.626,483.382z"/>
			<path fill="#AA7A07" d="M509.593,475.356l-8.006-9.959l1.509-1.213l7.905,9.836C510.553,474.485,510.085,474.923,509.593,475.356
				z"/>
			<path fill="#AA7A07" d="M515.257,469.206l-8.138-10.125l1.508-1.211l7.797,9.699C516.045,468.12,515.667,468.669,515.257,469.206
				z"/>
			<path fill="#AA7A07" d="M520.512,459.991l-8.155-10.145l1.496-1.203l7.456,9.275C521.062,458.606,520.805,459.31,520.512,459.991
				z"/>
			<path fill="#AA7A07" d="M523.423,448.831l-9.079-11.295l1.509-1.213l7.805,9.711
				C523.627,446.964,523.534,447.899,523.423,448.831z"/>
			<path fill="#AA7A07" d="M523.468,439.108l-8.799-10.945l1.509-1.213l6.674,8.303
				C523.135,436.524,523.334,437.819,523.468,439.108z"/>
		</g>
		<circle fill="#FFD000" cx="475.451" cy="436.325" r="42.269"/>
		<circle fill="#FCBC00" cx="475.451" cy="436.325" r="35.084"/>
		<path fill="#C57F0C" d="M452.228,458.755c-12.14-15.105-9.738-37.189,5.363-49.328c6.97-5.602,15.426-8.098,23.703-7.689
			c-9.538-1.606-19.691,0.705-27.823,7.242c-15.104,12.141-17.506,34.223-5.366,49.326c6.539,8.133,15.962,12.576,25.625,13.057
			C465.554,469.985,457.83,465.724,452.228,458.755z"/>
		<g>
			<path fill="#CC9007" d="M453.657,454.333l5.677-4.564c-2.564-3.305-4.264-7.49-4.439-10.586l4.851-1.678
				c0.277,3.105,1.559,6.889,4.089,10.035c3.208,3.992,7.681,4.836,10.884,2.262c3.092-2.484,3.24-6.213,1.584-11.729
				c-2.359-7.539-2.621-13.158,2.27-17.09c4.665-3.748,10.871-3.279,15.871,1.215l5.678-4.563l2.801,3.484l-5.453,4.381
				c2.6,3.463,3.552,6.49,3.906,8.889l-4.839,1.576c-0.274-1.723-0.891-5.021-3.782-8.617c-3.479-4.328-7.374-3.881-9.622-2.072
				c-2.923,2.35-2.713,5.604-0.806,12.119c2.293,7.688,1.719,12.959-3.283,16.979c-4.44,3.57-11.084,3.822-16.693-1.199
				l-5.846,4.699L453.657,454.333z"/>
		</g>
	</g>
	<g>
		<path fill="#CC9007" d="M488.79,450.671c0,0.799-0.019,1.584-0.065,2.367c-0.031,0.656-0.08,1.297-0.161,1.936
			c-0.143,1.424-0.35,2.814-0.639,4.189c-0.127,0.658-0.271,1.299-0.433,1.938c-0.687,2.67-1.614,5.23-2.782,7.66
			c-0.288,0.656-0.624,1.313-0.958,1.936c-0.817,1.504-1.714,2.943-2.705,4.334c-0.447,0.656-0.929,1.313-1.456,1.936
			c-1.15,1.488-2.432,2.895-3.806,4.191c-0.705,0.688-1.425,1.328-2.159,1.936c-1.743,1.471-3.599,2.783-5.552,3.936
			c-1.182,0.719-2.398,1.359-3.646,1.934c-5.438,2.561-11.5,3.984-17.896,3.984h-9.598v-84.549c0,0,2.862,0,9.598,0
			c6.924,0,13.481,1.68,19.257,4.654c1.167,0.576,2.301,1.232,3.39,1.936c1.951,1.23,3.807,2.639,5.519,4.191
			c0.703,0.607,1.376,1.264,2.031,1.934c2.176,2.223,4.11,4.688,5.759,7.344c0.382,0.623,0.768,1.264,1.118,1.918
			c1.376,2.496,2.495,5.15,3.344,7.934c0.191,0.641,0.383,1.279,0.543,1.936c0.528,2.063,0.896,4.176,1.087,6.334
			c0.082,0.639,0.129,1.279,0.16,1.934C488.771,449.231,488.79,449.952,488.79,450.671z"/>
		<g>
			<path fill="#AA7A07" d="M488.725,453.038c-0.031,0.656-0.08,1.297-0.161,1.936h-11.803v-1.936H488.725z"/>
			<path fill="#AA7A07" d="M487.925,459.163c-0.127,0.658-0.271,1.299-0.433,1.938h-14.507v-1.938H487.925z"/>
			<path fill="#AA7A07" d="M484.71,468.761c-0.288,0.656-0.624,1.313-0.958,1.936h-14.285v-1.936H484.71z"/>
			<path fill="#AA7A07" d="M481.047,475.03c-0.447,0.656-0.929,1.313-1.456,1.936h-14.828v-1.936H481.047z"/>
			<path fill="#AA7A07" d="M475.785,481.157c-0.705,0.688-1.425,1.328-2.159,1.936h-13.884v-1.936H475.785z"/>
			<path fill="#AA7A07" d="M468.074,487.028c-1.182,0.719-2.398,1.359-3.646,1.934h-11.916v-1.934H468.074z"/>
			<path fill="#AA7A07" d="M488.739,448.511h-12.778v-1.934h12.618C488.661,447.216,488.708,447.856,488.739,448.511z"/>
			<path fill="#AA7A07" d="M487.492,440.243h-12.987v-1.936h12.444C487.141,438.948,487.332,439.587,487.492,440.243z"/>
			<path fill="#AA7A07" d="M483.605,430.374h-13.019v-1.918h11.9C482.869,429.079,483.255,429.72,483.605,430.374z"/>
			<path fill="#AA7A07" d="M476.729,421.112h-14.491v-1.934h12.46C475.4,419.786,476.073,420.442,476.729,421.112z"/>
			<path fill="#AA7A07" d="M469.179,414.987h-14.043v-1.936h10.653C466.956,413.628,468.09,414.284,469.179,414.987z"/>
		</g>
		<circle fill="#FFD000" cx="436.928" cy="450.669" r="42.269"/>
		<circle fill="#FCBC00" cx="436.928" cy="450.669" r="35.085"/>
		<path fill="#C57F0C" d="M439.859,482.823c-19.377,0-35.085-15.709-35.085-35.086c0-8.941,3.35-17.096,8.854-23.291
			c-7.228,6.426-11.786,15.789-11.786,26.223c0,19.379,15.708,35.086,35.086,35.086c10.437,0,19.802-4.563,26.229-11.793
			C456.962,479.472,448.804,482.823,439.859,482.823z"/>
		<g>
			<path fill="#CC9007" d="M437.306,478.937v-7.283c-4.183-0.072-8.51-1.371-11.033-3.174l1.73-4.832
				c2.596,1.73,6.346,3.102,10.385,3.102c5.119,0,8.581-2.957,8.581-7.066c0-3.967-2.813-6.418-8.149-8.582
				c-7.355-2.885-11.898-6.201-11.898-12.477c0-5.984,4.255-10.527,10.89-11.609v-7.283h4.471v6.994
				c4.327,0.145,7.284,1.299,9.375,2.523l-1.803,4.762c-1.515-0.867-4.472-2.453-9.087-2.453c-5.553,0-7.644,3.316-7.644,6.203
				c0,3.748,2.668,5.623,8.942,8.221c7.428,3.027,11.178,6.777,11.178,13.195c0,5.697-3.967,11.033-11.395,12.26v7.5H437.306z"/>
		</g>
	</g>
</g>
</svg>
