<?xml version="1.0" encoding="utf-8"?>
<!-- Generator: Adobe Illustrator 16.0.0, SVG Export Plug-In . SVG Version: 6.00 Build 0)  -->
<!DOCTYPE svg PUBLIC "-//W3C//DTD SVG 1.1//EN" "http://www.w3.org/Graphics/SVG/1.1/DTD/svg11.dtd">
<svg version="1.1" id="Capa_1" xmlns="http://www.w3.org/2000/svg" xmlns:xlink="http://www.w3.org/1999/xlink" x="0px" y="0px"
	 width="400px" height="400px" viewBox="0 0 400 400" enable-background="new 0 0 400 400" xml:space="preserve">
<g opacity="0.5">
	<ellipse fill="#6096AA" cx="284.309" cy="292.546" rx="11.5" ry="3"/>
</g>
<g opacity="0.5">
	<ellipse fill="#6096AA" cx="132.301" cy="292.546" rx="26.25" ry="6.115"/>
</g>
<g>
	<g>
		<path fill="#646161" d="M191.551,233.187l24.102-0.504c5.75-0.849,9.724-6.197,8.875-11.947l-1.116-7.563
			c-0.854-5.792-6.293-9.831-12.085-8.977l-24.858-0.76L191.551,233.187z"/>
	</g>
	<g>
		<path fill="#FACDBD" d="M147.355,275.401c0,0-0.611-12.27,0.031-16.291c0.619-3.871,2.075-5.92,2.943-6.686
			c1.297-1.145,2.141-2.381,2.972-4.218c0.879-1.94,2.201-6.804,0.084-12.492c-1.047-2.813-3.206-5.095-5.941-6.295v-0.186
			c0,0,8.028,3.713,16.221,3.62l25.449,0.487c3.543,0.029,6.467-2.845,6.496-6.389c0.013-1.477-0.485-2.842-1.32-3.938l0.021-10.689
			l-7.803-0.016c-0.745-3.058-3.494-5.36-6.776-5.388l-25.532-0.306c-10.244,0.831-12.486,3.08-15.223,5.602
			c-2.093,0.839-4.08,1.637-5.938,2.914c-2.332,1.602-2.119,3.707-2.393,5.49c-0.064,0.418-0.098,0.844-0.099,1.272l-0.192,53.474
			L147.355,275.401z"/>
		<path fill="#FCE3D9" d="M134.381,224.728c0.001-0.429,0.034-0.854,0.099-1.272c0.273-1.782,0.061-3.888,2.394-5.49
			c1.858-1.276,3.845-2.075,5.938-2.913c2.736-2.521,4.979-4.771,15.223-5.602l25.532,0.306c0.68,0.006,1.328,0.13,1.949,0.317
			c-1.253-1.876-3.369-3.131-5.782-3.151l-25.532-0.306c-10.244,0.831-12.486,3.08-15.223,5.602
			c-2.093,0.839-4.08,1.637-5.938,2.913c-2.332,1.603-2.119,3.708-2.393,5.491c-0.064,0.418-0.098,0.844-0.099,1.272l-0.192,53.474
			l3.844,0.008L134.381,224.728z"/>
		<g>
			<g>
				<path fill="#FCE3D9" d="M191.623,216.05l2.719,0.012l0.017-3.979l-5.196-0.021C190.39,213.058,191.28,214.455,191.623,216.05z"
					/>
			</g>
			<g>
				<polygon fill="#DFDDDE" points="130.293,266.854 130.259,274.979 147.259,275.051 147.293,266.854 				"/>
			</g>
			<g>
				<polygon fill="#FFFFFF" points="135.311,266.854 130.293,266.854 130.259,274.979 135.276,275 				"/>
			</g>
		</g>
		<g>
			<path fill="#646161" d="M167.714,206.294l-0.004,26.824l27.966,0.193c3.544,0.014-3.25-20.5-3.25-27.25L167.714,206.294z"/>
		</g>
		<g>
			<path fill="#4E4D4D" d="M192.718,209.215l-7.083,24.027l10.041,0.069C198.771,233.323,193.979,217.674,192.718,209.215z"/>
		</g>
		<g>
			<g>
				<g>
					<path fill="#646161" d="M129.996,289.409l11.598,0.003c3.698,0.001,6.725-3.273,6.726-7.275v-0.434
						c0.001-4.002-3.023-7.277-6.722-7.278l-11.599-0.003c-3.697-0.001-6.724,3.272-6.725,7.274v0.435
						C123.273,286.133,126.298,289.408,129.996,289.409z"/>
				</g>
			</g>
			<g>
				<g>
					<path fill="#4E4D4D" d="M138.771,290.606l6.475,0.001c2.896,0.001,5.268-2.368,5.268-5.266l0,0
						c0.001-2.896-2.369-5.268-5.266-5.269l-6.474-0.001c-2.897-0.001-5.268,2.369-5.269,5.266l0,0
						C133.505,288.234,135.875,290.605,138.771,290.606z"/>
				</g>
			</g>
			<g>
				<g>
					<path fill="#4E4D4D" d="M146.191,289.229L146.191,289.229c2.428,0.001,4.414-1.984,4.414-4.411l0.003-9.125
						c0.001-2.427-1.985-4.413-4.412-4.414l0,0c-2.427,0-4.413,1.985-4.414,4.412l-0.002,9.124
						C141.779,287.242,143.765,289.229,146.191,289.229z"/>
				</g>
			</g>
			<g>
				<g>
					<path fill="#4E4D4D" d="M117.718,291.061l7.038,0.002c2.897,0.001,5.268-2.369,5.269-5.266l0,0
						c0.001-2.897-2.368-5.268-5.266-5.269l-7.038-0.002c-2.897,0-5.268,2.369-5.269,5.266l0,0
						C112.451,288.689,114.82,291.06,117.718,291.061z"/>
				</g>
			</g>
			<g>
				<g>
					<path fill="#E42C3D" d="M113.517,292.53l33.962,0.009c1.213,0,2.206-0.992,2.207-2.206l0,0c0-1.214-0.992-2.207-2.206-2.207
						l-33.962-0.009c-1.213,0-2.207,0.993-2.207,2.206l0,0C111.311,291.537,112.303,292.53,113.517,292.53z"/>
				</g>
			</g>
			<g>
				<g>
					<path fill="#FFFFFF" d="M122.283,279.506l4.742,0.041c0.267,0.003,0.485-0.213,0.488-0.479l0.001-0.137
						c0.002-0.266-0.214-0.485-0.479-0.487l-4.743-0.041c-0.266-0.003-0.485,0.213-0.487,0.479l-0.001,0.137
						C121.801,279.284,122.017,279.504,122.283,279.506z"/>
				</g>
			</g>
			<g>
				<g>
					<path fill="#FFFFFF" d="M123.579,277.441l4.743,0.041c0.266,0.002,0.484-0.214,0.487-0.479l0.001-0.137
						c0.002-0.266-0.213-0.484-0.479-0.487l-4.743-0.041c-0.266-0.002-0.484,0.214-0.487,0.479l-0.001,0.137
						C123.098,277.22,123.313,277.439,123.579,277.441z"/>
				</g>
			</g>
		</g>
	</g>
	<g>
		<g>
			<path fill="#FACDBD" d="M268.578,259.022c0,0-12.035,2.465-16.107,2.439c-3.92-0.025-6.166-1.153-7.055-1.896
				c-1.327-1.108-2.678-1.755-4.619-2.298c-2.052-0.574-7.059-1.145-12.36,1.811c-2.621,1.462-4.551,3.942-5.321,6.827l-0.184,0.028
				c0,0,2.452-8.498,1.119-16.581l-3.378-25.229c-0.508-3.507-3.792-5.96-7.299-5.452c-1.462,0.212-2.735,0.91-3.693,1.901
				l-10.569,1.601l1.168,7.715c-2.909,1.2-4.769,4.267-4.298,7.515l3.569,25.283c2.375,10,4.938,11.875,7.845,14.197
				c1.146,1.941,2.236,3.784,3.78,5.428c1.938,2.063,3.986,1.533,5.79,1.533c0.423,0,0.849-0.031,1.272-0.096l52.885-7.918
				L268.578,259.022z"/>
			<g>
				<path fill="#FCE3D9" d="M214.843,282.479c-1.544-1.644-2.634-3.486-3.78-5.428c-2.907-2.322-5.47-4.197-7.845-14.197
					l-3.569-25.284c-0.471-3.248,1.388-6.314,4.298-7.515l-1.168-7.714l10.569-1.601c0.82-0.851,1.884-1.464,3.09-1.761
					c-0.953-0.34-1.998-0.462-3.063-0.308c-1.462,0.212-2.735,0.91-3.693,1.901l-10.569,1.601l1.168,7.715
					c-2.909,1.2-4.769,4.267-4.298,7.515l3.569,25.283c2.375,10,4.938,11.875,7.845,14.197c1.146,1.941,2.236,3.784,3.78,5.428
					c1.938,2.063,3.986,1.533,5.79,1.533c0.003,0,0.005-0.001,0.007-0.001C216.26,283.629,215.544,283.225,214.843,282.479z"/>
			</g>
		</g>
		<g>
			<polygon fill="#DFDDDE" points="259.02,260.47 261.248,277.326 271.123,275.831 268.578,259.022 			"/>
		</g>
		<g>
			<g>
				<g>
					<path fill="#646161" d="M285.422,273.871l-1.782-11.461c-0.567-3.653-4.269-6.14-8.223-5.525l-0.429,0.067
						c-3.955,0.614-6.726,4.107-6.157,7.761l1.782,11.461c0.567,3.653,4.268,6.14,8.223,5.525l0.429-0.066
						C283.219,281.018,285.99,277.525,285.422,273.871z"/>
				</g>
			</g>
			<g>
				<g>
					<path fill="#4E4D4D" d="M285.254,265.016l-0.994-6.397c-0.445-2.862-3.151-4.84-6.014-4.395l0,0
						c-2.862,0.444-4.84,3.151-4.396,6.014l0.995,6.396c0.445,2.862,3.151,4.841,6.014,4.396l0,0
						C283.722,270.584,285.699,267.878,285.254,265.016z"/>
				</g>
			</g>
			<g>
				<g>
					<path fill="#4E4D4D" d="M282.752,257.896L282.752,257.896c-0.373-2.398-2.641-4.056-5.039-3.683l-9.016,1.402
						c-2.398,0.373-4.056,2.64-3.683,5.038l0,0c0.373,2.398,2.64,4.056,5.038,3.683l9.017-1.401
						C281.468,262.562,283.125,260.294,282.752,257.896z"/>
				</g>
			</g>
			<g>
				<g>
					<path fill="#4E4D4D" d="M288.943,285.749l-1.082-6.955c-0.444-2.862-3.15-4.841-6.014-4.396l0,0
						c-2.861,0.445-4.84,3.151-4.395,6.014l1.081,6.955c0.445,2.862,3.151,4.841,6.014,4.396l0,0
						C287.41,291.317,289.389,288.611,288.943,285.749z"/>
				</g>
			</g>
			<g>
				<g>
					<path fill="#E42C3D" d="M291.042,289.674l-5.218-33.559c-0.187-1.199-1.32-2.027-2.52-1.841l0,0
						c-1.198,0.187-2.027,1.319-1.841,2.519l5.218,33.559c0.187,1.199,1.32,2.027,2.52,1.842l0,0
						C290.4,292.007,291.229,290.873,291.042,289.674z"/>
				</g>
			</g>
			<g>
				<g>
					<path fill="#FFFFFF" d="M276.824,283.017l-0.689-4.693c-0.039-0.263-0.286-0.446-0.549-0.408l-0.135,0.021
						c-0.264,0.038-0.447,0.285-0.408,0.548l0.689,4.693c0.039,0.263,0.285,0.446,0.549,0.407l0.135-0.02
						C276.679,283.526,276.862,283.279,276.824,283.017z"/>
				</g>
			</g>
			<g>
				<g>
					<path fill="#FFFFFF" d="M274.584,282.054l-0.689-4.693c-0.038-0.263-0.285-0.446-0.548-0.408l-0.136,0.021
						c-0.263,0.038-0.446,0.285-0.407,0.548l0.688,4.693c0.039,0.263,0.286,0.446,0.549,0.408l0.135-0.021
						C274.439,282.563,274.623,282.316,274.584,282.054z"/>
				</g>
			</g>
		</g>
		<g>
			<path fill="#646161" d="M196.926,246.437l26.41-3.926l-3.952-31.657c-0.508-3.507-22.083-0.417-27.521-2.104L196.926,246.437z"/>
		</g>
		<g>
			<g>
				<path fill="#7A7777" d="M197.218,203.854c-2.597-0.016-4.84,0.273-6.125-0.125l5.833,42.708l5.883-0.874L197.218,203.854z"/>
			</g>
		</g>
	</g>
</g>
<g>
	<g>
		<path fill="#FACDBD" d="M218.943,172.687H180.93c-7.067,0-12.85-5.782-12.85-12.85v-7.967c0-7.067,5.782-12.851,12.85-12.851
			h38.014c7.067,0,12.85,5.783,12.85,12.851v7.967C231.793,166.904,226.011,172.687,218.943,172.687z"/>
	</g>
	<g>
		<path fill="#FACDBD" d="M212.286,196.267h-22.365c-5.675,0-10.317-4.643-10.317-10.317v-11.525
			c0-5.674,4.643-10.317,10.317-10.317h22.365c5.675,0,10.317,4.644,10.317,10.317v11.525
			C222.604,191.624,217.961,196.267,212.286,196.267z"/>
	</g>
	<g>
		<g>
			<path fill="#FACDBD" d="M143.061,169.882c2.276-0.002,10.033-2.331,10.033-2.331c6.891,4.207,13.884,1.543,17.424-4.034
				c0.071-0.112,0.093-0.245,0.14-0.368c5.511,1.496,11.479-1.223,13.84-6.602c2.598-5.917-0.119-12.884-6.036-15.481
				c-5.918-2.598-12.885,0.119-15.482,6.037c-0.132,0.301-0.241,0.606-0.346,0.912l-0.117,0.037
				c-2.988-2.108-6.558-3.774-10.354-2.843c-6.119,1.5-8.19,5.597-9.083,6.983c-0.096-0.145-0.181-0.294-0.295-0.43
				c0,0-7.673-8.76-13.56-11.769c-3.527-1.804-6.14-6.794-6.14-6.794c0.839-2.063,0.579-4.51-0.896-6.369l-15.096,11.987
				c1.661,2.092,4.397,2.852,6.819,2.128c0,0,2.812,2.712,3.458,3.827c5.098,8.788,14.238,18.442,14.238,18.442
				C132.811,164.634,138.867,169.886,143.061,169.882z"/>
		</g>
		<g>
			<path fill="#FCE3D9" d="M123.084,135.325c0,0,2.612,4.99,6.14,6.794c5.886,3.009,13.56,11.769,13.56,11.769
				c0.114,0.136,0.199,0.285,0.295,0.43c0.893-1.387,2.964-5.483,9.083-6.983c3.797-0.932,7.366,0.734,10.354,2.843l0.117-0.037
				c0.104-0.306,0.214-0.611,0.346-0.912c2.598-5.918,9.564-8.635,15.482-6.037c4.037,1.772,6.58,5.579,6.967,9.698
				c0.434-4.888-2.241-9.749-6.967-11.823c-5.918-2.598-12.885,0.119-15.482,6.037c-0.132,0.301-0.241,0.606-0.346,0.912
				l-0.117,0.037c-2.988-2.108-6.558-3.774-10.354-2.843c-6.119,1.5-8.19,5.597-9.083,6.983c-0.096-0.145-0.181-0.294-0.295-0.43
				c0,0-7.674-8.76-13.56-11.769c-2.728-1.395-4.901-4.686-5.75-6.11C123.397,134.376,123.272,134.86,123.084,135.325z"/>
		</g>
	</g>
	<g>
		<path fill="#F7B6A0" d="M124.155,135.02l-1.834-3.041l-9.125,8.309l2.271,2.232c0.703-0.227,1.165-0.528,1.775-1.013l5.129-4.072
			C123.295,136.702,123.763,136.052,124.155,135.02z"/>
	</g>
	<g>
		<path fill="#E7474C" d="M230.522,165.362c-3.641-1.251-7.765-4.972-7.986-10.672v-15.146c-1.143-0.335-2.346-0.524-3.593-0.524
			H180.93c-1.886,0-3.673,0.422-5.29,1.16v14.511c-0.032,4.959-3.03,8.9-6.4,10.43c1.874,4.11,5.845,7.083,10.532,7.508
			c-0.104,0.584-0.168,1.183-0.168,1.796v11.525c0,4.264,2.622,7.944,6.333,9.511v4.702c0,0.121,0.011,0.238,0.018,0.357h-0.026
			v4.584h29.681v-4.584h-0.022c0.007-0.119,0.018-0.236,0.018-0.357v-4.457c4.058-1.391,7-5.242,7-9.756v-11.525
			c0-0.76-0.09-1.5-0.248-2.215C225.955,171.209,228.926,168.673,230.522,165.362z"/>
	</g>
	<g>
		<path fill="#F1988C" d="M222.536,142.354v-2.81c-1.143-0.335-2.346-0.524-3.593-0.524H180.93c-1.886,0-3.673,0.422-5.29,1.16
			v2.174H222.536z"/>
	</g>
	<g>
		<g>
			<path fill="#FACDBD" d="M190.949,94.764h1.471c7.281,0,13.239,5.958,13.239,13.239V120h1.563v16.728v3.682v3.344
				c0,4.854-3.972,8.826-8.826,8.826c-4.854,0-8.825-3.972-8.825-8.826v-3.344v-2.877c-6.64-0.695-11.859-6.35-11.859-13.165
				v-24.271C177.711,92.815,183.668,94.764,190.949,94.764z"/>
		</g>
		<g>
			<path fill="#F7B6A0" d="M177.71,102.992h21.444c1.201,0,2.29-0.481,3.103-1.252v1.104c-0.813,0.771-1.901,1.251-3.103,1.251
				H177.71V102.992z"/>
		</g>
	</g>
	<g>
		<g>
			<circle fill="#FACDBD" cx="208.877" cy="120.689" r="5.148"/>
		</g>
	</g>
	<g>
		<g>
			<path fill="#F7B6A0" d="M189.586,137.531c6.64-0.695,11.859-6.35,11.859-13.165v2.206c0,6.815-5.22,12.47-11.859,13.166V137.531z
				"/>
		</g>
	</g>
	<g>
		<g>
			<path fill="#8A412B" d="M177.365,88.267h21.789c2.49,0,4.527,2.037,4.527,4.527v0.676c0.949-1.008,2.285-1.648,3.77-1.648
				c2.857,0,5.194,2.338,5.194,5.195v16.088c0,2.857-2.337,5.195-5.194,5.195c-2.856,0-5.194-2.338-5.194-5.195V101.74
				c-0.813,0.771-1.901,1.252-3.103,1.252h-21.789c-2.49,0-4.527-2.038-4.527-4.528v-5.67
				C172.838,90.304,174.875,88.267,177.365,88.267z"/>
		</g>
	</g>
	<g>
		<path fill="#AA715B" d="M177.365,88.267h21.789c2.49,0,4.527,2.037,4.527,4.527v0.676c0.949-1.008,2.285-1.648,3.77-1.648
			c2.857,0,5.194,2.338,5.194,5.195v2.206c0-2.856-2.337-5.194-5.194-5.194c-1.484,0-2.82,0.641-3.77,1.648v-0.676
			c0-2.49-2.037-4.528-4.527-4.528h-21.789c-2.49,0-4.527,2.038-4.527,4.528v-2.207C172.838,90.304,174.875,88.267,177.365,88.267z"
			/>
	</g>
	<g>
		<path fill="#E7474C" d="M177.578,109.353h33.87c1.503,0,2.731-1.229,2.731-2.73v-4.037c0-1.502-1.229-2.732-2.731-2.732h-33.87
			c-1.502,0-2.731,1.23-2.731,2.732v4.037C174.847,108.124,176.076,109.353,177.578,109.353z"/>
	</g>
	<g>
		<g>
			<path fill="#E85454" d="M175.767,140.129c-0.042,0.019-0.086,0.031-0.127,0.051v0.236L175.767,140.129z"/>
		</g>
	</g>
	<g>
		<path fill="#E7474C" d="M218.943,172.687H180.93c-0.391,0-0.775-0.024-1.158-0.059c-0.104,0.584-0.168,1.183-0.168,1.796v0.193
			c0.437,0.046,0.879,0.069,1.326,0.069h38.014c1.266,0,2.488-0.192,3.646-0.537c-0.019-0.664-0.104-1.311-0.241-1.938
			C221.261,172.513,220.123,172.687,218.943,172.687z"/>
	</g>
	<g>
		<g>
			<path fill="#E7474C" d="M182.722,193.315c0.183,0.178,0.371,0.35,0.565,0.515C183.093,193.665,182.904,193.493,182.722,193.315z"
				/>
		</g>
		<g>
			<path fill="#E7474C" d="M182.51,193.1c-0.144-0.149-0.283-0.303-0.418-0.46C182.228,192.797,182.366,192.95,182.51,193.1z"/>
		</g>
		<g>
			<path fill="#E7474C" d="M181.904,192.419c-0.184-0.228-0.361-0.461-0.526-0.704C181.543,191.958,181.721,192.191,181.904,192.419
				z"/>
		</g>
		<g>
			<path fill="#E7474C" d="M181.339,191.653c-0.152-0.229-0.294-0.463-0.429-0.703C181.045,191.19,181.187,191.425,181.339,191.653z
				"/>
		</g>
		<g>
			<path fill="#E7474C" d="M184.849,194.916c-0.176-0.101-0.349-0.206-0.519-0.315C184.5,194.71,184.673,194.815,184.849,194.916z"
				/>
		</g>
		<g>
			<path fill="#E7474C" d="M184.076,194.433c-0.236-0.163-0.467-0.333-0.688-0.515C183.609,194.1,183.84,194.27,184.076,194.433z"/>
		</g>
		<g>
			<path fill="#E7474C" d="M179.65,173.501c-0.03,0.305-0.047,0.611-0.047,0.923C179.604,174.113,179.623,173.806,179.65,173.501z"
				/>
		</g>
		<g>
			<path fill="#E7474C" d="M180.777,190.699c-0.1-0.191-0.194-0.386-0.282-0.584C180.583,190.313,180.678,190.508,180.777,190.699z"
				/>
		</g>
		<g>
			<path fill="#E7474C" d="M179.684,187.174c0.027,0.228,0.063,0.454,0.104,0.677C179.746,187.628,179.711,187.401,179.684,187.174z
				"/>
		</g>
		<g>
			<path fill="#E7474C" d="M179.604,185.949c0,0.319,0.02,0.635,0.048,0.947C179.623,186.584,179.604,186.269,179.604,185.949z"/>
		</g>
		<g>
			<path fill="#E7474C" d="M180.063,188.984c-0.088-0.281-0.159-0.569-0.223-0.86C179.904,188.415,179.976,188.703,180.063,188.984z
				"/>
		</g>
		<g>
			<path fill="#E7474C" d="M180.382,189.859c-0.114-0.277-0.221-0.559-0.312-0.848C180.161,189.301,180.268,189.582,180.382,189.859
				z"/>
		</g>
		<g>
			<path fill="#E7474C" d="M222.518,187.209c-0.026,0.216-0.059,0.43-0.099,0.642C222.459,187.639,222.491,187.425,222.518,187.209z
				"/>
		</g>
		<g>
			<path fill="#E7474C" d="M185.793,195.394c-0.227-0.1-0.448-0.207-0.666-0.322C185.345,195.187,185.566,195.294,185.793,195.394z"
				/>
		</g>
		<g>
			<path fill="#E7474C" d="M221.201,191.106c-0.076,0.131-0.154,0.261-0.236,0.388C221.047,191.367,221.125,191.237,221.201,191.106
				z"/>
		</g>
		<g>
			<path fill="#E7474C" d="M222.351,188.185c-0.046,0.204-0.099,0.405-0.156,0.604C222.252,188.59,222.305,188.389,222.351,188.185z
				"/>
		</g>
		<g>
			<path fill="#E7474C" d="M221.686,190.17c-0.086,0.19-0.176,0.379-0.272,0.563C221.511,190.549,221.599,190.36,221.686,190.17z"/>
		</g>
		<g>
			<path fill="#E7474C" d="M222.539,173.304c-0.001-0.011-0.004-0.021-0.005-0.032C222.535,173.282,222.538,173.293,222.539,173.304
				z"/>
		</g>
		<g>
			<path fill="#E7474C" d="M222.105,189.096c-0.085,0.262-0.18,0.52-0.284,0.771C221.926,189.615,222.021,189.357,222.105,189.096z"
				/>
		</g>
		<g>
			<path fill="#E7474C" d="M219.111,193.655c-0.035,0.031-0.069,0.064-0.105,0.096C219.042,193.72,219.076,193.687,219.111,193.655z
				"/>
		</g>
		<g>
			<path fill="#E7474C" d="M218.494,194.161c-0.051,0.038-0.102,0.077-0.153,0.115C218.393,194.238,218.443,194.199,218.494,194.161
				z"/>
		</g>
		<g>
			<path fill="#E7474C" d="M217.785,194.656c-0.032,0.02-0.064,0.038-0.097,0.059C217.721,194.694,217.753,194.676,217.785,194.656z
				"/>
		</g>
		<g>
			<path fill="#E7474C" d="M220.698,191.89c-0.074,0.104-0.151,0.205-0.229,0.307C220.547,192.095,220.624,191.994,220.698,191.89z"
				/>
		</g>
		<g>
			<path fill="#E7474C" d="M222.604,185.949c0,0.323-0.02,0.643-0.049,0.959C222.584,186.592,222.604,186.272,222.604,185.949z"/>
		</g>
		<g>
			<path fill="#E7474C" d="M220.144,192.607c-0.032,0.038-0.067,0.072-0.099,0.109C220.077,192.68,220.111,192.646,220.144,192.607z
				"/>
		</g>
	</g>
	<g>
		<path fill="#E7474C" d="M189.921,196.267c-1.41,0-2.757-0.288-3.984-0.807l0,0v2.001c1.228,0.518,2.574,0.806,3.984,0.806h22.365
			c1.16,0,2.273-0.203,3.317-0.561v-2.001c0,0,0,0,0.001,0c-1.044,0.358-2.157,0.562-3.318,0.562H189.921z"/>
	</g>
</g>
<g>
	<g>
		<path fill="#FACDBD" d="M254.218,171.52c-0.917-2.083-6.167-8.25-6.167-8.25c1.083-8-4.167-13.333-10.697-14.333
			c-0.131-0.021-0.262,0.014-0.393,0.02c-0.845-5.647-5.733-10.02-11.607-10.02c-6.462,0-11.75,5.287-11.75,11.75
			s5.288,11.75,11.75,11.75c0.329,0,0.652-0.022,0.975-0.05l0.081,0.092c-0.729,3.585-0.82,7.522,1.559,10.625
			c3.833,5,8.416,5.25,10.045,5.51c-0.094,0.146-0.196,0.284-0.274,0.443c0,0-4.938,10.547-5.327,17.146
			c-0.233,3.955-3.754,8.354-3.754,8.354c-2.226,0.061-4.362,1.281-5.471,3.38l-1.056,1.996c-1.635,3.095-0.44,6.965,2.654,8.6
			l5.79,3.06c3.095,1.636,6.965,0.441,8.6-2.653l1.055-1.996c1.248-2.362,0.844-5.174-0.792-7.101c0,0,1.354-3.664,2.114-4.705
			c5.999-8.199,11.166-20.449,11.166-20.449C253.531,183.015,255.906,175.358,254.218,171.52z"/>
		<g>
			<path fill="#FCE3D9" d="M224.688,141.27c5.873,0,10.762,4.372,11.606,10.021c0.132-0.006,0.262-0.04,0.394-0.021
				c6.53,1,11.78,6.334,10.696,14.334c0,0,5.25,6.166,6.167,8.25c1.042,2.368,0.536,6.188-0.195,9.161
				c0.97-2.943,2.21-8.431,0.862-11.495c-0.917-2.083-6.167-8.25-6.167-8.25c1.083-8-4.167-13.333-10.697-14.333
				c-0.131-0.021-0.262,0.014-0.393,0.02c-0.845-5.647-5.733-10.02-11.607-10.02c-5.767,0-10.586,4.214-11.56,9.712
				C215.538,144.336,219.769,141.27,224.688,141.27z"/>
		</g>
	</g>
</g>
<g>
	<path fill="#FCE3D9" d="M151.277,232.231v0.022c0.012,0.005,0.022,0.012,0.034,0.017
		C151.301,232.258,151.289,232.244,151.277,232.231z"/>
</g>
<g>
	<g>
		<g>
			<path fill="#FACDBD" d="M115.909,139.84l5.13-4.071c2.741-2.177,3.204-6.2,1.027-8.941l-1.403-1.769
				c-2.176-2.741-6.199-3.204-8.94-1.027l-5.13,4.071c-2.741,2.176-3.204,6.199-1.028,8.94l1.404,1.769
				C109.145,141.554,113.168,142.016,115.909,139.84z"/>
		</g>
	</g>
	<g>
		<path fill="#FCE3D9" d="M108.218,130.478l5.13-4.071c2.741-2.177,6.765-1.714,8.94,1.027l0.592,0.745
			c-0.212-0.473-0.478-0.928-0.813-1.352l-1.403-1.769c-2.176-2.741-6.199-3.204-8.94-1.027l-5.13,4.071
			c-2.741,2.176-3.204,6.199-1.028,8.94l0.813,1.023C105.219,135.477,105.899,132.317,108.218,130.478z"/>
	</g>
</g>
</svg>
