<?xml version="1.0" encoding="utf-8"?>
<!-- Generator: Adobe Illustrator 16.0.0, SVG Export Plug-In . SVG Version: 6.00 Build 0)  -->
<!DOCTYPE svg PUBLIC "-//W3C//DTD SVG 1.1//EN" "http://www.w3.org/Graphics/SVG/1.1/DTD/svg11.dtd">
<svg version="1.1" id="Capa_1" xmlns="http://www.w3.org/2000/svg" xmlns:xlink="http://www.w3.org/1999/xlink" x="0px" y="0px"
	 width="400px" height="400px" viewBox="0 0 400 400" enable-background="new 0 0 400 400" xml:space="preserve">
<g>
	<g>
		<g>
			<g>
				<path fill="#7CAB43" d="M229.381,181.742l-2.48-1.79c0,0-2.838,9.7-0.898,17.392l0.607,0.886
					C226.609,198.229,225.828,190.173,229.381,181.742z"/>
				<path fill="#7CAB43" d="M220.186,182.051l2.288-1.922c0,0,3.82,9.518,2.667,17.298l-0.516,0.919
					C224.625,198.347,224.586,190.266,220.186,182.051z"/>
				<path fill="#7CAB43" d="M222.64,177.244l2.571-1.717c0,0,2.33,9.773-0.01,17.404l-0.654,0.868
					C224.547,193.799,225.75,185.773,222.64,177.244z"/>
			</g>
			<g>
				<path fill="#8E3457" d="M235.445,202.263h0.008c0,0-0.019-0.008-0.044-0.02c-0.396-0.222-0.801-0.431-1.223-0.626
					c-2.338-1.317-7.121-4.627-7.186-9.752l-0.501-0.442l-0.252,3.425l-0.427-3.515l-0.688-0.756l-0.179,3.446l-0.385-2.585
					l-1.026,0.659c0.063,5.081-4.381,8.15-6.626,9.375c-0.419,0.186-0.825,0.388-1.222,0.6c-0.023,0.011-0.035,0.016-0.035,0.016
					h0.006c-4.751,2.546-7.861,6.902-7.801,11.827c0.094,7.762,8.021,13.991,17.701,13.916c9.683-0.076,17.455-6.429,17.359-14.191
					C242.87,208.925,239.92,204.776,235.445,202.263z"/>
				<path fill="#984866" d="M234.114,202.333l0.008-0.001c0,0-0.016-0.007-0.037-0.019c-0.345-0.22-0.699-0.427-1.063-0.621
					c-2.038-1.307-6.202-4.594-6.264-9.672l-0.258-0.598l-0.393,3.553l-0.376-3.485l-0.599-0.748l-0.152,3.414l-0.411-2.719
					l-0.815,0.81c0.062,5.034-3.799,8.073-5.746,9.285c-0.364,0.183-0.718,0.383-1.064,0.593c-0.019,0.009-0.03,0.015-0.03,0.015
					l0.004,0.001c-4.125,2.52-6.821,6.833-6.761,11.716c0.092,7.69,6.991,13.873,15.407,13.81
					c8.418-0.066,15.165-6.356,15.073-14.049C240.58,208.942,238.008,204.83,234.114,202.333z"/>
				<path fill="#8E3457" d="M231.152,202.356h0.005c0,0-0.011-0.008-0.024-0.019c-0.231-0.221-0.467-0.431-0.711-0.625
					c-1.359-1.312-4.385-4.66-4.445-9.738l-0.155-0.642l-0.027,3.646l-0.265-3.486l-0.4-0.75l-0.088,3.414l-0.474-2.728
					l-0.353,0.815c0.061,5.034-2.496,8.063-3.786,9.271c-0.243,0.182-0.476,0.381-0.704,0.59c-0.015,0.009-0.023,0.014-0.023,0.014
					l0.006,0.001c-2.736,2.51-4.515,6.817-4.453,11.696c0.094,7.693,4.709,13.894,10.31,13.852
					c5.604-0.045,10.069-6.316,9.975-14.011C235.481,208.982,233.753,204.862,231.152,202.356z"/>
				<path fill="#984866" d="M228.053,202.38h0.002c0,0-0.004-0.006-0.011-0.019c-0.11-0.222-0.224-0.432-0.341-0.627
					c-0.654-1.317-1.998-4.627-2.059-9.705l-0.115-0.537l-0.065,3.488l-0.148-3.486l-0.194-0.753l-0.018,3.415l-0.536-2.728
					l0.131,0.811c0.062,5.035-1.132,8.052-1.736,9.253c-0.113,0.183-0.224,0.38-0.331,0.59c-0.006,0.007-0.01,0.015-0.01,0.015
					h0.002c-1.281,2.497-2.096,6.795-2.037,11.676c0.094,7.693,2.324,13.912,4.979,13.894c2.656-0.022,4.735-6.273,4.641-13.969
					C230.147,209.024,229.303,204.898,228.053,202.38z"/>
			</g>
		</g>
		<path opacity="0.1" fill="#FFFFFF" d="M220.258,208.6c-2.359,2.651-5.219,4.509-7.072,3.446c-1.855-1.061-1.444-4.067,0.912-6.719
			c2.361-2.648,5.775-3.938,7.629-2.876C223.582,203.51,222.618,205.952,220.258,208.6z M212.818,213.128
			c-1.412-0.174-2.73,0.602-2.946,1.734c-0.218,1.13,0.752,2.188,2.163,2.361c1.41,0.173,2.729-0.604,2.944-1.735
			C215.197,214.358,214.228,213.3,212.818,213.128z"/>
	</g>
	<path opacity="0.2" fill="#231F20" d="M235.445,202.263h0.008c0,0-0.019-0.008-0.044-0.02c-0.396-0.222-0.801-0.431-1.223-0.626
		c-0.647-0.364-1.484-0.884-2.355-1.552c0.318,4.713,0.635,24.286-15.833,25.572c2.762,1.411,6.049,2.221,9.568,2.192
		c9.683-0.076,17.455-6.429,17.359-14.191C242.87,208.925,239.92,204.776,235.445,202.263z"/>
</g>
<g>
	<g>
		<g>
			<path fill="#7CAB43" d="M172.364,165.017l-3.984-2.932c0,0-3.886,16.425-0.406,29.309l1.003,1.474
				C168.977,192.868,167.284,179.332,172.364,165.017z"/>
			<path fill="#7CAB43" d="M159.062,168.093l3.249-3.479c0,0,7.573,15.555,7.099,28.74l-0.648,1.598
				C168.761,194.952,167.327,181.396,159.062,168.093z"/>
			<path fill="#7CAB43" d="M162.215,162.525l3.924-2.976c0,0,4.215,16.378,0.99,29.301l-0.974,1.483
				C166.155,190.334,167.578,176.78,162.215,162.525z"/>
		</g>
		<path fill="#FD9125" d="M185.274,211.908c0.979,21.482-5.153,51.255-14.381,51.526c-9.229,0.271-18.058-29.065-19.037-50.547
			c-0.979-21.484,6.261-26.979,15.49-27.25C176.575,185.368,184.295,190.423,185.274,211.908z"/>
		<g>
			<path fill="#EF8220" d="M153.549,227.727c0.212,1.215,0.443,2.43,0.69,3.639c7.623-0.356,12.736-3.314,12.736-3.314
				C162.447,228.937,157.315,228.404,153.549,227.727z"/>
			<path fill="#EF8220" d="M172.509,236.434c0,0,4.861,1.24,11.212,0.353c0.192-1.187,0.368-2.387,0.528-3.598
				C181.016,234.656,176.752,236.169,172.509,236.434z"/>
			<path fill="#EF8220" d="M151.797,211.251c7.897,0.141,13.459-2.674,13.459-2.674c-4.626,0.667-9.755-0.137-13.471-1.009
				C151.759,208.737,151.762,209.963,151.797,211.251z"/>
			<path fill="#EF8220" d="M185.377,216.133c-0.005-1.435-0.04-2.848-0.103-4.225c0-0.018-0.001-0.032-0.001-0.05
				c-3.259,1.722-8.88,4.233-14.465,4.581C170.808,216.439,177.465,218.137,185.377,216.133z"/>
			<path fill="#EF8220" d="M182.931,197.33c-0.509-1.517-1.092-2.854-1.735-4.031c-3.278,1.205-10.224,3.375-16.508,2.846
				C164.688,196.146,172.848,199.636,182.931,197.33z"/>
			<path fill="#EF8220" d="M159.686,250.054c5.026-0.958,8.167-2.774,8.167-2.774c-2.97,0.58-6.197,0.551-9.13,0.27
				C159.036,248.407,159.357,249.244,159.686,250.054z"/>
		</g>
	</g>
	<path opacity="0.1" fill="#231F20" d="M185.274,211.908c-0.052-1.153-0.127-2.25-0.217-3.31
		c-3.265,13.576-10.74,32.554-27.316,36.121c3.549,10.798,8.294,18.857,13.152,18.715
		C180.122,263.163,186.254,233.391,185.274,211.908z"/>
	<path opacity="0.2" fill="#FFFFFF" d="M166.18,204.353c-0.528,5.855-3.137,10.474-5.825,10.318
		c-2.69-0.156-4.441-5.028-3.913-10.884c0.53-5.854,3.138-10.473,5.827-10.317C164.958,193.626,166.708,198.499,166.18,204.353z"/>
</g>
<g>
	<path fill="#256E25" d="M284.655,186.933c0,0-11.201,0.476-11.147,20.084c0.053,19.609-8.252,30.191-11.765,36.646
		c-3.513,6.456,9.097,16.913,22.274-0.937C297.195,224.879,306.033,185.494,284.655,186.933z"/>
	<path opacity="0.2" fill="#231F20" d="M284.862,236.619c-1.91,2.396-0.931,1.316-1.989,3.439c-1.06,2.123-0.441,1.361-3.48,4.241
		c-3.037,2.88-0.045,0.464-1.563,2.429c-1.521,1.966-1.18,1.762-1.893,3.796l0,0c-1.417,0.854-2.78,1.421-4.071,1.751
		c0.113-0.326,0.217-0.609,0.296-0.8c0.34-0.809,1.246-1.64,1.997-2.856c0.75-1.218,1.276-1.87,2.479-3.164
		c1.202-1.293,1.497-2.434,1.861-3.568c0.364-1.134,0.736-1.567,1.646-3.019c0.908-1.45,2.237-3.404,3.369-5.055
		c1.131-1.65,0.082-1.86,0.715-3.554c0.634-1.694,0.946-3.417,1.346-5.248s0.638-2.512,1.218-4.425
		c0.58-1.915,1.351-3.632,2.323-5.296c0.968-1.665,0.481-2.524,0.638-4.611c0.152-2.086-0.157-3.164-0.636-4.822
		c-0.476-1.659,0.731-4.388,0.769-5.555c0.038-1.167,0.757-5.469,0.757-5.469l2.711-5.13c0.403,0.394,0.776,0.825,1.118,1.291
		c-0.416,0.557-0.824,1.192-1.105,1.888c-0.885,2.181-0.419,4.079-0.34,6.661c0.08,2.58,0.099,3.501,0.307,6.204
		c0.208,2.702,0.097,3.509-0.813,5.88c-0.909,2.369-1.133,3.982-2.186,6.34c-1.054,2.356-0.479,3.458-0.783,5.648
		c-0.302,2.19-0.255,1.844-0.623,4.496c-0.364,2.65-0.461,1.242-1.37,4.662C286.647,236.193,286.773,234.221,284.862,236.619z
		 M271.92,243.753c1.198-1.295,1.342-1.281,2.683-2.563c1.342-1.281,2.102-1.447,3.087-3.343c0.985-1.896,2.035-2.27,1.91-3.915
		c-0.125-1.645-0.947-3.002-0.794-4.154c0.155-1.152-0.219-1.536,0.399-2.882s0.485-0.54,1.716-2.532
		c1.233-1.99,2.004-2.819,2.504-4.076c0.502-1.258,1.688-4.564,1.688-4.564s-0.355-1.646,0.539-3.896
		c0.893-2.249,1.768-1.822,1.515-4.411c-0.256-2.59-0.495-2.961-0.145-5.497c0.352-2.536-0.049-2.806,0.718-5.188
		c0.768-2.382,1.293-3.648,1.693-5.698c0.236-1.22,0.491-2.424,0.668-3.401c-1.133-0.43-2.408-0.68-3.837-0.727
		c-0.15,2.255-0.272,5.426-0.039,8.002c0.412,4.527-0.237,7.89-1.46,10.563c-1.225,2.674-1.325,8.851-1.752,10.796
		c-0.428,1.945-2.023,5.07-3.926,7.236c-1.901,2.164-3.623,4.112-4.04,7.108c-0.413,2.997,0.881,3.112-0.845,6.11
		c-1.725,2.997-10.838,12.72-11.399,13.296l-0.002,0.002c0.372,0.408,0.799,0.784,1.278,1.117c0.063,0.04,3.865-1.786,5.157-3.771
		C270.531,245.38,270.722,245.046,271.92,243.753z M266.399,243.145c0.008-0.582,0.185-0.801,1.461-1.621
		c1.279-0.819-0.654,0.525,1.279-0.819c1.933-1.345,1.361-1.423,2.686-2.575c1.323-1.152,1.558-1.015,1.447-2.191
		c-0.109-1.176-0.369,0.434,0.287-2.075c0.658-2.509-0.067-1.756,0.495-3.573c0.561-1.817-0.419-1.32,0.366-2.651
		c0.786-1.33,0.465-1.125,1.823-3.572c1.357-2.446,1.021-3.178,1.677-4.753c0.654-1.574,0.089,0.403,0.922-2.462
		s-0.475-2.874,0.769-5.561c1.246-2.685-0.043-3.615,1.015-6.673c1.06-3.057,0.279-3.693,1.045-6.085
		c0.764-2.39,0.201-4.019,0.954-6.605c0.508-1.75,0.492-3.424,0.336-4.63c-0.919,0.301-2.116,0.849-3.35,1.85
		c-0.466,2.747-0.994,6.195-0.774,6.561c0.371,0.615-0.042,4.663-0.139,5.354c-0.096,0.691-0.303,2.191-0.414,2.998
		s0.463,1.907,0.16,4.098s-0.43,3.112-0.654,4.727c-0.223,1.613-0.792,2.029-1.233,3.392c-0.442,1.36-0.015,2.448-1.282,3.736
		c-1.269,1.288-0.79,0.98-1.492,2.901c-0.701,1.921-0.717,2.037-1.371,3.612c-0.655,1.575-0.721,2.036-1.535,3.715
		c-0.812,1.678-0.702,1.921-1.723,4.048c-1.021,2.126,1.925,1.819-1.499,3.47c-3.292,1.588-3.584,1.926-4.146,2.863
		c-0.017,0.027-0.032,0.054-0.047,0.08c-0.008,0.012-0.014,0.023-0.021,0.034c-0.611,1.029,0.082,1.629-1.312,2.234l0,0
		c-0.134,0.236-0.264,0.468-0.387,0.694c-0.476,0.875-0.655,1.822-0.579,2.763c0.154-0.042,0.324-0.106,0.516-0.201
		C263.085,245.534,266.392,243.729,266.399,243.145z"/>
	<path opacity="0.2" fill="#231F20" d="M297.397,199.98c-4.842,12.714-15.509,34.479-33.084,39.288
		c-0.979,1.655-1.869,3.107-2.57,4.396c-3.513,6.456,9.097,16.913,22.274-0.937C292.099,231.782,298.546,212.742,297.397,199.98z"/>
	<g>
		<path opacity="0.1" fill="#FFFFFF" d="M276.904,202.078c0.88-4.197,3.294-7.372,5.399-7.088c2.102,0.281,0.613,3.873-0.264,8.072
			c-0.877,4.197-0.815,7.414-2.917,7.13C277.021,209.91,276.026,206.278,276.904,202.078z"/>
		<path opacity="0.1" fill="#FFFFFF" d="M275.86,214.472c0.418-1.527,1.464-2.641,2.335-2.488c0.874,0.153,1.243,1.516,0.829,3.042
			c-0.418,1.527-1.464,2.643-2.337,2.489C275.815,217.36,275.445,215.998,275.86,214.472z"/>
	</g>
</g>
<g>
	<g>
		<path fill="#6F9933" d="M273.729,203.782c-5.298,2.042-2.718-3.436-0.324-7.066c2.394-3.635-3.548-1.977-6.138-0.53
			c-2.588,1.446,1.778-7.012-4.455-7.876c-6.324,0.178-3.43,9.033-5.75,7.317c-2.32-1.715-7.925-4.002-6.169-0.143
			c1.755,3.859,3.386,9.566-1.519,6.967c-4.901-2.601-7.386,0.462-5.418,4.837c1.967,4.374,8.847,9.978,6.165,9.5
			s-10.134-2.579-5.606,7.195s14.49,9.102,14.49,9.102s9.756,1.75,15.896-7.442c6.141-9.191-1.598-7.918-4.336-7.739
			c-2.738,0.182,5.027-4.621,7.715-8.74C280.969,205.042,279.024,201.738,273.729,203.782z"/>
		<path opacity="0.1" fill="#FFFFFF" d="M264.083,205.144c-1.307,2.051-0.408-3.01,0.338-6.393c0.747-3.384-0.68-1.658-1.343-0.249
			c-0.666,1.407,0.806-6.423-0.541-6.973c-1.429,0.396-1.294,8.316-1.716,6.849c-0.42-1.467-1.545-3.332-1.374,0.1
			c0.17,3.435,0.201,8.548-0.747,6.373c-0.947-2.175-1.683,0.696-1.495,4.589c0.186,3.891,1.401,8.711,0.827,8.381
			c-0.573-0.333-2.122-1.96-1.676,6.732c0.445,8.69,2.719,7.706,2.719,7.706s2.085,1.223,3.996-7.34
			c1.913-8.563,0.104-7.118-0.521-6.853c-0.623,0.267,1.397-4.379,2.24-8.215C265.632,206.017,265.389,203.094,264.083,205.144z"/>
	</g>
	<g>
		<path fill="#7CAB43" d="M287.915,214.712c-5.822,0.65-1.28-3.936,2.379-6.811c3.659-2.876-2.627-2.749-5.644-2.004
			c-3.016,0.745,4.359-6.243-1.25-8.591c-6.091-1.375-6.7,7.766-8.259,5.565c-1.558-2.2-6.026-5.749-5.82-1.644
			c0.203,4.104-0.414,9.938-4.094,6.264c-3.681-3.675-7.211-1.365-7.002,3.281c0.21,4.646,4.633,11.665,2.26,10.555
			c-2.374-1.107-8.672-4.933-8.074,5.483c0.594,10.416,10.34,12.209,10.34,12.209s8.625,4.052,17.968-3.201
			c9.343-7.254,1.487-7.933-1.188-8.43c-2.675-0.497,6.546-3.175,10.674-6.441C294.331,217.683,293.737,214.06,287.915,214.712z"/>
		<path opacity="0.1" fill="#FFFFFF" d="M278.211,213.652c-2.025,1.633,0.756-2.969,2.754-6.006c1.998-3.04-0.018-1.746-1.187-0.567
			c-1.168,1.179,3.212-5.92,2.138-6.772c-1.513,0.03-4.397,7.604-4.239,6.104c0.156-1.5-0.202-3.551-1.348-0.239
			c-1.145,3.312-3.057,8.188-3.133,5.887c-0.076-2.302-1.868,0.251-3.17,4.003c-1.302,3.751-1.978,8.642-2.397,8.184
			c-0.419-0.455-1.275-2.384-4.155,6.003c-2.883,8.386-0.343,8.004-0.343,8.004s1.521,1.674,6.597-6.014
			c5.077-7.688,2.806-6.754,2.109-6.653c-0.695,0.102,2.995-3.828,5.256-7.275C279.354,214.861,280.235,212.019,278.211,213.652z"/>
	</g>
</g>
<g>
	<path fill="#5F266B" d="M224.851,239.955c1.772-9.336,5.968-18.979,7.505-24.816c1.346-5.106,2.392-10.443,2.651-15.667
		c0.337-6.735,3.119-8.959,11.723-7.958c11.308,1.318,21.302,37.82,7.569,61.801c-2.39,4.175-6.652,9.898-12.38,11.46
		c-6.129,1.671-11.534-2.216-14.542-6.013C223.055,253.308,223.685,246.098,224.851,239.955z"/>
	<g>
		<path fill="#7CAB43" d="M244.665,192.29c0.169-0.016,0.335-0.028,0.504-0.038c-0.422-8.913-3.634-17.491-3.634-17.491
			l-2.904,2.627c2.747,5.496,4.159,10.944,4.885,15.073C243.892,192.389,244.275,192.332,244.665,192.29z"/>
		<path fill="#7CAB43" d="M244.647,190.562c0,0,4.48-0.527,6.681,2.514c2.202,3.041,3.396,0.918,3.396,0.918
			s-0.756,6.532-7.077,2.264c-6.323-4.27-3.675-4.421-3.675-4.421"/>
		<path fill="#7CAB43" d="M243.696,190.355c0,0-4.406-0.833-6.925,2.044c-2.52,2.879-3.481,0.681-3.481,0.681
			s0.053,6.561,6.808,2.743c6.757-3.818,4.136-4.151,4.136-4.151"/>
		<path fill="#7CAB43" d="M243.414,190.842c0,0-3.819,0.895-3.04,4.074c0.781,3.179-0.456,3.349-0.456,3.349s4.8,2.626,5.99-3.441
			s-1.039-3.44-1.039-3.44"/>
	</g>
	<path opacity="0.2" fill="#231F20" d="M256.213,201.494c0.049,11.373-2.289,45.691-32.219,46.043
		c-0.037,3.968,0.764,7.922,3.383,11.226c3.008,3.797,8.413,7.684,14.542,6.013c5.728-1.562,9.99-7.285,12.38-11.46
		C263.767,236.782,261.956,214.297,256.213,201.494z"/>
	<path opacity="0.1" fill="#FFFFFF" d="M240.927,213.91c-0.901,4.553-3.479,8.01-5.763,7.72c-2.281-0.289-0.714-4.19,0.188-8.745
		c0.9-4.555,0.792-8.036,3.074-7.747C240.706,205.427,241.826,209.354,240.927,213.91z"/>
	<path opacity="0.1" fill="#FFFFFF" d="M234.198,226.189c-0.586,1.389-1.701,2.341-2.492,2.128
		c-0.794-0.217-0.965-1.515-0.385-2.902c0.583-1.388,1.701-2.341,2.493-2.126C234.607,223.505,234.779,224.803,234.198,226.189z"/>
</g>
<g>
	<path fill="#EF4224" d="M193.801,190.529c0,0-12.927,0.888-10.144,10.176c2.784,9.287,0.778,25.021-4.796,29.321
		c-5.574,4.299,14.283,8.138,19.513-14.32C203.602,193.248,201.309,190.028,193.801,190.529z"/>
	<path opacity="0.1" fill="#231F20" d="M198.374,215.706c3.09-13.275,3.552-19.828,1.863-22.864
		c-1.042,6.473-5.033,25.001-17.155,30.108c-1.014,3.141-2.434,5.697-4.221,7.076C173.288,234.325,193.145,238.164,198.374,215.706z
		"/>
	<path opacity="0.2" fill="#FFFFFF" d="M189.412,197.475c-0.518,1.621-1.936,2.733-3.168,2.48c-1.231-0.252-1.81-1.772-1.292-3.396
		s1.938-2.733,3.168-2.482C189.351,194.33,189.93,195.851,189.412,197.475z"/>
	<g>
		<path fill="#7CAB43" d="M188.831,192.445c0,0,3.786,0.945,5.642-1.182C194.473,191.264,191.928,190.247,188.831,192.445z"/>
		<path fill="#7CAB43" d="M188.456,183.884l-1.807,0.12c0,0,4.703,3.508,4.642,7.97l1.025-0.36
			C192.315,191.614,193.267,187.407,188.456,183.884z"/>
	</g>
</g>
<g>
	<path fill="#F29C1D" d="M153.584,200.353c-3.166-0.401-6.427,0.26-9.439,1.721c-3.011-1.461-6.271-2.122-9.439-1.721
		c-8.728,1.104-13.432,9.822-10.508,19.473c2.795,9.227,11.556,15.96,19.948,15.565c8.392,0.395,17.152-6.339,19.947-15.565
		C167.018,210.175,162.311,201.457,153.584,200.353z"/>
	<path fill="#7CAB43" d="M138.099,203.817l13.158,1.136c0,0-3.791-1.477-4.442-5.182c-0.65-3.705-1.54-9.601-7.177-9.601
		c-5.636,0-6.489,4.409-5.279,5.666c1.21,1.256,4.427,0.043,4.427,0.043s-1.65-1.836-0.33-3.31c1.32-1.473,5.763,0.793,4.12,5.403
		C140.931,202.583,138.099,203.817,138.099,203.817z"/>
	<g>
		<g>
			<g>
				<path fill="#F29C1D" d="M169.715,221.047c-2.6,8.741-11.058,15.128-18.887,14.265c-7.83-0.863-12.069-8.651-9.466-17.395
					c2.601-8.743,11.057-15.13,18.887-14.266C168.078,204.515,172.316,212.304,169.715,221.047z"/>
			</g>
			<g>
				<path fill="#F29C1D" d="M145.902,218.321c1.93,8.806-2.9,16.466-10.788,17.107c-7.886,0.64-15.845-5.979-17.774-14.786
					c-1.93-8.808,2.9-16.466,10.788-17.107C136.014,202.895,143.973,209.515,145.902,218.321z"/>
			</g>
		</g>
	</g>
	<ellipse fill="#F8A71A" cx="143.783" cy="219.063" rx="16.494" ry="17.142"/>
	<path opacity="0.2" fill="#FFFFFF" d="M137.893,213.621c-1.109,3.743-2.533,6.682-4.541,6.315
		c-2.011-0.366-2.741-3.696-1.632-7.441c1.11-3.742,3.637-6.479,5.647-6.114C139.375,206.748,139,209.876,137.893,213.621z"/>
	<path opacity="0.2" fill="#FFFFFF" d="M124.907,210.719c-1.104,2.025-2.285,3.571-3.374,3.2c-1.09-0.371-1.078-2.316,0.025-4.345
		c1.105-2.025,2.884-3.366,3.974-2.993C126.623,206.951,126.011,208.691,124.907,210.719z"/>
</g>
<g>
	<path fill="#734939" d="M115.931,195.39c-0.206,0.034-0.406,0.075-0.605,0.117c-4.061-10.516-4.7-21.559-4.7-21.559l4.723,2.107
		c-0.393,7.301,0.746,14.108,2.006,19.155C116.881,195.249,116.406,195.307,115.931,195.39z"/>
	<path fill="#FFC809" d="M143.132,217.943c-5.339-4.349-8.995-6.81-13.812-17.506c-4.818-10.698-11.97-9.719-11.97-9.719l-3.9,0.614
		c0,0-7.084,1.261-6.5,12.625c0.583,11.363-1.641,14.749-4.534,20.394c-2.892,5.644,0.151,25.531,24.432,21.711l3.901-0.614
		C155.029,241.626,148.471,222.293,143.132,217.943z"/>
	<path opacity="0.1" fill="#231F20" d="M132.811,207.157c0.663,12.797-3.023,30.531-28.018,32.107
		c3.539,4.948,10.313,8.644,22.055,6.797l3.901-0.614c24.28-3.821,17.722-23.154,12.383-27.504
		C139.149,214.699,136.102,212.504,132.811,207.157z"/>
	<path opacity="0.2" fill="#FFFFFF" d="M117.282,206.392c0.492,4.625-0.832,8.491-2.955,8.637c-2.125,0.146-4.245-3.486-4.737-8.111
		c-0.49-4.625,0.832-8.492,2.958-8.638C114.672,198.135,116.791,201.766,117.282,206.392z"/>
</g>
<g>
	<g>
		<g>
			<path fill="#7CAB43" d="M102.322,202.017l-2.479-1.122c0,0,0.315,8.729,3.944,14.973l0.728,0.657
				C104.514,216.524,101.72,209.782,102.322,202.017z"/>
			<path fill="#7CAB43" d="M96.718,207.418l1.187-2.074c0,0,6.129,7.221,7.751,13.982l-0.11,0.874
				C105.547,220.2,102.883,213.427,96.718,207.418z"/>
			<path fill="#7CAB43" d="M97.561,204.288l1.612-1.882c0,0,4.503,7.953,4.665,14.838l-0.294,0.846
				C103.543,218.09,102.359,211.052,97.561,204.288z"/>
		</g>
		<g>
			<g>
				<path fill="#F1E5D5" d="M114.158,217.466c1.148,1.063,2.051,2.272,2.496,3.635c1.907,5.828-0.375,11.486-5.146,13.576
					l1.971-0.416C129.421,229.232,122.635,219.698,114.158,217.466z"/>
				<path fill="#F1E5D5" d="M94.733,225.71c-0.446-1.363-0.401-2.771-0.051-4.148c-6.017,5.281-6.093,16.258,10.875,14.365
					l1.972-0.414C102.094,235.57,96.64,231.538,94.733,225.71z"/>
				<path fill="#E9D1B7" d="M109.584,235.293c0.68-0.143,1.32-0.353,1.925-0.616l-3.979,0.836
					C108.217,235.506,108.903,235.437,109.584,235.293z"/>
				<path fill="#F2E2D3" d="M116.654,221.101c-0.445-1.362-1.348-2.572-2.496-3.635c-0.686-0.182-1.382-0.314-2.078-0.395
					c-7.643-0.866-10.21-5.354-10.21-5.354s0.512,4.92-5.617,8.684c-0.559,0.341-1.083,0.731-1.57,1.16
					c-0.351,1.377-0.396,2.785,0.051,4.148c1.907,5.828,7.361,9.86,12.796,9.803l3.979-0.836
					C116.279,232.587,118.561,226.929,116.654,221.101z"/>
			</g>
			<g>
				<path opacity="0.8" fill="#E9D1B7" d="M100.74,224.447c-0.897-2.742-0.857-5.448-0.509-7.672
					c-0.836,1.199-2.093,2.466-3.979,3.626c-0.559,0.341-1.083,0.731-1.57,1.16c-0.351,1.377-0.396,2.785,0.051,4.148
					c1.907,5.828,7.361,9.86,12.796,9.803l1.09-0.229C105.981,234.752,102.647,230.275,100.74,224.447z"/>
				<path fill="#E9D1B7" d="M114.158,217.466c-0.686-0.182-1.382-0.314-2.078-0.395c-2.353-0.266-4.223-0.876-5.688-1.594
					c1.666,1.801,3.358,4.143,4.255,6.886c1.907,5.829,1.744,11.041-0.23,12.542l1.091-0.229c4.77-2.09,7.052-7.748,5.146-13.576
					C116.209,219.738,115.307,218.528,114.158,217.466z"/>
				<path opacity="0.8" fill="#F1E5D5" d="M109.584,235.293c0.307-0.064,0.584-0.197,0.834-0.388l-1.798,0.378
					C108.954,235.351,109.276,235.358,109.584,235.293z"/>
				<path opacity="0.8" fill="#E6E7E8" d="M110.648,222.363c-0.897-2.743-2.59-5.085-4.255-6.886c-3.291-1.61-4.523-3.76-4.523-3.76
					s0.244,2.356-1.638,5.058c-0.348,2.224-0.389,4.93,0.509,7.672c1.907,5.828,5.241,10.305,7.879,10.836l1.798-0.378
					C112.392,233.404,112.555,228.192,110.648,222.363z"/>
				<path fill="#F1E5D5" d="M110.648,222.363c-0.897-2.743-2.59-5.085-4.255-6.886c-3.291-1.61-4.523-3.76-4.523-3.76
					s0.244,2.356-1.638,5.058c-0.348,2.224-0.389,4.93,0.509,7.672c1.907,5.828,5.241,10.305,7.879,10.836l1.798-0.378
					C112.392,233.404,112.555,228.192,110.648,222.363z"/>
			</g>
		</g>
		<path fill="#7CAB43" d="M103.559,213.617c-1.239-1.063-1.993-2.828-1.993-2.828s0.37,1.578,0.162,2.587l0,0l0,0
			c-0.063,0.299-0.149,0.632-0.27,0.988l0.766-0.665l0.883,1.8l-0.152-1.645l2.012,1.733
			C104.968,215.588,104.078,214.782,103.559,213.617z"/>
	</g>
	<path opacity="0.4" fill="#FFFFFF" d="M104.599,221.749c0.608,2.098,0.809,3.854-0.312,4.072c-1.121,0.218-2.523-1.306-3.131-3.402
		c-0.608-2.098-0.192-3.975,0.929-4.193C103.206,218.009,103.99,219.65,104.599,221.749z"/>
	<path opacity="0.4" fill="#FFFFFF" d="M98.198,225.188c0.497,1.634,0.67,2.999-0.209,3.15c-0.879,0.152-1.995-1.05-2.492-2.684
		c-0.496-1.635-0.187-3.082,0.693-3.234C97.07,222.269,97.702,223.554,98.198,225.188z"/>
	<path opacity="0.4" fill="#FFFFFF" d="M94.404,229.944c0.488,1.339,0.696,2.464-0.024,2.616c-0.722,0.152-1.703-0.809-2.191-2.147
		s-0.299-2.548,0.422-2.7C93.333,227.561,93.916,228.605,94.404,229.944z"/>
	<path opacity="0.05" fill="#231F20" d="M114.158,217.466c-0.686-0.182-1.382-0.314-2.078-0.395
		c-0.271-0.03-0.535-0.067-0.792-0.106c-0.081-0.012-0.158-0.025-0.237-0.039c-0.178-0.029-0.355-0.061-0.529-0.094
		c-0.045-0.01-0.091-0.019-0.137-0.027c2.418,3.603,8.045,13.678-0.8,18.488c0.68-0.143,1.32-0.353,1.925-0.616l1.971-0.416
		C129.421,229.232,122.635,219.698,114.158,217.466z"/>
</g>
<g>
	<polygon fill="#D18933" points="102.806,235.654 112.311,276.79 277.233,276.79 286.737,235.654 	"/>
	<g>
		<path fill="#734939" d="M140.353,261.839c0,2.421-2.447,4.383-5.466,4.383l0,0c-3.019,0-5.466-1.962-5.466-4.383v-7.451
			c0-2.421,2.447-4.383,5.466-4.383l0,0c3.019,0,5.466,1.962,5.466,4.383V261.839z M170.295,254.388
			c0-2.421-2.447-4.383-5.466-4.383l0,0c-3.019,0-5.466,1.962-5.466,4.383v7.451c0,2.421,2.447,4.383,5.466,4.383l0,0
			c3.019,0,5.466-1.962,5.466-4.383V254.388z M200.237,254.388c0-2.421-2.447-4.383-5.466-4.383l0,0
			c-3.018,0-5.465,1.962-5.465,4.383v7.451c0,2.421,2.447,4.383,5.465,4.383l0,0c3.019,0,5.466-1.962,5.466-4.383V254.388z
			 M230.18,254.388c0-2.421-2.447-4.383-5.465-4.383l0,0c-3.019,0-5.467,1.962-5.467,4.383v7.451c0,2.421,2.448,4.383,5.467,4.383
			l0,0c3.018,0,5.465-1.962,5.465-4.383V254.388z M260.123,254.388c0-2.421-2.447-4.383-5.466-4.383l0,0
			c-3.019,0-5.466,1.962-5.466,4.383v7.451c0,2.421,2.447,4.383,5.466,4.383l0,0c3.019,0,5.466-1.962,5.466-4.383V254.388z"/>
	</g>
	<path opacity="0.2" fill="#231F20" d="M102.806,235.654l2.906,11.188c29.875-1.449,138.815-4.251,167.156,29.947h4.366
		l9.504-41.136H102.806z"/>
</g>
<g>
	<path fill="#EB9A3E" d="M302.66,234.814c0,3.157-3.191,5.716-7.129,5.716H94.012c-3.938,0-7.129-2.559-7.129-5.716v-2.583
		c0-3.156,3.191-5.715,7.129-5.715h201.519c3.938,0,7.129,2.559,7.129,5.715V234.814z"/>
	<g>
		<path opacity="0.2" fill="#FFFFFF" d="M147.531,232.131c0,1.428-1.444,2.585-3.225,2.585H95.813c-1.78,0-3.224-1.157-3.224-2.585
			l0,0c0-1.428,1.444-2.585,3.224-2.585h48.492C146.086,229.546,147.531,230.703,147.531,232.131L147.531,232.131z"/>
		<path opacity="0.2" fill="#FFFFFF" d="M168.841,232.131c0,1.428-1.444,2.585-3.225,2.585h-10.678
			c-1.781,0-3.225-1.157-3.225-2.585l0,0c0-1.428,1.443-2.585,3.225-2.585h10.678C167.397,229.546,168.841,230.703,168.841,232.131
			L168.841,232.131z"/>
	</g>
</g>
<g>
	<path fill="#F29C1D" d="M209.969,193.802c-1.879-0.401-3.814,0.261-5.604,1.722c-1.787-1.461-3.724-2.123-5.605-1.722
		c-5.182,1.104-7.975,9.823-6.239,19.473c1.659,9.229,6.861,15.961,11.845,15.567c4.984,0.394,10.186-6.339,11.846-15.567
		C217.946,203.625,215.151,194.906,209.969,193.802z"/>
	<path fill="#7CAB43" d="M200.774,197.267l7.813,1.137c0,0-2.251-1.478-2.638-5.182c-0.388-3.705-0.913-9.601-4.262-9.601
		c-3.347,0-3.854,4.409-3.135,5.667c0.719,1.256,2.628,0.042,2.628,0.042s-0.979-1.836-0.195-3.31
		c0.784-1.473,3.422,0.793,2.447,5.403C202.457,196.032,200.774,197.267,200.774,197.267z"/>
	<g>
		<g>
			<g>
				<path fill="#F29C1D" d="M219.549,214.497c-1.544,8.741-6.566,15.129-11.215,14.265c-4.65-0.864-7.166-8.651-5.622-17.395
					c1.545-8.743,6.565-15.13,11.216-14.267C218.576,197.965,221.092,205.754,219.549,214.497z"/>
			</g>
			<g>
				<path fill="#F29C1D" d="M205.408,211.771c1.146,8.806-1.723,16.465-6.406,17.106c-4.683,0.641-9.408-5.979-10.554-14.785
					c-1.146-8.808,1.722-16.467,6.405-17.107C199.537,196.344,204.262,202.964,205.408,211.771z"/>
			</g>
		</g>
	</g>
	<ellipse fill="#F8A71A" cx="204.149" cy="212.514" rx="9.794" ry="17.142"/>
	<path opacity="0.2" fill="#FFFFFF" d="M200.652,207.071c-0.658,3.742-1.504,6.682-2.696,6.315c-1.194-0.367-1.628-3.697-0.97-7.441
		c0.66-3.742,2.16-6.48,3.354-6.114C201.533,200.198,201.31,203.326,200.652,207.071z"/>
	<path opacity="0.2" fill="#FFFFFF" d="M192.941,204.169c-0.656,2.025-1.356,3.571-2.003,3.2c-0.647-0.372-0.64-2.317,0.015-4.345
		c0.657-2.025,1.712-3.366,2.359-2.993C193.961,200.401,193.598,202.142,192.941,204.169z"/>
</g>
</svg>
