<?xml version="1.0" encoding="utf-8"?>
<!-- Generator: Adobe Illustrator 16.0.0, SVG Export Plug-In . SVG Version: 6.00 Build 0)  -->
<!DOCTYPE svg PUBLIC "-//W3C//DTD SVG 1.1//EN" "http://www.w3.org/Graphics/SVG/1.1/DTD/svg11.dtd">
<svg version="1.1" id="Capa_1" xmlns="http://www.w3.org/2000/svg" xmlns:xlink="http://www.w3.org/1999/xlink" x="0px" y="0px"
	 width="400px" height="400px" viewBox="0 0 400 400" enable-background="new 0 0 400 400" xml:space="preserve">
<g>
	<g>
		<g>
			<g>
				<g>
					<path fill="#0A8369" d="M171.022,295.264c-3.713-0.211-12.58-0.141-12.326,3.105c0.256,3.242,4.477,3.875,9.586,1.684
						C174.313,297.471,171.884,295.328,171.022,295.264L171.022,295.264z"/>
				</g>
			</g>
			<g>
				<g>
					<path fill="#0A0A0A" d="M162.213,301.605L162.213,301.605c-2.279-0.176-3.668-1.346-3.818-3.219
						c-0.043-0.58,0.163-1.105,0.611-1.553c2.292-2.285,10.423-1.953,12.037-1.867c0.513,0.041,1.328,0.57,1.471,1.424
						c0.16,0.922-0.422,2.354-4.114,3.934C166.113,301.305,163.974,301.748,162.213,301.605L162.213,301.605z M171,295.553
						c-3.469-0.195-9.816-0.051-11.565,1.689c-0.33,0.326-0.471,0.689-0.44,1.104c0.122,1.57,1.28,2.523,3.265,2.68
						c1.64,0.131,3.737-0.313,5.9-1.238c3.641-1.559,3.848-2.828,3.765-3.303C171.828,295.92,171.264,295.576,171,295.553
						L171,295.553z"/>
				</g>
			</g>
		</g>
		<g>
			<g>
				<g>
					<g>
						<path fill="#0AB679" d="M215.336,287.539c-2.958,3.545-7.42,9.406-6.572,11.1c2.085,0.363,4.734-1.854,7.486-5.258
							c2.69-3.33,3.078-6.326,1.774-7.555C217.393,285.691,216.504,286.139,215.336,287.539z"/>
					</g>
				</g>
				<g>
					<g>
						<path fill="#0A0A0A" d="M208.978,298.963L208.978,298.963c-0.091-0.008-0.183-0.02-0.269-0.035l-0.154-0.025l-0.063-0.135
							c-0.903-1.805,3.101-7.201,6.616-11.412c1.146-1.381,2.168-1.996,2.98-1.814l0.145,0.076c1.562,1.471,0.847,4.734-1.752,7.945
							C213.42,297.35,210.967,299.119,208.978,298.963L208.978,298.963z M208.981,298.375c1.788,0.219,4.118-1.57,7.028-5.174
							c2.613-3.234,2.918-5.984,1.875-7.094c-0.434-0.008-1.153,0.225-2.316,1.619C211.133,293.037,208.649,297.064,208.981,298.375
							L208.981,298.375z"/>
					</g>
				</g>
			</g>
			<g>
				<g>
					<g>
						<path fill="#0A8369" d="M207.135,292.244c-1.584,1.629-1.734,4.191,0.473,5.891c0.356,0.277,0.747,0.436,1.156,0.504
							c-0.848-1.693,3.614-7.555,6.572-11.1c1.168-1.4,2.057-1.848,2.688-1.713c-0.294-0.27-0.661-0.457-1.114-0.541
							C214.434,284.836,208.455,290.881,207.135,292.244z"/>
					</g>
				</g>
				<g>
					<g>
						<path fill="#0A0A0A" d="M209.29,299.025l-0.581-0.098c-0.474-0.078-0.905-0.266-1.287-0.564
							c-1.07-0.822-1.677-1.879-1.768-3.051c-0.081-1.164,0.377-2.355,1.262-3.273c2.177-2.242,7.609-7.475,10.051-7.043
							c0.496,0.092,0.926,0.303,1.266,0.621l0.766,0.723l-1.041-0.225c-0.004-0.002-0.011-0.002-0.016-0.002
							c-0.425-0.035-1.158,0.156-2.373,1.613c-4.602,5.51-7.107,9.645-6.54,10.787L209.29,299.025L209.29,299.025z M216.852,285.574
							c-1.977-0.152-6.182,3.447-9.5,6.867c-0.77,0.799-1.172,1.824-1.098,2.826c0.08,1.008,0.609,1.918,1.536,2.637
							c0.181,0.139,0.369,0.244,0.577,0.324c-0.096-2.18,3.522-7.023,6.74-10.873c0.741-0.895,1.423-1.465,2.037-1.707
							c-0.089-0.031-0.188-0.055-0.287-0.074H216.852L216.852,285.574z"/>
					</g>
				</g>
			</g>
		</g>
		<g>
			<g>
				<g>
					<path fill="#0A0A0A" d="M170.5,295.545c-7.586-13.314-6.43-36.736-6.374-37.723l1.197,0.059
						c-0.009,0.244-1.189,24.072,6.224,37.094L170.5,295.545L170.5,295.545z"/>
				</g>
			</g>
			<g>
				<g>
					<path fill="#0A0A0A" d="M206.389,292.875c-7.87-10.67-10.417-35.578-10.518-36.631l1.193-0.115
						c0.024,0.258,2.619,25.648,10.296,36.059L206.389,292.875L206.389,292.875z"/>
				</g>
			</g>
		</g>
	</g>
	<path fill="#0A0A0A" d="M213.412,211.949c-15.165-1.188-24.118-11.269-25.296-12.676l-3.138-0.246
		c-10.408,6.963-25.888,5.055-30.08,3.604c-4.486-1.557-12.012-1.658-12.09-1.657l0.041-1.169c0.316,0,7.738,0.099,12.347,1.699
		c4.105,1.425,19.322,3.3,29.457-3.581l0.13-0.087l3.792,0.293l0.122,0.164c0.118,0.147,11.751,14.729,32.155,12.33l2.388-0.27
		l0.057,1.167l-2.385,0.27C218.271,212.102,215.765,212.134,213.412,211.949L213.412,211.949z"/>
	<g>
		<g>
			<g>
				<path fill="#FFE2AF" d="M229.286,214.145c-1.483-0.221-5.241-0.947-5.241-0.947s2.373-0.484,4.196-1.131
					c1.821-0.646,2.131-1.846,0.776-1.895c-1.356-0.049-5.422,1.031-5.422,1.031l1.788-1.6c2.604-2.539,1.935-3.703,0.528-2.641
					c-1.402,1.066-4.084,2.74-4.084,2.74s2.525-3.416,1.73-4.531c-0.797-1.127-1.745,1.305-3.107,2.701
					c-0.512,0.514-1.045,0.813-1.518,0.982c-0.688,0.391-2.504,1.939-1.854,3.918c0.279,0.775,1.182,0.992,1.567,1.797
					c1.396,2.906,3.06,5.555,3.786,4.564c0.723-0.984-0.234-2.813,0.195-3.637c0.433-0.824,3.047,0.273,5.286,0.453
					C230.155,216.135,230.762,214.361,229.286,214.145z"/>
			</g>
		</g>
		<g>
			<g>
				<path fill="#0A0A0A" d="M222,219.637c-0.861-0.068-2.078-1.73-3.627-4.941c-0.156-0.33-0.426-0.553-0.714-0.789
					c-0.339-0.275-0.685-0.561-0.86-1.035c-0.717-2.162,1.24-3.848,1.98-4.266c0.569-0.211,1.045-0.518,1.453-0.934
					c0.43-0.443,0.835-1.008,1.184-1.51c0.645-0.906,1.15-1.621,1.753-1.572c0.241,0.02,0.454,0.16,0.632,0.412
					c0.596,0.834-0.211,2.512-0.934,3.688c0.89-0.574,2.078-1.367,2.861-1.961c0.777-0.586,1.48-0.566,1.674-0.051
					c0.238,0.639-0.416,1.777-1.807,3.131l-0.91,0.818c1.325-0.322,3.416-0.785,4.342-0.748c0.006,0,0.006,0,0.012,0
					c0.934,0.072,1.08,0.531,1.109,0.729c0.09,0.621-0.637,1.32-1.805,1.736c-0.938,0.33-2.023,0.621-2.865,0.826
					c1.223,0.234,2.965,0.555,3.852,0.682c0.805,0.121,1.108,0.639,1.056,1.1c-0.083,0.717-0.981,1.41-2.478,1.295l0,0
					c-0.855-0.072-1.754-0.264-2.545-0.436c-1.223-0.268-2.333-0.436-2.469-0.182c-0.146,0.281-0.068,0.828,0.008,1.354
					c0.117,0.787,0.252,1.676-0.227,2.322C222.455,219.605,222.185,219.65,222,219.637L222,219.637z M223.123,205.174
					c-0.263-0.02-0.809,0.754-1.211,1.322c-0.369,0.518-0.781,1.104-1.248,1.578c-0.476,0.484-1.023,0.836-1.627,1.057
					c-0.59,0.34-2.26,1.764-1.669,3.555c0.112,0.313,0.372,0.525,0.679,0.773c0.303,0.252,0.654,0.537,0.872,0.984
					c1.604,3.346,2.689,4.574,3.126,4.609c0.03,0,0.076,0.006,0.143-0.088c0.336-0.455,0.227-1.188,0.127-1.9
					c-0.095-0.645-0.186-1.25,0.049-1.701c0.251-0.477,0.866-0.484,1.311-0.449c0.509,0.039,1.143,0.176,1.824,0.324
					c0.77,0.164,1.643,0.355,2.443,0.418l0,0c1.193,0.094,1.805-0.406,1.85-0.77c0.028-0.229-0.18-0.402-0.554-0.455
					c-1.47-0.219-5.217-0.943-5.254-0.949v-0.574c0.024-0.006,2.371-0.488,4.153-1.115c1.021-0.363,1.45-0.879,1.416-1.109
					c-0.016-0.109-0.2-0.193-0.472-0.217c-1.364-0.051-5.368,1.008-5.407,1.021l-0.281-0.5l1.79-1.6
					c1.675-1.639,1.716-2.443,1.655-2.52c-0.195,0.012-0.401,0.068-0.74,0.322c-1.398,1.066-4.081,2.742-4.108,2.758l-0.405-0.416
					c0.997-1.35,2.188-3.543,1.729-4.199C223.24,205.236,223.172,205.178,223.123,205.174L223.123,205.174z"/>
			</g>
		</g>
	</g>
	<g>
		<g>
			<g>
				<path fill="#C44451" d="M169.701,235.541c-1.528,0.271-9.771,0.508-10.368,4.086c-0.585,3.58-3.026,16.125-1.508,18.402
					c1.515,2.275,18.576,3.318,19.616,2.91c1.037-0.408,1.388-9.592,1.388-9.592s2.087,8.787,2.925,9.541
					c0.841,0.754,16.113,0.324,22.108-2.969c2.031-1.115-0.552-20.133-2.507-22.049
					C199.412,233.953,169.701,235.541,169.701,235.541z"/>
			</g>
		</g>
		<g>
			<g>
				<path fill="#0A0A0A" d="M170.83,261.066c-3.602-0.285-12.088-1.129-13.258-2.875c-1.236-1.857-0.155-9.299,1.202-17.059
					c0.106-0.617,0.199-1.145,0.265-1.555c0.544-3.258,6.613-3.895,9.531-4.195c0.479-0.053,0.854-0.09,1.079-0.127
					c0.237-0.018,19.953-1.059,28.212-0.408c2.807,0.221,3.464,0.574,3.714,0.818c1.717,1.689,3.893,15.861,3.195,20.775
					c-0.141,0.973-0.383,1.527-0.764,1.734c-5.151,2.834-17.07,3.564-21.017,3.254l0,0c-1.034-0.082-1.306-0.211-1.437-0.326
					c-0.65-0.582-1.829-4.932-2.523-7.684c-0.184,3.148-0.6,7.447-1.478,7.793C177.021,261.422,173.769,261.295,170.83,261.066
					L170.83,261.066z M197.81,235.43c-8.215-0.643-27.895,0.391-28.092,0.406c-0.2,0.035-0.59,0.078-1.088,0.131
					c-2.552,0.262-8.529,0.887-8.999,3.707c-0.064,0.412-0.158,0.938-0.264,1.557c-0.771,4.406-2.57,14.721-1.294,16.639
					c0.689,1.029,5.715,2.055,12.803,2.613c3.74,0.293,6.149,0.299,6.453,0.186c0.534-0.357,1.04-5.123,1.203-9.33l0.589-0.055
					c0.801,3.361,2.272,8.887,2.834,9.389l0,0c0.007,0,0.183,0.104,1.083,0.178c3.896,0.305,15.627-0.408,20.678-3.186
					c0.068-0.037,0.308-0.244,0.458-1.303c0.666-4.682-1.424-18.709-3.029-20.285C201.018,235.953,200.438,235.639,197.81,235.43
					L197.81,235.43z"/>
			</g>
		</g>
	</g>
	<g>
		<g>
			<g>
				<path fill="#1D3A54" d="M182.508,197.497c0,0-5.271,3.996-10.53,11.078c-5.258,7.084-13.128,22.344-12.646,31.053
					c0,0,8.356,8.15,25.224,6.096c16.865-2.055,21.249-9.652,21.257-11.561c0.005-1.908-7.626-18.375-10.114-25.195
					C190.972,196.029,189.608,195.262,182.508,197.497z"/>
			</g>
		</g>
		<g>
			<g>
				<path fill="#0A0A0A" d="M176.083,246.229L176.083,246.229c-11.189-0.883-16.904-6.34-16.957-6.395l-0.088-0.078v-0.117
					c-0.479-8.57,7.07-23.648,12.699-31.236c5.223-7.035,10.53-11.097,10.581-11.138c2.253-0.726,3.87-1.123,5.254-1.019
					c3.344,0.263,5.034,3.385,8.406,12.625c1.039,2.836,2.99,7.393,4.872,11.801c3.275,7.668,5.262,12.4,5.259,13.492
					c-0.007,2.465-5.123,9.852-21.52,11.852C181.671,246.371,178.81,246.441,176.083,246.229L176.083,246.229z M159.626,239.494
					c0.733,0.656,6.269,5.346,16.509,6.146l0,0c2.685,0.215,5.508,0.141,8.386-0.207c17.315-2.113,20.987-9.84,20.991-11.271
					c0-1.053-2.65-7.258-5.213-13.262c-1.89-4.414-3.841-8.982-4.883-11.834c-4.676-12.799-5.832-13.492-12.82-11.292l0,0
					c0.028,0.003-5.208,4.021-10.374,10.972C166.669,216.229,159.233,231.037,159.626,239.494L159.626,239.494z"/>
			</g>
		</g>
	</g>
	<g>
		<g>
			<g>
				<path fill="#3A5F83" d="M199.085,217.975c-0.411-0.973-0.816-1.926-1.204-2.846c-12.729,5.324-22.877,3.826-30.149,0.625
					c-0.498,0.879-0.988,1.787-1.48,2.715C173.823,222.219,184.898,224.32,199.085,217.975z"/>
			</g>
		</g>
		<g>
			<g>
				<path fill="#3A5F83" d="M196.763,212.408c-0.339-0.832-0.646-1.609-0.913-2.311c-10.007,3.303-18.264,2.377-24.601,0.021
					c-0.615,0.881-1.255,1.863-1.905,2.908C176.226,215.717,185.438,216.77,196.763,212.408z"/>
			</g>
		</g>
		<g>
			<g>
				<path fill="#3A5F83" d="M194.725,207.082c-0.398-1.061-0.773-2.018-1.136-2.881c-6.933,1.848-12.962,1.662-18.033,0.459
					c-0.743,0.84-1.508,1.752-2.286,2.736C179.055,209.152,186.241,209.641,194.725,207.082z"/>
			</g>
		</g>
		<g>
			<g>
				<path fill="#3A5F83" d="M201.264,223.078c-0.36-0.852-0.73-1.715-1.097-2.58c-15.595,7.822-27.628,5.465-35.606,1.371
					c-0.432,0.914-0.842,1.84-1.237,2.768C171.506,229.156,184.352,232.086,201.264,223.078z"/>
			</g>
		</g>
		<g>
			<g>
				<path fill="#3A5F83" d="M205.52,234.135c0.003-0.348-0.256-1.191-0.691-2.371c-20.551,11.584-35.708,7.076-44.487,1.678
					c-0.249,1.076-0.441,2.111-0.556,3.1c8.862,5.557,24.442,10.361,45.682-2.012C205.504,234.381,205.52,234.246,205.52,234.135z"
					/>
			</g>
		</g>
		<g>
			<g>
				<path fill="#3A5F83" d="M203.473,228.324c-0.327-0.795-0.68-1.643-1.055-2.523c-18.269,10.229-31.916,6.563-40.209,1.605
					c-0.361,0.955-0.693,1.902-0.99,2.836C169.623,235.535,183.988,239.809,203.473,228.324z"/>
			</g>
		</g>
	</g>
	<g>
		<g>
			<g>
				<path fill="#FFE2AF" d="M181.591,196.73c0,0,1.778-0.15-0.452,1.898c-2.234,2.046-1.372,6.885,2.793,7.284
					c4.162,0.4,9.921-6.484,4.511-9.299C183.034,193.792,180.785,195.537,181.591,196.73z"/>
			</g>
		</g>
		<g>
			<g>
				<path fill="#0A0A0A" d="M183.971,206.211L183.971,206.211l-0.071-0.006c-1.924-0.188-3.384-1.297-3.987-3.045
					c-0.604-1.729-0.193-3.633,1.018-4.745c1.104-1.014,1.031-1.33,1.026-1.33c-0.004-0.007-0.062-0.048-0.218-0.062
					c-0.065-0.003-0.117,0-0.124,0l-0.181,0.014l-0.096-0.146c-0.263-0.388-0.279-0.831-0.042-1.215
					c0.382-0.643,1.376-0.962,2.649-0.863c1.325,0.106,2.884,0.622,4.642,1.539c1.994,1.041,2.763,2.725,2.162,4.742
					C189.895,203.93,186.603,206.418,183.971,206.211L183.971,206.211z M181.794,196.439c0.509,0.042,0.679,0.3,0.731,0.452
					c0.162,0.452-0.208,1.049-1.181,1.947c-1.045,0.961-1.391,2.621-0.867,4.138c0.529,1.518,1.797,2.482,3.484,2.643l0.032,0.299
					l0.026-0.293c2.34,0.184,5.386-2.145,6.149-4.699c0.367-1.217,0.337-2.909-1.867-4.059c-1.659-0.866-3.181-1.372-4.403-1.466
					c-1.226-0.098-1.882,0.232-2.087,0.572c-0.108,0.176-0.095,0.335-0.043,0.465C181.776,196.439,181.785,196.439,181.794,196.439
					L181.794,196.439z"/>
			</g>
		</g>
	</g>
	<g>
		<g>
			<g>
				<path fill="#FFE2AF" d="M159.774,173.956c0,0-7.608-0.774-6.583,5.05c1.023,5.831,7.217,5.546,9.223,3.076
					C164.421,179.614,159.774,173.956,159.774,173.956z"/>
			</g>
		</g>
		<g>
			<g>
				<path fill="#0A0A0A" d="M157.972,184.024L157.972,184.024c-2.669-0.21-4.569-2.069-5.077-4.967
					c-0.275-1.565,0.02-2.826,0.886-3.751c1.751-1.876,5.257-1.701,5.941-1.648l0.13,0.011l0.156,0.104
					c0.197,0.238,4.777,5.871,2.642,8.492C161.677,183.458,159.799,184.166,157.972,184.024L157.972,184.024z M159.62,174.238
					c-0.769-0.046-3.9-0.137-5.396,1.465c-0.733,0.781-0.979,1.877-0.738,3.257c0.661,3.774,3.391,4.39,4.531,4.48
					c1.637,0.129,3.311-0.49,4.158-1.54C163.879,179.809,160.209,174.994,159.62,174.238L159.62,174.238z"/>
			</g>
		</g>
	</g>
	<g>
		<g>
			<g>
				<path fill="#FFE2AF" d="M217.549,175.879c0,0,7.636,0.418,5.672,6.016c-1.967,5.596-8.031,4.346-9.61,1.594
					C212.033,180.737,217.549,175.879,217.549,175.879z"/>
			</g>
		</g>
		<g>
			<g>
				<path fill="#0A0A0A" d="M217.685,186.096c-1.829-0.143-3.571-1.135-4.339-2.465c-1.673-2.922,3.768-7.768,4.003-7.97
					l0.091-0.082l0.123,0.007c0.006,0,0.006,0,0.012,0c0.783,0.059,4.246,0.442,5.67,2.56c0.702,1.049,0.787,2.339,0.26,3.845
					C222.525,184.771,220.354,186.307,217.685,186.096L217.685,186.096z M217.656,176.183c-0.707,0.645-5.117,4.834-3.782,7.163
					c0.672,1.17,2.22,2.038,3.854,2.166c1.143,0.088,3.936-0.092,5.208-3.713c0.465-1.322,0.398-2.443-0.198-3.33
					C221.488,176.604,218.244,176.231,217.656,176.183L217.656,176.183z"/>
			</g>
		</g>
	</g>
	<g>
		<g>
			<g>
				<path fill="#FFE2AF" d="M171.306,144.516c8.159-4.313,18.039-5.434,27.013-3.005c2.977,0.8,6.068,2.082,8.679,3.694
					c13.995,8.651,18.588,24.661,9.333,39.839c-9.225,15.117-38.181,23.338-55.468-0.716c-7.854-10.921-6.414-26.512,4.284-35.643
					C167.04,147.071,169.111,145.68,171.306,144.516z"/>
			</g>
		</g>
		<g>
			<g>
				<path fill="#0A0A0A" d="M186.063,199.702c-7.023-0.554-17.134-3.637-25.448-15.205c-8.079-11.233-6.174-27.063,4.333-36.029
					c1.882-1.608,3.974-3.023,6.21-4.211c8.144-4.301,18.329-5.439,27.238-3.026c3.117,0.841,6.228,2.162,8.762,3.729
					c14.528,8.982,18.402,25.523,9.429,40.239C210.789,194.693,198.238,200.656,186.063,199.702L186.063,199.702z M191.639,140.657
					c-6.968-0.547-14.135,0.918-20.192,4.117c-2.199,1.166-4.253,2.554-6.105,4.132c-10.281,8.777-12.138,24.264-4.237,35.257
					c8.183,11.376,18.114,14.41,25.004,14.952c11.957,0.938,24.273-4.907,29.957-14.218c8.942-14.649,5.234-30.503-9.227-39.444
					c-2.486-1.533-5.541-2.831-8.602-3.662C196.104,141.212,193.882,140.83,191.639,140.657L191.639,140.657z"/>
			</g>
		</g>
	</g>
	<g>
		<g>
			<g>
				<path fill="#683C32" d="M206.988,145.206c-2.612-1.612-5.701-2.895-8.674-3.694c-8.978-2.429-18.856-1.309-27.016,3.005
					c-2.193,1.161-4.262,2.555-6.157,4.17c-8.292,7.079-10.903,17.6-8.253,27.388c0.688-7.33,3.739-12.984,3.784-13.073
					c4.455-10.041,14.474-15.828,25.205-17.567c14.447-2.345,28.88,5.735,31.709,20.146c0.935,4.743,1.616,10.306,1.237,15.131
					C225.243,167.222,219.621,153.014,206.988,145.206z"/>
			</g>
		</g>
		<g>
			<g>
				<path fill="#0A0A0A" d="M156.596,176.147c-2.83-10.459,0.294-20.805,8.347-27.68c1.883-1.61,3.972-3.026,6.215-4.211
					c8.135-4.301,18.319-5.439,27.236-3.026c3.111,0.841,6.223,2.159,8.762,3.729c13.406,8.289,18.203,22.706,11.939,35.873
					l-0.568-0.145c0.402-5.198-0.449-11.056-1.236-15.053c-2.184-11.134-11.861-19.26-24.075-20.219
					c-2.419-0.191-4.873-0.088-7.288,0.304c-11.823,1.92-20.926,8.26-24.982,17.402c-0.539,1.034-3.134,6.307-3.762,12.975
					L156.596,176.147L156.596,176.147z M191.63,140.657c-6.964-0.547-14.136,0.915-20.185,4.117
					c-2.203,1.166-4.263,2.554-6.108,4.132c-7.467,6.372-10.595,15.796-8.55,25.475c0.866-5.978,3.118-10.561,3.601-11.478
					c4.147-9.342,13.415-15.807,25.438-17.761c2.466-0.396,4.969-0.503,7.438-0.308c12.486,0.979,22.375,9.294,24.616,20.689
					c0.715,3.62,1.478,8.752,1.331,13.575c5.1-12.478,0.264-25.831-12.377-33.646c-2.486-1.533-5.539-2.835-8.6-3.662
					C196.099,141.212,193.875,140.83,191.63,140.657L191.63,140.657z"/>
			</g>
		</g>
	</g>
	<g>
		<g>
			<g>
				<path fill="#FF9F80" d="M172.275,182.857c0,0,12.632,7.331,27.013-2.859c0,0,1.722,15.558-10.582,17.031
					C176.405,198.498,172.275,182.857,172.275,182.857z"/>
			</g>
		</g>
		<g>
			<g>
				<path fill="#0A0A0A" d="M186.098,197.379c-10.394-0.816-14.076-14.313-14.117-14.448l-0.175-0.688l0.622,0.361
					c0.04,0.021,3.538,2.018,8.846,2.434c6.207,0.488,12.209-1.286,17.833-5.273l0.42-0.3l0.056,0.502
					c0.019,0.155,1.614,15.864-10.837,17.349C187.848,197.429,186.957,197.445,186.098,197.379L186.098,197.379z M172.768,183.442
					c0.879,2.685,4.714,12.673,13.378,13.351c0.814,0.067,1.667,0.048,2.527-0.054c10.624-1.273,10.507-13.53,10.35-16.199
					c-5.621,3.858-11.606,5.569-17.797,5.083C177.062,185.293,174.03,184.051,172.768,183.442L172.768,183.442z"/>
			</g>
		</g>
	</g>
	<g>
		<g>
			<path d="M198.175,169.697c-0.126,1.572-1.037,2.782-2.026,2.706c-0.989-0.076-1.688-1.419-1.558-2.987
				c0.126-1.572,1.035-2.786,2.023-2.711C197.608,166.787,198.307,168.123,198.175,169.697z"/>
		</g>
	</g>
	<g>
		<g>
			<path d="M175.082,170.59c0.017,1.577-0.775,2.867-1.77,2.875c-0.991,0.009-1.814-1.263-1.828-2.842
				c-0.015-1.578,0.776-2.862,1.772-2.871C174.247,167.742,175.067,169.012,175.082,170.59z"/>
		</g>
	</g>
	<g>
		<g>
			<g>
				<path fill="#0A0A0A" d="M187.625,146.712c-1.587-0.13-2.384-1.172-2.422-1.219l0.487-0.343c0.029,0.039,0.75,0.973,2.201,0.986
					c1.355,0.019,3.633-0.785,6.795-4.732c1.806-2.25,2.655-5.485,2.706-6.453l0.602,0.03c-0.061,1.176-0.981,4.476-2.834,6.785
					c-2.667,3.326-5.115,4.994-7.292,4.955C187.783,146.72,187.7,146.717,187.625,146.712L187.625,146.712z"/>
			</g>
		</g>
		<g>
			<g>
				<path fill="#0A0A0A" d="M190.997,147.701c-2.266-0.178-3.864-1.04-3.894-1.058l0.295-0.509c0.25,0.137,6.2,3.331,11.354-2.172
					c2.458-2.626,3.249-3.925,4.006-5.675l0.551,0.226c-0.783,1.817-1.596,3.153-4.113,5.841
					C196.404,147.336,193.338,147.881,190.997,147.701L190.997,147.701z"/>
			</g>
		</g>
		<g>
			<g>
				<path fill="#0A0A0A" d="M197.103,149.382c-1.511-0.121-3.061-0.693-4.645-1.724l0.335-0.486c2.396,1.561,4.698,2.01,6.857,1.35
					c4.611-1.419,7.096-7.498,7.122-7.562l0.556,0.215c-0.104,0.259-2.611,6.399-7.494,7.903
					C198.941,149.352,198.025,149.453,197.103,149.382L197.103,149.382z"/>
			</g>
		</g>
	</g>
	<g opacity="0.5">
		<g>
			<path fill="#FFE2AF" d="M173.181,149.736c0,0-16.609,16.375-8.062,33.117c8.541,16.741,26.678,16.832,37.367,13.732
				c0,0-15.777,6.719-30.007-1.438c-14.23-8.155-15.547-19.506-15.547-19.506S157.993,158.694,173.181,149.736z"/>
		</g>
	</g>
	<g opacity="0.51">
		<g>
			<path fill="#C44451" d="M162.697,242.336c0,0-4.888,15.891,9.338,18.527c0,0-13.908-0.506-14.484-3.516
				c-0.578-3.01,1.388-16.045,1.726-17.387C159.278,239.961,161.475,241.729,162.697,242.336z"/>
		</g>
	</g>
	<g>
		<g>
			<g>
				<path fill="#0A0A0A" d="M287.271,286.587c-0.164-4.5-2.793-28.289-2.818-28.527l1.059-0.111
					c0.109,0.982,2.662,24.061,2.828,28.598L287.271,286.587L287.271,286.587z"/>
			</g>
		</g>
		<g>
			<g>
				<path fill="#0A0A0A" d="M262.189,291.237l-0.988-0.391c2.813-6.834,0.885-30.564,0.865-30.807l1.063-0.082
					C263.211,260.944,265.096,284.173,262.189,291.237L262.189,291.237z"/>
			</g>
		</g>
		<g>
			<g>
				<g>
					<g>
						<path fill="#0AC3C8" d="M258.951,293.587c-3.271-0.225-3.16-1.848-1.662-3.545c-2.32,1.342-4.871,3.316-3.311,5.848
							c2.16,3.494,7.57,0.756,9.723-2.271c0.551-0.775,0.768-1.627,0.783-2.467C262.875,292.63,260.715,293.706,258.951,293.587z"/>
					</g>
				</g>
				<g>
					<g>
						<path fill="#0A0A0A" d="M256.752,297.782c-1.289-0.064-2.332-0.672-3-1.762c-0.49-0.789-0.635-1.592-0.432-2.377
							c0.443-1.699,2.396-2.998,3.832-3.826l0.34,0.396c-0.785,0.885-1.092,1.652-0.873,2.166c0.223,0.529,1.037,0.855,2.35,0.945
							h0.004c1.617,0.08,3.682-0.852,5.328-2.359l0.463-0.426l-0.012,0.623c-0.02,0.982-0.301,1.859-0.83,2.607
							C262.445,295.841,259.357,297.907,256.752,297.782L256.752,297.782z M256.316,290.958c-1.426,0.965-2.24,1.891-2.477,2.813
							c-0.172,0.658-0.049,1.309,0.365,1.984c0.584,0.945,1.451,1.451,2.574,1.504c2.391,0.117,5.344-1.877,6.705-3.787
							c0.35-0.498,0.58-1.066,0.678-1.691c-1.668,1.363-3.596,2.148-5.148,2.07c-1.633-0.111-2.576-0.535-2.889-1.273
							C255.93,292.12,255.994,291.573,256.316,290.958L256.316,290.958z"/>
					</g>
				</g>
			</g>
			<g>
				<g>
					<g>
						<path fill="#FFD9B3" d="M259.607,288.79c-0.576,0.32-1.434,0.744-2.318,1.252c-1.498,1.697-1.609,3.32,1.662,3.545
							c1.764,0.119,3.924-0.957,5.533-2.436c0.049-2.43-1.58-4.744-1.58-4.744S261.912,287.522,259.607,288.79z"/>
					</g>
				</g>
				<g>
					<g>
						<path fill="#0A0A0A" d="M259.014,293.851L259.014,293.851l-0.078-0.004c-1.555-0.107-2.498-0.531-2.811-1.27
							c-0.303-0.711,0.031-1.646,0.963-2.705c0.629-0.379,1.178-0.664,1.654-0.914c0.275-0.145,0.523-0.277,0.734-0.393
							c2.227-1.227,3.221-2.318,3.23-2.33l0.223-0.248l0.199,0.275c0.066,0.096,1.674,2.41,1.623,4.9v0.104l-0.086,0.08
							C262.893,292.974,260.729,293.935,259.014,293.851L259.014,293.851z M262.861,286.827c-0.426,0.406-1.422,1.254-3.123,2.193
							c-0.213,0.117-0.465,0.252-0.742,0.395c-0.473,0.246-1.016,0.533-1.572,0.85c-0.717,0.834-1.023,1.602-0.805,2.115
							c0.223,0.529,1.037,0.855,2.35,0.945l0.057,0.266l0.012-0.26c1.525,0.074,3.549-0.824,5.182-2.291
							C264.217,289.228,263.26,287.481,262.861,286.827L262.861,286.827z"/>
					</g>
				</g>
			</g>
			<g>
				<g>
					<g>
						<path fill="#FFD9B3" d="M285.131,292.011c1.516-0.65,2.668-1.922,3.49-3.363c0.109-1.924-0.203-3.943-1.084-5.822
							c0,0,0.174,1.988-2.926,3.588c-1.063,0.551-1.979,1.219-2.756,1.941C280.324,290.136,281.885,293.413,285.131,292.011z"/>
					</g>
				</g>
				<g>
					<g>
						<path fill="#0A0A0A" d="M283.492,292.608L283.492,292.608c-1.012-0.049-1.854-0.617-2.258-1.52
							c-0.434-0.967-0.268-2.105,0.416-2.904c0.871-0.807,1.814-1.475,2.838-2.006c2.885-1.482,2.787-3.254,2.781-3.332l0.51-0.129
							c0.844,1.801,1.23,3.857,1.105,5.945l-0.031,0.109c-0.951,1.67-2.199,2.871-3.615,3.48
							C284.627,292.515,284.039,292.632,283.492,292.608L283.492,292.608z M287.639,283.757c-0.275,0.781-1.004,1.906-2.898,2.887
							c-0.982,0.504-1.891,1.145-2.705,1.9c-0.529,0.625-0.662,1.551-0.314,2.336c0.326,0.729,0.984,1.166,1.799,1.207l0,0
							c0.463,0.021,0.969-0.082,1.504-0.311c1.295-0.557,2.445-1.664,3.332-3.201C288.445,286.897,288.201,285.255,287.639,283.757
							L287.639,283.757z"/>
					</g>
				</g>
			</g>
			<g>
				<g>
					<g>
						<path fill="#0AC3C8" d="M285.131,292.011c-3.246,1.402-4.807-1.875-3.275-3.656c-3.773,3.502-4.18,8.434-1.076,9.219
							c3.967,1.004,7.533-3.607,7.842-8.926C287.799,290.089,286.646,291.36,285.131,292.011z"/>
					</g>
				</g>
				<g>
					<g>
						<path fill="#0A0A0A" d="M281.654,297.964c-0.313-0.012-0.629-0.061-0.939-0.135c-1.08-0.275-1.84-1.041-2.135-2.156
							c-0.578-2.195,0.689-5.283,3.09-7.51l0.387,0.357c-0.551,0.648-0.684,1.574-0.336,2.359c0.512,1.143,1.828,1.531,3.303,0.896
							c1.309-0.563,2.471-1.688,3.363-3.256l0.498,0.143C288.586,293.882,285.273,298.142,281.654,297.964L281.654,297.964z
							 M281.016,289.622c-1.592,1.938-2.363,4.229-1.92,5.92c0.248,0.936,0.857,1.553,1.75,1.779c3.342,0.857,6.709-2.777,7.398-7.6
							c-0.848,1.182-1.877,2.043-3.006,2.531c-1.746,0.75-3.383,0.227-4.004-1.164C281.029,290.622,280.957,290.116,281.016,289.622
							L281.016,289.622z"/>
					</g>
				</g>
			</g>
		</g>
		<g>
			<g>
				<path fill="#0A0A0A" d="M234.801,235.87l-0.271-1.01c13.424-3.496,21.227-15.135,21.303-15.25l0.898,0.564
					C256.652,220.294,248.633,232.267,234.801,235.87L234.801,235.87z"/>
			</g>
		</g>
		<g>
			<g>
				<g>
					<path fill="#FFD9B3" d="M228.346,231.474c1.691-0.281,4.857,1.609,5.953,2.309c1.102,0.705,1.484,7.633-3.764,8.49
						c-5.248,0.855-5.76-3.531-5.783-5.656C224.725,234.495,225.924,231.88,228.346,231.474z"/>
				</g>
			</g>
			<g>
				<g>
					<path fill="#0A0A0A" d="M228.959,242.634c-2.879-0.141-4.428-2.219-4.477-6.014c-0.027-2.303,1.301-4.984,3.816-5.404
						c0.174-0.027,0.365-0.037,0.57-0.027c1.824,0.086,4.506,1.689,5.578,2.375c0.721,0.465,1.018,2.58,0.617,4.436
						c-0.316,1.471-1.322,4.014-4.484,4.531C230.006,242.622,229.459,242.659,228.959,242.634L228.959,242.634z M228.842,231.706
						c-0.164-0.008-0.318,0-0.451,0.023c-2.225,0.371-3.398,2.795-3.373,4.883c0.053,4.15,1.906,5.982,5.475,5.404
						c2.852-0.467,3.764-2.783,4.053-4.125c0.42-1.953-0.021-3.654-0.391-3.891C233.348,233.483,230.584,231.794,228.842,231.706
						L228.842,231.706z"/>
				</g>
			</g>
		</g>
		<g>
			<g>
				<path fill="#0A0A0A" d="M230.295,237.37c-0.295-0.014-0.564-0.045-0.777-0.096c-0.326-0.082-0.533-0.211-0.631-0.395
					c-0.375-0.709,0.279-1.627,1.75-2.455c1.346-0.766,3.508-1.455,4.076-0.596l-0.449,0.283c-0.25-0.377-1.803-0.119-3.359,0.76
					c-1.141,0.646-1.76,1.355-1.543,1.768c0.186,0.35,2.754,0.242,3.219,0.02l0.289,0.438
					C232.605,237.265,231.303,237.423,230.295,237.37L230.295,237.37z"/>
			</g>
		</g>
		<g>
			<g>
				<path fill="#0A0A0A" d="M230.268,234.892c-0.043-0.111-4.275-10.98-7.541-14.775l0.408-0.336
					c3.322,3.865,7.459,14.477,7.627,14.928L230.268,234.892L230.268,234.892z"/>
			</g>
		</g>
		<g>
			<g>
				<path fill="#0A0A0A" d="M233.541,257.981l-0.529-0.082c1.287-7.836-1.953-20.549-1.986-20.674l0.518-0.129
					C231.574,237.226,234.844,250.042,233.541,257.981L233.541,257.981z"/>
			</g>
		</g>
		<g>
			<g>
				<g>
					<g>
						<path fill="#F12962" d="M222.557,219.329c-1.355,0.391-5.865-5.568-0.783-7.014c5.078-1.453,4.668,5.369,2.592,6.838
							L222.557,219.329z"/>
					</g>
				</g>
				<g>
					<g>
						<path fill="#0A0A0A" d="M222.373,219.608c-1.115-0.059-2.961-2.244-3.197-4.221c-0.197-1.625,0.702-2.805,2.525-3.326
							c2.098-0.596,3.631,0.135,4.174,1.924c0.568,1.869-0.088,4.482-1.35,5.381l-0.135,0.047l-1.809,0.176
							C222.553,219.601,222.463,219.61,222.373,219.608L222.373,219.608z M223.23,212.374c-0.412-0.018-0.877,0.045-1.381,0.189
							c-1.59,0.453-2.312,1.381-2.144,2.762c0.226,1.887,1.99,3.723,2.693,3.76c0.032,0.002,0.059,0,0.083-0.006l1.783-0.178
							c1.051-0.809,1.596-3.139,1.1-4.77C225.133,213.368,224.572,212.44,223.23,212.374L223.23,212.374z"/>
					</g>
				</g>
			</g>
			<g>
				<g>
					<g>
						<path fill="#F12962" d="M222.719,220.097c0,0-1.689-3.559-4.691-4.049c-2.997-0.494-5.999,2.535-4.029,5.758
							C215.975,225.03,220.953,223.315,222.719,220.097z"/>
					</g>
				</g>
				<g>
					<g>
						<path fill="#0A0A0A" d="M216.936,223.784h-0.002c-1.369-0.066-2.463-0.701-3.163-1.842c-0.847-1.391-0.89-2.906-0.114-4.164
							c0.891-1.451,2.664-2.279,4.414-1.988c3.104,0.506,4.818,4.049,4.889,4.197l0.057,0.119l-0.063,0.115
							C221.776,222.36,219.189,223.894,216.936,223.784L216.936,223.784z M217.563,216.259c-1.391-0.066-2.742,0.633-3.449,1.785
							c-0.68,1.107-0.639,2.393,0.116,3.625c0.603,0.986,1.546,1.537,2.728,1.594c2.025,0.1,4.348-1.256,5.459-3.174
							c-0.32-0.604-1.905-3.373-4.432-3.787C217.846,216.276,217.699,216.263,217.563,216.259L217.563,216.259z"/>
					</g>
				</g>
			</g>
			<g>
				<g>
					<g>
						<path fill="#ED454F" d="M223.848,219.716c0,0,0.17-2.426,2.783-3.994c2.615-1.57,5.738,0.797,3.279,3.682
							C227.453,222.28,223.217,221.552,223.848,219.716z"/>
					</g>
				</g>
				<g>
					<g>
						<path fill="#0A0A0A" d="M225.676,221.587c-0.896-0.043-1.604-0.352-1.945-0.838c-0.227-0.328-0.271-0.715-0.137-1.117
							c-0.006-0.037,0.197-2.508,2.896-4.133c0.639-0.383,1.344-0.568,2.035-0.533c1.068,0.053,1.969,0.611,2.352,1.465
							c0.246,0.551,0.475,1.688-0.76,3.139C228.764,221.149,226.938,221.647,225.676,221.587L225.676,221.587z M228.5,215.485
							c-0.588-0.029-1.186,0.129-1.732,0.461c-2.455,1.473-2.654,3.766-2.654,3.787c-0.096,0.309-0.074,0.531,0.059,0.723
							c0.244,0.346,0.816,0.576,1.529,0.611c1.133,0.055,2.781-0.4,4.006-1.832c0.781-0.916,1.023-1.838,0.682-2.596
							C230.088,215.968,229.363,215.526,228.5,215.485L228.5,215.485z"/>
					</g>
				</g>
			</g>
			<g>
				<g>
					<g>
						<path fill="#F12962" d="M224.389,220.481c0,0,5.006,0.316,5.84,2.318c0.832,2.002-1.881,4.654-5.363,1.445
							C221.377,221.032,223.258,219.907,224.389,220.481z"/>
					</g>
				</g>
				<g>
					<g>
						<path fill="#0A0A0A" d="M227.863,225.997c-1.02-0.047-2.121-0.592-3.18-1.564c-2.238-2.063-2.209-3.203-1.994-3.697
							c0.26-0.594,1.096-0.824,1.768-0.512c0.584,0.043,5.172,0.443,6.02,2.479c0.305,0.734,0.199,1.57-0.285,2.24
							C229.67,225.659,228.82,226.042,227.863,225.997L227.863,225.997z M223.838,220.597c-0.311-0.014-0.559,0.115-0.66,0.342
							c-0.102,0.232-0.266,1.146,1.867,3.113c0.967,0.891,1.951,1.381,2.844,1.428c0.775,0.035,1.455-0.27,1.871-0.838
							c0.375-0.52,0.459-1.172,0.221-1.742c-0.631-1.518-4.262-2.074-5.611-2.158l-0.104-0.029
							C224.131,220.642,223.986,220.604,223.838,220.597L223.838,220.597z"/>
					</g>
				</g>
			</g>
			<g>
				<g>
					<g>
						<path fill="#ED454F" d="M222.399,219.526c0,0-6.804,6.424-1.882,8.018c4.621,1.498,4.297-6.174,2.412-7.596
							C220.811,218.351,223.068,218.646,222.399,219.526z"/>
					</g>
				</g>
				<g>
					<g>
						<path fill="#0A0A0A" d="M221.479,227.993L221.479,227.993c-0.33-0.016-0.68-0.084-1.047-0.203
							c-1.071-0.348-1.713-0.947-1.907-1.773c-0.539-2.313,2.69-5.695,3.509-6.504c-0.203-0.225-0.375-0.5-0.268-0.742
							c0.149-0.336,0.78-0.225,0.965,0.154c0.055,0.105,0.109,0.297,0.008,0.533c0.105,0.088,0.221,0.184,0.355,0.283
							c1.271,0.961,1.814,4.281,1.037,6.346C223.643,227.378,222.701,228.054,221.479,227.993L221.479,227.993z M222.411,219.88
							c-0.839,0.848-3.833,4.02-3.364,6.02c0.149,0.65,0.659,1.107,1.552,1.398c0.319,0.104,0.626,0.162,0.905,0.176l0,0
							c1.002,0.045,1.713-0.48,2.129-1.566c0.742-1.971,0.119-5.008-0.865-5.752c-0.119-0.092-0.222-0.174-0.32-0.252l-0.002,0.008
							L222.411,219.88L222.411,219.88z"/>
					</g>
				</g>
			</g>
			<g>
				<g>
					<g>
						<path fill="#FFC622" d="M222.484,217.868c1.324-0.512,2.688,0.309,2.918,1.879c0.23,1.574-2.908,3.031-4.399,1.701
							C219.512,220.116,221.089,218.407,222.484,217.868z"/>
					</g>
				</g>
				<g>
					<g>
						<path fill="#0A0A0A" d="M222.346,222.228c-0.599-0.033-1.125-0.234-1.521-0.588c-0.695-0.621-0.744-1.279-0.658-1.719
							c0.19-1.018,1.262-1.924,2.221-2.295c0.332-0.127,0.666-0.186,1.004-0.168c1.174,0.059,2.086,0.961,2.277,2.25
							c0.068,0.486-0.113,0.973-0.523,1.414C224.482,221.831,223.361,222.274,222.346,222.228L222.346,222.228z M223.363,217.979
							c-0.26-0.016-0.523,0.031-0.781,0.131c-0.801,0.311-1.738,1.082-1.895,1.904c-0.085,0.455,0.082,0.871,0.496,1.242
							c0.846,0.752,2.705,0.438,3.568-0.486c0.207-0.223,0.447-0.576,0.387-0.986C224.988,218.751,224.275,218.024,223.363,217.979
							L223.363,217.979z"/>
					</g>
				</g>
			</g>
		</g>
		<g>
			<g>
				<g>
					<path fill="#C2A1D0" d="M262.891,209.519c0,0-4.385,6.479-8.445,9.416c-4.066,2.932,0.568,2.807,3.303,4.938
						C260.492,226.005,263.418,215.976,262.891,209.519z"/>
				</g>
			</g>
			<g>
				<g>
					<path fill="#0A0A0A" d="M258.457,224.425L258.457,224.425c-0.301-0.014-0.594-0.133-0.873-0.348
						c-0.822-0.641-1.836-1.076-2.73-1.459c-1.219-0.523-2.184-0.939-2.271-1.707c-0.068-0.613,0.455-1.287,1.701-2.188
						c3.979-2.873,8.342-9.285,8.385-9.35l0.426-0.631l0.063,0.754c0.416,5.094-1.23,12.168-3.326,14.279
						C259.379,224.228,258.916,224.446,258.457,224.425L258.457,224.425z M262.668,210.294c-1.219,1.709-4.762,6.463-8.066,8.848
						c-1.029,0.744-1.535,1.32-1.49,1.711c0.057,0.473,0.938,0.85,1.959,1.287c0.922,0.395,1.965,0.844,2.848,1.529
						c0.188,0.146,0.375,0.225,0.563,0.236l0,0c0.305,0.016,0.627-0.148,0.965-0.494
						C261.32,221.528,262.861,215.118,262.668,210.294L262.668,210.294z"/>
				</g>
			</g>
		</g>
		<g>
			<g>
				<g>
					<path fill="#F4829C" d="M265.467,208.511c0,0,7.738,2.635,15.787,17.627c8.049,14.99,12.031,28.613,11.418,30.15
						c-0.609,1.537-10.631,7.051-23.561,6.818c-12.932-0.234-15.41-4.004-15.355-5.047c0.053-1.037-0.197-26.551,5.828-39.459
						C265.609,205.694,262.645,206.921,265.467,208.511z"/>
				</g>
			</g>
			<g>
				<g>
					<path fill="#0A0A0A" d="M267.217,263.304c-11.395-0.551-13.789-4.066-13.727-5.254c0.002-0.08,0.006-0.311,0.01-0.666
						c0.098-10.059,0.988-28.496,5.842-38.889c2.631-5.639,3.533-8.553,3.971-9.949c0.299-0.955,0.396-1.275,0.768-1.26
						c0.184,0.008,0.324,0.129,0.543,0.313c0.217,0.182,0.518,0.428,0.979,0.688c0.271,0.086,7.887,2.82,15.889,17.732
						c7.803,14.531,12.141,28.58,11.432,30.363c-0.627,1.574-10.533,7.221-23.814,6.984
						C268.449,263.354,267.824,263.331,267.217,263.304L267.217,263.304z M264.105,207.856c-0.068,0.15-0.168,0.477-0.285,0.84
						c-0.436,1.41-1.352,4.348-3.994,10.014c-4.813,10.311-5.697,28.66-5.795,38.68c-0.002,0.367-0.004,0.604-0.01,0.686
						c-0.043,0.85,2.451,4.533,15.096,4.773c12.807,0.229,22.729-5.201,23.307-6.652c0.574-1.441-3.35-14.934-11.408-29.939
						c-7.889-14.701-15.559-17.473-15.637-17.496c-0.549-0.309-0.881-0.584-1.1-0.768
						C264.221,207.946,264.158,207.896,264.105,207.856L264.105,207.856z"/>
				</g>
			</g>
		</g>
		<g>
			<g>
				<path fill="#FFBACD" d="M254.035,256.177c0,0.096-0.004,0.199-0.004,0.289c15.24,6.617,28.973,1.584,37.883-3.832
					c-0.242-0.863-0.504-1.9-0.844-2.934C283.227,255.132,269.92,261.376,254.035,256.177z"/>
			</g>
		</g>
		<g>
			<g>
				<path fill="#FFBACD" d="M289.025,243.761c-0.125-0.32-0.252-0.646-0.385-0.975c-19.416,7.707-29.205,3.953-33.904-0.439
					c-0.16,1.621-0.291,3.229-0.389,4.725C261.475,251.126,273.109,253.476,289.025,243.761z"/>
			</g>
		</g>
		<g opacity="0.5">
			<g>
				<path fill="#F4829C" d="M281.254,226.151c-8.051-14.99-15.789-17.623-15.789-17.623c-2.209-1.244-0.873-2.266-3.076,3.537
					c3.941,0.4,11.25,5.979,16.209,18.701c3.67,9.418,8.125,21.672,6.699,29.686c4.316-1.559,7.064-3.365,7.375-4.145
					C293.285,254.769,289.301,241.147,281.254,226.151z"/>
			</g>
		</g>
		<g>
			<g>
				<path fill="#0A0A0A" d="M295.539,241.038c-13.018-6.541-22.43-24.383-22.824-25.137l0.947-0.473
					c0.096,0.184,9.656,18.297,22.363,24.682L295.539,241.038L295.539,241.038z"/>
			</g>
		</g>
		<g>
			<g>
				<g>
					<path fill="#C2A1D0" d="M269.684,211.323c1.773,0.133,4.531,1.873,7.504,4.623c2.977,2.75,3.49,3.121,1.016,4.568
						c-2.475,1.441-5.109,4.273-6.08,2.4C271.15,221.042,266.402,211.079,269.684,211.323z"/>
				</g>
			</g>
			<g>
				<g>
					<path fill="#0A0A0A" d="M272.986,223.792c-0.482-0.021-0.852-0.275-1.104-0.758c-0.045-0.094-4.781-9.268-3.32-11.471
						c0.162-0.244,0.484-0.529,1.092-0.502c1.844,0.133,4.641,1.848,7.717,4.695l0.234,0.217c1.732,1.6,2.521,2.328,2.432,3.105
						c-0.064,0.598-0.67,1.061-1.695,1.656c-0.65,0.379-1.313,0.857-1.953,1.316C275.061,223.015,273.91,223.841,272.986,223.792
						L272.986,223.792z M269.664,211.581c-0.42-0.02-0.574,0.143-0.656,0.266c-0.988,1.492,1.83,8.023,3.352,10.951
						c0.215,0.408,0.479,0.465,0.654,0.477c0.736,0.035,1.865-0.781,3.059-1.641c0.65-0.469,1.324-0.953,1.994-1.342
						c0.834-0.488,1.4-0.889,1.443-1.271c0.057-0.52-0.816-1.33-2.268-2.67l-0.238-0.219
						C274.016,213.366,271.336,211.71,269.664,211.581L269.664,211.581L269.664,211.581z"/>
				</g>
			</g>
		</g>
		<g>
			<g>
				<g>
					<path fill="#FFD9B3" d="M302.205,248.034c-0.906-1.047-3.111-3.832-3.111-3.832s1.979,1.092,3.684,1.734
						c1.701,0.641,2.672-0.021,1.744-0.877c-0.924-0.848-4.492-2.535-4.492-2.535l2.277-0.053c3.445-0.234,3.707-1.459,2.037-1.553
						c-1.66-0.092-4.615-0.521-4.615-0.521s3.939-0.895,4.086-2.17c0.145-1.273-2.063-0.127-3.91,0.043
						c-0.904,0.08-1.793,0.291-2.705,0.377c-1.305,0.117-2.793,0.199-3.311,1.578c-0.65,1.754-0.066,3.717-0.297,5.564
						c-0.037,0.316-0.189,1.836,0.607,1.65c1.139-0.26,1.613-2.129,2.439-2.457c0.826-0.322,1.986,2.027,3.457,3.508
						C301.566,249.97,303.115,249.081,302.205,248.034z"/>
				</g>
			</g>
			<g>
				<g>
					<path fill="#0A0A0A" d="M301.586,249.532L301.586,249.532c-0.561-0.027-1.158-0.334-1.684-0.859
						c-0.549-0.555-1.059-1.227-1.508-1.822c-0.572-0.758-1.221-1.615-1.588-1.635c-0.357,0.125-0.633,0.543-0.922,0.979
						c-0.414,0.625-0.885,1.33-1.619,1.504c-0.281,0.061-0.523-0.014-0.695-0.211c-0.348-0.402-0.303-1.256-0.242-1.727
						c0.09-0.711,0.051-1.465,0.016-2.195c-0.059-1.141-0.115-2.322,0.295-3.426c0.555-1.488,2.129-1.627,3.389-1.74l0.146-0.014
						c0.451-0.041,0.896-0.115,1.34-0.186c0.455-0.074,0.906-0.148,1.365-0.189c0.582-0.053,1.223-0.213,1.791-0.35
						c1.076-0.268,1.914-0.424,2.252-0.037c0.133,0.156,0.188,0.367,0.16,0.633c-0.111,0.951-1.818,1.662-3.055,2.055
						c0.998,0.131,2.385,0.293,3.334,0.348c0.781,0.045,1.246,0.322,1.246,0.742c0.008,0.686-1.254,1.193-3.285,1.328l-1.217,0.029
						c1.139,0.57,2.955,1.521,3.602,2.113c0.529,0.49,0.471,0.881,0.389,1.068c-0.244,0.563-1.258,0.678-2.414,0.24
						c-0.896-0.34-1.881-0.803-2.607-1.17c0.719,0.904,1.777,2.217,2.336,2.857c0.332,0.379,0.422,0.799,0.25,1.145
						C302.484,249.356,302.074,249.558,301.586,249.532L301.586,249.532z M296.834,244.692c0.619,0.033,1.223,0.832,1.988,1.846
						c0.441,0.584,0.939,1.248,1.463,1.773c0.582,0.58,1.08,0.689,1.328,0.701l0,0c0.27,0.01,0.486-0.074,0.566-0.23
						c0.074-0.15,0.01-0.361-0.178-0.582c-0.904-1.037-3.096-3.809-3.117-3.836l0.34-0.387c0.021,0.012,1.984,1.088,3.646,1.719
						c0.875,0.328,1.65,0.227,1.732,0.039c0.049-0.105-0.059-0.295-0.264-0.482c-0.887-0.816-4.393-2.477-4.43-2.494l0.113-0.494
						l2.271-0.057c2.27-0.152,2.781-0.705,2.781-0.801c0-0.041-0.193-0.197-0.744-0.227c-1.658-0.094-4.615-0.52-4.645-0.523
						l-0.021-0.51c1.453-0.334,3.791-1.156,3.883-1.951c0.014-0.109,0.002-0.193-0.031-0.232c-0.131-0.15-0.93,0.004-1.717,0.197
						c-0.584,0.148-1.248,0.313-1.871,0.371c-0.443,0.037-0.885,0.111-1.326,0.18c-0.461,0.078-0.92,0.15-1.381,0.191l-0.145,0.014
						c-1.229,0.111-2.498,0.225-2.936,1.4c-0.377,1.006-0.322,2.084-0.268,3.223c0.037,0.75,0.08,1.525-0.02,2.281
						c-0.076,0.625-0.025,1.156,0.121,1.328l0.223,0.291l-0.057-0.252c0.529-0.119,0.918-0.709,1.295-1.279
						c0.336-0.51,0.658-0.992,1.1-1.164C296.633,244.706,296.73,244.692,296.834,244.692L296.834,244.692z"/>
				</g>
			</g>
		</g>
		<g>
			<g>
				<g>
					<g>
						<g>
							<g>
								<path fill="#FFC54D" d="M340.924,183.379c0.318-6.256-4.525-11.582-10.871-12.071c0.557-0.881,0.902-1.905,0.961-3.012
									c0.172-3.494-2.582-6.471-6.162-6.644c-1.117-0.055-2.184,0.173-3.125,0.615c-0.398-2.98-2.928-5.351-6.107-5.504
									c-2.488-0.12-4.719,1.151-5.906,3.113c-1.117-1.434-2.848-2.396-4.836-2.494c-3.578-0.169-6.621,2.525-6.797,6.02
									c-0.066,1.312,0.281,2.551,0.928,3.593l-3.023,2.654l-0.885,17.573l4.602,10.689c-1.283,0.862-2.168,2.264-2.25,3.902
									c-0.141,2.791,2.059,5.161,4.912,5.302c1,0.047,1.939-0.195,2.756-0.637c1.004,1.301,2.57,2.176,4.367,2.264
									c2.053,0.098,3.908-0.857,5.023-2.373c1.076,0.975,2.496,1.602,4.078,1.674c2.477,0.121,4.699-1.135,5.891-3.079
									c0.801,0.346,1.676,0.563,2.604,0.61c4.041,0.193,7.484-2.851,7.682-6.803c0.096-1.923-0.596-3.703-1.795-5.05
									C337.398,192.229,340.682,188.232,340.924,183.379z"/>
							</g>
						</g>
						<g>
							<g>
								<path fill="#0A0A0A" d="M309.475,209.001c-1.734-0.082-3.336-0.879-4.43-2.189c-0.842,0.412-1.768,0.609-2.693,0.564
									c-2.998-0.145-5.313-2.644-5.168-5.575c0.08-1.583,0.875-3.023,2.188-3.979l-4.541-10.612l0.895-17.683l2.943-2.581
									c-0.621-1.083-0.916-2.308-0.854-3.558c0.182-3.631,3.355-6.442,7.074-6.262c1.865,0.09,3.594,0.923,4.799,2.303
									c1.316-1.926,3.563-3.04,5.945-2.925c3.145,0.15,5.74,2.396,6.301,5.387c0.924-0.372,1.932-0.548,2.932-0.498
									c3.721,0.181,6.598,3.283,6.412,6.915c-0.051,0.972-0.318,1.928-0.783,2.779c6.344,0.701,11.014,6.025,10.699,12.305
									c-0.242,4.718-3.277,8.78-7.777,10.45c1.133,1.408,1.705,3.149,1.615,4.943c-0.207,4.089-3.783,7.249-7.963,7.049
									c-0.85-0.043-1.688-0.225-2.486-0.544c-1.307,1.983-3.588,3.132-6.006,3.015c-1.482-0.072-2.898-0.621-4.029-1.555
									C313.322,208.259,311.449,209.097,309.475,209.001L309.475,209.001z M305.189,206.14l0.141,0.18
									c0.998,1.293,2.52,2.08,4.168,2.164c1.893,0.09,3.686-0.76,4.795-2.266l0.174-0.24l0.223,0.199
									c1.068,0.969,2.459,1.537,3.912,1.607c2.301,0.113,4.463-1.021,5.646-2.954l0.121-0.197l0.213,0.094
									c0.809,0.348,1.654,0.545,2.51,0.588c3.893,0.187,7.213-2.752,7.406-6.554c0.09-1.784-0.523-3.513-1.73-4.868l-0.258-0.29
									l0.375-0.126c4.488-1.512,7.541-5.48,7.773-10.111c0.309-6.13-4.355-11.311-10.627-11.796l-0.432-0.032l0.229-0.364
									c0.547-0.868,0.865-1.865,0.92-2.89c0.164-3.347-2.48-6.203-5.906-6.369c-1.035-0.05-2.072,0.156-3,0.592l-0.332,0.155
									l-0.047-0.356c-0.389-2.916-2.854-5.135-5.857-5.279c-2.313-0.112-4.48,1.033-5.66,2.984l-0.203,0.335l-0.238-0.311
									c-1.119-1.429-2.809-2.3-4.641-2.388c-3.428-0.164-6.35,2.422-6.518,5.77c-0.063,1.217,0.246,2.408,0.891,3.446l0.113,0.186
									l-3.105,2.721l-0.879,17.408l4.668,10.831l-0.182,0.121c-1.283,0.86-2.059,2.208-2.135,3.7
									c-0.133,2.643,1.957,4.897,4.662,5.024c0.9,0.047,1.799-0.162,2.609-0.602L305.189,206.14L305.189,206.14z"/>
							</g>
						</g>
					</g>
					<g>
						<g>
							<g>
								<path fill="#FFC54D" d="M271.238,145.331c0.146-2.875-2.121-5.318-5.061-5.46c-1.393-0.069-2.676,0.404-3.67,1.216
									c-0.549-0.866-1.506-1.465-2.627-1.52c-1.369-0.067-2.58,0.694-3.133,1.834c-0.816-1.903-2.674-3.286-4.922-3.396
									c-3.014-0.146-5.572,2.051-5.879,4.951c-1.193-1.421-2.971-2.37-4.998-2.468c-3.818-0.183-7.063,2.691-7.25,6.419
									c-0.045,0.921,0.102,1.803,0.396,2.618c-3.688,0.415-6.643,3.374-6.832,7.118c-0.186,3.612,2.266,6.753,5.699,7.654
									c-0.506,0.756-0.836,1.632-0.885,2.593c-0.148,2.877,2.119,5.319,5.061,5.462c2.305,0.109,4.322-1.235,5.164-3.204
									l0.018,0.005l24.432-18.935l0,0C269.191,149.841,271.113,147.836,271.238,145.331z"/>
							</g>
						</g>
						<g>
							<g>
								<path fill="#0A0A0A" d="M237.125,172.613c-3.08-0.15-5.469-2.72-5.313-5.731c0.041-0.853,0.291-1.665,0.74-2.428
									c-3.412-1.06-5.73-4.296-5.555-7.823c0.188-3.725,3.002-6.754,6.744-7.32c-0.246-0.78-0.352-1.595-0.311-2.416
									c0.197-3.864,3.574-6.854,7.529-6.663c1.82,0.088,3.545,0.86,4.811,2.14c0.57-2.771,3.133-4.771,6.068-4.626
									c2.111,0.102,3.959,1.271,4.932,3.089c0.686-1.002,1.861-1.588,3.121-1.528c1.063,0.05,2.045,0.569,2.676,1.402
									c1.051-0.772,2.324-1.161,3.623-1.099c3.08,0.148,5.465,2.721,5.313,5.735c-0.127,2.547-2.076,4.69-4.643,5.118
									l-24.355,18.879C241.58,171.414,239.426,172.725,237.125,172.613L237.125,172.613z M240.938,140.751
									c-3.662-0.178-6.791,2.589-6.973,6.17c-0.043,0.86,0.086,1.707,0.383,2.517l0.111,0.311l-0.33,0.038
									c-3.645,0.405-6.418,3.295-6.6,6.871c-0.174,3.398,2.141,6.507,5.504,7.392l0.354,0.096l-0.201,0.299
									c-0.516,0.767-0.799,1.593-0.842,2.462c-0.139,2.725,2.02,5.053,4.805,5.187c2.115,0.102,4.086-1.12,4.91-3.045l0.098-0.228
									l0.113,0.044l24.439-18.902c2.355-0.364,4.145-2.316,4.264-4.646c0.141-2.724-2.02-5.052-4.809-5.186
									c-1.26-0.062-2.496,0.35-3.486,1.153l-0.232,0.194l-0.162-0.255c-0.523-0.828-1.43-1.351-2.418-1.397
									c-1.221-0.061-2.352,0.604-2.875,1.685l-0.258,0.531l-0.23-0.54c-0.813-1.897-2.609-3.138-4.689-3.237
									c-2.846-0.139-5.305,1.936-5.598,4.72l-0.068,0.622l-0.404-0.482C244.553,141.705,242.799,140.839,240.938,140.751
									L240.938,140.751z"/>
							</g>
						</g>
					</g>
					<g>
						<g>
							<g>
								<polygon fill="#0AC3C8" points="302.775,176.061 309.662,173.612 306.516,180.689 310.699,186.774 303.813,187.25 								
									"/>
							</g>
						</g>
						<g>
							<g>
								<path fill="#0A0A0A" d="M303.57,187.527l-1.078-11.642l7.662-2.725l-3.336,7.503l4.359,6.338L303.57,187.527L303.57,187.527
									z M303.061,176.236l0.994,10.738l6.168-0.427l-4.01-5.831l2.955-6.654L303.061,176.236L303.061,176.236z"/>
							</g>
						</g>
					</g>
					<g>
						<g>
							<g>
								<polygon fill="#0AC3C8" points="257.145,153.169 253.705,147.272 251.443,153.667 244.32,153.446 248.318,158.816 								
									"/>
							</g>
						</g>
						<g>
							<g>
								<path fill="#0A0A0A" d="M248.256,159.169l-4.473-6l7.473,0.232l2.389-6.756l3.855,6.607L248.256,159.169L248.256,159.169z
									 M244.857,153.724l3.527,4.738l8.402-5.379l-3.02-5.182l-2.135,6.031L244.857,153.724L244.857,153.724z"/>
							</g>
						</g>
					</g>
					<g>
						<g>
							<g>
								<path fill="#EBA42D" d="M242.045,187.856c0,0-3.963-4.452-3.824-13.243c0.137-8.789,11.498-33.365,44.768-22.367
									c32.896,10.877,31.277,61.693-6.639,54.501C238.434,199.556,242.045,187.856,242.045,187.856z"/>
							</g>
						</g>
						<g>
							<g>
								<path fill="#0A0A0A" d="M281.729,207.665c-1.74-0.086-3.57-0.307-5.432-0.662c-22.852-4.333-30.781-10.318-33.412-14.574
									c-1.424-2.313-1.229-4.018-1.127-4.508c-0.609-0.736-3.932-5.151-3.805-13.313c0.064-3.925,2.539-11.951,9.105-17.968
									c5.738-5.258,13.395-7.81,22.137-7.389c4.322,0.205,8.99,1.131,13.879,2.745c17.801,5.887,25.666,23.68,22.98,37.479
									C304.254,198.749,296.916,208.396,281.729,207.665L281.729,207.665z M269.17,149.769c-8.717-0.42-16.033,2.022-21.746,7.253
									c-6.447,5.903-8.877,13.759-8.938,17.595c-0.137,8.575,3.725,13.023,3.764,13.066l0.098,0.109l-0.045,0.138
									c-0.004,0.017-0.498,1.761,1.064,4.267c2.588,4.155,10.424,10.006,33.031,14.296c1.838,0.346,3.639,0.566,5.355,0.65
									c12.607,0.607,21.498-6.034,23.781-17.762c2.641-13.584-5.105-31.095-22.635-36.889
									C278.063,150.893,273.443,149.978,269.17,149.769L269.17,149.769z"/>
							</g>
						</g>
					</g>
				</g>
				<g>
					<g>
						<g>
							<path fill="#FFD9B3" d="M265.18,159.643c0,0-21.643-1.061-28.945,20.023c-8.65,24.98,27.061,48.895,50.879,14.141
								C287.113,193.807,262.629,185.424,265.18,159.643z"/>
						</g>
					</g>
					<g>
						<g>
							<path fill="#0A0A0A" d="M258.203,211.452L258.203,211.452c-7.688-0.373-14.9-4.369-19.305-10.689
								c-4.352-6.252-5.414-13.968-2.918-21.179c7.279-21.013,28.992-20.213,29.211-20.202l0.277,0.014l-0.027,0.271
								c-2.496,25.286,21.518,33.812,21.762,33.894l0.322,0.114l-0.191,0.276C279.25,205.753,268.904,211.97,258.203,211.452
								L258.203,211.452z M264.889,159.894c-2.549-0.017-21.697,0.505-28.4,19.858c-2.443,7.052-1.402,14.605,2.85,20.715
								c4.309,6.188,11.371,10.1,18.891,10.465h0.002c10.422,0.502,20.525-5.531,28.475-17
								C283.83,192.815,262.701,183.759,264.889,159.894L264.889,159.894z"/>
						</g>
					</g>
				</g>
				<g>
					<g>
						<path d="M262.49,185.517c-0.063,1.262-0.742,2.257-1.512,2.219c-0.77-0.039-1.344-1.091-1.281-2.354s0.742-2.255,1.512-2.218
							C261.98,183.203,262.557,184.253,262.49,185.517z"/>
					</g>
				</g>
				<g>
					<g>
						<path d="M243.617,180.043c-0.193,1.242-0.869,2.174-1.508,2.08c-0.637-0.096-0.992-1.18-0.801-2.426
							c0.191-1.24,0.865-2.175,1.502-2.079C243.449,177.711,243.809,178.796,243.617,180.043z"/>
					</g>
				</g>
				<g>
					<g>
						<path fill="#0A0A0A" d="M262.439,177.31c-0.047-0.121-4.266-11.435,1.613-17.07c-2.855,0.963-9.98,4.229-11.398,13.083
							l-0.525-0.079c1.826-11.435,12.885-13.834,12.994-13.855l0.217,0.462c-6.957,5.04-2.447,17.153-2.402,17.276L262.439,177.31
							L262.439,177.31z"/>
					</g>
				</g>
				<g>
					<g>
						<path fill="#0A0A0A" d="M254.672,197.208c-9.918-0.478-14.568-4.926-14.627-4.989l0.383-0.364
							c0.072,0.074,7.652,7.305,24.273,4.023l0.109,0.512C260.963,197.148,257.588,197.35,254.672,197.208L254.672,197.208z"/>
					</g>
				</g>
				<g>
					<g>
						<g>
							<path fill="#FF9F80" d="M264.697,196.083c-11.303,2.134-18.357-0.322-21.732-2.127c0.518,2.464,1.473,5.51,3.268,8.265
								c4.705,7.226,16.986,10.554,18.592-0.061C265.197,199.704,265.08,197.712,264.697,196.083z"/>
						</g>
					</g>
					<g>
						<g>
							<path fill="#0A0A0A" d="M257.252,209.185c-0.004,0-0.004,0-0.004,0c-4.133-0.201-8.754-3.008-11.242-6.825
								c-1.521-2.335-2.631-5.146-3.303-8.356l-0.111-0.547l0.506,0.269c2.18,1.169,5.932,2.618,11.418,2.884
								c3.17,0.153,6.578-0.113,10.131-0.78l0.252-0.05l0.059,0.246c0.432,1.838,0.475,3.917,0.133,6.172
								C264.385,206.847,261.531,209.392,257.252,209.185L257.252,209.185z M243.344,194.442c0.668,2.921,1.713,5.488,3.109,7.64
								c2.402,3.683,6.85,6.392,10.822,6.583l0,0c2.336,0.111,6.387-0.59,7.285-6.544c0.316-2.091,0.293-4.02-0.066-5.735
								c-3.502,0.644-6.869,0.895-10.004,0.743C249.305,196.876,245.631,195.584,243.344,194.442L243.344,194.442z"/>
						</g>
					</g>
				</g>
				<g>
					<g>
						<g>
							<path fill="#FD837C" d="M257.459,205c-1.957,0.23-3.305,1.399-4.225,2.7c3.617,1.471,7.463,1.324,9.711-1.436
								C261.471,205.481,259.648,204.748,257.459,205z"/>
						</g>
					</g>
					<g>
						<g>
							<path fill="#FFFFFF" d="M254.973,201.354c2.002,0.1,6.293,0.398,9.779-0.662c0.107-1.682,0.027-3.084-0.256-4.312
								c-5.98,1.129-10.855,0.892-14.537,0.229C251.295,198.693,253.289,201.27,254.973,201.354z"/>
						</g>
					</g>
				</g>
			</g>
			<g>
				<g>
					<path fill="#0A0A0A" d="M296.186,184.954c-0.072-0.003-0.148-0.009-0.227-0.015c-11.674-0.733-23.285-14.953-23.4-15.096
						l0.418-0.319c0.113,0.143,11.58,14.178,23.021,14.895c3.852,0.236,7.354-1.07,10.33-3.912l0.375,0.368
						C303.668,183.772,300.133,185.144,296.186,184.954L296.186,184.954z"/>
				</g>
			</g>
			<g>
				<g>
					<path fill="#0A0A0A" d="M289.549,192.895c-0.006,0-0.006,0-0.006,0l0.033-0.518c0.143,0.015,10.99,0.523,16.697-11.796
						l0.484,0.218C300.963,193.305,289.922,192.914,289.549,192.895L289.549,192.895z"/>
				</g>
			</g>
			<g>
				<g>
					<path fill="#0A0A0A" d="M305.93,180.163c-17.867-8.93-19.842-18.038-19.918-18.422l0.525-0.099
						c0.018,0.093,2.031,9.259,19.637,18.058L305.93,180.163L305.93,180.163z"/>
				</g>
			</g>
			<g opacity="0.5">
				<g>
					<path fill="#FFD9B3" d="M268.361,177.594c0,0,8.51,14.068,2.551,24.847c-4.674,8.454-16.404,9.591-24.5,4.753
						c0,0,20.104,15.313,40.701-13.387C287.113,193.807,274.51,189.321,268.361,177.594z"/>
				</g>
			</g>
		</g>
	</g>
	<g>
		<g>
			<g>
				<g>
					<path fill="#FACEAB" d="M140.9,195.501c0,0-2.389-0.881-4.274,2.639c0,0-2.64,0.881-2.64,2.892
						c0,3.017,4.902,4.147,4.902,4.147s2.766,0.378,4.274-3.016C144.672,198.769,143.54,195.878,140.9,195.501z"/>
				</g>
				<g>
					<path d="M139.141,205.444c-0.002,0-0.002,0-0.002,0c-0.179,0-0.283-0.016-0.283-0.016c-0.23-0.053-5.121-1.217-5.121-4.397
						c0-1.966,2.217-2.908,2.717-3.096c1.329-2.421,2.922-2.784,3.76-2.784c0.463,0,0.764,0.109,0.776,0.113
						c1.099,0.151,2.03,0.781,2.572,1.762c0.763,1.377,0.7,3.286-0.167,5.238C142.082,205.214,139.807,205.444,139.141,205.444
						L139.141,205.444z M138.945,204.934c0.01,0,0.083,0.007,0.193,0.007c0.757,0,2.639-0.28,3.795-2.88
						c0.803-1.808,0.871-3.554,0.187-4.79c-0.472-0.852-1.251-1.377-2.255-1.521c-0.053-0.014-0.287-0.095-0.654-0.095
						c-0.734,0-2.148,0.339-3.363,2.604l-0.047,0.088l-0.095,0.032c-0.024,0.009-2.468,0.849-2.468,2.652
						C134.238,203.796,138.84,204.909,138.945,204.934C138.944,204.934,138.943,204.934,138.945,204.934L138.945,204.934z"/>
				</g>
			</g>
			<g>
				<g>
					<path d="M137.927,205.177l-0.087-0.496c0.019-0.004,1.91-0.357,1.805-1.617c-0.102-1.212-1.602-2.292-1.948-2.525
						c-0.517,0.049-0.903-0.082-1.159-0.387c-0.57-0.68-0.195-1.945-0.15-2.086l0.479,0.15c-0.099,0.313-0.279,1.215,0.058,1.612
						c0.153,0.183,0.424,0.251,0.801,0.199l0.09-0.011l0.076,0.047c0.086,0.055,2.121,1.343,2.254,2.959
						C140.26,204.396,138.744,205.031,137.927,205.177L137.927,205.177z"/>
				</g>
			</g>
		</g>
		<g>
			<g>
				<g>
					<path d="M124.798,217.552c-6.973,6.392-13.726,8.538-13.833,8.57l-0.294-0.959c0.166-0.053,16.646-5.313,24.408-24.082
						l0.93,0.385C133.066,208.578,128.894,213.797,124.798,217.552L124.798,217.552z"/>
				</g>
			</g>
			<g>
				<g>
					
						<rect x="109.405" y="281.625" transform="matrix(-0.9904 -0.1385 0.1385 -0.9904 179.7832 580.9103)" width="1.382" height="5.155"/>
				</g>
			</g>
			<g>
				<g>
					<rect x="94.016" y="282.777" transform="matrix(0.986 0.1667 -0.1667 0.986 48.8904 -11.7944)" width="1.383" height="5.153"/>
				</g>
			</g>
			<g>
				<g>
					<path fill="#0E2D6D" d="M116.454,247.141l-29.665,1.759c0,0-1.634,20.742,4.147,33.94c0,0,3.779,2.447,6.412,1.131
						c1.759-0.88,0.25-8.171,3.017-18.604c0,0,2.514-1.759,4.651-1.382c2.137,0.377,1.759,13.45,1.759,17.347
						c0,0-0.125,1.258,3.897,1.383c3.646,0.113,5.028-0.88,5.657-5.782C116.329,276.932,118.464,254.934,116.454,247.141z"/>
				</g>
				<g>
					<path d="M95.566,284.611c-2.331,0-4.669-1.497-4.767-1.561l-0.094-0.11c-5.741-13.105-4.185-33.852-4.169-34.061l0.018-0.218
						l0.218-0.014l29.872-1.771l0.053,0.2c1.998,7.748-0.031,28.979-0.119,29.879c-0.592,4.613-1.852,6.018-5.393,6.018h0
						c-0.168,0-0.342-0.002-0.522-0.009c-2.028-0.063-3.337-0.414-3.889-1.044c-0.266-0.304-0.255-0.565-0.25-0.614
						c-0.001-0.407,0.003-0.95,0.008-1.577c0.036-4.157,0.129-15.199-1.562-15.498c-1.823-0.314-3.964,1.013-4.389,1.292
						c-1.437,5.461-1.696,9.991-1.886,13.307c-0.174,3.048-0.28,4.886-1.237,5.365C96.909,284.472,96.272,284.611,95.566,284.611
						L95.566,284.611z M91.136,282.668c0.383,0.233,2.453,1.44,4.431,1.44c0.626,0,1.187-0.121,1.668-0.362
						c0.697-0.349,0.807-2.276,0.96-4.944c0.191-3.354,0.454-7.947,1.926-13.499l0.023-0.089l0.075-0.053
						c0.096-0.066,2.633-1.814,4.839-1.424c1.751,0.31,2.057,6.617,1.977,15.996c-0.005,0.625-0.009,1.168-0.009,1.598
						c0.002,0.291,0.665,1.038,3.653,1.131c0.174,0.007,0.343,0.009,0.506,0.009h0c2.947,0,4.277-0.774,4.893-5.571
						c0.02-0.209,2.073-21.661,0.182-29.496l-29.237,1.734C86.874,251.388,85.796,270.397,91.136,282.668L91.136,282.668z"/>
				</g>
			</g>
			<g opacity="0.75">
				<g>
					<g>
						<path fill="#0E2D6D" d="M116.454,247.141l-29.665,1.759c0,0-0.137,1.746-0.191,4.537c2.635,1.277,7.195,3.139,13.221,3.047
							c11.229-0.166,14.75-5.195,14.75,3.018s1.508,21.789-2.347,22.292c-3.855,0.503-4.861-0.671-4.525-4.022
							c0.334-3.353,0.167-12.068-1.341-14.582s-8.212-0.168-8.715,1.676c-0.502,1.844-1.509,12.57-1.341,16.258
							c0.105,2.305-3.063,2.514-5.577,1.201c0.072,0.172,0.14,0.348,0.213,0.517c0,0,3.779,2.447,6.412,1.131
							c1.759-0.88,0.25-8.171,3.017-18.604c0,0,2.514-1.759,4.651-1.382c2.137,0.377,1.759,13.45,1.759,17.347
							c0,0-0.125,1.258,3.897,1.383c3.646,0.113,5.028-0.88,5.657-5.782C116.329,276.932,118.464,254.934,116.454,247.141z"/>
					</g>
				</g>
			</g>
			<g>
				<g>
					<polygon fill="#A6B1C9" points="88.673,254.683 87.919,257.573 90.308,257.448 					"/>
				</g>
			</g>
			<g>
				<g>
					<polygon fill="#A6B1C9" points="115.872,254.512 112.889,254.681 114.317,256.945 					"/>
				</g>
			</g>
			<g>
				<g>
					<polygon fill="#A6B1C9" points="115.345,268.955 114.92,265.997 112.787,267.613 					"/>
				</g>
			</g>
			<g>
				<g>
					<polygon fill="#A6B1C9" points="95.316,281.399 94.891,278.442 92.758,280.058 					"/>
				</g>
			</g>
			<g>
				<g>
					<polygon fill="#A6B1C9" points="109.442,279.126 112.235,278.066 110.191,276.336 					"/>
				</g>
			</g>
			<g>
				<g>
					<polygon fill="#A6B1C9" points="89.665,271.501 92.458,270.44 90.415,268.71 					"/>
				</g>
			</g>
			<g>
				<g>
					<polygon fill="#A6B1C9" points="105.64,258.028 107.026,260.675 108.5,258.439 					"/>
				</g>
			</g>
			<g>
				<g>
					<polygon fill="#A6B1C9" points="94.027,261.017 95.413,263.663 96.886,261.429 					"/>
				</g>
			</g>
			<g>
				<g>
					<path d="M95.566,284.611c-2.331,0-4.669-1.497-4.767-1.561l-0.094-0.11c-5.741-13.105-4.185-33.852-4.169-34.061l0.018-0.218
						l0.218-0.014l29.872-1.771l0.053,0.2c1.998,7.748-0.031,28.979-0.119,29.879c-0.592,4.613-1.852,6.018-5.393,6.018h0
						c-0.168,0-0.342-0.002-0.522-0.009c-2.028-0.063-3.337-0.414-3.889-1.044c-0.266-0.304-0.255-0.565-0.25-0.614
						c-0.001-0.407,0.003-0.95,0.008-1.577c0.036-4.157,0.129-15.199-1.562-15.498c-1.823-0.314-3.964,1.013-4.389,1.292
						c-1.437,5.461-1.696,9.991-1.886,13.307c-0.174,3.048-0.28,4.886-1.237,5.365C96.909,284.472,96.272,284.611,95.566,284.611
						L95.566,284.611z M91.136,282.668c0.383,0.233,2.453,1.44,4.431,1.44c0.626,0,1.187-0.121,1.668-0.362
						c0.697-0.349,0.807-2.276,0.96-4.944c0.191-3.354,0.454-7.947,1.926-13.499l0.023-0.089l0.075-0.053
						c0.096-0.066,2.633-1.814,4.839-1.424c1.751,0.31,2.057,6.617,1.977,15.996c-0.005,0.625-0.009,1.168-0.009,1.598
						c0.002,0.291,0.665,1.038,3.653,1.131c0.174,0.007,0.343,0.009,0.506,0.009h0c2.947,0,4.277-0.774,4.893-5.571
						c0.02-0.209,2.073-21.661,0.182-29.496l-29.237,1.734C86.874,251.388,85.796,270.397,91.136,282.668L91.136,282.668z"/>
				</g>
			</g>
			<g>
				<g>
					<g>
						<g>
							<path d="M76.903,232.339l-0.379-0.932c16.626-6.787,22.567-26.15,22.625-26.346l0.965,0.281
								C100.056,205.543,93.848,225.419,76.903,232.339L76.903,232.339z"/>
						</g>
					</g>
				</g>
				<g>
					<g>
						<g>
							<path fill="#FACEAB" d="M76.508,230.177c-0.49-0.162-1.107-0.491-1.647-1.157c-1.099-1.362-1.753-3.628-2.54-2.675
								c-0.788,0.956,1.182,4.225,1.182,4.225s-2.237-1.711-3.397-2.776c-1.16-1.065-1.836-0.063,0.268,2.427l1.458,1.577
								c0,0-3.51-1.28-4.71-1.335c-1.198-0.054-1.019,1.048,0.543,1.77c1.561,0.721,3.619,1.326,3.619,1.326
								s-3.374,0.383-4.696,0.472c-1.321,0.087-0.92,1.734,1.072,1.734c1.992,0.001,4.382-0.795,4.699-0.019
								c0.318,0.775-0.667,2.354-0.099,3.3c0.567,0.944,2.247-1.37,3.534-3.979c0.448-0.909,0.915-1.596,1.335-2.117
								c-0.002-0.08,0.008-0.164,0.047-0.259C77.815,231.171,76.939,230.433,76.508,230.177z"/>
						</g>
						<g>
							<path d="M72.6,239.512L72.6,239.512c-0.162,0-0.389-0.059-0.557-0.337c-0.368-0.614-0.186-1.407-0.025-2.107
								c0.112-0.493,0.219-0.957,0.108-1.228c-0.062-0.152-0.393-0.184-0.661-0.184c-0.416,0-0.967,0.074-1.55,0.153
								c-0.707,0.096-1.508,0.205-2.25,0.205c-1.333,0-2.073-0.688-2.095-1.336c-0.013-0.414,0.291-0.854,1.003-0.9
								c0.808-0.054,2.408-0.222,3.511-0.34c-0.731-0.248-1.699-0.599-2.524-0.98c-0.991-0.455-1.575-1.133-1.454-1.685
								c0.036-0.169,0.203-0.565,0.936-0.565c0.898,0.04,2.774,0.631,3.921,1.018l-0.773-0.835c-1.11-1.313-1.617-2.418-1.364-2.962
								c0.204-0.438,0.819-0.4,1.451,0.179c0.661,0.607,1.687,1.435,2.435,2.026c-0.541-1.102-1.171-2.734-0.583-3.448
								c0.173-0.212,0.368-0.319,0.576-0.319c0.531,0,0.922,0.682,1.419,1.545c0.274,0.479,0.587,1.021,0.934,1.45
								c0.418,0.517,0.934,0.88,1.53,1.076c0.521,0.304,1.539,1.144,0.821,2.851c-0.021,0.049-0.029,0.096-0.027,0.151l0.004,0.093
								l-0.06,0.074c-0.487,0.604-0.926,1.301-1.306,2.07C75.662,235.9,73.818,239.512,72.6,239.512L72.6,239.512z M71.465,235.153
								c0.397,0,0.945,0.051,1.127,0.496c0.17,0.417,0.047,0.957-0.084,1.53c-0.146,0.637-0.297,1.296-0.033,1.735
								c0.056,0.094,0.101,0.094,0.125,0.094c0.476,0,1.715-1.517,2.969-4.055c0.382-0.774,0.823-1.479,1.312-2.097
								c0.006-0.091,0.027-0.177,0.063-0.263c0.545-1.297-0.119-1.938-0.564-2.201c-0.63-0.203-1.24-0.631-1.713-1.215
								c-0.373-0.463-0.695-1.021-0.979-1.516c-0.332-0.577-0.744-1.293-0.983-1.293c-0.066,0-0.146,0.084-0.189,0.136
								c-0.491,0.597,0.478,2.729,1.205,3.934l-0.368,0.329c-0.022-0.017-2.261-1.729-3.415-2.791
								c-0.286-0.262-0.504-0.355-0.614-0.355c-0.111,0.168-0.024,0.936,1.243,2.436l1.451,1.568l-0.271,0.406
								c-0.035-0.012-3.487-1.268-4.634-1.319c-0.004,0-0.008,0-0.012,0c-0.314,0-0.48,0.064-0.503,0.169
								c-0.047,0.213,0.294,0.715,1.174,1.121c1.526,0.704,3.564,1.307,3.584,1.314l-0.043,0.49
								c-0.033,0.004-3.394,0.385-4.708,0.472c-0.34,0.022-0.54,0.167-0.533,0.384c0.011,0.342,0.524,0.85,1.588,0.85
								c0.714,0,1.496-0.106,2.188-0.201C70.448,235.23,71.015,235.153,71.465,235.153L71.465,235.153z"/>
						</g>
					</g>
				</g>
			</g>
			<g>
				<g>
					<path fill="#00AEEF" d="M108.744,213.942c-0.275-0.143-0.553-0.268-0.837-0.364c-6.268-2.121-10.085-0.474-11.528,0.411
						c-0.438,0.269-0.665,0.469-0.665,0.469s-10.182,10.434-11.816,32.305c0,0,0.173,5.668,11.061,7.291
						c11.816,1.76,24.638-4.148,24.89-8.924C120.173,238.945,116.356,217.889,108.744,213.942z"/>
				</g>
				<g>
					<path d="M99.359,254.624C99.358,254.624,99.358,254.624,99.359,254.624c-1.518-0.002-3.01-0.108-4.437-0.322
						c-10.97-1.633-11.269-7.291-11.276-7.53c1.623-21.739,11.785-32.384,11.888-32.489c0.023-0.021,0.262-0.23,0.713-0.508
						c0.906-0.555,2.87-1.484,5.855-1.484c1.846,0,3.825,0.354,5.885,1.051c0.272,0.092,0.557,0.215,0.872,0.379
						c7.621,3.949,11.577,25.018,11.24,31.422C119.878,249.321,110.069,254.624,99.359,254.624L99.359,254.624z M102.102,212.792
						c-2.863,0-4.732,0.885-5.592,1.411c-0.411,0.252-0.629,0.442-0.631,0.444c-0.087,0.09-10.124,10.618-11.731,32.135
						c0.002,0.027,0.327,5.455,10.848,7.023c1.402,0.209,2.87,0.314,4.361,0.314c10.459,0,20.03-5.034,20.239-9.003
						c0.334-6.323-3.522-27.093-10.968-30.952c-0.292-0.15-0.555-0.265-0.802-0.348
						C105.818,213.138,103.893,212.792,102.102,212.792L102.102,212.792z"/>
				</g>
			</g>
			<g>
				<g>
					<g>
						<path fill="#FFE938" d="M90.313,229.777c0.775,1.836,1.77,2.72,3.339,0.784c1.003-1.237,2.346-1.945,3.479,0.768
							c1.134,2.715,2.845,2.816,3.996,0.29c1.152-2.528,2.987-2.58,4.342-0.454c1.356,2.123,3.56,2.883,4.43,0.385
							s1.875-3.737,4.49-1.745c1.723,1.312,2.561,0.077,2.936-0.921c-1.865-6.597-4.738-12.949-8.581-14.941
							c-0.275-0.143-0.553-0.268-0.837-0.364c-6.268-2.121-10.085-0.474-11.528,0.411c-0.438,0.269-0.665,0.469-0.665,0.469
							s-5.081,5.217-8.641,15.988C87.792,228.938,89.18,227.099,90.313,229.777z"/>
					</g>
					<g>
						<path d="M99.203,233.692c-0.875,0-1.692-0.805-2.303-2.266c-0.84-2.008-1.827-2.219-3.052-0.707
							c-0.646,0.796-1.236,1.182-1.808,1.182c-0.987,0-1.59-1.156-1.958-2.025c-0.234-0.552-0.611-1.21-1.083-1.21
							c-0.499,0-1.134,0.706-1.699,1.889l-0.466-0.187c3.537-10.703,8.647-16.033,8.699-16.086c0.024-0.021,0.263-0.23,0.714-0.508
							c0.906-0.555,2.87-1.484,5.855-1.484c1.846,0,3.825,0.354,5.885,1.051c0.272,0.092,0.557,0.215,0.872,0.379
							c4.301,2.229,7.109,9.439,8.707,15.096l0.022,0.079l-0.029,0.079c-0.646,1.722-1.875,2.133-3.322,1.031
							c-0.828-0.631-1.495-0.938-2.037-0.938c-0.83,0-1.428,0.744-2.064,2.565c-0.525,1.511-1.461,1.735-1.972,1.735
							c-0.993,0-2.08-0.772-2.907-2.067c-0.579-0.906-1.256-1.407-1.909-1.407c-0.747,0-1.455,0.649-1.993,1.83
							C100.614,233.352,99.776,233.692,99.203,233.692L99.203,233.692z M95.329,229.212c0.79,0,1.474,0.681,2.034,2.021
							c0.521,1.245,1.19,1.958,1.84,1.958c0.601,0,1.204-0.596,1.696-1.675c0.624-1.37,1.494-2.126,2.45-2.126
							c0.831,0,1.659,0.583,2.333,1.639c0.723,1.133,1.674,1.838,2.482,1.838c0.835,0,1.276-0.762,1.498-1.399
							c0.526-1.507,1.196-2.903,2.538-2.903c0.657,0,1.422,0.342,2.342,1.041c0.451,0.344,0.857,0.517,1.208,0.517
							c0.667,0,1.077-0.661,1.31-1.249c-2.219-7.816-5.211-13.037-8.431-14.707c-0.292-0.15-0.555-0.265-0.802-0.348
							c-2.008-0.68-3.933-1.025-5.724-1.025c-2.863,0-4.732,0.885-5.592,1.411c-0.411,0.252-0.629,0.442-0.631,0.444
							c-0.034,0.035-4.482,4.68-7.921,14.023c0.312-0.301,0.663-0.508,1.041-0.508c0.6,0,1.121,0.51,1.547,1.516
							c0.87,2.063,1.689,2.23,2.911,0.725C94.097,229.612,94.728,229.212,95.329,229.212L95.329,229.212z"/>
					</g>
				</g>
				<g>
					<g>
						<path fill="#F6861F" d="M88.419,235.452c0.925,2.031,2.067,2.991,3.765,0.774c1.085-1.419,2.568-2.253,3.922,0.752
							c1.354,3.007,3.274,3.069,4.486,0.202s3.268-2.982,4.852-0.645c1.584,2.34,4.077,3.121,4.976,0.294
							c0.899-2.825,1.985-4.245,4.978-2.093c1.805,1.299,2.712,0.222,3.151-0.835c-0.344-1.644-0.75-3.337-1.225-5.019
							c-0.375,0.998-1.213,2.232-2.936,0.921c-2.615-1.992-3.619-0.753-4.49,1.745s-3.074,1.738-4.43-0.385
							c-1.355-2.126-3.19-2.074-4.342,0.454c-1.151,2.526-2.862,2.425-3.996-0.29c-1.133-2.713-2.476-2.005-3.479-0.768
							c-1.569,1.936-2.563,1.052-3.339-0.784c-1.133-2.679-2.521-0.839-3.241,0.669c-0.427,1.293-0.831,2.664-1.203,4.118
							C86.625,233.735,87.552,233.548,88.419,235.452z"/>
					</g>
					<g>
						<path d="M98.458,239.535c-0.952,0-1.867-0.871-2.581-2.452c-1.017-2.258-2.142-2.469-3.494-0.704
							c-0.706,0.921-1.36,1.37-2.001,1.37c-0.813,0-1.51-0.697-2.191-2.192c-0.278-0.611-0.722-1.339-1.26-1.339
							c-0.269,0-0.563,0.174-0.875,0.516l-0.429-0.232c0.361-1.408,0.768-2.801,1.208-4.133c0.4-0.843,1.196-2.205,2.165-2.205
							c0.6,0,1.121,0.51,1.547,1.516c0.87,2.063,1.689,2.23,2.911,0.725c1.482-1.83,2.92-1.533,3.907,0.829
							c0.521,1.245,1.19,1.958,1.84,1.958c0.601,0,1.204-0.596,1.696-1.675c0.624-1.37,1.494-2.126,2.45-2.126
							c0.831,0,1.659,0.583,2.333,1.639c0.723,1.133,1.674,1.838,2.482,1.838c0.835,0,1.276-0.762,1.498-1.399
							c0.526-1.507,1.196-2.903,2.538-2.903c0.657,0,1.422,0.342,2.342,1.041c0.451,0.344,0.857,0.517,1.208,0.517
							c0.696,0,1.112-0.72,1.34-1.325l0.269-0.718l0.208,0.737c0.456,1.614,0.87,3.309,1.229,5.035l0.016,0.076l-0.029,0.072
							c-0.7,1.682-1.984,2.053-3.53,0.941c-0.931-0.668-1.678-0.992-2.286-0.992c-0.969,0-1.637,0.856-2.305,2.959
							c-0.549,1.729-1.606,1.985-2.188,1.985c-1.086,0-2.297-0.829-3.236-2.215c-0.669-0.987-1.438-1.53-2.168-1.53
							c-0.867,0-1.664,0.756-2.245,2.132C100.209,238.733,99.369,239.535,98.458,239.535L98.458,239.535z M94.063,234.692
							c0.855,0,1.62,0.734,2.273,2.184c0.618,1.37,1.39,2.156,2.122,2.156c0.696,0,1.373-0.693,1.903-1.949
							c0.665-1.574,1.627-2.438,2.708-2.438c0.915,0,1.808,0.604,2.584,1.75c0.833,1.229,1.914,1.994,2.82,1.994
							c0.777,0,1.368-0.564,1.708-1.636c0.546-1.718,1.262-3.31,2.784-3.31c0.717,0,1.561,0.355,2.579,1.088
							c1.249,0.9,2.157,0.689,2.743-0.654c-0.306-1.459-0.65-2.892-1.024-4.271c-0.685,1.175-1.776,1.351-3.026,0.397
							c-0.828-0.631-1.495-0.938-2.037-0.938c-0.83,0-1.428,0.744-2.064,2.565c-0.525,1.511-1.461,1.735-1.972,1.735
							c-0.993,0-2.08-0.772-2.907-2.067c-0.579-0.906-1.256-1.407-1.909-1.407c-0.747,0-1.455,0.649-1.993,1.83
							c-0.741,1.629-1.58,1.97-2.153,1.97c-0.875,0.001-1.692-0.804-2.303-2.266c-0.84-2.008-1.827-2.219-3.052-0.707
							c-0.646,0.796-1.236,1.182-1.808,1.182c-0.987,0-1.59-1.156-1.958-2.025c-0.234-0.552-0.611-1.21-1.083-1.21
							c-0.499,0-1.134,0.706-1.699,1.889c-0.351,1.064-0.685,2.188-0.993,3.331c0.855-0.468,1.689,0.032,2.341,1.463
							c1.048,2.301,1.997,2.471,3.337,0.725C92.687,235.157,93.386,234.692,94.063,234.692L94.063,234.692z"/>
					</g>
				</g>
				<g>
					<g>
						<path fill="#D92132" d="M87.11,241.741c0.919,2.184,2.101,3.236,3.972,0.937c1.196-1.472,2.794-2.31,4.139,0.922
							c1.344,3.231,3.379,3.357,4.754,0.351c1.375-3.006,3.56-3.063,5.168-0.533c1.608,2.53,4.23,3.438,5.271,0.467
							c1.04-2.972,2.238-4.443,5.346-2.068c2.706,2.067,3.589-1.164,3.772-2.036c-0.22-1.784-0.548-3.788-0.983-5.877
							c-0.439,1.057-1.347,2.134-3.151,0.835c-2.993-2.152-4.079-0.732-4.978,2.093c-0.898,2.827-3.392,2.046-4.976-0.294
							c-1.584-2.338-3.64-2.223-4.852,0.645s-3.132,2.805-4.486-0.202c-1.354-3.005-2.837-2.171-3.922-0.752
							c-1.698,2.217-2.84,1.257-3.765-0.774c-0.867-1.904-1.794-1.717-2.55-0.888c-0.475,1.856-0.896,3.844-1.237,5.965
							C85.415,239.851,86.317,239.856,87.11,241.741z"/>
					</g>
					<g>
						<path d="M97.684,246.368c-1.021,0-1.978-0.948-2.696-2.673c-1.014-2.439-2.218-2.696-3.712-0.858
							c-0.758,0.932-1.45,1.386-2.114,1.386c-1.148,0-1.854-1.361-2.285-2.384c-0.281-0.67-0.741-1.47-1.33-1.47
							c-0.23,0-0.483,0.118-0.751,0.351l-0.523,0.451l0.111-0.682c0.327-2.031,0.746-4.045,1.242-5.987l0.058-0.107
							c1.052-1.154,2.153-0.825,2.965,0.954c1.048,2.301,1.998,2.471,3.337,0.725c1.587-2.072,3.181-1.795,4.351,0.803
							c0.626,1.391,1.38,2.156,2.122,2.156c0.696-0.001,1.373-0.693,1.903-1.949c0.665-1.574,1.627-2.438,2.708-2.438
							c0.915,0,1.808,0.604,2.584,1.75c0.833,1.229,1.914,1.994,2.82,1.994c0.777,0,1.368-0.564,1.708-1.636
							c0.546-1.718,1.262-3.31,2.784-3.31c0.717,0,1.561,0.355,2.579,1.088c1.269,0.915,2.188,0.679,2.772-0.727l0.313-0.751
							l0.166,0.796c0.416,1.991,0.757,4.03,0.987,5.897c-0.147,0.767-0.746,2.997-2.401,2.997c-0.543,0-1.139-0.246-1.773-0.73
							c-0.995-0.76-1.797-1.129-2.455-1.129c-1.011,0-1.736,0.893-2.502,3.082c-0.458,1.308-1.276,2.028-2.303,2.028
							c-1.149,0-2.459-0.937-3.418-2.445c-0.696-1.095-1.517-1.697-2.311-1.697c-0.909,0-1.766,0.781-2.416,2.202
							C99.33,245.967,98.35,246.368,97.684,246.368L97.684,246.368z M93.077,241.124c0.92,0,1.719,0.8,2.376,2.379
							c0.625,1.502,1.438,2.362,2.231,2.362c0.733,0,1.466-0.717,2.062-2.019c0.736-1.609,1.757-2.497,2.873-2.497
							c0.972,0,1.943,0.687,2.736,1.932c0.868,1.364,2.015,2.212,2.994,2.212c0.808,0,1.44-0.585,1.828-1.693
							c0.622-1.773,1.412-3.417,2.977-3.417c0.772,0,1.675,0.403,2.76,1.233c0.545,0.416,1.038,0.627,1.468,0.627
							c1.277,0,1.781-1.926,1.905-2.517c-0.205-1.565-0.493-3.327-0.843-5.081c-0.736,1.119-1.871,1.246-3.192,0.295
							c-0.931-0.668-1.678-0.992-2.286-0.992c-0.969,0-1.637,0.856-2.305,2.959c-0.549,1.729-1.606,1.985-2.188,1.985
							c-1.086,0-2.297-0.829-3.236-2.215c-0.669-0.987-1.438-1.53-2.168-1.53c-0.867,0-1.664,0.756-2.245,2.132
							c-0.615,1.454-1.456,2.255-2.367,2.256c-0.952,0-1.867-0.871-2.581-2.452c-1.017-2.258-2.142-2.469-3.494-0.704
							c-0.704,0.921-1.36,1.37-2.001,1.37c-0.813,0-1.51-0.697-2.191-2.192c-0.278-0.611-0.722-1.339-1.26-1.339
							c-0.257,0-0.537,0.158-0.833,0.471c-0.44,1.727-0.817,3.512-1.124,5.313c0.899-0.421,1.736,0.14,2.368,1.642
							c1.043,2.481,2.062,2.696,3.545,0.875C91.64,241.593,92.376,241.124,93.077,241.124L93.077,241.124z"/>
					</g>
				</g>
				<g>
					<g>
						<path fill="#4DC4CF" d="M115.76,241.815c-3.108-2.375-4.306-0.903-5.346,2.068c-1.041,2.972-3.663,2.063-5.271-0.467
							c-1.609-2.53-3.793-2.473-5.168,0.533c-1.375,3.007-3.41,2.881-4.754-0.351c-1.345-3.231-2.943-2.394-4.139-0.922
							c-1.871,2.3-3.053,1.247-3.972-0.937c-0.793-1.885-1.695-1.891-2.478-1.212c-0.317,1.965-0.57,4.038-0.734,6.233
							c0,0,0.173,5.668,11.061,7.291c11.816,1.76,24.638-4.148,24.89-8.924c0.066-1.258-0.042-3.135-0.315-5.351
							C119.349,240.651,118.466,243.883,115.76,241.815z"/>
					</g>
					<g>
						<path d="M99.357,254.624c-1.515,0-3.008-0.108-4.436-0.322c-10.97-1.633-11.269-7.291-11.276-7.53
							c0.157-2.114,0.405-4.218,0.738-6.282l0.014-0.091l0.069-0.06c1.072-0.926,2.125-0.478,2.875,1.305
							c1.045,2.484,2.065,2.695,3.545,0.875c1.742-2.141,3.409-1.797,4.566,0.984c0.625,1.502,1.438,2.362,2.23,2.362
							c0.734,0,1.467-0.717,2.063-2.019c0.736-1.609,1.757-2.497,2.873-2.497c0.972,0,1.943,0.687,2.736,1.932
							c0.868,1.364,2.015,2.213,2.994,2.212c0.808,0,1.44-0.585,1.828-1.693c0.622-1.773,1.412-3.417,2.977-3.417
							c0.772,0,1.675,0.403,2.76,1.233c0.545,0.416,1.038,0.627,1.468,0.627c1.277,0,1.781-1.926,1.905-2.517l0.496,0.021
							c0.271,2.203,0.383,4.118,0.316,5.394C119.878,249.321,110.069,254.624,99.357,254.624L99.357,254.624z M84.865,240.661
							c-0.324,2.021-0.565,4.08-0.717,6.121c0.002,0.027,0.327,5.455,10.848,7.023c1.403,0.209,2.871,0.314,4.361,0.314
							c10.459,0,20.03-5.035,20.239-9.003c0.055-1.016-0.01-2.45-0.18-4.12c-0.352,0.837-0.978,1.748-2.035,1.748
							c-0.543,0-1.139-0.246-1.773-0.73c-0.995-0.76-1.797-1.129-2.455-1.129c-1.011,0-1.736,0.893-2.502,3.082
							c-0.458,1.308-1.276,2.028-2.303,2.028c-1.149,0.001-2.459-0.937-3.418-2.445c-0.696-1.095-1.517-1.697-2.311-1.697
							c-0.909,0-1.766,0.781-2.416,2.202c-0.874,1.911-1.854,2.313-2.519,2.313c-1.021,0-1.978-0.948-2.696-2.673
							c-1.014-2.439-2.218-2.696-3.712-0.858c-0.758,0.932-1.45,1.386-2.114,1.386c-1.148,0-1.854-1.361-2.285-2.384
							c-0.281-0.67-0.741-1.47-1.33-1.47C85.337,240.369,85.108,240.468,84.865,240.661L84.865,240.661z"/>
					</g>
				</g>
			</g>
			<g opacity="0.68">
				<g>
					<path fill="#D3C89F" d="M108.744,213.942c-0.275-0.143-0.553-0.268-0.837-0.364c-6.268-2.121-10.085-0.474-11.528,0.411
						c-0.438,0.269-0.665,0.469-0.665,0.469s-1.093,1.125-2.617,3.392c1.054-0.462,3.414-1.257,4.376,0.38
						c1.257,2.137,1.508,4.147,6.16,3.771c4.65-0.377,5.278-4.525,7.918,1.257c2.639,5.782,7.165,23.632-0.125,27.025
						c-7.291,3.396-20.49,3.896-24.637-1.383c-3.754-4.776,2.682-23.55,3.94-27.078c-2.835,5.33-5.983,13.592-6.831,24.941
						c0,0,0.173,5.668,11.061,7.291c11.816,1.76,24.638-4.148,24.89-8.924C120.173,238.945,116.356,217.889,108.744,213.942z"/>
				</g>
			</g>
			<g>
				<g>
					<g>
						<path fill="#FACEAB" d="M105.853,214.249l-7.207,0.168c0,0-0.837,6.2,3.52,6.2
							C106.523,220.617,105.853,214.249,105.853,214.249z"/>
					</g>
					<g>
						<path d="M102.166,220.868c-1.1,0-1.984-0.373-2.63-1.111c-1.597-1.828-1.159-5.23-1.139-5.374l0.029-0.213l7.653-0.177
							l0.024,0.229c0.016,0.149,0.366,3.679-1.311,5.54C104.131,220.497,103.248,220.868,102.166,220.868L102.166,220.868z
							 M98.874,214.663c-0.067,0.758-0.191,3.354,1.042,4.762c0.546,0.625,1.303,0.941,2.25,0.941c0.934,0,1.692-0.316,2.253-0.939
							c1.296-1.441,1.248-4.121,1.202-4.921L98.874,214.663L98.874,214.663z"/>
					</g>
				</g>
				<g opacity="0.7">
					<g>
						<path fill="#FACEAB" d="M105.853,214.249l-7.207,0.168c0,0-0.837,6.2,3.52,6.2
							C106.523,220.617,105.853,214.249,105.853,214.249z"/>
					</g>
				</g>
			</g>
			<g>
				<g>
					<g>
						<g>
							<g>
								<path fill="#FACEAB" d="M77.235,200.38c-3.185,2.178-1.551,15.209,9.008,7.332l-2.85-7.206
									C83.394,200.506,80.419,198.2,77.235,200.38z"/>
							</g>
							<g>
								<path d="M80.37,210.468c-0.001,0-0.001,0-0.001,0c-2.12-0.002-3.75-1.343-4.473-3.682c-0.802-2.593-0.254-5.622,1.198-6.615
									c0.951-0.649,1.977-0.98,3.052-0.98c1.94,0,3.344,1.07,3.403,1.116l0.079,0.106l2.92,7.386l-0.153,0.114
									C84.122,209.608,82.096,210.468,80.37,210.468L80.37,210.468z M80.146,199.694c-0.971,0-1.902,0.3-2.769,0.893
									c-1.263,0.864-1.731,3.691-1.001,6.051c0.383,1.242,1.414,3.326,3.993,3.326c0,0,0,0,0.001,0
									c1.577,0,3.449-0.787,5.569-2.34l-2.751-6.959C82.924,200.481,81.71,199.694,80.146,199.694L80.146,199.694z"/>
							</g>
						</g>
						<g>
							<g>
								<path fill="#FACEAB" d="M129.778,195.226c-1.508-5.195-6.662-2.263-6.662-2.263l-1.676,8.38
									C125.462,205.533,131.286,200.421,129.778,195.226z"/>
							</g>
							<g>
								<path d="M124.76,203.139L124.76,203.139c-1.272,0-2.484-0.562-3.502-1.621l-0.09-0.095l1.724-8.622l0.099-0.056
									c0.063-0.036,1.526-0.858,3.161-0.858c1.331,0,3.083,0.567,3.868,3.269c0.561,1.931,0.162,4.062-1.066,5.697
									C127.878,202.284,126.311,203.139,124.76,203.139L124.76,203.139z M121.712,201.263c0.901,0.898,1.952,1.373,3.047,1.373
									h0.001c1.394,0,2.811-0.779,3.791-2.085c1.135-1.511,1.502-3.474,0.985-5.255c-0.56-1.928-1.698-2.906-3.385-2.906
									c-1.272,0-2.468,0.563-2.813,0.739L121.712,201.263L121.712,201.263z"/>
							</g>
						</g>
					</g>
					<g>
						<g>
							<path d="M123.645,197.563l-0.306-0.399c0.07-0.055,1.767-1.325,4.619-0.546l-0.132,0.485
								C125.225,196.394,123.661,197.55,123.645,197.563L123.645,197.563z"/>
						</g>
					</g>
					<g>
						<g>
							<path d="M79.238,205.127l-0.236-0.444c2.208-1.168,4.5-0.426,4.598-0.394l-0.16,0.478
								C83.419,204.759,81.251,204.06,79.238,205.127L79.238,205.127z"/>
						</g>
					</g>
				</g>
				<g opacity="0.82">
					<g>
						<g>
							<path fill="#FACEAB" d="M77.235,200.38c0,0,2.263-1.384,2.765,0.754c0.502,2.137-1.759,1.634-1.886,3.395
								c-0.125,1.758,2.012,0.879,2.766,0.879c0.754,0,2.137,4.65-2.64,4.148c-0.053-0.006-0.113-0.016-0.169-0.025
								c1.677,1.139,4.331,1.047,8.172-1.818l-2.85-7.206C83.394,200.506,80.419,198.2,77.235,200.38z"/>
						</g>
					</g>
					<g>
						<g>
							<path fill="#FACEAB" d="M127.012,200.631c-3.142,0.88-1.76-4.776-1.76-6.537c0-1.759,1.509-1.759,1.509-1.759l0.027-0.139
								c-1.813-0.281-3.673,0.767-3.673,0.767l-1.676,8.38c3.168,3.301,7.439,0.824,8.379-2.912
								C129.331,199.48,128.45,200.229,127.012,200.631z"/>
						</g>
					</g>
				</g>
				<g>
					<g>
						<path fill="#FACEAB" d="M106.824,175.586c-9.139-1.055-19.351,2.606-23.797,10.836c-1.349,2.496-2.367,5.95-2.398,8.804
							c-0.078,7.153,2.483,15.08,9.288,18.272c11.251,5.279,25.656,2.763,31.669-7.631c4.74-8.194,3.688-21.774-4.84-27.15
							C113.918,176.936,110.12,175.967,106.824,175.586z"/>
					</g>
					<g>
						<path d="M101.96,216.429C101.96,216.429,101.96,216.429,101.96,216.429c-4.182,0-8.384-0.936-12.15-2.702
							c-6.003-2.817-9.529-9.734-9.433-18.504c0.03-2.745,0.983-6.246,2.428-8.92c3.715-6.875,11.729-11.145,20.917-11.145
							c1.049,0,2.102,0.06,3.13,0.179c2.287,0.264,6.629,1.026,10.027,3.168c8.595,5.417,9.704,19.225,4.923,27.488
							C118.024,212.526,110.605,216.429,101.96,216.429L101.96,216.429z M103.723,175.66c-9.003,0-16.849,4.17-20.475,10.882
							c-1.409,2.606-2.337,6.017-2.367,8.687c-0.094,8.567,3.324,15.312,9.143,18.042c3.701,1.736,7.828,2.654,11.937,2.654
							c8.463,0,15.718-3.807,19.408-10.184c4.67-8.07,3.609-21.539-4.755-26.811c-3.313-2.088-7.573-2.835-9.817-3.094
							C105.787,175.72,104.753,175.66,103.723,175.66L103.723,175.66z"/>
					</g>
				</g>
				<g>
					<g>
						<ellipse transform="matrix(0.9863 -0.1648 0.1648 0.9863 -30.7006 20.614)" cx="108.87" cy="195.309" rx="1.341" ry="1.81"/>
					</g>
				</g>
				<g>
					<g>
						<ellipse transform="matrix(0.9993 -0.0375 0.0375 0.9993 -7.3543 3.6634)" cx="93.954" cy="197.824" rx="1.341" ry="1.81"/>
					</g>
				</g>
				<g>
					<g>
						<path d="M106.681,180.489c-1.125,0-2.033-0.325-2.709-0.973c-1.945-1.86-1.245-5.67-1.214-5.832l0.494,0.094
							c-0.007,0.037-0.678,3.705,1.068,5.375c0.874,0.836,2.23,1.042,4.032,0.619l0.117,0.489
							C107.821,180.413,107.226,180.489,106.681,180.489L106.681,180.489z"/>
					</g>
				</g>
				<g>
					<g>
						<path d="M103.093,181.773c-2.14-0.315-3.631-1.21-4.431-2.658c-1.605-2.903,0.139-6.95,0.215-7.121l0.46,0.203
							c-0.018,0.039-1.72,3.993-0.234,6.677c0.721,1.301,2.088,2.109,4.063,2.401L103.093,181.773L103.093,181.773z"/>
					</g>
				</g>
				<g>
					<g>
						<path d="M97.963,184.375c-0.934,0-2.09-0.169-3.138-0.805c-1.277-0.775-2.118-2.081-2.5-3.878l0.492-0.105
							c0.353,1.657,1.117,2.853,2.269,3.552c2.014,1.224,4.558,0.54,4.583,0.532l0.133,0.484
							C99.743,184.171,98.986,184.375,97.963,184.375L97.963,184.375z"/>
					</g>
				</g>
				<g>
					<g>
						<path d="M94.837,188.77c-1.358,0-2.851-0.434-4.204-1.788l0.355-0.356c3.451,3.451,7.792,0.478,7.975,0.35l0.288,0.411
							C99.221,187.408,97.241,188.77,94.837,188.77L94.837,188.77z"/>
					</g>
				</g>
				<g>
					<g>
						<path d="M102.655,210.55c-4.222,0-5.165-3.533-5.174-3.572l0.486-0.123c0.04,0.158,1.053,3.878,6.002,3.082
							c3.66-0.591,4.17-4.039,4.19-4.186l0.499,0.067c-0.005,0.039-0.575,3.964-4.609,4.613
							C103.549,210.513,103.085,210.55,102.655,210.55L102.655,210.55z"/>
					</g>
				</g>
				<g opacity="0.5">
					<g>
						<g>
							<path fill="#FACEAB" d="M116.747,178.717c-2.369-1.492-5.418-2.407-8.283-2.892c4.489,1.444,13.318,5.949,12.809,18.982
								c-0.225,5.744-2.328,10.499-7.098,13.993c-10.689,7.826-27.322,4.615-31.541-8.702c-1.251-3.95-1.005-10.032,0.789-13.497
								c1.362-2.629,3.943-5.514,6.561-7.424c-2.876,1.787-5.313,4.202-6.957,7.245c-1.349,2.496-2.367,5.95-2.398,8.804
								c-0.078,7.153,2.483,15.08,9.288,18.272c11.251,5.279,25.656,2.763,31.669-7.631
								C126.327,197.673,125.274,184.093,116.747,178.717z"/>
						</g>
					</g>
				</g>
			</g>
			<g>
				<g>
					<g>
						<path fill="#CBC7C0" d="M86.914,282.651c-2.517-1.679-3.684-1.563-4.218-1.207c-1.578,2.666,3.168,9.494,8.115,10.76
							c1.65,0.423,2.827,0.336,3.641-0.049c0.101-0.069,0.191-0.137,0.256-0.203C96.341,290.319,90.308,284.913,86.914,282.651z"/>
					</g>
					<g>
						<path d="M92.793,292.735L92.793,292.735c-0.609,0-1.297-0.096-2.044-0.288c-3.498-0.894-6.86-4.496-8.089-7.462
							c-0.634-1.527-0.696-2.797-0.18-3.668l0.077-0.082c0.875-0.582,2.419-0.18,4.498,1.206c2.731,1.821,7.933,6.224,8.171,8.634
							c0.043,0.432-0.071,0.787-0.34,1.056c-0.074,0.073-0.177,0.153-0.292,0.231C94.063,292.616,93.47,292.735,92.793,292.735
							L92.793,292.735z M82.882,281.624c-0.392,0.723-0.308,1.844,0.241,3.169c1.183,2.852,4.404,6.312,7.75,7.167
							c0.707,0.182,1.353,0.273,1.919,0.273h0c0.602,0,1.123-0.103,1.551-0.305c0.052-0.039,0.13-0.098,0.185-0.154
							c0.16-0.158,0.223-0.37,0.195-0.648c-0.194-1.967-4.761-6.14-7.95-8.266C84.959,281.649,83.581,281.219,82.882,281.624
							L82.882,281.624z"/>
					</g>
				</g>
				<g>
					<g>
						<g>
							<path fill="#FFFACF" d="M88.453,281.105c-1.153-0.499-2.391-0.802-3.676-0.718c-1.06,0.07-1.728,0.46-2.082,1.057
								c0.534-0.355,1.701-0.472,4.218,1.207c0.501,0.334,1.064,0.743,1.648,1.192C89.33,282.815,88.803,281.663,88.453,281.105z"/>
						</g>
						<g>
							<path d="M88.611,284.2l-0.202-0.156c-0.596-0.459-1.146-0.857-1.635-1.184c-1.857-1.238-3.258-1.66-3.939-1.207l-0.355-0.338
								c0.421-0.711,1.188-1.106,2.281-1.178c1.221-0.081,2.478,0.168,3.792,0.736l0.113,0.098c0.322,0.516,0.979,1.842,0.097,3.023
								L88.611,284.2L88.611,284.2z M83.529,280.976c0.886,0.004,2.072,0.497,3.525,1.466c0.438,0.294,0.923,0.642,1.445,1.038
								c0.441-0.807,0.082-1.672-0.218-2.174c-1.228-0.521-2.352-0.736-3.487-0.667C84.283,280.673,83.86,280.784,83.529,280.976
								L83.529,280.976z"/>
						</g>
					</g>
					<g>
						<g>
							<path fill="#00A774" d="M95.462,287.177c0,0-2.971-4.321-7.009-6.071c0.35,0.558,0.876,1.71,0.109,2.738
								c3.366,2.591,7.538,6.717,6.146,8.108c-0.064,0.066-0.155,0.134-0.256,0.203C96.301,291.278,96.247,288.835,95.462,287.177z"
								/>
						</g>
						<g>
							<path d="M94.559,292.383l-0.25-0.435c0.086-0.059,0.165-0.117,0.22-0.174c0.151-0.148,0.216-0.348,0.2-0.604
								c-0.106-1.634-3.351-4.839-6.32-7.126l-0.196-0.151l0.148-0.198c0.67-0.899,0.212-1.925-0.121-2.455l-0.431-0.688
								l0.744,0.322c4.058,1.759,6.993,5.98,7.115,6.16C96.585,288.961,96.494,291.468,94.559,292.383L94.559,292.383z
								 M88.901,283.789c2.887,2.249,6.208,5.466,6.33,7.349c0.001,0.016,0.002,0.033,0.002,0.049
								c0.725-1.021,0.609-2.616,0.001-3.902c-0.009-0.008-2.638-3.787-6.232-5.639C89.227,282.231,89.354,283.028,88.901,283.789
								L88.901,283.789z"/>
						</g>
					</g>
				</g>
				<g>
					<g>
						<g>
							<path fill="#006B4B" d="M95.462,287.177c0,0-0.507-0.732-1.376-1.713c0.011,0.564-0.053,2.289-1.327,1.336
								c-1.508-1.133-4.197-2.956-4.197-2.956c3.366,2.591,7.538,6.717,6.146,8.108c-0.064,0.066-0.155,0.134-0.256,0.203
								C96.301,291.278,96.247,288.835,95.462,287.177z"/>
						</g>
					</g>
				</g>
				<g>
					<g>
						<path d="M94.559,292.383l-0.25-0.435c0.086-0.059,0.165-0.117,0.22-0.174c0.151-0.148,0.216-0.348,0.2-0.604
							c-0.106-1.634-3.351-4.839-6.32-7.126l-0.196-0.151l0.148-0.198c0.67-0.899,0.212-1.925-0.121-2.455l-0.431-0.688l0.744,0.322
							c4.058,1.759,6.993,5.98,7.115,6.16C96.585,288.961,96.494,291.468,94.559,292.383L94.559,292.383z M88.901,283.789
							c2.887,2.249,6.208,5.466,6.33,7.349c0.001,0.016,0.002,0.033,0.002,0.049c0.725-1.021,0.609-2.616,0.001-3.902
							c-0.009-0.008-2.638-3.787-6.232-5.639C89.227,282.231,89.354,283.028,88.901,283.789L88.901,283.789z"/>
					</g>
				</g>
			</g>
			<g>
				<g>
					<g>
						<path fill="#CBC7C0" d="M117.527,282.444c2.698-1.367,3.845-1.113,4.333-0.694c1.248,2.831-4.274,9.048-9.337,9.718
							c-1.689,0.222-2.848-0.002-3.609-0.482c-0.091-0.08-0.173-0.159-0.23-0.23C107.255,288.938,113.888,284.288,117.527,282.444z"
							/>
					</g>
					<g>
						<path d="M111.296,291.805c-1.03,0-1.877-0.203-2.517-0.606c-0.137-0.115-0.229-0.206-0.293-0.288
							c-0.235-0.298-0.306-0.665-0.213-1.087c0.524-2.366,6.212-6.119,9.141-7.603c2.231-1.132,3.81-1.349,4.608-0.661l0.066,0.089
							c0.409,0.925,0.197,2.177-0.612,3.616c-1.573,2.8-5.339,5.979-8.921,6.453C112.111,291.774,111.688,291.805,111.296,291.805
							L111.296,291.805z M120.777,281.667c-0.771,0-1.825,0.338-3.136,1.002c-3.419,1.732-8.45,5.332-8.876,7.262
							c-0.061,0.273-0.023,0.492,0.116,0.669c0.049,0.062,0.12,0.128,0.199,0.197c0.734,0.456,1.916,0.619,3.411,0.421
							c3.425-0.452,7.036-3.507,8.548-6.199c0.701-1.249,0.918-2.351,0.613-3.113C121.443,281.748,121.149,281.667,120.777,281.667
							L120.777,281.667z"/>
					</g>
				</g>
				<g>
					<g>
						<g>
							<path fill="#FFFACF" d="M116.182,280.728c1.205-0.358,2.469-0.512,3.734-0.276c1.045,0.195,1.662,0.661,1.943,1.299
								c-0.488-0.419-1.635-0.673-4.333,0.694c-0.538,0.273-1.146,0.611-1.778,0.988
								C115.109,282.321,115.768,281.239,116.182,280.728z"/>
						</g>
						<g>
							<path d="M115.659,283.779l-0.129-0.221c-0.734-1.277,0.074-2.517,0.457-2.989l0.124-0.083
								c1.373-0.409,2.665-0.503,3.853-0.282c1.077,0.202,1.791,0.688,2.125,1.444l-0.393,0.291
								c-0.619-0.527-2.066-0.278-4.055,0.729c-0.525,0.266-1.135,0.604-1.764,0.979L115.659,283.779L115.659,283.779z
								 M116.331,280.946c-0.359,0.462-0.817,1.279-0.477,2.133c0.561-0.329,1.083-0.617,1.559-0.858
								c1.559-0.788,2.796-1.142,3.674-1.038c-0.306-0.229-0.713-0.389-1.215-0.483
								C118.784,280.495,117.598,280.578,116.331,280.946L116.331,280.946z"/>
						</g>
					</g>
					<g>
						<g>
							<path fill="#00A774" d="M108.502,285.923c0,0,3.462-3.938,7.68-5.195c-0.414,0.512-1.073,1.594-0.434,2.705
								c-3.649,2.175-8.282,5.773-7.065,7.322c0.057,0.071,0.139,0.15,0.23,0.23C107.181,289.896,107.525,287.477,108.502,285.923z"
								/>
						</g>
						<g>
							<path d="M108.779,291.198c-1.811-1.14-1.604-3.638-0.49-5.41c0.167-0.195,3.583-4.037,7.821-5.302l0.775-0.231l-0.509,0.63
								c-0.394,0.488-0.971,1.452-0.411,2.423l0.124,0.215l-0.213,0.126c-3.221,1.92-6.823,4.718-7.123,6.327
								c-0.046,0.252-0.005,0.456,0.126,0.624c0.049,0.062,0.12,0.128,0.199,0.197L108.779,291.198L108.779,291.198z
								 M115.573,281.196c-3.789,1.414-6.85,4.855-6.882,4.892c-0.739,1.18-1.038,2.745-0.439,3.845
								c0.002-0.017,0.006-0.033,0.009-0.05c0.344-1.854,4.024-4.654,7.158-6.545C115.06,282.529,115.282,281.752,115.573,281.196
								L115.573,281.196z"/>
						</g>
					</g>
				</g>
				<g>
					<g>
						<g>
							<path fill="#006B4B" d="M108.502,285.923c0,0,0.59-0.667,1.569-1.538c-0.077,0.56-0.219,2.281,1.159,1.483
								c1.632-0.943,4.518-2.436,4.518-2.436c-3.649,2.175-8.282,5.773-7.065,7.322c0.057,0.071,0.139,0.15,0.23,0.23
								C107.181,289.896,107.525,287.477,108.502,285.923z"/>
						</g>
					</g>
				</g>
				<g>
					<g>
						<path d="M108.779,291.198c-1.811-1.14-1.604-3.638-0.49-5.41c0.167-0.195,3.583-4.037,7.821-5.302l0.775-0.231l-0.509,0.63
							c-0.394,0.488-0.971,1.452-0.411,2.423l0.124,0.215l-0.213,0.126c-3.221,1.92-6.823,4.718-7.123,6.327
							c-0.046,0.252-0.005,0.456,0.126,0.624c0.049,0.062,0.12,0.128,0.199,0.197L108.779,291.198L108.779,291.198z
							 M115.573,281.196c-3.789,1.414-6.85,4.855-6.882,4.892c-0.739,1.18-1.038,2.745-0.439,3.845
							c0.002-0.017,0.006-0.033,0.009-0.05c0.344-1.854,4.024-4.654,7.158-6.545C115.06,282.529,115.282,281.752,115.573,281.196
							L115.573,281.196z"/>
					</g>
				</g>
			</g>
		</g>
	</g>
	<g>
		<g>
			<g>
				<path fill="#FFE2AF" d="M141.942,198.476c-0.441-0.377-0.932-0.98-1.193-1.892c-0.538-1.86-0.203-4.439-1.446-3.815
					c-1.245,0.625-0.652,4.798-0.652,4.798s-1.563-2.709-2.289-4.293c-0.73-1.586-1.877-0.866-0.808,2.573l0.81,2.234
					c0,0-3.064-2.828-4.287-3.406c-1.22-0.573-1.523,0.621-0.229,2.029c1.298,1.413,3.166,2.923,3.166,2.923
					s-3.668-1.081-5.082-1.564c-1.409-0.49-1.726,1.355,0.338,2.224c2.069,0.868,4.899,1.104,4.884,2.028
					c-0.016,0.924-1.743,2.094-1.573,3.301c0.167,1.203,2.939-0.41,5.441-2.494c0.868-0.729,1.659-1.221,2.325-1.564
					c0.037-0.084,0.081-0.164,0.166-0.244C142.852,200.054,142.275,198.923,141.942,198.476z"/>
			</g>
		</g>
		<g>
			<g>
				<path fill="#0A0A0A" d="M134.005,206.32L134.005,206.32c-0.405-0.035-0.665-0.277-0.721-0.67
					c-0.107-0.783,0.435-1.514,0.916-2.154c0.319-0.43,0.647-0.871,0.652-1.188c0.007-0.359-1.251-0.703-2.265-0.977
					c-0.778-0.213-1.662-0.455-2.43-0.78c-1.349-0.561-1.786-1.516-1.623-2.161c0.147-0.585,0.779-0.856,1.5-0.608
					c0.845,0.294,2.529,0.806,3.722,1.165c-0.639-0.563-1.45-1.31-2.125-2.046c-0.782-0.849-1.096-1.716-0.826-2.254
					c0.219-0.436,0.767-0.537,1.406-0.235c0.835,0.395,2.457,1.764,3.471,2.656l-0.407-1.122c-0.54-1.726-0.597-3.011-0.173-3.528
					c0.39-0.471,1.108-0.2,1.539,0.737c0.4,0.879,1.068,2.122,1.582,3.04c-0.069-1.367,0.019-3.223,0.949-3.685
					c0.188-0.099,0.364-0.142,0.535-0.128c0.749,0.057,0.864,1.024,1.011,2.246c0.071,0.605,0.152,1.29,0.322,1.878
					c0.2,0.701,0.575,1.293,1.104,1.75c0.326,0.433,1.136,1.797-0.42,3.27c-0.042,0.039-0.069,0.082-0.09,0.135l-0.038,0.102
					l-0.104,0.055c-0.774,0.396-1.539,0.914-2.274,1.525C137.421,204.84,135.11,206.404,134.005,206.32L134.005,206.32z
					 M129.556,198.276c-0.169-0.014-0.383,0.022-0.438,0.261c-0.089,0.331,0.184,1.021,1.271,1.479
					c0.736,0.313,1.598,0.546,2.357,0.751c1.52,0.414,2.725,0.736,2.711,1.552c-0.01,0.502-0.386,1-0.778,1.523
					c-0.429,0.58-0.876,1.18-0.8,1.73c0.014,0.117,0.049,0.152,0.171,0.162c0.742,0.057,2.701-1.109,4.775-2.838
					c0.736-0.613,1.51-1.139,2.293-1.553c0.05-0.082,0.106-0.162,0.181-0.232c1.137-1.08,0.738-2.005,0.397-2.461
					c-0.564-0.48-1.008-1.182-1.237-1.987c-0.184-0.629-0.269-1.339-0.342-1.966c-0.088-0.72-0.211-1.709-0.463-1.729
					c-0.03-0.004-0.098,0.005-0.215,0.062c-0.727,0.365-0.727,2.851-0.494,4.497l-0.556,0.184c-0.018-0.024-1.577-2.739-2.304-4.319
					c-0.21-0.459-0.42-0.621-0.494-0.626c-0.092,0.041-0.444,0.767,0.25,2.998l0.811,2.222l-0.493,0.313
					c-0.029-0.03-3.048-2.805-4.213-3.355c-0.373-0.178-0.582-0.083-0.601-0.035c-0.108,0.201,0.001,0.815,0.729,1.604
					c1.268,1.378,3.112,2.879,3.133,2.893l-0.278,0.506c-0.039-0.011-3.696-1.088-5.093-1.571
					C129.733,198.301,129.641,198.283,129.556,198.276L129.556,198.276z"/>
			</g>
		</g>
	</g>
</g>
</svg>
