<?xml version="1.0" encoding="utf-8"?>
<!-- Generator: Adobe Illustrator 16.0.0, SVG Export Plug-In . SVG Version: 6.00 Build 0)  -->
<!DOCTYPE svg PUBLIC "-//W3C//DTD SVG 1.1//EN" "http://www.w3.org/Graphics/SVG/1.1/DTD/svg11.dtd">
<svg version="1.1" id="Capa_1" xmlns="http://www.w3.org/2000/svg" xmlns:xlink="http://www.w3.org/1999/xlink" x="0px" y="0px"
	 width="400px" height="400px" viewBox="0 0 400 400" enable-background="new 0 0 400 400" xml:space="preserve">
<polygon fill="#FCB2AE" points="159.692,150.818 150.953,150.032 151.533,151.953 161.759,154.183 "/>
<path fill="#FFC0BB" d="M200.987,146.539c0.013-0.126,1.763-0.925,1.61-1.001c-0.153-0.076-1.87,0.49-1.89,0.392
	c-0.023-0.098,1.68-0.849,1.553-1.043c-0.126-0.195-1.959,0.682-1.988,0.491c-0.029-0.191,1.874-1.047,1.728-1.208
	c-0.126-0.137-2.28,0.776-2.965,1.07c-0.087,0.038-0.188-0.026-0.175-0.112c0.188-1.317,0.116-1.429-0.053-1.413
	c-0.112,0.01-0.971,1.365-1.582,2.354c-6.846,3.896-17.138,5.416-17.138,5.416s-5.352,6.46-0.208,5.951
	c4.508-0.447,15.376-7.125,17.989-8.766l0,0l1.007-0.509l0,0c0.001,0,0.003-0.001,0.003-0.002c0.307-0.099,0.58-0.166,0.58-0.166
	c3.042-1.252,3-1.316,2.967-1.421C202.391,146.466,200.975,146.666,200.987,146.539z"/>
<path fill="#333333" d="M151.169,128.272c0.643,0.225,1.199,0.637,1.874,0.771c0.741,0.148,1.532-0.061,2.267,0.104
	c1.342,0.301,1.932,1.633,2.782,2.594c0.326,0.368,0.731,0.734,0.763,1.201c0.017,0.248-0.078,0.489-0.134,0.734
	c-0.477,2.059,1.741,3.895,1.864,5.993c0.046,0.779-0.201,1.577,0.024,2.33c0.25,0.83,1.054,1.633,0.701,2.433
	c-0.141,0.318-0.448,0.56-0.607,0.872c-0.36,0.709,0.132,1.56-0.119,2.303c-0.134,0.397-0.462,0.716-0.782,1.02
	c-0.67,0.635-1.351,1.281-2.193,1.731c-1.172,0.624-2.567,0.826-3.928,0.97c-1.588,0.167-3.317,0.247-4.662-0.514
	c-0.569-0.322-1.028-0.776-1.414-1.266c-0.342-0.433-0.641-0.923-0.643-1.451c-0.001-0.634,0.42-1.199,0.658-1.799
	c0.367-0.922,0.29-1.974-0.212-2.846c-0.731-1.272-2.326-2.225-2.405-3.65c-0.037-0.657,0.27-1.296,0.262-1.953
	c-0.016-1.199-1.076-2.278-0.94-3.472c0.145-1.294,1.693-2.34,1.307-3.694c-0.168-0.589-0.514-1.177,0.263-1.513
	c0.698-0.301,1.499-0.575,2.232-0.804C149.103,128.063,150.183,127.928,151.169,128.272z"/>
<path fill="#333333" d="M142.339,130.725c-0.607,0.389-1.172,0.836-1.841,1.137c-1.3,0.586-2.832,0.554-4.274,0.758
	c-1.443,0.206-3.011,0.81-3.461,2.032c-0.176,0.477-0.157,0.994-0.317,1.475c-0.451,1.35-2.17,2.091-2.789,3.387
	c-0.623,1.308,0.021,2.842-0.409,4.209c-0.159,0.507-0.464,0.979-0.559,1.498c-0.132,0.72,0.15,1.446,0.46,2.12
	c0.652,1.426,1.482,2.837,2.809,3.837s3.246,1.512,4.873,0.948c1.763-0.611,2.719-2.235,3.78-3.615
	c1.923-2.5,4.649-4.578,5.855-7.401c0.903-2.116,0.877-4.503,2.03-6.522c0.43-0.755,1.018-1.441,1.353-2.231
	c0.334-0.792,0.368-1.759-0.252-2.406c-1.047-1.09-1.687-1.123-3.278-0.807C144.891,129.427,143.524,129.965,142.339,130.725z"/>
<path fill="#FCB9B6" d="M197.649,158.485c0.052,0.099-0.859,1.373-0.708,1.37c0.152-0.003,1.158-1.088,1.221-1.022
	c0.065,0.066-0.835,1.283-0.643,1.38c0.193,0.099,1.128-1.266,1.245-1.133c0.116,0.13-0.884,1.507-0.691,1.57
	c0.16,0.054,1.322-1.461,1.688-1.943c0.045-0.063,0.153-0.054,0.186,0.015c0.517,1.061,0.627,1.117,0.746,1.041
	c0.081-0.051,0.047-1.398,0.011-2.375c3.189-5.559,10.146-10.663,10.146-10.663s0.789-6.906-2.811-4.542
	c-3.158,2.072-7.976,11.264-9.116,13.501l0,0l-0.499,0.769h-0.002c0,0.001-0.001,0.002-0.001,0.002
	c-0.18,0.191-0.351,0.349-0.351,0.349c-1.656,2.109-1.591,2.141-1.516,2.207C196.635,159.081,197.597,158.386,197.649,158.485z"/>
<g>
	<path fill="#FFC0BB" d="M173.151,256.111l-6.565-3.597l-5.704,2.994l1.979,1.252l6.893,0.883c0,0,2.693-0.29,2.812-0.359
		C172.685,257.213,173.151,256.111,173.151,256.111z"/>
	<path fill="#FFC0BB" d="M157.312,203.938c0,0,0.872,19.931,1.027,23.369c0.157,3.457,2.421,29.054,2.959,31.193l4.873-0.306
		c0,0,3.324-49.44,2.28-54.257C167.407,199.123,157.312,203.938,157.312,203.938z"/>
	<path fill="#07085B" d="M173.151,256.111l1.664,0.95c0.771,0.433,0.423,1.482-0.491,1.482H161.69c-0.446,0-0.808-0.318-0.808-0.712
		v-2.323C169.297,257.863,172.204,257.148,173.151,256.111z"/>
</g>
<g>
	<path fill="#FFC0BB" d="M157.291,256.111l-6.565-3.597l-5.704,2.994l1.98,1.252l6.892,0.883c0,0,2.693-0.29,2.813-0.359
		C156.826,257.213,157.291,256.111,157.291,256.111z"/>
	<path fill="#FFC0BB" d="M141.452,203.938c0,0,0.871,19.931,1.027,23.369c0.156,3.457,2.42,29.054,2.958,31.193l4.873-0.306
		c0,0,3.324-49.44,2.279-54.257C151.546,199.123,141.452,203.938,141.452,203.938z"/>
	<path fill="#07085B" d="M157.291,256.111l1.664,0.95c0.77,0.433,0.423,1.482-0.492,1.482h-12.634c-0.445,0-0.807-0.318-0.807-0.712
		v-2.323C153.436,257.863,156.342,257.148,157.291,256.111z"/>
</g>
<polygon fill="#FFC0BB" points="230.898,258.72 230.898,255.863 227.234,254.958 226.419,255.278 226.279,258.72 227.435,261.717 
	"/>
<path fill="#FFFFFF" d="M209.447,266.55l10.111,0.086c0.087,0,0.157-0.061,0.158-0.137l0.007-0.635
	c0.001-0.076-0.068-0.139-0.156-0.139l-10.109-0.086c-0.088,0-0.158,0.061-0.159,0.137l-0.007,0.635
	C209.291,266.487,209.36,266.55,209.447,266.55z"/>
<path fill="#FF5B7E" d="M231.555,258.311l0.41,3.316c0.05,0.409-0.214,0.777-0.556,0.775l-11.866-0.1
	c-0.308-0.003-0.61-0.175-0.77-0.494c-0.161-0.327-0.188-0.818,0.349-1.476c1.057-1.286,4.445-1.59,6.196-2.654
	c0.062-0.038,0.135-0.061,0.21-0.059l5.411,0.046C231.248,257.669,231.508,257.942,231.555,258.311z"/>
<g>
	<path fill="#333333" d="M226.23,259.549L226.23,259.549c0.087-0.044,0.119-0.172,0.07-0.269c-0.229-0.456-0.945-1.568-2.429-1.354
		c-0.085,0.013-0.146,0.113-0.131,0.215v0.006c0.013,0.1,0.09,0.163,0.172,0.153c1.329-0.189,1.939,0.79,2.124,1.174
		C226.076,259.554,226.158,259.587,226.23,259.549z"/>
</g>
<g>
	<path fill="#333333" d="M224.992,259.965L224.992,259.965c0.088-0.046,0.12-0.171,0.071-0.269
		c-0.228-0.457-0.943-1.567-2.429-1.353c-0.086,0.013-0.145,0.11-0.131,0.215v0.003c0.014,0.1,0.09,0.166,0.173,0.153
		c1.329-0.187,1.938,0.793,2.123,1.174C224.839,259.971,224.922,260.004,224.992,259.965z"/>
</g>
<path opacity="0.3" fill="#E87B50" d="M228.416,261.937c0.851-1.977,2.09-2.414,2.941-2.447c0.192-0.01,0.357,0.12,0.379,0.289
	l0.229,1.849c0.05,0.409-0.214,0.777-0.556,0.775l-2.652-0.023C228.497,262.379,228.325,262.148,228.416,261.937z"/>
<polygon fill="#FFC0BB" points="259.011,259.157 259.011,256.301 255.345,255.396 254.53,255.715 254.392,259.157 255.544,262.154 
	"/>
<path fill="#FFFFFF" d="M231.194,266.731l10.111,0.084c0.086,0,0.157-0.061,0.158-0.137l0.007-0.635
	c0.001-0.076-0.069-0.137-0.155-0.139l-10.111-0.084c-0.086-0.002-0.157,0.061-0.158,0.137l-0.007,0.633
	C231.038,266.667,231.108,266.729,231.194,266.731z"/>
<path fill="#FF5B7E" d="M259.644,258.549l0.411,3.316c0.051,0.409-0.213,0.777-0.555,0.774l-11.866-0.103
	c-0.308-0.002-0.61-0.174-0.77-0.493c-0.162-0.327-0.19-0.818,0.349-1.473c1.056-1.289,4.445-1.593,6.194-2.657
	c0.063-0.038,0.137-0.059,0.212-0.059l5.41,0.046C259.339,257.904,259.599,258.178,259.644,258.549z"/>
<g>
	<path fill="#333333" d="M254.32,259.786L254.32,259.786c0.086-0.046,0.119-0.174,0.071-0.271c-0.229-0.455-0.945-1.564-2.43-1.353
		c-0.086,0.013-0.144,0.113-0.131,0.218l0.001,0.003c0.012,0.1,0.09,0.166,0.173,0.153c1.329-0.188,1.938,0.792,2.122,1.173
		C254.167,259.791,254.249,259.824,254.32,259.786z"/>
</g>
<g>
	<path fill="#333333" d="M253.085,260.203L253.085,260.203c0.085-0.046,0.118-0.174,0.069-0.271
		c-0.229-0.455-0.945-1.567-2.429-1.353c-0.086,0.013-0.145,0.112-0.131,0.215v0.005c0.013,0.1,0.089,0.164,0.173,0.153
		c1.329-0.188,1.938,0.79,2.123,1.174C252.93,260.208,253.012,260.238,253.085,260.203z"/>
</g>
<g>
	<path fill="#333333" d="M251.935,260.589L251.935,260.589c0.085-0.046,0.118-0.171,0.07-0.269c-0.229-0.455-0.946-1.567-2.43-1.353
		c-0.086,0.013-0.145,0.112-0.131,0.215v0.003c0.013,0.1,0.089,0.166,0.171,0.155c1.331-0.188,1.94,0.79,2.125,1.172
		C251.779,260.594,251.861,260.627,251.935,260.589z"/>
</g>
<path opacity="0.3" fill="#E87B50" d="M256.507,262.175c0.852-1.977,2.09-2.414,2.942-2.45c0.192-0.008,0.356,0.123,0.376,0.289
	l0.229,1.852c0.051,0.409-0.213,0.777-0.555,0.774l-2.654-0.022C256.589,262.614,256.415,262.387,256.507,262.175z"/>
<path fill="#1E1E1E" d="M221.488,184.047c5.553,5.585,16.649,13.645,16.649,13.645l0,0l-5.115,54.133c0,0-7.408,0.537-9.956-0.779
	C223.066,251.046,221.126,199.726,221.488,184.047z"/>
<path fill="#3A2645" d="M223.59,186.123c0.018-0.791-2.146,1.544-2.105,0.911c0.849-13.15,27.803-2.124,27.803-2.124l5.661-0.795
	l10.4,67.494c0,0-6.766,0.997-10.639,0l-16.572-53.256C238.138,198.354,232.209,196.651,223.59,186.123z"/>
<path fill="#FCB2AE" d="M231.21,139.099h9.206l0.432,3.701c0,0-2.989,0.7-3.267,0.533c-0.277-0.166-5.251-1.233-5.251-1.333
	c0-0.1-2.584-0.588-2.468-0.645c0.112-0.056,0.188-2.257,0.188-2.257H231.21z"/>
<path fill="#FFC0BB" d="M244.441,136.09l0.47,3.673l-0.261,0.287c-1.694,1.87-4.366,2.84-7.069,2.567l0,0l0.97-6.276L244.441,136.09
	z"/>
<path fill="#F99893" d="M237.935,140.335l0.616-3.994l5.891-0.251l0.259,2.029C243.627,138.927,241.455,140.141,237.935,140.335z"/>
<path fill="#F99893" d="M234.197,129.774c0.289,0.881-0.13,1.762-0.934,1.964c-0.806,0.203-1.691-0.348-1.981-1.23
	c-0.286-0.881,0.131-1.762,0.936-1.964S233.909,128.892,234.197,129.774z"/>
<path fill="#FFC0BB" d="M233.863,134.743c-0.193-0.387-0.349-0.793-0.462-1.214c-0.325-1.13-0.417-2.306-0.405-3.322
	c0.004-0.219-0.007-0.436-0.024-0.654c-0.065-0.879,0.051-1.794,0.397-2.714c1.117-2.956,4.379-4.955,7.929-4.852
	c4.785,0.14,8.302,3.796,7.802,7.855c0.534-0.197,1.105-0.2,1.579,0.042c0.909,0.464,1.108,1.648,0.447,2.646
	c-0.662,0.995-1.936,1.427-2.846,0.962c-0.126-0.064-0.237-0.143-0.335-0.233c-0.829,3.417-4.386,5.779-8.253,5.355
	c-1.889-0.207-3.52-1.043-4.677-2.252c-0.08-0.07-0.16-0.153-0.245-0.249C234.398,135.696,234.104,135.232,233.863,134.743z"/>
<path fill="#333333" d="M241.52,130.117c-0.048,0.339,0.227,0.649,0.613,0.692c0.387,0.042,0.741-0.2,0.789-0.539
	c0.049-0.339-0.226-0.65-0.614-0.692C241.921,129.536,241.567,129.777,241.52,130.117z"/>
<path fill="#333333" d="M235.436,129.795c-0.049,0.342,0.227,0.652,0.615,0.694c0.389,0.042,0.744-0.199,0.791-0.54
	c0.051-0.341-0.225-0.651-0.615-0.695C235.838,129.213,235.483,129.455,235.436,129.795z"/>
<path fill="#333333" d="M241.129,127.953c0.375-0.006,0.724,0.005,1.061,0.048c0.335,0.042,0.656,0.119,0.951,0.237
	c0.293,0.12,0.58,0.263,0.831,0.464l0.099,0.07c0.034,0.024,0.059,0.054,0.093,0.079l0.188,0.16c0.125,0.11,0.233,0.235,0.376,0.347
	c-0.042-0.157-0.095-0.318-0.168-0.471c-0.093-0.142-0.166-0.303-0.296-0.429c-0.228-0.275-0.56-0.488-0.917-0.631
	c-0.36-0.144-0.762-0.203-1.146-0.179C241.818,127.676,241.441,127.767,241.129,127.953z"/>
<path fill="#333333" d="M237.681,127.41c-0.311-0.188-0.687-0.282-1.069-0.312c-0.385-0.027-0.785,0.028-1.148,0.168
	c-0.359,0.139-0.692,0.35-0.924,0.625c-0.131,0.125-0.207,0.284-0.301,0.428c-0.076,0.151-0.131,0.311-0.172,0.469
	c0.144-0.114,0.254-0.236,0.38-0.346l0.188-0.159c0.034-0.025,0.063-0.055,0.095-0.077l0.1-0.07
	c0.254-0.198,0.543-0.339,0.837-0.457c0.296-0.116,0.615-0.189,0.953-0.229C236.957,127.41,237.307,127.401,237.681,127.41z"/>
<path fill="#F99893" d="M239.113,128.622c0.093,0.44,0.104,0.891,0.053,1.34c-0.024,0.225-0.069,0.449-0.145,0.675
	c-0.079,0.224-0.181,0.452-0.388,0.658l-0.09,0.071l-0.075,0.062c-0.033,0.029-0.08,0.054-0.105,0.086
	c-0.063,0.059-0.108,0.126-0.134,0.198c-0.062,0.145-0.009,0.319,0.091,0.479c0.214,0.329,0.655,0.552,1.129,0.706
	c-0.502,0.018-1.07-0.113-1.442-0.516c-0.182-0.194-0.298-0.481-0.223-0.766c0.017-0.07,0.043-0.139,0.084-0.202
	c0.033-0.066,0.082-0.121,0.134-0.175c0.046-0.058,0.109-0.094,0.165-0.143c0.034-0.025,0.042-0.033,0.06-0.049l0.048-0.041
	c0.129-0.124,0.229-0.309,0.313-0.498c0.088-0.189,0.141-0.398,0.208-0.604C238.91,129.488,239.006,129.058,239.113,128.622z"/>
<path fill="#333333" d="M233.102,119.829c1.562-0.833,4.467-1.604,7.43-1.686c-0.696-0.408-1.123-0.735-0.947-0.851
	c1.404-0.934,6.042,1.383,7.521,2.167c0.272-0.328,1.223-1.336,2.233-0.886c1.196,0.533-1.046,1.405-1.046,1.405
	s1.61,0.142,1.994,0.889c0.284,0.553-0.7,0.459-1.234,0.374c0.169,0.047,0.404,0.151,0.655,0.331h0.001c0,0,2.247,1.576,2.054,2.504
	c-0.048,0.224-0.268,0.246-0.571,0.15c0.278,0.958,0.745,2.771,0.359,3.015c-0.222,0.138-0.438,0.034-0.616-0.135
	c-0.273,1.468-0.717,2.624-0.717,2.624c-1.935-0.257-3.525,1.584-3.525,1.584c0.413-2.276-1.548-6.552-1.548-6.552
	s-7.331,2.776-6.142,0.862c0,0-8.607,2.639-6.83-1.031c0,0-3.29-0.17,0.548-3.064C232.721,121.528,230.307,121.316,233.102,119.829z
	"/>
<path fill="#FFC0BB" d="M213.271,138.371l2.958-0.295l5.658,0.133l1.101,2.291l-1.777,1.333c0,0-1.083,0.891-2.45,0.668
	c-1.367-0.223,1.663,0.177-1.585-0.312c-3.251-0.49-3.857-0.31-3.807-0.833s-0.253-0.901-0.203-1.368
	C213.218,139.521,213.271,138.371,213.271,138.371z"/>
<path fill="#FEB546" d="M245.733,139.099c0,0,13.099,1,15.225,5.469c2.128,4.467-4.328,15.137-4.328,15.137l0.759,30.341
	c0,0-18.415,9.005-36.3,1.201l0.571-32.049l2.277-14.346l2.771,0.65c0,0,0.494-4.535,4.366-4.969c3.874-0.433,6-0.333,6-0.333
	S241.238,143.467,245.733,139.099z"/>
<g>
	<path fill="#FCB2AE" d="M229.469,161.417c0,0-1.201-0.851-1.458-0.758c-0.257,0.093-5.622,0.215-5.605,1.715
		c0.018,1.5,1.144,7.08,1.144,7.08l-4.44,1.859l-0.746,1.063l-0.262,3.504c0,0,0.327,1.333,0.378,1.387
		c0.054,0.056,0.817,0.228,0.817,0.228l1.928-3.2c1.477-0.231,6.634-1.133,8.245-2.807
		C231.355,169.531,229.469,161.417,229.469,161.417z"/>
	<path fill="#FEE4CB" d="M222.78,169.778l-3.672,1.536l-0.746,1.063l-0.262,3.504c0,0,0.327,1.333,0.378,1.387
		c0.054,0.056,0.817,0.228,0.817,0.228l1.928-3.2c0.51-0.079,1.457-0.239,2.547-0.484
		C223.038,172.365,222.828,170.818,222.78,169.778z"/>
	<path fill="#09083C" d="M219.296,177.495l-0.558,0.889c-0.253,0.408-0.977,0.295-1.022-0.163l-0.61-6.331
		c-0.02-0.222,0.175-0.421,0.439-0.444l1.563-0.132C217.931,175.664,218.553,177.079,219.296,177.495z"/>
	<path fill="#FFC0BB" d="M224.234,161.417c0,0-1.198-0.851-1.458-0.758c-0.256,0.093-5.62,0.215-5.603,1.715
		c0.015,1.5,1.143,7.08,1.143,7.08l-4.442,1.859l-0.746,1.063l-0.262,3.504c0,0,0.327,1.333,0.381,1.387
		c0.052,0.056,0.815,0.228,0.815,0.228l1.929-3.2c1.475-0.231,6.634-1.133,8.243-2.807
		C226.124,169.531,224.234,161.417,224.234,161.417z"/>
	<path fill="#FEE4CB" d="M217.545,169.778l-3.671,1.536l-0.746,1.063l-0.262,3.504c0,0,0.327,1.333,0.381,1.387
		c0.052,0.056,0.815,0.228,0.815,0.228l1.929-3.2c0.509-0.079,1.458-0.239,2.548-0.484
		C217.807,172.365,217.594,170.818,217.545,169.778z"/>
	<path fill="#09083C" d="M214.063,177.495l-0.56,0.889c-0.254,0.408-0.975,0.295-1.019-0.163l-0.611-6.331
		c-0.023-0.222,0.174-0.421,0.438-0.444l1.563-0.132C212.697,175.664,213.319,177.079,214.063,177.495z"/>
</g>
<path fill="#F99893" d="M242.032,133.97c-0.678-0.135-1.319-0.136-1.944-0.025c-0.308,0.064-0.618,0.139-0.919,0.253
	c-0.08,0.021-0.151,0.055-0.227,0.086l-0.23,0.089c-0.153,0.063-0.3,0.136-0.465,0.193c0.104-0.123,0.222-0.238,0.345-0.347
	c0.136-0.095,0.266-0.207,0.42-0.284c0.295-0.173,0.637-0.292,0.988-0.361c0.356-0.063,0.726-0.063,1.077-0.001
	C241.429,133.635,241.771,133.76,242.032,133.97z"/>
<path fill="#09083C" d="M213.271,138.371c-0.623,0.067-1.274,0.162-1.902,0.294c-2.481,0.523-6.783,5.724-6.783,5.724
	s0.707,3.002,4.859,3.792c0,0-3.089,15.259,5.492,17.059c10.823,2.273,19.352-3.333,19.352-3.333l-4.233-5.002
	c0,0-3.498-6.382-3.347-11.402c0,0,0.389-4.202,4.077-4.927l0.424-1.476l-9.322-0.89c0,0,0.094,3.217-3.646,3.291
	C213.698,141.589,213.271,138.371,213.271,138.371z"/>
<g opacity="0.3">
	<path fill="#FA5371" d="M228.291,152.997c-15.427-0.405-17.605-9.43-17.605-9.43l-1.24,4.613c0,0-3.088,15.259,5.492,17.059
		c10.823,2.273,19.352-3.333,19.352-3.333l-4.233-5.002C230.056,156.903,229.158,155.266,228.291,152.997z"/>
</g>
<path fill="#FFC0BB" d="M245.82,156.853c0,0-2.251,2.319-5.341,2.203c-0.961-0.036-23.724-6.272-23.817-6.355
	c-1.451-0.732-6.33-3.029-8.364-1.846c-2.403,1.397-2.792,3.739-2.665,4.607c0.127,0.868,1.787,3.24,3.229,1.827
	c0.683-0.671,2.663-0.543,4.555-0.225c0,0,21.913,11.111,28.673,10.577c6.758-0.535,11.011-4.567,11.011-4.567
	S249.099,158.476,245.82,156.853z"/>
<path fill="#FFC0BB" d="M212.413,160.773c-1.79-0.014-2.938,1.644-2.11,3.039c0.415,0.705,1.063,1.557,1.98,2.156
	c1.842,1.192,5.817,1.432,7.27-0.031c1.454-1.462,0.834-1.459,0.834-1.459s0.858-0.913,0.204-1.325c0,0,0.308-0.762-0.276-0.913
	c0,0-0.397-0.071-0.746,0.093c0,0,0.037-0.492-0.608-0.495c-0.644-0.002-3.441,1.241-5.456,1.014
	c-1.586-0.178,0.008-1.079,0.759-1.453c0.344-0.173,0.617-0.441,0.755-0.768c0.039-0.092,0.063-0.186,0.072-0.28
	c0.019-0.218-0.278-0.342-0.462-0.194c-0.332,0.268-0.899,0.648-1.42,0.644C213.013,160.798,212.731,160.776,212.413,160.773z"/>
<path fill="#F4A640" d="M221.288,180.045l-0.199,11.201c17.885,7.804,36.3-1.201,36.3-1.201l-0.759-30.341
	C256.63,159.705,249.997,186.415,221.288,180.045z"/>
<path fill="#FFFFFF" d="M210.686,143.567c-0.141,0.587-0.293,1.168-0.442,1.75c-0.068,0.291-0.149,0.581-0.217,0.872
	c-0.075,0.29-0.146,0.581-0.213,0.872l-0.104,0.438l-0.097,0.438c-0.071,0.291-0.121,0.584-0.188,0.875
	c-0.12,0.586-0.221,1.173-0.328,1.767c-0.033-0.599-0.009-1.201,0.063-1.799c0.016-0.15,0.038-0.298,0.061-0.447
	c0.022-0.148,0.045-0.298,0.073-0.446c0.028-0.148,0.056-0.296,0.087-0.444L209.48,147c0.033-0.148,0.073-0.293,0.113-0.439
	c0.036-0.146,0.073-0.292,0.117-0.438c0.088-0.291,0.175-0.581,0.276-0.866C210.185,144.684,210.41,144.116,210.686,143.567z"/>
<path fill="#333333" d="M209.585,126.649c0,0-2.542-2.059-5.573-0.046c-3.032,2.012-0.265,4.893-2.332,6.479
	c0,0,4.345-0.035,5.651-2.708c0.99-2.029,1.824-2.503,2.169-2.614c0.207-0.068,0.389-0.197,0.471-0.377
	C210.063,127.18,210.04,126.911,209.585,126.649z"/>
<path fill="#FEE4CB" d="M210.294,126.182L210.294,126.182c-0.335-0.045-0.65,0.158-0.698,0.453l-0.211,1.288
	c-0.054,0.319,0.217,0.611,0.583,0.63l0,0c0.332,0.019,0.625-0.194,0.664-0.485l0.175-1.292
	C210.846,126.488,210.618,126.226,210.294,126.182z"/>
<path fill="#333333" d="M222.924,124.404c0,0,2.541-2.058,5.573-0.046c3.03,2.012,0.264,4.894,2.331,6.479
	c0,0-4.346-0.035-5.65-2.71c-0.991-2.027-1.825-2.502-2.17-2.613c-0.208-0.066-0.388-0.196-0.47-0.375
	C222.444,124.934,222.466,124.666,222.924,124.404z"/>
<path fill="#FEE4CB" d="M221.739,124.331L221.739,124.331c0.28-0.167,0.664-0.102,0.853,0.146l0.818,1.084
	c0.202,0.271,0.101,0.634-0.221,0.789l0,0c-0.292,0.142-0.66,0.059-0.838-0.19l-0.786-1.101
	C221.391,124.814,221.469,124.493,221.739,124.331z"/>
<rect x="215.601" y="135.595" fill="#FFC0BB" width="4.306" height="3.781"/>
<path fill="#F99893" d="M215.601,137.863v-2.268h4.306v1.929C218.979,137.962,217.606,138.213,215.601,137.863z"/>
<path fill="#333333" d="M210.902,131.263c0,0-1.937-4.24,0.83-6.238c2.765-2,5.992-2.192,8.319-1.464
	c2.328,0.729,4.158,4.009,3.48,6.086l-7.516-1.023L210.902,131.263z"/>
<path fill="#F99893" d="M222.709,130.533c-0.168,0.62,0.173,1.21,0.758,1.319c0.587,0.108,1.196-0.307,1.365-0.929
	c0.165-0.621-0.173-1.212-0.758-1.319C223.486,129.496,222.877,129.912,222.709,130.533z"/>
<path fill="#FFC0BB" d="M223.171,133.952c0.122-0.274,0.216-0.562,0.276-0.857c0.186-0.793,0.197-1.608,0.144-2.311
	c-0.014-0.151-0.015-0.301-0.012-0.452c0.007-0.612-0.118-1.237-0.408-1.858c-0.932-2-3.361-3.251-5.899-3.039
	c-3.422,0.287-5.781,2.951-5.24,5.737c-0.392-0.115-0.801-0.094-1.129,0.092c-0.632,0.357-0.723,1.183-0.203,1.845
	c0.521,0.662,1.452,0.91,2.083,0.553c0.088-0.05,0.163-0.109,0.23-0.175c0.746,2.328,3.403,3.818,6.154,3.374
	c1.346-0.218,2.479-0.861,3.253-1.742c0.053-0.052,0.106-0.113,0.163-0.181C222.83,134.632,223.021,134.299,223.171,133.952z"/>
<path fill="#333333" d="M217.815,130.396c-0.263-0.08-0.531-0.132-0.8-0.156c-0.27-0.022-0.537-0.011-0.797,0.041
	c-0.13,0.025-0.256,0.063-0.38,0.109c-0.063,0.021-0.12,0.047-0.18,0.073c-0.029,0.014-0.058,0.03-0.087,0.043
	c-0.03,0.014-0.061,0.028-0.088,0.045c-0.227,0.125-0.435,0.28-0.636,0.448c0.136-0.209,0.323-0.399,0.549-0.553
	c0.112-0.077,0.233-0.146,0.365-0.2c0.131-0.055,0.269-0.098,0.412-0.126c0.286-0.057,0.585-0.058,0.865-0.009
	c0.141,0.024,0.276,0.062,0.409,0.108C217.579,130.268,217.704,130.322,217.815,130.396z"/>
<path fill="#333333" d="M219.997,130.139c0.087-0.097,0.19-0.18,0.302-0.255c0.112-0.075,0.232-0.143,0.362-0.198
	c0.256-0.113,0.544-0.181,0.836-0.191c0.146-0.007,0.292,0.004,0.436,0.026c0.144,0.021,0.282,0.059,0.414,0.107
	c0.263,0.097,0.5,0.236,0.695,0.407c-0.245-0.116-0.493-0.217-0.749-0.286c-0.033-0.008-0.065-0.015-0.099-0.022
	c-0.032-0.007-0.064-0.015-0.096-0.021c-0.067-0.011-0.133-0.023-0.196-0.029c-0.134-0.016-0.267-0.022-0.398-0.017
	c-0.267,0.01-0.528,0.06-0.782,0.143C220.469,129.888,220.228,130,219.997,130.139z"/>
<path fill="#333333" d="M212.031,131.171c0,0,3.717-1.799,5.494-4.079c0,0,0.123,1.121-0.258,1.564
	c0.149,0.062,2.72-1.167,3.082-2.991c0.36-1.826-3.247-0.715-3.247-0.715s-2.152-0.044-2.24,0.004
	c-0.086,0.051-1.475,0.991-1.537,1.057c-0.06,0.068-1.675,2.667-1.675,2.667l-0.368,0.94l-0.38,1.644L212.031,131.171z"/>
<path fill="#F99893" d="M219.731,130.672c-0.028,0.276-0.008,0.551,0.053,0.826c0.029,0.136,0.071,0.272,0.131,0.406
	c0.063,0.134,0.141,0.269,0.279,0.386l0.058,0.041l0.053,0.034c0.021,0.017,0.051,0.029,0.068,0.048
	c0.043,0.034,0.074,0.073,0.096,0.116c0.045,0.086,0.025,0.194-0.024,0.298c-0.113,0.211-0.368,0.37-0.648,0.488
	c0.308-0.014,0.648-0.122,0.851-0.387c0.1-0.129,0.151-0.311,0.09-0.482c-0.017-0.042-0.036-0.083-0.064-0.12
	c-0.025-0.04-0.059-0.069-0.093-0.102c-0.032-0.032-0.074-0.052-0.11-0.079c-0.024-0.014-0.028-0.02-0.041-0.028l-0.031-0.022
	c-0.088-0.069-0.159-0.179-0.223-0.29c-0.067-0.112-0.113-0.237-0.167-0.361C219.91,131.194,219.824,130.935,219.731,130.672z"/>
<path fill="#FFFFFF" d="M265.736,165.266l-0.706,1.055c-0.447,0.661-0.886,1.323-1.325,1.987l-0.342-0.417l-0.219-0.267
	l-0.231-0.258l-0.464-0.52l-0.485-0.506l-0.241-0.252l-0.251-0.245l-0.503-0.489c-0.347-0.318-0.69-0.64-1.048-0.946
	c-0.711-0.62-1.45-1.215-2.209-1.786c-0.722-0.541-1.461-1.057-2.234-1.545c0.128-0.168,0.261-0.336,0.384-0.506l0.44-0.646
	l0.405-0.662c0.135-0.221,0.256-0.446,0.385-0.67c0.503-0.896,0.969-1.806,1.407-2.726c0.111-0.228,0.221-0.458,0.327-0.689
	c0.106-0.232,0.215-0.461,0.318-0.693l0.313-0.696l0.302-0.698c0.396-0.934,0.79-1.867,1.147-2.814
	c-0.421,0.925-0.845,1.849-1.283,2.766c-0.438,0.918-0.887,1.832-1.35,2.739c-0.459,0.91-0.945,1.807-1.454,2.693
	c-0.516,0.881-1.052,1.759-1.706,2.552l-0.098,0.121l0.138,0.087c0.802,0.503,1.58,1.053,2.338,1.614
	c0.761,0.563,1.493,1.154,2.203,1.761c0.36,0.302,0.704,0.618,1.052,0.929l0.507,0.479l0.253,0.24l0.245,0.246l0.491,0.492
	l0.473,0.506l0.235,0.254l0.225,0.261l0.453,0.52l0.103,0.118l0.08-0.126c0.445-0.717,0.887-1.435,1.326-2.154l0.658-1.079
	c0.223-0.36,0.437-0.721,0.654-1.083C266.212,164.564,265.969,164.913,265.736,165.266z"/>
<path fill="#FFC0BB" d="M172.437,149.26l0.529,3.404c0,0-2.887,1.761-4.647-0.246l0.29-3.523L172.437,149.26z"/>
<path fill="#F99893" d="M165.981,143.656c0.346,0.828,0.016,1.698-0.738,1.942c-0.755,0.243-1.648-0.23-1.996-1.058
	c-0.347-0.829-0.016-1.699,0.738-1.942C164.74,142.353,165.634,142.827,165.981,143.656z"/>
<path fill="#F99893" d="M168.425,151.128l0.184-2.234l3.828,0.366l0.223,1.433C171.931,150.96,170.567,151.28,168.425,151.128z"/>
<path fill="#FFC0BB" d="M164.929,146.024c-0.073-0.991-0.166-1.986-0.084-2.853c0.018-0.187,0.025-0.373,0.027-0.56
	c0.011-0.754,0.169-1.53,0.511-2.302c1.099-2.481,3.832-4.064,6.643-3.84c3.787,0.304,6.317,3.559,5.63,7.008
	c0.438-0.149,0.893-0.129,1.251,0.096c0.688,0.432,0.763,1.449,0.165,2.276c-0.597,0.825-1.639,1.145-2.327,0.712
	c-0.096-0.059-0.178-0.132-0.25-0.212c-0.902,2.887-4.629,4.33-7.667,3.822C167.339,149.922,165.156,149.104,164.929,146.024z"/>
<path fill="#F99893" d="M168.83,143.198c0.03,0.275,0.007,0.554-0.051,0.828c-0.03,0.138-0.073,0.274-0.134,0.409
	c-0.063,0.135-0.141,0.27-0.281,0.387l-0.059,0.041l-0.052,0.034c-0.022,0.017-0.053,0.029-0.069,0.048
	c-0.044,0.033-0.075,0.073-0.096,0.116c-0.047,0.086-0.026,0.196,0.025,0.3c0.112,0.214,0.369,0.373,0.652,0.491
	c-0.311-0.013-0.654-0.122-0.856-0.388c-0.1-0.129-0.153-0.312-0.089-0.485c0.016-0.042,0.036-0.083,0.064-0.119
	c0.025-0.04,0.06-0.069,0.093-0.102c0.033-0.033,0.075-0.053,0.111-0.079c0.023-0.016,0.028-0.02,0.041-0.028l0.032-0.023
	c0.088-0.069,0.16-0.179,0.224-0.291c0.068-0.113,0.113-0.239,0.167-0.363C168.651,143.721,168.736,143.461,168.83,143.198z"/>
<path fill="#333333" d="M170.776,143.219c0.241-0.188,0.476-0.353,0.718-0.492c0.243-0.14,0.495-0.249,0.758-0.322
	c0.263-0.07,0.536-0.123,0.825-0.123c0.145-0.017,0.29,0.004,0.444,0c0.152,0.004,0.303,0.028,0.469,0.025
	c-0.127-0.084-0.265-0.162-0.411-0.224c-0.151-0.051-0.304-0.114-0.47-0.131c-0.326-0.064-0.679-0.035-1.003,0.054
	c-0.326,0.091-0.621,0.257-0.852,0.468C171.027,142.688,170.849,142.939,170.776,143.219z"/>
<path fill="#333333" d="M168.159,142.988c-0.23-0.199-0.456-0.372-0.69-0.521c-0.235-0.149-0.482-0.269-0.74-0.353
	c-0.258-0.081-0.529-0.145-0.818-0.158c-0.145-0.021-0.29-0.005-0.442-0.017c-0.152-0.001-0.304,0.016-0.47,0.007
	c0.131-0.08,0.273-0.152,0.423-0.208c0.153-0.044,0.309-0.1,0.476-0.11c0.329-0.051,0.68-0.008,1,0.095
	c0.321,0.105,0.607,0.283,0.825,0.503C167.937,142.447,168.102,142.706,168.159,142.988z"/>
<path fill="#333333" d="M171.553,139.199c-4.554-0.079-4.529-2.505-4.529-2.505l0.122,0.107c0.338,0.197,1.055,0.248,1.055,0.248
	c-0.785-1.719,1.57-2.064,1.57-2.064s-1.57,1.377,1.963,1.377c3.532,0,4.316,1.03,4.316,1.03c0.046,0.097,0.065,0.187,0.064,0.271
	l0,0c0,0,0.046,0.159-0.046,0.374c-0.069,0.182-0.189,0.349-0.33,0.496c-0.179,0.183-0.387,0.349-0.62,0.479
	c-0.462,0.266-0.986,0.441-1.519,0.54c-0.132,0.032-0.267,0.045-0.402,0.063c-0.134,0.016-0.269,0.035-0.403,0.046l-0.405,0.016
	c-0.135,0.006-0.271,0.016-0.405,0.006c-0.269-0.011-0.537-0.019-0.804-0.047c-0.266-0.035-0.531-0.069-0.792-0.118
	c0.269-0.025,0.533-0.035,0.797-0.045c0.132,0,0.264-0.017,0.396-0.025c0.131-0.01,0.262-0.016,0.393-0.023
	c0.262-0.021,0.521-0.052,0.779-0.076l0.383-0.056c0.127-0.02,0.257-0.034,0.381-0.065l0.377-0.076l0.366-0.102
	c0.096-0.021,0.186-0.056,0.276-0.088C173.865,139.122,172.909,139.223,171.553,139.199z"/>
<path fill="#333333" d="M141.302,131.74c0,0-5.197,5.42-7.183,8.434c-2.204,3.346-5.947,10.634,1.246,14.01
	c4.467,2.096,12.187,1.422,13.799,0.008c1.613-1.415,5.458-0.848,4.593-15.714c0,0-10.516-5.218-10.622-5.25
	C143.031,133.195,141.302,131.74,141.302,131.74z"/>
<path fill="#FFC0BB" d="M139.462,151.953c0,0,11.501-0.898,16.432-0.404c0,0,0.099,2.726-0.102,2.862s-2.431,4.096-2.612,4.232
	c-0.181,0.136-2.98,0.729-2.98,0.729s-1.753-0.684-2.51-0.91c-0.755-0.228-2.362-0.78-2.828-1.278
	c-0.467-0.498-3.681-2.09-3.837-2.09C140.871,155.093,139.462,151.953,139.462,151.953z"/>
<path fill="#318FF1" d="M182.285,150.677c-2.137,0.171-8.707,1.275-8.707,1.275c-3.538,1.797-5.792-0.592-5.792-0.592
	c-1.283-0.091-8.099-0.683-8.099-0.683l0.104,2.493l-1.867,0.648l-0.881,9.695v5.531c9.355,2.387,21.095,0.34,21.095,0.34
	c0.421-5.12-0.205-11.47-0.205-11.47c4.09-0.367,6.01-1.502,6.01-1.502C184.1,154.5,182.285,150.677,182.285,150.677z"/>
<path opacity="0.3" fill="#318FF1" d="M182.285,150.677c-1.321,0.105-4.336,0.568-6.447,0.905
	c-1.163,4.082-5.837,11.703-18.725,11.157l-0.07,0.774v5.531c9.355,2.387,21.095,0.34,21.095,0.34
	c0.421-5.12-0.205-11.47-0.205-11.47c4.09-0.367,6.01-1.502,6.01-1.502C184.1,154.5,182.285,150.677,182.285,150.677z"/>
<path fill="#02CCC0" d="M164.61,179.534c-6.427-4.188-6.375-12.947-6.375-12.947s4.665-10.265,2.021-12.996
	c-1.063-1.099-2.738-1.708-4.362-2.042c-0.57,2.008-2.082,6.175-4.761,6.002c-2.838-0.184-9.273-4.085-11.671-5.598
	c-2.231,0.619-4.383,1.718-4.837,3.67c-1.011,4.341,5.909,22.848,5.909,22.848s-10.495,22.457-12.05,36.247
	c0,0,22.857,10.243,53.801,0C182.285,214.717,171.037,183.721,164.61,179.534z"/>
<path opacity="0.3" fill="#FEB546" d="M151.108,181.671c-13.063-10.037-11.646-29.718-11.646-29.718
	c-2.231,0.619-4.383,1.718-4.837,3.67c-1.011,4.341,5.909,22.848,5.909,22.848s-10.495,22.457-12.05,36.247
	c0,0,22.857,10.243,53.801,0c0,0-1.195-3.293-3.027-7.877C145.021,215.204,151.108,181.671,151.108,181.671z"/>
<g>
	<path fill="#FFFFFF" d="M137.108,179.772l6.071,4.379c0.089,0.064,0.222,0.053,0.296-0.025l0.276-0.295
		c0.074-0.079,0.062-0.194-0.028-0.259l-6.071-4.382c-0.09-0.064-0.222-0.05-0.296,0.025l-0.276,0.295
		C137.006,179.59,137.018,179.708,137.108,179.772z"/>
	<path fill="#318FF1" d="M145.246,181.716l-1.302,1.766c-0.16,0.217-0.454,0.309-0.616,0.191l-5.636-4.066
		c-0.146-0.104-0.214-0.293-0.145-0.5c0.07-0.217,0.278-0.467,0.832-0.605c1.088-0.275,2.848,0.723,4.166,0.793
		c0.047,0.002,0.092,0.017,0.128,0.045l2.57,1.853C145.391,181.297,145.391,181.519,145.246,181.716z"/>
	<g>
		<path fill="#FFFFFF" d="M142.138,180.521L142.138,180.521c0.062,0.009,0.135-0.042,0.156-0.106
			c0.097-0.301,0.256-1.089-0.552-1.485c-0.046-0.023-0.119,0.006-0.16,0.059l-0.002,0.002c-0.038,0.054-0.032,0.113,0.014,0.135
			c0.722,0.357,0.57,1.043,0.486,1.293C142.062,180.473,142.086,180.516,142.138,180.521z"/>
	</g>
	<g>
		<path fill="#FFFFFF" d="M141.358,180.307L141.358,180.307c0.062,0.006,0.135-0.045,0.155-0.107
			c0.097-0.301,0.256-1.088-0.551-1.488c-0.046-0.022-0.12,0.005-0.16,0.062l-0.001,0.002c-0.039,0.054-0.033,0.11,0.013,0.132
			c0.722,0.36,0.571,1.046,0.486,1.293C141.281,180.256,141.307,180.302,141.358,180.307z"/>
	</g>
	<g>
		<path fill="#FFFFFF" d="M140.631,180.107L140.631,180.107c0.063,0.008,0.135-0.042,0.157-0.107
			c0.096-0.301,0.255-1.088-0.552-1.485c-0.047-0.025-0.12,0.002-0.161,0.059l-0.001,0.002c-0.039,0.054-0.032,0.11,0.013,0.132
			c0.721,0.36,0.571,1.046,0.486,1.297C140.555,180.057,140.58,180.102,140.631,180.107z"/>
	</g>
	<path opacity="0.3" fill="#E87B50" d="M142.105,182.433c1.3-0.681,2.091-0.475,2.515-0.205c0.096,0.062,0.117,0.18,0.05,0.27
		l-0.726,0.984c-0.16,0.217-0.454,0.309-0.616,0.191l-1.261-0.908C141.946,182.675,141.966,182.506,142.105,182.433z"/>
</g>
<g>
	<path fill="#FFFFFF" d="M154.577,186.125l7.776,0.996c0.115,0.014,0.221-0.056,0.238-0.157l0.064-0.377
		c0.016-0.102-0.063-0.194-0.178-0.208l-7.776-0.995c-0.115-0.014-0.221,0.053-0.238,0.155l-0.063,0.379
		C154.384,186.019,154.462,186.112,154.577,186.125z"/>
	<path fill="#318FF1" d="M162.689,184.098l-0.076,2.101c-0.009,0.261-0.206,0.473-0.414,0.444l-7.218-0.922
		c-0.187-0.022-0.354-0.155-0.42-0.366c-0.067-0.214-0.036-0.523,0.356-0.894c0.77-0.729,2.864-0.672,4.033-1.212
		c0.042-0.018,0.089-0.025,0.135-0.02l3.292,0.422C162.566,183.673,162.698,183.865,162.689,184.098z"/>
	<g>
		<path fill="#FFFFFF" d="M159.325,184.486L159.325,184.486c0.058-0.022,0.089-0.098,0.07-0.163
			c-0.094-0.301-0.421-1.049-1.347-1.021c-0.054,0-0.1,0.059-0.101,0.124v0.003c-0.002,0.062,0.039,0.109,0.09,0.109
			c0.828-0.022,1.103,0.633,1.179,0.886C159.23,184.478,159.277,184.503,159.325,184.486z"/>
	</g>
	<g>
		<path fill="#FFFFFF" d="M158.531,184.655L158.531,184.655c0.058-0.02,0.09-0.098,0.07-0.164c-0.095-0.3-0.422-1.046-1.347-1.021
			c-0.054,0.003-0.099,0.059-0.101,0.126l0,0c-0.002,0.065,0.037,0.11,0.089,0.11c0.829-0.02,1.103,0.636,1.178,0.886
			C158.437,184.649,158.484,184.674,158.531,184.655z"/>
	</g>
	<g>
		<path fill="#FFFFFF" d="M157.792,184.815L157.792,184.815c0.057-0.023,0.089-0.099,0.07-0.164
			c-0.094-0.301-0.421-1.049-1.347-1.021c-0.054,0-0.099,0.059-0.101,0.124v0.003c-0.002,0.062,0.038,0.109,0.089,0.109
			c0.829-0.022,1.104,0.633,1.179,0.886C157.697,184.807,157.745,184.834,157.792,184.815z"/>
	</g>
	<path opacity="0.3" fill="#E87B50" d="M160.422,186.137c0.713-1.173,1.51-1.358,2.032-1.316c0.118,0.008,0.205,0.101,0.202,0.208
		l-0.042,1.17c-0.009,0.261-0.206,0.473-0.414,0.444l-1.614-0.206C160.429,186.418,160.345,186.264,160.422,186.137z"/>
</g>
<path fill="#232222" d="M150.175,171.741c0,0-6.336,4.505-7.833,6.758c0,0,0.719,2.252,3.323,3.585c0,0,6.842-5.122,7.619-5.428
	c0.777-0.309,5.87-0.444,5.87-0.444s5.948-5.225,5.948-5.259c0-0.033-0.35-2.148-0.622-2.148s-9.758-0.478-9.758-0.478l-3.42,2.421
	L150.175,171.741z"/>
<path fill="#333333" d="M178.138,169.384c0,0,1.271,5.222-4.522,6.043c-5.792,0.818-8.086,0.99-8.086,0.99l-2.021,7.942
	c0,0-2.954-0.228-5.442-1.184c0,0-2.371-10.481,5.52-13.963C171.478,165.731,178.138,169.384,178.138,169.384z"/>
<path fill="#FFC0BB" d="M177.826,159.993c-1.627-0.946-5.532,0.892-6.695,1.479c-0.075,0.066-18.293,5.056-19.062,5.086
	c-2.019,0.076-3.589-1.147-4.099-1.601c-0.691,0.833-2.748,3.097-5.726,4.508c-0.177,0.194-0.275,0.307-0.275,0.307
	s3.404,3.229,8.814,3.656c5.409,0.428,22.948-8.465,22.948-8.465c1.514-0.256,3.099-0.357,3.645,0.18
	c1.153,1.13,2.482-0.768,2.584-1.462C180.061,162.986,179.749,161.112,177.826,159.993z"/>
<path fill="#FFFFFF" d="M148.561,164.248c-0.617-0.739-1.239-1.475-1.864-2.208c-0.629-0.731-1.26-1.459-1.9-2.184
	c-0.641-0.723-1.286-1.443-1.95-2.15c-0.662-0.708-1.328-1.414-2.041-2.083c0.668,0.703,1.307,1.426,1.937,2.156
	c0.627,0.731,1.253,1.462,1.87,2.201c0.619,0.737,1.235,1.474,1.847,2.214c0.593,0.714,1.183,1.43,1.768,2.147
	c-0.404,0.623-0.918,1.197-1.485,1.723c-0.294,0.275-0.605,0.537-0.924,0.792c-0.318,0.256-0.647,0.504-0.982,0.743
	c-0.67,0.48-1.372,0.928-2.09,1.353c-0.679,0.405-1.378,0.79-2.091,1.145l-0.104-0.127c-0.06-0.073-0.124-0.143-0.176-0.224
	c-0.111-0.155-0.228-0.307-0.333-0.467l-0.313-0.478l-0.298-0.489c-0.388-0.655-0.76-1.322-1.118-1.991
	c-0.355-0.672-0.708-1.347-1.05-2.024c-0.34-0.679-0.674-1.36-1.004-2.043c0.285,0.698,0.59,1.391,0.902,2.081
	c0.314,0.688,0.633,1.377,0.972,2.057c0.337,0.681,0.689,1.358,1.067,2.025l0.29,0.497l0.307,0.493
	c0.104,0.163,0.219,0.32,0.33,0.483c0.053,0.079,0.119,0.155,0.181,0.233l0.187,0.233l0.074,0.09l0.116-0.057
	c0.774-0.368,1.519-0.771,2.25-1.192c0.727-0.428,1.438-0.877,2.121-1.361c0.683-0.484,1.338-0.999,1.94-1.566
	c0.603-0.563,1.153-1.178,1.578-1.867l0.051-0.081L148.561,164.248z"/>
<path fill="#FFC0BB" d="M175.729,172.301c1.798,0.307,2.56,2.176,1.405,3.428c-0.583,0.63-1.431,1.369-2.494,1.802
	c-2.125,0.866-6.168,0.388-7.283-1.341s-0.492-1.617-0.492-1.617s-0.648-1.069,0.104-1.367c0,0-0.13-0.818,0.493-0.863
	c0,0,0.415,0,0.726,0.228c0,0,0.078-0.501,0.725-0.388c0.648,0.115,3.162,1.867,5.236,2.002c1.631,0.11,0.244-1.08-0.421-1.592
	c-0.304-0.236-0.517-0.554-0.577-0.908c-0.017-0.095-0.022-0.197-0.008-0.292c0.034-0.222,0.359-0.292,0.509-0.109
	c0.271,0.326,0.75,0.813,1.274,0.9C175.121,172.216,175.407,172.244,175.729,172.301z"/>
<polygon fill="#FFC0BB" points="145.326,147.028 145.418,152.909 151.186,154.183 152.163,152.817 151.901,147.333 146.023,145.511 
	"/>
<path fill="#333333" d="M140.132,139.263c0,0-1.709-6.158,2.362-8.464c4.07-2.306,8.385-2.049,11.324-0.667
	c2.938,1.381,4.699,6.198,3.381,8.952l-9.754-2.628L140.132,139.263z"/>
<path fill="#F99893" d="M145.207,146.096c0,0,0.118,1.036,0.221,2.328c2.108,2.026,6.058,1.332,6.581,1.135
	c-0.032-0.649,0-1.964,0-1.964L145.207,146.096z"/>
<path fill="#F99893" d="M155.931,140.171c-0.347,0.828-0.017,1.698,0.739,1.941c0.754,0.245,1.647-0.229,1.995-1.057
	c0.347-0.83,0.017-1.699-0.738-1.943C157.171,138.868,156.278,139.343,155.931,140.171z"/>
<path fill="#FFC0BB" d="M155.851,144.958c0.218-0.358,0.4-0.738,0.541-1.135c0.405-1.064,0.585-2.187,0.655-3.164
	c0.016-0.209,0.044-0.417,0.077-0.625c0.135-0.839,0.096-1.724-0.163-2.628c-0.833-2.905-3.797-5.024-7.208-5.144
	c-4.593-0.159-8.257,3.131-8.104,7.059c-0.496-0.224-1.043-0.262-1.517-0.059c-0.909,0.389-1.194,1.514-0.64,2.511
	c0.555,0.998,1.741,1.489,2.648,1.1c0.127-0.055,0.24-0.124,0.341-0.204c0.519,3.33,3.738,5.816,7.475,5.647
	c1.828-0.082,3.459-0.785,4.663-1.873c0.082-0.063,0.167-0.138,0.255-0.223C155.263,145.841,155.584,145.414,155.851,144.958z"/>
<path fill="#333333" d="M148.857,140.259c0.02,0.353-0.289,0.655-0.692,0.672c-0.403,0.018-0.746-0.253-0.767-0.607
	c-0.021-0.354,0.289-0.656,0.692-0.674C148.494,139.632,148.837,139.905,148.857,140.259z"/>
<path fill="#333333" d="M155.344,140.259c0.02,0.353-0.289,0.655-0.692,0.672c-0.404,0.018-0.747-0.253-0.767-0.607
	c-0.021-0.354,0.29-0.656,0.692-0.674C154.98,139.632,155.323,139.905,155.344,140.259z"/>
<path fill="#333333" d="M149.46,138.524c-0.362-0.087-0.729-0.132-1.09-0.139c-0.361-0.003-0.719,0.039-1.057,0.136
	c-0.17,0.046-0.332,0.111-0.489,0.185c-0.08,0.037-0.154,0.079-0.229,0.122c-0.039,0.021-0.073,0.044-0.11,0.067
	c-0.037,0.023-0.075,0.045-0.109,0.071c-0.284,0.197-0.54,0.432-0.782,0.684c0.15-0.303,0.371-0.583,0.648-0.818
	c0.138-0.118,0.292-0.224,0.459-0.313c0.167-0.088,0.345-0.163,0.531-0.214c0.372-0.107,0.77-0.138,1.151-0.096
	c0.192,0.018,0.38,0.057,0.561,0.108C149.125,138.37,149.301,138.434,149.46,138.524z"/>
<path fill="#333333" d="M152.855,138.374c0.166-0.082,0.346-0.136,0.53-0.179c0.186-0.039,0.375-0.067,0.568-0.075
	c0.384-0.019,0.778,0.036,1.142,0.164c0.181,0.063,0.353,0.147,0.513,0.246c0.161,0.098,0.305,0.213,0.435,0.338
	c0.259,0.252,0.458,0.544,0.585,0.855c-0.224-0.266-0.46-0.514-0.729-0.727c-0.032-0.028-0.067-0.052-0.104-0.077
	c-0.035-0.024-0.068-0.051-0.104-0.073c-0.073-0.046-0.145-0.094-0.22-0.135c-0.151-0.083-0.308-0.158-0.474-0.214
	c-0.33-0.117-0.683-0.18-1.044-0.197C153.592,138.284,153.224,138.308,152.855,138.374z"/>
<path fill="#333333" d="M140.663,138.415l0.183-0.02l0.123-1.335l0.68-1.236c0,0,2.666-3.322,2.759-3.404
	c0.094-0.082,2.126-1.153,2.251-1.207c0.125-0.057,2.97,0.356,2.97,0.356s5.005-0.945,4.159,1.51
	c-0.847,2.457-4.502,3.733-4.69,3.624c0.594-0.549,0.657-2.114,0.657-2.114c-2.814,2.854-8.105,4.733-8.105,4.733
	s-0.554-0.373-1.517-0.059L140.663,138.415z"/>
<path fill="#F99893" d="M167.913,147.335c1.035-2.528,6.315,1.553,1.546,0.43c-0.368-0.032-0.69,0.065-0.962,0.126
	C168.119,147.976,167.781,147.657,167.913,147.335z"/>
<path fill="#F99893" d="M151.574,140.296c-0.034,0.311-0.008,0.623,0.058,0.931c0.034,0.155,0.081,0.308,0.149,0.459
	c0.071,0.15,0.158,0.302,0.315,0.435l0.066,0.045l0.058,0.04c0.026,0.018,0.059,0.031,0.079,0.053
	c0.048,0.037,0.083,0.082,0.106,0.129c0.053,0.097,0.03,0.219-0.027,0.337c-0.125,0.237-0.415,0.417-0.732,0.55
	c0.349-0.016,0.734-0.138,0.962-0.436c0.112-0.145,0.171-0.351,0.1-0.543c-0.018-0.048-0.04-0.094-0.072-0.135
	c-0.028-0.044-0.066-0.079-0.104-0.114c-0.037-0.038-0.083-0.059-0.125-0.088c-0.027-0.017-0.032-0.022-0.044-0.032l-0.037-0.026
	c-0.098-0.078-0.179-0.201-0.25-0.328c-0.076-0.126-0.127-0.269-0.188-0.406C151.776,140.885,151.68,140.594,151.574,140.296z"/>
<path fill="#FFC0BB" d="M198.029,239.578l7.92-1.671l3.746,16.637c0.001,0,0.002-0.002,0.002-0.002l2.328,0.557l0.934,0.226
	l0.546,0.615c0,0-0.601,0.172-0.579,0.276c0.02,0.104-0.966,0.495-1.908,0.714c-0.94,0.219-0.864,0.229-2.387,0.678
	c-1.521,0.446-1.337,0.064-1.618,0.033c-0.184-0.02-0.453-0.475-0.62-0.787c-0.012-0.003-0.028-0.006-0.039-0.009l-0.453-1.226
	C205.908,255.619,198.029,239.578,198.029,239.578z"/>
<path fill="#DAEEF7" d="M209.25,251.1l1.845,8.315c0.001,0,0.002-0.002,0.002-0.002l2.087,0.506l0.837,0.205l0.489,0.56
	c0,0-0.538,0.156-0.52,0.251c0.018,0.095-0.865,0.45-1.71,0.649c-0.843,0.199-0.774,0.209-2.14,0.616
	c-1.362,0.406-1.198,0.059-1.45,0.03c-0.164-0.018-0.406-0.432-0.556-0.716c-0.011-0.003-0.025-0.005-0.035-0.008l-0.406-1.114
	c0.004,0-1.869-3.872-3.686-7.626C206.25,252.353,208.146,251.604,209.25,251.1z"/>
<path fill="#E03268" d="M211.875,261.313c1.437-0.276,1.997-0.733,2.146-1.188l1.144,0.275c0.451,0.105,0.469,0.67,0.024,0.798
	l-6.13,1.765c-0.217,0.062-0.449-0.043-0.52-0.235l-0.534-1.478C208.53,261.497,209.644,261.742,211.875,261.313z"/>
<path fill="#FFC0BB" d="M187.241,240.021l-7.279,0.496l2.021,15.316l-0.002-0.002l-1.812,1.056l-0.727,0.422l-0.272,0.667
	c0,0,0.565,0,0.581,0.095c0.016,0.098,0.978,0.192,1.851,0.151c0.872-0.041,0.811-0.013,2.248,0
	c1.437,0.013,1.162-0.273,1.392-0.368c0.15-0.062,0.238-0.521,0.281-0.831c0.01-0.005,0.022-0.013,0.032-0.019v-1.173
	C185.55,255.833,187.241,240.021,187.241,240.021z"/>
<path fill="#09083C" d="M206.681,202.184c-0.709-1.614-1.397-0.976-2.672-2.928c-0.203-0.309-0.349-0.711-0.45-1.082
	c-0.307-1.108-0.97-2.118-1.951-2.863c-2.992-2.271-6.376-1.263-6.376-1.263s0.878,4.387,1.046,5.276
	c-0.747,0.895-1.5,1.806-1.5,1.806s-1.576,7.213,0.895,7.82c2.471,0.608,2.922-0.368,4.128-0.874
	c1.206-0.509,2.384,0.878,4.187-0.087c1.378-0.736,0.679-2.576,1.407-2.922C206.121,204.72,207.443,203.928,206.681,202.184z"/>
<path fill="#09083C" d="M189.871,195.665c0,0-1.297,1.715-1.961,2.396c-1.666,1.713-2.668,1.176-3.702,2.646
	c-1.119,1.589,0.011,2.585,0.655,3.04c0.643,0.459-0.433,2.151,0.765,3.102c1.567,1.243,3.018,0.071,4.097,0.769
	c1.079,0.694,1.315,1.727,3.871,1.532s2.53-7.54,2.53-7.54s-2.091-3.892-2.175-3.923
	C193.867,197.653,189.871,195.665,189.871,195.665z"/>
<path fill="#FFC0BB" d="M223.836,201.591c-0.026-0.147,1.708-1.482,1.511-1.531c-0.197-0.047-1.968,1.014-2.024,0.906
	c-0.053-0.106,1.643-1.372,1.437-1.563c-0.206-0.192-2.011,1.254-2.103,1.043c-0.093-0.208,1.797-1.648,1.577-1.795
	c-0.184-0.123-2.344,1.44-3.025,1.941c-0.088,0.064-0.223,0.014-0.235-0.084c-0.203-1.541-0.32-1.65-0.509-1.595
	c-0.124,0.038-0.669,1.788-1.051,3.062c-6.541,6.098-17.749,10.339-17.749,10.339s-4.034,8.645,1.646,6.809
	c4.979-1.609,15.211-11.849,17.657-14.352l0,0l0.983-0.823l0,0c0.001,0,0.002,0,0.002-0.004c0.317-0.186,0.605-0.332,0.605-0.332
	c3.06-2.161,2.991-2.226,2.919-2.337C225.406,201.163,223.861,201.736,223.836,201.591z"/>
<path fill="#FCB9B6" d="M166.981,201.591c0.024-0.147-1.709-1.482-1.512-1.531c0.198-0.047,1.969,1.014,2.024,0.906
	c0.055-0.106-1.641-1.372-1.434-1.563c0.205-0.192,2.009,1.254,2.102,1.043c0.092-0.208-1.797-1.648-1.578-1.795
	c0.184-0.123,2.343,1.44,3.025,1.941c0.088,0.064,0.222,0.014,0.236-0.084c0.201-1.541,0.319-1.65,0.507-1.595
	c0.125,0.038,0.669,1.788,1.051,3.062c6.542,6.098,17.75,10.339,17.75,10.339s4.033,8.645-1.646,6.809
	c-4.979-1.609-15.21-11.849-17.658-14.352l0,0l-0.981-0.823h-0.002c0,0-0.001,0-0.001-0.004c-0.317-0.186-0.604-0.332-0.604-0.332
	c-3.06-2.161-2.992-2.226-2.92-2.337C165.411,201.163,166.957,201.736,166.981,201.591z"/>
<g>
	<g>
		<path fill="#FF5B7E" d="M209.942,207.83l-7.994,2.723l-1.858,4.354c0,0-0.248,4.916,2.959,4.871
			c3.209-0.042,9.351-6.131,9.351-6.131C212.194,211.067,209.942,207.83,209.942,207.83z"/>
		<path fill="#FF5B7E" d="M189.403,210.553l-7.337-2.376c0,0-2.908,3.461-3.113,6.04c0,0,6.142,5.519,9.35,5.561
			c3.206,0.045,2.959-4.871,2.959-4.871L189.403,210.553z"/>
	</g>
</g>
<rect x="193.55" y="207.83" fill="#FFC0BB" width="4.634" height="4.072"/>
<path fill="#F99893" d="M198.184,210.271v-2.441h-4.634v2.075C194.546,210.378,196.023,210.648,198.184,210.271z"/>
<path fill="#FFC0BB" d="M203.775,201.16c-0.403-0.175-0.868-0.145-1.291,0.045c0.146-3.342-2.955-6.148-6.86-6.03
	c-3.904-0.118-7.006,2.688-6.86,6.03c-0.421-0.189-0.889-0.22-1.291-0.045c-0.771,0.335-1.011,1.293-0.535,2.141
	c0.475,0.846,1.486,1.262,2.258,0.928c0.106-0.049,0.203-0.107,0.29-0.176c0.441,2.763,3.063,4.832,6.139,4.793
	c3.076,0.039,5.698-2.03,6.141-4.793c0.086,0.068,0.182,0.127,0.288,0.176c0.771,0.334,1.783-0.082,2.258-0.928
	C204.785,202.453,204.547,201.495,203.775,201.16z"/>
<path fill="#FFC0BB" d="M189.422,210.553c0,0,7.538,4.362,12.526,0H189.422z"/>
<path fill="#333333" d="M193.891,202.392c0.019,0.281-0.226,0.52-0.545,0.534c-0.318,0.017-0.59-0.2-0.608-0.479
	c-0.019-0.281,0.227-0.52,0.545-0.533C193.601,201.896,193.873,202.113,193.891,202.392z"/>
<path fill="#333333" d="M198.86,202.438c0.018,0.279-0.225,0.519-0.544,0.535c-0.319,0.014-0.591-0.199-0.608-0.478
	c-0.019-0.281,0.227-0.521,0.545-0.535C198.571,201.945,198.845,202.158,198.86,202.438z"/>
<path fill="#09083C" d="M194.523,201.354c-0.286-0.091-0.563-0.158-0.837-0.2s-0.544-0.054-0.808-0.027
	c-0.262,0.024-0.525,0.072-0.778,0.174l-0.1,0.031c-0.031,0.011-0.061,0.027-0.094,0.041l-0.192,0.082
	c-0.13,0.056-0.251,0.129-0.395,0.186c0.077-0.115,0.167-0.228,0.268-0.329c0.112-0.09,0.217-0.199,0.354-0.267
	c0.256-0.167,0.575-0.257,0.896-0.287c0.321-0.031,0.649,0.015,0.942,0.118C194.069,200.982,194.335,201.138,194.523,201.354z"/>
<path fill="#09083C" d="M196.852,201.346c0.187-0.217,0.452-0.374,0.74-0.481c0.291-0.106,0.618-0.154,0.941-0.127
	c0.319,0.028,0.641,0.118,0.897,0.282c0.139,0.067,0.244,0.174,0.356,0.264c0.103,0.103,0.191,0.214,0.27,0.33
	c-0.144-0.058-0.265-0.127-0.396-0.187l-0.192-0.079c-0.034-0.014-0.063-0.03-0.096-0.042l-0.099-0.031
	c-0.254-0.098-0.518-0.143-0.779-0.168c-0.266-0.022-0.535-0.011-0.808,0.034C197.414,201.186,197.14,201.256,196.852,201.346z"/>
<path fill="#FFFFFF" d="M198.146,205.105c-0.169,0.669-1.042,1.194-2.108,1.226c-1.068,0.028-1.975-0.45-2.19-1.11L198.146,205.105z
	"/>
<path fill="#F99893" d="M195.909,201.697c-0.029,0.267-0.007,0.534,0.05,0.799c0.027,0.132,0.07,0.264,0.127,0.393
	c0.062,0.13,0.136,0.259,0.271,0.372l0.057,0.04l0.05,0.033c0.021,0.014,0.051,0.025,0.067,0.045
	c0.041,0.033,0.071,0.069,0.091,0.112c0.044,0.082,0.024,0.188-0.023,0.287c-0.107,0.205-0.354,0.359-0.627,0.473
	c0.298-0.012,0.627-0.118,0.823-0.375c0.094-0.123,0.147-0.298,0.085-0.464c-0.016-0.042-0.034-0.082-0.061-0.115
	c-0.026-0.039-0.057-0.067-0.091-0.099c-0.031-0.03-0.071-0.051-0.106-0.075c-0.023-0.014-0.027-0.021-0.04-0.028l-0.031-0.022
	c-0.083-0.065-0.151-0.172-0.214-0.279c-0.064-0.109-0.108-0.229-0.16-0.348C196.083,202.203,196,201.952,195.909,201.697z"/>
<path fill="#FF5B7E" d="M201.948,210.553c-2.423,1.58-10.102,1.58-12.526,0c0,0-5.577,23.237-8.989,27.914
	c0,0,4.498,3.74,9.719,1.375c0,0,5.959,3.019,11.56-0.033c0,0,4.523,2.376,9.227-1.342
	C207.526,233.79,201.948,210.553,201.948,210.553z"/>
<path fill="#DAEEF7" d="M187.096,219.563c0.064-0.363,0.145-0.723,0.228-1.083c0.082-0.359,0.174-0.718,0.267-1.074
	c0.096-0.354,0.192-0.712,0.3-1.066l0.165-0.531c0.06-0.174,0.113-0.352,0.177-0.525c-0.03,0.183-0.07,0.359-0.104,0.542
	l-0.123,0.541c-0.08,0.356-0.173,0.714-0.266,1.07c-0.097,0.357-0.194,0.714-0.303,1.066
	C187.333,218.857,187.223,219.212,187.096,219.563z"/>
<path fill="#DAEEF7" d="M204.246,219.563c-0.063-0.363-0.145-0.723-0.227-1.083c-0.08-0.359-0.174-0.718-0.267-1.074
	c-0.096-0.354-0.193-0.712-0.301-1.066l-0.163-0.531c-0.06-0.174-0.116-0.352-0.179-0.525c0.029,0.183,0.069,0.359,0.105,0.542
	l0.121,0.541c0.081,0.356,0.174,0.714,0.267,1.07c0.096,0.357,0.194,0.714,0.302,1.066
	C204.012,218.857,204.121,219.212,204.246,219.563z"/>
<path fill="#09083C" d="M188.764,201.205c0,0,8.19-1.333,11.167-5.05c0,0-2.277-4.047-7.546-1.944
	C187.109,196.314,187.846,199.194,188.764,201.205z"/>
<path fill="#DAEEF7" d="M187.792,234.578c1.901,0.278,4.209,0.48,6.877,0.48c3.901,0,8.571-0.437,13.863-1.721
	c-0.273-0.731-0.549-1.511-0.823-2.32c-8.318,2.008-14.962,1.803-19.313,1.187c-1.89-0.267-3.499-0.627-4.799-0.99
	c-0.278,0.813-0.555,1.589-0.83,2.32C184.146,233.916,185.826,234.294,187.792,234.578z"/>
<path fill="#DAEEF7" d="M187.792,229.825c1.901,0.278,4.209,0.48,6.877,0.48c3.525,0,7.68-0.356,12.352-1.373
	c-0.244-0.767-0.489-1.552-0.73-2.344c-7.654,1.659-13.793,1.442-17.894,0.863c-1.255-0.178-2.387-0.397-3.386-0.631
	c-0.242,0.793-0.487,1.578-0.734,2.343C185.321,229.409,186.494,229.637,187.792,229.825z"/>
<path fill="#DAEEF7" d="M190.692,251.923l1.109,8.418l-0.002-0.002l-1.812,1.056l-0.727,0.422l-0.272,0.667c0,0,0.565,0,0.581,0.095
	c0.016,0.098,0.978,0.192,1.851,0.151c0.872-0.041,0.811-0.013,2.248,0c1.437,0.013,1.162-0.273,1.392-0.368
	c0.15-0.062,0.238-0.521,0.281-0.831c0.01-0.005,0.022-0.013,0.032-0.019v-1.173c-0.002,0.002,0.445-4.194,0.881-8.265
	C193.977,252.294,191.914,252.1,190.692,251.923z"/>
<path fill="#E03268" d="M191.714,262.361c-1.463,0.13-2.154-0.153-2.452-0.545l-0.991,0.578c-0.394,0.223-0.216,0.765,0.249,0.765
	h6.443c0.228,0,0.411-0.164,0.411-0.366v-1.552C194.961,261.619,193.984,262.159,191.714,262.361z"/>
<g>
	<g>
		<g>
			<polygon fill="#FA5371" points="177.285,136.315 177.197,136.25 178.994,134.368 179.082,134.432 			"/>
		</g>
	</g>
	<g>
		<g>
			<polygon fill="#FA5371" points="178.667,137.187 178.632,137.09 181.425,136.293 181.461,136.39 			"/>
		</g>
	</g>
	<g>
		<g>
			<polygon fill="#FA5371" points="180.808,139.649 178.512,138.74 178.56,138.646 180.854,139.556 			"/>
		</g>
	</g>
</g>
<path fill="#F99893" d="M221.221,134.266c-1.165-1.846-4.678,1.907-1.137,0.506c0.279-0.066,0.544-0.027,0.766-0.008
	C221.153,134.788,221.369,134.501,221.221,134.266z"/>
<path fill="#333333" d="M172.82,144.239c-0.187-0.053-0.38-0.086-0.574-0.111c-0.194-0.022-0.39-0.037-0.585-0.038
	c-0.055,0-0.109,0-0.164,0.001c0.01-0.005,0.02-0.011,0.03-0.017c0.135-0.057,0.276-0.107,0.421-0.152
	c0.29-0.086,0.594-0.149,0.904-0.2c-0.158-0.014-0.318-0.012-0.475-0.003c-0.16,0.011-0.318,0.03-0.475,0.061
	c-0.313,0.061-0.626,0.165-0.89,0.355l-0.277,0.198l0.362-0.023c0.184-0.013,0.375-0.021,0.564-0.024
	c0.188-0.001,0.378-0.002,0.566,0.007c0.377,0.018,0.752,0.058,1.12,0.166C173.188,144.363,173.005,144.292,172.82,144.239z"/>
<path fill="#333333" d="M222.38,131.083c-0.148-0.013-0.299-0.012-0.449-0.003c-0.149,0.01-0.299,0.028-0.446,0.055
	c-0.041,0.007-0.083,0.014-0.123,0.022c0.006-0.004,0.012-0.011,0.02-0.015c0.091-0.062,0.188-0.121,0.287-0.173
	c0.202-0.105,0.419-0.195,0.644-0.277c-0.12,0.011-0.239,0.035-0.356,0.065c-0.118,0.029-0.234,0.064-0.347,0.111
	c-0.223,0.088-0.439,0.212-0.604,0.391l-0.17,0.188l0.268-0.069c0.135-0.035,0.277-0.068,0.418-0.097
	c0.142-0.027,0.282-0.055,0.426-0.073c0.288-0.039,0.574-0.063,0.87-0.032C222.679,131.125,222.53,131.098,222.38,131.083z"/>
<path fill="#333333" d="M216.874,131.896c0.145-0.057,0.294-0.099,0.445-0.134c0.151-0.032,0.308-0.058,0.462-0.075
	c0.045-0.004,0.087-0.008,0.132-0.012c-0.009-0.003-0.017-0.007-0.026-0.01c-0.113-0.035-0.229-0.064-0.351-0.089
	c-0.239-0.046-0.487-0.073-0.741-0.088c0.125-0.024,0.251-0.035,0.38-0.04c0.128-0.004,0.256-0.002,0.385,0.01
	c0.256,0.026,0.514,0.085,0.745,0.215l0.239,0.138l-0.292,0.008c-0.147,0.004-0.301,0.013-0.451,0.026
	c-0.149,0.014-0.302,0.026-0.451,0.049c-0.297,0.043-0.594,0.104-0.875,0.22C216.593,132.022,216.731,131.953,216.874,131.896z"/>
<path fill="#333333" d="M165.868,144.115c0.187-0.054,0.38-0.088,0.574-0.113c0.195-0.023,0.39-0.035,0.585-0.037
	c0.054,0,0.109,0,0.164,0c-0.01-0.004-0.021-0.01-0.031-0.016c-0.135-0.058-0.275-0.107-0.42-0.151
	c-0.291-0.086-0.594-0.149-0.904-0.2c0.157-0.014,0.316-0.013,0.475-0.003c0.158,0.01,0.317,0.028,0.475,0.059
	c0.312,0.062,0.625,0.166,0.89,0.355l0.275,0.198l-0.362-0.022c-0.184-0.012-0.375-0.021-0.564-0.024
	c-0.188-0.001-0.377-0.002-0.566,0.007c-0.377,0.018-0.751,0.056-1.119,0.166C165.5,144.237,165.682,144.168,165.868,144.115z"/>
<path fill="#F99893" d="M150.226,145.004c0,0,1.568-1.039,2.517-0.526c0.949,0.515-0.361,0.414-1.07,0.526
	C151.189,145.081,149.488,145.666,150.226,145.004z"/>
<g>
	<path fill="#333333" d="M223.443,260.203L223.443,260.203c0.086-0.046,0.119-0.174,0.071-0.271
		c-0.229-0.455-0.946-1.567-2.43-1.353c-0.086,0.013-0.146,0.112-0.132,0.215v0.005c0.013,0.1,0.092,0.164,0.173,0.153
		c1.14-0.161,2.186,1.302,2.123,1.174C223.29,260.208,223.372,260.238,223.443,260.203z"/>
</g>
</svg>
