<?xml version="1.0" encoding="utf-8"?>
<!-- Generator: Adobe Illustrator 16.0.0, SVG Export Plug-In . SVG Version: 6.00 Build 0)  -->
<!DOCTYPE svg PUBLIC "-//W3C//DTD SVG 1.1//EN" "http://www.w3.org/Graphics/SVG/1.1/DTD/svg11.dtd">
<svg version="1.1" id="Capa_1" xmlns="http://www.w3.org/2000/svg" xmlns:xlink="http://www.w3.org/1999/xlink" x="0px" y="0px"
	 width="400px" height="400px" viewBox="0 0 400 400" enable-background="new 0 0 400 400" xml:space="preserve">
<g>
	<g>
		<g>
			<g>
				<path fill="#323334" d="M273.207,186.895c0.079,44.833-36.994,81.248-82.807,81.327c-45.819,0.076-83.024-36.207-83.105-81.041
					c-0.08-44.838,36.995-81.247,82.814-81.326C235.921,105.777,273.126,142.058,273.207,186.895z"/>
				<path fill="#FFFFFF" d="M121.18,179.992c0,0-4.756,9.306-6.988,21.492c-1.183,6.156-0.861,8.542,4.003,15.313
					c9.305,12.948,12.757,16.478,15.939,15.951c3.181-0.532,18.155-3.706,22.53-4.756c3.314-0.791,3.312-1.576,4.627-7.209
					c1.318-5.633,3.423-13.496,3.946-17.82c0.524-4.318-0.14-4.191-3.993-8.898c-3.853-4.706-13.022-16.737-14.881-18.961
					c-1.863-2.225-2.79-1.567-7.163-0.905c-4.374,0.662-11,2.376-14.18,3.166C121.84,178.157,121.841,178.943,121.18,179.992z"/>
				<path fill="#FFFFFF" d="M127.564,135.944c0,0-4.066,5.333-7.746,11.589c-2.038,3.641-1.415,8.895-0.169,18.998
					c1.246,10.102,2.269,10.1,6.152,9.284c3.889-0.815,14.728-3.057,17.589-3.667c2.862-0.611,5.106-5.467,7.757-9.713
					c2.653-4.25,13.249-17.654,15.385-19.777c2.023-1.766,1.425-3.532,0.821-8.234c-0.607-4.706-2.052-14.465-3.362-14.815
					c-1.309-0.352-11.434-0.345-15.243-0.571C144.936,118.807,135.289,126.431,127.564,135.944z"/>
				<path fill="#FFFFFF" d="M166.498,203.385c0,0-3.986,15.746-5.316,21.826c-0.661,3.572-0.793,4.366,6.711,9.248
					c7.503,4.875,11.256,7.777,13.668,9.096c2.412,1.32,4.551,1.317,11.512-0.283c6.956-1.598,13.852-3.037,16.723-4.261
					c2.811-1.192,7.209-10.721,9.205-17.068c1.996-6.351,3.593-11.513,0.778-13.755c-2.815-2.242-6.168-5.676-10.727-8.707
					c-4.554-3.034-8.441-6.994-10.181-6.199c-1.738,0.799-19.711,5.214-26.666,7.039
					C168.905,201.234,166.743,202.02,166.498,203.385z"/>
				<path fill="#FFFFFF" d="M180.573,265.705c0,0,3.277-13.444,3.798-16.707c0.524-3.262,1.711-3.396,6.465-4.187
					c4.756-0.792,17.424-4.465,19.669-5.25c2.244-0.788,3.586-1.192,7.421,1.668c3.836,2.866,12.409,9.123,15.318,11.077
					c2.114,1.43-7.68,8.371-20.45,11.776C198.009,268.021,180.444,267.92,180.573,265.705z"/>
				<path fill="#FFFFFF" d="M169.164,139.118c0,0-1.764-9.729-2.41-15.063c-0.646-5.338-0.009-4.711,7.137-7.706
					c7.146-2.995,24.143-6.792,27.798-7.111c3.651-0.319,7.945,0.771,17.17,5.308c9.225,4.536,11.613,6.102,12.095,8.77
					c0.48,2.667,1.614,14.909,1.784,20.562c-0.152,3.923-1.528,3.463-8.323,6.203c-6.967,2.809-13.614,5.545-15.245,6.467
					c-2.209,0.924-5.934-1.242-12.057-5.125c-5.439-3.447-16.611-8.167-21.389-9.54C170.95,140.51,169.716,141.404,169.164,139.118z
					"/>
				<path fill="#FFFFFF" d="M207.762,160.937c0,0-3.41,15.192-5.029,22.95c-1.623,7.436-1.131,8.565,3.455,11.95
					c4.584,3.384,9.827,8.222,12.611,10.317c2.787,2.098,4.593,4.528,13.418,2.078c11.114-3.088,14.061-3.904,17.488-5.039
					c3.433-1.138,4.086-2.431,5.383-8.572c1.3-6.141,2.264-15.353,2.909-20.365c0.648-5.006-0.338-5.812-4.433-9.847
					c-4.097-4.029-11.795-10.479-14.747-13.381c-2.948-2.903-5.075-3.224-8.671-1.924c-3.595,1.298-13.402,4.87-16.998,6.813
					C209.555,157.863,208.247,158.027,207.762,160.937z"/>
				<path fill="#FFFFFF" d="M267.414,166.704c0,0-5.339,1.731-6.972,2.489c-1.636,0.756-1.408,5.925-2.052,11.205
					c-0.647,5.278-2.589,15.407-3.891,19.932c-0.759,2.154,2.284,3.956,4.811,7.964c3.939,6.241,6.016,9.687,6.886,8.497
					c0.871-1.185,6.519-13.369,6.265-33.508C271.789,174.234,270.138,165.191,267.414,166.704z"/>
				<path fill="#FFFFFF" d="M111.767,211.386c0,0,0.78-2.216,1.464-1.062c0.684,1.156,8.506,13.761,14.858,20.491
					c2.246,2.115,2.833,2.693,3.134,6.644c0.297,3.95-0.187,4.911-2.532,2.604C126.345,237.757,115.011,223.808,111.767,211.386z"/>
				<path fill="#FFFFFF" d="M207.166,107.691c0,0-1.17-0.384-1.657,0.099c-0.485,0.483,2.245,1.25,7.028,3.264
					c4.78,2.013,12.198,5.661,15.323,7.777c2.148,1.247,3.025,1.534,4.879,0.761c1.852-0.773,2.435-1.063,0.288-2.215
					C230.877,116.225,217.212,109.118,207.166,107.691z"/>
				<path fill="#979797" d="M205.121,241.93c0,0-10.335,2.495-16.971,3.946c-4.362,0.548-3.813,7.727-5.724,15.65
					c0,0,2.626-9.162,3.947-12.449C187.699,245.791,193.091,246.746,205.121,241.93z"/>
				<path fill="#FFFFFF" d="M131.686,132.578c0,0,9.421-9.683,13.26-11.763c3.842-2.077,18.351-0.686,18.351-0.686
					s-10.18,0.326-14.971,0.597C143.531,120.998,131.686,132.578,131.686,132.578z"/>
				<path fill="#FFFFFF" d="M183.696,114.198c0,0,14.617-4.153,19.179-4.35c4.556-0.195,13.686,3.543,23.761,9.153
					c-11.217-4.857-19.585-8.034-23.002-8.028C200.216,110.978,183.696,114.198,183.696,114.198z"/>
				<path fill="#FFFFFF" d="M128.953,177.714c0,0,13.078-3.256,15.042-2.935c1.963,0.321,17.375,20.972,17.375,20.972
					s-13.44-16.132-17.371-18.064C140.07,175.754,128.953,177.714,128.953,177.714z"/>
				
					<linearGradient id="SVGID_1_" gradientUnits="userSpaceOnUse" x1="228.8496" y1="185.7847" x2="258.9239" y2="166.4943" gradientTransform="matrix(1 -0.0018 0.0018 1 0.2568 0.2578)">
					<stop  offset="0.2851" style="stop-color:#9E9E9E"/>
					<stop  offset="0.3829" style="stop-color:#AAAAAA"/>
					<stop  offset="0.559" style="stop-color:#CACACA"/>
					<stop  offset="0.6938" style="stop-color:#E6E6E6"/>
					<stop  offset="0.7367" style="stop-color:#ECECEC"/>
					<stop  offset="0.8733" style="stop-color:#F9F9F9"/>
					<stop  offset="1" style="stop-color:#FDFDFD"/>
				</linearGradient>
				<path fill="url(#SVGID_1_)" d="M243.894,156.393c0,0,8.924,8.178,11.543,10.755c2.614,2.574,2.462,2.727,0.19,21.546
					c1.055-11.99,1.659-16.997-0.651-20.03C252.669,165.636,243.894,156.393,243.894,156.393z"/>
				<g>
					<path fill="#FFFFFF" d="M163.26,210.795c0,0-2.112,9.379-3.268,13.594c-1.154,4.212-5.227,3.646-15.685,5.77
						c11.039-3.274,13.751-3.66,14.715-6.533C159.986,220.752,163.26,210.795,163.26,210.795z"/>
					<path fill="#FFFFFF" d="M163.426,217.344c0,0,2.275-9.214,3.086-12.93c1.137-3.558,8.333-4.057,15.855-6.005
						c0,0-7.03,2.274-11.606,4.058C166.183,204.253,166.194,210.232,163.426,217.344z"/>
					<path fill="#FFFFFF" d="M167.798,233.704c0,0,8.248,5.745,11.869,8.119c3.625,2.376,5.633,2.571,15.076,0.568
						c9.444-1.999,12.055-2.997,12.055-2.997s-13.262,2.803-20.093,3.013C179.871,242.617,167.798,233.704,167.798,233.704z"/>
					<path fill="#FFFFFF" d="M203.166,186.313c0,0,3.724-19.95,4.904-24.646c1.178-4.694,9.684-7.251,18.588-10.785
						c0,0-10.086,5.103-14.041,7.651C208.662,161.081,209.066,164.012,203.166,186.313z"/>
					<path fill="#FFFFFF" d="M211.426,202.381c0,0,5.986,4.775,7.927,6.527c1.94,1.75,1.948,6.217-3.999,20.265
						c2.566-9.416,6.102-17.397,2.545-20.581C214.338,205.409,211.426,202.381,211.426,202.381z"/>
					<path fill="#FFFFFF" d="M119.226,220.394c0,0,4.775,6.375,8.098,9.979c2.896,2.937,3.494,3.441,3.504,9.402
						c-0.436-3.861-0.956-5.742-2.828-7.668C126.124,230.177,119.226,220.394,119.226,220.394z"/>
				</g>
			</g>
		</g>
		<path fill="#CFD1D2" d="M190.109,105.855c-45.819,0.079-82.894,36.488-82.814,81.326c0.081,44.833,37.287,81.117,83.105,81.041
			c45.813-0.079,82.886-36.493,82.807-81.327C273.126,142.058,235.921,105.777,190.109,105.855z M189.446,251.396
			c-41.811,0.073-75.76-31.398-75.83-70.294s33.765-70.483,75.577-70.555c41.806-0.072,75.754,31.399,75.826,70.295
			C265.09,219.736,231.253,251.323,189.446,251.396z"/>
	</g>
	<g>
		<path fill="#4A4B4C" d="M177.378,147.523c2.314,2.674,1.39,7.16-2.06,10.02c-3.453,2.86-8.126,3.01-10.44,0.336
			c-2.313-2.674-1.389-7.16,2.061-10.019C170.392,144.999,175.065,144.849,177.378,147.523z"/>
		<path fill="#4A4B4C" d="M162.374,162.087c1.024,1.184,0.617,3.173-0.912,4.44c-1.529,1.266-3.6,1.333-4.625,0.148
			c-1.026-1.186-0.616-3.173,0.913-4.438C159.279,160.969,161.349,160.902,162.374,162.087z"/>
	</g>
</g>
</svg>
