<?xml version="1.0" encoding="utf-8"?>
<!-- Generator: Adobe Illustrator 16.0.0, SVG Export Plug-In . SVG Version: 6.00 Build 0)  -->
<!DOCTYPE svg PUBLIC "-//W3C//DTD SVG 1.1//EN" "http://www.w3.org/Graphics/SVG/1.1/DTD/svg11.dtd">
<svg version="1.1" id="Capa_1" xmlns="http://www.w3.org/2000/svg" xmlns:xlink="http://www.w3.org/1999/xlink" x="0px" y="0px"
	 width="800px" height="800px" viewBox="0 0 800 800" enable-background="new 0 0 800 800" xml:space="preserve">
<g>
	<g>
		<path fill="#90749E" d="M502.418,390.217c-24.178,16.483-97.747,44.853-201.032,42.354
			c-71.261-1.742-114.042-9.683-129.543-15.221c-3.008-1.025-5-2.033-5.955-2.827c-5.942-5.073,0.984-18.808,0.984-18.808
			l0.161-0.338c16.42,4.115,34.237,7.503,53.504,9.928c24.809,3.137,52.023,4.706,81.833,4.145
			c26.451-0.503,50.843-2.711,73.374-6.221c50.823-7.911,91.959-22.444,124.704-39c1.814,2.168,12.352,15.24,9.655,19.21
			C508.85,385.289,506.248,387.603,502.418,390.217z"/>
		<path fill="#F7F8F8" d="M554.793,632.701c0.717,10.245,3.665,39.097,14.644,40.859c13.354,2.169,28.197-33.598,28.197-33.598
			s2.972,28.176,16.325,30.363c13.354,2.169,29.644-15.201,29.644-15.201s73.988,49.825,74.214,82.395
			c-14.559,28.523-29.87,31.469-45.979,40.084c-20.943,11.214-124.776,16.307-133.153,5.521c-0.55-0.698-0.705-1.453-0.419-2.248
			c5.956-17.349,31.172-30.342,31.172-30.342s-23.474-33.327-18.009-94.634c0.406-4.435,0.955-9.023,1.684-13.769
			C553.624,638.858,554.185,635.702,554.793,632.701z"/>
		<path fill="#F7F8F8" d="M569.437,750.534c0,0-25.216,12.993-31.172,30.342c-0.286,0.795-0.131,1.55,0.419,2.248
			c-14.727,3.137-27.59-0.445-27.59-0.445c4.01-13.769,20.406-66.227,27.362-133.362l0.323,0.038c0,0,7.9-2.885,11.861,6.506
			l0.787,0.04C545.963,717.207,569.437,750.534,569.437,750.534z"/>
		<path fill="#EDEEF0" d="M195.256,478.987c-8.228,46.223-4.236,119.207,72.871,199.918c-4.581,36.791-18.472,89.618-25.089,103.056
			c-3.544,7.204-107.717,10.882-113.727-3.988c-5.949-14.621,18.545-30.345,18.545-30.345c-6.457-47.287-7.846-92.579-6.39-133.69
			l1.419,0.02c0,0,10.191-48.178,14.118-67.214c4.426-21.67,11.861-29.801,11.861-29.801s-2.72-16.982,5.191-22.753
			c7.912-5.791,11.104,0.522,11.104,0.522s2-15.879,8.42-15.879L195.256,478.987z"/>
		<path fill="#F7F8F8" d="M386.162,769.897l-2.184-0.931c-50.216-30.419-87.872-60.764-115.851-90.062
			c-77.107-80.711-81.098-153.695-72.871-199.918c0.536-3.137,1.169-6.138,1.801-9.004l1.457,0.174c0,0,15.823,4.318,29.684,17.351
			c0,0,11.861-34.701,21.767-34.701c9.874,0,15.823,34.701,15.823,34.701s19.773-28.911,31.642-24.593
			c11.867,4.356,9.904,24.593,9.904,24.593s18.789-9.857,32.633-2.885c15.824,7.92,18.783,29.608,18.783,29.608
			s56.397-2.905,72.221,14.444c9.773,10.709-0.99,15.183-0.99,15.183s70.097,30.886,68.259,48.411
			c-1.014,9.391-16.838,7.958-16.838,7.958s57.054,24.438,57.377,46.048c-0.132,1.027-0.228,2.033-0.323,3.041
			c-6.956,67.136-23.353,119.594-27.362,133.362c-5.956,20.255-131.58,18.781-132.557,5.81
			C378.095,782.602,381.89,775.688,386.162,769.897z"/>
		<path fill="#F7F8F8" d="M484.386,261.309c28.665,16.624,57.364,22.404,28.665,64.319c-27.876,40.752-77.306,63.738-137.307,77.602
			c-22.531,3.51-46.922,5.718-73.374,6.221c-29.81,0.562-57.024-1.008-81.833-4.145C96.626,377.107,63.588,312.217,101.596,285.882
			c38.569-26.742,27.686-79.5,91.005-91.777c63.282-12.277,99.895,73.7,99.895,73.7s34.619-80.197,83.058-83.083
			C424.039,181.828,455.674,244.684,484.386,261.309z"/>
		<path fill="#272423" d="M772.816,513.301c1.541,2.054,15.873,21.863,10.277,41.033c-5.789,19.693-21.422-2.052-22.257-3.215
			c0.739,1.473,15.131,31.39,7.422,45.507c-7.923,14.445-20.799-2.188-20.799-2.188s10.155,40.22-15.384,44.306
			c-14.641-42.64-55.799-69.247-55.799-69.247c-0.776-0.968-2.388-2.75-4.727-5.267c14.332-9.896,59.549-45.874,40.312-94.808
			c-24.393-62.023-105.826-51.297-109.8-59.972c-3.95-8.67,101.9-29.661,166.196,23.121c51.924,42.642,14.835,41.537,14.835,41.537
			s20.764,29.278,14.808,44.46C791.769,534.272,774.489,515.199,772.816,513.301z"/>
		<path fill="#2E2B2A" d="M732.076,638.743c5.419,15.743,7.221,33.675,2.029,53.252c-5.311,20.062-10.764,34.662-16.289,45.524
			c-0.226-32.569-74.214-82.395-74.214-82.395s-16.289,17.37-29.644,15.201c-13.354-2.188-16.325-30.363-16.325-30.363
			s-14.844,35.767-28.197,33.598c-10.979-1.763-13.927-30.614-14.644-40.859c-0.608,3.001-1.169,6.157-1.682,9.431
			c-0.729,4.745-1.277,9.334-1.684,13.769l-0.787-0.04c-3.961-9.391-11.861-6.506-11.861-6.506l-0.323-0.038
			c0.096-1.008,0.191-2.014,0.323-3.041c-0.323-21.61-57.377-46.048-57.377-46.048s15.824,1.433,16.838-7.958
			c1.838-17.525-68.259-48.411-68.259-48.411s10.764-4.474,0.99-15.183c-15.823-17.35-72.221-14.444-72.221-14.444
			s-2.959-21.688-18.783-29.608c-13.844-6.973-32.633,2.885-32.633,2.885s1.963-20.236-9.904-24.593
			c-11.869-4.318-31.642,24.593-31.642,24.593s-5.949-34.701-15.823-34.701c-9.906,0-21.767,34.701-21.767,34.701
			c-13.861-13.032-29.684-17.351-29.684-17.351l-1.457-0.174c-0.632,2.866-1.265,5.867-1.801,9.004l-1.677-0.154
			c-6.42,0-8.42,15.879-8.42,15.879s-3.192-6.313-11.104-0.522c-7.911,5.771-5.191,22.753-5.191,22.753s-7.435,8.131-11.861,29.801
			c-3.927,19.036-14.118,67.214-14.118,67.214l-1.419-0.02c4.075-114.695,30.341-196.529,30.341-196.529l0.036-0.058
			c15.501,5.538,58.283,13.479,129.543,15.221c103.285,2.498,176.854-25.871,201.032-42.354
			c6.766,6.894,140.897,143.378,169.133,174.013c2.339,2.517,3.95,4.299,4.727,5.267
			C676.277,569.496,717.436,596.104,732.076,638.743z"/>
		<path fill="#2E2B2A" d="M500.448,364.229c-32.745,16.556-73.881,31.089-124.704,39c60.001-13.864,109.431-36.85,137.307-77.602
			c28.699-41.915,0-47.695-28.665-64.319c-28.712-16.625-60.347-79.481-108.833-76.586c-48.439,2.886-83.058,83.083-83.058,83.083
			s-36.612-85.978-99.895-73.7c-63.319,12.277-52.436,65.035-91.005,91.777c-38.008,26.335-4.97,91.225,118.941,119.424
			c-19.267-2.425-37.084-5.813-53.504-9.928C42.86,364.414-1.753,293.463-1.753,293.463C25.425,269.257,77.86,191.21,77.86,191.21
			C54.603,134.85,86.28,16.689,95.677,10.202c9.361-6.497,25.692,14.446,48.444,36.85c22.75,22.395,57.877,60.339,57.877,60.339
			s79.106-26.732,158.757-1.442c0,0,24.201-30.441,40.526-54.549c23.735-35.05,31.17-55.654,38.569-51.674
			C489.184,26.148,494.255,171.7,494.255,171.7c25.717,32.532,114.74,101.886,114.74,101.886S578.648,324.678,500.448,364.229z"/>
	</g>
	<g>
		<path fill="#575255" d="M395.625,596.997c-0.103,1.667-0.265,3.335-0.318,5.002l-0.125,4.999
			c-0.067,3.335-0.058,6.681-0.09,10.021c0.007,6.685,0.037,13.368,0.114,20.053l0.267,20.054l0.358,20.052
			c0.518,26.736,1.173,53.47,1.899,80.201c0.003,0.118-0.049,0.229-0.129,0.305c-0.782,0.729-1.538,1.492-2.29,2.262
			c-0.759,0.762-1.515,1.526-2.223,2.337c-1.444,1.594-2.911,3.168-4.211,4.881c-2.758,3.295-5.245,6.827-7.179,10.642
			c-0.969,1.902-1.763,3.893-2.273,5.945c-0.241,1.027-0.43,2.07-0.466,3.116c-0.047,0.524-0.003,1.045,0.006,1.566
			c0.046,0.113,0.081,0.549,0.197,0.67c0.104,0.171,0.178,0.354,0.364,0.535c0.629,0.732,1.542,1.286,2.474,1.751
			c0.951,0.448,1.938,0.844,2.953,1.17c2.026,0.667,4.116,1.169,6.217,1.605c8.434,1.681,17.052,2.422,25.652,2.93
			c8.61,0.472,17.24,0.608,25.863,0.468c8.623-0.149,17.242-0.584,25.825-1.377c8.573-0.822,17.148-1.955,25.481-4.073
			c4.141-1.089,8.286-2.387,11.948-4.53c1.809-1.066,3.499-2.445,4.408-4.247c0.392-0.875,0.646-2.004,0.967-3.013l0.918-3.105
			l3.582-12.443l3.38-12.497c2.076-8.376,4.243-16.732,6.031-25.178l1.405-6.318l0.703-3.159l0.623-3.177l2.457-12.711
			c0.394-2.121,0.854-4.23,1.193-6.361l1.025-6.392l2.052-12.783c0.373-2.126,0.623-4.27,0.886-6.411l0.796-6.425l1.592-12.848
			c0.961-8.57,1.638-17.192,2.212-25.796c0.3-4.304,0.448-8.619,0.68-12.928c0.177-4.312,0.251-8.627,0.382-12.94l0.07-12.946
			l-0.256-12.943l-0.597-12.932l-0.956-12.911v-0.008c-0.011-0.145,0.098-0.271,0.243-0.282c0.145-0.011,0.271,0.098,0.282,0.243
			l0.978,12.924l0.618,12.947l0.277,12.957l-0.05,12.961c-0.124,4.318-0.191,8.639-0.362,12.956
			c-0.225,4.314-0.366,8.633-0.659,12.944c-0.562,8.629-1.224,17.232-2.173,25.826l-1.573,12.865l-0.786,6.433
			c-0.26,2.145-0.507,4.291-0.877,6.42l-2.033,12.8l-1.017,6.4c-0.336,2.134-0.793,4.246-1.184,6.371l-2.439,12.729l-0.618,3.181
			l-0.699,3.164l-1.397,6.328c-1.776,8.457-3.932,16.826-5.998,25.217l-3.363,12.517l-3.565,12.459l-0.913,3.107
			c-0.334,1.047-0.532,2.042-1.013,3.148c-1.052,2.084-2.882,3.529-4.757,4.647c-3.808,2.233-8,3.541-12.187,4.652
			c-8.413,2.152-17.02,3.301-25.625,4.141c-8.612,0.821-17.257,1.237-25.902,1.37c-8.646,0.127-17.296-0.024-25.932-0.513
			c-8.629-0.524-17.267-1.279-25.779-2.99c-2.124-0.444-4.239-0.956-6.314-1.643c-1.039-0.336-2.061-0.745-3.061-1.22
			c-0.986-0.5-1.975-1.074-2.758-1.982c-0.204-0.201-0.369-0.506-0.516-0.813c-0.091-0.159-0.118-0.291-0.143-0.42l-0.045-0.197
			l-0.022-0.099c0.002,0.021-0.031-0.14-0.027-0.162c-0.012-0.558-0.055-1.116-0.005-1.67c0.041-1.113,0.241-2.206,0.495-3.277
			c0.535-2.138,1.358-4.182,2.351-6.123c1.982-3.892,4.507-7.458,7.293-10.778c1.316-1.728,2.797-3.312,4.255-4.915
			c0.715-0.815,1.478-1.585,2.245-2.352c0.759-0.773,1.523-1.542,2.322-2.284l-0.129,0.305c-0.681-26.735-1.291-53.471-1.764-80.21
			l-0.324-20.056l-0.233-20.057c-0.066-6.687-0.084-13.373-0.08-20.06c0.039-3.346,0.034-6.686,0.107-10.035l0.135-5.025
			c0.057-1.674,0.221-3.336,0.327-5.005c0.009-0.146,0.134-0.256,0.28-0.246c0.145,0.009,0.255,0.134,0.246,0.279L395.625,596.997z"
			/>
	</g>
	<g>
		<path fill="#575255" d="M208.666,434.116c0,0-0.57,1.52-1.638,4.367c-0.546,1.421-1.169,3.188-1.905,5.265
			c-0.721,2.081-1.636,4.445-2.435,7.167c-0.421,1.354-0.865,2.779-1.331,4.274c-0.451,1.499-0.998,3.048-1.379,4.715
			c-0.827,3.311-1.783,6.894-2.69,10.716c-0.742,3.894-1.658,7.98-2.313,12.372c-0.657,4.374-1.258,8.992-1.652,13.834
			c-0.799,9.679-0.935,20.234-0.027,31.329c0.479,5.542,1.118,11.229,2.146,16.981c0.224,1.444,0.493,2.888,0.792,4.333
			c0.294,1.446,0.561,2.906,0.882,4.362c0.68,2.902,1.314,5.846,2.133,8.77c3.063,11.751,7.403,23.57,12.695,35.167
			c5.293,11.603,11.721,22.891,18.8,33.735c7.091,10.844,14.927,21.195,23.179,30.925c4.141,4.852,8.348,9.582,12.641,14.13
			c2.094,2.324,4.332,4.468,6.495,6.682c2.177,2.192,4.337,4.369,6.48,6.527c2.217,2.076,4.416,4.135,6.593,6.175
			c1.089,1.02,2.172,2.034,3.25,3.044c1.074,1.015,2.146,2.02,3.263,2.965c2.205,1.922,4.387,3.823,6.542,5.701
			c1.078,0.939,2.148,1.872,3.213,2.8c1.057,0.937,2.123,1.848,3.215,2.713c4.326,3.512,8.535,6.928,12.606,10.231
			c4.176,3.171,8.21,6.235,12.083,9.177c0.972,0.731,1.919,1.474,2.882,2.173c0.97,0.69,1.93,1.372,2.878,2.047
			c1.896,1.35,3.748,2.669,5.554,3.954c3.621,2.557,6.997,5.068,10.315,7.219c3.285,2.196,6.36,4.253,9.204,6.153
			c1.422,0.951,2.786,1.863,4.089,2.734c1.302,0.873,2.586,1.64,3.783,2.402c9.614,6.036,15.108,9.485,15.108,9.485l0.006,0.004
			c0.124,0.077,0.161,0.24,0.083,0.363c-0.078,0.123-0.239,0.161-0.363,0.084c0,0-5.513-3.428-15.16-9.427
			c-1.2-0.759-2.489-1.521-3.796-2.388c-1.308-0.867-2.677-1.773-4.104-2.719c-2.854-1.891-5.941-3.936-9.239-6.12
			c-3.331-2.138-6.721-4.638-10.358-7.182c-1.812-1.282-3.67-2.597-5.572-3.942c-0.951-0.674-1.912-1.355-2.884-2.045
			c-0.965-0.699-1.915-1.44-2.889-2.171c-3.883-2.94-7.928-6.002-12.114-9.172c-4.082-3.303-8.302-6.718-12.641-10.229
			c-1.095-0.864-2.164-1.775-3.224-2.712c-1.067-0.928-2.142-1.861-3.222-2.8c-2.162-1.878-4.35-3.779-6.562-5.701
			c-1.12-0.945-2.196-1.952-3.275-2.968c-1.083-1.011-2.171-2.027-3.265-3.048c-2.188-2.043-4.396-4.104-6.622-6.184
			c-2.146-2.155-4.31-4.329-6.49-6.519c-2.158-2.2-4.419-4.362-6.521-6.688c-4.31-4.553-8.534-9.288-12.694-14.146
			c-8.289-9.743-16.164-20.114-23.295-30.985c-7.116-10.876-13.53-22.231-18.833-33.885c-5.295-11.651-9.635-23.528-12.692-35.335
			c-0.818-2.938-1.451-5.895-2.128-8.812c-0.321-1.462-0.585-2.929-0.879-4.382c-0.299-1.452-0.567-2.902-0.789-4.354
			c-1.023-5.779-1.656-11.492-2.128-17.059c-0.894-11.145-0.741-21.745,0.077-31.462c0.405-4.86,1.012-9.497,1.685-13.894
			c0.674-4.384,1.617-8.51,2.373-12.382c0.936-3.866,1.906-7.432,2.752-10.757c0.391-1.67,0.945-3.221,1.405-4.722
			c0.474-1.498,0.926-2.926,1.354-4.281c0.813-2.725,1.74-5.089,2.473-7.172c0.747-2.077,1.379-3.846,1.932-5.262
			c1.081-2.844,1.657-4.359,1.657-4.359c0.051-0.137,0.203-0.206,0.339-0.155C208.647,433.828,208.717,433.98,208.666,434.116z"/>
	</g>
	<g>
		<path fill="none" d="M502.167,389.937"/>
	</g>
	<g>
		<path fill="#575255" d="M613.962,564.357c-4.499,0.205-8.957,1.364-13.188,2.944c-2.127,0.786-4.172,1.771-6.189,2.799
			c-1.984,1.094-3.946,2.235-5.794,3.549c-7.477,5.158-13.645,12.04-18.565,19.65c-2.43,3.836-4.548,7.858-6.451,11.981
			c-1.8,4.167-3.492,8.391-4.809,12.741c-0.333,1.086-0.711,2.158-1.006,3.255l-0.891,3.29c-0.636,2.183-1.069,4.417-1.591,6.628
			l-0.371,1.654l-0.299,1.683l-0.597,3.363l-0.598,3.363l-0.149,0.841l-0.104,0.828l-0.206,1.695l-0.825,6.782l-0.412,3.391
			l-0.103,0.849l-0.025,0.212l-0.01,0.085l-0.007,0.106l-0.026,0.426l-0.105,1.705c-0.263,4.546-0.658,9.094-0.591,13.634
			c0.006,2.271-0.094,4.542-0.001,6.813l0.301,6.813c0.045,2.274,0.365,4.529,0.555,6.793c0.22,2.262,0.4,4.528,0.781,6.771
			c0.351,2.244,0.627,4.502,1.038,6.735l1.331,6.685l1.637,6.614c0.587,2.194,1.286,4.356,1.924,6.536
			c0.709,2.156,1.471,4.296,2.235,6.434c0.863,2.099,1.622,4.242,2.589,6.296c1.821,4.146,3.879,8.233,6.345,11.989l0.003,0.005
			c0.131,0.199,0.075,0.466-0.124,0.597l-0.031,0.02c-3.979,2.145-7.82,4.608-11.475,7.291c-3.654,2.688-7.137,5.616-10.279,8.874
			c-3.127,3.258-5.948,6.857-7.917,10.905l-1.265,3.06c-0.066,0.277-0.145,0.583-0.091,0.738c-0.024,0.183,0.104,0.414,0.162,0.625
			l0.194,0.303l0.078,0.126l0.146,0.156l0.292,0.312l0.295,0.228c1.693,1.239,3.962,1.877,6.117,2.421
			c4.396,1.028,8.929,1.528,13.453,1.903c4.531,0.364,9.078,0.558,13.628,0.656c9.1,0.196,18.209,0.008,27.307-0.381
			c9.097-0.4,18.186-1.036,27.245-1.948c9.056-0.928,18.099-2.084,27.021-3.843c4.45-0.904,8.894-1.924,13.152-3.436
			c1.063-0.377,2.105-0.805,3.116-1.284c0.991-0.486,2.028-1.037,3.032-1.551c2.031-1.037,4.101-2.027,6.152-3.011
			c4.108-1.968,8.203-3.95,12.056-6.339c3.857-2.374,7.447-5.172,10.648-8.372c0.834-0.766,1.581-1.617,2.338-2.459
			c0.76-0.839,1.532-1.668,2.212-2.576c0.698-0.892,1.417-1.768,2.098-2.673l1.942-2.792c0.671-0.915,1.24-1.897,1.837-2.862
			c0.586-0.972,1.201-1.926,1.764-2.911l1.624-2.994l0.813-1.497c0.258-0.475,0.485-1.021,0.73-1.528l2.889-6.196
			c0.235-0.519,0.492-1.028,0.711-1.553l0.623-1.586l1.246-3.172c0.812-2.122,1.708-4.21,2.449-6.36l2.163-6.475l1.082-3.237
			l0.538-1.62l0.47-1.642l1.878-6.566c0.604-2.188,1.304-4.378,1.828-6.565c0.49-2.225,1.018-4.444,1.478-6.673
			c1.627-8.907,1.866-18.111,0.699-27.112c-0.384-2.237-0.708-4.486-1.139-6.714c-0.551-2.202-0.991-4.435-1.632-6.612l-1.003-3.256
			l-0.502-1.628c-0.164-0.517-0.401-1.058-0.598-1.586l-2.477-6.372c-3.683-8.292-8.333-16.168-13.679-23.521
			c-5.348-7.356-11.392-14.204-17.924-20.537c-6.546-6.311-13.519-12.23-21.026-17.347c-0.021-0.015-0.04-0.03-0.056-0.048
			l-0.009-0.01l-4.71-5.255l-0.006-0.007c-0.098-0.108-0.088-0.275,0.021-0.372c0.108-0.098,0.274-0.089,0.372,0.02l4.742,5.278
			l-0.063-0.058c7.569,5.143,14.554,11.06,21.136,17.385c6.563,6.345,12.638,13.208,18.019,20.589
			c5.381,7.382,10.06,15.271,13.79,23.646l2.485,6.368c0.202,0.539,0.426,1.043,0.609,1.611l0.508,1.638l1.015,3.276
			c0.648,2.192,1.096,4.44,1.652,6.658c0.438,2.243,0.769,4.509,1.157,6.763c1.186,9.08,0.965,18.323-0.673,27.357
			c-0.458,2.234-0.981,4.451-1.469,6.678c-0.535,2.244-1.225,4.402-1.829,6.607l-1.873,6.582l-0.468,1.646l-0.537,1.626l-1.08,3.248
			l-2.162,6.496c-0.74,2.159-1.641,4.266-2.453,6.401l-1.251,3.193l-0.626,1.596c-0.219,0.527-0.474,1.036-0.709,1.556l-2.88,6.2
			c-0.25,0.52-0.459,1.028-0.742,1.557l-0.815,1.509l-1.632,3.018c-0.565,0.994-1.185,1.957-1.774,2.938
			c-0.6,0.975-1.174,1.966-1.85,2.892l-1.958,2.823c-0.687,0.917-1.414,1.805-2.119,2.708c-0.687,0.919-1.467,1.76-2.235,2.611
			c-0.766,0.854-1.522,1.717-2.367,2.496c-3.241,3.249-6.886,6.097-10.787,8.506c-3.898,2.423-8.022,4.426-12.128,6.399
			c-2.057,0.989-4.099,1.97-6.124,3.008c-1.024,0.525-1.999,1.047-3.053,1.566c-1.048,0.498-2.116,0.938-3.199,1.324
			c-4.336,1.545-8.803,2.573-13.278,3.49c-8.966,1.78-18.028,2.95-27.104,3.893c-9.079,0.927-18.183,1.577-27.298,1.991
			c-9.116,0.405-18.245,0.56-27.373,0.355c-4.563-0.105-9.127-0.306-13.683-0.679c-4.552-0.385-9.109-0.891-13.594-1.946
			c-2.228-0.585-4.483-1.156-6.492-2.623l-0.375-0.304l-0.292-0.313l-0.146-0.156c-0.095-0.111-0.104-0.149-0.159-0.229l-0.262-0.42
			c-0.106-0.327-0.269-0.619-0.254-1.018c-0.038-0.419,0.053-0.665,0.112-0.944c0.449-1.174,0.892-2.167,1.339-3.259
			c2.035-4.165,4.918-7.824,8.096-11.125c3.191-3.3,6.715-6.253,10.405-8.959c3.697-2.703,7.55-5.168,11.599-7.345l-0.152,0.621
			c-2.53-3.866-4.572-7.953-6.408-12.144c-0.971-2.071-1.732-4.228-2.597-6.343c-0.767-2.15-1.53-4.305-2.24-6.475
			c-0.638-2.192-1.337-4.368-1.924-6.574l-1.636-6.651l-1.328-6.719c-0.41-2.245-0.684-4.513-1.032-6.769
			c-0.38-2.252-0.559-4.528-0.775-6.801c-0.188-2.273-0.505-4.538-0.547-6.822l-0.292-6.839c-0.09-2.28,0.014-4.566,0.012-6.849
			c-0.06-4.576,0.342-9.112,0.611-13.659l0.107-1.705l0.027-0.426l0.007-0.106l0.014-0.127l0.026-0.212l0.104-0.848l0.417-3.391
			l0.834-6.78l0.209-1.695c0.038-0.291,0.062-0.548,0.111-0.866l0.151-0.841l0.602-3.362l0.603-3.362l0.301-1.682l0.379-1.678
			c0.526-2.221,0.965-4.462,1.606-6.654l0.899-3.304c0.299-1.102,0.68-2.179,1.016-3.27c1.33-4.369,3.037-8.614,4.854-12.803
			c1.921-4.146,4.059-8.192,6.512-12.052c4.968-7.658,11.197-14.593,18.753-19.789c1.868-1.323,3.852-2.474,5.856-3.574
			c2.039-1.036,4.106-2.027,6.256-2.818c4.288-1.59,8.763-2.756,13.377-2.96c0.146-0.006,0.269,0.106,0.274,0.252
			c0.007,0.145-0.106,0.268-0.251,0.274L613.962,564.357z"/>
	</g>
	<g>
		<path fill="#575255" d="M511.16,782.424c1.136,0.244,2.254,0.445,3.401,0.595c1.134,0.197,2.279,0.32,3.425,0.436
			c0.573,0.051,1.143,0.14,1.717,0.177l1.723,0.108l1.723,0.108c0.573,0.045,1.149,0.007,1.725,0.02l1.725,0.017
			c0.575-0.001,1.151,0.024,1.725,0.003l3.443-0.219c0.573-0.043,1.152-0.039,1.723-0.118l1.707-0.247l3.431-0.447l-0.028,0.007
			l0.394-0.078c0.143-0.028,0.28,0.063,0.309,0.206c0.027,0.136-0.057,0.269-0.188,0.305l-0.042,0.011l-0.3,0.079l-0.028,0.008
			l-3.432,0.67l-1.724,0.312c-0.574,0.101-1.159,0.119-1.739,0.183l-3.49,0.286c-0.583,0.028-1.167,0.011-1.75,0.019l-1.751,0.004
			c-0.584-0.012-1.169,0.013-1.75-0.038l-1.746-0.132l-1.745-0.131c-0.582-0.041-1.157-0.145-1.735-0.224
			c-1.156-0.16-2.31-0.327-3.451-0.573c-1.14-0.227-2.288-0.514-3.4-0.834c-0.14-0.04-0.221-0.186-0.181-0.326
			C510.886,782.474,511.025,782.395,511.16,782.424z"/>
	</g>
	<path fill="#EFD6D2" d="M98.141,49.589c-10.388,0.359-18.306,111.277-5.447,132.597c0,0,54.9-46.61,83.583-54.559
		C176.277,127.627,106.31,49.298,98.141,49.589z"/>
	<path fill="#EFD6D2" d="M446.593,26.584c10.346-0.726,32.495,101.004,23.938,123.447c0,0-56.063-33.181-86.004-38.051
		C384.527,111.98,438.442,27.155,446.593,26.584z"/>
	<g>
		<path fill="#95D4EF" d="M220.286,277.933c0-7.581-8.413-13.729-18.788-13.729c-10.382,0-18.796,6.148-18.796,13.729
			s8.414,13.729,18.796,13.729C211.873,291.662,220.286,285.514,220.286,277.933z"/>
		<path fill="#2E2B2A" d="M216.331,277.933c0-5.993-6.647-10.844-14.833-10.844c-8.199,0-14.839,4.851-14.839,10.844
			c0,5.983,6.64,10.834,14.839,10.834C209.683,288.767,216.331,283.916,216.331,277.933z"/>
	</g>
	<g>
		<path fill="#95D4EF" d="M409.087,277.933c0-7.581-8.402-13.729-18.785-13.729s-18.794,6.148-18.794,13.729
			s8.412,13.729,18.794,13.729S409.087,285.514,409.087,277.933z"/>
		<path fill="#2E2B2A" d="M405.136,277.933c0-5.993-6.646-10.844-14.833-10.844c-8.186,0-14.844,4.851-14.844,10.844
			c0,5.983,6.658,10.834,14.844,10.834C398.489,288.767,405.136,283.916,405.136,277.933z"/>
	</g>
	<path fill="#1E120D" d="M277.966,208.512c-0.083-0.058-0.214,0.039-0.13,0.097c0.888,0.648,1.622,1.336,2.214,2.159
		c0.053,0.068,0.214,0,0.16-0.077C279.602,209.857,278.879,209.18,277.966,208.512z"/>
	<path fill="#F7F8F8" d="M289.029,130.155c-6.724,0.909-24.726,20.234-22.256,54.2c2.477,33.965,24.238,55.199,26.213,55.275
		c1.981,0.087,13.688-22.366,15.329-55.275C309.8,154.728,295.754,129.244,289.029,130.155z"/>
	<g>
		<path fill="#2B2927" d="M297.469,311.898c0,0,0.157,1.603,0.27,4.007c0.041,1.202,0.128,2.605,0.15,4.108
			c0.04,1.502,0.045,3.105,0.05,4.708c-0.007,1.603-0.021,3.206-0.059,4.708c-0.035,1.503-0.108,2.906-0.15,4.108
			c-0.046,1.202-0.133,2.204-0.171,2.905c-0.057,0.701-0.09,1.102-0.09,1.102c-0.024,0.291-0.279,0.508-0.57,0.484
			c-0.262-0.021-0.464-0.23-0.484-0.484c0,0-0.033-0.401-0.09-1.102c-0.038-0.701-0.125-1.703-0.171-2.905
			c-0.042-1.202-0.115-2.605-0.15-4.108c-0.039-1.502-0.052-3.105-0.059-4.708c0.004-1.603,0.01-3.206,0.05-4.708
			c0.022-1.503,0.11-2.906,0.15-4.108c0.113-2.404,0.271-4.007,0.27-4.007c0.029-0.291,0.288-0.504,0.579-0.476
			C297.249,311.448,297.445,311.652,297.469,311.898z"/>
	</g>
	<g>
		<path fill="#2B2927" d="M200.778,308.279c0,0,0.142,0.14,0.418,0.41c0.285,0.248,0.65,0.628,1.229,1.101
			c0.567,0.473,1.246,1.075,2.114,1.714c0.426,0.327,0.884,0.678,1.373,1.053c0.505,0.355,1.042,0.732,1.61,1.131
			c0.573,0.391,1.158,0.827,1.805,1.24c0.651,0.406,1.333,0.831,2.043,1.274c1.397,0.921,3.009,1.76,4.7,2.701
			c3.408,1.84,7.381,3.678,11.795,5.487c1.086,0.493,2.25,0.866,3.417,1.291c1.169,0.417,2.361,0.842,3.573,1.275
			c1.2,0.466,2.476,0.78,3.747,1.168c1.276,0.374,2.571,0.753,3.884,1.138c5.295,1.391,10.931,2.662,16.834,3.628
			c2.929,0.603,5.966,0.864,9.019,1.254c1.529,0.181,3.066,0.364,4.612,0.547c1.555,0.099,3.118,0.199,4.686,0.299
			c1.569,0.1,3.144,0.201,4.723,0.302c0.79,0.042,1.579,0.122,2.373,0.131l2.385,0.021c3.184,0.036,6.379,0.071,9.575,0.106
			c3.204-0.109,6.408-0.218,9.599-0.327c1.603-0.063,3.21-0.098,4.797-0.184c1.572-0.138,3.139-0.276,4.7-0.414
			c1.562-0.137,3.117-0.273,4.664-0.409c1.548-0.128,3.088-0.254,4.61-0.509c3.049-0.439,6.061-0.874,9.022-1.301
			c2.93-0.588,5.812-1.166,8.631-1.732c1.421-0.243,2.785-0.641,4.142-0.997c1.356-0.359,2.697-0.715,4.019-1.065
			c0.662-0.175,1.319-0.349,1.971-0.521c0.639-0.213,1.272-0.424,1.902-0.634c1.257-0.424,2.496-0.842,3.713-1.253
			c0.609-0.205,1.213-0.409,1.812-0.61c0.599-0.202,1.163-0.472,1.738-0.701c1.143-0.476,2.264-0.943,3.362-1.4
			c4.37-1.883,8.208-3.952,11.492-5.967c1.635-1.016,3.07-2.103,4.451-3.036c1.271-1.061,2.503-1.977,3.509-2.909
			c2.016-1.861,3.514-3.422,4.384-4.576c0.473-0.56,0.763-1.012,0.978-1.311c0.21-0.3,0.271-0.425,0.28-0.43l0.526-0.311
			c0.459-0.271,1.052-0.12,1.323,0.34c0.181,0.306,0.173,0.671,0.013,0.961c0,0-0.029,0.051-0.085,0.152
			c-0.056,0.1-0.142,0.26-0.252,0.426c-0.224,0.347-0.542,0.883-1.019,1.501c-0.234,0.315-0.497,0.667-0.785,1.054
			c-0.31,0.365-0.648,0.763-1.014,1.194c-0.704,0.894-1.652,1.767-2.666,2.804c-1.031,1.017-2.278,2.013-3.582,3.168
			c-1.4,1.019-2.869,2.202-4.534,3.312c-3.342,2.201-7.247,4.495-11.729,6.505c-1.124,0.494-2.271,0.998-3.44,1.512
			c-0.588,0.248-1.168,0.537-1.779,0.757c-0.61,0.22-1.227,0.441-1.848,0.665c-1.244,0.447-2.508,0.901-3.792,1.363
			c-0.643,0.228-1.291,0.458-1.944,0.689c-0.665,0.19-1.333,0.382-2.007,0.575c-1.348,0.386-2.714,0.777-4.098,1.173
			c-1.384,0.392-2.778,0.827-4.222,1.104c-2.871,0.63-5.807,1.28-8.801,1.879c-3.017,0.455-6.083,0.918-9.188,1.387
			c-1.547,0.268-3.125,0.408-4.709,0.551c-1.584,0.149-3.177,0.299-4.775,0.449c-1.599,0.15-3.204,0.3-4.814,0.451
			c-1.601,0.097-3.198,0.142-4.803,0.216c-3.225,0.13-6.463,0.261-9.701,0.392c-6.5-0.084-13.004-0.071-19.389-0.667
			c-1.597-0.113-3.188-0.226-4.77-0.338c-1.576-0.197-3.144-0.394-4.702-0.589c-3.113-0.419-6.204-0.709-9.197-1.344
			c-1.501-0.279-2.991-0.556-4.466-0.83c-0.737-0.137-1.471-0.273-2.201-0.409c-0.727-0.151-1.442-0.345-2.156-0.522
			c-1.426-0.361-2.837-0.718-4.231-1.071c-1.391-0.361-2.777-0.668-4.106-1.125c-1.337-0.422-2.656-0.838-3.955-1.248
			c-1.294-0.424-2.589-0.774-3.813-1.276c-1.233-0.469-2.446-0.93-3.637-1.382c-1.187-0.461-2.368-0.868-3.476-1.396
			c-1.118-0.5-2.213-0.989-3.283-1.468c-1.071-0.474-2.12-0.934-3.1-1.474c-0.989-0.519-1.953-1.024-2.89-1.516
			c-0.467-0.247-0.928-0.491-1.381-0.731c-0.442-0.263-0.877-0.522-1.305-0.778c-1.708-1.027-3.33-1.944-4.743-2.943
			c-0.716-0.481-1.403-0.942-2.06-1.383c-0.651-0.449-1.244-0.921-1.821-1.345c-0.572-0.432-1.114-0.841-1.623-1.225
			c-0.491-0.411-0.952-0.796-1.38-1.155c-0.866-0.701-1.555-1.368-2.125-1.89c-0.57-0.511-0.993-0.983-1.283-1.263
			c-0.269-0.289-0.408-0.438-0.408-0.438c-0.397-0.426-0.373-1.093,0.053-1.49c0.414-0.385,1.054-0.375,1.454,0.017L200.778,308.279
			z"/>
	</g>
	<g>
		<path fill="#2B2927" d="M137.178,784.043c0-0.001-0.004-0.327,0.046-0.885c0.054-0.557,0.125-1.353,0.3-2.294
			c0.177-0.94,0.41-2.036,0.778-3.18c0.337-1.153,0.821-2.347,1.35-3.521c0.302-0.571,0.571-1.158,0.897-1.707
			c0.339-0.542,0.636-1.093,1.01-1.579c0.361-0.492,0.69-0.979,1.077-1.39c0.378-0.416,0.707-0.829,1.078-1.153
			c0.36-0.334,0.702-0.625,1-0.885c0.309-0.249,0.607-0.435,0.836-0.602c0.47-0.322,0.743-0.493,0.743-0.493
			c0.246-0.154,0.571-0.08,0.726,0.166c0.129,0.206,0.099,0.468-0.06,0.638l-0.044,0.048c0,0-0.209,0.225-0.582,0.596
			c-0.184,0.188-0.424,0.396-0.666,0.669c-0.233,0.283-0.492,0.604-0.788,0.938c-0.301,0.328-0.551,0.756-0.867,1.155
			c-0.323,0.396-0.573,0.886-0.887,1.347c-0.322,0.457-0.561,0.995-0.861,1.5c-0.293,0.512-0.534,1.066-0.807,1.602
			c-0.502,1.096-0.967,2.211-1.361,3.28c-0.406,1.064-0.726,2.082-1.013,2.954c-0.264,0.877-0.507,1.608-0.637,2.127
			c-0.143,0.515-0.224,0.809-0.224,0.809c-0.078,0.284-0.372,0.45-0.655,0.371C137.334,784.488,137.181,784.273,137.178,784.043z"/>
	</g>
	<g>
		<path fill="#2B2927" d="M159.427,786.354c0-0.001-0.077-0.297-0.169-0.822c-0.085-0.523-0.221-1.271-0.308-2.175
			c-0.096-0.903-0.163-1.963-0.167-3.102c-0.007-1.139,0.039-2.356,0.176-3.574c0.058-0.608,0.16-1.216,0.258-1.813
			c0.083-0.599,0.258-1.18,0.383-1.743c0.126-0.565,0.345-1.097,0.501-1.605c0.173-0.507,0.414-0.968,0.6-1.397
			c0.188-0.43,0.458-0.791,0.649-1.121c0.187-0.334,0.41-0.596,0.591-0.811c0.359-0.43,0.571-0.661,0.571-0.661
			c0.196-0.213,0.528-0.227,0.741-0.031c0.176,0.162,0.216,0.416,0.115,0.619l-0.041,0.082c0,0-0.128,0.257-0.365,0.683
			c-0.122,0.21-0.273,0.459-0.387,0.789c-0.118,0.325-0.288,0.663-0.415,1.069c-0.117,0.41-0.272,0.836-0.394,1.309
			c-0.105,0.48-0.244,0.972-0.339,1.501c-0.089,0.53-0.212,1.067-0.274,1.634c-0.082,0.562-0.167,1.13-0.211,1.709
			c-0.243,2.302-0.339,4.643-0.388,6.405c-0.048,1.766-0.08,2.942-0.08,2.942c-0.008,0.294-0.253,0.525-0.546,0.518
			c-0.242-0.007-0.442-0.174-0.5-0.396L159.427,786.354z"/>
	</g>
	<g>
		<path fill="#2B2927" d="M392.357,794.889c0,0,0.023-1.528,0.453-3.732c0.204-1.107,0.53-2.383,0.956-3.728
			c0.219-0.671,0.46-1.36,0.731-2.05c0.302-0.679,0.553-1.392,0.906-2.063c0.664-1.355,1.397-2.687,2.227-3.844
			c0.388-0.596,0.805-1.142,1.23-1.639c0.412-0.506,0.799-0.983,1.214-1.377c0.404-0.399,0.775-0.765,1.104-1.089
			c0.357-0.293,0.669-0.548,0.926-0.758c0.516-0.415,0.815-0.641,0.815-0.641c0.233-0.175,0.563-0.128,0.738,0.105
			c0.151,0.2,0.137,0.475-0.02,0.658l-0.033,0.039c0,0-0.237,0.276-0.66,0.741c-0.213,0.23-0.471,0.51-0.767,0.83
			c-0.27,0.343-0.573,0.729-0.904,1.151c-0.351,0.402-0.663,0.896-1.02,1.394c-0.175,0.25-0.354,0.508-0.539,0.771
			c-0.168,0.274-0.34,0.555-0.515,0.84c-0.368,0.557-0.7,1.163-1.03,1.783c-0.357,0.604-0.657,1.254-0.969,1.896
			c-0.327,0.635-0.587,1.305-0.881,1.944c-0.259,0.656-0.529,1.297-0.766,1.927c-0.462,1.265-0.874,2.457-1.187,3.493
			c-0.313,1.036-0.577,1.903-0.723,2.518c-0.154,0.61-0.243,0.959-0.243,0.959l-0.002,0.008c-0.072,0.283-0.36,0.456-0.644,0.384
			C392.514,795.35,392.353,795.129,392.357,794.889z"/>
	</g>
	<g>
		<path fill="#2B2927" d="M414.608,794.947c0,0.001-0.145-1.269,0.044-3.115c0.084-0.929,0.272-2.001,0.552-3.133
			c0.156-0.562,0.29-1.151,0.507-1.726c0.192-0.583,0.403-1.169,0.657-1.739c0.231-0.58,0.521-1.134,0.794-1.684
			c0.261-0.556,0.606-1.058,0.899-1.563c0.283-0.512,0.65-0.948,0.956-1.388c0.301-0.442,0.636-0.823,0.946-1.173
			c0.595-0.719,1.178-1.236,1.574-1.605c0.398-0.367,0.633-0.566,0.633-0.566c0.222-0.189,0.556-0.162,0.745,0.061
			c0.157,0.185,0.165,0.447,0.034,0.64l-0.025,0.036c0,0-0.169,0.247-0.476,0.662c-0.155,0.205-0.343,0.454-0.559,0.74
			c-0.214,0.286-0.414,0.641-0.666,0.997c-0.25,0.359-0.511,0.754-0.759,1.189c-0.252,0.433-0.541,0.871-0.786,1.359
			c-0.249,0.483-0.536,0.967-0.763,1.492c-0.245,0.516-0.505,1.033-0.71,1.577c-0.23,0.532-0.449,1.07-0.634,1.611
			c-0.205,0.534-0.369,1.073-0.545,1.59c-0.317,1.044-0.594,2.029-0.791,2.885c-0.201,0.854-0.359,1.572-0.441,2.078
			c-0.044,0.249-0.078,0.444-0.101,0.578c-0.021,0.136-0.032,0.209-0.032,0.209l-0.001,0.007c-0.045,0.29-0.316,0.489-0.606,0.444
			C414.813,795.375,414.635,795.18,414.608,794.947z"/>
	</g>
	<g>
		<path fill="#2B2927" d="M560.011,787.322c0,0,0.002-0.088,0.006-0.254c0.008-0.17,0.011-0.423,0.045-0.729
			c0.059-0.62,0.155-1.504,0.363-2.552c0.12-0.52,0.225-1.09,0.406-1.677c0.163-0.591,0.345-1.213,0.591-1.839
			c0.214-0.637,0.497-1.274,0.795-1.917c0.29-0.646,0.664-1.271,1.006-1.906c0.415-0.598,0.787-1.223,1.238-1.783
			c0.475-0.543,0.884-1.121,1.409-1.574c0.502-0.472,0.968-0.945,1.503-1.291c0.523-0.355,0.976-0.748,1.487-0.97
			c0.489-0.256,0.944-0.471,1.343-0.663c0.419-0.152,0.793-0.258,1.095-0.356c0.607-0.188,0.953-0.279,0.953-0.279
			c0.279-0.075,0.567,0.092,0.642,0.371c0.064,0.238-0.047,0.482-0.255,0.596l-0.072,0.039c0,0-0.298,0.163-0.817,0.422
			c-0.258,0.131-0.578,0.273-0.93,0.463c-0.333,0.229-0.703,0.488-1.114,0.751c-0.43,0.235-0.79,0.647-1.23,0.985
			c-0.451,0.331-0.82,0.806-1.252,1.234c-0.448,0.414-0.783,0.969-1.196,1.459c-0.396,0.506-0.725,1.084-1.094,1.627
			c-0.305,0.587-0.669,1.141-0.942,1.736c-0.275,0.594-0.577,1.164-0.804,1.75c-0.252,0.574-0.466,1.144-0.669,1.685
			c-0.21,0.539-0.361,1.065-0.537,1.542c-0.294,0.968-0.56,1.777-0.693,2.354c-0.146,0.572-0.229,0.899-0.229,0.899l-0.005,0.021
			c-0.072,0.283-0.36,0.454-0.644,0.383C560.165,787.786,560.005,787.563,560.011,787.322z"/>
	</g>
	<g>
		<path fill="#2B2927" d="M585.222,788.464c0,0-0.044-0.36-0.06-0.991c-0.014-0.628-0.028-1.524,0.044-2.599
			c0.036-0.536,0.09-1.117,0.166-1.73c0.094-0.61,0.159-1.261,0.313-1.921c0.245-1.33,0.64-2.729,1.146-4.099
			c0.232-0.689,0.58-1.344,0.862-2.006c0.333-0.643,0.704-1.257,1.059-1.85c0.414-0.563,0.798-1.114,1.217-1.597
			c0.447-0.464,0.862-0.906,1.276-1.279c0.445-0.346,0.864-0.645,1.231-0.91c0.359-0.273,0.748-0.407,1.027-0.568
			c0.583-0.289,0.916-0.438,0.917-0.438c0.263-0.119,0.573-0.001,0.691,0.263c0.101,0.225,0.03,0.482-0.156,0.627l-0.074,0.058
			c0.001,0-0.27,0.21-0.741,0.549c-0.228,0.183-0.546,0.337-0.828,0.631c-0.289,0.284-0.609,0.605-0.971,0.936
			c-0.329,0.368-0.646,0.807-1.013,1.232c-0.341,0.451-0.63,0.985-0.983,1.49c-0.296,0.55-0.595,1.121-0.884,1.71
			c-0.247,0.613-0.558,1.207-0.762,1.853c-0.224,0.637-0.471,1.265-0.642,1.913c-0.197,0.638-0.371,1.274-0.523,1.896
			c-0.169,0.617-0.275,1.229-0.417,1.802c-0.112,0.58-0.219,1.128-0.317,1.634c-0.168,1.018-0.331,1.869-0.397,2.469
			c-0.081,0.597-0.127,0.938-0.127,0.938c-0.039,0.291-0.307,0.495-0.598,0.456C585.434,788.896,585.25,788.698,585.222,788.464z"/>
	</g>
	<path fill="#FBCC26" d="M326.173,455.402c-1.851-9.896-14.314-16.808-27.848-15.473c-13.533,1.355-23.001,10.457-21.158,20.353
		c1.838,9.875,14.302,16.808,27.835,15.452C318.535,474.398,328.01,465.277,326.173,455.402z M300.611,448.102
		c-1.844,0.097-3.426-0.93-3.539-2.285c-0.113-1.335,1.289-2.498,3.127-2.575c1.844-0.077,3.425,0.948,3.538,2.285
		C303.85,446.862,302.448,448.023,300.611,448.102z"/>
	<g>
		<path fill="#070705" d="M259.357,285.155c-8.192,3.874-4.451,22.047,8.902,27.101c13.354,5.063,44.905,5.886,56.374-2.072
			c14.846-10.302,10.346-25.077,4.452-27.101C320.682,280.188,276.171,277.208,259.357,285.155z"/>
		<path fill="#FFFFFF" d="M303.296,284.991c-4.803-1.104-9.786-0.581-14.684-0.087c-2.733,0.281-5.395,0.833-8.133,1.066
			c-0.757,0.068-1.605,0.077-2.28,0.368c-0.352,0.154-0.537,0.242-0.639,0.299c0.036-0.048,0.036-0.106-0.148-0.155
			c-1.527-0.348-2.59,1.414-1.098,1.917c1.241,0.426,0.388-0.339,0.996,0.426c0.317,0.397,0.866,0.727,1.486,0.833
			c2.143,0.396,4.344,0.388,6.54,0.396c5.734,0.02,11.271-0.416,17.017,0.039C306.494,290.432,306.965,285.824,303.296,284.991z"/>
		<path fill="#FFFFFF" d="M268.593,287.141c-4.719,0-4.719,5.345,0,5.345C273.313,292.485,273.313,287.141,268.593,287.141z"/>
	</g>
	<g>
		<path fill="#575255" d="M172.059,417.487c-2.032,6.631-3.863,13.331-5.571,20.059c-1.72,6.726-3.315,13.481-4.831,20.257
			c-0.796,3.379-1.455,6.787-2.189,10.18l-1.068,5.096l-0.99,5.112c-0.644,3.41-1.354,6.809-1.944,10.229l-1.8,10.257
			c-0.631,3.413-1.106,6.853-1.662,10.279c-0.523,3.432-1.106,6.854-1.58,10.292l-1.412,10.317l-0.706,5.158l-0.604,5.172
			c-0.792,6.896-1.655,13.785-2.242,20.703l-0.977,10.366c-0.321,3.456-0.514,6.923-0.777,10.384l-0.741,10.386
			c-0.217,3.464-0.341,6.933-0.517,10.399l-0.49,10.4c-0.149,3.46-0.193,6.939-0.295,10.408c-0.236,6.944-0.194,13.881-0.259,20.82
			c-0.023,3.47,0.073,6.94,0.104,10.41c0.067,3.47,0.043,6.941,0.195,10.409c0.25,6.937,0.403,13.877,0.851,20.804l0.583,10.395
			l0.801,10.38c0.451,6.927,1.25,13.822,1.905,20.732c0.303,3.457,0.794,6.894,1.201,10.34l1.273,10.332
			c0.023,0.184-0.066,0.359-0.21,0.456c-4.48,3.019-8.696,6.546-12.304,10.577c-1.779,2.033-3.438,4.192-4.696,6.567
			c-1.276,2.354-2.167,4.942-2.268,7.59c-0.072,1.324,0.144,2.639,0.485,3.908l0.32,0.937c0.059,0.243,0.283,0.597,0.422,0.876
			c0.341,0.468,0.76,0.96,1.279,1.361c2.053,1.635,4.667,2.563,7.233,3.362c5.205,1.521,10.616,2.347,16.023,2.992
			c10.836,1.236,21.768,1.624,32.683,1.662c10.917,0.003,21.844-0.361,32.719-1.301c5.431-0.492,10.87-1.079,16.195-2.181
			c1.327-0.284,2.646-0.612,3.915-1.047c0.631-0.22,1.256-0.469,1.803-0.798c0.273-0.159,0.53-0.352,0.69-0.559
			c0.162-0.155,0.276-0.553,0.424-0.842c0.56-1.246,1.129-2.49,1.591-3.765c0.491-1.266,0.987-2.528,1.42-3.825
			c1.831-5.137,3.407-10.369,4.937-15.609c1.51-5.247,2.953-10.516,4.293-15.811c1.364-5.289,2.641-10.601,3.864-15.924
			s2.373-10.664,3.459-16.017c1.083-5.354,2.079-10.725,3.003-16.107l1.292-8.089l1.107-8.109l0.002-0.019
			c0.02-0.145,0.152-0.245,0.297-0.226c0.144,0.02,0.245,0.152,0.225,0.297l-1.098,8.136l-1.281,8.102
			c-0.917,5.391-1.906,10.769-2.982,16.13c-1.079,5.359-2.221,10.706-3.438,16.037c-1.216,5.33-2.486,10.648-3.843,15.944
			c-1.334,5.303-2.77,10.579-4.274,15.837c-1.524,5.252-3.094,10.493-4.925,15.655c-0.431,1.297-0.931,2.578-1.427,3.861
			c-0.469,1.297-1.035,2.539-1.593,3.786c-0.167,0.313-0.209,0.609-0.503,0.977c-0.257,0.329-0.569,0.546-0.88,0.732
			c-0.625,0.376-1.277,0.633-1.934,0.863c-1.316,0.453-2.654,0.786-3.998,1.076c-5.381,1.122-10.83,1.717-16.278,2.22
			c-10.903,0.959-21.845,1.34-32.784,1.354c-10.938-0.022-21.889-0.392-32.778-1.617c-5.437-0.642-10.876-1.46-16.173-2.998
			c-2.621-0.819-5.286-1.732-7.54-3.512c-0.562-0.438-1.055-0.979-1.5-1.628c-0.163-0.329-0.329-0.552-0.464-0.966l-0.344-1.002
			c-0.371-1.359-0.601-2.774-0.527-4.188c0.104-2.829,1.046-5.545,2.361-7.982c1.3-2.461,2.995-4.67,4.806-6.746
			c3.679-4.118,7.907-7.669,12.479-10.761l-0.21,0.456l-1.292-10.344c-0.413-3.45-0.909-6.891-1.218-10.353
			c-0.667-6.917-1.478-13.821-1.94-20.756l-0.79-10.395l-0.566-10.408c-0.437-6.937-0.579-13.886-0.818-20.83
			c-0.146-3.472-0.116-6.947-0.178-10.421c-0.025-3.475-0.116-6.948-0.087-10.423c0.076-6.949,0.046-13.904,0.293-20.843
			c0.107-3.473,0.156-6.939,0.312-10.417l0.507-10.41c0.182-3.47,0.312-6.942,0.535-10.408l0.758-10.395
			c0.269-3.464,0.468-6.933,0.795-10.392l0.995-10.374c0.599-6.923,1.474-13.816,2.278-20.718l0.612-5.175l0.715-5.161l1.43-10.323
			c0.479-3.44,1.068-6.864,1.597-10.298c0.562-3.428,1.043-6.869,1.68-10.284l1.818-10.262c0.597-3.422,1.313-6.822,1.963-10.234
			l0.999-5.114l1.078-5.098c0.74-3.395,1.405-6.805,2.208-10.185c1.527-6.778,3.135-13.538,4.868-20.267
			c1.721-6.731,3.563-13.432,5.611-20.077c0.043-0.139,0.19-0.217,0.33-0.174C172.024,417.197,172.102,417.349,172.059,417.487z"/>
	</g>
	<g>
		<path fill="#FCEFF6" d="M300.128,409.569c-0.468,1.97-0.854,3.974-1.214,5.963c-0.35,1.994-0.595,3.999-0.759,5.99
			c-0.068,0.995-0.114,1.992-0.081,2.975c0.024,0.983,0.125,1.953,0.274,2.893c0.089,0.465,0.192,0.923,0.331,1.361
			c0.144,0.435,0.313,0.853,0.524,1.234c0.21,0.382,0.465,0.718,0.75,1.014c0.144,0.146,0.313,0.258,0.464,0.395l0.523,0.308
			l0.096,0.057c0.292,0.172,0.452,0.48,0.45,0.796c-0.021,1.93-0.105,3.86-0.155,5.79c-0.022,0.965-0.075,1.93-0.12,2.895
			c-0.044,0.965-0.09,1.93-0.157,2.895c-0.021,0.291-0.273,0.511-0.564,0.49c-0.267-0.019-0.474-0.232-0.491-0.492
			c-0.063-0.965-0.104-1.931-0.145-2.896c-0.042-0.965-0.09-1.93-0.108-2.896c-0.042-1.93-0.119-3.86-0.131-5.79l0.545,0.852
			c-0.271-0.147-0.548-0.29-0.81-0.454c-0.241-0.191-0.499-0.371-0.719-0.584c-0.438-0.431-0.809-0.912-1.103-1.422
			c-0.295-0.511-0.521-1.041-0.707-1.575c-0.181-0.536-0.313-1.075-0.425-1.615c-0.095-0.538-0.181-1.079-0.212-1.616
			c-0.048-0.538-0.061-1.072-0.067-1.605c-0.015-1.066,0.055-2.118,0.147-3.164c0.179-2.094,0.583-4.142,1.059-6.16
			c0.234-1.011,0.5-2.013,0.808-3.002c0.303-0.991,0.614-1.974,0.991-2.948c0.105-0.272,0.411-0.408,0.683-0.303
			C300.055,409.049,300.189,409.316,300.128,409.569z"/>
	</g>
	<path fill="#474345" d="M429.695,470.603c-2.303-3.757-6.122-7.106-9.273-10.496c-3.03-3.252-10.238-0.25-7.255,3.1
		c3.259,3.658,6.229,7.707,10.322,10.902C426.783,476.664,431.438,473.41,429.695,470.603z"/>
	<path fill="#474345" d="M465.818,500.326c-2.352-5.15-8.14-9.043-13.318-12.741c-3.246-2.324-8.138,1.259-4.964,3.622
		c4.606,3.446,8.412,7.087,12.315,10.96C461.903,504.181,467.083,503.076,465.818,500.326z"/>
	<path fill="#474345" d="M465.197,477.012c-2.482-4.434-6.302-8.307-9.249-12.586c-2.911-4.26-11.658-0.522-8.698,3.717
		c2.971,4.261,6.157,8.502,10.835,11.891C460.901,482.066,466.868,480.015,465.197,477.012z"/>
	<path fill="#474345" d="M480.759,450.754c-2.828-3.853-7.59-6.835-11.003-10.417c-3.294-3.505-11.147-0.232-7.853,3.35
		c3.557,3.835,7.732,7.513,11.862,11.019C477.179,457.608,483.049,453.91,480.759,450.754z"/>
	<path fill="#474345" d="M500.986,485.591c-1.397-1.975-3.247-3.66-5.383-5.229c-3.699-2.712-9.428,1.492-5.739,4.203
		c1.837,1.336,2.899,2.284,4.115,4.007c1.016,1.434,3.725,1.859,5.55,1.066C501.511,488.785,502,487.024,500.986,485.591z"/>
	<path fill="#474345" d="M501.689,442.408c-2.852-2.652-4.416-5.848-7.565-8.365c-3.652-2.904-9.762,1.53-5.942,4.356
		c3.209,2.363,4.762,5.616,8.258,7.824C500.126,448.565,504.602,445.1,501.689,442.408z"/>
	<path fill="#474345" d="M555.558,496.629c-1.79-4.339-5.489-7.9-8.867-11.638c-4.021-4.454-13.926-0.253-9.821,4.183
		c3.413,3.718,6.492,7.726,11.267,10.611C551.333,501.722,556.966,499.979,555.558,496.629z"/>
	<path fill="#474345" d="M522.788,462.547c-6.563,0-6.563,7.455,0,7.455C529.363,470.002,529.363,462.547,522.788,462.547z"/>
	<path fill="#474345" d="M516.797,526.043c-3.413-4.493-7.995-8.734-13.316-12.122c-3.94-2.518-8.903,1.22-5.669,4.125
		c4.618,4.144,6.933,9.197,13.448,12.063C514.816,531.658,518.754,528.599,516.797,526.043z"/>
	<path fill="#474345" d="M578.875,554.508c-2.195-4.57-4.523-9.41-8.187-13.477c-2.936-3.234-9.977-0.31-7.184,3.06
		c3.342,4.027,4.583,8.693,8.043,12.664C573.911,559.447,580.428,557.761,578.875,554.508z"/>
	<path fill="#474345" d="M592.717,529.161c-1.598-3.815-5.226-6.837-7.039-10.593c-1.934-3.969-10.621-2.246-8.688,1.762
		c2.016,4.145,5.034,8.521,9.701,11.386C589.282,533.305,593.876,531.872,592.717,529.161z"/>
	<path fill="#474345" d="M604.115,585.142c-11.755,3.583-19.536,11.814-20.8,21.012c-0.502,3.583,7.47,4.278,8.544,0.832
		c2.268-7.261,6.313-12.917,14.999-17.098C610.058,588.358,608.017,583.961,604.115,585.142z"/>
	<path fill="#474345" d="M615.762,605.785c-3.448,3.815-6.551,9.179-4.595,13.75c1.087,2.516,5.621,2.361,6.778,0
		c1.767-3.623,2.101-7.34,4.905-10.729C625.619,605.476,618.661,602.59,615.762,605.785z"/>
	<path fill="#474345" d="M645.213,625.343c-2.756-3.157-2.469-6.777-1.432-10.321c1.109-3.718-6.528-5.285-7.816-1.568
		c-1.766,5.094-2.029,10.438,1.73,15.104C640.56,632.082,648.232,628.809,645.213,625.343z"/>
	<path fill="#474345" d="M632.719,580.089c-2.076-0.891-5.202-0.427-6.349,1.22c-1.026,1.491-2.04,3.021-2.553,4.648
		c-0.74,2.382,0.096,4.51,1.432,6.68c0.764,1.201,3.007,1.704,4.642,1.375c2.328-0.465,3.21-2.071,2.877-3.698
		c-0.43-1.975,0.465-3.834,1.622-5.577C635.512,583.07,635.035,581.076,632.719,580.089z"/>
	<path fill="#474345" d="M658.925,587.893c-1.419-0.601-3.724-0.31-4.462,0.872c-1.827,2.846-2.864,6.758-1.194,9.778
		c0.954,1.742,3.902,1.742,4.869,0c1.289-2.362,0.524-5.055,1.957-7.378C660.835,589.984,660.571,588.607,658.925,587.893z"/>
	<path fill="#474345" d="M687.16,649.955c-4.393-5.771-6.97-11.754-5.752-18.378c0.608-3.329-6.517-3.271-7.125,0
		c-1.372,7.457,1.684,14.545,6.91,20.914C683.484,655.299,689.343,652.802,687.16,649.955z"/>
	<path fill="#474345" d="M706.157,632.605c-3.759-6.372-8.269-12.704-15.383-17.408c-2.528-1.686-5.858,0.832-3.709,2.709
		c5.644,4.899,9.641,10.709,12.768,16.654C701.622,637.969,708.139,635.975,706.157,632.605z"/>
	<path fill="#474345" d="M178.531,442.331c-1.253,3.098-1.712,6.216-1.969,9.43c-0.244,3.099-0.603,6.081,1.325,8.927
		c1.182,1.744,5.137,1.744,6.318,0c1.743-2.555,1.528-5.111,1.617-7.919c0.083-2.905,0.257-5.906,0.906-8.792
		C187.606,440.104,180.113,438.419,178.531,442.331z"/>
	<path fill="#474345" d="M226.14,444.305c0.005-3.716-7.905-3.716-7.913,0c0,2.5-0.029,4.997-0.244,7.477
		c-0.209,2.401-0.77,4.588-0.287,6.989c0.412,2.073,4.213,1.897,5.513,0.524C227.022,455.227,226.14,449.03,226.14,444.305z"/>
	<path fill="#474345" d="M391.782,481.737c-1.3-2.285-2.648-4.55-4.5-6.642c-3.019-3.369-10.357-0.31-7.434,3.176
		c1.826,2.149,3.044,4.492,4.272,6.855c1.29,2.439,2.292,5.149,5.538,6.545c2.589,1.123,5.083-0.369,5.429-2.285
		C395.553,486.829,393.095,484.061,391.782,481.737z"/>
	<path fill="#474345" d="M475.984,547.576c-1.646-3.505-3.795-6.661-7.386-9.334c-3.545-2.634-9.022,1.396-5.525,4.027
		c2.602,1.977,4.105,4.261,5.274,6.837C469.971,552.63,477.644,551.119,475.984,547.576z"/>
	<path fill="#474345" d="M101.137,221.834c-3.909,6.342-9.57,11.881-10.024,19.035c-0.114,1.83,3.294,2.866,4.982,1.511
		c6.432-5.18,10.102-11.464,13.443-17.951C111.37,220.876,103.272,218.378,101.137,221.834z"/>
	<path fill="#474345" d="M76.548,236.019c-1.79,2.624-3.049,5.422-4.833,8.056c-2.213,3.252,4.529,6.108,6.659,2.845
		c1.73-2.662,2.929-5.479,4.659-8.133C85.098,235.622,78.708,232.833,76.548,236.019z"/>
	<path fill="#474345" d="M73.928,275.3c-1.813-0.774-4.563-0.378-5.548,1.064c-1.731,2.527-3.754,4.987-4.63,7.746
		c-0.74,2.323,3.473,4.59,5.865,2.507c1.218-1.064,2.208-2.062,3.055-3.301c0.907-1.317,1.809-2.634,2.715-3.959
		C76.369,277.914,75.921,276.161,73.928,275.3z"/>
	<path fill="#474345" d="M47.556,280.179c-0.149,2.875-3.604,4.55-5.519,6.826c-1.784,2.121,1.766,4.725,4.671,3.408
		c4.798-2.159,8.198-6.09,8.36-10.234C55.21,276.626,47.734,276.646,47.556,280.179z"/>
	<g>
		<path fill="#474345" d="M544.316,298.933C543.981,298.739,543.91,298.759,544.316,298.933L544.316,298.933z"/>
		<path fill="#474345" d="M560.676,302.932c-1.109-2.885-4.021-5.345-6.992-7.349c-2.256-1.521-5.144-2.594-8.27-2.188
			c-1.826,0.243-3.079,1.694-3.079,2.963c0,1.481,1.313,2.44,3.079,2.963c-0.572-0.165-0.883-0.291-1.098-0.389
			c0.047,0.04,0.096,0.059,0.179,0.108c0.119,0.086,0.823,0.764,0.251,0.193c0.561,0.571,1.693,1.51,2.04,1.859
			c1.837,1.791,3.163,3.835,5.203,5.529C555.51,309.554,562.014,306.447,560.676,302.932z"/>
	</g>
	<path fill="#474345" d="M563.386,276.897c-2.327-1.182-5.753-0.319-7.101,1.365c-1.54,1.907-0.44,3.989,1.862,5.19
		c3.76,1.964,4.056,5.509,5.978,8.327c2.221,3.252,9.595,1.724,9.345-1.859C573.123,284.758,569.138,279.811,563.386,276.897z"/>
	<path fill="#474345" d="M531.142,253.272c-6.074-5.432-11.659-11.298-15.036-17.912c-2.018-3.95-10.645-2.333-8.76,1.772
		c3.461,7.582,9.188,14.32,15.801,20.642C527.608,262.054,535.819,257.445,531.142,253.272z"/>
	<path fill="#474345" d="M558.744,252.75c-3.951-2.885-8.318-5.451-12.269-8.365c-3.997-2.963-10.274,1.627-6.217,4.542
		c4.117,2.972,8.424,6.554,13.818,8.249C557.872,258.375,562.073,255.179,558.744,252.75z"/>
	<path fill="#474345" d="M466.832,211.456c-0.394-1.937-2.613-3.583-4.117-5.142c-1.861-1.927-3.711-3.843-5.562-5.76
		c-2.027-2.102-6.706-0.194-4.785,2.042c1.706,1.975,3.425,3.96,5.132,5.945c1.539,1.792,2.852,4.008,5.406,5.122
		C465.126,214.622,467.154,213.052,466.832,211.456z"/>
	<path fill="#474345" d="M476.939,184.22c-2.529-2.16-5.501-4.184-7.352-6.701c-1.527-2.091-5.847-0.242-4.343,1.869
		c2.028,2.847,5.179,5.113,8.472,7.174C475.961,187.957,478.849,185.846,476.939,184.22z"/>
	<path fill="#474345" d="M421.617,147.466c-5.323-2.827-11.84-4.493-16.935-7.562c-2.972-1.792-6.91,0.988-4.261,3.117
		c4.893,3.941,11.73,7.252,18.652,8.869C422.893,152.782,424.48,148.986,421.617,147.466z"/>
	<path fill="#474345" d="M501.117,216.208c-3.389-4.627-9.751-7.532-15.217-10.795c-3.781-2.246-8.389,1.123-5.31,3.883
		c4.464,3.988,8.425,8.646,14.774,11.104C499.112,221.864,503.109,218.95,501.117,216.208z"/>
	<path fill="#474345" d="M139.7,192.392c-5.138,2.594-8.104,6.419-9.976,10.718c-1.599,3.66,5.895,4.995,7.721,1.549
		c1.659-3.127,4.637-5.917,7.125-8.714C146.466,193.813,142.648,190.9,139.7,192.392z"/>
	<path fill="#474345" d="M115.35,187.095c-2.918,2.188-4.994,4.725-6.862,7.436c-1.962,2.865,3.921,5.393,5.896,2.517
		c1.598-2.333,3.281-4.541,5.793-6.429C123.243,188.315,118.422,184.791,115.35,187.095z"/>
	<path fill="#C3C5CA" d="M110.11,318.898c-2.368,1.656-5.107,3.331-5.901,5.751c-0.698,2.121,3.008,3.959,5.208,2.217
		c1.856-1.472,3.544-3.04,5.448-4.492C117.861,320.079,113.244,316.7,110.11,318.898z"/>
	<path fill="#C3C5CA" d="M117.766,334.699c-2.505,2.557-5.865,7.059-1.962,9.711c1.168,0.794,2.738,0.736,3.919,0
		c1.492-0.938,1.833-1.926,2.292-3.262c0.465-1.355,1.11-2.546,2.071-3.757C126.496,334.361,120.463,331.939,117.766,334.699z"/>
	<path fill="#C3C5CA" d="M140.995,347.741c1.521-1.694-2.142-3.805-3.884-2.188c-3.27,3.04-6.194,7.175-4.041,11.058
		c1.075,1.926,5.491,1.888,5.341-0.534c-0.078-1.326-0.304-2.759-0.023-4.076C138.716,350.432,139.83,349.038,140.995,347.741z"/>
	<path fill="#C3C5CA" d="M504.303,286.386c-1.468-1.878-3.735-2.683-6.218-3.748c-2.219-0.958-4.486-1.975-6.455-3.194
		c-3.567-2.228-8.39,1.209-5.168,3.776c2.018,1.626,4.333,2.982,6.827,4.192c2.577,1.269,5.202,2.546,8.413,2.285
		C503.91,289.523,505.532,287.954,504.303,286.386z"/>
	<path fill="#C3C5CA" d="M506.534,303.136c-0.321-0.669-0.501-1.23-1.169-1.792c-0.537-0.465-0.907-0.843-1.432-1.269
		c-0.908-0.746-1.79-1.423-2.53-2.247c-0.836-0.91-2.243-1.414-3.747-1.104c-1.623,0.32-2.96,1.733-2.315,2.973
		c1.479,2.875,4.153,6.835,9.213,5.964C505.985,305.42,507.013,304.161,506.534,303.136z"/>
	<path fill="#C3C5CA" d="M484.601,293.947c-0.775-0.862-1.504-1.52-2.649-2.121c-0.357-0.183-0.704-0.368-1.05-0.552
		c0.561,0.3-0.562-0.368-0.669-0.436c-3.842-2.46-8.961,1.287-5.584,4.096c1.91,1.597,3.938,2.817,7.017,2.76
		C484.112,297.646,486.08,295.574,484.601,293.947z"/>
	<path fill="#C3C5CA" d="M154.313,638.607c-1.897,3.234-4.833,6.41-2.28,9.896c1.099,1.511,4.165,1.414,5.293,0
		c2.094-2.614,1.348-5.461,2.225-8.287C160.243,638.007,155.649,636.322,154.313,638.607z"/>
	<path fill="#C3C5CA" d="M163.197,656.731c-0.65-2.342-5.836-2.342-6.485,0c-0.765,2.771-1.057,5.539-1.057,8.367
		c0,4.047,8.603,4.047,8.603,0C164.258,662.271,163.961,659.502,163.197,656.731z"/>
	<path fill="#C3C5CA" d="M167.337,646.838c-5.036,0-5.036,5.692,0,5.692C172.374,652.53,172.374,646.838,167.337,646.838z"/>
	<path fill="#C3C5CA" d="M160.023,688.819c-1.235-1.627-4.679-0.871-4.702,0.93c-0.018,1.511,0,3.001,0.114,4.512
		c0.137,1.975-0.102,3.543,1.318,5.345c1.36,1.703,5.078,1.801,6.401,0C165.84,695.945,162.481,692.053,160.023,688.819z"/>
	<path fill="#C3C5CA" d="M424.957,747.086c-0.215-2.518-0.918-5.498-2.624-7.707c-1.313-1.703-5.705-1.606-6.146,0.582
		c-0.467,2.324-0.251,4.764-0.347,7.125c-0.06,1.279-0.012,2.537,0.478,3.795c0.479,1.143,1.575,1.589,2.792,2.228
		c0.706,0.389,2.042,0.389,2.745,0C424.897,751.482,425.208,749.76,424.957,747.086z"/>
	<path fill="#C3C5CA" d="M440.327,747.145c-0.345-1.936-0.655-3.854-1.265-5.75c-1.146-3.642-8.771-2.111-7.625,1.527
		c1.097,3.448,0.298,7.862,4.57,10.167c1.146,0.619,3.031,0.175,3.651-0.696C440.949,750.611,440.662,749.062,440.327,747.145z"/>
	<path fill="#C3C5CA" d="M430.423,723.249c-0.311-1.996-0.728-3.911-1.767-5.771c-0.703-1.259-1.957-2.208-3.949-2.208
		c-2.136,0-4.262,1.356-4.117,3.003c0.166,1.645,0.311,3.31,0.286,4.976c0,2.111,0.441,3.698,1.672,5.634
		c1.145,1.764,5.273,1.764,6.419,0C430.185,726.967,430.758,725.36,430.423,723.249z"/>
	<path fill="#C3C5CA" d="M512.071,653.982c-0.978-0.483-2.207,0.039-2.554,0.757c-0.536,1.161-0.74,2.226-0.895,3.446
		c-0.202,1.588-0.382,3.388,0.131,4.938c1.015,3.117,8.401,3.466,9.07,0C518.516,659.54,516.117,655.996,512.071,653.982z"/>
	<path fill="#C3C5CA" d="M511.236,675.283c-0.549-1.529-0.298-3.06-1.24-4.55c-1.051-1.686-4.989-1.686-6.05,0
		c-0.944,1.49-0.717,3.021-1.243,4.55c-0.596,1.782,0.071,3.447,0.55,5.209c0.753,2.693,6.695,2.693,7.435,0
		C511.164,678.75,511.856,677.046,511.236,675.283z"/>
	<path fill="#C3C5CA" d="M513.313,685.393c-1.992,0-3.031,1.297-2.733,2.594c0.119,0.483,0.228,0.988,0.347,1.472
		c0.383,1.742,4.368,1.742,4.762,0c0.107-0.483,0.227-0.988,0.322-1.472C516.32,686.689,515.282,685.393,513.313,685.393z"/>
	<path fill="#C3C5CA" d="M573.075,723.868c-1.718-0.774-4.296,0.232-4.152,1.763c0.167,1.936,0.967,3.774,1.634,5.636
		c0.836,2.303,2.066,4.182,5.358,4.956c0.836,0.193,1.862,0,2.46-0.465C582.909,732.195,577.79,725.999,573.075,723.868z"/>
	<path fill="#C3C5CA" d="M590.284,739.98c-0.502-2.518-4.058-4.377-5.586-6.604c-0.262-0.407-1.192-0.427-1.455,0
		c-1.839,3.021-2.054,7.299,2.243,9.294C588.159,743.93,590.665,741.877,590.284,739.98z"/>
	<path fill="#C3C5CA" d="M590.403,716.859c-0.86-1.336-1.897-2.886-3.318-3.951c-1.933-1.472-4.689-0.213-4.965,1.511
		c-0.214,1.297,0.216,2.982,0.598,4.26c0.514,1.763,1.719,2.924,3.509,4.104c1.432,0.932,4.213,0.679,4.63-0.89
		C591.334,720.072,591.489,718.583,590.403,716.859z"/>
	<path fill="#C3C5CA" d="M240.437,528.772c-0.652-1.374-3.444-2.322-4.941-0.948c-2.983,2.73-4.523,6.7-3.413,10.127
		c0.645,1.977,4.719,2.943,6.611,1.26C241.928,536.325,242.088,532.239,240.437,528.772z"/>
	<path fill="#C3C5CA" d="M243.604,549.241c-1.461-1.685-5.315-1.084-5.25,1.026c0.102,3.466-1.593,7.049,2.024,9.837
		c0.954,0.735,2.738,0.735,3.699,0C247.877,557.162,246.349,552.378,243.604,549.241z"/>
	<path fill="#C3C5CA" d="M262.907,546.917c-0.663-0.794-1.361-1.549-1.981-2.362c-0.322-0.426-1.217-0.426-1.54,0
		c-1.634,2.15-3.073,4.997,0.501,6.604c1.324,0.582,3.591,0.078,3.849-1.143C263.993,548.815,263.772,547.963,262.907,546.917z"/>
	<path fill="#C3C5CA" d="M243.169,588.182c-1.259-2.458-1.474-5.111-2.732-7.569c-1.123-2.208-5.639-1.377-4.863,0.968
		c0.859,2.574,0.639,5.267,1.492,7.842C238.038,592.346,244.583,590.952,243.169,588.182z"/>
</g>
</svg>
