<?xml version="1.0" encoding="utf-8"?>
<!-- Generator: Adobe Illustrator 16.0.0, SVG Export Plug-In . SVG Version: 6.00 Build 0)  -->
<!DOCTYPE svg PUBLIC "-//W3C//DTD SVG 1.1//EN" "http://www.w3.org/Graphics/SVG/1.1/DTD/svg11.dtd">
<svg version="1.1" id="Capa_1" xmlns="http://www.w3.org/2000/svg" xmlns:xlink="http://www.w3.org/1999/xlink" x="0px" y="0px"
	 width="400px" height="400px" viewBox="0 0 400 400" enable-background="new 0 0 400 400" xml:space="preserve">
<g>
	<g>
		<path fill="#CFE9EC" d="M120.536,145.269c-2.564,0.456-4.251,2.858-3.817,5.437c0.431,2.565,2.843,4.297,5.395,3.875
			c2.643-0.438,4.376-2.897,3.895-5.523C125.544,146.528,123.072,144.817,120.536,145.269z"/>
		<path fill="#CFE9EC" d="M117.596,203.266c-0.418-2.399-2.649-3.965-5.073-3.56c-2.397,0.4-4.024,2.649-3.638,5.028
			c0.396,2.441,2.751,4.096,5.18,3.639C116.448,207.926,118.013,205.662,117.596,203.266z"/>
		<path fill="#CFE9EC" d="M80.789,188.931c0.273,1.459,1.389,2.552,2.832,2.771c1.387,0.211,2.767-0.451,3.456-1.659
			c0.71-1.243,0.531-2.825-0.444-3.941c-0.035-0.039-0.07-0.078-0.105-0.116c-1.1-1.156-2.787-1.546-3.996-0.925
			C81.211,185.738,80.492,187.336,80.789,188.931z"/>
		<path fill="#CFE9EC" d="M103.115,153.647c-1.586,0.282-2.625,1.772-2.343,3.357c0.284,1.595,1.756,2.618,3.356,2.336
			c1.585-0.28,2.63-1.769,2.35-3.351C106.201,154.42,104.691,153.368,103.115,153.647z"/>
		<path fill="#CFE9EC" d="M101.322,172.746c0.256,1.466,1.637,2.445,3.121,2.214c1.513-0.236,2.553-1.671,2.329-3.213
			c-0.227-1.563-1.646-2.569-3.196-2.268C102.061,169.775,101.058,171.229,101.322,172.746z"/>
		<path fill="#CFE9EC" d="M124.648,184.902c-1.411,0.237-2.5,1.695-2.312,3.093c0.181,1.338,1.483,2.243,2.89,2.011
			c1.492-0.247,2.514-1.617,2.283-3.062C127.287,185.557,126.041,184.667,124.648,184.902z"/>
		<path fill="#CFE9EC" d="M133.018,161.649c-0.189-0.978-1.096-1.611-2.076-1.452c-1.025,0.167-1.72,1.166-1.52,2.185
			c0.188,0.954,1.139,1.618,2.091,1.463C132.529,163.678,133.217,162.677,133.018,161.649z"/>
		<path fill="#CFE9EC" d="M106.514,227.293c-0.189-0.978-1.096-1.611-2.076-1.451c-1.024,0.166-1.719,1.166-1.519,2.185
			c0.188,0.954,1.138,1.618,2.091,1.462C106.026,229.322,106.713,228.32,106.514,227.293z"/>
		<path fill="#CFE9EC" d="M153.598,138.986c-0.189-0.979-1.096-1.611-2.076-1.452c-1.024,0.167-1.719,1.166-1.519,2.185
			c0.188,0.954,1.138,1.618,2.091,1.463C153.11,141.015,153.797,140.014,153.598,138.986z"/>
		<path fill="#CFE9EC" d="M79.533,154.421c-0.803,0.139-1.361,0.907-1.236,1.701c0.126,0.802,0.9,1.302,1.742,1.125
			c0.768-0.162,1.258-0.833,1.164-1.591C81.104,154.84,80.348,154.281,79.533,154.421z"/>
		<path fill="#CFE9EC" d="M117.031,170.263c-0.737,0.079-1.295,0.77-1.234,1.528c0.067,0.849,0.764,1.44,1.58,1.343
			c0.743-0.088,1.31-0.775,1.257-1.523C118.577,170.808,117.827,170.177,117.031,170.263z"/>
		<path fill="#CFE9EC" d="M116.615,242.844c-0.737,0.08-1.295,0.77-1.234,1.528c0.066,0.849,0.764,1.44,1.58,1.344
			c0.742-0.089,1.31-0.776,1.256-1.524C118.16,243.389,117.41,242.758,116.615,242.844z"/>
		<path fill="#CFE9EC" d="M118.787,121.215c0.078,0.631,0.668,1.112,1.314,1.072c0.7-0.045,1.244-0.698,1.158-1.39
			c-0.081-0.639-0.66-1.106-1.316-1.063C119.223,119.881,118.699,120.506,118.787,121.215z"/>
		<path fill="#CFE9EC" d="M87.067,218.842c0.078,0.631,0.669,1.112,1.315,1.071c0.699-0.044,1.244-0.697,1.156-1.389
			c-0.08-0.639-0.658-1.106-1.315-1.063C87.504,217.508,86.98,218.133,87.067,218.842z"/>
		<path fill="#CFE9EC" d="M135.99,141.358c0.078,0.631,0.668,1.112,1.314,1.071c0.7-0.043,1.245-0.697,1.158-1.389
			c-0.08-0.639-0.659-1.106-1.316-1.063C136.427,140.025,135.903,140.65,135.99,141.358z"/>
		<path fill="#CFE9EC" d="M137.302,144.347c-0.14-0.43-0.507-0.601-0.802-0.463c-0.273,0.128-0.357,0.363-0.283,0.648
			c0.084,0.326,0.461,0.517,0.732,0.322C137.127,144.727,137.217,144.475,137.302,144.347z"/>
		<path fill="#CFE9EC" d="M104.819,208.959c-0.14-0.43-0.507-0.601-0.802-0.463c-0.273,0.129-0.357,0.363-0.283,0.648
			c0.084,0.326,0.461,0.517,0.732,0.322C104.645,209.339,104.734,209.087,104.819,208.959z"/>
		<path fill="#CFE9EC" d="M120.578,229.474c-0.14-0.43-0.506-0.602-0.801-0.464c-0.274,0.129-0.357,0.364-0.284,0.649
			c0.085,0.325,0.461,0.516,0.732,0.321C120.404,229.854,120.494,229.602,120.578,229.474z"/>
		<path fill="#CFE9EC" d="M143.927,117.945c-0.14-0.43-0.507-0.602-0.802-0.464c-0.273,0.129-0.357,0.364-0.283,0.648
			c0.084,0.326,0.461,0.517,0.732,0.322C143.752,118.324,143.842,118.072,143.927,117.945z"/>
		<path fill="#CFE9EC" d="M164.066,128.355c-0.141-0.43-0.507-0.602-0.802-0.464c-0.274,0.129-0.357,0.364-0.284,0.648
			c0.084,0.326,0.461,0.517,0.732,0.322C163.893,128.734,163.982,128.482,164.066,128.355z"/>
		<path fill="#CFE9EC" d="M95.931,204.008c-0.14-0.43-0.507-0.602-0.802-0.463c-0.273,0.128-0.357,0.363-0.283,0.648
			c0.084,0.326,0.461,0.516,0.732,0.322C95.756,204.388,95.847,204.136,95.931,204.008z"/>
	</g>
	<g>
		<path fill="#CFE9EC" d="M279.465,145.269c2.563,0.456,4.251,2.858,3.817,5.437c-0.432,2.565-2.843,4.297-5.395,3.875
			c-2.643-0.438-4.377-2.897-3.896-5.523C274.456,146.528,276.928,144.817,279.465,145.269z"/>
		<path fill="#CFE9EC" d="M282.404,203.266c0.419-2.399,2.65-3.965,5.073-3.56c2.398,0.4,4.024,2.649,3.639,5.028
			c-0.396,2.441-2.751,4.096-5.181,3.639C283.553,207.926,281.987,205.662,282.404,203.266z"/>
		<path fill="#CFE9EC" d="M319.211,188.931c-0.272,1.459-1.389,2.552-2.832,2.771c-1.387,0.211-2.767-0.451-3.456-1.659
			c-0.71-1.243-0.53-2.825,0.445-3.941c0.034-0.039,0.069-0.078,0.105-0.116c1.1-1.156,2.786-1.546,3.995-0.925
			C318.789,185.738,319.509,187.336,319.211,188.931z"/>
		<path fill="#CFE9EC" d="M296.885,153.647c1.586,0.282,2.626,1.772,2.343,3.357c-0.284,1.595-1.755,2.618-3.355,2.336
			c-1.586-0.28-2.63-1.769-2.351-3.351C293.799,154.42,295.309,153.368,296.885,153.647z"/>
		<path fill="#CFE9EC" d="M298.678,172.746c-0.256,1.466-1.637,2.445-3.12,2.214c-1.513-0.236-2.554-1.671-2.33-3.213
			c0.227-1.563,1.647-2.569,3.196-2.268C297.94,169.775,298.942,171.229,298.678,172.746z"/>
		<path fill="#CFE9EC" d="M275.352,184.902c1.412,0.237,2.501,1.695,2.313,3.093c-0.182,1.338-1.483,2.243-2.891,2.011
			c-1.492-0.247-2.514-1.617-2.282-3.062C272.714,185.557,273.959,184.667,275.352,184.902z"/>
		<path fill="#CFE9EC" d="M266.983,161.649c0.189-0.978,1.095-1.611,2.075-1.452c1.025,0.167,1.721,1.166,1.52,2.185
			c-0.188,0.954-1.138,1.618-2.09,1.463C267.471,163.678,266.784,162.677,266.983,161.649z"/>
		<path fill="#CFE9EC" d="M293.486,227.293c0.189-0.978,1.096-1.611,2.076-1.451c1.025,0.166,1.72,1.166,1.519,2.185
			c-0.188,0.954-1.138,1.618-2.091,1.462C293.974,229.322,293.287,228.32,293.486,227.293z"/>
		<path fill="#CFE9EC" d="M246.402,138.986c0.19-0.979,1.096-1.611,2.076-1.452c1.025,0.167,1.72,1.166,1.52,2.185
			c-0.188,0.954-1.139,1.618-2.091,1.463C246.891,141.015,246.203,140.014,246.402,138.986z"/>
		<path fill="#CFE9EC" d="M320.468,154.421c0.802,0.139,1.36,0.907,1.235,1.701c-0.126,0.802-0.9,1.302-1.741,1.125
			c-0.768-0.162-1.259-0.833-1.165-1.591C318.897,154.84,319.653,154.281,320.468,154.421z"/>
		<path fill="#CFE9EC" d="M282.969,170.263c0.737,0.079,1.295,0.77,1.234,1.528c-0.066,0.849-0.764,1.44-1.58,1.343
			c-0.742-0.088-1.31-0.775-1.256-1.523C281.424,170.808,282.174,170.177,282.969,170.263z"/>
		<path fill="#CFE9EC" d="M283.385,242.844c0.738,0.08,1.295,0.77,1.235,1.528c-0.067,0.849-0.765,1.44-1.581,1.344
			c-0.742-0.089-1.309-0.776-1.256-1.524C281.84,243.389,282.59,242.758,283.385,242.844z"/>
		<path fill="#CFE9EC" d="M281.213,121.215c-0.078,0.631-0.668,1.112-1.314,1.072c-0.699-0.045-1.244-0.698-1.157-1.39
			c0.08-0.639,0.659-1.106,1.315-1.063C280.777,119.881,281.301,120.506,281.213,121.215z"/>
		<path fill="#CFE9EC" d="M312.933,218.842c-0.077,0.631-0.668,1.112-1.314,1.071c-0.7-0.044-1.244-0.697-1.157-1.389
			c0.08-0.639,0.659-1.106,1.315-1.063C312.496,217.508,313.02,218.133,312.933,218.842z"/>
		<path fill="#CFE9EC" d="M264.01,141.358c-0.078,0.631-0.668,1.112-1.314,1.071c-0.699-0.043-1.244-0.697-1.158-1.389
			c0.081-0.639,0.66-1.106,1.316-1.063C263.574,140.025,264.098,140.65,264.01,141.358z"/>
		<path fill="#CFE9EC" d="M262.699,144.347c0.14-0.43,0.506-0.601,0.801-0.463c0.274,0.128,0.357,0.363,0.284,0.648
			c-0.085,0.326-0.461,0.517-0.732,0.322C262.873,144.727,262.783,144.475,262.699,144.347z"/>
		<path fill="#CFE9EC" d="M295.182,208.959c0.14-0.43,0.506-0.601,0.801-0.463c0.274,0.129,0.357,0.363,0.284,0.648
			c-0.085,0.326-0.461,0.517-0.732,0.322C295.355,209.339,295.266,209.087,295.182,208.959z"/>
		<path fill="#CFE9EC" d="M279.422,229.474c0.141-0.43,0.506-0.602,0.801-0.464c0.275,0.129,0.358,0.364,0.285,0.649
			c-0.085,0.325-0.461,0.516-0.732,0.321C279.596,229.854,279.506,229.602,279.422,229.474z"/>
		<path fill="#CFE9EC" d="M256.074,117.945c0.14-0.43,0.506-0.602,0.801-0.464c0.274,0.129,0.357,0.364,0.284,0.648
			c-0.085,0.326-0.461,0.517-0.732,0.322C256.248,118.324,256.158,118.072,256.074,117.945z"/>
		<path fill="#CFE9EC" d="M235.934,128.355c0.141-0.43,0.508-0.602,0.802-0.464c0.274,0.129,0.358,0.364,0.284,0.648
			c-0.084,0.326-0.461,0.517-0.732,0.322C236.108,128.734,236.019,128.482,235.934,128.355z"/>
		<path fill="#CFE9EC" d="M304.069,204.008c0.14-0.43,0.507-0.602,0.802-0.463c0.273,0.128,0.357,0.363,0.283,0.648
			c-0.084,0.326-0.461,0.516-0.732,0.322C304.244,204.388,304.154,204.136,304.069,204.008z"/>
	</g>
</g>
<g>
	<path fill="#12B4BC" d="M247.979,195.581c-0.023,0.356,0.267,0.541,0.441,0.782c0.826,1.14,1.67,2.265,2.497,3.403
		c0.22,0.303,0.401,0.633,0.614,0.97c-0.104,0.231-0.191,0.451-0.298,0.662c-0.936,1.862-1.263,3.844-1.085,5.9
		c0.159,1.852,0.502,3.663,1.224,5.401c0.878,2.117,1.276,4.34,1.177,6.641c-0.005,0.136-0.035,0.271-0.061,0.404
		c-0.006,0.028-0.041,0.051-0.09,0.105c-0.229,0.128-0.416-0.079-0.619-0.171c-1.533-0.692-3.045-1.435-4.6-2.072
		c-1.172-0.481-2.389-0.857-3.601-1.229c-0.967-0.298-1.962-0.312-2.952-0.074c-0.131,0.031-0.288,0.063-0.371,0.152
		c-0.075,0.08-0.121,0.265-0.079,0.357c0.066,0.146,0.205,0.27,0.335,0.375c0.701,0.57,1.516,0.936,2.344,1.274
		c2.672,1.095,5.252,2.378,7.758,3.813c0.296,0.169,0.58,0.357,0.909,0.562c-0.131,0.242-0.223,0.458-0.354,0.646
		c-0.939,1.347-2.244,2.193-3.775,2.725c-1.311,0.455-2.663,0.638-4.049,0.633c-0.994-0.003-1.99,0.004-2.982,0.057
		c-0.9,0.048-1.752,0.31-2.555,0.733c-1.675,0.885-2.579,2.72-2.212,4.573c0.234,1.184,0.655,2.307,1.167,3.4
		c0.933,1.99,1.793,4.01,2.436,6.118c0.699,2.294,0.932,4.638,0.784,7.024c-0.012,0.193-0.086,0.384-0.15,0.657
		c-0.351-0.211-0.641-0.384-0.929-0.559c-1.381-0.835-2.738-1.709-4.148-2.491c-0.927-0.514-1.912-0.932-2.898-1.324
		c-0.866-0.346-1.783-0.502-2.726-0.4c-0.166,0.019-0.329,0.068-0.58,0.122c0.097,0.187,0.132,0.373,0.241,0.441
		c0.521,0.329,1.048,0.659,1.602,0.929c3.133,1.525,5.957,3.54,8.807,5.516c0.055,0.038,0.095,0.098,0.186,0.194
		c-0.013,0.122-0.004,0.294-0.053,0.448c-0.871,2.778-2.461,5.036-4.856,6.715c-1.573,1.103-3.332,1.545-5.258,1.566
		c-0.237-0.449-0.345-0.916-0.504-1.361c-0.765-2.132-1.517-4.268-2.308-6.389c-0.48-1.293-1.163-2.485-2.012-3.576
		c-0.102-0.13-0.244-0.229-0.373-0.336c-0.016-0.012-0.062,0.014-0.111,0.027c-0.174,0.113-0.1,0.294-0.074,0.448
		c0.195,1.226,0.594,2.397,0.978,3.571c0.735,2.25,1.489,4.495,2.228,6.744c0.094,0.287,0.146,0.587,0.214,0.863
		c-0.341,0.268-0.7,0.217-1.032,0.255c-1.336,0.154-2.643,0.431-3.9,0.91c-2.621,1-4.479,2.767-5.36,5.46
		c-0.416,1.271-0.755,2.568-1.101,3.861c-0.438,1.631-0.975,3.22-1.813,4.693c-0.111,0.196-0.158,0.463-0.515,0.531
		c-0.061-0.212-0.139-0.425-0.183-0.644c-0.336-1.648-0.651-3.301-0.999-4.946c-0.602-2.855-1.263-5.697-2.138-8.484
		c-0.478-1.519-1.172-2.929-2.137-4.199c-0.214-0.282-0.22-0.278-0.675-0.298c-0.22,0.309-0.17,0.661-0.126,0.995
		c0.183,1.395,0.339,2.796,0.591,4.179c0.522,2.87,1.129,5.727,1.646,8.598c0.452,2.5,0.832,5.013,1.241,7.521
		c0.044,0.27,0.073,0.542,0.118,0.883c-1.845,1.883-4.016,3.266-6.507,4.163c-3.114,1.122-7.817,1.331-9.595,0.713
		c0.035-0.279,0.053-0.579,0.111-0.871c0.55-2.689,1.1-5.379,1.664-8.065c0.339-1.616,0.605-3.239,0.577-4.896
		c-0.004-0.24,0.015-0.487-0.038-0.717c-0.033-0.144-0.16-0.336-0.282-0.368c-0.126-0.034-0.361,0.054-0.438,0.165
		c-0.508,0.731-1.051,1.451-1.453,2.239c-0.402,0.79-0.727,1.636-0.961,2.491c-0.75,2.748-1.443,5.511-2.157,8.268
		c-0.085,0.328-0.163,0.658-0.241,0.98c-1.498-0.123-4.594-1.582-6.58-3.083c-2.166-1.637-4.457-4.408-5.144-6.254
		c0.204-0.188,0.419-0.4,0.649-0.596c1.051-0.884,2.107-1.76,3.156-2.646c0.945-0.8,1.816-1.676,2.602-2.635
		c0.085-0.104,0.152-0.227,0.206-0.35c0.022-0.053-0.013-0.13-0.03-0.267c-0.23,0.055-0.465,0.074-0.668,0.162
		c-1.043,0.454-2.012,1.036-2.924,1.714c-1.047,0.777-2.1,1.547-3.154,2.314c-0.215,0.156-0.443,0.292-0.666,0.437
		c-0.857-1.288-1.543-4.476-1.41-6.531c0.212-0.115,0.442-0.26,0.688-0.374c4.293-2.005,8.67-3.801,13.201-5.202
		c1.246-0.385,2.488-0.778,3.727-1.186c0.168-0.055,0.303-0.21,0.525-0.372c-0.203-0.114-0.309-0.208-0.428-0.234
		c-0.707-0.157-1.418-0.226-2.146-0.168c-1.448,0.113-2.841,0.48-4.226,0.887c-3.329,0.979-6.561,2.225-9.742,3.604
		c-0.369,0.16-0.75,0.3-1.086,0.434c-0.259-0.163-0.184-0.346-0.149-0.498c0.624-2.772,1.967-5.111,4.204-6.896
		c1.534-1.224,3.174-2.286,4.943-3.145c0.339-0.164,0.678-0.332,1.026-0.477c1.345-0.56,2.087-1.605,2.478-2.969
		c0.363-1.269,0.287-2.518-0.099-3.754c-0.449-1.441-0.946-2.868-1.394-4.311c-0.296-0.95-0.544-1.914-0.806-2.875
		c-0.044-0.16-0.047-0.332-0.075-0.547c0.215-0.069,0.396-0.164,0.588-0.184c2.496-0.256,4.995-0.357,7.504-0.15
		c0.921,0.076,1.85,0.068,2.775,0.09c0.205,0.005,0.421-0.012,0.468-0.335c-0.57-0.422-1.245-0.657-1.933-0.863
		c-1.125-0.338-2.287-0.458-3.449-0.544c-1.852-0.137-3.703-0.154-5.553,0.06c-0.166,0.02-0.336,0.019-0.547,0.029
		c-0.057-0.13-0.146-0.245-0.156-0.366c-0.215-2.778,0.311-5.397,1.703-7.827c0.068-0.118,0.141-0.236,0.22-0.349
		c0.038-0.054,0.097-0.094,0.205-0.196c0.216,0.053,0.479,0.099,0.729,0.181c6.983,2.287,13.869,4.839,20.668,7.625
		c0.984,0.403,1.979,0.783,2.978,1.146c1.034,0.375,2.107,0.609,3.196,0.768c0.136,0.021,0.27,0.058,0.406,0.065
		c0.176,0.01,0.369-0.019,0.412-0.218c0.023-0.111-0.024-0.278-0.102-0.363c-0.184-0.202-0.401-0.374-0.611-0.551
		c-1.295-1.093-2.744-1.94-4.261-2.681c-4.045-1.974-8.19-3.716-12.409-5.277c-2.734-1.013-5.496-1.955-8.246-2.929
		c-0.19-0.068-0.379-0.142-0.646-0.242c0.122-0.17,0.191-0.325,0.309-0.422c1.975-1.62,4.175-2.746,6.738-3.099
		c1.914-0.264,3.833-0.263,5.756-0.209c0.857,0.023,1.716,0.045,2.574,0.06c0.594,0.011,1.164-0.126,1.695-0.377
		c0.971-0.46,1.674-1.176,2.029-2.214c0.41-1.192,0.498-2.424,0.393-3.661c-0.152-1.777-0.369-3.551-0.557-5.326
		c-0.035-0.332-0.056-0.667-0.092-1.108c0.284,0.102,0.475,0.148,0.646,0.233c1.536,0.766,3.062,1.554,4.605,2.302
		c0.771,0.373,1.572,0.683,2.366,1.008c0.144,0.059,0.314,0.052,0.587,0.092c-0.076-0.217-0.088-0.353-0.16-0.438
		c-0.67-0.797-1.477-1.433-2.379-1.946c-1.85-1.053-3.682-2.139-5.641-2.984c-0.059-0.026-0.105-0.084-0.227-0.185
		c-0.014-0.547-0.039-1.161-0.041-1.775c-0.006-1.856,0.086-3.705,0.51-5.523c0.251-1.075,0.615-2.106,1.104-3.097
		c0.96-1.943,2.437-3.381,4.304-4.444c0.088-0.051,0.182-0.099,0.277-0.134c0.063-0.022,0.134-0.02,0.229-0.032
		c0.347,0.18,0.439,0.573,0.608,0.895c2.391,4.564,4.547,9.232,6.28,14.091c0.46,1.292,1.007,2.553,1.53,3.82
		c0.066,0.161,0.233,0.28,0.367,0.434c0.295-0.374,0.165-0.724,0.137-1.054c-0.172-1.959-0.621-3.86-1.227-5.727
		c-1.359-4.189-3.164-8.19-5.103-12.136c-0.162-0.33-0.306-0.668-0.449-0.981c0.279-0.315,0.606-0.299,0.899-0.353
		c1.424-0.262,2.865-0.303,4.309-0.284c0.927,0.013,1.854,0.02,2.78,0.031c2.081,0.026,3.921-0.581,5.442-2.045
		c0.092-0.088,0.213-0.145,0.383-0.257c0.416,0.928,0.627,1.855,0.906,2.761c0.344,1.114,0.707,2.223,1.081,3.326
		c0.083,0.244,0.248,0.461,0.433,0.793c0.132-0.196,0.25-0.293,0.254-0.394c0.034-0.787,0.104-1.578,0.053-2.36
		c-0.133-2.034-0.676-3.989-1.27-5.928c-0.105-0.339-0.165-0.648-0.054-0.999c0.511-1.607,0.786-3.269,1.093-4.922
		c0.275-1.49,0.662-2.937,1.35-4.307c1.143-2.277,2.965-3.633,5.418-4.2c1.726-0.399,3.466-0.489,5.215-0.2
		c1.895,0.313,3.613,1.058,5.159,2.203c2.546,1.885,4.226,4.363,5.149,7.385c0.631,2.063,0.855,4.171,0.752,6.309
		c-0.099,2.014-0.707,3.91-1.547,5.731c-0.109,0.235-0.286,0.438-0.492,0.748c-0.256-0.403-0.462-0.704-0.643-1.021
		c-1.045-1.816-2.164-3.583-3.43-5.256c-0.686-0.906-1.434-1.754-2.292-2.5c-0.124-0.108-0.286-0.173-0.435-0.253
		c-0.016-0.009-0.052,0.019-0.15,0.056c0.078,0.18,0.134,0.369,0.235,0.53c0.532,0.84,1.06,1.685,1.62,2.506
		c1.434,2.101,2.716,4.291,3.935,6.52c0.113,0.207,0.208,0.425,0.327,0.673c-1.147,1.697-2.643,3.074-3.898,4.769
		c-0.229-0.273-0.408-0.464-0.559-0.675c-0.859-1.201-1.734-2.391-2.768-3.45c-0.18-0.184-0.317-0.458-0.644-0.437
		c0.036-0.198-0.045-0.3-0.261-0.312C247.746,195.447,247.736,195.635,247.979,195.581z"/>
	<path fill="#82CBD4" d="M224.947,277.81c-0.302,0.311-0.572,0.546-0.791,0.822c-0.709,0.896-1.049,1.92-0.961,3.068
		c0.051,0.661,0.123,1.321,0.193,1.981c0.107,0.995,0.1,1.988-0.021,2.981c-0.021,0.175-0.055,0.348-0.09,0.569
		c-0.197-0.011-0.369-0.002-0.534-0.031c-2.879-0.51-5.662-1.319-8.298-2.607c-0.387-0.189-0.805-0.319-1.215-0.451
		c-0.129-0.042-0.285,0-0.459,0.004c0.063,0.491,0.378,0.759,0.677,1.025c0.188,0.169,0.416,0.295,0.632,0.433
		c1.079,0.688,2.23,1.241,3.388,1.781c0.323,0.151,0.659,0.279,0.974,0.449c0.974,0.529,2.01,0.874,3.091,1.099
		c0.394,0.082,0.784,0.181,1.165,0.27c-0.031,1.351-2.969,5.406-4.691,6.22c-0.324-0.195-0.682-0.392-1.018-0.619
		c-1.524-1.027-3.049-2.057-4.489-3.202c-0.359-0.286-0.708-0.586-1.079-0.858c-0.221-0.162-0.473-0.283-0.77-0.457
		c-0.06,0.203-0.141,0.34-0.133,0.471c0.033,0.508,0.297,0.916,0.622,1.286c0.642,0.731,1.359,1.386,2.12,1.987
		c0.861,0.68,1.751,1.323,2.627,1.984c0.139,0.104,0.27,0.218,0.379,0.308c-0.001,0.248-0.162,0.287-0.294,0.35
		c-1.272,0.607-2.589,1.091-3.971,1.385c-3.192,0.679-6.423,0.854-9.677,0.692c-0.076-0.004-0.15-0.021-0.266-0.037
		c-0.05-0.182-0.113-0.372-0.153-0.568c-0.271-1.355-0.422-2.725-0.455-4.107c-0.007-0.297,0.034-0.61-0.155-0.951
		c-0.076,0.162-0.145,0.267-0.176,0.382c-0.15,0.544-0.235,1.103-0.204,1.666c0.05,0.891,0.126,1.781,0.197,2.671
		c0.02,0.251,0.058,0.5,0.085,0.721c-0.159,0.173-0.32,0.1-0.458,0.083c-3.036-0.36-5.964-1.126-8.761-2.366
		c-0.793-0.352-1.582-0.719-2.347-1.128c-2.255-1.209-4.179-2.833-5.812-4.797c-0.57-0.687-1.101-1.405-1.631-2.123
		c-1.582-2.141-2.52-4.542-2.885-7.175c-0.059-0.428-0.152-0.854-0.252-1.275c-0.379-1.624-0.325-3.238,0.062-4.855
		c0.646-2.699,1.843-5.127,3.506-7.343c1.048-1.396,2.181-2.699,3.575-3.76c0.141-0.106,0.287-0.202,0.463-0.325
		c0.115,0.134,0.226,0.234,0.305,0.356c0.364,0.555,0.729,1.108,1.076,1.675c1.492,2.442,3.057,4.834,4.908,7.023
		c0.479,0.564,0.984,1.105,1.498,1.637c0.394,0.407,0.871,0.708,1.387,0.942c0.211,0.096,0.424,0.179,0.71,0.106
		c0.026-0.122,0.108-0.276,0.075-0.4c-0.098-0.366-0.203-0.741-0.377-1.076c-0.211-0.405-0.48-0.782-0.75-1.153
		c-2.064-2.833-3.842-5.843-5.519-8.916c-0.319-0.585-0.563-1.198-0.667-1.902c0.197-0.116,0.385-0.241,0.584-0.341
		c2.057-1.025,4.241-1.618,6.512-1.91c0.658-0.085,1.322-0.135,1.982-0.196c1.078-0.102,2.118-0.335,3.084-0.843
		c0.066-0.034,0.145-0.045,0.271-0.083c0.032,0.204,0.076,0.391,0.088,0.58c0.092,1.403,0.257,2.798,0.559,4.173
		c0.17,0.779,0.42,1.527,0.899,2.179c0.072,0.098,0.167,0.179,0.288,0.308c0.088-0.143,0.189-0.237,0.199-0.342
		c0.033-0.328,0.054-0.662,0.039-0.992c-0.021-0.459-0.069-0.916-0.12-1.373c-0.208-1.854-0.325-3.713-0.331-5.58
		c-0.001-0.426,0.111-0.779,0.332-1.146c0.607-1.005,1.198-2.021,1.742-3.062c0.849-1.624,1.9-3.076,3.294-4.282
		c1.343-1.162,2.891-1.81,4.649-1.954c0.558-0.045,1.121-0.031,1.682-0.031c0.121,0,0.241,0.053,0.4,0.091
		c-0.033,0.301-0.062,0.575-0.093,0.849c-0.183,1.598-0.378,3.193-0.54,4.793c-0.061,0.583-0.053,1.174-0.055,1.76
		c-0.002,0.539,0.078,1.07,0.265,1.579c0.032,0.087,0.101,0.16,0.206,0.322c0.076-0.189,0.145-0.293,0.158-0.402
		c0.064-0.506,0.131-1.013,0.164-1.521c0.149-2.271,0.469-4.519,0.867-6.757c0.021-0.123,0.057-0.244,0.095-0.409
		c0.187,0.034,0.362,0.046,0.524,0.098c1.111,0.355,2.08,0.968,2.983,1.69c0.997,0.797,1.976,1.616,2.989,2.393
		c0.421,0.321,0.91,0.554,1.445,0.873c0.007,0.077,0.031,0.249,0.035,0.42c0.016,0.74,0.012,1.48,0.043,2.22
		c0.016,0.345,0.038,0.699,0.254,1.1c0.163-0.359,0.129-0.664,0.144-0.957c0.015-0.28,0.007-0.562,0.013-0.843
		c0.008-0.307,0.016-0.612,0.029-0.918c0.012-0.28,0.031-0.561,0.049-0.868c0.109-0.017,0.207-0.055,0.299-0.043
		c1.291,0.158,2.482-0.172,3.625-0.737c0.852-0.422,1.607-0.99,2.334-1.596c0.628-0.521,1.233-1.07,1.864-1.589
		c0.29-0.239,0.569-0.509,1.007-0.658c-0.198,1.648-0.668,3.226-0.405,4.881c0.046-0.098,0.116-0.19,0.136-0.292
		c0.177-0.979,0.336-1.962,0.52-2.94c0.117-0.627,0.267-1.248,0.398-1.872c0.038-0.184,0.119-0.324,0.284-0.431
		c0.845-0.545,2.78-1.067,3.845-1.013c-0.037,0.329-0.182,0.618-0.301,0.915c-0.826,2.034-1.639,4.074-2.294,6.171
		c-0.197,0.632-0.343,1.281-0.479,1.929c-0.058,0.271-0.038,0.559-0.037,0.839c0.002,0.119,0.045,0.238,0.063,0.332
		c0.169,0.071,0.234-0.017,0.275-0.105c0.203-0.439,0.431-0.871,0.591-1.326c0.738-2.096,1.558-4.159,2.445-6.195
		c0.316-0.726,0.635-1.45,0.959-2.172c0.061-0.137,0.152-0.259,0.254-0.426c1.843,0.195,3.498,0.744,4.638,2.313
		c0.419,0.576,0.778,1.197,1.14,1.813c0.757,1.291,1.813,2.267,3.121,2.972c0.356,0.192,0.742,0.33,1.154,0.511
		c-0.059,0.152-0.092,0.296-0.164,0.417c-0.438,0.75-0.9,1.486-1.326,2.243c-0.35,0.622-0.674,1.261-0.984,1.904
		c-0.163,0.337-0.318,0.688-0.303,1.069c0.164,0.108,0.207-0.029,0.249-0.096c0.218-0.346,0.419-0.701,0.634-1.049
		c0.793-1.281,1.587-2.563,2.386-3.84c0.106-0.17,0.241-0.322,0.362-0.483c0.714,0.063,1.397,0.142,2.083,0.178
		c0.682,0.036,1.365,0.029,2.09,0.042c-0.036,0.707-0.331,1.354-0.243,2.191c0.389-0.781,0.424-1.514,0.718-2.204
		c0.154-0.024,0.325-0.067,0.498-0.077c1.124-0.058,2.247-0.058,3.363,0.104c0.891,0.13,1.741,0.372,2.513,0.865
		c1.074,0.687,1.825,1.621,2.225,2.83c0.29,0.881,0.437,1.781,0.352,2.716c-0.082,0.902-0.268,1.763-0.818,2.514
		c-0.195,0.267-0.348,0.564-0.52,0.85c-0.188,0.311-0.424,0.567-0.809,0.745c-0.164-0.146-0.352-0.279-0.494-0.449
		c-0.573-0.684-1.133-1.378-1.697-2.07c-0.289-0.355-0.571-0.717-0.866-1.068c-0.054-0.063-0.153-0.087-0.298-0.164
		c-0.007,0.17-0.025,0.267-0.011,0.357c0.089,0.536,0.293,1.028,0.565,1.496c0.451,0.775,1,1.479,1.576,2.162
		c0.094,0.111,0.165,0.242,0.25,0.37c-0.096,0.065-0.152,0.121-0.222,0.147c-1.569,0.598-3.177,0.778-4.8,0.282
		c-0.652-0.199-1.265-0.54-1.881-0.846c-0.616-0.307-1.211-0.659-1.822-0.977c-1.074-0.556-1.714-0.157-2.157,0.696
		c-0.376,0.725-0.687,1.482-1.03,2.224c-0.115,0.25-0.198,0.522-0.441,0.755c-0.111-0.054-0.231-0.09-0.326-0.161
		c-1.571-1.183-3.102-2.414-4.443-3.862c-0.277-0.299-0.566-0.588-0.863-0.868c-0.104-0.099-0.248-0.156-0.439-0.271
		c0.018,0.18,0.008,0.306,0.043,0.416c0.188,0.597,0.545,1.094,0.951,1.558c0.774,0.886,1.625,1.694,2.529,2.444
		c0.648,0.536,1.306,1.061,1.988,1.614c-0.102,0.494-0.492,0.811-0.78,1.18c-0.28,0.358-0.627,0.665-0.973,1.023
		c-1.133-0.502-2.038-1.282-3.06-2.081c0.206,0.507,0.548,0.757,0.872,1.007c0.464,0.359,0.954,0.685,1.432,1.026
		c0.118,0.085,0.229,0.181,0.339,0.267c-0.043,0.078-0.057,0.135-0.092,0.163c-1.803,1.414-3.797,1.938-6.035,1.276
		c-0.811-0.239-1.594-0.554-2.308-1.012c-0.688-0.442-1.362-0.904-2.044-1.354c-0.469-0.31-0.928-0.637-1.416-0.911
		c-0.307-0.173-0.651-0.302-0.994-0.384c-0.858-0.204-1.594,0.16-1.933,0.975c-0.175,0.42-0.265,0.877-0.381,1.32
		c-0.063,0.244-0.101,0.496-0.157,0.791c-0.137-0.014-0.265,0-0.371-0.041c-1.479-0.568-2.939-1.177-4.303-1.994
		c-0.327-0.195-0.664-0.375-1.102-0.461c0.002,0.145-0.029,0.273,0.012,0.373c0.17,0.418,0.492,0.719,0.861,0.948
		c0.65,0.402,1.305,0.808,1.99,1.145c0.754,0.371,1.547,0.665,2.321,0.995c0.089,0.038,0.168,0.1,0.279,0.167
		c-0.374,1.227-1.022,2.242-2.021,3.011c-0.401,0.31-0.847,0.573-1.302,0.797c-0.569,0.279-1.17,0.496-1.782,0.75
		c-0.169-0.245-0.326-0.444-0.451-0.661c-0.6-1.039-1.188-2.084-1.783-3.125c-0.16-0.279-0.254-0.616-0.595-0.755
		c-0.243,0.104-0.292,0.318-0.263,0.512c0.053,0.351,0.109,0.716,0.256,1.032c0.388,0.832,0.818,1.645,1.244,2.458
		C224.526,277.127,224.734,277.448,224.947,277.81z"/>
	<g>
		<path fill="#9492C7" d="M201.371,168.313c-0.531,0.909-1.049,1.786-1.557,2.668c-0.169,0.294-0.314,0.603-0.473,0.903
			c-0.803,1.523-1.012,3.127-0.699,4.817c0.206,1.12,0.568,2.191,0.906,3.272c0.48,1.538,0.908,3.093,1.137,4.689
			c0.467,3.255,0.494,6.508-0.127,9.751c-0.028,0.147-0.029,0.3-0.053,0.559c0.156-0.144,0.258-0.201,0.307-0.288
			c0.212-0.374,0.437-0.744,0.604-1.138c0.596-1.399,1.071-2.841,1.419-4.323c0.035-0.154,0.079-0.308,0.13-0.457
			c0.396-1.161,0.675-2.352,0.937-3.548c0.342-1.564,0.953-3.023,1.769-4.398c0.372-0.627,0.806-1.207,1.318-1.726
			c1.203-1.216,2.673-1.84,4.368-1.953c0.889-0.059,1.767,0.016,2.621,0.292c1.322,0.428,2.297,1.253,2.848,2.542
			c0.124,0.289,0.235,0.599,0.269,0.907c0.069,0.652,0.14,1.313,0.108,1.966c-0.044,0.898-0.416,1.716-0.861,2.484
			c-0.607,1.049-1.369,1.974-2.328,2.727c-0.16,0.126-0.321,0.251-0.479,0.38c-0.694,0.563-1.28,1.219-1.691,2.02
			c-0.3,0.585-0.604,1.167-0.894,1.758c-0.804,1.648-1.88,3.109-3.179,4.387c-1.556,1.53-3.481,2.254-5.652,2.329
			c-0.476,0.017-0.952-0.004-1.429-0.015c-0.438-0.01-0.854,0.09-1.269,0.214c-0.275,0.083-0.473,0.235-0.61,0.498
			c-1.125,2.146-2.74,3.881-4.594,5.408c-1.385,1.141-2.836,2.193-4.385,3.101c-1.271,0.745-2.555,1.471-3.846,2.183
			c-1.135,0.625-2.241,1.289-3.251,2.104c-1.847,1.489-3.309,3.285-4.33,5.434c-0.235,0.496-0.419,1.005-0.505,1.547
			c-0.176,1.105-0.531,2.153-0.963,3.183c-0.299,0.71-0.575,1.432-0.809,2.166c-0.994,3.134-2.691,5.836-5.008,8.151
			c-0.459,0.46-0.795,0.982-1.086,1.549c-0.105,0.204-0.105,0.388,0.027,0.573c0.053,0.073,0.102,0.149,0.152,0.226
			c1.162,1.735,1.773,3.661,1.986,5.726c0.215,2.072,0.02,4.122-0.329,6.164c-0.329,1.929-0.904,3.793-1.513,5.646
			c-0.48,1.465-1.005,2.916-1.507,4.374c-0.325,0.944-0.618,1.898-0.776,2.888c-0.061,0.38-0.098,0.765-0.129,1.148
			c-0.152,1.837,0.469,3.432,1.547,4.88c0.039,0.052,0.102,0.085,0.187,0.153c0.076-0.079,0.166-0.144,0.218-0.23
			c0.568-0.962,1.258-1.832,2.012-2.65c0.799-0.868,1.611-1.724,2.425-2.577c1.381-1.448,2.618-3.011,3.739-4.667
			c0.46-0.68,0.836-1.404,1.145-2.16c0.363-0.893,0.343-1.82,0.121-2.742c-0.111-0.461-0.26-0.915-0.417-1.364
			c-0.419-1.2-0.909-2.371-1.484-3.505c-0.627-1.232-1.259-2.463-1.894-3.691c-0.828-1.599-1.477-3.265-1.892-5.016
			c-0.151-0.638-0.269-1.288-0.346-1.939c-0.134-1.135-0.068-2.262,0.218-3.375c0.267-1.035,0.606-2.044,1.037-3.02
			c0.622-1.408,1.625-2.501,2.867-3.385c0.505-0.358,1.066-0.603,1.68-0.705c1.451-0.24,2.758,0.421,3.457,1.739
			c0.559,1.055,0.765,2.173,0.597,3.357c-0.032,0.225-0.063,0.449-0.083,0.675c-0.007,0.08,0.021,0.164,0.039,0.304
			c0.121-0.066,0.205-0.094,0.265-0.148c1.072-0.987,2.276-1.799,3.48-2.61c0.413-0.279,0.821-0.568,1.236-0.844
			c0.579-0.384,0.842-0.927,0.849-1.611c0.012-1.081-0.154-2.125-0.648-3.098c-0.4-0.788-0.807-1.573-1.223-2.354
			c-0.631-1.186-1.186-2.398-1.482-3.716c-0.31-1.374-0.339-2.741,0.087-4.099c0.504-1.607,1.536-2.751,3.05-3.471
			c0.625-0.298,1.283-0.447,1.979-0.375c1.22,0.125,2.055,0.806,2.558,1.883c0.375,0.804,0.586,1.656,0.563,2.566
			c-0.015,0.609,0.071,1.222,0.117,1.832c0.004,0.059,0.046,0.115,0.08,0.196c0.067-0.046,0.148-0.069,0.166-0.116
			c0.414-1.15,0.931-2.272,1.071-3.502c0.09-0.788,0.128-1.582,0.174-2.374c0.042-0.725,0.092-1.446,0.243-2.16
			c0.225-1.054,0.738-1.946,1.48-2.709c1.414-1.456,3.118-2.312,5.161-2.449c0.525-0.035,1.044,0.019,1.553,0.139
			c0.915,0.216,1.761,0.601,2.522,1.149c1.184,0.853,1.861,2.031,2.106,3.451c0.259,1.495,0.056,2.929-0.626,4.3
			c-0.638,1.285-1.541,2.345-2.633,3.254c-0.365,0.304-0.753,0.583-1.135,0.867c-0.568,0.423-1.062,0.92-1.499,1.475
			c-0.386,0.489-0.679,1.023-0.787,1.64c-0.181,1.026-0.339,2.057-0.513,3.084c-0.17,1.006-0.299,2.021-0.531,3.013
			c-0.76,3.242-2.543,5.776-5.377,7.546c-0.676,0.422-1.329,0.867-1.926,1.395c-0.077,0.069-0.141,0.154-0.27,0.297
			c0.168,0.021,0.25,0.044,0.329,0.039c0.755-0.05,1.491,0.075,2.228,0.211c0.607,0.111,1.221,0.115,1.831,0.05
			c0.549-0.06,1.058-0.252,1.503-0.587c0.363-0.272,0.721-0.552,1.082-0.824c0.784-0.592,1.641-1.039,2.569-1.369
			c2.382-0.847,5.341,0.469,6.453,2.529c0.614,1.139,0.648,2.302,0.164,3.473c-0.387,0.936-0.991,1.713-1.819,2.328
			c-1.51,1.12-3.19,1.79-5.039,2.079c-0.787,0.122-1.576,0.17-2.371,0.165c-0.777-0.005-1.537-0.122-2.277-0.35
			c-1.344-0.414-2.675-0.862-3.947-1.473c-1.188-0.57-2.426-1.016-3.723-1.268c-0.711-0.138-1.43-0.249-2.161-0.192
			c-0.519,0.04-0.567,0.059-0.63,0.598c-0.066,0.585-0.132,1.175-0.128,1.763c0.007,1.064,0.035,2.132,0.108,3.194
			c0.113,1.651,0.271,3.3,0.41,4.95c0.13,1.538,0.191,3.077,0.086,4.621c-0.139,2.032-0.73,3.911-1.818,5.639
			c-0.703,1.117-1.498,2.166-2.416,3.111c-1.074,1.106-2.186,2.176-3.289,3.251c-0.537,0.522-1.098,1.02-1.643,1.532
			c-0.994,0.935-1.89,1.955-2.662,3.084c-0.295,0.43-0.635,0.827-0.949,1.243c-0.26,0.344-0.51,0.694-0.764,1.042
			c-0.146,0.2-0.173,0.413-0.074,0.642c0.019,0.042,0.033,0.085,0.05,0.127c0.636,1.648,0.884,3.372,1.004,5.121
			c0.171,2.486-0.071,4.938-0.617,7.365c-0.448,1.991-0.903,3.98-1.356,5.971c-0.156,0.686-0.298,1.374-0.477,2.054
			c-0.104,0.393-0.242,0.782-0.416,1.148c-0.135,0.281-0.318,0.556-0.535,0.779c-0.675,0.696-1.622,0.663-2.279-0.055
			c-0.346-0.377-0.564-0.83-0.678-1.319c-0.132-0.572-0.239-1.154-0.305-1.738c-0.193-1.722-0.099-3.445,0.064-5.162
			c0.16-1.671,0.357-3.338,0.545-5.005c0.078-0.697,0.146-0.738-0.629-1.052c-0.636-0.258-1.309-0.358-1.992-0.392
			c-1.222-0.059-2.391,0.128-3.498,0.68c-0.754,0.375-1.478,0.789-2.142,1.31c-0.804,0.63-1.621,1.24-2.429,1.864
			c-0.881,0.682-1.824,1.268-2.786,1.826c-0.792,0.459-1.642,0.76-2.542,0.926c-1.309,0.242-2.576,0.074-3.816-0.359
			c-1.326-0.463-2.491-1.192-3.486-2.186c-0.836-0.836-1.594-1.74-2.218-2.747c-0.489-0.79-0.946-1.601-1.43-2.394
			c-0.472-0.774-0.948-1.546-1.444-2.304c-0.451-0.688-1.023-1.27-1.684-1.764c-0.526-0.395-1.057-0.784-1.574-1.189
			c-0.66-0.519-1.299-1.063-1.82-1.729c-0.309-0.396-0.568-0.819-0.737-1.295c-0.478-1.341-0.187-2.553,0.674-3.633
			c0.292-0.366,0.683-0.662,1.057-0.953c0.21-0.164,0.467-0.297,0.724-0.365c1.131-0.297,2.266-0.415,3.422-0.081
			c1.035,0.3,1.994,0.743,2.886,1.342c0.889,0.598,1.708,1.281,2.417,2.083c0.989,1.122,1.978,2.248,2.912,3.416
			c0.725,0.906,1.517,1.744,2.306,2.59c1.079,1.155,2.411,1.577,3.952,1.303c0.824-0.147,1.642-0.343,2.45-0.56
			c1.71-0.459,3.432-0.85,5.19-1.058c1.742-0.207,3.438-0.003,5.094,0.564c0.317,0.109,0.642,0.201,1.021,0.319
			c0.01-0.188,0.047-0.318,0.018-0.434c-0.223-0.911-0.631-1.746-1.102-2.552c-0.137-0.23-0.236-0.49-0.49-0.682
			c-0.133,0.063-0.275,0.125-0.411,0.199c-0.813,0.438-1.687,0.65-2.601,0.728c-1.43,0.12-2.801-0.134-4.13-0.646
			c-2.099-0.81-3.961-2.004-5.634-3.496c-1.374-1.226-2.635-2.563-3.765-4.016c-1.393-1.79-2.772-3.59-4.134-5.403
			c-1.029-1.372-2.24-2.555-3.575-3.621c-0.787-0.628-1.651-1.114-2.588-1.479c-2.03-0.788-4.14-1.168-6.313-1.209
			c-2.225-0.042-4.442,0.081-6.656,0.303c-0.789,0.079-1.582,0.127-2.375,0.17c-1.607,0.086-3.213,0.218-4.826,0.186
			c-2.628-0.052-5.191-0.458-7.668-1.353c-2.9-1.048-5.481-2.6-7.641-4.825c-1.633-1.684-2.897-3.609-3.748-5.787
			c-0.986-2.525-1.055-5.086-0.072-7.641c0.521-1.357,1.324-2.516,2.447-3.46c1.223-1.028,2.63-1.494,4.203-1.473
			c0.564,0.007,1.129,0.094,1.688,0.174c0.682,0.099,1.302,0.372,1.899,0.711c1.842,1.045,3.248,2.526,4.334,4.324
			c0.447,0.739,0.803,1.522,1.08,2.343c0.408,1.205,0.943,2.358,1.526,3.485c0.623,1.205,1.571,2.094,2.812,2.663
			c1.461,0.671,3.008,0.996,4.594,1.17c0.064,0.007,0.133-0.012,0.199-0.022c0.019-0.003,0.035-0.021,0.076-0.048
			c-0.031-0.099-0.053-0.209-0.099-0.31c-0.577-1.255-0.815-2.59-0.929-3.953c-0.127-1.542-0.6-2.971-1.393-4.295
			c-0.574-0.958-1.244-1.834-2.084-2.584c-0.66-0.589-1.313-1.181-2.012-1.728c-1.074-0.841-2.037-1.805-2.915-2.848
			c-1.2-1.429-2.032-3.055-2.489-4.863c-0.299-1.179-0.357-2.372-0.162-3.577c0.225-1.38,0.663-2.682,1.384-3.884
			c0.497-0.828,1.146-1.515,1.941-2.066c0.865-0.599,1.827-0.91,2.869-0.937c1.384-0.034,2.571,0.465,3.544,1.45
			c0.223,0.225,0.413,0.481,0.606,0.733c0.718,0.933,1.099,1.975,1.011,3.165c-0.04,0.542-0.045,1.09-0.127,1.626
			c-0.255,1.652,0.178,3.1,1.24,4.369c0.598,0.713,1.213,1.41,1.813,2.12c0.692,0.816,1.271,1.707,1.745,2.669
			c0.389,0.789,0.582,1.619,0.593,2.492c0.021,1.497-0.021,2.991-0.187,4.482c-0.167,1.495-0.127,2.989,0.158,4.471
			c0.251,1.31,0.795,2.499,1.479,3.635c0.149,0.248,0.348,0.319,0.618,0.325c0.953,0.021,1.904,0.057,2.856,0.09
			c1.57,0.057,3.114,0.291,4.635,0.686c0.197,0.052,0.397,0.093,0.597,0.131c0.038,0.008,0.082-0.021,0.172-0.047
			c-0.008-0.116,0.021-0.259-0.029-0.367c-0.178-0.39-0.346-0.793-0.585-1.145c-0.638-0.939-1.353-1.818-2.141-2.639
			c-0.675-0.702-1.343-1.416-1.964-2.166c-1.334-1.612-2.262-3.445-2.809-5.465c-0.428-1.575-0.539-3.171-0.219-4.782
			c0.201-1.015,0.607-1.946,1.227-2.777c0.215-0.289,0.455-0.568,0.72-0.813c1.25-1.15,2.917-1.354,4.414-0.558
			c1.224,0.651,2.111,1.627,2.729,2.854c0.27,0.533,0.391,1.112,0.436,1.704c0.043,0.565,0.066,1.132,0.098,1.698
			c0.014,0.271,0.014,0.545,0.041,0.814c0.063,0.583,0.283,1.096,0.723,1.497c0.386,0.352,0.764,0.712,1.162,1.049
			c1.511,1.277,2.31,2.929,2.616,4.859c0.237,1.497,0.162,2.983-0.056,4.472c-0.133,0.897-0.297,1.787-0.588,2.651
			c-0.129,0.382-0.248,0.775-0.239,1.218c0.774,0.456,1.568,0.89,2.327,1.378c0.762,0.489,1.514,1.003,2.225,1.563
			c0.709,0.558,1.363,1.185,2.038,1.779c0.165-0.037,0.128-0.173,0.147-0.272c0.061-0.334,0.104-0.672,0.173-1.005
			c0.264-1.267,0.813-2.398,1.628-3.403c0.071-0.088,0.137-0.183,0.217-0.262c0.976-0.96,1.326-2.189,1.511-3.49
			c0.093-0.65,0.157-1.307,0.274-1.953c0.129-0.721,0.396-1.395,0.843-1.985c0.526-0.697,1.2-1.164,2.073-1.313
			c1.248-0.212,2.379,0.436,2.791,1.638c0.33,0.969,0.515,1.974,0.552,3c0.011,0.316-0.016,0.635-0.003,0.952
			c0.018,0.406,0.021,0.818,0.094,1.216c0.173,0.937,0.096,1.85-0.158,2.759c-0.181,0.65-0.54,1.195-0.997,1.679
			c-0.536,0.566-1.161,1.008-1.881,1.317c-0.687,0.296-1.376,0.589-2.042,0.929c-1.314,0.673-2.176,1.742-2.646,3.166
			c0.074,0.131,0.141,0.273,0.23,0.399c1.053,1.479,2.005,3.022,2.914,4.595c0.545,0.943,1.141,1.857,1.863,2.675
			c0.494,0.56,1.041,1.073,1.575,1.595c0.144,0.141,0.328,0.24,0.501,0.349c0.053,0.033,0.128,0.031,0.246,0.058
			c-0.006-0.146,0.008-0.272-0.021-0.389c-0.165-0.683-0.378-1.355-0.504-2.045c-0.341-1.858-0.22-3.711,0.209-5.538
			c0.373-1.589,0.81-3.163,1.227-4.742c0.54-2.04,1.009-4.096,1.346-6.18c0.27-1.668,0.29-3.337,0.088-5.017
			c-0.285-2.379-1.546-4.01-3.7-4.992c-0.686-0.313-1.399-0.54-2.137-0.675c-1.562-0.285-3.124-0.566-4.691-0.814
			c-1.638-0.26-3.264-0.559-4.842-1.079c-1.016-0.336-1.993-0.753-2.912-1.305c-1.735-1.039-3.094-2.441-4.027-4.234
			c-0.439-0.844-0.831-1.715-1.21-2.588c-0.696-1.604-1.483-3.161-2.388-4.658c-0.611-1.012-1.286-1.977-2.051-2.879
			c-0.842-0.992-1.811-1.842-2.88-2.58c-0.999-0.691-2.087-1.184-3.264-1.486c-1.032-0.266-2.063-0.534-3.089-0.826
			c-1.25-0.355-2.42-0.898-3.525-1.586c-0.75-0.467-1.52-0.903-2.268-1.377c-0.458-0.29-0.914-0.595-1.328-0.944
			c-2.17-1.837-3.973-3.968-5.213-6.552c-0.762-1.588-1.252-3.251-1.514-4.99c-0.259-1.71-0.328-3.428-0.289-5.155
			c0.026-1.155,0.047-2.313,0.025-3.469c-0.033-1.758-0.646-3.313-1.708-4.711c-0.644-0.849-1.253-1.725-1.845-2.61
			c-0.547-0.815-0.913-1.721-1.176-2.665c-0.248-0.888-0.262-1.798-0.16-2.702c0.244-2.167,0.996-4.134,2.392-5.832
			c0.967-1.177,2.193-1.979,3.66-2.347c2.144-0.538,4.185-0.255,6.064,0.961c0.267,0.173,0.53,0.349,0.792,0.528
			c2.35,1.601,3.756,3.824,4.325,6.592c0.142,0.688,0.28,1.375,0.308,2.083c0.015,0.405,0.11,0.808,0.157,1.212
			c0.157,1.357,0.138,2.715,0.038,4.075c-0.152,2.081-0.291,4.162-0.406,6.245c-0.086,1.543-0.021,3.083,0.191,4.616
			c0.176,1.262,0.466,2.494,0.934,3.683c0.868,2.206,1.998,4.271,3.424,6.164c0.85,1.128,1.859,2.094,3.055,2.875
			c0.929,0.607,1.822,1.271,2.771,1.847c0.146,0.089,0.277,0.245,0.521,0.171c-0.045-0.65-0.171-1.29-0.393-1.904
			c-0.355-0.98-0.72-1.958-1.119-2.921c-0.469-1.134-0.881-2.286-1.188-3.472c-0.439-1.698-0.699-3.422-0.508-5.184
			c0.277-2.537,1.202-4.775,3.043-6.596c0.911-0.901,1.977-1.54,3.23-1.777c1.28-0.242,2.469-0.007,3.471,0.926
			c0.605,0.563,1.133,1.172,1.5,1.915c0.275,0.557,0.42,1.141,0.476,1.76c0.118,1.298-0.222,2.472-0.897,3.561
			c-0.287,0.463-0.601,0.908-0.902,1.361c-0.113,0.169-0.225,0.34-0.341,0.508c-0.528,0.766-0.693,1.617-0.582,2.527
			c0.068,0.562,0.158,1.119,0.349,1.659c0.512,1.457,0.881,2.951,1.155,4.471c0.188,1.045,0.128,2.075-0.054,3.11
			c-0.277,1.58-0.776,3.074-1.655,4.428c-0.036,0.056-0.054,0.123-0.09,0.206c0.054,0.249,0.265,0.401,0.425,0.584
			c1.031,1.18,2.009,2.4,2.833,3.736c0.2,0.325,0.396,0.653,0.587,0.973c0.192-0.026,0.173-0.166,0.174-0.26
			c0.008-0.521,0.029-1.043-0.01-1.562c-0.045-0.587-0.139-1.171-0.226-1.754c-0.222-1.476-0.153-2.944,0.155-4.396
			c0.193-0.908,0.432-1.81,0.705-2.696c0.18-0.582,0.432-1.146,0.701-1.694c0.787-1.603,2.006-2.782,3.602-3.576
			c0.491-0.243,1-0.427,1.537-0.534c0.713-0.143,1.429-0.256,2.157-0.268c1.091-0.017,2.094-0.301,3.022-0.893
			c0.726-0.463,1.469-0.904,2.275-1.221c0.443-0.175,0.896-0.321,1.378-0.348c2.56-0.139,3.903,1.564,4.351,3.172
			c0.406,1.456,0.149,2.831-0.666,4.101c-0.236,0.368-0.537,0.678-0.91,0.905c-0.701,0.426-1.439,0.771-2.254,0.922
			c-0.937,0.174-1.878,0.328-2.834,0.319c-0.695-0.006-1.35,0.126-1.973,0.432c-0.305,0.15-0.623,0.272-0.926,0.427
			c-1.04,0.532-1.716,1.386-2.141,2.455c-0.031,0.079-0.037,0.169-0.061,0.283c0.117,0.013,0.203,0.034,0.287,0.029
			c0.771-0.043,1.48,0.175,2.156,0.519c0.443,0.226,0.879,0.471,1.317,0.707c0.359,0.193,0.713,0.398,1.079,0.578
			c0.482,0.237,0.988,0.32,1.519,0.174c0.48-0.133,0.963-0.26,1.442-0.396c0.504-0.145,1.018-0.235,1.541-0.24
			c1.776-0.02,3.112,0.751,3.926,2.324c0.705,1.363,0.586,2.727-0.26,4c-0.547,0.821-1.256,1.493-2.125,1.972
			c-1.319,0.726-2.738,0.958-4.213,0.689c-1.803-0.328-3.49-0.966-4.986-2.055c-0.221-0.16-0.442-0.319-0.676-0.458
			c-0.668-0.396-1.254-0.894-1.811-1.43c-0.111-0.107-0.231-0.204-0.381-0.334c-1.059,2.071-1.999,4.166-3.703,5.822
			c0.061,0.104,0.111,0.226,0.189,0.325c0.381,0.488,0.834,0.897,1.387,1.182c0.605,0.311,1.211,0.62,1.83,0.9
			c0.955,0.434,1.958,0.695,3,0.847c1.368,0.199,2.73,0.444,4.092,0.691c1.095,0.198,2.168,0.487,3.212,0.877
			c0.145,0.054,0.297,0.087,0.438,0.128c0.188-0.211,0.155-0.451,0.165-0.67c0.037-0.806,0.271-1.559,0.581-2.294
			c0.523-1.239,1.236-2.37,1.98-3.482c0.467-0.697,0.932-1.396,1.382-2.104c0.574-0.902,1.017-1.871,1.386-2.873
			c0.361-0.981,0.432-1.99,0.266-3.017c-0.152-0.939-0.324-1.876-0.486-2.813c-0.304-1.757-0.387-3.517-0.027-5.274
			c0.122-0.599,0.313-1.183,0.47-1.773c0.176-0.657,0.339-1.317,0.528-1.97c0.258-0.889,0.242-1.788,0.175-2.698
			c-0.05-0.678-0.083-1.358-0.075-2.038c0.006-0.473,0.068-0.95,0.152-1.417c0.264-1.485,1.083-2.629,2.27-3.514
			c1.121-0.837,2.39-1.276,3.802-1.265c0.507,0.005,0.989,0.119,1.453,0.314c0.762,0.319,1.333,0.836,1.677,1.604
			c0.51,1.143,0.692,2.344,0.66,3.581c-0.008,0.289-0.09,0.582-0.17,0.864c-0.412,1.468-1.164,2.742-2.178,3.878
			c-0.619,0.692-1.205,1.416-1.781,2.145c-0.576,0.727-0.549,1.533-0.256,2.435c0.132-0.102,0.226-0.157,0.298-0.232
			c0.22-0.229,0.433-0.465,0.646-0.699c1.616-1.766,3.396-3.337,5.435-4.604c0.113-0.07,0.215-0.161,0.324-0.244
			c0.066-0.464,0.048-0.914-0.033-1.362c-0.219-1.205-0.46-2.403-0.842-3.571c-0.238-0.732-0.436-1.479-0.636-2.223
			c-0.287-1.066-0.341-2.158-0.176-3.24c0.302-1.979,1.425-3.403,3.167-4.334c0.929-0.496,1.932-0.795,3.004-0.734
			c1.238,0.07,2.209,0.613,2.861,1.688c0.367,0.604,0.459,1.273,0.462,1.961c0.003,0.57-0.117,1.125-0.249,1.678
			c-0.18,0.749-0.369,1.497-0.503,2.256c-0.202,1.148-0.13,2.302,0.034,3.451c0.002,0.019,0.027,0.035,0.071,0.087
			c0.075-0.068,0.169-0.124,0.22-0.206c0.443-0.712,0.891-1.423,1.315-2.146c0.626-1.064,0.845-2.237,0.88-3.455
			c0.049-1.681-0.52-3.163-1.496-4.497c-1.445-1.972-3.348-3.289-5.712-3.934c-1.708-0.466-3.443-0.803-5.194-1.059
			c-1.281-0.188-2.545-0.456-3.775-0.854c-2.221-0.72-4.177-1.899-5.753-3.622c-1.875-2.048-2.846-4.483-2.567-7.282
			c0.273-2.753,1.583-4.933,3.979-6.396c0.943-0.578,1.98-0.917,3.08-0.991c1.114-0.075,2.162,0.217,3.1,0.827
			c1.344,0.876,2.114,2.158,2.469,3.693c0.147,0.639,0.217,1.297,0.293,1.949c0.088,0.746,0.217,1.473,0.519,2.172
			c0.305,0.706,0.794,1.2,1.476,1.524c0.639,0.304,1.305,0.53,2.002,0.642c1.608,0.257,3.006,0.971,4.292,1.938
			c0.091,0.067,0.184,0.132,0.278,0.195c0.015,0.01,0.043,0.001,0.069,0.001c0.126-0.108,0.058-0.246,0.036-0.364
			c-0.159-0.854-0.164-1.713-0.129-2.576c0.033-0.853,0.235-1.662,0.613-2.421c0.313-0.629,0.658-1.242,1.01-1.85
			c0.297-0.51,0.633-0.995,0.933-1.502s0.593-1.02,0.862-1.543c0.875-1.696,0.782-3.371-0.193-4.989
			c-0.455-0.756-0.979-1.473-1.48-2.199c-0.322-0.466-0.682-0.908-0.994-1.38c-0.732-1.104-1.309-2.28-1.594-3.584
			c-0.156-0.712-0.232-1.433-0.196-2.161c0.031-0.639,0.134-1.268,0.39-1.855c0.987-2.271,2.627-3.848,5.03-4.522
			c2.063-0.58,4.003-0.169,5.786,0.977c1.248,0.802,2.165,1.904,2.846,3.227c0.898,1.748,1.334,3.605,1.447,5.551
			c0.031,0.521,0.067,1.042,0.072,1.563c0.006,0.68-0.017,1.359-0.028,2.039c-0.005,0.243-0.063,0.487,0.015,0.8
			c0.097-0.092,0.172-0.137,0.21-0.204c0.282-0.491,0.564-0.982,0.83-1.483c0.386-0.727,0.845-1.396,1.445-1.963
			c0.484-0.458,1.032-0.809,1.676-1.005c0.442-0.136,0.894-0.178,1.346-0.119c0.989,0.127,1.648,0.708,2.052,1.589
			c0.449,0.98,0.486,2.018,0.361,3.068c-0.176,1.483-0.661,2.875-1.353,4.184c-0.729,1.38-1.729,2.58-3.001,3.473
			c-1.737,1.221-3.679,1.736-5.809,1.213C201.634,168.345,201.543,168.339,201.371,168.313z"/>
		
			<ellipse transform="matrix(0.3691 -0.9294 0.9294 0.3691 -90.9861 219.2895)" fill="#545BA5" cx="116.022" cy="176.66" rx="6.411" ry="4.738"/>
		
			<ellipse transform="matrix(0.3691 -0.9294 0.9294 0.3691 -153.5125 249.4525)" fill="#545BA5" cx="106.976" cy="237.794" rx="6.411" ry="4.738"/>
		
			<ellipse transform="matrix(0.866 -0.5 0.5 0.866 -49.0403 117.0122)" fill="#545BA5" cx="193.819" cy="150.013" rx="5.079" ry="2.682"/>
		
			<ellipse transform="matrix(0.866 -0.5 0.5 0.866 -60.7812 109.3839)" fill="#545BA5" cx="173.715" cy="168.107" rx="5.079" ry="2.682"/>
		
			<ellipse transform="matrix(0.866 -0.5 0.5 0.866 -74.8601 113.914)" fill="#545BA5" cx="175.117" cy="196.635" rx="3.649" ry="2.235"/>
		
			<ellipse transform="matrix(0.866 -0.5 0.5 0.866 -70.3433 118.4081)" fill="#545BA5" cx="185.791" cy="190.472" rx="3.65" ry="2.235"/>
		
			<ellipse transform="matrix(0.8661 -0.4999 0.4999 0.8661 -90.7208 119.886)" fill="#545BA5" cx="178.39" cy="229.26" rx="3.65" ry="2.236"/>
		
			<ellipse transform="matrix(0.5 -0.866 0.866 0.5 -164.7461 254.7083)" fill="#545BA5" cx="138.208" cy="270.026" rx="2.96" ry="2.236"/>
		
			<ellipse transform="matrix(-0.5 -0.866 0.866 -0.5 68.3289 448.7979)" fill="#545BA5" cx="163.723" cy="204.674" rx="2.96" ry="2.235"/>
		
			<ellipse transform="matrix(-0.4999 -0.8661 0.8661 -0.4999 57.902 471.1115)" fill="#545BA5" cx="164.974" cy="218.838" rx="2.96" ry="2.236"/>
		<ellipse fill="#545BA5" cx="160.314" cy="241.799" rx="2.223" ry="1.679"/>
		<ellipse fill="#545BA5" cx="190.074" cy="211.994" rx="2.82" ry="2.13"/>
		
			<ellipse transform="matrix(0.9536 0.301 -0.301 0.9536 57.0802 -55.6905)" fill="#545BA5" cx="209.255" cy="157.379" rx="2.318" ry="1.751"/>
		
			<ellipse transform="matrix(0.7635 0.6458 -0.6458 0.7635 167.6747 -94.6053)" fill="#545BA5" cx="213.003" cy="181.625" rx="4.112" ry="2.681"/>
		
			<ellipse transform="matrix(0.7636 0.6457 -0.6457 0.7636 169.8316 -26.1904)" fill="#545BA5" cx="120.683" cy="218.838" rx="4.112" ry="3.426"/>
		
			<ellipse transform="matrix(0.7635 0.6458 -0.6458 0.7635 181.7432 -83.0019)" fill="#545BA5" cx="204.208" cy="206.665" rx="4.113" ry="2.682"/>
		
			<ellipse transform="matrix(0.7635 0.6458 -0.6458 0.7635 200.5103 -77.108)" fill="#545BA5" cx="205.54" cy="235.226" rx="3.43" ry="2.236"/>
		
			<ellipse transform="matrix(0.7635 0.6458 -0.6458 0.7635 157.3203 -46.404)" fill="#545BA5" cx="142.022" cy="191.611" rx="3.429" ry="2.236"/>
		
			<ellipse transform="matrix(0.7635 0.6458 -0.6458 0.7635 180.926 -35.5701)" fill="#545BA5" cx="139.032" cy="229.26" rx="3.429" ry="2.236"/>
	</g>
	<path fill="#CA9E67" d="M212.101,278.016c7.849,3.233,14.869,8.464,20.253,15.573c1.906,2.518,3.66,5.514,3.223,8.642
		c-0.794,5.679-7.74,7.861-13.424,8.625c-25.181,3.384-50.849,3.115-75.953-0.794c-1.653-0.257-3.436-0.598-4.566-1.832
		c-4.309-4.701,11.779-18.977,15.147-21.603c7.554-5.891,16.562-9.931,25.993-11.618
		C192.824,273.211,203.018,274.275,212.101,278.016z"/>
	<path fill="#CA9E67" d="M156.354,286.967c0.157-0.128,0.302-0.243,0.426-0.34c7.554-5.891,16.562-9.931,25.993-11.618
		c10.051-1.798,20.244-0.733,29.327,3.007c7.849,3.233,14.869,8.464,20.253,15.573c1.402,1.852,2.72,3.961,3.146,6.191
		c-6.735,2.907-14.733,4.988-17.337,5.518c-11.16,2.271-22.886,1.802-33.818-1.396C173.5,300.73,163.84,294.853,156.354,286.967z"/>
	<g>
		<path fill="#F49617" d="M126.08,306.626c4.9,5.349,18.8,6.252,24.532,6.635c1.769,0.118,3.616-0.16,5.177-0.96
			c-0.053,0.081-0.107,0.161-0.166,0.242c-1.438,2.003-3.906,3.063-6.356,3.345c-6.343,0.729-22.726,2.644-26.938-3.801
			C121.091,310.191,122.935,308.292,126.08,306.626z"/>
		<path fill="#FBBA12" d="M150.612,313.261c-5.732-0.383-19.632-1.286-24.532-6.635c6.246-3.308,17.631-5.693,20.269-5.289
			c4.706,0.723,13.136,5.357,9.44,10.964C154.229,313.101,152.381,313.379,150.612,313.261z"/>
	</g>
	<g>
		<path fill="#F49617" d="M168.845,317.764c0.032,0.172,0.079,0.343,0.151,0.509c0.604,1.403,2.277,1.94,3.76,2.313
			c3.318,0.836,6.752,1.647,10.133,1.116c0.708-0.111,1.477-0.349,2.003-0.797c-0.25,0.959-1.308,1.522-2.28,1.821
			c-3.271,1.007-6.785,0.69-10.189,0.334c-1.52-0.159-3.252-0.454-4.049-1.756C167.699,320.206,168.03,318.798,168.845,317.764z"/>
		<path fill="#FBBA12" d="M172.756,320.586c-1.482-0.373-3.155-0.91-3.76-2.313c-0.072-0.166-0.119-0.337-0.151-0.509
			c0.291-0.37,0.644-0.692,1.035-0.935c0.897-0.555,1.973-0.87,3.134-0.998c3.699-0.405,8.281,1.097,10.866,2.861
			c0.667,0.455,1.169,1.243,1.048,2.041c-0.009,0.059-0.021,0.115-0.036,0.172c-0.526,0.448-1.295,0.686-2.003,0.797
			C179.508,322.233,176.074,321.422,172.756,320.586z"/>
	</g>
</g>
</svg>
