<?xml version="1.0" encoding="utf-8"?>
<!-- Generator: Adobe Illustrator 16.0.0, SVG Export Plug-In . SVG Version: 6.00 Build 0)  -->
<!DOCTYPE svg PUBLIC "-//W3C//DTD SVG 1.1//EN" "http://www.w3.org/Graphics/SVG/1.1/DTD/svg11.dtd">
<svg version="1.1" id="Capa_1" xmlns="http://www.w3.org/2000/svg" xmlns:xlink="http://www.w3.org/1999/xlink" x="0px" y="0px"
	 width="400px" height="400px" viewBox="0 0 400 400" enable-background="new 0 0 400 400" xml:space="preserve">
<g>
	<g>
		<g>
			<linearGradient id="SVGID_1_" gradientUnits="userSpaceOnUse" x1="157.645" y1="100.8291" x2="242.3926" y2="100.8291">
				<stop  offset="0" style="stop-color:#9D0000"/>
				<stop  offset="0.5" style="stop-color:#BE0000"/>
				<stop  offset="1" style="stop-color:#9D0000"/>
			</linearGradient>
			<polygon fill="url(#SVGID_1_)" points="242.393,85.563 157.645,85.563 163.435,116.095 242.393,116.095 			"/>
			<g>
				<polygon opacity="0.75" fill="#9D0000" points="167.938,85.563 157.645,85.563 163.435,116.095 184.956,116.095 				"/>
			</g>
			<g>
				<polygon opacity="0.75" fill="#9D0000" points="232.095,85.563 242.393,85.563 236.596,116.095 215.077,116.095 				"/>
			</g>
			<linearGradient id="SVGID_2_" gradientUnits="userSpaceOnUse" x1="256.9971" y1="95.0576" x2="199.9409" y2="187.8431">
				<stop  offset="0" style="stop-color:#DB1A1F"/>
				<stop  offset="0.6736" style="stop-color:#DF1F24"/>
				<stop  offset="0.7059" style="stop-color:#DF1F24"/>
				<stop  offset="0.7301" style="stop-color:#D81C21"/>
				<stop  offset="0.8219" style="stop-color:#C41318"/>
				<stop  offset="0.9125" style="stop-color:#B70D12"/>
				<stop  offset="1" style="stop-color:#B30B10"/>
			</linearGradient>
			<polygon fill="url(#SVGID_2_)" points="242.405,85.563 182.661,186.476 217.33,186.476 272.535,103.009 			"/>
			
				<linearGradient id="SVGID_3_" gradientUnits="userSpaceOnUse" x1="-381.8057" y1="94.6152" x2="-327.8191" y2="187.7143" gradientTransform="matrix(-1 0 0 1 -125.5293 0)">
				<stop  offset="0" style="stop-color:#F0E8E5"/>
				<stop  offset="0.5785" style="stop-color:#EFE6E3"/>
				<stop  offset="0.8174" style="stop-color:#EBE0DC"/>
				<stop  offset="0.9934" style="stop-color:#E3D6D0"/>
				<stop  offset="1" style="stop-color:#E3D5CF"/>
			</linearGradient>
			<polygon fill="url(#SVGID_3_)" points="266.618,99.466 209.752,186.476 189.853,186.476 248.402,88.918 			"/>
			<polygon opacity="0.5" fill="#771A1F" points="205.221,148.375 182.661,186.476 217.33,186.476 224.313,175.92 			"/>
			
				<radialGradient id="SVGID_4_" cx="231.2061" cy="287.5684" r="10.7533" gradientTransform="matrix(2.1761 0 0 2.0899 -304.4492 -414.9434)" gradientUnits="userSpaceOnUse">
				<stop  offset="0.014" style="stop-color:#F6C054"/>
				<stop  offset="0.5351" style="stop-color:#FFEA72"/>
				<stop  offset="0.584" style="stop-color:#FFF071"/>
				<stop  offset="0.5912" style="stop-color:#FFF171"/>
				<stop  offset="0.8204" style="stop-color:#FFE05A"/>
				<stop  offset="0.9603" style="stop-color:#FFD44A"/>
			</radialGradient>
			<path fill="url(#SVGID_4_)" d="M198.846,170.964c-0.06,0-0.115,0-0.17,0c-0.059,0-0.115,0-0.17,0
				c-36.234,0-29.194,24.357-26.746,30.19c0.21-0.196,0.418-0.391,0.637-0.567c0.38-0.334,0.801-0.633,1.253-0.89
				c0.011-0.004,0.022-0.012,0.032-0.021c0.032-0.016,0.064-0.032,0.096-0.053c0.316-0.184,4.739-0.347,5.075-0.494
				c-2.053-7.217-6.788-19.39,19.652-19.561c0.055,0,0.111,0.008,0.17,0.008c0.056,0,0.111-0.008,0.17-0.008
				c26.436,0.171,21.701,12.344,19.645,19.561c0.34,0.146,4.76,0.31,5.078,0.494c0.029,0.021,0.064,0.037,0.098,0.053
				c0.009,0.008,0.018,0.017,0.035,0.021c0.45,0.257,0.867,0.556,1.249,0.89c0.222,0.176,0.425,0.371,0.638,0.567
				C228.035,195.321,235.074,170.964,198.846,170.964z"/>
			
				<radialGradient id="SVGID_5_" cx="231.2061" cy="287.5684" r="10.7533" gradientTransform="matrix(2.1761 0 0 2.0899 -304.4492 -414.9434)" gradientUnits="userSpaceOnUse">
				<stop  offset="0.014" style="stop-color:#F6C054"/>
				<stop  offset="0.5351" style="stop-color:#FFEA72"/>
				<stop  offset="0.584" style="stop-color:#FFF071"/>
				<stop  offset="0.5912" style="stop-color:#FFF171"/>
				<stop  offset="0.8204" style="stop-color:#FFE05A"/>
				<stop  offset="0.9603" style="stop-color:#FFD44A"/>
			</radialGradient>
			<path fill="url(#SVGID_5_)" d="M198.846,170.964c-0.06,0-0.115,0-0.17,0c-0.059,0-0.115,0-0.17,0
				c-36.234,0-29.194,24.357-26.746,30.19c0.21-0.196,0.418-0.391,0.637-0.567c0.38-0.334,0.801-0.633,1.253-0.89
				c0.011-0.004,0.022-0.012,0.032-0.021c0.032-0.016,0.064-0.032,0.096-0.053c0.316-0.184,4.739-0.347,5.075-0.494
				c-2.053-7.217-6.788-19.39,19.652-19.561c0.055,0,0.111,0.008,0.17,0.008c0.056,0,0.111-0.008,0.17-0.008
				c26.436,0.171,21.701,12.344,19.645,19.561c0.34,0.146,4.76,0.31,5.078,0.494c0.029,0.021,0.064,0.037,0.098,0.053
				c0.009,0.008,0.018,0.017,0.035,0.021c0.45,0.257,0.867,0.556,1.249,0.89c0.222,0.176,0.425,0.371,0.638,0.567
				C228.035,195.321,235.074,170.964,198.846,170.964z"/>
			
				<radialGradient id="SVGID_6_" cx="242.165" cy="282.9941" r="15.8174" gradientTransform="matrix(2.1761 0 0 2.0899 -304.4492 -414.9434)" gradientUnits="userSpaceOnUse">
				<stop  offset="0" style="stop-color:#FFFFC3"/>
				<stop  offset="0.9465" style="stop-color:#FFEA72"/>
			</radialGradient>
			<path opacity="0.75" fill="url(#SVGID_6_)" d="M198.846,170.964c-0.06,0-0.115,0-0.17,0c-0.059,0-0.115,0-0.17,0
				c-36.234,0-29.194,24.357-26.746,30.19c0.134-0.122,0.268-0.245,0.403-0.359c-2.75-7.454-7.15-28.851,26.342-28.851
				c0.06,0,0.111,0.004,0.17,0.004c0.056,0,0.111-0.004,0.17-0.004c33.491,0,29.088,21.397,26.338,28.851
				c0.137,0.114,0.271,0.237,0.404,0.359C228.035,195.321,235.074,170.964,198.846,170.964z"/>
			<linearGradient id="SVGID_7_" gradientUnits="userSpaceOnUse" x1="169.5518" y1="194.999" x2="227.782" y2="194.999">
				<stop  offset="0" style="stop-color:#AA7238"/>
				<stop  offset="0.253" style="stop-color:#C08443"/>
				<stop  offset="0.3544" style="stop-color:#BE8242"/>
				<stop  offset="0.3909" style="stop-color:#B87B3D"/>
				<stop  offset="0.417" style="stop-color:#AD7036"/>
				<stop  offset="0.438" style="stop-color:#9D5F2B"/>
				<stop  offset="0.4558" style="stop-color:#88491D"/>
				<stop  offset="0.4652" style="stop-color:#7A3A14"/>
				<stop  offset="0.6378" style="stop-color:#7C3C15"/>
				<stop  offset="0.7249" style="stop-color:#83441A"/>
				<stop  offset="0.7929" style="stop-color:#8E5123"/>
				<stop  offset="0.851" style="stop-color:#9E642F"/>
				<stop  offset="0.9028" style="stop-color:#B37C3E"/>
				<stop  offset="0.95" style="stop-color:#CD9B52"/>
				<stop  offset="0.993" style="stop-color:#EABE68"/>
				<stop  offset="1" style="stop-color:#F0C46C"/>
			</linearGradient>
			<path opacity="0.55" fill="url(#SVGID_7_)" d="M177.332,188.843c-2.729,0.817-5.366,1.286-7.744,2.816
				c0.215,4.094,1.414,7.683,2.172,9.495c0.21-0.196,0.418-0.391,0.637-0.567c0.38-0.334,0.801-0.633,1.253-0.89
				c0.011-0.004,0.022-0.012,0.032-0.021c0.032-0.016,0.064-0.032,0.096-0.053c0.316-0.184,4.739-0.347,5.075-0.494
				C178.007,196.15,176.707,192.321,177.332,188.843z"/>
			<linearGradient id="SVGID_8_" gradientUnits="userSpaceOnUse" x1="169.5317" y1="194.752" x2="227.7975" y2="194.752">
				<stop  offset="0" style="stop-color:#AA7238"/>
				<stop  offset="0.253" style="stop-color:#C08443"/>
				<stop  offset="0.3544" style="stop-color:#BE8242"/>
				<stop  offset="0.3909" style="stop-color:#B87B3D"/>
				<stop  offset="0.417" style="stop-color:#AD7036"/>
				<stop  offset="0.438" style="stop-color:#9D5F2B"/>
				<stop  offset="0.4558" style="stop-color:#88491D"/>
				<stop  offset="0.4652" style="stop-color:#7A3A14"/>
				<stop  offset="0.6378" style="stop-color:#7C3C15"/>
				<stop  offset="0.7249" style="stop-color:#83441A"/>
				<stop  offset="0.7929" style="stop-color:#8E5123"/>
				<stop  offset="0.851" style="stop-color:#9E642F"/>
				<stop  offset="0.9028" style="stop-color:#B37C3E"/>
				<stop  offset="0.95" style="stop-color:#CD9B52"/>
				<stop  offset="0.993" style="stop-color:#EABE68"/>
				<stop  offset="1" style="stop-color:#F0C46C"/>
			</linearGradient>
			<path opacity="0.55" fill="url(#SVGID_8_)" d="M219.918,188.35c0.85,3.604-0.535,7.654-1.428,10.781
				c0.34,0.146,4.764,0.31,5.078,0.494c0.029,0.021,0.064,0.037,0.098,0.053c0.009,0.008,0.018,0.017,0.035,0.021
				c0.45,0.257,0.867,0.556,1.249,0.89c0.222,0.176,0.425,0.371,0.638,0.567c0.773-1.849,2.006-5.555,2.185-9.755
				C224.865,189.607,220.648,188.578,219.918,188.35z"/>
			
				<radialGradient id="SVGID_9_" cx="231.207" cy="288.8613" r="8.6589" gradientTransform="matrix(2.1761 0 0 2.0899 -304.4492 -414.9434)" gradientUnits="userSpaceOnUse">
				<stop  offset="0.3369" style="stop-color:#FFEA72"/>
				<stop  offset="0.9913" style="stop-color:#B35C00"/>
			</radialGradient>
			<path opacity="0.55" fill="url(#SVGID_9_)" d="M198.829,177.504c-0.056,0-0.102,0.004-0.153,0.004
				c-0.051,0-0.102-0.004-0.153-0.004c-25.741,0-24.714,13.278-23.053,22.516c0.155-0.106,3.047-0.743,3.383-0.89
				c-2.053-7.217-6.788-19.39,19.652-19.561c0.055,0,0.111,0.008,0.17,0.008c0.056,0,0.111-0.008,0.17-0.008
				c26.436,0.171,21.701,12.344,19.645,19.561c0.34,0.146,3.234,0.783,3.387,0.89C223.539,190.783,224.568,177.504,198.829,177.504z
				"/>
			<linearGradient id="SVGID_10_" gradientUnits="userSpaceOnUse" x1="142.7539" y1="94.3447" x2="197.9481" y2="188.175">
				<stop  offset="0" style="stop-color:#DB1A1F"/>
				<stop  offset="0.6736" style="stop-color:#DF1F24"/>
				<stop  offset="0.7059" style="stop-color:#DF1F24"/>
				<stop  offset="0.7301" style="stop-color:#D81C21"/>
				<stop  offset="0.8219" style="stop-color:#C41318"/>
				<stop  offset="0.9125" style="stop-color:#B70D12"/>
				<stop  offset="1" style="stop-color:#B30B10"/>
			</linearGradient>
			<polygon fill="url(#SVGID_10_)" points="127.464,103.009 182.669,186.476 217.334,186.476 157.592,85.563 			"/>
			<linearGradient id="SVGID_11_" gradientUnits="userSpaceOnUse" x1="143.9238" y1="94.6162" x2="197.9099" y2="187.7145">
				<stop  offset="0" style="stop-color:#F0E8E5"/>
				<stop  offset="0.5785" style="stop-color:#EFE6E3"/>
				<stop  offset="0.8174" style="stop-color:#EBE0DC"/>
				<stop  offset="0.9934" style="stop-color:#E3D6D0"/>
				<stop  offset="1" style="stop-color:#E3D5CF"/>
			</linearGradient>
			<polygon fill="url(#SVGID_11_)" points="133.583,99.466 190.447,186.476 210.347,186.476 151.796,88.918 			"/>
			<g>
				<defs>
					<ellipse id="SVGID_12_" cx="198.844" cy="233.246" rx="48.109" ry="46.204"/>
				</defs>
				<clipPath id="SVGID_13_">
					<use xlink:href="#SVGID_12_"  overflow="visible"/>
				</clipPath>
				
					<radialGradient id="SVGID_14_" cx="215.9043" cy="325.5156" r="42.9401" gradientTransform="matrix(2.1761 0 0 2.0899 -304.4492 -414.9434)" gradientUnits="userSpaceOnUse">
					<stop  offset="0.014" style="stop-color:#F6C054"/>
					<stop  offset="0.2995" style="stop-color:#F2A942"/>
					<stop  offset="0.5351" style="stop-color:#FFEA72"/>
					<stop  offset="0.584" style="stop-color:#FFF071"/>
					<stop  offset="0.5912" style="stop-color:#FFF171"/>
					<stop  offset="0.7579" style="stop-color:#FADA61"/>
					<stop  offset="0.9603" style="stop-color:#F3B94A"/>
				</radialGradient>
				<ellipse clip-path="url(#SVGID_13_)" fill="url(#SVGID_14_)" cx="198.844" cy="233.246" rx="48.109" ry="46.204"/>
				
					<radialGradient id="SVGID_15_" cx="207.9521" cy="262.7578" r="21.4701" gradientTransform="matrix(4.3522 0 0 4.1799 -739.6641 -832.9336)" gradientUnits="userSpaceOnUse">
					<stop  offset="0" style="stop-color:#FFFFC3"/>
					<stop  offset="0.9465" style="stop-color:#FFEA72"/>
				</radialGradient>
				<path opacity="0.75" clip-path="url(#SVGID_13_)" fill="url(#SVGID_15_)" d="M198.846,187.04
					c-26.57,0-48.11,20.687-48.11,46.207c0,25.517,21.54,46.204,48.11,46.204c26.567,0,48.107-20.688,48.107-46.204
					C246.953,207.727,225.413,187.04,198.846,187.04z M198.846,278.168c-25.834,0-46.775-20.111-46.775-44.922
					c0-24.809,20.94-44.925,46.775-44.925c25.832,0,46.773,20.116,46.773,44.925C245.619,258.057,224.678,278.168,198.846,278.168z"
					/>
				<linearGradient id="SVGID_16_" gradientUnits="userSpaceOnUse" x1="227.7178" y1="209.9277" x2="169.8819" y2="256.6342">
					<stop  offset="0.4846" style="stop-color:#CC9434"/>
					<stop  offset="0.6795" style="stop-color:#FFEA72"/>
					<stop  offset="0.7638" style="stop-color:#FFE76C"/>
					<stop  offset="0.8718" style="stop-color:#FFDE5C"/>
					<stop  offset="0.9603" style="stop-color:#FFD44A"/>
				</linearGradient>
				<path opacity="0.75" clip-path="url(#SVGID_13_)" fill="url(#SVGID_16_)" d="M236.854,233.246
					c0,20.161-17.018,36.506-38.009,36.506c-20.996,0-38.011-16.345-38.011-36.506c0-20.164,17.015-36.508,38.011-36.508
					C219.837,196.738,236.854,213.082,236.854,233.246z"/>
				<linearGradient id="SVGID_17_" gradientUnits="userSpaceOnUse" x1="182.0342" y1="199.4873" x2="215.5685" y2="266.8308">
					<stop  offset="0.4846" style="stop-color:#CC9434"/>
					<stop  offset="0.6795" style="stop-color:#FFEA72"/>
					<stop  offset="0.7638" style="stop-color:#FFE76C"/>
					<stop  offset="0.8718" style="stop-color:#FFDE5C"/>
					<stop  offset="0.9603" style="stop-color:#FFD44A"/>
				</linearGradient>
				<path opacity="0.32" clip-path="url(#SVGID_13_)" fill="url(#SVGID_17_)" d="M236.854,233.246
					c0,20.161-17.018,36.506-38.009,36.506c-20.996,0-38.011-16.345-38.011-36.506c0-20.164,17.015-36.508,38.011-36.508
					C219.837,196.738,236.854,213.082,236.854,233.246z"/>
				<linearGradient id="SVGID_18_" gradientUnits="userSpaceOnUse" x1="222.5596" y1="212.2803" x2="172.0677" y2="256.914">
					<stop  offset="0.014" style="stop-color:#F6C054"/>
					<stop  offset="0.5351" style="stop-color:#FFEA72"/>
					<stop  offset="0.584" style="stop-color:#FFF071"/>
					<stop  offset="0.5912" style="stop-color:#FFF171"/>
					<stop  offset="0.8204" style="stop-color:#FFE05A"/>
					<stop  offset="0.9603" style="stop-color:#FFD44A"/>
				</linearGradient>
				<path clip-path="url(#SVGID_13_)" fill="url(#SVGID_18_)" d="M235.575,233.246c0,19.484-16.443,35.276-36.729,35.276
					c-20.291,0-36.734-15.792-36.734-35.276c0-19.486,16.443-35.279,36.734-35.279C219.132,197.967,235.575,213.76,235.575,233.246z
					"/>
				<g opacity="0.75" clip-path="url(#SVGID_13_)">
					<g opacity="0.85">
						<g>
							<linearGradient id="SVGID_19_" gradientUnits="userSpaceOnUse" x1="227.8623" y1="236.4336" x2="230.0879" y2="236.4336">
								<stop  offset="0" style="stop-color:#F3CE5E"/>
								<stop  offset="1" style="stop-color:#F2BE4A"/>
							</linearGradient>
							<path fill="url(#SVGID_19_)" d="M228.81,237.483c-0.604-0.089-1.024-0.612-0.936-1.167c0.072-0.556,0.562-0.98,1.182-0.943
								c0.604,0.037,1.101,0.568,1.024,1.176C229.982,237.157,229.412,237.573,228.81,237.483z"/>
						</g>
						<g>
							<linearGradient id="SVGID_20_" gradientUnits="userSpaceOnUse" x1="227.0459" y1="240.6172" x2="229.2637" y2="240.6172">
								<stop  offset="0" style="stop-color:#F3CE5E"/>
								<stop  offset="1" style="stop-color:#F2BE4A"/>
							</linearGradient>
							<path fill="url(#SVGID_20_)" d="M227.874,241.64c-0.583-0.172-0.943-0.756-0.795-1.298c0.146-0.547,0.753-0.891,1.347-0.764
								c0.6,0.122,0.957,0.706,0.801,1.298C229.064,241.468,228.461,241.811,227.874,241.64z"/>
						</g>
						<g>
							<linearGradient id="SVGID_21_" gradientUnits="userSpaceOnUse" x1="225.6348" y1="244.6357" x2="227.8564" y2="244.6357">
								<stop  offset="0" style="stop-color:#F3CE5E"/>
								<stop  offset="1" style="stop-color:#F2BE4A"/>
							</linearGradient>
							<path fill="url(#SVGID_21_)" d="M226.276,245.599c-0.553-0.253-0.795-0.87-0.54-1.375c0.208-0.523,0.828-0.788,1.407-0.58
								c0.569,0.208,0.866,0.845,0.633,1.416C227.5,245.606,226.828,245.853,226.276,245.599z"/>
						</g>
						<g>
							<linearGradient id="SVGID_22_" gradientUnits="userSpaceOnUse" x1="223.6045" y1="248.4189" x2="225.8184" y2="248.4189">
								<stop  offset="0" style="stop-color:#F3CE5E"/>
								<stop  offset="1" style="stop-color:#F2BE4A"/>
							</linearGradient>
							<path fill="url(#SVGID_22_)" d="M224.125,249.313c-0.51-0.326-0.671-0.982-0.369-1.464c0.302-0.479,0.982-0.637,1.521-0.356
								c0.535,0.286,0.701,0.943,0.37,1.471C225.315,249.485,224.635,249.641,224.125,249.313z"/>
						</g>
						<g>
							<linearGradient id="SVGID_23_" gradientUnits="userSpaceOnUse" x1="221.0303" y1="251.8672" x2="223.25" y2="251.8672">
								<stop  offset="0" style="stop-color:#F3CE5E"/>
								<stop  offset="1" style="stop-color:#F2BE4A"/>
							</linearGradient>
							<path fill="url(#SVGID_23_)" d="M221.406,252.66c-0.455-0.396-0.502-1.053-0.111-1.47c0.374-0.433,1.037-0.521,1.525-0.163
								c0.48,0.355,0.582,1.054,0.18,1.527C222.57,253.012,221.855,253.057,221.406,252.66z"/>
						</g>
						<g>
							<linearGradient id="SVGID_24_" gradientUnits="userSpaceOnUse" x1="217.9678" y1="254.9277" x2="220.1748" y2="254.9277">
								<stop  offset="0" style="stop-color:#F3CE5E"/>
								<stop  offset="1" style="stop-color:#F2BE4A"/>
							</linearGradient>
							<path fill="url(#SVGID_24_)" d="M218.234,255.633c-0.387-0.458-0.348-1.136,0.082-1.512c0.432-0.375,1.135-0.342,1.559,0.078
								c0.43,0.421,0.392,1.098-0.076,1.507C219.322,256.122,218.626,256.081,218.234,255.633z"/>
						</g>
						<g>
							<linearGradient id="SVGID_25_" gradientUnits="userSpaceOnUse" x1="214.457" y1="257.5273" x2="216.6777" y2="257.5273">
								<stop  offset="0" style="stop-color:#F3CE5E"/>
								<stop  offset="1" style="stop-color:#F2BE4A"/>
							</linearGradient>
							<path fill="url(#SVGID_25_)" d="M214.622,258.081c-0.314-0.502-0.165-1.147,0.335-1.438c0.498-0.298,1.148-0.215,1.514,0.27
								c0.354,0.466,0.252,1.176-0.285,1.502C215.638,258.734,214.941,258.588,214.622,258.081z"/>
						</g>
						<g>
							<linearGradient id="SVGID_26_" gradientUnits="userSpaceOnUse" x1="210.6133" y1="259.5996" x2="212.8203" y2="259.5996">
								<stop  offset="0" style="stop-color:#F3CE5E"/>
								<stop  offset="1" style="stop-color:#F2BE4A"/>
							</linearGradient>
							<path fill="url(#SVGID_26_)" d="M210.703,260.057c-0.233-0.543,0-1.184,0.527-1.429c0.527-0.244,1.186-0.017,1.471,0.507
								c0.28,0.518,0.051,1.159-0.527,1.424C211.6,260.824,210.941,260.596,210.703,260.057z"/>
						</g>
						<g>
							<linearGradient id="SVGID_27_" gradientUnits="userSpaceOnUse" x1="206.4688" y1="261.1309" x2="208.6875" y2="261.1309">
								<stop  offset="0" style="stop-color:#F3CE5E"/>
								<stop  offset="1" style="stop-color:#F2BE4A"/>
							</linearGradient>
							<path fill="url(#SVGID_27_)" d="M206.504,261.396c-0.148-0.571,0.188-1.143,0.757-1.281c0.565-0.146,1.165,0.113,1.368,0.678
								c0.196,0.547-0.114,1.204-0.73,1.359C207.277,262.302,206.657,261.968,206.504,261.396z"/>
						</g>
						<g>
							<linearGradient id="SVGID_28_" gradientUnits="userSpaceOnUse" x1="202.1543" y1="262.0293" x2="204.3691" y2="262.0293">
								<stop  offset="0" style="stop-color:#F3CE5E"/>
								<stop  offset="1" style="stop-color:#F2BE4A"/>
							</linearGradient>
							<path fill="url(#SVGID_28_)" d="M202.16,262.188c-0.063-0.583,0.357-1.126,0.936-1.212s1.139,0.313,1.254,0.894
								c0.115,0.575-0.302,1.119-0.936,1.212C202.781,263.175,202.221,262.775,202.16,262.188z"/>
						</g>
						<g>
							<linearGradient id="SVGID_29_" gradientUnits="userSpaceOnUse" x1="197.7397" y1="262.3711" x2="199.9512" y2="262.3711">
								<stop  offset="0" style="stop-color:#F3CE5E"/>
								<stop  offset="1" style="stop-color:#F2BE4A"/>
							</linearGradient>
							<path fill="url(#SVGID_29_)" d="M197.741,262.317c0.025-0.587,0.518-1.04,1.105-1.012c0.586-0.028,1.08,0.425,1.104,1.012
								c0.026,0.588-0.467,1.087-1.104,1.119C198.208,263.404,197.715,262.905,197.741,262.317z"/>
						</g>
						<g>
							<linearGradient id="SVGID_30_" gradientUnits="userSpaceOnUse" x1="193.3198" y1="262.0293" x2="195.5361" y2="262.0293">
								<stop  offset="0" style="stop-color:#F3CE5E"/>
								<stop  offset="1" style="stop-color:#F2BE4A"/>
							</linearGradient>
							<path fill="url(#SVGID_30_)" d="M193.338,261.869c0.119-0.58,0.679-0.979,1.258-0.894c0.578,0.086,0.994,0.629,0.935,1.212
								c-0.063,0.588-0.629,0.987-1.258,0.894C193.644,262.988,193.227,262.444,193.338,261.869z"/>
						</g>
						<g>
							<linearGradient id="SVGID_31_" gradientUnits="userSpaceOnUse" x1="189.0034" y1="261.1309" x2="191.2178" y2="261.1309">
								<stop  offset="0" style="stop-color:#F3CE5E"/>
								<stop  offset="1" style="stop-color:#F2BE4A"/>
							</linearGradient>
							<path fill="url(#SVGID_31_)" d="M189.062,260.792c0.204-0.564,0.799-0.824,1.368-0.678c0.565,0.139,0.901,0.71,0.752,1.281
								c-0.149,0.572-0.773,0.906-1.39,0.756C189.172,261.996,188.867,261.339,189.062,260.792z"/>
						</g>
						<g>
							<linearGradient id="SVGID_32_" gradientUnits="userSpaceOnUse" x1="184.8672" y1="259.5996" x2="187.0737" y2="259.5996">
								<stop  offset="0" style="stop-color:#F3CE5E"/>
								<stop  offset="1" style="stop-color:#F2BE4A"/>
							</linearGradient>
							<path fill="url(#SVGID_32_)" d="M184.99,259.135c0.281-0.523,0.939-0.751,1.466-0.507c0.527,0.245,0.761,0.886,0.527,1.429
								c-0.233,0.539-0.896,0.768-1.466,0.502C184.939,260.294,184.701,259.652,184.99,259.135z"/>
						</g>
						<g>
							<linearGradient id="SVGID_33_" gradientUnits="userSpaceOnUse" x1="181.0098" y1="257.5273" x2="183.2295" y2="257.5273">
								<stop  offset="0" style="stop-color:#F3CE5E"/>
								<stop  offset="1" style="stop-color:#F2BE4A"/>
							</linearGradient>
							<path fill="url(#SVGID_33_)" d="M181.216,256.913c0.365-0.484,1.02-0.567,1.513-0.27c0.501,0.29,0.65,0.936,0.335,1.438
								c-0.319,0.507-1.015,0.653-1.56,0.334C180.965,258.089,180.863,257.379,181.216,256.913z"/>
						</g>
						<g>
							<linearGradient id="SVGID_34_" gradientUnits="userSpaceOnUse" x1="177.5132" y1="254.9277" x2="179.7207" y2="254.9277">
								<stop  offset="0" style="stop-color:#F3CE5E"/>
								<stop  offset="1" style="stop-color:#F2BE4A"/>
							</linearGradient>
							<path fill="url(#SVGID_34_)" d="M177.816,254.199c0.425-0.42,1.122-0.453,1.555-0.078c0.434,0.376,0.468,1.054,0.081,1.512
								c-0.387,0.448-1.088,0.489-1.56,0.073C177.421,255.297,177.383,254.62,177.816,254.199z"/>
						</g>
						<g>
							<linearGradient id="SVGID_35_" gradientUnits="userSpaceOnUse" x1="174.4385" y1="251.8672" x2="176.6587" y2="251.8672">
								<stop  offset="0" style="stop-color:#F3CE5E"/>
								<stop  offset="1" style="stop-color:#F2BE4A"/>
							</linearGradient>
							<path fill="url(#SVGID_35_)" d="M174.869,251.027c0.491-0.358,1.154-0.27,1.523,0.163c0.395,0.417,0.344,1.074-0.106,1.47
								c-0.453,0.396-1.169,0.352-1.596-0.105C174.286,252.081,174.386,251.383,174.869,251.027z"/>
						</g>
						<g>
							<linearGradient id="SVGID_36_" gradientUnits="userSpaceOnUse" x1="171.8711" y1="248.4189" x2="174.085" y2="248.4189">
								<stop  offset="0" style="stop-color:#F3CE5E"/>
								<stop  offset="1" style="stop-color:#F2BE4A"/>
							</linearGradient>
							<path fill="url(#SVGID_36_)" d="M172.412,247.492c0.536-0.28,1.218-0.122,1.522,0.356c0.304,0.481,0.136,1.138-0.372,1.464
								c-0.508,0.328-1.188,0.173-1.519-0.35C171.71,248.436,171.876,247.778,172.412,247.492z"/>
						</g>
						<g>
							<linearGradient id="SVGID_37_" gradientUnits="userSpaceOnUse" x1="169.8335" y1="244.6357" x2="172.0542" y2="244.6357">
								<stop  offset="0" style="stop-color:#F3CE5E"/>
								<stop  offset="1" style="stop-color:#F2BE4A"/>
							</linearGradient>
							<path fill="url(#SVGID_37_)" d="M170.546,243.644c0.576-0.208,1.196,0.057,1.406,0.58c0.255,0.505,0.013,1.122-0.54,1.375
								c-0.552,0.254-1.224,0.008-1.5-0.539C169.681,244.488,169.977,243.852,170.546,243.644z"/>
						</g>
						<g>
							<linearGradient id="SVGID_38_" gradientUnits="userSpaceOnUse" x1="168.4253" y1="240.6172" x2="170.6421" y2="240.6172">
								<stop  offset="0" style="stop-color:#F3CE5E"/>
								<stop  offset="1" style="stop-color:#F2BE4A"/>
							</linearGradient>
							<path fill="url(#SVGID_38_)" d="M169.26,239.578c0.599-0.127,1.203,0.217,1.35,0.764c0.145,0.542-0.212,1.126-0.797,1.298
								c-0.586,0.171-1.19-0.172-1.35-0.764C168.304,240.284,168.663,239.7,169.26,239.578z"/>
						</g>
						<g>
							<linearGradient id="SVGID_39_" gradientUnits="userSpaceOnUse" x1="167.6011" y1="236.4336" x2="169.8252" y2="236.4336">
								<stop  offset="0" style="stop-color:#F3CE5E"/>
								<stop  offset="1" style="stop-color:#F2BE4A"/>
							</linearGradient>
							<path fill="url(#SVGID_39_)" d="M168.634,235.373c0.62-0.037,1.107,0.388,1.179,0.943c0.089,0.555-0.329,1.078-0.935,1.167
								c-0.605,0.09-1.173-0.326-1.269-0.935C167.531,235.941,168.032,235.41,168.634,235.373z"/>
						</g>
						<g>
							<linearGradient id="SVGID_40_" gradientUnits="userSpaceOnUse" x1="167.4673" y1="232.1836" x2="169.6865" y2="232.1836">
								<stop  offset="0" style="stop-color:#F3CE5E"/>
								<stop  offset="1" style="stop-color:#F2BE4A"/>
							</linearGradient>
							<path fill="url(#SVGID_40_)" d="M168.634,231.125c0.609,0.048,1.082,0.538,1.051,1.102c-0.029,0.559-0.55,1.02-1.164,1.02
								c-0.612,0.009-1.084-0.489-1.052-1.098C167.501,231.537,168.024,231.079,168.634,231.125z"/>
						</g>
						<g>
							<linearGradient id="SVGID_41_" gradientUnits="userSpaceOnUse" x1="167.9414" y1="227.959" x2="170.1445" y2="227.959">
								<stop  offset="0" style="stop-color:#F3CE5E"/>
								<stop  offset="1" style="stop-color:#F2BE4A"/>
							</linearGradient>
							<path fill="url(#SVGID_41_)" d="M169.26,226.92c0.601,0.13,0.944,0.673,0.875,1.232c-0.087,0.555-0.65,0.939-1.258,0.862
								c-0.605-0.083-1.02-0.642-0.922-1.246C168.032,227.156,168.667,226.79,169.26,226.92z"/>
						</g>
						<g>
							<linearGradient id="SVGID_42_" gradientUnits="userSpaceOnUse" x1="169.041" y1="223.8438" x2="171.2783" y2="223.8438">
								<stop  offset="0" style="stop-color:#F3CE5E"/>
								<stop  offset="1" style="stop-color:#F2BE4A"/>
							</linearGradient>
							<path fill="url(#SVGID_42_)" d="M170.546,222.854c0.571,0.212,0.871,0.815,0.669,1.339c-0.214,0.525-0.827,0.828-1.402,0.665
								c-0.6-0.168-0.929-0.779-0.697-1.352C169.335,222.937,169.977,222.642,170.546,222.854z"/>
						</g>
						<g>
							<linearGradient id="SVGID_43_" gradientUnits="userSpaceOnUse" x1="170.7905" y1="219.9336" x2="172.9829" y2="219.9336">
								<stop  offset="0" style="stop-color:#F3CE5E"/>
								<stop  offset="1" style="stop-color:#F2BE4A"/>
							</linearGradient>
							<path fill="url(#SVGID_43_)" d="M172.412,219.001c0.531,0.294,0.704,0.914,0.468,1.429c-0.253,0.506-0.91,0.718-1.467,0.469
								c-0.554-0.248-0.782-0.894-0.503-1.444C171.169,218.895,171.878,218.711,172.412,219.001z"/>
						</g>
						<g>
							<linearGradient id="SVGID_44_" gradientUnits="userSpaceOnUse" x1="173.0742" y1="216.3066" x2="175.3125" y2="216.3066">
								<stop  offset="0" style="stop-color:#F3CE5E"/>
								<stop  offset="1" style="stop-color:#F2BE4A"/>
							</linearGradient>
							<path fill="url(#SVGID_44_)" d="M174.869,215.466c0.48,0.362,0.588,1.024,0.238,1.474c-0.361,0.445-1.042,0.559-1.545,0.245
								c-0.523-0.331-0.65-1.001-0.259-1.485C173.685,215.209,174.386,215.106,174.869,215.466z"/>
						</g>
						<g>
							<linearGradient id="SVGID_45_" gradientUnits="userSpaceOnUse" x1="175.9258" y1="213.043" x2="178.1235" y2="213.043">
								<stop  offset="0" style="stop-color:#F3CE5E"/>
								<stop  offset="1" style="stop-color:#F2BE4A"/>
							</linearGradient>
							<path fill="url(#SVGID_45_)" d="M177.816,212.299c0.425,0.432,0.391,1.061,0.013,1.489c-0.396,0.417-1.083,0.437-1.542,0.049
								c-0.459-0.388-0.483-1.073-0.053-1.526C176.647,211.841,177.395,211.879,177.816,212.299z"/>
						</g>
						<g>
							<linearGradient id="SVGID_46_" gradientUnits="userSpaceOnUse" x1="179.2007" y1="210.21" x2="181.4326" y2="210.21">
								<stop  offset="0" style="stop-color:#F3CE5E"/>
								<stop  offset="1" style="stop-color:#F2BE4A"/>
							</linearGradient>
							<path fill="url(#SVGID_46_)" d="M181.216,209.584c0.357,0.478,0.263,1.143-0.208,1.482c-0.472,0.334-1.169,0.24-1.556-0.197
								c-0.404-0.465-0.311-1.127,0.2-1.494S180.863,209.105,181.216,209.584z"/>
						</g>
						<g>
							<linearGradient id="SVGID_47_" gradientUnits="userSpaceOnUse" x1="182.9048" y1="207.8584" x2="185.1118" y2="207.8584">
								<stop  offset="0" style="stop-color:#F3CE5E"/>
								<stop  offset="1" style="stop-color:#F2BE4A"/>
							</linearGradient>
							<path fill="url(#SVGID_47_)" d="M184.99,207.367c0.281,0.539,0.051,1.109-0.434,1.425c-0.501,0.29-1.169,0.122-1.492-0.38
								c-0.323-0.498-0.14-1.159,0.404-1.478C184.004,206.6,184.718,206.854,184.99,207.367z"/>
						</g>
						<g>
							<linearGradient id="SVGID_48_" gradientUnits="userSpaceOnUse" x1="186.8936" y1="206.0664" x2="189.123" y2="206.0664">
								<stop  offset="0" style="stop-color:#F3CE5E"/>
								<stop  offset="1" style="stop-color:#F2BE4A"/>
							</linearGradient>
							<path fill="url(#SVGID_48_)" d="M189.062,205.705c0.195,0.561-0.094,1.168-0.646,1.36c-0.544,0.196-1.194-0.099-1.433-0.62
								c-0.25-0.556,0.042-1.156,0.642-1.372C188.225,204.865,188.867,205.146,189.062,205.705z"/>
						</g>
						<g>
							<linearGradient id="SVGID_49_" gradientUnits="userSpaceOnUse" x1="191.1465" y1="204.832" x2="193.3564" y2="204.832">
								<stop  offset="0" style="stop-color:#F3CE5E"/>
								<stop  offset="1" style="stop-color:#F2BE4A"/>
							</linearGradient>
							<path fill="url(#SVGID_49_)" d="M193.338,204.629c0.11,0.592-0.281,1.082-0.842,1.244c-0.57,0.143-1.156-0.203-1.313-0.771
								c-0.157-0.566,0.212-1.154,0.829-1.302C192.627,203.621,193.235,204.061,193.338,204.629z"/>
						</g>
						<g>
							<linearGradient id="SVGID_50_" gradientUnits="userSpaceOnUse" x1="195.522" y1="204.2324" x2="197.7412" y2="204.2324">
								<stop  offset="0" style="stop-color:#F3CE5E"/>
								<stop  offset="1" style="stop-color:#F2BE4A"/>
							</linearGradient>
							<path fill="url(#SVGID_50_)" d="M197.741,204.18c0.017,0.588-0.442,1.09-1.028,1.114c-0.587,0.024-1.114-0.417-1.182-0.988
								c-0.076-0.596,0.382-1.11,1.02-1.134C197.188,203.139,197.719,203.592,197.741,204.18z"/>
						</g>
						<g>
							<linearGradient id="SVGID_51_" gradientUnits="userSpaceOnUse" x1="199.9497" y1="204.2324" x2="202.167" y2="204.2324">
								<stop  offset="0" style="stop-color:#F3CE5E"/>
								<stop  offset="1" style="stop-color:#F2BE4A"/>
							</linearGradient>
							<path fill="url(#SVGID_51_)" d="M202.16,204.306c-0.067,0.571-0.599,1.013-1.181,0.988c-0.587-0.024-1.045-0.526-1.029-1.114
								c0.017-0.588,0.548-1.041,1.187-1.008C201.773,203.195,202.229,203.71,202.16,204.306z"/>
						</g>
						<g>
							<linearGradient id="SVGID_52_" gradientUnits="userSpaceOnUse" x1="204.332" y1="204.832" x2="206.542" y2="204.832">
								<stop  offset="0" style="stop-color:#F3CE5E"/>
								<stop  offset="1" style="stop-color:#F2BE4A"/>
							</linearGradient>
							<path fill="url(#SVGID_52_)" d="M206.504,205.102c-0.152,0.568-0.743,0.914-1.309,0.771
								c-0.561-0.162-0.952-0.652-0.846-1.244c0.105-0.568,0.709-1.008,1.322-0.829
								C206.292,203.947,206.666,204.535,206.504,205.102z"/>
						</g>
						<g>
							<linearGradient id="SVGID_53_" gradientUnits="userSpaceOnUse" x1="208.5674" y1="206.0664" x2="210.793" y2="206.0664">
								<stop  offset="0" style="stop-color:#F3CE5E"/>
								<stop  offset="1" style="stop-color:#F2BE4A"/>
							</linearGradient>
							<path fill="url(#SVGID_53_)" d="M210.703,206.445c-0.238,0.521-0.884,0.816-1.432,0.62c-0.549-0.192-0.838-0.8-0.643-1.36
								c0.191-0.559,0.834-0.84,1.438-0.632C210.661,205.289,210.954,205.89,210.703,206.445z"/>
						</g>
						<g>
							<linearGradient id="SVGID_54_" gradientUnits="userSpaceOnUse" x1="212.5771" y1="207.8584" x2="214.7832" y2="207.8584">
								<stop  offset="0" style="stop-color:#F3CE5E"/>
								<stop  offset="1" style="stop-color:#F2BE4A"/>
							</linearGradient>
							<path fill="url(#SVGID_54_)" d="M214.622,208.412c-0.323,0.502-0.985,0.67-1.487,0.38c-0.489-0.315-0.719-0.886-0.434-1.425
								c0.268-0.514,0.986-0.768,1.521-0.433C214.767,207.253,214.945,207.914,214.622,208.412z"/>
						</g>
						<g>
							<linearGradient id="SVGID_55_" gradientUnits="userSpaceOnUse" x1="216.2578" y1="210.21" x2="218.4893" y2="210.21">
								<stop  offset="0" style="stop-color:#F3CE5E"/>
								<stop  offset="1" style="stop-color:#F2BE4A"/>
							</linearGradient>
							<path fill="url(#SVGID_55_)" d="M218.234,210.869c-0.383,0.438-1.084,0.531-1.555,0.197c-0.468-0.34-0.562-1.005-0.209-1.482
								c0.354-0.479,1.055-0.576,1.568-0.209C218.549,209.742,218.643,210.404,218.234,210.869z"/>
						</g>
						<g>
							<linearGradient id="SVGID_56_" gradientUnits="userSpaceOnUse" x1="219.5674" y1="213.043" x2="221.7646" y2="213.043">
								<stop  offset="0" style="stop-color:#F3CE5E"/>
								<stop  offset="1" style="stop-color:#F2BE4A"/>
							</linearGradient>
							<path fill="url(#SVGID_56_)" d="M221.406,213.837c-0.46,0.388-1.152,0.368-1.548-0.049c-0.374-0.429-0.407-1.058,0.017-1.489
								c0.417-0.42,1.165-0.458,1.581,0.012C221.886,212.764,221.864,213.449,221.406,213.837z"/>
						</g>
						<g>
							<linearGradient id="SVGID_57_" gradientUnits="userSpaceOnUse" x1="222.376" y1="216.3066" x2="224.6152" y2="216.3066">
								<stop  offset="0" style="stop-color:#F3CE5E"/>
								<stop  offset="1" style="stop-color:#F2BE4A"/>
							</linearGradient>
							<path fill="url(#SVGID_57_)" d="M224.125,217.185c-0.501,0.313-1.182,0.2-1.543-0.245c-0.352-0.449-0.242-1.111,0.238-1.474
								c0.48-0.359,1.186-0.257,1.568,0.233C224.775,216.184,224.652,216.854,224.125,217.185z"/>
						</g>
						<g>
							<linearGradient id="SVGID_58_" gradientUnits="userSpaceOnUse" x1="224.707" y1="219.9336" x2="226.8975" y2="219.9336">
								<stop  offset="0" style="stop-color:#F3CE5E"/>
								<stop  offset="1" style="stop-color:#F2BE4A"/>
							</linearGradient>
							<path fill="url(#SVGID_58_)" d="M226.276,220.898c-0.558,0.249-1.216,0.037-1.467-0.469
								c-0.233-0.515-0.063-1.135,0.468-1.429c0.531-0.29,1.245-0.106,1.5,0.453C227.059,220.005,226.828,220.65,226.276,220.898z"
								/>
						</g>
						<g>
							<linearGradient id="SVGID_59_" gradientUnits="userSpaceOnUse" x1="226.4102" y1="223.8438" x2="228.6475" y2="223.8438">
								<stop  offset="0" style="stop-color:#F3CE5E"/>
								<stop  offset="1" style="stop-color:#F2BE4A"/>
							</linearGradient>
							<path fill="url(#SVGID_59_)" d="M227.874,224.858c-0.573,0.163-1.186-0.14-1.402-0.665c-0.2-0.523,0.103-1.127,0.672-1.339
								c0.569-0.213,1.211,0.082,1.428,0.652C228.805,224.079,228.478,224.69,227.874,224.858z"/>
						</g>
						<g>
							<linearGradient id="SVGID_60_" gradientUnits="userSpaceOnUse" x1="227.542" y1="227.959" x2="229.749" y2="227.959">
								<stop  offset="0" style="stop-color:#F3CE5E"/>
								<stop  offset="1" style="stop-color:#F2BE4A"/>
							</linearGradient>
							<path fill="url(#SVGID_60_)" d="M228.81,229.015c-0.604,0.077-1.169-0.308-1.259-0.862c-0.067-0.56,0.277-1.103,0.875-1.232
								c0.596-0.13,1.233,0.236,1.31,0.849C229.829,228.373,229.417,228.932,228.81,229.015z"/>
						</g>
						<g>
							<linearGradient id="SVGID_61_" gradientUnits="userSpaceOnUse" x1="228.001" y1="232.1836" x2="230.2217" y2="232.1836">
								<stop  offset="0" style="stop-color:#F3CE5E"/>
								<stop  offset="1" style="stop-color:#F2BE4A"/>
							</linearGradient>
							<path fill="url(#SVGID_61_)" d="M229.166,233.246c-0.611,0-1.131-0.461-1.164-1.02c-0.025-0.563,0.441-1.054,1.054-1.102
								c0.612-0.046,1.13,0.412,1.165,1.023C230.25,232.757,229.778,233.255,229.166,233.246z"/>
						</g>
					</g>
					<g opacity="0.85">
						<g>
							<linearGradient id="SVGID_62_" gradientUnits="userSpaceOnUse" x1="227.8623" y1="236.4336" x2="230.0879" y2="236.4336">
								<stop  offset="0" style="stop-color:#F3CE5E"/>
								<stop  offset="1" style="stop-color:#F2BE4A"/>
							</linearGradient>
							<path fill="url(#SVGID_62_)" d="M228.81,237.483c-0.604-0.089-1.024-0.612-0.936-1.167c0.072-0.556,0.562-0.98,1.182-0.943
								c0.604,0.037,1.101,0.568,1.024,1.176C229.982,237.157,229.412,237.573,228.81,237.483z"/>
						</g>
						<g>
							<linearGradient id="SVGID_63_" gradientUnits="userSpaceOnUse" x1="227.0459" y1="240.6172" x2="229.2637" y2="240.6172">
								<stop  offset="0" style="stop-color:#F3CE5E"/>
								<stop  offset="1" style="stop-color:#F2BE4A"/>
							</linearGradient>
							<path fill="url(#SVGID_63_)" d="M227.874,241.64c-0.583-0.172-0.943-0.756-0.795-1.298c0.146-0.547,0.753-0.891,1.347-0.764
								c0.6,0.122,0.957,0.706,0.801,1.298C229.064,241.468,228.461,241.811,227.874,241.64z"/>
						</g>
						<g>
							<linearGradient id="SVGID_64_" gradientUnits="userSpaceOnUse" x1="225.6348" y1="244.6357" x2="227.8564" y2="244.6357">
								<stop  offset="0" style="stop-color:#F3CE5E"/>
								<stop  offset="1" style="stop-color:#F2BE4A"/>
							</linearGradient>
							<path fill="url(#SVGID_64_)" d="M226.276,245.599c-0.553-0.253-0.795-0.87-0.54-1.375c0.208-0.523,0.828-0.788,1.407-0.58
								c0.569,0.208,0.866,0.845,0.633,1.416C227.5,245.606,226.828,245.853,226.276,245.599z"/>
						</g>
						<g>
							<linearGradient id="SVGID_65_" gradientUnits="userSpaceOnUse" x1="223.6045" y1="248.4189" x2="225.8184" y2="248.4189">
								<stop  offset="0" style="stop-color:#F3CE5E"/>
								<stop  offset="1" style="stop-color:#F2BE4A"/>
							</linearGradient>
							<path fill="url(#SVGID_65_)" d="M224.125,249.313c-0.51-0.326-0.671-0.982-0.369-1.464c0.302-0.479,0.982-0.637,1.521-0.356
								c0.535,0.286,0.701,0.943,0.37,1.471C225.315,249.485,224.635,249.641,224.125,249.313z"/>
						</g>
						<g>
							<linearGradient id="SVGID_66_" gradientUnits="userSpaceOnUse" x1="221.0303" y1="251.8672" x2="223.25" y2="251.8672">
								<stop  offset="0" style="stop-color:#F3CE5E"/>
								<stop  offset="1" style="stop-color:#F2BE4A"/>
							</linearGradient>
							<path fill="url(#SVGID_66_)" d="M221.406,252.66c-0.455-0.396-0.502-1.053-0.111-1.47c0.374-0.433,1.037-0.521,1.525-0.163
								c0.48,0.355,0.582,1.054,0.18,1.527C222.57,253.012,221.855,253.057,221.406,252.66z"/>
						</g>
						<g>
							<linearGradient id="SVGID_67_" gradientUnits="userSpaceOnUse" x1="217.9678" y1="254.9277" x2="220.1748" y2="254.9277">
								<stop  offset="0" style="stop-color:#F3CE5E"/>
								<stop  offset="1" style="stop-color:#F2BE4A"/>
							</linearGradient>
							<path fill="url(#SVGID_67_)" d="M218.234,255.633c-0.387-0.458-0.348-1.136,0.082-1.512c0.432-0.375,1.135-0.342,1.559,0.078
								c0.43,0.421,0.392,1.098-0.076,1.507C219.322,256.122,218.626,256.081,218.234,255.633z"/>
						</g>
						<g>
							<linearGradient id="SVGID_68_" gradientUnits="userSpaceOnUse" x1="214.457" y1="257.5273" x2="216.6777" y2="257.5273">
								<stop  offset="0" style="stop-color:#F3CE5E"/>
								<stop  offset="1" style="stop-color:#F2BE4A"/>
							</linearGradient>
							<path fill="url(#SVGID_68_)" d="M214.622,258.081c-0.314-0.502-0.165-1.147,0.335-1.438c0.498-0.298,1.148-0.215,1.514,0.27
								c0.354,0.466,0.252,1.176-0.285,1.502C215.638,258.734,214.941,258.588,214.622,258.081z"/>
						</g>
						<g>
							<linearGradient id="SVGID_69_" gradientUnits="userSpaceOnUse" x1="210.6133" y1="259.5996" x2="212.8203" y2="259.5996">
								<stop  offset="0" style="stop-color:#F3CE5E"/>
								<stop  offset="1" style="stop-color:#F2BE4A"/>
							</linearGradient>
							<path fill="url(#SVGID_69_)" d="M210.703,260.057c-0.233-0.543,0-1.184,0.527-1.429c0.527-0.244,1.186-0.017,1.471,0.507
								c0.28,0.518,0.051,1.159-0.527,1.424C211.6,260.824,210.941,260.596,210.703,260.057z"/>
						</g>
						<g>
							<linearGradient id="SVGID_70_" gradientUnits="userSpaceOnUse" x1="206.4688" y1="261.1309" x2="208.6875" y2="261.1309">
								<stop  offset="0" style="stop-color:#F3CE5E"/>
								<stop  offset="1" style="stop-color:#F2BE4A"/>
							</linearGradient>
							<path fill="url(#SVGID_70_)" d="M206.504,261.396c-0.148-0.571,0.188-1.143,0.757-1.281c0.565-0.146,1.165,0.113,1.368,0.678
								c0.196,0.547-0.114,1.204-0.73,1.359C207.277,262.302,206.657,261.968,206.504,261.396z"/>
						</g>
						<g>
							<linearGradient id="SVGID_71_" gradientUnits="userSpaceOnUse" x1="202.1543" y1="262.0293" x2="204.3691" y2="262.0293">
								<stop  offset="0" style="stop-color:#F3CE5E"/>
								<stop  offset="1" style="stop-color:#F2BE4A"/>
							</linearGradient>
							<path fill="url(#SVGID_71_)" d="M202.16,262.188c-0.063-0.583,0.357-1.126,0.936-1.212s1.139,0.313,1.254,0.894
								c0.115,0.575-0.302,1.119-0.936,1.212C202.781,263.175,202.221,262.775,202.16,262.188z"/>
						</g>
						<g>
							<linearGradient id="SVGID_72_" gradientUnits="userSpaceOnUse" x1="197.7397" y1="262.3711" x2="199.9512" y2="262.3711">
								<stop  offset="0" style="stop-color:#F3CE5E"/>
								<stop  offset="1" style="stop-color:#F2BE4A"/>
							</linearGradient>
							<path fill="url(#SVGID_72_)" d="M197.741,262.317c0.025-0.587,0.518-1.04,1.105-1.012c0.586-0.028,1.08,0.425,1.104,1.012
								c0.026,0.588-0.467,1.087-1.104,1.119C198.208,263.404,197.715,262.905,197.741,262.317z"/>
						</g>
						<g>
							<linearGradient id="SVGID_73_" gradientUnits="userSpaceOnUse" x1="193.3198" y1="262.0293" x2="195.5361" y2="262.0293">
								<stop  offset="0" style="stop-color:#F3CE5E"/>
								<stop  offset="1" style="stop-color:#F2BE4A"/>
							</linearGradient>
							<path fill="url(#SVGID_73_)" d="M193.338,261.869c0.119-0.58,0.679-0.979,1.258-0.894c0.578,0.086,0.994,0.629,0.935,1.212
								c-0.063,0.588-0.629,0.987-1.258,0.894C193.644,262.988,193.227,262.444,193.338,261.869z"/>
						</g>
						<g>
							<linearGradient id="SVGID_74_" gradientUnits="userSpaceOnUse" x1="189.0034" y1="261.1309" x2="191.2178" y2="261.1309">
								<stop  offset="0" style="stop-color:#F3CE5E"/>
								<stop  offset="1" style="stop-color:#F2BE4A"/>
							</linearGradient>
							<path fill="url(#SVGID_74_)" d="M189.062,260.792c0.204-0.564,0.799-0.824,1.368-0.678c0.565,0.139,0.901,0.71,0.752,1.281
								c-0.149,0.572-0.773,0.906-1.39,0.756C189.172,261.996,188.867,261.339,189.062,260.792z"/>
						</g>
						<g>
							<linearGradient id="SVGID_75_" gradientUnits="userSpaceOnUse" x1="184.8672" y1="259.5996" x2="187.0737" y2="259.5996">
								<stop  offset="0" style="stop-color:#F3CE5E"/>
								<stop  offset="1" style="stop-color:#F2BE4A"/>
							</linearGradient>
							<path fill="url(#SVGID_75_)" d="M184.99,259.135c0.281-0.523,0.939-0.751,1.466-0.507c0.527,0.245,0.761,0.886,0.527,1.429
								c-0.233,0.539-0.896,0.768-1.466,0.502C184.939,260.294,184.701,259.652,184.99,259.135z"/>
						</g>
						<g>
							<linearGradient id="SVGID_76_" gradientUnits="userSpaceOnUse" x1="181.0098" y1="257.5273" x2="183.2295" y2="257.5273">
								<stop  offset="0" style="stop-color:#F3CE5E"/>
								<stop  offset="1" style="stop-color:#F2BE4A"/>
							</linearGradient>
							<path fill="url(#SVGID_76_)" d="M181.216,256.913c0.365-0.484,1.02-0.567,1.513-0.27c0.501,0.29,0.65,0.936,0.335,1.438
								c-0.319,0.507-1.015,0.653-1.56,0.334C180.965,258.089,180.863,257.379,181.216,256.913z"/>
						</g>
						<g>
							<linearGradient id="SVGID_77_" gradientUnits="userSpaceOnUse" x1="177.5132" y1="254.9277" x2="179.7207" y2="254.9277">
								<stop  offset="0" style="stop-color:#F3CE5E"/>
								<stop  offset="1" style="stop-color:#F2BE4A"/>
							</linearGradient>
							<path fill="url(#SVGID_77_)" d="M177.816,254.199c0.425-0.42,1.122-0.453,1.555-0.078c0.434,0.376,0.468,1.054,0.081,1.512
								c-0.387,0.448-1.088,0.489-1.56,0.073C177.421,255.297,177.383,254.62,177.816,254.199z"/>
						</g>
						<g>
							<linearGradient id="SVGID_78_" gradientUnits="userSpaceOnUse" x1="174.4385" y1="251.8672" x2="176.6587" y2="251.8672">
								<stop  offset="0" style="stop-color:#F3CE5E"/>
								<stop  offset="1" style="stop-color:#F2BE4A"/>
							</linearGradient>
							<path fill="url(#SVGID_78_)" d="M174.869,251.027c0.491-0.358,1.154-0.27,1.523,0.163c0.395,0.417,0.344,1.074-0.106,1.47
								c-0.453,0.396-1.169,0.352-1.596-0.105C174.286,252.081,174.386,251.383,174.869,251.027z"/>
						</g>
						<g>
							<linearGradient id="SVGID_79_" gradientUnits="userSpaceOnUse" x1="171.8711" y1="248.4189" x2="174.085" y2="248.4189">
								<stop  offset="0" style="stop-color:#F3CE5E"/>
								<stop  offset="1" style="stop-color:#F2BE4A"/>
							</linearGradient>
							<path fill="url(#SVGID_79_)" d="M172.412,247.492c0.536-0.28,1.218-0.122,1.522,0.356c0.304,0.481,0.136,1.138-0.372,1.464
								c-0.508,0.328-1.188,0.173-1.519-0.35C171.71,248.436,171.876,247.778,172.412,247.492z"/>
						</g>
						<g>
							<linearGradient id="SVGID_80_" gradientUnits="userSpaceOnUse" x1="169.8335" y1="244.6357" x2="172.0542" y2="244.6357">
								<stop  offset="0" style="stop-color:#F3CE5E"/>
								<stop  offset="1" style="stop-color:#F2BE4A"/>
							</linearGradient>
							<path fill="url(#SVGID_80_)" d="M170.546,243.644c0.576-0.208,1.196,0.057,1.406,0.58c0.255,0.505,0.013,1.122-0.54,1.375
								c-0.552,0.254-1.224,0.008-1.5-0.539C169.681,244.488,169.977,243.852,170.546,243.644z"/>
						</g>
						<g>
							<linearGradient id="SVGID_81_" gradientUnits="userSpaceOnUse" x1="168.4253" y1="240.6172" x2="170.6421" y2="240.6172">
								<stop  offset="0" style="stop-color:#F3CE5E"/>
								<stop  offset="1" style="stop-color:#F2BE4A"/>
							</linearGradient>
							<path fill="url(#SVGID_81_)" d="M169.26,239.578c0.599-0.127,1.203,0.217,1.35,0.764c0.145,0.542-0.212,1.126-0.797,1.298
								c-0.586,0.171-1.19-0.172-1.35-0.764C168.304,240.284,168.663,239.7,169.26,239.578z"/>
						</g>
						<g>
							<linearGradient id="SVGID_82_" gradientUnits="userSpaceOnUse" x1="167.6011" y1="236.4336" x2="169.8252" y2="236.4336">
								<stop  offset="0" style="stop-color:#F3CE5E"/>
								<stop  offset="1" style="stop-color:#F2BE4A"/>
							</linearGradient>
							<path fill="url(#SVGID_82_)" d="M168.634,235.373c0.62-0.037,1.107,0.388,1.179,0.943c0.089,0.555-0.329,1.078-0.935,1.167
								c-0.605,0.09-1.173-0.326-1.269-0.935C167.531,235.941,168.032,235.41,168.634,235.373z"/>
						</g>
						<g>
							<linearGradient id="SVGID_83_" gradientUnits="userSpaceOnUse" x1="167.4673" y1="232.1836" x2="169.6865" y2="232.1836">
								<stop  offset="0" style="stop-color:#F3CE5E"/>
								<stop  offset="1" style="stop-color:#F2BE4A"/>
							</linearGradient>
							<path fill="url(#SVGID_83_)" d="M168.634,231.125c0.609,0.048,1.082,0.538,1.051,1.102c-0.029,0.559-0.55,1.02-1.164,1.02
								c-0.612,0.009-1.084-0.489-1.052-1.098C167.501,231.537,168.024,231.079,168.634,231.125z"/>
						</g>
						<g>
							<linearGradient id="SVGID_84_" gradientUnits="userSpaceOnUse" x1="167.9414" y1="227.959" x2="170.1445" y2="227.959">
								<stop  offset="0" style="stop-color:#F3CE5E"/>
								<stop  offset="1" style="stop-color:#F2BE4A"/>
							</linearGradient>
							<path fill="url(#SVGID_84_)" d="M169.26,226.92c0.601,0.13,0.944,0.673,0.875,1.232c-0.087,0.555-0.65,0.939-1.258,0.862
								c-0.605-0.083-1.02-0.642-0.922-1.246C168.032,227.156,168.667,226.79,169.26,226.92z"/>
						</g>
						<g>
							<linearGradient id="SVGID_85_" gradientUnits="userSpaceOnUse" x1="169.041" y1="223.8438" x2="171.2783" y2="223.8438">
								<stop  offset="0" style="stop-color:#F3CE5E"/>
								<stop  offset="1" style="stop-color:#F2BE4A"/>
							</linearGradient>
							<path fill="url(#SVGID_85_)" d="M170.546,222.854c0.571,0.212,0.871,0.815,0.669,1.339c-0.214,0.525-0.827,0.828-1.402,0.665
								c-0.6-0.168-0.929-0.779-0.697-1.352C169.335,222.937,169.977,222.642,170.546,222.854z"/>
						</g>
						<g>
							<linearGradient id="SVGID_86_" gradientUnits="userSpaceOnUse" x1="170.7905" y1="219.9336" x2="172.9829" y2="219.9336">
								<stop  offset="0" style="stop-color:#F3CE5E"/>
								<stop  offset="1" style="stop-color:#F2BE4A"/>
							</linearGradient>
							<path fill="url(#SVGID_86_)" d="M172.412,219.001c0.531,0.294,0.704,0.914,0.468,1.429c-0.253,0.506-0.91,0.718-1.467,0.469
								c-0.554-0.248-0.782-0.894-0.503-1.444C171.169,218.895,171.878,218.711,172.412,219.001z"/>
						</g>
						<g>
							<linearGradient id="SVGID_87_" gradientUnits="userSpaceOnUse" x1="173.0742" y1="216.3066" x2="175.3125" y2="216.3066">
								<stop  offset="0" style="stop-color:#F3CE5E"/>
								<stop  offset="1" style="stop-color:#F2BE4A"/>
							</linearGradient>
							<path fill="url(#SVGID_87_)" d="M174.869,215.466c0.48,0.362,0.588,1.024,0.238,1.474c-0.361,0.445-1.042,0.559-1.545,0.245
								c-0.523-0.331-0.65-1.001-0.259-1.485C173.685,215.209,174.386,215.106,174.869,215.466z"/>
						</g>
						<g>
							<linearGradient id="SVGID_88_" gradientUnits="userSpaceOnUse" x1="175.9258" y1="213.043" x2="178.1235" y2="213.043">
								<stop  offset="0" style="stop-color:#F3CE5E"/>
								<stop  offset="1" style="stop-color:#F2BE4A"/>
							</linearGradient>
							<path fill="url(#SVGID_88_)" d="M177.816,212.299c0.425,0.432,0.391,1.061,0.013,1.489c-0.396,0.417-1.083,0.437-1.542,0.049
								c-0.459-0.388-0.483-1.073-0.053-1.526C176.647,211.841,177.395,211.879,177.816,212.299z"/>
						</g>
						<g>
							<linearGradient id="SVGID_89_" gradientUnits="userSpaceOnUse" x1="179.2007" y1="210.21" x2="181.4326" y2="210.21">
								<stop  offset="0" style="stop-color:#F3CE5E"/>
								<stop  offset="1" style="stop-color:#F2BE4A"/>
							</linearGradient>
							<path fill="url(#SVGID_89_)" d="M181.216,209.584c0.357,0.478,0.263,1.143-0.208,1.482c-0.472,0.334-1.169,0.24-1.556-0.197
								c-0.404-0.465-0.311-1.127,0.2-1.494S180.863,209.105,181.216,209.584z"/>
						</g>
						<g>
							<linearGradient id="SVGID_90_" gradientUnits="userSpaceOnUse" x1="182.9048" y1="207.8584" x2="185.1118" y2="207.8584">
								<stop  offset="0" style="stop-color:#F3CE5E"/>
								<stop  offset="1" style="stop-color:#F2BE4A"/>
							</linearGradient>
							<path fill="url(#SVGID_90_)" d="M184.99,207.367c0.281,0.539,0.051,1.109-0.434,1.425c-0.501,0.29-1.169,0.122-1.492-0.38
								c-0.323-0.498-0.14-1.159,0.404-1.478C184.004,206.6,184.718,206.854,184.99,207.367z"/>
						</g>
						<g>
							<linearGradient id="SVGID_91_" gradientUnits="userSpaceOnUse" x1="186.8936" y1="206.0664" x2="189.123" y2="206.0664">
								<stop  offset="0" style="stop-color:#F3CE5E"/>
								<stop  offset="1" style="stop-color:#F2BE4A"/>
							</linearGradient>
							<path fill="url(#SVGID_91_)" d="M189.062,205.705c0.195,0.561-0.094,1.168-0.646,1.36c-0.544,0.196-1.194-0.099-1.433-0.62
								c-0.25-0.556,0.042-1.156,0.642-1.372C188.225,204.865,188.867,205.146,189.062,205.705z"/>
						</g>
						<g>
							<linearGradient id="SVGID_92_" gradientUnits="userSpaceOnUse" x1="191.1465" y1="204.832" x2="193.3564" y2="204.832">
								<stop  offset="0" style="stop-color:#F3CE5E"/>
								<stop  offset="1" style="stop-color:#F2BE4A"/>
							</linearGradient>
							<path fill="url(#SVGID_92_)" d="M193.338,204.629c0.11,0.592-0.281,1.082-0.842,1.244c-0.57,0.143-1.156-0.203-1.313-0.771
								c-0.157-0.566,0.212-1.154,0.829-1.302C192.627,203.621,193.235,204.061,193.338,204.629z"/>
						</g>
						<g>
							<linearGradient id="SVGID_93_" gradientUnits="userSpaceOnUse" x1="195.522" y1="204.2324" x2="197.7412" y2="204.2324">
								<stop  offset="0" style="stop-color:#F3CE5E"/>
								<stop  offset="1" style="stop-color:#F2BE4A"/>
							</linearGradient>
							<path fill="url(#SVGID_93_)" d="M197.741,204.18c0.017,0.588-0.442,1.09-1.028,1.114c-0.587,0.024-1.114-0.417-1.182-0.988
								c-0.076-0.596,0.382-1.11,1.02-1.134C197.188,203.139,197.719,203.592,197.741,204.18z"/>
						</g>
						<g>
							<linearGradient id="SVGID_94_" gradientUnits="userSpaceOnUse" x1="199.9497" y1="204.2324" x2="202.167" y2="204.2324">
								<stop  offset="0" style="stop-color:#F3CE5E"/>
								<stop  offset="1" style="stop-color:#F2BE4A"/>
							</linearGradient>
							<path fill="url(#SVGID_94_)" d="M202.16,204.306c-0.067,0.571-0.599,1.013-1.181,0.988c-0.587-0.024-1.045-0.526-1.029-1.114
								c0.017-0.588,0.548-1.041,1.187-1.008C201.773,203.195,202.229,203.71,202.16,204.306z"/>
						</g>
						<g>
							<linearGradient id="SVGID_95_" gradientUnits="userSpaceOnUse" x1="204.332" y1="204.832" x2="206.542" y2="204.832">
								<stop  offset="0" style="stop-color:#F3CE5E"/>
								<stop  offset="1" style="stop-color:#F2BE4A"/>
							</linearGradient>
							<path fill="url(#SVGID_95_)" d="M206.504,205.102c-0.152,0.568-0.743,0.914-1.309,0.771
								c-0.561-0.162-0.952-0.652-0.846-1.244c0.105-0.568,0.709-1.008,1.322-0.829
								C206.292,203.947,206.666,204.535,206.504,205.102z"/>
						</g>
						<g>
							<linearGradient id="SVGID_96_" gradientUnits="userSpaceOnUse" x1="208.5674" y1="206.0664" x2="210.793" y2="206.0664">
								<stop  offset="0" style="stop-color:#F3CE5E"/>
								<stop  offset="1" style="stop-color:#F2BE4A"/>
							</linearGradient>
							<path fill="url(#SVGID_96_)" d="M210.703,206.445c-0.238,0.521-0.884,0.816-1.432,0.62c-0.549-0.192-0.838-0.8-0.643-1.36
								c0.191-0.559,0.834-0.84,1.438-0.632C210.661,205.289,210.954,205.89,210.703,206.445z"/>
						</g>
						<g>
							<linearGradient id="SVGID_97_" gradientUnits="userSpaceOnUse" x1="212.5771" y1="207.8584" x2="214.7832" y2="207.8584">
								<stop  offset="0" style="stop-color:#F3CE5E"/>
								<stop  offset="1" style="stop-color:#F2BE4A"/>
							</linearGradient>
							<path fill="url(#SVGID_97_)" d="M214.622,208.412c-0.323,0.502-0.985,0.67-1.487,0.38c-0.489-0.315-0.719-0.886-0.434-1.425
								c0.268-0.514,0.986-0.768,1.521-0.433C214.767,207.253,214.945,207.914,214.622,208.412z"/>
						</g>
						<g>
							<linearGradient id="SVGID_98_" gradientUnits="userSpaceOnUse" x1="216.2578" y1="210.21" x2="218.4893" y2="210.21">
								<stop  offset="0" style="stop-color:#F3CE5E"/>
								<stop  offset="1" style="stop-color:#F2BE4A"/>
							</linearGradient>
							<path fill="url(#SVGID_98_)" d="M218.234,210.869c-0.383,0.438-1.084,0.531-1.555,0.197c-0.468-0.34-0.562-1.005-0.209-1.482
								c0.354-0.479,1.055-0.576,1.568-0.209C218.549,209.742,218.643,210.404,218.234,210.869z"/>
						</g>
						<g>
							<linearGradient id="SVGID_99_" gradientUnits="userSpaceOnUse" x1="219.5674" y1="213.043" x2="221.7646" y2="213.043">
								<stop  offset="0" style="stop-color:#F3CE5E"/>
								<stop  offset="1" style="stop-color:#F2BE4A"/>
							</linearGradient>
							<path fill="url(#SVGID_99_)" d="M221.406,213.837c-0.46,0.388-1.152,0.368-1.548-0.049c-0.374-0.429-0.407-1.058,0.017-1.489
								c0.417-0.42,1.165-0.458,1.581,0.012C221.886,212.764,221.864,213.449,221.406,213.837z"/>
						</g>
						<g>
							<linearGradient id="SVGID_100_" gradientUnits="userSpaceOnUse" x1="222.376" y1="216.3066" x2="224.6152" y2="216.3066">
								<stop  offset="0" style="stop-color:#F3CE5E"/>
								<stop  offset="1" style="stop-color:#F2BE4A"/>
							</linearGradient>
							<path fill="url(#SVGID_100_)" d="M224.125,217.185c-0.501,0.313-1.182,0.2-1.543-0.245c-0.352-0.449-0.242-1.111,0.238-1.474
								c0.48-0.359,1.186-0.257,1.568,0.233C224.775,216.184,224.652,216.854,224.125,217.185z"/>
						</g>
						<g>
							<linearGradient id="SVGID_101_" gradientUnits="userSpaceOnUse" x1="224.707" y1="219.9336" x2="226.8975" y2="219.9336">
								<stop  offset="0" style="stop-color:#F3CE5E"/>
								<stop  offset="1" style="stop-color:#F2BE4A"/>
							</linearGradient>
							<path fill="url(#SVGID_101_)" d="M226.276,220.898c-0.558,0.249-1.216,0.037-1.467-0.469
								c-0.233-0.515-0.063-1.135,0.468-1.429c0.531-0.29,1.245-0.106,1.5,0.453C227.059,220.005,226.828,220.65,226.276,220.898z"
								/>
						</g>
						<g>
							<linearGradient id="SVGID_102_" gradientUnits="userSpaceOnUse" x1="226.4102" y1="223.8438" x2="228.6475" y2="223.8438">
								<stop  offset="0" style="stop-color:#F3CE5E"/>
								<stop  offset="1" style="stop-color:#F2BE4A"/>
							</linearGradient>
							<path fill="url(#SVGID_102_)" d="M227.874,224.858c-0.573,0.163-1.186-0.14-1.402-0.665c-0.2-0.523,0.103-1.127,0.672-1.339
								c0.569-0.213,1.211,0.082,1.428,0.652C228.805,224.079,228.478,224.69,227.874,224.858z"/>
						</g>
						<g>
							<linearGradient id="SVGID_103_" gradientUnits="userSpaceOnUse" x1="227.542" y1="227.959" x2="229.749" y2="227.959">
								<stop  offset="0" style="stop-color:#F3CE5E"/>
								<stop  offset="1" style="stop-color:#F2BE4A"/>
							</linearGradient>
							<path fill="url(#SVGID_103_)" d="M228.81,229.015c-0.604,0.077-1.169-0.308-1.259-0.862c-0.067-0.56,0.277-1.103,0.875-1.232
								c0.596-0.13,1.233,0.236,1.31,0.849C229.829,228.373,229.417,228.932,228.81,229.015z"/>
						</g>
						<g>
							<linearGradient id="SVGID_104_" gradientUnits="userSpaceOnUse" x1="228.001" y1="232.1836" x2="230.2217" y2="232.1836">
								<stop  offset="0" style="stop-color:#F3CE5E"/>
								<stop  offset="1" style="stop-color:#F2BE4A"/>
							</linearGradient>
							<path fill="url(#SVGID_104_)" d="M229.166,233.246c-0.611,0-1.131-0.461-1.164-1.02c-0.025-0.563,0.441-1.054,1.054-1.102
								c0.612-0.046,1.13,0.412,1.165,1.023C230.25,232.757,229.778,233.255,229.166,233.246z"/>
						</g>
					</g>
				</g>
				<linearGradient id="SVGID_105_" gradientUnits="userSpaceOnUse" x1="223.4131" y1="208.8896" x2="175.6811" y2="256.2041">
					<stop  offset="0" style="stop-color:#AA7238"/>
					<stop  offset="0.253" style="stop-color:#C08443"/>
					<stop  offset="0.3544" style="stop-color:#BE8242"/>
					<stop  offset="0.3909" style="stop-color:#B87B3D"/>
					<stop  offset="0.417" style="stop-color:#AD7036"/>
					<stop  offset="0.438" style="stop-color:#9D5F2B"/>
					<stop  offset="0.4558" style="stop-color:#88491D"/>
					<stop  offset="0.4652" style="stop-color:#7A3A14"/>
					<stop  offset="0.6378" style="stop-color:#7C3C15"/>
					<stop  offset="0.7249" style="stop-color:#83441A"/>
					<stop  offset="0.7929" style="stop-color:#8E5123"/>
					<stop  offset="0.851" style="stop-color:#9E642F"/>
					<stop  offset="0.9028" style="stop-color:#B37C3E"/>
					<stop  offset="0.95" style="stop-color:#CD9B52"/>
					<stop  offset="0.993" style="stop-color:#EABE68"/>
					<stop  offset="1" style="stop-color:#F0C46C"/>
				</linearGradient>
				<path clip-path="url(#SVGID_13_)" fill="url(#SVGID_105_)" d="M198.846,197.967c-20.291,0-36.734,15.793-36.734,35.279
					c0,19.484,16.443,35.276,36.734,35.276c20.286,0,36.729-15.792,36.729-35.276C235.575,213.76,219.132,197.967,198.846,197.967z
					 M198.846,266.241c-18.973,0-34.358-14.772-34.358-32.995c0-18.221,15.386-32.997,34.358-32.997s34.357,14.776,34.357,32.997
					C233.203,251.469,217.818,266.241,198.846,266.241z"/>
				<g clip-path="url(#SVGID_13_)">
					<defs>
						<filter id="Adobe_OpacityMaskFilter" filterUnits="userSpaceOnUse" x="191.462" y="185.158" width="58.671" height="38.124">
							<feColorMatrix  type="matrix" values="1 0 0 0 0  0 1 0 0 0  0 0 1 0 0  0 0 0 1 0"/>
						</filter>
					</defs>
					<mask maskUnits="userSpaceOnUse" x="191.462" y="185.158" width="58.671" height="38.124" id="SVGID_106_">
						<g filter="url(#Adobe_OpacityMaskFilter)">
							
								<radialGradient id="SVGID_107_" cx="976.5527" cy="227.7246" r="10.7417" gradientTransform="matrix(0.638 -1.1775 2.6548 1.3275 -1006.8281 1051.7783)" gradientUnits="userSpaceOnUse">
								<stop  offset="0" style="stop-color:#FFFFFF"/>
								<stop  offset="0.1368" style="stop-color:#E2E2E2"/>
								<stop  offset="0.4339" style="stop-color:#999999"/>
								<stop  offset="0.8653" style="stop-color:#262626"/>
								<stop  offset="1" style="stop-color:#000000"/>
							</radialGradient>
							<path fill="url(#SVGID_107_)" d="M227.652,191.57c15.752,7.878,25.451,19.92,21.66,26.908
								c-3.783,6.988-19.619,6.266-35.37-1.609c-15.751-7.877-25.45-19.919-21.659-26.907
								C196.066,182.974,211.902,183.696,227.652,191.57z"/>
						</g>
					</mask>
					
						<radialGradient id="SVGID_108_" cx="976.5527" cy="227.7246" r="10.7417" gradientTransform="matrix(0.638 -1.1775 2.6548 1.3275 -1006.8281 1051.7783)" gradientUnits="userSpaceOnUse">
						<stop  offset="0" style="stop-color:#ECCE88"/>
						<stop  offset="1" style="stop-color:#000000"/>
					</radialGradient>
					<path mask="url(#SVGID_106_)" fill="url(#SVGID_108_)" d="M227.652,191.57c15.752,7.878,25.451,19.92,21.66,26.908
						c-3.783,6.988-19.619,6.266-35.37-1.609c-15.751-7.877-25.45-19.919-21.659-26.907
						C196.066,182.974,211.902,183.696,227.652,191.57z"/>
					<g>
						<defs>
							<filter id="Adobe_OpacityMaskFilter_1_" filterUnits="userSpaceOnUse" x="209.649" y="193.47" width="22.297" height="21.5">
								<feColorMatrix  type="matrix" values="1 0 0 0 0  0 1 0 0 0  0 0 1 0 0  0 0 0 1 0"/>
							</filter>
						</defs>
						<mask maskUnits="userSpaceOnUse" x="209.649" y="193.47" width="22.297" height="21.5" id="SVGID_109_">
							<g filter="url(#Adobe_OpacityMaskFilter_1_)">
								
									<radialGradient id="SVGID_110_" cx="528.543" cy="88.2852" r="4.8744" gradientTransform="matrix(1.9354 0.9555 -1.1085 2.0707 -704.2832 -483.6289)" gradientUnits="userSpaceOnUse">
									<stop  offset="0" style="stop-color:#FFFFFF"/>
									<stop  offset="0.2113" style="stop-color:#C4C4C4"/>
									<stop  offset="0.6019" style="stop-color:#5C5C5C"/>
									<stop  offset="0.8731" style="stop-color:#1A1A1A"/>
									<stop  offset="1" style="stop-color:#000000"/>
								</radialGradient>
								<path fill="url(#SVGID_110_)" d="M230.696,209.105c-2.831,5.291-9.554,7.385-15.021,4.688
									c-5.465-2.703-7.607-9.177-4.777-14.459c2.832-5.29,9.555-7.384,15.021-4.686
									C231.389,197.35,233.526,203.824,230.696,209.105z"/>
							</g>
						</mask>
						
							<radialGradient id="SVGID_111_" cx="528.543" cy="88.2852" r="4.8744" gradientTransform="matrix(1.9354 0.9555 -1.1085 2.0707 -704.2832 -483.6289)" gradientUnits="userSpaceOnUse">
							<stop  offset="0" style="stop-color:#FFA177"/>
							<stop  offset="0.1269" style="stop-color:#E5916B"/>
							<stop  offset="0.3981" style="stop-color:#A3674C"/>
							<stop  offset="0.7887" style="stop-color:#3B251C"/>
							<stop  offset="1" style="stop-color:#000000"/>
						</radialGradient>
						<path mask="url(#SVGID_109_)" fill="url(#SVGID_111_)" d="M230.696,209.105c-2.831,5.291-9.554,7.385-15.021,4.688
							c-5.465-2.703-7.607-9.177-4.777-14.459c2.832-5.29,9.555-7.384,15.021-4.686C231.389,197.35,233.526,203.824,230.696,209.105
							z"/>
					</g>
				</g>
				<defs>
					
						<filter id="Adobe_OpacityMaskFilter_2_" filterUnits="userSpaceOnUse" x="158.061" y="247.932" width="32.319" height="24.177">
						<feColorMatrix  type="matrix" values="1 0 0 0 0  0 1 0 0 0  0 0 1 0 0  0 0 0 1 0"/>
					</filter>
				</defs>
				<mask maskUnits="userSpaceOnUse" x="158.061" y="247.932" width="32.319" height="24.177" id="SVGID_112_">
					<g filter="url(#Adobe_OpacityMaskFilter_2_)">
						
							<radialGradient id="SVGID_113_" cx="727.9063" cy="69.3984" r="7.0181" gradientTransform="matrix(0.729 -1.1277 2.1839 1.302 -507.9727 990.5469)" gradientUnits="userSpaceOnUse">
							<stop  offset="0" style="stop-color:#FFFFFF"/>
							<stop  offset="0.1368" style="stop-color:#E2E2E2"/>
							<stop  offset="0.4339" style="stop-color:#999999"/>
							<stop  offset="0.8653" style="stop-color:#262626"/>
							<stop  offset="1" style="stop-color:#000000"/>
						</radialGradient>
						<path clip-path="url(#SVGID_13_)" fill="url(#SVGID_113_)" d="M179.337,252.105c8.462,5.045,13.031,12.678,10.208,17.054
							c-2.826,4.368-11.977,3.821-20.44-1.225c-8.464-5.045-13.033-12.682-10.209-17.054
							C161.723,246.513,170.873,247.06,179.337,252.105z"/>
					</g>
				</mask>
				
					<radialGradient id="SVGID_114_" cx="727.9063" cy="69.3984" r="7.0181" gradientTransform="matrix(0.729 -1.1277 2.1839 1.302 -507.9727 990.5469)" gradientUnits="userSpaceOnUse">
					<stop  offset="0" style="stop-color:#ECC29A"/>
					<stop  offset="1" style="stop-color:#000000"/>
				</radialGradient>
				<path clip-path="url(#SVGID_13_)" mask="url(#SVGID_112_)" fill="url(#SVGID_114_)" d="M179.337,252.105
					c8.462,5.045,13.031,12.678,10.208,17.054c-2.826,4.368-11.977,3.821-20.44-1.225c-8.464-5.045-13.033-12.682-10.209-17.054
					C161.723,246.513,170.873,247.06,179.337,252.105z"/>
			</g>
		</g>
		<linearGradient id="SVGID_115_" gradientUnits="userSpaceOnUse" x1="188.9912" y1="238.9922" x2="211.0256" y2="228.6177">
			<stop  offset="0" style="stop-color:#F1C848"/>
			<stop  offset="0.1866" style="stop-color:#F0C94F"/>
			<stop  offset="0.4544" style="stop-color:#EBCC62"/>
			<stop  offset="0.4799" style="stop-color:#EBCC64"/>
			<stop  offset="0.7539" style="stop-color:#F5E579"/>
			<stop  offset="1" style="stop-color:#FFFF8E"/>
		</linearGradient>
		<path fill="url(#SVGID_115_)" d="M213.147,239.549h-6.966c-0.314,0-0.57-0.245-0.57-0.546v-24.042
			c0-0.303-0.254-0.549-0.569-0.549h-2.737c-0.098,0-0.19,0.025-0.275,0.074c-2.172,1.27-5.063,2.383-7.893,3.486
			c-2.877,1.126-6.053,1.408-7.276,1.478c-0.302,0.017-0.523,0.253-0.523,0.542v5.76c0,0.303,0.255,0.547,0.574,0.547h7.276
			c0.314,0,0.569,0.245,0.569,0.548v12.156c0,0.301-0.259,0.546-0.574,0.546l-7.272-0.008c-0.314,0-0.574,0.244-0.574,0.547v7.515
			c0,0.303,0.255,0.547,0.574,0.547h26.236c0.314,0,0.569-0.244,0.569-0.547v-7.507
			C213.717,239.795,213.462,239.549,213.147,239.549z"/>
		<g>
			<linearGradient id="SVGID_116_" gradientUnits="userSpaceOnUse" x1="199.9995" y1="216.0723" x2="199.9995" y2="247.9635">
				<stop  offset="0" style="stop-color:#FFEE7B"/>
				<stop  offset="0.1497" style="stop-color:#FFC757"/>
				<stop  offset="0.2727" style="stop-color:#E1A11B"/>
				<stop  offset="0.2782" style="stop-color:#E3A622"/>
				<stop  offset="0.3099" style="stop-color:#EDC044"/>
				<stop  offset="0.3421" style="stop-color:#F4D35F"/>
				<stop  offset="0.3749" style="stop-color:#FAE272"/>
				<stop  offset="0.4084" style="stop-color:#FDEA7D"/>
				<stop  offset="0.4439" style="stop-color:#FEED81"/>
				<stop  offset="0.4688" style="stop-color:#F8E37B"/>
				<stop  offset="0.5116" style="stop-color:#E8C76B"/>
				<stop  offset="0.5669" style="stop-color:#CE9B51"/>
				<stop  offset="0.6321" style="stop-color:#AB5E2D"/>
				<stop  offset="0.6471" style="stop-color:#A24F24"/>
				<stop  offset="0.7647" style="stop-color:#E0B439"/>
				<stop  offset="0.8556" style="stop-color:#F1C848"/>
				<stop  offset="1" style="stop-color:#FFFF8E"/>
			</linearGradient>
			<path fill="url(#SVGID_116_)" d="M205.621,240.316h6.596c0.314,0,0.569,0.245,0.569,0.548v6.192c0,0.301-0.255,0.546-0.569,0.546
				h-24.435c-0.314,0-0.569-0.245-0.569-0.546v-6.192c0-0.303,0.255-0.548,0.569-0.548h6.89c0.319,0,0.574-0.244,0.574-0.547
				v-13.625c0-0.303-0.255-0.548-0.574-0.548h-6.89c-0.314,0-0.569-0.244-0.569-0.547v-4.449c0-0.277,0.208-0.505,0.497-0.53
				c4.467-0.417,10.197-2.693,13.907-4.988c0.089-0.057,0.187-0.082,0.293-0.082h2.571c0.314,0,0.569,0.246,0.569,0.548v24.222
				C205.051,240.072,205.306,240.316,205.621,240.316z"/>
		</g>
	</g>
	
		<radialGradient id="SVGID_117_" cx="216.082" cy="237.8896" r="20.1954" gradientTransform="matrix(4.3522 0 0 4.1799 -739.6641 -832.9336)" gradientUnits="userSpaceOnUse">
		<stop  offset="0" style="stop-color:#ECECBB"/>
		<stop  offset="1" style="stop-color:#784F58"/>
	</radialGradient>
	<path opacity="0.55" fill="url(#SVGID_117_)" d="M229.447,197.595c-0.727-0.58-1.505-1.094-2.266-1.629
		c0.004-0.02,0.008-0.044,0.012-0.061c0.01-0.053,0.021-0.106,0.031-0.155c0.046-0.212,0.088-0.416,0.131-0.636
		c0.033-0.188,0.06-0.384,0.09-0.572c0.012-0.061,0.021-0.118,0.029-0.179c0.195-1.274,0.327-2.637,0.322-4.05
		c0-0.42-0.017-0.849-0.041-1.273c-0.026-0.428-0.068-0.857-0.119-1.29c-0.111-0.865-0.273-1.73-0.51-2.592
		c-0.149-0.551-0.341-1.099-0.553-1.645c-0.23-0.588-0.493-1.168-0.8-1.739c-0.714-1.326-1.636-2.604-2.831-3.78l1.369-2.074l0,0
		l48.223-72.911l-5.976-3.458l0.059-0.085l-18.216-10.548l-0.051,0.086l-5.946-3.441l-0.013,0.024v-0.024h-10.298h-64.156h-10.293
		l0.023,0.131l-0.076-0.131l-5.795,3.355l0,0l-2.798,1.621l-21.534,12.47l48.632,73.532c-3.241,2.465-5.024,5.494-5.875,8.617
		c-0.353,1.294-0.551,2.6-0.629,3.882c-0.025,0.424-0.039,0.854-0.041,1.273c-0.002,0.845,0.041,1.674,0.117,2.478
		c0.011,0.093,0.026,0.188,0.034,0.281c0.011,0.098,0.023,0.196,0.036,0.294c0.042,0.368,0.094,0.735,0.149,1.09
		c0.017,0.103,0.034,0.205,0.051,0.306c0.062,0.375,0.132,0.739,0.206,1.094c0.013,0.058,0.023,0.123,0.036,0.18
		c0.011,0.049,0.019,0.098,0.03,0.147c-3.132,2.232-6.008,4.784-8.488,7.674c-1.961,2.277-3.698,4.746-5.181,7.363
		c-3.702,6.547-5.806,14.05-5.806,22.025c0,4.785,0.759,9.397,2.164,13.74c0.937,2.891,2.164,5.666,3.643,8.282
		c1.483,2.617,3.22,5.083,5.181,7.368c0.98,1.144,2.017,2.236,3.105,3.282c2.176,2.09,4.561,3.979,7.119,5.641
		c7.68,4.98,16.936,7.891,26.899,7.891s19.219-2.91,26.895-7.891c8.959-5.813,15.769-14.45,19.05-24.573
		c1.402-4.343,2.163-8.955,2.163-13.74c0-7.976-2.104-15.479-5.811-22.025C238.186,205.984,234.198,201.359,229.447,197.595z
		 M182.665,186.476h-0.004h0.008h7.183h0.595h19.305h0.595h6.983h0.004l0,0l0.951-1.441c0.621,0.764,1.08,1.58,1.378,2.429
		c0.102,0.29,0.183,0.588,0.255,0.89c0.208,0.882,0.28,1.796,0.26,2.719c0,0.028,0,0.057,0,0.082
		c-0.009,0.232-0.035,0.465-0.056,0.702c-6.418-3.053-13.626-4.816-21.276-4.816c-7.782,0-15.105,1.82-21.612,4.967
		c-0.055-0.608-0.081-1.212-0.055-1.816c0.004-0.017,0.004-0.033,0.004-0.049c0.021-0.433,0.072-0.865,0.149-1.298l0,0
		c0.081-0.465,0.195-0.931,0.357-1.379c0.51-1.453,1.453-2.808,3-3.976L182.665,186.476z M184.956,116.095h30.121h9.253
		l-24.329,41.097l-24.334-41.097H184.956z"/>
</g>
</svg>
