<?xml version="1.0" encoding="utf-8"?>
<!-- Generator: Adobe Illustrator 16.0.0, SVG Export Plug-In . SVG Version: 6.00 Build 0)  -->
<!DOCTYPE svg PUBLIC "-//W3C//DTD SVG 1.1//EN" "http://www.w3.org/Graphics/SVG/1.1/DTD/svg11.dtd">
<svg version="1.1" id="Capa_1" xmlns="http://www.w3.org/2000/svg" xmlns:xlink="http://www.w3.org/1999/xlink" x="0px" y="0px"
	 width="800px" height="800px" viewBox="0 0 800 800" enable-background="new 0 0 800 800" xml:space="preserve">
<g>
	<path fill="#251818" d="M298.512,631.38c0,0-12.808,5.345-12.562,23.235c0.017,1.222,1.541,1.632,2.759,1.215
		c2.71-0.928,13.092-7.035,16.215-18.005l1.375-5.613l2.094-7.271l-6.794,1.673l-0.973,3.532L298.512,631.38z"/>
	<path fill="#251818" d="M374.667,627.188c0,0,12.479,11.194,28.212,15.499c0,0,1.706,2.433-7.928,2.433
		c-22.924,0-25.085-9.402-25.085-9.402v4.227h-4.752v-11.563L374.667,627.188z"/>
	<path fill="#54352E" d="M375.696,395.735c-2.638,0.886-5.333,1.445-8.411,1.636c-5.678,0.354-11.48,0.11-17.172,0.072
		c-8.707-0.058-16.84-1.055-25.046-2.488c0,0-12.793,9.43-23.203,34.928c-3.9,9.551,5.191,54.913,2.737,91.783
		c-0.585,8.793-12.11,23.542-9.515,109.686l13.648,1.45c0,0,15.145-37.537,19.508-81.537c1.63-16.435,2.796-21.777,4.074-32.48
		c1.519-12.714,10.938-54.207,12.32-69.51c0.064-0.705,1.152-0.723,1.24-0.019c1.92,15.492,7.311,53.528,6.21,69.703
		c-0.562,8.259-4.129,15.133-1.701,33.525c3.609,27.332,11.093,76.122,11.093,76.122h17.499c0,0,2.063-76.316,1.27-108.722
		C378.918,465.562,398.684,424.214,375.696,395.735z"/>
	<path opacity="0.65" fill="#54352E" d="M350.201,436.433c0,0,13.383,7.617,36.232,7.617c1.514-20.263-0.322-35.411-10.737-48.314
		c-2.638,0.886-5.333,1.445-8.411,1.636c-5.678,0.354-11.48,0.11-17.172,0.072c-8.707-0.058-16.84-1.055-25.046-2.488
		c0,0-12.792,9.429-23.203,34.928c-0.709,1.738-1.123,5.353-0.591,9.896C303.435,440.552,329.888,446.716,350.201,436.433z"/>
	<g>
		<path fill="#FFB87F" d="M381.127,261.766c0,0-11.984-0.574-15.098-19.836c-11.242,0.42-23.762-6.13-33.104-11.796
			c-1.14,10.204-3.586,28.708-8.467,33.928c0,0,9.546,47.261,29.046,55.68C373.003,328.161,410.986,298.885,381.127,261.766z"/>
		<path fill="#F39F6D" d="M349.087,252.881c6.269-2.919,13.056-3.323,19.583-1.779c-1.109-2.453-2.042-5.461-2.642-9.172
			c-11.242,0.42-23.762-6.13-33.104-11.796c-1.14,10.204-3.586,28.708-8.467,33.928c0,0,0.741,3.663,2.227,9.121h13.583
			C338.599,266.106,341.785,256.282,349.087,252.881z"/>
	</g>
	<path fill="#F9F0C7" d="M369.008,255.452c0,0-7.177,14.159-40.082,2.678l-6.5,14.925l36.019,57.785l33.728-41.457L369.008,255.452z
		"/>
	<polygon fill="#AE1917" points="350.863,263.233 360.071,262.084 363.998,273.438 359.123,280.198 369.008,293.72 361.831,316.681 
		348.773,296.569 355.205,280.517 347.884,274.777 	"/>
	<path fill="#FBF9F4" d="M328.385,254.304l-6.34,7.781l12.027,15.1l16.25,1.739l4.468-16.328
		C354.79,262.595,341.384,261.575,328.385,254.304z"/>
	<polygon fill="#FBF9F4" points="369.236,252.284 354.79,262.595 364.675,275.862 380.382,262.595 	"/>
	<path fill="#FFB87F" d="M504.173,307.581c0,0,8.737-4.483,13.841-9.889c3.537-3.745,5.72-7.467,6.75-8.743
		c2.92-3.624,6.826-6.991,8.667-8.252c1.839-1.26,27.034-12.451,29.961-7.172c0,0,2.008,4.569-22.162,12.525
		c0,0,11.273,8.338,9.438,13.229c-0.388,1.037-2.292,4.293-5.628,5.385c-7.066,2.311-14.531,2.531-17.263,4.364
		c-2.287,1.531-10.736,7.156-10.736,7.156S505.993,314.021,504.173,307.581z"/>
	<path fill="#F39F6D" d="M531.426,303.861c-0.339-0.506-0.559-0.838-0.689-1.057c-0.44-0.125-0.88-0.253-1.32-0.377
		c-4.244-1.247-8.164-2.544-11.178-4.983c-0.078,0.083-0.146,0.165-0.225,0.248c-5.104,5.406-13.841,9.889-13.841,9.889
		c1.82,6.44,12.868,8.603,12.868,8.603s8.449-5.625,10.736-7.156c1.253-0.841,3.511-1.343,6.263-1.863
		C533.096,306.151,532.229,305.051,531.426,303.861z"/>
	<path fill="#F39F6D" d="M549.006,300.046c-5.567,1.24-10.398,0.676-14.589,5.107c-0.785,0.832-1.613,1.629-2.438,2.428
		c3.54-0.772,8.383-1.387,13.062-2.917c3.068-1.004,4.909-3.82,5.49-5.075C550.044,299.773,549.537,299.927,549.006,300.046z"/>
	<path fill="#F39F6D" d="M557.059,272.305c-4.531,1.633-8.749,3.396-12.687,6.475c-1.664,1.3-6.504,3.144-8.255,4.275
		c-1.858,1.203-3.846,4.052-5.606,5.366c1.076-0.338,5.424-2.962,6.692-3.042c0.95-0.059,1.91,0.094,2.833,0.398
		c0.613-0.059,1.234-0.04,1.85,0.053c23.461-7.819,21.506-12.306,21.506-12.306C562.57,272.044,560.147,271.83,557.059,272.305z"/>
	<polygon fill="#FBF9F4" points="506.191,305.2 513.56,298.439 525.614,311.634 517.396,317.51 	"/>
	<path fill="#783C28" d="M395.955,269.1c0,0-3.249,46.688,6.77,68.373c10.021,21.685,30.604,44.901,40.624,39.543
		s75.32-58.84,75.32-58.84l-11.914-14.698c0,0-60.833,35.398-64.083,34.633c-2.626-0.619-18.809-47.562-36.475-64.495L395.955,269.1
		z"/>
	<path opacity="0.18" fill="#62260F" d="M439.915,360.57c-18.187-3.783-24.476-44.482-29.458-59.549
		c-2.877-8.699-13.585,23.784-7.73,36.452c10.02,21.685,30.602,44.901,40.622,39.543c4.644-2.483,21.152-15.297,37.538-28.335
		c0.063-0.05,0.016-0.151-0.063-0.125C476.699,349.987,448.809,362.42,439.915,360.57z"/>
	<path fill="#672C16" d="M376.294,259.661c0,0,28.994,13.208,29.903,13.955c0.908,0.747,11.633,45.98-5.194,68.809
		c-12.986,17.616-17.641,38.05-16.017,55.591c1.625,17.541,7.193,33.821,7.193,33.821s-31.572,13.313-42.794-5.371
		c0,0,17.727-73.498,10.415-117.822C359.8,308.643,372.436,289.818,376.294,259.661z"/>
	<path opacity="0.25" fill="#62260F" d="M390.735,360.727c-8.954,11.398-18.041,19.154-32.807,19.288
		c-3.591,25.911-8.543,46.45-8.543,46.45c11.222,18.685,42.794,5.371,42.794,5.371s-5.568-16.28-7.193-33.821
		c-0.803-8.67-0.174-16.121,1.613-24.062C387.628,369.38,388.648,365.912,390.735,360.727z"/>
	<path fill="#783C28" d="M359.8,305.965c0,0,14.033-34.732,16.131-47.488l8.808,5.09c0,0,3.498,13.697,3.092,15.355
		c-0.406,1.658-9.344,4.72-9.344,4.72s9.804,3.449,10.055,3.955c1.455,2.932-21.895,27.548-26.555,32.527
		C361.986,320.124,357.904,316.425,359.8,305.965z"/>
	<g>
		<path opacity="0.22" fill="#510900" d="M360.729,309.875c4.567,44.626-12.651,115.315-12.651,115.315
			c1.588,2.644,3.609,4.784,5.793,6.373c11.869-14.983,9.84-34.636,11.617-57.3C366.624,359.764,367.134,316.704,360.729,309.875z"
			/>
	</g>
	<path fill="#672C16" d="M322.427,261.616c0,0-31.251,11.352-44.531,15.568c0,0,20.156,30.041,15.688,57.77
		c0,0,26.191,24.919,24.562,49.695c-1.025,15.584-22.244,42.263-22.244,42.263s44.213,25.448,60.445-6.748
		c7.265-14.41,8.889-97.626,5.639-107.948C358.736,301.894,322.913,262.628,322.427,261.616z"/>
	<path opacity="0.25" fill="#62260F" d="M355.546,379.976c-12.463-0.727-22.625-5.634-29.135-15.931
		c-6.688-10.577-10.878-22.264-17.03-33.084c-5.691-10.009-12.189-19.071-19.321-28.096c3.186,9.713,5.297,21.081,3.524,32.089
		c0,0,26.191,24.919,24.562,49.694c-1.025,15.586-22.244,42.265-22.244,42.265s44.213,25.448,60.445-6.748
		c2.865-5.686,4.853-22.077,6.01-40.478C360.156,379.991,357.891,380.113,355.546,379.976z"/>
	<ellipse fill="#854E3C" cx="357.159" cy="327.143" rx="2.128" ry="2.671"/>
	<ellipse fill="#854E3C" cx="357.159" cy="363.241" rx="2.128" ry="2.67"/>
	<ellipse fill="#854E3C" cx="354.215" cy="401.714" rx="2.128" ry="2.671"/>
	<path fill="#783C28" d="M324.019,259.661l-5.926,3.444c0,0-2.217,13.314-0.999,14.589c1.219,1.276,11.635,4.672,11.635,4.672
		s-9.973,5.66-9.719,7.526c0.356,2.616,40.249,25.001,44.039,35.333c0,0,1.743-7.456-1.625-16.678
		C356.864,296.055,341.934,278.925,324.019,259.661z"/>
	<g>
		<polygon fill="#B69B75" points="285.011,342.984 297.786,411.346 348.078,402.162 338.358,333.351 		"/>
		<path fill="#888888" d="M344.151,376.707l-1.377-8.928c-2.174,1.369-4.566,2.44-6.897,3.546c-3.883,1.843-5.826,3.916-2.731,7.617
			C336.266,382.671,340.494,379.973,344.151,376.707z"/>
		<polygon fill="#E1D6C7" points="287.26,344.498 297.61,407.551 344.77,399.183 335.641,335.762 		"/>
		<path fill="#CFBDA4" d="M321.414,352.792c-5.232-2.892-7.935-6.484-10.628-11.535c-0.165-0.31-0.336-0.61-0.504-0.917
			l-24.964,4.282l11.761,62.928l47.692-8.368l-6.104-42.409C332.679,357.159,326.27,355.475,321.414,352.792z"/>
		<path opacity="0.65" fill="#CFBDA4" d="M341.128,362.601c-0.016-0.004-0.031-0.007-0.046-0.012
			c-2.818-0.694-5.815-0.12-8.194,1.463c-6.177,4.11-8.522,1.852-14.745,5.771c-4.551,2.865-23.365-9.386-29.81-9.093l6.865,36.138
			c3.06-0.359,13.079-1.14,20.935-2.975c4.239-0.99,15.083,2.562,19.389,1.787c3.731-0.67,7.454-1.725,11.082-2.95l-4.056-29.224
			C342.363,363.625,341.903,363.344,341.128,362.601z"/>
		<g>
			<g>
				<path fill="#FBF9F4" d="M296.688,352.791l-1.884,0.316l-0.374-0.696l-1.94,0.327l-0.095,0.774l-1.819,0.306l1.032-5.558
					l2.068-0.348L296.688,352.791z M292.875,349.55l-0.235,1.957l1.199-0.201l-0.932-1.762L292.875,349.55z"/>
				<path fill="#FBF9F4" d="M297.354,352.678l-0.989-5.218l1.779-0.299l0.737,3.883l2.842-0.478l0.253,1.334L297.354,352.678z"/>
				<path fill="#FBF9F4" d="M307.558,347.526l-1.699,0.286c-0.085-0.447-0.622-0.646-1.185-0.551
					c-0.846,0.142-1.188,0.66-1.043,1.42l0.092,0.484c0.144,0.757,0.655,1.135,1.5,0.992c0.563-0.095,0.995-0.449,0.916-0.867
					l-1.256,0.211l-0.201-1.062l2.955-0.497l0.552,2.912l-0.918,0.154l-0.274-0.486c-0.423,0.488-1.021,0.798-1.866,0.94
					c-1.843,0.31-2.935-0.453-3.273-2.234c-0.338-1.782,0.591-2.886,2.508-3.208C305.918,345.76,307.309,346.215,307.558,347.526z"
					/>
				<path fill="#FBF9F4" d="M309.29,350.67l-0.989-5.218l4.79-0.805l0.237,1.251l-3.011,0.506l0.137,0.721l2.577-0.433l0.227,1.197
					l-2.577,0.433l0.151,0.798l3.068-0.516l0.237,1.25L309.29,350.67z"/>
				<path fill="#FBF9F4" d="M317.799,343.855c0.838-0.141,1.63,0.273,1.773,1.023c0.144,0.759-0.223,1.15-0.696,1.37l0.006,0.031
					c0.595,0.024,1.144,0.293,1.302,1.127c0.158,0.834-0.453,1.508-1.346,1.658l-3.736,0.628l-0.989-5.217L317.799,343.855z
					 M316.108,345.322l0.168,0.887l1.224-0.206c0.234-0.039,0.375-0.25,0.333-0.479l-0.014-0.076
					c-0.042-0.219-0.262-0.369-0.487-0.332L316.108,345.322z M316.481,347.286l0.169,0.894l1.353-0.228
					c0.233-0.04,0.377-0.242,0.333-0.479l-0.015-0.075c-0.043-0.228-0.254-0.379-0.488-0.34L316.481,347.286z"/>
				<path fill="#FBF9F4" d="M325.135,345.751l1.646,1.977l-1.997,0.335l-1.344-1.737l-0.659,0.111l0.361,1.903l-1.779,0.299
					l-0.989-5.218l3.389-0.57c1.231-0.207,2.01,0.436,2.171,1.287C326.049,344.744,325.804,345.38,325.135,345.751z
					 M323.546,344.116l-1.167,0.197l0.183,0.963l1.167-0.197c0.274-0.046,0.46-0.288,0.407-0.568
					C324.083,344.23,323.82,344.07,323.546,344.116z"/>
				<path fill="#FBF9F4" d="M333.219,346.645l-1.883,0.317l-0.374-0.697l-1.941,0.327l-0.094,0.775l-1.818,0.306l1.031-5.558
					l2.069-0.347L333.219,346.645z M329.407,343.404l-0.235,1.957l1.199-0.201l-0.931-1.762L329.407,343.404z"/>
			</g>
			<g>
				<polygon fill="#FBF9F4" points="291.284,357.256 291.04,355.888 333.739,349.126 333.983,350.494 				"/>
			</g>
		</g>
	</g>
	<g>
		<path fill="#FFB87F" d="M315.248,388.632c0,0,13.246,4.953,14.846,5.642c2.772,1.19,3.063,0.258,15.585-2.957
			c0.489-0.126,0.826-0.552,0.808-1.029c-0.035-0.896-0.243-2.29-1.146-2.99c0,0,4.886-1.735,3.367-3.618
			c-0.702-0.869-1.684-1.872-1.684-1.872s2.303-0.904,2.361-2.452c0.039-1.029-1.616-2.427-3.115-3.14c0,0,1.951-1.591,1.771-2.807
			c-0.095-0.647-0.764-2.354-4.662-4.49c0,0,0.214,1.391,0.382,2.48c0,0-0.828,2.431-5.342,5.072
			c-2.039,1.192-3.731,0.482-2.978-1.147c0.983-2.123,2.342-1.275,5.547-4.116c2.832-2.51,3.853-6.548,1.906-7.608
			c-3.197-1.741-6.065,3.333-7.727,4.611c-3.563,2.742-10.316,4.471-11.181,5.367c-1.424,1.476-4,4.909-7.705,4.389L315.248,388.632
			z"/>
		<path fill="#F39F6D" d="M339.335,375.906c-0.289,0.187-0.59,0.375-0.916,0.566c-1.799,1.053-3.322,0.62-3.139-0.615
			c-0.157,0.009-0.293,0.043-0.457,0.043c-3.37,0-5.463-1.955-6.26-4.313c-2.24,0.886-4.146,1.544-4.578,1.992
			c-1.424,1.476-4,4.909-7.705,4.389l-1.033,10.665c0,0,13.246,4.953,14.846,5.642c1.983,0.852,2.72,0.61,7.547-0.769
			c0.011-0.081,0.001-0.155,0.016-0.237c0.804-4.83,2.814-9.555,2.206-14.566C339.754,377.817,339.565,376.872,339.335,375.906z"/>
		<path fill="#FFB87F" d="M343.762,371.4c0,0-0.828,2.431-5.343,5.072c-2.038,1.192-3.73,0.482-2.977-1.147
			c0.983-2.123,2.342-1.275,5.547-4.116c2.832-2.51,3.853-6.548,1.906-7.608c-0.759-0.413-1.497-0.434-2.207-0.222
			c1.917,0.845,2.143,2.338,1.735,3.693c-0.474,1.572-2.158,3.307-3.825,4.111c-2.647,1.276-4.363,2.715-4.71,4.605
			c1.805,0.806,3.22,3.513,2.064,5.129c1.932,0.958,2.363,3.136,1.002,5.162c0.918,0.781,0.399,3.696-1.241,4.377
			c0,0,0.337,3.046-3.666,3.046c-1.634,0-12.72-5.164-16.721-5.679l-0.078,0.81c0,0,13.246,4.953,14.846,5.64
			c2.772,1.192,6.922,0.497,15.585-2.955c0.467-0.186,0.826-0.553,0.808-1.029c-0.035-0.896-0.243-2.29-1.146-2.99
			c0,0,4.886-1.735,3.367-3.618c-0.702-0.869-1.684-1.872-1.684-1.872s2.303-0.904,2.361-2.452c0.039-1.029-1.616-2.427-3.115-3.14
			c0,0,1.951-1.591,1.771-2.807c-0.095-0.647-0.764-2.354-4.662-4.49C343.379,368.92,343.594,370.311,343.762,371.4z"/>
		<path fill="#D8733A" d="M347.026,376.634c-0.238-0.145-0.478-0.282-0.717-0.397c-0.805,0.162-6.724,2.978-8.576,3.831
			C338.014,380.262,344.648,377.942,347.026,376.634z"/>
		<path fill="#D8733A" d="M347.607,382.414c-0.238-0.145-0.345-0.491-0.584-0.606c-0.805,0.162-6.856,3.187-8.709,4.04
			C338.595,386.042,345.229,383.722,347.607,382.414z"/>
		<path fill="#D8733A" d="M345.837,387.843c0,0-0.226-0.416-0.454-0.526c-0.769,0.154-4.76,2.308-6.528,3.123
			C339.123,390.625,343.567,389.091,345.837,387.843z"/>
		<path fill="#FFDDC4" d="M338.214,367.809c-1.466-1.585,1.725-4.025,1.908-4.032c0,0,1.865,0.161,1.941,2.444
			c-0.468,0.887-1.006,1.233-1.565,1.587C339.5,368.439,338.639,368.27,338.214,367.809z"/>
	</g>
	<polygon fill="#FBF9F4" points="311.933,376.237 318.906,376.697 316.544,390.028 309.359,389.007 	"/>
	<path fill="#783C28" d="M293.584,334.954c0,0,12.817-37.742-15.688-57.77c0,0-22.56,23.448-38.32,51.693
		c-5.488,9.834-22.093,40.741-14.375,47.36c8.236,7.064,22.274,11.348,85.647,14.219l2.667-15.399c0,0-54.868-12.454-54.597-16.281
		C259.189,354.949,293.584,334.954,293.584,334.954z"/>
	<path opacity="0.18" fill="#62260F" d="M258.724,358.493c0.095-0.018,0.197-0.025,0.293-0.042
		c1.89-4.499,34.567-23.498,34.567-23.498s6.357-18.774,0.114-36.866C288.334,330.84,254.254,347.844,258.724,358.493z"/>
	<path fill="#FFB87F" d="M361.845,246.184c7.881-0.29,16.096-1.704,20.109-8.448c2.484-4.175,6.504-10.011,7.046-14.829
		c0.323-2.868-0.574-5.871-1.426-8.839c-3.445-4.289-8.89-26.811-9.569-30.83c-0.834-4.938-0.528-12.02-2.746-16.584
		c-3.259-6.707-10.941-5.299-18.641-7.588c-5.666-1.686-14.31-2.743-18.946,1.487c-1.456,1.329-2.573,3.331-4.293,4.396
		c-1.589,0.983-3.375,0.973-4.835,2.153c-3.227,2.605-6.169,5.849-6.911,9.901c-0.79,4.308-5.639,10.521-4.72,14.696
		c1.56,7.092,11.306,32.638,14.932,38.31c4.002,6.262,11.031,10.822,18.229,13.292C353.958,244.635,357.874,245.743,361.845,246.184
		z"/>
	<path fill="#F39F6D" d="M336.562,214.428c-4.012-6.206-10.99-18.554-9.786-25.928c2.172-13.302,19.702-14.677,24.452-15.439
		c7.958-1.277,18.328-6.082,26.201,4.847c-0.324-3.944-0.67-8.169-2.169-11.253c-3.259-6.707-10.941-5.299-18.641-7.588
		c-5.666-1.686-14.31-2.743-18.946,1.487c-1.456,1.329-2.573,3.331-4.293,4.396c-1.589,0.983-3.375,0.973-4.835,2.153
		c-3.227,2.605-6.169,5.849-6.911,9.901c-0.79,4.308-5.639,10.521-4.72,14.696c1.104,5.02,6.307,19.277,10.54,29.194
		c4.504-0.005,8.969,0.267,13.428,0.531C339.313,219.146,338.001,216.656,336.562,214.428z"/>
	<path fill="#391C17" d="M324.286,166.736c6.04,6.367,7.77,9.157,14.4,5.915c3.369-1.648,15.792-4.515,19.513-5.157
		c3.432-0.591,6.453-0.903,10.515,0.054c2.977,0.701,6.64,1.75,8.362,6.984c4.553-5.384,0.491-11.843-2.491-13.953
		c-2.438-1.723-12.475-0.873-15.573-1.136c-3.999-0.34-7.743,4.213-10.359,6.51c-2.78,2.441-5.565-1.545-9.132-0.122
		C334.974,167.646,328.583,169.377,324.286,166.736z"/>
	<path fill="#4F3D37" d="M362.736,147.776c-10.844-7.941-23.703-1.751-32.573,4.199c-3.944,2.646-14.619,16.421-16.976,19.387
		c7.029,6.75,19.768,5.942,28.346,1.054c4.148-2.364,7.713-5.212,11.385-8.19c2.659-2.157,6.404-3.852,10.156-2.922
		c14.272,3.534,14.301,15.959,14.301,15.959c4.211-0.594,11.737-7.782,9.041-15.445
		C383.454,153.399,376.223,157.653,362.736,147.776z"/>
	<path fill="#776965" d="M359.286,145.772c-4.207-1.936-8.609-2.081-12.889-1.219c-1.008,2.133-2.785,4.901-2.477,7.021
		c0.552,3.802,1.04,7.021-0.098,10.762c-0.292,0.961-0.784,1.92-1.412,2.82c-1.346,1.928-1.803,4.282-1.259,6.533
		c0.066,0.273,0.131,0.547,0.196,0.821c0.004,0.003,0.005,0.003,0.011,0.005c4.224-2.384,7.836-5.271,11.56-8.29
		c0.275-0.223,0.562-0.44,0.858-0.65c2.237-1.582,3.567-4.019,3.481-6.652c-0.003-0.049-0.004-0.097-0.005-0.145
		C357.144,152.877,357.863,149.298,359.286,145.772z"/>
	<path fill="#4F3D37" d="M323.819,196.665c-0.141,3.589,9.281,17.315,13.708,20.941c3.683,3.018,9.404,11.142,1.36,14.998
		c-5.75,2.757-17.025-0.635-21.975-3.826c-7.974-5.14-10.715-10.225-11.523-17.093c-0.387-3.287,0.918-33.566,2.579-36.737
		c3.802-7.267,16.318-14.31,20.325-0.415C327.277,172.069,324.142,188.5,323.819,196.665z"/>
	<path fill="#776965" d="M337.527,217.605c-4.102-3.36-12.481-15.38-13.577-19.981c-1.371,0.561-2.822,1.002-4.383,1.285
		c-4.585,0.828-9.424,0.544-13.91-0.766c-0.304,6.533-0.423,12.22-0.267,13.541c0.809,6.868,3.549,11.953,11.523,17.093
		c4.95,3.19,16.225,6.583,21.975,3.826C346.931,228.748,341.21,220.624,337.527,217.605z"/>
	<path opacity="0.65" fill="#4F3D37" d="M336.046,224.292c-2.698-2.244-6.379-2.724-8.555-5.671
		c-0.489-0.662-0.981-1.617-1.514-2.627c-0.915,2.712-3.983,1.918-4.133,2.42c-0.832,2.804-2.254,3.479-0.466,12.59
		c5.554,2.229,13.13,3.698,17.509,1.598c3.712-1.779,4.475-4.468,3.876-7.144C340.686,226.249,338.216,226.095,336.046,224.292z"/>
	<path fill="#776965" d="M384.668,207.861c-5.35,3.522-12.913,5.563-18.345,6.118c-6.248,0.638-15.267-0.572-21.561-0.216
		c-5.335,0.303-15.251,4.012-15.813,4.235c-0.289,23.836,25.419,29.637,30.468,30.041c11.732,0.937,27.929-3.109,32.838-14.427
		C396.043,224.88,390.083,214.866,384.668,207.861z"/>
	<g>
		<path fill="#CC3333" d="M347.229,218.446c0,0,20.317,5.92,31.279-4.268c0,0,1.316,15.008-12.716,15.421
			C351.76,230.012,347.229,218.446,347.229,218.446z"/>
		<path fill="#FBF9F4" d="M377.104,215.346c-9.181,6.993-23.371,4.607-28.197,3.518c0.31,0.804,0.566,1.532,0.678,2.11
			c0.031,0.154,0.04,0.308,0.067,0.463c2.397,2.091,6.897,4.473,14.897,4.237c8.033-0.236,11.435-3.967,12.882-7.116
			C377.368,217.475,377.256,216.405,377.104,215.346z"/>
	</g>
	<g>
		<path fill="#FFB87F" d="M328.567,219.579c0,0-3.228-12.372-4.841-14.583c-1.614-2.211-7.704-6.427-10.345,1.935
			C310.74,215.293,318.811,223.517,328.567,219.579z"/>
		<path fill="#EF9261" d="M316.243,207.207c0,0,3.375-2.35,5.501-0.691c2.128,1.659,7.19,11.542,3.668,11.887
			c-3.521,0.346-5.862-0.138-5.059-4.285c0.804-4.147,0.957-5.071,0-5.486C319.398,208.218,314.711,208.503,316.243,207.207z"/>
	</g>
	<path fill="#4F3D37" d="M348.671,176.09c0.86-0.113,1.649,0.436,1.78,1.244c0.358,2.231,0.768,6.372-1.057,6.651
		c-2.509,0.385-10.978,0.379-18.989,5.927c0,0-1.82-3.166,2.519-7.584C336.725,178.458,344.524,176.635,348.671,176.09z"/>
	<path fill="#4F3D37" d="M364.145,175.198c-0.521-0.009-0.946,0.379-0.984,0.868c-0.164,2.056-0.25,7.002,2.753,6.463
		c2.066-0.37,10.709-0.191,14.341,0.583c0.128,0.028-1.027-4.409-7.201-6.583C371.128,175.85,367.389,175.255,364.145,175.198z"/>
	
		<radialGradient id="SVGID_1_" cx="408.0684" cy="287.3271" r="3.9376" gradientTransform="matrix(1.4724 0 0 1.387 -225.5781 -192.8447)" gradientUnits="userSpaceOnUse">
		<stop  offset="0" style="stop-color:#FFAB87"/>
		<stop  offset="0.5034" style="stop-color:#FFAE85"/>
		<stop  offset="0.8953" style="stop-color:#FFB87F"/>
		<stop  offset="0.8984" style="stop-color:#FFB87F"/>
	</radialGradient>
	<path fill="url(#SVGID_1_)" d="M382.068,205.039c0.25,2.336-2.597,4.52-6.357,4.876c-3.761,0.356-7.012-1.25-7.261-3.586
		c-0.25-2.336,2.597-4.519,6.357-4.875C378.568,201.097,381.819,202.702,382.068,205.039z"/>
	
		<radialGradient id="SVGID_2_" cx="389.0654" cy="274.1133" r="4.5675" gradientTransform="matrix(1.4587 0.1884 -0.2 1.3741 -165.6055 -241.6201)" gradientUnits="userSpaceOnUse">
		<stop  offset="0" style="stop-color:#FFAB87"/>
		<stop  offset="0.5034" style="stop-color:#FFAE85"/>
		<stop  offset="0.8953" style="stop-color:#FFB87F"/>
		<stop  offset="0.8984" style="stop-color:#FFB87F"/>
	</radialGradient>
	<path fill="url(#SVGID_2_)" d="M355.046,208.598c-0.104,2.722-3.74,4.808-8.122,4.66c-4.381-0.149-7.849-2.477-7.745-5.198
		c0.104-2.722,3.741-4.809,8.122-4.66C351.683,203.548,355.15,205.875,355.046,208.598z"/>
	<g>
		<g>
			<g>
				<defs>
					<path id="SVGID_3_" d="M336.529,197.505c0,0,2.014-6.036,9.247-6.036c7.232,0,7.219,6.727,7.219,6.727
						s-2.585,4.715-9.722,3.449C337.654,200.65,336.529,197.505,336.529,197.505z"/>
				</defs>
				<clipPath id="SVGID_4_">
					<use xlink:href="#SVGID_3_"  overflow="visible"/>
				</clipPath>
				<path clip-path="url(#SVGID_4_)" fill="#FFFFF6" d="M336.529,197.505c0,0,2.014-6.036,9.247-6.036
					c7.232,0,7.219,6.727,7.219,6.727s-2.585,4.715-9.722,3.449C337.654,200.65,336.529,197.505,336.529,197.505z"/>
				
					<radialGradient id="SVGID_5_" cx="386.3638" cy="286.4819" r="6.2249" gradientTransform="matrix(1.4724 0 0 1.387 -225.5781 -192.8447)" gradientUnits="userSpaceOnUse">
					<stop  offset="0" style="stop-color:#847773"/>
					<stop  offset="1" style="stop-color:#402D26"/>
				</radialGradient>
				<ellipse clip-path="url(#SVGID_4_)" fill="url(#SVGID_5_)" cx="344.23" cy="197.4" rx="5.385" ry="5.392"/>
			</g>
			<path fill="#3D2E29" d="M344.969,194.196c5.544,0,7.58,3.856,8.023,4.006l0.003-0.006c0,0,0.454-7.021-8.233-7.021
				c-7.233,0-8.233,6.331-8.233,6.331s0.004,0.013,0.014,0.036C337.016,197.366,339.721,194.196,344.969,194.196z"/>
		</g>
	</g>
	<g>
		<g>
			<g>
				<defs>
					<path id="SVGID_6_" d="M366.217,194.25c0,0,1.695-5.75,7.782-5.75c6.088,0,6.078,6.406,6.078,6.406s-2.177,4.49-8.183,3.285
						C367.163,197.243,366.217,194.25,366.217,194.25z"/>
				</defs>
				<clipPath id="SVGID_7_">
					<use xlink:href="#SVGID_6_"  overflow="visible"/>
				</clipPath>
				<path clip-path="url(#SVGID_7_)" fill="#FFFFF6" d="M366.217,194.25c0,0,1.695-5.75,7.782-5.75c6.088,0,6.078,6.406,6.078,6.406
					s-2.177,4.49-8.183,3.285C367.163,197.243,366.217,194.25,366.217,194.25z"/>
				
					<radialGradient id="SVGID_8_" cx="406.3457" cy="283.8735" r="5.4498" gradientTransform="matrix(1.4724 0 0 1.387 -225.5781 -192.8447)" gradientUnits="userSpaceOnUse">
					<stop  offset="0" style="stop-color:#847773"/>
					<stop  offset="1" style="stop-color:#402D26"/>
				</radialGradient>
				<ellipse clip-path="url(#SVGID_7_)" fill="url(#SVGID_8_)" cx="372.281" cy="194.336" rx="4.435" ry="4.536"/>
			</g>
			<path fill="#3D2E29" d="M372.804,190.975c4.596,0,6.899,3.777,7.272,3.925c0-0.071-0.023-6.4-6.078-6.4
				c-6.087,0-7.782,5.75-7.782,5.75s0.016,0.043,0.025,0.065C366.638,194.157,368.359,190.975,372.804,190.975z"/>
		</g>
	</g>
	<path fill="#6A3C3E" d="M380.134,185.624c-0.605-0.184-10.998,1.041-14.784,2.139c-0.718,0.208-1.172,1.01-1.021,1.841
		c0.056,0.303,0.125,0.661,0.2,1.043c-4.022-1.778-7.311,0.549-8.348,1.43c-0.64-2.012-1.312-3.547-1.72-3.635
		c-0.879-0.19-16.24,1.557-21.475,2.904c-0.981,0.252-1.551,1.148-1.28,2.052c0.943,3.163,3.294,11.008,3.553,11.569
		c0.721,1.563,21.894-0.603,22.501-3.478c0.311-1.47-0.284-4.788-1.081-7.712c0.943-0.646,2.998-1.956,4.565-2.22
		c1.405-0.238,2.868,0.538,3.691,1.082c0.687,3.275,1.599,7.304,1.725,7.716c0.48,1.575,15.733-0.257,16.114-3.022
		c0.3-2.179-1.085-8.641-2.031-11.05C380.519,185.706,380.275,185.666,380.134,185.624z M355.829,200.682
		c-0.491,2.317-18.181,4.027-18.754,2.775c-0.207-0.449-1.921-6.856-2.669-9.38c-0.214-0.722,0.239-1.437,1.019-1.64
		c4.17-1.086,16.861-2.596,17.571-2.445C353.849,190.172,356.32,198.365,355.829,200.682z M381.214,196.667
		c-0.322,2.212-12.86,3.682-13.245,2.438c-0.136-0.443-1.272-6.477-1.713-8.83c-0.125-0.665,0.231-1.309,0.8-1.478
		c3.015-0.897,11.678-1.921,12.17-1.774C379.818,187.199,381.531,194.496,381.214,196.667z"/>
	<g>
		<path fill="#E78B57" d="M368.577,207.622c0.289-1.098-2.421-4.791-5.714-11.642c-0.528-1.097-2.03-4.172-1.802-4.172
			c0.072,0.002,0.85,0.75,1.587,1.64c3.074,3.708,10.235,13.495,8.822,15.595c-0.947,1.408-1.798,2.352-7.359,2.792
			c-2.029,0.16-4.104,0.03-4.795-0.607c-0.223-0.192,0.808-0.383,2.786-0.527C364.743,210.51,368.324,208.889,368.577,207.622z"/>
	</g>
	<path fill="#404040" d="M493.786,348.216c0,0,0.639,2.254,2.717,3.441c2.08,1.188,4.504,0.684,4.504,0.684
		s124.526-166.984,122.91-168.501l-0.021-0.013C622.576,182.798,493.786,348.216,493.786,348.216z"/>
	<g>
		<path fill="#FFB87F" d="M548.089,296.057c-1.384,1.129-3.006,1.973-4.766,2.444c-1.723,0.46-3.819,1.132-4.518,1.823
			c-1.254,1.241-1.38,3.551,5.699,2.251c4.936-0.905,6.175-2.269,7.178-3.647c1.005-1.379,1.214-6.798,1.214-6.798L548.089,296.057z
			"/>
		<path fill="#F39F6D" d="M545.443,297.692c-0.682,0.324-1.382,0.61-2.12,0.808c-1.723,0.46-3.819,1.132-4.518,1.822
			c-1.254,1.242-1.38,3.553,5.699,2.253c0.604-0.11,1.134-0.23,1.628-0.354C545.38,300.832,545.144,299.206,545.443,297.692z"/>
		<path fill="#FFC9A2" d="M538.406,301.315c-0.139-1.003,2.438-1.543,2.542-1.464c0,0,1.403,0.773,0.281,2.079
			c-0.71,0.283-1.245,0.309-1.734,0.233C538.706,302.039,538.466,301.759,538.406,301.315z"/>
		<path fill="#D8733A" d="M547.109,298.051c1.806-0.688,3.619-1.37,5.425-2.063c0.285-1.873,0.362-3.859,0.362-3.859l-4.808,3.927
			c-1.384,1.129-3.006,1.973-4.766,2.444c-1.547,0.413-3.385,0.997-4.254,1.612C541.588,299.145,544.438,299.07,547.109,298.051z"/>
	</g>
	<g>
		<path fill="#FFB87F" d="M525.798,289.574c0,0,6.485-3.838,8.532-5.61c1.953-1.69,5.086,1.094,12.146-4.542
			c0.725-0.578,1.885-0.378,2.243,0.452c0.503,1.166,0.481,3.173-2.094,6.336c-3.205,3.936-8.446,3.821-9.617,4.175
			c-1.172,0.355-2.803,6.523-10.663,5.987C522.253,296.092,525.798,289.574,525.798,289.574z"/>
		<path fill="#F39F6D" d="M548.719,279.873c-0.035-0.081-0.108-0.128-0.159-0.197c-0.114,0.733-0.346,1.457-0.696,2.17
			c-1.487,3.033-5.178,4.705-8.635,4.457c-1.024-0.073-1.875-0.159-2.715-0.333c0.061,3.663-2.436,7.33-3.492,8.674
			c2.364-1.692,3.273-4.043,3.986-4.26c1.171-0.354,6.412-0.239,9.617-4.175C549.2,283.046,549.222,281.039,548.719,279.873z"/>
		<path fill="#FFDDC4" d="M543.007,281.775c0,0,3.141-2.231,3.322-2.238c0,0,1.02-0.918,1.095,1.365
			c-0.467,0.887-1.232,1.771-1.791,2.124C544.635,283.658,543.433,282.235,543.007,281.775z"/>
	</g>
	<g>
		<path fill="#FFB87F" d="M544.134,293.285c-2.051,0.79-6.956,3.677-6.122,5.108c1.015,1.749,4.368,0.571,7.975-0.62
			c3.606-1.192,8.415-2.57,8.666-4.186c0.251-1.615-0.167-5.042-0.167-5.042S544.664,293.081,544.134,293.285z"/>
		<path fill="#F39F6D" d="M546.104,292.417c0-0.006-0.003-0.011-0.003-0.016c-1.058,0.482-1.829,0.832-1.968,0.884
			c-2.051,0.79-6.956,3.677-6.122,5.108c1.015,1.749,4.368,0.571,7.975-0.62c0.115-0.038,0.239-0.078,0.356-0.116
			C545.561,296.007,545.472,294.075,546.104,292.417z"/>
		<path fill="#FFC9A2" d="M538.273,298.003c-0.351-1.084,2.388-2.135,2.52-2.067c0,0,1.705,0.607,0.726,2.248
			c-0.73,0.438-1.315,0.561-1.87,0.563C538.751,298.751,538.429,298.484,538.273,298.003z"/>
		<path fill="#D8733A" d="M554.628,290.008c-0.066-0.838-0.143-1.462-0.143-1.462s-9.821,4.535-10.352,4.739
			c-0.87,0.336-2.26,1.053-3.504,1.874C545.339,294.328,549.619,291.699,554.628,290.008z"/>
	</g>
	<g>
		<path fill="#FFB87F" d="M547.264,286.757c-1.171,0.824-2.415,1.54-3.738,2.122c-2.76,1.214-8.107,3.87-6.727,5.696
			c0.899,1.191,2.238,1.062,4.849,0.015c2.225-0.893,5.019-2.104,5.652-2.46c1.243-0.696,8.613-2.826,8.608-4.727
			c-0.009-2.454,0.5-5.83-3.848-3.545C549.691,285.103,548.296,286.03,547.264,286.757z"/>
		<path fill="#F39F6D" d="M544.686,288.294c-0.384,0.199-0.761,0.41-1.16,0.585c-2.76,1.214-8.107,3.87-6.727,5.696
			c0.899,1.191,2.238,1.062,4.849,0.015c1.897-0.762,4.199-1.751,5.232-2.247C545.679,291.277,544.861,289.809,544.686,288.294z"/>
		<path fill="#FFC9A2" d="M536.885,294.158c-0.392-1.205,2.654-2.375,2.801-2.299c0,0,1.896,0.674,0.807,2.499
			c-0.813,0.487-1.462,0.624-2.081,0.626C537.413,294.989,537.058,294.692,536.885,294.158z"/>
	</g>
	<ellipse fill="#FFFFFF" cx="346.716" cy="196.232" rx="0.765" ry="0.653"/>
	<ellipse fill="#FFFFFF" cx="373.911" cy="193.229" rx="0.765" ry="0.652"/>
</g>
</svg>
