<?xml version="1.0" encoding="utf-8"?>
<!-- Generator: Adobe Illustrator 16.0.0, SVG Export Plug-In . SVG Version: 6.00 Build 0)  -->
<!DOCTYPE svg PUBLIC "-//W3C//DTD SVG 1.1//EN" "http://www.w3.org/Graphics/SVG/1.1/DTD/svg11.dtd">
<svg version="1.1" id="Capa_1" xmlns="http://www.w3.org/2000/svg" xmlns:xlink="http://www.w3.org/1999/xlink" x="0px" y="0px"
	 width="400px" height="400px" viewBox="0 0 400 400" enable-background="new 0 0 400 400" xml:space="preserve">
<g>
	<path fill="#261E19" d="M90.38,384.683V71.25h2.258c9.193-30.82,45.403-53.278,87.735-53.278c42.332,0,78.542,22.458,87.734,53.278
		h2.258v313.433H90.38z"/>
	<rect x="98.621" y="90.999" fill="#594320" width="163.503" height="285.416"/>
	<path fill="#D39C0A" d="M240.284,238.729L240.284,238.729c1.728-1.27,4.136,0.126,3.904,2.261l0,0
		c-0.117,1.071,0.472,2.094,1.455,2.528l0,0c1.96,0.867,1.96,3.656,0,4.522l0,0c-0.983,0.435-1.572,1.458-1.455,2.529l0,0
		c0.231,2.135-2.177,3.53-3.904,2.261l0,0c-0.866-0.637-2.043-0.637-2.91,0l0,0c-1.729,1.27-4.136-0.126-3.903-2.261l0,0
		c0.115-1.071-0.474-2.095-1.456-2.529l0,0c-1.959-0.866-1.959-3.655,0-4.522l0,0c0.982-0.435,1.571-1.457,1.456-2.528l0,0
		c-0.232-2.135,2.175-3.53,3.903-2.261l0,0C238.241,239.366,239.418,239.366,240.284,238.729z"/>
	<ellipse fill="#DFB100" cx="238.83" cy="245.78" rx="3.347" ry="3.358"/>
	<path fill="#261E19" d="M240.288,258.124c0-0.666-0.538-1.206-1.202-1.206c-0.663,0-1.201,0.54-1.201,1.206
		c0,0.458,0.258,0.852,0.632,1.055h-0.001l-0.316,2.447h1.831l-0.475-2.392C239.986,259.051,240.288,258.623,240.288,258.124z"/>
	<g>
		<path fill="#FFF7B2" d="M180.373,58.149c19.287,0,35.266,10.462,38.108,24.124h43.43c-3.027-31.319-38.374-56.033-81.538-56.033
			c-43.165,0-78.511,24.714-81.538,56.033h43.429C145.106,68.611,161.085,58.149,180.373,58.149z"/>
		<path fill="#C47800" d="M180.373,29.685c39.183,0,72.298,21.297,77.581,49.144h-36.841c-4.604-14.134-21.191-24.124-40.74-24.124
			c-19.55,0-36.137,9.99-40.74,24.124h-36.84C108.073,50.981,141.188,29.685,180.373,29.685 M180.373,26.24
			c-43.165,0-78.511,24.714-81.538,56.033h43.429c2.842-13.662,18.821-24.124,38.109-24.124c19.287,0,35.266,10.462,38.108,24.124
			h43.43C258.883,50.954,223.536,26.24,180.373,26.24L180.373,26.24z"/>
	</g>
	<g>
		<path fill="#FFF7B2" d="M180.373,58.149c-19.288,0-35.267,10.462-38.109,24.124h76.217
			C215.639,68.611,199.66,58.149,180.373,58.149z"/>
	</g>
	<rect x="98.621" y="79.518" fill="#261E19" width="163.503" height="11.481"/>
	<g>
		<line fill="#DADADA" x1="180.373" y1="58.149" x2="180.373" y2="26.24"/>
		<rect x="178.656" y="26.24" fill="#C47800" width="3.434" height="31.91"/>
	</g>
	<g>
		<line fill="#DADADA" x1="204.303" y1="63.609" x2="231.048" y2="39.933"/>
		<polygon fill="#C47800" points="205.438,64.9 203.166,62.317 229.911,38.642 232.184,41.224 		"/>
	</g>
	<g>
		<line fill="#DADADA" x1="155.637" y1="64.297" x2="128.891" y2="40.346"/>
		<polygon fill="#C47800" points="154.493,65.583 127.748,41.632 130.034,39.061 156.78,63.013 		"/>
	</g>
	<rect x="67.964" y="376.415" fill="#A70B29" width="227.563" height="12.204"/>
</g>
</svg>
