<?xml version="1.0" encoding="utf-8"?>
<!-- Generator: Adobe Illustrator 16.0.0, SVG Export Plug-In . SVG Version: 6.00 Build 0)  -->
<!DOCTYPE svg PUBLIC "-//W3C//DTD SVG 1.1//EN" "http://www.w3.org/Graphics/SVG/1.1/DTD/svg11.dtd">
<svg version="1.1" id="Capa_1" xmlns="http://www.w3.org/2000/svg" xmlns:xlink="http://www.w3.org/1999/xlink" x="0px" y="0px"
	 width="400px" height="400px" viewBox="0 0 400 400" enable-background="new 0 0 400 400" xml:space="preserve">
<g>
	<path fill="#2C3A64" d="M232.89,125.851c0.117-0.438,1.632-5.129,12.316-4.328c0,0-5.319-0.092-6.557,1.38
		c0,0,3.973-1.578,6.738-0.671c2.768,0.905,3.732,4.523,3.508,5.659c-0.227,1.137-2.618,4.636-4.524,4.766
		c-0.722,0.049-1.518-0.062-2.229-0.218c0.379,0.567,0.736,1.188,1.058,1.873c2.979,6.332-2.632,11.682-6.087,10.688
		c-2.215-0.636-3.438,1.97-3.438,1.97l-19.748-14.512C213.928,132.457,224.615,121.717,232.89,125.851z"/>
	<path fill="#2B478B" d="M207.163,300.615l4.802,1.216c0,0,20.862-19.652,23.431-36.941c0.459-3.088,0.305-6.078-0.687-8.841
		c0,0,0.205-0.791,0.562-2.189c0.164-0.651,0.368-1.438,0.6-2.338c0.678-2.64,1.611-6.251,2.679-10.364
		c2.453-9.462,5.634-21.559,8.104-30.45l-1.294-0.283l-14.002-3.068l-2.895-6.243l-10.427-1.864c0,0-2.329,3.095-4.412,17.714
		c-0.383,1.918-0.732,4.032-0.995,6.325c-0.811,7-0.87,15.683,0.992,25.607c0.479,2.541,1.083,5.164,1.832,7.859
		c0.549,1.978,0.63,4.67,0.399,7.762C214.802,278.649,207.163,300.615,207.163,300.615z"/>
	<path fill="#233862" d="M212.629,223.287l22.642,30.572c0.164-0.651,0.368-1.438,0.6-2.338c0.678-2.64,1.611-6.251,2.679-10.364
		c2.453-9.462,5.634-21.559,8.104-30.45l-1.294-0.283l-14.002-3.068l-2.895-6.243l-10.427-1.864c0,0-2.329,3.095-4.412,17.714
		C213.241,218.88,212.892,220.994,212.629,223.287z"/>
	<path fill="#2B478B" d="M222.588,203.172c0,0,0.011,0.025,0.025,0.072c0.073,0.202,0.294,0.821,0.609,1.705
		c1.506,4.207,5.184,14.422,5.405,14.412c2.019,9.58,5.055,21.989,8.825,31.528c1.996,5.045,4.192,9.287,6.562,11.882
		c0.813,0.892,1.698,2.383,2.622,4.279c5.448,11.188,12.152,36.51,12.152,36.51l3.056,0.837c0,0,11.78-22.754,1.573-41.229
		c-1.042-1.882-2.31-3.719-3.84-5.484c-0.176-0.205-0.296-0.427-0.256-0.661c0-0.003,0-0.004,0.003-0.008
		c0.134-0.77,0.466-2.696,0.84-5.405c1.041-7.472,2.036-32.721,2.58-38.663c0.206-2.249,0.086-4.256-0.253-6.033
		c-0.653-3.468-2.125-6.063-3.562-7.879c-1.813-2.292-3.574-3.34-3.574-3.34s-23.463,6.01-32.245,4.425L222.588,203.172z"/>
	<path fill="#223E77" d="M222.616,204.682c0.187,0.092,0.39,0.182,0.606,0.268c8.092,3.213,36.477,2.084,39.27,1.964
		c-0.653-3.468-2.125-6.063-3.562-7.879c-12.142,0.731-32.265,2.216-36.317,4.21C221.692,203.699,221.6,204.18,222.616,204.682z"/>
	<path fill="#ED985F" d="M177.332,198.167l1.424,2.862c0,0,0.287-0.036,0.782-0.122c1.553-0.265,5.343-0.879,9.586-1.725
		c6.395-1.234,13.916-2.958,16.651-4.622c4.17-2.517,10.279-9.412,13.709-15.977c0.104-0.163,0.172-0.321,0.242-0.48
		c1.771-3.479,2.766-6.836,2.244-9.356c-0.298-1.544-0.897-2.825-1.667-3.91c-1.006-1.433-2.324-2.5-3.601-3.272
		c-0.181-0.127-0.362-0.256-0.61-0.352c-2.084-1.174-3.69-1.93-3.69-1.93c-0.923-0.139-2.006,0.646-2.783,1.468
		c0,0-1.267,1.634-1.805,2.805c-0.028,0.029-0.059,0.058-0.053,0.082c-0.12,0.241-0.234,0.505-0.379,0.798
		c-0.059,0.058-0.074,0.135-0.098,0.188c-0.245,0.607-0.483,1.238-0.716,1.894c-2.672,7.05-4.741,17.488-7.86,20.904
		c-1.345,1.469-8.378,4.889-14.006,7.484C180.652,196.757,177.332,198.167,177.332,198.167z"/>
	<path fill="#FFB27D" d="M214.966,166.121c2.545,1.127,5.714,2.038,9.669,2.578c14.82,2.029,20.113-6.532,21.991-12.375
		c-2.04-0.742-3.937-0.878-5.032-0.945c-1.067-0.065-2.188-0.101-3.118-0.115c-1.688-0.829-4.298-4.302-5.07-9.757l-0.687,0.14
		l-11.517,2.38c0,0,0.635,2.494,0.994,4.858c0.278,1.85,0.385,3.621-0.115,4.063c-0.899,0.151-1.44,0.249-1.44,0.249
		s0,0.002-0.005,0.008C220.486,157.38,217.276,161.206,214.966,166.121z"/>
	<path fill="#2B478B" d="M209.806,172.41c0.069,0.213,0.153,0.424,0.244,0.64c2.601,5.908,4.705,29.526,4.705,29.526
		c-1.877,4.024,45.785,3.688,46.708-0.053c2.491-3.819-3.607-10.949-7.134-14.571c-0.44-0.456-0.821-0.934-1.135-1.431
		c-0.797-1.247-1.181-2.603-1.101-3.974c0.309-5.401,1.689-10.356,2.269-13.396c-0.001,0-0.001,0-0.001,0
		c-0.733-0.496-1.448-0.956-2.111-1.393c-1.014-0.673-1.901-1.296-2.526-1.902c-0.687-0.659-1.067-1.303-0.984-1.979
		c0.066-0.509,0.2-1.026,0.39-1.539c0.086-0.242,0.185-0.483,0.291-0.721c1.134-2.519,3.215-4.698,3.215-4.698
		c-3.771-1.497-11.041-1.542-11.041-1.542s-0.049,0.269-0.139,0.71c-0.355,1.771-1.349,6.31-2.367,7.086
		c-1.272,0.967-21.371,3.773-22.069,2.222c-0.688-1.526,3.463-7.95,3.617-8.193c0.005-0.005,0.005-0.008,0.005-0.008
		c-6.759,1.075-9.352,2.281-9.352,2.281C214.781,161.555,207.974,166.748,209.806,172.41z"/>
	<path fill="#ED985F" d="M221.202,148.028c0,0,0.638,2.493,0.994,4.858c6.556-0.572,9.431-4.883,10.522-7.237L221.202,148.028z"/>
	<path fill="#FFB27D" d="M219.335,150.418c0,0,15.583-0.884,14.623-7.467c-0.959-6.582,0.404-11.128-9.584-10.843
		c-9.988,0.287-11.552,2.929-12.019,5.178C211.889,139.536,215.258,150.477,219.335,150.418z"/>
	<path fill="#2C3A64" d="M212.278,133.593c2.112-2.143,3.994-1.831,5.1-1.305c8.034-3.753,14.205,0.569,14.205,0.569
		c1.737,4.651,7.15,7.016,7.15,7.016s-2.661,1.382-9.365,0.685c-2.048-0.213-3.973-1.056-5.661-2.121
		c3.09,2.831,7.011,4.757,7.011,4.757c-8.17-1.921-12.392-9.084-12.819-9.842c-0.865,0.643-2.552,2.029-2.94,3.302
		c-0.527,1.729-0.368,5.202-1.866,5.186C213.092,141.838,209.109,136.808,212.278,133.593z"/>
	<path fill="#233862" d="M228.952,196.109c9.207,0.841,18.376-4.875,24.242-9.588c-0.797-1.247-1.181-2.603-1.101-3.974
		c0.309-5.401,1.689-10.356,2.269-13.396c-0.001,0-0.001,0-0.001,0c-0.733-0.496-1.448-0.956-2.111-1.393
		c-1.014-0.673-1.901-1.296-2.526-1.902C240.35,173.759,216.47,194.971,228.952,196.109z"/>
	<g>
		<path fill="#ED985F" d="M196.829,198.252l-1.629,3.754c0,0,4.11-0.635,6.688-0.806c0.772-0.053,1.215-0.1,1.215-0.1
			c2.063-0.151,4.537-0.377,7.23-0.615l0.036,0.001c4.622-0.471,9.804-1.057,14.202-1.79c3.096-0.535,5.801-1.144,7.673-1.802
			c0.191-0.062,0.346-0.129,0.537-0.216c4.505-1.84,10.324-7.693,15.078-14.052c0.659-0.879,1.284-1.759,1.902-2.615
			c2.232-3.189,4.095-6.351,5.321-9.103c0.759-1.64,1.315-3.144,1.549-4.394c0.093-0.441,0.182-0.858,0.195-1.254
			c0.026-0.227,0.047-0.449,0.063-0.665c-1.82-1.083-6.019-3.104-11.745-2.894c-0.12,0.139-0.237,0.279-0.357,0.421
			c-2.47,3.051-5.166,7.03-7.716,10.993c-1.41,2.172-2.779,4.346-4.13,6.349c-0.777,1.218-1.543,2.362-2.262,3.41
			c-1.388,2-2.613,3.613-3.655,4.616c-0.667,0.656-2.454,1.517-4.803,2.469c-4.079,1.667-9.983,3.623-15.111,5.203
			c-2.129,0.668-4.139,1.269-5.809,1.765C198.607,197.737,196.829,198.252,196.829,198.252z"/>
		<path fill="#2B478B" d="M244.581,162.167c7.137-0.894,12.262,3.088,12.262,3.088c0.823-7.126-4.271-8.409-4.271-8.409
			C250.546,156.133,247.579,158.49,244.581,162.167z"/>
	</g>
	<path fill="#233862" d="M244.071,306.094h24.191c0,0,0.579-2.505-0.685-4.405c-1.21-1.822-3.105-2.652-2.653-4.856
		c-1.536,1.074-4.042,2.277-7.538,1.96c-0.429,0.472-2.767,2.996-4.198,3.693C251.608,303.258,244.559,302.982,244.071,306.094z"/>
	<path fill="#233862" d="M192.132,306.094h24.191c0,0,0.902-2.622-0.685-4.405c-1.405-1.577-0.866-2.477,0.173-3.782
		c-1.095,0.306-2.513,0.582-4.073,0.521c-1.205-0.047-2.48-0.418-3.597-0.859c-1.041,0.806-5.5,4.237-6.893,4.917
		C199.668,303.258,192.618,302.982,192.132,306.094z"/>
	<path fill="#FFFFFF" d="M223.053,146.61c0,0-0.219,0.872-3.376,0.873c0,0-2.65,0.002-2.655-0.945
		C217.021,146.539,219.518,145.758,223.053,146.61z"/>
</g>
<g>
	<path fill="#FFB27D" d="M192.347,205.589c0,0,11.435-10.057,17-13.178c0,0,7.613-12.75,8.23-13.59
		c0.03-0.039,0.068-0.072,0.111-0.102c0.084-0.296,0.341-1.363,0.056-2.342c-0.334-1.151,0.742-3.911,1.482-3.661
		c0.738,0.25,0.132,1.214,1.034,1.199c0.902-0.017,3.129-3.107,4.188-2.679c1.059,0.43,1.603,1.623,0.647,3.951
		c-0.794,1.937-2.459,3.759-2.996,4.315c0.032,0.011,0.05,0.018,0.05,0.018s-2.796,12.395-5.745,16.068
		c-2.95,3.674-12.092,16.003-18.546,16.46C191.403,212.506,192.347,205.589,192.347,205.589z"/>
	<path fill="#FFB27D" d="M141.904,174.125c1.022-0.267,2.28,2.672,3.068,2.778c0.787,0.107,0.472-0.801,1.175-0.943
		s1.027,2.386,0.477,3.36c-0.551,0.975-0.473,2.131-0.473,2.131s4.68,12.278,5.688,13.652c1.007,1.375,17.505,11.369,17.505,11.369
		l-3.628,7.96c0,0-19.432-12.194-21.089-15.063c-1.656-2.868-2.407-17.591-2.407-17.591s-1.452-2.123-1.768-4.259
		C140.138,175.382,140.881,174.393,141.904,174.125z"/>
	<path fill="#FFB27D" d="M170.111,204.148l7.806,6.938l7.184-8.223c0,0-1.579-2.02-2.292-5.33c-0.299-1.391-0.448-3.012-0.257-4.806
		l-10.096,3.511c0,0,0.24,0.634,0.402,1.57c0.172,1.011,0.248,2.375-0.175,3.668C172.319,202.589,171.469,203.398,170.111,204.148z"
		/>
	<path fill="#D3671E" d="M157.812,300.213c0,0-1.291,1.712-4.154,2.137c-1.804,0.266-3.347,0.903-4.308,1.797
		c-0.812,0.756-0.027,1.817,1.351,1.817h14.529c1.237,0,2.203-0.726,2.079-1.562c-0.108-0.731-0.223-1.582-0.272-2.234
		c-0.106-1.425-2.209-2.573-2.209-2.573L157.812,300.213z"/>
	<path fill="#35488B" d="M157.461,300.644c0,0,3.485,1.399,9.383,0.555c0,0,10.028-17.415,10.621-25.608
		c0.027-0.33,0.034-0.644,0.027-0.94c-0.203-7.708,10.275-27.777,7.449-31.891c-2.825-4.113-25.661,1.848-25.661,1.848
		l-0.454,13.986L157.461,300.644z"/>
	<path fill="#2C3A64" d="M158.826,258.593l18.639,16.997c0.027-0.33,0.034-0.644,0.027-0.94
		c-0.203-7.708,10.275-27.777,7.449-31.891c-2.825-4.113-25.661,1.848-25.661,1.848L158.826,258.593z"/>
	<path fill="#D3671E" d="M195.321,300.213c0,0-1.293,1.712-4.153,2.137c-1.804,0.266-3.348,0.903-4.308,1.797
		c-0.812,0.756-0.028,1.817,1.35,1.817h14.527c1.239,0,2.203-0.726,2.081-1.562c-0.109-0.731-0.222-1.582-0.271-2.234
		c-0.107-1.425-2.209-2.573-2.209-2.573L195.321,300.213z"/>
	<path fill="#35488B" d="M172.636,244.939c0,0,20.181,51.152,20.799,56.159c0,0,3.938,1.371,10.326-1.052c0,0,3.711-22.928,0-29.192
		c-3.71-6.266,0.736-25.203-8.701-29.475C185.623,237.108,172.636,244.939,172.636,244.939z"/>
	<path fill="#F99F46" d="M153.657,208.27c-1.305-5.321,3.679-9.152,3.679-9.152l7.471,3.61c1.444,0.058,2.063,0.415,2.063,0.415
		c1.237-0.226,4.69,0,4.69,0c-0.055,1.209,0.654,2.314,3.781,2.592c4.16,0.368,7.878-1.559,9.76-2.869c0,0,2.519-0.15,5.681,0.551
		c0,0,1.53-0.532,3.16-0.564l6.117-3.734c0,0,7.165,1.405,8.294,8.739c0,0-8.043,4.158-8.625,7.443l-0.22,1.245l-0.779,4.41
		l-1.374,7.736l4.087,15.409c0.034,0.136,0.054,0.271,0.054,0.402c0,1.031-1.036,1.958-2.561,2.206c0,0-0.351,0.039-0.998,0.101
		c-4.33,0.413-21.911,1.838-35.695-0.705c-3.098-0.57-5.141-2.581-4.884-4.758l2.917-24.856c0,0-0.276-3.975-0.344-4.674
		C159.862,211.115,153.657,208.27,153.657,208.27z"/>
	<path opacity="0.4" fill="#D86713" d="M192.359,235.176c0.271,5.375,1.049,9.932,5.577,11.634c0.647-0.062,0.998-0.101,0.998-0.101
		c1.524-0.248,2.561-1.175,2.561-2.206c0-0.132-0.02-0.267-0.054-0.402l-4.087-15.409l1.374-7.736
		c-0.065-0.135-0.102-0.206-0.102-0.206S192.013,228.292,192.359,235.176z"/>
	<path fill="#EA9C68" d="M172.683,201.477c5.741-0.104,10.125-3.943,10.125-3.943l-9.951,0.275
		C173.03,198.819,173.105,200.183,172.683,201.477z"/>
	<g>
		<path fill="#FFB27D" d="M169.898,199.305c0,0,11.451,2.052,15.401-4.132c4.264-6.675-0.414-11.538-4.302-11.866
			c-7.755-0.654-12.259,1.354-13.621,3.477C166.013,188.907,163.58,198.209,169.898,199.305z"/>
		<path fill="#FFFFFF" d="M174.438,195.823c0,0-0.479,0.802-3.5,0.352c0,0-2.536-0.378-2.249-1.285
			C168.689,194.89,171.322,194.501,174.438,195.823z"/>
		<path fill="#2C3A64" d="M185.092,178.34c2.996,0.643,5.223,1.633,6.751,2.84c0.146-0.464,0.159-0.881,0.159-0.881
			c0.296,0.399,0.344,0.868,0.305,1.271c0.017,0.015,0.033,0.032,0.049,0.048c0.583,0.041,1.455,0.203,1.967,0.771
			c0,0-0.626-0.285-1.436-0.233c4.04,4.527-0.063,11.286-9.632,15.182c0,0,1.343-2.677,1.182-4.106c0,0,2.99-2.588,1.247-3.229
			c-1.74-0.641-2.68,0.891-3.078,0.59c-0.399-0.301-1.022-5.386-3.136-5.226c-2.115,0.16-9.938,1.807-13.368-0.202
			C162.672,183.158,170.992,175.309,185.092,178.34z"/>
	</g>
</g>
<path fill="#ED985F" d="M196.829,198.252c0,0-7.882,1.041-8.59,1.628c-0.708,0.586-3.128,3.794-3.139,4.542
	c-0.008,0.747,4.13,0.926,5.942-0.588c1.808-1.516,3.796-0.842,5.787-2.744C198.819,199.185,196.829,198.252,196.829,198.252z"/>
</svg>
