<?xml version="1.0" encoding="utf-8"?>
<!-- Generator: Adobe Illustrator 16.0.0, SVG Export Plug-In . SVG Version: 6.00 Build 0)  -->
<!DOCTYPE svg PUBLIC "-//W3C//DTD SVG 1.1//EN" "http://www.w3.org/Graphics/SVG/1.1/DTD/svg11.dtd">
<svg version="1.1" id="Capa_1" xmlns="http://www.w3.org/2000/svg" xmlns:xlink="http://www.w3.org/1999/xlink" x="0px" y="0px"
	 width="400px" height="400px" viewBox="0 0 400 400" enable-background="new 0 0 400 400" xml:space="preserve">
<g>
	<linearGradient id="SVGID_1_" gradientUnits="userSpaceOnUse" x1="150.1973" y1="100.4189" x2="235.9238" y2="100.4189">
		<stop  offset="0" style="stop-color:#005898"/>
		<stop  offset="0.5" style="stop-color:#3CA6DA"/>
		<stop  offset="1" style="stop-color:#005898"/>
	</linearGradient>
	<polygon fill="url(#SVGID_1_)" points="235.924,85.114 150.197,85.114 156.055,115.725 235.924,115.725 	"/>
	<g>
		<polygon opacity="0.75" fill="#4A8195" points="160.61,85.114 150.197,85.114 156.055,115.725 177.824,115.725 		"/>
	</g>
	<g>
		<polygon opacity="0.75" fill="#4A8195" points="225.511,85.114 235.924,85.114 230.064,115.725 208.297,115.725 		"/>
	</g>
	<linearGradient id="SVGID_2_" gradientUnits="userSpaceOnUse" x1="251.748" y1="92.9478" x2="191.4779" y2="188.8978">
		<stop  offset="0" style="stop-color:#3CA6DA"/>
		<stop  offset="0.4011" style="stop-color:#0674B3"/>
		<stop  offset="0.6234" style="stop-color:#056FAF"/>
		<stop  offset="0.8718" style="stop-color:#0262A2"/>
		<stop  offset="1" style="stop-color:#005898"/>
	</linearGradient>
	<polygon fill="url(#SVGID_2_)" points="235.937,85.114 175.502,186.284 210.571,186.284 266.414,102.604 	"/>
	
		<linearGradient id="SVGID_3_" gradientUnits="userSpaceOnUse" x1="-375.3311" y1="94.041" x2="-321.0419" y2="187.6619" gradientTransform="matrix(-1 0 0 1 -125.5293 0)">
		<stop  offset="0" style="stop-color:#F0E8E5"/>
		<stop  offset="0.5785" style="stop-color:#EFE6E3"/>
		<stop  offset="0.8174" style="stop-color:#EBE0DC"/>
		<stop  offset="0.9934" style="stop-color:#E3D6D0"/>
		<stop  offset="1" style="stop-color:#E3D5CF"/>
	</linearGradient>
	<polygon fill="url(#SVGID_3_)" points="260.43,99.052 202.906,186.284 182.777,186.284 242.003,88.478 	"/>
	<polygon opacity="0.5" fill="#771A1F" points="198.323,148.086 175.502,186.284 210.571,186.284 217.635,175.701 	"/>
	
		<radialGradient id="SVGID_4_" cx="232.6006" cy="287.5664" r="10.7533" gradientTransform="matrix(2.2012 0 0 2.0953 -320.3008 -416.6621)" gradientUnits="userSpaceOnUse">
		<stop  offset="0.014" style="stop-color:#F6C054"/>
		<stop  offset="0.5351" style="stop-color:#FFEA72"/>
		<stop  offset="0.584" style="stop-color:#FFF071"/>
		<stop  offset="0.5912" style="stop-color:#FFF171"/>
		<stop  offset="0.8204" style="stop-color:#FFE05A"/>
		<stop  offset="0.9603" style="stop-color:#FFD44A"/>
	</radialGradient>
	<path fill="url(#SVGID_4_)" d="M191.874,170.733c-0.061,0-0.112,0-0.172,0c-0.061,0-0.116,0-0.172,0
		c-36.651,0-29.529,24.418-27.055,30.267c0.213-0.196,0.425-0.393,0.647-0.569c0.385-0.335,0.811-0.634,1.266-0.892
		c0.011-0.004,0.023-0.012,0.034-0.021c0.03-0.016,0.063-0.033,0.095-0.053c0.32-0.184,4.798-0.348,5.133-0.495
		c-2.072-7.235-6.864-19.438,19.879-19.61c0.061,0,0.112,0.008,0.172,0.008c0.06,0,0.111-0.008,0.172-0.008
		c26.741,0.172,21.952,12.375,19.875,19.61c0.34,0.147,4.815,0.311,5.138,0.495c0.03,0.021,0.061,0.037,0.095,0.053
		c0.009,0.008,0.021,0.016,0.034,0.021c0.456,0.258,0.877,0.557,1.264,0.892c0.225,0.176,0.435,0.373,0.646,0.569
		C221.4,195.152,228.521,170.733,191.874,170.733z"/>
	<linearGradient id="SVGID_5_" gradientUnits="userSpaceOnUse" x1="191.7002" y1="168.6553" x2="191.7002" y2="191.3604">
		<stop  offset="0.0472" style="stop-color:#EEEFF4"/>
		<stop  offset="0.1016" style="stop-color:#C4C3C9"/>
		<stop  offset="0.3075" style="stop-color:#E5E5E8"/>
		<stop  offset="0.497" style="stop-color:#C2C3CA"/>
		<stop  offset="0.6853" style="stop-color:#DBDCDE"/>
		<stop  offset="0.8449" style="stop-color:#DDE0E5"/>
		<stop  offset="0.9245" style="stop-color:#E0E3E8"/>
		<stop  offset="0.9817" style="stop-color:#E9EBF0"/>
		<stop  offset="1" style="stop-color:#EEEFF4"/>
	</linearGradient>
	<path fill="url(#SVGID_5_)" d="M191.874,170.733c-0.061,0-0.112,0-0.172,0c-0.061,0-0.116,0-0.172,0
		c-36.651,0-29.529,24.418-27.055,30.267c0.213-0.196,0.425-0.393,0.647-0.569c0.385-0.335,0.811-0.634,1.266-0.892
		c0.011-0.004,0.023-0.012,0.034-0.021c0.03-0.016,0.063-0.033,0.095-0.053c0.32-0.184,4.798-0.348,5.133-0.495
		c-2.072-7.235-6.864-19.438,19.879-19.61c0.061,0,0.112,0.008,0.172,0.008c0.06,0,0.111-0.008,0.172-0.008
		c26.741,0.172,21.952,12.375,19.875,19.61c0.34,0.147,4.815,0.311,5.138,0.495c0.03,0.021,0.061,0.037,0.095,0.053
		c0.009,0.008,0.021,0.016,0.034,0.021c0.456,0.258,0.877,0.557,1.264,0.892c0.225,0.176,0.435,0.373,0.646,0.569
		C221.4,195.152,228.521,170.733,191.874,170.733z"/>
	<linearGradient id="SVGID_6_" gradientUnits="userSpaceOnUse" x1="162.2427" y1="185.8667" x2="221.1582" y2="185.8667">
		<stop  offset="0.0472" style="stop-color:#EEEFF4"/>
		<stop  offset="0.3075" style="stop-color:#E5E5E8"/>
		<stop  offset="1" style="stop-color:#EEEFF4"/>
	</linearGradient>
	<path fill="url(#SVGID_6_)" d="M191.874,170.733c-0.061,0-0.112,0-0.172,0c-0.061,0-0.112,0-0.172,0
		c-36.651,0-29.529,24.418-27.055,30.267c0.135-0.123,0.273-0.246,0.411-0.36c-2.784-7.472-7.233-28.924,26.644-28.924
		c0.061,0,0.112,0.004,0.172,0.004c0.056,0,0.111-0.004,0.172-0.004c33.878,0,29.424,21.452,26.646,28.924
		c0.134,0.115,0.271,0.238,0.404,0.36C221.4,195.152,228.521,170.733,191.874,170.733z"/>
	<linearGradient id="SVGID_7_" gradientUnits="userSpaceOnUse" x1="166.9644" y1="195.7104" x2="166.9644" y2="185.4034">
		<stop  offset="0.497" style="stop-color:#C2C3CA"/>
		<stop  offset="1" style="stop-color:#EEEFF4"/>
	</linearGradient>
	<path fill="url(#SVGID_7_)" d="M170.111,188.658c-2.76,0.818-5.428,1.289-7.833,2.824c0.217,4.104,1.429,7.702,2.197,9.519
		c0.213-0.196,0.425-0.393,0.647-0.569c0.385-0.335,0.811-0.634,1.266-0.892c0.011-0.004,0.023-0.012,0.034-0.021
		c0.03-0.016,0.063-0.033,0.095-0.053c0.32-0.184,4.798-0.348,5.133-0.495C170.795,195.983,169.479,192.144,170.111,188.658z"/>
	<linearGradient id="SVGID_8_" gradientUnits="userSpaceOnUse" x1="216.4414" y1="195.7114" x2="216.4414" y2="185.406">
		<stop  offset="0.497" style="stop-color:#C2C3CA"/>
		<stop  offset="1" style="stop-color:#EEEFF4"/>
	</linearGradient>
	<path fill="url(#SVGID_8_)" d="M213.189,188.163c0.859,3.613-0.542,7.673-1.44,10.808c0.34,0.147,4.815,0.311,5.138,0.495
		c0.03,0.021,0.061,0.037,0.095,0.053c0.009,0.008,0.021,0.016,0.034,0.021c0.456,0.258,0.877,0.557,1.264,0.892
		c0.225,0.176,0.435,0.373,0.646,0.569c0.782-1.854,2.028-5.57,2.21-9.781C218.193,189.423,213.929,188.392,213.189,188.163z"/>
	
		<radialGradient id="SVGID_9_" cx="232.6016" cy="288.8594" r="8.6595" gradientTransform="matrix(2.2012 0 0 2.0953 -320.3008 -416.6621)" gradientUnits="userSpaceOnUse">
		<stop  offset="0.3369" style="stop-color:#F6F2F3"/>
		<stop  offset="0.9913" style="stop-color:#565C59"/>
	</radialGradient>
	<path opacity="0.55" fill="url(#SVGID_9_)" d="M191.856,177.289c-0.051,0-0.103,0.004-0.154,0.004
		c-0.052,0-0.104-0.004-0.155-0.004c-26.039,0-24.998,13.313-23.319,22.573c0.155-0.106,3.087-0.745,3.422-0.892
		c-2.072-7.235-6.864-19.438,19.879-19.61c0.061,0,0.112,0.008,0.172,0.008c0.06,0,0.111-0.008,0.172-0.008
		c26.741,0.172,21.952,12.375,19.875,19.61c0.34,0.147,3.268,0.786,3.427,0.892C216.853,190.602,217.893,177.289,191.856,177.289z"
		/>
	<linearGradient id="SVGID_10_" gradientUnits="userSpaceOnUse" x1="134.2197" y1="92.7163" x2="192.9863" y2="190.5002">
		<stop  offset="0" style="stop-color:#3CA6DA"/>
		<stop  offset="0.4011" style="stop-color:#0674B3"/>
		<stop  offset="0.6234" style="stop-color:#056FAF"/>
		<stop  offset="0.8718" style="stop-color:#0262A2"/>
		<stop  offset="1" style="stop-color:#005898"/>
	</linearGradient>
	<polygon fill="url(#SVGID_10_)" points="119.671,102.604 175.511,186.284 210.576,186.284 150.144,85.114 	"/>
	<linearGradient id="SVGID_11_" gradientUnits="userSpaceOnUse" x1="136.4849" y1="94.042" x2="190.773" y2="187.6613">
		<stop  offset="0" style="stop-color:#F0E8E5"/>
		<stop  offset="0.5785" style="stop-color:#EFE6E3"/>
		<stop  offset="0.8174" style="stop-color:#EBE0DC"/>
		<stop  offset="0.9934" style="stop-color:#E3D6D0"/>
		<stop  offset="1" style="stop-color:#E3D5CF"/>
	</linearGradient>
	<polygon fill="url(#SVGID_11_)" points="125.857,99.052 183.379,186.284 203.508,186.284 144.284,88.478 	"/>
	<g>
		<defs>
			<path id="SVGID_12_" d="M240.537,233.174c0,25.58-21.789,46.32-48.663,46.32c-26.877,0-48.663-20.74-48.663-46.32
				c0-25.586,21.786-46.325,48.663-46.325C218.748,186.849,240.537,207.588,240.537,233.174z"/>
		</defs>
		<clipPath id="SVGID_13_">
			<use xlink:href="#SVGID_12_"  overflow="visible"/>
		</clipPath>
		<linearGradient id="SVGID_14_" gradientUnits="userSpaceOnUse" x1="224.9756" y1="200.2065" x2="157.4182" y2="267.4837">
			<stop  offset="0.0472" style="stop-color:#EEEFF4"/>
			<stop  offset="0.1016" style="stop-color:#C4C3C9"/>
			<stop  offset="0.3075" style="stop-color:#E5E5E8"/>
			<stop  offset="0.497" style="stop-color:#C2C3CA"/>
			<stop  offset="0.6853" style="stop-color:#DBDCDE"/>
			<stop  offset="0.8449" style="stop-color:#DDE0E5"/>
			<stop  offset="0.9245" style="stop-color:#E0E3E8"/>
			<stop  offset="0.9817" style="stop-color:#E9EBF0"/>
			<stop  offset="1" style="stop-color:#EEEFF4"/>
		</linearGradient>
		<path clip-path="url(#SVGID_13_)" fill="url(#SVGID_14_)" d="M240.537,233.174c0,25.58-21.789,46.32-48.663,46.32
			c-26.877,0-48.663-20.74-48.663-46.32c0-25.586,21.786-46.325,48.663-46.325C218.748,186.849,240.537,207.588,240.537,233.174z"/>
		<linearGradient id="SVGID_15_" gradientUnits="userSpaceOnUse" x1="223.542" y1="197.5703" x2="160.5751" y2="268.3613">
			<stop  offset="0.0472" style="stop-color:#EEEFF4"/>
			<stop  offset="0.3075" style="stop-color:#E5E5E8"/>
			<stop  offset="1" style="stop-color:#EEEFF4"/>
		</linearGradient>
		<path clip-path="url(#SVGID_13_)" fill="url(#SVGID_15_)" d="M191.874,186.849c-26.877,0-48.663,20.739-48.663,46.325
			c0,25.58,21.786,46.32,48.663,46.32c26.878,0,48.663-20.74,48.663-46.32C240.537,207.588,218.752,186.849,191.874,186.849z
			 M191.874,278.209c-26.131,0-47.315-20.162-47.315-45.035s21.185-45.04,47.315-45.04c26.13,0,47.313,20.167,47.313,45.04
			S218.004,278.209,191.874,278.209z"/>
		<linearGradient id="SVGID_16_" gradientUnits="userSpaceOnUse" x1="220.9844" y1="209.6641" x2="162.6741" y2="256.7537">
			<stop  offset="0.4846" style="stop-color:#CC9434"/>
			<stop  offset="0.6795" style="stop-color:#FFEA72"/>
			<stop  offset="0.7638" style="stop-color:#FFE76C"/>
			<stop  offset="0.8718" style="stop-color:#FFDE5C"/>
			<stop  offset="0.9603" style="stop-color:#FFD44A"/>
		</linearGradient>
		<path opacity="0.75" clip-path="url(#SVGID_13_)" fill="url(#SVGID_16_)" d="M230.326,233.174
			c0,20.211-17.219,36.598-38.452,36.598c-21.238,0-38.45-16.387-38.45-36.598c0-20.217,17.212-36.602,38.45-36.602
			C213.107,196.572,230.326,212.957,230.326,233.174z"/>
		<linearGradient id="SVGID_17_" gradientUnits="userSpaceOnUse" x1="216.8984" y1="203.9766" x2="167.7525" y2="261.3135">
			<stop  offset="0.0472" style="stop-color:#EEEFF4"/>
			<stop  offset="0.3075" style="stop-color:#E5E5E8"/>
			<stop  offset="1" style="stop-color:#EEEFF4"/>
		</linearGradient>
		<path clip-path="url(#SVGID_13_)" fill="url(#SVGID_17_)" d="M230.326,233.174c0,20.211-17.219,36.598-38.452,36.598
			c-21.238,0-38.45-16.387-38.45-36.598c0-20.217,17.212-36.602,38.45-36.602C213.107,196.572,230.326,212.957,230.326,233.174z"/>
		<linearGradient id="SVGID_18_" gradientUnits="userSpaceOnUse" x1="213.0713" y1="215.7949" x2="159.9327" y2="259.3573">
			<stop  offset="0" style="stop-color:#EEEFF4"/>
			<stop  offset="0.2567" style="stop-color:#C4C3C9"/>
			<stop  offset="0.6522" style="stop-color:#EEEEF0"/>
			<stop  offset="0.9519" style="stop-color:#DDDDE2"/>
		</linearGradient>
		<path clip-path="url(#SVGID_13_)" fill="url(#SVGID_18_)" d="M229.032,233.174c0,19.533-16.634,35.365-37.158,35.365
			s-37.158-15.832-37.158-35.365c0-19.537,16.634-35.37,37.158-35.37S229.032,213.637,229.032,233.174z"/>
		<g opacity="0.5" clip-path="url(#SVGID_13_)">
			<g opacity="0.85">
				<g>
					<linearGradient id="SVGID_19_" gradientUnits="userSpaceOnUse" x1="221.2266" y1="236.3691" x2="223.4775" y2="236.3691">
						<stop  offset="0" style="stop-color:#EBECE8"/>
						<stop  offset="1" style="stop-color:#444444"/>
					</linearGradient>
					<path fill="url(#SVGID_19_)" d="M222.184,237.422c-0.611-0.09-1.032-0.613-0.946-1.17c0.077-0.557,0.567-0.982,1.195-0.945
						c0.61,0.035,1.118,0.568,1.036,1.178C223.37,237.094,222.799,237.512,222.184,237.422z"/>
				</g>
				<g>
					<linearGradient id="SVGID_20_" gradientUnits="userSpaceOnUse" x1="220.4014" y1="240.5635" x2="222.6436" y2="240.5635">
						<stop  offset="0" style="stop-color:#EBECE8"/>
						<stop  offset="1" style="stop-color:#444444"/>
					</linearGradient>
					<path fill="url(#SVGID_20_)" d="M221.237,241.588c-0.589-0.172-0.95-0.758-0.804-1.301c0.15-0.549,0.761-0.893,1.363-0.766
						c0.61,0.123,0.971,0.707,0.808,1.301S221.831,241.76,221.237,241.588z"/>
				</g>
				<g>
					<linearGradient id="SVGID_21_" gradientUnits="userSpaceOnUse" x1="218.9727" y1="244.5918" x2="221.2197" y2="244.5918">
						<stop  offset="0" style="stop-color:#EBECE8"/>
						<stop  offset="1" style="stop-color:#444444"/>
					</linearGradient>
					<path fill="url(#SVGID_21_)" d="M219.621,245.557c-0.559-0.254-0.804-0.871-0.546-1.379c0.215-0.523,0.839-0.789,1.423-0.58
						c0.576,0.207,0.877,0.846,0.641,1.42C220.859,245.564,220.18,245.811,219.621,245.557z"/>
				</g>
				<g>
					<linearGradient id="SVGID_22_" gradientUnits="userSpaceOnUse" x1="216.9199" y1="248.3848" x2="219.1572" y2="248.3848">
						<stop  offset="0" style="stop-color:#EBECE8"/>
						<stop  offset="1" style="stop-color:#444444"/>
					</linearGradient>
					<path fill="url(#SVGID_22_)" d="M217.445,249.281c-0.512-0.328-0.679-0.986-0.373-1.469c0.305-0.479,0.996-0.639,1.539-0.357
						c0.541,0.287,0.709,0.945,0.373,1.475C218.649,249.453,217.961,249.609,217.445,249.281z"/>
				</g>
				<g>
					<linearGradient id="SVGID_23_" gradientUnits="userSpaceOnUse" x1="214.3154" y1="251.8418" x2="216.5625" y2="251.8418">
						<stop  offset="0" style="stop-color:#EBECE8"/>
						<stop  offset="1" style="stop-color:#444444"/>
					</linearGradient>
					<path fill="url(#SVGID_23_)" d="M214.694,252.637c-0.46-0.396-0.507-1.057-0.112-1.473c0.379-0.434,1.049-0.523,1.548-0.164
						c0.485,0.355,0.585,1.057,0.181,1.531C215.872,252.988,215.15,253.033,214.694,252.637z"/>
				</g>
				<g>
					<linearGradient id="SVGID_24_" gradientUnits="userSpaceOnUse" x1="211.2168" y1="254.9102" x2="213.4492" y2="254.9102">
						<stop  offset="0" style="stop-color:#EBECE8"/>
						<stop  offset="1" style="stop-color:#444444"/>
					</linearGradient>
					<path fill="url(#SVGID_24_)" d="M211.486,255.615c-0.391-0.457-0.352-1.137,0.086-1.514c0.436-0.377,1.145-0.344,1.574,0.078
						c0.434,0.422,0.396,1.102-0.078,1.51C212.588,256.107,211.883,256.066,211.486,255.615z"/>
				</g>
				<g>
					<linearGradient id="SVGID_25_" gradientUnits="userSpaceOnUse" x1="207.667" y1="257.5156" x2="209.9131" y2="257.5156">
						<stop  offset="0" style="stop-color:#EBECE8"/>
						<stop  offset="1" style="stop-color:#444444"/>
					</linearGradient>
					<path fill="url(#SVGID_25_)" d="M207.832,258.072c-0.317-0.504-0.162-1.15,0.345-1.441c0.499-0.299,1.156-0.217,1.53,0.27
						c0.353,0.467,0.25,1.18-0.293,1.506C208.864,258.727,208.155,258.578,207.832,258.072z"/>
				</g>
				<g>
					<linearGradient id="SVGID_26_" gradientUnits="userSpaceOnUse" x1="203.7773" y1="259.5938" x2="206.0117" y2="259.5938">
						<stop  offset="0" style="stop-color:#EBECE8"/>
						<stop  offset="1" style="stop-color:#444444"/>
					</linearGradient>
					<path fill="url(#SVGID_26_)" d="M203.869,260.053c-0.236-0.545,0-1.188,0.533-1.434c0.533-0.244,1.199-0.016,1.486,0.508
						c0.289,0.52,0.053,1.162-0.532,1.428C204.775,260.822,204.109,260.592,203.869,260.053z"/>
				</g>
				<g>
					<linearGradient id="SVGID_27_" gradientUnits="userSpaceOnUse" x1="199.5869" y1="261.1289" x2="201.8301" y2="261.1289">
						<stop  offset="0" style="stop-color:#EBECE8"/>
						<stop  offset="1" style="stop-color:#444444"/>
					</linearGradient>
					<path fill="url(#SVGID_27_)" d="M199.621,261.395c-0.146-0.572,0.189-1.146,0.765-1.285c0.572-0.146,1.178,0.115,1.384,0.68
						c0.198,0.549-0.111,1.207-0.739,1.363C200.408,262.303,199.776,261.967,199.621,261.395z"/>
				</g>
				<g>
					<linearGradient id="SVGID_28_" gradientUnits="userSpaceOnUse" x1="195.2217" y1="262.0293" x2="197.4604" y2="262.0293">
						<stop  offset="0" style="stop-color:#EBECE8"/>
						<stop  offset="1" style="stop-color:#444444"/>
					</linearGradient>
					<path fill="url(#SVGID_28_)" d="M195.228,262.188c-0.061-0.584,0.361-1.129,0.945-1.215c0.585-0.086,1.152,0.314,1.269,0.896
						c0.116,0.576-0.305,1.121-0.941,1.215C195.859,263.178,195.288,262.777,195.228,262.188z"/>
				</g>
				<g>
					<linearGradient id="SVGID_29_" gradientUnits="userSpaceOnUse" x1="190.7549" y1="262.373" x2="192.9927" y2="262.373">
						<stop  offset="0" style="stop-color:#EBECE8"/>
						<stop  offset="1" style="stop-color:#444444"/>
					</linearGradient>
					<path fill="url(#SVGID_29_)" d="M190.756,262.318c0.026-0.588,0.525-1.043,1.118-1.014c0.593-0.029,1.092,0.426,1.118,1.014
						c0.026,0.59-0.473,1.09-1.118,1.123C191.229,263.408,190.73,262.908,190.756,262.318z"/>
				</g>
				<g>
					<linearGradient id="SVGID_30_" gradientUnits="userSpaceOnUse" x1="186.2842" y1="262.0293" x2="188.5264" y2="262.0293">
						<stop  offset="0" style="stop-color:#EBECE8"/>
						<stop  offset="1" style="stop-color:#444444"/>
					</linearGradient>
					<path fill="url(#SVGID_30_)" d="M186.302,261.869c0.12-0.582,0.688-0.982,1.272-0.896s1.006,0.631,0.946,1.215
						c-0.064,0.59-0.632,0.99-1.272,0.896C186.612,262.99,186.19,262.445,186.302,261.869z"/>
				</g>
				<g>
					<linearGradient id="SVGID_31_" gradientUnits="userSpaceOnUse" x1="181.918" y1="261.1289" x2="184.1582" y2="261.1289">
						<stop  offset="0" style="stop-color:#EBECE8"/>
						<stop  offset="1" style="stop-color:#444444"/>
					</linearGradient>
					<path fill="url(#SVGID_31_)" d="M181.977,260.789c0.207-0.564,0.808-0.826,1.384-0.68c0.572,0.139,0.912,0.713,0.761,1.285
						c-0.151,0.572-0.783,0.908-1.406,0.758C182.089,261.996,181.779,261.338,181.977,260.789z"/>
				</g>
				<g>
					<linearGradient id="SVGID_32_" gradientUnits="userSpaceOnUse" x1="177.7358" y1="259.5938" x2="179.9673" y2="259.5938">
						<stop  offset="0" style="stop-color:#EBECE8"/>
						<stop  offset="1" style="stop-color:#444444"/>
					</linearGradient>
					<path fill="url(#SVGID_32_)" d="M177.858,259.127c0.284-0.523,0.955-0.752,1.488-0.508c0.533,0.246,0.765,0.889,0.529,1.434
						c-0.237,0.539-0.903,0.77-1.483,0.502C177.807,260.289,177.57,259.646,177.858,259.127z"/>
				</g>
				<g>
					<linearGradient id="SVGID_33_" gradientUnits="userSpaceOnUse" x1="173.8325" y1="257.5156" x2="176.0796" y2="257.5156">
						<stop  offset="0" style="stop-color:#EBECE8"/>
						<stop  offset="1" style="stop-color:#444444"/>
					</linearGradient>
					<path fill="url(#SVGID_33_)" d="M174.041,256.9c0.37-0.486,1.032-0.568,1.53-0.27c0.507,0.291,0.662,0.938,0.34,1.441
						c-0.318,0.506-1.028,0.654-1.578,0.334C173.787,258.08,173.684,257.367,174.041,256.9z"/>
				</g>
				<g>
					<linearGradient id="SVGID_34_" gradientUnits="userSpaceOnUse" x1="170.2969" y1="254.9102" x2="172.5283" y2="254.9102">
						<stop  offset="0" style="stop-color:#EBECE8"/>
						<stop  offset="1" style="stop-color:#444444"/>
					</linearGradient>
					<path fill="url(#SVGID_34_)" d="M170.602,254.18c0.43-0.422,1.135-0.455,1.573-0.078s0.473,1.057,0.082,1.514
						c-0.392,0.451-1.101,0.492-1.578,0.074C170.202,255.281,170.167,254.602,170.602,254.18z"/>
				</g>
				<g>
					<linearGradient id="SVGID_35_" gradientUnits="userSpaceOnUse" x1="167.1846" y1="251.8418" x2="169.4331" y2="251.8418">
						<stop  offset="0" style="stop-color:#EBECE8"/>
						<stop  offset="1" style="stop-color:#444444"/>
					</linearGradient>
					<path fill="url(#SVGID_35_)" d="M167.618,251c0.499-0.359,1.169-0.27,1.548,0.164c0.396,0.416,0.348,1.076-0.112,1.473
						c-0.456,0.396-1.183,0.352-1.617-0.105C167.031,252.057,167.132,251.355,167.618,251z"/>
				</g>
				<g>
					<linearGradient id="SVGID_36_" gradientUnits="userSpaceOnUse" x1="164.5889" y1="248.3848" x2="166.8281" y2="248.3848">
						<stop  offset="0" style="stop-color:#EBECE8"/>
						<stop  offset="1" style="stop-color:#444444"/>
					</linearGradient>
					<path fill="url(#SVGID_36_)" d="M165.137,247.455c0.542-0.281,1.229-0.121,1.537,0.357c0.308,0.482,0.14,1.141-0.374,1.469
						c-0.514,0.328-1.204,0.172-1.539-0.352C164.426,248.4,164.595,247.742,165.137,247.455z"/>
				</g>
				<g>
					<linearGradient id="SVGID_37_" gradientUnits="userSpaceOnUse" x1="162.5269" y1="244.5918" x2="164.7734" y2="244.5918">
						<stop  offset="0" style="stop-color:#EBECE8"/>
						<stop  offset="1" style="stop-color:#444444"/>
					</linearGradient>
					<path fill="url(#SVGID_37_)" d="M163.248,243.598c0.583-0.209,1.21,0.057,1.423,0.58c0.258,0.508,0.015,1.125-0.546,1.379
						c-0.557,0.254-1.238,0.008-1.518-0.539C162.373,244.443,162.671,243.805,163.248,243.598z"/>
				</g>
				<g>
					<linearGradient id="SVGID_38_" gradientUnits="userSpaceOnUse" x1="161.1045" y1="240.5635" x2="163.3452" y2="240.5635">
						<stop  offset="0" style="stop-color:#EBECE8"/>
						<stop  offset="1" style="stop-color:#444444"/>
					</linearGradient>
					<path fill="url(#SVGID_38_)" d="M161.949,239.521c0.604-0.127,1.217,0.217,1.363,0.766c0.148,0.543-0.213,1.129-0.806,1.301
						c-0.591,0.172-1.204-0.172-1.363-0.766C160.982,240.229,161.343,239.645,161.949,239.521z"/>
				</g>
				<g>
					<linearGradient id="SVGID_39_" gradientUnits="userSpaceOnUse" x1="160.269" y1="236.3691" x2="162.5205" y2="236.3691">
						<stop  offset="0" style="stop-color:#EBECE8"/>
						<stop  offset="1" style="stop-color:#444444"/>
					</linearGradient>
					<path fill="url(#SVGID_39_)" d="M161.313,235.307c0.63-0.037,1.122,0.389,1.195,0.945c0.09,0.557-0.333,1.08-0.946,1.17
						c-0.613,0.09-1.189-0.328-1.286-0.938C160.199,235.875,160.707,235.342,161.313,235.307z"/>
				</g>
				<g>
					<linearGradient id="SVGID_40_" gradientUnits="userSpaceOnUse" x1="160.1357" y1="232.1074" x2="162.3804" y2="232.1074">
						<stop  offset="0" style="stop-color:#EBECE8"/>
						<stop  offset="1" style="stop-color:#444444"/>
					</linearGradient>
					<path fill="url(#SVGID_40_)" d="M161.313,231.045c0.619,0.051,1.094,0.541,1.066,1.105c-0.032,0.561-0.559,1.023-1.178,1.023
						c-0.619,0.008-1.096-0.49-1.064-1.102C160.169,231.459,160.696,231,161.313,231.045z"/>
				</g>
				<g>
					<linearGradient id="SVGID_41_" gradientUnits="userSpaceOnUse" x1="160.6128" y1="227.8711" x2="162.8413" y2="227.8711">
						<stop  offset="0" style="stop-color:#EBECE8"/>
						<stop  offset="1" style="stop-color:#444444"/>
					</linearGradient>
					<path fill="url(#SVGID_41_)" d="M161.949,226.83c0.606,0.131,0.952,0.676,0.883,1.236c-0.088,0.557-0.658,0.941-1.27,0.863
						c-0.615-0.082-1.034-0.643-0.936-1.248C160.705,227.068,161.347,226.699,161.949,226.83z"/>
				</g>
				<g>
					<linearGradient id="SVGID_42_" gradientUnits="userSpaceOnUse" x1="161.7256" y1="223.7461" x2="163.9883" y2="223.7461">
						<stop  offset="0" style="stop-color:#EBECE8"/>
						<stop  offset="1" style="stop-color:#444444"/>
					</linearGradient>
					<path fill="url(#SVGID_42_)" d="M163.248,222.754c0.578,0.213,0.881,0.818,0.677,1.344c-0.217,0.527-0.836,0.83-1.419,0.666
						c-0.606-0.168-0.939-0.781-0.705-1.354C162.024,222.836,162.671,222.541,163.248,222.754z"/>
				</g>
				<g>
					<linearGradient id="SVGID_43_" gradientUnits="userSpaceOnUse" x1="163.4946" y1="219.8281" x2="165.7139" y2="219.8281">
						<stop  offset="0" style="stop-color:#EBECE8"/>
						<stop  offset="1" style="stop-color:#444444"/>
					</linearGradient>
					<path fill="url(#SVGID_43_)" d="M165.137,218.893c0.535,0.293,0.711,0.916,0.471,1.432c-0.256,0.508-0.92,0.721-1.483,0.471
						c-0.561-0.25-0.791-0.896-0.509-1.449C163.879,218.785,164.598,218.602,165.137,218.893z"/>
				</g>
				<g>
					<linearGradient id="SVGID_44_" gradientUnits="userSpaceOnUse" x1="165.8066" y1="216.1914" x2="168.0693" y2="216.1914">
						<stop  offset="0" style="stop-color:#EBECE8"/>
						<stop  offset="1" style="stop-color:#444444"/>
					</linearGradient>
					<path fill="url(#SVGID_44_)" d="M167.618,215.348c0.49,0.364,0.598,1.027,0.241,1.477c-0.361,0.447-1.051,0.562-1.559,0.246
						c-0.529-0.332-0.658-1.002-0.262-1.489C166.422,215.09,167.132,214.988,167.618,215.348z"/>
				</g>
				<g>
					<linearGradient id="SVGID_45_" gradientUnits="userSpaceOnUse" x1="168.6885" y1="212.918" x2="170.9126" y2="212.918">
						<stop  offset="0" style="stop-color:#EBECE8"/>
						<stop  offset="1" style="stop-color:#444444"/>
					</linearGradient>
					<path fill="url(#SVGID_45_)" d="M170.602,212.172c0.43,0.434,0.396,1.064,0.013,1.494c-0.4,0.417-1.096,0.438-1.561,0.049
						s-0.49-1.076-0.052-1.531C169.419,211.713,170.18,211.75,170.602,212.172z"/>
				</g>
				<g>
					<linearGradient id="SVGID_46_" gradientUnits="userSpaceOnUse" x1="172.0024" y1="210.0781" x2="174.2603" y2="210.0781">
						<stop  offset="0" style="stop-color:#EBECE8"/>
						<stop  offset="1" style="stop-color:#444444"/>
					</linearGradient>
					<path fill="url(#SVGID_46_)" d="M174.041,209.451c0.361,0.479,0.266,1.145-0.207,1.484c-0.477,0.336-1.187,0.242-1.578-0.195
						c-0.409-0.467-0.314-1.13,0.202-1.498C172.975,208.873,173.684,208.972,174.041,209.451z"/>
				</g>
				<g>
					<linearGradient id="SVGID_47_" gradientUnits="userSpaceOnUse" x1="175.749" y1="207.7207" x2="177.9834" y2="207.7207">
						<stop  offset="0" style="stop-color:#EBECE8"/>
						<stop  offset="1" style="stop-color:#444444"/>
					</linearGradient>
					<path fill="url(#SVGID_47_)" d="M177.858,207.229c0.288,0.54,0.052,1.113-0.438,1.428c-0.507,0.291-1.182,0.123-1.509-0.381
						c-0.327-0.498-0.142-1.162,0.408-1.48C176.861,206.459,177.583,206.713,177.858,207.229z"/>
				</g>
				<g>
					<linearGradient id="SVGID_48_" gradientUnits="userSpaceOnUse" x1="179.7847" y1="205.9238" x2="182.0386" y2="205.9238">
						<stop  offset="0" style="stop-color:#EBECE8"/>
						<stop  offset="1" style="stop-color:#444444"/>
					</linearGradient>
					<path fill="url(#SVGID_48_)" d="M181.977,205.563c0.198,0.561-0.095,1.171-0.653,1.363c-0.55,0.196-1.204-0.098-1.449-0.622
						c-0.254-0.557,0.047-1.158,0.649-1.375C181.13,204.72,181.779,205.002,181.977,205.563z"/>
				</g>
				<g>
					<linearGradient id="SVGID_49_" gradientUnits="userSpaceOnUse" x1="184.0864" y1="204.6875" x2="186.3213" y2="204.6875">
						<stop  offset="0" style="stop-color:#EBECE8"/>
						<stop  offset="1" style="stop-color:#444444"/>
					</linearGradient>
					<path fill="url(#SVGID_49_)" d="M186.302,204.482c0.112,0.594-0.284,1.084-0.852,1.248c-0.576,0.144-1.169-0.205-1.328-0.773
						c-0.159-0.568,0.219-1.158,0.842-1.305C185.584,203.472,186.199,203.914,186.302,204.482z"/>
				</g>
				<g>
					<linearGradient id="SVGID_50_" gradientUnits="userSpaceOnUse" x1="188.5127" y1="204.085" x2="190.7563" y2="204.085">
						<stop  offset="0" style="stop-color:#EBECE8"/>
						<stop  offset="1" style="stop-color:#444444"/>
					</linearGradient>
					<path fill="url(#SVGID_50_)" d="M190.756,204.032c0.018,0.589-0.447,1.093-1.04,1.117s-1.126-0.417-1.195-0.99
						c-0.073-0.597,0.387-1.112,1.032-1.138C190.197,202.988,190.739,203.443,190.756,204.032z"/>
				</g>
				<g>
					<linearGradient id="SVGID_51_" gradientUnits="userSpaceOnUse" x1="192.9912" y1="204.085" x2="195.2349" y2="204.085">
						<stop  offset="0" style="stop-color:#EBECE8"/>
						<stop  offset="1" style="stop-color:#444444"/>
					</linearGradient>
					<path fill="url(#SVGID_51_)" d="M195.228,204.159c-0.069,0.573-0.602,1.015-1.195,0.99s-1.058-0.528-1.041-1.117
						s0.559-1.044,1.2-1.011C194.836,203.047,195.3,203.563,195.228,204.159z"/>
				</g>
				<g>
					<linearGradient id="SVGID_52_" gradientUnits="userSpaceOnUse" x1="197.4238" y1="204.6875" x2="199.6592" y2="204.6875">
						<stop  offset="0" style="stop-color:#EBECE8"/>
						<stop  offset="1" style="stop-color:#444444"/>
					</linearGradient>
					<path fill="url(#SVGID_52_)" d="M199.621,204.957c-0.155,0.568-0.752,0.917-1.324,0.773c-0.567-0.164-0.963-0.654-0.855-1.248
						c0.107-0.568,0.718-1.011,1.341-0.83C199.406,203.799,199.785,204.389,199.621,204.957z"/>
				</g>
				<g>
					<linearGradient id="SVGID_53_" gradientUnits="userSpaceOnUse" x1="201.709" y1="205.9238" x2="203.96" y2="205.9238">
						<stop  offset="0" style="stop-color:#EBECE8"/>
						<stop  offset="1" style="stop-color:#444444"/>
					</linearGradient>
					<path fill="url(#SVGID_53_)" d="M203.869,206.304c-0.241,0.524-0.895,0.818-1.445,0.622c-0.559-0.192-0.852-0.803-0.653-1.363
						s0.847-0.843,1.453-0.634C203.826,205.146,204.123,205.747,203.869,206.304z"/>
				</g>
				<g>
					<linearGradient id="SVGID_54_" gradientUnits="userSpaceOnUse" x1="205.7637" y1="207.7207" x2="207.9951" y2="207.7207">
						<stop  offset="0" style="stop-color:#EBECE8"/>
						<stop  offset="1" style="stop-color:#444444"/>
					</linearGradient>
					<path fill="url(#SVGID_54_)" d="M207.832,208.275c-0.326,0.504-0.997,0.672-1.504,0.381c-0.494-0.314-0.727-0.888-0.439-1.428
						c0.275-0.516,0.998-0.77,1.54-0.434C207.979,207.113,208.159,207.777,207.832,208.275z"/>
				</g>
				<g>
					<linearGradient id="SVGID_55_" gradientUnits="userSpaceOnUse" x1="209.4873" y1="210.0781" x2="211.7451" y2="210.0781">
						<stop  offset="0" style="stop-color:#EBECE8"/>
						<stop  offset="1" style="stop-color:#444444"/>
					</linearGradient>
					<path fill="url(#SVGID_55_)" d="M211.486,210.74c-0.387,0.438-1.096,0.531-1.572,0.195c-0.474-0.34-0.568-1.006-0.207-1.484
						c0.353-0.479,1.066-0.578,1.582-0.209C211.805,209.61,211.899,210.273,211.486,210.74z"/>
				</g>
				<g>
					<linearGradient id="SVGID_56_" gradientUnits="userSpaceOnUse" x1="212.835" y1="212.918" x2="215.0576" y2="212.918">
						<stop  offset="0" style="stop-color:#EBECE8"/>
						<stop  offset="1" style="stop-color:#444444"/>
					</linearGradient>
					<path fill="url(#SVGID_56_)" d="M214.694,213.715c-0.464,0.389-1.165,0.368-1.565-0.049c-0.378-0.43-0.412-1.061,0.018-1.494
						c0.422-0.422,1.178-0.459,1.6,0.012C215.18,212.639,215.158,213.326,214.694,213.715z"/>
				</g>
				<g>
					<linearGradient id="SVGID_57_" gradientUnits="userSpaceOnUse" x1="215.6787" y1="216.1914" x2="217.9424" y2="216.1914">
						<stop  offset="0" style="stop-color:#EBECE8"/>
						<stop  offset="1" style="stop-color:#444444"/>
					</linearGradient>
					<path fill="url(#SVGID_57_)" d="M217.445,217.07c-0.507,0.315-1.195,0.201-1.557-0.246c-0.355-0.449-0.248-1.112,0.241-1.477
						c0.485-0.359,1.195-0.258,1.583,0.233C218.107,216.068,217.979,216.738,217.445,217.07z"/>
				</g>
				<g>
					<linearGradient id="SVGID_58_" gradientUnits="userSpaceOnUse" x1="218.0342" y1="219.8281" x2="220.252" y2="219.8281">
						<stop  offset="0" style="stop-color:#EBECE8"/>
						<stop  offset="1" style="stop-color:#444444"/>
					</linearGradient>
					<path fill="url(#SVGID_58_)" d="M219.621,220.795c-0.563,0.25-1.229,0.037-1.483-0.471c-0.236-0.516-0.064-1.139,0.474-1.432
						c0.537-0.291,1.26-0.107,1.521,0.453C220.412,219.898,220.184,220.545,219.621,220.795z"/>
				</g>
				<g>
					<linearGradient id="SVGID_59_" gradientUnits="userSpaceOnUse" x1="219.7568" y1="223.7461" x2="222.0195" y2="223.7461">
						<stop  offset="0" style="stop-color:#EBECE8"/>
						<stop  offset="1" style="stop-color:#444444"/>
					</linearGradient>
					<path fill="url(#SVGID_59_)" d="M221.237,224.764c-0.575,0.164-1.194-0.139-1.419-0.666c-0.201-0.525,0.104-1.131,0.68-1.344
						s1.226,0.082,1.444,0.656C222.18,223.982,221.848,224.596,221.237,224.764z"/>
				</g>
				<g>
					<linearGradient id="SVGID_60_" gradientUnits="userSpaceOnUse" x1="220.9023" y1="227.8711" x2="223.1338" y2="227.8711">
						<stop  offset="0" style="stop-color:#EBECE8"/>
						<stop  offset="1" style="stop-color:#444444"/>
					</linearGradient>
					<path fill="url(#SVGID_60_)" d="M222.184,228.93c-0.611,0.078-1.183-0.307-1.273-0.863c-0.064-0.561,0.284-1.105,0.887-1.236
						c0.602-0.131,1.246,0.238,1.324,0.852C223.215,228.287,222.799,228.848,222.184,228.93z"/>
				</g>
				<g>
					<linearGradient id="SVGID_61_" gradientUnits="userSpaceOnUse" x1="221.3662" y1="232.1074" x2="223.6133" y2="232.1074">
						<stop  offset="0" style="stop-color:#EBECE8"/>
						<stop  offset="1" style="stop-color:#444444"/>
					</linearGradient>
					<path fill="url(#SVGID_61_)" d="M222.545,233.174c-0.619,0-1.145-0.463-1.178-1.023c-0.026-0.564,0.446-1.055,1.065-1.105
						c0.619-0.045,1.144,0.414,1.179,1.027C223.645,232.684,223.164,233.182,222.545,233.174z"/>
				</g>
			</g>
			<g opacity="0.85">
				<g>
					<linearGradient id="SVGID_62_" gradientUnits="userSpaceOnUse" x1="221.2266" y1="236.3691" x2="223.4775" y2="236.3691">
						<stop  offset="0" style="stop-color:#EBECE8"/>
						<stop  offset="1" style="stop-color:#444444"/>
					</linearGradient>
					<path fill="url(#SVGID_62_)" d="M222.184,237.422c-0.611-0.09-1.032-0.613-0.946-1.17c0.077-0.557,0.567-0.982,1.195-0.945
						c0.61,0.035,1.118,0.568,1.036,1.178C223.37,237.094,222.799,237.512,222.184,237.422z"/>
				</g>
				<g>
					<linearGradient id="SVGID_63_" gradientUnits="userSpaceOnUse" x1="220.4014" y1="240.5635" x2="222.6436" y2="240.5635">
						<stop  offset="0" style="stop-color:#EBECE8"/>
						<stop  offset="1" style="stop-color:#444444"/>
					</linearGradient>
					<path fill="url(#SVGID_63_)" d="M221.237,241.588c-0.589-0.172-0.95-0.758-0.804-1.301c0.15-0.549,0.761-0.893,1.363-0.766
						c0.61,0.123,0.971,0.707,0.808,1.301S221.831,241.76,221.237,241.588z"/>
				</g>
				<g>
					<linearGradient id="SVGID_64_" gradientUnits="userSpaceOnUse" x1="218.9727" y1="244.5918" x2="221.2197" y2="244.5918">
						<stop  offset="0" style="stop-color:#EBECE8"/>
						<stop  offset="1" style="stop-color:#444444"/>
					</linearGradient>
					<path fill="url(#SVGID_64_)" d="M219.621,245.557c-0.559-0.254-0.804-0.871-0.546-1.379c0.215-0.523,0.839-0.789,1.423-0.58
						c0.576,0.207,0.877,0.846,0.641,1.42C220.859,245.564,220.18,245.811,219.621,245.557z"/>
				</g>
				<g>
					<linearGradient id="SVGID_65_" gradientUnits="userSpaceOnUse" x1="216.9199" y1="248.3848" x2="219.1572" y2="248.3848">
						<stop  offset="0" style="stop-color:#EBECE8"/>
						<stop  offset="1" style="stop-color:#444444"/>
					</linearGradient>
					<path fill="url(#SVGID_65_)" d="M217.445,249.281c-0.512-0.328-0.679-0.986-0.373-1.469c0.305-0.479,0.996-0.639,1.539-0.357
						c0.541,0.287,0.709,0.945,0.373,1.475C218.649,249.453,217.961,249.609,217.445,249.281z"/>
				</g>
				<g>
					<linearGradient id="SVGID_66_" gradientUnits="userSpaceOnUse" x1="214.3154" y1="251.8418" x2="216.5625" y2="251.8418">
						<stop  offset="0" style="stop-color:#EBECE8"/>
						<stop  offset="1" style="stop-color:#444444"/>
					</linearGradient>
					<path fill="url(#SVGID_66_)" d="M214.694,252.637c-0.46-0.396-0.507-1.057-0.112-1.473c0.379-0.434,1.049-0.523,1.548-0.164
						c0.485,0.355,0.585,1.057,0.181,1.531C215.872,252.988,215.15,253.033,214.694,252.637z"/>
				</g>
				<g>
					<linearGradient id="SVGID_67_" gradientUnits="userSpaceOnUse" x1="211.2168" y1="254.9102" x2="213.4492" y2="254.9102">
						<stop  offset="0" style="stop-color:#EBECE8"/>
						<stop  offset="1" style="stop-color:#444444"/>
					</linearGradient>
					<path fill="url(#SVGID_67_)" d="M211.486,255.615c-0.391-0.457-0.352-1.137,0.086-1.514c0.436-0.377,1.145-0.344,1.574,0.078
						c0.434,0.422,0.396,1.102-0.078,1.51C212.588,256.107,211.883,256.066,211.486,255.615z"/>
				</g>
				<g>
					<linearGradient id="SVGID_68_" gradientUnits="userSpaceOnUse" x1="207.667" y1="257.5156" x2="209.9131" y2="257.5156">
						<stop  offset="0" style="stop-color:#EBECE8"/>
						<stop  offset="1" style="stop-color:#444444"/>
					</linearGradient>
					<path fill="url(#SVGID_68_)" d="M207.832,258.072c-0.317-0.504-0.162-1.15,0.345-1.441c0.499-0.299,1.156-0.217,1.53,0.27
						c0.353,0.467,0.25,1.18-0.293,1.506C208.864,258.727,208.155,258.578,207.832,258.072z"/>
				</g>
				<g>
					<linearGradient id="SVGID_69_" gradientUnits="userSpaceOnUse" x1="203.7773" y1="259.5938" x2="206.0117" y2="259.5938">
						<stop  offset="0" style="stop-color:#EBECE8"/>
						<stop  offset="1" style="stop-color:#444444"/>
					</linearGradient>
					<path fill="url(#SVGID_69_)" d="M203.869,260.053c-0.236-0.545,0-1.188,0.533-1.434c0.533-0.244,1.199-0.016,1.486,0.508
						c0.289,0.52,0.053,1.162-0.532,1.428C204.775,260.822,204.109,260.592,203.869,260.053z"/>
				</g>
				<g>
					<linearGradient id="SVGID_70_" gradientUnits="userSpaceOnUse" x1="199.5869" y1="261.1289" x2="201.8301" y2="261.1289">
						<stop  offset="0" style="stop-color:#EBECE8"/>
						<stop  offset="1" style="stop-color:#444444"/>
					</linearGradient>
					<path fill="url(#SVGID_70_)" d="M199.621,261.395c-0.146-0.572,0.189-1.146,0.765-1.285c0.572-0.146,1.178,0.115,1.384,0.68
						c0.198,0.549-0.111,1.207-0.739,1.363C200.408,262.303,199.776,261.967,199.621,261.395z"/>
				</g>
				<g>
					<linearGradient id="SVGID_71_" gradientUnits="userSpaceOnUse" x1="195.2217" y1="262.0293" x2="197.4604" y2="262.0293">
						<stop  offset="0" style="stop-color:#EBECE8"/>
						<stop  offset="1" style="stop-color:#444444"/>
					</linearGradient>
					<path fill="url(#SVGID_71_)" d="M195.228,262.188c-0.061-0.584,0.361-1.129,0.945-1.215c0.585-0.086,1.152,0.314,1.269,0.896
						c0.116,0.576-0.305,1.121-0.941,1.215C195.859,263.178,195.288,262.777,195.228,262.188z"/>
				</g>
				<g>
					<linearGradient id="SVGID_72_" gradientUnits="userSpaceOnUse" x1="190.7549" y1="262.373" x2="192.9927" y2="262.373">
						<stop  offset="0" style="stop-color:#EBECE8"/>
						<stop  offset="1" style="stop-color:#444444"/>
					</linearGradient>
					<path fill="url(#SVGID_72_)" d="M190.756,262.318c0.026-0.588,0.525-1.043,1.118-1.014c0.593-0.029,1.092,0.426,1.118,1.014
						c0.026,0.59-0.473,1.09-1.118,1.123C191.229,263.408,190.73,262.908,190.756,262.318z"/>
				</g>
				<g>
					<linearGradient id="SVGID_73_" gradientUnits="userSpaceOnUse" x1="186.2842" y1="262.0293" x2="188.5264" y2="262.0293">
						<stop  offset="0" style="stop-color:#EBECE8"/>
						<stop  offset="1" style="stop-color:#444444"/>
					</linearGradient>
					<path fill="url(#SVGID_73_)" d="M186.302,261.869c0.12-0.582,0.688-0.982,1.272-0.896s1.006,0.631,0.946,1.215
						c-0.064,0.59-0.632,0.99-1.272,0.896C186.612,262.99,186.19,262.445,186.302,261.869z"/>
				</g>
				<g>
					<linearGradient id="SVGID_74_" gradientUnits="userSpaceOnUse" x1="181.918" y1="261.1289" x2="184.1582" y2="261.1289">
						<stop  offset="0" style="stop-color:#EBECE8"/>
						<stop  offset="1" style="stop-color:#444444"/>
					</linearGradient>
					<path fill="url(#SVGID_74_)" d="M181.977,260.789c0.207-0.564,0.808-0.826,1.384-0.68c0.572,0.139,0.912,0.713,0.761,1.285
						c-0.151,0.572-0.783,0.908-1.406,0.758C182.089,261.996,181.779,261.338,181.977,260.789z"/>
				</g>
				<g>
					<linearGradient id="SVGID_75_" gradientUnits="userSpaceOnUse" x1="177.7358" y1="259.5938" x2="179.9673" y2="259.5938">
						<stop  offset="0" style="stop-color:#EBECE8"/>
						<stop  offset="1" style="stop-color:#444444"/>
					</linearGradient>
					<path fill="url(#SVGID_75_)" d="M177.858,259.127c0.284-0.523,0.955-0.752,1.488-0.508c0.533,0.246,0.765,0.889,0.529,1.434
						c-0.237,0.539-0.903,0.77-1.483,0.502C177.807,260.289,177.57,259.646,177.858,259.127z"/>
				</g>
				<g>
					<linearGradient id="SVGID_76_" gradientUnits="userSpaceOnUse" x1="173.8325" y1="257.5156" x2="176.0796" y2="257.5156">
						<stop  offset="0" style="stop-color:#EBECE8"/>
						<stop  offset="1" style="stop-color:#444444"/>
					</linearGradient>
					<path fill="url(#SVGID_76_)" d="M174.041,256.9c0.37-0.486,1.032-0.568,1.53-0.27c0.507,0.291,0.662,0.938,0.34,1.441
						c-0.318,0.506-1.028,0.654-1.578,0.334C173.787,258.08,173.684,257.367,174.041,256.9z"/>
				</g>
				<g>
					<linearGradient id="SVGID_77_" gradientUnits="userSpaceOnUse" x1="170.2969" y1="254.9102" x2="172.5283" y2="254.9102">
						<stop  offset="0" style="stop-color:#EBECE8"/>
						<stop  offset="1" style="stop-color:#444444"/>
					</linearGradient>
					<path fill="url(#SVGID_77_)" d="M170.602,254.18c0.43-0.422,1.135-0.455,1.573-0.078s0.473,1.057,0.082,1.514
						c-0.392,0.451-1.101,0.492-1.578,0.074C170.202,255.281,170.167,254.602,170.602,254.18z"/>
				</g>
				<g>
					<linearGradient id="SVGID_78_" gradientUnits="userSpaceOnUse" x1="167.1846" y1="251.8418" x2="169.4331" y2="251.8418">
						<stop  offset="0" style="stop-color:#EBECE8"/>
						<stop  offset="1" style="stop-color:#444444"/>
					</linearGradient>
					<path fill="url(#SVGID_78_)" d="M167.618,251c0.499-0.359,1.169-0.27,1.548,0.164c0.396,0.416,0.348,1.076-0.112,1.473
						c-0.456,0.396-1.183,0.352-1.617-0.105C167.031,252.057,167.132,251.355,167.618,251z"/>
				</g>
				<g>
					<linearGradient id="SVGID_79_" gradientUnits="userSpaceOnUse" x1="164.5889" y1="248.3848" x2="166.8281" y2="248.3848">
						<stop  offset="0" style="stop-color:#EBECE8"/>
						<stop  offset="1" style="stop-color:#444444"/>
					</linearGradient>
					<path fill="url(#SVGID_79_)" d="M165.137,247.455c0.542-0.281,1.229-0.121,1.537,0.357c0.308,0.482,0.14,1.141-0.374,1.469
						c-0.514,0.328-1.204,0.172-1.539-0.352C164.426,248.4,164.595,247.742,165.137,247.455z"/>
				</g>
				<g>
					<linearGradient id="SVGID_80_" gradientUnits="userSpaceOnUse" x1="162.5269" y1="244.5918" x2="164.7734" y2="244.5918">
						<stop  offset="0" style="stop-color:#EBECE8"/>
						<stop  offset="1" style="stop-color:#444444"/>
					</linearGradient>
					<path fill="url(#SVGID_80_)" d="M163.248,243.598c0.583-0.209,1.21,0.057,1.423,0.58c0.258,0.508,0.015,1.125-0.546,1.379
						c-0.557,0.254-1.238,0.008-1.518-0.539C162.373,244.443,162.671,243.805,163.248,243.598z"/>
				</g>
				<g>
					<linearGradient id="SVGID_81_" gradientUnits="userSpaceOnUse" x1="161.1045" y1="240.5635" x2="163.3452" y2="240.5635">
						<stop  offset="0" style="stop-color:#EBECE8"/>
						<stop  offset="1" style="stop-color:#444444"/>
					</linearGradient>
					<path fill="url(#SVGID_81_)" d="M161.949,239.521c0.604-0.127,1.217,0.217,1.363,0.766c0.148,0.543-0.213,1.129-0.806,1.301
						c-0.591,0.172-1.204-0.172-1.363-0.766C160.982,240.229,161.343,239.645,161.949,239.521z"/>
				</g>
				<g>
					<linearGradient id="SVGID_82_" gradientUnits="userSpaceOnUse" x1="160.269" y1="236.3691" x2="162.5205" y2="236.3691">
						<stop  offset="0" style="stop-color:#EBECE8"/>
						<stop  offset="1" style="stop-color:#444444"/>
					</linearGradient>
					<path fill="url(#SVGID_82_)" d="M161.313,235.307c0.63-0.037,1.122,0.389,1.195,0.945c0.09,0.557-0.333,1.08-0.946,1.17
						c-0.613,0.09-1.189-0.328-1.286-0.938C160.199,235.875,160.707,235.342,161.313,235.307z"/>
				</g>
				<g>
					<linearGradient id="SVGID_83_" gradientUnits="userSpaceOnUse" x1="160.1357" y1="232.1074" x2="162.3804" y2="232.1074">
						<stop  offset="0" style="stop-color:#EBECE8"/>
						<stop  offset="1" style="stop-color:#444444"/>
					</linearGradient>
					<path fill="url(#SVGID_83_)" d="M161.313,231.045c0.619,0.051,1.094,0.541,1.066,1.105c-0.032,0.561-0.559,1.023-1.178,1.023
						c-0.619,0.008-1.096-0.49-1.064-1.102C160.169,231.459,160.696,231,161.313,231.045z"/>
				</g>
				<g>
					<linearGradient id="SVGID_84_" gradientUnits="userSpaceOnUse" x1="160.6128" y1="227.8711" x2="162.8413" y2="227.8711">
						<stop  offset="0" style="stop-color:#EBECE8"/>
						<stop  offset="1" style="stop-color:#444444"/>
					</linearGradient>
					<path fill="url(#SVGID_84_)" d="M161.949,226.83c0.606,0.131,0.952,0.676,0.883,1.236c-0.088,0.557-0.658,0.941-1.27,0.863
						c-0.615-0.082-1.034-0.643-0.936-1.248C160.705,227.068,161.347,226.699,161.949,226.83z"/>
				</g>
				<g>
					<linearGradient id="SVGID_85_" gradientUnits="userSpaceOnUse" x1="161.7256" y1="223.7461" x2="163.9883" y2="223.7461">
						<stop  offset="0" style="stop-color:#EBECE8"/>
						<stop  offset="1" style="stop-color:#444444"/>
					</linearGradient>
					<path fill="url(#SVGID_85_)" d="M163.248,222.754c0.578,0.213,0.881,0.818,0.677,1.344c-0.217,0.527-0.836,0.83-1.419,0.666
						c-0.606-0.168-0.939-0.781-0.705-1.354C162.024,222.836,162.671,222.541,163.248,222.754z"/>
				</g>
				<g>
					<linearGradient id="SVGID_86_" gradientUnits="userSpaceOnUse" x1="163.4946" y1="219.8281" x2="165.7139" y2="219.8281">
						<stop  offset="0" style="stop-color:#EBECE8"/>
						<stop  offset="1" style="stop-color:#444444"/>
					</linearGradient>
					<path fill="url(#SVGID_86_)" d="M165.137,218.893c0.535,0.293,0.711,0.916,0.471,1.432c-0.256,0.508-0.92,0.721-1.483,0.471
						c-0.561-0.25-0.791-0.896-0.509-1.449C163.879,218.785,164.598,218.602,165.137,218.893z"/>
				</g>
				<g>
					<linearGradient id="SVGID_87_" gradientUnits="userSpaceOnUse" x1="165.8066" y1="216.1914" x2="168.0693" y2="216.1914">
						<stop  offset="0" style="stop-color:#EBECE8"/>
						<stop  offset="1" style="stop-color:#444444"/>
					</linearGradient>
					<path fill="url(#SVGID_87_)" d="M167.618,215.348c0.49,0.364,0.598,1.027,0.241,1.477c-0.361,0.447-1.051,0.562-1.559,0.246
						c-0.529-0.332-0.658-1.002-0.262-1.489C166.422,215.09,167.132,214.988,167.618,215.348z"/>
				</g>
				<g>
					<linearGradient id="SVGID_88_" gradientUnits="userSpaceOnUse" x1="168.6885" y1="212.918" x2="170.9126" y2="212.918">
						<stop  offset="0" style="stop-color:#EBECE8"/>
						<stop  offset="1" style="stop-color:#444444"/>
					</linearGradient>
					<path fill="url(#SVGID_88_)" d="M170.602,212.172c0.43,0.434,0.396,1.064,0.013,1.494c-0.4,0.417-1.096,0.438-1.561,0.049
						s-0.49-1.076-0.052-1.531C169.419,211.713,170.18,211.75,170.602,212.172z"/>
				</g>
				<g>
					<linearGradient id="SVGID_89_" gradientUnits="userSpaceOnUse" x1="172.0024" y1="210.0781" x2="174.2603" y2="210.0781">
						<stop  offset="0" style="stop-color:#EBECE8"/>
						<stop  offset="1" style="stop-color:#444444"/>
					</linearGradient>
					<path fill="url(#SVGID_89_)" d="M174.041,209.451c0.361,0.479,0.266,1.145-0.207,1.484c-0.477,0.336-1.187,0.242-1.578-0.195
						c-0.409-0.467-0.314-1.13,0.202-1.498C172.975,208.873,173.684,208.972,174.041,209.451z"/>
				</g>
				<g>
					<linearGradient id="SVGID_90_" gradientUnits="userSpaceOnUse" x1="175.749" y1="207.7207" x2="177.9834" y2="207.7207">
						<stop  offset="0" style="stop-color:#EBECE8"/>
						<stop  offset="1" style="stop-color:#444444"/>
					</linearGradient>
					<path fill="url(#SVGID_90_)" d="M177.858,207.229c0.288,0.54,0.052,1.113-0.438,1.428c-0.507,0.291-1.182,0.123-1.509-0.381
						c-0.327-0.498-0.142-1.162,0.408-1.48C176.861,206.459,177.583,206.713,177.858,207.229z"/>
				</g>
				<g>
					<linearGradient id="SVGID_91_" gradientUnits="userSpaceOnUse" x1="179.7847" y1="205.9238" x2="182.0386" y2="205.9238">
						<stop  offset="0" style="stop-color:#EBECE8"/>
						<stop  offset="1" style="stop-color:#444444"/>
					</linearGradient>
					<path fill="url(#SVGID_91_)" d="M181.977,205.563c0.198,0.561-0.095,1.171-0.653,1.363c-0.55,0.196-1.204-0.098-1.449-0.622
						c-0.254-0.557,0.047-1.158,0.649-1.375C181.13,204.72,181.779,205.002,181.977,205.563z"/>
				</g>
				<g>
					<linearGradient id="SVGID_92_" gradientUnits="userSpaceOnUse" x1="184.0864" y1="204.6875" x2="186.3213" y2="204.6875">
						<stop  offset="0" style="stop-color:#EBECE8"/>
						<stop  offset="1" style="stop-color:#444444"/>
					</linearGradient>
					<path fill="url(#SVGID_92_)" d="M186.302,204.482c0.112,0.594-0.284,1.084-0.852,1.248c-0.576,0.144-1.169-0.205-1.328-0.773
						c-0.159-0.568,0.219-1.158,0.842-1.305C185.584,203.472,186.199,203.914,186.302,204.482z"/>
				</g>
				<g>
					<linearGradient id="SVGID_93_" gradientUnits="userSpaceOnUse" x1="188.5127" y1="204.085" x2="190.7563" y2="204.085">
						<stop  offset="0" style="stop-color:#EBECE8"/>
						<stop  offset="1" style="stop-color:#444444"/>
					</linearGradient>
					<path fill="url(#SVGID_93_)" d="M190.756,204.032c0.018,0.589-0.447,1.093-1.04,1.117s-1.126-0.417-1.195-0.99
						c-0.073-0.597,0.387-1.112,1.032-1.138C190.197,202.988,190.739,203.443,190.756,204.032z"/>
				</g>
				<g>
					<linearGradient id="SVGID_94_" gradientUnits="userSpaceOnUse" x1="192.9912" y1="204.085" x2="195.2349" y2="204.085">
						<stop  offset="0" style="stop-color:#EBECE8"/>
						<stop  offset="1" style="stop-color:#444444"/>
					</linearGradient>
					<path fill="url(#SVGID_94_)" d="M195.228,204.159c-0.069,0.573-0.602,1.015-1.195,0.99s-1.058-0.528-1.041-1.117
						s0.559-1.044,1.2-1.011C194.836,203.047,195.3,203.563,195.228,204.159z"/>
				</g>
				<g>
					<linearGradient id="SVGID_95_" gradientUnits="userSpaceOnUse" x1="197.4238" y1="204.6875" x2="199.6592" y2="204.6875">
						<stop  offset="0" style="stop-color:#EBECE8"/>
						<stop  offset="1" style="stop-color:#444444"/>
					</linearGradient>
					<path fill="url(#SVGID_95_)" d="M199.621,204.957c-0.155,0.568-0.752,0.917-1.324,0.773c-0.567-0.164-0.963-0.654-0.855-1.248
						c0.107-0.568,0.718-1.011,1.341-0.83C199.406,203.799,199.785,204.389,199.621,204.957z"/>
				</g>
				<g>
					<linearGradient id="SVGID_96_" gradientUnits="userSpaceOnUse" x1="201.709" y1="205.9238" x2="203.96" y2="205.9238">
						<stop  offset="0" style="stop-color:#EBECE8"/>
						<stop  offset="1" style="stop-color:#444444"/>
					</linearGradient>
					<path fill="url(#SVGID_96_)" d="M203.869,206.304c-0.241,0.524-0.895,0.818-1.445,0.622c-0.559-0.192-0.852-0.803-0.653-1.363
						s0.847-0.843,1.453-0.634C203.826,205.146,204.123,205.747,203.869,206.304z"/>
				</g>
				<g>
					<linearGradient id="SVGID_97_" gradientUnits="userSpaceOnUse" x1="205.7637" y1="207.7207" x2="207.9951" y2="207.7207">
						<stop  offset="0" style="stop-color:#EBECE8"/>
						<stop  offset="1" style="stop-color:#444444"/>
					</linearGradient>
					<path fill="url(#SVGID_97_)" d="M207.832,208.275c-0.326,0.504-0.997,0.672-1.504,0.381c-0.494-0.314-0.727-0.888-0.439-1.428
						c0.275-0.516,0.998-0.77,1.54-0.434C207.979,207.113,208.159,207.777,207.832,208.275z"/>
				</g>
				<g>
					<linearGradient id="SVGID_98_" gradientUnits="userSpaceOnUse" x1="209.4873" y1="210.0781" x2="211.7451" y2="210.0781">
						<stop  offset="0" style="stop-color:#EBECE8"/>
						<stop  offset="1" style="stop-color:#444444"/>
					</linearGradient>
					<path fill="url(#SVGID_98_)" d="M211.486,210.74c-0.387,0.438-1.096,0.531-1.572,0.195c-0.474-0.34-0.568-1.006-0.207-1.484
						c0.353-0.479,1.066-0.578,1.582-0.209C211.805,209.61,211.899,210.273,211.486,210.74z"/>
				</g>
				<g>
					<linearGradient id="SVGID_99_" gradientUnits="userSpaceOnUse" x1="212.835" y1="212.918" x2="215.0576" y2="212.918">
						<stop  offset="0" style="stop-color:#EBECE8"/>
						<stop  offset="1" style="stop-color:#444444"/>
					</linearGradient>
					<path fill="url(#SVGID_99_)" d="M214.694,213.715c-0.464,0.389-1.165,0.368-1.565-0.049c-0.378-0.43-0.412-1.061,0.018-1.494
						c0.422-0.422,1.178-0.459,1.6,0.012C215.18,212.639,215.158,213.326,214.694,213.715z"/>
				</g>
				<g>
					<linearGradient id="SVGID_100_" gradientUnits="userSpaceOnUse" x1="215.6787" y1="216.1914" x2="217.9424" y2="216.1914">
						<stop  offset="0" style="stop-color:#EBECE8"/>
						<stop  offset="1" style="stop-color:#444444"/>
					</linearGradient>
					<path fill="url(#SVGID_100_)" d="M217.445,217.07c-0.507,0.315-1.195,0.201-1.557-0.246c-0.355-0.449-0.248-1.112,0.241-1.477
						c0.485-0.359,1.195-0.258,1.583,0.233C218.107,216.068,217.979,216.738,217.445,217.07z"/>
				</g>
				<g>
					<linearGradient id="SVGID_101_" gradientUnits="userSpaceOnUse" x1="218.0342" y1="219.8281" x2="220.252" y2="219.8281">
						<stop  offset="0" style="stop-color:#EBECE8"/>
						<stop  offset="1" style="stop-color:#444444"/>
					</linearGradient>
					<path fill="url(#SVGID_101_)" d="M219.621,220.795c-0.563,0.25-1.229,0.037-1.483-0.471c-0.236-0.516-0.064-1.139,0.474-1.432
						c0.537-0.291,1.26-0.107,1.521,0.453C220.412,219.898,220.184,220.545,219.621,220.795z"/>
				</g>
				<g>
					<linearGradient id="SVGID_102_" gradientUnits="userSpaceOnUse" x1="219.7568" y1="223.7461" x2="222.0195" y2="223.7461">
						<stop  offset="0" style="stop-color:#EBECE8"/>
						<stop  offset="1" style="stop-color:#444444"/>
					</linearGradient>
					<path fill="url(#SVGID_102_)" d="M221.237,224.764c-0.575,0.164-1.194-0.139-1.419-0.666c-0.201-0.525,0.104-1.131,0.68-1.344
						s1.226,0.082,1.444,0.656C222.18,223.982,221.848,224.596,221.237,224.764z"/>
				</g>
				<g>
					<linearGradient id="SVGID_103_" gradientUnits="userSpaceOnUse" x1="220.9023" y1="227.8711" x2="223.1338" y2="227.8711">
						<stop  offset="0" style="stop-color:#EBECE8"/>
						<stop  offset="1" style="stop-color:#444444"/>
					</linearGradient>
					<path fill="url(#SVGID_103_)" d="M222.184,228.93c-0.611,0.078-1.183-0.307-1.273-0.863c-0.064-0.561,0.284-1.105,0.887-1.236
						c0.602-0.131,1.246,0.238,1.324,0.852C223.215,228.287,222.799,228.848,222.184,228.93z"/>
				</g>
				<g>
					<linearGradient id="SVGID_104_" gradientUnits="userSpaceOnUse" x1="221.3662" y1="232.1074" x2="223.6133" y2="232.1074">
						<stop  offset="0" style="stop-color:#EBECE8"/>
						<stop  offset="1" style="stop-color:#444444"/>
					</linearGradient>
					<path fill="url(#SVGID_104_)" d="M222.545,233.174c-0.619,0-1.145-0.463-1.178-1.023c-0.026-0.564,0.446-1.055,1.065-1.105
						c0.619-0.045,1.144,0.414,1.179,1.027C223.645,232.684,223.164,233.182,222.545,233.174z"/>
				</g>
			</g>
		</g>
		
			<radialGradient id="SVGID_105_" cx="216.3398" cy="255.0723" r="9.8411" gradientTransform="matrix(4.4024 0 0 4.1905 -760.5391 -835.7148)" gradientUnits="userSpaceOnUse">
			<stop  offset="0.5668" style="stop-color:#CBD2D6"/>
			<stop  offset="0.9679" style="stop-color:#5C707E"/>
		</radialGradient>
		<path opacity="0.55" clip-path="url(#SVGID_13_)" fill="url(#SVGID_105_)" d="M191.874,197.804
			c-20.524,0-37.158,15.833-37.158,35.37c0,19.533,16.634,35.365,37.158,35.365s37.158-15.832,37.158-35.365
			C229.032,213.637,212.398,197.804,191.874,197.804z M191.874,266.252c-19.192,0-34.753-14.811-34.753-33.078
			s15.561-33.083,34.753-33.083c19.191,0,34.755,14.815,34.755,33.083S211.065,266.252,191.874,266.252z"/>
		<g clip-path="url(#SVGID_13_)">
			<defs>
				<filter id="Adobe_OpacityMaskFilter" filterUnits="userSpaceOnUse" x="185.399" y="186.246" width="57.362" height="36.938">
					<feColorMatrix  type="matrix" values="1 0 0 0 0  0 1 0 0 0  0 0 1 0 0  0 0 0 1 0"/>
				</filter>
			</defs>
			<mask maskUnits="userSpaceOnUse" x="185.399" y="186.246" width="57.362" height="36.938" id="SVGID_106_">
				<g filter="url(#Adobe_OpacityMaskFilter)">
					
						<radialGradient id="SVGID_107_" cx="977.1426" cy="228.7246" r="10.3828" gradientTransform="matrix(0.6454 -1.1805 2.6855 1.3309 -1030.7891 1053.79)" gradientUnits="userSpaceOnUse">
						<stop  offset="0" style="stop-color:#FFFFFF"/>
						<stop  offset="0.1368" style="stop-color:#E2E2E2"/>
						<stop  offset="0.4339" style="stop-color:#999999"/>
						<stop  offset="0.8653" style="stop-color:#262626"/>
						<stop  offset="1" style="stop-color:#000000"/>
					</radialGradient>
					<path fill="url(#SVGID_107_)" d="M220.781,192.455c15.4,7.632,24.88,19.308,21.179,26.076
						c-3.702,6.77-19.183,6.068-34.583-1.563c-15.4-7.629-24.875-19.3-21.178-26.069
						C189.905,184.131,205.387,184.827,220.781,192.455z"/>
				</g>
			</mask>
			
				<radialGradient id="SVGID_108_" cx="977.1426" cy="228.7246" r="10.3828" gradientTransform="matrix(0.6454 -1.1805 2.6855 1.3309 -1030.7891 1053.79)" gradientUnits="userSpaceOnUse">
				<stop  offset="0" style="stop-color:#EBEAE6"/>
				<stop  offset="1" style="stop-color:#000000"/>
			</radialGradient>
			<path mask="url(#SVGID_106_)" fill="url(#SVGID_108_)" d="M220.781,192.455c15.4,7.632,24.88,19.308,21.179,26.076
				c-3.702,6.77-19.183,6.068-34.583-1.563c-15.4-7.629-24.875-19.3-21.178-26.069C189.905,184.131,205.387,184.827,220.781,192.455
				z"/>
			<g>
				<defs>
					
						<filter id="Adobe_OpacityMaskFilter_1_" filterUnits="userSpaceOnUse" x="203.182" y="194.299" width="21.799" height="20.829">
						<feColorMatrix  type="matrix" values="1 0 0 0 0  0 1 0 0 0  0 0 1 0 0  0 0 0 1 0"/>
					</filter>
				</defs>
				<mask maskUnits="userSpaceOnUse" x="203.182" y="194.299" width="21.799" height="20.829" id="SVGID_109_">
					<g filter="url(#Adobe_OpacityMaskFilter_1_)">
						
							<radialGradient id="SVGID_110_" cx="529.9219" cy="87.9561" r="4.7111" gradientTransform="matrix(1.9577 0.958 -1.1213 2.076 -724.748 -485.5195)" gradientUnits="userSpaceOnUse">
							<stop  offset="0" style="stop-color:#FFFFFF"/>
							<stop  offset="0.2113" style="stop-color:#C4C4C4"/>
							<stop  offset="0.6019" style="stop-color:#5C5C5C"/>
							<stop  offset="0.8731" style="stop-color:#1A1A1A"/>
							<stop  offset="1" style="stop-color:#000000"/>
						</radialGradient>
						<path fill="url(#SVGID_110_)" d="M223.757,209.451c-2.769,5.119-9.338,7.148-14.687,4.537
							c-5.344-2.619-7.433-8.888-4.668-14.011c2.768-5.124,9.342-7.153,14.686-4.534
							C224.436,198.054,226.525,204.331,223.757,209.451z"/>
					</g>
				</mask>
				
					<radialGradient id="SVGID_111_" cx="529.9219" cy="87.9561" r="4.7111" gradientTransform="matrix(1.9577 0.958 -1.1213 2.076 -724.748 -485.5195)" gradientUnits="userSpaceOnUse">
					<stop  offset="0" style="stop-color:#FFF9EF"/>
					<stop  offset="0.1269" style="stop-color:#E5E0D7"/>
					<stop  offset="0.3981" style="stop-color:#A3A099"/>
					<stop  offset="0.7887" style="stop-color:#3B3A37"/>
					<stop  offset="1" style="stop-color:#000000"/>
				</radialGradient>
				<path mask="url(#SVGID_109_)" fill="url(#SVGID_111_)" d="M223.757,209.451c-2.769,5.119-9.338,7.148-14.687,4.537
					c-5.344-2.619-7.433-8.888-4.668-14.011c2.768-5.124,9.342-7.153,14.686-4.534C224.436,198.054,226.525,204.331,223.757,209.451
					z"/>
			</g>
		</g>
		<defs>
			<filter id="Adobe_OpacityMaskFilter_2_" filterUnits="userSpaceOnUse" x="150.62" y="247.896" width="32.692" height="24.237">
				<feColorMatrix  type="matrix" values="1 0 0 0 0  0 1 0 0 0  0 0 1 0 0  0 0 0 1 0"/>
			</filter>
		</defs>
		<mask maskUnits="userSpaceOnUse" x="150.62" y="247.896" width="32.692" height="24.237" id="SVGID_112_">
			<g filter="url(#Adobe_OpacityMaskFilter_2_)">
				
					<radialGradient id="SVGID_113_" cx="729.0664" cy="70.4023" r="7.0183" gradientTransform="matrix(0.7374 -1.1306 2.2091 1.3053 -526.1758 992.4014)" gradientUnits="userSpaceOnUse">
					<stop  offset="0" style="stop-color:#FFFFFF"/>
					<stop  offset="0.1368" style="stop-color:#E2E2E2"/>
					<stop  offset="0.4339" style="stop-color:#999999"/>
					<stop  offset="0.8653" style="stop-color:#262626"/>
					<stop  offset="1" style="stop-color:#000000"/>
				</radialGradient>
				<path clip-path="url(#SVGID_13_)" fill="url(#SVGID_113_)" d="M172.141,252.08c8.564,5.059,13.181,12.711,10.327,17.098
					c-2.859,4.379-12.115,3.83-20.677-1.227c-8.56-5.059-13.184-12.715-10.324-17.098
					C154.325,246.475,163.581,247.021,172.141,252.08z"/>
			</g>
		</mask>
		
			<radialGradient id="SVGID_114_" cx="729.0664" cy="70.4023" r="7.0183" gradientTransform="matrix(0.7374 -1.1306 2.2091 1.3053 -526.1758 992.4014)" gradientUnits="userSpaceOnUse">
			<stop  offset="0" style="stop-color:#EBEAE6"/>
			<stop  offset="1" style="stop-color:#000000"/>
		</radialGradient>
		<path clip-path="url(#SVGID_13_)" mask="url(#SVGID_112_)" fill="url(#SVGID_114_)" d="M172.141,252.08
			c8.564,5.059,13.181,12.711,10.327,17.098c-2.859,4.379-12.115,3.83-20.677-1.227c-8.56-5.059-13.184-12.715-10.324-17.098
			C154.325,246.475,163.581,247.021,172.141,252.08z"/>
		<linearGradient id="SVGID_115_" gradientUnits="userSpaceOnUse" x1="181.8408" y1="238.3994" x2="207.3548" y2="226.3347">
			<stop  offset="0" style="stop-color:#9B9BA7"/>
			<stop  offset="0.6522" style="stop-color:#EEEEF0"/>
			<stop  offset="0.9519" style="stop-color:#DDDDE2"/>
		</linearGradient>
		<path clip-path="url(#SVGID_13_)" fill="url(#SVGID_115_)" d="M194.023,237.766c7.248-4.592,11.084-6.434,11.084-12.752
			c0-4.918-4.222-8.144-10.959-8.144c-8.947,0-13.496,3.618-13.496,9.167c0,0.277,0,1.521,0.043,1.834h8.659v-1.266
			c0-1.154,1.144-3.068,3.706-3.068c0.241,0,0.421,0.02,0.645,0.023c1.328,0.377,1.788,1.289,1.788,2.428
			c0,1.705-4.127,3.895-11.087,9.738c-2.33,1.957-3.736,4.031-3.736,7.775v1.896h24.764v-7.633H194.023z"/>
		<g clip-path="url(#SVGID_13_)">
			<linearGradient id="SVGID_116_" gradientUnits="userSpaceOnUse" x1="193.0605" y1="217.5488" x2="193.0605" y2="245.0656">
				<stop  offset="0.0472" style="stop-color:#EEEFF4"/>
				<stop  offset="0.1738" style="stop-color:#E5E5E8"/>
				<stop  offset="0.2497" style="stop-color:#C8C8CE"/>
				<stop  offset="0.3325" style="stop-color:#AFAFB9"/>
				<stop  offset="0.4085" style="stop-color:#A0A0AC"/>
				<stop  offset="0.4706" style="stop-color:#9B9BA7"/>
				<stop  offset="0.6524" style="stop-color:#707081"/>
				<stop  offset="0.7914" style="stop-color:#BEBEC5"/>
				<stop  offset="0.8116" style="stop-color:#C9C9D0"/>
				<stop  offset="0.845" style="stop-color:#D3D3DA"/>
				<stop  offset="0.8824" style="stop-color:#D7D7DE"/>
				<stop  offset="0.909" style="stop-color:#E3E4E9"/>
				<stop  offset="0.945" style="stop-color:#EBECF2"/>
				<stop  offset="1" style="stop-color:#EEEFF4"/>
			</linearGradient>
			<path fill="url(#SVGID_116_)" d="M204.29,225.541c0,5.75-6.122,8.57-11.879,12.506h12.206v6.523h-23.113v-1.854
				c0-2.893,1.621-4.939,3.891-6.867c6.324-5.369,10.869-7.529,10.869-10.037c0-1.471-1.015-2.82-3.487-2.82
				c-1.857,0-2.958,0.908-3.646,2.119c-0.387,0.672-0.288,2.283-0.288,2.283h-7.218c0,0,0-1.922,0.078-2.43
				c0.722-4.539,4.66-7.416,11.844-7.416C200.154,217.549,204.29,220.717,204.29,225.541z"/>
		</g>
	</g>
	
		<radialGradient id="SVGID_117_" cx="216.6055" cy="242.9336" r="20.1946" gradientTransform="matrix(4.4024 0 0 4.1905 -760.5391 -835.7148)" gradientUnits="userSpaceOnUse">
		<stop  offset="0" style="stop-color:#ECECBB"/>
		<stop  offset="1" style="stop-color:#784F58"/>
	</radialGradient>
	<path opacity="0.35" fill="url(#SVGID_117_)" d="M222.828,197.432c-0.734-0.581-1.521-1.097-2.291-1.633
		c0.004-0.021,0.008-0.045,0.013-0.062c0.009-0.053,0.021-0.106,0.034-0.156c0.043-0.212,0.086-0.417,0.129-0.638
		c0.035-0.188,0.061-0.385,0.095-0.573c0.009-0.062,0.017-0.119,0.026-0.18c0.201-1.277,0.33-2.644,0.326-4.06
		c0-0.421-0.018-0.851-0.043-1.277c-0.025-0.43-0.064-0.859-0.12-1.293c-0.108-0.868-0.275-1.735-0.517-2.599
		c-0.15-0.553-0.344-1.101-0.559-1.649c-0.232-0.589-0.498-1.17-0.809-1.743c-0.722-1.33-1.65-2.611-2.863-3.79l1.385-2.079l0,0
		l48.779-73.097l-6.041-3.466l0.057-0.086l-18.427-10.574l-0.052,0.086l-6.015-3.45l-0.013,0.025v-0.025h-10.413H160.61h-10.413
		l0.026,0.131l-0.08-0.131l-30.473,17.491l49.193,73.719c-3.278,2.472-5.083,5.508-5.946,8.639
		c-0.356,1.297-0.554,2.606-0.634,3.892c-0.028,0.426-0.041,0.855-0.041,1.277c-0.004,0.847,0.039,1.678,0.118,2.484
		c0.009,0.094,0.024,0.188,0.035,0.282c0.011,0.099,0.023,0.197,0.034,0.295c0.045,0.368,0.095,0.736,0.153,1.093
		c0.015,0.102,0.032,0.205,0.049,0.307c0.064,0.376,0.133,0.741,0.208,1.097c0.013,0.058,0.023,0.123,0.037,0.18
		c0.011,0.049,0.019,0.098,0.03,0.147c-3.168,2.238-6.075,4.796-8.585,7.693c-1.984,2.283-3.74,4.76-5.238,7.383
		c-3.747,6.564-5.873,14.086-5.873,22.082c0,4.797,0.766,9.42,2.187,13.775c0.948,2.896,2.188,5.68,3.687,8.303
		c1.498,2.623,3.254,5.096,5.238,7.387c0.991,1.146,2.04,2.242,3.141,3.289c2.201,2.096,4.613,3.99,7.201,5.656
		c7.769,4.992,17.132,7.91,27.21,7.91c10.077,0,19.44-2.918,27.205-7.91c9.063-5.828,15.95-14.486,19.27-24.635
		c1.423-4.355,2.188-8.979,2.188-13.775c0-7.996-2.129-15.518-5.873-22.082C231.668,205.842,227.635,201.205,222.828,197.432z
		 M175.507,186.284h-0.004h0.009h7.266h0.602h19.527h0.602h7.063h0.005l0,0l0.963-1.445c0.627,0.766,1.092,1.584,1.393,2.435
		c0.104,0.291,0.189,0.589,0.258,0.892c0.215,0.884,0.283,1.801,0.267,2.726c-0.005,0.028-0.005,0.057-0.005,0.082
		c-0.004,0.233-0.033,0.467-0.051,0.704c-6.496-3.061-13.788-4.829-21.526-4.829c-7.872,0-15.279,1.825-21.857,4.98
		c-0.056-0.61-0.086-1.215-0.056-1.821c0-0.017,0-0.033,0.004-0.049c0.018-0.434,0.069-0.868,0.146-1.301l0,0
		c0.086-0.467,0.198-0.933,0.361-1.383c0.516-1.457,1.47-2.815,3.035-3.986L175.507,186.284z M177.824,115.725h30.473h9.355
		l-19.33,32.362l0,0l-5.279,8.839l-24.618-41.201H177.824z"/>
</g>
</svg>
