<?xml version="1.0" encoding="utf-8"?>
<!-- Generator: Adobe Illustrator 16.0.0, SVG Export Plug-In . SVG Version: 6.00 Build 0)  -->
<!DOCTYPE svg PUBLIC "-//W3C//DTD SVG 1.1//EN" "http://www.w3.org/Graphics/SVG/1.1/DTD/svg11.dtd">
<svg version="1.1" id="Capa_1" xmlns="http://www.w3.org/2000/svg" xmlns:xlink="http://www.w3.org/1999/xlink" x="0px" y="0px"
	 width="800px" height="800px" viewBox="0 0 800 800" enable-background="new 0 0 800 800" xml:space="preserve">
<g>
	<g>
		<path fill="#636B62" d="M308.246,384.397c0.08-1.368-0.092-2.778-0.49-3.979c-0.352-1.437-0.707-2.871-1.065-4.313
			c3.432-4.363,5.46-10.074,4.793-19.728c-0.425-6.125-6.563-8.933-9.285-3.215c-12.625,26.552-36.497,33.064-55.433,49.284
			c-2.996-0.715-5.433,0.254-9.451,0.16c-9.123-0.232-18.8-2.976-27.796-4.634c-14.139-2.602-28.052-5.002-40.98-12.482
			c1.779-13.762-3.144-33.605-6.435-46.399c6.704-6.771,14.164-9.506,23.372-11.894c3.173-0.82,6.325-1.79,9.502-2.61
			c2.382-0.621,4.783-1.084,7.203-1.412c0.271,2.949,1.81,5.544,4.686,5.24c2.216-0.236,4.429-0.472,6.641-0.707
			c2.021-0.217,4.462-1.76,4.806-4.677c4.033-34.29-0.841-70.275-2.322-104.803c-0.54-12.518,0.158-51.373-15.211-51.219
			c-1.518,0.015-2.667,0.752-3.465,1.848c-0.697,0.797-1.22,1.874-1.418,3.256c-22.095-4.544-44.298-7.851-66.621-10.008
			c-3.6-3.397-8.158-6.084-12.707-5.825c-5.99,0.34-10.259,7.262-10.071,14.712c0.157,6.154,3.563,11.87,7.987,14.161
			c6.301,27.018,13.736,53.175,18.75,80.724c0.61,3.353,1.304,6.707,2.041,10.061c2.434,22.635,8.61,44.272,9.811,67.348
			c0.61,11.72,2.467,23.414,3.66,35.04c0.114,1.11,0.191,2.178,0.258,3.224c-0.268,1.08-0.245,2.354,0.202,3.776
			c0.003,0.03,0.01,0.061,0.017,0.09c0.204,3.404,0.563,6.623,1.81,10.01c0.881,10.452-0.513,22.312-1.049,31.897
			c-1.193,21.4-3.473,42.859-6.315,63.988c-0.489,3.648,1.224,6.332,3.339,7.439c2.166,1.705,5.115,1.559,6.596-2.18
			c10.739-27.049,10.894-60.221,12.999-90.734c11.651,5.625,24.206,10.123,36.899,13.281c-0.225,3.258-0.207,6.543-0.221,9.877
			c-0.024,4.055-1.065,8-1.536,11.986c-0.854,7.209,1.173,14.889,7.941,13.498c4.766-0.98,5.949-10.049,6.569-14.818
			c0.477-3.678,0.771-7.408,1.039-11.121c0.111-1.576,0.208-3.154,0.306-4.732c0.014-0.215,0.077-0.994,0.131-1.727
			c2.707,0.449,5.406,0.852,8.094,1.178c0.569,1.385,1.375,2.805,2.501,4.244c0.666,0.857,1.599,1.506,2.621,2.066
			c-2.654,6.508-4.743,13.457-0.231,19.805c0.617,0.871,1.284,1.578,1.964,2.23c-0.626,7.498,0.178,15.475,0.064,22.816
			c-0.246,15.721,0.233,31.436-0.091,47.152c-3.821,4.367-5.473,11.668-2.202,16.992c0.184,7.42,3.1,14.756,8.453,14.516
			c5.212-0.24,6.314-7.186,6.393-14.551c1.45-3.094,1.853-7.244,0.556-11.512c-0.219-0.717-0.516-1.348-0.845-1.943
			c0.017-0.93,0.048-1.771,0.15-2.414c3.654-23.539,4.673-48.787,3.42-72.738c0.59-0.746,1.169-1.525,1.675-2.436
			c3.681-6.627,3.817-15.252,0.037-21.496c0.838-1.822,1.408-3.975,1.777-6.213c14.181-4.721,25.587-15.646,36.923-27.747
			c0.077-0.082,0.154-0.154,0.234-0.236c0.66,1.561,1.653,2.852,2.89,3.799c-0.03,16.001,0.371,32.296-0.543,48.216
			c-0.292,5.137-0.701,10.057-0.649,14.885c-1.335,5.881-1.771,11.574,1.267,15.457c0.597,0.764,1.29,1.27,2.017,1.553
			c1.757,2.547,5.487,2.914,7.24,0.215c4.324-6.68,3.433-15.176,2.507-23.273c0.104-0.428,0.178-0.717,0.191-0.785
			c1.022-5.508,1.207-11.42,1.173-17.24c1.342-13.629,0.985-27.316,0.909-41.075c0-0.275-0.041-0.516-0.067-0.768
			C307.863,390.304,308.547,387.218,308.246,384.397z M150.516,271.344c-0.67-9.407-1.213-18.842-2.26-28.11
			c-2.59-23.012-9.489-46.534-16.414-68.106c21.74,2.184,43.359,5.402,64.881,9.96c0.771,5.35,1.917,10.589,3.181,16.106
			c3.257,14.198,2.506,30.47,2.534,45.103c0.033,21.502,1.075,42.969,1.479,64.458c-1.885-0.175-3.852-0.085-5.709,0.279
			c-14.191,2.795-28.464,5.736-39.964,15.791C157.545,307.831,154.552,289.447,150.516,271.344z"/>
		<path fill="#A0A96A" d="M295.753,334.964c-25.112-7.53-55.368-14.485-81.106-9.717c-12.817,2.378-40.933,4.264-48.987,21.417
			c-4.448,2.118-8.638,5.676-12.401,11.235c-6.151,9.093-3.157,20.509,5.132,24.851c24.87,13.015,54.993,22.917,81.962,23.358
			c23.989,0.395,46.536-23.556,60.53-46.297C305.932,351.604,305.105,337.768,295.753,334.964z"/>
		<path fill="#A0A96A" d="M208.308,281.96c0.54-13.866,0.398-27.869-0.214-41.466c-0.48-10.5-1.891-20.917-3.503-31.21
			c-0.932-5.933-1.509-17.413-4.354-22.482c-5.476-9.767-16.122-8.449-24.826-9.412c-14.205-1.568-27.354-11.599-41.824-7.321
			c-2.584,0.765-4.263,4.623-3.479,7.838c5.742,23.509,9.693,47.612,15.623,71.149c3.349,13.292,6.382,26.939,7.384,40.893
			c0.43,6.01,0.094,13.928,2.531,19.424c0.553,1.239,1.102,2.302,1.662,3.284c-0.067,0.851-0.09,1.691-0.214,2.562
			c-1.116,7.768,7.802,11.199,9.441,4.118c2.967-0.018,6.339-1.318,10.384-3.181c5.949-2.744,16.822-0.967,23.797-4.722
			c2.337,0.561,5.48-1.171,5.836-4.505c0.138-1.295,0.241-2.607,0.362-3.908C208.609,297.229,208.757,289.621,208.308,281.96z"/>
		<path fill="#362F36" d="M241.286,410.027c-0.037-0.459-0.305-0.695-0.584-0.76c-0.053-0.016-6.02-0.977-8.633-2.52
			c-0.751-0.445-1.18,0.359-1.173,0.936c0.057,5.088,0.575,10.08-0.071,15.135c-0.06,0.441,0.278,1.145,0.822,1.166
			c3.284,0.107,6.025,2.164,9.29,2.439c0.583,0.043,0.979-0.678,0.771-1.607C241.093,419.779,241.716,415.068,241.286,410.027z
			 M232.13,422.412c0.472-4.66-0.041-9.303-0.145-13.977c2.53,1.424,5.339,1.998,8.074,2.334c0.312,4.643-0.135,9.285,0.306,13.91
			C237.569,424.203,234.962,422.686,232.13,422.412z M249.149,406.113c-0.291-0.219-4.333,2.066-5.955,3.207
			c-0.369,0.262-0.355,0.934-0.333,1.355c0.202,4.859,0.416,9.146,0.442,13.854c0,0.488,0.326,1.486,1.233,1.051
			c1.743-0.832,5.3-3.91,5.336-4.441c0.359-4.656-0.314-8.857-0.284-13.67C249.589,407.006,249.454,406.264,249.149,406.113z
			 M248.824,420.396c-1.246,1.363-2.697,2.748-4.266,3.439c-0.041-4.461-0.489-8.969-0.514-13.428
			c1.284-0.865,2.832-1.543,4.169-2.246C248.358,412.227,249.04,416.324,248.824,420.396z M307.404,356.285
			c0.091-0.712-0.331-1.141-0.66-0.909c-0.098,0.013-1.429,1.2-2.396,2.314c-0.225,0.25-0.278,0.613-0.251,0.893
			c0.361,4.385-0.766,8.616-0.007,12.989c0.124,0.75,0.674,0.857,1.013,0.527c0.686-0.647,1.27-1.299,1.963-1.942
			c0.39-0.359,0.387-0.892,0.373-1.097c-0.27-2.427-0.299-4.887-0.146-7.331C307.424,359.731,307.237,357.716,307.404,356.285z
			 M306.328,369.024c-0.345,0.322-0.864,0.772-1.187,1.132c-0.429-3.755,0.057-7.759,0.03-11.549
			c0.298-0.36,0.852-0.608,1.156-0.951c0.058,1.607,0.09,3.309-0.021,4.921C306.163,364.747,306.107,366.864,306.328,369.024z
			 M308.819,351.063c1.413-5.41-11.319-11.446-15.73-13.754c-15.777-8.248-72.175-12.912-75.071-12.879
			c0.015-0.037-1.042-31.176-0.91-42.023c0.134-12.074-3.309-61.919-4.167-74.822c-0.979-14.812-4.69-33.806-4.717-33.868
			c-0.134-1.127-0.888-1.858-1.658-2.33c-2.421-1.484-8.511-0.641-9.607,0.063c-0.241,0.147-0.526,1.442-0.506,1.71
			c-9.874-2.465-20.792-1.37-30.772-2.737c-6.214-0.856-13.059-2.187-19.274-2.901c-7.319-0.829-21.411-2.691-21.515-2.507
			c-1.9-2.148-3.955-4.317-6.536-5.354c-6.545-2.634-9.951,2.525-9.305,8.648c0.513,4.835,4.049,9.499,7.927,8.878
			c3.613,5.955,16.347,62.27,17.852,72.312c1.77,11.873,9.794,55.36,10.042,65.886c0.112,4.791,3.443,29.532,3.476,29.601
			c0.215,6.919,1.063,13.889,1.375,20.86c-1.555,3.704,0.469,5.081,1.357,6.129c0.013,0.026,0.013,2.4,0.104,2.967
			c-0.171,0.129-0.298,0.339-0.285,0.66c0.104,19.686,0.918,45.851,0.388,61.124c-0.506,14.469-3.077,39.889-5.249,57.525
			c-0.05,0.416-0.021,1.191,0.824,1.166c2.42-0.068,4.857-0.369,7.254,0.24c0.432,0.115,0.737-0.121,0.992-1.115
			c2.899-11.369,10.806-75.461,11.031-92.668c4.089,2.277,20.091,9.693,38.609,14.752c1.129,9.58-0.278,30.393-0.053,30.711
			c0.811,1.096,1.766,2.34,2.219,3.018c0.901,1.354,6.24-0.686,6.291-1.08c0.495-4.313,2.397-24.268,2.427-29.885
			c4.484,1.086,8.959,2.156,13.407,3.48c0.033,0.01,0.157,1.836,0.171,2.75c0,0.521,0.328,0.787,0.646,0.779
			c0.033,0.008,0.061,0.025,0.091,0.025c0.955,0.021,1.87,0.283,2.758,0.617c-0.006,1.5-0.006,2.938,0.617,4.27
			c0.091,0.186,0.201,0.279,0.322,0.336c0.04,0.059,0.093,0.119,0.124,0.176c-0.071,0.115-0.104,0.252-0.104,0.432v7.52
			c-3.463,2.434-1.512,8.008-0.223,8.496c0.195,17.924,1.305,61.971,1.261,66.195c-0.033,2.805-0.069,5.484,0.318,8.172
			c-1.622,1.766-1.608,5.256-1.072,7.631c-3.435,3.588-0.874,9.207-0.327,10.545c0.887,2.15,1.982,7.291,2.033,7.605
			c0.346,2.092,6.7,3.287,7.408-0.291c0.248-1.213,0.24-2.561,0.52-3.748c0.442-1.902,1.096-2.996,1.686-4.75
			c0.948-2.787,1.193-5.357-0.252-8.162c0.882-5.459-0.858-7.762-0.928-7.826c0.124-3.885,1.469-34.08,1.863-45.299
			c0.349-9.908,1.938-20.195,1.388-30.104c2.139-1.256,1.764-7.59-0.235-8.217c-0.032-2.453-0.167-7.768-0.264-7.9
			c2.471-1.273,1.465-4.676,1.341-4.805c1.095-1.115,1.913-2.615,2.885-3.705c0.379-0.428,0.249-1.105,0.269-1.303
			c0.131-1.174,0.174-2.34,0.208-3.512c16.792-6.828,30.934-19.503,43.522-34.546c0.014,0.24,0.034,0.473,0.061,0.707
			c-0.726,0.211-2.232,4.086-0.171,6.319c1.415,10.584,0.034,22.615-0.043,33.389c-0.061,8.316-0.345,18.07,0.744,26.387
			c-1.354,0.762-1.68,2.949-1.284,4.736c0,0.008-0.007,0.008-0.021,0.008c-1.041,1.217-1.367,2.967-1.081,4.715
			c0.512,3.146,2.211,5.547,1.963,8.883c-0.308,4.029,3.433,3.354,5.608,2.479c0.626-0.258,1.029-1.098,1.056-1.561
			c0.346-4.578,3.349-8.865,0.966-13.178c0.982-1.826,1.206-5.221-0.493-6.121c1.025-19.986,2.684-39.311,2.905-59.362
			c2.239-0.181,3.258-6.011,0.479-6.954c0.118-2.093-0.104-6.276-0.194-6.4c1.046-0.823,1.163-2.452,1.109-4.157
			c0.871-0.896,1.699-1.848,2.363-2.98c0.714-1.2,0.006-8.778,0.265-12.71C309.466,356.01,309.921,353.241,308.819,351.063z
			 M216.205,324.552c-2.122,0.094-4.251,0.39-6.332,1.059c0.104-0.917,0.084-1.82-0.09-2.724c2.122-0.215,4.253-0.425,6.388-0.644
			C216.171,322.243,216.191,324.488,216.205,324.552z M206.608,174.608c1.281,12.093,4.016,23.764,4.563,35.997
			c0.556,12.165,4.038,57.05,4.001,67.486c-0.06,12.265,0.222,24.293,0.715,36.519v6.047c-12.805,1.275-24.884,2.823-37.383,6.981
			c-7.284,2.429-15.328,6.523-19.869,14.5c0.047-1.327-0.007-3.703,0.254-3.89c8.232-5.91,14.504-11.152,25.414-13.928
			c10.002-2.553,19.051-2.935,29.104-4.655c0.52-0.088,1.045-0.676,1.019-2.024c0.65-8.262,0.701-13.46,0.269-20.705
			c-0.5-8.467-0.781-16.136-0.728-24.677c0.07-13.12-7.019-86.694-7.311-89.464c-0.345-3.217-1.013-6.361-1.796-9.454
			C205.56,173.607,206.17,174.003,206.608,174.608z M208.557,326.071c-0.059,0.021-1.622,0.544-2.2,0.769
			c-0.15-1.174-0.234-2.346-0.248-3.536c0.799-0.09,1.586-0.191,2.384-0.287C208.7,323.941,208.557,325.974,208.557,326.071z
			 M205.13,327.323c-6.727,2.411-13.919,3.243-20.647,5.833c-7.562,2.918-15.565,6.84-22.014,12.762
			c-0.168-2.015-0.436-4.012-0.728-5.99c5.91-7.456,15.342-10.302,23.087-12.605c6.66-1.979,13.317-3.065,20.018-3.868
			C204.865,324.753,204.976,326.043,205.13,327.323z M159.841,352.539c-0.167-2.89-0.673-5.72-0.681-8.617
			c0.462-0.892,1.297-1.856,1.844-2.655c0.368,2.621,0.874,5.622,0.895,8.28C161.905,349.803,160.256,351.942,159.841,352.539z
			 M199.222,172.973c5.493,17.057,12.687,92.515,10.373,138.487c-9.77,0.607-20.013,2.973-29.476,5.909
			c-6.505,2.014-14.989,4.218-20.197,10.284c-0.081-0.558-0.178-1.235-0.165-1.829c14.738-10.543,30.746-12.905,47.281-15.371
			c1.089-0.165,1.783-0.19,1.699-0.979c-0.688-6.758,1.914-75.638-10.016-136.472C198.88,172.992,199.061,172.983,199.222,172.973z
			 M158.474,312.711c-0.396-3.329-0.805-6.643-1.24-9.952c0.761-0.077,0.754-1.62-0.051-1.62c-0.063,0-0.104,0.028-0.161,0.045
			c-1.421-10.783-10.216-60.021-12.703-73.724c0.083,0.277,0.275,0.493,0.56,0.493c0.828,0,0.828-1.628,0-1.628
			c-0.469,0-0.657,0.541-0.59,0.996c-0.274-1.555-0.54-3.115-0.825-4.665c0.027-0.128,0.034-0.272-0.013-0.429
			c-0.396-1.502-0.764-3.075-1.129-4.675c0.09,0.05,0.187,0.097,0.305,0.097c0.811,0,0.811-1.623,0-1.623
			c-0.272,0-0.453,0.19-0.543,0.435c-0.694-3.157-1.364-6.454-2.044-9.845c0.02,0,0.026,0.01,0.04,0.01c0.822,0,0.822-1.625,0-1.625
			c-0.138,0-0.248,0.056-0.338,0.14c-0.618-3.051-1.25-6.139-1.941-9.203c0.691-0.172,0.657-1.6-0.12-1.6
			c-0.087,0-0.158,0.029-0.235,0.061c-1.712-7.356-3.807-14.535-6.81-20.624c22.896,0.703,45.664,7.283,68.574,8.084
			c1.796,7.795,9.492,71.105,8.141,126.897c-1.815,0.29-3.626,0.59-5.443,0.899c0.248-0.485,0.081-1.284-0.499-1.284
			c-0.647,0-0.777,1.02-0.389,1.437c-1.833,0.319-3.663,0.653-5.5,0.998c0.292-0.462,0.137-1.353-0.466-1.353
			c-0.694,0-0.797,1.139-0.325,1.507c-1.88,0.367-3.754,0.752-5.63,1.188c0.375-0.436,0.241-1.424-0.409-1.424
			c-0.737,0-0.805,1.318-0.194,1.573c-1.528,0.354-3.054,0.712-4.566,1.128c0.034-0.432-0.164-0.899-0.609-0.899
			c-0.554,0-0.721,0.733-0.527,1.207c-1.324,0.386-2.651,0.78-3.962,1.216c0.063-0.455-0.131-0.973-0.589-0.973
			c-0.604,0-0.769,0.866-0.477,1.333c-1.159,0.399-2.313,0.799-3.455,1.254c0.057-0.455-0.131-0.965-0.597-0.965
			c-0.63,0-0.767,0.952-0.449,1.391c-0.926,0.38-1.867,0.754-2.789,1.17c0.137-0.48-0.057-1.114-0.577-1.114
			c-0.701,0-0.791,1.179-0.305,1.523c-0.771,0.367-1.562,0.697-2.33,1.094c-0.007-0.406-0.208-0.813-0.624-0.813
			c-0.613,0-0.758,0.92-0.452,1.378c-1.11,0.592-2.226,1.209-3.315,1.882c-0.034-0.378-0.229-0.728-0.61-0.728
			c-0.617,0-0.765,0.937-0.439,1.39c-0.727,0.463-1.469,0.93-2.182,1.438c0.021-0.415-0.654-7.147-0.979-9.93
			C159.251,314.031,159.194,312.744,158.474,312.711z M180.508,173.65c5.735,0.178,11.722-0.174,17.332,1.505
			c0.333,1.687,0.681,3.372,1.026,5.072c-23.074-0.877-46.017-7.55-69.088-8.118c-1.123-2.079-2.37-4.006-3.757-5.746
			C138.041,166.676,158.538,172.965,180.508,173.65z M142.009,221.797c0,0.015,0,0.035,0,0.049
			c2.953,15.996,6.499,36.15,8.792,48.169c3.814,20.023,6.23,39.65,7.555,51.789c0.469,4.282,0.208,5.322,0.922,7.433
			c0.137,0.376,0.861,0.523,0.978,0.358c5.39-7.195,15.647-9.25,22.997-11.527c8.504-2.637,18.297-4.499,26.988-4.954
			c0.631-0.032,0.688-1.461,0.741-2.072c1.401-14.687-1.712-106.858-10.471-138.131c0.949-0.045,1.967-0.049,2.926,0.09
			c0.948,3.592,9.167,72.864,9.482,98.778c0.074,5.561,0.463,14.108,0.688,21.459c0.261,8.053,1.045,15.842-0.107,23.514
			c-0.075,0.454-0.095,1.365-0.887,1.425c-9.904,1.655-18.83,1.903-28.654,4.579c-9.613,2.608-16.816,8.012-25.229,14.054
			c-0.03,0.031-0.044,0.054-0.064,0.074c-0.154-7.954-1.129-16.054-1.951-23.837c-0.956-9.044-16.38-97.805-21.811-117.893
			c-1.706-6.326-4.085-12.413-5.986-18.637c-0.901-2.942-2.128-6.093-3.717-8.871C135.601,180.828,137.709,204.834,142.009,221.797z
			 M139.261,252.859c-2.35-11.542-10.749-53.321-12.948-61.742c-1.22-4.625-2.406-12.397-5.487-15.866
			c0.999-1.466,1.207-3.18,1.24-5.015c3.456,6.71,5.621,14.573,7.81,22.049c2.269,7.762,11.135,46.557,12.693,57.555
			c1.596,11.292,12.311,71.84,12.756,89.84c-1.347,0.005-2.684-0.068-4.019-0.111C151.163,322.279,141.399,263.4,139.261,252.859z
			 M110.452,169.04c-0.979-3.667,2.829-8.657,6.312-7.493c1.705,0.572,3.709,2.158,4.3,7.02c0.034,2.089,0.235,4.576-1.756,6.145
			C115.888,177.397,111.561,173.213,110.452,169.04z M146.604,316.925c-0.234-10.505-7.571-51.384-8.919-61.308
			c-1.76-12.948-11.587-54.099-13.507-61.738c-1.444-5.774-2.4-12.16-5.175-17.16c0.264-0.135,0.525-0.311,0.791-0.495
			c3.667,3.888,5.286,15.09,6.637,20.675c1.645,6.776,9.314,41.773,10.937,52.417c1.816,11.928,12.609,73.156,12.707,90.211
			c-0.047,1.07-0.054,1.633,0.506,1.644c1.934,0.021,3.177,0.304,5.125,0.2c0.737-0.042,0.972-0.137,0.902-1.646
			c-0.463-18.434-10.437-76.68-12.294-86.887c-2.23-12.272-10.384-51.104-12.312-57.858c-2.602-9.131-5.635-21.243-10.344-27.458
			c-0.124-1.226-0.372-2.419-0.767-3.528c5.248,4.887,7.143,15.02,9.613,21.953c2.996,8.422,5.39,17.884,7.109,26.709
			c1.752,8.922,16.554,89.214,17.49,97.134c1.25,10.708,2.742,22.271,2.309,33.102c-0.007,0.185-5.339,1.029-8.011,0.994
			C148.224,338.531,146.682,320.657,146.604,316.925z M149.671,345.524c2.742,0.036,5.631,0.21,8.249-0.895
			c0.094,3.021,0.741,9.272,0.781,9.375c-1.18,1.423-6.476,8.162-7.797,10.289C150.71,361.278,149.809,347.098,149.671,345.524z
			 M161.762,352.144c0.754-1.149,1.407-1.681,1.559-2.349c0.201-0.892,0-1.643-0.191-2.491c6.482-5.937,14.188-9.326,21.692-12.578
			c7.441-3.226,17.916-4.029,24.24-6.767c4.321-1.867,11.028-1.404,17.055-0.881c7.075,0.598,52.318,5.986,66.402,12.942
			c3.976,1.961,15.029,8.612,13.028,11.167c-4.025,5.157-8.205,10.76-11.369,14.185c-10.86,11.771-28.664,21.463-34.929,24.64
			c-4.951,2.504-12.2,7.818-13.74,9.158c-1.439,1.26-3.854,1.156-6.9,0c-7.783-2.958-16.063-4.33-23.995-6.483
			c-8.413-2.28-22.183-7.321-30.311-8.564c-8.56-1.304-19.766-7.871-31.433-13.555C148.964,368.665,154.028,360.734,161.762,352.144
			z M300.135,378.001c0.245-0.316,0.506-0.639,0.744-0.951c0.06,0.013,2.517,0.034,2.517,0.034c0.325,0,1.448-1.239,1.86-1.603
			C304.643,377.796,302.105,378.259,300.135,378.001z M304.498,384.724c-0.026,0.024-0.046,0.034-0.07,0.06
			c-1.571,1.972-6.499,1.916-8.064-0.095c-0.057-0.625-0.063-1.256-0.063-1.895c0.908-1.114,1.823-2.238,2.719-3.369
			c1.645,0.402,3.754,0.326,5.343-0.617C304.414,380.788,304.659,382.76,304.498,384.724z M295.637,381.354
			c2.396-2.97,4.611-6.036,6.636-9.173c0.026,0.132,0.131,0.96,0.15,1.012C300.218,376.124,297.952,378.542,295.637,381.354z
			 M158.641,458.287c-1.569,13.791-1.93,24.316-4.726,35.713c-2.175-0.445-4.354-0.273-6.539-0.227
			c2.121-17.322,4.538-33.5,5.584-59.461c0.757-18.928-0.646-38.126-0.778-57.079c0.091,0.1,0.195,0.197,0.305,0.287
			c0.008,2.016,0.447,7.211,0.46,11.202c0.013,2.431,0.694,3.79,1.095,4.531c1.784,3.231,4.626,4.96,7.585,6.627
			C161.503,419.402,160.86,438.975,158.641,458.287z M164.882,401.219c-0.124,12.361-1.233,24.451-2.795,36.5
			c0.797-12.426,1.303-24.881,1.4-37.341c0.473,0.275,0.945,0.541,1.388,0.824h0.006
			C164.882,401.201,164.882,401.209,164.882,401.219z M207.102,448.502c-0.446-0.559-0.805-1.244-1.204-1.871
			c0-9.717,1.153-20.01,0.148-29.646c0.617,0.172,1.24,0.322,1.86,0.488C207.939,427.834,207.453,438.145,207.102,448.502z
			 M213.315,431.723c-0.543,5.486-0.708,10.99-1.32,16.469c-1.19,0.434-2.4,0.686-3.634,0.789
			c0.349-10.412,0.839-20.773,0.818-31.189c1.72,0.445,3.449,0.865,5.183,1.285C214.362,423.363,213.738,427.488,213.315,431.723z
			 M202.244,414.25c-7.387-2.285-32.126-11.584-36.726-14.462c-3.399-2.126-12.144-5.333-11.52-11.001
			c3.56,4.188,7.602,7.092,12.042,9.611c4.362,2.471,46.269,18.57,62.928,20.843c0.02,0.658,0.061,1.32,0.09,1.975
			C220.173,418.588,211.144,417.02,202.244,414.25z M228.734,416.951c-16.461-2.246-56.8-17.781-60.602-20.221
			c-4.555-2.924-9.264-3.913-13.001-8.535c-0.083-0.106-1.29-6.585-1.341-9.165c2.97,3.451,16.223,11.711,24.796,13.482
			c17.541,3.626,33.27,12.245,50.492,14.651C229.15,409.791,228.717,416.102,228.734,416.951z M235.509,524.916
			c1.102,3.354,6.076,2.758,8.087,0.867c0.479,1.604,0.553,3.643,0.174,5.221c-2.645,1.037-6.978,1.305-8.138-0.119
			C234.352,529.363,234.891,527.043,235.509,524.916z M243.124,541.357c-0.993,2.023-1.268,5.572-1.312,5.641
			c-1.595,2.059-3.807,1.266-5.279-0.295c-0.268-1.291-0.247-2.648-0.649-3.918c-0.396-1.227-1.013-2.301-1.4-3.533
			c-0.598-1.885-1.345-5.385,0.032-7.064c0.118,0.215,2.742,3.867,9.573,0.621C245.055,535.813,244.471,538.617,243.124,541.357z
			 M244.686,478.342c-0.966,10.863-0.737,22.334-1.153,33.277c0,0.018-0.021,0.035-0.021,0.064
			c-0.04,4.316-0.656,8.578-0.728,12.891c-1.354,1.291-5.161,1.342-6.214-0.527c-0.862-3.631-0.627-7.273-0.583-11.012
			c0.047-3.43-1.025-45.947-1.25-63.785c3.385,2.338,7.88,1.754,11.369-0.234C246.556,458.514,245.509,468.963,244.686,478.342z
			 M246.931,442.139c0.745,1.492,0.681,3.586-0.372,4.857c-3.526,3.592-11.731,1.482-12.555-0.107
			c-0.973-1.865-0.839-4.324,0.146-5.281C235.746,446.684,245.757,445.641,246.931,442.139z M234.932,433.137
			c2.788,2.084,7.964,1.105,10.813-0.279c0.013,2.809,0.084,5.613,0.098,8.416c-1.87,2.648-10.063,3-10.931-1.209
			C234.858,439.82,234.932,433.137,234.932,433.137z M246.243,431.148c-3.418,1.646-8.529,1.689-11.332,0.133
			c-1.156-0.639-0.955-2.748-0.935-3.695c0.563,0.262,6.512,2.525,8.945,3.014c0.278,0.055,3.074-1.342,4.177-2.264
			C247.056,429.352,247.059,430.75,246.243,431.148z M242.845,428.936c-2.303-0.475-4.604-1.105-6.811-2.1
			c-1.857-0.832-3.626-1.775-5.58-1.973c-0.058-3.275-0.252-6.541-0.292-9.816c-0.038-3.275,0.292-6.447,0.04-9.691
			c3.671,0.836,7.31,1.83,10.923,3.012c0.514,0.172,1.361,0.67,2.505-0.008c0.525-0.316,4.716-2.189,6.459-3.951
			c-0.271,5.83,1.024,12.07,0.267,17.863C250.252,423.072,246.626,428.023,242.845,428.936z M250.4,402.006
			c-3.845,2.65-3.393,2.783-5.729,4.168c-1.722,1.012-2.613,0.779-3.21,0.625c-3.808-0.934-7.528-2.264-11.343-3.111
			c-1.435-0.129-1.184,1.594-1.156,1.826c-7.173-1.012-23.215-6.384-34.507-9.735c-7.803-2.318-13.511-4.067-19.732-5.619
			c-5.021-1.243-17.506-9.184-21.257-13.324c-0.472-0.51-1.039-0.904-1.219-1.406c-0.486-1.328,0.137-2.632,0.137-2.674v-0.073
			c11.265,6.819,23.895,12.719,36.414,15.063c3.479,0.647,17.54,5.27,25.993,7.602c8.049,2.211,16.723,2.803,24.525,6.114
			c0.154,0.063,3.393,2.227,7.167-1.22c4.993-4.56,9.264-6.164,14.627-9.267c5.526-3.177,11.649-6.619,17.014-10.237
			c2.563-1.724,7.233-4.732,10.327-7.245c0.083,0.271,0.271,0.484,0.565,0.484c0.61,0,0.764-0.887,0.474-1.35
			c0.486-0.42,0.985-0.866,1.472-1.304c0.046,0.353,0.24,0.661,0.596,0.661c0.688,0,0.791-1.124,0.332-1.488
			c0.492-0.468,0.985-0.974,1.478-1.471c0.104,0.15,0.248,0.258,0.456,0.258c0.55,0,0.725-0.754,0.517-1.238
			c0.456-0.485,0.914-0.979,1.377-1.471c0.104,0.197,0.259,0.348,0.507,0.348c0.62,0,0.771-0.918,0.446-1.381
			c1.87-2.002,3.724-4.051,5.54-6.151C289.976,382.31,268.427,389.593,250.4,402.006z M251.563,417.07
			c-0.007-0.408-0.021-0.818-0.026-1.217c15.752-7.648,28.67-16.88,40.357-30.054C280.127,399.34,266.884,410.752,251.563,417.07z
			 M251.62,413.242c-0.007,0-0.124,1.025-0.124,1.025c-0.118-3.713-0.362-7.1-0.057-10.816
			c17.271-12.667,38.187-19.825,50.632-41.054c-0.214,2.495-0.305,7.48-0.271,7.584C289.637,389.207,269.881,405.33,251.62,413.242z
			 M296.052,452.428c1.816,2.092,4.742,1.715,5.832,0.406c0.553,1.168,0.714,2.26,0.02,3.455c-1.226,2.119-6.188,0.279-6.311-0.582
			C295.247,454.652,295.302,452.998,296.052,452.428z M300.781,470.105c-0.895,0.631-4.155,1.689-4.17-0.578
			c-0.014-1.992-0.416-3.943-0.948-5.621c-0.641-2.006-1.938-4.611-0.646-6.574c3.331,2.473,5.661,1.453,6.867,0.832
			C303.721,461.598,301.294,466.416,300.781,470.105z M300.976,451.014c-1.382,0.754-3.301,1.271-4.079-0.24
			c-1.26-9.406-0.754-20.834-0.674-30.279c0.077-9.416,1.126-19.816,0.03-29.152c2.246,0.197,4.509,1.673,6.797,0.626
			C302.785,411.75,301.975,431.32,300.976,451.014z M305.373,389.626c-2.024,1.99-6.929,0.438-9.255,0.267
			c-1.669-0.472-0.928-3.262-0.422-3.652c2.192,2.269,7.478,2.088,9.605-0.18C306.114,386.353,306.15,388.86,305.373,389.626z
			 M308.071,370.358c-0.148,0.677-2.92,3.373-4.538,4.582c-0.457-5.916-0.098-16.864-0.171-17.027
			c1.44-1.697,3.196-3.699,4.574-5.431c0.759,2.208,0.084,5.243,0.015,7.532C307.84,363.469,308.806,367.011,308.071,370.358z
			 M133.298,175.004c-0.822,0-0.822,1.625,0,1.625C134.116,176.629,134.116,175.004,133.298,175.004z M138.104,175.004
			c-0.821,0-0.821,1.625,0,1.625C138.929,176.629,138.929,175.004,138.104,175.004z M142.904,175.545c-0.814,0-0.814,1.622,0,1.622
			C143.722,177.167,143.722,175.545,142.904,175.545z M146.862,176.091c-0.818,0-0.818,1.625,0,1.625
			C147.693,177.716,147.693,176.091,146.862,176.091z M150.817,176.091c-0.815,0-0.815,1.625,0,1.625
			C151.642,177.716,151.642,176.091,150.817,176.091z M146.862,236.265c-0.818,0-0.818,1.631,0,1.631
			C147.693,237.896,147.693,236.265,146.862,236.265z M149.41,248.377c-0.821,0-0.821,1.619,0,1.619
			C150.228,249.996,150.228,248.377,149.41,248.377z M151.1,258.672c-0.818,0-0.818,1.627,0,1.627
			C151.92,260.299,151.92,258.672,151.1,258.672z M153.224,269.336c-0.821,0-0.821,1.633,0,1.633
			C154.042,270.969,154.042,269.336,153.224,269.336z M154.917,280.541c-0.822,0-0.822,1.629,0,1.629
			C155.735,282.17,155.735,280.541,154.917,280.541z M156.476,290.842c-0.825,0-0.825,1.627,0,1.627
			C157.293,292.469,157.293,290.842,156.476,290.842z M245.633,401.986c-0.816,0-0.816,1.619,0,1.619
			C246.459,403.605,246.459,401.986,245.633,401.986z M250.156,398.192c-0.818,0-0.818,1.621,0,1.621
			C250.977,399.813,250.977,398.192,250.156,398.192z M254.67,395.304c-0.812,0-0.812,1.619,0,1.619
			C255.498,396.923,255.498,395.304,254.67,395.304z M260.046,392.593c-0.817,0-0.817,1.621,0,1.621
			C260.864,394.214,260.864,392.593,260.046,392.593z M265.561,389.155c-0.824,0-0.824,1.629,0,1.629
			C266.378,390.784,266.378,389.155,265.561,389.155z M270.36,386.253c-0.817,0-0.817,1.639,0,1.639
			C271.185,387.892,271.185,386.253,270.36,386.253z M275.029,383.368c-0.818,0-0.818,1.629,0,1.629
			C275.84,384.997,275.84,383.368,275.029,383.368z M279.403,380.479c-0.818,0-0.818,1.629,0,1.629
			C280.225,382.108,280.225,380.479,279.403,380.479z M282.802,377.95c-0.823,0-0.823,1.62,0,1.62
			C283.613,379.57,283.613,377.95,282.802,377.95z M286.187,375.421c-0.817,0-0.817,1.629,0,1.629
			C287.012,377.05,287.012,375.421,286.187,375.421z M238.991,403.25c-0.818,0-0.818,1.625,0,1.625
			C239.814,404.875,239.814,403.25,238.991,403.25z M231.647,401.086c-0.822,0-0.822,1.623,0,1.623
			C232.465,402.709,232.465,401.086,231.647,401.086z M224.307,399.452c-0.832,0-0.832,1.634,0,1.634
			C225.124,401.086,225.124,399.452,224.307,399.452z M216.108,397.283c-0.825,0-0.825,1.629,0,1.629
			C216.922,398.913,216.922,397.283,216.108,397.283z M208.613,395.118c-0.821,0-0.821,1.625,0,1.625
			C209.438,396.743,209.438,395.118,208.613,395.118z M193.915,390.965c-0.818,0-0.818,1.628,0,1.628
			C194.739,392.593,194.739,390.965,193.915,390.965z M186.716,388.616c-0.825,0-0.825,1.625,0,1.625
			C187.526,390.241,187.526,388.616,186.716,388.616z M180.072,387.167c-0.821,0-0.821,1.628,0,1.628
			C180.891,388.795,180.891,387.167,180.072,387.167z M173.71,385.357c-0.818,0-0.818,1.629,0,1.629
			C174.535,386.986,174.535,385.357,173.71,385.357z M167.211,382.468c-0.818,0-0.818,1.629,0,1.629
			S168.029,382.468,167.211,382.468z M161.845,380.119c-0.821,0-0.821,1.624,0,1.624
			C162.663,381.743,162.663,380.119,161.845,380.119z M158.024,378.31c-0.815,0-0.815,1.634,0,1.634
			C158.849,379.943,158.849,378.31,158.024,378.31z M154.499,374.872c-0.818,0-0.818,1.625,0,1.625S155.316,374.872,154.499,374.872
			z M154.917,176.629c-0.822,0-0.822,1.629,0,1.629C155.735,178.258,155.735,176.629,154.917,176.629z M159.16,177.309
			c-0.818,0-0.818,1.629,0,1.629S159.978,177.309,159.16,177.309z M164.031,179.474c0.817,0,0.817-1.627,0-1.627
			C163.216,177.847,163.216,179.474,164.031,179.474z M168.904,180.43c0.824,0,0.824-1.634,0-1.634
			C168.094,178.796,168.094,180.43,168.904,180.43z M173.676,180.967c0.818,0,0.818-1.626,0-1.626
			C172.853,179.341,172.853,180.967,173.676,180.967z M178.336,181.782c0.822,0,0.822-1.629,0-1.629
			C177.518,180.153,177.518,181.782,178.336,181.782z M182.998,182.461c0.825,0,0.825-1.626,0-1.626
			C182.187,180.835,182.187,182.461,182.998,182.461z M187.131,183.001c0.824,0,0.824-1.629,0-1.629
			C186.313,181.373,186.313,183.001,187.131,183.001z M191.475,183.54c0.825,0,0.825-1.63,0-1.63
			C190.661,181.91,190.661,183.54,191.475,183.54z M196.245,183.812c0.831,0,0.831-1.622,0-1.622
			C195.434,182.189,195.434,183.812,196.245,183.812z"/>
	</g>
	<g>
		<path fill="#4B5059" d="M649.029,166.092c-6.119-24.799-20.473-29.994-35.021-23.697c-1.629,0.244-3.224,0.604-4.746,1.16
			c-6.066,2.218-13.867-5.227-20.273-5.606c-5.559-0.328-10.824,5.132-16.069,8.102c-7.2-4.201-16.298,0.538-25.173,3.893
			c-14.204,5.367-20.412,20.3-18.085,39.374c1.629,13.339,5.362,25.492,9.048,38.074c3.725,12.719,3.367,26.877,3.447,40.737
			c-7.649,13.29-4.225,46.135,1.36,57.409c1.622,3.267,5.92,4.785,8.084,1.329c3.651-5.8,4.569-12.475,4.513-19.404
			c3.396,1.61,7.297,2.103,11.733,1.177c3.34-0.696,6.084-2.176,8.364-4.184c0.14-0.098,0.293-0.16,0.432-0.266
			c1.84-1.431,2.959-2.653,3.973-3.44c1.4-0.073,2.901,0.105,4.592,0.743c6.539,2.48,14.469,3.94,21.166,5.854
			c4.256,1.162,8.489,2.424,12.707,3.788c0.123,2.34,0.325,4.925,1.09,7.09c1.91,5.375,2.595,6.477,6.763,8.385
			c1.653,0.759,3.842-0.085,5.012-1.688c5.621-7.682,11.888-39.72,5.573-50.076c1.271-20.536,0.664-39.529,6.557-59.782
			C649.033,198.018,653.478,184.099,649.029,166.092z M584.312,153.821c4.965-3.762,7.854-2.804,10.404-0.724
			c-4.219,2.777-9.281,5.328-12.921,2.483C582.627,155.02,583.437,154.481,584.312,153.821z M574.436,286.905
			c-0.856,0.311-1.71,0.619-2.468,1.089c-9.969,6.158-12.488-5.886-16.488-15.542c2.243-16.973,2.8-34.806-3.069-50.502
			c-4.94-13.206-8.697-25.1-8.544-39.965c0.114-11.551,24.028-35.042,25.823-9.59c0.395,5.666-2.099,13.375-3.235,18.939
			c-0.215,1.05-0.237,2.019-0.114,2.9c-0.113,0.663-0.185,1.361-0.288,2.03c-0.083,0.567-0.234,1.093-0.291,1.676
			c-0.036,0.369-0.068,0.737-0.102,1.106c-0.17,1.235-0.382,2.435-0.522,3.697c-1.374,12.005,0.52,21.563,5.979,30.571
			c-1.79,3.644-2.595,8.205-1.958,13.461c1.352,11.161,5.457,21.046,6.221,32.451C575.582,282.245,575.215,284.77,574.436,286.905z
			 M590.31,253.004c-1.076,4.148-2.702,9-3.434,13.681c-0.737-1.755-0.555-4.037-0.361-8.516c0.12-2.839-0.583-5.808-1.173-8.485
			c-0.209-0.961-0.416-1.691-0.609-2.329c2.331,0.907,4.662,1.454,7.004,1.745C591.188,250.279,590.691,251.541,590.31,253.004z
			 M594.094,219.887c-0.543,0.853-0.883,1.756-1.063,2.664c-0.014,0.041-0.034,0.066-0.04,0.105
			c-0.442,2.03-0.621,4.025-0.604,6.029c-0.47,0.253-0.958,0.455-1.46,0.589c-0.829-3.086-2.888-5.404-6.354-5.179
			c-0.151,0.008-0.291,0.049-0.438,0.064c-0.147-0.501-0.328-0.994-0.55-1.479c-1.832-4.004-6.79-5.423-7.958-9.767
			c-0.549-2.056-0.81-4.047-0.867-5.978c0.259-3.528,1.001-7.035,1.957-10.541c1.603-3.979,4.02-7.556,6.72-10.69
			c0.752-0.28,1.502-0.722,2.203-1.502c0.319-0.354,0.74-0.555,1.203-0.692c3.091,2.373,6.081,4.898,8.595,8.312
			C601.594,200.189,599.067,212.025,594.094,219.887z M602.907,254.897c1.778-2.266,3.745-4.03,5.633-4.984
			c5.509-2.781,4.508-12.076-1.349-12.926c2.059-3.872,1.851-8.273,0.358-11.892c7.559-18.729,7.74-39.833-4.643-54.824
			c0.102-0.544,0.203-1.091,0.31-1.635c0.335-1.659,0.834-3.184,1.334-4.702c1.397-1.325,2.835-2.439,4.28-3.434
			c8.722,2.077,23.252,8.494,25.103,15.881c3.727,14.888-4.469,31.668-9.309,44.582c-7.344,19.605-8.612,38.888-6.116,60.202
			c0.119,1.004,0.37,1.828,0.71,2.501C605.904,294.745,599.482,273.176,602.907,254.897z"/>
		<path fill="#4B5059" d="M662.628,517.105c-3.929-9.475-6.546-11.756-7.013-23.92c-1.137-29.717,11.166-60.453,9.805-89.621
			c2.821-8.916-2.32-25.839-1.615-32.699c0.479-4.707-3.627-6.876-6.521-6.353c-3.126,0.574-5.849,2.88-8.938,3.395
			c-1.514,0.24-2.932,0.352-4.352,0.575c-8.694-2.135-17.118,0.206-25.734,6.113c-0.095,0.026-0.168,0.043-0.27,0.069
			c-6.971,1.809-11.517,1.227-18.033-2.1c-11.539-5.899-20.348,1.019-31.889,2.22c-0.466-0.205-0.936-0.394-1.377-0.651
			c-3.72-2.152-7.448-5.212-11.599-5.813c-8.661-1.261-18.3,3.413-26.808,0.977c-1.789-2.503-4.926-3.541-7.416-0.531
			c-12.379,14.995-5.354,32.578-4.684,52.066c0.966,27.984,12.958,54.246,11.759,83.035c-4.082,12.072-17.343,32.57-0.865,37.055
			c5.37,1.467,9.646-2.186,12.221-7.596c7.273-9.953,2.803-32.313,1.531-44.438c0.453-0.264,0.902-0.6,1.331-1.07l0.017-0.018
			c0.995,1.561,2.403,2.873,4.066,2.684c14.037-1.637,10.323-30.572,11.335-42.936c0.878-10.744,5.91-37.322,3.4-53.568
			c6.045,4.09,12.494,6.534,19.527,4.818c3.83-0.935,6.57-2.237,10.792-2.847c2.051-0.291,3.778-1.312,5.373-2.657
			c5.719,5.272,12.955,6.499,19.614,4.381c-0.129,12.191,0.775,24.221,1.751,36.471c1.267,15.836,0.358,31.74,2.004,47.559
			c0.361,3.506,2.064,6.652,5.148,6.584c11.489-0.258,9.398-13.459,6.572-23.766c-0.606-2.221-0.959-4.535-1.21-6.893
			c1.689-13.143,2.428-26.818,3.503-39.945c0.781-9.533,2.25-20.062,1.8-29.981c4.92,1.732,8.806,5.59,11.074,12.492
			c0.912,2.761,1.174,6.474,1.709,9.962c-1.162,24.246-4.94,48.398-7.417,72.439c-1.799,17.438-2.166,37.045,4.944,52.848
			c7.377,16.4,25.624-3.131,18.14-13.367C663.918,520.389,663.327,518.803,662.628,517.105z M539.181,471.957
			c-3.157-25.67-8.883-54.555,0.368-76.313C537.525,418.475,548.484,452.117,539.181,471.957z"/>
		<path fill="#82916B" d="M647.093,326.875c-20.474-11.266-40.974-20.431-63.453-19.876c-20.604,0.508-37.012,12.044-55.285,22.705
			c-9.094,5.303-17.842,19.882-11.685,33.325c0.469,1.021,0.982,1.938,1.528,2.778c0.051,1.938,0.717,3.875,2.286,5.256
			c4.293,3.789,10.304,9.173,15.978,7.244c4.608-1.56,14.832-6.258,17.795-5.453c4.485,1.208,8.822,5.281,13.595,4.93
			c3.848-0.291,7.527-1.955,11.182-3.464c5.933,0.352,12.368,1.021,18.297,0.171c8.64,4.03,16.284,5.187,25.51,2.358
			c12.4-3.815,35.493,1.732,43.37-15.458C674.041,344.296,656.631,332.122,647.093,326.875z"/>
		<path fill="#362F36" d="M581.701,154.966c2.192,1.384,4.532,3.762,7.119,3.774c0.047,0,0.476,0.04,0.671-0.119
			c1.856-1.492,4.158-3.305,6.161-4.479c0.585-0.346,0.069-1.417-0.45-1.977c-3.941-4.222-9.014-2.266-13.276,0.68
			C581.547,153.11,581.139,154.612,581.701,154.966z M593.43,153.562c-1.553,1.059-4.568,3.472-4.609,3.472
			c-1.891-0.008-3.268-1.547-4.874-2.754C587.342,152.63,590.153,151.241,593.43,153.562z M552.738,277.577
			c-1.881,14.485,6.526,18.97,14.811,16.481c10.593-3.179,13.718-15.56,8.525-29.862c-1.665-4.596-3.567-8.4-4.642-13.262
			c-0.8-3.592-1.145-7.853-0.638-11.767c0.886-6.834,3.904-12.767,8.319-13.317c2.845-0.354,5.322,0.155,6.1,3.31
			c1.035,4.158-1.81,8.333-5.105,7.611c-0.542-0.115-1.055,0.374-1.123,1.286c-0.415,6.083-0.149,10.138,1.851,15.572
			c1.818,4.932,3.132,9.336,3.186,14.846c0.016,2.075,0.505,6.528,1.574,6.483c0.898-0.043,1.415-0.579,2.125-1.186
			c0.958-0.825,2.179,0.649,3.141,0.877c0.54,0.122,0.889-0.155,0.849-1.116c-0.439-9.302-2.266-18.623,2.691-26.812
			c0.014-0.019,5.53-0.07,9.368-7.023c1.633-0.42,4.207,0.643,4.254,2.937c0.029,1.397-1.809,1.789-2.671,2.096
			c-0.97,0.354-1.955,0.783-2.873,1.361c-7.938,5.02-5.316,27.704-2.009,37.346c4.32,12.575,18.566,14.14,24.814,3.353
			c1.971-3.408,0.583-9.198-0.483-13.453c-1.746-6.939-2.559-17.291-0.21-24.31c2.445-7.302,2.952-24.641,8.02-35.299
			c4.62-9.71,11.521-48.799-3.843-52.541c-0.299-0.075-0.534,0.087-0.681,0.34c-3.132,2.433-6.037-3.943-11.442-4.503
			c-2.337-0.247-5.448,0.274-7.523,1.622c-5.361,3.49-9.066,6.938-7.042,18.065c-0.023,0.373,0.293,0.797,0.641,0.941
			c0.654,0.266,2.601-0.255,2.977,1.873c0.142,0.778-0.034,1.468-0.462,1.912c-0.424,0.433-0.343,1.426-0.114,1.774
			c3.948,5.953,4.622,13.433,5.138,20.988c0.828,12.025-3.45,17.492-5.146,19.827c-0.609-1.378-2.066-5.783-6.67-5.071
			c3.58-4.748,5.216-10.957,4.481-17.621c-0.353-3.175-0.687-6.917-2.389-9.491c-2.378-3.588-4.988-6.35-7.141-10.378
			c-0.689-1.286-2.263-0.297-2.923,0.35c-0.665,0.658-1.308,1.729-2.212,1.785c-0.697-0.056-1.155-0.789-1.665-1.314
			c-0.551-0.574-1.233-1.25-2.287-0.789c-5.102,2.229-10.477,12.957-11.321,19.409c-0.892,6.813,0.178,16.746,4.202,20.707
			c0.229,0.218,0.623,0.791,1.028,0.604c1.097-0.508,5.213-0.395,4.142,2.154c-0.015,0.032-6.591-2.6-9.869,5.333
			c-4.264-5.667-6.771-14.616-7.068-22.512c-0.36-9.549,6.706-25.676,6.706-25.787c0.263-0.36,0.332-1.017-0.08-1.381
			c-0.69-0.615-0.583-2.154-0.107-2.904c0.697-1.091,2.065-0.612,2.991-0.485c0.549,0.083,0.677-1.08,0.837-2.092
			c2.602-16.564-15.166-26.044-22.631-14.746c-2.216-0.155-8.226-1.898-11.323,5.155c-6.325,14.396-1.998,30.084-0.958,36.778
			c0.979,6.37,1.963,15.343,4.934,20.887c0.006,0.019,0.006,0.039,0.018,0.059C553.875,238.179,555.111,259.287,552.738,277.577z
			 M590.369,272.664c-0.61-0.317-1.201-0.733-1.896-0.84c-1.026-0.148-1.615,1.002-2.434,1.333
			c-1.539-4.568-0.99-10.845-2.347-15.72c-1.479-5.333-3.674-9.262-3.689-14.407c2.989,3.896,8.03,4.792,12.604,4.027
			C588.649,254.981,590.356,263.64,590.369,272.664z M605.945,225.659c1.655-2.959,8.139-8.063,6.626-23.461
			c-0.69-7.015-2.76-14.275-6.258-19.771c0.896-1.38,1.036-2.972,0.188-4.507c-0.824-1.5-3.257-1.896-3.268-1.929
			c-3.309-12.436,10.206-21.654,17.771-15.017c2.53,2.208,4.91,4.469,7.812,1.99c13.691,4.074,7.153,40.032,2.422,50.188
			c-4.911,10.52-5.336,24.325-8.29,36.288c-1.643,6.642-1.306,9.416-1.036,14.006c0.391,6.707,5.498,17.081,1.991,22.45
			c-4.41,6.758-9.115,6.987-14.915,5.278c-5.69-1.675-7.501-7.893-8.58-14.374c-1.454-8.685-2.752-25.556,2.989-29.401
			c2.068-1.38,5.617-1.016,5.973-4.83c0.323-3.461-2.936-4.688-5.051-4.642C605.991,234.19,607.227,230.604,605.945,225.659z
			 M601.273,221.452c5.583,4.874,3.58,12.15,2.111,15.651c-1.164,2.777-5.478,6.779-7.854,7.62
			c-6.255,2.21-12.817,0.476-15.247-3.865c-0.041-0.068,0.063-1.616,0.244-2.385c2.634,0.172,4.732-1.75,5.645-4.619
			c3.291,2.624,8.554,2.731,11.226-1.052c0.582-0.825-0.182-1.856-0.576-1.888c-2.82-0.191-3.474-4.651-2.428-7.382
			C595.614,220.346,599.812,220.175,601.273,221.452z M578.332,220.397c-3.656-4.386-4.272-11.54-4.155-17.617
			c0.121-5.845,5.956-17.595,10.454-19.612c0.026,0,0.047,0.017,0.081,0.009c0.73-0.079,1.143,0.544,1.662,1.108
			c0.466,0.514,0.979,0.797,1.555,0.923c2.461-0.051,3.654-2.508,4.464-2.567c2.049,4.214,3.162,5.615,6.293,9.037
			c5.869,6.423,2.919,22.587-1.878,27.591c-1.655,0.518-3.11,1.786-3.791,4.008c-1.065,3.481-0.08,7.969,2.726,9.071
			c-2.547,2.441-6.63,2.021-9.178-0.182c0.091-0.635,0.142-1.287,0.123-1.977c-0.086-2.9-1.377-4.468-3.068-5.286
			C584.92,221.148,580.716,219.713,578.332,220.397z M549.001,222.644c-3.453-7.069-3.941-12.374-5.021-18.545
			c-1.422-8.16-5.189-25.708-0.557-35.897c1.193-2.619,1.612-5.704,4.025-6.505c1.74-0.583,3.875,0.041,5.749-0.215
			c0.2,0.065,0.863-0.368,0.91-0.555c6.446-10.258,23.471,0.961,20.173,13.926c-1.455-0.163-2.896-0.064-3.693,1.833
			c-0.564,1.353-0.417,3.057,0.335,4.198c-0.004,0.004-0.008,0.004-0.016,0.016c-3.129,8.957-6.662,15.803-7.091,25.993
			c-0.342,8.23,3.364,18.242,7.753,24.053c0.069,0.087-1.553,4.376-1.935,6.437c-1.706,9.149,2.879,21.275,4.924,28.766
			c2.483,9.097,2.65,18.397-4.18,24.244c-7.413,6.349-18.356-2.12-16.247-12.97C557.688,259.152,556.808,238.64,549.001,222.644z
			 M654.7,507.939c-4.632-13.271-2.342-29.818-0.361-38.676c1.385-6.18,2.363-12.723,3.438-18.998
			c1.302-7.588,6.587-45.088,6.818-55.462c0.091-4.321-0.938-8.128-1.954-12.183c-1.189-4.698-0.11-10.117-1.063-15.012
			c1.197-1.706,1.668-3.884,0.677-6.645c2.923-5.855,3.338-16.564-1.615-22.266c-6.355-7.304-16.822-11.854-25.369-15.304
			c0.054-0.12,0.093-0.245,0.093-0.408c0.423-15.872,2.269-42.525,1.926-47.913c-0.084-1.329-1.212-1.775-1.238-1.826
			c-3.888-6.951-3.03-17.003-1.236-24.773c1.418-6.128,3.842-19.569,7.189-29.156c5.333-15.298,8.289-37.073,4.829-53.967
			c-4.829-23.616-30.632-26.861-43.684-18.778c-6.622-10.46-21.804-11.731-29.138,0.619c-6.857-5.77-19.869-7.197-25.523-0.27
			c-14.42,0.441-18.9,14.434-18.633,28.886c0.637,34.465,8.557,51.824,10.552,61.153c2.555,11.951,2.045,11.615,2.882,17.259
			c1.066,7.245-0.458,13.866-1.548,20.94c-0.919,5.961-0.188,9.676,0.905,13.536c0.636,7.523-0.147,12.434-0.376,17.81
			c-0.261,6.077,0.04,16.991-0.436,18.269c-4.588,3.729-8.896,6.816-14.058,10.065c-10.662,6.709-10.632,14.602-7.93,28.173
			c-1.262,2.829,0.8,5.753,0.784,5.77c-7.689,8.857-4.965,26.055-3.473,33.06c-2.354,22.455,10.964,62.34,12.885,87.297
			c1.112,14.498,1.669,20.68-3.198,28.729c-1.575,2.6-3.43,4.656-4.481,7.717c-2.183,6.354,0.69,10.109,3.999,12.484
			c4.28,3.061,9.378,1.004,12.616-2.992c2.97-5.068,2.021-10.727,2.232-14.148c0.324-5.271-0.031-21.014-0.127-21.141
			c0.777-16.857-5.071-51.338-5.085-51.408c-2.998-16.803-6.332-42.807,0.961-54.647c1.442-1.938,3.098-3.36,4.888-4.389
			c0.161,21.785,1.84,43.64,1.646,65.347c0.011,4.545,0.098,9.098,0.107,13.641c0.017,3.027,0.452,5.092-0.754,8.051
			c-0.522,1.285-0.933,2.289-1.138,3.609c-0.432,2.795,3.289,6.756,3.45,6.766c1.64,0.033,9.11-1.029,9.331-3.371
			c0.771-8.117,2.508-71.588,2.547-95.097c5.537,1.663,17.738,15.818,26.667,3.729c2.574,4.562,9.372,2.564,12.433-0.677
			c0.008,0.008,0.008,0.008,0.008,0.008c4.152,3.61,9.123,6.627,14.332,5.521c5.439-1.157,8.397-3.447,8.781-3.72
			c-0.034,16.212,1.163,62.896,1.333,69.351c0.186,7.15,1.791,14.66,1.113,21.744c-0.117,1.199,0.65,1.389,1,1.422
			c2.392,0.154,7.648,0.779,7.795,0.6c1.355-0.582,2.598-1.604,3.292-3.094c0.885-1.725,0.623-3.936,0.04-4.904
			c-1.592-2.65-3.788-11.01-3.646-16.471c0.063-2.623,0.837-30.102,1.816-41.514c0.952-11.008-0.569-22.574,1.541-33.342
			c6.788,0.104,13.684,2.839,16.358,12.055c3.189,10.975-0.256,32.631-2.967,48.407c-2.021,11.754-3.088,28.199-3.791,37.551
			c-0.892,11.857-4.732,62.443,15.997,49.008c2.499-2.863,4.348-7.184,3.745-11.994C662.101,515.664,657.291,515.355,654.7,507.939z
			 M662.262,387.216c-0.83-1.397-1.856-2.649-3.017-3.764c-3.391-3.258-6.408-7.356-9.877-10.494c0.778,0,2.449-0.146,2.483-0.137
			c2.514,1.055,3.486,3.995,5.209,6.275c1.186,1.578,2.624,1.895,3.841,0.738C661.064,381.505,662.058,386.195,662.262,387.216z
			 M660.604,372.821c-0.795,2.563-4.152,1.689-4.047-1.483c0.242-0.103,0.671-0.343,0.906-0.472
			C657.828,372.589,659.313,373.095,660.604,372.821z M658.72,370.206c0.609-0.377,1.189-0.797,1.706-1.286
			c0.107,0.737,0.167,1.449,0.207,2.152C659.882,371.32,658.931,371.286,658.72,370.206z M660.7,374.913
			c-0.003,0.942,0.068,2.94,0.014,3.026c-1.848,2.701-3.829-1.843-4.867-3.481c-0.57-0.899-1.181-1.611-1.87-2.187
			c0.49-0.145,0.998-0.309,1.518-0.506C655.592,375.47,658.583,376.833,660.7,374.913z M651.284,371.261
			c-1.356,0.334-2.48,0.274-4.741-0.155c-3.412-0.935-6.611-3.215-10.164-3.463c-12.521-0.9-20.82,12.637-33.846,5.47
			c-8.159-4.494-13.651-5.085-22.293-1.784c-7.085,2.709-13.214,3.85-20.576,1.347c-4.101-1.389-6.385-3.593-12.573-3.712
			c-3.398-0.078-6.061,2.049-8.986,4.124c-5.89,4.167-15.948,1.594-17.044-8.24c3.168,1.629,6.314,4.313,10.096,4.193
			c6.528-0.207,8.937-4.527,14.493-5.127c7.432-0.797,14.574,2.692,21.753,4.45c3.824,0.935,7.3,0.694,10.9-1.081
			c2.226-1.088,4.128-2.966,6.401-4.089c5.512-2.717,12.352,0.746,17.555,3.139c4.92,2.262,8.52,4.114,13.768,3.403
			c4.247-0.575,8.703-4.176,12.674-5.89c6.893-2.967,10.998,1.68,17.132,2.581c5.721,0.832,9.679-3.901,15.345-4.176
			c0.007,0,0.022-0.009,0.033-0.017C663.029,368.457,654.064,370.557,651.284,371.261z M635.1,274.901
			c0.174,0.037,0.962,0.236,0.962,0.271c0.174,15.846-1.6,31.878-2.024,47.72c-0.315-0.133-0.635-0.262-0.942-0.378
			c0.091-0.132,0.486-10.374,0.714-15.306c0.242-5.011,0.814-21.565,0.912-24.604C634.797,280.185,634.234,277.152,635.1,274.901z
			 M644.913,165.586c1.985,9.35,2.475,17.036,1.538,26.11c0.479-11.448-0.486-22.703-6.063-32.821
			c-5.749-10.417-20.272-14.699-31.333-13.104C622.342,141.878,641.232,148.244,644.913,165.586z M543.25,274.901
			c0.476-2.677,4.578-13.467-1.783-39.235c-2.239-9.075-4.981-18.116-6.831-27.321c-2.162-10.707-2.734-18.271-3.03-32.839
			c-0.275-13.634,4.954-26.211,16.887-26.433c0.358,0,1.082-0.121,1.749-0.759c6.504-6.258,15.364-3.841,23.463,0.787
			c0.409,0.238,0.637,0.281,1.254-0.704c6.221-9.94,19.892-10.226,26.623-1.086c0.696,1.428,1.087,1.964,1.636,1.739
			c12.757-5.442,31.919,0.57,38.422,15.964c6.606,15.642,3.791,37.43-1.743,52.632c-2.538,6.973-6.117,21.977-8.178,32.333
			c-1.657,8.323-0.513,16.875,2.866,23.494c-1.43,0.81-1.171,4.667-1.194,6.837c-0.026,3.873-0.289,7.722-0.456,11.591
			c-7.439,17.319-24.656,14.132-36.83,6.581c-0.188-0.311-0.502-0.489-0.845-0.247c-1.246,0.896-2.785,1.607-4.105,0.574
			c-0.301-0.245-0.582-0.13-0.778,0.121c-0.042,0.056-0.09,0.098-0.133,0.177c-0.901,1.719-3.806,1.779-3.979-0.709
			c-0.023-0.358-0.389-1.822-1.341-1.155c-1.411,0.992-2.701,1.715-4.26,0.904c-0.504-0.266-0.889-0.015-1.093,0.223
			c-6.033,7.048-14.487,7.322-22.115,5.706C547.58,301.967,541.288,286.982,543.25,274.901z M623.106,318.155
			c0.201-0.128,0.342-12.666,0.289-12.787c3.445-1.655,6.656-3.786,9.126-8.552c-0.203,2.628-1.188,18.733-1.236,24.717
			C631.285,321.564,625.921,319.45,623.106,318.155z M622.178,317.727c-7.539-3.456-14.583-6.396-23.561-5.916
			c-13.33,0.703-22.627-1.359-35.801,1.723c-5.081,1.188-6.764,1.946-7.89,2.436c-0.021-3.866-0.174-7.725-0.2-11.589
			c8.118,4.475,18.321,3.702,25.581-4.591c1.729,0.714,3.233,0.27,4.752-0.713c0.661,3.264,4.108,3.776,5.894,1.502
			c1.481,0.833,3.12,0.334,4.547-0.583c8.332,5.155,18.369,9.056,26.645,5.905c-0.071,3.854,0.182,7.694,0,11.544
			C622.142,317.551,622.162,317.641,622.178,317.727z M544.482,293.491c2.146,4.317,5.282,7.771,8.931,10.107
			c-0.015,0.068,0.173,8.531,0.193,12.706c0,0.104-5.518,3.301-8.226,5.539C545.428,312.445,545.455,302.847,544.482,293.491z
			 M543.223,323.629c0.476-6.412,0.154-17.781,0.583-21.272c0.318,6.833,0.272,13.724,0.248,20.484
			C544.054,322.871,543.505,323.402,543.223,323.629z M525.331,338.895c3.053-2.94,6.173-4.03,9.659-5.959
			c3.902-2.161,7.301-6.061,10.665-9.302c4.157-3.979,8.967-6.508,14.009-7.678c12.294-2.859,20.411-2.195,30.605-2.234
			c9.521-0.034,16.34-0.017,25.523,4.167c9.122,4.167,37.13,14.85,42.877,23.775c4.176,6.481,3.18,15.15,0.991,19.016
			c-3.637,0.463-5.936,1.149-9.445,2.744c-4.518,2.032-11.115-3.524-16.028-3.687c-3.46-0.112-8.231,2.204-11.348,3.91
			c-10.46,5.71-16.291,3.42-26.012-1.432c-10.281-5.136-15.837,1.217-16.94,2.006c-5.162,3.695-9.663,3.104-15.342,1.715
			c-5.314-1.295-10.255-3.361-15.686-3.782c-7.066-0.54-13.451,5.299-17.777,5.212c-3.52-0.06-9.306-4.44-9.346-4.543
			C520.096,358.331,517.306,346.594,525.331,338.895z M521.546,370.472c0.343,0.566,0.731,1.08,1.15,1.569
			c-0.254,1.646-1.757,2.76-2.87,2.992C520.424,373.523,521.04,372.032,521.546,370.472z M519.124,376.79
			c1.879,0.077,3.814-1.809,4.543-3.764c0.159,0.146,0.463,0.481,0.627,0.626c-1.719,2.898-3.26,5.881-6.207,6.601
			C518.366,379.063,519.083,376.79,519.124,376.79z M517.763,382.055c3.794-0.626,5.31-4.107,7.5-7.682
			c0.578,0.411,1.168,0.806,1.791,1.148c-1.542,1.175-2.822,2.606-3.825,4.665c-0.63,1.286-1.183,3.052-1.618,4.038
			c-0.526,1.209-3.452,4.355-4.137,1.354C517.531,384.489,517.749,382.132,517.763,382.055z M521.569,386.976
			c1.217-1.509,1.771-3.473,2.548-5.35c1.039-2.504,2.621-4.03,4.531-5.282c1.174,0.506,2.279,0.72,3.322,0.703
			c-5.454,5.29-11.849,12.621-13.8,21.16c-0.476-3.224-0.737-6.456-0.747-9.706C518.573,389.599,520.236,388.613,521.569,386.976z
			 M538.403,533.154c-2.327,4.115-6.188,4.947-10.177,3.971c-3.101-0.756-6.026-5.342-5.095-9.26c0.121,0,0.241-0.008,0.368-0.111
			c1.646-0.48,2.823,0.043,3.526,1.561c0.131,0.213,0.453,0.324,0.647,0.223c1.495-1.055,3.057-0.85,4.682,0.635
			c0.386,0.395,0.953,0.283,1.12-0.379c0.805-3.418,2.885-5.502,4.572-8.211c0.811-1.313,1.432-2.787,1.991-4.307
			C539.857,522.531,540.85,528.809,538.403,533.154z M544.905,484.156c-0.817-0.875-1.371-2.176-1.971-3.324
			c0.495-3.604,2.165-5.686,2.125-9.52c-0.054-5.527-0.214-11.074-0.228-16.623c0.187-21.932-1.529-44.016-1.663-66.025
			c0.798-0.351,1.615-0.634,2.45-0.857c0.188,12.792,0.379,25.677,0.874,38.444c0.467,12.037-0.032,28.969,1.02,35.545
			c0.664,4.125-0.124,8.428-0.613,12.604C546.508,477.719,545.414,480.855,544.905,484.156z M554.046,459.088
			c-0.003,0.197-0.077,16.102-0.851,23.879c-1.178,0.752-5.897,1.465-7.003,1.627c0.572-3.799,1.716-7.381,2.165-11.205
			c0.401-3.455,0.892-6.68,0.442-11.111c-1.239-12.252-0.533-23.793-0.972-36.025c-0.463-12.879-0.69-25.841-0.881-38.728
			c2.875-0.514,5.881-0.292,8.768,0.395C555.679,411.744,554.676,435.355,554.046,459.088z M623.04,483.986
			c0.459-7.1-0.896-14.354-1.113-21.486c-0.219-6.9-1.368-54.09-1.335-70.354c2.464-1.938,5.177-4.278,8.595-4.896
			c-1.998,22.41-2.782,45.611-2.707,68.15c0.032,11.035,0.511,12.021,0.602,17.809c0.067,3.961,0.248,8.076,1.95,11.463
			C627.041,484.354,625.047,484.133,623.04,483.986z M630.97,416.15c-0.646,13.059-1.997,43.572-1.938,45.639
			c0.269,9.156,2.26,13.408,3.473,16.975c0.444,1.295,1.16,1.629,0.175,3.482c-0.522,0.984-2.259,2.057-2.292,1.988
			c-2.005-3.635-1.925-8.18-1.994-12.465c-0.087-5.506-0.624-11.842-0.674-17.346c0-0.18,0.188-41.359,2.814-67.346
			c0.55-0.068,1.093-0.094,1.636-0.111C630.396,396.509,631.459,406.385,630.97,416.15z M648.231,447.814
			c1.605-12.381,6.536-35.59,2.722-49.487c-1.735-6.353-4.927-9.371-8.843-11.18c-14.948-6.894-22.437,4.124-26.301,6.147
			c-6.871,3.618-16.745-0.438-18.605-3.687c-0.309-0.952-1.154-0.497-1.524-0.025c-2.294,2.94-9.628,5.101-11.313,0.659
			c-0.188-0.488-0.685-0.78-1.016-0.24c-1.984,3.258-5.873,4.99-10.505,4.073c-7.776-1.543-11.188-8.677-22.082-9.543
			c-3.553-0.274-10.705,0.155-15.611,8.917c-8.428,15.038-2.888,41.924-0.437,55.42c2.307,12.723,5.806,35.125,5,51.852
			c-0.214,4.459,0.563,8.377,0.47,12.234c-0.944,3.67-2.859,7.373-5.111,10.418c-1.123,1.518-1.968,2.992-2.557,4.836
			c-0.601-0.533-1.194-0.918-2.013-1.166c-0.636-0.197-2.693,0.814-3.056,0.223c-0.973-1.578-2.313-2.049-3.613-1.568
			c-0.007-0.01,6.744-6.32,8.809-20.637c0.848-5.883-0.932-21.152-3.161-37.322c-0.715-5.16-12.546-52.178-8.923-67.748
			c1.771-7.605,7.794-17.68,14.001-23.064c0.962-0.831,2.602-1.38,4.404-2.537c1.8-1.149,3.774-2.89,7.116-3.414
			c6.606-1.02,12.284,4.347,18.766,4.939c6.49,0.591,12.04-1.535,18.215-3.884c8.05-3.069,13.886,2.35,20.328,5.204
			c4.445,1.963,11.001,1.878,16.21-0.454c7.967-3.567,12.234-8.616,21.25-5.067c1.917,0.746,4.026,1.955,5.762,2.298
			c3.537,2.581,6.097,5.179,9.245,8.402c3.476,3.549,7.317,7.587,7.413,13.22c0.176,9.928-5.422,45.105-6.331,51.297
			c-1.024,7.029-2.431,14.557-3.781,21.51c-4.182,21.486-4.624,40.287,6.721,49.967c0.087,0.078,0.134,0.172,0.205,0.268
			c-0.758,0.102-1.354,0.752-1.897,1.971c-1.14,2.598-2.634,1.209-4.314,1.268c-0.492,0.018-0.871,0.395-1.189,0.85
			c-0.798-1.662-1.91-2.881-3.198-4.148c-2.493-2.486-5.04-5.951-5.255-10.023C643.603,496.58,646.277,462.852,648.231,447.814z
			 M657.446,533.223c-10.02,4.057-12.419-7.107-13.15-19.883c0.489,1.117,1.047,2.18,1.669,3.209
			c1.736,2.863,4.888,4.527,5.979,7.98c0.223,0.721,0.853,0.832,1.214,0.207c1.416-2.41,3.132,0.461,4.652-0.824
			c1.248-1.063,1.591-4.148,3.517-3.205C663.063,525.096,660.593,531.947,657.446,533.223z"/>
	</g>
	<g>
		<path fill="#D2B48C" d="M454.207,318.625c-3.084-2.698-7.068-1.661-10.183,0.249c-2.373,1.456-0.506,5.395-0.209,8.526
			c0.256,2.654-0.146,4.579-0.531,6.264c-0.754,3.253-0.602,6.057,1.891,6.974c3.025,1.106,6.797,1.217,9.422-1.363
			c2.598-2.555,4.159-6.208,4.031-10.486C458.504,324.582,456.911,320.99,454.207,318.625z"/>
		<path fill="#D2B48C" d="M358.255,316.232c3.083-2.699,7.069-1.662,10.182,0.249c2.374,1.456,0.507,5.395,0.208,8.526
			c-0.255,2.653,0.147,4.581,0.533,6.261c0.754,3.258,0.6,6.062-1.891,6.975c-3.026,1.11-6.796,1.222-9.422-1.359
			c-2.598-2.555-4.16-6.207-4.032-10.487C353.958,322.188,355.55,318.596,358.255,316.232z"/>
		<path fill="#D2B48C" d="M473.423,483.578c-0.134-4.994-0.063-10.25,0.101-14.988c0.898-6.383,2.562-12.795,3.765-18.947
			c3.07-15.658,8.65-35.096,5.5-51.599c-1.18-6.182-1.947-14.678-5.31-18.159c-9.465-9.804-27.438-6.088-39.873-1.877
			c-17.872-0.763-36.038,0.188-53.917-0.677c-12.069-0.579-33.78-5.565-44.854,2.73c-9.961,7.464-7.223,23.924-6.523,36.094
			c1.17,20.277,15.265,62.498,3.5,78.102c-7.914,10.494-3.821,19.797,0.402,31.023c1.887,5.02,7.729,3.322,8.822-1.475
			c1.274-5.576,1.237-5.916,0.949-11.99c-0.325-6.902,5.323-19.197,6.245-26.604c0.523-4.223,0.305-8.564-0.208-12.916
			c2.082-19.41-3.62-44.381,2.182-62.621c0.948,9.264,2.406,18.436,3.13,27.803c1.012,13.088-5.148,23.514-2.487,36.254
			c0.724,3.469,3.009,4.695,5.159,4.305c2.688,0.664,5.972-1.676,6.147-5.941c0.583-14.236,3.05-28.035,3.359-42.32
			c0.19-8.779-4.824-37.852,6.811-30.967c8.781,5.196,17.168,7.682,24.931,4.112c5.292,2.018,10.558,4.137,16.472,4.396
			c8.539,0.377,17.523-4.072,25.004-9.511c0.385,0.261,0.744,0.574,1.078,0.969c-2.154,8.273-1.705,17.765-1.059,26.732
			c0.57,7.969,0.587,15.725,0.768,23.715c0.088,3.932,3.271,9.482,3.912,14.064c-0.021,1.754-0.158,3.348-0.591,4.531
			c-1.307,3.609-0.153,6.76,1.78,8.23c1.035,1.48,2.614,2.256,4.589,1.42c2.909-1.236,4.836-2.998,6.003-5.141
			c0.349,0.232,0.717,0.434,1.14,0.549c-0.339,14.379,0.798,28.49,6.794,40.99c-0.569,0.951-0.932,2.166-0.932,3.648v3.186
			c-0.265,1.232-0.271,2.572,0,3.822v0.559c0,6.602,6.623,7.707,8.893,3.369c0.244-0.232,0.5-0.441,0.718-0.752
			c3.505-4.941,5.372-8.953,5.198-14.381c0.539-0.977,0.861-2.127,0.768-3.377c-0.547-7.189-2.052-11.096-5.33-17.277
			C474.896,489.721,473.96,486.682,473.423,483.578z M462.245,439.572c-0.318,6.92-0.868,14.041-1.321,21.178
			c-0.328,0.039-0.644,0.121-0.935,0.23c-0.445-1.971-1.09-4.012-1.917-6.096c-1.181-2.969-2.048-5.678-2.685-8.289
			c-0.07-1.527-0.095-3.107-0.008-4.775c0.355-7.15,0.952-15.141,1.146-23.098c1.381-6.303,2.537-12.471,3.326-18.759
			C464.682,410.326,462.808,427.357,462.245,439.572z"/>
		<path fill="#B14A5D" d="M479.349,358.836c-7.051-18.922-28.102-28.46-43.04-27.148c-14.768,1.287-28.602,2.015-43.45,1.543
			c-12.666-0.395-25.074-2.306-37.486,1.767c-1.787,0.587-2.806,2.058-3.215,3.772c-4.457,3.438-8.185,8.972-11.389,13.765
			c-4.643,6.954-11.158,12.929-8.879,23.5c1.331,6.199,6.345,10.48,11.266,9.328c16.159-3.789,32.09-3.618,48.453-2.98
			c24.23,0.957,48.511,0.73,72.748,0.948C477.233,383.442,485.573,375.545,479.349,358.836z"/>
		<path fill="#B14A5D" d="M468.433,212.667c1.139-14.779-0.349-38.605-15.629-40.474c-8.811-1.078-15.941-3.972-23.098-10.107
			c-3.714-3.18-6.842-4.872-11.176-6.435c-9.71-3.5-21.012-3.062-30.575,0.813c-5.132,2.084-8.985,7.369-14.077,9.776
			c-4.338,2.049-8.413,2.135-12.69,4.746c-7.659,4.664-11.41,21.168-12.228,30.792c-1.26,14.79,0.905,27.474,4.316,41.584
			c4.934,20.396-2.386,32.847-3.086,52.184c-0.242,6.833,1.056,12.888,3.466,17.417c0.087,2.364,1.099,4.679,3.325,5.644
			c1.14,0.495,2.249,0.938,3.355,1.374c0.875,0.448,1.787,0.791,2.745,1.005c8.283,2.902,15.949,3.875,24.988,1.484
			c11.021-2.919,17.393-5.759,28.785-3.1c6.084,1.425,12.076,3.659,18.264,4.398c17.252,2.066,30.945-7.842,27.224-32.605
			c-2.296-15.299-3.376-26.476-0.265-41.419C464.614,237.564,467.468,225.26,468.433,212.667z"/>
		<path fill="#362F36" d="M473.483,459.824c2.782-14.129,7.388-28.73,7.84-43.361c0.349-11.021-0.59-25.665-4.23-35.918
			c1.787-1.042,3-4.656,1.321-6.277c1.395-5.08,1.686-12.312-1.454-17.19c-2.391-3.69-5.735-5.889-8.98-8.076
			c-3.922-2.653-7.519-6.001-11.244-9.096c3.904-10.331-1.265-20.523-1.442-20.587c6.439-4.606,5.222-14.914,4.88-19.886
			c-0.969-13.995-5.416-28.105-2.527-42.165c5.457-26.501,7-41.156,4.68-62.36c-0.831-7.503-3.787-14.268-8.343-18.898
			c-4.665-4.748-15.804-4.546-18.06-6.63c-7.551-6.94-12.123-11.952-23.747-13.24c-10.837-1.207-23.245,2.903-32.084,12.055
			c-11.198-1.715-19.082,3.669-23.62,13.304c-12.25,26.012,1.803,63.273,2.145,73.507c0.46,14.036-1.759,26.625-3.539,40.396
			c-0.975,7.5-2.279,15.592,2.541,22.896c-1.203,6.077-5.038,13.261-2.312,19.494c-3.724,2.885-5.487,5.118-7.639,7.832
			c-2.544,3.215-5.557,5.204-7.827,8.754c-3.673,5.736-5.342,12.415-3.023,18.682c-1.666,1.629-1.93,4.892-0.13,6.366
			c-0.335,9.11-3.144,17.567-3.546,26.616c-1.117,24.969,5.005,41.025,6.707,50.941c1.811,10.498,4.456,30.826-0.221,40.467
			c-1.223,2.543-1.948,3.863-5.406,9.127c-2.226,3.383-1.257,7.82,1.079,10.215c-0.141,3.813,0.372,5.428,1.441,7.832
			c1.478,3.254,8.091,2.324,8.561-0.086c0.902-4.539,1.065-9.813,0.258-15.072c1.347-6.42,3.861-12.584,5.326-18.969
			c1.501-6.572,0.553-14.318,0.274-21.02c-0.626-15.891-2.997-31.75-2.658-47.711c0-0.008,0-0.025,0-0.025
			c0.131-9.285,1.17-17.924,5.645-25.241c1.592,5.616,2.032,11.557,2.813,17.44c1.287,9.756,2.778,19.275,2.832,29.223
			c0.041,6.76-4.712,11.895-4.662,18.018c0.036,4.877,2.104,10.086,3.228,12.498c0.318,0.662,0.69,1.559,1.247,1.621
			c1.291,0.158,3.457-0.213,4.636-0.346c0.563-0.057,0.664-1.824,0.664-2.027c-0.034-13.465,3.808-25.473,3.626-39.105
			c-0.201-14.703-2.149-34.919-1.572-43.356c5.088,0.695,9.962,4.038,14.018,6.786c8.758,5.906,15.863,9.615,25.191,3.639
			c7.683,3.564,12.402,4.72,20.143,0.556c5.845-3.145,12.99-8.791,19.876-10.69c0.05,16.077-1.579,31.946-1.679,47.934
			c-0.031,4.441,0.666,8.111,2.023,12.168c2.641,7.834,0.238,15.07,1.787,22.951c0.002,0.025,0.01,0.025,0.022,0.037
			c0,0.246,0.071,0.494,0.265,0.656c2.276,1.998,7.87,1.539,7.619-2.031c-0.355-5.043,4.418-8.029,2.617-13.734
			c-1.457-4.646-4.471-7.383-4.934-13.033c-0.52-6.357-0.754-12.672,0.008-19.016c0.689-5.795,1.712-11.678,2.814-17.371
			c0.523-2.695,1.049-14.278,2.135-15.672c0.011-0.013,2.417,1.831,3.932,4.776c6.594,12.865,0.955,51.535,0.641,54.527
			c-0.892,9.646-1.531,16.561-1.213,26.283c0.358,10.961,3.385,19.951,4.648,30.604c-0.432,7.818,0.784,15.844,1.096,16.389
			c0.65,1.119,7.086,0.98,7.188,0.844c1.836-2.486,2.061-5.893,2.738-9.064c0.016-0.063,4.219-4.146,2.152-9.23
			c-2.069-6.705-5.783-10.143-7.375-17.275c-1.896-8.523-0.941-22.533,0.774-31.578
			C473.453,459.885,473.478,459.867,473.483,459.824z M476.315,379.237c-0.532,0-1.598-0.051-1.608-0.069
			c-0.309-0.913-0.208-2.079,0.101-2.97c0.817-0.172,1.639-0.369,2.463-0.601C478.636,376.575,477.503,378.813,476.315,379.237z
			 M455.692,339.052c-0.309-0.256-0.623-0.532-0.949-0.78c1.016-1.286,1.676-2.589,2.102-3.905
			C456.667,335.901,456.302,337.458,455.692,339.052z M453.725,337.397c-0.03-0.249-6.392-1.123-8.815-1.637
			c2.615-4.793,0.715-9.898-1.079-14.781c0.684,0.02,8.063,0.155,10.705-1.226C459.275,332.399,453.741,337.363,453.725,337.397z
			 M443.535,335.726c-24.381-0.016-48.866-0.137-73.245-0.454c-0.187-0.004-2.442-5.17-1.806-8.22
			c0.533-2.593,3.131-7.618,3.116-7.759c5.444,0.251,10.875,0.218,16.385-0.87c13.223-2.634,27.68-3.438,36.441,1.301
			c3.84,2.085,12.572,1.033,18.046,1.216C444.219,325.604,446.3,330.556,443.535,335.726z M357.491,286.43
			c1.236-10.423,3.402-27.02,2.135-34.656c-1.767-10.66-3.182-14.994-5.386-25.524c-2.994-14.296-2.079-30.623,1.85-39.85
			c6.402-15.016,12.382-15.077,16.927-15.832c2.678-0.442,6.066,0.491,7.41,0.11c2.169-0.626,4.484-2.383,5.977-3.558
			c10.951-8.616,14.081-9.389,25.319-9.092c8.638,0.233,15.991,5.909,21.925,12.972c3.686,4.39,11.434,2.806,16.223,5.5
			c8.179,4.602,10.156,16.363,11.182,26.323c2.279,21.97-3.299,38.059-5.555,56.059c-1.515,12.114-0.592,19.88,1.119,29.8
			c1.137,6.591,4.1,23.192-1.307,28.2c-2.332,2.159-4.877,2.076-12.643,2.489c-8.354,0.455-17.51-1.875-17.631-1.792
			c-8.4-3.277-17.518-4.861-26.241-3.144c-6.656,1.303-13.216,3.219-19.96,3.691c-6.781,0.467-13.645-0.832-20.433-1.084
			c-0.006-0.013-0.006-0.022-0.017-0.03C353.076,308.546,356.337,296.006,357.491,286.43z M359.076,318.63
			c3.781,0.142,6.817,0.527,10.555,0.712c-1.24,2.615-2.517,5.018-3.141,8.014c-0.576,2.84,0.261,5.459,1.335,7.907
			c-5.132-0.291-8.833,1.364-9.01,1.124C355.483,331.722,359.069,318.643,359.076,318.63z M356.063,329.231
			c-0.332,2.688-0.208,5.161,1.555,7.639c-0.412,0.125-1.267,0.356-1.327,0.219C355.178,334.534,355.429,331.842,356.063,329.231z
			 M343.128,352.625c3.857-4.068,7.528-10.014,12.619-13.135c4.739-2.906,9.505-2.675,14.72-2.426
			c13.637,0.656,68.287,0.815,73.54,1.299c2.554,0.24,6.01,0.587,7.769,1.316c4.757,1.997,8.25,5.843,12.604,9.319
			c2.558,2.053,5.191,3.875,7.847,5.817c6.215,4.543,5.114,18.069,2.933,18.896c-4.662,1.329-88.246-1.29-98.855-1.423
			c-12.254-0.154-38.22,0.434-38.25,0.404C335.205,365.644,338.808,357.164,343.128,352.625z M473.483,379.245
			c-0.506-0.003-1.01,0.004-1.505,0.004c-0.013-0.034-0.838-1.351-0.024-2.524c0.018-0.03,1.017-0.176,1.499-0.27
			C473.282,377.385,473.289,378.324,473.483,379.245z M470.621,379.258c-0.64,0-1.297,0.009-1.94,0.009
			c-0.235-0.694-0.365-1.752,0.087-2.285c0.503-0.03,1.28-0.09,1.773-0.142C470.333,377.625,470.37,378.452,470.621,379.258z
			 M467.376,379.267c-0.676,0.009-1.374,0.009-2.064,0.009c-0.147-0.596-0.325-1.702,0.068-2.092
			c0.515-0.018,1.577-0.082,2.09-0.104C467.247,377.754,467.235,378.53,467.376,379.267z M464.045,379.293
			c-0.646,0-1.301,0-1.954,0.003c-0.014-0.063-0.295-1.757,0.218-2.147c0.63,0.009,1.26,0.035,1.884,0.035
			C463.944,377.792,463.921,378.53,464.045,379.293z M460.833,379.306c-0.814,0-1.635,0.008-2.449,0.013
			c-0.346-0.746-0.289-1.565,0.074-2.272c0.787,0.026,1.571,0.056,2.358,0.073C460.646,377.801,460.67,378.589,460.833,379.306z
			 M457.063,379.332c-0.986,0-1.968,0.013-2.949,0.021c0,0,0,0,0-0.008c-0.477-0.626-0.271-2.195,0.334-2.465
			c0.879,0.043,1.768,0.081,2.645,0.12C456.882,377.75,456.876,378.563,457.063,379.332z M452.739,379.361
			c-0.449,0-1.666,0.064-2.111,0.073c-0.66-2.186,0.174-2.671,0.193-2.701c0.762,0.021,1.516,0.047,2.283,0.09
			C452.731,377.621,452.554,378.517,452.739,379.361z M449.651,379.37c-0.885,0.009-2.646-0.008-2.66-0.025
			c-0.67-0.96-0.4-2.452,0.167-2.714c0.671,0.021,1.545,0.021,2.216,0.039C449.079,377.57,449.224,378.555,449.651,379.37z
			 M445.603,379.387c-0.684,0.013-1.354,0.013-2.051,0.013c-0.01-0.013-0.017-0.03-0.029-0.047
			c-0.631-0.592-0.802-1.968-0.236-2.748c0.809-0.021,1.623-0.021,2.447,0C445.335,377.467,445.288,378.461,445.603,379.387z
			 M441.967,379.404c-0.761,0.008-1.52,0-2.284,0.008c-0.033-0.068-1.232-1.286-0.105-2.717c0.641-0.026,1.574-0.026,2.212-0.044
			C441.423,377.552,441.558,378.551,441.967,379.404z M438.179,379.421c-0.664,0-2.107,0.013-2.232-0.051
			c-0.842-0.45-0.553-2.083-0.023-2.709c0.711-0.025,1.545-0.128,2.25-0.158C437.931,377.325,437.847,378.589,438.179,379.421z
			 M434.488,379.421c-0.694,0-1.392-0.008-2.099,0c-0.023-0.125-1.079-1.492-0.137-2.863c0.68-0.017,1.589,0.128,2.269,0.103
			C434.229,377.501,434.16,378.658,434.488,379.421z M430.925,379.421c-0.998,0-1.996-0.017-2.995-0.017
			c-0.755-1.175,0.013-2.889,0.06-2.975c0.912,0,1.975,0.051,2.886,0.034C430.638,377.218,430.601,378.645,430.925,379.421z
			 M426.337,379.4c-0.785,0-2.574,0.18-2.631,0.133c-0.598-0.514-0.751-2.581-0.031-3.172c0.095-0.06,2.77,0,2.811,0
			C426.159,377.115,425.992,378.632,426.337,379.4z M422.352,379.387c-0.858,0-2.005-0.073-2.858-0.09
			c-0.051-0.099-1-2.16-0.285-3.159c0.014-0.017,2.172-0.094,3.171,0.034C421.976,377.012,421.956,378.517,422.352,379.387z
			 M417.94,379.344c-0.949-0.013-1.894-0.03-2.842-0.039c0.027-0.27-1.579-2.225-0.453-3.366c0.945,0.095,2.319-0.009,3.271,0.121
			C417.444,377.149,417.431,378.366,417.94,379.344z M413.634,379.293c-0.999-0.017-2.072-0.035-3.074-0.035
			c-1.17-0.767-0.553-3.283-0.503-3.395c0.885-0.06,2.038-0.103,2.933-0.06C411.981,377.218,413.121,378.692,413.634,379.293z
			 M408.915,379.237c-0.055,0-2.357-0.069-3.199-0.227c-1.025-1.613-0.02-2.676,0.018-2.813c0.809,0.025,1.615,0.051,2.42,0.068
			C407.853,377.861,408.481,378.632,408.915,379.237z M404.067,378.709c-0.889-0.128-1.81-0.039-2.711-0.12
			c-0.024-0.085-0.614-1.697,0.342-2.555c0.848,0.043,1.702,0.085,2.543,0.12C403.88,376.936,403.796,377.882,404.067,378.709z
			 M400.012,378.645c-1.069-0.072-2.993,0.021-3.349,0c-0.506-0.87-0.409-2.336,0.332-2.851c1.032,0.06,2.058,0.121,3.088,0.172
			C399.794,376.669,399.794,377.878,400.012,378.645z M395.467,378.813c-1.009-0.009-2.212-0.167-3.221-0.146
			c-0.554-0.729-1.009-2.606-0.107-3.048c0.167-0.09,2.242,0.048,3.211,0.099C395.024,376.476,395.195,378.011,395.467,378.813z
			 M390.864,378.813c-0.824,0.026-1.884,0.035-2.711,0.06c-0.664-0.823-0.805-2.65-0.057-3.537c0.867,0.038,1.742,0.09,2.621,0.133
			C390.274,376.283,390.47,377.869,390.864,378.813z M386.92,378.975c-1.15,0.035-2.391-0.291-3.53-0.266
			c-0.016-0.017-1.297-1.984,0.355-3.549c0.962,0.034,1.924,0.068,2.886,0.111C386.286,376.249,386.504,377.989,386.92,378.975z
			 M381.698,378.645c-1,0.013-2.025-0.167-3.018-0.193c-1.039-1.642,0.03-3.327,0.101-3.451c1.073,0.021,2.148,0.047,3.211,0.09
			C381.325,376.061,381.218,377.561,381.698,378.645z M376.975,378.384c-0.237-0.018-2.019-0.09-2.658-0.128
			c-0.036-0.086-1.228-2.229,0.04-3.318c0.885,0,1.776-0.004,2.669,0.008C376.536,375.953,376.528,377.312,376.975,378.384z
			 M372.671,378.173c-0.922-0.047-2.792-0.154-2.809-0.167c-0.536-0.57-0.637-2.551-0.084-3.027c0.715-0.017,2.664-0.047,2.93-0.047
			C372.245,375.931,372.208,377.149,372.671,378.173z M368.264,377.989c-0.852-0.03-2.575-0.103-2.598-0.111
			c-0.607-0.686-0.188-2.4,0.227-2.825c0.634-0.021,1.536-0.009,2.163-0.03C367.696,375.923,367.817,377.038,368.264,377.989z
			 M364.184,377.882c-1.079-0.03-1.981,0-3.06-0.021c-0.523-0.862,0-2.503,0.426-2.688c1.103-0.048,2.289-0.099,2.748-0.121
			C363.942,375.854,363.873,376.999,364.184,377.882z M359.72,377.822c-0.798-0.013-1.891-0.073-2.681-0.073
			c-0.654-0.836-0.242-2.431-0.021-2.632c1.042-0.03,2.112,0.043,3.161,0C359.736,375.846,359.566,376.96,359.72,377.822z
			 M355.54,377.775c-0.661,0-1.455-0.013-2.121-0.013c-0.567-0.506-0.349-2.144-0.027-2.508c0.64,0,1.414-0.025,2.061-0.043
			C355.188,375.931,355.151,377.072,355.54,377.775z M351.983,377.831c-0.848,0.013-1.686,0.039-2.53,0.056
			c-0.007-0.004-0.007-0.008-0.007-0.008c-0.493-0.694-0.093-2.439,0.333-2.717c0.596,0.013,1.468,0.051,2.075,0.051
			C351.571,375.915,351.571,377.115,351.983,377.831z M348.065,377.904c-0.57,0.017-1.217,0.042-1.787,0.056
			c-0.023-0.125-0.72-1.646,0.225-2.825c0.476,0.035,1.273,0.026,1.747,0.039C347.955,375.901,347.811,377.097,348.065,377.904z
			 M344.938,378.007c-0.636,0.013-1.384,0.077-2.018,0.103c-0.027-0.125-0.811-2.028,0.583-3.215
			c0.463,0.043,1.271,0.128,1.736,0.158C344.831,375.872,344.573,377.115,344.938,378.007z M341.536,378.148
			c-0.446,0.021-0.885,0.039-1.341,0.056c-0.023-0.112-1.337-1.844,0.101-3.515c0.537,0.077,1.22,0.115,1.756,0.188
			C341.405,375.734,341.07,377.119,341.536,378.148z M337.581,374.29c0.409,0.082,0.822,0.142,1.224,0.219
			c-0.66,1.089-0.758,2.606-0.141,3.769c-0.355,0.017-0.71,0.026-1.063,0.047C336.073,377.561,336.539,375.348,337.581,374.29z
			 M344.101,524.057c-1.975,1.193-5.638,1.088-6.259-0.127c-0.961-1.869-1.311-3.963-1.32-6.156c3.066,2.627,6.643,0.291,7.95-2.285
			C345.032,518.699,344.523,523.809,344.101,524.057z M367.295,433.82c0.288,13.586-3.657,25.635-3.624,39.105
			c0,0.045,0.01,0.068,0.018,0.102c-1.291-0.018-2.558,0.24-3.845,0.24c-4.515-10.266-3.436-15.273-0.089-22.223
			c2.312-4.793,1.192-10.305,0.948-15.912c-0.563-12.689-1.954-28.207-5.644-40.031c2.172-4.8,10.507-5.007,10.507-4.959
			C365.511,404.799,366.993,419.133,367.295,433.82z M456.208,405.771c-0.975,7.945-2.909,15.771-3.871,23.766
			c-0.738,6.141,0.066,12.836,0.566,18.961c0.372,4.605,3.693,6.41,4.739,10.598c1.19,4.801-2.832,7.186-2.647,13.375
			c0.057,1.859-3.761,2.246-5.494,0.883c-1.186-6.105,0.865-11.926,0.145-18.021c-0.145-1.248-1.133-4.256-1.516-5.393
			c-1.732-5.111-2.624-9.643-2.376-15.121c0.718-15.428,1.88-44.273,1.874-44.329c3.689-0.771,7.028-0.369,10.273,2.216
			C456.419,395.017,456.426,403.992,456.208,405.771z M474.228,525.574c-1.776-0.025-3.529-0.344-5.279-0.719
			c-0.727-3.275-1.136-6.738-1.006-10.148c1.941,3.525,5.796,4.99,8.555,3.949C476.028,521.15,475.673,523.604,474.228,525.574z
			 M470.192,486.129c0.328,4.414,3.689,13.35,5.325,15.84c1.64,2.488,2.822,4.273,3.46,9.408c0.908,7.51-5.454,5.77-8.568,3.551
			c-1.729-1.236-2.597-2.906-2.15-2.393c0.063-0.77,0.428-2.941-0.067-5.332c-2.136-10.123-4.284-17.252-4.743-27.973
			c-0.383-9.006,1.506-24.619,1.763-27.5c1.632-17.799,6.202-38.598-0.995-55.205c-2.939-6.799-12.392-10.073-18.605-8.192
			c-5.333,1.616-10.07,4.677-14.91,7.862c-8.73,5.762-15.28,8.607-23.834,2.584c-0.318-0.219-1.196-0.239-1.428-0.103
			c-16.079,9.2-28.292-15.167-44.717-11.206c-10.742,2.597-13.799,21.755-14.482,33.179c-0.416,6.92,2.547,30.334,3.516,45.176
			c0.513,7.9,1.095,16.41-0.06,24.246c-0.993,6.766-4.106,12.902-5.4,19.619c0.858,3.34-2.215,8.398-6.033,7.26
			c-3.778-1.125-5.38-6.217-2.923-9.723c2.188-3.139,4.012-6.299,5.751-9.842c3.218-6.529,2.031-19.078,1.975-26.408
			c-0.124-15.467-6.62-34.346-7.883-46.752c-0.627-6.242-1.358-15.854,0.107-24.572c1.119-6.653,2.313-12.998,2.601-19.779
			c11.789-0.75,23.58-0.712,35.379-0.129c5.656,0.279,11.301,1.029,16.959,0.879c6.201-0.155,63.383,0.107,85.648,0.184
			c0.008,0.026,0,0.043,0.021,0.065c4.022,10.979,3.771,25.747,3.393,37.831c-0.382,12.178-6.278,29.057-8.42,41.145
			C469.534,467.42,469.68,479.184,470.192,486.129z M449.978,317.478c1.056,0,1.056-2.094,0-2.094
			C448.921,315.383,448.921,317.478,449.978,317.478z M452.978,314.712c-1.057,0-1.057,2.089,0,2.089
			C454.033,316.802,454.033,314.712,452.978,314.712z M454.921,312.458c-1.057,0-1.057,2.094,0,2.094
			S455.978,312.458,454.921,312.458z M455.806,308.393c-1.063,0-1.063,2.099,0,2.099
			C456.854,310.492,456.854,308.393,455.806,308.393z M456.151,304.782c-1.056,0-1.056,2.098,0,2.098
			C457.2,306.879,457.2,304.782,456.151,304.782z M456.151,301.47c1.049,0,1.049-2.089,0-2.089
			C455.096,299.381,455.096,301.47,456.151,301.47z M455.44,296.285c1.057,0,1.057-2.089,0-2.089
			C454.392,294.195,454.392,296.285,455.44,296.285z M454.385,291.1c1.056,0,1.056-2.096,0-2.096S453.329,291.1,454.385,291.1z
			 M453.681,285.907c1.056,0,1.056-2.089,0-2.089C452.624,283.817,452.624,285.907,453.681,285.907z M453.329,278.182
			c-1.049,0-1.049,2.094,0,2.094C454.385,280.276,454.385,278.182,453.329,278.182z M453.151,273.456c-1.049,0-1.049,2.09,0,2.09
			C454.214,275.546,454.214,273.456,453.151,273.456z M453.151,268.71c-1.049,0-1.049,2.09,0,2.09
			C454.214,270.8,454.214,268.71,453.151,268.71z M452.946,266.012c1.056,0,1.056-2.091,0-2.091
			C451.888,263.92,451.888,266.012,452.946,266.012z M453.081,259.218c-1.057,0-1.057,2.094,0,2.094
			C454.137,261.312,454.137,259.218,453.081,259.218z M453.493,256.772c1.056,0,1.056-2.09,0-2.09S452.438,256.772,453.493,256.772z
			 M454.308,251.54c1.056,0,1.056-2.09,0-2.09C453.251,249.45,453.251,251.54,454.308,251.54z M454.995,244.915
			c-1.061,0-1.061,2.101,0,2.101C456.044,247.015,456.044,244.915,454.995,244.915z M455.403,240.381c-1.063,0-1.063,2.099,0,2.099
			C456.45,242.48,456.45,240.381,455.403,240.381z M456.085,235.679c-1.057,0-1.057,2.089,0,2.089
			C457.134,237.768,457.134,235.679,456.085,235.679z M456.899,230.613c-1.057,0-1.057,2.094,0,2.094
			C457.948,232.708,457.948,230.613,456.899,230.613z M457.583,225.562c-1.063,0-1.063,2.094,0,2.094
			C458.638,227.656,458.638,225.562,457.583,225.562z M458.125,221.026c-1.05,0-1.05,2.094,0,2.094
			C459.182,223.121,459.182,221.026,458.125,221.026z M458.403,215.621c-1.063,0-1.063,2.09,0,2.09
			C459.46,217.71,459.46,215.621,458.403,215.621z M458.81,210.564c-1.057,0-1.057,2.091,0,2.091
			C459.865,212.655,459.865,210.564,458.81,210.564z M458.672,207.257c1.056,0,1.056-2.098,0-2.098S457.616,207.257,458.672,207.257
			z M458.263,202.373c1.057,0,1.057-2.09,0-2.09C457.207,200.283,457.207,202.373,458.263,202.373z M457.583,197.138
			c1.055,0,1.055-2.09,0-2.09C456.521,195.048,456.521,197.138,457.583,197.138z M456.628,192.078c1.055,0,1.055-2.085,0-2.085
			C455.571,189.992,455.571,192.078,456.628,192.078z M454.857,187.546c1.056,0,1.056-2.079,0-2.079
			C453.795,185.468,453.795,187.546,454.857,187.546z M452.267,183.888c1.057,0,1.057-2.087,0-2.087
			C451.204,181.8,451.204,183.888,452.267,183.888z M449.129,181.101c1.056,0,1.056-2.1,0-2.1S448.073,181.101,449.129,181.101z
			 M445.175,179.356c1.059,0,1.059-2.094,0-2.094C444.118,177.263,444.118,179.356,445.175,179.356z M440.813,178.311
			c1.052,0,1.052-2.094,0-2.094C439.757,176.216,439.757,178.311,440.813,178.311z M436.999,177.436c1.049,0,1.049-2.087,0-2.087
			C435.942,175.349,435.942,177.436,436.999,177.436z M433.175,175.7c1.055,0,1.055-2.098,0-2.098
			C432.128,173.602,432.128,175.7,433.175,175.7z M430.048,172.731c1.049,0,1.049-2.099,0-2.099
			C428.985,170.633,428.985,172.731,430.048,172.731z M426.364,169.591c1.055,0,1.055-2.094,0-2.094
			C425.309,167.497,425.309,169.591,426.364,169.591z M422.542,166.803c1.063,0,1.063-2.094,0-2.094
			C421.493,164.709,421.493,166.803,422.542,166.803z M419.003,164.188c1.049,0,1.049-2.096,0-2.096
			C417.946,162.092,417.946,164.188,419.003,164.188z M415.04,162.441c1.064,0,1.064-2.094,0-2.094
			C413.985,160.347,413.985,162.441,415.04,162.441z M410.412,161.742c1.056,0,1.056-2.085,0-2.085
			C409.36,159.657,409.36,161.742,410.412,161.742z M405.915,162.092c1.051,0,1.051-2.094,0-2.094
			C404.858,159.998,404.858,162.092,405.915,162.092z M401.962,162.962c1.05,0,1.05-2.085,0-2.085
			C400.907,160.876,400.907,162.962,401.962,162.962z M397.462,164.188c1.055,0,1.055-2.096,0-2.096
			C396.405,162.092,396.405,164.188,397.462,164.188z M393.375,166.276c1.05,0,1.05-2.088,0-2.088
			C392.313,164.188,392.313,166.276,393.375,166.276z M389.825,168.543c1.057,0,1.057-2.09,0-2.09
			C388.771,166.453,388.771,168.543,389.825,168.543z M386.28,170.987c1.055,0,1.055-2.096,0-2.096
			C385.23,168.891,385.23,170.987,386.28,170.987z M383.148,173.602c1.05,0,1.05-2.09,0-2.09
			C382.086,171.512,382.086,173.602,383.148,173.602z M378.511,174.817c1.062,0,1.062-2.086,0-2.086
			C377.454,172.731,377.454,174.817,378.511,174.817z M373.462,175.868c1.056,0,1.056-2.086,0-2.086
			C372.409,173.782,372.409,175.868,373.462,175.868z M368.829,177.436c1.057,0,1.057-2.087,0-2.087
			C367.774,175.349,367.774,177.436,368.829,177.436z M365.153,179.532c1.056,0,1.056-2.096,0-2.096
			C364.09,177.436,364.09,179.532,365.153,179.532z M361.738,182.147c1.056,0,1.056-2.094,0-2.094
			C360.691,180.054,360.691,182.147,361.738,182.147z M359.016,185.984c1.056,0,1.056-2.096,0-2.096
			C357.96,183.888,357.96,185.984,359.016,185.984z M357.105,191.383c1.048,0,1.048-2.089,0-2.089
			C356.049,189.293,356.049,191.383,357.105,191.383z M355.872,196.624c1.056,0,1.056-2.098,0-2.098
			C354.826,194.525,354.826,196.624,355.872,196.624z M355.058,201.85c1.056,0,1.056-2.09,0-2.09
			C354.008,199.76,354.008,201.85,355.058,201.85z M354.917,205.339c-1.045,0-1.045,2.089,0,2.089
			C355.982,207.428,355.982,205.339,354.917,205.339z M355.195,210.91c-1.056,0-1.056,2.1,0,2.1
			C356.25,213.01,356.25,210.91,355.195,210.91z M355.467,217.366c-1.057,0-1.057,2.09,0,2.09
			C356.522,219.456,356.522,217.366,355.467,217.366z M356.7,222.776c-1.063,0-1.063,2.089,0,2.089
			C357.755,224.865,357.755,222.776,356.7,222.776z M357.785,228.174c-1.055,0-1.055,2.094,0,2.094
			C358.842,230.269,358.842,228.174,357.785,228.174z M359.016,233.934c-1.056,0-1.056,2.09,0,2.09
			C360.072,236.024,360.072,233.934,359.016,233.934z M359.967,240.032c-1.056,0-1.056,2.094,0,2.094
			S361.023,240.032,359.967,240.032z M360.782,247.883c1.065,0,1.065-2.098,0-2.098
			C359.736,245.785,359.736,247.883,360.782,247.883z M361.329,251.019c-1.056,0-1.056,2.09,0,2.09
			C362.387,253.109,362.387,251.019,361.329,251.019z M361.469,256.772c-1.055,0-1.055,2.094,0,2.094
			C362.521,258.866,362.521,256.772,361.469,256.772z M361.6,264.274c1.063,0,1.063-2.099,0-2.099
			C360.543,262.175,360.543,264.274,361.6,264.274z M361.06,270.89c1.057,0,1.057-2.083,0-2.083
			C359.998,268.807,359.998,270.89,361.06,270.89z M360.514,275.953c-1.049,0-1.049,2.092,0,2.092S361.563,275.953,360.514,275.953z
			 M359.566,284.668c1.049,0,1.049-2.094,0-2.094C358.503,282.574,358.503,284.668,359.566,284.668z M358.61,290.603
			c1.049,0,1.049-2.09,0-2.09C357.547,288.513,357.547,290.603,358.61,290.603z M357.919,297.048c1.063,0,1.063-2.085,0-2.085
			C356.864,294.963,356.864,297.048,357.919,297.048z M357.518,300.362c-1.066,0-1.066,2.096,0,2.096
			C358.57,302.458,358.57,300.362,357.518,300.362z M357.785,306.115c-1.055,0-1.055,2.094,0,2.094
			C358.842,308.209,358.842,306.115,357.785,306.115z M358.875,312.215c-1.052,0-1.052,2.094,0,2.094
			C359.931,314.309,359.931,312.215,358.875,312.215z M362.421,315.535c1.052,0,1.052-2.098,0-2.098
			C361.366,313.437,361.366,315.535,362.421,315.535z M367.743,316.054c1.057,0,1.057-2.092,0-2.092
			C366.681,313.962,366.681,316.054,367.743,316.054z M372.923,316.403c1.057,0,1.057-2.094,0-2.094
			S371.866,316.403,372.923,316.403z M377.964,316.403c1.056,0,1.056-2.094,0-2.094
			C376.907,314.309,376.907,316.403,377.964,316.403z M382.327,315.886c1.063,0,1.063-2.098,0-2.098
			C381.272,313.788,381.272,315.886,382.327,315.886z M386.688,315.186c1.056,0,1.056-2.094,0-2.094
			C385.632,313.092,385.632,315.186,386.688,315.186z M390.64,314.135c1.057,0,1.057-2.094,0-2.094
			C389.585,312.041,389.585,314.135,390.64,314.135z M394.87,313.267c1.053,0,1.053-2.094,0-2.094
			C393.813,311.173,393.813,313.267,394.87,313.267z M399.502,312.397c1.056,0,1.056-2.099,0-2.099S398.446,312.397,399.502,312.397
			z M404.413,311.521c1.055,0,1.055-2.09,0-2.09C403.351,309.431,403.351,311.521,404.413,311.521z M408.907,311.866
			c1.063,0,1.063-2.092,0-2.092C407.853,309.774,407.853,311.866,408.907,311.866z M413.817,312.397c1.057,0,1.057-2.099,0-2.099
			C412.762,310.299,412.762,312.397,413.817,312.397z M418.45,313.267c1.055,0,1.055-2.094,0-2.094
			C417.397,311.173,417.397,313.267,418.45,313.267z M422.948,315.186c1.059,0,1.059-2.094,0-2.094
			C421.899,313.092,421.899,315.186,422.948,315.186z M426.903,316.23c1.063,0,1.063-2.095,0-2.095
			C425.854,314.135,425.854,316.23,426.903,316.23z M431.405,316.926c1.063,0,1.063-2.094,0-2.094
			C430.349,314.832,430.349,316.926,431.405,316.926z M435.628,317.621c1.057,0,1.057-2.085,0-2.085
			C434.572,315.535,434.572,317.621,435.628,317.621z M440.813,317.803c1.052,0,1.052-2.099,0-2.099
			C439.757,315.705,439.757,317.803,440.813,317.803z M445.854,317.452c1.056,0,1.056-2.091,0-2.091
			C444.798,315.361,444.798,317.452,445.854,317.452z"/>
	</g>
</g>
</svg>
