<?xml version="1.0" encoding="utf-8"?>
<!-- Generator: Adobe Illustrator 16.0.0, SVG Export Plug-In . SVG Version: 6.00 Build 0)  -->
<!DOCTYPE svg PUBLIC "-//W3C//DTD SVG 1.1//EN" "http://www.w3.org/Graphics/SVG/1.1/DTD/svg11.dtd">
<svg version="1.1" id="Capa_1" xmlns="http://www.w3.org/2000/svg" xmlns:xlink="http://www.w3.org/1999/xlink" x="0px" y="0px"
	 width="400px" height="400px" viewBox="0 0 400 400" enable-background="new 0 0 400 400" xml:space="preserve">
<g>
	<g>
		<g>
			<g>
				<path fill="#66301B" d="M196.488,344.337c0.365-5.516,0.247-15.698,0.247-15.698l17.604,0.149c0,0-0.629,8.218,0.035,14.763
					c0.386,3.806,1.769,6.412,2.495,8.168c0.824,1.994,5.851,8.433,7.51,11.13c2.316,3.772,1.002,8.902-4.573,9.626
					c-9.07,1.178-13.757,0.631-17.825-3.14c-2.922-2.708-3.847-8.681-4.924-10.858C195.511,355.357,196.158,349.336,196.488,344.337
					z"/>
				<path fill="none" stroke="#904E3B" stroke-miterlimit="10" d="M224.107,368.293c0,0-4.321,2.757-11.699,2.521
					c-9.746-0.313-10.933-4.765-12.311-7.396c-1.379-2.629-1.923-6.519-3.243-8.248"/>
				<path fill="none" stroke="#904E3B" stroke-miterlimit="10" d="M214.75,351.848c0,0-6.649-1.582-9.852,0.723"/>
				<path fill="none" stroke="#904E3B" stroke-miterlimit="10" d="M215.919,355.999c0,0-6.65-1.583-9.852,0.724"/>
			</g>
			<path fill="#424E56" d="M225.306,214.798c0,0-1.945,22.203-2.931,36.842c-0.799,11.865-0.96,31.214-2.269,43.606
				c-1.129,10.698-5.811,38.654-5.811,38.654s-4.269,1.754-9.427,1.635c-5.156-0.124-8.715-3.522-8.715-3.522
				s-1.38-20.28-1.739-37.334c-0.227-10.802,1.497-21.444,0.973-25.581c-1.351-10.673-0.486-51.645-0.486-51.645L225.306,214.798z"
				/>
			<path fill="none" stroke="#343E45" stroke-miterlimit="10" d="M215.185,272.849c0,0-5.583,4.985-13.409,2.39"/>
		</g>
		<g>
			<g>
				<path fill="#66301B" d="M191.267,344.337c-0.365-5.516-0.247-15.698-0.247-15.698l-17.604,0.149c0,0,0.628,8.218-0.035,14.763
					c-0.385,3.806-1.769,6.412-2.496,8.168c-0.825,1.994-5.851,8.433-7.51,11.13c-2.316,3.772-1.002,8.902,4.574,9.626
					c9.071,1.178,13.756,0.631,17.824-3.14c2.923-2.708,3.847-8.681,4.925-10.858C192.244,355.357,191.596,349.336,191.267,344.337z
					"/>
				<path fill="none" stroke="#904E3B" stroke-miterlimit="10" d="M163.648,368.293c0,0,4.32,2.757,11.699,2.521
					c9.746-0.313,10.933-4.765,12.312-7.396c1.378-2.629,1.922-6.519,3.243-8.248"/>
				<path fill="none" stroke="#904E3B" stroke-miterlimit="10" d="M173.006,351.848c0,0,6.648-1.582,9.85,0.723"/>
				<path fill="none" stroke="#904E3B" stroke-miterlimit="10" d="M171.837,355.999c0,0,6.649-1.583,9.851,0.724"/>
			</g>
			<path fill="#424E56" d="M162.449,214.798c0,0,1.946,22.203,2.931,36.842c0.799,11.865,0.96,31.214,2.269,43.606
				c1.129,10.698,5.81,38.654,5.81,38.654s4.27,1.754,9.426,1.635c5.156-0.124,8.715-3.522,8.715-3.522s1.381-20.28,1.74-37.334
				c0.227-10.802-1.497-21.444-0.973-25.581c1.351-10.673,0.487-51.645,0.487-51.645L162.449,214.798z"/>
			<path fill="none" stroke="#343E45" stroke-miterlimit="10" d="M172.571,272.849c0,0,5.583,4.985,13.41,2.39"/>
		</g>
	</g>
	<path fill="#652828" d="M163.695,175.255c-0.176-7.281-1.6-42.41,2.475-50.721c3.054-6.219,17.655-10.455,30.699-9.723
		c4.375,0.243,11.109,1.205,13.597,1.861c11.323,2.994,16.45,10.737,17.015,18.322c0.282,3.848-3.563,23.625-3.058,40.712
		c0.285,9.724-0.28,17.182-0.303,21.071c-0.024,3.891,3.271,20.311,1.517,25.888c-1.329,4.223-22.296,0.902-29.126,0.902
		c-6.831,0-32.36-3.458-33.777-8.617C161.314,209.794,163.873,182.537,163.695,175.255z"/>
	<path fill="#C0512D" d="M185.739,120.244c0,0,0,10.16,3.414,18.512c3.413,8.353,2.101,31.396,0.398,42.256
		c-1.703,10.859-8.612,42.326-3.892,43.68c1.59,0.458,18.327,8.062,19.216,0.724c0.965-7.972,2.344-32.054,1.945-51.402
		c-0.324-15.71-2.408-27.802-2.137-29.613c0.911-6.097,0.852-20.997,0.624-21.9C205.08,121.599,185.739,120.244,185.739,120.244z"/>
	<path fill="none" stroke="#A34325" stroke-miterlimit="10" d="M197.798,131.532c0,0,0,10.836-0.91,17.158
		c-0.91,6.321-0.771,34.011,0.932,42.94"/>
	<path fill="#D77407" d="M228.444,128.446c0,0,4.987,3.587,6.318,17.574c1.331,13.988,4.188,21.367,5.187,28.18
		c0.997,6.813,2.659,12.911-0.665,19.008c-3.325,6.096-12.276,19.901-15.827,20.237c-3.167,0.3-6.651-8.607-6.319-13.989
		c0.333-5.379,3.991-31.559,4.988-39.089C223.124,152.836,228.444,128.446,228.444,128.446z"/>
	<g>
		<path fill="#D77407" d="M211.695,115.202c0,0,18.886,9.031,18.886,15.353c0,6.321-4.803,26.79-5.123,38.831
			c-0.319,12.04,1.98,24.985,2.302,36.122c0.083,2.915,2.661,8.627,2.577,12.04c-0.084,3.483-2.374,8.737-2.729,10.837
			c-0.355,2.101,0.618,6.444,0.131,8.375c-0.486,1.932-26.219,11.15-28.458,6.033s-0.873-36.382,0.606-59.56
			C201.209,162.493,211.695,115.202,211.695,115.202z"/>
		<path fill="#D77407" d="M181.288,114.299c0,0,8.283,41.541,10.524,50.872c2.241,9.332,2.841,27.845,2.841,37.477
			c0,9.631,2.604,39.13-0.596,41.538s-16.866-1.66-21.533-2.601c-4.667-0.939-13.135-3.619-13.377-8.446
			c-0.32-6.345,0.697-61.646,0.697-70.978s0.64-33.715,4.161-38.23C167.525,119.416,181.288,114.299,181.288,114.299z"/>
		<path fill="#DB9046" d="M206.577,111.509c0.73-0.151,11.482,2.905,9.243,7.723c-2.243,4.815-2.549,7.829-0.244,10.136
			c2.306,2.307-0.973,11.101-3.405,19.065c-1.948,6.377-6.093,21.918-7.054,29.441c-0.96,7.526-4.985,30.513-6.263,30.943
			c-1.278,0.43,2.585-51.173,3.546-58.698c0.539-4.22,1.771-20.167,3.744-27.876C207.282,117.796,205.846,111.659,206.577,111.509z"
			/>
		<path fill="#DB9046" d="M185.659,110.544c0,0-3.091,4.958,1.391,17.902c4.481,12.944,7.283,41.69,7.604,46.206
			c0.32,4.516,1.428,31.7,0.005,33.147c-1.422,1.446-7.26-44.869-12.102-53.466c-4.682-8.315-10.976-22.653-7.843-24.725
			c4.378-2.896-1.107-8.086-2.067-12C171.685,113.696,179.896,110.846,185.659,110.544z"/>
	</g>
	<path fill="none" stroke="#B56004" stroke-miterlimit="10" d="M229.435,134.269c0,0-0.631,8.408-2.206,15.198
		c-1.577,6.792-2.837,20.374-2.522,25.548c0.235,3.872-0.586,11.905-1.412,18.413c-0.277,2.192-1.109,8.106-1.425,10.045
		c-0.315,1.942,5.359,7.114,5.359,7.114"/>
	<path fill="none" stroke="#B56004" stroke-miterlimit="10" d="M232.901,150.438c0,0-1.261,4.529-3.151,8.409
		c-1.893,3.88-3.783,10.672-3.783,10.672"/>
	<path fill="none" stroke="#B56004" stroke-miterlimit="10" d="M238.684,179.564c0,0-2.433,3.378-7.054,3.62
		c-1.718,0.09-6.05,2.996-6.05,2.996"/>
	<path fill="none" stroke="#B56004" stroke-miterlimit="10" d="M238.125,188.127c0,0-5.521-2.289-10.581-0.176"/>
	<path fill="none" stroke="#B56004" stroke-miterlimit="10" d="M219.87,202.363c0,0-1.819,9.854-2.124,15.706
		c-0.303,5.851,5.765,10.164,8.192,10.164"/>
	<path fill="none" stroke="#B56004" stroke-miterlimit="10" d="M176.484,200.39c0,0,0,11.439-0.303,16.255s-4.551,6.622-8.192,7.525
		c-3.64,0.902-8.115-0.442-8.115-0.442"/>
	<path fill="none" stroke="#B56004" stroke-miterlimit="10" d="M173.451,199.486c0,0-11.392,1.559-13.819,2.763"/>
	<g>
		<path fill="#C0512D" d="M182.74,104.028c-5.015,0-2.676,3.137-3.162,4.343c-0.486,1.208-2.676,1.931-2.189,5.792
			c0.486,3.861,0.729,5.31,6.081,8.206s4.621,18.582,16.054,16.893c3.879-0.573,6.323,0,7.054-4.103
			c0.729-4.103-0.73-12.549,2.188-13.273c2.92-0.725,3.648-3.379,4.379-6.999c0.729-3.62-1.946-5.309-1.946-5.309
			s1.946-4.345-0.73-5.551C207.792,102.821,186.875,104.028,182.74,104.028z"/>
		<path fill="none" stroke="#A34325" stroke-miterlimit="10" d="M192.792,112.342c0,0,9.785,4.515,11.605,9.708
			s1.365,11.288,0.455,14.449"/>
		<path fill="none" stroke="#A34325" stroke-miterlimit="10" d="M201.895,128.145c0,0-3.641-5.869-8.647-8.352
			c-5.005-2.484-10.694-7.451-10.239-10.16"/>
		<path fill="none" stroke="#A34325" stroke-miterlimit="10" d="M203.488,132.66c0,0-13.654-4.966-17.75-11.288"/>
		<path fill="none" stroke="#A34325" stroke-miterlimit="10" d="M202.577,117.535c3.868-2.031,4.552-6.998,4.552-6.998"/>
	</g>
	<g>
		<g>
			<path fill="#FFC4A7" d="M209.035,78.007c-3.29-6.741-13.564-7.715-19.106-5.293c-8.516,3.722-9.914,14.611-7.886,23.981
				c1.115,5.15,2.823,9.988,6.993,12.723c9.057,5.94,16.098,1.262,18.29-1.504c2.441-3.081,3.523-11.797,3.764-14.906
				C211.443,88.457,212.324,84.75,209.035,78.007z"/>
		</g>
		<path fill="#FFC4A7" d="M181.902,88.181c-2.996-1.61-5.572,2.731-3.892,7.24c1.68,4.508,5.351,5.953,6.648,3.217
			C184.613,95.88,184.897,89.792,181.902,88.181z"/>
		<g>
			<path fill="#88554E" d="M193.273,95.502c-0.041,1.27-1.112,2.27-2.393,2.229c-1.282-0.044-2.287-1.105-2.248-2.377
				c0.042-1.272,1.113-2.267,2.396-2.226C192.309,93.167,193.313,94.232,193.273,95.502z"/>
		</g>
		<g>
			<path fill="#88554E" d="M203.398,95.857c-0.04,1.271,0.923,2.33,2.153,2.371c1.231,0.039,2.264-0.961,2.306-2.231
				c0.039-1.269-0.927-2.332-2.158-2.369C204.472,93.589,203.439,94.586,203.398,95.857z"/>
		</g>
		<g>
			<path fill="#F38C7A" d="M198.842,93.044c0,0,0.098,0.181,0.221,0.498c0.136,0.315,0.277,0.767,0.427,1.3
				c0.082,0.267,0.146,0.554,0.209,0.858c0.067,0.298,0.145,0.577,0.198,0.881c0.036,0.124-0.021-0.055,0.038,0.038
				c0.052,0.055,0.156,0.145,0.275,0.24c0.237,0.201,0.548,0.417,0.855,0.704c0.306,0.286,0.656,0.628,0.884,1.204
				c0.113,0.284,0.16,0.635,0.113,0.957c-0.056,0.336-0.145,0.568-0.326,0.842l-0.158,0.202c-0.088,0.101-0.177,0.199-0.271,0.287
				c-0.185,0.157-0.344,0.279-0.522,0.371c-0.347,0.198-0.69,0.291-0.998,0.347c-0.614,0.12-1.114,0.062-1.453,0.001
				c-0.34-0.064-0.524-0.143-0.524-0.143s0.181-0.085,0.473-0.235c0.291-0.147,0.696-0.366,1.101-0.646
				c0.199-0.145,0.397-0.308,0.551-0.487c0.083-0.081,0.154-0.188,0.2-0.264c0.012-0.037,0.031-0.065,0.051-0.093l0.109-0.229
				c0.02-0.121,0.007-0.152-0.041-0.22c-0.048-0.092-0.221-0.289-0.451-0.489c-0.274-0.23-0.547-0.46-0.817-0.687
				c-0.152-0.138-0.312-0.291-0.482-0.509c-0.165-0.174-0.395-0.677-0.364-0.899c-0.037-0.778,0.033-1.432,0.143-1.985
				C198.482,93.772,198.842,93.044,198.842,93.044z"/>
		</g>
		<path fill="none" stroke="#F38C7A" stroke-miterlimit="10" d="M193.207,104.649c0,0,3.612,2.677,7.805,0.269"/>
		<g>
			<g>
				<path fill="#67493D" d="M188.224,89.606c2.07,0.107,4.142,0.187,6.203,0.148c0.215-0.004,0.427-0.276,0.273-0.476
					c-0.59-0.767-1.084-1.117-2.079-1.228c-1.474-0.163-2.92-0.079-4.398-0.062C187.175,88.001,187.188,89.553,188.224,89.606
					L188.224,89.606z"/>
			</g>
		</g>
		<g>
			<g>
				<path fill="#67493D" d="M208.872,88.674c-2.107-0.152-4.902-0.942-6.456,0.847c-0.188,0.215-0.058,0.518,0.224,0.54
					c2.065,0.165,4.149,0.212,6.232,0.23C209.926,90.3,209.9,88.748,208.872,88.674L208.872,88.674z"/>
			</g>
		</g>
		<g>
			<path fill="#67493D" d="M209.879,73.522c-1.029-1.084-4.222-0.88-4.222-0.88s-3.51-4.323-5.325-4.529
				c-1.814-0.205-4.08,1.169-5.467,0.136c-1.39-1.034-4.518-1.226-5.427-1.218c-3.399,0.035-6.292,1.02-8.203,5.173
				c-0.76,1.654-0.458,2.986-1.337,4.025c-1.329,1.566-3.212,1.718-4.224,4.088c-1.681,3.938-0.422,9.474,1.2,9.957
				c1.979,0.589,1.995,1.061,2.595,2.252c0.973,1.93,2.217,3.729,3.081,3.54c1.769-0.39-0.041-6.08,2.406-5.784
				c0.968,0.117,2.831-0.499,3.084-1.366c0.388-1.324,0.611-2.544,1.725-2.902c1.113-0.357,4.673,2.474,7.026-1.443
				c1.331-2.221,0.819-2.016,5.073-2.337c0.439-0.029,0.805-0.067,1.13-0.106c1.159,3.185,4.93,4.212,5.702,5.214
				c0.772,1.001,0.973,5.485,2.556,5.346c1.582-0.14,3.741-3.356,2.977-7.589c-0.768-4.232-3.375-4.589-2.678-6.706
				C212.252,76.271,210.909,74.608,209.879,73.522z"/>
			<path fill="none" stroke="#805A42" stroke-miterlimit="10" d="M205.496,72.594c0,0,0.538,5.736-1.533,8.188"/>
			<path fill="none" stroke="#805A42" stroke-miterlimit="10" d="M202.058,75.816c0,0-4.758,2.294-6.722,0.688
				c-1.96-1.609-4.422-1.462-5.171,1.175c-0.75,2.636-2.358,4.138-3.927,4.313c-1.569,0.178-3.374,1.45-3.236,3.673
				c0.301,4.883-1.262,4.836-2.627,5.681"/>
			<path fill="none" stroke="#805A42" stroke-miterlimit="10" d="M178.499,86.861c0.046-1.55,1.074-5.949,4.912-7.39
				c3.84-1.434,3.352-2.813,4.394-4.964c1.903-3.933,7.252-3.552,8.78-2.398"/>
			<path fill="none" stroke="#805A42" stroke-miterlimit="10" d="M207.745,79.751c0,0-1.19,2.4,1.238,3.361
				c2.426,0.958,3.168,3.224,2.917,4.104"/>
		</g>
		<path fill="#67493D" d="M210.766,96.226c0,0,0.324,1.93,0,4.987c-0.325,3.057,1.622,6.596-2.432,9.171
			c-4.055,2.574-4.379,3.056-6,4.665c-1.623,1.609-5.352,1.288-6.973,0.162c-1.622-1.127-2.919-1.288-4.866-1.127
			c-1.945,0.161-3.729-1.93-4.378-2.734c-0.648-0.804-1.136-2.574-1.946-3.057c-0.811-0.483-2.107-4.022-2.107-5.631
			c0-1.609-0.162-7.884-0.162-7.884s0.648-2.091,1.135-1.93s0.972,2.896,1.135,4.987c0.163,2.092,0.649,4.022,1.784,5.953
			c0.816,1.39,1.783,2.091,3.081,3.057c1.297,0.965,3.729,2.093,6,2.253c2.103,0.147,4.378-0.001,6.324-0.322
			c1.945-0.322,4.216-1.127,5.676-2.896C208.494,104.109,209.63,96.869,210.766,96.226z"/>
		<path fill="#67493D" d="M195.329,101.151c0.54-0.198,0.921-0.468,1.491-0.509c0.942-0.066,1.596,0.6,2.649,0.373
			c0.977-0.211,1.939,0.417,2.238,1.299c0.664,0.574,1.246,1.563,1.021,2.252c-0.425,1.295-1.457,0.53-2.19-0.212
			c-0.157,0.428-0.457,0.749-1.04,0.699c-0.261-0.022-0.464-0.208-0.592-0.43c-0.223-0.389,0.02-0.267-0.198,0.057
			c-0.11,0.165-0.231,0.201-0.417,0.28c-0.699,0.299-1.364-0.969-1.58-0.72c-0.576,0.667-1.159,0.25-1.559-0.298
			c-0.795,0.378-1.7,1.105-2.099-0.332C192.726,102.427,194.416,101.485,195.329,101.151z"/>
	</g>
	<path fill="none" stroke="#A34325" stroke-miterlimit="10" d="M187.847,128.644c0,0,3.649,9.895,14.352,10.377"/>
	<g>
		<path fill="#7D3116" d="M182.172,114.246c-0.899,2.855-0.543,3.421-1.622,6.274c-1.078,2.855-1.646,7.383-1.107,8.632
			c0.539,1.249,8.892,6.331,8.892,6.331s10.346-8.293,10.525-10.968c0.18-2.676-1.438-2.854-1.438-2.854s2.099-2.861,0.48-5.001
			c-0.691-0.913-2.27-0.161-2.27-0.161s0.753-2.808-0.325-3.7c-1.079-0.893-2.432,0.322-2.432,0.322s1.135-2.735-1.566-3.053
			c-1.117-0.131-3.073,2.315-3.461,3.856c-0.388,1.542-1.418,2.698-1.752,3.279c-0.429,0.743-0.351-1.117,0.25-2.867
			c0.528-1.538,0.422-2.801,0.204-3.308C186.011,109.779,183.072,111.393,182.172,114.246z"/>
		<path fill="none" stroke="#914535" stroke-miterlimit="10" d="M185.577,117.142c0,0-2.108,3.377-1.946,4.987"/>
		<line fill="none" stroke="#914535" stroke-miterlimit="10" x1="190.604" y1="117.142" x2="192.875" y2="113.12"/>
		<line fill="none" stroke="#914535" stroke-miterlimit="10" x1="193.685" y1="119.394" x2="195.632" y2="116.498"/>
		<path fill="none" stroke="#914535" stroke-miterlimit="10" d="M195.145,125.025c0,0,1.472-1.582,2.276-3.365"/>
	</g>
	<path fill="#D77407" d="M179.443,129.152c0,0-1.649,0.699-4.892,8.099c-3.244,7.4-4.459,8.768-4.459,8.768
		s2.692-9.867,3.444-17.581c0.451-4.628,0.69-7.517-1.499-8.724c-2.189-1.207-6.532,0.588-10.322,4.732
		c-4.534,4.959-8.874,13.826-10.11,27.847c-2.27,25.742-3.648,37.728,5.757,42.554c9.405,4.826,25.621-27.028,28.215-36.038
		c2.595-9.011,4.865-24.777,4.865-24.777L179.443,129.152z"/>
	<path fill="none" stroke="#B56004" stroke-miterlimit="10" d="M172.767,129.609c0,0-0.73,9.653-1.946,13.273"/>
	<path fill="none" stroke="#B56004" stroke-miterlimit="10" d="M165.956,152.053c0,0,9.704-19.497,13.487-22.901"/>
	<path fill="none" stroke="#B56004" stroke-miterlimit="10" d="M161.091,195.25c0,0,4.404-0.959,10.702-9.17
		c4.643-6.052,10.599-18.697,14.108-30.166"/>
</g>
<g>
	<path fill="#351712" d="M221.809,76.976c-0.256-3.168-5.472-3.322-7.619-3.719c-4.818-0.892-9.852-1.083-14.807-1.306
		c-4.157-0.187-8.314-0.696-12.501-0.475c-3.385,0.18-6.78,0.438-10.128,0.871c-1.958,0.253-4.615,0.651-6.21,2.074
		c-0.432,0.385-1.023,1.061-1.195,1.632c-0.237,0.782,0.208,1.239,0.333,1.954l1.064,0.792c1.234,1.068,3.218,1.49,4.699,2.077
		c1.805,0.715,3.552,0.896,5.493,1.185c4.177,0.622,8.433,1.064,12.661,1.39c6.673,0.515,13.466,1.48,20.068-0.101
		c2.732-0.654,5.477-1.49,7.417-3.932C221.712,78.624,221.893,78.002,221.809,76.976z"/>
	<path fill="#56271C" d="M176.242,80.282c0.089-0.989,0.728-19.963,3.104-22.158c5.674-5.243,28.017-4.353,31.209,0.198
		c3.059,4.36,4.433,23.74,4.433,23.74s-5.319,2.967-18.353,2.374S176.242,80.282,176.242,80.282z"/>
	<path fill="#753427" d="M194.907,56.257c-0.641-0.417-1.492-0.367-2.219-0.407c-1.846-0.102-3.637-0.03-5.498,0.333
		c-1.533,0.298-3.527,0.303-4.885,1.237c-0.244,0.168-0.457,0.376-0.644,0.613c-0.223,0.148-0.424,0.323-0.586,0.531
		c-0.875,1.121-0.789,2.732-0.929,4.11c-0.149,1.46-0.408,2.909-0.569,4.365c-0.165,1.48-0.32,3.088,0.256,4.502
		c0.64,1.57,2.74,3.354,4.355,2.399c1.241-0.733,1.351-3.128,1.507-4.476c0.203-1.739,0.564-3.568,0.997-5.255
		c0.34-1.33,1.079-2.688,2.193-3.352c1.281-0.763,2.875-1.147,4.289-1.486c0.837-0.201,2.086-0.306,2.519-1.25
		C196.018,57.411,195.481,56.631,194.907,56.257z"/>
	<path fill="#934032" d="M183.468,58.396c-0.451-0.106-0.792-0.09-1.052,0.016c-1.246,0.367-1.042,2.043-1.143,3.172
		c-0.078,0.869-0.289,2.947,0.662,3.344c1.22,0.509,1.612-1.609,1.981-2.377c0.266-0.551,0.536-0.878,1.014-1.171
		c0.382-0.233,1.072-0.348,1.182-0.923C186.335,59.297,184.154,58.558,183.468,58.396z"/>
	<path fill="#345B60" d="M176.419,74.57c0,0,7.581,4.226,18.686,3.709c17.555-0.816,19.217-2.745,19.217-2.745l0.864,7.345
		l-15.892,3.042l-12.834-1.854l-10.64-3.042L176.419,74.57z"/>
	<path fill="#417175" d="M180.143,76.499c-0.442,0.036-1.207-0.394-1.599-0.096c-0.412,0.312-0.377,1.38-0.396,1.86
		c-0.058,1.487-0.422,3.495-0.052,4.913c0.403,1.541,2.165,1.804,3.394,2c0.812,0.131,3.09,0.835,3.644-0.067
		c0.509-0.83,0.196-2.852,0.196-3.862c0-1.124,0.179-2.312-0.713-3.061c-0.776-0.651-1.778-0.827-2.678-1.078
		c-0.882-0.246-1.971-0.894-2.859-0.832c-1.555,0.108-0.499,1.687-0.598,2.745L180.143,76.499z"/>
	<path fill="#753427" d="M169.237,76.523c0,0,7.713,6.894,26.865,6.232c22.875-0.792,25.712-5.045,25.712-5.045
		s0.621,3.462-1.861,5.639c-2.758,2.417-13.301,4.724-22.787,4.55c-16.225-0.296-23.237-2.859-25.18-4.847
		C168.794,79.788,169.237,76.523,169.237,76.523z"/>
	<path fill="#934032" d="M190.233,84.233c-0.477-0.939-2.496-0.761-3.308-0.761c-1.288,0-2.591-0.081-3.857-0.239
		c-2.238-0.28-4.199-0.906-6.317-1.708c-0.967-0.366-1.962-0.604-2.863-1.224c-0.655-0.452-1.78-1.509-2.274-0.259
		c-0.351,0.889,0.254,1.438,1.11,1.827c0.099,0.071,0.202,0.139,0.303,0.21c0.903,0.641,1.829,1.167,2.855,1.451
		c2.537,0.701,5.261,1.32,7.851,1.875C184.516,85.573,191.324,86.382,190.233,84.233z"/>
</g>
</svg>
