<?xml version="1.0" encoding="utf-8"?>
<!-- Generator: Adobe Illustrator 16.0.0, SVG Export Plug-In . SVG Version: 6.00 Build 0)  -->
<!DOCTYPE svg PUBLIC "-//W3C//DTD SVG 1.1//EN" "http://www.w3.org/Graphics/SVG/1.1/DTD/svg11.dtd">
<svg version="1.1" id="Layer_1" xmlns="http://www.w3.org/2000/svg" xmlns:xlink="http://www.w3.org/1999/xlink" x="0px" y="0px"
	 width="800px" height="800px" viewBox="0 0 800 800" enable-background="new 0 0 800 800" xml:space="preserve">
<g>
	<g>
		<linearGradient id="SVGID_1_" gradientUnits="userSpaceOnUse" x1="403.2373" y1="379.9458" x2="393.2305" y2="379.9458">
			<stop  offset="0" style="stop-color:#000000"/>
			<stop  offset="0.0844" style="stop-color:#1C1D1E"/>
			<stop  offset="0.176" style="stop-color:#333536"/>
			<stop  offset="0.2725" style="stop-color:#444647"/>
			<stop  offset="0.3764" style="stop-color:#4E5052"/>
			<stop  offset="0.5004" style="stop-color:#515355"/>
			<stop  offset="0.6025" style="stop-color:#4C4E50"/>
			<stop  offset="0.7276" style="stop-color:#3D3F41"/>
			<stop  offset="0.8642" style="stop-color:#252728"/>
			<stop  offset="1" style="stop-color:#050708"/>
		</linearGradient>
		<path fill="url(#SVGID_1_)" d="M398.978,564.604c-2.104,0-3.809-1.705-3.814-3.805c-0.322-118.664-0.322-243.745,0-361.711
			c0.006-2.102,1.711-3.801,3.814-3.801h0.01c2.105,0.004,3.807,1.717,3.803,3.822c-0.322,117.953-0.322,243.018,0,361.668
			c0.004,2.107-1.697,3.818-3.803,3.826H398.978z"/>
		<path fill="#151616" d="M398.989,565.104h-0.002h-0.01c-2.372,0-4.308-1.932-4.314-4.305c-0.322-118.666-0.322-243.744,0-361.712
			c0.007-2.371,1.942-4.3,4.314-4.3c1.162,0.002,2.244,0.453,3.057,1.271c0.812,0.816,1.258,1.9,1.256,3.053
			c-0.322,117.953-0.322,243.015,0,361.666C403.294,563.153,401.365,565.095,398.989,565.104z M398.986,195.788
			c-1.831,0-3.318,1.481-3.323,3.302c-0.322,117.968-0.322,243.044,0,361.708c0.005,1.822,1.492,3.307,3.314,3.307l0.01,0.5
			l-0.002-0.5c1.825-0.008,3.308-1.498,3.305-3.326c-0.322-118.65-0.322-243.715,0-361.669c0.002-0.885-0.341-1.719-0.965-2.346
			C400.701,196.135,399.87,195.79,398.986,195.788z"/>
	</g>
	<path fill="#8C8C8C" d="M399.86,375.961c1.041,0.133,1.916,0.518,2.689,1.055c0.002-57.211,0.074-114.326,0.219-169.938
		c-0.652,1.209-1.549,2.189-2.863,2.648c-2.148,0.75-3.729-0.074-4.766-1.52c-0.143,55.217-0.215,111.904-0.217,168.688
		C396.427,376.092,398.229,375.756,399.86,375.961z"/>
	<g>
		<path fill="#8C8C8C" d="M402.79,199.11c0.004-2.105-1.697-3.818-3.803-3.822h-0.01c-0.723,0-1.391,0.213-1.967,0.563
			c1.104,0.67,1.848,1.873,1.846,3.26c-0.322,117.953-0.322,243.018,0,361.668c0.002,1.389-0.742,2.592-1.848,3.264
			c0.576,0.35,1.246,0.563,1.969,0.563h0.01c2.105-0.008,3.807-1.719,3.803-3.826C402.468,442.128,402.468,317.063,402.79,199.11z"
			/>
	</g>
	<g>
		<linearGradient id="SVGID_2_" gradientUnits="userSpaceOnUse" x1="369.6792" y1="531.9561" x2="369.6792" y2="631.2535">
			<stop  offset="0" style="stop-color:#000000"/>
			<stop  offset="0.0844" style="stop-color:#1C1D1E"/>
			<stop  offset="0.176" style="stop-color:#333536"/>
			<stop  offset="0.2725" style="stop-color:#444647"/>
			<stop  offset="0.3764" style="stop-color:#4E5052"/>
			<stop  offset="0.5004" style="stop-color:#515355"/>
			<stop  offset="0.6025" style="stop-color:#4C4E50"/>
			<stop  offset="0.7276" style="stop-color:#3D3F41"/>
			<stop  offset="0.8642" style="stop-color:#252728"/>
			<stop  offset="1" style="stop-color:#050708"/>
		</linearGradient>
		<path fill="url(#SVGID_2_)" d="M368.499,611.64c-4.498,0-9.002-0.873-13.221-2.713c-12.389-5.404-21.406-18.922-21.441-32.143
			c-0.01-3.611,2.91-6.545,6.52-6.553c0.006,0,0.012,0,0.018,0c3.602,0,6.527,2.914,6.535,6.518
			c0.021,8.008,5.992,16.877,13.596,20.195c9.08,3.963,20.799,0.43,26.129-7.871c5.869-9.137,5.84-20.217,5.811-31.943l-0.004-2.463
			c0-3.611,2.928-6.537,6.537-6.537s6.537,2.926,6.537,6.537l0.004,2.428c0.031,12.498,0.066,26.662-7.885,39.045
			C391.319,605.972,379.946,611.64,368.499,611.64z"/>
		<path fill="#151616" d="M368.499,612.14c-4.714,0-9.229-0.928-13.421-2.756c-12.562-5.479-21.705-19.189-21.741-32.6
			c-0.005-1.879,0.723-3.648,2.048-4.98c1.326-1.332,3.091-2.068,4.971-2.072c3.89,0,7.045,3.146,7.054,7.016
			c0.021,7.824,5.861,16.494,13.296,19.738c2.408,1.051,5.033,1.584,7.804,1.584c7.14,0,14.09-3.637,17.704-9.268
			c5.788-9.01,5.761-20.012,5.731-31.662l-0.004-2.473c0-3.881,3.157-7.037,7.037-7.037s7.037,3.156,7.037,7.037l0.004,2.426
			c0.031,12.566,0.067,26.809-7.964,39.316C391.823,606.112,380.498,612.14,368.499,612.14z M340.374,570.731
			c-1.629,0.004-3.143,0.635-4.28,1.777s-1.761,2.66-1.757,4.273c0.034,13.031,8.926,26.357,21.142,31.686
			c4.063,1.773,8.444,2.672,13.021,2.672c11.662,0,22.665-5.852,28.714-15.271c7.872-12.258,7.837-26.344,7.806-38.773l-0.004-2.428
			c0-3.33-2.708-6.037-6.037-6.037s-6.037,2.707-6.037,6.037l0.004,2.461c0.029,11.811,0.058,22.957-5.89,32.215
			c-3.794,5.908-11.074,9.727-18.546,9.727c-2.908,0-5.669-0.561-8.204-1.668c-7.77-3.391-13.873-12.461-13.896-20.652
			C346.402,573.431,343.694,570.731,340.374,570.731z"/>
	</g>
	<g>
		<path opacity="0.3" fill="#8C8C8C" d="M405.519,557.095l-0.004-2.428c0-3.611-2.928-6.537-6.537-6.537
			c-2.975,0-5.48,1.99-6.273,4.709c1.336,0.99,2.213,2.564,2.213,4.355l0.002,2.018c0.027,10.391,0.055,22.168-6.555,32.463
			c-5.25,8.174-14.705,12.887-24.223,12.887c-3.738,0-7.484-0.727-10.992-2.258c-10.299-4.492-17.797-15.73-17.826-26.723
			c-0.006-2.566,1.771-4.707,4.16-5.283c-3.195,0.436-5.654,3.172-5.646,6.486c0.035,13.221,9.053,26.738,21.441,32.143
			c4.219,1.84,8.723,2.713,13.221,2.713c11.447,0,22.82-5.668,29.135-15.5C405.585,583.757,405.55,569.593,405.519,557.095z"/>
		<path opacity="0.3" fill="#8C8C8C" d="M405.519,557.095l-0.004-2.428c0-3.611-2.928-6.537-6.537-6.537
			c-1.373,0-2.635,0.439-3.686,1.162c3.469-0.355,5.148,3.49,5.438,6.518c0.537,5.623-0.191,11.662-0.762,17.262
			c-0.572,5.629-1.479,11.34-3.752,16.563c-5.551,12.74-18.322,20.865-31.631,21.773c1.301,0.15,2.607,0.232,3.914,0.232
			c11.447,0,22.82-5.668,29.135-15.5C405.585,583.757,405.55,569.593,405.519,557.095z"/>
	</g>
	<g>
		<g>
			<path fill="#FFFFFF" d="M440.446,376.985l0.016-0.152l0,0c-0.006,0-0.01,0-0.016,0
				C440.446,376.833,440.446,376.891,440.446,376.985z"/>
			<path fill="#8CD366" d="M440.446,377.485c-0.008,0-0.017,0-0.025-0.001c-0.266-0.014-0.475-0.232-0.475-0.499v-0.152
				c-0.001-0.418,0.6-0.646,0.879-0.335c0.095,0.104,0.148,0.245,0.134,0.386l-0.016,0.152
				C440.917,377.292,440.701,377.485,440.446,377.485z"/>
		</g>
		<g>
			<path fill="#FFFFFF" d="M523.374,376.37c0.01-0.004,0.016-0.006,0.021-0.006c-0.012,0-0.023,0-0.033,0L523.374,376.37z"/>
			<path fill="#8CD366" d="M523.374,376.87c-0.078,0-0.155-0.019-0.226-0.054c-0.169-0.08-0.286-0.253-0.286-0.452
				c0-0.276,0.224-0.5,0.5-0.5h0.001c0.012,0,0.022,0,0.032,0c0.276,0,0.5,0.224,0.5,0.5c0,0.235-0.163,0.433-0.382,0.486
				C523.468,376.863,523.421,376.87,523.374,376.87z"/>
		</g>
		<g>
			<linearGradient id="SVGID_3_" gradientUnits="userSpaceOnUse" x1="502.3115" y1="402.29" x2="502.3115" y2="198.1598">
				<stop  offset="0" style="stop-color:#2B4F17"/>
				<stop  offset="0.0356" style="stop-color:#345F1C"/>
				<stop  offset="0.1168" style="stop-color:#447E25"/>
				<stop  offset="0.2017" style="stop-color:#51972C"/>
				<stop  offset="0.2906" style="stop-color:#5BA831"/>
				<stop  offset="0.3862" style="stop-color:#60B334"/>
				<stop  offset="0.5004" style="stop-color:#62B635"/>
				<stop  offset="0.5906" style="stop-color:#5FB133"/>
				<stop  offset="0.7012" style="stop-color:#57A22F"/>
				<stop  offset="0.8224" style="stop-color:#4A8928"/>
				<stop  offset="0.9504" style="stop-color:#37661E"/>
				<stop  offset="1" style="stop-color:#2F5719"/>
			</linearGradient>
			<path fill="url(#SVGID_3_)" d="M598.649,344.444c-15.785-45.08-62.412-117.6-199.672-129.383h-0.002
				c108.68,15.551,122.662,136.846,124.381,161.301c0,0,0.004,0.002,0.006,0.002c0.01,0,0.021,0,0.033,0
				c55.244-18.586,81.787-1.662,82.232-1.373c0.002-0.002,0.02-0.002,0.02-0.002C604.017,364.069,601.634,353.922,598.649,344.444z"
				/>
			<path fill="#396A1F" d="M523.396,376.864h-0.033c-0.077,0-0.16-0.021-0.229-0.055c-0.158-0.079-0.263-0.235-0.275-0.412
				c-1.696-24.14-15.646-145.344-123.953-160.841c-0.268-0.038-0.456-0.283-0.426-0.552c0.03-0.27,0.271-0.462,0.54-0.441
				c60.66,5.207,109.669,22.809,145.665,52.316c31.689,25.978,47.095,56.429,54.438,77.399c3.088,9.807,5.449,20.109,7.021,30.636
				c0.021,0.145-0.021,0.29-0.115,0.4c-0.087,0.101-0.209,0.162-0.339,0.172c-0.121,0.016-0.231-0.011-0.332-0.077
				c-0.456-0.296-11.426-7.248-34.028-7.248c-14.589,0-30.661,2.919-47.772,8.676C523.504,376.855,523.45,376.864,523.396,376.864z
				 M410.994,216.776c97.313,22.258,110.986,134.223,112.815,158.922c17-5.664,32.983-8.536,47.518-8.536
				c19.536,0,30.565,5.175,33.671,6.881c-1.563-10.12-3.857-20.022-6.825-29.448c-7.296-20.835-22.613-51.111-54.123-76.941
				C510.628,240.255,465.907,223.165,410.994,216.776z"/>
		</g>
		<g>
			<polygon fill="#FFFFFF" points="523.356,376.364 523.362,376.364 523.358,376.362 			"/>
			<path fill="#8CD366" d="M523.362,376.864h-0.006c-0.276,0-0.5-0.224-0.5-0.5c0-0.351,0.402-0.603,0.716-0.454
				c0.171,0.079,0.29,0.253,0.29,0.454c0,0.275-0.223,0.499-0.498,0.5H523.362z"/>
		</g>
		<g>
			<linearGradient id="SVGID_4_" gradientUnits="userSpaceOnUse" x1="461.166" y1="402.29" x2="461.166" y2="198.1603">
				<stop  offset="0" style="stop-color:#2B4F17"/>
				<stop  offset="0.0356" style="stop-color:#345F1C"/>
				<stop  offset="0.1168" style="stop-color:#447E25"/>
				<stop  offset="0.2017" style="stop-color:#51972C"/>
				<stop  offset="0.2906" style="stop-color:#5BA831"/>
				<stop  offset="0.3862" style="stop-color:#60B334"/>
				<stop  offset="0.5004" style="stop-color:#62B635"/>
				<stop  offset="0.5906" style="stop-color:#5FB133"/>
				<stop  offset="0.7012" style="stop-color:#57A22F"/>
				<stop  offset="0.8224" style="stop-color:#4A8928"/>
				<stop  offset="0.9504" style="stop-color:#37661E"/>
				<stop  offset="1" style="stop-color:#2F5719"/>
			</linearGradient>
			<path fill="url(#SVGID_4_)" d="M523.356,376.362c-1.719-24.455-15.701-145.75-124.381-161.301l0,0l0,0
				c36.459,15.648,40.945,138.42,41.471,161.771c0.006,0,0.01,0,0.016,0C492.61,362.67,522.702,376.065,523.356,376.362z"/>
			<path fill="#396A1F" d="M440.462,377.333h-0.016c-0.271,0-0.494-0.217-0.5-0.488c-0.237-10.574-1.464-47.858-7.254-83.706
				c-7.262-44.962-18.672-71.076-33.914-77.618c-0.23-0.099-0.352-0.353-0.284-0.594c0.067-0.242,0.301-0.392,0.553-0.36
				c108.86,15.577,123.049,137.026,124.799,161.622c0.02,0.054,0.03,0.112,0.03,0.174c0,0.276-0.224,0.5-0.5,0.5
				c0,0-0.012,0.001-0.02,0c-0.07,0-0.141-0.015-0.207-0.045c-0.537-0.243-13.433-5.972-36.945-5.972
				c-14.457,0-29.803,2.177-45.611,6.47C440.55,377.327,440.506,377.333,440.462,377.333z M401.934,216.021
				c33.816,20.342,38.401,135.089,38.998,160.167c15.683-4.209,30.91-6.343,45.272-6.343c20.814,0,33.44,4.474,36.595,5.739
				C520.869,349.911,506.328,233.135,401.934,216.021z"/>
		</g>
		<g>
			<linearGradient id="SVGID_5_" gradientUnits="userSpaceOnUse" x1="398.9751" y1="402.29" x2="398.9751" y2="198.1603">
				<stop  offset="0" style="stop-color:#2B4F17"/>
				<stop  offset="0.0356" style="stop-color:#345F1C"/>
				<stop  offset="0.1168" style="stop-color:#447E25"/>
				<stop  offset="0.2017" style="stop-color:#51972C"/>
				<stop  offset="0.2906" style="stop-color:#5BA831"/>
				<stop  offset="0.3862" style="stop-color:#60B334"/>
				<stop  offset="0.5004" style="stop-color:#62B635"/>
				<stop  offset="0.5906" style="stop-color:#5FB133"/>
				<stop  offset="0.7012" style="stop-color:#57A22F"/>
				<stop  offset="0.8224" style="stop-color:#4A8928"/>
				<stop  offset="0.9504" style="stop-color:#37661E"/>
				<stop  offset="1" style="stop-color:#2F5719"/>
			</linearGradient>
			<path fill="url(#SVGID_5_)" d="M398.976,215.061c-36.459,15.648-40.945,138.42-41.473,161.771c0,0,41.471-13.865,82.943,0
				C439.921,353.481,435.435,230.709,398.976,215.061z"/>
			<path fill="#396A1F" d="M440.446,377.333c-0.054,0-0.106-0.009-0.158-0.025c-12.18-4.072-25.563-6.137-39.778-6.137
				c-24.212,0-42.665,6.075-42.849,6.137c-0.156,0.05-0.325,0.023-0.455-0.072c-0.131-0.097-0.207-0.251-0.203-0.414
				c0.55-24.33,5.146-146.498,41.775-162.219c0.127-0.055,0.268-0.055,0.395,0c36.64,15.726,41.226,137.89,41.773,162.219
				c0.004,0.163-0.072,0.317-0.203,0.414C440.656,377.299,440.552,377.333,440.446,377.333z M398.976,215.606
				c-15.143,6.683-26.486,32.766-33.717,77.532c-5.667,35.082-6.964,71.568-7.239,83.008c3.551-1.089,20.721-5.976,42.49-5.976
				c14.061,0,27.319,2.007,39.42,5.965c-0.275-11.447-1.57-47.91-7.237-82.997C425.462,248.372,414.118,222.289,398.976,215.606z"/>
		</g>
		<g>
			<linearGradient id="SVGID_6_" gradientUnits="userSpaceOnUse" x1="295.4072" y1="402.291" x2="295.4072" y2="198.1589">
				<stop  offset="0" style="stop-color:#2B4F17"/>
				<stop  offset="0.0356" style="stop-color:#345F1C"/>
				<stop  offset="0.1168" style="stop-color:#447E25"/>
				<stop  offset="0.2017" style="stop-color:#51972C"/>
				<stop  offset="0.2906" style="stop-color:#5BA831"/>
				<stop  offset="0.3862" style="stop-color:#60B334"/>
				<stop  offset="0.5004" style="stop-color:#62B635"/>
				<stop  offset="0.5906" style="stop-color:#5FB133"/>
				<stop  offset="0.7012" style="stop-color:#57A22F"/>
				<stop  offset="0.8224" style="stop-color:#4A8928"/>
				<stop  offset="0.9504" style="stop-color:#37661E"/>
				<stop  offset="1" style="stop-color:#2F5719"/>
			</linearGradient>
			<path fill="url(#SVGID_6_)" d="M398.976,215.061c-177.943,15.277-203.572,132.627-207.137,159.941
				c0,0,26.701-17.393,82.754,1.373C276.308,351.95,290.276,230.612,398.976,215.061z"/>
			<path fill="#396A1F" d="M274.593,376.875c-0.054,0-0.106-0.009-0.159-0.025c-17.215-5.764-33.388-8.687-48.069-8.687
				c-22.811,0-34.141,7.186-34.253,7.258c-0.164,0.106-0.373,0.109-0.539,0.004c-0.165-0.104-0.255-0.294-0.229-0.487
				c1.818-13.931,9.188-50.073,38.289-84.741c36.676-43.691,93.637-69.138,169.301-75.634c0.258-0.022,0.509,0.172,0.54,0.441
				c0.03,0.269-0.158,0.514-0.426,0.552c-108.318,15.496-122.261,136.712-123.955,160.854c-0.011,0.154-0.093,0.295-0.222,0.381
				C274.787,376.847,274.69,376.875,274.593,376.875z M226.364,367.164c14.615,0,30.687,2.871,47.776,8.534
				c1.832-24.731,15.512-136.683,112.835-158.926c-69.414,8.046-122.049,32.934-156.577,74.067
				c-28.26,33.664-35.905,68.714-37.929,83.226C195.602,372.379,206.868,367.164,226.364,367.164z"/>
		</g>
		<g>
			<linearGradient id="SVGID_7_" gradientUnits="userSpaceOnUse" x1="336.7842" y1="402.29" x2="336.7842" y2="198.1603">
				<stop  offset="0" style="stop-color:#2B4F17"/>
				<stop  offset="0.0356" style="stop-color:#345F1C"/>
				<stop  offset="0.1168" style="stop-color:#447E25"/>
				<stop  offset="0.2017" style="stop-color:#51972C"/>
				<stop  offset="0.2906" style="stop-color:#5BA831"/>
				<stop  offset="0.3862" style="stop-color:#60B334"/>
				<stop  offset="0.5004" style="stop-color:#62B635"/>
				<stop  offset="0.5906" style="stop-color:#5FB133"/>
				<stop  offset="0.7012" style="stop-color:#57A22F"/>
				<stop  offset="0.8224" style="stop-color:#4A8928"/>
				<stop  offset="0.9504" style="stop-color:#37661E"/>
				<stop  offset="1" style="stop-color:#2F5719"/>
			</linearGradient>
			<path fill="url(#SVGID_7_)" d="M398.976,215.061L398.976,215.061C290.276,230.612,276.308,351.95,274.593,376.375
				c0,0,30.193-13.863,82.91,0.457C358.03,353.481,362.517,230.709,398.976,215.061z"/>
			<path fill="#396A1F" d="M357.503,377.333c-0.044,0-0.088-0.006-0.131-0.018c-15.799-4.292-31.138-6.468-45.591-6.468
				c-23.648,0-36.85,5.923-36.98,5.982c-0.159,0.075-0.347,0.058-0.492-0.043s-0.227-0.271-0.215-0.446
				c1.705-24.276,15.732-146.169,124.811-161.774c0.26-0.029,0.484,0.119,0.553,0.36c0.067,0.241-0.054,0.495-0.284,0.594
				c-15.242,6.542-26.652,32.656-33.914,77.618c-5.788,35.832-7.018,73.128-7.256,83.706c-0.004,0.153-0.077,0.297-0.201,0.389
				C357.715,377.298,357.609,377.333,357.503,377.333z M311.781,369.847c14.354,0,29.569,2.132,45.236,6.337
				c0.599-25.079,5.193-139.825,39.001-160.163C291.606,233.135,277.077,349.936,275.15,375.602
				C278.306,374.351,291.106,369.847,311.781,369.847z"/>
		</g>
	</g>
	<g>
		<path fill="#DEF2D3" d="M598.649,344.444c-15.785-45.08-62.412-117.6-199.672-129.383h-0.002l0,0
			c-177.943,15.277-203.572,132.627-207.137,159.941c0,0,26.701-17.393,82.754,1.373c0,0,30.193-13.863,82.91,0.457
			c0,0,41.471-13.865,82.943,0c0.006,0,0.01,0,0.016,0c52.148-14.162,82.24-0.768,82.895-0.471c0,0,0.004,0.002,0.006,0.002
			c0.01,0,0.021,0,0.033,0c55.244-18.586,81.787-1.662,82.232-1.373c0.002-0.002,0.02-0.002,0.02-0.002
			C604.017,364.069,601.634,353.922,598.649,344.444z M429.479,361.602c0,0-13.082,0.129-29.58,0.066
			c-16.496,0.063-29.578-0.066-29.578-0.066c-100.25,0.754-143.299-30.898-120.721-69.711s96.75-66.697,96.75-66.697
			s48.551-14.619,107.098,0c0,0,74.172,27.885,96.75,66.697C572.778,330.704,529.728,362.356,429.479,361.602z"/>
		<g>
			<path fill="#DEF2D3" d="M598.649,344.444c-6.936-19.807-19.828-44.908-43.742-67.83c12.602,12.93,27.537,38.881,34.402,57.512
				c7.621,20.689-3.631,20.689-3.631,20.689c-35.572-3.992-63.158,10.527-63.158,10.527c-37.932-9.98-82.215,5.082-82.215,5.082
				c-40.471-13.611-82.576-1.27-82.576-1.27c-49.545-14.338-82.576,0-82.576,0c-21.416-19.42-70.6-8.531-70.6-8.531
				c0.357-27.492,25.195-69.377,26.012-70.744c-29.545,34.854-36.934,71.381-38.727,85.123c0,0,26.701-17.393,82.754,1.373
				c0,0,30.193-13.863,82.91,0.457c0,0,41.471-13.865,82.943,0c0.006,0,0.01,0,0.016,0c52.148-14.162,82.24-0.768,82.895-0.471
				c0,0,0.004,0.002,0.006,0.002c0.01,0,0.021,0,0.033,0c55.244-18.586,81.787-1.662,82.232-1.373
				c0.002-0.002,0.02-0.002,0.02-0.002C604.017,364.069,601.634,353.922,598.649,344.444z"/>
			<path opacity="0.2" fill="#7BCC50" d="M550.567,272.592c-0.305-0.273-0.609-0.549-0.92-0.822
				C549.933,272.049,550.249,272.321,550.567,272.592z"/>
		</g>
	</g>
</g>
</svg>
