<?xml version="1.0" encoding="utf-8"?>
<!-- Generator: Adobe Illustrator 16.0.0, SVG Export Plug-In . SVG Version: 6.00 Build 0)  -->
<!DOCTYPE svg PUBLIC "-//W3C//DTD SVG 1.1//EN" "http://www.w3.org/Graphics/SVG/1.1/DTD/svg11.dtd">
<svg version="1.1" id="Capa_1" xmlns="http://www.w3.org/2000/svg" xmlns:xlink="http://www.w3.org/1999/xlink" x="0px" y="0px"
	 width="400px" height="400px" viewBox="0 0 400 400" enable-background="new 0 0 400 400" xml:space="preserve">
<g>
	<g>
		
			<radialGradient id="SVGID_1_" cx="200.4414" cy="97.1885" r="115.6996" gradientTransform="matrix(1.0512 0 0 0.4044 -16.2568 212.0226)" gradientUnits="userSpaceOnUse">
			<stop  offset="0.6828" style="stop-color:#919395"/>
			<stop  offset="0.7408" style="stop-color:#919395;stop-opacity:0.7639"/>
			<stop  offset="0.7473" style="stop-color:#919395;stop-opacity:0.7374"/>
			<stop  offset="0.7876" style="stop-color:#9B9C9E;stop-opacity:0.6199"/>
			<stop  offset="0.8549" style="stop-color:#B4B6B7;stop-opacity:0.4235"/>
			<stop  offset="0.9404" style="stop-color:#DEDEDF;stop-opacity:0.174"/>
			<stop  offset="1" style="stop-color:#FFFFFF;stop-opacity:0"/>
		</radialGradient>
		<ellipse fill="url(#SVGID_1_)" cx="194.441" cy="251.33" rx="123.251" ry="49.642"/>
		<g>
			<ellipse fill="#FFFFFF" cx="194.441" cy="244.659" rx="96.541" ry="41.784"/>
			<ellipse fill="#F2F2F2" cx="194.441" cy="244.659" rx="93.822" ry="40.607"/>
			<ellipse fill="#FFFFFF" cx="194.442" cy="244.659" rx="56.179" ry="24.314"/>
			<path fill="#E5E5E6" d="M128.487,273.537c16.947,7.251,40.241,11.729,65.954,11.729c51.816,0,93.822-18.181,93.822-40.607
				c0-10.896-9.917-20.789-26.057-28.084c8.38,13.642,11.465,30.776-11.586,43.823C216.373,279.784,161.539,278.653,128.487,273.537
				z"/>
		</g>
	</g>
	<g>
		<g>
			<ellipse fill="#A5BA2C" cx="194.442" cy="242.215" rx="38.628" ry="16.684"/>
			<path fill="#C1E052" d="M194.441,173.418h-85.484c0,0,0.701,51.743,50.876,72.383c22.16,9.116,47.055,9.116,69.215,0
				c50.174-20.64,50.876-72.383,50.876-72.383H194.441z"/>
			<path fill="#B5D140" d="M233.069,182.931c0,0,3.561,44.577-26.658,59.284c-12.748,6.203-27.032,7.173-39.287,6.221
				c20.231,6.369,42.165,5.494,61.925-2.635c50.174-20.64,50.876-72.383,50.876-72.383h-41.197
				C235.244,179.001,233.069,182.931,233.069,182.931z"/>
			<path fill="#FFFFFF" d="M194.441,211.902c-47.935,0-85.484-16.904-85.484-38.484c0-21.58,37.549-38.485,85.484-38.485
				c47.934,0,85.483,16.905,85.483,38.485C279.925,194.999,242.375,211.902,194.441,211.902z"/>
			<ellipse fill="#E5E5E6" cx="194.442" cy="173.418" rx="82.941" ry="35.898"/>
			<path fill="#BF421A" d="M194.441,156.546c-39.186,0-70.952,13.749-70.952,30.709c0,1.902,0.402,3.764,1.168,5.57
				c14.757,9.92,40.498,16.491,69.784,16.491s55.026-6.57,69.784-16.491c0.765-1.807,1.168-3.668,1.168-5.57
				C265.394,170.295,233.627,156.546,194.441,156.546z"/>
			<g>
				<path fill="#FDEFA2" d="M159.381,169.746c0,0-10.095-7.832-14.207-7.832c-4.113,0-8.934,2.332-8.934,2.332
					s1.928,6.478,4.661,9.259c2.731,2.78,13.973,3.621,15.267,2.305S159.381,169.746,159.381,169.746z"/>
				<path fill="#F8E599" d="M156.167,175.81c0,0-6.428,4.891-10.606,4.891c-4.179,0-11.029-7.181-11.029-9.643
					c0-2.46,0.901-6.813,1.708-6.813C137.046,164.246,151.996,171.565,156.167,175.81z"/>
			</g>
			<g>
				<path fill="#FDEFA2" d="M187.616,155.765c0,0-12.673-0.745-16.082,1.597c-3.409,2.341-6.123,7.018-6.123,7.018
					s5.159,4.272,8.951,5.022c3.793,0.749,13.574-4.954,13.922-6.781C188.633,160.793,187.616,155.765,187.616,155.765z"/>
				<path fill="#F8E599" d="M188.284,162.62c0,0-2.639,7.714-6.103,10.093c-3.464,2.379-13.089,0.326-14.442-1.714
					c-1.352-2.039-2.997-6.16-2.328-6.619C166.079,163.921,182.495,161.476,188.284,162.62z"/>
			</g>
			<g>
				<path fill="#FDEFA2" d="M219.942,171.354c0,0-3.291-12.476-6.547-15.033c-3.256-2.557-8.474-3.708-8.474-3.708
					s-2.361,6.328-1.867,10.228s8.889,11.555,10.704,11.316C215.572,173.918,219.942,171.354,219.942,171.354z"/>
				<path fill="#F8E599" d="M213.759,174.157c0,0-8.025-0.125-11.334-2.722c-3.308-2.598-4.42-12.542-2.944-14.49
					c1.478-1.948,4.804-4.834,5.441-4.333C205.561,153.114,213.004,168.203,213.759,174.157z"/>
			</g>
			<g>
				<path fill="#FDEFA2" d="M237.335,170.861c0,0-3.291-12.477-6.547-15.033c-3.256-2.557-8.474-3.708-8.474-3.708
					s-2.361,6.328-1.867,10.228c0.494,3.899,8.889,11.554,10.704,11.316C232.965,173.425,237.335,170.861,237.335,170.861z"/>
				<path fill="#F8E599" d="M231.151,173.664c0,0-8.025-0.125-11.334-2.721c-3.308-2.598-4.421-12.543-2.944-14.491
					c1.478-1.947,4.804-4.833,5.441-4.332C222.953,152.621,230.396,167.71,231.151,173.664z"/>
			</g>
			<g>
				<path fill="#FDEFA2" d="M212.604,196.794c0,0-10.095-7.832-14.207-7.832s-8.934,2.332-8.934,2.332s1.929,6.478,4.66,9.258
					c2.732,2.781,13.975,3.622,15.267,2.305C210.685,201.541,212.604,196.794,212.604,196.794z"/>
				<path fill="#F8E599" d="M209.391,202.857c0,0-6.428,4.891-10.606,4.891s-11.029-7.181-11.029-9.642s0.902-6.813,1.708-6.813
					C190.271,191.294,205.22,198.613,209.391,202.857z"/>
			</g>
			<path fill="#334700" d="M189.266,199.405c-0.045,0.435,0.232,0.859,0.504,1.181c1.329,1.569,3.095,2.496,4.794,2.511
				c-0.042-0.166-0.083-0.333-0.125-0.499c1.448,0.151,2.961,0.146,4.156-0.718c0.275-0.198,0.53-0.44,0.821-0.604
				c0.392-0.221,0.834-0.29,1.264-0.395c1.039-0.257,2.023-0.742,2.9-1.43c-1.039-0.015-2.113-0.5-2.992-1.352
				c0.468-0.241,0.918-0.529,1.347-0.86c-1.426-0.391-2.553-2.114-3.97-2.604c-0.984-0.34-1.969-0.038-2.903,0.266
				c0.239-0.313,0.008-0.942-0.333-1.152c-0.342-0.211-0.721-0.134-1.069-0.051c-0.722,0.17-1.455,0.347-2.079,0.791
				c-0.624,0.445-1.132,1.208-1.186,2.157c-0.028,0.498,0.063,1.057-0.133,1.466C190.008,198.643,189.333,198.766,189.266,199.405z"
				/>
			<g>
				<path fill="#F7A47A" d="M212.903,186.836c-0.066,1.027-0.419,2.017-0.497,3.043c-0.232,2.98,1.824,5.684,2.041,8.666
					c-1.195-0.258-2.213-1.236-2.534-2.436c-0.022,1.232-0.335,2.458-0.904,3.544c-0.693-0.809-1.023-1.927-0.885-2.99
					c-0.554,1.001-1.469,1.79-2.53,2.18c-0.815-0.727-0.858-2.033-0.496-3.072c0.363-1.039,1.046-1.927,1.521-2.919
					c0.423-0.886,0.677-1.855,0.744-2.838c0.052-0.78-0.034-1.626-0.529-2.225c-0.623-0.752-2.046-0.585-2.93-0.763
					c-0.181-0.037-0.363-0.073-0.528-0.157c-0.181-0.093-0.33-0.238-0.501-0.349c-0.399-0.261-0.887-0.329-1.358-0.39
					c-0.662-0.085-1.325-0.171-1.988-0.257c-0.4-0.051-0.804-0.104-1.205-0.063c-0.722,0.072-1.377,0.434-2.057,0.689
					c-1.87,0.706-3.746,0.246-5.615,0.769c-2.943,0.826-6.355-1.239-7.051-4.264c-0.082-0.363-0.129-0.753,0.01-1.097
					c0.125-0.307,0.38-0.535,0.627-0.752c1.271-1.114,2.554-2.235,4.019-3.065c2.827-1.603,6.135-2.017,9.35-2.401
					c1.098-0.132,2.238-0.259,3.289,0.087c1.053,0.348,1.994,1.312,1.955,2.437c1.482-0.293,3.365-0.42,4.146,0.896
					c0.279,0.469,0.346,1.037,0.575,1.533c0.402,0.872,1.251,1.421,1.899,2.123C212.468,183.846,213,185.357,212.903,186.836z"/>
				<path fill="#ED5F37" d="M210.99,188.644c0.329,0.497-0.064,1.197-0.585,1.478c-0.341,0.183-0.721,0.261-1.097,0.354
					c-0.105,0.823-0.335,1.629-0.69,2.376c-0.475,0.992-1.157,1.88-1.521,2.919c-0.362,1.04-0.319,2.345,0.496,3.072
					c1.062-0.391,1.977-1.179,2.53-2.18c-0.139,1.063,0.191,2.182,0.885,2.99c0.569-1.086,0.882-2.312,0.904-3.544
					c0.321,1.2,1.339,2.177,2.534,2.436c-0.194-2.688-1.88-5.15-2.043-7.793c-0.228-0.269-0.326-0.711-0.394-1.087
					C211.912,189.117,211.501,188.444,210.99,188.644z"/>
				<path fill="#F28B71" d="M185.609,181.908c-0.139,0.344-0.092,0.734-0.01,1.097c0.696,3.025,4.108,5.09,7.051,4.264
					c1.87-0.523,3.745-0.063,5.615-0.769c0.68-0.256,1.335-0.618,2.057-0.689c0.401-0.041,0.805,0.011,1.205,0.063
					c0.663,0.086,1.326,0.171,1.988,0.257c0.472,0.061,0.959,0.129,1.358,0.39c0.171,0.111,0.32,0.256,0.501,0.349
					c0.165,0.083,0.348,0.12,0.528,0.157c0.884,0.178,2.307,0.01,2.93,0.763c0.495,0.599,0.581,1.445,0.529,2.225
					c-0.067,0.983-0.321,1.953-0.744,2.838c-0.475,0.992-1.157,1.88-1.521,2.919c-0.362,1.04-0.319,2.345,0.496,3.072
					c0.151-0.056,0.3-0.122,0.444-0.193c-0.09-0.145-0.177-0.29-0.257-0.44c-0.359-0.674-0.575-1.505-0.258-2.201
					c0.543-1.188,2.345-1.414,2.743-2.66c0.164-0.516,0.034-1.074-0.048-1.61c-0.118-0.791-0.125-1.599-0.019-2.391
					c0.132-0.99,0.311-2.271-0.557-2.74c-0.384-0.207-0.857-0.158-1.257-0.333c-0.672-0.296-0.939-1.145-0.895-1.89
					c0.044-0.744,0.315-1.457,0.385-2.199c-0.761,0.438-1.297,1.181-1.945,1.778c-0.649,0.597-1.548,1.07-2.378,0.789
					c-0.909-0.307-1.341-1.407-1.302-2.382c0.038-0.931,0.403-1.844,1.017-2.536c-1.013,0.156-1.755,1.036-2.32,1.907
					c-0.565,0.871-1.091,1.834-1.982,2.35c-0.892,0.516-2.283,0.299-2.594-0.696c-0.406-1.297,1.226-2.859,0.365-3.902
					c-0.815-0.113-1.529,0.584-1.921,1.32c-0.392,0.736-0.62,1.581-1.178,2.196c-0.458,0.504-1.09,0.799-1.709,1.07
					c-0.396,0.172-0.815,0.342-1.244,0.301c-0.429-0.042-0.863-0.37-0.875-0.809c-0.012-0.457,0.408-0.813,0.484-1.262
					c0.134-0.777-0.774-1.402-0.748-2.189c0.021-0.623,0.621-1.238,0.327-1.785c-0.001-0.001-0.002-0.002-0.003-0.004
					c-1.304,0.801-2.476,1.811-3.633,2.823C185.989,181.374,185.733,181.601,185.609,181.908z"/>
			</g>
			<g>
				<path fill="#FDEFA2" d="M197.412,166.392c0,0-12.242-3.415-16.056-1.848c-3.813,1.567-7.426,5.566-7.426,5.566
					s4.172,5.273,7.728,6.81c3.556,1.537,14.29-1.966,15.005-3.68C197.377,171.526,197.412,166.392,197.412,166.392z"/>
				<path fill="#F8E599" d="M196.663,173.239c0,0-4.161,6.984-8.036,8.576c-3.874,1.592-12.869-2.456-13.774-4.738
					s-1.67-6.661-0.923-6.968C174.679,169.802,191.233,170.892,196.663,173.239z"/>
			</g>
			<g>
				<path fill="#E5E5E6" d="M214.474,170.467c-0.052,0.289-0.2,0.571-0.415,0.762c-0.483,0.427-1.154,0.536-1.774,0.702
					c-0.618,0.166-1.281,0.465-1.525,1.067c-0.189,0.471-0.071,1.009,0.09,1.492c0.502,1.496,1.411,2.848,2.601,3.866
					c0.436,0.373,0.925,0.709,1.481,0.83c0.558,0.12,1.196-0.015,1.565-0.457c0.608-0.726,0.274-1.901,0.761-2.717
					c0.368-0.618,1.216-0.881,1.86-0.579c0.272,0.127,0.518,0.367,0.56,0.669c0.123,0.886-2.322,1.557-0.506,2.45
					c0.928,0.457,1.642,0.779,2.701,0.549c1.288-0.269,2.396-1.139,3.2-2.196c2.025-2.664,2.204-6.522,0.797-9.57
					c-1.557-3.369-5.45-5.748-9.085-5.689c-1.088,0.018-2.192,0.232-3.138,0.778c-1.357,0.784-3.058,2.497-3.271,4.115
					c-0.115,0.883,0.002,1.811,0.359,2.625c0.18,0.41,0.494,0.99,0.916,1.188c0.71,0.334,0.821-0.203,1.274-0.621
					c0.332-0.305,0.858-0.441,1.23-0.188C214.45,169.742,214.538,170.108,214.474,170.467z"/>
				<path fill="#FFFFFF" d="M213.4,177.22c-0.811-0.845-1.436-1.878-1.808-2.988c-0.095-0.28-0.207-0.68-0.106-0.93
					c0.098-0.243,0.443-0.449,0.998-0.599c0.097-0.026,0.193-0.05,0.291-0.074c0.586-0.146,1.249-0.312,1.799-0.797
					c0.343-0.303,0.588-0.749,0.672-1.222c0.105-0.588-0.044-1.145-0.411-1.527c-0.074-0.077-0.156-0.146-0.245-0.206
					c-0.636-0.432-1.558-0.323-2.191,0.26c-0.155,0.142-0.272,0.287-0.367,0.402c-0.021,0.024-0.043,0.052-0.065,0.079
					c-0.017-0.011-0.048-0.034-0.091-0.079c-0.137-0.143-0.287-0.392-0.423-0.701c-0.291-0.665-0.396-1.444-0.298-2.195
					c0.164-1.244,1.622-2.798,2.88-3.524c0.745-0.431,1.674-0.657,2.762-0.675c2.398-0.038,5.006,1.104,6.806,2.981
					c0.662,0.69,1.186,1.447,1.556,2.249c1.343,2.907,1.059,6.421-0.706,8.741c-0.776,1.021-1.748,1.697-2.736,1.903
					c-0.805,0.174-1.334-0.059-2.202-0.486c-0.027-0.014-0.052-0.026-0.074-0.038c0.056-0.055,0.114-0.109,0.163-0.154
					c0.404-0.377,0.958-0.894,0.854-1.65c-0.047-0.323-0.196-0.626-0.437-0.875c-0.159-0.165-0.357-0.307-0.573-0.409
					c-1.004-0.47-2.287-0.07-2.86,0.891c-0.316,0.531-0.378,1.108-0.433,1.617c-0.046,0.426-0.085,0.795-0.254,0.997
					c-0.152,0.183-0.484,0.261-0.806,0.192c-0.336-0.072-0.697-0.282-1.139-0.659C213.763,177.579,213.576,177.404,213.4,177.22z"/>
			</g>
			<g>
				<path fill="#E5E5E6" d="M161.172,169.097c-0.233,0.124-0.534,0.196-0.818,0.186c-0.64-0.022-1.196-0.305-1.755-0.532
					c-0.559-0.227-1.24-0.406-1.827-0.215c-0.458,0.149-0.74,0.489-0.954,0.822c-0.659,1.032-0.928,2.197-0.766,3.329
					c0.059,0.416,0.182,0.838,0.501,1.183s0.871,0.597,1.437,0.555c0.934-0.071,1.495-0.853,2.401-1.031
					c0.687-0.135,1.476,0.157,1.735,0.639c0.108,0.205,0.121,0.454-0.055,0.632c-0.515,0.523-2.732-0.364-2.035,1.021
					c0.356,0.706,0.649,1.236,1.569,1.653c1.109,0.512,2.5,0.62,3.801,0.475c3.275-0.362,6.035-2.281,7.103-4.582
					c1.179-2.542,0-5.751-2.656-7.561c-0.794-0.541-1.736-0.988-2.789-1.182c-1.512-0.279-3.904-0.247-5.162,0.488
					c-0.686,0.402-1.234,0.944-1.532,1.55c-0.151,0.304-0.32,0.765-0.152,1.081c0.284,0.534,0.73,0.311,1.342,0.323
					c0.446,0.008,0.918,0.204,1.013,0.523C161.651,168.708,161.464,168.942,161.172,169.097z"/>
				<path fill="#FFFFFF" d="M155.792,172.071c-0.006-0.851,0.248-1.706,0.738-2.472c0.124-0.193,0.315-0.458,0.559-0.538
					c0.235-0.076,0.625-0.009,1.127,0.193c0.086,0.036,0.173,0.072,0.26,0.109c0.521,0.22,1.112,0.47,1.837,0.495
					c0.454,0.016,0.935-0.093,1.318-0.297c0.477-0.253,0.75-0.618,0.746-1.004c-0.001-0.077-0.012-0.155-0.036-0.231
					c-0.164-0.546-0.901-0.956-1.754-0.973c-0.208-0.004-0.392,0.011-0.539,0.023c-0.032,0.002-0.067,0.005-0.101,0.007
					c-0.005-0.013-0.011-0.041-0.012-0.086c-0.001-0.143,0.061-0.349,0.174-0.579c0.243-0.493,0.699-0.953,1.283-1.293
					c0.967-0.566,3.077-0.637,4.477-0.379c0.831,0.153,1.654,0.505,2.449,1.046c1.751,1.194,2.849,3.108,2.864,4.997
					c0.005,0.695-0.134,1.354-0.416,1.959c-1.018,2.194-3.619,3.88-6.472,4.195c-1.255,0.139-2.415-0.001-3.267-0.394
					c-0.697-0.315-0.92-0.706-1.252-1.368c-0.01-0.02-0.02-0.04-0.028-0.057c0.077,0,0.156,0.001,0.222,0.002
					c0.548,0.007,1.3,0.019,1.74-0.428c0.188-0.191,0.285-0.425,0.283-0.676c-0.001-0.167-0.047-0.341-0.135-0.503
					c-0.401-0.752-1.597-1.194-2.666-0.983c-0.589,0.116-1.028,0.385-1.415,0.624c-0.324,0.199-0.604,0.371-0.862,0.391
					c-0.234,0.018-0.527-0.108-0.71-0.307c-0.193-0.208-0.311-0.5-0.371-0.92C155.809,172.442,155.794,172.255,155.792,172.071z"/>
			</g>
			<g>
				<path fill="#E5E5E6" d="M208.804,190.777c-0.234,0.125-0.534,0.196-0.818,0.187c-0.641-0.022-1.195-0.305-1.755-0.532
					c-0.56-0.228-1.24-0.408-1.827-0.216c-0.458,0.149-0.74,0.49-0.953,0.822c-0.66,1.033-0.928,2.198-0.767,3.33
					c0.06,0.415,0.183,0.837,0.502,1.183c0.319,0.343,0.87,0.596,1.438,0.553c0.933-0.07,1.494-0.851,2.4-1.03
					c0.686-0.136,1.477,0.156,1.734,0.639c0.108,0.205,0.122,0.453-0.054,0.632c-0.516,0.523-2.732-0.365-2.036,1.02
					c0.356,0.707,0.65,1.236,1.57,1.653c1.109,0.512,2.5,0.619,3.801,0.475c3.274-0.362,6.035-2.282,7.103-4.582
					c1.179-2.542,0-5.751-2.656-7.561c-0.795-0.541-1.735-0.988-2.788-1.182c-1.514-0.279-3.904-0.248-5.161,0.488
					c-0.688,0.401-1.234,0.943-1.534,1.549c-0.149,0.304-0.319,0.766-0.15,1.081c0.283,0.534,0.729,0.31,1.34,0.323
					c0.447,0.008,0.918,0.205,1.015,0.524C209.282,190.388,209.094,190.622,208.804,190.777z"/>
				<path fill="#FFFFFF" d="M203.424,193.751c-0.007-0.85,0.248-1.705,0.738-2.471c0.123-0.193,0.314-0.459,0.557-0.538
					c0.236-0.077,0.627-0.01,1.128,0.193c0.087,0.036,0.173,0.072,0.261,0.109c0.52,0.219,1.11,0.469,1.836,0.494
					c0.455,0.016,0.936-0.092,1.318-0.296c0.478-0.254,0.749-0.62,0.746-1.004c0-0.077-0.013-0.156-0.035-0.232
					c-0.163-0.546-0.901-0.956-1.755-0.973c-0.209-0.004-0.392,0.012-0.539,0.023c-0.031,0.003-0.066,0.005-0.101,0.008
					c-0.004-0.015-0.012-0.042-0.012-0.086c-0.001-0.144,0.061-0.35,0.175-0.58c0.243-0.492,0.698-0.952,1.282-1.293
					c0.968-0.565,3.077-0.638,4.478-0.379c0.829,0.152,1.652,0.504,2.448,1.047c1.751,1.193,2.849,3.108,2.863,4.996
					c0.006,0.695-0.134,1.354-0.415,1.959c-1.018,2.194-3.618,3.88-6.472,4.195c-1.255,0.139-2.415-0.001-3.267-0.394
					c-0.697-0.315-0.92-0.705-1.254-1.366c-0.01-0.021-0.02-0.04-0.026-0.058c0.076,0,0.156,0.001,0.222,0.002
					c0.548,0.008,1.3,0.02,1.74-0.429c0.187-0.191,0.285-0.424,0.283-0.676c-0.001-0.167-0.049-0.34-0.135-0.502
					c-0.401-0.753-1.597-1.194-2.666-0.983c-0.59,0.116-1.027,0.385-1.414,0.623c-0.324,0.199-0.604,0.371-0.863,0.391
					c-0.234,0.018-0.526-0.108-0.711-0.307c-0.192-0.208-0.31-0.5-0.37-0.92C203.439,194.122,203.426,193.936,203.424,193.751z"/>
			</g>
			<g>
				<path fill="#E5E5E6" d="M181.83,199.833c0.247-0.091,0.554-0.124,0.834-0.075c0.631,0.107,1.146,0.462,1.671,0.762
					c0.525,0.3,1.178,0.568,1.783,0.458c0.473-0.087,0.797-0.386,1.051-0.688c0.787-0.936,1.203-2.054,1.19-3.198
					c-0.005-0.419-0.072-0.855-0.344-1.239s-0.786-0.708-1.354-0.742c-0.934-0.055-1.591,0.645-2.513,0.7
					c-0.698,0.042-1.443-0.352-1.636-0.866c-0.083-0.217-0.063-0.465,0.135-0.619c0.578-0.45,2.661,0.726,2.148-0.738
					c-0.262-0.749-0.484-1.313-1.341-1.849c-1.034-0.656-2.399-0.949-3.707-0.98c-3.293-0.079-6.278,1.454-7.633,3.591
					c-1.497,2.363-0.742,5.702,1.657,7.852c0.718,0.642,1.592,1.211,2.612,1.545c1.462,0.479,3.838,0.767,5.179,0.206
					c0.733-0.306,1.346-0.771,1.72-1.331c0.188-0.281,0.416-0.716,0.291-1.052c-0.212-0.566-0.684-0.405-1.288-0.499
					c-0.441-0.069-0.884-0.326-0.938-0.655C181.305,200.155,181.521,199.948,181.83,199.833z"/>
				<path fill="#FFFFFF" d="M187.546,197.605c-0.104,0.844-0.467,1.658-1.051,2.351c-0.147,0.175-0.372,0.414-0.622,0.459
					c-0.244,0.044-0.622-0.074-1.092-0.344c-0.082-0.046-0.162-0.094-0.245-0.142c-0.487-0.288-1.041-0.615-1.757-0.736
					c-0.447-0.076-0.938-0.033-1.345,0.117c-0.505,0.187-0.822,0.513-0.87,0.895c-0.009,0.077-0.007,0.155,0.005,0.234
					c0.091,0.563,0.771,1.067,1.615,1.199c0.205,0.031,0.389,0.042,0.537,0.049c0.031,0.001,0.066,0.003,0.101,0.006
					c0.003,0.015,0.006,0.042,0,0.087c-0.018,0.144-0.105,0.339-0.248,0.551c-0.305,0.457-0.815,0.852-1.438,1.111
					c-1.033,0.431-3.133,0.22-4.488-0.223c-0.803-0.263-1.574-0.723-2.291-1.366c-1.582-1.417-2.423-3.462-2.194-5.335
					c0.084-0.689,0.308-1.325,0.665-1.887c1.292-2.038,4.088-3.362,6.958-3.293c1.262,0.03,2.394,0.324,3.188,0.828
					c0.649,0.406,0.82,0.822,1.065,1.523c0.007,0.021,0.013,0.042,0.02,0.06c-0.076-0.009-0.154-0.022-0.22-0.031
					c-0.542-0.082-1.285-0.193-1.78,0.191c-0.21,0.166-0.338,0.384-0.369,0.633c-0.021,0.165,0.003,0.344,0.069,0.516
					c0.3,0.8,1.429,1.398,2.515,1.332c0.601-0.037,1.07-0.246,1.483-0.429c0.347-0.154,0.647-0.288,0.905-0.272
					c0.234,0.014,0.508,0.178,0.666,0.399c0.164,0.233,0.243,0.538,0.249,0.962C187.579,197.235,187.569,197.422,187.546,197.605z"
					/>
			</g>
			<g>
				<path fill="#F7A47A" d="M137.173,169.472c0.467-0.913,1.18-1.676,1.658-2.583c1.389-2.636,0.572-5.952,1.55-8.771
					c0.993,0.725,1.539,2.036,1.359,3.266c0.507-1.119,1.277-2.112,2.228-2.875c0.315,1.024,0.176,2.182-0.37,3.1
					c0.901-0.69,2.051-1.039,3.177-0.962c0.46,0.999-0.017,2.213-0.759,3.016c-0.742,0.804-1.718,1.337-2.544,2.052
					c-0.737,0.639-1.353,1.423-1.801,2.295c-0.357,0.694-0.612,1.503-0.394,2.253c0.273,0.944,1.642,1.373,2.382,1.896
					c0.151,0.108,0.304,0.216,0.421,0.36c0.129,0.159,0.209,0.352,0.322,0.524c0.262,0.402,0.683,0.664,1.089,0.911
					c0.573,0.35,1.146,0.699,1.719,1.048c0.346,0.211,0.696,0.424,1.079,0.551c0.69,0.229,1.433,0.166,2.156,0.208
					c1.992,0.118,3.527,1.307,5.446,1.592c3.022,0.447,5.332,3.733,4.774,6.788c-0.067,0.366-0.179,0.743-0.441,1
					c-0.235,0.231-0.56,0.335-0.872,0.433c-1.604,0.5-3.22,1.004-4.891,1.165c-3.221,0.312-6.415-0.661-9.51-1.623
					c-1.058-0.328-2.151-0.677-2.978-1.425c-0.826-0.748-1.308-2.016-0.828-3.03c-1.473-0.337-3.247-0.992-3.443-2.516
					c-0.07-0.543,0.094-1.091,0.079-1.639c-0.024-0.962-0.585-1.813-0.902-2.72C136.393,172.389,136.501,170.788,137.173,169.472z"
					/>
				<path fill="#ED5F37" d="M139.64,168.6c-0.105-0.59,0.531-1.071,1.119-1.115c0.384-0.028,0.763,0.055,1.144,0.123
					c0.422-0.71,0.95-1.356,1.57-1.894c0.826-0.714,1.802-1.248,2.544-2.052c0.742-0.803,1.219-2.017,0.759-3.016
					c-1.126-0.076-2.276,0.272-3.177,0.962c0.546-0.917,0.685-2.076,0.37-3.1c-0.951,0.763-1.721,1.756-2.228,2.875
					c0.18-1.229-0.367-2.541-1.359-3.266c-0.882,2.542-0.31,5.485-1.205,7.972c0.103,0.338,0.019,0.784-0.068,1.156
					C138.982,167.789,139.093,168.574,139.64,168.6z"/>
				<path fill="#F28B71" d="M160.225,185.142c0.263-0.257,0.375-0.634,0.441-1c0.557-3.055-1.752-6.34-4.774-6.788
					c-1.919-0.285-3.454-1.474-5.446-1.592c-0.723-0.042-1.466,0.02-2.155-0.208c-0.384-0.126-0.734-0.34-1.08-0.551
					c-0.573-0.349-1.146-0.698-1.719-1.048c-0.407-0.248-0.828-0.509-1.089-0.911c-0.113-0.172-0.193-0.365-0.322-0.524
					c-0.117-0.144-0.27-0.252-0.421-0.36c-0.74-0.523-2.109-0.952-2.382-1.896c-0.218-0.75,0.037-1.56,0.394-2.253
					c0.449-0.873,1.064-1.657,1.801-2.295c0.826-0.714,1.802-1.248,2.544-2.052c0.742-0.803,1.219-2.017,0.759-3.016
					c-0.161-0.011-0.322-0.01-0.483-0.005c0.024,0.169,0.048,0.338,0.062,0.508c0.063,0.764-0.067,1.614-0.632,2.122
					c-0.967,0.866-2.705,0.335-3.561,1.314c-0.355,0.406-0.456,0.97-0.594,1.494c-0.202,0.772-0.515,1.515-0.925,2.197
					c-0.512,0.853-1.182,1.953-0.572,2.736c0.269,0.347,0.723,0.495,1.02,0.819c0.498,0.546,0.407,1.434,0.074,2.097
					c-0.334,0.664-0.865,1.206-1.222,1.856c0.871-0.09,1.655-0.551,2.484-0.833c0.83-0.281,1.839-0.348,2.488,0.249
					c0.711,0.654,0.672,1.838,0.251,2.714c-0.401,0.837-1.097,1.524-1.932,1.908c0.99,0.271,2.017-0.232,2.878-0.798
					c0.86-0.567,1.722-1.235,2.743-1.342c1.02-0.108,2.208,0.66,2.1,1.698c-0.139,1.355-2.25,2.117-1.873,3.424
					c0.702,0.437,1.63,0.09,2.28-0.424c0.65-0.513,1.192-1.194,1.946-1.529c0.617-0.275,1.313-0.287,1.987-0.281
					c0.431,0.004,0.882,0.02,1.258,0.233c0.376,0.214,0.645,0.691,0.482,1.098c-0.168,0.423-0.694,0.578-0.941,0.958
					c-0.428,0.657,0.156,1.601-0.179,2.312c-0.265,0.561-1.057,0.878-1.004,1.499c0,0.002,0,0.003,0.001,0.005
					c1.51-0.201,2.982-0.645,4.441-1.1C159.666,185.477,159.99,185.373,160.225,185.142z"/>
			</g>
			<path fill="#F28B71" d="M236.767,192.148c1.36-0.872,2.048-2.547,2.208-4.176c0.605-6.16-4.92-11.025-10.146-14.196
				c-3.2-1.943-6.731-3.758-10.45-3.507c-2.031,0.137-3.965,0.885-5.921,1.46c-9.851,2.897-20.498,1.4-30.251-1.823
				c-4.06-1.341-8.099-2.992-12.361-3.25c-4.261-0.259-8.924,1.177-11.28,4.8c-0.5,0.77-0.904,1.64-1.626,2.198
				c-0.742,0.572-1.707,0.728-2.627,0.875c-6.1,0.969-12.141,2.318-18.079,4.036c-1.899,0.549-4.164,1.607-4.213,3.616
				c-0.033,1.33,1.025,2.462,2.213,3.018c2.042,0.956,4.405,0.632,6.653,0.6c2.248-0.033,4.791,0.415,6.053,2.308
				c0.971,1.457,0.904,3.353,1.26,5.074c1.063,5.157,6.07,8.671,11.156,9.65c5.086,0.979,10.31-0.035,15.423-0.859
				c3.039-0.49,6.218-0.902,9.138,0.084c3.66,1.236,6.819,4.614,10.647,4.135c4.295-0.539,6.999-5.764,11.316-6.055
				c2.993-0.202,5.54,2.053,8.354,3.115c3.862,1.458,8.506,0.48,11.482-2.419c-0.541-1.922,0.312-4.059,1.765-5.404
				c1.455-1.344,3.411-2,5.356-2.286C234.185,192.944,235.614,192.887,236.767,192.148z"/>
		</g>
		<path fill="#334700" d="M230.289,191.34c-0.609,2.444-0.813,4.992-0.599,7.504c0.991-0.28,1.982-0.559,2.974-0.839
			c-0.558,2.205-1.621,4.275-3.081,6c1.668-0.358,3.336-0.717,5.003-1.076c4.133-0.889,8.625-2,11.192-5.414
			c0.03,0.491,0.059,0.981,0.089,1.472c2.141-0.471,4.056-1.919,5.115-3.871c0.774,1.138,2.422,1.39,3.675,0.854
			c1.253-0.538,2.154-1.691,2.794-2.914c3.084-5.892,0.48-13.949-5.145-17.385s-13.363-2.299-18.275,2.125
			c-1.641,1.477-3.002,3.275-3.983,5.268c-1.267,2.57-1.889,5.413-2.915,8.091C228.166,191.387,229.237,191.45,230.289,191.34z"/>
		<path fill="#E7F279" d="M243.18,152.229c5.498-6.422,10.806-13.012,15.917-19.756c0.627,0.922,1.623,1.579,2.707,1.785
			c-7.403,8.013-13.437,17.211-19.432,26.362c-3.435,5.242-6.869,10.484-10.303,15.727c-0.96,1.464-2.047,3.029-3.702,3.541
			c-1.654,0.511-3.866-0.8-3.525-2.526c0.111-0.56,0.458-1.037,0.793-1.496c9.625-13.21,16.573-28.24,22.476-43.55
			c0.994,0.54,2.107,0.851,3.233,0.901C248.622,139.554,245.9,145.891,243.18,152.229z"/>
		<path fill="#D0F07B" d="M250.499,155.061c6.811-4.952,13.474-10.113,19.979-15.47c0.4,1.046,1.22,1.918,2.228,2.374
			c-9.024,6.051-16.985,13.579-24.899,21.068c-4.534,4.291-9.067,8.581-13.602,12.872c-1.266,1.198-2.68,2.465-4.405,2.572
			c-1.728,0.107-3.579-1.688-2.855-3.287c0.235-0.519,0.681-0.901,1.111-1.27c12.368-10.583,22.548-23.569,31.771-37.072
			c0.845,0.759,1.857,1.323,2.94,1.638C258.678,144.011,254.589,149.536,250.499,155.061z"/>
		<g>
			<path fill="#CCE345" d="M243.993,166.028c5.121-8.085,13.662-11.761,19.075-8.209c5.414,3.551,5.65,12.984,0.528,21.07
				c-5.121,8.085-13.661,11.76-19.075,8.209C239.109,183.546,238.872,174.113,243.993,166.028z"/>
			<path fill="#8EC22C" d="M245.076,166.761c5.121-8.085,14.229-11.387,20.344-7.376c6.115,4.012,6.92,13.818,1.799,21.903
				c-5.121,8.086-14.229,11.388-20.345,7.376C240.76,184.653,239.955,174.847,245.076,166.761z"/>
			<path fill="#E7F279" d="M243.993,166.028c5.121-8.085,13.662-11.761,19.075-8.209c5.414,3.551,5.65,12.984,0.528,21.07
				c-5.121,8.085-13.661,11.76-19.075,8.209C239.109,183.546,238.872,174.113,243.993,166.028z"/>
			<path fill="#FFFFFF" d="M244.802,166.559c4.699-7.418,12.535-10.791,17.502-7.532c4.968,3.258,5.184,11.914,0.485,19.332
				c-4.699,7.418-12.535,10.791-17.502,7.532C240.32,182.632,240.103,173.977,244.802,166.559z"/>
			<g>
				<path fill="#E7F279" d="M255.559,173.253l6.181,4.056c0.282,0.185,0.74-0.017,0.982-0.451c1.525-2.732,2.351-5.59,2.484-8.208
					c0.023-0.458-0.292-0.714-0.695-0.54l-8.506,3.661C255.401,172.03,255.12,172.966,255.559,173.253z"/>
				<path fill="#E7F279" d="M261.416,177.819l-6.182-4.056c-0.438-0.287-1.159,0.361-1.142,1.027l0.234,9.395
					c0.012,0.445,0.37,0.632,0.771,0.421c2.287-1.205,4.504-3.15,6.319-5.691C261.707,178.511,261.698,178.004,261.416,177.819z"/>
				<path fill="#E7F279" d="M251.599,173.667l-8.505,3.66c-0.404,0.174-0.7,0.692-0.653,1.121c0.261,2.447,1.21,4.542,2.838,5.916
					c0.259,0.219,0.717,0.026,0.983-0.395l5.849-9.232C252.524,174.083,252.202,173.407,251.599,173.667z"/>
				<path fill="#E7F279" d="M246.656,185.268c1.903,0.942,4.169,0.957,6.467,0.189c0.403-0.135,0.744-0.624,0.734-1.068
					l-0.236-9.395c-0.017-0.667-0.755-0.687-1.169-0.031l-5.849,9.232C246.337,184.615,246.354,185.119,246.656,185.268z"/>
				<path fill="#E7F279" d="M255.992,171.25l8.505-3.661c0.403-0.173,0.7-0.692,0.654-1.121c-0.262-2.448-1.21-4.542-2.839-5.916
					c-0.26-0.219-0.717-0.026-0.983,0.395l-5.848,9.232C255.066,170.834,255.389,171.509,255.992,171.25z"/>
				<path fill="#E7F279" d="M252.033,171.664l-6.182-4.056c-0.281-0.185-0.739,0.016-0.982,0.45c-1.524,2.733-2.35,5.59-2.484,8.208
					c-0.023,0.459,0.293,0.714,0.696,0.541l8.505-3.661C252.189,172.886,252.472,171.951,252.033,171.664z"/>
				<path fill="#E7F279" d="M246.175,167.098l6.182,4.055c0.438,0.288,1.159-0.359,1.143-1.026l-0.235-9.395
					c-0.011-0.446-0.37-0.633-0.771-0.421c-2.286,1.205-4.504,3.149-6.319,5.691C245.884,166.406,245.894,166.913,246.175,167.098z"
					/>
				<path fill="#E7F279" d="M253.97,169.924c0.017,0.667,0.755,0.686,1.17,0.031l5.847-9.232c0.268-0.421,0.251-0.925-0.052-1.075
					c-1.902-0.941-4.169-0.957-6.467-0.188c-0.403,0.135-0.745,0.623-0.733,1.069L253.97,169.924z"/>
			</g>
		</g>
		<g>
			<path fill="#F7A47A" d="M225.496,151.618c0.835-0.582,1.817-0.912,2.659-1.482c2.444-1.657,3.261-4.974,5.431-6.99
				c0.539,1.116,0.413,2.533-0.314,3.532c0.965-0.744,2.105-1.25,3.296-1.467c-0.196,1.054-0.855,2.01-1.763,2.556
				c1.116-0.176,2.29,0.068,3.248,0.676c-0.057,1.101-1.039,1.943-2.065,2.295c-1.027,0.352-2.136,0.355-3.194,0.589
				c-0.946,0.209-1.853,0.604-2.652,1.16c-0.636,0.439-1.235,1.032-1.393,1.798c-0.196,0.963,0.813,1.999,1.223,2.815
				c0.083,0.167,0.168,0.336,0.205,0.519c0.04,0.203,0.021,0.412,0.04,0.618c0.046,0.48,0.295,0.912,0.539,1.326
				c0.344,0.584,0.687,1.167,1.031,1.75c0.207,0.352,0.417,0.708,0.696,1.004c0.501,0.532,1.186,0.833,1.804,1.218
				c1.702,1.061,2.505,2.846,4.065,4.017c2.456,1.845,2.972,5.85,1.064,8.277c-0.228,0.29-0.501,0.569-0.853,0.67
				c-0.313,0.091-0.648,0.027-0.969-0.037c-1.646-0.329-3.306-0.661-4.853-1.319c-2.985-1.271-5.351-3.662-7.634-5.995
				c-0.781-0.798-1.584-1.63-1.966-2.686s-0.22-2.405,0.673-3.069c-1.143-1.005-2.404-2.433-1.871-3.871
				c0.191-0.513,0.588-0.917,0.829-1.407c0.424-0.861,0.325-1.88,0.466-2.832C223.456,153.816,224.294,152.456,225.496,151.618z"/>
			<path fill="#ED5F37" d="M228.076,152.032c0.18-0.57,0.964-0.688,1.503-0.445c0.351,0.159,0.646,0.415,0.951,0.657
				c0.701-0.424,1.465-0.74,2.263-0.916c1.059-0.234,2.167-0.236,3.194-0.589c1.026-0.352,2.009-1.194,2.065-2.295
				c-0.958-0.608-2.132-0.852-3.248-0.676c0.907-0.546,1.566-1.502,1.763-2.556c-1.19,0.216-2.331,0.723-3.296,1.467
				c0.728-0.999,0.854-2.417,0.314-3.532c-1.956,1.818-2.815,4.688-4.757,6.451c-0.066,0.348-0.348,0.702-0.597,0.987
				C227.87,151.002,227.604,151.747,228.076,152.032z"/>
			<path fill="#F28B71" d="M238.563,176.499c0.352-0.101,0.625-0.38,0.854-0.67c1.906-2.427,1.391-6.432-1.065-8.277
				c-1.561-1.171-2.363-2.957-4.065-4.017c-0.618-0.384-1.303-0.686-1.804-1.218c-0.279-0.297-0.489-0.652-0.696-1.004
				c-0.345-0.583-0.688-1.166-1.031-1.75c-0.244-0.414-0.493-0.845-0.539-1.326c-0.02-0.206,0-0.415-0.04-0.618
				c-0.037-0.183-0.122-0.352-0.205-0.519c-0.409-0.817-1.419-1.853-1.223-2.815c0.157-0.766,0.757-1.358,1.393-1.798
				c0.8-0.555,1.706-0.951,2.652-1.16c1.059-0.234,2.167-0.236,3.194-0.589c1.026-0.352,2.009-1.194,2.065-2.295
				c-0.137-0.086-0.279-0.164-0.424-0.236c-0.057,0.161-0.114,0.321-0.181,0.478c-0.299,0.704-0.807,1.39-1.541,1.567
				c-1.253,0.3-2.541-1.002-3.75-0.549c-0.5,0.187-0.85,0.636-1.214,1.032c-0.537,0.584-1.157,1.089-1.834,1.494
				c-0.847,0.506-1.947,1.154-1.772,2.139c0.077,0.435,0.408,0.783,0.52,1.21c0.187,0.721-0.304,1.46-0.906,1.885
				c-0.602,0.424-1.321,0.648-1.938,1.051c0.809,0.339,1.714,0.309,2.576,0.458c0.862,0.15,1.783,0.577,2.079,1.415
				c0.325,0.917-0.258,1.942-1.035,2.512c-0.742,0.546-1.674,0.818-2.588,0.756c0.748,0.713,1.887,0.763,2.908,0.677
				c1.021-0.088,2.092-0.262,3.041,0.132c0.948,0.394,1.642,1.642,1.065,2.505c-0.751,1.127-2.966,0.787-3.239,2.121
				c0.417,0.722,1.396,0.861,2.208,0.72c0.811-0.141,1.604-0.481,2.425-0.415c0.671,0.054,1.291,0.377,1.882,0.706
				c0.378,0.21,0.77,0.44,1.001,0.809c0.233,0.369,0.249,0.919-0.083,1.201c-0.345,0.292-0.879,0.176-1.273,0.393
				c-0.683,0.374-0.605,1.485-1.229,1.953c-0.493,0.368-1.339,0.268-1.579,0.84c-0.001,0.002-0.001,0.004-0.002,0.005
				c1.425,0.548,2.929,0.863,4.426,1.162C237.915,176.526,238.25,176.59,238.563,176.499z"/>
		</g>
		<g>
			<path fill="#CCE345" d="M233.916,160.149c5.121-8.085,13.662-11.76,19.075-8.209c5.414,3.552,5.649,12.985,0.528,21.071
				c-5.121,8.085-13.661,11.761-19.075,8.209C229.031,177.669,228.794,168.235,233.916,160.149z"/>
			<path fill="#8EC22C" d="M234.999,160.884c5.121-8.086,14.229-11.388,20.344-7.376c6.115,4.01,6.92,13.817,1.799,21.903
				c-5.122,8.085-14.23,11.387-20.346,7.377C230.683,178.775,229.877,168.969,234.999,160.884z"/>
			<path fill="#E7F279" d="M233.916,160.149c5.121-8.085,13.662-11.76,19.075-8.209c5.414,3.552,5.649,12.985,0.528,21.071
				c-5.121,8.085-13.661,11.761-19.075,8.209C229.031,177.669,228.794,168.235,233.916,160.149z"/>
			<path fill="#FFFFFF" d="M234.725,160.68c4.698-7.418,12.535-10.791,17.502-7.532s5.184,11.914,0.485,19.332
				c-4.7,7.418-12.535,10.791-17.503,7.532C230.243,176.754,230.025,168.099,234.725,160.68z"/>
			<g>
				<path fill="#E7F279" d="M245.48,167.375l6.181,4.056c0.282,0.185,0.74-0.016,0.982-0.45c1.525-2.733,2.352-5.59,2.484-8.208
					c0.023-0.459-0.291-0.714-0.694-0.541l-8.506,3.661C245.323,166.151,245.042,167.087,245.48,167.375z"/>
				<path fill="#E7F279" d="M251.338,171.941l-6.181-4.056c-0.438-0.287-1.16,0.36-1.144,1.027l0.236,9.395
					c0.011,0.446,0.369,0.633,0.771,0.421c2.287-1.205,4.505-3.149,6.319-5.69C251.629,172.632,251.62,172.126,251.338,171.941z"/>
				<path fill="#E7F279" d="M241.521,167.788l-8.505,3.661c-0.404,0.173-0.7,0.692-0.654,1.121c0.261,2.448,1.211,4.542,2.839,5.916
					c0.259,0.22,0.717,0.026,0.983-0.395l5.848-9.232C242.447,168.204,242.125,167.529,241.521,167.788z"/>
				<path fill="#E7F279" d="M236.579,179.391c1.902,0.941,4.168,0.957,6.467,0.188c0.403-0.135,0.744-0.623,0.733-1.069
					l-0.235-9.395c-0.017-0.667-0.755-0.687-1.17-0.032l-5.848,9.232C236.26,178.737,236.275,179.24,236.579,179.391z"/>
				<path fill="#E7F279" d="M245.914,165.372l8.506-3.661c0.403-0.174,0.699-0.692,0.653-1.121c-0.262-2.447-1.21-4.542-2.838-5.916
					c-0.26-0.219-0.718-0.026-0.983,0.395l-5.849,9.232C244.989,164.956,245.312,165.632,245.914,165.372z"/>
				<path fill="#E7F279" d="M241.956,165.786l-6.183-4.056c-0.282-0.185-0.738,0.017-0.982,0.451
					c-1.524,2.732-2.35,5.59-2.483,8.208c-0.024,0.458,0.292,0.714,0.695,0.54l8.505-3.661
					C242.111,167.009,242.394,166.073,241.956,165.786z"/>
				<path fill="#E7F279" d="M236.098,161.219l6.182,4.056c0.438,0.287,1.158-0.361,1.143-1.027l-0.236-9.395
					c-0.011-0.446-0.37-0.632-0.771-0.421c-2.287,1.205-4.503,3.15-6.319,5.691C235.807,160.527,235.815,161.034,236.098,161.219z"
					/>
				<path fill="#E7F279" d="M243.893,164.045c0.017,0.667,0.755,0.687,1.169,0.031l5.848-9.232c0.267-0.421,0.25-0.924-0.053-1.074
					c-1.902-0.942-4.169-0.957-6.466-0.189c-0.403,0.135-0.745,0.624-0.734,1.068L243.893,164.045z"/>
			</g>
		</g>
		<path fill="#334700" d="M210.613,163.063c0.186-0.413-0.037-0.891-0.284-1.268c-1.209-1.841-3.162-3.16-5.298-3.579
			c0.002,0.171,0.005,0.344,0.008,0.515c-1.781-0.491-3.69-0.844-5.453-0.288c-0.407,0.128-0.799,0.304-1.214,0.393
			c-0.561,0.122-1.14,0.084-1.711,0.085c-1.386,0.003-2.771,0.241-4.081,0.702c1.305,0.261,2.515,0.988,3.369,2.024
			c-0.662,0.123-1.315,0.297-1.952,0.517c1.681,0.719,2.591,2.661,4.23,3.474c1.142,0.564,2.473,0.503,3.74,0.429
			c-0.395,0.249-0.289,0.916,0.079,1.201c0.368,0.286,0.868,0.301,1.333,0.303c0.959,0.005,1.937,0.008,2.855-0.276
			c0.918-0.285,1.785-0.906,2.134-1.816c0.184-0.479,0.235-1.043,0.604-1.394C209.45,163.628,210.34,163.669,210.613,163.063z"/>
		<path fill="#F28B71" d="M194.784,167.252c1.978,1.314,4.218,2.471,6.576,2.331c2.357-0.141,4.75-2.029,4.703-4.433
			c-0.033-1.722-1.29-3.229-2.8-4.006c-1.511-0.777-3.243-0.954-4.933-1.052c-6.697-0.387-13.452,0.26-19.96,1.914
			c-0.471,0.861-0.037,2.005,0.724,2.614c0.762,0.609,1.756,0.809,2.714,0.954c2.772,0.42,5.589,0.546,8.388,0.376
			c0.741-0.046,1.495-0.111,2.217,0.063C193.284,166.22,194.037,166.755,194.784,167.252z"/>
		<path fill="#F8E599" d="M211.118,181.255c0,0,11.717,7.577,16.015,7.577s10.992-7.275,8.75-12.463
			c-2.243-5.189-14.477-8.637-16.284-8.637C217.79,167.732,211.118,176.483,211.118,181.255z"/>
		<g>
			<path fill="#FDEFA2" d="M242.767,189.728c0,0-10.095-7.832-14.207-7.832s-8.935,2.333-8.935,2.333s1.93,6.479,4.661,9.258
				s13.973,3.621,15.267,2.305C240.846,194.476,242.767,189.728,242.767,189.728z"/>
			<path fill="#F8E599" d="M239.553,195.792c0,0-6.429,4.891-10.606,4.891s-11.029-7.181-11.029-9.642
				c0-2.461,0.902-6.813,1.708-6.813C220.433,184.229,235.382,191.547,239.553,195.792z"/>
		</g>
		<g>
			<path fill="#FDEFA2" d="M182.432,183.133c0,0-10.094-7.832-14.208-7.832c-4.112,0-8.934,2.332-8.934,2.332
				s1.929,6.479,4.66,9.258c2.733,2.781,13.974,3.622,15.268,2.306C180.511,187.88,182.432,183.133,182.432,183.133z"/>
			<path fill="#F8E599" d="M179.219,189.196c0,0-6.428,4.891-10.607,4.891c-4.178,0-11.028-7.182-11.028-9.643
				c0-2.46,0.901-6.813,1.708-6.813C160.098,177.632,175.048,184.952,179.219,189.196z"/>
		</g>
		<g>
			<path fill="#F7A47A" d="M126.711,181.47c0.467-0.913,1.18-1.676,1.658-2.583c1.389-2.636,0.571-5.952,1.55-8.771
				c0.993,0.725,1.539,2.035,1.359,3.266c0.507-1.119,1.277-2.112,2.228-2.875c0.315,1.024,0.176,2.183-0.37,3.1
				c0.901-0.69,2.051-1.039,3.177-0.962c0.46,0.999-0.017,2.212-0.759,3.016c-0.742,0.803-1.718,1.337-2.544,2.052
				c-0.737,0.638-1.353,1.423-1.801,2.295c-0.357,0.694-0.612,1.503-0.394,2.253c0.273,0.945,1.642,1.373,2.382,1.896
				c0.151,0.107,0.304,0.216,0.421,0.36c0.129,0.159,0.209,0.352,0.321,0.524c0.263,0.402,0.683,0.663,1.09,0.911
				c0.573,0.349,1.146,0.699,1.719,1.047c0.346,0.211,0.696,0.424,1.079,0.551c0.688,0.229,1.433,0.166,2.156,0.209
				c1.992,0.118,3.527,1.307,5.446,1.591c3.022,0.448,5.332,3.734,4.774,6.789c-0.067,0.366-0.179,0.743-0.441,1
				c-0.235,0.231-0.56,0.335-0.872,0.433c-1.604,0.5-3.22,1.002-4.891,1.165c-3.221,0.312-6.415-0.66-9.51-1.623
				c-1.058-0.328-2.151-0.677-2.978-1.425c-0.826-0.748-1.308-2.015-0.828-3.03c-1.473-0.337-3.247-0.991-3.443-2.516
				c-0.07-0.543,0.094-1.09,0.079-1.639c-0.024-0.962-0.585-1.813-0.902-2.72C125.932,184.386,126.04,182.785,126.711,181.47z"/>
			<path fill="#ED5F37" d="M129.178,180.596c-0.106-0.589,0.531-1.07,1.119-1.114c0.384-0.028,0.763,0.056,1.144,0.124
				c0.422-0.71,0.95-1.356,1.57-1.894c0.826-0.715,1.802-1.249,2.544-2.052c0.742-0.804,1.219-2.018,0.759-3.016
				c-1.126-0.077-2.276,0.271-3.177,0.962c0.546-0.917,0.685-2.076,0.37-3.1c-0.951,0.763-1.721,1.756-2.228,2.875
				c0.18-1.23-0.367-2.542-1.359-3.266c-0.883,2.542-0.31,5.485-1.205,7.971c0.103,0.339,0.019,0.786-0.068,1.158
				C128.521,179.787,128.631,180.571,129.178,180.596z"/>
			<path fill="#F28B71" d="M149.764,197.139c0.263-0.257,0.375-0.634,0.441-1c0.557-3.056-1.752-6.34-4.774-6.789
				c-1.919-0.284-3.454-1.473-5.446-1.591c-0.723-0.043-1.467,0.02-2.155-0.209c-0.384-0.126-0.734-0.339-1.08-0.551
				c-0.573-0.349-1.146-0.699-1.719-1.047c-0.408-0.248-0.828-0.509-1.09-0.911c-0.112-0.172-0.192-0.366-0.321-0.524
				c-0.117-0.144-0.27-0.253-0.421-0.36c-0.74-0.523-2.109-0.952-2.382-1.896c-0.218-0.75,0.037-1.56,0.394-2.253
				c0.449-0.872,1.064-1.657,1.801-2.295c0.826-0.715,1.802-1.249,2.544-2.052c0.742-0.804,1.219-2.018,0.759-3.016
				c-0.161-0.012-0.322-0.012-0.483-0.005c0.024,0.169,0.048,0.337,0.062,0.508c0.063,0.764-0.067,1.614-0.632,2.121
				c-0.967,0.866-2.705,0.336-3.561,1.315c-0.355,0.405-0.456,0.969-0.594,1.494c-0.202,0.772-0.515,1.515-0.925,2.197
				c-0.512,0.853-1.182,1.953-0.572,2.736c0.269,0.347,0.723,0.496,1.019,0.819c0.499,0.546,0.408,1.433,0.075,2.097
				c-0.334,0.664-0.865,1.206-1.222,1.856c0.87-0.09,1.655-0.552,2.484-0.833c0.83-0.281,1.839-0.348,2.488,0.249
				c0.711,0.654,0.672,1.836,0.251,2.713c-0.401,0.838-1.097,1.525-1.932,1.909c0.99,0.271,2.017-0.232,2.878-0.799
				c0.86-0.566,1.722-1.233,2.743-1.341c1.02-0.107,2.208,0.66,2.1,1.698c-0.139,1.355-2.25,2.118-1.873,3.424
				c0.702,0.437,1.63,0.09,2.28-0.424c0.65-0.514,1.192-1.194,1.945-1.529c0.618-0.275,1.314-0.288,1.988-0.281
				c0.431,0.004,0.882,0.019,1.258,0.233c0.376,0.214,0.645,0.692,0.482,1.098c-0.168,0.423-0.694,0.578-0.941,0.958
				c-0.428,0.657,0.156,1.601-0.18,2.312c-0.264,0.561-1.058,0.878-1.004,1.499c0.001,0.002,0.001,0.003,0.001,0.005
				c1.511-0.201,2.983-0.645,4.442-1.1C149.204,197.475,149.528,197.37,149.764,197.139z"/>
		</g>
		<path fill="#334700" d="M150.474,196.593c0.209,0.381,0.676,0.566,1.079,0.669c1.975,0.506,3.943,0.229,5.341-0.753
			c-0.128-0.112-0.256-0.224-0.384-0.335c1.27-0.725,2.504-1.615,2.994-3.021c0.112-0.324,0.184-0.67,0.33-0.975
			c0.196-0.41,0.519-0.726,0.81-1.063c0.706-0.818,1.235-1.792,1.563-2.868c-0.857,0.597-2.011,0.829-3.211,0.646
			c0.247-0.472,0.453-0.971,0.615-1.492c-1.387,0.515-3.283-0.234-4.718,0.194c-0.999,0.299-1.632,1.123-2.224,1.918
			c0.018-0.396-0.526-0.775-0.926-0.747c-0.398,0.028-0.664,0.313-0.902,0.584c-0.494,0.563-0.994,1.136-1.252,1.865
			c-0.259,0.729-0.243,1.65,0.25,2.458c0.259,0.424,0.649,0.827,0.72,1.276C150.649,195.533,150.167,196.03,150.474,196.593z"/>
		<path fill="#E30706" d="M169.002,162.588c-2.416-0.244-4.874-0.038-7.219,0.603c-1.033,0.283-2.053,0.651-3.119,0.738
			c-1.04,0.084-2.105-0.101-3.119,0.153c-0.51,0.127-1.007,0.366-1.532,0.344c-0.525-0.021-1.092-0.447-1.014-0.976
			c3.313-2.12,7.327-2.793,11.237-2.932c1.888-0.067,3.831-0.009,5.578,0.723c1.746,0.732,3.273,2.266,3.537,4.169
			c-0.173-0.924-0.865-1.684-1.681-2.125C170.854,162.844,169.921,162.681,169.002,162.588z"/>
		<path fill="#E30706" d="M175.473,190.669c-0.136,0.132-0.208,0.317-0.322,0.47c-0.3,0.406-0.834,0.531-1.327,0.618
			c-2.314,0.408-4.676,0.549-7.021,0.421c-0.344-0.019-0.693-0.045-1.012-0.173c-0.439-0.177-0.785-0.532-1.097-0.893
			c-0.984-1.142-1.78-2.453-2.345-3.859c-1.314-0.14-2.663,0.062-3.882,0.58c-0.502,0.214-1.067,0.69-0.864,1.203
			c0.333,1.133,1.25,1.984,2.21,2.649c3.692,2.557,8.484,3.123,12.861,2.218c1.091-0.226,2.188-0.546,3.108-1.185
			c0.366-0.255,0.716-0.579,0.854-1.008c0.137-0.431-0.01-0.98-0.416-1.164C175.977,190.434,175.667,190.481,175.473,190.669z"/>
		<path fill="#E30706" d="M207.732,178.546c0.822-0.165,1.416-0.941,2.229-1.151c0.044-0.303-0.354-0.44-0.651-0.492
			c-2.129-0.371-3.79-2.564-3.601-4.753c0.122-1.426,0.906-2.693,1.668-3.897c-1.193,0.007-2.385,0.014-3.577,0.021
			c-0.232,0.001-0.49,0.014-0.652,0.182c-0.127,0.134-0.16,0.333-0.182,0.518c-0.335,2.836,0.445,5.793,2.13,8.079
			C205.734,177.917,206.689,178.754,207.732,178.546z"/>
		<path fill="#E30706" d="M148.761,196.132c-1.41,0.203-2.766,0.779-3.897,1.658c0.584,1.646,1.99,2.885,3.556,3.609
			c1.564,0.724,3.292,0.992,5,1.197c2.375,0.283,4.799,0.455,7.14-0.041c2.11-0.447,4.288-1.643,4.972-3.723
			c-3.13,1.352-6.638,1.415-10.036,1.298c-1.432-0.048-2.901-0.133-4.208-0.729C149.98,198.807,148.852,197.586,148.761,196.132z"/>
		<path fill="#E30706" d="M206.472,201.97c-0.119,0.815-0.239,1.632-0.358,2.447c3.795,0.364,7.747,0.707,11.313-0.666
			c2.217-0.853,4.204-2.38,5.492-4.405c-0.807-0.091-1.599-0.31-2.339-0.645c-1.011,1.563-2.713,2.555-4.484,3.06
			c-1.77,0.504-3.627,0.571-5.465,0.637C209.228,202.446,207.779,202.488,206.472,201.97z"/>
		<path fill="#E30706" d="M193.47,188.892c0.51-0.601,0.534-1.47,0.533-2.263c0.913-0.065,1.826-0.129,2.74-0.194
			c0.505,1.435-0.369,3.075-1.635,3.89c-1.266,0.813-2.819,0.986-4.313,1.077c-1.256,0.077-2.515,0.109-3.773,0.097
			c-0.948-0.007-2.122-0.199-2.418-1.117c2.625,0.685,5.485,0.388,7.921-0.821C192.871,189.387,193.218,189.191,193.47,188.892z"/>
	</g>
	<path fill="#4C6604" d="M213.96,261.484c-2.111,1.255-4.097,2.814-5.849,4.592c0.7,0.391,1.4,0.781,2.101,1.171
		c-1.908,1.128-3.969,1.876-5.972,2.165c1.096,0.73,2.191,1.46,3.286,2.189c2.716,1.809,5.772,3.679,9.576,2.918
		c-0.349,0.34-0.696,0.681-1.045,1.02c1.414,0.932,3.438,1.086,5.409,0.415c-0.457,1.197,0.177,2.319,1.198,2.69
		c1.021,0.372,2.323,0.135,3.545-0.3c5.893-2.093,10.557-8.905,10.298-14.426c-0.259-5.519-4.951-9.253-10.669-9.185
		c-1.909,0.021-3.916,0.418-5.879,1.16c-2.53,0.958-4.942,2.47-7.436,3.639C212.869,260.285,213.354,260.946,213.96,261.484z"/>
	<g>
		<path fill="#CCE345" d="M251.121,243.05c8.074-5.004,17.335-4.52,20.683,1.079c3.35,5.599-0.479,14.191-8.554,19.195
			c-8.073,5.002-17.334,4.519-20.683-1.079C239.218,256.646,243.048,248.052,251.121,243.05z"/>
		<path fill="#8EC22C" d="M251.78,244.189c8.074-5.002,17.687-3.932,21.47,2.392c3.783,6.324,0.305,15.507-7.77,20.509
			c-8.073,5.003-17.685,3.932-21.469-2.393C240.229,258.374,243.707,249.192,251.78,244.189z"/>
		<path fill="#E7F279" d="M251.121,243.05c8.074-5.004,17.335-4.52,20.683,1.079c3.35,5.599-0.479,14.191-8.554,19.195
			c-8.073,5.002-17.334,4.519-20.683-1.079C239.218,256.646,243.048,248.052,251.121,243.05z"/>
		<path fill="#FFFFFF" d="M251.621,243.885c7.408-4.59,15.904-4.146,18.978,0.991c3.074,5.137-0.44,13.021-7.849,17.611
			c-7.407,4.59-15.904,4.147-18.978-0.989C240.699,256.36,244.213,248.476,251.621,243.885z"/>
		<g>
			<path fill="#E7F279" d="M258.432,254.685l3.825,6.393c0.173,0.291,0.671,0.313,1.076,0.03c2.543-1.782,4.511-3.988,5.753-6.283
				c0.218-0.403,0.043-0.772-0.395-0.795l-9.222-0.481C258.814,253.514,258.16,254.23,258.432,254.685z"/>
			<path fill="#E7F279" d="M261.746,261.394L257.921,255c-0.271-0.454-1.197-0.19-1.468,0.417l-3.814,8.559
				c-0.181,0.405,0.062,0.733,0.514,0.721c2.574-0.068,5.402-0.834,8.126-2.315C261.711,262.145,261.921,261.685,261.746,261.394z"
				/>
			<path fill="#E7F279" d="M254.691,253.299l-9.222-0.481c-0.438-0.023-0.927,0.313-1.07,0.719c-0.813,2.318-0.856,4.624,0.02,6.584
				c0.14,0.312,0.634,0.341,1.055,0.081l9.218-5.712C255.346,254.084,255.346,253.332,254.691,253.299z"/>
			<path fill="#E7F279" d="M245.271,261.545c1.309,1.692,3.341,2.712,5.738,3.04c0.421,0.058,0.938-0.229,1.119-0.637l3.813-8.558
				c0.271-0.608-0.385-0.953-1.038-0.548l-9.22,5.712C245.264,260.815,245.063,261.276,245.271,261.545z"/>
			<path fill="#E7F279" d="M259.68,253.074l9.223,0.48c0.438,0.023,0.927-0.312,1.069-0.719c0.813-2.318,0.857-4.624-0.02-6.584
				c-0.14-0.311-0.633-0.341-1.054-0.08l-9.219,5.712C259.025,252.289,259.025,253.04,259.68,253.074z"/>
			<path fill="#E7F279" d="M255.94,251.689l-3.825-6.394c-0.174-0.292-0.671-0.313-1.077-0.03c-2.542,1.782-4.511,3.987-5.752,6.282
				c-0.218,0.403-0.044,0.773,0.394,0.796l9.223,0.48C255.558,252.859,256.211,252.143,255.94,251.689z"/>
			<path fill="#E7F279" d="M252.625,244.98l3.825,6.392c0.271,0.454,1.198,0.191,1.468-0.416l3.814-8.559
				c0.181-0.406-0.062-0.734-0.513-0.722c-2.575,0.068-5.402,0.835-8.126,2.317C252.66,244.228,252.451,244.688,252.625,244.98z"/>
			<path fill="#E7F279" d="M258.43,250.982c-0.271,0.607,0.384,0.952,1.037,0.548l9.22-5.713c0.421-0.26,0.622-0.721,0.414-0.99
				c-1.31-1.692-3.342-2.711-5.738-3.04c-0.421-0.058-0.938,0.23-1.119,0.637L258.43,250.982z"/>
		</g>
	</g>
	<g>
		<path fill="#CCE345" d="M235.216,247.774c8.073-5.003,17.334-4.52,20.684,1.079s-0.48,14.192-8.555,19.195
			c-8.073,5.002-17.334,4.52-20.684-1.079C223.312,261.37,227.142,252.776,235.216,247.774z"/>
		<path fill="#8EC22C" d="M235.875,248.914c8.074-5.002,17.686-3.931,21.47,2.393c3.782,6.323,0.305,15.506-7.77,20.509
			c-8.073,5.003-17.686,3.931-21.469-2.393S227.801,253.917,235.875,248.914z"/>
		<path fill="#E7F279" d="M235.216,247.774c8.073-5.003,17.334-4.52,20.684,1.079s-0.48,14.192-8.555,19.195
			c-8.073,5.002-17.334,4.52-20.684-1.079C223.312,261.37,227.142,252.776,235.216,247.774z"/>
		<path fill="#FFFFFF" d="M235.715,248.61c7.409-4.591,15.905-4.146,18.979,0.99s-0.44,13.022-7.849,17.611
			c-7.408,4.591-15.905,4.147-18.979-0.99C224.794,261.085,228.308,253.201,235.715,248.61z"/>
		<g>
			<path fill="#E7F279" d="M242.525,259.409l3.825,6.393c0.174,0.292,0.672,0.313,1.076,0.03c2.544-1.782,4.511-3.987,5.753-6.282
				c0.219-0.403,0.044-0.772-0.395-0.796l-9.222-0.481C242.909,258.238,242.254,258.956,242.525,259.409z"/>
			<path fill="#E7F279" d="M245.84,266.117l-3.824-6.393c-0.271-0.453-1.197-0.189-1.469,0.417l-3.814,8.559
				c-0.181,0.406,0.062,0.734,0.514,0.722c2.574-0.069,5.402-0.835,8.126-2.316C245.805,266.869,246.015,266.41,245.84,266.117z"/>
			<path fill="#E7F279" d="M238.786,258.023l-9.223-0.48c-0.438-0.023-0.926,0.312-1.068,0.719
				c-0.814,2.317-0.857,4.623,0.018,6.583c0.14,0.313,0.635,0.342,1.055,0.082l9.22-5.713
				C239.44,258.809,239.439,258.058,238.786,258.023z"/>
			<path fill="#E7F279" d="M229.366,266.27c1.309,1.692,3.342,2.713,5.738,3.04c0.421,0.058,0.938-0.229,1.118-0.636l3.814-8.56
				c0.27-0.606-0.385-0.951-1.039-0.546l-9.219,5.711C229.359,265.541,229.158,266.001,229.366,266.27z"/>
			<path fill="#E7F279" d="M243.774,257.8l9.223,0.48c0.438,0.022,0.926-0.313,1.068-0.719c0.814-2.318,0.857-4.624-0.019-6.584
				c-0.14-0.312-0.634-0.342-1.054-0.081l-9.22,5.712C243.12,257.014,243.12,257.765,243.774,257.8z"/>
			<path fill="#E7F279" d="M240.035,256.414l-3.825-6.394c-0.175-0.291-0.672-0.313-1.077-0.03c-2.543,1.782-4.51,3.987-5.752,6.283
				c-0.219,0.403-0.045,0.772,0.394,0.795l9.223,0.481C239.651,257.584,240.306,256.867,240.035,256.414z"/>
			<path fill="#E7F279" d="M236.721,249.705l3.824,6.393c0.271,0.453,1.197,0.19,1.468-0.417l3.814-8.558
				c0.182-0.407-0.063-0.734-0.514-0.723c-2.573,0.069-5.402,0.835-8.125,2.316C236.755,248.953,236.546,249.414,236.721,249.705z"
				/>
			<path fill="#E7F279" d="M242.523,255.708c-0.271,0.607,0.385,0.952,1.039,0.548l9.218-5.713c0.421-0.261,0.622-0.721,0.414-0.99
				c-1.309-1.692-3.342-2.712-5.738-3.04c-0.421-0.058-0.938,0.229-1.118,0.636L242.523,255.708z"/>
		</g>
	</g>
</g>
</svg>
