<?xml version="1.0" encoding="utf-8"?>
<!-- Generator: Adobe Illustrator 16.0.0, SVG Export Plug-In . SVG Version: 6.00 Build 0)  -->
<!DOCTYPE svg PUBLIC "-//W3C//DTD SVG 1.1//EN" "http://www.w3.org/Graphics/SVG/1.1/DTD/svg11.dtd">
<svg version="1.1" id="Capa_1" xmlns="http://www.w3.org/2000/svg" xmlns:xlink="http://www.w3.org/1999/xlink" x="0px" y="0px"
	 width="400px" height="400px" viewBox="0 0 400 400" enable-background="new 0 0 400 400" xml:space="preserve">
<g>
	<g id="XMLID_245_">
		<polygon id="XMLID_54_" fill="#003AA5" stroke="#003AA5" stroke-width="0.25" stroke-miterlimit="10" points="118.485,277.347 
			91.485,274.628 91.485,274.602 91.353,274.615 91.221,274.602 91.221,274.628 64.221,277.347 60.891,304.372 61.748,304.477 
			91.221,304.477 91.485,304.477 120.958,304.477 121.815,304.372 		"/>
		<path id="XMLID_297_" fill="#259AFF" d="M91.241,291.333c12.935-0.359,30.457-3.588,30.457-3.588l-3.958-69.93
			c0.289-3.066,0.342-4.643-2.863-5.678c-4.414-1.425-22.279-9.581-22.279-9.581c-0.084-0.009-0.168-0.008-0.252-0.014v-0.022
			h-1.103h-0.814h-1.038v0.022c-0.081,0.006-0.163,0.005-0.244,0.014c0,0-17.255,8.156-21.519,9.581
			c-3.096,1.035-2.988,2.611-2.709,5.678l-4.738,69.93c0,0,17.758,3.224,30.248,3.587L91.241,291.333z"/>
		<g id="XMLID_464_">
			<path id="XMLID_67_" fill="#EDB6B3" d="M51.142,237.267c0,0-2.397,15.044-1.458,16.602s16.52,5.707,27.08,3.2
				c10.56-2.508,23.197-8.221,23.197-8.221l-26.141-6.901l-11.252,1.035C62.568,242.981,54.604,240.746,51.142,237.267z"/>
			<g id="XMLID_145_">
				<defs>
					<path id="XMLID_141_" d="M51.142,237.267c0,0-2.397,15.044-1.458,16.602s16.52,5.707,27.08,3.2
						c10.56-2.508,23.197-8.221,23.197-8.221l-26.141-6.901l-11.252,1.035C62.568,242.981,54.604,240.746,51.142,237.267z"/>
				</defs>
				<clipPath id="XMLID_2_">
					<use xlink:href="#XMLID_141_"  overflow="visible"/>
				</clipPath>
				<path id="XMLID_133_" opacity="0.3" clip-path="url(#XMLID_2_)" fill="#EDB6B3" d="M66.945,244.005
					c0,0,11.331,4.459,11.331,5.741c0,1.283,0.855,5.089-29.717,3.935c0,0,23.303,14.452,45.323,7.183
					c22.021-7.269,6.078-10.476,6.078-10.476L66.945,244.005z"/>
			</g>
		</g>
		<g id="XMLID_449_">
			<path id="XMLID_69_" fill="#259AFF" d="M47.118,239.125l13.683,4.076l5.686-1.644l2.764-2.609l17.428-6.729l-0.103-29.698
				c0,0-23.951,5.751-30.954,13.87C51.476,221.197,47.118,239.125,47.118,239.125z"/>
			<path id="XMLID_38_" opacity="0.5" fill="#259AFF" d="M60.845,243.102c0,0,1.883-10.42,4.064-17.513l0.802,18.416L60.845,243.102
				z"/>
		</g>
		<g id="XMLID_227_">
			<path id="XMLID_287_" fill="#259AFF" d="M135.588,239.125l-13.682,4.076l-5.686-1.644l-2.764-2.609l-17.324-6.729v-29.698
				c0,0,23.951,5.751,30.954,13.87C131.23,221.197,135.588,239.125,135.588,239.125z"/>
			<path id="XMLID_247_" opacity="0.5" fill="#259AFF" d="M121.861,243.102c0,0-1.883-10.42-4.064-17.513l-0.802,18.416
				L121.861,243.102z"/>
		</g>
		<g id="XMLID_254_">
			<path id="XMLID_63_" fill="#E2ABAA" d="M110.913,236.768c0,0,1.958-4.092,2.543-4.979c0.586-0.886,2.727,0.473,1.905,2.269
				s-1.201,2.455-1.201,2.455L110.913,236.768z"/>
			<path id="XMLID_304_" fill="#EDB6B3" d="M99.55,244.212c0,0,12.143-8.924,12.728-8.924c0.585,0,9.261-0.203,9.832-0.084
				c0.513,0.107,0.636,1.064,0.502,1.543c-0.081,0.287-0.333,0.489-0.631,0.504l-5.931,0.402v0.122c0,0,5.42-0.044,7.678,0.113
				c0.481,0.034,0.846,0.438,0.839,0.921l0,0c-0.007,0.476-0.379,0.865-0.854,0.895l-6.828,0.532l8.126,0.477l0.726,2.329
				l-19.896,3.072L99.55,244.212z"/>
		</g>
		<g id="XMLID_253_">
			<g id="XMLID_244_">
				<path id="XMLID_68_" fill="#EDB6B3" d="M131.107,240.197c0,0,1.314,7.438,1.314,10.425s-5.454,6.27-8.05,6.446
					c-2.597,0.176-55.701-12.205-58.557-12.441c-2.857-0.237-5.324-0.839-5.324-0.839s2.597-4.946,7.401-6.521
					c4.804-1.576,10.257,0.92,13.503,1.685c3.246,0.765,20.645,3.148,29.733,2.995C120.216,241.793,131.107,240.197,131.107,240.197
					z"/>
				<g id="XMLID_86_">
					<defs>
						<path id="XMLID_71_" d="M131.107,240.197c0,0,1.314,7.438,1.314,10.425s-5.454,6.27-8.05,6.446
							c-2.597,0.176-55.701-12.205-58.557-12.441c-2.857-0.237-5.324-0.839-5.324-0.839s2.597-4.946,7.401-6.521
							c4.804-1.576,10.257,0.92,13.503,1.685c3.246,0.765,20.645,3.148,29.733,2.995
							C120.216,241.793,131.107,240.197,131.107,240.197z"/>
					</defs>
					<clipPath id="XMLID_3_">
						<use xlink:href="#XMLID_71_"  overflow="visible"/>
					</clipPath>
					<path id="XMLID_70_" opacity="0.25" clip-path="url(#XMLID_3_)" fill="#EDB6B3" d="M130.811,253.681
						c0,0-14.741-1.369-33.495-4.646c-18.754-3.278-36.825-5.246-36.825-5.246l64.25,15.223L130.811,253.681z"/>
				</g>
			</g>
			<g id="XMLID_246_" opacity="0.3">
				<path id="XMLID_192_" fill="#EDB6B3" d="M102.931,241.746c0,0,0.333-0.013,0.917-0.033c0.582-0.011,1.413-0.026,2.411-0.044
					c1.992-0.018,4.642,0.008,7.287,0.042c2.645,0.044,5.287,0.084,7.271,0.08c0.497-0.002,0.952-0.003,1.355-0.005
					c0.405,0.005,0.757-0.005,1.046-0.021c0.581-0.021,0.917-0.019,0.917-0.019s-0.322,0.086-0.893,0.212
					c-0.286,0.065-0.634,0.135-1.036,0.199c-0.401,0.065-0.855,0.16-1.353,0.207c-1.989,0.259-4.659,0.384-7.322,0.346
					c-2.663-0.041-5.319-0.235-7.303-0.471c-0.992-0.111-1.815-0.251-2.392-0.333C103.258,241.814,102.931,241.746,102.931,241.746z
					"/>
			</g>
		</g>
		<g id="XMLID_312_">
			<g id="XMLID_216_">
				<path fill="#003AA5" d="M100.87,144.482c2.105-1.712,5.259-1.049,7.69,0.154c4.09,2.025,7.588,5.469,9.087,9.779
					c0.645,1.853,0.913,3.816,1.022,5.775c0.163,2.899-0.224,6.23-2.579,7.931c-0.296,0.214-0.641,0.4-1.005,0.373
					c-0.681-0.052-1.073-0.786-1.295-1.432c-0.703-2.044-1.004-4.204-1.6-6.282c-1.712-5.977-5.75-10.983-9.922-15.592"/>
				<g>
					<path fill="#003AA5" d="M101.562,145.667c5.135-2.918,11.29,3.179,13.685,7.016c1.395,2.234,1.734,4.948,1.928,7.509
						c0.072,1.139,0.018,2.272-0.163,3.402c-0.464,3.236-2.096,1.962-2.575-0.068c-1.608-6.806-5.407-15.382-11.718-19.105
						c-0.83-0.49-1.566,0.449-1.219,1.219c1.669,3.699,4.906,6.674,6.967,10.238c2.193,3.793,2.08,8.194,4.002,11.959
						c2.556,5.006,6.584-0.125,7.451-3.44c1.524-5.832-0.984-12.443-4.807-16.762c-3.516-3.971-9.949-7.377-14.934-4.335
						C98.671,144.218,100.021,146.542,101.562,145.667L101.562,145.667z"/>
				</g>
			</g>
			<g id="XMLID_195_">
				<path fill="#003AA5" d="M68.794,168.202c-4.255-6.075-3.914-14.769,0.197-20.942c4.11-6.174,11.518-9.784,18.931-10.025
					c3.974-0.129,8.311,0.829,10.816,3.917c0.677,0.834,1.188,2.065,0.565,2.94c-0.271,0.381-0.704,0.606-1.127,0.805
					c-4.076,1.91-8.612,2.532-13.004,3.515c-4.392,0.983-8.883,2.455-12.068,5.636c-3.619,3.615-5.024,9.287-3.512,14.174"/>
				<g>
					<path fill="#003AA5" d="M69.665,167.693c-5.16-9.086-2.149-19.441,6.457-25.147c3.463-2.296,7.714-3.262,11.801-3.529
						c2.752-0.18,5.33,0.421,7.744,1.714c5.511,2.954-2.599,4.172-4.331,4.609c-7.035,1.775-13.694,2.574-19.215,7.723
						c-3.988,3.719-4.964,10.438-3.692,15.479c0.381,1.509,2.709,0.868,2.328-0.643c-4.033-15.985,14.176-17.012,24.745-20.125
						c2.153-0.635,6.519-1.988,5.75-5.108c-0.965-3.918-4.723-5.797-8.35-6.771C75,131.089,56.687,152.688,67.924,168.711
						C68.66,169.76,70.316,168.841,69.665,167.693L69.665,167.693z"/>
				</g>
			</g>
			<g id="XMLID_183_">
				<path id="XMLID_186_" fill="#EDB6B3" d="M110.274,169.007c0,0,8.386-4.466,9.571,1.915c1.185,6.38-2.643,12.67-9.48,9.206
					C103.529,176.664,110.274,169.007,110.274,169.007z"/>
				<path id="XMLID_184_" opacity="0.7" fill="#EDB6B3" d="M112.768,174.198c0.564-2.076,1.235-3.265,2.054-3.636
					c2.105-0.952,3.73,0.574,4.295,1.515c0.112,0.188,0.052,0.43-0.135,0.542c-0.186,0.114-0.43,0.055-0.543-0.134
					c-0.041-0.065-0.784-1.257-2.021-1.412c1.222,1.257,2.521,3.568,0.821,5.677c-0.078,0.097-0.192,0.147-0.308,0.147
					c-0.087,0-0.175-0.029-0.248-0.088c-0.17-0.137-0.197-0.387-0.06-0.557c1.924-2.388-1.07-4.919-1.199-5.025
					c-0.012-0.01-0.018-0.024-0.029-0.036c-0.081,0.028-0.162,0.054-0.246,0.092c-0.264,0.12-0.949,0.663-1.617,3.123
					c-0.048,0.177-0.207,0.292-0.381,0.292c-0.034,0-0.069-0.004-0.104-0.014C112.834,174.627,112.71,174.41,112.768,174.198z"/>
			</g>
			<g id="XMLID_179_">
				<path id="XMLID_182_" fill="#EDB6B3" d="M73.061,169.007c0,0-8.386-4.466-9.571,1.915c-1.185,6.38,2.644,12.67,9.48,9.206
					S73.061,169.007,73.061,169.007z"/>
				<path id="XMLID_180_" opacity="0.7" fill="#EDB6B3" d="M70.568,174.198c-0.564-2.076-1.235-3.265-2.054-3.636
					c-2.105-0.952-3.73,0.574-4.295,1.515c-0.112,0.188-0.051,0.43,0.136,0.542c0.186,0.114,0.43,0.055,0.543-0.134
					c0.04-0.065,0.784-1.257,2.02-1.412c-1.221,1.257-2.52,3.568-0.821,5.677c0.079,0.097,0.193,0.147,0.308,0.147
					c0.088,0,0.175-0.029,0.249-0.088c0.17-0.137,0.197-0.387,0.06-0.557c-1.924-2.388,1.071-4.919,1.2-5.025
					c0.012-0.01,0.018-0.024,0.029-0.036c0.082,0.028,0.162,0.054,0.246,0.092c0.263,0.12,0.949,0.663,1.617,3.123
					c0.048,0.177,0.207,0.292,0.382,0.292c0.034,0,0.069-0.004,0.104-0.014C70.501,174.627,70.625,174.41,70.568,174.198z"/>
			</g>
			<g id="XMLID_173_">
				<path id="XMLID_224_" fill="#EDB6B3" d="M97.315,196.271c0-3.138-2.773-5.683-6.195-5.683c-3.421,0-6.195,2.545-6.195,5.683
					l-0.014,6.825c-0.003,3.426,2.773,6.204,6.198,6.204l0,0c3.422,0,6.197-2.773,6.199-6.195L97.315,196.271z"/>
				<g id="XMLID_174_">
					<defs>
						<path id="XMLID_175_" d="M93.175,216.142h-4.109c-2.287,0-4.14-1.854-4.14-4.141V192.31c0-0.95,0.771-1.721,1.721-1.721h8.948
							c0.95,0,1.721,0.771,1.721,1.721v19.691C97.315,214.287,95.461,216.142,93.175,216.142z"/>
					</defs>
					<clipPath id="XMLID_4_">
						<use xlink:href="#XMLID_175_"  overflow="visible"/>
					</clipPath>
					<g id="XMLID_176_" clip-path="url(#XMLID_4_)">
						<path id="XMLID_177_" fill="#EDB6B3" d="M119.536,145.347H91.809h-0.007H64.074c0,0-2.428,32.187,1.32,40.707
							c2.038,4.632,8.837,9.348,15.278,13.3c6.849,4.202,15.788,4.176,22.6-0.077c6.305-3.938,12.919-8.618,14.945-13.223
							C121.964,177.534,119.536,145.347,119.536,145.347z"/>
					</g>
				</g>
			</g>
			<path id="XMLID_172_" fill="#EDB6B3" d="M114.34,161.087c-0.177-6.016-5.113-10.793-11.131-10.793H91.67h-0.006H80.328
				c-6.13,0-11.163,4.868-11.338,10.997c-0.25,8.718,0.868,20.132,2.622,24.479c1.629,4.038,6.012,8.148,11.162,11.593
				c5.475,3.662,12.611,3.64,18.057-0.067c5.042-3.432,9.276-7.512,10.896-11.525C113.492,181.389,114.597,169.83,114.34,161.087z"
				/>
			<g id="XMLID_155_">
				<defs>
					<path id="XMLID_159_" d="M101.093,185.33c-0.375-1.059-1.741-0.777-4.158,0.397c-2.618,1.273-7.233,1.582-10.521,0.248
						c-2.49-1.01-3.727-1.112-4.171-0.201c-0.446,0.911,2.32,6.273,7.563,6.923c0.981,0.121,2.471,0.164,4.057-0.096
						C99.078,191.747,101.507,186.498,101.093,185.33z"/>
				</defs>
				<clipPath id="XMLID_6_">
					<use xlink:href="#XMLID_159_"  overflow="visible"/>
				</clipPath>
				<g id="XMLID_170_" clip-path="url(#XMLID_6_)">
					<path id="XMLID_171_" fill="#7F3322" d="M101.093,185.33c-0.375-1.059-1.741-0.777-4.158,0.397
						c-2.618,1.273-7.233,1.582-10.521,0.248c-2.49-1.01-3.727-1.112-4.171-0.201c-0.446,0.911,2.32,6.273,7.563,6.923
						c0.981,0.121,2.471,0.164,4.057-0.096C99.078,191.747,101.507,186.498,101.093,185.33z"/>
				</g>
				<g id="XMLID_167_" clip-path="url(#XMLID_6_)">
					<g id="XMLID_168_">
						<path id="XMLID_169_" fill="#FFFFFF" d="M84.505,184.609c0,0,0.088,3.732,6.581,3.846s8.405-1.71,8.433-4.288L84.505,184.609z
							"/>
					</g>
				</g>
				<g id="XMLID_164_" clip-path="url(#XMLID_6_)">
					<g id="XMLID_165_">
						<path id="XMLID_166_" fill="#EDB6B3" d="M86.902,192.021c0,0,4.466-2.86,11.375-0.179l-5.336,3.682L86.902,192.021z"/>
					</g>
				</g>
				<g id="XMLID_160_" clip-path="url(#XMLID_6_)">
					<g id="XMLID_162_">
						<path id="XMLID_163_" fill="#EDB6B3" d="M86.902,192.021c0,0,4.466-2.86,11.375-0.179l-5.336,3.682L86.902,192.021z"/>
					</g>
				</g>
			</g>
			<g id="XMLID_153_">
				<path id="XMLID_154_" fill="#EDB6B3" d="M87.418,177.889c0,0-0.058,0.25-0.158,0.688c-0.048,0.218-0.104,0.484-0.146,0.789
					c-0.04,0.294-0.079,0.67-0.014,0.966c0.046,0.2,0.472,0.474,0.8,0.696c0.357,0.232,0.759,0.439,1.172,0.645
					c0.825,0.388,1.792,0.722,2.682,0.664c0.27-0.017,0.482-0.051,0.708-0.098c0.233-0.051,0.464-0.118,0.691-0.193
					c0.457-0.147,0.899-0.335,1.313-0.545s0.812-0.424,1.158-0.665c0.171-0.119,0.337-0.245,0.458-0.372
					c0.066-0.072,0.105-0.103,0.125-0.175c0.034-0.105,0.034-0.131,0.046-0.235c0.066-0.723-0.009-1.382-0.044-1.821
					c-0.04-0.448-0.063-0.704-0.063-0.704s0.082,0.244,0.198,0.681c0.05,0.22,0.111,0.487,0.181,0.795
					c0.058,0.312,0.133,0.659,0.136,1.073c0.004,0.086-0.016,0.26-0.039,0.344c-0.022,0.126-0.116,0.262-0.183,0.346
					c-0.146,0.189-0.311,0.341-0.484,0.494c-0.35,0.299-0.736,0.586-1.166,0.837c-0.43,0.248-0.89,0.482-1.387,0.666
					c-0.25,0.087-0.506,0.167-0.771,0.229c-0.272,0.064-0.566,0.11-0.808,0.129c-1.175,0.061-2.203-0.356-3.073-0.835
					c-0.439-0.237-0.827-0.523-1.182-0.81c-0.177-0.144-0.343-0.291-0.498-0.447c-0.074-0.074-0.171-0.178-0.226-0.254
					c-0.048-0.047-0.165-0.269-0.157-0.358c-0.055-0.468,0.083-0.799,0.161-1.11c0.093-0.305,0.191-0.563,0.273-0.772
					C87.297,178.117,87.418,177.889,87.418,177.889z"/>
			</g>
			<g id="XMLID_132_">
				<path id="XMLID_152_" fill="#3A2719" d="M74.102,181.022"/>
				<g id="XMLID_150_">
					<path id="XMLID_151_" fill="#3A2719" d="M74.102,181.075c0.068,0,0.068-0.105,0-0.105S74.034,181.075,74.102,181.075
						L74.102,181.075z"/>
				</g>
			</g>
			<g id="XMLID_45_">
				<circle id="XMLID_87_" fill="#153158" cx="80.878" cy="169.904" r="2.3"/>
				<circle id="XMLID_64_" fill="#153158" cx="102.458" cy="169.904" r="2.3"/>
			</g>
			<g id="XMLID_14_">
				
					<path id="XMLID_44_" fill="none" stroke="#153158" stroke-width="2" stroke-linecap="round" stroke-linejoin="round" stroke-miterlimit="10" d="
					M74.88,165.126c1.728-2.167,4.159-3.796,6.902-4.321"/>
				
					<path id="XMLID_19_" fill="none" stroke="#153158" stroke-width="2" stroke-linecap="round" stroke-linejoin="round" stroke-miterlimit="10" d="
					M108.456,165.126c-1.728-2.167-4.16-3.796-6.902-4.321"/>
			</g>
			<g id="XMLID_185_">
				<path fill="#003AA5" d="M102.083,145.22c0.309,0.484-0.036,1.107-0.371,1.574c-1.945,2.702-3.909,5.427-6.379,7.66
					c-2.47,2.232-5.519,3.963-8.832,4.29c-0.369,0.036-0.779,0.042-1.061-0.198c-0.285-0.242-0.342-0.656-0.34-1.029
					c0.011-2.249,1.42-4.24,2.941-5.896c3.032-3.301,6.763-5.958,10.875-7.743"/>
				<g>
					<path fill="#003AA5" d="M101.394,145.03c-0.718,2.607-3.476,5.139-5.266,7.086c-2.589,2.817-5.791,4.81-9.627,5.287
						c-0.683,0.085,2.143-4.217,2.591-4.732c0.979-1.126,2.118-2.115,3.25-3.081c2.244-1.915,4.922-3.228,7.245-5.042
						c0.822-0.643-0.097-1.746-0.924-1.587c-4.926,0.948-9.212,4.787-12.419,8.461c-1.318,1.51-4.496,7.162-1.166,8.437
						c3.63,1.39,8.521-2.404,11.05-4.611c2.012-1.756,3.624-3.978,5.193-6.122c1.128-1.541,2.147-2.484,1.379-4.268
						C102.444,144.265,101.544,144.485,101.394,145.03L101.394,145.03z"/>
				</g>
			</g>
			<g id="XMLID_187_">
				<path fill="#003AA5" d="M94.974,147.098c-5.822,4.814-12.382,8.735-19.38,11.582c-1.209,0.492-2.681,0.926-3.74,0.162
					c-0.732-0.529-1.022-1.521-0.908-2.416c0.114-0.896,0.572-1.713,1.093-2.449c1.216-1.721,2.812-3.14,4.509-4.386
					c6.016-4.415,13.514-6.771,20.973-6.592"/>
				<g>
					<path fill="#003AA5" d="M94.228,146.353c-2.827,2.518-6.619,4.721-9.916,6.585c-1.521,0.859-3.099,1.608-4.677,2.354
						c-1.478,0.643-2.967,1.258-4.467,1.845c-1.545-1.831-1.495-3.271,0.152-4.323c3.054-3.17,7.534-5.212,11.624-6.606
						c3.566-1.215,7.322-1.039,10.902-2.032c1.164-0.323,1.164-2.028,0-2.351c-9.058-2.511-25.771,4.712-28.528,14.153
						c-1.287,4.408,3.85,5.255,6.702,4.247c7.358-2.6,13.327-7.717,19.486-12.215C96.744,147.105,95.366,145.339,94.228,146.353
						L94.228,146.353z"/>
				</g>
			</g>
			<g id="XMLID_188_">
				<path fill="#003AA5" d="M101.589,146.503c-0.283,4.532,0.359,9.12,1.875,13.4c0.957,2.702,2.524,5.524,5.244,6.43
					c0.333,0.111,0.704,0.188,1.03,0.06c0.333-0.131,0.553-0.452,0.702-0.777c0.843-1.85-0.042-3.992-0.962-5.805
					c-2.562-5.051-5.468-9.925-8.692-14.581"/>
				<g>
					<path fill="#003AA5" d="M100.675,146.503c-0.627,5.123-0.288,10.564,1.926,15.327c1.187,2.553,4.009,7.025,7.548,6.052
						c7.713-2.122-6.135-21.264-8.369-23.646c-1.153-1.23-2.866,0.328-2.208,1.704c2.734,5.716,7.023,10.624,9.356,16.586
						c1.611,4.115-2.547-0.032-3.167-1.093c-0.846-1.449-1.272-3.222-1.752-4.817c-0.974-3.241-1.361-6.74-1.506-10.112
						C102.452,145.297,100.815,145.359,100.675,146.503L100.675,146.503z"/>
				</g>
			</g>
			<g id="XMLID_193_">
				<path fill="#003AA5" d="M102.139,146.122c1.409,2.953,2.818,5.906,4.228,8.859c2.031,4.256,4.216,8.7,8.063,11.43
					c0.406,0.287,0.859,0.563,1.356,0.557c0.748-0.011,1.356-0.688,1.523-1.418c0.167-0.729-0.011-1.49-0.229-2.205
					c-1.189-3.908-3.593-7.361-6.451-10.28c-2.858-2.918-6.174-5.343-9.506-7.706"/>
				<g>
					<path fill="#003AA5" d="M101.291,146.355c1.135,3.31,10.087,27.993,16.691,21.389c3.298-3.298-1.214-9.704-3.192-12.453
						c-3.13-4.35-8.249-9.272-13.314-11.21c-1.36-0.521-2.049,1.306-1.289,2.213c2.265,2.704,5.521,4.521,8.138,6.91
						c3.202,2.923,5.692,6.49,7.097,10.597c-0.613,0.886-1.189,0.804-1.727-0.246c-0.809-0.794-1.536-1.658-2.181-2.594
						c-1.018-1.387-1.825-2.945-2.645-4.453c-1.977-3.633-3.769-7.32-5.972-10.83C102.384,144.86,100.957,145.381,101.291,146.355
						L101.291,146.355z"/>
				</g>
			</g>
			<g id="XMLID_236_">
				<path fill="#003AA5" d="M102.687,142.764c0.296-3.171-0.957-6.45-3.292-8.616c-0.106-0.099-0.227-0.201-0.372-0.208
					c-0.245-0.011-0.414,0.248-0.473,0.485c-0.192,0.775,0.201,1.563,0.581,2.265c1.016,1.874,2.031,3.749,3.047,5.623"/>
				<g>
					<path fill="#003AA5" d="M103.41,142.963c0.432-2.058,0.473-4.113-0.395-6.07c-0.627-1.415-2.125-4.39-3.992-4.39
						c-4.828,0,0.968,9.761,2.546,10.852c0.756,0.523,1.839-0.172,1.816-1.042c-0.036-1.363-0.808-2.387-1.453-3.558
						c-0.25-0.454-1.848-3.741-2.185-3.574c-0.483,0-0.967,0-1.45,0c2.227,1.222,3.465,5.256,3.639,7.583
						C101.996,143.564,103.226,143.837,103.41,142.963L103.41,142.963z"/>
				</g>
			</g>
			<g id="XMLID_249_">
				<path fill="#003AA5" d="M96.73,143.091c-0.175-3.383-3.52-5.744-6.778-6.668c-8.541-2.421-17.867,1.566-24.161,7.826
					c-1.763,1.754-3.457,4.02-3.095,6.48c3.264-0.699,6.317-2.353,8.686-4.705"/>
				<g>
					<path fill="#003AA5" d="M97.621,143.091c0.533-8.302-11.35-9.635-17.253-8.527c-7.503,1.408-19.304,7.285-19.394,16.165
						c-0.011,1.136,1.106,1.936,2.181,1.661c3.583-0.919,7.366-2.439,9.351-5.708c0.718-1.182-0.663-2.328-1.78-1.78
						c-2.956,1.451-5.184,3.31-8.487,4.167c0.727,0.554,1.454,1.107,2.181,1.661c0.059-6.639,10.03-11.105,15.277-12.774
						c5.857-1.863,13.655-0.58,16.265,5.586C96.337,144.429,97.57,143.879,97.621,143.091L97.621,143.091z"/>
				</g>
			</g>
			<g id="XMLID_257_">
				<path fill="#003AA5" d="M64.094,146.347c2.146-5.867,8.092-9.527,14.074-11.328c4.355-1.312,9.146-1.859,13.395-0.235
					c4.248,1.624,7.713,5.874,7.29,10.402"/>
				<g>
					<path fill="#003AA5" d="M65.521,147.181c5.11-11.791,28.837-17.781,31.614-1.522c0.295,1.725,3.112,1.689,3.436,0
						c1.729-9.023-8.155-13.827-15.665-13.779c-9.084,0.059-18.856,5.58-22.405,14.027C61.777,147.63,64.779,148.891,65.521,147.181
						L65.521,147.181z"/>
				</g>
			</g>
			<g id="XMLID_270_">
				<path fill="#003AA5" d="M102.692,141.438c-0.132,0.112-0.264,0.223-0.396,0.335c1.298-2.563,4.481-3.731,7.339-3.441
					c0.422,0.043,0.908,0.16,1.082,0.546c0.298,0.661-0.562,1.226-1.253,1.447c-2.534,0.813-5.069,1.625-7.604,2.438"/>
				<g>
					<path fill="#003AA5" d="M102.692,140.43c-0.132,0.009-0.264,0.019-0.396,0.028c0.31,0.748,0.62,1.496,0.93,2.244
						c1.065-0.857,1.677-1.833,3.027-2.352c0.622-0.239,1.275-0.381,1.937-0.446c0.322-0.022,0.644-0.027,0.967-0.016
						c0.546,0.11,0.625,0.027,0.237-0.249c0.048-0.366,0.096-0.732,0.144-1.098c-0.425,0.94-3.291,1.398-4.229,1.715
						c-1.428,0.483-3.005,0.787-4.135,1.818c-0.692,0.633-0.082,1.57,0.688,1.661c1.219,0.143,2.362-0.36,3.521-0.712
						c1.485-0.451,2.97-0.901,4.455-1.352c1.777-0.539,3.283-2.523,1.663-4.144c-1.444-1.444-4.412-0.829-6.099-0.273
						c-1.776,0.585-4.102,2.18-4.371,4.168c-0.219,1.623,2.129,2.396,2.535,0.699c0.033-0.139,0.066-0.278,0.1-0.417
						C103.808,141.107,103.37,140.382,102.692,140.43L102.692,140.43z"/>
				</g>
			</g>
			<g id="XMLID_204_">
				<g id="XMLID_203_">
					<g id="XMLID_13_">
						<path id="XMLID_10_" fill="none" stroke="#EDEDEB" stroke-width="1.2" stroke-miterlimit="10" d="M73.537,163.249H85.84
							c1.664,0,3.013,1.28,3.013,2.858v5.385c0,3.192-2.728,5.781-6.094,5.781H76.74c-3.433,0-6.216-2.641-6.216-5.896v-5.27
							C70.524,164.529,71.873,163.249,73.537,163.249z"/>
						<path id="XMLID_181_" opacity="0.4" fill="#EDEDEB" d="M73.537,163.249H85.84c1.664,0,3.013,1.28,3.013,2.858v5.385
							c0,3.192-2.728,5.781-6.094,5.781H76.74c-3.433,0-6.216-2.641-6.216-5.896v-5.27
							C70.524,164.529,71.873,163.249,73.537,163.249z"/>
						
							<line id="XMLID_178_" fill="none" stroke="#EDEDEB" stroke-width="1.2" stroke-linecap="round" stroke-linejoin="round" stroke-miterlimit="10" x1="68.955" y1="167.487" x2="70.524" y2="168.221"/>
					</g>
					<g id="XMLID_196_">
						<path id="XMLID_202_" fill="none" stroke="#EDEDEB" stroke-width="1.2" stroke-miterlimit="10" d="M110.371,163.249H98.068
							c-1.664,0-3.013,1.28-3.013,2.858v5.385c0,3.192,2.728,5.781,6.094,5.781h6.019c3.433,0,6.216-2.641,6.216-5.896v-5.27
							C113.384,164.529,112.035,163.249,110.371,163.249z"/>
						<path id="XMLID_199_" opacity="0.4" fill="#EDEDEB" d="M110.371,163.249H98.068c-1.664,0-3.013,1.28-3.013,2.858v5.385
							c0,3.192,2.728,5.781,6.094,5.781h6.019c3.433,0,6.216-2.641,6.216-5.896v-5.27
							C113.384,164.529,112.035,163.249,110.371,163.249z"/>
						
							<line id="XMLID_197_" fill="none" stroke="#EDEDEB" stroke-width="1.2" stroke-linecap="round" stroke-linejoin="round" stroke-miterlimit="10" x1="114.954" y1="167.487" x2="113.384" y2="168.221"/>
					</g>
				</g>
				
					<line id="XMLID_194_" fill="none" stroke="#EDEDEB" stroke-width="2" stroke-linecap="round" stroke-linejoin="round" stroke-miterlimit="10" x1="89.276" y1="168.709" x2="94.505" y2="168.709"/>
			</g>
		</g>
	</g>
	<g id="XMLID_156_">
		<g id="XMLID_96_">
			<path id="XMLID_40_" fill="#003AA5" d="M216.425,204.107c-1.318-4.443-3.35-8.734-4.172-13.313
				c-0.804-4.484-0.482-9.118-0.996-13.641c-0.691-6.077-2.02-12.918-6.689-17.312c-2.046-1.926-4.651-2.908-7.382-3.403
				c-0.92-0.166-4.334-0.835-3.85-0.283c-0.723-0.572-1.397-1.473-2.129-1.99c-1.882-1.333-4.041-2.266-6.284-2.794
				c-11.775-2.777-25.352,4.076-28.785,16.879c-2.406,8.974,0.631,18.183-1.94,27.297c-2.012,7.13-4.277,34.951-0.647,41.961
				c0.4,0.772,2.925,11.438,3.638,11.085c9.106-4.499,16.65,2.995,25.425,3.925c11.018,1.167,27.469-2.679,33.111-7.104
				C218.957,240.552,217.733,209.494,216.425,204.107z"/>
			<g id="XMLID_77_">
				<path id="XMLID_81_" fill="#EDB6B3" d="M201.2,186.454c0,0,8.137-4.334,9.287,1.857c1.149,6.191-2.565,12.294-9.199,8.933
					C194.655,193.884,201.2,186.454,201.2,186.454z"/>
				<circle id="XMLID_79_" fill="#003AA5" cx="206.44" cy="196.068" r="0.67"/>
				<path id="XMLID_78_" opacity="0.7" fill="#EDB6B3" d="M203.619,191.491c0.548-2.015,1.199-3.169,1.993-3.528
					c2.043-0.924,3.619,0.558,4.167,1.47c0.108,0.182,0.051,0.417-0.131,0.525c-0.181,0.111-0.418,0.054-0.527-0.13
					c-0.039-0.063-0.761-1.219-1.96-1.369c1.185,1.219,2.445,3.462,0.796,5.508c-0.075,0.094-0.187,0.143-0.299,0.143
					c-0.085,0-0.17-0.027-0.24-0.085c-0.165-0.133-0.191-0.375-0.059-0.54c1.867-2.316-1.039-4.772-1.164-4.876
					c-0.012-0.01-0.018-0.023-0.027-0.035c-0.079,0.027-0.158,0.053-0.239,0.09c-0.255,0.115-0.92,0.643-1.568,3.03
					c-0.047,0.171-0.201,0.282-0.371,0.282c-0.032,0-0.066-0.004-0.101-0.013C203.685,191.907,203.563,191.696,203.619,191.491z"/>
			</g>
			<g id="XMLID_65_">
				<path id="XMLID_606_" fill="#EDB6B3" d="M165.091,186.454c0,0-8.137-4.334-9.287,1.857c-1.149,6.191,2.565,12.294,9.199,8.933
					C171.636,193.884,165.091,186.454,165.091,186.454z"/>
				<circle id="XMLID_630_" fill="#003AA5" cx="159.85" cy="196.068" r="0.67"/>
				<path id="XMLID_90_" opacity="0.7" fill="#EDB6B3" d="M162.672,191.491c-0.547-2.015-1.199-3.169-1.993-3.528
					c-2.043-0.924-3.62,0.558-4.168,1.47c-0.108,0.182-0.05,0.417,0.131,0.525c0.181,0.111,0.417,0.054,0.527-0.13
					c0.039-0.063,0.761-1.219,1.96-1.369c-1.185,1.219-2.445,3.462-0.796,5.508c0.076,0.094,0.187,0.143,0.299,0.143
					c0.085,0,0.17-0.027,0.241-0.085c0.165-0.133,0.191-0.375,0.058-0.54c-1.867-2.316,1.039-4.772,1.164-4.876
					c0.012-0.01,0.018-0.023,0.028-0.035c0.079,0.027,0.157,0.053,0.239,0.09c0.255,0.115,0.92,0.643,1.568,3.03
					c0.047,0.171,0.201,0.282,0.371,0.282c0.033,0,0.067-0.004,0.101-0.013C162.607,191.907,162.727,191.696,162.672,191.491z"/>
			</g>
			<g id="XMLID_622_">
				<path id="XMLID_30_" fill="#EDB6B3" d="M190.346,221.121l-1.721-1.225v-6.988c0-3.045-2.691-5.514-6.011-5.514
					s-6.011,2.469-6.011,5.514v7.355l-1.696,0.857l-0.952,11.068h19.66L190.346,221.121z"/>
				<g id="XMLID_623_">
					<defs>
						<path id="XMLID_624_" d="M184.485,232.189h-3.741c-2.287,0-4.141-1.854-4.141-4.141v-18.933c0-0.951,0.771-1.722,1.721-1.722
							h8.58c0.951,0,1.721,0.771,1.721,1.722v18.933C188.625,230.336,186.771,232.189,184.485,232.189z"/>
					</defs>
					<clipPath id="XMLID_8_">
						<use xlink:href="#XMLID_624_"  overflow="visible"/>
					</clipPath>
					<g id="XMLID_625_" clip-path="url(#XMLID_8_)">
						<path id="XMLID_31_" fill="#EDB6B3" d="M210.188,163.496h-26.905h-0.007H156.37c0,0-2.355,31.231,1.281,39.499
							c1.978,4.494,8.575,9.069,14.825,12.904c6.646,4.077,15.319,4.053,21.928-0.075c6.119-3.82,12.536-8.361,14.502-12.829
							C212.543,194.728,210.188,163.496,210.188,163.496z"/>
					</g>
				</g>
			</g>
			<path id="XMLID_607_" fill="#EDB6B3" d="M205.145,178.769c-0.171-5.837-4.961-10.473-10.8-10.473h-11.197h-0.005h-11.001
				c-5.948,0-10.831,4.725-11.001,10.67c-0.243,8.46,0.842,19.535,2.543,23.753c1.581,3.918,5.833,7.906,10.831,11.249
				c5.313,3.554,12.237,3.531,17.521-0.065c4.892-3.33,9.001-7.289,10.572-11.184C204.322,198.468,205.394,187.252,205.145,178.769z
				"/>
			<path id="XMLID_594_" fill="#3A2719" d="M202.862,160.49"/>
			<g id="XMLID_1470_">
				<defs>
					<path id="XMLID_1473_" d="M191.409,202.293c-0.329-1.028-1.527-0.755-3.646,0.386c-2.295,1.235-6.342,1.535-9.225,0.24
						c-2.184-0.98-3.268-1.079-3.658-0.195c-0.391,0.884,2.035,6.087,6.632,6.717c0.86,0.118,2.167,0.159,3.557-0.093
						C189.642,208.52,191.771,203.426,191.409,202.293z"/>
				</defs>
				<clipPath id="XMLID_32_">
					<use xlink:href="#XMLID_1473_"  overflow="visible"/>
				</clipPath>
				<g id="XMLID_1482_" clip-path="url(#XMLID_32_)">
					<path id="XMLID_39_" fill="#7F3322" d="M191.409,202.293c-0.329-1.028-1.527-0.755-3.646,0.386
						c-2.295,1.235-6.342,1.535-9.225,0.24c-2.184-0.98-3.268-1.079-3.658-0.195c-0.391,0.884,2.035,6.087,6.632,6.717
						c0.86,0.118,2.167,0.159,3.557-0.093C189.642,208.52,191.771,203.426,191.409,202.293z"/>
				</g>
				<g id="XMLID_1479_" clip-path="url(#XMLID_32_)">
					<g id="XMLID_1480_">
						<path id="XMLID_1481_" fill="#FFFFFF" d="M176.863,201.594c0,0,0.077,3.621,5.77,3.731s7.37-1.659,7.395-4.161
							L176.863,201.594z"/>
					</g>
				</g>
				<g id="XMLID_1475_" clip-path="url(#XMLID_32_)">
					<g id="XMLID_1476_">
						<path id="XMLID_1478_" fill="#EDB6B3" d="M178.965,208.784c0,0,3.917-2.775,9.974-0.174l-4.679,3.573L178.965,208.784z"/>
					</g>
				</g>
				<g id="XMLID_580_" clip-path="url(#XMLID_32_)">
					<g id="XMLID_581_">
						<path id="XMLID_678_" fill="#EDB6B3" d="M178.965,208.784c0,0,3.917-2.775,9.974-0.174l-4.679,3.573L178.965,208.784z"/>
					</g>
				</g>
			</g>
			<g id="XMLID_578_">
				<path id="XMLID_25_" fill="#EDB6B3" d="M179.021,193.412c0,0-0.056,0.243-0.153,0.668c-0.047,0.212-0.101,0.47-0.143,0.766
					c-0.038,0.286-0.077,0.65-0.013,0.938c0.045,0.194,0.458,0.459,0.776,0.676c0.346,0.226,0.736,0.426,1.137,0.625
					c0.801,0.377,1.74,0.7,2.603,0.645c0.262-0.016,0.468-0.049,0.688-0.095c0.226-0.05,0.45-0.115,0.67-0.188
					c0.443-0.144,0.873-0.325,1.274-0.529c0.401-0.203,0.788-0.411,1.123-0.646c0.166-0.115,0.327-0.237,0.445-0.36
					c0.064-0.069,0.102-0.1,0.121-0.169c0.033-0.104,0.033-0.128,0.045-0.229c0.064-0.701-0.009-1.341-0.043-1.768
					c-0.039-0.435-0.061-0.683-0.061-0.683s0.08,0.237,0.193,0.66c0.048,0.214,0.107,0.474,0.175,0.771
					c0.056,0.303,0.129,0.64,0.132,1.042c0.004,0.084-0.015,0.251-0.038,0.333c-0.022,0.122-0.113,0.254-0.177,0.335
					c-0.143,0.185-0.301,0.331-0.47,0.48c-0.339,0.29-0.714,0.568-1.131,0.813c-0.417,0.24-0.864,0.468-1.346,0.646
					c-0.243,0.084-0.491,0.162-0.748,0.223c-0.264,0.063-0.55,0.107-0.784,0.125c-1.141,0.059-2.138-0.346-2.982-0.81
					c-0.426-0.23-0.803-0.508-1.147-0.785c-0.171-0.141-0.333-0.283-0.483-0.435c-0.071-0.072-0.166-0.173-0.219-0.246
					c-0.047-0.046-0.159-0.261-0.152-0.349c-0.053-0.453,0.08-0.774,0.156-1.077c0.091-0.296,0.186-0.545,0.266-0.75
					C178.905,193.634,179.021,193.412,179.021,193.412z"/>
			</g>
			<g id="XMLID_584_">
				<path id="XMLID_46_" fill="#3A2719" d="M166.101,199.772"/>
				<g id="XMLID_48_">
					<path id="XMLID_50_" fill="#3A2719" d="M166.101,199.823c0.066,0,0.066-0.103,0-0.103S166.035,199.823,166.101,199.823
						L166.101,199.823z"/>
				</g>
			</g>
			<g id="XMLID_24_">
				<circle id="XMLID_16_" fill="#153158" cx="172.676" cy="187.324" r="2.231"/>
				<circle id="XMLID_37_" fill="#153158" cx="193.615" cy="187.324" r="2.231"/>
			</g>
			<g id="XMLID_49_">
				
					<path id="XMLID_62_" fill="none" stroke="#153158" stroke-width="2" stroke-linecap="round" stroke-linejoin="round" stroke-miterlimit="10" d="
					M166.856,182.688c1.676-2.103,4.036-3.684,6.697-4.192"/>
				
					<path id="XMLID_53_" fill="none" stroke="#153158" stroke-width="2" stroke-linecap="round" stroke-linejoin="round" stroke-miterlimit="10" d="
					M199.436,182.688c-1.677-2.103-4.036-3.684-6.697-4.192"/>
			</g>
			<path id="XMLID_66_" fill="#003AA5" stroke="#003AA5" stroke-width="0.25" stroke-miterlimit="10" d="M188.625,164.128
				c0,0,1.5,14.187,16.629,17.642l1.186-7.531C206.44,174.238,199.72,164,188.625,164.128z"/>
			<path id="XMLID_91_" fill="#003AA5" stroke="#003AA5" stroke-width="0.25" stroke-miterlimit="10" d="M191.384,160.49
				c0,0,4.16,10.267-6.93,16.669c-10.065,5.811-14.25-6.085-23.281,7.82c0,0-4.588-7.584,0.612-16.684
				C164.571,163.422,183.353,156,191.384,160.49z"/>
		</g>
		<g id="XMLID_15_">
			<path id="XMLID_114_" fill="#EDB6B3" d="M229.257,150.482c0,0-1.484-5.929-0.741-6.195c0.744-0.267,1.359-0.364,1.804,0.666
				c0.444,1.03,2.113,4.665,2.113,4.665l1.476-3.246c0,0,1.666-7.826,2.001-8.746c0.322-0.886,1.916-0.979,2.021,0.24
				c0.055,0.636-0.947,9.117-0.947,9.117s3.321-9.524,4.029-9.95c0.708-0.426,1.949-0.029,1.703,1.525
				c-0.081,0.511-2.479,9.69-2.479,9.69s2.941-5.677,3.774-6.409c0.832-0.732,1.643-0.063,1.752,0.678
				c0.11,0.74-3.548,8.858-3.548,8.858s2.033-2.229,2.768-2.652c0.734-0.424,1.486,0.095,1.351,0.985s-5.456,8.576-5.456,8.576
				l-1.816,6.563l-8.604-2.961c0.334-0.911,0.739-4.414,0.739-4.414C231.012,157.096,229.257,150.482,229.257,150.482z"/>
			<polygon id="XMLID_112_" fill="#003AA5" stroke="#003AA5" stroke-width="0.25" stroke-miterlimit="10" points="229.042,160.416 
				229.665,157.984 241.129,160.736 240.112,163.296 			"/>
			<path id="XMLID_467_" fill="#259AFF" d="M229.896,216.537c6.032-14.729,11.232-53.434,11.232-53.434l-12.608-3.122
				c0,0-8.352,29.669-12.795,38.767c-2.14,4.38-10.604,17.302-14.194,19.673c2.426,10.009,7.169,19.489,12.635,27.909l-0.083-0.88
				C214.083,245.45,224.586,229.502,229.896,216.537z"/>
		</g>
		<path id="XMLID_161_" fill="#EDEDEB" d="M193.419,283.916l4.114-58.359c-16.404,9.472-27.329,0.257-27.329,0.257l4.657,58.103
			H193.419z"/>
		<path id="XMLID_107_" fill="#259AFF" d="M172.676,285.964c-0.124-3.023,6.107-8.276,6.085-11.591
			c-0.269-38.918-3.631-48.619-3.854-53.252l-12.484,3.883c-11.86,3.688-18.029,13.465-18.419,25.879l-1.635,33.033L172.676,285.964
			z"/>
		<path id="XMLID_447_" fill="#259AFF" d="M214.166,246.33c-2.763-4.256-5.34-8.783-7.527-13.513
			c-0.305-1.031-0.713-1.997-1.268-2.878c-1.572-3.736-2.887-7.586-3.84-11.519c-0.262,0.173-0.499,0.294-0.704,0.348
			c-5.396,1.406-10.506,2.353-10.506,2.353l0.014,0.193c-0.278,4.984-2.838,26.085-3.842,53.059
			c-0.124,3.313-0.25,6.521-0.374,9.543h8.591h16.921h6.07L214.166,246.33z"/>
		<polygon id="XMLID_98_" opacity="0.4" fill="#259AFF" points="160.521,283.916 157.189,248.594 157.189,283.916 		"/>
		<path id="XMLID_18_" fill="#003AA5" d="M231.007,304.477h-99.755v-53.215c0-2.722,2.207-4.929,4.929-4.929h89.897
			c2.722,0,4.929,2.207,4.929,4.929V304.477z"/>
		<linearGradient id="XMLID_33_" gradientUnits="userSpaceOnUse" x1="181.1294" y1="301.0693" x2="181.1294" y2="249.9356">
			<stop  offset="0" style="stop-color:#FDDA42"/>
			<stop  offset="1" style="stop-color:#E5A003"/>
		</linearGradient>
		<circle id="XMLID_519_" fill="url(#XMLID_33_)" cx="181.129" cy="279.735" r="6.229"/>
	</g>
	<g id="XMLID_441_">
		<path id="XMLID_435_" fill="#003AA5" d="M268.937,266.82l-2.639,37.656l59.937-0.184c0,0-1.479-27.73-5.664-36.908
			S268.937,266.82,268.937,266.82z"/>
		<path id="XMLID_93_" fill="#259AFF" d="M281.93,209.213h3.952l16.337,1.262l8.449,1.579l12.972,37.177l3.431,38.916
			c0,0-40.813,4.087-61.608,0l0.68-61.738L281.93,209.213z"/>
		<g id="XMLID_442_">
			<path id="XMLID_431_" fill="#EDB6B3" d="M268.049,140.666c-0.624-0.421-1.168-0.657-1.821,0.189s-3.052,3.808-3.052,3.808
				l-0.596-3.344c0,0,0.308-7.617,0.216-8.545c-0.089-0.893-1.537-1.356-1.923-0.255c-0.201,0.573-1.275,8.639-1.275,8.639
				s-0.819-9.575-1.373-10.135s-1.793-0.486-1.932,1.006c-0.045,0.491,0.003,9.53,0.003,9.53s-1.377-5.934-1.973-6.806
				c-0.596-0.872-1.502-0.445-1.777,0.212c-0.276,0.658,1.186,9.014,1.186,9.014s-1.352-2.537-1.929-3.101
				c-0.578-0.565-1.395-0.263-1.479,0.591c-0.085,0.854,3.014,9.203,3.014,9.203l0.129,6.487l8.64-0.704
				c-0.094-0.919,0.358-4.249,0.358-4.249c0.261-0.305,3.44-5.996,3.44-5.996S268.673,141.087,268.049,140.666z"/>
			<path id="XMLID_532_" fill="#259AFF" d="M266.142,226.408l14.392-2.918l1.396-14.277c0.376,0.149-2.8-2.404-4.63-4.582
				c-5.028-5.985-9.3-8.788-9.886-11.596c-1.459-6.991-3.483-41.841-3.483-41.841l-14.39,1.386c0,0-0.969,34.238,1.571,49.456
				C252.334,209.36,263.523,221.139,266.142,226.408z"/>
		</g>
		<g id="XMLID_433_">
			<g id="XMLID_446_">
				<path fill="#003AA5" d="M297.028,150.789c-0.22-2.59-2.722-4.391-5.185-5.224c-6.449-2.183-14.472,0.432-17.591,6.484
					c-2.483,4.82-1.669,10.583-2.056,15.992"/>
				<g>
					<path fill="#003AA5" d="M298.458,150.789c-0.476-8.69-12.841-9.543-18.908-6.427c-3.837,1.97-6.206,4.69-7.862,8.632
						c-1.639,3.902-1.968,11.65-0.047,15.372c0.233,0.453,0.862,0.383,1.113,0c1.41-2.152,1.184-4.346,1.265-6.903
						c0.129-4.088,1.091-7.935,3.934-10.977c4.227-4.524,15.03-5.499,17.842,1.025C296.363,152.832,298.532,152.147,298.458,150.789
						L298.458,150.789z"/>
				</g>
			</g>
			<path id="XMLID_443_" fill="#003AA5" d="M285.997,192.083c-1.087-1.991-2.442-3.738-3.938-5.431
				c-2.17-2.457-3.28-4.211-4.218-7.397c-0.682-2.319-1.938-4.981-4.238-5.248c0.188-0.622-0.412-1.313-1.183-0.963
				c-3.943,1.798-3.757,6.065-4.51,9.76c-1.034,5.071-5.305,8.418-6.479,13.363c-0.237,0.999-0.471,2.323,0.343,3.168
				c1.077,1.117,1.367,0.208,2.517,0.233c3.272,0.072,4.777,2.343,7.639,3.147c1.239,0.35,2.854,0.299,4.046,0.522
				c1.442,0.271,2.81,0.863,4.268,1.076c2.734,0.4,5.868-0.045,7.284-2.739C289.118,198.549,287.478,194.794,285.997,192.083z"/>
			<g id="XMLID_147_">
				<path fill="#003AA5" d="M271.363,174.275c-0.189-3.012-0.222-6.038-0.098-9.059c0.094-2.27,0.283-4.57,1.039-6.702
					c1.055-2.972,3.163-5.435,5.614-7.25c2.463-1.826,5.581-3.08,8.426-2.155c2.215,0.72,3.918,2.672,4.962,4.872
					c1.043,2.2,1.514,4.654,1.974,7.076"/>
				<g>
					<path fill="#003AA5" d="M272.313,174.275c0.525-6.699-0.135-14.391,4.57-19.71c3.246-3.669,8.732-5.604,12.046-0.889
						c1.679,2.389,1.716,5.56,3.076,8.125c0.749,1.412,2.617,0.604,2.752-0.745c0.799-7.978-6.642-17.465-15.117-12.952
						c-10.254,5.46-11.118,16.011-9.191,26.423C270.654,175.645,272.233,175.278,272.313,174.275L272.313,174.275z"/>
				</g>
			</g>
			<path id="XMLID_444_" fill="#003AA5" d="M326.359,203.224c-0.023-0.148-0.08-0.301-0.181-0.456
				c-0.792-1.223-1.676-2.136-2.729-3.148c-2.838-2.732-2.616-5.693-0.976-8.805c1.674-3.173,1.85-6.736,2.354-10.376
				c0.967-6.979-0.005-25.287-4.481-31.029c-3.781-4.848-26.686-18.892-35.734-3.429c-2.449,4.183,10.35,7.166,9.681,12.524
				c-0.868,6.959,6.95,9.912,11.8,12.52c8.938,4.807,8.645,15.203,0.753,20.986c-2.717,1.991-5.754,2.787-8.777,4.123
				c-1.699,0.751-4.403,2.237-4.529,4.433c-0.067,1.165,0.851,2.567,1.858,3.106c1.225,0.654,2.489,0.387,3.742,1.049
				c1.659,0.878,2.385,2.605,3.941,3.704c2.351,1.659,4.234,1.32,6.724,0.489c3.376-1.127,5.788,1.8,9.259,1.696
				c0.466-0.014,0.943-0.367,1.367-0.354c0.758,0.023,1.66,0.531,2.446,0.532c1.054,0.001,1.145,0.224,2.163-0.593
				C327.089,208.558,327.168,205.467,326.359,203.224z"/>
			<g id="XMLID_415_">
				<path id="XMLID_420_" fill="#EDB6B3" d="M310.329,179.479c0,0,8.76-2.281,8.444,3.894s-5.256,11.155-10.823,6.432
					S310.329,179.479,310.329,179.479z"/>
				<path id="XMLID_416_" opacity="0.7" fill="#EDB6B3" d="M311.489,184.843c0.983-1.8,1.868-2.753,2.709-2.915
					c2.161-0.416,3.329,1.359,3.645,2.354c0.062,0.199-0.048,0.41-0.246,0.473c-0.197,0.064-0.411-0.045-0.474-0.244
					c-0.022-0.069-0.448-1.339-1.559-1.756c0.853,1.435,1.545,3.864-0.497,5.441c-0.094,0.073-0.211,0.094-0.318,0.068
					c-0.081-0.02-0.156-0.065-0.211-0.136c-0.127-0.165-0.097-0.401,0.068-0.529c2.312-1.786,0.098-4.795,0.002-4.922
					c-0.01-0.012-0.012-0.026-0.02-0.04c-0.081,0.008-0.162,0.015-0.248,0.03c-0.271,0.053-1.025,0.404-2.189,2.536
					c-0.084,0.153-0.257,0.225-0.419,0.186c-0.031-0.007-0.063-0.019-0.093-0.035C311.457,185.254,311.39,185.025,311.489,184.843z"
					/>
			</g>
			<g id="XMLID_412_">
				<path id="XMLID_414_" fill="#EDB6B3" d="M276.902,171.606c0,0-6.366-6.436-9.249-0.966s-1.179,12.274,6.021,11.057
					S276.902,171.606,276.902,171.606z"/>
				<path id="XMLID_413_" opacity="0.7" fill="#EDB6B3" d="M273.166,175.624c0.073-2.049-0.2-3.32-0.84-3.89
					c-1.646-1.461-3.557-0.531-4.336,0.164c-0.155,0.139-0.169,0.376-0.03,0.531c0.137,0.156,0.376,0.171,0.532,0.031
					c0.055-0.048,1.068-0.922,2.236-0.713c-1.466,0.798-3.302,2.533-2.352,4.933c0.044,0.11,0.133,0.188,0.238,0.221
					c0.08,0.024,0.168,0.023,0.251-0.01c0.193-0.076,0.288-0.295,0.212-0.489c-1.076-2.716,2.365-4.172,2.512-4.232
					c0.015-0.006,0.023-0.017,0.037-0.024c0.066,0.049,0.132,0.095,0.198,0.153c0.205,0.183,0.675,0.871,0.587,3.299
					c-0.006,0.174,0.106,0.323,0.265,0.373c0.031,0.01,0.064,0.016,0.099,0.017C272.983,175.995,273.158,175.832,273.166,175.624z"
					/>
			</g>
			<g id="XMLID_401_">
				<path id="XMLID_411_" fill="#EDB6B3" d="M299.84,201.98c0.268-2.978-2.147-5.628-5.395-5.919
					c-3.247-0.292-6.096,1.886-6.362,4.864l-0.594,6.475c-0.295,3.25,2.103,4.518,5.353,4.809l0,0
					c3.247,0.292,6.116-2.104,6.409-5.351L299.84,201.98z"/>
				<g id="XMLID_402_">
					<defs>
						<path id="XMLID_403_" d="M295.681,210.102l-5.237-0.47c-1.8-0.162-3.129-0.146-2.967-1.946l0.969-10.797
							c0.067-0.748,0.729-1.301,1.477-1.233l9.047,0.813c0.748,0.066,1.301,0.728,1.233,1.477l-0.969,9.189
							C299.071,208.935,297.48,210.264,295.681,210.102z"/>
					</defs>
					<clipPath id="XMLID_34_">
						<use xlink:href="#XMLID_403_"  overflow="visible"/>
					</clipPath>
					<g id="XMLID_404_" clip-path="url(#XMLID_34_)">
						<path id="XMLID_406_" fill="#EDB6B3" d="M316.913,150.771l-26.404,0.776h-0.007l-26.405,0.776c0,0-1.41,30.72,2.397,38.728
							c2.07,4.354,8.677,8.654,14.922,12.237c6.64,3.81,15.15,3.535,21.519-0.706c5.895-3.927,12.062-8.568,13.861-13.01
							C320.127,181.354,316.913,150.771,316.913,150.771z"/>
					</g>
				</g>
			</g>
			<path id="XMLID_400_" fill="#EDB6B3" d="M315.851,173.041c1.169-5.612-2.347-11.133-7.923-12.466l-10.692-2.556l-0.005-0.002
				l-10.505-2.511c-5.681-1.357-11.422,2.04-12.941,7.679c-2.163,8.022-3.655,18.847-2.993,23.263
				c0.615,4.103,3.766,8.882,7.774,13.214c4.263,4.606,10.88,6.166,16.746,3.938c5.432-2.063,10.259-4.906,12.649-8.267
				C310.568,191.665,314.152,181.199,315.851,173.041z"/>
			<g id="XMLID_385_">
				<defs>
					<path id="XMLID_388_" d="M280.834,192.086c0.369-0.929,1.321-0.563,2.941,0.697c1.755,1.365,5.031,2.019,7.513,1.077
						c1.879-0.713,2.774-0.704,3.008,0.156c0.232,0.86-2.256,5.492-6.073,5.655c-0.715,0.03-1.786-0.053-2.897-0.416
						C281.671,198.06,280.428,193.109,280.834,192.086z"/>
				</defs>
				<clipPath id="XMLID_35_">
					<use xlink:href="#XMLID_388_"  overflow="visible"/>
				</clipPath>
				<g id="XMLID_398_" clip-path="url(#XMLID_35_)">
					<path id="XMLID_399_" fill="#7F3322" d="M280.834,192.086c0.369-0.929,1.321-0.563,2.941,0.697
						c1.755,1.365,5.031,2.019,7.513,1.077c1.879-0.713,2.774-0.704,3.008,0.156c0.232,0.86-2.256,5.492-6.073,5.655
						c-0.715,0.03-1.786-0.053-2.897-0.416C281.671,198.06,280.428,193.109,280.834,192.086z"/>
				</g>
				<g id="XMLID_395_" clip-path="url(#XMLID_35_)">
					<g id="XMLID_396_">
						<path id="XMLID_397_" fill="#FFFFFF" d="M292.785,192.778c0,0-0.416,3.372-5.077,2.948c-4.661-0.423-5.859-2.229-5.636-4.566
							L292.785,192.778z"/>
					</g>
				</g>
				<g id="XMLID_392_" clip-path="url(#XMLID_35_)">
					<g id="XMLID_393_">
						<path id="XMLID_394_" fill="#EDB6B3" d="M290.367,199.295c0,0-2.929-2.953-8.131-1.085l3.474,3.767L290.367,199.295z"/>
					</g>
				</g>
				<g id="XMLID_389_" clip-path="url(#XMLID_35_)">
					<g id="XMLID_390_">
						<path id="XMLID_391_" fill="#EDB6B3" d="M290.367,199.295c0,0-2.929-2.953-8.131-1.085l3.474,3.767L290.367,199.295z"/>
					</g>
				</g>
			</g>
			<g id="XMLID_383_">
				<path id="XMLID_384_" fill="#EDB6B3" d="M284.033,182.364c0,0-0.108,0.22-0.298,0.603c-0.094,0.191-0.203,0.426-0.311,0.698
					c-0.103,0.265-0.222,0.604-0.227,0.893c-0.002,0.196,0.332,0.543,0.587,0.822c0.279,0.295,0.605,0.575,0.942,0.857
					c0.68,0.542,1.502,1.065,2.339,1.209c0.254,0.045,0.458,0.06,0.678,0.066c0.228,0.004,0.456-0.007,0.684-0.025
					c0.455-0.036,0.907-0.112,1.337-0.215c0.429-0.103,0.847-0.213,1.22-0.36c0.186-0.072,0.366-0.152,0.507-0.243
					c0.077-0.052,0.12-0.071,0.155-0.134c0.055-0.09,0.061-0.113,0.095-0.208c0.221-0.654,0.298-1.282,0.362-1.697
					c0.063-0.424,0.099-0.666,0.099-0.666s0.021,0.244,0.033,0.674c-0.003,0.216-0.005,0.478-0.009,0.777
					c-0.015,0.302-0.022,0.641-0.111,1.024c-0.016,0.081-0.071,0.237-0.112,0.311c-0.049,0.111-0.166,0.217-0.246,0.279
					c-0.178,0.143-0.362,0.247-0.558,0.351c-0.391,0.199-0.813,0.38-1.266,0.518c-0.453,0.135-0.932,0.25-1.433,0.31
					c-0.251,0.025-0.506,0.043-0.765,0.043c-0.267-0.002-0.55-0.024-0.777-0.061c-1.103-0.204-1.963-0.818-2.663-1.454
					c-0.354-0.317-0.65-0.668-0.915-1.012c-0.133-0.173-0.254-0.346-0.362-0.524c-0.052-0.085-0.119-0.203-0.153-0.285
					c-0.034-0.055-0.093-0.286-0.066-0.368c0.054-0.444,0.254-0.722,0.396-0.993c0.153-0.262,0.301-0.478,0.424-0.654
					C283.871,182.549,284.033,182.364,284.033,182.364z"/>
			</g>
			<g id="XMLID_376_">
				<path id="XMLID_382_" fill="#3A2719" d="M274.15,182.602"/>
				<g id="XMLID_380_">
					<path id="XMLID_381_" fill="#3A2719" d="M274.139,182.65c0.063,0.015,0.087-0.083,0.023-0.098
						C274.1,182.537,274.076,182.635,274.139,182.65L274.139,182.65z"/>
				</g>
			</g>
			<g id="XMLID_371_">
				<circle id="XMLID_373_" fill="#153158" cx="280.334" cy="174.063" r="2.191"/>
				<circle id="XMLID_372_" fill="#153158" cx="300.205" cy="179.34" r="2.191"/>
			</g>
			<g id="XMLID_368_">
				
					<path id="XMLID_370_" fill="none" stroke="#153158" stroke-width="2" stroke-linecap="round" stroke-linejoin="round" stroke-miterlimit="10" d="
					M277.091,167.746c2.177-1.493,4.846-2.301,7.491-2.016"/>
				
					<path id="XMLID_369_" fill="none" stroke="#153158" stroke-width="2" stroke-linecap="round" stroke-linejoin="round" stroke-miterlimit="10" d="
					M307.684,177.09c-0.972-2.455-2.734-4.616-5.087-5.856"/>
			</g>
			<g id="XMLID_89_">
				<path fill="#003AA5" d="M320.348,174.737"/>
				<g>
					<path fill="#003AA5" d="M320.348,175.956c1.572,0,1.572-2.438,0-2.438S318.775,175.956,320.348,175.956L320.348,175.956z"/>
				</g>
			</g>
			<path id="XMLID_366_" fill="#003AA5" d="M313.574,155.856c-3.909-4.548-13.46-9.196-19.444-6.214
				c-4.919,2.452-5.597,11.226-3.157,15.475c4.779,8.324,20.538,3.846,23.171,13.652c0.119,0.444,0.756,0.252,0.679-0.188
				c-0.013-0.07-0.035-0.132-0.049-0.201l1.485-1.509c0.482,0.406,1.431,0.339,1.54-0.41
				C318.771,169.764,318.169,161.202,313.574,155.856z"/>
			<g id="XMLID_95_">
				<path fill="#003AA5" d="M291.344,155.338c-1.59,2.522-4.264,4.336-7.196,4.877c-1.718,0.318-3.524,0.225-5.16,0.837
					c-2.829,1.06-4.874,3.169-6,5.972c-0.211,0.525-0.936,1.109-1.188,0.603c-0.048-0.096-0.051-0.208-0.053-0.315
					c-0.074-3.965,0.455-7.26,2.05-10.891s4.93-6.739,8.886-6.997c3.957-0.257,8.069,3.192,7.611,7.131"/>
				<g>
					<path fill="#003AA5" d="M290.457,154.451c-1.749,1.775-3.188,3.273-5.598,4.144c-1.956,0.707-4.217,0.563-6.238,1.129
						c-3.181,0.89-5.494,3.761-6.784,6.627c1.164,1.434,1.632,1.321,1.4-0.338c0.126-1.501,0.218-2.971,0.5-4.455
						c0.42-2.209,1.308-4.338,2.466-6.251c3.467-5.727,11.562-5.528,12.645,1.646c0.22,1.458,2.637,1.418,2.893,0
						c1.035-5.725-4.891-9.73-10.12-9.029c-6.755,0.905-10.012,8.088-11.041,14.005c-0.283,1.633-1.096,5.263,0.279,6.639
						c1.202,1.202,2.521,0.22,3.279-0.871c1.426-2.047,2.185-3.7,4.519-5.014c2.034-1.146,4.706-0.842,6.952-1.371
						c2.803-0.66,5.563-2.773,6.818-5.341C293.033,154.729,291.501,153.392,290.457,154.451L290.457,154.451z"/>
				</g>
			</g>
			<polygon id="XMLID_223_" fill="#003AA5" points="285.264,204.938 293.436,206.159 301.497,205.792 301.965,213.303 
				293.715,213.029 284.596,211.949 			"/>
			<polygon id="XMLID_434_" opacity="0.3" fill="#003AA5" points="285.264,204.938 293.436,206.159 301.497,205.792 
				301.965,213.303 293.715,213.029 284.596,211.949 			"/>
		</g>
		<g id="XMLID_430_">
			<path id="XMLID_92_" opacity="0.5" fill="#259AFF" d="M299.521,257.496c0,0,17.71,10.518,26.139,13.746l-0.446-4.87
				L299.521,257.496z"/>
			<path id="XMLID_437_" fill="#EDB6B3" d="M296.561,234.381c-0.653,0.374-1.104,0.76-0.633,1.719s2.074,4.416,2.074,4.416
				l-3.265-0.938c0,0-6.702-3.632-7.576-3.958c-0.841-0.313-1.895,0.783-1.076,1.614c0.427,0.433,7.194,4.95,7.194,4.95
				s-8.957-3.481-9.704-3.231c-0.746,0.25-1.226,1.395,0.053,2.177c0.421,0.258,8.557,4.195,8.557,4.195s-5.934-1.378-6.979-1.227
				c-1.045,0.15-1.061,1.152-0.592,1.689s8.614,2.905,8.614,2.905s-2.872,0.096-3.634,0.365c-0.762,0.271-0.85,1.137-0.121,1.589
				c0.729,0.452,9.59,1.349,9.59,1.349l5.881,2.741l3.173-8.066c-0.866-0.321-3.656-2.193-3.656-2.193
				c-0.159-0.368-3.868-5.729-3.868-5.729S297.213,234.006,296.561,234.381z"/>
			<path id="XMLID_436_" fill="#259AFF" d="M310.668,212.054c0,0,8.037,1.407,11.843,6.346c3.171,4.115,18.246,37.183,15.698,42.037
				c-0.758,1.443-2.235,10.287-7.306,9.077c-11.976-2.857-31.383-12.018-31.383-12.018l6.814-14.734l13.979,3.442l-5.436-17.302
				L310.668,212.054z"/>
			<polygon id="XMLID_440_" opacity="0.5" fill="#259AFF" points="306.335,242.762 320.313,245.641 320.313,246.204 			"/>
		</g>
	</g>
	<g id="XMLID_55_">
		<rect id="XMLID_42_" x="30.365" y="303.531" fill="#003AA5" width="324.885" height="5.661"/>
		<rect id="XMLID_43_" x="30.365" y="303.531" opacity="0.5" fill="#003AA5" width="324.885" height="5.661"/>
	</g>
</g>
</svg>
