<?xml version="1.0" encoding="utf-8"?>
<!-- Generator: Adobe Illustrator 16.0.0, SVG Export Plug-In . SVG Version: 6.00 Build 0)  -->
<!DOCTYPE svg PUBLIC "-//W3C//DTD SVG 1.1//EN" "http://www.w3.org/Graphics/SVG/1.1/DTD/svg11.dtd">
<svg version="1.1" id="Capa_1" xmlns="http://www.w3.org/2000/svg" xmlns:xlink="http://www.w3.org/1999/xlink" x="0px" y="0px"
	 width="400px" height="400px" viewBox="0 0 400 400" enable-background="new 0 0 400 400" xml:space="preserve">
<g>
	<g>
		<polygon fill="#634091" points="229.347,328.45 197.231,154.462 44.681,196.19 69.096,328.45 		"/>
		<polygon fill="#F6A611" points="208.799,328.45 181.572,180.962 74.274,210.313 96.083,328.45 		"/>
		<polygon fill="#C29FC3" points="103.762,328.45 44.681,196.19 69.096,328.45 		"/>
		<polygon fill="#FFFFFF" points="166.652,328.45 96.748,181.949 85.681,184.975 154.143,328.45 		"/>
		<polygon fill="#FFFFFF" points="190.651,328.45 118.88,175.892 107.813,178.922 178.161,328.45 		"/>
		<g>
			<path fill="#3C2356" d="M59.769,205.96c0.44,2.393-0.792,4.767-2.758,5.302l-17.585,4.813c-1.964,0.537-3.915-0.966-4.356-3.356
				l-0.088-0.483c-0.443-2.39,0.794-4.763,2.758-5.301l17.586-4.811c1.965-0.538,3.913,0.967,4.354,3.355L59.769,205.96z"/>
			<path fill="#3C2356" d="M63.188,224.483c0.441,2.393-0.793,4.764-2.756,5.303l-17.586,4.811
				c-1.965,0.536-3.916-0.964-4.357-3.358l-0.087-0.478c-0.442-2.395,0.792-4.769,2.757-5.307l17.587-4.809
				c1.965-0.539,3.913,0.966,4.354,3.356L63.188,224.483z"/>
			<path fill="#3C2356" d="M66.606,243.005c0.441,2.392-0.79,4.766-2.755,5.301l-17.587,4.813c-1.963,0.536-3.915-0.968-4.354-3.359
				l-0.09-0.479c-0.441-2.393,0.794-4.765,2.757-5.304l17.586-4.809c1.966-0.541,3.914,0.964,4.355,3.356L66.606,243.005z"/>
			<path fill="#3C2356" d="M70.025,261.528c0.442,2.39-0.792,4.765-2.757,5.3l-17.586,4.812c-1.962,0.539-3.912-0.966-4.355-3.358
				l-0.09-0.479c-0.439-2.393,0.794-4.767,2.758-5.303l17.587-4.812c1.963-0.537,3.913,0.967,4.354,3.356L70.025,261.528z"/>
			<path fill="#3C2356" d="M73.445,280.049c0.441,2.392-0.792,4.764-2.757,5.302l-17.586,4.81c-1.964,0.538-3.915-0.966-4.356-3.355
				l-0.089-0.48c-0.441-2.391,0.794-4.767,2.759-5.304l17.586-4.813c1.966-0.535,3.913,0.97,4.355,3.359L73.445,280.049z"/>
			<path fill="#3C2356" d="M76.864,298.571c0.442,2.39-0.79,4.765-2.755,5.301l-17.587,4.811c-1.964,0.537-3.915-0.965-4.356-3.355
				l-0.089-0.482c-0.441-2.392,0.794-4.765,2.758-5.302l17.586-4.812c1.965-0.535,3.913,0.966,4.355,3.357L76.864,298.571z"/>
			<path fill="#3C2356" d="M80.284,317.091c0.441,2.392-0.792,4.767-2.757,5.304l-17.587,4.813
				c-1.963,0.537-3.913-0.967-4.355-3.359l-0.089-0.482c-0.441-2.391,0.793-4.764,2.756-5.302l17.587-4.811
				c1.965-0.537,3.913,0.968,4.355,3.357L80.284,317.091z"/>
		</g>
	</g>
	<g>
		<rect x="141.093" y="121.247" fill="#006BA9" width="156.355" height="207.203"/>
		<rect x="167.423" y="152.073" fill="#F6A611" width="109.973" height="52.677"/>
		<polygon fill="#ABC6DA" points="189.487,328.45 141.093,121.247 141.093,328.45 		"/>
		<polygon fill="#FFFFFF" points="248.079,328.45 194.459,121.247 183.117,121.247 236.739,328.45 		"/>
		<polygon fill="#FFFFFF" points="269.62,328.45 217.144,121.247 205.801,121.247 258.278,328.45 		"/>
		<g>
			<g>
				<path fill="#122B4D" d="M154.055,134.806c0,2.45-1.631,4.437-3.645,4.437h-18.024c-2.014,0-3.646-1.986-3.646-4.437v-0.494
					c0-2.449,1.632-4.437,3.646-4.437h18.024c2.014,0,3.645,1.988,3.645,4.437V134.806z"/>
				<path fill="#122B4D" d="M154.055,153.79c0,2.449-1.631,4.438-3.645,4.438h-18.024c-2.014,0-3.646-1.988-3.646-4.438v-0.495
					c0-2.451,1.632-4.437,3.646-4.437h18.024c2.014,0,3.645,1.986,3.645,4.437V153.79z"/>
				<path fill="#122B4D" d="M154.055,172.772c0,2.45-1.631,4.439-3.645,4.439h-18.024c-2.014,0-3.646-1.989-3.646-4.439v-0.491
					c0-2.453,1.632-4.44,3.646-4.44h18.024c2.014,0,3.645,1.987,3.645,4.44V172.772z"/>
				<path fill="#122B4D" d="M154.055,191.758c0,2.449-1.631,4.437-3.645,4.437h-18.024c-2.014,0-3.646-1.987-3.646-4.437v-0.494
					c0-2.451,1.632-4.439,3.646-4.439h18.024c2.014,0,3.645,1.988,3.645,4.439V191.758z"/>
				<path fill="#122B4D" d="M154.055,210.741c0,2.449-1.631,4.434-3.645,4.434h-18.024c-2.014,0-3.646-1.984-3.646-4.434v-0.494
					c0-2.451,1.632-4.437,3.646-4.437h18.024c2.014,0,3.645,1.985,3.645,4.437V210.741z"/>
				<path fill="#122B4D" d="M154.055,229.724c0,2.45-1.631,4.438-3.645,4.438h-18.024c-2.014,0-3.646-1.987-3.646-4.438v-0.494
					c0-2.45,1.632-4.435,3.646-4.435h18.024c2.014,0,3.645,1.984,3.645,4.435V229.724z"/>
				<path fill="#122B4D" d="M154.055,248.706c0,2.451-1.631,4.439-3.645,4.439h-18.024c-2.014,0-3.646-1.988-3.646-4.439v-0.493
					c0-2.45,1.632-4.437,3.646-4.437h18.024c2.014,0,3.645,1.986,3.645,4.437V248.706z"/>
				<path fill="#122B4D" d="M154.055,267.69c0,2.451-1.631,4.438-3.645,4.438h-18.024c-2.014,0-3.646-1.986-3.646-4.438v-0.492
					c0-2.451,1.632-4.438,3.646-4.438h18.024c2.014,0,3.645,1.986,3.645,4.438V267.69z"/>
				<path fill="#122B4D" d="M154.055,286.676c0,2.449-1.631,4.438-3.645,4.438h-18.024c-2.014,0-3.646-1.988-3.646-4.438v-0.495
					c0-2.451,1.632-4.438,3.646-4.438h18.024c2.014,0,3.645,1.986,3.645,4.438V286.676z"/>
				<path fill="#122B4D" d="M154.055,305.657c0,2.451-1.631,4.439-3.645,4.439h-18.024c-2.014,0-3.646-1.988-3.646-4.439v-0.494
					c0-2.45,1.632-4.438,3.646-4.438h18.024c2.014,0,3.645,1.987,3.645,4.438V305.657z"/>
				<path fill="#122B4D" d="M130.543,328.45h21.71c1.073-0.771,1.802-2.181,1.802-3.808v-0.495c0-2.449-1.631-4.438-3.645-4.438
					h-18.024c-2.014,0-3.646,1.988-3.646,4.438v0.495C128.74,326.27,129.468,327.679,130.543,328.45z"/>
			</g>
		</g>
	</g>
	<g>
		<polygon fill="#4FBAB6" points="366.362,328.45 381.431,183.455 226.317,159.565 208.765,328.45 		"/>
		<polygon fill="#FFFFFF" points="355.63,237.273 246.526,220.471 249.257,194.171 358.362,210.976 		"/>
		<polygon fill="#FFFFFF" points="353.554,257.244 244.45,240.44 245.547,229.875 354.651,246.68 		"/>
		<polygon fill="#C2E4EC" points="247.449,328.45 226.317,159.565 208.765,328.45 		"/>
		<polygon fill="#FFFFFF" points="303.196,328.45 279.259,167.719 268.005,165.987 292.2,328.45 		"/>
		<polygon fill="#FFFFFF" points="324.368,328.45 301.763,171.186 290.511,169.45 313.364,328.45 		"/>
		<g>
			<g>
				<path fill="#122B4D" d="M237.776,174.999c-0.25,2.433-2.076,4.152-4.074,3.846l-17.883-2.756
					c-1.997-0.307-3.41-2.526-3.16-4.959l0.051-0.489c0.254-2.431,2.078-4.151,4.075-3.844l17.882,2.755
					c2,0.307,3.416,2.525,3.162,4.956L237.776,174.999z"/>
				<path fill="#122B4D" d="M235.82,193.833c-0.251,2.432-2.077,4.151-4.076,3.846l-17.882-2.755
					c-1.996-0.309-3.412-2.527-3.159-4.958l0.051-0.489c0.253-2.433,2.077-4.155,4.075-3.848l17.882,2.755
					c1.998,0.308,3.413,2.529,3.161,4.96L235.82,193.833z"/>
				<path fill="#122B4D" d="M233.864,212.667c-0.253,2.431-2.078,4.152-4.076,3.847l-17.883-2.757
					c-1.997-0.307-3.41-2.527-3.159-4.958l0.051-0.491c0.253-2.431,2.078-4.154,4.075-3.846l17.882,2.755
					c1.997,0.308,3.411,2.53,3.16,4.96L233.864,212.667z"/>
				<path fill="#122B4D" d="M231.905,231.502c-0.252,2.429-2.076,4.149-4.075,3.843l-17.882-2.755
					c-1.996-0.307-3.412-2.528-3.16-4.96l0.051-0.488c0.253-2.431,2.078-4.153,4.075-3.846l17.883,2.753
					c1.997,0.309,3.413,2.53,3.159,4.962L231.905,231.502z"/>
				<path fill="#122B4D" d="M229.948,250.331c-0.252,2.433-2.078,4.156-4.076,3.847l-17.882-2.755
					c-1.995-0.307-3.411-2.525-3.158-4.957l0.049-0.49c0.255-2.432,2.077-4.152,4.077-3.845l17.881,2.751
					c1.996,0.311,3.412,2.529,3.161,4.962L229.948,250.331z"/>
				<path fill="#122B4D" d="M227.991,269.167c-0.253,2.432-2.076,4.153-4.075,3.845l-17.882-2.753
					c-1.998-0.308-3.414-2.527-3.158-4.959l0.049-0.491c0.252-2.433,2.078-4.153,4.073-3.845l17.884,2.754
					c1.998,0.308,3.414,2.528,3.161,4.958L227.991,269.167z"/>
				<path fill="#122B4D" d="M226.034,287.998c-0.253,2.435-2.078,4.156-4.076,3.848l-17.883-2.755
					c-1.996-0.307-3.41-2.529-3.159-4.96l0.052-0.489c0.253-2.431,2.078-4.154,4.073-3.845l17.884,2.755
					c1.998,0.306,3.412,2.526,3.16,4.96L226.034,287.998z"/>
				<path fill="#122B4D" d="M224.077,306.832c-0.255,2.435-2.078,4.155-4.076,3.847l-17.883-2.756
					c-1.996-0.306-3.412-2.527-3.158-4.96l0.051-0.485c0.252-2.435,2.076-4.153,4.074-3.844l17.882,2.753
					c1.997,0.307,3.413,2.527,3.16,4.958L224.077,306.832z"/>
				<path fill="#122B4D" d="M200.161,326.759l10.982,1.691h9.736c0.656-0.69,1.123-1.653,1.24-2.782l0.051-0.488
					c0.25-2.435-1.162-4.653-3.162-4.962l-17.882-2.754c-1.998-0.308-3.821,1.413-4.075,3.846l-0.051,0.489
					C196.749,324.23,198.163,326.451,200.161,326.759z"/>
			</g>
		</g>
	</g>
</g>
</svg>
