<?xml version="1.0" encoding="utf-8"?>
<!-- Generator: Adobe Illustrator 16.0.0, SVG Export Plug-In . SVG Version: 6.00 Build 0)  -->
<!DOCTYPE svg PUBLIC "-//W3C//DTD SVG 1.1//EN" "http://www.w3.org/Graphics/SVG/1.1/DTD/svg11.dtd">
<svg version="1.1" id="Capa_1" xmlns="http://www.w3.org/2000/svg" xmlns:xlink="http://www.w3.org/1999/xlink" x="0px" y="0px"
	 width="400px" height="400px" viewBox="0 0 400 400" enable-background="new 0 0 400 400" xml:space="preserve">
<g>
	<path fill="#441F18" d="M128.38,186.491c0.647-4.234,0.186-10.819-0.89-14.047l3.415,0.46c0,0-1.328,8.513-0.534,11.238
		c0.794,2.727,0.053,3.439-0.057,3.439C130.203,187.582,128.38,186.491,128.38,186.491z"/>
	<path fill="#33221F" d="M176.146,156.418c0.024-1.035-0.048-2.25-0.824-1.966c-0.775,0.285-0.63,2.483-0.63,2.483L176.146,156.418z
		"/>
	<g>
		<path fill="#33221F" d="M169.165,171.637c5.255,0.251,7.601-0.838,7.601-7.952l-1.111-0.053c0,6.12-1.541,7.026-6.489,6.79
			V171.637z"/>
	</g>
	<polygon fill="#33221F" points="181.335,162.875 182.935,162.875 184.373,177.081 183.275,177.081 	"/>
	<polygon fill="#33221F" points="228.951,159.047 230.551,159.047 229.177,177.081 228.078,177.081 	"/>
	<polygon fill="#33221F" points="203.005,171.693 216.257,171.856 216.199,177.166 202.947,177.003 	"/>
	<rect x="183.905" y="176.501" fill="#33221F" width="51.205" height="1.367"/>
	<rect x="205.262" y="177.779" fill="#442233" width="0.688" height="8.839"/>
	<rect x="212.883" y="177.779" fill="#442233" width="0.689" height="8.839"/>
	<rect x="205.285" y="184.454" fill="#442233" width="8.287" height="1.468"/>
	<rect x="205.285" y="181.867" fill="#442233" width="8.287" height="0.904"/>
	<polygon fill="#33221F" points="186.968,163.314 186.968,158.671 188,158.671 187.445,163.314 	"/>
	<polygon fill="#33221F" points="178.981,163.314 178.981,158.671 179.844,158.671 179.25,163.314 	"/>
	<polygon fill="#33221F" points="177.255,162.857 197.221,161.357 197.221,163.708 177.255,163.708 	"/>
	<polygon fill="#33221F" points="168.558,172.972 167.356,169.112 170.168,169.203 170.047,173.532 	"/>
	<path fill="#33221F" d="M175.076,161.817h2.295c0.291,0,0.527,0.252,0.527,0.563v1.875c0,0.311-0.236,0.563-0.527,0.563h-2.295
		c-0.291,0-0.527-0.252-0.527-0.563v-1.875C174.548,162.069,174.785,161.817,175.076,161.817z"/>
	<path fill="#562F44" d="M189.239,152.659h-4.263l1.323-8.706c0.917-6.525,3.876-4.612,3.876-4.612L189.239,152.659z"/>
	<path fill="#442233" d="M187.496,147.51c0.808-3.237,0.914-6.208,0.396-7.846c1.102-1.083,2.283-0.322,2.283-0.322l-0.937,13.318
		h-3.684C186.299,151.321,186.992,149.532,187.496,147.51z"/>
	<path fill="#562F44" d="M189.943,157.38h-11.115c0,0,0.19-3.665,0.64-4.682c0.669-1.515,3.223-2.128,6.035-2.313l4.44-0.291V157.38
		z"/>
	<path fill="#442233" d="M181.259,153.396c3.057-0.76,5.388-2.115,5.359-3.084l3.325-0.217v7.285h-11.115
		c0,0,0.111-2.13,0.364-3.593C179.843,153.704,180.539,153.575,181.259,153.396z"/>
	<path fill="#441F18" d="M138.013,159.065l-14.719-13.742C132.41,140.539,137.817,150.62,138.013,159.065z"/>
	<path fill="#5E372C" d="M164.433,172.392c0.787-8.178,6.38-16.338-0.491-20.62c-6-3.739-7.224,4.089-8.333,5.783
		s0.121,2.103,1.055,0.292c0.935-1.811,3.396-2.867,4.623-1.869C163.154,157.496,159.122,166.667,164.433,172.392z"/>
	<path fill="#894D3F" d="M164.364,172.332c-0.102-3.216,0.337-5.225,1.533-9.417c1.443-5.055-1.028-8.26-3.641-9.108
		c-2.368-0.77-5.446,0.857-7.077,4.929c-0.034-0.25,0.083-0.655,0.434-1.191c1.111-1.692,1.942-10.091,8.554-6.149
		c7.364,4.39,1.049,12.823,0.251,21C164.399,172.375,164.383,172.353,164.364,172.332z"/>
	<path fill="#5E372C" d="M122.375,146.926l-1.1,0.375c-0.618-0.713-1.738-1.907-1.735-5.516
		C121.938,143.084,122.738,144.598,122.375,146.926z"/>
	<path fill="#441F18" d="M154.752,157.597c5.543,3.686,1.328,11.794-2.43,16.091c-0.483,1.557,2.414,2.415,2.65,3.25
		c0.402,1.417-3.014,4.685-3.278,12.761l-2.198-2.57c0,0,4.787-7.892,1.089-10.2c-2.223-1.389-4.271-4.067-5.049-8.106
		C144.79,164.941,148.995,153.768,154.752,157.597z"/>
	<path fill="#5E372C" d="M151.713,190.185h-4.5c0,0,1.951-4.129,3.201-3.974C151.916,186.398,151.713,190.185,151.713,190.185z"/>
	<path fill="#562D22" d="M130.498,175.989c0.999-2.916,2.829-4.487,2.758-5.951c-0.181-3.745-6.228-9.283-7.15-7.509
		c-0.921,1.774,2.047,13.541,2.74,13.936C129.538,176.859,130.213,176.823,130.498,175.989z"/>
	<path fill="#562D22" d="M130.665,190.185h-4.02c0,0,1.607-4.708,2.729-4.531C130.721,185.868,130.665,190.185,130.665,190.185z"/>
	<path fill="#704436" d="M156.221,169.827c-3.271-2.623-13.7,6.555-23.567,3.663c-7.436-2.178-6.688-11.907-5.852-15.264
		c0.553-2.218,8.343-4.425,8.343-4.425s1.986,5.266,7.951,4.035c4.906-1.013,10.815-3.587,14.742-0.375
		C159.665,158.956,160.724,167.365,156.221,169.827z"/>
	<path fill="#824E40" d="M135.144,153.801c0,0,1.986,5.266,7.951,4.035c4.094-0.846,8.888-2.776,12.645-1.524
		c-1.193,2.696-4.947,4.666-9.397,4.666c-5.271,0-11.041-3.63-11.332-7.138C135.094,153.815,135.144,153.801,135.144,153.801z"/>
	<path fill="#704436" d="M123.703,151.774l1.722-6.714c8.359,0.892,10.04,11.693,12.23,12.846l-9.997,11.428
		C123.703,161.688,129.015,155.761,123.703,151.774z"/>
	<path fill="#562D22" d="M123.326,152.323l1.422-3.724c4.59,0.724,0.938,10.138,6.142,17l-3.232,3.736
		C123.703,161.688,128.637,156.31,123.326,152.323z"/>
	<path fill="#562D22" d="M126.801,158.226c4.735,16.165,11.688,11.245,19.219,10.321c7.169-0.879,12.667-5.086,12.738-9.581
		c1.107,2.96,1.113,8.865-2.538,10.861c-3.271-2.623-13.7,6.555-23.567,3.663C125.218,171.312,125.965,161.583,126.801,158.226z"/>
	<polygon fill="#562D22" points="144.023,169.685 138.035,169.141 139.136,157.687 141.297,157.995 141.986,167.719 
		144.872,168.417 	"/>
	<path fill="#704436" d="M132.616,186.5c0.109-4.228-1.188-10.798-2.674-14.02l3.474,0.46c0,0-0.247,8.496,0.893,11.215
		c1.14,2.721,0.49,3.431,0.379,3.431C134.577,187.587,132.616,186.5,132.616,186.5z"/>
	<path fill="#562D22" d="M134.663,185.673c-0.534-1.897-1.455-3.406-2.377-4.067c-0.466-3.41-1.594-7.122-2.576-9.25l3.897,0.554
		c0,0-0.438,8.526,0.701,11.246c0.618,1.474,0.708,2.354,0.646,2.854C134.886,186.577,134.791,186.129,134.663,185.673z"/>
	<path fill="#704436" d="M133.401,176.02c0.629-2.91,2.259-4.479,2.002-5.939c-0.656-3.737-6.066-10.73-6.753-8.956
		c-2.253,5.818,2.416,14.975,3.158,15.368C132.552,176.887,133.221,176.852,133.401,176.02z"/>
	<path fill="#562D22" d="M128.458,161.021c0.004-0.012,0.204,0.085,0.209,0.074c-0.151,0.978-0.233,2.032-0.233,3.132
		c0,5.07,1.748,9.181,3.904,9.181c1.231,0,2.328-1.342,3.043-3.436c0.007,0.036,0.143,0.194,0.149,0.229
		c0.256,1.46-1.5,2.909-2.128,5.819c-0.18,0.832-0.849,0.867-1.592,0.473C131.066,176.1,126.13,167.357,128.458,161.021z"/>
	<path fill="#8E5749" d="M135.37,190.185h-4.02c0,0,1.009-4.7,2.154-4.522C134.878,185.877,135.37,190.185,135.37,190.185z"/>
	<path fill="#704436" d="M157.302,156.941c5.776,3.686,2.502,12.449-0.984,16.746c-0.385,1.557,2.565,2.415,2.855,3.25
		c0.492,1.417-2.719,4.685-2.473,12.761l-2.36-2.57c0,0,4.289-7.892,0.446-10.2c-2.312-1.389-4.528-4.067-5.56-8.106
		C148.233,164.941,151.303,153.112,157.302,156.941z"/>
	<path fill="#562D22" d="M149.535,163.218c-0.453,5.038,1.229,9.305,3.958,9.752c2.908,0.478,5.905-3.564,6.692-9.028
		c0.103-0.717,0.162-1.423,0.182-2.11c0.55,4.034-1.435,8.912-3.786,11.808c-0.385,1.558,2.302,2.462,2.592,3.296
		c0.211,0.609-0.261,1.56-0.847,3.084c-0.616-1.146-1.441-1.854-2.351-1.854c-0.012,0-0.023,0.003-0.034,0.004
		c-0.253-0.497-0.625-0.924-1.155-1.242c-2.312-1.389-4.76-4.016-5.792-8.054C148.665,167.591,149.016,165.386,149.535,163.218z"/>
	<path fill="#8E5749" d="M156.749,190.185h-4.5c0,0,1.69-4.129,2.951-3.974C156.712,186.398,156.749,190.185,156.749,190.185z"/>
	<polygon fill="#33221F" points="169.582,169.948 139.417,167.279 138.751,168.192 169.424,171.984 	"/>
	<path fill="#33221F" d="M139.166,158.288l0.679,0.311c0,0-1.734,9.509-4.809,15.367l-0.9-0.101
		C135.623,170.484,139.166,158.288,139.166,158.288z"/>
	<path fill="#33221F" d="M141.242,168.245c0-0.137,0.042-7.942,0.055-10.374c0.002-0.409-0.292-0.751-0.685-0.799l-0.617-0.074
		c-0.45-0.055-0.851,0.3-0.867,0.769l-0.375,10.427L141.242,168.245z"/>
	<path fill="#704436" d="M123.458,155.21c3.026-0.239,5.282-3.583,5.332-6.715c0.033-2.034-0.98-3.068-3.463-3.435
		c-2.018-0.299-5.053,0.826-5.68,3.187c-0.626,2.361-0.319,3.409-0.688,4.393c-0.369,0.984-2.128,2.831-2.128,3.736
		c0,0.904,1.253,2.75,2.25,3.058c1.107,0.341,2.844-0.678,2.975-1.601C122.228,156.627,123.458,155.21,123.458,155.21z"/>
	<path fill="#5E372C" d="M125.855,145.19c-2.108-0.305-5.139,0.929-5.794,3.34c-0.655,2.411-0.476,3.398-0.861,4.402
		c-0.386,1.004-2.224,2.891-2.224,3.814c0,0.149,0.037,0.324,0.098,0.512c-0.151-0.33-0.244-0.642-0.244-0.884
		c0-0.905,1.759-2.751,2.128-3.736c0.369-0.983,0.062-2.032,0.688-4.393c0.627-2.36,3.663-3.485,5.68-3.187
		c0.368,0.055,0.7,0.125,1.004,0.21C126.178,145.241,126.021,145.214,125.855,145.19z"/>
	<g>
		<path fill="#5E372C" d="M119.994,152.157c-0.484,0.339-0.986,0.771-1.476,1.28c0.194-0.297,0.354-0.571,0.44-0.798
			c0.369-0.983,0.062-2.032,0.688-4.393c0.165-0.619,0.498-1.151,0.933-1.597c-0.016,0.024-0.032,0.046-0.048,0.071
			C119.465,148.498,119.319,150.577,119.994,152.157z"/>
		<path fill="#5E372C" d="M121.96,155.202c1.818,0.33,4.746-1.396,5.967-3.429c0.082-0.137,0.155-0.277,0.227-0.417
			c-0.881,2.038-1.879,3.923-4.788,4.312c0,0-1.138,0.959-1.311,2.164c-0.131,0.923-1.868,1.941-2.975,1.601
			c-0.064-0.02-0.131-0.047-0.197-0.08C119.625,158.854,121.598,156.076,121.96,155.202z"/>
	</g>
	<path fill="#704436" d="M124.568,146.005l-1.139,0.204c-0.516-0.8-1.465-2.152-0.979-5.725
		C124.65,142.137,125.24,143.756,124.568,146.005z"/>
	<path fill="#562D22" d="M124.283,144.953l-0.707,0.126c-0.32-0.496-0.908-1.334-0.606-3.549
		C124.333,142.555,124.699,143.559,124.283,144.953z"/>
	<path fill="#7A405A" d="M172.436,160.849c0-2.481,1.886-4.492,4.211-4.492h5.999l0.511-1.645c5.064,0,5.951-8.603,5.951-8.603
		v-6.905v-1.101v-0.866c18.783-5.655,37.951-5.675,56.476,0c0,6.018-1.096,17.622-5.875,23.042l-5.531,0.047l0,0
		c-5.757,0-12.261,3.758-12.261,13.734h-1.57c-3.137,0-5.68,2.712-5.68,6.058l0,0h-10.475l0,0c0-3.346-2.543-6.058-5.68-6.058
		h-0.744c0-9.721-4.188-13.309-13.308-13.309l0.003-0.004L172.436,160.849z"/>
	<path fill="#66334D" d="M172.529,159.916c8.335,0.807,18.276,0.548,28.832-0.979c19.965-2.889,36.68-9.524,44.007-16.691
		c-0.502,6.116-2,13.885-5.659,18.034l-5.531,0.047l0,0c-5.757,0-12.261,3.758-12.261,13.734h-1.57c-3.137,0-5.68,2.712-5.68,6.058
		h-10.475c0-3.346-2.543-6.058-5.68-6.058h-0.744c0-9.721-4.188-13.309-13.308-13.309l0.003-0.004l-12.027,0.101
		C172.436,160.529,172.469,160.217,172.529,159.916z"/>
	<path fill="#442233" d="M203.271,140.358v32.318h13.165v-32.318H203.271z M204.012,140.668h11.682v31.016h-11.682V140.668z"/>
	<g>
		<path fill="#FFAE39" d="M205.165,170.753c0.145-0.875-0.675-1.505-0.675-1.505c0.446,0.673,0.129,1.501-0.597,1.468l0.359,0.877
			C204.253,171.594,205.057,171.4,205.165,170.753z"/>
		<path fill="#FFAE39" d="M204.964,170.599c0.816-0.35,1.439,0.296,1.439,0.296c-0.648-0.274-1.435,0.004-1.299,0.83l-0.897-0.041
			C204.207,171.684,204.36,170.857,204.964,170.599z"/>
		<path fill="#FFAE39" d="M205.652,169.629c-0.131,0.032-0.222,0.164-0.204,0.294c0.019,0.132,0.138,0.213,0.269,0.181
			s0.223-0.164,0.205-0.294C205.903,169.679,205.783,169.598,205.652,169.629z"/>
	</g>
	<g>
		<path fill="#FFAE39" d="M214.886,170.369c-0.769-0.339-1.522,0.379-1.522,0.379c0.712-0.321,1.402,0.188,1.217,0.936l0.88-0.186
			C215.46,171.499,215.455,170.62,214.886,170.369z"/>
		<path fill="#FFAE39" d="M214.701,170.544c-0.145-0.925,0.581-1.435,0.581-1.435c-0.391,0.617-0.305,1.495,0.479,1.53l-0.229,0.927
			C215.532,171.566,214.808,171.229,214.701,170.544z"/>
		<path fill="#FFAE39" d="M213.962,169.619c0.002,0.144,0.103,0.266,0.227,0.277c0.123,0.01,0.222-0.099,0.222-0.241
			c-0.001-0.143-0.102-0.267-0.225-0.277C214.061,169.368,213.96,169.476,213.962,169.619z"/>
	</g>
	<g>
		<path fill="#FFAE39" d="M193.409,156.079c-0.19,0.905,0.606,1.709,0.606,1.709c-0.417-0.788-0.056-1.617,0.673-1.463l-0.318-0.992
			C194.37,155.333,193.548,155.408,193.409,156.079z"/>
		<path fill="#FFAE39" d="M193.604,156.275c-0.841,0.237-1.438-0.551-1.438-0.551c0.641,0.397,1.447,0.231,1.351-0.668l0.905,0.189
			C194.42,155.246,194.225,156.1,193.604,156.275z"/>
		
			<ellipse transform="matrix(0.0784 0.9969 -0.9969 0.0784 334.1669 -47.6198)" fill="#FFAE39" cx="192.84" cy="156.935" rx="0.258" ry="0.242"/>
	</g>
	<g>
		<path fill="#FFAE39" d="M193.07,140.321c-0.806-0.351-1.683,0.352-1.683,0.352c0.8-0.308,1.504,0.211,1.241,0.953l0.969-0.169
			C193.597,141.457,193.666,140.581,193.07,140.321z"/>
		<path fill="#FFAE39" d="M192.854,140.493c-0.078-0.925,0.75-1.42,0.75-1.42c-0.475,0.607-0.456,1.483,0.391,1.533l-0.325,0.919
			C193.671,141.524,192.913,141.176,192.854,140.493z"/>
		
			<ellipse transform="matrix(-0.9962 -0.0875 0.0875 -0.9962 371.8028 295.4477)" fill="#FFAE39" cx="192.373" cy="139.579" rx="0.243" ry="0.258"/>
	</g>
	<g>
		<path fill="#FFAE39" d="M201.549,140.672c0.143-0.916-0.696-1.67-0.696-1.67c0.46,0.762,0.143,1.611-0.594,1.501l0.371,0.971
			C200.629,141.474,201.445,141.35,201.549,140.672z"/>
		<path fill="#FFAE39" d="M201.345,140.486c0.827-0.287,1.466,0.464,1.466,0.464c-0.663-0.358-1.459-0.144-1.314,0.749l-0.912-0.134
			C200.584,141.564,200.733,140.7,201.345,140.486z"/>
		<path fill="#FFAE39" d="M202.037,139.526c-0.132,0.021-0.224,0.151-0.205,0.292c0.019,0.142,0.143,0.24,0.274,0.22
			c0.132-0.021,0.225-0.151,0.206-0.292C202.293,139.605,202.17,139.506,202.037,139.526z"/>
	</g>
	<g>
		<path fill="#FFAE39" d="M201.244,156.316c0.863,0.118,1.541-0.803,1.541-0.803c-0.697,0.517-1.505,0.209-1.429-0.58l-0.896,0.43
			C200.46,155.364,200.607,156.229,201.244,156.316z"/>
		<path fill="#FFAE39" d="M201.41,156.091c0.3,0.872-0.381,1.579-0.381,1.579c0.313-0.718,0.082-1.559-0.748-1.374l0.092-0.978
			C200.374,155.319,201.189,155.447,201.41,156.091z"/>
		<path fill="#FFAE39" d="M202.336,156.796c-0.024-0.14-0.15-0.234-0.282-0.208c-0.132,0.025-0.22,0.16-0.196,0.3
			c0.024,0.14,0.151,0.234,0.282,0.209C202.272,157.071,202.359,156.937,202.336,156.796z"/>
	</g>
	<g>
		<path fill="#FFAE39" d="M218.375,156.079c-0.189,0.905,0.606,1.709,0.606,1.709c-0.418-0.788-0.056-1.617,0.675-1.463
			l-0.319-0.992C219.337,155.333,218.516,155.408,218.375,156.079z"/>
		<path fill="#FFAE39" d="M218.57,156.275c-0.842,0.237-1.438-0.551-1.438-0.551c0.642,0.397,1.448,0.231,1.352-0.668l0.903,0.189
			C219.387,155.246,219.192,156.1,218.57,156.275z"/>
		
			<ellipse transform="matrix(0.0794 0.9968 -0.9968 0.0794 356.9591 -72.6405)" fill="#FFAE39" cx="217.807" cy="156.935" rx="0.258" ry="0.242"/>
	</g>
	<g>
		<path fill="#FFAE39" d="M218.768,140.321c-0.806-0.351-1.683,0.352-1.683,0.352c0.799-0.308,1.505,0.211,1.239,0.953l0.971-0.169
			C219.295,141.457,219.363,140.581,218.768,140.321z"/>
		<path fill="#FFAE39" d="M218.553,140.493c-0.078-0.925,0.749-1.42,0.749-1.42c-0.473,0.607-0.455,1.483,0.393,1.533l-0.327,0.919
			C219.367,141.524,218.61,141.176,218.553,140.493z"/>
		
			<ellipse transform="matrix(-0.9962 -0.0875 0.0875 -0.9962 423.0854 297.713)" fill="#FFAE39" cx="218.071" cy="139.579" rx="0.243" ry="0.258"/>
	</g>
	<g>
		<path fill="#FFAE39" d="M231.999,140.672c0.141-0.916-0.696-1.67-0.696-1.67c0.459,0.762,0.143,1.611-0.595,1.501l0.371,0.971
			C231.079,141.474,231.895,141.35,231.999,140.672z"/>
		<path fill="#FFAE39" d="M231.794,140.486c0.828-0.287,1.465,0.464,1.465,0.464c-0.661-0.358-1.457-0.144-1.313,0.749l-0.913-0.134
			C231.033,141.564,231.183,140.7,231.794,140.486z"/>
		<path fill="#FFAE39" d="M232.487,139.526c-0.132,0.021-0.225,0.151-0.205,0.292c0.018,0.142,0.141,0.24,0.273,0.22
			c0.133-0.021,0.226-0.151,0.206-0.292S232.619,139.506,232.487,139.526z"/>
	</g>
	<g>
		<path fill="#FFAE39" d="M229.862,156.329c0.814,0.327,1.672-0.4,1.672-0.4c-0.79,0.331-1.509-0.167-1.264-0.917l-0.965,0.197
			C229.306,155.209,229.26,156.087,229.862,156.329z"/>
		<path fill="#FFAE39" d="M230.073,156.152c0.101,0.922-0.714,1.441-0.714,1.441c0.459-0.622,0.417-1.497-0.431-1.521l0.303-0.928
			C229.231,155.144,229.997,155.47,230.073,156.152z"/>
		
			<ellipse transform="matrix(0.9982 0.0594 -0.0594 0.9982 9.731 -13.4125)" fill="#FFAE39" cx="230.577" cy="157.051" rx="0.243" ry="0.258"/>
	</g>
	<polygon fill="#442233" points="218.436,140.668 231.861,140.668 229.954,156.121 218.436,156.121 	"/>
	<polygon fill="#442233" points="192.855,140.668 201.276,140.668 201.276,156.121 193.699,156.121 	"/>
	<rect x="204.594" y="141.047" fill="#442233" width="10.519" height="14.896"/>
	<rect x="204.948" y="141.496" fill="#6FA8A8" width="9.809" height="13.583"/>
	<polygon fill="#559391" points="205.337,150.599 214.466,149.151 214.466,154.665 205.337,154.665 	"/>
	<polygon fill="#6FA8A8" points="193.554,141.496 200.695,141.496 200.695,155.079 194.233,155.079 	"/>
	<polygon fill="#6FA8A8" points="230.777,141.496 219.043,141.496 219.043,155.079 229.354,155.079 	"/>
	<g>
		<ellipse fill="#33221F" cx="183.86" cy="177.268" rx="2.926" ry="3.12"/>
		<g>
			<polygon fill="#AD5A44" points="185.021,177.989 185.191,177.513 193.974,180.519 193.445,181.996 			"/>
			<polygon fill="#AD5A44" points="182.687,176.492 182.517,176.967 173.734,173.96 174.263,172.484 			"/>
			<polygon fill="#AD5A44" points="183.153,178.484 183.599,178.667 180.779,188.035 179.396,187.47 			"/>
			<polygon fill="#AD5A44" points="184.555,175.995 184.109,175.813 186.928,166.445 188.312,167.009 			"/>
			<polygon fill="#AD5A44" points="182.533,177.591 182.727,178.057 174.524,182.555 173.919,181.111 			"/>
			<polygon fill="#AD5A44" points="185.175,176.889 184.98,176.424 193.184,171.925 193.789,173.369 			"/>
			<polygon fill="#AD5A44" points="183.525,175.831 183.089,176.039 178.872,167.288 180.224,166.644 			"/>
			<polygon fill="#AD5A44" points="184.183,178.649 184.619,178.441 188.836,187.192 187.483,187.837 			"/>
		</g>
		<path fill="#51261D" d="M173.098,178.855c0.822,6.46,6.398,10.986,12.455,10.109c6.058-0.877,10.302-6.824,9.48-13.285
			c-0.822-6.461-6.4-10.988-12.456-10.11C176.52,166.446,172.276,172.394,173.098,178.855z M174.2,178.695
			c-0.733-5.757,3.09-11.063,8.539-11.852s10.459,3.238,11.192,8.996c0.733,5.756-3.091,11.063-8.54,11.853
			C179.943,188.479,174.932,184.453,174.2,178.695z"/>
		<ellipse fill="#AD5A44" cx="183.859" cy="177.268" rx="1.853" ry="1.977"/>
		<ellipse fill="#CC9D7D" cx="183.859" cy="177.268" rx="1.398" ry="1.492"/>
		<g>
			<path fill="#51261D" d="M185.911,169.824l1.017-3.379l1.384,0.564l-1.315,3.146C186.646,170.019,186.283,169.909,185.911,169.824
				z"/>
			<path fill="#51261D" d="M190.834,173.214l2.35-1.289l0.605,1.443l-2.308,0.943C191.29,173.927,191.074,173.562,190.834,173.214z"
				/>
			<path fill="#51261D" d="M180.462,170.587l-1.59-3.299l1.353-0.645l1.251,3.482C181.125,170.255,180.788,170.411,180.462,170.587z
				"/>
			<path fill="#51261D" d="M176.623,174.949l-2.889-0.989l0.529-1.476l2.888,1.374C176.951,174.207,176.776,174.572,176.623,174.949
				z"/>
			<path fill="#51261D" d="M192.313,179.95l1.661,0.569l-0.529,1.477l-1.459-0.695C192.126,180.866,192.237,180.415,192.313,179.95z
				"/>
			<path fill="#51261D" d="M176.468,181.488l-1.944,1.067l-0.604-1.444l2.204-0.9C176.208,180.65,176.324,181.077,176.468,181.488z"
				/>
			<path fill="#51261D" d="M181.206,186.619l-0.426,1.417l-1.383-0.565l0.615-1.47C180.39,186.238,180.79,186.446,181.206,186.619z"
				/>
			<path fill="#51261D" d="M188.29,186.056l0.546,1.137l-1.353,0.645l-0.418-1.167C187.491,186.501,187.899,186.294,188.29,186.056z
				"/>
		</g>
		<path fill="#CC9D7D" d="M172.129,178.995c0.895,7.032,6.964,11.959,13.557,11.004c6.593-0.954,11.21-7.428,10.316-14.459
			c-0.895-7.032-6.964-11.959-13.557-11.004C175.853,165.489,171.234,171.963,172.129,178.995z M173.328,178.822
			c-0.798-6.266,3.364-12.042,9.294-12.899c5.93-0.858,11.384,3.525,12.181,9.79c0.798,6.267-3.364,12.042-9.294,12.899
			C179.578,189.47,174.125,185.086,173.328,178.822z"/>
		<g>
			<path fill="#BC8B69" d="M172.129,177.961c0.895,7.031,6.964,11.957,13.557,11.003c5.884-0.852,10.192-6.102,10.415-12.222
				c0.258,6.552-4.201,12.356-10.415,13.256c-6.593,0.955-12.662-3.972-13.557-11.004c-0.096-0.755-0.125-1.503-0.098-2.24
				C172.046,177.154,172.077,177.556,172.129,177.961z"/>
			<path fill="#BC8B69" d="M182.622,164.888c5.93-0.859,11.384,3.524,12.181,9.79c0.088,0.69,0.112,1.376,0.084,2.049
				c-0.015-0.336-0.04-0.674-0.084-1.015c-0.797-6.265-6.251-10.648-12.181-9.79c-5.276,0.764-9.149,5.42-9.377,10.851
				C172.99,170.91,177.013,165.699,182.622,164.888z"/>
		</g>
	</g>
	<g>
		<ellipse fill="#33221F" cx="234.74" cy="177.268" rx="2.926" ry="3.12"/>
		<g>
			<polygon fill="#AD5A44" points="235.902,177.989 236.072,177.513 244.854,180.519 244.326,181.996 			"/>
			<polygon fill="#AD5A44" points="233.568,176.492 233.397,176.967 224.614,173.96 225.143,172.484 			"/>
			<polygon fill="#AD5A44" points="234.033,178.484 234.479,178.667 231.661,188.035 230.276,187.47 			"/>
			<polygon fill="#AD5A44" points="235.438,175.995 234.991,175.813 237.81,166.445 239.193,167.009 			"/>
			<polygon fill="#AD5A44" points="233.414,177.591 233.608,178.057 225.405,182.555 224.801,181.111 			"/>
			<polygon fill="#AD5A44" points="236.057,176.889 235.861,176.424 244.065,171.925 244.669,173.369 			"/>
			<polygon fill="#AD5A44" points="234.405,175.831 233.97,176.039 229.752,167.288 231.105,166.644 			"/>
			<polygon fill="#AD5A44" points="235.064,178.649 235.5,178.441 239.717,187.192 238.364,187.837 			"/>
		</g>
		<path fill="#51261D" d="M223.979,178.855c0.822,6.46,6.399,10.986,12.456,10.109s10.301-6.824,9.479-13.285
			c-0.822-6.461-6.399-10.988-12.457-10.11C227.4,166.446,223.157,172.394,223.979,178.855z M225.08,178.695
			c-0.732-5.757,3.091-11.063,8.54-11.852c5.448-0.789,10.459,3.238,11.192,8.996c0.731,5.756-3.092,11.063-8.54,11.853
			C230.824,188.479,225.812,184.453,225.08,178.695z"/>
		<ellipse fill="#AD5A44" cx="234.74" cy="177.268" rx="1.854" ry="1.977"/>
		<ellipse fill="#CC9D7D" cx="234.74" cy="177.268" rx="1.398" ry="1.492"/>
		<g>
			<path fill="#51261D" d="M236.793,169.824l1.017-3.379l1.384,0.564l-1.314,3.146C237.527,170.019,237.164,169.909,236.793,169.824
				z"/>
			<path fill="#51261D" d="M241.716,173.214l2.35-1.289l0.604,1.443l-2.308,0.943C242.172,173.927,241.956,173.562,241.716,173.214z
				"/>
			<path fill="#51261D" d="M231.343,170.587l-1.591-3.299l1.354-0.645l1.251,3.482C232.007,170.255,231.669,170.411,231.343,170.587
				z"/>
			<path fill="#51261D" d="M227.504,174.949l-2.89-0.989l0.528-1.476l2.889,1.374C227.833,174.207,227.657,174.572,227.504,174.949z
				"/>
			<path fill="#51261D" d="M243.194,179.95l1.66,0.569l-0.528,1.477l-1.46-0.695C243.007,180.866,243.118,180.415,243.194,179.95z"
				/>
			<path fill="#51261D" d="M227.348,181.488l-1.942,1.067l-0.604-1.444l2.203-0.9C227.09,180.65,227.205,181.077,227.348,181.488z"
				/>
			<path fill="#51261D" d="M232.086,186.619l-0.425,1.417l-1.385-0.565l0.615-1.47C231.271,186.238,231.67,186.446,232.086,186.619z
				"/>
			<path fill="#51261D" d="M239.169,186.056l0.548,1.137l-1.353,0.645l-0.418-1.167C238.372,186.501,238.78,186.294,239.169,186.056
				z"/>
		</g>
		<path fill="#CC9D7D" d="M223.011,178.995c0.894,7.032,6.963,11.959,13.556,11.004c6.592-0.954,11.211-7.428,10.316-14.459
			c-0.895-7.032-6.965-11.959-13.557-11.004C226.734,165.489,222.115,171.963,223.011,178.995z M224.209,178.822
			c-0.798-6.266,3.363-12.042,9.293-12.899c5.931-0.858,11.385,3.525,12.182,9.79c0.797,6.267-3.364,12.042-9.294,12.899
			C230.46,189.47,225.006,185.086,224.209,178.822z"/>
		<g>
			<path fill="#BC8B69" d="M223.011,177.961c0.894,7.031,6.963,11.957,13.556,11.003c5.885-0.852,10.192-6.102,10.414-12.222
				c0.257,6.552-4.201,12.356-10.414,13.256c-6.593,0.955-12.662-3.972-13.556-11.004c-0.097-0.755-0.126-1.503-0.1-2.24
				C222.928,177.154,222.959,177.556,223.011,177.961z"/>
			<path fill="#BC8B69" d="M233.502,164.888c5.931-0.859,11.385,3.524,12.182,9.79c0.088,0.69,0.112,1.376,0.084,2.049
				c-0.015-0.336-0.041-0.674-0.084-1.015c-0.797-6.265-6.251-10.648-12.182-9.79c-5.275,0.764-9.147,5.42-9.378,10.851
				C223.87,170.91,227.894,165.699,233.502,164.888z"/>
		</g>
	</g>
	<path fill="#AD5A44" d="M177.242,163.943L177.242,163.943c0.141,0,0.255,0.122,0.255,0.272v0.009c0,0.151-0.115,0.272-0.255,0.272
		l0,0c-0.141,0-0.255-0.122-0.255-0.272v-0.009C176.987,164.065,177.102,163.943,177.242,163.943z"/>
	<path fill="#AD5A44" d="M177.242,162.15L177.242,162.15c0.141,0,0.255,0.121,0.255,0.271v0.01c0,0.15-0.115,0.272-0.255,0.272l0,0
		c-0.141,0-0.255-0.122-0.255-0.272v-0.01C176.987,162.271,177.102,162.15,177.242,162.15z"/>
	<path fill="#AD5A44" d="M175.173,163.943L175.173,163.943c0.141,0,0.255,0.122,0.255,0.272v0.009c0,0.151-0.115,0.272-0.255,0.272
		l0,0c-0.141,0-0.255-0.122-0.255-0.272v-0.009C174.918,164.065,175.032,163.943,175.173,163.943z"/>
	<path fill="#AD5A44" d="M175.173,162.15L175.173,162.15c0.141,0,0.255,0.121,0.255,0.271v0.01c0,0.15-0.115,0.272-0.255,0.272l0,0
		c-0.141,0-0.255-0.122-0.255-0.272v-0.01C174.918,162.271,175.032,162.15,175.173,162.15z"/>
	<g>
		<path fill="#FFAE39" d="M192.654,140.466h8.812v15.858h-7.945L192.654,140.466z M201.087,140.871h-8.031l0.824,15.047h7.207
			V140.871z"/>
	</g>
	<g>
		<path fill="#FFAE39" d="M203.818,140.393h12.07v31.378h-12.07V140.393z M215.55,140.775h-11.394v30.613h11.394V140.775z"/>
	</g>
	<g>
		<path fill="#FFAE39" d="M218.246,140.466h13.831l-1.957,15.858h-11.874V140.466z M231.644,140.871h-13.017v15.047h11.16
			L231.644,140.871z"/>
	</g>
	<g>
		<path fill="#FFAE39" d="M204.002,180.119c0-3.229-2.463-5.855-5.49-5.855h-0.934v-0.203c0-9.309-3.8-13.106-13.119-13.106
			l-0.212-0.003l-12,0.102v-0.204c0-2.588,1.975-4.694,4.401-4.694h5.862l0.511-1.646h0.137c4.836,0,5.752-8.338,5.76-8.4v-9.025
			l0.138-0.042c18.935-5.701,37.971-5.701,56.581,0l0.137,0.042v0.152c0,7.593-1.552,18.22-5.925,23.181l-0.057,0.063l-5.614,0.047
			c-5.569,0-12.071,3.544-12.071,13.532v0.203h-1.76c-3.027,0-5.489,2.627-5.489,5.855v0.203h-10.854V180.119z M220.346,173.858
			h1.381c0.088-10.133,6.745-13.734,12.449-13.734l5.449-0.046c4.228-4.868,5.747-15.211,5.768-22.688
			c-18.45-5.624-37.322-5.624-56.095,0.001l-0.002,8.741c-0.037,0.355-0.947,8.633-6.001,8.781l-0.512,1.647h-6.136
			c-2.153,0-3.916,1.814-4.016,4.085l11.83-0.101l0.375,0.001l-0.004,0.005c9.25,0.1,13.071,3.982,13.125,13.308h0.556
			c3.173,0,5.766,2.699,5.866,6.059h10.101C214.58,176.557,217.173,173.858,220.346,173.858z"/>
	</g>
	<path opacity="0.44" fill="#66334D" d="M216.619,137.083c-9.961,0-19.369,1.011-27.702,2.804v-2.802l0.138-0.042
		c18.935-5.701,37.971-5.701,56.581,0l0.137,0.042v0.152c0,0.943-0.023,1.934-0.074,2.955
		C237.029,138.208,227.132,137.083,216.619,137.083z"/>
	<path fill="#FFAE39" d="M187.194,138.273v-1.742c20.057-6.039,40.521-6.06,60.301,0c0,0.248-0.003,1.46-0.007,1.724
		C227.646,133.748,207.274,133.767,187.194,138.273z"/>
	<g>
		<path fill="#FF8F3B" d="M238.627,134.233c2.97,0.632,5.927,1.396,8.868,2.297c0,0.248-0.003,1.46-0.007,1.725
			c-5.72-1.299-11.482-2.22-17.271-2.768C233.435,135.169,236.284,134.742,238.627,134.233z"/>
		<path fill="#FF8F3B" d="M195.383,134.407c2.4,0.479,5.268,0.875,8.471,1.165c-5.564,0.559-11.123,1.459-16.66,2.701v-1.743
			C189.917,135.71,192.649,135.006,195.383,134.407z"/>
	</g>
	<g>
		<path fill="#FFAE39" d="M198.597,172.857c0.83-0.278,1.649,0.499,1.649,0.499c-0.773-0.377-1.516,0.077-1.31,0.84l-0.953-0.254
			C197.983,173.942,197.983,173.063,198.597,172.857z"/>
		<path fill="#FFAE39" d="M198.798,173.047c0.15-0.915-0.637-1.481-0.637-1.481c0.426,0.647,0.339,1.52-0.509,1.494l0.254,0.944
			C197.905,174.003,198.687,173.724,198.798,173.047z"/>
		<ellipse fill="#FFAE39" cx="199.349" cy="172.18" rx="0.243" ry="0.259"/>
	</g>
	<g>
		<path fill="#FFAE39" d="M184.169,155.756c0.135,0.917-0.707,1.666-0.707,1.666c0.463-0.759,0.152-1.61-0.585-1.506l0.377-0.968
			C183.254,154.948,184.069,155.078,184.169,155.756z"/>
		<path fill="#FFAE39" d="M183.963,155.939c0.826,0.293,1.467-0.453,1.467-0.453c-0.663,0.354-1.458,0.133-1.309-0.758l-0.913,0.128
			C183.209,154.857,183.353,155.723,183.963,155.939z"/>
		<path fill="#FFAE39" d="M184.65,156.905c-0.133-0.021-0.223-0.153-0.205-0.294c0.021-0.141,0.144-0.239,0.276-0.217
			c0.133,0.021,0.224,0.153,0.204,0.294C184.906,156.829,184.783,156.926,184.65,156.905z"/>
	</g>
	<g>
		<path fill="#FFAE39" d="M204.9,178.926c0.83-0.278,1.648,0.499,1.648,0.499c-0.771-0.377-1.515,0.078-1.309,0.841l-0.954-0.255
			C204.286,180.011,204.286,179.132,204.9,178.926z"/>
		<path fill="#FFAE39" d="M205.101,179.115c0.151-0.914-0.637-1.48-0.637-1.48c0.426,0.647,0.34,1.519-0.509,1.493l0.254,0.944
			C204.209,180.072,204.99,179.792,205.101,179.115z"/>
		<ellipse fill="#FFAE39" cx="205.652" cy="178.249" rx="0.242" ry="0.258"/>
	</g>
	<g>
		<path fill="#FFAE39" d="M221.104,172.72c-0.831-0.279-1.649,0.499-1.649,0.499c0.772-0.377,1.516,0.078,1.311,0.84l0.952-0.254
			C221.718,173.805,221.718,172.925,221.104,172.72z"/>
		<path fill="#FFAE39" d="M220.903,172.909c-0.15-0.914,0.638-1.481,0.638-1.481c-0.427,0.648-0.34,1.519,0.508,1.493l-0.253,0.945
			C221.796,173.866,221.015,173.585,220.903,172.909z"/>
		<ellipse fill="#FFAE39" cx="220.352" cy="172.042" rx="0.243" ry="0.258"/>
	</g>
	<g>
		<path fill="#FFAE39" d="M239.299,159.063c-0.815-0.327-1.673,0.4-1.673,0.4c0.791-0.331,1.51,0.168,1.264,0.917l0.965-0.197
			C239.854,160.182,239.901,159.305,239.299,159.063z"/>
		<path fill="#FFAE39" d="M239.088,159.24c-0.103-0.923,0.713-1.441,0.713-1.441c-0.459,0.621-0.418,1.496,0.431,1.52l-0.303,0.929
			C239.929,160.248,239.163,159.922,239.088,159.24z"/>
		
			<ellipse transform="matrix(-0.9983 -0.0584 0.0584 -0.9983 467.5172 330.3383)" fill="#FFAE39" cx="238.583" cy="158.341" rx="0.243" ry="0.259"/>
	</g>
	<g>
		<path fill="#FFAE39" d="M213.863,178.857c-0.831-0.278-1.649,0.499-1.649,0.499c0.772-0.377,1.516,0.078,1.311,0.839l0.953-0.253
			C214.478,179.943,214.478,179.063,213.863,178.857z"/>
		<path fill="#FFAE39" d="M213.662,179.047c-0.15-0.916,0.638-1.482,0.638-1.482c-0.427,0.648-0.34,1.519,0.509,1.494l-0.254,0.944
			C214.555,180.003,213.772,179.723,213.662,179.047z"/>
		<ellipse fill="#FFAE39" cx="213.111" cy="178.179" rx="0.242" ry="0.26"/>
	</g>
	<rect x="206.146" y="184.804" fill="#FFAE39" width="6.854" height="0.69"/>
	<ellipse fill="#FFAE39" cx="205.822" cy="158.875" rx="0.744" ry="0.793"/>
	<path fill="#FFAE39" d="M210.088,159.288c-1.212-1.784-4.464-1.178-4.464-1.178l0.392,0.428c0,0,1.213-0.621,2.377,0.517
		C209.175,159.821,210.088,159.288,210.088,159.288z"/>
	<polygon fill="#8BCCCA" points="205.272,141.841 214.502,141.841 214.502,144.282 205.272,145.599 	"/>
	<polygon fill="#8BCCCA" points="219.335,141.841 230.357,141.841 230.116,144.282 219.335,145.599 	"/>
	<polygon fill="#8BCCCA" points="193.763,141.703 200.391,141.703 200.391,144.144 194.185,145.461 	"/>
	<ellipse fill="#FFAE39" cx="174.765" cy="159.089" rx="0.63" ry="0.673"/>
	<ellipse fill="#FFAE39" cx="243.619" cy="139.918" rx="0.63" ry="0.672"/>
	<path fill="#562D22" d="M130.726,159.377c-1.771,1.724-2.964,4.375-2.964,4.375l0.094-2.363L130.726,159.377z"/>
	<path fill="#FFAE39" d="M140.661,157.646c-0.005-0.122,0.071-0.22,0.17-0.22c0.098,0,0.181,0.098,0.186,0.22s-0.071,0.22-0.17,0.22
		C140.749,157.866,140.666,157.768,140.661,157.646z"/>
	<path fill="#FFAE39" d="M139.461,157.413c0.058-0.104,0.172-0.142,0.254-0.084c0.083,0.057,0.102,0.188,0.044,0.292
		c-0.059,0.104-0.173,0.143-0.255,0.085C139.422,157.648,139.403,157.518,139.461,157.413z"/>
	<ellipse fill="#FFAE39" cx="140.107" cy="167.447" rx="0.4" ry="0.426"/>
	<path fill="#894D3F" d="M164.509,164.253c-1.77-3.104,0.065-9.785-2.67-10.556c0,0,1.676-1.676,3.446,1.117
		C167.055,157.607,164.509,164.253,164.509,164.253z"/>
	<path fill="#562D22" d="M117.641,157.019c-0.257-0.637,0.025-1.822,0.808-2.399C119.232,154.043,117.853,157.542,117.641,157.019z"
		/>
	<path fill="#562D22" d="M122.615,149.289c1.487,0.81,1.551-0.396,1.244-1.069C123.569,148.271,122.615,149.289,122.615,149.289z"/>
	<path fill="#3A1B15" d="M122.993,149.093c0.771,0.42,0.804-0.206,0.645-0.554C123.488,148.565,122.993,149.093,122.993,149.093z"/>
	<path fill="#845042" d="M122.351,149.472l2.089-1.322c0,0-0.601-0.778-1.401-0.41C122.239,148.107,122.351,149.472,122.351,149.472
		z"/>
	<path fill="#441F18" d="M138.875,156.116c-1.681-0.414-2.36-2.052-2.36-2.052l0.436-1.172
		C137.395,154.276,138.004,155.4,138.875,156.116z"/>
	<path fill="#441F18" d="M138.285,153.899c-2.235-0.453-3.258-2.752-3.258-2.752l0.476-1.724
		C136.515,151.064,137.086,152.943,138.285,153.899z"/>
	<path fill="#33221F" d="M123.413,156.124c-1.689-1.437-4.179-4.557-4.179-4.557l-0.973,2.037l4.357,3.291L123.413,156.124z"/>
	<ellipse fill="#33221F" cx="121.33" cy="156.159" rx="0.936" ry="0.999"/>
	<ellipse fill="#FFAE39" cx="121.33" cy="156.159" rx="0.467" ry="0.499"/>
	<path fill="#33221F" d="M139.449,157.917l-0.114,1.058c-10.305-0.964-12.696,3.83-12.696,3.83l-0.322-0.327
		C129.041,158.378,134.176,157.3,139.449,157.917z"/>
	<g>
		<path fill="#33221F" d="M152.192,166.293c7.9,0,16.065-3.632,23.297-10.642l-0.255-0.301
			c-10.944,10.608-24.038,13.404-35.029,7.48c-1.026-0.553-2.355-1.414-3.763-2.326c-4.851-3.143-10.889-7.055-14.05-5.152
			l0.186,0.353c2.969-1.787,9.151,2.22,13.666,5.146c1.415,0.916,2.75,1.781,3.789,2.341
			C143.892,165.272,148.005,166.293,152.192,166.293z"/>
	</g>
	<path fill="#33221F" d="M129.208,171.62c-3.409-5.211-2.455-9.314-2.455-9.314l-0.792,0.207
		C126.065,167.408,127.516,169.617,129.208,171.62z"/>
	<polygon fill="#559391" points="194.443,150.599 200.358,149.151 200.358,154.665 194.443,154.665 	"/>
	<polygon fill="#559391" points="219.366,150.599 229.548,149.151 228.73,154.665 219.366,154.665 	"/>
	<g>
		<g>
			<g>
				<g>
					<g>
						<path d="M170.436,263.897c-3.106,0-8.916-1.65-9.183-1.728l0.184-0.644c0.07,0.021,6.998,1.983,9.664,1.665
							c1.81-0.221,2.834-6.505,3.055-10.415l0.668,0.04c-0.061,1.091-0.687,10.683-3.643,11.04
							C170.958,263.885,170.708,263.897,170.436,263.897L170.436,263.897z"/>
					</g>
				</g>
				<g>
					<g>
						<g>
							<path fill="#60BD68" d="M158.918,263.105c1.339-3.52,2.428-1.509,2.428-1.509s-0.754-1.677-1.926-1.593
								c-1.4,0.101-3.935,5.113-3.433,8.466c0.365,2.434,3.244,2.302,4.634-1.287c-0.009,0.011-0.02,0.021-0.029,0.03
								C158.918,268.805,157.665,266.398,158.918,263.105z"/>
						</g>
						<g>
							<path d="M157.591,270.284c-0.927,0-1.604-0.687-1.77-1.79c-0.401-2.672,1.066-6.197,2.279-7.716
								c0.479-0.596,0.918-0.913,1.307-0.941c1.279-0.095,2.059,1.618,2.091,1.69l-0.3,0.148c-0.002-0.002-0.27-0.483-0.655-0.483
								c-0.269,0-0.816,0.256-1.47,1.974c-0.708,1.862-0.575,3.352-0.127,4.003c0.364,0.528,0.929,0.493,1.529-0.078l0.301,0.153
								C159.909,269.485,158.562,270.284,157.591,270.284L157.591,270.284z M159.505,260.168l-0.073,0.003
								c-0.282,0.021-0.662,0.311-1.069,0.82c-1.175,1.467-2.597,4.874-2.21,7.453c0.141,0.941,0.68,1.506,1.439,1.506
								c0.739,0,1.823-0.604,2.621-2.247c-0.599,0.336-1.17,0.196-1.542-0.344c-0.606-0.882-0.572-2.575,0.09-4.313
								c0.553-1.453,1.153-2.19,1.783-2.19c0.05,0,0.098,0.005,0.145,0.014C160.394,260.513,159.987,260.168,159.505,260.168
								L159.505,260.168z"/>
						</g>
					</g>
					<g>
						<g>
							<path fill="#FACEAB" d="M161.346,261.597c0,0-1.089-2.011-2.428,1.509c-1.253,3.293,0,5.699,1.674,4.107
								c0.009-0.01,0.02-0.02,0.029-0.03C161.146,265.829,161.46,263.985,161.346,261.597z"/>
						</g>
						<g>
							<path d="M159.581,267.884L159.581,267.884c-0.359,0-0.674-0.182-0.91-0.524c-0.606-0.882-0.571-2.575,0.09-4.313
								c0.553-1.453,1.153-2.19,1.783-2.19c0.585,0,0.935,0.634,0.949,0.66l0.02,0.072c0.107,2.218-0.14,4.12-0.735,5.655
								l-0.04,0.06C160.324,267.698,159.945,267.884,159.581,267.884L159.581,267.884z M160.543,261.192
								c-0.269,0-0.816,0.256-1.47,1.974c-0.708,1.861-0.575,3.352-0.127,4.003c0.173,0.252,0.386,0.381,0.634,0.381h0
								c0.271,0,0.581-0.16,0.895-0.459c0.563-1.448,0.804-3.29,0.704-5.445C161.114,261.54,160.872,261.192,160.543,261.192
								L160.543,261.192z"/>
						</g>
					</g>
				</g>
			</g>
			<g>
				<g>
					<g>
						<path d="M178.989,273.751l-0.662-0.103c2.16-13.962-0.777-23.842-0.807-23.939l0.64-0.195
							C178.19,249.614,181.172,259.641,178.989,273.751L178.989,273.751z"/>
					</g>
				</g>
				<g>
					<g>
						<g>
							<path fill="#13913E" d="M178.293,276.824c1.176-0.133,4.74-1.217,7.155-2.271c3.092-1.354,3.478-0.701,3.478-0.701
								l0.062,0.013c-0.06,0.778-0.958,1.668-3.032,2.493c-5.385,2.147-8.004,1.82-8.984,1.374
								C176.601,277.374,177.291,276.939,178.293,276.824z"/>
						</g>
						<g>
							<path d="M178.914,278.226c-1.041,0-1.668-0.186-2.012-0.341c-0.235-0.215-0.209-0.397-0.178-0.491
								c0.145-0.427,0.926-0.664,1.551-0.734c1.159-0.133,4.736-1.222,7.106-2.261c1.322-0.578,2.329-0.871,2.992-0.871
								c0.376,0,0.557,0.097,0.64,0.17l0.092,0.021l0.05,0.159c-0.071,0.935-1.156,1.847-3.138,2.637
								C183.164,277.65,180.774,278.226,178.914,278.226L178.914,278.226z M188.373,273.862c-0.423,0-1.264,0.146-2.857,0.844
								c-2.437,1.066-5.998,2.147-7.203,2.285c-0.78,0.089-1.22,0.357-1.272,0.508c-0.005,0.019-0.016,0.05,0.046,0.111
								c0.266,0.11,0.846,0.28,1.827,0.28c1.25,0,3.475-0.291,6.979-1.688c1.748-0.696,2.775-1.489,2.915-2.246l-0.025-0.019
								C188.792,273.949,188.702,273.862,188.373,273.862L188.373,273.862z"/>
						</g>
					</g>
					<g>
						<g>
							<path fill="#FACEAB" d="M181.509,274.004c-3.426,0.963-3.892-0.19-3.931-0.309c0.74-0.762,1.946-1.437,3.891-1.793
								c1.123-0.206,2.189-0.277,3.148-0.237l-0.005,0.005C184.612,271.67,185.115,272.986,181.509,274.004z"/>
						</g>
						<g>
							<path d="M179.212,274.552c-1.456,0-1.749-0.67-1.792-0.805l-0.031-0.097l0.071-0.073c0.872-0.895,2.21-1.515,3.979-1.84
								c1.086-0.198,2.182-0.279,3.185-0.24l0.351,0.014l-0.179,0.204c0.019,0.124,0.021,0.351-0.12,0.631
								c-0.251,0.5-0.996,1.221-3.12,1.818C180.641,274.423,179.853,274.552,179.212,274.552L179.212,274.552z M177.782,273.729
								c0.107,0.16,0.447,0.486,1.43,0.486c0.609,0,1.368-0.125,2.251-0.374c1.984-0.557,2.674-1.191,2.903-1.627
								c0.089-0.168,0.105-0.302,0.103-0.388c-0.942-0.025-1.958,0.056-2.97,0.24C179.856,272.371,178.607,272.928,177.782,273.729
								L177.782,273.729z"/>
						</g>
					</g>
					<g>
						<g>
							<path fill="#60BD68" d="M177.578,273.695c0.039,0.118,0.505,1.271,3.931,0.309c3.606-1.018,3.104-2.334,3.104-2.334
								l0.005-0.005c2.64,0.103,4.458,1.029,4.37,2.199l-0.062-0.013c0,0-0.386-0.652-3.478,0.701
								c-2.415,1.055-5.979,2.139-7.155,2.271c-1.003,0.115-1.693,0.55-1.322,0.907c-0.171-0.079-0.298-0.158-0.375-0.232
								C176.596,277.499,175.931,275.385,177.578,273.695z"/>
						</g>
						<g>
							<path d="M176.902,277.885c-0.181-0.084-0.328-0.174-0.421-0.263l-0.044-0.073c-0.029-0.089-0.676-2.229,1.022-3.972
								l0.193-0.195l0.086,0.261c0.007,0.024,0.202,0.572,1.474,0.572c0.609,0,1.368-0.125,2.251-0.374
								c1.984-0.557,2.674-1.191,2.903-1.627c0.153-0.29,0.091-0.48,0.089-0.488l-0.031-0.091l0.115-0.137l0.084-0.001
								c1.91,0.074,3.46,0.582,4.148,1.352c0.281,0.318,0.41,0.663,0.383,1.028l-0.014,0.191l-0.26-0.056l-0.098-0.075
								c0.01,0.012-0.081-0.075-0.41-0.075c-0.423,0-1.264,0.146-2.857,0.844c-2.437,1.066-5.998,2.147-7.203,2.285
								c-0.78,0.089-1.22,0.357-1.272,0.508c-0.005,0.019-0.016,0.05,0.046,0.111L176.902,277.885L176.902,277.885z
								 M177.547,273.976c-1.204,1.383-0.906,3.011-0.814,3.392c0.167-0.412,0.93-0.638,1.542-0.708
								c1.159-0.133,4.736-1.222,7.106-2.261c1.322-0.578,2.329-0.871,2.992-0.871c0.187,0,0.325,0.023,0.428,0.058
								c-0.041-0.177-0.134-0.349-0.28-0.513c-0.606-0.679-1.987-1.133-3.717-1.23c0,0.129-0.027,0.301-0.129,0.504
								c-0.251,0.5-0.996,1.221-3.12,1.818c-0.914,0.259-1.702,0.388-2.343,0.388C178.187,274.552,177.739,274.22,177.547,273.976
								L177.547,273.976z"/>
						</g>
					</g>
				</g>
			</g>
			<g>
				<g>
					<path fill="#ED1848" d="M164.945,244.916l-6.027,5.366c0,0,3.612,7.203,14.568,6.704c11.051-0.503,13.898-8.884,13.898-8.884
						l-4.688-7.544L164.945,244.916z"/>
				</g>
				<g>
					<path d="M172.413,257.179c0,0,0,0-0.001,0c-10.104,0-13.609-6.754-13.644-6.822l-0.058-0.116l6.195-5.485l17.869-4.389
						l4.794,7.715l-0.026,0.074c-0.029,0.087-3.011,8.497-14.05,9C173.125,257.171,172.765,257.179,172.413,257.179L172.413,257.179
						z M159.128,250.317c0.502,0.871,4.11,6.525,13.283,6.526c0.365-0.012,0.703-0.009,1.067-0.023
						c10.265-0.468,13.405-7.88,13.721-8.699l-4.582-7.37l-17.592,4.318L159.128,250.317L159.128,250.317z"/>
				</g>
			</g>
			<g opacity="0.55">
				<g>
					<g>
						<path fill="#A80841" d="M182.696,240.559l-17.751,4.357l-2.034,1.812c2.295,1.633,8.007,4.781,15.097,2.046
							c0,0,1.674,1.005,2.233,3.239c0.361,1.447-0.653,4.725-7.123,4.983c0.123-0.005,0.243-0.003,0.368-0.01
							c11.051-0.503,13.898-8.884,13.898-8.884L182.696,240.559z"/>
					</g>
				</g>
			</g>
			<g>
				<g>
					<path fill="#F7ACBF" d="M164.611,224.411c0,0-2.456,8.717-1.563,20.563c0,0,2.327,3.849,9.042,3.577
						c8.261-0.337,13.843-5.813,13.843-5.813s-7.101-18.109-15.071-21.01C165.951,219.94,164.611,224.411,164.611,224.411z"/>
				</g>
				<g>
					<path d="M171.419,248.731c0,0,0,0-0.001,0c-6.221-0.001-8.421-3.521-8.512-3.671l-0.024-0.074
						c-0.885-11.74,1.544-20.533,1.568-20.621c0.011-0.035,1.004-3.227,4.245-3.227c0.688,0,1.438,0.146,2.226,0.432
						c7.95,2.894,14.879,20.365,15.17,21.107l0.04,0.103l-0.08,0.077c-0.056,0.057-5.723,5.526-13.952,5.86
						C171.866,248.727,171.64,248.731,171.419,248.731L171.419,248.731z M163.212,244.919c0.235,0.352,2.494,3.477,8.205,3.478
						c0.001,0,0.001,0,0.001,0c0.217,0,0.438-0.006,0.665-0.015c7.574-0.307,12.939-5.027,13.652-5.687
						c-0.598-1.486-7.436-18.083-14.93-20.81c-0.751-0.272-1.461-0.412-2.111-0.412c-2.994,0-3.914,2.955-3.923,2.985
						C164.748,224.543,162.341,233.263,163.212,244.919L163.212,244.919z"/>
				</g>
			</g>
			<g>
				<g>
					<path d="M182.868,244.617c-1.648-7.588-8.442-16.773-8.511-16.866l0.269-0.2c0.068,0.092,6.907,9.338,8.569,16.996
						L182.868,244.617L182.868,244.617z"/>
				</g>
			</g>
			<g>
				<g opacity="0.6">
					<g>
						<path fill="#F489A1" d="M170.863,221.729c-4.912-1.788-6.251,2.683-6.251,2.683s-2.456,8.717-1.563,20.563
							c0,0,2.327,3.849,9.042,3.577c8.261-0.337,13.843-5.813,13.843-5.813S178.833,224.629,170.863,221.729z M170.863,247.543
							c-9.057-0.596-5.135-17.657-5.135-17.657c0.893-2.57,9.49,0.112,13.173,7.711C181.985,243.96,179.347,248.103,170.863,247.543
							z"/>
					</g>
				</g>
			</g>
			<g>
				<g>
					<polygon fill="#FACEAB" points="170.751,221.952 172.649,225.389 166.956,223.796 					"/>
				</g>
				<g>
					<path d="M172.989,225.658l-6.504-1.819l4.335-2.106L172.989,225.658L172.989,225.658z M167.426,223.753l4.884,1.366
						l-1.628-2.947L167.426,223.753L167.426,223.753z"/>
				</g>
			</g>
			<g>
				<g>
					<g>
						<path fill="#FACEAB" d="M188.304,215.69c0.301-0.169,0.74-0.323,1.31-0.287c1.164,0.075,2.57,0.775,2.456-0.041
							c-0.113-0.816-2.604-1.325-2.604-1.325s1.847-0.326,2.893-0.414c1.045-0.089,0.859-0.873-1.311-0.964l-1.43,0.004
							c0,0,2.21-1.145,2.778-1.71c0.566-0.563-0.056-0.972-1.113-0.532c-1.056,0.442-2.282,1.179-2.282,1.179
							s1.333-1.828,1.886-2.519c0.552-0.688-0.436-1.234-1.334-0.256c-0.899,0.978-1.586,2.51-2.109,2.314
							c-0.523-0.193-0.854-1.39-1.573-1.538c-0.719-0.147-0.341,1.722,0.357,3.53c0.244,0.63,0.37,1.169,0.437,1.612
							c0.041,0.035,0.077,0.077,0.105,0.139C187.228,215.883,187.983,215.784,188.304,215.69z"/>
					</g>
					<g>
						<path d="M191.681,215.923c-0.254,0-0.576-0.072-0.947-0.156c-0.358-0.081-0.764-0.172-1.13-0.195
							c-0.454-0.025-0.854,0.063-1.218,0.265c-0.177,0.057-0.321,0.078-0.463,0.078l0,0c-0.395,0-0.942-0.167-1.305-0.96
							c-0.015-0.035-0.034-0.059-0.063-0.083l-0.047-0.041l-0.009-0.063c-0.077-0.511-0.221-1.041-0.427-1.575
							c-0.186-0.479-1.086-2.908-0.625-3.581c0.103-0.151,0.266-0.215,0.459-0.173c0.465,0.096,0.772,0.543,1.044,0.937
							c0.19,0.278,0.371,0.54,0.552,0.607c0.251-0.005,0.66-0.565,1.01-1.071c0.272-0.391,0.581-0.835,0.917-1.2
							c0.468-0.509,0.901-0.584,1.118-0.584c0.284,0,0.514,0.126,0.615,0.336c0.104,0.216,0.051,0.479-0.144,0.724
							c-0.339,0.422-0.978,1.282-1.416,1.878c0.45-0.249,1.059-0.563,1.616-0.798c0.721-0.302,1.376-0.238,1.527,0.129
							c0.049,0.118,0.084,0.362-0.231,0.677c-0.395,0.394-1.518,1.036-2.223,1.422l0.757-0.004c1.285,0.055,2.085,0.36,2.095,0.799
							c0.006,0.272-0.282,0.46-0.77,0.501c-0.596,0.05-1.463,0.18-2.09,0.28c0.784,0.231,1.868,0.66,1.953,1.27
							c0.024,0.177-0.009,0.318-0.097,0.42C192.043,215.869,191.894,215.923,191.681,215.923L191.681,215.923z M189.446,215.23
							c0.059,0,0.118,0.003,0.179,0.006c0.394,0.025,0.813,0.12,1.182,0.203c0.338,0.076,0.658,0.147,0.875,0.147
							c0.148,0,0.194-0.034,0.206-0.048c0.022-0.024,0.027-0.079,0.017-0.152c-0.071-0.51-1.554-0.997-2.472-1.186l0.005-0.329
							c0.019-0.003,1.867-0.328,2.907-0.416c0.345-0.03,0.464-0.135,0.464-0.159c-0.001-0.063-0.333-0.41-1.767-0.47l-1.423,0.004
							l-0.077-0.316c0.021-0.012,2.193-1.139,2.736-1.68c0.15-0.149,0.179-0.263,0.158-0.313c-0.024-0.059-0.143-0.12-0.351-0.12
							c-0.148,0-0.395,0.03-0.738,0.173c-1.032,0.432-2.248,1.16-2.26,1.167l-0.222-0.242c0.014-0.019,1.342-1.839,1.891-2.522
							c0.112-0.14,0.149-0.274,0.104-0.369c-0.043-0.091-0.163-0.146-0.313-0.146c-0.275,0-0.593,0.173-0.871,0.476
							c-0.321,0.349-0.624,0.782-0.89,1.165c-0.536,0.771-0.976,1.351-1.401,1.193c-0.282-0.104-0.491-0.409-0.712-0.731
							c-0.246-0.359-0.501-0.73-0.836-0.799c-0.076-0.004-0.095,0.005-0.115,0.034c-0.187,0.272-0.017,1.511,0.662,3.271
							c0.207,0.536,0.354,1.07,0.437,1.591c0.042,0.044,0.074,0.093,0.101,0.149c0.232,0.509,0.568,0.766,1,0.766l0,0
							c0.109,0,0.222-0.016,0.333-0.05C188.593,215.336,189.004,215.23,189.446,215.23L189.446,215.23z"/>
					</g>
				</g>
			</g>
			<g>
				<g>
					<g>
						<g>
							<g>
								<path fill="#A05E12" d="M148.905,208.718c0,0-4.272-0.062-6.017,4.008c-1.88,4.386,3.436,11.415,6.079,16.455
									c2.641,5.042-0.566,7.938-2.177,6.481c-1.613-1.459-0.071-3.604-1.167-3.149c-1.095,0.454-0.262,8.749,7.038,6.493
									c7.298-2.257,9.652-9.556,7.042-15.462C157.091,217.638,148.905,208.718,148.905,208.718z"/>
							</g>
							<g>
								<path d="M150.315,239.562L150.315,239.562c-3.113,0-4.691-2.366-5.131-4.579c-0.219-1.106-0.163-2.4,0.375-2.624
									c0.304-0.126,0.483-0.049,0.555,0.028c0.137,0.149,0.115,0.407,0.084,0.763c-0.057,0.647-0.142,1.625,0.703,2.389
									c0.693,0.624,1.79,0.292,2.393-0.708c0.819-1.356,0.642-3.438-0.476-5.571c-0.556-1.059-1.223-2.197-1.931-3.401
									c-2.658-4.527-5.671-9.658-4.153-13.197c1.742-4.063,5.98-4.109,6.161-4.109h0.073l0.061,0.054
									c0.083,0.089,8.235,9.008,10.827,14.871c1.379,3.12,1.395,6.616,0.042,9.587c-1.325,2.914-3.878,5.08-7.188,6.104
									C151.86,239.428,151.055,239.562,150.315,239.562L150.315,239.562z M145.866,232.612c-0.024,0.008-0.076,0.012-0.179,0.056
									c-0.24,0.101-0.422,1.003-0.174,2.248c0.201,1.01,1.141,4.311,4.802,4.311c0.706,0,1.479-0.129,2.295-0.381
									c3.218-0.994,5.697-3.098,6.982-5.921c1.313-2.886,1.297-6.28-0.044-9.313c-2.463-5.572-10.023-13.962-10.716-14.725
									c-0.575,0.017-4.233,0.27-5.791,3.905c-1.451,3.382,1.517,8.436,4.134,12.895c0.71,1.208,1.38,2.349,1.938,3.415
									c1.689,3.226,0.888,5.202,0.465,5.901c-0.454,0.753-1.141,1.201-1.837,1.201l0,0c-0.394,0-0.762-0.145-1.065-0.419
									c-0.969-0.875-0.871-1.995-0.813-2.664C145.88,232.93,145.904,232.666,145.866,232.612L145.866,232.612z"/>
							</g>
						</g>
						<g opacity="0.24">
							<g>
								<g>
									<path fill="#A05E12" d="M148.905,208.718c0,0-0.583-0.006-1.404,0.187c-0.105,0.487-0.69,3.992,2.875,8.864
										c0,0-2.343,6.53,5.863,6.697c0,0,4.303,12.705-5.063,14.714c-0.38,0.081-0.742,0.145-1.095,0.205
										c0.753,0.031,1.607-0.079,2.58-0.379c7.298-2.257,9.652-9.556,7.042-15.462
										C157.091,217.638,148.905,208.718,148.905,208.718z"/>
								</g>
							</g>
						</g>
					</g>
					<g>
						<g>
							<g>
								<path d="M148.322,237.095c-0.779,0-1.531-0.289-2.089-0.827c-0.846-0.816-1.114-2.048-0.755-3.471l0.325,0.082
									c-0.329,1.301-0.094,2.419,0.662,3.148c0.686,0.661,1.705,0.897,2.661,0.615c0.518-0.152,1.456-0.581,1.932-1.744
									c0.468-1.142,0.589-3.289-1.486-7.032c-0.37-0.665-0.735-1.317-1.093-1.956c-2.907-5.181-5.203-9.273-4.854-12.403
									c0.409-3.659,4.267-4.329,4.306-4.336l0.054,0.332c-0.149,0.023-3.647,0.637-4.027,4.042
									c-0.337,3.021,1.936,7.072,4.813,12.2c0.358,0.639,0.724,1.292,1.094,1.959c2.141,3.857,1.999,6.112,1.503,7.321
									c-0.392,0.958-1.155,1.648-2.147,1.939C148.923,237.052,148.621,237.095,148.322,237.095L148.322,237.095z"/>
							</g>
						</g>
						<g>
							<g>
								<path d="M149.125,238.396c-0.447,0-0.882-0.076-1.294-0.232c-1.254-0.473-2.1-1.601-2.383-3.173l0.33-0.059
									c0.261,1.451,1.032,2.487,2.171,2.918c1.282,0.485,2.819,0.124,4.22-0.988c2.868-2.275,1.173-6.241-0.352-9.026
									c-0.827-1.507-1.704-3.021-2.553-4.488c-0.573-0.987-1.146-1.977-1.708-2.971c-2-3.536-2.587-6.311-1.746-8.246
									c0.725-1.665,2.241-2.045,2.305-2.061l0.078,0.326c-0.014,0.004-1.425,0.363-2.079,1.874
									c-0.782,1.809-0.183,4.554,1.733,7.942c0.562,0.993,1.134,1.979,1.705,2.967c0.85,1.468,1.729,2.984,2.558,4.495
									c1.583,2.891,3.333,7.018,0.267,9.451C151.324,237.963,150.19,238.396,149.125,238.396L149.125,238.396z"/>
							</g>
						</g>
						<g>
							<g>
								<path d="M151.417,237.816l-0.132-0.309c1.956-0.836,3.136-1.985,3.61-3.514c1.102-3.557-1.964-8.385-4.427-12.266
									c-0.454-0.714-0.886-1.395-1.267-2.027c-1.497-2.49-2.051-4.559-1.646-6.149c0.305-1.201,1.057-1.653,1.089-1.673
									l0.17,0.288c-0.006,0.005-0.672,0.414-0.938,1.482c-0.257,1.031-0.187,2.888,1.612,5.879c0.379,0.631,0.81,1.31,1.263,2.021
									c2.5,3.938,5.611,8.838,4.464,12.545C154.717,235.699,153.439,236.951,151.417,237.816L151.417,237.816z"/>
							</g>
						</g>
					</g>
				</g>
				<g>
					<g>
						<g>
							<g>
								<path fill="#FACEAB" d="M179.249,205.243c-1.829-2.17-3.713,0.659-3.713,0.659l0.953,4.597
									C178.391,211.58,180.614,207.453,179.249,205.243z"/>
							</g>
							<g>
								<path d="M177.137,210.844L177.137,210.844c-0.252,0-0.499-0.066-0.731-0.198l-0.066-0.038l-0.982-4.739l0.039-0.06
									c0.042-0.063,1.05-1.552,2.36-1.552c0.583,0,1.129,0.295,1.62,0.878c0.775,1.252,0.464,2.975-0.182,4.135
									C178.646,210.255,177.877,210.844,177.137,210.844L177.137,210.844z M176.637,210.388c0.743,0.373,1.642-0.16,2.267-1.282
									c0.597-1.074,0.893-2.657,0.204-3.773c-0.41-0.484-0.869-0.739-1.35-0.739c-1.002,0-1.852,1.084-2.042,1.347
									L176.637,210.388L176.637,210.388z"/>
							</g>
						</g>
						<g>
							<g>
								<path d="M176.788,208.052l-0.304-0.142c0.021-0.045,0.535-1.133,2.021-1.506l0.081,0.325
									C177.264,207.062,176.793,208.043,176.788,208.052L176.788,208.052z"/>
							</g>
						</g>
						<g>
							<g>
								<path fill="#FACEAB" d="M178.624,208.693c-1.204,1.264-1.492-1.927-1.84-2.8c-0.389-0.869,0.365-1.274,0.365-1.274
									l-0.018-0.075c-0.971,0.349-1.594,1.358-1.594,1.358l0.953,4.597c1.524,0.848,3.103-1.521,3.208-3.659
									C179.57,207.5,179.23,208.113,178.624,208.693z"/>
							</g>
						</g>
					</g>
					<g>
						<g>
							<g>
								<path fill="#FACEAB" d="M150.872,220.271c-0.615-2.948,2.705-2.856,2.705-2.856l3.028,3.677
									C155.712,224.203,151.487,223.218,150.872,220.271z"/>
							</g>
							<g>
								<path d="M154.176,223.17c-1.392,0-3.08-1.004-3.469-2.865c-0.18-0.86-0.055-1.563,0.37-2.086
									c0.751-0.926,2.186-0.973,2.466-0.973h0.079l0.083,0.061l3.085,3.745l-0.025,0.085
									C156.401,222.409,155.433,223.17,154.176,223.17L154.176,223.17z M153.498,217.583c-0.344,0.009-1.549,0.094-2.161,0.847
									c-0.358,0.441-0.46,1.049-0.302,1.806c0.352,1.688,1.881,2.599,3.141,2.599c1.087,0,1.9-0.62,2.243-1.706L153.498,217.583
									L153.498,217.583z"/>
							</g>
						</g>
						<g>
							<g>
								<path d="M152.348,220.701l-0.229-0.246c1.218-1.137,2.402-0.954,2.452-0.947l-0.055,0.332
									C154.473,219.831,153.438,219.682,152.348,220.701L152.348,220.701z"/>
							</g>
						</g>
						<g>
							<g>
								<path fill="#FACEAB" d="M153.66,222.2c1.786-0.392-0.382-2.807-0.843-3.672c-0.463-0.863-1.21-0.47-1.21-0.47l-0.049-0.06
									c0.822-0.613,2.019-0.585,2.019-0.585l3.028,3.677c-0.703,2.449-3.466,2.352-4.912,0.764
									C152.211,222.242,152.841,222.378,153.66,222.2z"/>
							</g>
						</g>
					</g>
					<g>
						<g>
							<path fill="#FACEAB" d="M175.875,206.244c-3.619-6.383-9.114-7.084-9.114-7.084c-0.557,1.768-1.97,3.951-5.304,5.957
								c-7.203,4.334-10.539,2.364-10.539,2.364s-0.894,13.234,10.691,16.752c0,0,10.095,1.826,15.252-7.346
								C177.757,215.046,178.779,211.366,175.875,206.244z"/>
						</g>
						<g>
							<path d="M163.72,224.549C163.719,224.549,163.719,224.549,163.72,224.549c-1.291,0-2.106-0.145-2.14-0.151
								c-11.598-3.521-10.837-16.793-10.828-16.927l0.018-0.271l0.234,0.137c0.007,0.004,0.746,0.423,2.242,0.423
								c1.594,0,4.297-0.483,8.125-2.785c2.77-1.668,4.53-3.64,5.231-5.865l0.042-0.133l0.139,0.017
								c0.056,0.008,5.62,0.785,9.238,7.169c2.778,4.901,2.073,8.577,0.992,10.799C173.3,223.563,167.091,224.549,163.72,224.549
								L163.72,224.549z M161.658,224.072c0.007,0,0.817,0.142,2.062,0.142c3.298,0,9.373-0.962,12.997-7.409
								c1.041-2.14,1.719-5.702-0.987-10.478c-3.223-5.685-7.991-6.816-8.854-6.978c-0.754,2.247-2.547,4.234-5.333,5.911
								c-3.894,2.344-6.661,2.835-8.297,2.835c-1.108,0-1.823-0.218-2.168-0.356C151.035,209.562,151.205,220.897,161.658,224.072
								C161.658,224.072,161.658,224.072,161.658,224.072L161.658,224.072z"/>
						</g>
					</g>
					<g>
						<g>
							<path d="M166.414,209.675c-0.006-0.026-0.554-2.629,1.502-3.763c2.071-1.146,3.856,1.207,3.874,1.23l-0.269,0.2
								c-0.065-0.087-1.625-2.141-3.442-1.138c-1.84,1.016-1.343,3.374-1.338,3.397L166.414,209.675L166.414,209.675z"/>
						</g>
					</g>
					<g>
						<g>
							<path d="M156.162,215.966c-0.042-0.103-1.001-2.538,0.658-3.952c1.663-1.416,4.163,0.25,4.268,0.321l-0.188,0.277
								c-0.024-0.016-2.396-1.592-3.863-0.343c-1.478,1.259-0.574,3.547-0.564,3.569L156.162,215.966L156.162,215.966z"/>
						</g>
					</g>
					<g>
						<g>
							<g>
								
									<ellipse transform="matrix(0.909 -0.4168 0.4168 0.909 -72.3237 90.0095)" cx="169.973" cy="210.636" rx="0.887" ry="1.199"/>
							</g>
						</g>
						<g>
							<g>
								
									<ellipse transform="matrix(0.8627 -0.5057 0.5057 0.8627 -87.3951 110.5072)" cx="159.816" cy="216.203" rx="0.886" ry="1.197"/>
							</g>
						</g>
						<g>
							<g>
								
									<ellipse transform="matrix(0.9311 -0.3649 0.3649 0.9311 -67.8459 73.0767)" cx="159.457" cy="216.076" rx="0.375" ry="0.507"/>
							</g>
						</g>
						<g>
							<g>
								
									<ellipse transform="matrix(0.9303 -0.3667 0.3667 0.9303 -65.3834 76.8373)" cx="169.56" cy="210.521" rx="0.376" ry="0.507"/>
							</g>
						</g>
						<g>
							<g>
								<g>
									<path d="M158.985,215.857c-0.064,0.034-0.318,0.128-0.86-0.182l0.07-0.123c0.519,0.294,0.712,0.19,0.725,0.178l0.078,0.118
										C158.996,215.851,158.992,215.854,158.985,215.857L158.985,215.857z"/>
								</g>
							</g>
						</g>
						<g>
							<g>
								<g>
									<path d="M158.892,216.271c-0.113,0.062-0.348,0.124-0.794,0.029l0.03-0.14c0.583,0.125,0.744-0.047,0.745-0.048l0.11,0.088
										C158.976,216.209,158.95,216.239,158.892,216.271L158.892,216.271z"/>
								</g>
							</g>
						</g>
						<g>
							<g>
								<g>
									<path d="M170.045,209.756c-0.006,0.003-0.012,0.007-0.014,0.007l-0.055-0.131c0.01-0.009,0.21-0.107,0.254-0.703
										l0.141,0.011C170.327,209.561,170.109,209.722,170.045,209.756L170.045,209.756z"/>
								</g>
							</g>
						</g>
						<g>
							<g>
								<g>
									<path d="M170.44,209.908c-0.058,0.031-0.098,0.036-0.108,0.036l-0.012-0.142c0.001,0,0.232-0.038,0.453-0.594l0.132,0.054
										C170.736,209.687,170.553,209.848,170.44,209.908L170.44,209.908z"/>
								</g>
							</g>
						</g>
					</g>
					<g opacity="0.43">
						<g>
							<g>
								<path fill="#FACEAB" d="M166.761,199.16c-0.557,1.768-1.97,3.951-5.304,5.957c-7.203,4.334-10.539,2.364-10.539,2.364
									s-0.894,13.234,10.691,16.752c0,0,10.095,1.826,15.252-7.346c0.896-1.842,1.917-5.521-0.986-10.644
									C172.256,199.861,166.761,199.16,166.761,199.16z M167.826,223.316c-5.625,1.854-15.214-1.863-15.29-14.531
									c0,0,9.104,0.307,14.841-7.127c0,0,5.4,1.011,7.745,7.898C177.467,216.442,173.449,221.463,167.826,223.316z"/>
							</g>
						</g>
					</g>
					<g>
						<g>
							
								<ellipse transform="matrix(0.8809 -0.4733 0.4733 0.8809 -85.2655 101.7331)" fill="#F5A9A5" cx="159.489" cy="220.271" rx="1.065" ry="0.671"/>
						</g>
					</g>
					<g>
						<g>
							
								<ellipse transform="matrix(0.881 -0.4731 0.4731 0.881 -79.7974 107.4534)" fill="#F5A9A5" cx="173.721" cy="212.366" rx="1.064" ry="0.671"/>
						</g>
					</g>
				</g>
				<g>
					<g>
						<path fill="#A05E12" d="M152.979,217.507c0,0-10.031-7.524-2.744-17.65c5.5-7.643,12.707-5.851,12.707-5.851
							s10.973-4.493,14.564,10.362c0,0-1.305,0.357-1.97,1.534c0,0-4.917-0.273-10.166-3.82c0,0-3.416,6.479-13.521,6.715
							C151.85,208.797,150.569,212.173,152.979,217.507z"/>
					</g>
					<g>
						<path d="M152.879,217.642c-0.103-0.077-10.079-7.741-2.78-17.883c3.821-5.311,8.487-6.104,10.929-6.104
							c1.021,0,1.709,0.134,1.9,0.177c0.291-0.112,1.751-0.632,3.708-0.632c3.805,0,8.809,1.932,11.032,11.129l0.039,0.157
							l-0.157,0.043c-0.013,0.004-1.247,0.356-1.867,1.455l-0.052,0.09l-0.104-0.005c-0.049-0.003-4.93-0.312-10.102-3.75
							c-0.617,1.004-4.345,6.385-13.453,6.643c-0.183,0.606-0.958,3.789,1.16,8.478L152.879,217.642L152.879,217.642z
							 M161.027,193.991c-2.377,0-6.923,0.774-10.658,5.964c-6.112,8.493,0.218,15.203,2.174,16.964
							c-2.028-4.955-0.902-8.046-0.851-8.182l0.041-0.104l0.112-0.004c9.881-0.229,13.343-6.562,13.377-6.626l0.087-0.165
							l0.155,0.105c4.737,3.202,9.256,3.719,9.98,3.782c0.567-0.924,1.494-1.336,1.861-1.469
							c-2.189-8.855-7.005-10.722-10.67-10.722c-2.074,0-3.616,0.62-3.63,0.627l-0.051,0.02l-0.053-0.013
							C162.894,194.168,162.169,193.991,161.027,193.991L161.027,193.991z"/>
					</g>
				</g>
				<g>
					<g>
						<path d="M163.591,197.396l-0.147-0.241c-1.118-1.82-3.635-0.667-3.661-0.655l-0.142-0.304
							c0.027-0.014,2.618-1.199,3.944,0.571c0.377-0.517,1.504-1.772,3.56-1.8l0.004,0.335c-2.347,0.03-3.408,1.83-3.418,1.849
							L163.591,197.396L163.591,197.396z"/>
					</g>
				</g>
				<g opacity="0.24">
					<g>
						<g>
							<path fill="#A05E12" d="M167.969,193.457c0.011,0.004,0.021,0.006,0.031,0.007c5.579,1.003,6.453,5.974,6.75,7.825
								c0.296,1.85-1.934,1.219-1.934,1.219c-5.263-0.672-7.896-2.096-7.896-2.096c-1.827,4.686-9.502,7.435-12.466,7.414
								c-2.964-0.02-3.396-2.482-3.396-2.482c-1.178,2.385,1.64,4.143,1.64,4.143c-0.448,1.572,0.167,4.102,0.167,4.102
								c-0.132,1.01-0.855,0.509-1.32,0.065c1.543,2.434,3.434,3.854,3.434,3.854c-2.41-5.334-1.129-8.71-1.129-8.71
								c10.104-0.235,13.521-6.715,13.521-6.715c5.248,3.547,10.166,3.82,10.166,3.82c0.665-1.177,1.97-1.534,1.97-1.534
								C175.537,196.224,171.351,193.9,167.969,193.457z"/>
						</g>
					</g>
				</g>
				<g>
					<g>
						<path d="M152.751,208.031c-0.93,0-1.75-0.164-2.405-0.502c-0.881-0.458-1.384-1.208-1.454-2.174l0.334-0.025
							c0.063,0.856,0.49,1.495,1.274,1.9c1.993,1.033,5.815,0.278,9.301-1.83c5.25-3.177,4.297-6.996,4.287-7.034l0.308-0.128
							c0.027,0.049,2.832,4.865,10.195,5.28l-0.02,0.337c-6.015-0.341-9.069-3.563-10.079-4.888
							c0.042,1.304-0.391,4.222-4.518,6.719C157.459,207.209,154.833,208.031,152.751,208.031L152.751,208.031z"/>
					</g>
				</g>
				<g>
					<g>
						<path d="M174.93,203.023c-4.368-0.564-9.19-3.717-9.903-5.398l0.309-0.131c0.592,1.395,5.173,4.621,9.638,5.196
							L174.93,203.023L174.93,203.023z"/>
					</g>
				</g>
				<g>
					<g>
						<path d="M174.682,201.754c-0.016-0.052-1.651-5.297-7.185-5.564c-1.21-0.063-1.695,0.14-1.887,0.315l-0.227-0.246
							c0.348-0.321,1.065-0.455,2.13-0.404c5.774,0.279,7.473,5.747,7.489,5.804L174.682,201.754L174.682,201.754z"/>
					</g>
				</g>
				<g>
					<g>
						<path d="M173.783,201.223c-2.834-3.042-6.743-3.7-6.783-3.706l0.054-0.331c0.04,0.007,4.058,0.681,6.974,3.809
							L173.783,201.223L173.783,201.223z"/>
					</g>
				</g>
				<g>
					<g>
						<path d="M153.339,207.915l-0.064-0.329c8.173-1.601,8.759-9.707,8.764-9.789l0.334,0.021
							C162.368,197.902,161.763,206.266,153.339,207.915L153.339,207.915z"/>
					</g>
				</g>
				<g>
					<g>
						<path d="M150.813,207.149c-0.372,0-0.751-0.039-1.14-0.12l0.068-0.328c6.16,1.301,10.427-9.31,10.469-9.416l0.312,0.122
							C160.355,197.829,156.598,207.149,150.813,207.149L150.813,207.149z"/>
					</g>
				</g>
			</g>
			<g>
				<g>
					<g>
						<path fill="#F7ACBF" d="M169.987,227.892c-4.582-0.059-5.579-2.93-4.149-3.541c1.43-0.61,4.359,0.066,4.359,0.066
							s7.148-0.034,12.076-5.914c0,0,2.143-2.538,2.55-3.671c0.405-1.132,2.979-1.002,2.936,0.901
							C187.715,217.636,181.825,228.042,169.987,227.892z"/>
					</g>
					<g>
						<path d="M170.242,228.061l-0.257-0.001c-3.027-0.039-4.657-1.326-4.891-2.508c-0.119-0.605,0.141-1.125,0.679-1.354
							c0.417-0.18,0.989-0.271,1.7-0.271c1.337,0,2.705,0.313,2.762,0.328c0.032-0.006,7.092-0.109,11.91-5.859
							c0.021-0.026,2.128-2.529,2.52-3.619c0.182-0.506,0.746-0.833,1.436-0.833c0.534,0,1.032,0.198,1.366,0.541
							c0.312,0.318,0.471,0.752,0.46,1.252C187.878,217.818,181.802,228.061,170.242,228.061L170.242,228.061z M167.473,224.263
							c-0.666,0-1.193,0.081-1.569,0.241c-0.39,0.167-0.569,0.534-0.481,0.983c0.208,1.053,1.726,2.2,4.567,2.237h0.252
							c11.343,0,17.303-9.969,17.35-11.995c0.009-0.414-0.113-0.755-0.364-1.012c-0.272-0.278-0.683-0.438-1.127-0.438
							c-0.548,0-0.988,0.238-1.121,0.609c-0.411,1.148-2.49,3.618-2.578,3.723c-4.92,5.872-12.131,5.973-12.204,5.974
							C170.146,224.577,168.771,224.263,167.473,224.263L167.473,224.263z"/>
					</g>
				</g>
				<g>
					<g opacity="0.6">
						<g>
							<path fill="#F489A1" d="M185.889,214.126c0.308-0.009,1.584,0.039,0.994,1.567c-0.67,1.733-6.866,10.17-14.234,10.897
								c-7.369,0.727-6.243-2.502-2.452-2.174c0,0-2.929-0.677-4.359-0.066c-1.43,0.611-0.433,3.482,4.149,3.541
								c11.837,0.15,17.728-10.256,17.771-12.158C187.787,214.519,186.75,214.029,185.889,214.126z"/>
						</g>
					</g>
				</g>
			</g>
		</g>
		<g>
			<g>
				<path d="M167.142,220.662c-1.679,0-2.756-1.113-2.771-1.129l0.223-0.306c0.085,0.09,2.115,2.171,5,0.185
					c2.434-1.676,1.688-4.543,1.656-4.665l0.32-0.127c0.01,0.033,0.87,3.302-1.808,5.146
					C168.793,220.432,167.905,220.662,167.142,220.662L167.142,220.662z"/>
			</g>
		</g>
	</g>
	<g>
		<g>
			<g>
				<g>
					<path fill="#0A0A0A" d="M271.952,185.227c0.066-0.004,0.124-0.043,0.154-0.099c0.046-0.09,0.12-0.682,0.019-0.723
						c-1.492-0.621-5.527-1.983-5.75-3.063c-0.282-1.359,0.65-5.57,0.661-5.614c0.02-0.097-0.048-0.191-0.16-0.21
						c-0.107-0.017-0.213,0.045-0.234,0.142c-0.04,0.175-0.957,4.32-0.666,5.745c0.304,1.456,5.027,3.051,5.598,3.289
						C271.608,184.707,271.915,185.234,271.952,185.227L271.952,185.227z"/>
				</g>
			</g>
			<g>
				<g>
					<path fill="#0A0A0A" d="M265.974,186.093c0.022-0.004,0.049-0.011,0.071-0.021c0.098-0.051,0.131-0.16,0.075-0.244
						c-2.126-3.283-3.815-8.338-3.834-8.39c-0.029-0.095-0.145-0.147-0.249-0.121c-0.108,0.027-0.171,0.128-0.136,0.222
						c0.016,0.052,1.72,5.142,3.865,8.465C265.813,186.071,265.895,186.103,265.974,186.093L265.974,186.093z"/>
				</g>
			</g>
			<g>
				<g>
					<path fill="#FFA4A6" d="M268.271,170.927c3.13-5.353-1.095-7.671-1.095-7.671s1.015-2.594,2.774-2.208
						c1.759,0.377,1.67,1.955,2.229,2.911c0.561,0.951,2.648,0.384,3.227,3.631c0.61,3.413-3.396,2.166-3.352,4.569
						c0.04,2.4-1.462,4.559-4.923,3.682c-1.271-0.325-2.169,2.155-5.322,1.564c-1.541-0.292-1.898-2.112-1.898-2.112
						s-4.084,0.387-2.577-3.832C259.142,173.976,265.146,176.281,268.271,170.927z"/>
				</g>
				<g>
					<path fill="#0A0A0A" d="M261.789,177.491c-1.425-0.268-1.869-1.739-1.96-2.104c-0.045,0.004-0.104,0.005-0.176,0.005
						c-0.475,0-1.651-0.085-2.3-0.87c-0.566-0.684-0.605-1.723-0.117-3.088c0.012-0.033,0.044-0.056,0.083-0.061
						c0.039-0.005,0.078,0.011,0.099,0.041c0.956,1.331,3.18,2.678,5.578,2.678c1.511,0,3.639-0.556,5.188-3.204
						c3.044-5.214-0.892-7.463-1.06-7.555c-0.042-0.022-0.058-0.066-0.043-0.106c0.036-0.094,0.921-2.309,2.517-2.309
						c0.125,0,0.253,0.016,0.377,0.044c1.329,0.287,1.652,1.237,1.937,2.074c0.107,0.322,0.208,0.626,0.359,0.879
						c0.166,0.287,0.483,0.424,0.89,0.597c0.823,0.354,1.945,0.835,2.345,3.063c0.35,1.952-0.795,2.448-1.806,2.886
						c-0.838,0.361-1.563,0.677-1.545,1.696c0.021,1.32-0.399,2.437-1.188,3.144c-0.907,0.817-2.24,1.036-3.861,0.624
						c-0.445-0.113-0.889,0.189-1.413,0.558c-0.699,0.492-1.567,1.104-2.94,1.104C262.444,177.585,262.119,177.553,261.789,177.491z
						 M267.162,175.751c1.542,0.393,2.807,0.192,3.661-0.576c0.751-0.674,1.151-1.747,1.129-3.015
						c-0.019-1.135,0.832-1.503,1.658-1.864c0.994-0.431,2.022-0.875,1.696-2.694c-0.378-2.136-1.409-2.577-2.234-2.929
						c-0.422-0.181-0.784-0.338-0.984-0.676c-0.155-0.269-0.261-0.58-0.373-0.909c-0.279-0.831-0.568-1.694-1.788-1.958
						c-0.107-0.023-0.221-0.036-0.329-0.036c-1.309,0-2.143,1.765-2.3,2.125c0.54,0.338,3.976,2.765,1.064,7.747
						c-1.593,2.729-3.795,3.303-5.366,3.303c-2.375,0-4.585-1.285-5.629-2.604c-0.402,1.22-0.352,2.146,0.15,2.749
						c0.594,0.718,1.689,0.798,2.136,0.798c0.151,0,0.244-0.009,0.246-0.009c0.052-0.002,0.103,0.028,0.109,0.074
						c0.005,0.018,0.366,1.766,1.819,2.039c0.323,0.059,0.63,0.09,0.924,0.09c1.303,0,2.14-0.589,2.813-1.063
						c0.475-0.335,0.885-0.623,1.335-0.623C266.988,175.72,267.074,175.731,267.162,175.751z"/>
				</g>
			</g>
			<g opacity="0.5">
				<g>
					<path fill="#FFA4A6" d="M267.305,163.194c0,0,1.515-0.232,1.829,1.263c0,0,1.933,0.932,0.851,2.806c0,0,0.835,1.227-0.632,2.11
						c0,0,1.04,2.713-2.854,4.011c0,0-2.734,2.371-5.926,0.738c0,0-3.627-0.545-3.225-2.513c0,0,7.056,5.395,10.463-1.84
						C269.466,166.243,267.305,163.194,267.305,163.194z"/>
				</g>
			</g>
			<g>
				<g>
					<g>
						<path fill="#FFDCB3" d="M257.351,163.756c-1.1,0.036-1.586-0.871-1.799-1.683c0.439,0.022,2.065,0.072,3.833-0.196
							C259.262,162.663,258.821,163.708,257.351,163.756z"/>
					</g>
					<g>
						<path fill="#0A0A0A" d="M255.454,162.095c-0.005-0.028,0-0.057,0.023-0.079c0.019-0.022,0.049-0.034,0.082-0.032
							c0.141,0.006,0.433,0.019,0.83,0.019c0.718,0,1.815-0.04,2.975-0.211c0.035-0.004,0.066,0.001,0.089,0.023
							c0.021,0.019,0.034,0.049,0.028,0.075c-0.188,1.222-0.942,1.917-2.125,1.955l-0.069,0.002l0,0
							C256.39,163.847,255.756,163.241,255.454,162.095z M256.39,162.181c-0.3,0-0.546-0.005-0.707-0.013
							c0.209,0.71,0.656,1.499,1.604,1.499l0.059-0.003c1.308-0.042,1.766-0.908,1.918-1.676
							C258.14,162.147,257.086,162.181,256.39,162.181z"/>
					</g>
				</g>
				<g>
					<g>
						<path fill="#B8A3D3" d="M255.435,162.069c0,0,0.047,0,0.117,0.004c0.213,0.812,0.699,1.718,1.799,1.683
							c1.471-0.048,1.911-1.093,2.034-1.879c1.726-0.259,3.587-0.822,4.604-2.016c0,0,1.065,2.876,3.188,3.396
							c0,0,4.225,2.318,1.095,7.671c-3.125,5.354-9.13,3.049-10.938,0.533C257.334,171.46,254.333,168.404,255.435,162.069z"/>
					</g>
					<g>
						<path fill="#0A0A0A" d="M257.257,171.52c-0.031-0.03-3.02-3.162-1.922-9.467c0.009-0.044,0.052-0.08,0.106-0.074l0.118,0.006
							c0.043,0.004,0.083,0.029,0.091,0.068c0.193,0.737,0.636,1.614,1.637,1.614l0.059-0.003c1.378-0.042,1.813-1.001,1.938-1.798
							c0.005-0.038,0.04-0.068,0.081-0.074c2.172-0.33,3.699-0.996,4.545-1.987c0.021-0.022,0.058-0.038,0.096-0.033
							c0.035,0.005,0.065,0.029,0.077,0.06c0.011,0.029,1.076,2.838,3.12,3.338c0.011,0,0.018,0.005,0.027,0.011
							c0.041,0.021,4.268,2.423,1.133,7.787c-1.593,2.729-3.795,3.303-5.366,3.303h-0.002
							C260.525,174.271,258.233,172.878,257.257,171.52z M263.953,160.043c-0.884,0.946-2.388,1.586-4.48,1.912
							c-0.204,1.179-0.956,1.851-2.116,1.889l-0.069,0.002c-0.853,0-1.468-0.547-1.783-1.582c-0.993,6.093,1.875,9.107,1.914,9.148
							c0.956,1.331,3.18,2.678,5.578,2.678c1.511,0,3.639-0.556,5.188-3.204c2.994-5.125-0.76-7.386-1.049-7.548
							C265.258,162.871,264.213,160.657,263.953,160.043z"/>
					</g>
				</g>
				<g>
					<defs>
						<path id="SVGID_1_" d="M255.551,162.182c0,0,0.042,0.004,0.114,0.008c0.209,0.795,0.684,1.685,1.768,1.649
							c1.444-0.05,1.873-1.071,1.993-1.841c1.699-0.258,3.524-0.813,4.526-1.983c0,0,1.048,2.825,3.133,3.332
							c0,0,4.149,2.275,1.075,7.531c-3.07,5.255-8.972,2.992-10.748,0.523C257.412,171.401,254.467,168.401,255.551,162.182z"/>
					</defs>
					<clipPath id="SVGID_2_">
						<use xlink:href="#SVGID_1_"  overflow="visible"/>
					</clipPath>
					<g clip-path="url(#SVGID_2_)">
						<g>
							<g>
								<path fill="#D0BDE1" d="M263.535,162.039c0.029,0.195,0.234,0.331,0.455,0.304c0.223-0.028,0.376-0.208,0.344-0.403
									c-0.03-0.198-0.235-0.332-0.457-0.305C263.657,161.664,263.503,161.842,263.535,162.039z"/>
							</g>
						</g>
						<g>
							<g>
								<path fill="#D0BDE1" d="M265.102,164.101c0.031,0.195,0.234,0.331,0.456,0.304c0.223-0.028,0.374-0.208,0.342-0.406
									c-0.03-0.193-0.232-0.331-0.455-0.301C265.225,163.723,265.073,163.905,265.102,164.101z"/>
							</g>
						</g>
						<g>
							<g>
								<path fill="#D0BDE1" d="M267.586,165.461c0.033,0.197,0.234,0.333,0.455,0.304c0.222-0.026,0.376-0.207,0.344-0.405
									c-0.032-0.192-0.234-0.329-0.456-0.304C267.708,165.087,267.554,165.267,267.586,165.461z"/>
							</g>
						</g>
						<g>
							<g>
								<path fill="#D0BDE1" d="M265.093,166.314c0.032,0.195,0.24,0.329,0.458,0.304c0.223-0.029,0.374-0.209,0.346-0.403
									c-0.034-0.197-0.236-0.332-0.457-0.306C265.22,165.936,265.065,166.119,265.093,166.314z"/>
							</g>
						</g>
						<g>
							<g>
								<path fill="#D0BDE1" d="M262.795,168.677c0.03,0.192,0.234,0.33,0.455,0.302c0.221-0.027,0.374-0.206,0.343-0.406
									c-0.028-0.194-0.233-0.33-0.455-0.304C262.917,168.299,262.764,168.479,262.795,168.677z"/>
							</g>
						</g>
						<g>
							<g>
								<path fill="#D0BDE1" d="M266.799,170.774c0.026,0.194,0.233,0.332,0.454,0.302c0.221-0.027,0.376-0.208,0.344-0.403
									c-0.03-0.196-0.234-0.332-0.457-0.304C266.92,170.396,266.767,170.577,266.799,170.774z"/>
							</g>
						</g>
						<g>
							<g>
								<path fill="#D0BDE1" d="M263.862,171.068c0.028,0.199,0.234,0.333,0.458,0.307c0.218-0.029,0.372-0.208,0.34-0.405
									c-0.028-0.196-0.232-0.331-0.454-0.303C263.986,170.694,263.831,170.873,263.862,171.068z"/>
							</g>
						</g>
						<g>
							<g>
								<path fill="#D0BDE1" d="M265.374,172.89c0.032,0.197,0.234,0.331,0.457,0.305c0.22-0.029,0.374-0.208,0.345-0.406
									c-0.033-0.195-0.238-0.329-0.458-0.301C265.495,172.514,265.342,172.695,265.374,172.89z"/>
							</g>
						</g>
						<g>
							<g>
								<path fill="#D0BDE1" d="M260.847,170.543c0.03,0.196,0.236,0.33,0.457,0.305c0.221-0.029,0.375-0.21,0.343-0.406
									c-0.03-0.195-0.232-0.333-0.454-0.304C260.972,170.166,260.814,170.347,260.847,170.543z"/>
							</g>
						</g>
						<g>
							<g>
								<path fill="#D0BDE1" d="M262.375,172.947c0.032,0.197,0.236,0.333,0.457,0.306c0.221-0.03,0.376-0.209,0.346-0.405
									c-0.034-0.195-0.238-0.332-0.46-0.304C262.498,172.57,262.346,172.751,262.375,172.947z"/>
							</g>
						</g>
						<g>
							<g>
								<path fill="#D0BDE1" d="M259.808,172.341c0.032,0.196,0.234,0.332,0.458,0.305c0.219-0.028,0.372-0.208,0.34-0.404
									c-0.029-0.194-0.23-0.331-0.454-0.303C259.929,171.963,259.775,172.146,259.808,172.341z"/>
							</g>
						</g>
						<g>
							<g>
								<path fill="#D0BDE1" d="M258.548,169.384c0.032,0.195,0.237,0.33,0.457,0.304c0.22-0.029,0.373-0.208,0.344-0.405
									c-0.031-0.195-0.237-0.331-0.457-0.304C258.673,169.007,258.519,169.187,258.548,169.384z"/>
							</g>
						</g>
						<g>
							<g>
								<path fill="#D0BDE1" d="M260.127,167.29c0.031,0.196,0.237,0.333,0.458,0.307c0.219-0.029,0.376-0.21,0.342-0.406
									c-0.031-0.195-0.236-0.332-0.455-0.304C260.253,166.915,260.097,167.095,260.127,167.29z"/>
							</g>
						</g>
						<g>
							<g>
								<path fill="#D0BDE1" d="M257.737,166.031c0.032,0.197,0.234,0.331,0.455,0.305c0.222-0.027,0.377-0.208,0.343-0.405
									c-0.028-0.195-0.233-0.33-0.454-0.304C257.858,165.658,257.707,165.834,257.737,166.031z"/>
							</g>
						</g>
						<g>
							<g>
								<path fill="#D0BDE1" d="M259.951,162.146c0.031,0.197,0.232,0.332,0.456,0.304c0.22-0.028,0.373-0.208,0.342-0.403
									c-0.031-0.198-0.234-0.334-0.454-0.304C260.071,161.771,259.92,161.951,259.951,162.146z"/>
							</g>
						</g>
						<g>
							<g>
								<path fill="#D0BDE1" d="M255.898,164.884c0.031,0.195,0.235,0.332,0.455,0.304c0.221-0.028,0.377-0.208,0.345-0.403
									c-0.03-0.196-0.235-0.333-0.454-0.304C256.023,164.508,255.866,164.688,255.898,164.884z"/>
							</g>
						</g>
						<g>
							<g>
								<path fill="#D0BDE1" d="M256.027,168.117c0.03,0.197,0.238,0.332,0.457,0.304c0.22-0.028,0.376-0.205,0.343-0.403
									c-0.03-0.196-0.235-0.332-0.453-0.304C256.152,167.74,255.999,167.922,256.027,168.117z"/>
							</g>
						</g>
						<g>
							<g>
								<path fill="#D0BDE1" d="M256.049,170.371c0.029,0.198,0.234,0.332,0.452,0.304c0.223-0.025,0.377-0.208,0.346-0.403
									s-0.235-0.333-0.457-0.302C256.17,169.996,256.017,170.176,256.049,170.371z"/>
							</g>
						</g>
						<g>
							<g>
								<path fill="#D0BDE1" d="M254.852,166.459c0.026,0.197,0.232,0.332,0.454,0.304c0.22-0.026,0.374-0.208,0.342-0.406
									c-0.03-0.193-0.232-0.332-0.455-0.301C254.97,166.081,254.818,166.262,254.852,166.459z"/>
							</g>
						</g>
						<g>
							<g>
								<path fill="#D0BDE1" d="M266.737,163.279c0.032,0.197,0.234,0.335,0.457,0.306c0.22-0.029,0.373-0.209,0.344-0.403
									c-0.031-0.196-0.233-0.333-0.456-0.304C266.861,162.904,266.706,163.084,266.737,163.279z"/>
							</g>
						</g>
						<g>
							<g>
								<path fill="#D0BDE1" d="M257.812,171.484c0.031,0.195,0.235,0.332,0.456,0.301c0.222-0.026,0.375-0.207,0.342-0.401
									c-0.029-0.198-0.231-0.333-0.455-0.306C257.936,171.107,257.781,171.289,257.812,171.484z"/>
							</g>
						</g>
						<g>
							<g>
								<path fill="#D0BDE1" d="M263.54,174.178c0.032,0.197,0.233,0.333,0.454,0.304c0.223-0.025,0.376-0.207,0.348-0.401
									c-0.034-0.198-0.236-0.333-0.459-0.307C263.663,173.803,263.51,173.984,263.54,174.178z"/>
							</g>
						</g>
						<g>
							<g>
								<path fill="#D0BDE1" d="M260.385,173.873c0.027,0.195,0.232,0.331,0.454,0.304c0.219-0.028,0.374-0.208,0.343-0.403
									c-0.033-0.198-0.235-0.333-0.456-0.304C260.506,173.495,260.353,173.677,260.385,173.873z"/>
							</g>
						</g>
						<g>
							<g>
								<path fill="#D0BDE1" d="M262.664,163.839c0.032,0.195,0.237,0.333,0.457,0.306c0.22-0.029,0.374-0.209,0.342-0.406
									c-0.03-0.194-0.234-0.331-0.454-0.302C262.786,163.463,262.634,163.644,262.664,163.839z"/>
							</g>
						</g>
						<g>
							<g>
								<path fill="#D0BDE1" d="M262.584,166.063c0.032,0.194,0.234,0.33,0.457,0.302c0.22-0.028,0.374-0.207,0.341-0.403
									c-0.029-0.197-0.233-0.333-0.455-0.304C262.707,165.685,262.554,165.864,262.584,166.063z"/>
							</g>
						</g>
						<g>
							<g>
								<path fill="#D0BDE1" d="M268.325,167.716c0.033,0.195,0.235,0.332,0.458,0.304c0.218-0.028,0.373-0.208,0.341-0.403
									c-0.028-0.195-0.233-0.333-0.454-0.306C268.447,167.338,268.294,167.521,268.325,167.716z"/>
							</g>
						</g>
						<g>
							<g>
								<path fill="#D0BDE1" d="M265.897,168.652c0.032,0.193,0.238,0.33,0.457,0.303c0.222-0.028,0.378-0.208,0.343-0.404
									c-0.027-0.195-0.234-0.332-0.452-0.304C266.022,168.271,265.865,168.456,265.897,168.652z"/>
							</g>
						</g>
					</g>
				</g>
			</g>
			<g>
				<g>
					<path fill="#0A0A0A" d="M253.819,168.553c0.362-0.047,0.711-0.137,1.035-0.284c2.166-0.997,4.281-3.195,4.372-3.289
						c0.072-0.073,0.062-0.188-0.023-0.251c-0.085-0.064-0.213-0.055-0.285,0.021c-0.02,0.023-2.158,2.239-4.249,3.2
						c-2.03,0.936-5.403-0.781-5.438-0.799c-0.096-0.049-0.222-0.022-0.276,0.063c-0.056,0.086-0.021,0.195,0.072,0.246
						C249.152,167.524,251.695,168.816,253.819,168.553L253.819,168.553z"/>
				</g>
			</g>
			<g>
				<g>
					<path fill="#0A0A0A" d="M250.845,165.072c0.088-0.009,0.173-0.025,0.258-0.045c2.299-0.515,4.512-2.74,4.603-2.835
						c0.073-0.075,0.065-0.188-0.018-0.251c-0.085-0.063-0.213-0.058-0.287,0.015c-0.021,0.023-2.225,2.239-4.395,2.726
						c-2.156,0.481-6.712-2.071-6.756-2.096c-0.093-0.054-0.22-0.03-0.278,0.053c-0.062,0.083-0.034,0.195,0.061,0.248
						C244.22,162.991,248.46,165.37,250.845,165.072L250.845,165.072z"/>
				</g>
			</g>
			<g>
				<g>
					<path fill="#FFA4A6" d="M262.458,162.217c-0.663-0.784-4.079,1.589-4.079,1.589s0.853,1.521,1.856,1.757
						C260.235,165.563,263.148,163.036,262.458,162.217z"/>
				</g>
				<g>
					<path fill="#0A0A0A" d="M260.211,165.65c-1.037-0.244-1.887-1.74-1.924-1.803c-0.02-0.038-0.011-0.082,0.028-0.108
						c0.104-0.074,2.558-1.771,3.715-1.771c0.227,0,0.402,0.066,0.509,0.197c0.722,0.855-1.929,3.196-2.231,3.462
						c-0.021,0.016-0.045,0.025-0.072,0.025C260.229,165.652,260.218,165.652,260.211,165.65z M258.507,163.833
						c0.171,0.28,0.89,1.398,1.7,1.629c0.819-0.717,2.685-2.583,2.171-3.191c-0.072-0.082-0.186-0.124-0.348-0.124
						C261.042,162.147,258.912,163.559,258.507,163.833z"/>
				</g>
			</g>
			<g>
				<g>
					<g>
						<path fill="#D75C52" d="M260.469,137.462c0,0,0.521-2.503,4.794-2.133c4.271,0.373,8.325,3.935,8.345,8.048
							c0.004,1.324,1.255,0.63,4.002,2.092c2.744,1.464,2.631,4.678-0.2,6.041c-0.756,0.364,1.209,2.051-0.436,3.036
							c-1.643,0.987-2.945-0.154-3.261,0.857c-0.318,1.001-0.294,1.735-2.201,1.117c-1.075-0.351-1.56,2.388-4.438,0.521
							L260.469,137.462z"/>
					</g>
					<g>
						<path fill="#0A0A0A" d="M267.012,157.112c-0.016-0.01-0.028-0.028-0.034-0.046l-6.603-19.579
							c-0.005-0.015-0.011-0.028-0.005-0.043c0.005-0.023,0.507-2.24,4.06-2.24c0.268,0,0.552,0.012,0.841,0.037
							c4.557,0.396,8.42,4.123,8.437,8.137c0.003,0.685,0.321,0.766,1.181,0.981c0.661,0.167,1.57,0.395,2.772,1.035
							c1.309,0.697,2.071,1.859,2.042,3.111c-0.032,1.271-0.872,2.424-2.243,3.088c-0.219,0.104-0.128,0.382,0.04,0.832
							c0.244,0.662,0.581,1.564-0.468,2.197c-0.678,0.405-1.298,0.451-1.707,0.451c-0.18,0-0.354-0.009-0.511-0.017
							c-0.13-0.009-0.252-0.02-0.365-0.02c-0.333,0-0.537,0.061-0.64,0.389c-0.03,0.103-0.059,0.201-0.087,0.295
							c-0.176,0.596-0.322,1.116-1.09,1.116c-0.296,0-0.673-0.078-1.156-0.234c-0.313-0.103-0.597,0.132-0.938,0.423
							c-0.402,0.338-0.901,0.762-1.662,0.762l0,0C268.325,157.787,267.713,157.568,267.012,157.112z M271.546,156.436
							c0.458,0.147,0.815,0.22,1.086,0.22c0.58,0,0.705-0.336,0.894-0.978c0.027-0.097,0.056-0.197,0.089-0.302
							c0.144-0.454,0.487-0.517,0.834-0.517c0.118,0,0.244,0.007,0.382,0.015c0.156,0.01,0.322,0.021,0.494,0.021
							c0.382,0,0.961-0.043,1.593-0.423c0.924-0.554,0.627-1.351,0.389-1.99c-0.172-0.462-0.319-0.866,0.056-1.048
							c1.31-0.63,2.108-1.725,2.138-2.931c0.03-1.187-0.698-2.291-1.944-2.954c-1.179-0.629-2.073-0.854-2.724-1.02
							c-0.854-0.213-1.323-0.332-1.325-1.151c-0.019-3.926-3.798-7.57-8.253-7.959c-0.282-0.023-0.562-0.036-0.823-0.036
							c-3.237,0-3.799,1.845-3.857,2.074l6.59,19.53c0.653,0.417,1.214,0.622,1.714,0.622l0,0c0.683,0,1.128-0.38,1.522-0.714
							c0.314-0.265,0.586-0.497,0.921-0.497C271.393,156.398,271.472,156.41,271.546,156.436z"/>
					</g>
				</g>
				<g>
					<g>
						<path fill="#FFDCB3" d="M267.938,156.062c0,0-3.922,7.408-13.415,5.819c-9.2-1.539-8.942-12.248-8.942-12.248
							s2.99-0.852,3.367-3.608c0,0,1.448,3.97,6.147,4.47c4.702,0.499,7.952-1.709,7.952-1.709S266.897,150.774,267.938,156.062z"/>
					</g>
					<g>
						<path fill="#0A0A0A" d="M254.503,161.968c-9.177-1.533-9.026-12.229-9.022-12.338c0-0.037,0.028-0.07,0.068-0.081
							c0.03-0.01,2.935-0.868,3.3-3.533c0.007-0.044,0.042-0.076,0.091-0.08c0.047-0.005,0.093,0.021,0.104,0.061
							c0.018,0.041,1.483,3.925,6.061,4.411c0.457,0.048,0.919,0.071,1.371,0.071c3.862,0,6.481-1.747,6.511-1.765
							c0.029-0.024,0.076-0.024,0.111-0.007c0.04,0.02,3.902,2.071,4.939,7.337c0.004,0.02,0,0.038-0.007,0.05
							c-0.033,0.063-3.316,6.098-10.906,6.098l0,0C256.276,162.194,255.395,162.116,254.503,161.968z M263.052,148.893
							c-0.41,0.258-2.96,1.767-6.576,1.767c-0.459,0-0.931-0.025-1.392-0.076c-3.931-0.416-5.631-3.266-6.095-4.219
							c-0.512,2.297-2.871,3.185-3.308,3.332c0,0.87,0.207,10.65,8.858,12.097c0.879,0.147,1.749,0.221,2.584,0.221l0,0
							c7.213,0,10.473-5.545,10.707-5.967C266.873,151.232,263.521,149.163,263.052,148.893z"/>
					</g>
				</g>
				<g>
					<g>
						<path fill="#D75C52" d="M270.963,149.424c0.118-7.837-6.436-14.003-17.194-11.581c-10.937,2.461-8.188,11.789-8.188,11.789
							s2.99-0.852,3.367-3.608c0,0,1.448,3.97,6.147,4.47c4.702,0.499,7.952-1.709,7.952-1.709s3.851,1.988,4.891,7.275
							C267.938,156.062,270.897,153.878,270.963,149.424z"/>
					</g>
					<g>
						<path fill="#0A0A0A" d="M267.903,156.144c-0.034-0.01-0.058-0.037-0.065-0.068c-0.954-4.837-4.316-6.913-4.786-7.183
							c-0.41,0.258-2.96,1.767-6.576,1.767c-0.459,0-0.931-0.025-1.392-0.076c-3.931-0.416-5.631-3.266-6.095-4.219
							c-0.561,2.523-3.347,3.344-3.378,3.354c-0.026,0.008-0.055,0.005-0.078-0.008c-0.027-0.012-0.044-0.032-0.05-0.056
							c-0.013-0.042-1.178-4.123,1.128-7.581c1.412-2.117,3.812-3.57,7.134-4.316c1.579-0.358,3.117-0.538,4.575-0.538
							c3.581,0,6.677,1.083,8.962,3.133c2.491,2.236,3.835,5.459,3.782,9.075c-0.068,4.441-3.032,6.68-3.063,6.701
							c-0.018,0.013-0.042,0.021-0.064,0.021C267.926,156.149,267.915,156.146,267.903,156.144z M253.793,137.93
							c-3.266,0.734-5.622,2.159-7.006,4.233c-2.067,3.101-1.293,6.719-1.132,7.35c0.521-0.179,2.866-1.121,3.193-3.498
							c0.007-0.044,0.042-0.076,0.091-0.08c0.047-0.008,0.093,0.021,0.104,0.061c0.018,0.041,1.482,3.925,6.061,4.411
							c0.457,0.048,0.919,0.071,1.371,0.071c3.862,0,6.481-1.747,6.511-1.765c0.029-0.024,0.076-0.024,0.111-0.007
							c0.04,0.02,3.822,2.027,4.904,7.177c0.573-0.487,2.804-2.642,2.861-6.461c0.052-3.567-1.271-6.742-3.725-8.945
							c-2.245-2.013-5.294-3.081-8.818-3.081C256.878,137.398,255.357,137.578,253.793,137.93z"/>
					</g>
				</g>
				<g>
					<g>
						<path fill="#0A0A0A" d="M275.335,153.637c0.036-0.006,0.066-0.027,0.079-0.059c0.335-0.806,0.113-1.038-0.196-1.356
							c-0.233-0.239-0.523-0.538-0.678-1.229c-0.171-0.776,0.031-1.202,0.243-1.652c0.227-0.48,0.464-0.976,0.314-1.903
							c-0.289-1.843-2.533-2.171-2.556-2.175c-0.055-0.007-0.106,0.024-0.117,0.074c-0.009,0.049,0.028,0.095,0.087,0.104
							c0.084,0.011,2.118,0.312,2.385,2.022c0.143,0.881-0.083,1.353-0.297,1.809c-0.228,0.476-0.44,0.926-0.256,1.755
							c0.164,0.74,0.486,1.07,0.719,1.313c0.296,0.302,0.457,0.469,0.163,1.178c-0.021,0.046,0.008,0.097,0.063,0.115
							C275.3,153.637,275.318,153.639,275.335,153.637L275.335,153.637z"/>
					</g>
				</g>
				<g>
					<g>
						<path fill="#0A0A0A" d="M272.175,155.773c0.03-0.002,0.056-0.018,0.073-0.042c0.027-0.044,0.011-0.1-0.04-0.125
							c-0.604-0.299-0.92-0.589-1.025-0.933c-0.128-0.416,0.043-0.955,0.552-1.737c1.02-1.566-0.263-2.31-0.277-2.318
							c-0.048-0.025-0.112-0.014-0.142,0.029c-0.03,0.041-0.014,0.096,0.034,0.121c0.043,0.029,1.132,0.667,0.213,2.078
							c-0.544,0.828-0.72,1.406-0.575,1.875c0.123,0.393,0.467,0.714,1.122,1.042C272.131,155.773,272.152,155.776,272.175,155.773
							L272.175,155.773z"/>
					</g>
				</g>
				<g>
					<g>
						<path fill="#0A0A0A" d="M265.149,150.479c0.023-0.004,0.046-0.014,0.063-0.031c0.025-0.03,2.71-2.837-0.453-6.407
							c-0.03-0.039-0.094-0.043-0.136-0.018c-0.045,0.028-0.056,0.083-0.025,0.123c0.007,0.012,0.83,1.158,0.475,2.428
							c-0.221,0.786-0.838,1.46-1.834,2.008c0.278-0.74,0.939-3.054-0.635-5.314c-0.027-0.043-0.091-0.056-0.141-0.029
							c-0.045,0.024-0.06,0.08-0.03,0.12c1.841,2.643,0.533,5.364,0.522,5.388c-0.021,0.039-0.01,0.079,0.023,0.102
							c0.032,0.028,0.079,0.033,0.115,0.013c1.192-0.591,1.922-1.346,2.174-2.244c0.182-0.645,0.079-1.249-0.074-1.709
							c2.099,3.082-0.11,5.401-0.135,5.424c-0.037,0.037-0.033,0.094,0.011,0.124C265.093,150.475,265.122,150.482,265.149,150.479
							L265.149,150.479z"/>
					</g>
				</g>
				<g>
					<g>
						<path fill="#0A0A0A" d="M251.08,146.603c0.055-0.006,0.092-0.053,0.087-0.102c-0.49-3.295,3.07-5.037,3.106-5.055
							c0.048-0.023,0.066-0.078,0.041-0.121c-0.027-0.044-0.089-0.06-0.137-0.037c-0.037,0.017-3.718,1.816-3.212,5.237
							C250.975,146.575,251.007,146.613,251.08,146.603L251.08,146.603z"/>
					</g>
				</g>
				<g>
					<g>
						<path fill="#0A0A0A" d="M248.962,146.113c0.053-0.007,0.093-0.048,0.088-0.095c-0.183-2.401,1.157-3.467,1.17-3.475
							c0.043-0.035,0.048-0.092,0.011-0.128s-0.103-0.042-0.144-0.006c-0.058,0.042-1.429,1.131-1.238,3.621
							c0.005,0.048,0.051,0.086,0.109,0.083C248.959,146.113,248.962,146.113,248.962,146.113L248.962,146.113z"/>
					</g>
				</g>
				<g>
					<g>
						<path d="M254.568,154.011c0.031,0.548,0.361,0.978,0.744,0.961c0.378-0.02,0.66-0.475,0.631-1.021
							c-0.03-0.546-0.363-0.973-0.743-0.957C254.822,153.012,254.538,153.465,254.568,154.011z"/>
					</g>
				</g>
				<g>
					<g>
						<path d="M247.508,152.868c0.029,0.497,0.329,0.886,0.674,0.871c0.346-0.016,0.602-0.428,0.572-0.927
							c-0.027-0.495-0.329-0.887-0.674-0.872C247.737,151.958,247.479,152.371,247.508,152.868z"/>
					</g>
				</g>
				<g>
					<g>
						<path fill="#FF9F80" d="M257.394,155.984c0,0-0.951,2.197-4.187,2.69c-3.234,0.492-4.192-1.037-4.192-1.037
							s2.124,3.752,6.369,3.202C259.631,160.29,257.394,155.984,257.394,155.984z"/>
					</g>
					<g>
						<path fill="#0A0A0A" d="M248.924,157.678c-0.022-0.043-0.002-0.097,0.045-0.118c0.048-0.024,0.11-0.006,0.136,0.034
							c0.006,0.011,0.707,1.089,2.886,1.089c0.374,0,0.777-0.034,1.199-0.098c3.135-0.477,4.099-2.609,4.106-2.63
							c0.018-0.033,0.054-0.056,0.095-0.056c0.032-0.001,0.076,0.019,0.096,0.05c0.045,0.093,1.146,2.249,0.244,3.73
							c-0.421,0.682-1.204,1.104-2.332,1.252c-0.286,0.036-0.575,0.053-0.854,0.053
							C250.842,160.984,248.946,157.711,248.924,157.678z M253.223,158.763c-0.432,0.066-0.847,0.097-1.232,0.097
							c-1.164,0-1.928-0.287-2.4-0.58c0.766,0.94,2.427,2.524,4.954,2.524c0.271,0,0.549-0.016,0.827-0.051
							c1.06-0.139,1.795-0.53,2.181-1.161c0.71-1.159,0.077-2.835-0.165-3.385C257.063,156.757,255.917,158.352,253.223,158.763z"/>
					</g>
				</g>
				<g>
					<g>
						<path fill="#FFFFFF" d="M256.474,157.245c0,0,0.243,0.271,0.066,0.654c-0.178,0.383-1.386,1.607-3.508,1.429
							c-0.726-0.061-0.877-0.582-0.877-0.582S254.262,159.174,256.474,157.245z"/>
					</g>
					<g>
						<path fill="#0A0A0A" d="M253.021,159.417c-0.785-0.065-0.956-0.626-0.963-0.649c-0.012-0.033,0-0.064,0.024-0.085
							c0.023-0.024,0.06-0.032,0.095-0.025c0.001,0.001,0.194,0.038,0.518,0.038c0.738,0,2.196-0.196,3.707-1.515
							c0.018-0.017,0.043-0.025,0.073-0.025c0.031,0.002,0.057,0.015,0.073,0.033c0.013,0.013,0.281,0.317,0.087,0.743
							c-0.188,0.403-1.29,1.505-3.193,1.505C253.304,159.437,253.162,159.429,253.021,159.417z M252.695,158.876
							c-0.153,0-0.279-0.009-0.371-0.019c0.089,0.142,0.297,0.348,0.716,0.383c0.136,0.01,0.271,0.016,0.402,0.016
							c1.78,0,2.841-1.035,3.003-1.394c0.1-0.208,0.052-0.377,0.004-0.474C254.922,158.681,253.448,158.876,252.695,158.876z"/>
					</g>
				</g>
			</g>
			<g>
				<g>
					<path fill="#FFEF1C" d="M274.753,186.804c0,0-1.256-2.793-3.229-2.369c-1.971,0.426-3.627,2.873-0.36,3.296
						C274.007,188.1,274.753,186.804,274.753,186.804z"/>
				</g>
				<g>
					<path fill="#0A0A0A" d="M271.148,187.819c-1.636-0.211-1.918-0.904-1.938-1.298c-0.042-0.87,1.045-1.903,2.29-2.172
						c0.144-0.031,0.288-0.048,0.433-0.048c1.783,0,2.869,2.368,2.913,2.469c0.01,0.024,0.01,0.049-0.001,0.073
						c-0.028,0.042-0.625,1.044-2.714,1.044C271.822,187.887,271.491,187.863,271.148,187.819z M271.933,184.48
						c-0.128,0-0.256,0.014-0.384,0.043c-1.161,0.25-2.18,1.199-2.138,1.989c0.031,0.585,0.659,0.986,1.768,1.131
						c0.333,0.042,0.652,0.063,0.952,0.063c1.743,0,2.385-0.743,2.509-0.91C274.489,186.484,273.458,184.48,271.933,184.48z"/>
				</g>
			</g>
			<g>
				<g>
					<path fill="#FFEF1C" d="M267.406,186.999c0,0-1.031-1.376-2.987-1.255c-1.95,0.122-2.448,1.688-2.448,1.688
						S265.54,188.493,267.406,186.999z"/>
				</g>
				<g>
					<path fill="#0A0A0A" d="M261.938,187.519c-0.048-0.016-0.08-0.063-0.063-0.111c0.005-0.014,0.54-1.627,2.542-1.752
						c1.986-0.125,3.03,1.239,3.074,1.293c0.028,0.036,0.022,0.086-0.016,0.114c-0.681,0.548-1.654,0.825-2.885,0.825
						C263.198,187.887,261.952,187.521,261.938,187.519z M264.43,185.833c-1.624,0.101-2.198,1.22-2.331,1.542
						c0.313,0.083,1.353,0.332,2.492,0.332c1.138,0,2.04-0.241,2.68-0.723C267.043,186.72,266.056,185.731,264.43,185.833z"/>
				</g>
			</g>
			<g>
				<g>
					<path fill="#FFDCB3" d="M244.526,160.973c0.273,0.516,0.564,1.644-1.107,2.349c-1.672,0.705-4.116-1.205-2.546-2.888
						C242.438,158.75,244.09,160.168,244.526,160.973z"/>
				</g>
				<g>
					<path fill="#0A0A0A" d="M240.459,162.315c-0.347-0.646-0.228-1.336,0.336-1.938c0.506-0.546,1.063-0.82,1.659-0.82
						c1.033,0,1.874,0.844,2.162,1.377c0.143,0.267,0.348,0.793,0.124,1.356c-0.183,0.459-0.614,0.833-1.278,1.113
						c-0.25,0.104-0.525,0.156-0.813,0.156c0,0,0,0-0.001,0C241.748,163.559,240.849,163.048,240.459,162.315z M240.949,160.49
						c-0.508,0.548-0.617,1.169-0.306,1.751c0.351,0.661,1.195,1.142,2.005,1.142c0.001,0,0.001,0,0.001,0
						c0.26,0,0.503-0.048,0.729-0.142c0.612-0.259,1.007-0.599,1.172-1.009c0.198-0.501,0.012-0.981-0.117-1.221
						c-0.265-0.492-1.037-1.274-1.979-1.274C241.924,159.737,241.415,159.99,240.949,160.49z"/>
				</g>
			</g>
			<g>
				<g>
					<path fill="#FFDCB3" d="M249.328,166.829c0.226,0.403-0.617,2.206-2.753,1.606
						C244.015,167.715,247.203,163.076,249.328,166.829z"/>
				</g>
				<g>
					<path fill="#0A0A0A" d="M246.545,168.521c-0.754-0.21-1.129-0.784-0.998-1.527c0.145-0.819,0.903-1.702,1.881-1.702
						c0.519,0,1.287,0.259,1.989,1.496c0.114,0.2,0.012,0.608-0.239,0.971c-0.395,0.564-1.043,0.889-1.781,0.889l0,0
						C247.128,168.648,246.841,168.604,246.545,168.521z M245.744,167.021c-0.052,0.311-0.075,1.066,0.86,1.33
						c0.276,0.077,0.542,0.117,0.792,0.117l0,0c0.911,0,1.401-0.505,1.607-0.805c0.259-0.365,0.292-0.691,0.234-0.794
						c-0.519-0.915-1.144-1.399-1.811-1.399C246.583,165.47,245.876,166.273,245.744,167.021z"/>
				</g>
			</g>
			<g>
				<g>
					<path fill="#0A0A0A" d="M243.708,161.636c0.225-0.027,0.396-0.068,0.413-0.073c0.054-0.013,0.085-0.061,0.069-0.107
						c-0.014-0.048-0.064-0.078-0.122-0.065c-0.265,0.065-1.015,0.183-1.296-0.015c-0.08-0.059-0.116-0.136-0.109-0.244
						c0.008-0.129,0.062-0.229,0.164-0.304c0.35-0.251,1.104-0.147,1.11-0.147c0.056,0.009,0.107-0.025,0.117-0.073
						c0.009-0.048-0.029-0.097-0.084-0.102c-0.034-0.006-0.854-0.119-1.268,0.183c-0.151,0.109-0.233,0.254-0.243,0.437
						c-0.009,0.165,0.052,0.296,0.185,0.39C242.898,161.693,243.366,161.679,243.708,161.636L243.708,161.636z"/>
				</g>
			</g>
			<g opacity="0.5">
				<g>
					<path fill="#B8A3D3" d="M263.14,160.719c0,0,6.978,7.611,1.52,10.884c-4.686,2.81-8.364-1.969-8.364-1.969
						s2.012,5.105,7.501,4.451c5.338-0.634,7.486-8.511,3.381-10.829c0,0-1.935-0.424-3.071-3.08L263.14,160.719z"/>
				</g>
			</g>
			<g>
				<g>
					<path fill="#0A0A0A" d="M268.721,164.891c0.012,0,0.03-0.007,0.046-0.018c0.108-0.074,1.108-0.742,1.29-1.094
						c0.022-0.042,0-0.098-0.051-0.117c-0.05-0.021-0.111-0.001-0.134,0.045c-0.137,0.26-0.934,0.827-1.229,1.023
						c-0.046,0.029-0.054,0.086-0.021,0.125C268.647,164.884,268.686,164.897,268.721,164.891L268.721,164.891z"/>
				</g>
			</g>
			<g>
				<g>
					<path fill="#0A0A0A" d="M272.609,167.303c0.039-0.004,0.075-0.03,0.085-0.068c0.012-0.048-0.022-0.095-0.077-0.106
						c-1.906-0.371-3.16,0.208-3.211,0.233c-0.049,0.026-0.068,0.079-0.043,0.123c0.029,0.042,0.09,0.061,0.138,0.037
						c0.013-0.007,1.243-0.572,3.073-0.218C272.586,167.306,272.598,167.306,272.609,167.303L272.609,167.303z"/>
				</g>
			</g>
			<g>
				<g>
					<path fill="#0A0A0A" d="M270.867,170.404c0.015-0.004,0.03-0.008,0.044-0.018c0.042-0.029,0.056-0.084,0.023-0.125
						c-0.753-0.947-1.791-0.99-1.836-0.993c-0.055-0.002-0.104,0.04-0.105,0.087c0,0.049,0.043,0.091,0.099,0.094
						c0.008,0,0.984,0.042,1.677,0.918C270.791,170.393,270.831,170.407,270.867,170.404L270.867,170.404z"/>
				</g>
			</g>
			<g>
				<g>
					<path fill="#0A0A0A" d="M267.066,174.552c0.054-0.008,0.091-0.051,0.084-0.102c-0.118-0.753-0.871-1.343-0.904-1.366
						c-0.041-0.033-0.104-0.029-0.143,0.009c-0.037,0.036-0.031,0.093,0.01,0.125c0.008,0.005,0.729,0.57,0.839,1.258
						C266.957,174.525,267.009,174.56,267.066,174.552L267.066,174.552z"/>
				</g>
			</g>
			<g>
				<g>
					<path fill="#0A0A0A" d="M260.355,175.14c0.054-0.007,0.093-0.053,0.085-0.101c-0.091-0.566,0.311-1.243,0.315-1.25
						c0.024-0.043,0.008-0.099-0.04-0.122c-0.049-0.023-0.11-0.007-0.136,0.036c-0.021,0.032-0.439,0.743-0.34,1.36
						C260.247,175.112,260.298,175.146,260.355,175.14L260.355,175.14z"/>
				</g>
			</g>
			<g>
				<g>
					<path fill="#0A0A0A" d="M278.05,167.983c0.076-0.011,0.143-0.057,0.168-0.125c1.257-3.583-1.389-4.505-1.417-4.516
						c-0.104-0.033-0.221,0.014-0.257,0.106c-0.041,0.091,0.012,0.195,0.115,0.231c0.094,0.033,2.313,0.825,1.17,4.072
						c-0.032,0.095,0.029,0.192,0.134,0.223C277.99,167.983,278.022,167.985,278.05,167.983L278.05,167.983z"/>
				</g>
			</g>
			<g>
				<g>
					<path fill="#0A0A0A" d="M279.455,169.55c0.036-0.003,0.074-0.019,0.104-0.041c3.2-2.455,0.354-5.609,0.325-5.64
						c-0.073-0.078-0.198-0.09-0.283-0.025c-0.09,0.061-0.102,0.174-0.031,0.25c0.109,0.118,2.626,2.918-0.275,5.146
						c-0.085,0.063-0.095,0.178-0.021,0.252C279.32,169.539,279.393,169.559,279.455,169.55L279.455,169.55z"/>
				</g>
			</g>
			<g>
				<g>
					<path fill="#0A0A0A" d="M252.948,173.812c0.058-0.009,0.109-0.039,0.142-0.084c0.061-0.083,0.03-0.193-0.064-0.246
						c-0.645-0.356-1.023-0.778-1.128-1.263c-0.156-0.738,0.377-1.381,0.384-1.387c0.066-0.079,0.047-0.193-0.042-0.251
						c-0.09-0.06-0.215-0.043-0.281,0.034c-0.024,0.035-0.646,0.775-0.458,1.665c0.123,0.589,0.565,1.096,1.313,1.506
						C252.854,173.809,252.903,173.817,252.948,173.812L252.948,173.812z"/>
				</g>
			</g>
			<g>
				<g>
					<path fill="#0A0A0A" d="M252.381,175.386c0.062-0.007,0.115-0.039,0.149-0.088c0.055-0.085,0.021-0.197-0.077-0.245
						c-1.286-0.652-2.077-1.439-2.351-2.339c-0.326-1.11,0.263-2.01,0.27-2.019c0.056-0.085,0.023-0.194-0.072-0.247
						c-0.1-0.048-0.221-0.021-0.276,0.063c-0.027,0.042-0.683,1.04-0.309,2.295c0.299,0.998,1.151,1.858,2.538,2.558
						C252.295,175.384,252.336,175.392,252.381,175.386L252.381,175.386z"/>
				</g>
			</g>
		</g>
		<g opacity="0.7">
			<g>
				<path fill="#FFDCB3" d="M262.727,149.125c0,0,5.016,7.15-2.121,11.696c-2.992,1.91-6.168,0.949-6.168,0.949
					s8.224,2.588,13.5-5.709c0,0-0.911-5.095-4.84-7.163L262.727,149.125z"/>
			</g>
		</g>
	</g>
</g>
</svg>
