<?xml version="1.0" encoding="utf-8"?>
<!-- Generator: Adobe Illustrator 16.0.0, SVG Export Plug-In . SVG Version: 6.00 Build 0)  -->
<!DOCTYPE svg PUBLIC "-//W3C//DTD SVG 1.1//EN" "http://www.w3.org/Graphics/SVG/1.1/DTD/svg11.dtd">
<svg version="1.1" id="Capa_1" xmlns="http://www.w3.org/2000/svg" xmlns:xlink="http://www.w3.org/1999/xlink" x="0px" y="0px"
	 width="400px" height="400px" viewBox="0 0 400 400" enable-background="new 0 0 400 400" xml:space="preserve">
<g>
	<g>
		<g>
			<path fill="#FCCFAB" d="M271.977,203.717c1.404,0.068,2.139-1.705,2.514-3.294l-4.594-0.16
				C269.885,201.395,270.098,203.625,271.977,203.717z"/>
			<path fill="#83301A" d="M272.055,203.746L272.055,203.746c-0.025,0-0.053,0-0.08-0.002c-0.83-0.041-1.426-0.498-1.771-1.355
				c-0.285-0.711-0.338-1.548-0.334-2.127l0.004-0.026h0.023l4.627,0.163l-0.008,0.03
				C274.158,201.941,273.441,203.746,272.055,203.746z M269.922,200.29c-0.004,0.572,0.049,1.388,0.326,2.08
				c0.34,0.838,0.92,1.281,1.729,1.322c0.027,0.002,0.053,0.002,0.078,0.002c1.344,0,2.047-1.758,2.404-3.246L269.922,200.29z"/>
		</g>
		<g>
			<g>
				<polygon fill="#FCEE23" points="251.281,167.441 257.223,168.413 253.875,172.559 251.176,167.771 245.588,165.609 
					248.938,161.462 				"/>
				<path fill="#83301A" d="M253.871,172.604l-0.018-0.032l-2.695-4.781l-5.613-2.171l0.025-0.029l3.375-4.18l0.016,0.04
					l2.338,5.965l5.973,0.977L253.871,172.604z M245.631,165.598l5.563,2.151l0.004,0.008l2.682,4.756l3.297-4.082l-5.912-0.968
					l-0.008-0.013l-2.326-5.938L245.631,165.598z"/>
			</g>
			<g>
				<path fill="#B03D19" d="M298.445,180.325c0,0-2.887,7.59,0.238,15.553l3.25-1.492l-0.721-5.725l2.525,2.986l3.369-2.736
					l-2.047-3.236l3.129,2.115l2.164-3.358C310.354,184.431,304.943,180.822,298.445,180.325z"/>
				<path fill="#83301A" d="M298.672,195.913l-0.01-0.024c-1.619-4.119-1.598-8.133-1.295-10.776
					c0.326-2.863,1.047-4.778,1.053-4.797l0.008-0.018l0.02,0.002c6.428,0.492,11.867,4.073,11.922,4.11l0.021,0.014l-0.016,0.022
					l-2.178,3.381l-3.049-2.062l1.992,3.151l-0.018,0.015l-3.389,2.753l-2.486-2.94l0.713,5.66L298.672,195.913z M298.463,180.353
					c-0.074,0.201-0.736,2.058-1.045,4.768c-0.303,2.631-0.322,6.624,1.281,10.724l3.205-1.475l-0.73-5.791l0.057,0.064l2.51,2.968
					l3.334-2.707l-2.033-3.216l0.033-0.036l3.109,2.103l2.137-3.316C309.936,184.19,304.662,180.833,298.463,180.353z"/>
			</g>
			<g>
				<path fill="#B03D19" d="M250.805,167.509c0,0-7.578,1.12-13.111,4.354l1.443,3.236l4.451-2.987l-3.008,3.609l1.684,1.741
					l3.006-3.484l-2.285,5.724l4.693,2.115L250.805,167.509z"/>
				<path fill="#83301A" d="M247.695,181.855l-0.029-0.014l-4.715-2.126l0.012-0.024l2.227-5.58l-2.924,3.389l-1.723-1.777
					l0.018-0.019l2.893-3.471l-4.328,2.903l-1.465-3.286l0.02-0.012c5.475-3.2,13.047-4.346,13.121-4.357l0.037-0.005l-0.01,0.038
					L247.695,181.855z M243.018,179.688l4.643,2.094l3.111-14.241c-0.578,0.091-7.779,1.262-13.047,4.335l1.422,3.185l4.428-2.969
					l0.033,0.04l-2.994,3.59l1.65,1.704l2.988-3.463l0.043,0.028L243.018,179.688z"/>
			</g>
			<g>
				<g>
					<path fill="#FCCFAB" d="M284.848,155.065c-12.646,10.727-25.445,11.369-32.809,10.524c-0.252,0.386-0.535,0.748-0.752,1.173
						c-12.029,23.517,17.443,46.161,38.977,26.377c4.932-4.53,7.342-9.231,8.365-13.478
						C285.568,173.106,284.848,155.065,284.848,155.065z"/>
					<path fill="#83301A" d="M272.166,200.731h-0.002c-4.213-0.001-8.381-1.132-12.059-3.272c-3.598-2.093-6.58-5.058-8.627-8.574
						c-1.848-3.173-2.883-6.76-2.996-10.374c-0.123-3.954,0.811-7.912,2.781-11.761c0.15-0.297,0.336-0.564,0.518-0.823
						c0.078-0.115,0.162-0.233,0.236-0.352l0.01-0.013l0.016,0.002c1.51,0.174,3.063,0.262,4.604,0.262c0,0,0,0,0.002,0
						c4.428,0,8.814-0.712,13.033-2.114c5.383-1.789,10.479-4.704,15.152-8.666l0.039-0.034l0.002,0.053
						c0,0.045,0.201,4.568,1.99,9.834c1.053,3.092,2.439,5.83,4.123,8.141c2.102,2.886,4.678,5.106,7.652,6.6l0.018,0.009
						l-0.006,0.021c-1.188,4.939-4.004,9.479-8.373,13.492C284.889,198.114,278.625,200.731,272.166,200.731z M252.053,165.618
						c-0.074,0.114-0.154,0.229-0.232,0.339c-0.178,0.259-0.361,0.524-0.512,0.818c-1.967,3.841-2.898,7.791-2.775,11.735
						c0.111,3.605,1.146,7.183,2.988,10.347c2.043,3.509,5.021,6.468,8.609,8.556c3.668,2.137,7.83,3.266,12.033,3.266h0.002
						c6.447,0,12.699-2.613,18.08-7.558c4.354-3.999,7.166-8.522,8.352-13.443c-2.973-1.498-5.549-3.72-7.652-6.608
						c-1.686-2.314-3.074-5.058-4.129-8.154c-1.688-4.967-1.961-9.276-1.99-9.796c-4.666,3.95-9.756,6.857-15.129,8.643
						c-4.225,1.404-8.615,2.117-13.049,2.117C255.107,165.878,253.563,165.791,252.053,165.618z"/>
				</g>
				<g>
					<path fill="#B03D19" d="M284.73,153.821c0,0-20.219-7.272-32.691,11.768c7.363,0.845,20.162,0.203,32.809-10.524
						c0,0,0.721,18.041,13.781,24.597C302.027,165.535,288.523,154.778,284.73,153.821z"/>
					<path fill="#83301A" d="M298.646,179.701l-0.029-0.014c-2.982-1.498-5.563-3.724-7.672-6.618
						c-1.686-2.314-3.074-5.058-4.129-8.154c-1.688-4.967-1.961-9.276-1.99-9.796c-4.666,3.951-9.756,6.858-15.129,8.644
						c-4.225,1.404-8.615,2.116-13.049,2.116c-1.545,0-3.096-0.088-4.611-0.262l-0.041-0.005l0.021-0.036
						c7.117-10.863,16.766-13.144,23.607-13.144c5.256,0,9.076,1.352,9.115,1.365c1.227,0.31,3.268,1.58,5.201,3.234
						c1.719,1.472,4.186,3.942,6.178,7.347c1.34,2.292,2.254,4.663,2.717,7.049c0.537,2.743,0.473,5.516-0.184,8.243
						L298.646,179.701z M284.873,155.011l0.002,0.053c0,0.045,0.201,4.568,1.99,9.834c1.053,3.092,2.439,5.83,4.123,8.141
						c2.096,2.876,4.66,5.093,7.625,6.585c0.645-2.708,0.705-5.464,0.174-8.188c-0.463-2.38-1.375-4.746-2.711-7.032
						c-1.988-3.399-4.449-5.865-6.166-7.334c-1.926-1.649-3.963-2.915-5.188-3.224c-0.039-0.014-3.85-1.363-9.098-1.363
						c-6.822,0-16.438,2.271-23.541,13.085c1.5,0.17,3.033,0.256,4.564,0.256c4.428,0,8.814-0.712,13.033-2.114
						c5.383-1.788,10.479-4.704,15.152-8.666L284.873,155.011z"/>
				</g>
			</g>
			<g>
				<path d="M267.059,194.24c-1.076,0.001-2.217-0.14-3.422-0.418c-10.211-2.374-8.338-11.824-8.316-11.918l0.352,0.08
					c-0.078,0.373-1.811,9.183,8.045,11.474c3.529,0.821,6.492,0.409,8.805-1.224c2.805-1.979,3.828-5.175,3.986-6.241l0.355,0.056
					c-0.164,1.111-1.229,4.44-4.141,6.493C271.121,193.674,269.223,194.24,267.059,194.24L267.059,194.24z"/>
			</g>
			<g>
				<ellipse cx="273.422" cy="175.783" rx="0.963" ry="1.344"/>
			</g>
			<g>
				<path d="M258.969,175.091c-0.129,0.731-0.656,1.242-1.182,1.143c-0.521-0.1-0.84-0.771-0.711-1.502
					c0.129-0.73,0.658-1.241,1.18-1.142C258.781,173.689,259.098,174.361,258.969,175.091z"/>
			</g>
		</g>
		<g>
			<path d="M297.898,179.338c-8.258-8.354-8.715-17.578-8.717-17.669l0.361-0.015c0.002,0.09,0.455,9.173,8.605,17.417
				L297.898,179.338L297.898,179.338z"/>
		</g>
		<g>
			<path d="M252.049,165.776l-0.018-0.372c14.787-0.761,23.834-8.13,23.924-8.204l0.227,0.292
				C276.09,157.566,266.959,165.01,252.049,165.776L252.049,165.776z"/>
		</g>
		<g>
			<path d="M253.211,164.289l-0.242-0.279c8.129-7.541,17.568-8.99,17.662-9.004l0.049,0.37
				C270.586,155.388,261.254,156.827,253.211,164.289L253.211,164.289z"/>
		</g>
		<g opacity="0.46">
			<g>
				<path fill="#FCCFAB" d="M288.301,168.51c1.686,5.993,5.002,13.834-2.609,23.137c-7.941,9.706-20.369,9.033-28.186,4.031
					c8.551,6.591,21.699,7.621,32.758-2.538c4.932-4.53,7.342-9.231,8.365-13.478C293.539,177.108,290.328,172.808,288.301,168.51z"
					/>
			</g>
		</g>
		<g>
			<polygon fill="#FCEE23" points="298.783,179.859 301.885,174.529 304.344,179.295 299.039,180.085 295.004,184.627 
				292.547,179.861 			"/>
			<path fill="#83301A" d="M294.998,184.673l-0.018-0.034l-2.477-4.805l6.264-0.001l3.119-5.358l0.021,0.041l2.477,4.8l-5.332,0.794
				L294.998,184.673z M292.588,179.887l2.422,4.695l4.018-4.522l0.01-0.001l5.268-0.785l-2.42-4.692l-3.088,5.303L292.588,179.887z"
				/>
		</g>
		<g>
			<g>
				<path fill="#FCCFAB" d="M247.51,213.238c-0.295-0.229-0.641-0.607-0.855-1.203c-0.434-1.219-0.357-2.971-1.113-2.484
					c-0.752,0.484-0.164,3.252-0.164,3.252s-1.129-1.734-1.674-2.76c-0.543-1.025-1.234-0.482-0.373,1.77l0.629,1.455
					c0,0-2.094-1.734-2.898-2.057c-0.801-0.324-0.932,0.494-0.037,1.373c0.896,0.877,2.158,1.793,2.158,1.793
					s-2.383-0.531-3.305-0.783c-0.918-0.254-1.021,1,0.334,1.473c1.354,0.475,3.16,0.484,3.199,1.104
					c0.039,0.621-0.994,1.498-0.824,2.299c0.164,0.799,1.84-0.43,3.316-1.961c0.514-0.531,0.988-0.904,1.395-1.17
					c0.016-0.059,0.043-0.115,0.092-0.172C248.17,214.248,247.744,213.523,247.51,213.238z"/>
				<path fill="#83301A" d="M242.891,218.746L242.891,218.746c-0.18,0-0.295-0.094-0.33-0.271c-0.098-0.457,0.18-0.922,0.445-1.371
					c0.203-0.342,0.395-0.664,0.377-0.932c-0.02-0.375-0.762-0.521-1.619-0.693c-0.5-0.1-1.064-0.213-1.563-0.387
					c-0.756-0.264-1.09-0.791-1.029-1.174c0.035-0.236,0.219-0.385,0.479-0.385c0.072,0,0.154,0.012,0.234,0.035
					c0.791,0.215,2.686,0.643,3.18,0.756c-0.316-0.236-1.318-0.996-2.059-1.721c-0.547-0.537-0.695-1.031-0.6-1.283
					c0.084-0.213,0.334-0.266,0.664-0.135c0.707,0.285,2.428,1.672,2.822,1.994l-0.588-1.355c-0.473-1.242-0.469-1.945-0.307-2.191
					c0.049-0.076,0.113-0.115,0.189-0.115c0.172,0,0.367,0.188,0.539,0.514c0.457,0.863,1.342,2.246,1.6,2.646
					c-0.045-0.238-0.137-0.766-0.174-1.318c-0.072-1.008,0.055-1.625,0.375-1.832c0.092-0.057,0.174-0.086,0.248-0.086
					c0.342,0,0.455,0.582,0.594,1.318c0.08,0.406,0.17,0.869,0.311,1.266c0.219,0.613,0.58,0.986,0.846,1.193
					c0.232,0.281,0.678,1.029-0.119,1.965c-0.041,0.049-0.066,0.1-0.086,0.16l-0.004,0.01l-0.006,0.006
					c-0.48,0.314-0.945,0.707-1.391,1.168C244.34,218.164,243.301,218.746,242.891,218.746z M239.65,213.586
					c-0.234,0-0.396,0.129-0.43,0.34c-0.057,0.363,0.268,0.861,0.998,1.115c0.492,0.174,1.055,0.285,1.555,0.387
					c0.914,0.182,1.637,0.328,1.662,0.74c0.018,0.285-0.18,0.613-0.387,0.963c-0.262,0.439-0.531,0.895-0.439,1.332
					c0.031,0.154,0.123,0.23,0.281,0.23l0,0c0.52,0,1.721-0.887,2.994-2.203c0.443-0.461,0.912-0.855,1.389-1.17
					c0.02-0.064,0.053-0.119,0.094-0.172c0.26-0.301,0.785-1.088,0.125-1.893c-0.268-0.205-0.635-0.588-0.859-1.213
					c-0.143-0.4-0.232-0.863-0.313-1.273c-0.131-0.686-0.246-1.275-0.545-1.275c-0.063,0-0.137,0.025-0.221,0.078
					c-0.729,0.471-0.158,3.197-0.152,3.225l-0.047,0.02c-0.012-0.016-1.137-1.746-1.674-2.762c-0.162-0.303-0.346-0.484-0.494-0.484
					c-0.057,0-0.109,0.031-0.15,0.092c-0.15,0.234-0.15,0.92,0.314,2.141l0.631,1.455l-0.039,0.029
					c-0.023-0.016-2.102-1.734-2.891-2.053c-0.117-0.047-0.221-0.07-0.311-0.07c-0.145,0-0.244,0.063-0.287,0.176
					c-0.09,0.234,0.055,0.705,0.586,1.227c0.885,0.865,2.143,1.779,2.154,1.789l-0.021,0.047c-0.021-0.006-2.393-0.535-3.301-0.783
					C239.795,213.598,239.719,213.586,239.65,213.586z"/>
			</g>
		</g>
		<g>
			<g>
				<path d="M266.773,277.258c-0.65,0-1.188-0.5-1.258-1.168c-1.326-12.986,1.65-33.174,1.742-33.588l0.703,0.162
					c-0.09,0.412-3.043,20.48-1.725,33.346c0.025,0.289,0.258,0.504,0.537,0.504V277.258L266.773,277.258z"/>
			</g>
		</g>
		<g>
			<path fill="#FFE539" d="M265.48,275.797c0,0-0.814,1.027-3.34,0.84s-6.045-3.547-7.939-2.986
				c-1.896,0.559-0.359,4.385,5.414,5.598c5.775,1.215,7.939-0.092,7.758-1.773C267.195,275.797,266.291,275.516,265.48,275.797z"/>
			<path fill="#83301A" d="M263.555,279.75L263.555,279.75c-1.117,0-2.445-0.162-3.945-0.477c-2.385-0.5-3.842-1.396-4.645-2.063
				c-0.947-0.783-1.527-1.703-1.557-2.465c-0.021-0.559,0.264-0.969,0.787-1.121c0.143-0.041,0.299-0.064,0.471-0.064
				c0.98,0,2.246,0.703,3.584,1.449c1.338,0.744,2.725,1.512,3.893,1.602c0.203,0.014,0.402,0.02,0.596,0.02
				c2.02,0,2.715-0.844,2.721-0.852l0.006-0.006l0.006-0.002c0.186-0.064,0.365-0.098,0.539-0.098c0.445,0,1.223,0.234,1.389,1.799
				c0.051,0.463-0.08,0.893-0.379,1.238C266.43,279.391,265.232,279.75,263.555,279.75z M254.666,273.613
				c-0.166,0-0.318,0.02-0.457,0.063c-0.506,0.148-0.771,0.529-0.752,1.068c0.031,0.744,0.604,1.65,1.537,2.426
				c0.801,0.66,2.25,1.555,4.625,2.055c1.496,0.314,2.82,0.471,3.936,0.471c1.664,0,2.85-0.352,3.428-1.018
				c0.293-0.34,0.416-0.744,0.365-1.197c-0.119-1.131-0.598-1.754-1.338-1.754c-0.164,0-0.34,0.031-0.516,0.092
				c-0.068,0.076-0.799,0.867-2.756,0.867c-0.193,0-0.395-0.008-0.598-0.025c-1.182-0.084-2.57-0.859-3.916-1.604
				C256.893,274.313,255.635,273.613,254.666,273.613z"/>
		</g>
		<g>
			<g>
				<path d="M290.244,273.699c-0.635,0.135-1.26-0.244-1.457-0.883c-3.842-12.441-2.844-32.863-2.838-33.289l0.721,0.014
					c-0.006,0.422-1,20.721,2.803,33.047c0.086,0.275,0.354,0.436,0.625,0.379L290.244,273.699L290.244,273.699z"/>
			</g>
		</g>
		<g>
			<path fill="#FFE539" d="M288.693,272.537c0,0-0.596,1.174-3.107,1.52c-2.51,0.346-6.611-2.207-8.357-1.264
				c-1.748,0.945,0.502,4.371,6.395,4.352s7.76-1.75,7.252-3.359C290.371,272.178,289.432,272.094,288.693,272.537z"/>
			<path fill="#83301A" d="M283.574,277.172c-2.416,0-4.01-0.578-4.92-1.061c-1.072-0.568-1.816-1.346-1.99-2.082
				c-0.127-0.541,0.074-1,0.551-1.26c0.268-0.145,0.596-0.215,1-0.215c0.904,0,2.039,0.352,3.244,0.723
				c1.252,0.387,2.551,0.785,3.629,0.785l0,0c0.174,0,0.342-0.01,0.496-0.033c1.289-0.176,2.061-0.574,2.479-0.883
				c0.453-0.328,0.605-0.619,0.607-0.623l0.004-0.008h0.006c0.256-0.154,0.521-0.236,0.768-0.236c0.449,0,1.063,0.262,1.453,1.498
				c0.158,0.506,0.078,1.008-0.23,1.453c-0.504,0.717-2.088,1.924-7.047,1.941H283.574z M278.215,272.609
				c-0.398,0-0.717,0.068-0.975,0.207c-0.465,0.25-0.65,0.678-0.527,1.201c0.174,0.721,0.906,1.484,1.965,2.049
				c0.904,0.48,2.488,1.051,4.896,1.051h0.049c4.936-0.014,6.506-1.209,7.004-1.92c0.301-0.43,0.379-0.914,0.225-1.402
				c-0.379-1.209-0.973-1.463-1.404-1.463c-0.234,0-0.49,0.078-0.736,0.223c-0.027,0.049-0.186,0.32-0.613,0.635
				c-0.428,0.307-1.205,0.717-2.506,0.893c-0.158,0.021-0.328,0.035-0.504,0.035l0,0c-1.09,0-2.389-0.402-3.645-0.789
				C280.246,272.957,279.113,272.609,278.215,272.609z"/>
		</g>
		<g>
			<g>
				<path d="M247.283,214.854l-0.045-0.746c12.865-0.824,21.354-13.033,21.436-13.156l0.592,0.427
					C269.182,201.506,260.395,214.014,247.283,214.854L247.283,214.854z"/>
			</g>
		</g>
		<g>
			<g>
				<path d="M292.305,206.807c-10.219,0.002-16.141-6.019-16.211-6.096c-0.215-0.22-0.555-0.223-0.766-0.005l-0.51-0.531
					c0.494-0.506,1.297-0.502,1.785,0.01c0.09,0.091,9.008,9.074,23.775,4.642l0.199,0.717
					C297.58,206.445,294.811,206.807,292.305,206.807L292.305,206.807z"/>
			</g>
		</g>
		<g>
			<path fill="#009ADA" d="M279.195,235.445c-8.781,2.242-14.676-0.371-14.676-0.371l-3.73,3.234c0,0,3.234,9.094,19.008,6.842
				c10.467-1.492,17.805-11.57,18.768-17.916l-5.414-1.742C293.15,225.492,289.436,232.832,279.195,235.445z"/>
			<path fill="#83301A" d="M275.029,245.535c-2.666,0-5.076-0.377-7.16-1.125c-1.668-0.6-3.133-1.434-4.354-2.48
				c-1.668-1.428-2.527-2.986-2.748-3.613l-0.008-0.018l0.014-0.01l3.742-3.246l0.014,0.006c0.029,0.012,2.939,1.277,7.623,1.277
				c2.313,0,4.68-0.305,7.037-0.904c5.285-1.35,8.793-3.982,10.807-5.951c2.18-2.135,3.123-3.973,3.133-3.99l0.008-0.02l0.021,0.006
				l5.434,1.75l-0.002,0.021c-0.51,3.348-2.742,7.482-5.826,10.793c-1.736,1.861-3.666,3.412-5.74,4.607
				c-2.311,1.33-4.74,2.186-7.223,2.539C278.135,245.416,276.529,245.535,275.029,245.535z M260.82,238.316
				c0.23,0.633,1.088,2.168,2.729,3.574c1.219,1.043,2.678,1.875,4.34,2.471c2.078,0.744,4.48,1.121,7.141,1.121
				c1.498,0,3.1-0.117,4.764-0.357c2.477-0.352,4.902-1.205,7.205-2.533c2.068-1.193,3.996-2.74,5.729-4.598
				c3.072-3.295,5.297-7.408,5.811-10.742l-5.373-1.729c-0.107,0.203-1.066,1.963-3.133,3.984
				c-2.018,1.977-5.535,4.613-10.828,5.963c-2.361,0.604-4.736,0.908-7.051,0.908c-4.525,0-7.398-1.178-7.627-1.275L260.82,238.316z
				"/>
		</g>
		<g>
			<g>
				<path fill="#D92132" d="M275.23,200.449l-0.74-0.026c-0.375,1.589-1.109,3.363-2.514,3.294c-1.879-0.092-2.092-2.322-2.08-3.455
					c0,0-4.395,19.123-0.338,35.96c2.488,0.256,5.785,0.207,9.637-0.777c1.939-0.494,3.646-1.16,5.133-1.912
					c-7.135-15.92-9.104-33.051-9.104-33.051L275.23,200.449z"/>
				<path fill="#83301A" d="M272.154,236.379L272.154,236.379c-0.877,0-1.75-0.043-2.598-0.131l-0.018-0.002l-0.004-0.018
					c-0.926-3.842-1.484-8.125-1.658-12.727c-0.143-3.684-0.039-7.578,0.305-11.576c0.584-6.809,1.68-11.623,1.691-11.671
					l0.049,0.008c-0.006,0.574,0.045,1.406,0.326,2.107c0.34,0.838,0.92,1.281,1.729,1.322c0.027,0.002,0.053,0.002,0.078,0.002
					c0.748,0,1.771-0.57,2.41-3.278l0.006-0.021l0.789,0.029l-0.008,0.058c0.016,0.146,0.523,4.426,1.873,10.551
					c1.262,5.721,3.541,14.268,7.229,22.49l0.01,0.023l-0.023,0.01c-1.6,0.809-3.328,1.453-5.137,1.914
					C276.842,236.074,274.471,236.379,272.154,236.379z M269.58,236.197c0.84,0.086,1.707,0.129,2.574,0.129l0,0
					c2.311,0,4.678-0.305,7.035-0.904c1.797-0.461,3.518-1.1,5.105-1.9c-2.035-4.543-4.936-12.123-7.219-22.479
					c-1.367-6.201-1.871-10.515-1.877-10.558v-0.004l0.004-0.008l-0.693-0.023c-0.646,2.722-1.691,3.296-2.455,3.296
					c-0.025,0-0.053,0-0.08-0.002c-0.83-0.041-1.426-0.498-1.771-1.355c-0.25-0.619-0.322-1.338-0.33-1.896
					c-0.223,1.027-1.129,5.464-1.641,11.439C267.693,218.207,267.49,227.51,269.58,236.197z"/>
			</g>
			<g>
				<path fill="#FFD600" d="M269.896,200.262l-0.805-0.029c0,0-0.271,0.604-0.689,1.701c-0.904,4.682-3.393,20.121-0.145,34.115
					c0.408,0.066,0.836,0.125,1.301,0.174C265.502,219.385,269.896,200.262,269.896,200.262z"/>
				<path fill="#83301A" d="M269.592,236.252l-0.035-0.004c-0.408-0.041-0.822-0.096-1.303-0.174l-0.018-0.002l-0.004-0.018
					c-3.262-14.057-0.715-29.676,0.143-34.127c0.418-1.088,0.689-1.7,0.693-1.706l0.006-0.017l0.018,0.001l0.836,0.03l-0.006,0.031
					c-0.012,0.047-1.104,4.859-1.689,11.664c-0.539,6.281-0.742,15.592,1.352,24.285L269.592,236.252z M268.279,236.025
					c0.457,0.072,0.854,0.127,1.246,0.168c-0.922-3.832-1.475-8.104-1.648-12.691c-0.143-3.684-0.039-7.578,0.305-11.576
					c0.561-6.521,1.588-11.213,1.684-11.638l-0.76-0.027c-0.045,0.102-0.305,0.695-0.68,1.683
					C267.568,206.385,265.025,221.984,268.279,236.025z"/>
			</g>
			<g>
				<path fill="#D92132" d="M268.402,201.934c-1.816,4.754-6.426,18.783-3.883,33.141c0,0,1.363,0.596,3.738,0.975
					C265.01,222.055,267.498,206.615,268.402,201.934z"/>
				<path fill="#83301A" d="M268.291,236.082l-0.037-0.008c-2.35-0.373-3.73-0.971-3.744-0.977l-0.014-0.006l-0.004-0.014
					c-1.092-6.182-0.988-12.971,0.309-20.182c1.068-5.943,2.701-10.68,3.576-12.973l0.049,0.014
					c-0.857,4.451-3.404,20.059-0.145,34.105L268.291,236.082z M264.543,235.057c0.141,0.057,1.479,0.605,3.68,0.961
					c-3.182-13.76-0.807-29.002,0.098-33.803c-0.895,2.383-2.441,6.979-3.471,12.691
					C263.555,222.105,263.451,228.883,264.543,235.057z"/>
			</g>
			<g>
				<path fill="#D92132" d="M293.15,225.492c0,0-11.789-11.199-16.961-25.01c0,0,2.006,15.543,9.439,32.344
					C291.043,229.654,293.15,225.492,293.15,225.492z"/>
				<path fill="#83301A" d="M285.617,232.863l-0.01-0.027c-3.842-8.68-6.205-17.014-7.512-22.475
					c-1.414-5.92-1.926-9.836-1.932-9.876l0.047-0.012c2.672,7.13,7.141,13.548,10.418,17.675c3.553,4.473,6.51,7.297,6.541,7.324
					l0.012,0.014l-0.008,0.018c-0.021,0.041-2.176,4.207-7.531,7.346L285.617,232.863z M276.244,200.704
					c0.131,0.912,0.68,4.531,1.9,9.644c1.305,5.455,3.664,13.775,7.496,22.441c2.779-1.633,4.666-3.529,5.76-4.834
					c1.104-1.318,1.643-2.314,1.719-2.457c-0.229-0.221-3.104-3-6.529-7.314C283.344,214.092,278.928,207.756,276.244,200.704z"/>
			</g>
			<g>
				<path fill="#FFD600" d="M275.23,200.449l-0.006,0.033c0,0,1.969,17.131,9.104,33.051c0.455-0.229,0.887-0.463,1.301-0.707
					c-7.434-16.801-9.439-32.344-9.439-32.344L275.23,200.449z"/>
				<path fill="#83301A" d="M284.318,233.57l-0.012-0.025c-3.688-8.225-5.969-16.775-7.23-22.502
					c-1.367-6.201-1.871-10.515-1.877-10.558v-0.004l0.01-0.059h0.021l0.98,0.033l0.002,0.023c0.006,0.039,0.518,3.953,1.932,9.869
					c1.307,5.461,3.668,13.791,7.506,22.467l0.012,0.021l-0.02,0.014c-0.43,0.252-0.871,0.49-1.303,0.707L284.318,233.57z
					 M275.252,200.482c0.016,0.146,0.523,4.426,1.873,10.551c1.262,5.717,3.537,14.252,7.217,22.465
					c0.418-0.209,0.84-0.439,1.254-0.684c-3.836-8.672-6.195-16.996-7.5-22.453c-1.359-5.689-1.887-9.529-1.93-9.854l-0.914-0.032
					V200.482z"/>
			</g>
		</g>
		<g>
			<g>
				<path fill="#FBD1D1" d="M268.412,229.857c0.086,0.707,0.191,1.412,0.307,2.119c3.949,0.008,8.77-0.66,13.738-2.93
					c-0.219-0.568-0.432-1.135-0.637-1.699C276.953,229.318,272.258,229.885,268.412,229.857z"/>
			</g>
			<g>
				<path fill="#FBD1D1" d="M277.932,214.582c-3.557,1.188-6.979,1.688-10.006,1.805c-0.023,0.494-0.039,0.998-0.053,1.506
					c3.141-0.068,6.709-0.563,10.426-1.861C278.172,215.541,278.051,215.059,277.932,214.582z"/>
			</g>
			<g>
				<path fill="#FBD1D1" d="M277.248,211.699c-0.105-0.477-0.207-0.941-0.305-1.395c-3.076,0.926-6.045,1.369-8.727,1.521
					c-0.041,0.471-0.08,0.953-0.117,1.445C270.902,213.16,274.016,212.711,277.248,211.699z"/>
			</g>
			<g>
				<path fill="#FBD1D1" d="M279.078,218.893c-4.014,1.5-7.887,2.078-11.232,2.191c0.006,0.504,0.014,1.012,0.031,1.525
					c3.447-0.059,7.457-0.639,11.621-2.271C279.354,219.852,279.215,219.371,279.078,218.893z"/>
			</g>
			<g>
				<path fill="#FBD1D1" d="M267.992,225.303c0.031,0.51,0.066,1.021,0.109,1.535c3.699,0.004,8.096-0.586,12.664-2.49
					c-0.162-0.48-0.318-0.959-0.471-1.436C275.863,224.662,271.592,225.246,267.992,225.303z"/>
			</g>
			<g>
				<path fill="#FBD1D1" d="M266.914,213.297c0.035-0.482,0.076-0.957,0.117-1.424c-0.547,0.014-1.078,0.018-1.596,0.012
					c-0.102,0.451-0.197,0.916-0.293,1.385C265.713,213.293,266.305,213.305,266.914,213.297z"/>
			</g>
			<g>
				<path fill="#FBD1D1" d="M266.641,221.105c-0.932,0.002-1.809-0.031-2.633-0.086c-0.043,0.471-0.076,0.947-0.109,1.428
					c0.865,0.082,1.785,0.143,2.768,0.16C266.652,222.102,266.645,221.604,266.641,221.105z"/>
			</g>
			<g>
				<path fill="#FBD1D1" d="M266.73,216.416c-0.748,0.006-1.465-0.01-2.152-0.041c-0.074,0.469-0.143,0.943-0.211,1.426
					c0.734,0.055,1.504,0.088,2.307,0.1C266.691,217.396,266.709,216.904,266.73,216.416z"/>
			</g>
			<g>
				<path fill="#FBD1D1" d="M267.176,229.83c-1.211-0.049-2.318-0.152-3.303-0.279c0.043,0.697,0.104,1.398,0.174,2.1
					c1.018,0.141,2.164,0.252,3.424,0.301C267.359,231.242,267.264,230.535,267.176,229.83z"/>
			</g>
			<g>
				<path fill="#FBD1D1" d="M266.773,225.303c-1.074-0.018-2.074-0.08-2.988-0.168c-0.01,0.475-0.012,0.953-0.01,1.434
					c0.947,0.117,1.984,0.207,3.1,0.248C266.836,226.309,266.803,225.805,266.773,225.303z"/>
			</g>
			<g>
				<path fill="#FBD1D1" d="M283.15,226.773c0.203,0.539,0.414,1.084,0.629,1.629c2.436-1.248,4.885-2.9,7.273-5.063
					c-0.262-0.285-0.543-0.59-0.844-0.922C287.881,224.277,285.506,225.695,283.15,226.773z"/>
			</g>
			<g>
				<path fill="#FBD1D1" d="M280.744,219.824c1.656-0.732,3.334-1.65,5.002-2.768c-0.264-0.34-0.527-0.689-0.793-1.047
					c-1.549,0.955-3.105,1.746-4.648,2.393C280.447,218.871,280.592,219.346,280.744,219.824z"/>
			</g>
			<g>
				<path fill="#FBD1D1" d="M279.482,215.586c1.279-0.504,2.566-1.098,3.863-1.814c-0.258-0.373-0.516-0.75-0.771-1.135
					c-1.166,0.594-2.328,1.105-3.48,1.537C279.217,214.637,279.346,215.107,279.482,215.586z"/>
			</g>
			<g>
				<path fill="#FBD1D1" d="M282.059,223.775c2.023-0.951,4.066-2.172,6.092-3.725c-0.262-0.313-0.529-0.635-0.805-0.971
					c-1.914,1.355-3.85,2.443-5.77,3.295C281.734,222.838,281.893,223.305,282.059,223.775z"/>
			</g>
			<g>
				<path fill="#FBD1D1" d="M278.359,211.332c0.889-0.313,1.785-0.668,2.686-1.074c-0.236-0.389-0.473-0.779-0.703-1.176
					c-0.775,0.322-1.547,0.619-2.313,0.877C278.135,210.406,278.244,210.861,278.359,211.332z"/>
			</g>
		</g>
		<g>
			<g>
				<path fill="#83301A" d="M272.154,236.379L272.154,236.379c-0.877,0-1.75-0.043-2.598-0.131l-0.018-0.002l-0.004-0.018
					c-0.926-3.842-1.484-8.125-1.658-12.727c-0.143-3.684-0.039-7.578,0.305-11.576c0.584-6.809,1.68-11.623,1.691-11.671
					l0.049,0.008c-0.006,0.574,0.045,1.406,0.326,2.107c0.34,0.838,0.92,1.281,1.729,1.322c0.027,0.002,0.053,0.002,0.078,0.002
					c0.748,0,1.771-0.57,2.41-3.278l0.006-0.021l0.789,0.029l-0.008,0.058c0.016,0.146,0.523,4.426,1.873,10.551
					c1.262,5.721,3.541,14.268,7.229,22.49l0.01,0.023l-0.023,0.01c-1.6,0.809-3.328,1.453-5.137,1.914
					C276.842,236.074,274.471,236.379,272.154,236.379z M269.58,236.197c0.84,0.086,1.707,0.129,2.574,0.129l0,0
					c2.311,0,4.678-0.305,7.035-0.904c1.797-0.461,3.518-1.1,5.105-1.9c-2.035-4.543-4.936-12.123-7.219-22.479
					c-1.367-6.201-1.871-10.515-1.877-10.558v-0.004l0.004-0.008l-0.693-0.023c-0.646,2.722-1.691,3.296-2.455,3.296
					c-0.025,0-0.053,0-0.08-0.002c-0.83-0.041-1.426-0.498-1.771-1.355c-0.25-0.619-0.322-1.338-0.33-1.896
					c-0.223,1.027-1.129,5.464-1.641,11.439C267.693,218.207,267.49,227.51,269.58,236.197z"/>
			</g>
			<g>
				<path fill="#83301A" d="M269.592,236.252l-0.035-0.004c-0.408-0.041-0.822-0.096-1.303-0.174l-0.018-0.002l-0.004-0.018
					c-3.262-14.057-0.715-29.676,0.143-34.127c0.418-1.088,0.689-1.7,0.693-1.706l0.006-0.017l0.018,0.001l0.836,0.03l-0.006,0.031
					c-0.012,0.047-1.104,4.859-1.689,11.664c-0.539,6.281-0.742,15.592,1.352,24.285L269.592,236.252z M268.279,236.025
					c0.457,0.072,0.854,0.127,1.246,0.168c-0.922-3.832-1.475-8.104-1.648-12.691c-0.143-3.684-0.039-7.578,0.305-11.576
					c0.561-6.521,1.588-11.213,1.684-11.638l-0.76-0.027c-0.045,0.102-0.305,0.695-0.68,1.683
					C267.568,206.385,265.025,221.984,268.279,236.025z"/>
			</g>
			<g>
				<path fill="#83301A" d="M268.291,236.082l-0.037-0.008c-2.35-0.373-3.73-0.971-3.744-0.977l-0.014-0.006l-0.004-0.014
					c-1.092-6.182-0.988-12.971,0.309-20.182c1.068-5.943,2.701-10.68,3.576-12.973l0.049,0.014
					c-0.857,4.451-3.404,20.059-0.145,34.105L268.291,236.082z M264.543,235.057c0.141,0.057,1.479,0.605,3.68,0.961
					c-3.182-13.76-0.807-29.002,0.098-33.803c-0.895,2.383-2.441,6.979-3.471,12.691
					C263.555,222.105,263.451,228.883,264.543,235.057z"/>
			</g>
			<g>
				<path fill="#83301A" d="M285.617,232.863l-0.01-0.027c-3.842-8.68-6.205-17.014-7.512-22.475
					c-1.414-5.92-1.926-9.836-1.932-9.876l0.047-0.012c2.672,7.13,7.141,13.548,10.418,17.675c3.553,4.473,6.51,7.297,6.541,7.324
					l0.012,0.014l-0.008,0.018c-0.021,0.041-2.176,4.207-7.531,7.346L285.617,232.863z M276.244,200.704
					c0.131,0.912,0.68,4.531,1.9,9.644c1.305,5.455,3.664,13.775,7.496,22.441c2.779-1.633,4.666-3.529,5.76-4.834
					c1.104-1.318,1.643-2.314,1.719-2.457c-0.229-0.221-3.104-3-6.529-7.314C283.344,214.092,278.928,207.756,276.244,200.704z"/>
			</g>
			<g>
				<path fill="#83301A" d="M284.318,233.57l-0.012-0.025c-3.688-8.225-5.969-16.775-7.23-22.502
					c-1.367-6.201-1.871-10.515-1.877-10.558v-0.004l0.01-0.059h0.021l0.98,0.033l0.002,0.023c0.006,0.039,0.518,3.953,1.932,9.869
					c1.307,5.461,3.668,13.791,7.506,22.467l0.012,0.021l-0.02,0.014c-0.43,0.252-0.871,0.49-1.303,0.707L284.318,233.57z
					 M275.252,200.482c0.016,0.146,0.523,4.426,1.873,10.551c1.262,5.717,3.537,14.252,7.217,22.465
					c0.418-0.209,0.84-0.439,1.254-0.684c-3.836-8.672-6.195-16.996-7.5-22.453c-1.359-5.689-1.887-9.529-1.93-9.854l-0.914-0.032
					V200.482z"/>
			</g>
		</g>
		<g>
			<g>
				<path fill="#009ADA" d="M298.564,227.234l-5.414-1.742c0,0-2.844,5.623-10.418,8.777c2.361-0.848,5.949-1.684,7.35,0.369
					c1.094,1.6,0.713,4.006-0.666,6.379C294.582,237.121,297.936,231.381,298.564,227.234z"/>
			</g>
		</g>
		<g>
			<g>
				<path fill="#FCCFAB" d="M307.953,203.936c-0.902,0.311-3.246,0.994-3.246,0.994s1.201-0.994,2.043-1.93
					c0.844-0.932,0.664-1.742-0.121-1.367c-0.779,0.373-2.764,2.238-2.764,2.238l0.541-1.492c0.721-2.3,0-2.799-0.482-1.742
					c-0.48,1.056-1.504,2.863-1.504,2.863s0.422-2.8-0.361-3.236c-0.781-0.435-0.602,1.306-0.961,2.55
					c-0.133,0.459-0.35,0.797-0.566,1.045c-0.275,0.436-0.637,1.357,0.318,2.346c0.033,0.035,0.049,0.074,0.076,0.109
					c0.361,0.229,0.76,0.521,1.195,0.918c1.561,1.432,3.307,2.551,3.428,1.74c0.119-0.809-0.963-1.615-0.963-2.238
					c0-0.621,1.805-0.748,3.127-1.307C309.037,204.867,308.857,203.625,307.953,203.936z"/>
				<path fill="#83301A" d="M305.225,209.271L305.225,209.271c-0.676,0-2.104-1.088-3.123-2.02
					c-0.385-0.354-0.773-0.652-1.189-0.916l-0.008-0.006c-0.01-0.014-0.02-0.029-0.029-0.043c-0.012-0.023-0.023-0.043-0.045-0.063
					c-0.957-0.992-0.613-1.918-0.32-2.381c0.26-0.293,0.447-0.643,0.564-1.037c0.115-0.404,0.176-0.871,0.23-1.283
					c0.098-0.756,0.176-1.354,0.535-1.354c0.07,0,0.146,0.025,0.23,0.073c0.334,0.186,0.498,0.791,0.488,1.802
					c-0.006,0.555-0.064,1.086-0.096,1.326c0.234-0.416,1.033-1.854,1.436-2.744c0.16-0.348,0.35-0.547,0.521-0.547
					c0.074,0,0.141,0.039,0.189,0.112c0.262,0.367,0.078,1.374-0.182,2.196l-0.504,1.393c0.375-0.348,2.006-1.844,2.697-2.172
					c0.133-0.064,0.252-0.096,0.355-0.096c0.152,0,0.266,0.07,0.318,0.197c0.127,0.301-0.08,0.814-0.523,1.307
					c-0.697,0.773-1.652,1.598-1.953,1.852c0.488-0.143,2.354-0.691,3.127-0.959c0.1-0.035,0.191-0.051,0.275-0.051
					c0.242,0,0.42,0.141,0.461,0.369c0.07,0.363-0.201,0.902-0.959,1.223c-0.486,0.205-1.043,0.355-1.535,0.486
					c-0.844,0.227-1.574,0.422-1.574,0.797c0,0.268,0.209,0.576,0.432,0.904c0.293,0.432,0.598,0.879,0.529,1.34
					C305.545,209.17,305.424,209.271,305.225,209.271z M300.943,206.295c0.416,0.264,0.807,0.564,1.193,0.916
					c1.311,1.201,2.553,2.008,3.088,2.008l0,0c0.174,0,0.273-0.08,0.299-0.248c0.064-0.441-0.23-0.879-0.52-1.303
					c-0.229-0.334-0.443-0.65-0.443-0.934c0-0.416,0.713-0.605,1.613-0.848c0.492-0.131,1.047-0.279,1.529-0.484
					c0.531-0.223,1.02-0.695,0.93-1.164c-0.037-0.203-0.191-0.326-0.412-0.326c-0.078,0-0.166,0.016-0.258,0.047
					c-0.893,0.309-3.227,0.988-3.25,0.996l-0.021-0.045c0.01-0.01,1.209-1.006,2.041-1.928c0.492-0.543,0.615-1.02,0.516-1.25
					c-0.078-0.189-0.309-0.219-0.607-0.076c-0.768,0.369-2.742,2.217-2.76,2.236l-0.041-0.029l0.541-1.492
					c0.387-1.232,0.35-1.917,0.189-2.148c-0.043-0.059-0.092-0.09-0.15-0.09c-0.15,0-0.328,0.192-0.473,0.516
					c-0.475,1.044-1.496,2.845-1.504,2.863l-0.047-0.016c0.002-0.027,0.406-2.788-0.35-3.208c-0.076-0.042-0.146-0.065-0.207-0.065
					c-0.314,0-0.391,0.606-0.484,1.309c-0.053,0.414-0.115,0.883-0.234,1.291c-0.117,0.402-0.311,0.758-0.572,1.053
					c-0.279,0.447-0.613,1.346,0.318,2.313c0.023,0.023,0.037,0.047,0.053,0.07C300.928,206.271,300.936,206.283,300.943,206.295z"
					/>
			</g>
		</g>
	</g>
	<g>
		<g>
			<g>
				<path opacity="0.56" fill="#E0E0E0" d="M212.502,246.137c0.455,16.178,7.35,24.922,3.939,25.064
					c-5.564,0.234-12.656-3.965-11.641-17.459c0.406-5.385-3.897-8.471-4.06-14.293c-0.455-16.176,11.251-19.385,14.664-19.445
					C218.816,219.941,212.047,229.959,212.502,246.137z"/>
				<path fill="#FCF0DE" d="M227.213,238.23c-0.393,4.02-1.734,11.715-1.291,13.652c0.715,3.129,1.789,9.197,0.033,14.227
					s-8.707,5.135-12.006,4.855c-3.301-0.279-7.906-4.824-6.863-12.604c0.398-2.975,0.244-5.949-0.117-8.822
					c0,0-0.004-0.016-0.006-0.049c-1.549-12.238-5.828-20.719,5.807-28.506c0,0,3.295-1.902,5.889-1.242s6.957,2.076,8.619,7.48
					C227.99,229.541,227.709,233.838,227.213,238.23z"/>
				<g>
					<path fill="#B5A895" d="M227.213,238.23c-0.051,0.445-0.107,0.891-0.162,1.334C227.109,239.121,227.164,238.676,227.213,238.23
						z"/>
					<path fill="#B5A895" d="M226.857,262.682c0.711-6.229-2.215-9.104-0.848-15.115c-0.463,3.465-0.146,3.945,0.416,7.391
						c0.592,3.641,0.746,10.561-1.994,13.326c-2.701,2.725-11.34,4.467-14.945-0.449c-2.98-4.061-1.936-8.469-1.838-12.916
						c0.215-9.785-5.246-20.725-0.424-28.379c2.723-4.32,8.719-8.816,14.836-5.549c2.904,1.553,4.953,4.445,5.406,7.201
						c0.479,2.916,0.051,7.207-0.293,10.391c0.521-4.543,1.553-9.986-1.24-14.184c-1.23-1.848-3.109-3.477-5.516-4.279
						c-5.828-1.949-11.518,2.523-13.629,6.584c-4.795,9.227,0.051,17.596,0.09,27.75c0.014,3.176-0.639,6.545,0.186,9.65
						c1.572,5.922,5.963,8.428,12.879,6.949C225.039,269.963,226.387,266.822,226.857,262.682z"/>
					<path fill="#B5A895" d="M226.01,247.566c0.018-0.145,0.709-7.252,0.811-8.068C226.479,242.092,226.141,245.307,226.01,247.566z
						"/>
				</g>
				<path fill="#2B136D" d="M225.922,251.883c0.715,3.129,1.789,9.197,0.033,14.227s-8.707,5.135-12.006,4.855
					c-3.301-0.279-7.906-4.824-6.863-12.604c0.398-2.975,0.244-5.949-0.117-8.822c0,0-0.004-0.016-0.006-0.049
					c-0.068-0.785-0.941-10.914-0.992-14.363c-0.057-3.508,2.002-6.445,3.707-9.379c0-0.004,0.002-0.008,0.006-0.01
					c1.064-1.834,3.498-3.354,5.588-4.119c0,0,0.002,0,0.006-0.002c5.619-0.82,6.629,0.648,9.598,3.301
					c2.971,2.656,2.182,11.578,2.184,11.598l0.061,1.422c0.008,0.195,0.004,0.391-0.018,0.586
					C226.68,242.613,225.488,249.99,225.922,251.883z"/>
				<path fill="#C98C3D" d="M224.484,265.684c-0.463,0.572-0.914,1.094-1.4,1.555c-4.072,3.832-11.768,2.367-13.818-2.137
					c-1.178-2.584,3.035-15.063,3.035-15.063l0.664-3.207c0.938,0.092-3.395-0.332,9.166,0.9c0.02,0.076,0.215,0.828,0.559,2.287
					C223.74,254.484,225.797,264.063,224.484,265.684z"/>
				<path fill="#C98C3D" d="M223.627,267.109c-4.541,2.484-2.975,1.627-3.313,1.813c-4.25,1.41-9.406-0.213-11.049-3.82
					c-1.178-2.584,3.035-15.063,3.035-15.063l0.664-3.207l8.41,0.826c0.285,0.123,0.564,0.242,0.828,0.357
					c0.094,0.367,0.268,1.076,0.486,2.004c-3.828,1.371-10.855,4.775-10.258,11.188c0.705,7.559,8.498,6.477,10.652,6.031
					C223.404,267.17,223.6,267.117,223.627,267.109z"/>
				<path fill="#4E44B2" d="M206.896,231.242c0,0,6.457,13.529,5.9,15.869c-0.555,2.338-3.412,6.775-0.84,8.65
					c2.574,1.873,8.1,1.225,10.436,0.217c2.334-1.008,0.613-4.174-0.484-9.09c-1.1-4.916,4.576-15.355,4.576-15.355L206.896,231.242
					z"/>
				<path fill="#9A98ED" d="M212.482,250.756c-1.533,3.098-0.131,4.793,2.254,5.135c1.525,0.219,3.186,0.127,4.715,0
					c1.543-0.125,2.939-0.682,2.791-2.092c-0.096-0.896-0.273-1.789-0.533-2.664c0.805,2.711,1.174,3.797,0.152,4.277
					c-1.98,0.91-7.721,1.26-9.387-0.188C211.23,254.145,211.666,252.137,212.482,250.756z"/>
				<path fill="#FFF7E9" d="M227.09,231.852c-6.9,2.064-16.123,0.639-20.506-0.225c0.428-1.223,2.344-5.293,2.791-6.063
					c0-0.004,1.994-3.885,5.885-3.941c0.008-0.002,0.012-0.004,0.012-0.004s0.002,0,0.006-0.002c4.92-0.668,6.629,0.648,9.598,3.301
					C226.387,226.27,226.926,229.25,227.09,231.852z"/>
				<path fill="#FFFFFF" d="M227.174,238.582c-0.211-3.326-0.27-8.057-1.428-10.883c-0.994-2.439-2.957-5.023-6.258-5.871
					c-2.102-0.539-4.83,0.008-4.83,0.008c-2.195,0.588-3.838,2.281-4.975,3.902c-0.004,0.002-0.006,0.006-0.006,0.01
					c-2.021,2.867-3.012,6.068-3.344,9.369c-0.223,2.213,0.434,12.109,0.484,12.656c-0.611-3.961-1.865-8.186-1.771-11.391
					c0.191-6.586,0.908-10.697,7.232-15.041c1.322-0.908,4.383-2.104,6.977-1.443C228.766,222.316,228.207,229.82,227.174,238.582z"
					/>
				<path fill="#FC1728" d="M227.08,236.91c-0.23-3.324-0.342-7.234-1.969-10.328c-1.98-3.766-5.396-5.182-8.654-4.945
					c-3.092,0.223-5.174,2.105-6.664,4.133c-4.539,6.174-3.461,12.254-2.982,21.91c-1.014-12.107-0.693-12.531,0.23-16.746
					c0.898-2.998,2.533-6.602,5.865-8.396c2.561-1.381,6.172-1.355,8.705,0.057C226.541,225.346,227.094,232.232,227.08,236.91z"/>
				<path fill="#FF001F" d="M221.061,269.287l0.818,0.801c-0.428,0.203-1.736,0.596-1.736,0.596
					c-2.318,0.682-6.193,0.281-6.193,0.281l0.98-1.59L221.061,269.287z"/>
				<path fill="#433596" d="M213.16,246.832c0,0-4.475,14.078-3.688,16.58s2.363,4.189,5.008,5.094s6.99-0.057,8.084-1.17
					c1.092-1.115,1.518-2.271,1.619-4.857c0.098-2.467-2.053-14.746-2.053-14.746s3.5,14.25,3.297,16.107
					c-0.201,1.857-1.586,3.951-3.207,5s-6.984,0.984-9.648-0.051c-2.666-1.037-4.627-4.895-4.172-6.678
					C208.855,260.326,213.16,246.832,213.16,246.832z"/>
				<path fill="#2B136D" d="M206.943,231.695c0,0,7.984,15.689,8.287,17.648s0.303,1.959,0.303,1.959s-4.402,1.578-4.895,3.217
					C210.146,256.156,206.943,231.695,206.943,231.695z"/>
				<path fill="#2B136D" d="M226.648,232.275c0,0-7.695,14.994-7.824,16.965c-0.129,1.973-0.129,1.973-0.129,1.973
					s4.529,1.324,5.164,2.93S226.648,232.275,226.648,232.275z"/>
				<path opacity="0.21" fill="#B1B1EF" d="M210.098,233.357c0,0,10.957,0.895,13.008,0.252c2.049-0.641-2.463,7.783-4.977,8.75
					C215.613,243.324,209.043,234.334,210.098,233.357z"/>
				<path opacity="0.42" fill="#FFFAFB" d="M218.23,224.014c-0.535-0.234-1.781-0.719-4.529,0.785
					c-3.662,2.004-5.014,5.051-4.568,5.619c0.646,0.826,11.6,1.113,13.816,1.262S225.58,227.225,218.23,224.014z"/>
				<path fill="#130644" d="M213.781,248.221c-0.227,0.279-0.691,0.357-1.037,0.176c-0.348-0.184-0.445-0.557-0.217-0.836
					C213.07,246.893,214.324,247.553,213.781,248.221z"/>
				<path fill="#FF001F" d="M212.674,248.482c-0.973-0.512-0.01-1.693,0.961-1.182c0.404,0.213,0.518,0.65,0.252,0.977
					C213.623,248.604,213.078,248.695,212.674,248.482z M213.494,247.473c-0.287-0.152-0.674-0.086-0.861,0.145
					s-0.107,0.541,0.18,0.693c0.287,0.15,0.674,0.086,0.861-0.145C213.861,247.934,213.781,247.623,213.494,247.473z"/>
				<path fill="#130644" d="M213.682,250.992c-0.346-0.182-0.443-0.557-0.217-0.836c0.227-0.277,0.691-0.355,1.037-0.174
					C215.332,250.42,214.512,251.43,213.682,250.992z"/>
				<path fill="#FF001F" d="M213.357,250.102c0.266-0.326,0.811-0.418,1.215-0.205s0.52,0.652,0.254,0.979
					C214.189,251.656,212.723,250.883,213.357,250.102z M214.434,250.068c-0.287-0.15-0.674-0.086-0.861,0.145
					c-0.451,0.555,0.59,1.102,1.041,0.549C214.801,250.531,214.719,250.221,214.434,250.068z"/>
				<path fill="#130644" d="M220.902,250.67c-0.543,0.666-1.799,0.008-1.256-0.662c0.229-0.277,0.691-0.357,1.039-0.174
					C221.031,250.016,221.129,250.391,220.902,250.67z"/>
				<path fill="#FF001F" d="M219.541,249.951c0.266-0.324,0.809-0.416,1.215-0.203c0.404,0.213,0.518,0.652,0.252,0.977
					C220.373,251.508,218.906,250.732,219.541,249.951z M220.615,249.92c-0.287-0.15-0.674-0.086-0.861,0.145
					c-0.451,0.555,0.592,1.102,1.041,0.549C220.982,250.381,220.902,250.07,220.615,249.92z"/>
				<path fill="#130644" d="M220.18,248.475c-0.83-0.438-0.01-1.447,0.82-1.01C221.348,247.648,221.01,248.912,220.18,248.475z"/>
				<path fill="#FF001F" d="M219.855,247.582c0.637-0.781,2.104-0.006,1.469,0.773C221.059,248.682,219.221,248.363,219.855,247.582
					z M220.07,247.695c-0.451,0.555,0.59,1.104,1.041,0.549C221.299,248.014,220.52,247.143,220.07,247.695z"/>
				<path fill="#FFF7E9" d="M220.498,250.807c-1-0.068-5.875-0.291-6.746,0.102c-0.289-0.152-0.367-0.465-0.18-0.695
					c2.605-1.102,3.477-1.617,7.123-0.242c0.004,0,0.004,0.002,0.006,0.004C221.018,250.211,220.947,250.67,220.498,250.807z"/>
				<path fill="#FFF7E9" d="M220.74,248.455c-1.49-0.105-6.424-0.416-7.859-0.115c-0.361-0.152-0.439-0.488-0.248-0.723
					c3.203-1.42,4.006-1.795,8.395-0.002C221.379,247.896,221.197,248.369,220.74,248.455z"/>
				<g>
					<path fill="#130644" d="M212.77,245.432c-0.543,0.668-1.797,0.008-1.254-0.66S213.313,244.764,212.77,245.432z"/>
					<path fill="#FF001F" d="M211.408,244.715c0.637-0.781,2.104-0.008,1.469,0.773C212.24,246.271,210.773,245.496,211.408,244.715
						z M211.621,244.828c-0.449,0.555,0.592,1.102,1.041,0.547C213.113,244.822,212.072,244.273,211.621,244.828z"/>
					<path fill="#130644" d="M222.273,245.402c-0.543,0.668-1.799,0.008-1.254-0.66
						C221.563,244.074,222.816,244.734,222.273,245.402z"/>
					<path fill="#FF001F" d="M220.912,244.686c0.637-0.781,2.104-0.008,1.469,0.773C221.744,246.24,220.277,245.467,220.912,244.686
						z M221.125,244.799c-0.449,0.555,0.592,1.102,1.041,0.549C222.617,244.793,221.576,244.244,221.125,244.799z"/>
					<path fill="#FFF7E9" d="M221.836,245.551c0,0-0.002-0.002-0.002,0c-0.006,0-0.014,0.002-0.021,0.002
						c-0.67-0.055-8.439-0.48-9.455-0.084c-0.143,0.055-0.268,0.092-0.379,0.113c-0.537-0.107-0.635-0.725-0.104-0.934
						c0.088,0.008,3.059-1.469,5.129-1.35c1.729,0.098,4.701,1.283,4.928,1.328c0.004,0,0.004,0,0.004,0.002
						C222.412,244.816,222.369,245.414,221.836,245.551z"/>
					<path opacity="0.42" fill="#FFFAFB" d="M212.545,244.818c-0.064-0.031,2.822-1.143,3.748-1.156s4.377,0.916,5.02,1.234
						c0,0-0.051,0.188,0.02,0.305c0.068,0.119-8.527-0.031-8.527-0.031S212.721,244.9,212.545,244.818z"/>
				</g>
				<g>
					<path fill="#130644" d="M211.801,242.57c-0.543,0.666-1.799,0.008-1.256-0.662C211.088,241.242,212.344,241.9,211.801,242.57z"
						/>
					<path fill="#FF001F" d="M210.439,241.852c0.635-0.781,2.102-0.008,1.467,0.773
						C211.271,243.408,209.805,242.633,210.439,241.852z M210.652,241.965c-0.188,0.23-0.107,0.543,0.18,0.693
						s0.674,0.086,0.861-0.145C212.145,241.959,211.104,241.412,210.652,241.965z"/>
					<path fill="#130644" d="M222.428,243.01c-0.346-0.182-0.443-0.557-0.217-0.836s0.691-0.357,1.037-0.174
						C224.078,242.438,223.258,243.447,222.428,243.01z"/>
					<path fill="#FF001F" d="M222.357,243.096c-0.404-0.213-0.518-0.652-0.254-0.979c0.266-0.324,0.811-0.416,1.215-0.203
						C224.289,242.426,223.328,243.607,222.357,243.096z M222.318,242.23c-0.188,0.23-0.107,0.541,0.18,0.693
						c0.287,0.15,0.674,0.086,0.861-0.145C223.809,242.225,222.768,241.678,222.318,242.23z"/>
					<path fill="#FFF7E9" d="M222.996,242.988c-2.197-0.102-11.992-0.242-12.006-0.248c-0.535-0.283-0.508-0.861,0.018-1.043
						c0.008,0,3.73-1.594,6.336-1.34c1.787,0.172,4.494,1.248,5.846,1.736C223.631,242.336,223.506,242.883,222.996,242.988z"/>
					<path opacity="0.42" fill="#FFFAFB" d="M211.576,241.955c-0.066-0.031,2.82-1.143,3.746-1.156
						c0.926-0.012,4.377,0.918,5.021,1.234c0,0-0.051,0.188,0.018,0.307c0.068,0.117-8.525-0.033-8.525-0.033
						S211.75,242.037,211.576,241.955z"/>
				</g>
				<path opacity="0.42" fill="#FFFAFB" d="M213.826,247.4c0,0-0.205-0.061,0.232,0.246c0.436,0.307,5.736,0.541,5.979,0.322
					C220.279,247.748,216.633,245.979,213.826,247.4z"/>
			</g>
		</g>
		<g>
			<g>
				<path opacity="0.56" fill="#E0E0E0" d="M247.559,246.137c-0.455,16.178-7.348,24.922-3.939,25.064
					c5.564,0.234,12.656-3.965,11.641-17.459c-0.406-5.385,3.896-8.471,4.061-14.293c0.455-16.176-11.252-19.385-14.664-19.445
					C241.244,219.941,248.014,229.959,247.559,246.137z"/>
				<path fill="#FCF0DE" d="M232.848,238.23c0.393,4.02,1.736,11.715,1.293,13.652c-0.715,3.129-1.789,9.197-0.035,14.227
					c1.756,5.029,8.707,5.135,12.006,4.855c3.301-0.279,7.906-4.824,6.863-12.604c-0.398-2.975-0.244-5.949,0.119-8.822
					c0,0,0.002-0.016,0.004-0.049c1.551-12.238,5.83-20.719-5.807-28.506c0,0-3.295-1.902-5.889-1.242s-6.955,2.076-8.617,7.48
					C232.072,229.541,232.352,233.838,232.848,238.23z"/>
				<g>
					<path fill="#B5A895" d="M232.848,238.23c0.051,0.445,0.107,0.891,0.164,1.334C232.953,239.121,232.896,238.676,232.848,238.23z
						"/>
					<path fill="#B5A895" d="M233.203,262.682c-0.709-6.229,2.215-9.104,0.85-15.115c0.461,3.465,0.145,3.945-0.416,7.391
						c-0.594,3.641-0.748,10.561,1.994,13.326c2.701,2.725,11.34,4.467,14.945-0.449c2.979-4.061,1.936-8.469,1.838-12.916
						c-0.217-9.785,5.246-20.725,0.422-28.379c-2.721-4.32-8.719-8.816-14.836-5.549c-2.904,1.553-4.953,4.445-5.404,7.201
						c-0.48,2.916-0.053,7.207,0.291,10.391c-0.521-4.543-1.551-9.986,1.242-14.184c1.23-1.848,3.109-3.477,5.514-4.279
						c5.828-1.949,11.52,2.523,13.629,6.584c4.797,9.227-0.051,17.596-0.09,27.75c-0.012,3.176,0.639,6.545-0.186,9.65
						c-1.572,5.922-5.961,8.428-12.879,6.949C235.021,269.963,233.676,266.822,233.203,262.682z"/>
					<path fill="#B5A895" d="M234.053,247.566c-0.02-0.145-0.711-7.252-0.813-8.068C233.582,242.092,233.92,245.307,234.053,247.566
						z"/>
				</g>
				<path fill="#2B136D" d="M234.141,251.883c-0.715,3.129-1.789,9.197-0.035,14.227c1.756,5.029,8.707,5.135,12.006,4.855
					c3.301-0.279,7.906-4.824,6.863-12.604c-0.398-2.975-0.244-5.949,0.119-8.822c0,0,0.002-0.016,0.004-0.049
					c0.068-0.785,0.941-10.914,0.992-14.363c0.057-3.508-2.002-6.445-3.707-9.379c0-0.004-0.002-0.008-0.004-0.01
					c-1.066-1.834-3.5-3.354-5.59-4.119c0,0-0.002,0-0.004-0.002c-5.619-0.82-6.631,0.648-9.6,3.301
					c-2.969,2.656-2.182,11.578-2.184,11.598l-0.061,1.422c-0.008,0.195-0.002,0.391,0.018,0.586
					C233.381,242.613,234.572,249.99,234.141,251.883z"/>
				<path fill="#C98C3D" d="M235.578,265.684c0.461,0.572,0.912,1.094,1.4,1.555c4.07,3.832,11.766,2.367,13.816-2.137
					c1.178-2.584-3.035-15.063-3.035-15.063l-0.664-3.207c-0.938,0.092,3.395-0.332-9.166,0.9c-0.018,0.076-0.215,0.828-0.559,2.287
					C236.32,254.484,234.264,264.063,235.578,265.684z"/>
				<path fill="#C98C3D" d="M236.434,267.109c4.541,2.484,2.977,1.627,3.314,1.813c4.248,1.41,9.404-0.213,11.047-3.82
					c1.178-2.584-3.035-15.063-3.035-15.063l-0.664-3.207l-8.408,0.826c-0.287,0.123-0.564,0.242-0.828,0.357
					c-0.094,0.367-0.27,1.076-0.488,2.004c3.83,1.371,10.855,4.775,10.258,11.188c-0.705,7.559-8.498,6.477-10.65,6.031
					C236.658,267.17,236.461,267.117,236.434,267.109z"/>
				<path fill="#4E44B2" d="M253.166,231.242c0,0-6.459,13.529-5.902,15.869c0.555,2.338,3.414,6.775,0.84,8.65
					c-2.574,1.873-8.1,1.225-10.434,0.217c-2.336-1.008-0.615-4.174,0.484-9.09s-4.576-15.355-4.576-15.355L253.166,231.242z"/>
				<path fill="#9A98ED" d="M247.58,250.756c1.531,3.098,0.129,4.793-2.256,5.135c-1.523,0.219-3.186,0.127-4.713,0
					c-1.545-0.125-2.941-0.682-2.791-2.092c0.094-0.896,0.273-1.789,0.533-2.664c-0.805,2.711-1.176,3.797-0.154,4.277
					c1.98,0.91,7.721,1.26,9.387-0.188C248.832,254.145,248.395,252.137,247.58,250.756z"/>
				<path fill="#FFF7E9" d="M232.971,231.852c6.902,2.064,16.123,0.639,20.506-0.225c-0.428-1.223-2.342-5.293-2.791-6.063
					c0-0.004-1.994-3.885-5.885-3.941c-0.006-0.002-0.012-0.004-0.012-0.004s-0.002,0-0.004-0.002
					c-4.92-0.668-6.631,0.648-9.6,3.301C233.676,226.27,233.135,229.25,232.971,231.852z"/>
				<path fill="#FFFFFF" d="M232.887,238.582c0.213-3.326,0.271-8.057,1.428-10.883c0.996-2.439,2.957-5.023,6.258-5.871
					c2.102-0.539,4.832,0.008,4.832,0.008c2.193,0.588,3.836,2.281,4.975,3.902c0.002,0.002,0.004,0.006,0.004,0.01
					c2.021,2.867,3.012,6.068,3.344,9.369c0.223,2.213-0.432,12.109-0.482,12.656c0.609-3.961,1.863-8.186,1.771-11.391
					c-0.191-6.586-0.91-10.697-7.234-15.041c-1.322-0.908-4.383-2.104-6.977-1.443C231.297,222.316,231.855,229.82,232.887,238.582z
					"/>
				<path fill="#FC1728" d="M232.98,236.91c0.23-3.324,0.344-7.234,1.969-10.328c1.98-3.766,5.398-5.182,8.654-4.945
					c3.094,0.223,5.174,2.105,6.664,4.133c4.539,6.174,3.461,12.254,2.984,21.91c1.012-12.107,0.691-12.531-0.232-16.746
					c-0.898-2.998-2.533-6.602-5.863-8.396c-2.563-1.381-6.172-1.355-8.705,0.057C233.521,225.346,232.967,232.232,232.98,236.91z"
					/>
				<path fill="#FF001F" d="M239.002,269.287l-0.818,0.801c0.426,0.203,1.734,0.596,1.734,0.596
					c2.318,0.682,6.193,0.281,6.193,0.281l-0.98-1.59L239.002,269.287z"/>
				<path fill="#433596" d="M246.902,246.832c0,0,4.473,14.078,3.686,16.58s-2.363,4.189-5.008,5.094
					c-2.643,0.904-6.988-0.057-8.082-1.17c-1.094-1.115-1.52-2.271-1.621-4.857c-0.096-2.467,2.053-14.746,2.053-14.746
					s-3.5,14.25-3.297,16.107s1.588,3.951,3.209,5s6.982,0.984,9.646-0.051c2.666-1.037,4.629-4.895,4.172-6.678
					C251.205,260.326,246.902,246.832,246.902,246.832z"/>
				<path fill="#2B136D" d="M253.119,231.695c0,0-7.986,15.689-8.289,17.648c-0.301,1.959-0.301,1.959-0.301,1.959
					s4.402,1.578,4.895,3.217C249.914,256.156,253.119,231.695,253.119,231.695z"/>
				<path fill="#2B136D" d="M233.414,232.275c0,0,7.693,14.994,7.822,16.965c0.131,1.973,0.131,1.973,0.131,1.973
					s-4.531,1.324-5.164,2.93C235.568,255.748,233.414,232.275,233.414,232.275z"/>
				<path opacity="0.21" fill="#B1B1EF" d="M249.963,233.357c0,0-10.957,0.895-13.006,0.252c-2.051-0.641,2.461,7.783,4.977,8.75
					C244.447,243.324,251.018,234.334,249.963,233.357z"/>
				<path opacity="0.42" fill="#FFFAFB" d="M241.832,224.014c0.535-0.234,1.779-0.719,4.527,0.785
					c3.662,2.004,5.014,5.051,4.568,5.619c-0.646,0.826-11.598,1.113-13.816,1.262C234.896,231.828,234.482,227.225,241.832,224.014
					z"/>
				<path fill="#130644" d="M246.279,248.221c0.227,0.279,0.691,0.357,1.039,0.176c0.346-0.184,0.443-0.557,0.217-0.836
					C246.992,246.893,245.736,247.553,246.279,248.221z"/>
				<path fill="#FF001F" d="M246.174,248.277c-0.266-0.326-0.152-0.764,0.254-0.977c0.969-0.512,1.932,0.67,0.959,1.182
					C246.982,248.695,246.438,248.604,246.174,248.277z M246.387,248.166c0.188,0.23,0.574,0.295,0.861,0.145
					c0.287-0.152,0.367-0.463,0.18-0.693s-0.574-0.297-0.861-0.145C246.279,247.623,246.199,247.934,246.387,248.166z"/>
				<path fill="#130644" d="M246.379,250.992c0.348-0.182,0.443-0.557,0.217-0.836c-0.227-0.277-0.691-0.355-1.037-0.174
					C244.729,250.42,245.549,251.43,246.379,250.992z"/>
				<path fill="#FF001F" d="M245.234,250.875c-0.264-0.326-0.15-0.766,0.254-0.979s0.949-0.121,1.215,0.205
					C247.338,250.883,245.871,251.656,245.234,250.875z M245.449,250.762c0.449,0.553,1.49,0.006,1.039-0.549
					c-0.188-0.23-0.572-0.295-0.859-0.145C245.342,250.221,245.262,250.531,245.449,250.762z"/>
				<path fill="#130644" d="M239.16,250.67c0.541,0.666,1.797,0.008,1.254-0.662c-0.227-0.277-0.691-0.357-1.037-0.174
					C239.029,250.016,238.934,250.391,239.16,250.67z"/>
				<path fill="#FF001F" d="M239.053,250.725c-0.266-0.324-0.15-0.764,0.254-0.977s0.949-0.121,1.215,0.203
					C241.156,250.732,239.688,251.508,239.053,250.725z M239.266,250.613c0.451,0.553,1.492,0.006,1.041-0.549
					c-0.188-0.23-0.574-0.295-0.861-0.145S239.078,250.381,239.266,250.613z"/>
				<path fill="#130644" d="M239.881,248.475c0.83-0.438,0.01-1.447-0.82-1.01C238.715,247.648,239.051,248.912,239.881,248.475z"/>
				<path fill="#FF001F" d="M238.738,248.355c-0.637-0.779,0.83-1.555,1.467-0.773C240.84,248.363,239.002,248.682,238.738,248.355z
					 M238.951,248.244c0.449,0.555,1.492,0.006,1.041-0.549C239.541,247.143,238.764,248.014,238.951,248.244z"/>
				<path fill="#FFF7E9" d="M239.564,250.807c1-0.068,5.873-0.291,6.744,0.102c0.289-0.152,0.367-0.465,0.182-0.695
					c-2.607-1.102-3.477-1.617-7.125-0.242c-0.002,0-0.004,0.002-0.006,0.004C239.043,250.211,239.115,250.67,239.564,250.807z"/>
				<path fill="#FFF7E9" d="M239.32,248.455c1.49-0.105,6.426-0.416,7.859-0.115c0.363-0.152,0.439-0.488,0.248-0.723
					c-3.201-1.42-4.006-1.795-8.395-0.002C238.684,247.896,238.863,248.369,239.32,248.455z"/>
				<g>
					<path fill="#130644" d="M247.291,245.432c0.543,0.668,1.799,0.008,1.254-0.66C248.004,244.104,246.748,244.764,247.291,245.432
						z"/>
					<path fill="#FF001F" d="M247.186,245.488c-0.637-0.781,0.83-1.555,1.467-0.773C249.287,245.496,247.82,246.271,247.186,245.488
						z M247.398,245.375c0.449,0.555,1.49,0.008,1.041-0.547C247.988,244.273,246.947,244.822,247.398,245.375z"/>
					<path fill="#130644" d="M237.787,245.402c0.543,0.668,1.799,0.008,1.256-0.66S237.244,244.734,237.787,245.402z"/>
					<path fill="#FF001F" d="M237.682,245.459c-0.635-0.781,0.832-1.555,1.467-0.773
						C239.785,245.467,238.316,246.24,237.682,245.459z M237.895,245.348c0.451,0.553,1.492,0.006,1.041-0.549
						S237.443,244.793,237.895,245.348z"/>
					<path fill="#FFF7E9" d="M238.225,245.551c0,0,0.002-0.002,0.004,0c0.006,0,0.012,0.002,0.02,0.002
						c0.67-0.055,8.439-0.48,9.455-0.084c0.143,0.055,0.268,0.092,0.381,0.113c0.535-0.107,0.633-0.725,0.102-0.934
						c-0.088,0.008-3.057-1.469-5.129-1.35c-1.729,0.098-4.699,1.283-4.928,1.328c-0.002,0-0.002,0-0.004,0.002
						C237.648,244.816,237.693,245.414,238.225,245.551z"/>
					<path opacity="0.42" fill="#FFFAFB" d="M247.516,244.818c0.064-0.031-2.822-1.143-3.748-1.156s-4.375,0.916-5.02,1.234
						c0,0,0.051,0.188-0.018,0.305c-0.068,0.119,8.525-0.031,8.525-0.031S247.342,244.9,247.516,244.818z"/>
				</g>
				<g>
					<path fill="#130644" d="M248.262,242.57c0.541,0.666,1.797,0.008,1.254-0.662C248.973,241.242,247.717,241.9,248.262,242.57z"
						/>
					<path fill="#FF001F" d="M248.154,242.625c-0.635-0.781,0.832-1.555,1.469-0.773
						C250.258,242.633,248.789,243.408,248.154,242.625z M248.367,242.514c0.189,0.23,0.574,0.295,0.861,0.145
						s0.367-0.463,0.18-0.693C248.959,241.412,247.916,241.959,248.367,242.514z"/>
					<path fill="#130644" d="M237.633,243.01c0.348-0.182,0.443-0.557,0.217-0.836s-0.691-0.357-1.037-0.174
						C235.984,242.438,236.803,243.447,237.633,243.01z"/>
					<path fill="#FF001F" d="M236.742,241.914c0.406-0.213,0.949-0.121,1.215,0.203c0.266,0.326,0.152,0.766-0.254,0.979
						C236.734,243.607,235.771,242.426,236.742,241.914z M236.703,242.779c0.188,0.23,0.574,0.295,0.861,0.145
						c0.287-0.152,0.367-0.463,0.18-0.693C237.293,241.678,236.252,242.225,236.703,242.779z"/>
					<path fill="#FFF7E9" d="M237.066,242.988c2.195-0.102,11.992-0.242,12.004-0.248c0.535-0.283,0.508-0.861-0.016-1.043
						c-0.01,0-3.732-1.594-6.336-1.34c-1.789,0.172-4.496,1.248-5.848,1.736C236.432,242.336,236.557,242.883,237.066,242.988z"/>
					<path opacity="0.42" fill="#FFFAFB" d="M248.486,241.955c0.064-0.031-2.822-1.143-3.748-1.156
						c-0.926-0.012-4.377,0.918-5.02,1.234c0,0,0.051,0.188-0.02,0.307c-0.068,0.117,8.525-0.033,8.525-0.033
						S248.311,242.037,248.486,241.955z"/>
				</g>
				<path opacity="0.42" fill="#FFFAFB" d="M246.236,247.4c0,0,0.203-0.061-0.232,0.246c-0.438,0.307-5.736,0.541-5.979,0.322
					C239.783,247.748,243.428,245.979,246.236,247.4z"/>
			</g>
		</g>
	</g>
	<g>
		<g>
			<g>
				<g>
					<g>
						<path fill="#938785" d="M94.168,281.307c-2.179,6.203,23.558,2.896,23.966-0.168c0.061-0.445,0.112-0.895,0.158-1.336
							c-1.289,1.018-4.462,1.932-12.225,2.846C94.671,283.988,94.168,281.307,94.168,281.307z"/>
					</g>
					<g>
						<path d="M102.04,285.064c-2.97,0-6.753-0.342-7.908-1.971c-0.38-0.537-0.448-1.166-0.201-1.871l0.312-0.885l0.172,0.924
							c0.003,0.006,0.467,1.51,6.038,1.51c1.599,0,3.478-0.125,5.586-0.373c6.959-0.818,10.69-1.68,12.098-2.795l0.467-0.369
							l-0.06,0.592c-0.046,0.447-0.099,0.896-0.158,1.348C118.089,283.393,108.265,285.064,102.04,285.064L102.04,285.064z
							 M94.291,281.934c-0.018,0.318,0.065,0.607,0.252,0.869c0.803,1.135,3.466,1.76,7.498,1.76c7.429,0,15.656-2.029,15.846-3.457
							c0.035-0.262,0.068-0.527,0.097-0.791c-1.738,1.031-5.382,1.818-11.886,2.584c-2.128,0.25-4.027,0.377-5.645,0.377
							C96.438,283.275,94.887,282.502,94.291,281.934L94.291,281.934z"/>
					</g>
				</g>
				<g>
					<g>
						<path fill="#CDC4C0" d="M109.923,273.766c0,0-13.576,1.34-15.755,7.541c0,0,0.503,2.682,11.899,1.342
							c7.762-0.914,10.936-1.828,12.225-2.846C118.76,275.252,118.169,271.17,109.923,273.766z"/>
					</g>
					<g>
						<path d="M100.453,283.275L100.453,283.275c-5.998,0-6.494-1.727-6.531-1.922l-0.013-0.064l0.022-0.066
							c2.206-6.279,15.406-7.652,15.968-7.709c3.715-1.182,6.32-1.066,7.643,0.4c1.271,1.408,1.22,3.781,1.001,5.912l-0.011,0.107
							L118.448,280c-1.504,1.189-5.199,2.057-12.351,2.898C103.97,283.148,102.071,283.275,100.453,283.275L100.453,283.275z
							 M94.436,281.307c0.131,0.254,1.02,1.465,6.017,1.465c1.598,0,3.478-0.125,5.586-0.373c6.827-0.803,10.547-1.648,12.015-2.73
							c0.187-1.885,0.24-4.17-0.885-5.418c-1.185-1.313-3.548-1.385-7.17-0.246C109.814,274.029,96.63,275.398,94.436,281.307
							L94.436,281.307z"/>
					</g>
				</g>
			</g>
			<g opacity="0.5">
				<g>
					<path fill="#AEA4A2" d="M109.923,273.766c0,0-3.46,0.342-7.167,1.48c0.4-0.125,1.998,0.537,2.429,0.619
						c2.692,0.512,9.095,0.246,9.346,3.137c0.053,0.598-0.159,1.5-0.734,2.449c-0.522,0.863-1.392,1.766-2.807,2.52
						c3.918-0.715,7.006-1.787,7.144-2.832c0.061-0.445,0.112-0.895,0.158-1.336C118.76,275.252,118.169,271.17,109.923,273.766z"/>
				</g>
			</g>
		</g>
		<g>
			<g>
				<g>
					<g>
						<path fill="#938785" d="M157.244,281.811c2.18,6.201-23.558,2.896-23.966-0.168c-0.06-0.447-0.111-0.893-0.158-1.338
							c1.29,1.02,4.462,1.932,12.225,2.846C156.742,284.492,157.244,281.811,157.244,281.811z"/>
					</g>
					<g>
						<path d="M149.373,285.566c-6.226,0-16.048-1.67-16.345-3.891c-0.06-0.449-0.111-0.898-0.157-1.346l-0.061-0.592l0.467,0.369
							c1.407,1.113,5.138,1.975,12.097,2.795c2.108,0.246,3.987,0.373,5.587,0.373c5.57,0,6.034-1.506,6.039-1.52l0.209-0.789
							l0.273,0.76c0.246,0.703,0.18,1.332-0.201,1.869C156.127,285.225,152.344,285.566,149.373,285.566L149.373,285.566z
							 M133.429,280.818c0.03,0.264,0.063,0.527,0.098,0.791c0.19,1.426,8.417,3.455,15.844,3.455c0.001,0,0.001,0,0.002,0
							c4.031,0,6.695-0.625,7.498-1.76c0.186-0.262,0.27-0.549,0.251-0.869c-0.597,0.568-2.146,1.342-6.161,1.342l0,0
							c-1.619,0-3.518-0.127-5.646-0.379C138.812,282.635,135.168,281.85,133.429,280.818L133.429,280.818z"/>
					</g>
				</g>
				<g>
					<g>
						<path fill="#CDC4C0" d="M141.489,274.268c0,0,13.577,1.342,15.755,7.543c0,0-0.502,2.682-11.899,1.34
							c-7.763-0.914-10.935-1.826-12.225-2.846C132.654,275.756,133.243,271.672,141.489,274.268z"/>
					</g>
					<g>
						<path d="M150.961,283.777c-1.619,0-3.518-0.127-5.646-0.379c-7.152-0.84-10.846-1.707-12.352-2.896l-0.082-0.066l-0.011-0.105
							c-0.219-2.133-0.271-4.506,1-5.912c1.323-1.465,3.865-1.594,7.694-0.389c0.511,0.045,13.71,1.416,15.917,7.697l0.021,0.064
							l-0.012,0.064C157.455,282.053,156.958,283.777,150.961,283.777L150.961,283.777z M133.36,280.172
							c1.468,1.082,5.189,1.926,12.014,2.73c2.108,0.246,3.988,0.373,5.587,0.373c4.971,0,5.875-1.199,6.016-1.469
							c-2.197-5.906-15.377-7.275-15.512-7.287c-3.731-1.164-6.036-1.078-7.22,0.234C133.119,276,133.172,278.285,133.36,280.172
							L133.36,280.172z"/>
					</g>
				</g>
			</g>
			<g opacity="0.5">
				<g>
					<path fill="#AEA4A2" d="M141.489,274.268c0,0,3.461,0.344,7.167,1.48c-0.399-0.123-1.998,0.539-2.43,0.621
						c-2.691,0.51-9.094,0.244-9.346,3.137c-0.052,0.596,0.16,1.498,0.734,2.447c0.523,0.863,1.393,1.768,2.807,2.52
						c-3.918-0.713-7.005-1.785-7.144-2.83c-0.06-0.447-0.111-0.893-0.158-1.338C132.654,275.756,133.243,271.672,141.489,274.268z"
						/>
				</g>
			</g>
		</g>
		<g>
			<g>
				<path fill="#9E2316" d="M102.464,207.729c0,0-4.274,26.648,1.509,65.617c0,0,6.537,2.766,15.587,0.252
					c0,0-1.005-23.883,1.509-41.734l5.53-0.502c0,0,2.514,33.438,5.028,43.242c0,0,6.537,2.514,14.582-0.252
					c0,0,0.502-56.314-2.263-67.125C141.181,196.417,102.464,207.729,102.464,207.729z"/>
			</g>
			<g>
				<path d="M138.439,275.9L138.439,275.9c-4.091,0-6.79-1.02-6.902-1.063l-0.121-0.047l-0.033-0.125
					c-2.375-9.264-4.775-39.91-5.015-43.031l-5.078,0.463c-2.447,17.6-1.489,41.252-1.479,41.488l0.008,0.199l-0.192,0.055
					c-2.544,0.707-5.132,1.064-7.693,1.064c-4.867,0-7.931-1.271-8.059-1.326l-0.131-0.055l-0.02-0.141
					c-5.722-38.561-1.552-65.426-1.509-65.693l0.025-0.156l0.153-0.047c0.177-0.051,17.904-5.189,30.119-5.189
					c6.922,0,10.85,1.639,11.676,4.867c2.742,10.719,2.275,66.627,2.271,67.189l-0.001,0.178l-0.168,0.059
					C143.759,275.459,141.117,275.9,138.439,275.9L138.439,275.9z M131.837,274.412c0.567,0.193,3.085,0.984,6.602,0.986
					c2.563,0,5.092-0.412,7.52-1.229c0.027-3.51,0.392-56.527-2.256-66.881c-0.764-2.979-4.527-4.488-11.19-4.488
					c-11.539,0-28.054,4.619-29.824,5.127c-0.334,2.26-3.941,28.367,1.511,65.238c0.632,0.238,3.525,1.234,7.734,1.234
					c2.452,0,4.929-0.332,7.367-0.992c-0.089-2.354-0.849-24.773,1.519-41.58l0.028-0.195l5.983-0.545l0.019,0.254
					C126.875,231.676,129.369,264.578,131.837,274.412L131.837,274.412z"/>
			</g>
		</g>
		<g>
			<defs>
				<path id="SVGID_1_" d="M102.464,207.729c0,0-4.274,26.648,1.509,65.617c0,0,6.537,2.766,15.587,0.252
					c0,0-1.005-23.883,1.509-41.734l5.53-0.502c0,0,2.514,33.438,5.028,43.242c0,0,6.537,2.514,14.582-0.252
					c0,0,0.502-56.314-2.263-67.125C141.181,196.417,102.464,207.729,102.464,207.729z"/>
			</defs>
			<clipPath id="SVGID_2_">
				<use xlink:href="#SVGID_1_"  overflow="visible"/>
			</clipPath>
			<g clip-path="url(#SVGID_2_)">
				<g>
					<g>
						<path fill="#D89C7F" d="M107.328,280.002c-6.302-46.109,0.165-73.75,0.231-74.023l0.489,0.117
							c-0.066,0.273-6.51,27.832-0.222,73.836L107.328,280.002L107.328,280.002z"/>
					</g>
				</g>
				<g>
					<g>
						<path fill="#D89C7F" d="M110.678,281.334c-4.642-43.443,0.179-73.695,0.229-73.996l0.495,0.08
							c-0.049,0.301-4.859,30.492-0.224,73.863L110.678,281.334L110.678,281.334z"/>
					</g>
				</g>
				<g>
					<g>
						<path fill="#D89C7F" d="M113.666,281.674c-3.82-43.523,1.573-73.678,1.627-73.979l0.495,0.092
							c-0.055,0.299-5.436,30.393-1.621,73.844L113.666,281.674L113.666,281.674z"/>
					</g>
				</g>
				<g>
					<g>
						<path fill="#D89C7F" d="M117.577,282.682c-3.234-43.51,1.55-73.672,1.6-73.971l0.496,0.08
							c-0.049,0.299-4.823,30.406-1.593,73.852L117.577,282.682L117.577,282.682z"/>
					</g>
				</g>
				<g>
					<g>
						<path fill="#D89C7F" d="M121.6,283.018c-3.235-43.51,1.549-73.672,1.599-73.973l0.496,0.082
							c-0.048,0.299-4.823,30.406-1.593,73.852L121.6,283.018L121.6,283.018z"/>
					</g>
				</g>
				<g>
					<g>
						<path fill="#D89C7F" d="M143.863,281.324c-3.314-49.053-2.767-77.803-2.761-78.086l0.503,0.01
							c-0.006,0.283-0.554,29.014,2.759,78.041L143.863,281.324L143.863,281.324z"/>
					</g>
				</g>
				<g>
					<g>
						<path fill="#D89C7F" d="M140.846,281.322c-2.65-42.084-4.458-75.875-4.476-76.211l0.502-0.027
							c0.019,0.336,1.825,34.125,4.476,76.207L140.846,281.322L140.846,281.322z"/>
					</g>
				</g>
				<g>
					<g>
						<path fill="#D89C7F" d="M137.638,283.713c-3.469-39.844-5.487-76.111-5.507-76.473l0.502-0.027
							c0.02,0.361,2.038,36.619,5.506,76.457L137.638,283.713L137.638,283.713z"/>
					</g>
				</g>
				<g>
					<g>
						<path fill="#D89C7F" d="M122.912,283.66l-0.502-0.014c1.325-46.398,3.963-74.279,3.99-74.557l0.501,0.049
							C126.874,209.414,124.237,237.279,122.912,283.66L122.912,283.66z"/>
					</g>
				</g>
				<g>
					<g>
						<path fill="#D89C7F" d="M134.818,281.031c-5.972-25.217-5.377-70.006-5.37-70.457l0.502,0.01
							c-0.006,0.447-0.601,45.176,5.356,70.33L134.818,281.031L134.818,281.031z"/>
					</g>
				</g>
			</g>
		</g>
		<g opacity="0.52">
			<g>
				<g>
					<path fill="#9E2316" d="M143.946,207.227c-2.766-10.81-41.482,0.502-41.482,0.502s-0.845,5.285-1.274,14.574l0.017,0.008
						c0,0,0.335-9.553,3.185-8.547c2.85,1.004,21.454,5.363,33.521,3.016c0,0,4.023-0.838,4.357,5.029
						c0.336,5.867,2.683,51.621,0.67,51.957c-2.011,0.334-7.708,1.004-10.222-0.168c0,0-4.86-27.318-4.526-42.068
						c0,0,0.335-2.012-1.173-2.012c-1.509,0-6.034,0.168-8.213,0.504c-2.343,0.359-2.85,7.711-3.017,23.129
						c-0.167,15.42,0.67,19.273-0.671,19.609c-1.34,0.334-8.38,1.006-10.223-0.336c0,0-3.017-18.268-3.855-33.184
						c-0.003-0.07-0.019-0.127-0.024-0.197c0.224,9.717,1.031,21.32,2.957,34.303c0,0,6.537,2.766,15.587,0.252
						c0,0-1.005-23.883,1.509-41.734l5.53-0.502c0,0,2.514,33.438,5.028,43.242c0,0,6.537,2.514,14.582-0.252
						C146.209,274.352,146.711,218.037,143.946,207.227z"/>
				</g>
			</g>
		</g>
	</g>
	<g>
		<g>
			<path d="M179.491,201.238c-8.175-11.147-28.397-30.41-28.601-30.604l0.692-0.729c0.204,0.193,20.491,19.52,28.72,30.739
				L179.491,201.238L179.491,201.238z"/>
		</g>
	</g>
	<g>
		<g>
			<g>
				<path fill="#FACEAB" d="M179.648,199.53c0,0,2.061-1.664,5.094,1.178c0,0,2.897-0.014,3.567,1.97
					c1.007,2.975-3.45,5.725-3.45,5.725s-2.601,1.295-5.22-1.549C177.02,204.01,177.171,200.782,179.648,199.53z"/>
			</g>
			<g>
				<path d="M183.367,208.947c-0.977,0-2.448-0.332-3.914-1.924c-1.503-1.633-2.199-3.492-1.908-5.102
					c0.208-1.142,0.914-2.072,1.99-2.617c0,0,0,0-0.002,0c-0.008,0,0.646-0.512,1.744-0.512c1.164,0,2.365,0.561,3.566,1.664
					c0.545,0.02,3.053,0.215,3.703,2.14c1.06,3.127-3.366,5.9-3.555,6.018C184.945,208.641,184.317,208.947,183.367,208.947
					L183.367,208.947z M181.277,199.297c-0.919,0-1.467,0.424-1.473,0.43c-0.988,0.506-1.584,1.285-1.765,2.285
					c-0.263,1.453,0.388,3.154,1.784,4.672c1.342,1.455,2.666,1.76,3.543,1.76c0.825,0,1.375-0.264,1.381-0.268
					c0.023-0.014,4.254-2.67,3.323-5.418c-0.602-1.779-3.216-1.798-3.327-1.798h-0.1l-0.072-0.068
					C183.441,199.833,182.333,199.297,181.277,199.297L181.277,199.297z"/>
			</g>
		</g>
		<g>
			<g>
				<path d="M185.25,208.107c-0.887,0-2.061-0.291-2.339-1.416c-0.405-1.635,1.167-3.578,1.234-3.66l0.058-0.07l0.089-0.018
					c0.393-0.078,0.638-0.234,0.73-0.471c0.2-0.508-0.28-1.34-0.482-1.617l0.405-0.297c0.091,0.125,0.881,1.242,0.547,2.097
					c-0.15,0.385-0.49,0.639-1.01,0.762c-0.262,0.342-1.39,1.916-1.083,3.152c0.319,1.291,2.308,1.002,2.33,1l0.075,0.496
					C185.646,208.092,185.455,208.107,185.25,208.107L185.25,208.107z"/>
			</g>
		</g>
	</g>
	<g>
		<g>
			<path d="M82.437,200.137l-0.922-0.402c9.118-20.983,24.496-33.995,24.65-34.125l0.646,0.772
				C106.657,166.509,91.456,179.378,82.437,200.137L82.437,200.137z"/>
		</g>
	</g>
	<g>
		<g>
			<g>
				<path fill="#49C7ED" d="M138.75,187.785c-2.34-4.683-5.613-3.006-8.413-0.141c-3.168,3.238-6.868,3.203-9.772-0.531
					c-2.346-3.016-4.776-5.027-9.805-0.25c-2.723,2.588-4.914,2.042-6.439,0.821c-1.85,6.867-3.887,14.821-5.628,22.558
					c0,0,24.386,10.561,50.029,1.762l-2.992-23.936C143.513,190.707,140.439,191.162,138.75,187.785z"/>
			</g>
			<g>
				<path d="M127.011,215.756c-16.033,0-28.295-5.229-28.417-5.281l-0.192-0.082l0.045-0.203c1.51-6.713,3.405-14.304,5.632-22.57
					l0.1-0.371l0.3,0.24c1.884,1.508,3.958,1.234,6.109-0.808c2.073-1.968,3.848-2.926,5.428-2.926c1.873,0,3.252,1.282,4.748,3.205
					c1.418,1.823,3.076,2.787,4.794,2.787c1.551,0,3.142-0.788,4.599-2.279c3.833-3.919,6.816-3.8,8.818,0.204
					c0.74,1.479,1.781,2.26,3.014,2.26c1.175,0,2.469-0.738,3.55-2.024l0.371-0.44l3.089,24.707l-0.193,0.066
					C142.006,214.574,134.674,215.756,127.011,215.756L127.011,215.756z M98.985,210.092c1.615,0.658,13.193,5.16,28.026,5.16
					c7.537,0,14.747-1.15,21.437-3.422l-2.897-23.184c-1.107,1.157-2.356,1.789-3.562,1.789c-1,0-2.414-0.441-3.463-2.538
					c-1.848-3.695-4.483-3.685-8.008-0.078c-1.555,1.59-3.27,2.431-4.959,2.431c-1.879,0-3.674-1.031-5.191-2.982
					c-1.405-1.807-2.683-3.01-4.352-3.01c-1.445,0-3.107,0.912-5.081,2.787c-2.224,2.113-4.465,2.469-6.466,1.064
					C102.307,196.145,100.463,203.537,98.985,210.092L98.985,210.092z"/>
			</g>
		</g>
		<g>
			<g>
				<path fill="#0087CD" d="M149.477,175.047l7.543-7.291c0,0-12.571-12.319-18.855-15.084c-6.286-2.766-16.342-1.508-16.342-1.508
					s-12.234,4.441-23.632,14.079l5.279,7.291l6.285-4.022c0,0-2.476,8.191-5.434,19.174c1.525,1.221,3.716,1.767,6.439-0.821
					c5.029-4.777,7.459-2.766,9.805,0.25c2.904,3.734,6.604,3.77,9.772,0.531c2.8-2.865,6.073-4.542,8.413,0.141
					c1.689,3.377,4.763,2.922,6.98,0.283l-2.287-18.301L149.477,175.047z"/>
			</g>
			<g>
				<path d="M141.988,190.436c-1,0-2.414-0.441-3.463-2.538c-1.848-3.695-4.483-3.685-8.008-0.078
					c-1.555,1.59-3.27,2.431-4.959,2.431c-1.879,0-3.674-1.031-5.191-2.982c-1.405-1.807-2.683-3.01-4.352-3.01
					c-1.445,0-3.107,0.912-5.081,2.787c-2.339,2.221-4.696,2.496-6.77,0.836l-0.128-0.104l0.043-0.158
					c2.454-9.114,4.6-16.381,5.241-18.531l-5.915,3.785l-5.556-7.672l0.178-0.151c11.301-9.556,23.586-14.079,23.708-14.123
					c0.078-0.017,2.386-0.3,5.434-0.3c3.18,0,7.686,0.315,11.094,1.815c6.255,2.752,18.416,14.63,18.931,15.135l0.184,0.181
					l-7.894,7.63l-5.71-4.997l2.219,17.754l-0.07,0.084C144.729,189.652,143.33,190.436,141.988,190.436L141.988,190.436z
					 M135.146,184.604c1.522,0,2.811,1.032,3.828,3.067c0.74,1.479,1.781,2.26,3.014,2.26c1.148,0,2.412-0.706,3.479-1.941
					l-2.356-18.847l6.357,5.563l7.189-6.95c-1.582-1.531-12.837-12.32-18.596-14.853c-3.329-1.465-7.761-1.773-10.892-1.773
					c-3.017,0-5.294,0.28-5.316,0.284c-0.067,0.031-12.143,4.479-23.323,13.87l5.003,6.909l6.658-4.261l-0.197,0.651
					c-0.024,0.082-2.484,8.232-5.387,19.005c1.85,1.395,3.878,1.089,5.979-0.907c2.073-1.968,3.848-2.926,5.428-2.926
					c1.873,0,3.252,1.282,4.748,3.205c1.418,1.823,3.076,2.787,4.794,2.787c1.551,0,3.142-0.788,4.599-2.279
					C132.042,185.541,133.673,184.604,135.146,184.604L135.146,184.604z"/>
			</g>
		</g>
	</g>
	<g>
		<g>
			<path fill="#4F3C15" d="M99.946,93.793l-0.397-0.308c9.972-12.847,27.101-11.765,27.272-11.755l-0.036,0.501
				C126.614,82.221,109.749,81.165,99.946,93.793L99.946,93.793z"/>
		</g>
	</g>
	<g>
		<g>
			
				<rect x="116.275" y="168.47" transform="matrix(0.9695 0.245 -0.245 0.9695 45.0477 -23.9784)" fill="#0061A0" width="5.28" height="1.257"/>
		</g>
	</g>
	<g>
		<g>
			
				<rect x="102.162" y="162.957" transform="matrix(0.5742 0.8187 -0.8187 0.5742 178.0922 -15.2419)" fill="#0061A0" width="3.073" height="1.256"/>
		</g>
	</g>
	<g>
		<g>
			
				<rect x="150.455" y="165.033" transform="matrix(-0.7524 0.6588 -0.6588 -0.7524 375.4721 190.1738)" fill="#0061A0" width="3.072" height="1.256"/>
		</g>
	</g>
	<g>
		<g>
			
				<rect x="139.561" y="157.658" transform="matrix(-0.7521 0.659 -0.659 -0.7521 351.5324 184.3582)" fill="#0061A0" width="3.072" height="1.257"/>
		</g>
	</g>
	<g>
		<g>
			
				<rect x="111.264" y="157.197" transform="matrix(0.9109 -0.4126 0.4126 0.9109 -54.9748 61.0629)" fill="#0061A0" width="5.28" height="1.257"/>
		</g>
	</g>
	<g>
		<g>
			
				<rect x="132.102" y="180.429" transform="matrix(0.9397 0.342 -0.342 0.9397 70.0457 -35.1637)" fill="#0061A0" width="5.28" height="1.258"/>
		</g>
	</g>
	<g>
		<g>
			
				<rect x="130.257" y="192.998" transform="matrix(0.9479 -0.3185 0.3185 0.9479 -54.7539 52.4171)" fill="#B1E7F7" width="5.279" height="1.259"/>
		</g>
	</g>
	<g>
		<g>
			
				<rect x="113.652" y="191.179" transform="matrix(0.9811 0.1936 -0.1936 0.9811 39.3282 -18.8829)" fill="#B1E7F7" width="5.28" height="1.258"/>
		</g>
	</g>
	<g>
		<g>
			
				<rect x="105.164" y="205.407" transform="matrix(0.9787 -0.2053 0.2053 0.9787 -40.0101 26.5267)" fill="#B1E7F7" width="5.279" height="1.257"/>
		</g>
	</g>
	<g>
		<g>
			
				<rect x="115.16" y="210.284" transform="matrix(0.9811 0.1935 -0.1935 0.9811 43.0341 -18.8068)" fill="#B1E7F7" width="5.279" height="1.258"/>
		</g>
	</g>
	<g>
		<g>
			
				<rect x="138.522" y="200.565" transform="matrix(0.8104 0.5858 -0.5858 0.8104 144.5449 -44.323)" fill="#B1E7F7" width="4.48" height="1.258"/>
		</g>
	</g>
	<g>
		<g>
			
				<rect x="121.427" y="200.898" transform="matrix(0.8185 -0.5745 0.5745 0.8185 -93.3304 107.6191)" fill="#B1E7F7" width="4.48" height="1.258"/>
		</g>
	</g>
	<g>
		<g>
			
				<rect x="102.655" y="195.537" transform="matrix(0.8184 -0.5746 0.5746 0.8184 -93.6727 95.8918)" fill="#B1E7F7" width="4.48" height="1.257"/>
		</g>
	</g>
	<g>
		<g>
			
				<rect x="135.322" y="209.047" transform="matrix(0.8186 -0.5743 0.5743 0.8186 -95.4709 117.0322)" fill="#B1E7F7" width="4.479" height="1.256"/>
		</g>
	</g>
	<g>
		<g>
			
				<rect x="110.3" y="179.446" transform="matrix(0.9279 -0.3729 0.3729 0.9279 -59.0066 55.1074)" fill="#0061A0" width="5.279" height="1.258"/>
		</g>
	</g>
	<g>
		<g>
			
				<rect x="129.742" y="165.703" transform="matrix(0.9364 -0.351 0.351 0.9364 -49.9635 57.055)" fill="#0061A0" width="5.279" height="1.257"/>
		</g>
	</g>
	<g opacity="0.35">
		<g>
			<g>
				<path fill="#495965" d="M122.661,157.616c3.017,5.363,10.727,5.363,13.409,0.671c2.681-4.693,6.704-2.347,11.062,0.67
					c0.125,0.087,0.256,0.146,0.385,0.219c-3.319-2.764-6.838-5.398-9.352-6.504c-6.286-2.766-16.342-1.508-16.342-1.508
					s-3.821,1.388-9.178,4.292l0.631,0.15C113.275,155.605,119.644,152.254,122.661,157.616z"/>
			</g>
		</g>
		<g>
			<g>
				<path fill="#495965" d="M140.426,170.019c0.252,7.794,6.64,40.714-3.016,42.487c-12.319,2.262-27.655,0.754-35.448-3.52
					c0,0-0.503-0.754,1.005-6.285c1.508-5.531,9.05-33.185,9.05-35.95c0-2.766-1.005-1.257-7.291,1.257
					c-1.286,0.515-2.624,0.813-3.929,0.835l2.671,3.69l6.285-4.022c0,0-2.476,8.191-5.434,19.174
					c-1.85,6.867-3.887,14.821-5.628,22.558c0,0,24.386,10.561,50.029,1.762l-2.992-23.936l-2.287-18.301l6.033,5.279l1.658-1.603
					c-0.654-0.341-1.295-0.8-1.909-1.414C142.186,164.991,140.174,162.225,140.426,170.019z"/>
			</g>
		</g>
	</g>
	<g>
		<g>
			<g>
				<path fill="#F3AF81" d="M124.588,152.672c0,0-1.005,5.531,3.771,6.536c4.776,1.005,7.039-4.022,6.788-6.536
					C134.895,150.159,124.588,152.672,124.588,152.672z"/>
			</g>
			<g>
				<path d="M129.574,159.591L129.574,159.591c-0.41,0-0.837-0.046-1.267-0.137c-4.958-1.044-3.977-6.77-3.966-6.827l0.029-0.161
					l0.158-0.038c0.188-0.047,4.646-1.125,7.77-1.125c1.995,0,3.009,0.439,3.099,1.344c0.134,1.331-0.394,3.505-1.866,5.131
					C132.458,158.965,131.089,159.591,129.574,159.591L129.574,159.591z M124.811,152.878c-0.125,0.909-0.49,5.224,3.6,6.084
					c1.846,0.389,3.505-0.149,4.747-1.521c1.309-1.446,1.866-3.481,1.739-4.744c-0.073-0.736-1.455-0.892-2.599-0.892
					C129.565,151.806,125.652,152.683,124.811,152.878L124.811,152.878z"/>
			</g>
		</g>
		<g>
			<g>
				<g>
					<g>
						<path fill="#FACEAB" d="M176.037,125.322c-0.684-7.148-8.13-4.597-8.13-4.597l-4.257,10.515
							C167.86,137.7,176.721,132.471,176.037,125.322z"/>
					</g>
					<g>
						<path d="M168.635,134.422L168.635,134.422c-2.07,0-3.915-1.082-5.195-3.044l-0.072-0.11l4.35-10.744l0.109-0.037
							c0.135-0.044,7.759-2.541,8.461,4.811c0.226,2.36-0.576,4.739-2.198,6.524C172.587,133.475,170.599,134.422,168.635,134.422
							L168.635,134.422z M163.934,131.212c1.505,2.234,3.383,2.708,4.701,2.708c1.822,0,3.676-0.888,5.082-2.436
							c1.527-1.681,2.282-3.918,2.07-6.138c-0.607-6.354-6.797-4.688-7.691-4.417L163.934,131.212L163.934,131.212z"/>
					</g>
				</g>
				<g>
					<g>
						<path d="M173.064,127.213c-3.259-1.588-5.617-0.444-5.64-0.433l-0.226-0.449c0.104-0.053,2.594-1.273,6.084,0.43
							L173.064,127.213L173.064,127.213z"/>
					</g>
				</g>
				<g>
					<g>
						<path fill="#FACEAB" d="M171.094,131.688c-4.316,0.371-1.114-6.664-0.68-8.96c0.436-2.294,2.402-1.922,2.402-1.922l0.07-0.173
							c-2.295-0.815-4.979,0.093-4.979,0.093l-4.257,10.515c3.316,5.087,9.497,2.914,11.648-1.728
							C174.4,130.761,173.068,131.519,171.094,131.688z"/>
					</g>
				</g>
			</g>
			<g>
				<g>
					<g>
						<path fill="#FACEAB" d="M85.37,123.368c1.9-6.926,8.798-3.135,8.798-3.135l2.389,11.09
							C91.3,136.965,83.47,130.293,85.37,123.368z"/>
					</g>
					<g>
						<path d="M92.1,133.69c-2.025,0-4.081-1.111-5.499-2.972c-1.641-2.149-2.178-4.854-1.475-7.417
							c0.988-3.599,3.312-4.355,5.086-4.355c2.111,0,3.997,1.023,4.076,1.067l0.1,0.055l2.441,11.33l-0.089,0.096
							C95.402,132.931,93.797,133.69,92.1,133.69L92.1,133.69z M90.213,119.449c-2.328,0-3.876,1.341-4.601,3.984
							c-0.662,2.413-0.155,4.956,1.389,6.98c1.324,1.736,3.231,2.773,5.1,2.773c1.517,0,2.961-0.67,4.183-1.941l-2.336-10.844
							C93.537,120.197,91.928,119.449,90.213,119.449L90.213,119.449z"/>
					</g>
				</g>
				<g>
					<g>
						<path d="M93.604,126.282c-0.022-0.015-2.15-1.547-5.63-0.541l-0.14-0.483c3.732-1.078,5.976,0.55,6.07,0.622L93.604,126.282
							L93.604,126.282z"/>
					</g>
				</g>
				<g>
					<g>
						<path fill="#FACEAB" d="M89.146,130.488c4.189,1.106,2.243-6.375,2.208-8.71c-0.035-2.335-2.037-2.307-2.037-2.307
							l-0.039-0.183c2.4-0.41,4.89,0.945,4.89,0.945l2.389,11.09c-4.14,4.443-9.857,1.24-11.179-3.701
							C86.047,129.006,87.231,129.981,89.146,130.488z"/>
					</g>
				</g>
			</g>
			<g>
				<g>
					<g>
						<path fill="#6D5622" d="M94.336,118.397c2.011-3.184,13.24-23.632,44.414-26.313c0,0-6.536,7.878-4.357,7.542
							c2.179-0.335,11.061-5.865,11.061-5.865s-4.524,7.709-6.368,9.888c-1.844,2.179,7.374-2.011,13.91-11.229
							c0,0,13.242,8.548,14.917,26.984c0,0,0.001,2.514,1.341,0c0.037-0.068,0.098-0.158,0.145-0.234
							c1.4-5.226,6.086-28.351-18.162-36.136c0,0,4.525-6.285-2.766-1.257c0,0-5.027-8.296-4.022-0.502
							c0,0-16.974-10.49-37.962,2.766c-11.93,7.535-17.683,22.224-14.571,33.48C91.916,117.52,92.325,121.582,94.336,118.397z"/>
					</g>
					<g>
						<path d="M168.312,120.772c-0.603,0-0.649-1.048-0.649-1.369c-1.531-16.844-12.954-25.474-14.604-26.637
							c-5.429,7.552-12.593,11.7-14.001,11.7c-0.279,0-0.387-0.143-0.426-0.228c-0.117-0.251,0.078-0.534,0.263-0.753
							c1.442-1.702,4.584-6.896,5.825-8.977c-2.306,1.406-8.469,5.086-10.288,5.366c-0.452,0.074-0.618-0.153-0.677-0.28
							c-0.479-1.02,2.879-5.316,4.421-7.207c-13.504,1.274-31.758,6.796-43.317,25.643l-0.309,0.5
							c-0.567,0.899-1.077,1.335-1.557,1.335c0,0,0,0-0.001,0c-1.062,0-1.302-2.084-1.326-2.322
							c-3.278-11.844,3.033-26.357,14.687-33.718c7.085-4.476,14.472-6.744,21.955-6.744c8.287,0,14.22,2.858,15.834,3.729
							c-0.164-1.548-0.069-2.47,0.29-2.88c0.143-0.162,0.33-0.247,0.54-0.247c1.143,0,2.964,2.755,3.575,3.736
							c1.822-1.241,3.021-1.844,3.661-1.844c0.354,0,0.518,0.173,0.593,0.318c0.34,0.661-0.634,2.232-1.163,3.005
							c24.255,8.009,19.257,31.658,18.004,36.335l-0.085,0.157c-0.03,0.046-0.061,0.092-0.081,0.131
							C169.009,120.398,168.66,120.772,168.312,120.772L168.312,120.772z M152.93,92.077l0.203,0.131
							c0.133,0.086,13.363,8.827,15.031,27.173c0.002,0.384,0.077,0.786,0.159,0.884c0.06-0.027,0.282-0.176,0.71-0.979
							c0.025-0.048,0.063-0.107,0.1-0.164c1.262-4.637,6.216-28.081-17.973-35.849l-0.33-0.105l0.202-0.28
							c0.772-1.072,1.487-2.439,1.321-2.763c-0.016-0.03-0.064-0.045-0.146-0.045c-0.38,0-1.312,0.331-3.594,1.905l-0.22,0.152
							l-0.139-0.228c-0.871-1.438-2.534-3.72-3.284-3.72c-0.065,0-0.114,0.023-0.162,0.077c-0.161,0.184-0.391,0.815-0.111,2.978
							l0.067,0.523l-0.449-0.277c-0.063-0.04-6.436-3.903-16.009-3.903c-7.387,0-14.683,2.243-21.686,6.666
							c-11.476,7.248-17.693,21.521-14.464,33.202c0.085,0.795,0.399,1.912,0.834,1.912c0.162,0,0.526-0.143,1.131-1.102
							l0.306-0.494c11.839-19.305,30.625-24.759,44.299-25.935l0.6-0.052l-0.384,0.463c-2.834,3.415-5.002,6.683-4.735,7.137
							l0.146-0.004c2.104-0.323,10.878-5.776,10.968-5.832l0.35,0.342c-0.186,0.314-4.558,7.753-6.395,9.924
							c-0.045,0.053-0.078,0.099-0.104,0.135c1.671-0.271,8.536-4.503,13.618-11.672L152.93,92.077L152.93,92.077z"/>
					</g>
				</g>
				<g>
					<g>
						<path fill="#FACEAB" d="M169.254,119.404c-1.34,2.514-1.341,0-1.341,0c-1.675-18.436-14.917-26.984-14.917-26.984
							c-6.536,9.218-15.754,13.408-13.91,11.229c1.844-2.179,6.368-9.888,6.368-9.888s-8.882,5.53-11.061,5.865
							c-2.179,0.336,4.357-7.542,4.357-7.542c-31.174,2.681-42.402,23.129-44.414,26.313c-2.012,3.185-2.421-0.877-2.421-0.877
							c0.201,6.769,3.031,37.638,37.952,37.415c39.219-0.251,39.219-34.693,39.219-34.693s0.131-0.392,0.313-1.071
							C169.352,119.246,169.291,119.336,169.254,119.404z"/>
					</g>
					<g>
						<path d="M129.49,155.188c-34.939,0-37.64-31.371-37.826-37.66l0.501-0.032c0.077,0.754,0.392,1.87,0.826,1.87
							c0.163,0,0.527-0.144,1.132-1.102l0.306-0.494c11.839-19.305,30.625-24.759,44.299-25.935l0.6-0.052l-0.384,0.463
							c-2.834,3.415-5.002,6.683-4.735,7.137l0.146-0.004c2.104-0.323,10.878-5.776,10.968-5.832l0.35,0.342
							c-0.186,0.314-4.558,7.753-6.395,9.924c-0.045,0.053-0.078,0.099-0.104,0.135c1.672-0.271,8.536-4.504,13.618-11.672
							l0.139-0.197l0.203,0.131c0.133,0.086,13.363,8.827,15.031,27.173c0.002,0.404,0.084,0.826,0.172,0.896
							c-0.006-0.012,0.215-0.087,0.697-0.992c0.025-0.048,0.063-0.107,0.1-0.164l0.018,0.004c0.002-0.006,0.004-0.013,0.004-0.02
							l0.487,0.128c-0.185,0.69-0.315,1.087-0.315,1.087c0.012,0.268-0.439,34.616-39.458,34.866L129.49,155.188L129.49,155.188z
							 M92.274,119.457c0.708,9.034,5.508,35.228,37.216,35.228l0.375-0.001c36.74-0.235,38.846-31.036,38.962-34.185
							c-0.182,0.188-0.349,0.274-0.517,0.274c-0.603,0-0.649-1.048-0.649-1.369c-1.531-16.844-12.954-25.474-14.604-26.637
							c-5.429,7.552-12.593,11.7-14.001,11.7c-0.279,0-0.387-0.143-0.426-0.227c-0.119-0.252,0.078-0.535,0.263-0.754
							c1.442-1.702,4.584-6.896,5.825-8.977c-2.306,1.406-8.469,5.086-10.288,5.366c-0.452,0.074-0.618-0.153-0.677-0.28
							c-0.479-1.02,2.878-5.316,4.421-7.207c-13.504,1.274-31.758,6.796-43.317,25.643l-0.309,0.5
							c-0.567,0.899-1.077,1.335-1.557,1.335C92.691,119.867,92.457,119.701,92.274,119.457L92.274,119.457z"/>
					</g>
				</g>
			</g>
			<g>
				<g>
					<path d="M146.736,125.238c-0.088,1.721-1.095,3.102-2.248,3.083c-1.154-0.019-2.02-1.429-1.931-3.151
						c0.087-1.721,1.093-3.101,2.247-3.083C145.959,122.106,146.824,123.518,146.736,125.238z"/>
				</g>
			</g>
			<g>
				<g>
					<path d="M117.11,125.708c0.059,1.727-0.826,3.166-1.976,3.213s-2.129-1.313-2.187-3.04c-0.059-1.726,0.827-3.166,1.975-3.213
						C116.072,122.621,117.051,123.981,117.11,125.708z"/>
				</g>
			</g>
			<g>
				<g>
					<path fill="#EF5659" d="M141.42,142.604c0,0-1.647,7.107-9.201,7.597c-10.174,0.659-11.402-7.385-11.402-7.385L141.42,142.604z
						"/>
				</g>
				<g>
					<path d="M131.059,150.49c-9.218,0-10.479-7.559-10.49-7.635l-0.044-0.287l21.212-0.219l-0.072,0.312
						c-0.017,0.072-1.777,7.295-9.428,7.792C131.83,150.478,131.437,150.49,131.059,150.49L131.059,150.49z M121.122,143.064
						c0.326,1.422,2.25,7.464,11.082,6.885c6.374-0.414,8.455-5.736,8.882-7.091L121.122,143.064L121.122,143.064z"/>
				</g>
			</g>
			<g>
				<g>
					<path d="M151.99,119.738c0-0.047-0.031-4.711-2.533-7.12c-1.047-1.007-2.392-1.492-3.994-1.427
						c-5.279,0.195-6.537,6.766-6.549,6.832l-0.495-0.088c0.013-0.07,1.341-7.036,7.026-7.247c1.735-0.066,3.215,0.464,4.362,1.57
						c2.655,2.56,2.687,7.281,2.687,7.481H151.99L151.99,119.738z"/>
				</g>
			</g>
			<g>
				<g>
					<path d="M106.989,120.005l-0.502-0.03c0.005-0.085,0.599-8.522,7.775-9.034c6.273-0.447,7.792,7.167,7.807,7.243l-0.494,0.092
						c-0.055-0.296-1.407-7.249-7.277-6.834C107.557,111.923,106.994,119.924,106.989,120.005L106.989,120.005z"/>
				</g>
			</g>
			<g>
				<g>
					<ellipse cx="114.029" cy="125.207" rx="0.754" ry="0.943"/>
				</g>
			</g>
			<g>
				<g>
					<ellipse transform="matrix(0.977 0.2133 -0.2133 0.977 29.8199 -27.8206)" cx="143.82" cy="124.264" rx="0.754" ry="0.942"/>
				</g>
			</g>
			<g opacity="0.66">
				<g>
					<g>
						<path fill="#FACEAB" d="M169.254,119.404c-1.34,2.514-1.341,0-1.341,0c-1.675-18.436-14.917-26.984-14.917-26.984
							c-4.631,6.531-10.604,10.535-13.039,11.54c-1.229,1.574-1.293,2.205,2.229,0.946c7.04-2.513,10.811-9.805,10.811-9.805
							s13.828,16.593,10.057,32.934c-3.771,16.341-19.253,30.693-45.252,23.129c-18.271-5.316-22.273-22.588-22.887-33.701
							c-0.24,0.388-0.435,0.709-0.577,0.935c-2.012,3.185-2.421-0.877-2.421-0.877c0.201,6.769,3.031,37.638,37.952,37.415
							c39.219-0.251,39.219-34.693,39.219-34.693s0.131-0.392,0.313-1.071C169.352,119.246,169.291,119.336,169.254,119.404z"/>
					</g>
				</g>
				<g>
					<g>
						<path fill="#FACEAB" d="M138.75,92.084c-19.956,1.717-31.73,10.711-38.153,17.799c14.669-13.456,30.583-15.638,36.6-15.847
							C138.057,92.922,138.75,92.084,138.75,92.084z"/>
					</g>
				</g>
				<g>
					<g>
						<path fill="#FACEAB" d="M136.655,101.134c2.657-0.461,5.046-2.355,6.636-3.781c1.209-1.967,2.163-3.593,2.163-3.593
							s-3.937,2.448-7.212,4.186C136.029,99.896,133.446,101.693,136.655,101.134z"/>
					</g>
				</g>
			</g>
			<g opacity="0.51">
				<g>
					<g>
						<path fill="#6D5622" d="M162.781,89.492c9.771,10.54,5.119,21.596,4.797,19.018c-0.336-2.682-6.873-13.241-11.229-16.593
							c-4.357-3.352-4.692-0.335-4.692-0.335c-4.023,7.374-12.738,13.24-9.889,9.553c2.849-3.687,13.91-15.921,1.676-8.044
							c-12.235,7.877-6.704,2.514-3.688,0c3.018-2.515,8.715-6.034-12.57-1.341c-21.286,4.692-28.66,17.431-32.85,23.297
							c-1.631,2.283-2.473,1.795-2.896,0.351c0.126,0.72,0.283,1.428,0.476,2.124c0,0,0.409,4.062,2.421,0.877
							c2.011-3.184,13.24-23.632,44.414-26.313c0,0-6.536,7.878-4.357,7.542c2.179-0.335,11.061-5.865,11.061-5.865
							s-4.524,7.709-6.368,9.888c-1.844,2.179,7.374-2.011,13.91-11.229c0,0,13.242,8.548,14.917,26.984c0,0,0.001,2.514,1.341,0
							c0.037-0.068,0.098-0.158,0.145-0.234C170.512,115.018,173.683,99.571,162.781,89.492z"/>
					</g>
				</g>
			</g>
			<g>
				<g>
					<path fill="#4F3C15" d="M152.865,87.019c-3.118-1.917-6.27-0.503-6.3-0.488l-0.212,0.097l-0.113-0.203
						c-1.186-2.135-5.313-2.885-5.355-2.892l0.088-0.495c0.174,0.031,4.174,0.759,5.592,2.95c0.789-0.304,3.658-1.185,6.563,0.604
						L152.865,87.019L152.865,87.019z"/>
				</g>
			</g>
		</g>
	</g>
	<g>
		<g>
			<g>
				<path fill="#FACEAB" d="M77.602,196.249c0,0,2.061-1.664,5.094,1.178c0,0,2.896-0.014,3.566,1.971
					c1.008,2.974-3.449,5.724-3.449,5.724s-2.601,1.295-5.22-1.549C74.973,200.729,75.125,197.5,77.602,196.249z"/>
			</g>
			<g>
				<path d="M81.321,205.666c-0.977,0-2.448-0.332-3.914-1.924c-1.503-1.633-2.199-3.492-1.908-5.101
					c0.208-1.143,0.914-2.072,1.99-2.617c0,0,0,0-0.002,0c-0.008,0,0.646-0.512,1.744-0.512c1.164,0,2.365,0.561,3.567,1.664
					c0.545,0.02,3.053,0.215,3.703,2.141c1.059,3.126-3.367,5.902-3.555,6.019C82.899,205.359,82.271,205.666,81.321,205.666
					L81.321,205.666z M79.231,196.016c-0.919,0-1.467,0.424-1.473,0.43c-0.988,0.506-1.584,1.285-1.765,2.285
					c-0.263,1.453,0.388,3.154,1.784,4.671c1.342,1.455,2.666,1.762,3.543,1.762c0.825,0,1.375-0.266,1.381-0.27
					c0.023-0.014,4.254-2.668,3.322-5.417c-0.602-1.779-3.215-1.799-3.326-1.799h-0.1l-0.072-0.068
					C81.395,196.551,80.287,196.016,79.231,196.016L79.231,196.016z"/>
			</g>
		</g>
		<g>
			<g>
				<path d="M83.204,204.826c-0.887,0-2.061-0.291-2.339-1.416c-0.405-1.633,1.167-3.578,1.234-3.66l0.059-0.07l0.088-0.018
					c0.393-0.078,0.639-0.234,0.73-0.471c0.201-0.508-0.279-1.34-0.482-1.617l0.406-0.297c0.09,0.125,0.881,1.242,0.547,2.098
					c-0.15,0.385-0.49,0.639-1.01,0.762c-0.262,0.342-1.39,1.916-1.083,3.152c0.319,1.291,2.308,1.002,2.33,1l0.076,0.498
					C83.601,204.811,83.409,204.826,83.204,204.826L83.204,204.826z"/>
			</g>
		</g>
	</g>
</g>
</svg>
