<?xml version="1.0" encoding="utf-8"?>
<!-- Generator: Adobe Illustrator 16.0.0, SVG Export Plug-In . SVG Version: 6.00 Build 0)  -->
<!DOCTYPE svg PUBLIC "-//W3C//DTD SVG 1.1//EN" "http://www.w3.org/Graphics/SVG/1.1/DTD/svg11.dtd">
<svg version="1.1" id="Capa_1" xmlns="http://www.w3.org/2000/svg" xmlns:xlink="http://www.w3.org/1999/xlink" x="0px" y="0px"
	 width="400px" height="400px" viewBox="0 0 400 400" enable-background="new 0 0 400 400" xml:space="preserve">
<g>
	<path fill="#403657" d="M109.885,101.784c0,0,0.604-12.811-7.171-15.271c-12.108-3.832-15.478,2.46-17.346,6.619
		c-2.395,5.328-1.374,15.779,5.85,16.789C102.001,111.427,109.218,105.363,109.885,101.784z"/>
	<path fill="#403657" d="M117.689,144.622c6.292,0,11.728-4.419,13.016-10.591c0.928-4.445,1.834-8.381,1.834-10.592v-0.057
		c0.057-0.698,0.087-1.397,0.093-2.085c0.083-10.108-6.136-28.571-28.011-25.637c0,0-18.15,2.076-20.217,19.85
		c0,0-0.86,8.2-1.432,14.138c-0.01,0.105-0.021,0.21-0.031,0.313c-0.798,7.847,5.36,14.661,13.232,14.661H117.689z"/>
	<g>
		<g>
			<path fill="#7846D1" d="M143.659,165.749c0,0,3.868,30.706,8.287,46.47c0,0,6.277-2.93,14.493-6.907
				c8.909-4.313,21.716-12.182,21.716-12.182l3.236,7.813c0,0-33.083,31.289-44.042,33.061
				c-10.958,1.771-17.674-37.549-17.674-37.549L143.659,165.749z"/>
			<path fill="#FFA681" d="M187.476,194.046c0,0-0.909-4.362,1.039-7.314c1.949-2.953,4.914-8.48,8.397-9.634
				c2.914-0.965-1.386,3.963-1.514,7.09c0,0,4.333-0.545,7.461-1.563c2.749-0.895,8.189-2.011,10.712-2.509
				c0.69-0.137,1.135,0.737,0.603,1.199c-0.86,0.747-2.657,1.687-6.376,2.585c0,0,9.062-1.72,10.002-0.329
				c0.939,1.391-10.429,3.332-10.429,3.332s8.821-0.523,9.051,0.863c0.14,0.845-8.999,2.778-8.999,2.778s8.339,0.224,6.322,1.543
				c-0.588,0.385-16.732,2.205-22.354,8.855C191.391,200.943,187.61,197.027,187.476,194.046z"/>
		</g>
	</g>
	<g>
		<g>
			<path fill="#7846D1" d="M87.874,159.701c0,0-18.508,5.469-34.447,9.073c0,0-0.414-6.927-0.831-16.061
				c-0.453-9.904,0.362-24.937,0.362-24.937l-8.398,0.865c0,0-11.727,44.044-8.069,54.546c3.658,10.502,50.109-4.209,50.109-4.209
				L87.874,159.701z"/>
			<path fill="#FFA681" d="M52.476,128.812c0,0,4.261-1.274,5.927-4.396c1.665-3.122,6.264-9.408,3.425-11.735
				c-1.036-0.85-1.783,2.858-4.467,4.458c0,0-1.583-4.079-2.177-7.318c-0.522-2.85-2.13-8.176-2.894-10.636
				c-0.209-0.674-1.187-0.65-1.339,0.039c-0.247,1.114-0.216,3.146,0.765,6.85c0,0-2.802-8.805-4.47-8.973
				c-1.668-0.167,2.037,10.778,2.037,10.778s-3.737-8.024-5.064-7.567c-0.807,0.278,1.843,9.253,1.843,9.253
				s-4.164-7.244-4.363-4.839c-0.058,0.701,6.025,15.798,2.861,23.917C44.559,128.642,49.795,130.111,52.476,128.812z"/>
		</g>
	</g>
	<g>
		<g>
			<path fill="#9C78ED" d="M142.967,284.72l0.147,0.656c-14.412,9.778-68.321,3.102-68.321,3.102
				c0.092-1.134,0.212-2.318,0.37-3.545c0.167-1.366,0.377-2.782,0.617-4.245c0.651-3.933,1.525-8.185,2.505-12.56
				c0.315-1.378,0.631-2.775,0.963-4.18c0.974-4.176,2.009-8.411,2.989-12.536c0.34-1.418,0.672-2.816,0.994-4.207
				c0.449-1.93,0.874-3.829,1.282-5.67c0.531-2.449,1.004-4.802,1.402-7.017c0.268-1.49,0.5-2.92,0.679-4.276
				c0.206-1.436,0.346-2.792,0.432-4.049c-0.857-3.174-1.656-6.282-2.399-9.298c-0.37-1.535-0.733-3.036-1.089-4.52
				c-1.107-4.75-2.081-9.27-2.931-13.504c-0.301-1.539-0.6-3.036-0.871-4.496c-0.942-4.994-1.703-9.514-2.317-13.457
				c-0.236-1.572-0.459-3.039-0.655-4.423c-0.215-1.515-0.4-2.916-0.562-4.188c-0.723-5.59-0.973-8.761-0.973-8.761
				c0.127-0.103,0.261-0.195,0.397-0.296c1.635-1.164,4.192-2.26,7.033-3.231c2.999-1.03,6.316-1.927,9.24-2.634
				c0.442-0.107,0.877-0.21,1.303-0.31c3.842-0.899,6.714-1.422,6.714-1.422c13.072,2.744,16.801,0.979,16.801,0.979l6.646,1.964
				l0.782,0.275l4.843,1.703l0.195,0.072l8.685,3.063l5.792,2.037l-2.249,10.391l-0.98,4.536l-2.961,13.676l-0.973,4.521
				l-2.948,13.628l-0.97,4.475l-2.44,11.293l0.487,2.156l0.953,4.187l1.512,6.656l1.374,6.021l0.946,4.174l2.844,12.553l0.95,4.148
				l2.821,12.409L142.967,284.72z"/>
			<path fill="#FFA681" d="M124.144,158.874c-1.392,8.188-5.354,16.424-13.589,17.313c-9.95,1.079-15.108-11.427-17.353-19.11
				c3.842-0.899,7.824-1.778,7.824-1.778c13.072,2.743,15.595,1.071,15.595,1.071l6.742,2.229L124.144,158.874z"/>
			<g>
				<path fill="#FFFFFF" d="M109.543,169.311c-10.427,0-12.921-12.906-12.945-13.039c-0.051-0.279,0.133-0.548,0.413-0.6
					c0.28-0.051,0.547,0.134,0.599,0.413c0.096,0.519,2.461,12.696,12.54,12.179c8.821-0.447,9.34-10.257,9.358-10.675
					c0.012-0.283,0.248-0.507,0.535-0.492c0.284,0.012,0.504,0.251,0.492,0.535c-0.004,0.111-0.571,11.167-10.333,11.662
					C109.978,169.305,109.759,169.311,109.543,169.311z"/>
			</g>
			<ellipse fill="#7846D1" cx="88.292" cy="165.751" rx="2.545" ry="2.551"/>
			<ellipse fill="#7846D1" cx="83.193" cy="178.196" rx="2.545" ry="2.551"/>
			<circle fill="#7846D1" cx="99.446" cy="184.081" r="2.545"/>
			<path fill="#7846D1" d="M90.655,191.038c0.521,1.308-0.114,2.792-1.419,3.315c-1.306,0.521-2.787-0.115-3.308-1.423
				c-0.521-1.308,0.114-2.792,1.42-3.315C88.652,189.093,90.134,189.73,90.655,191.038z"/>
			<ellipse fill="#7846D1" cx="110.175" cy="195.748" rx="2.546" ry="2.552"/>
			<ellipse fill="#7846D1" cx="126.409" cy="201.005" rx="2.545" ry="2.551"/>
			<ellipse fill="#7846D1" cx="129.675" cy="168.302" rx="2.545" ry="2.551"/>
			<ellipse fill="#7846D1" cx="111.204" cy="212.037" rx="2.545" ry="2.551"/>
			<ellipse fill="#7846D1" cx="95.523" cy="219.945" rx="2.545" ry="2.551"/>
			<circle fill="#7846D1" cx="93.697" cy="205.543" r="2.545"/>
			<ellipse fill="#7846D1" cx="118.773" cy="184.747" rx="2.545" ry="2.552"/>
			<ellipse fill="#7846D1" cx="132.846" cy="181.529" rx="2.545" ry="2.552"/>
			<ellipse fill="#7846D1" cx="123.863" cy="216.257" rx="2.545" ry="2.551"/>
			<ellipse fill="#7846D1" cx="124.546" cy="236.438" rx="2.545" ry="2.551"/>
			<circle fill="#7846D1" cx="111.772" cy="228.964" r="2.546"/>
			<circle fill="#7846D1" cx="94.444" cy="236.438" r="2.546"/>
		</g>
		<polygon fill="#9C78ED" points="148.36,316.888 147.833,313.709 145.778,301.382 145.074,297.159 143.114,285.376 
			139.549,285.537 92.289,287.686 74.793,288.477 73.669,297.64 73.143,301.909 71.589,314.567 71.304,316.888 		"/>
		<g>
			<g>
				<path fill="#403657" d="M148.357,316.888l-0.483-2.872l-0.04-0.302l-0.341-2.029l-0.341-2.01l-1.384-8.298l-0.401-2.451
					l-0.301-1.769l-0.04-0.261l-1.785-10.75l-0.12-0.764l-0.161-0.663l-0.14-0.582l-0.802-3.558l-1.584-6.951l-0.461-1.989
					l-0.782-3.476l-0.942-4.16l-0.642-2.853l-0.461-1.989l-1.744-7.695l-0.642-2.813l-0.301-1.366l-0.14-0.623l-1.223-5.405
					c-19.209,5.687-39.561,2.312-48.584,0.282c-0.401,1.828-0.842,3.736-1.283,5.666c-0.101,0.422-0.201,0.844-0.301,1.266
					c-0.161,0.663-0.321,1.326-0.481,1.989c-0.06,0.321-0.14,0.623-0.221,0.944c-0.742,3.154-1.523,6.369-2.286,9.564
					c-0.16,0.663-0.301,1.325-0.461,1.969c-0.081,0.342-0.161,0.663-0.241,1.004c-0.321,1.407-0.642,2.813-0.962,4.18
					c-0.401,1.829-0.782,3.617-1.143,5.385c-0.14,0.663-0.281,1.307-0.401,1.95c-0.361,1.787-0.682,3.535-0.963,5.224
					c-0.24,1.467-0.441,2.873-0.601,4.26c-0.06,0.422-0.101,0.844-0.161,1.245c-0.06,0.683-0.14,1.347-0.2,2.01
					c0,0.1-0.021,0.181-0.021,0.281l-1.123,9.162l-0.18,1.426l-0.241,1.99l-0.101,0.843L71.9,311.926l-0.241,2.009l-0.08,0.644
					l-0.277,2.31H148.357z"/>
			</g>
		</g>
	</g>
	<g>
		<g>
			<g>
				<path fill="#F97853" d="M125.112,124.606c0,0,3.125-3.967,5.448-0.687s-0.961,12.969-6.65,10.604L125.112,124.606z"/>
				<g>
					<path fill="#EA5143" d="M125.152,131.529c0.21,0,0.403-0.132,0.463-0.334c0.881-2.991,4.136-4.204,4.169-4.215
						c0.247-0.09,0.372-0.354,0.278-0.59c-0.093-0.236-0.371-0.355-0.619-0.266c-0.152,0.055-3.739,1.38-4.754,4.825
						c-0.072,0.243,0.077,0.496,0.333,0.564C125.065,131.524,125.109,131.529,125.152,131.529z"/>
				</g>
				<g>
					<path fill="#EA5143" d="M128.438,130.022c0.089,0,0.179-0.023,0.259-0.073c0.223-0.137,0.288-0.42,0.144-0.632
						c-0.024-0.036-0.6-0.872-1.805-1.385c-0.241-0.104-0.526,0-0.635,0.231c-0.108,0.23,0,0.501,0.243,0.604
						c0.932,0.397,1.384,1.039,1.388,1.045C128.125,129.948,128.279,130.022,128.438,130.022z"/>
				</g>
				<g>
					<path fill="#FFFFFF" d="M123.705,134.46c-0.537,0.6-0.868,1.39-0.868,2.256c0,1.871,1.52,3.394,3.387,3.394
						s3.387-1.522,3.387-3.394c0-1.078-0.504-2.039-1.289-2.66c-0.394-0.312-0.857-0.538-1.363-0.651
						c-0.085-0.229-0.043-0.444,0.122-0.642c0.648,0.142,1.237,0.438,1.729,0.849c0.889,0.741,1.454,1.858,1.454,3.104
						c0,2.233-1.811,4.048-4.039,4.048c-2.226,0-4.039-1.814-4.039-4.048c0-0.962,0.341-1.842,0.903-2.536
						C123.293,134.274,123.498,134.368,123.705,134.46z"/>
				</g>
			</g>
			<path fill="#FFA681" d="M101.025,144.873v11.885c0,0,5.513,4.263,9.813,4.633c4.296,0.376,5.782-4.705,5.782-4.705v-11.062
				L101.025,144.873z"/>
			<path fill="#F97853" d="M101.025,146.037v4.741c2.886,3.209,8.009,4.347,15.593,3.225l0.001-7.214L101.025,146.037z"/>
			<path fill="#FFA681" d="M126.989,129.125c-0.137,1.147-0.298,2.315-0.504,3.478c-1.362,7.729-6.241,16.076-12.401,17.478
				c-13.301,3.025-18.825-7.444-20.952-15.167c-0.235-0.858,0.206-1.841,0.02-2.856c-0.441-2.406-1.412-5.141-1.632-7.837
				c-0.152-1.869-0.26-3.712-0.338-5.377c-0.216-4.697,2.499-9.013,6.742-10.699c6.115-2.438,15.4-4.367,24.195,0.802
				c3.249,1.909,5.287,5.443,5.361,9.313C127.534,121.213,127.46,125.077,126.989,129.125z"/>
			<g>
				<path fill="#F97853" d="M110.121,135.104c-0.248,0-0.467-0.179-0.509-0.432c-0.047-0.282,0.142-0.549,0.424-0.597l1.774-0.298
					l-2.444-6.524c-0.101-0.268,0.035-0.566,0.301-0.667c0.268-0.1,0.565,0.035,0.666,0.302l2.885,7.701l-3.011,0.507
					C110.178,135.102,110.148,135.104,110.121,135.104z"/>
			</g>
			<ellipse fill="#403657" cx="117.796" cy="126.472" rx="1.31" ry="2.065"/>
			<ellipse fill="#403657" cx="103.313" cy="126.472" rx="1.31" ry="2.065"/>
			<path fill="#403657" d="M121.648,121.056c-1.054-0.206-3.184-0.545-5.452-0.466c-0.597,0.021-1.076,0.473-0.993,0.949
				l0.001,0.012c0.066,0.38,0.473,0.636,0.95,0.6c1.546-0.117,5.591-0.092,7.474,0.47c0.052-0.273-0.13-0.563-0.396-0.817
				C122.83,121.418,122.263,121.176,121.648,121.056z"/>
			<path fill="#403657" d="M100.583,121.304c1.051-0.22,3.176-0.589,5.446-0.54c0.597,0.013,1.082,0.458,1.006,0.935l-0.002,0.012
				c-0.061,0.381-0.463,0.642-0.941,0.613c-1.548-0.096-5.592-0.015-7.467,0.572c-0.057-0.272,0.122-0.565,0.384-0.822
				C99.406,121.683,99.969,121.433,100.583,121.304z"/>
			<path fill="#FFFFFF" d="M116.485,138.187c-0.383,1.815-1.656,5.155-5.944,5.155c-4.298,0-5.504-3.052-5.918-5.155H116.485z"/>
			<g>
				<path fill="#F97853" d="M110.603,146.462c1.237,0,2.33-0.668,2.376-0.696c0.238-0.147,0.312-0.461,0.165-0.699
					s-0.458-0.312-0.696-0.165l0,0c-0.009,0.005-0.9,0.545-1.844,0.545c-1.022,0-1.937-0.542-1.946-0.548
					c-0.24-0.144-0.551-0.066-0.695,0.174c-0.144,0.239-0.068,0.551,0.171,0.695C108.18,145.796,109.292,146.462,110.603,146.462z"
					/>
			</g>
			<path fill="#403657" d="M127.528,127.912c-0.125,0.104-0.244,0.067-0.356-0.135c-1.757-3.104-0.106-9.296-5.305-11.671
				c-3.96-1.811-5.382-5.523-5.382-5.523c-0.905,1.553-3.264,2.977-3.264,2.977s-5.981,3.551-12.196,5.951
				c-1.848,0.713-3.163,1.438-4.084,2.059c0.072,0.02,0.111,0.032,0.111,0.032s-1.721,2.801-0.462,7.156
				c1.26,4.352-0.36,11.535-3.156,13.192c0.05-0.123,2.147-5.089,0.962-9.141c-0.683-2.323-0.676-6.019-1.324-8.234
				c-0.716-0.494-2.373-1.328-2.934-1.663c-0.16-1.905-0.275-3.783-0.356-5.481c-0.228-4.788,2.633-9.187,7.107-10.907
				c6.444-2.483,16.232-4.449,25.504,0.819c3.424,1.946,5.573,5.548,5.652,9.492C128.102,119.846,128.023,123.785,127.528,127.912z"
				/>
		</g>
		<g>
			<path fill="#FFA681" d="M93.071,124.574c0,0-3.633-4.418-5.777-1.232c-2.144,3.186,1.021,12.951,6.27,10.654L93.071,124.574z"/>
			<g>
				<path fill="#FFFFFF" d="M93.217,134.153c0.376,0.713,0.505,1.56,0.295,2.4c-0.453,1.815-2.296,2.923-4.107,2.469
					s-2.917-2.301-2.464-4.116c0.261-1.046,0.983-1.855,1.895-2.267c0.457-0.206,0.961-0.313,1.479-0.3
					c0.09-0.194,0.136-0.404,0.038-0.653c-0.663-0.021-1.306,0.124-1.882,0.404c-1.042,0.502-1.861,1.449-2.163,2.658
					c-0.541,2.166,0.777,4.367,2.938,4.909c2.16,0.541,4.358-0.778,4.899-2.944c0.233-0.934,0.115-1.87-0.262-2.68
					C93.662,134.073,93.439,134.114,93.217,134.153z"/>
			</g>
			<g>
				<path fill="#F97853" d="M92.284,130.731c-0.194,0-0.372-0.128-0.427-0.325c-0.813-2.905-3.816-4.082-3.846-4.094
					c-0.229-0.087-0.344-0.344-0.257-0.573s0.343-0.345,0.571-0.258c0.14,0.053,3.45,1.34,4.387,4.685
					c0.066,0.237-0.071,0.482-0.308,0.548C92.364,130.726,92.324,130.731,92.284,130.731z"/>
			</g>
			<g>
				<g>
					<path fill="#F97853" d="M89.252,129.268c-0.082,0-0.165-0.023-0.239-0.071c-0.206-0.133-0.265-0.408-0.133-0.615
						c0.022-0.034,0.554-0.846,1.665-1.345c0.223-0.101,0.486,0,0.586,0.224c0.1,0.224,0,0.487-0.224,0.587
						c-0.859,0.385-1.277,1.008-1.281,1.015C89.542,129.196,89.399,129.268,89.252,129.268z"/>
				</g>
			</g>
		</g>
	</g>
</g>
<g>
	<path fill="#FFA681" d="M285.51,220.495c-8.454,6.081-21.683,10.253-21.683,10.253l-2.708-9.761l-2.112-7.616l-1.492-5.368
		l-15.16-0.01c0.821,2.847,1.669,5.755,2.521,8.619c1.093,3.695,2.185,7.313,3.222,10.648c1.463,4.694,2.813,8.822,3.9,11.771
		c0.254,0.688,0.55,1.438,0.88,2.237c2.025,5.485,3.662,11.435,11.396,7.702c6.808-3.286,16.042-7.841,20.655-10.865L285.51,220.495
		z"/>
	<g>
		<path fill="#F97853" d="M244.876,216.612c1.094,3.694,2.184,7.313,3.222,10.647c6.188-0.656,10.473-3.729,13.021-6.272
			l-2.112-7.616L244.876,216.612z"/>
		<path fill="#6020BD" d="M241.657,163.334c0,0,15.815,37.796,22.617,50.042c0,0-9.532,8.121-18.817,8.343
			C245.457,221.719,240.106,180.222,241.657,163.334z"/>
	</g>
	<g>
		<g>
			<g>
				<path fill="#9C78ED" d="M204.627,316.915c0.16-2.646,0.31-5.163,0.447-7.497c0.56-9.541,0.92-16.053,0.92-16.053l-3.729-0.168
					l-2.103-0.095l-25.35-1.129c0,0-0.461,7.284-1.005,17.979c-0.111,2.189-0.226,4.521-0.341,6.963H204.627z"/>
			</g>
		</g>
		<path fill="#7846D1" d="M202.266,293.197l3.729,0.168c0,0-0.36,6.512-0.92,16.053c-9.74,0.813-20.374,1.145-31.267,0.534
			c0.544-10.694,1.005-17.979,1.005-17.979l25.35,1.129L202.266,293.197z"/>
		<g>
			<path fill="#7846D1" d="M200.934,316.915c0.588-10.192,1.07-18.923,1.332-23.717l-2.102-0.095
				c-0.263,4.815-0.747,13.586-1.337,23.812H200.934z"/>
		</g>
	</g>
	<g>
		<g>
			<g>
				<path fill="#9C78ED" d="M212.798,316.915h31.161c-0.114-2.441-0.229-4.773-0.34-6.963c-0.544-10.694-1.006-17.979-1.006-17.979
					l-25.351,1.129l-2.102,0.095l-3.729,0.168c0,0,0.359,6.512,0.92,16.053C212.489,311.752,212.64,314.27,212.798,316.915z"/>
			</g>
		</g>
		<path fill="#7846D1" d="M215.161,293.197l-3.729,0.168c0,0,0.359,6.512,0.92,16.053c9.74,0.813,20.373,1.145,31.267,0.534
			c-0.544-10.694-1.006-17.979-1.006-17.979l-25.351,1.129L215.161,293.197z"/>
		<g>
			<path fill="#7846D1" d="M218.599,316.915c-0.59-10.226-1.074-18.996-1.337-23.812l-2.103,0.095
				c0.262,4.794,0.745,13.524,1.333,23.717H218.599z"/>
		</g>
	</g>
	<g>
		<g>
			<g>
				<g>
					<path fill="#7846D1" d="M169.311,273.861c-0.004,0.523,0,1.039,0,1.548c0.012,9.29,0.057,16.49,0.103,20.025
						c8.955,2.431,17.909,4.001,26.868,4.727c0.408,0.031,0.808,0.062,1.216,0.092c0.217,0.016,0.435,0.031,0.652,0.043
						c0.481,0.033,0.965,0.064,1.441,0.087c0.534,0.035,1.064,0.062,1.602,0.089c6.095,0.282,12.188,0.171,18.286-0.329
						c1.232-0.104,2.457-0.222,3.688-0.355c0.08-0.008,0.156-0.016,0.236-0.022c0.313-0.035,0.626-0.073,0.942-0.111
						c0.19-0.023,0.381-0.046,0.567-0.069c7.091-0.848,14.18-2.235,21.273-4.149c0.019-1.605,0.026-3.986,0.026-6.986
						c0-0.558,0-1.132-0.004-1.731v-0.003c-0.004-4.292-0.03-9.635-0.076-15.673c-0.004-0.517-0.007-1.036-0.012-1.563
						c-0.033-4.021-0.076-8.328-0.129-12.818c-0.008-0.52-0.012-1.039-0.02-1.563c-0.058-4.605-0.126-9.39-0.206-14.247
						c-0.049-2.966-0.103-5.958-0.164-8.954c-0.061-3.034-0.126-6.072-0.197-9.092c-0.016-0.657-0.031-1.314-0.051-1.972
						c-0.693-28.552-1.896-54.794-3.882-57.722c-1.377-2.025-4.53-4.406-8.246-6.807c-0.453-0.29-0.914-0.584-1.383-0.879
						c-1.584-0.989-14.493-5.385-16.133-6.352l-13.646-0.955c-0.084,0.05-13.13,4.46-13.214,4.506
						c-0.561,0.32-1.129,0.646-1.689,0.971c-4.832,2.793-9.599,5.736-12.345,8.27c-0.401,0.367-0.759,0.727-1.064,1.078
						c-0.244,0.278-0.461,0.55-0.637,0.818c-0.164,0.24-0.324,0.645-0.477,1.199c-1.652,6.012-2.517,29.637-2.948,55.34
						c-0.031,1.843-0.058,3.696-0.084,5.554c-0.011,0.813-0.023,1.632-0.034,2.449c-0.012,0.563-0.019,1.127-0.023,1.689
						c-0.004,0.282-0.008,0.562-0.011,0.844c-0.02,1.399-0.035,2.795-0.046,4.182c-0.012,1.028-0.023,2.052-0.034,3.076
						C169.338,251.042,169.3,263.615,169.311,273.861z"/>
				</g>
			</g>
		</g>
	</g>
	<g>
		<g>
			<path fill="#FFA681" d="M144.91,310.573c-0.335,3.649,4.1,1.67,2.845-5.725c-1.251-7.396,2.304-14.091,3.837-13.876
				c1.537,0.217-1.27,8.074,0.095,10.906c1.361,2.832,3.123-2.671,4.877-6.008c1.819-3.466,1.713-11.029,0.885-16.426
				c-0.828-5.399,8.935-38.185,8.985-47.686l1.19-4.028l4.355-14.747l6.819-23.094c0,0-4.084-17.48-10.972-15.979
				c0,0-3.646,12.176-7.543,25.907c-0.659,2.331-1.327,4.708-1.987,7.077c-2.776,9.955-5.385,19.785-6.598,25.616
				c-3.204,15.397-3.451,47.403-3.451,47.403s-5.652,11.759-5.785,16.99C142.32,302.486,145.242,306.924,144.91,310.573z"/>
			<path fill="#F97853" d="M158.296,206.896l9.329,20.835l4.355-14.747l-11.697-13.165
				C159.624,202.15,158.956,204.527,158.296,206.896z"/>
		</g>
		<path fill="#7846D1" d="M157.833,200.69c4.092,7.032,8.253,14.025,12.398,21.03c1.365-4.582,2.78-8.98,4.107-13.024
			c0.003-0.011,0.007-0.019,0.011-0.03c0.53-1.616,1.049-3.175,1.544-4.666c0.008-0.026,0.016-0.054,0.027-0.076
			c0.171-0.523,0.339-1.039,0.51-1.544v-0.004c1.979-5.996,3.513-10.762,3.951-13.54c1.182-7.479-2.04-22.131-6.579-25.021l0,0
			c-0.118,0.265-0.476-0.55-0.689-0.053c-0.797,1.846-4.337,6.405-6.087,10.846c-0.225,0.565-0.454,1.154-0.69,1.753
			C163.802,182.894,160.701,191.389,157.833,200.69z"/>
	</g>
	<g>
		<g>
			<g>
				<path fill="#6020BD" d="M208.287,161.792c5.907,0,10.073-5.402,10.247-5.632c0.25-0.328,0.203-0.81-0.103-1.075
					c-0.306-0.267-0.755-0.218-1.003,0.11c-0.055,0.07-3.933,5.068-9.142,5.068c-5.149,0-8.289-5.656-8.32-5.714
					c-0.199-0.364-0.636-0.487-0.975-0.275c-0.34,0.212-0.456,0.679-0.258,1.044C198.876,155.582,202.307,161.792,208.287,161.792z"
					/>
			</g>
		</g>
		<g>
			<path fill="#6020BD" d="M233.27,213.557c0.109,0,0.22-0.027,0.324-0.083c0.354-0.193,0.497-0.656,0.317-1.037l-2.578-5.456
				c-0.178-0.38-0.611-0.532-0.966-0.34s-0.497,0.656-0.317,1.036l2.578,5.457C232.754,213.402,233.007,213.557,233.27,213.557z"/>
		</g>
		<g>
			<path fill="#6020BD" d="M238.641,209.085c0.092,0.063,0.199,0.103,0.315,0.114c0.396,0.037,0.745-0.276,0.78-0.7l0.505-6.092
				c0.035-0.423-0.257-0.799-0.652-0.836c-0.396-0.038-0.745,0.276-0.78,0.699l-0.505,6.093
				C238.278,208.663,238.417,208.937,238.641,209.085z"/>
		</g>
		<g>
			<path fill="#6020BD" d="M224.796,199.64c0.346,0,0.65-0.268,0.709-0.645l0.931-6.035c0.063-0.42-0.201-0.816-0.593-0.886
				c-0.393-0.068-0.762,0.215-0.827,0.635l-0.931,6.034c-0.064,0.421,0.201,0.816,0.593,0.887
				C224.718,199.637,224.757,199.64,224.796,199.64z"/>
		</g>
		<g>
			<path fill="#6020BD" d="M201.646,201.886c0.124,0,0.251-0.034,0.365-0.108c0.342-0.216,0.456-0.688,0.253-1.055l-2.907-5.263
				c-0.202-0.367-0.643-0.488-0.985-0.271c-0.342,0.217-0.456,0.688-0.252,1.056l2.906,5.263
				C201.16,201.751,201.399,201.886,201.646,201.886z"/>
		</g>
		<g>
			<path fill="#6020BD" d="M230.085,178.297c0.134,0,0.27-0.039,0.39-0.123l4.792-3.321c0.334-0.231,0.43-0.708,0.214-1.065
				c-0.217-0.356-0.661-0.46-0.995-0.229l-4.791,3.322c-0.334,0.231-0.43,0.707-0.213,1.064
				C229.618,178.173,229.85,178.297,230.085,178.297z"/>
		</g>
		<g>
			<path fill="#6020BD" d="M208.738,227.327c0.109,0,0.221-0.026,0.324-0.083c0.354-0.192,0.496-0.656,0.317-1.036l-2.577-5.457
				c-0.18-0.379-0.611-0.531-0.967-0.34c-0.354,0.192-0.495,0.656-0.316,1.036l2.577,5.457
				C208.223,227.173,208.477,227.327,208.738,227.327z"/>
		</g>
		<g>
			<path fill="#6020BD" d="M220.062,182.403c0.239,0,0.473-0.129,0.61-0.362c0.21-0.36,0.108-0.837-0.229-1.063l-4.836-3.245
				c-0.337-0.225-0.78-0.117-0.991,0.244s-0.108,0.837,0.228,1.063l4.837,3.246C219.798,182.365,219.931,182.403,220.062,182.403z"
				/>
		</g>
		<g>
			<path fill="#6020BD" d="M231.565,159.711c-0.011,0.149,0.018,0.295,0.082,0.417c0.11,0.226,0.328,0.387,0.584,0.405
				c0.396,0.03,0.738-0.291,0.768-0.715l0.229-3.512c-0.453-0.291-0.914-0.585-1.385-0.879L231.565,159.711z"/>
		</g>
		<g>
			<path fill="#6020BD" d="M238.014,193.194c0.239,0,0.474-0.128,0.609-0.361c0.211-0.36,0.109-0.837-0.227-1.063l-4.838-3.246
				c-0.337-0.225-0.78-0.116-0.991,0.245c-0.211,0.36-0.108,0.837,0.229,1.063l4.836,3.245
				C237.751,193.156,237.883,193.194,238.014,193.194z"/>
		</g>
		<g>
			<path fill="#6020BD" d="M199.439,166.564c0.136,0,0.273-0.04,0.395-0.127c0.332-0.234,0.423-0.712,0.205-1.066l-2.758-4.487
				c-0.218-0.355-0.665-0.454-0.996-0.22s-0.423,0.713-0.205,1.068l2.758,4.485C198.976,166.443,199.205,166.564,199.439,166.564z"
				/>
		</g>
		<g>
			<path fill="#6020BD" d="M196.966,244.06c0.189,0,0.377-0.079,0.519-0.236l3.953-4.412c0.275-0.308,0.266-0.795-0.021-1.09
				c-0.285-0.295-0.741-0.285-1.016,0.022l-3.952,4.412c-0.275,0.307-0.266,0.795,0.021,1.089
				C196.608,243.989,196.787,244.06,196.966,244.06z"/>
		</g>
		<g>
			<path fill="#6020BD" d="M211.489,243.143c0.189,0,0.379-0.079,0.52-0.237l3.952-4.411c0.275-0.308,0.265-0.796-0.021-1.09
				c-0.287-0.295-0.742-0.284-1.018,0.022l-3.952,4.412c-0.274,0.306-0.266,0.794,0.021,1.089
				C211.131,243.072,211.311,243.143,211.489,243.143z"/>
		</g>
		<g>
			<path fill="#6020BD" d="M221.931,272.965c0.066-0.189,0.063-0.406-0.025-0.604l-2.467-5.515
				c-0.172-0.384-0.602-0.546-0.959-0.362c-0.357,0.185-0.509,0.645-0.338,1.028l2.467,5.515c0.173,0.385,0.602,0.546,0.961,0.362
				C221.743,273.3,221.868,273.145,221.931,272.965z"/>
		</g>
		<g>
			<path fill="#6020BD" d="M180.254,291.162c0.066-0.188,0.063-0.406-0.025-0.604l-2.468-5.515
				c-0.171-0.385-0.601-0.546-0.958-0.361c-0.359,0.184-0.509,0.644-0.338,1.027l2.467,5.516c0.172,0.384,0.601,0.546,0.959,0.361
				C180.066,291.497,180.191,291.343,180.254,291.162z"/>
		</g>
		<g>
			<path fill="#6020BD" d="M198.15,300.297c0.481,0.034,0.963,0.064,1.441,0.088l0.503-3.436c0.061-0.42-0.207-0.814-0.599-0.88
				c-0.392-0.064-0.759,0.223-0.82,0.643L198.15,300.297z"/>
		</g>
		<g>
			<path fill="#6020BD" d="M192.411,289.914c0.155-0.115,0.267-0.296,0.298-0.513l0.883-6.042c0.062-0.421-0.207-0.814-0.599-0.881
				c-0.393-0.065-0.76,0.222-0.821,0.643l-0.883,6.042c-0.062,0.421,0.207,0.814,0.599,0.881
				C192.079,290.076,192.264,290.024,192.411,289.914z"/>
		</g>
		<g>
			<path fill="#6020BD" d="M227.109,239.391c0.122,0,0.247-0.034,0.36-0.104c0.344-0.213,0.461-0.685,0.262-1.053l-2.859-5.294
				c-0.198-0.368-0.639-0.493-0.982-0.281c-0.344,0.214-0.461,0.686-0.262,1.054l2.859,5.294
				C226.62,239.253,226.861,239.391,227.109,239.391z"/>
		</g>
		<g>
			<path fill="#6020BD" d="M218.716,226.16c0.26,0,0.512-0.152,0.639-0.418l2.617-5.435c0.182-0.378,0.043-0.843-0.311-1.038
				c-0.351-0.196-0.785-0.047-0.969,0.331l-2.615,5.436c-0.183,0.378-0.044,0.843,0.309,1.038
				C218.491,226.133,218.604,226.16,218.716,226.16z"/>
		</g>
		<g>
			<path fill="#6020BD" d="M241.449,225.363c0.075,0.095,0.172,0.168,0.271,0.214c0.242,0.106,0.527,0.068,0.741-0.122l2.942-2.649
				c-0.015-0.657-0.029-1.313-0.047-1.972l-3.822,3.44C241.231,224.549,241.193,225.034,241.449,225.363z"/>
		</g>
		<g>
			<path fill="#6020BD" d="M218.753,168.495c0.26,0,0.512-0.152,0.64-0.417l2.616-5.436c0.183-0.378,0.043-0.844-0.31-1.038
				c-0.352-0.195-0.786-0.047-0.968,0.331l-2.617,5.436c-0.183,0.378-0.043,0.843,0.31,1.038
				C218.528,168.467,218.642,168.495,218.753,168.495z"/>
		</g>
		<g>
			<path fill="#6020BD" d="M201.983,188.408c0.046,0,0.091-0.005,0.138-0.014c0.39-0.082,0.645-0.486,0.569-0.903l-1.082-6.005
				c-0.075-0.418-0.453-0.69-0.843-0.611c-0.39,0.081-0.645,0.485-0.57,0.903l1.083,6.005
				C201.344,188.152,201.646,188.408,201.983,188.408z"/>
		</g>
		<g>
			<path fill="#6020BD" d="M211.319,193.68c0.046,0,0.092-0.004,0.137-0.014c0.391-0.08,0.646-0.484,0.57-0.902l-1.082-6.005
				c-0.075-0.419-0.453-0.69-0.842-0.611c-0.391,0.082-0.646,0.485-0.57,0.903l1.083,6.006
				C210.681,193.425,210.982,193.68,211.319,193.68z"/>
		</g>
		<g>
			<path fill="#6020BD" d="M204.631,173.868c0.238,0,0.471-0.127,0.608-0.358l3.058-5.163c0.213-0.359,0.114-0.836-0.221-1.063
				c-0.337-0.229-0.781-0.122-0.993,0.236l-3.058,5.164c-0.213,0.359-0.114,0.837,0.221,1.064
				C204.366,173.829,204.5,173.868,204.631,173.868z"/>
		</g>
		<g>
			<path fill="#6020BD" d="M232.685,227.115c0.197-0.226,0.256-0.564,0.125-0.859l-2.458-5.521c-0.171-0.383-0.6-0.546-0.958-0.362
				c-0.359,0.184-0.512,0.643-0.34,1.026l2.459,5.521c0.17,0.384,0.6,0.547,0.957,0.363
				C232.554,227.24,232.626,227.183,232.685,227.115z"/>
		</g>
		<g>
			<path fill="#6020BD" d="M214.185,211.101c0.287,0,0.559-0.187,0.67-0.491l2.08-5.694c0.145-0.396-0.037-0.844-0.408-0.998
				c-0.369-0.155-0.787,0.039-0.932,0.436l-2.079,5.696c-0.145,0.396,0.037,0.843,0.407,0.998
				C214.009,211.083,214.098,211.101,214.185,211.101z"/>
		</g>
		<g>
			<path fill="#6020BD" d="M191.335,246.277c0.109,0,0.22-0.026,0.324-0.083c0.354-0.192,0.496-0.655,0.317-1.035l-2.577-5.458
				c-0.179-0.379-0.611-0.531-0.966-0.338c-0.354,0.191-0.496,0.654-0.316,1.035l2.577,5.456
				C190.819,246.124,191.073,246.277,191.335,246.277z"/>
		</g>
		<g>
			<path fill="#6020BD" d="M229.205,285.498c0.001,0.117,0.026,0.236,0.081,0.347c0.182,0.378,0.617,0.525,0.969,0.33l5.066-2.813
				c0.354-0.195,0.491-0.661,0.309-1.039s-0.617-0.525-0.97-0.329l-5.066,2.813C229.344,284.943,229.202,285.217,229.205,285.498z"
				/>
		</g>
		<g>
			<path fill="#6020BD" d="M242.961,288.996c0,0.119,0.025,0.237,0.078,0.349c0.183,0.378,0.618,0.523,0.971,0.328l2.203-1.223
				c0-0.558,0-1.132-0.003-1.731l-2.859,1.586C243.101,288.442,242.958,288.717,242.961,288.996z"/>
		</g>
		<g>
			<path fill="#6020BD" d="M221.671,295.799l1.732,3.967c0.314-0.034,0.627-0.072,0.945-0.11c0.188-0.023,0.377-0.046,0.566-0.069
				l-1.943-4.44c-0.168-0.386-0.596-0.554-0.956-0.371C221.655,294.954,221.499,295.413,221.671,295.799z"/>
		</g>
		<g>
			<path fill="#6020BD" d="M181.983,232.361c0.346,0,0.651-0.267,0.709-0.645l0.931-6.034c0.065-0.421-0.2-0.817-0.592-0.887
				c-0.393-0.068-0.762,0.215-0.827,0.635l-0.931,6.035c-0.065,0.42,0.2,0.816,0.592,0.886
				C181.905,232.358,181.945,232.361,181.983,232.361z"/>
		</g>
		<g>
			<path fill="#6020BD" d="M181.39,187.837c0.125,0,0.25-0.034,0.366-0.107c0.342-0.217,0.455-0.689,0.252-1.056l-2.907-5.262
				c-0.202-0.367-0.643-0.488-0.985-0.271s-0.455,0.689-0.252,1.056l2.907,5.263C180.905,187.702,181.144,187.837,181.39,187.837z"
				/>
		</g>
		<g>
			<path fill="#6020BD" d="M190.737,209.229c0.134,0,0.269-0.04,0.39-0.124l4.792-3.32c0.333-0.232,0.429-0.709,0.213-1.066
				c-0.216-0.357-0.661-0.459-0.994-0.229l-4.792,3.321c-0.334,0.231-0.43,0.708-0.214,1.066
				C190.27,209.104,190.501,209.229,190.737,209.229z"/>
		</g>
		<g>
			<path fill="#6020BD" d="M241.473,245.104c0.109,0,0.22-0.026,0.324-0.083c0.354-0.192,0.496-0.655,0.316-1.035l-2.577-5.457
				c-0.179-0.38-0.61-0.532-0.966-0.34c-0.354,0.192-0.496,0.655-0.316,1.036l2.576,5.457
				C240.957,244.951,241.21,245.104,241.473,245.104z"/>
		</g>
		<g>
			<path fill="#6020BD" d="M182.573,217.519c0.239,0,0.473-0.129,0.61-0.362c0.21-0.361,0.108-0.836-0.228-1.063l-4.837-3.245
				c-0.337-0.225-0.781-0.117-0.992,0.244c-0.21,0.361-0.108,0.837,0.228,1.063l4.837,3.245
				C182.31,217.48,182.442,217.519,182.573,217.519z"/>
		</g>
		<g>
			<path fill="#6020BD" d="M194.168,225.237c0.176,0.174,0.429,0.251,0.677,0.179c0.383-0.112,0.609-0.536,0.505-0.946l-1.498-5.901
				c-0.105-0.411-0.499-0.653-0.882-0.543c-0.384,0.112-0.61,0.536-0.505,0.946l1.497,5.902
				C194,225.019,194.073,225.143,194.168,225.237z"/>
		</g>
		<g>
			<path fill="#6020BD" d="M173.754,162.945l1.252,2.032c0.139,0.222,0.367,0.344,0.602,0.344c0.136,0,0.271-0.038,0.393-0.125
				c0.332-0.233,0.424-0.712,0.207-1.066l-1.391-2.263C174.417,162.233,174.061,162.593,173.754,162.945z"/>
		</g>
		<g>
			<path fill="#6020BD" d="M168.284,176.361l1.33,2.164c0.14,0.226,0.368,0.348,0.603,0.348c0.136,0,0.271-0.042,0.396-0.126
				c0.332-0.237,0.421-0.715,0.204-1.069l-1.886-3.069C168.719,175.174,168.505,175.763,168.284,176.361z"/>
		</g>
		<g>
			<path fill="#6020BD" d="M230.482,264.158c0.188,0,0.376-0.079,0.519-0.236l3.951-4.413c0.275-0.306,0.267-0.794-0.02-1.089
				c-0.287-0.295-0.742-0.285-1.018,0.022l-3.952,4.411c-0.275,0.308-0.266,0.796,0.021,1.09
				C230.123,264.087,230.303,264.158,230.482,264.158z"/>
		</g>
		<g>
			<path fill="#6020BD" d="M204.186,279.583c0.188,0,0.377-0.079,0.518-0.237l3.953-4.412c0.275-0.307,0.266-0.794-0.021-1.09
				c-0.285-0.295-0.741-0.285-1.017,0.023l-3.952,4.411c-0.274,0.308-0.266,0.795,0.021,1.089
				C203.826,279.512,204.006,279.583,204.186,279.583z"/>
		</g>
		<g>
			<path fill="#6020BD" d="M196.876,273.456c0.12-0.157,0.181-0.364,0.155-0.581l-0.713-6.068c-0.049-0.422-0.409-0.722-0.803-0.668
				c-0.395,0.053-0.673,0.438-0.624,0.86l0.713,6.068c0.049,0.423,0.409,0.722,0.803,0.668
				C196.599,273.71,196.764,273.605,196.876,273.456z"/>
		</g>
		<g>
			<path fill="#6020BD" d="M211.854,290.56c0.188,0,0.377-0.079,0.519-0.237l3.952-4.412c0.275-0.307,0.266-0.794-0.021-1.089
				c-0.286-0.296-0.741-0.285-1.017,0.022l-3.952,4.411c-0.275,0.308-0.266,0.795,0.021,1.09
				C211.495,290.488,211.675,290.56,211.854,290.56z"/>
		</g>
		<g>
			<path fill="#6020BD" d="M169.311,273.863c-0.004,0.523,0,1.039,0,1.548l4.46,0.4c0.396,0.038,0.746-0.278,0.778-0.703
				c0.036-0.424-0.261-0.795-0.657-0.833L169.311,273.863z"/>
		</g>
		<g>
			<path fill="#6020BD" d="M221.556,254.881c0.188,0,0.377-0.08,0.518-0.236l3.952-4.413c0.275-0.307,0.267-0.794-0.021-1.089
				s-0.74-0.285-1.016,0.022l-3.953,4.411c-0.275,0.308-0.266,0.796,0.021,1.09C221.196,254.81,221.376,254.881,221.556,254.881z"/>
		</g>
		<g>
			<path fill="#6020BD" d="M202.541,252.964c0.012,0.202,0.098,0.398,0.254,0.539l4.369,3.937c0.303,0.273,0.756,0.231,1.012-0.095
				s0.217-0.812-0.088-1.085l-4.367-3.937c-0.304-0.274-0.758-0.232-1.014,0.094C202.583,252.576,202.528,252.772,202.541,252.964z"
				/>
		</g>
		<g>
			<path fill="#6020BD" d="M181.73,274.615c0.122,0,0.246-0.033,0.359-0.104c0.344-0.214,0.461-0.685,0.262-1.053l-2.859-5.294
				c-0.199-0.368-0.638-0.494-0.982-0.28c-0.344,0.213-0.461,0.685-0.262,1.053l2.859,5.294
				C181.24,274.478,181.481,274.615,181.73,274.615z"/>
		</g>
		<g>
			<path fill="#6020BD" d="M176.781,258.882c0.261,0,0.512-0.151,0.64-0.418l2.616-5.435c0.182-0.378,0.043-0.843-0.309-1.038
				c-0.352-0.196-0.786-0.047-0.969,0.331l-2.616,5.436c-0.182,0.378-0.043,0.843,0.31,1.038
				C176.557,258.854,176.67,258.882,176.781,258.882z"/>
		</g>
		<g>
			<path fill="#6020BD" d="M184.585,197.169c0.261,0,0.512-0.151,0.64-0.417l2.616-5.436c0.183-0.379,0.044-0.844-0.309-1.038
				c-0.352-0.195-0.786-0.048-0.969,0.331l-2.616,5.436c-0.182,0.378-0.043,0.844,0.309,1.038
				C184.361,197.142,184.474,197.169,184.585,197.169z"/>
		</g>
		<g>
			<path fill="#6020BD" d="M181.728,174.359c0.045,0,0.091-0.004,0.137-0.015c0.39-0.08,0.645-0.484,0.57-0.902l-1.082-6.004
				c-0.075-0.42-0.453-0.691-0.842-0.611c-0.39,0.081-0.645,0.485-0.57,0.903l1.083,6.005
				C181.089,174.104,181.39,174.359,181.728,174.359z"/>
		</g>
		<g>
			<path fill="#6020BD" d="M168.587,195.081c0.045,0,0.091-0.004,0.137-0.014c0.39-0.081,0.645-0.485,0.57-0.902l-1.082-6.005
				c-0.075-0.419-0.453-0.691-0.842-0.611c-0.39,0.081-0.645,0.485-0.57,0.903l1.083,6.005
				C167.948,194.826,168.25,195.081,168.587,195.081z"/>
		</g>
		<g>
			<path fill="#6020BD" d="M191.064,179.632c0.045,0,0.091-0.004,0.137-0.014c0.39-0.08,0.645-0.485,0.57-0.903l-1.083-6.004
				c-0.075-0.419-0.453-0.69-0.842-0.611c-0.39,0.081-0.645,0.485-0.569,0.902l1.082,6.005
				C190.426,179.376,190.727,179.632,191.064,179.632z"/>
		</g>
		<g>
			<path fill="#6020BD" d="M186.779,158.714c0.14,0.034,0.275,0.023,0.399-0.022c0.225-0.084,0.407-0.287,0.464-0.551l1.208-5.515
				c-0.56,0.321-1.126,0.646-1.69,0.971l-0.917,4.188C186.152,158.202,186.391,158.615,186.779,158.714z"/>
		</g>
		<g>
			<path fill="#6020BD" d="M170.328,204.365c0.238,0,0.471-0.126,0.607-0.357l3.058-5.163c0.213-0.359,0.114-0.836-0.222-1.063
				c-0.336-0.229-0.779-0.121-0.993,0.237l-3.058,5.163c-0.213,0.359-0.114,0.836,0.221,1.064
				C170.063,204.327,170.196,204.365,170.328,204.365z"/>
		</g>
		<g>
			<path fill="#6020BD" d="M190.751,259.837c0.196-0.226,0.255-0.564,0.124-0.86l-2.458-5.519c-0.171-0.384-0.6-0.547-0.959-0.363
				c-0.359,0.183-0.51,0.643-0.339,1.026l2.458,5.521c0.171,0.384,0.601,0.547,0.958,0.363
				C190.619,259.962,190.691,259.904,190.751,259.837z"/>
		</g>
		<g>
			<path fill="#6020BD" d="M241.332,270.209l4.803,0.834c-0.003-0.517-0.008-1.036-0.014-1.563l-4.558-0.795
				c-0.393-0.065-0.763,0.218-0.823,0.639C240.676,269.743,240.939,270.141,241.332,270.209z"/>
		</g>
		<g>
			<path fill="#6020BD" d="M242.794,256.107l3.198,0.555c-0.007-0.52-0.011-1.039-0.019-1.563l-2.948-0.513
				c-0.392-0.069-0.76,0.218-0.823,0.638C242.138,255.646,242.401,256.039,242.794,256.107z"/>
		</g>
		<g>
			<path fill="#6020BD" d="M172.25,243.822c0.288,0,0.56-0.187,0.67-0.491l2.08-5.694c0.145-0.396-0.038-0.844-0.408-0.999
				s-0.787,0.041-0.932,0.437l-2.08,5.695c-0.145,0.396,0.038,0.844,0.408,0.999C172.075,243.805,172.163,243.822,172.25,243.822z"
				/>
		</g>
	</g>
	<g>
		<g>
			<g>
				<path fill="#6020BD" d="M169.608,225.854c1.35-5.592,3.047-11.805,4.729-17.159c0.004-0.012,0.008-0.02,0.012-0.031
					c0.519-1.654,1.037-3.225,1.544-4.665c0.007-0.027,0.015-0.054,0.027-0.076c0.156-0.455,0.316-0.895,0.473-1.322
					c0.023-0.077,0.038-0.149,0.038-0.222v-0.005c0-0.256-0.16-0.496-0.416-0.592c-0.332-0.119-0.698,0.05-0.816,0.382
					c-1.724,4.709-3.76,11.488-5.506,18.137C169.662,222.144,169.635,223.997,169.608,225.854z"/>
			</g>
		</g>
	</g>
	<g>
		<path fill="#403657" d="M190.228,117.912c0,0-5.008-5.531-3.118-11.964c1.89-6.433,7.06-6.363,7.06-6.363s3.017-6.843,8.153-7.069
			c5.138-0.225,9.979-9.368,14.654-6.885c4.675,2.483-0.506,7.901-0.506,7.901s8.009-8.465,10.65-5.982
			c2.641,2.483-3.667,9.142-3.667,9.142s6.729-4.74,8.939-2.935c2.211,1.806-5.272,9.594-5.272,9.594s4.842,8.747-0.032,12.669
			L190.228,117.912z"/>
		<g>
			<path fill="#F97853" d="M225.214,119.763c0,0,3.201-4.278,5.582-0.74c2.381,3.538-0.984,13.986-6.814,11.436L225.214,119.763z"/>
			<g>
				<path fill="#EA5143" d="M225.255,127.229c0.215,0,0.413-0.143,0.475-0.36c0.903-3.226,4.238-4.534,4.271-4.546
					c0.254-0.097,0.383-0.382,0.285-0.637c-0.096-0.254-0.381-0.383-0.634-0.287c-0.156,0.059-3.832,1.488-4.872,5.203
					c-0.074,0.263,0.08,0.535,0.342,0.608C225.166,127.223,225.21,127.229,225.255,127.229z"/>
			</g>
			<g>
				<path fill="#EA5143" d="M228.622,125.604c0.091,0,0.184-0.025,0.266-0.079c0.229-0.147,0.295-0.453,0.146-0.682
					c-0.023-0.039-0.613-0.94-1.849-1.494c-0.247-0.111-0.539,0-0.65,0.249c-0.11,0.249,0,0.541,0.249,0.652
					c0.953,0.428,1.418,1.121,1.422,1.127C228.302,125.524,228.46,125.604,228.622,125.604z"/>
			</g>
		</g>
		<g>
			<path fill="#F97853" d="M192.215,119.763c0,0-3.202-4.278-5.583-0.74c-2.381,3.538,0.985,13.986,6.814,11.436L192.215,119.763z"
				/>
			<g>
				<path fill="#EA5143" d="M192.173,127.229c-0.215,0-0.413-0.143-0.474-0.36c-0.903-3.226-4.238-4.534-4.272-4.546
					c-0.253-0.097-0.381-0.382-0.285-0.637s0.38-0.383,0.634-0.287c0.156,0.059,3.831,1.488,4.872,5.203
					c0.074,0.263-0.079,0.535-0.341,0.608C192.262,127.223,192.218,127.229,192.173,127.229z"/>
			</g>
			<g>
				<g>
					<path fill="#EA5143" d="M188.807,125.604c-0.091,0-0.184-0.025-0.267-0.079c-0.229-0.147-0.294-0.453-0.147-0.682
						c0.024-0.039,0.614-0.94,1.849-1.494c0.248-0.111,0.54,0,0.65,0.249c0.111,0.249,0,0.541-0.248,0.652
						c-0.955,0.428-1.418,1.121-1.423,1.127C189.127,125.524,188.969,125.604,188.807,125.604z"/>
				</g>
			</g>
		</g>
		<path fill="#FFA681" d="M200.832,139.32v10.392c0,0,3.093,5.292,7.273,5.651c4.179,0.366,7.892-4.556,7.892-4.556v-10.757
			L200.832,139.32z"/>
		<path fill="#F97853" d="M200.832,139.32v4.611c2.807,3.12,7.79,3.899,15.165,2.809v-6.689L200.832,139.32z"/>
		<path fill="#FFA681" d="M189.901,112.636c0.19,4.038,0.573,9.089,1.343,13.123v0.012c0,0.012,0.004,0.023,0.008,0.039
			c0,0.004,0.004,0.004,0.004,0.008c0.189,0.985,0.402,1.913,0.635,2.747c0.14,0.489,0.291,1,0.46,1.524
			c2.458,7.727,8.152,18.911,22.464,13.794c6.027-2.153,9.167-8.391,10.766-15.156c0.093-0.404,0.182-0.803,0.26-1.187
			c0.053-0.256,0.104-0.504,0.15-0.749l0.07-0.361c0.012-0.063,0.02-0.105,0.022-0.132c0.004-0.016,0.004-0.023,0.004-0.023
			c0.944-5.202,1.088-10.462,1.019-14.221c-0.074-3.832-2.164-7.339-5.492-9.228c-9.017-5.125-18.536-3.212-24.803-0.799
			C192.46,103.699,189.677,107.978,189.901,112.636z"/>
		<path fill="#403657" d="M191.241,125.759c0,0,0,0.004,0.004,0.012c0,0.012,0.004,0.023,0.008,0.039
			c0,0.004,0.004,0.004,0.004,0.008c0.093,0.338,0.596,2.188,1.095,4.271c2.458,7.727,8.152,18.911,22.464,13.794
			c6.027-2.153,9.167-8.391,10.766-15.156c0.093-0.404,0.182-0.803,0.26-1.187c0.053-0.256,0.104-0.504,0.15-0.749l0.07-0.361
			c0.012-0.063,0.02-0.105,0.022-0.132c0.004-0.016,0.004-0.023,0.004-0.023l-2.105-0.427c-0.403,1.998-1.293,3.88-2.385,5.551
			c-1.78-4.274-10.816-1.435-10.816-1.435l-0.042,0.016c-0.55,0.17-1.114,0.26-1.684,0.26c-0.585,0-1.165-0.093-1.73-0.275
			c0,0-8.927-2.964-10.777,1.113c-1.85-2.87-3.104-5.473-3.104-5.473l-2.199,0.155H191.241z M209.031,131.9
			c10.217-1.381,8.61,4.131,8.61,4.131c-1.135,1.035-2.172,1.792-2.869,2.184c-2.229,1.245-4.425,1.719-6.015,1.642
			c-1.568-0.066-1.998,0.256-5.962-1.894c-0.7-0.376-1.409-0.935-2.102-1.598c0,0,0,0-0.004,0v-0.004
			C200.52,135.282,198.79,130.135,209.031,131.9z"/>
		<ellipse fill="#403657" cx="201.049" cy="120.15" rx="1.274" ry="2.008"/>
		<ellipse fill="#403657" cx="216.978" cy="120.15" rx="1.274" ry="2.008"/>
		<path fill="#403657" d="M196.513,113.378c0,0,5.265-2.085,9.319-0.33l-0.404,2.259c0,0-5.951-0.504-8.949,0.713
			C196.21,115.151,196.17,114.272,196.513,113.378z"/>
		<path fill="#403657" d="M221.548,113.389c0,0-5.305-2.101-9.389-0.333l0.408,2.276c0,0,5.994-0.508,9.015,0.718
			C221.854,115.174,221.894,114.289,221.548,113.389z"/>
		<g>
			<g>
				<path fill="#F97853" d="M208.543,129.126c-0.83,0-1.656-0.324-1.783-0.376c-0.251-0.103-0.372-0.391-0.27-0.643
					c0.103-0.252,0.391-0.374,0.643-0.271c0.445,0.181,1.513,0.465,1.975,0.188c0.09-0.054,0.213-0.16,0.242-0.46
					c0.18-1.724-0.293-7.502-0.297-7.56c-0.022-0.271,0.18-0.51,0.451-0.532s0.509,0.18,0.531,0.451
					c0.02,0.242,0.482,5.929,0.295,7.743c-0.07,0.683-0.428,1.032-0.715,1.205C209.299,129.06,208.92,129.126,208.543,129.126z"/>
			</g>
		</g>
		<path fill="#FFFFFF" d="M214.823,132.886c-0.374,1.886-1.617,5.355-5.805,5.355c-4.198,0-5.374-3.17-5.779-5.355H214.823z"/>
		<path fill="#403657" d="M189.899,112.634c0.192,4.039,0.577,9.088,1.345,13.126l2.202-0.156c0,0-0.534-3.41-0.78-5.631
			c-0.246-2.222-0.665-6.374,1.227-6.892c1.887-0.513,0.78-5.25,3.405-7.304c2.625-2.059,8.498-2.623,12.371-0.234
			c3.871,2.384,8.235-0.181,10.019,0.234c1.788,0.41,4.211,2.878,3.557,5.183c-0.661,2.3,1.311,3.703,1.787,6.087
			c0.479,2.384-1.049,8.801-1.049,8.801l2.104,0.425c0.946-5.203,1.089-10.46,1.02-14.217c-0.073-3.835-2.162-7.341-5.492-9.231
			c-9.02-5.124-18.537-3.214-24.803-0.8C192.461,103.7,189.678,107.979,189.899,112.634z"/>
	</g>
</g>
<g>
	<g>
		<g>
			<g>
				<g>
					<path fill="#7846D1" d="M280.549,223.825c-1.339,12.238-9.313,39.58-14.834,44.937c-7.188,6.973-30.844,21.652-43.165,29.179
						c-2.224,1.358,8.218,10.399,8.218,10.399s32.716-14.02,45.21-25.072c3.535-3.127,10.711-12.989,18.813-31.774
						c2.456-5.696,8.408-17.184,8.101-24.673C302.535,218.2,288.869,219.619,280.549,223.825z"/>
				</g>
			</g>
			<path fill="#FFA681" d="M255.021,294.128c0,0-8.898,3.387-12.052,7.111c-3.154,3.725-7.321,6.884-6.307,8.352
				c1.014,1.468,5.631-2.821,5.631-2.821s1.266,4.715,5.744,5.224c4.479,0.508,12.953-8.271,12.953-8.271L255.021,294.128z"/>
			<g>
				<g>
					<path fill="#9C78ED" d="M342.854,257.997c0.003,0.774-0.004,1.69-0.018,2.729c-0.014,1.033-0.036,2.187-0.067,3.449
						c-0.025,0.864-0.052,1.778-0.083,2.737c-0.03,0.809-0.062,1.646-0.096,2.515c-0.038,0.888-0.078,1.802-0.123,2.745
						c-0.619,12.817-2.117,30.516-5.411,44.703h-69.228c2.309-10.312,5.842-26.576,8.644-47.678c0.117-0.887,0.234-1.783,0.35-2.688
						c0.114-0.906,0.228-1.82,0.34-2.741c0.061-0.489,0.119-0.984,0.178-1.479c0.048-0.408,0.095-0.814,0.14-1.217
						c0.129-1.138,0.246-2.257,0.35-3.354c0.088-0.916,0.169-1.816,0.246-2.706c1.187-14.188,0.768-24.819,2.473-31.188
						c1.987-7.414,25.153-15.912,25.153-15.912l14.514,0.761c0,0,13.839,4.527,21.237,11.036c7.399,6.511,1.211,25.935,1.392,36.965
						C342.851,257.054,342.853,257.496,342.854,257.997z"/>
					<g>
						<path fill="#E0D5F8" d="M342.837,260.727c-6.294,0.765-12.86,1.067-19.304,1.067c-21.101,0-40.908-3.232-45.704-4.075
							c0.088-0.916,0.169-1.816,0.246-2.706c5.573,0.988,37.824,6.334,64.779,2.984
							C342.857,258.771,342.851,259.688,342.837,260.727z"/>
					</g>
					<g>
						<path fill="#E0D5F8" d="M342.77,264.176c-0.025,0.864-0.052,1.778-0.083,2.737c-6.249,0.752-12.762,1.048-19.153,1.048
							c-22.292,0-43.141-3.607-46.371-4.192c0.061-0.489,0.119-0.984,0.178-1.479c0.048-0.408,0.095-0.814,0.14-1.217
							C280.688,261.66,314.6,267.656,342.77,264.176z"/>
					</g>
					<g>
						<path fill="#E0D5F8" d="M342.591,269.428c-0.038,0.888-0.078,1.802-0.123,2.745c-6.502,0.828-13.309,1.151-19.983,1.151
							c-21.584,0-41.81-3.379-46.012-4.126c0.117-0.887,0.234-1.783,0.35-2.688C281.818,267.401,315.134,273.028,342.591,269.428z"
							/>
					</g>
					<g>
						<path fill="#7846D1" d="M309.888,221.866c7.218,0,13.875-7.687,14.163-8.024c0.184-0.214,0.158-0.536-0.055-0.719
							c-0.213-0.185-0.534-0.159-0.719,0.055c-0.069,0.082-7.041,8.132-14.011,7.646c-0.279-0.021-0.523,0.192-0.543,0.474
							c-0.02,0.28,0.192,0.524,0.473,0.545C309.428,221.858,309.658,221.866,309.888,221.866z"/>
					</g>
					<g>
						<path fill="#7846D1" d="M316.146,308.313c0.255,0,0.475-0.191,0.505-0.451c0.032-0.28-0.169-0.533-0.448-0.565
							c-18.642-2.15-26.363-34.485-26.439-34.813c-0.063-0.273-0.337-0.444-0.612-0.381c-0.273,0.063-0.443,0.339-0.38,0.612
							c0.316,1.362,7.968,33.363,27.315,35.595C316.105,308.312,316.125,308.313,316.146,308.313z"/>
					</g>
					<g>
						<path fill="#7846D1" d="M308.722,298.528c0.171,0,0.337-0.086,0.434-0.242c0.147-0.24,0.074-0.555-0.166-0.702
							c-9.915-6.126-11.389-15.156-11.403-15.247c-0.042-0.277-0.299-0.472-0.579-0.428c-0.278,0.043-0.47,0.303-0.427,0.58
							c0.058,0.389,1.538,9.577,11.875,15.963C308.538,298.504,308.63,298.528,308.722,298.528z"/>
					</g>
				</g>
				<g>
					<ellipse fill="#403657" cx="314.511" cy="174.3" rx="20.422" ry="20.465"/>
					<path fill="#403657" d="M294.423,170.631c0,0-5.783-1.6-5.021-7.225c0.649-4.787,6.261-1.684,5.769-5.425
						c-0.494-3.741-1.59-7.143,3.239-8.078c4.226-0.818,4.297,2.083,9.845-2.126c6.554-4.973,11.589,6.542,17.438,6.888
						c8.628,0.511,9.717,5.399,10.565,9.312c0.849,3.911-2.473,6.654-2.473,6.654H294.423z"/>
					<g>
						<path fill="#F97853" d="M297.52,180.026c0,0-3.234-4.321-5.64-0.748c-2.405,3.574,0.995,14.13,6.884,11.554L297.52,180.026z"
							/>
						<g>
							<path fill="#EA5143" d="M297.479,187.57c-0.218,0-0.418-0.145-0.479-0.364c-0.913-3.259-4.281-4.581-4.316-4.594
								c-0.256-0.099-0.386-0.386-0.288-0.643c0.098-0.258,0.385-0.387,0.642-0.29c0.157,0.06,3.87,1.503,4.922,5.256
								c0.073,0.267-0.081,0.541-0.346,0.616C297.568,187.564,297.522,187.57,297.479,187.57z"/>
						</g>
						<g>
							<g>
								<path fill="#EA5143" d="M294.077,185.929c-0.093,0-0.186-0.026-0.269-0.08c-0.232-0.149-0.299-0.457-0.15-0.689
									c0.025-0.038,0.622-0.949,1.869-1.509c0.249-0.112,0.545,0,0.657,0.251c0.112,0.253,0,0.547-0.251,0.66
									c-0.965,0.432-1.434,1.131-1.438,1.138C294.4,185.847,294.24,185.929,294.077,185.929z"/>
							</g>
						</g>
					</g>
					<path fill="#FFA681" d="M320.981,199.786v10.497c0,0-4.307,4.626-8.531,4.99c-4.221,0.369-6.788-4.655-6.788-4.655v-10.095
						L320.981,199.786z"/>
					<path fill="#F97853" d="M320.981,199.786v4.657c-2.835,3.152-7.869,3.94-15.319,2.838v-6.758L320.981,199.786z"/>
					<path fill="#FFA681" d="M332.027,172.826c-0.195,4.079-0.583,9.181-1.359,13.26c-0.194,1.018-0.413,1.975-0.657,2.833
						c-2.204,7.735-7.719,21-23.156,15.475c-6.818-2.438-9.979-10.049-11.387-17.788c-0.956-5.258-1.1-10.568-1.03-14.363
						c0.074-3.875,2.186-7.416,5.55-9.326c9.111-5.176,18.727-3.246,25.058-0.808C329.438,163.799,332.251,168.122,332.027,172.826z
						"/>
					<g>
						<g>
							<g>
								<g>
									<g>
										<path fill="#403657" d="M313.506,180.24v0.828c0,1.668,0.649,3.233,1.83,4.408c1.163,1.158,2.701,1.794,4.336,1.794h0.201
											c1.418-0.03,2.707-0.603,3.836-1.701c1.133-1.108,1.782-2.692,1.782-4.351v-0.979c0-0.271-0.051-0.53-0.145-0.771
											c-0.108-0.292-0.276-0.552-0.493-0.769c-0.393-0.395-0.934-0.638-1.535-0.638h-7.641c-0.864,0-1.61,0.506-1.958,1.24
											c-0.13,0.268-0.205,0.565-0.211,0.879C313.506,180.201,313.506,180.223,313.506,180.24z M314.407,180.24
											c0-0.704,0.571-1.273,1.271-1.273h7.641c0.703,0,1.271,0.569,1.271,1.273v0.979c0,1.415-0.55,2.768-1.511,3.703
											c-0.959,0.934-2.044,1.418-3.225,1.445h-0.183c-1.395,0-2.707-0.542-3.702-1.532c-1.007-1.003-1.563-2.34-1.563-3.767
											V180.24z"/>
									</g>
								</g>
							</g>
							<g>
								<g>
									<g>
										<path fill="#403657" d="M298.207,180.24v0.828c0,1.668,0.651,3.233,1.83,4.408c1.163,1.158,2.701,1.794,4.336,1.794h0.204
											c1.414-0.03,2.706-0.603,3.833-1.701c1.133-1.108,1.784-2.692,1.784-4.351v-0.979c0-0.015,0-0.027-0.002-0.042
											c-0.004-0.296-0.069-0.578-0.184-0.835c-0.337-0.767-1.1-1.3-1.985-1.3h-7.645c-0.67,0-1.271,0.308-1.67,0.786
											c-0.192,0.234-0.34,0.508-0.418,0.807C298.233,179.843,298.207,180.038,298.207,180.24z M299.108,180.24
											c0-0.704,0.571-1.273,1.271-1.273h7.645c0.699,0,1.271,0.569,1.271,1.273v0.979c0,1.415-0.554,2.768-1.512,3.703
											c-0.958,0.934-2.043,1.418-3.225,1.445h-0.185c-1.396,0-2.708-0.542-3.699-1.532c-1.01-1.003-1.565-2.34-1.565-3.767
											V180.24z"/>
									</g>
								</g>
							</g>
							<g>
								<g>
									<path fill="#403657" d="M330.937,177.697c-2.595-0.111-4.448,0.639-5.182,1.004c-0.204,0.1-0.75,0.456-0.773,0.471
										l0.429,0.767c0.006-0.003,0.604-0.361,0.838-0.47c0.719-0.336,2.314-1.01,4.688-0.87V177.697z"/>
								</g>
							</g>
							<g>
								<g>
									<path fill="#403657" d="M314.111,180.274l0.296-0.854c-0.053-0.019-1.318-0.454-2.708-0.454
										c-1.48,0-2.433,0.455-2.473,0.474l0.394,0.813c0.007-0.002,0.819-0.384,2.079-0.384
										C312.932,179.869,314.1,180.271,314.111,180.274z"/>
								</g>
							</g>
							<g>
								<g>
									<path fill="#403657" d="M295.051,177.916v0.905c1.867,0.154,3.591,0.989,3.616,1.001l0.396-0.811
										C298.961,178.961,297.109,178.066,295.051,177.916z"/>
								</g>
							</g>
						</g>
					</g>
					<ellipse fill="#403657" cx="303.993" cy="181.397" rx="1.287" ry="2.028"/>
					<ellipse fill="#403657" cx="319.067" cy="181.397" rx="1.288" ry="2.028"/>
					<path fill="#403657" d="M299.806,175.167c0,0,5.358-2.123,9.484-0.336l-0.345,1.919c0,0-4.469-1-8.843,0.636
						C299.828,176.5,299.458,176.076,299.806,175.167z"/>
					<path fill="#403657" d="M324.326,175.167c0,0-5.358-2.123-9.484-0.336l0.344,1.919c0,0,4.469-1,8.845,0.636
						C324.304,176.5,324.675,176.076,324.326,175.167z"/>
					<g>
						<g>
							<path fill="#F97853" d="M312.319,189.9c0.841,0,1.673-0.327,1.802-0.38c0.254-0.104,0.376-0.396,0.272-0.65
								c-0.103-0.255-0.395-0.378-0.648-0.273c-0.45,0.183-1.528,0.47-1.996,0.188c-0.09-0.054-0.214-0.161-0.245-0.464
								c-0.18-1.742,0.297-7.578,0.301-7.638c0.022-0.274-0.182-0.516-0.455-0.537c-0.275-0.024-0.514,0.182-0.537,0.455
								c-0.02,0.244-0.487,5.99-0.299,7.822c0.072,0.69,0.434,1.043,0.725,1.218C311.557,189.833,311.939,189.9,312.319,189.9z"/>
						</g>
					</g>
					<path fill="#FFFFFF" d="M306.151,192.433c0.406,2.05,1.758,5.823,6.313,5.823c4.565,0,5.846-3.448,6.285-5.823H306.151z"/>
					<g>
						<path fill="#F97853" d="M312.402,200.859c1.288,0,2.38-0.653,2.426-0.682c0.235-0.143,0.311-0.449,0.168-0.685
							c-0.143-0.236-0.448-0.312-0.684-0.169c-0.008,0.005-0.907,0.538-1.91,0.538c-0.921,0-1.803-0.53-1.812-0.536
							c-0.233-0.144-0.54-0.071-0.685,0.163c-0.145,0.233-0.072,0.541,0.162,0.687C310.113,200.203,311.187,200.859,312.402,200.859
							z"/>
					</g>
					<path fill="#403657" d="M297.008,183.354c-0.376-2.057-0.747-4.71-0.478-6.072c0.484-2.407,2.476-3.823,1.812-6.145
						c-0.664-2.33,1.786-4.825,3.592-5.24c1.801-0.419,6.015,0.48,10.162-1.492c3.959-1.887,10.842-0.537,11.964,2.009
						c1.356,3.082-0.489,3.374,3.214,6.708c1.475,1.329-0.275,4.779-0.525,7.024c-0.112,1.032-0.129,1.536-0.088,2.646l0.015,0.563
						h4.434c0.488-3.48,0.768-7.318,0.92-10.529c0.225-4.704-2.592-9.023-6.983-10.716c-6.332-2.438-15.943-4.371-25.061,0.808
						c-3.361,1.912-5.474,5.451-5.545,9.326c-0.057,3.009,0.022,6.975,0.536,11.111H297.008z"/>
					<g>
						<path fill="#FFA681" d="M329.143,185.272c-0.013-1.161,0.069-2.324,0.271-3.467c0.277-1.565,0.73-2.984,2.327-3.637
							c1.286-0.524,2.658-0.535,3.636,0.916c2.405,3.575-0.273,14.696-6.163,12.12L329.143,185.272z"/>
						<g>
							<g>
								<path fill="#F97853" d="M330.353,187.966c0.214-0.043,0.381-0.224,0.398-0.452c0.258-3.374,3.305-5.33,3.335-5.35
									c0.232-0.147,0.303-0.454,0.156-0.688c-0.145-0.233-0.452-0.305-0.684-0.158c-0.144,0.089-3.503,2.233-3.8,6.12
									c-0.021,0.274,0.184,0.514,0.458,0.535C330.264,187.978,330.309,187.974,330.353,187.966z"/>
							</g>
						</g>
						<g>
							<g>
								<path fill="#F97853" d="M333.367,185.688c0.09-0.018,0.177-0.063,0.248-0.131c0.197-0.191,0.202-0.508,0.012-0.705
									c-0.032-0.032-0.795-0.81-2.127-1.113c-0.267-0.062-0.534,0.107-0.596,0.376c-0.061,0.268,0.107,0.535,0.376,0.597
									c1.029,0.234,1.626,0.829,1.631,0.835C333.034,185.673,333.207,185.721,333.367,185.688z"/>
							</g>
						</g>
					</g>
				</g>
			</g>
			<g>
				<path fill="#7846D1" d="M338.509,217.433c-7.273,11.047-35.11,49.24-41.392,53.678c-8.176,5.775-30.465,13.989-43.261,22.552
					c-4.348,2.908,5.924,11.142,5.924,11.142s31.193-8.786,45.242-17.773c3.974-2.542,20.503-19.134,31.041-33.851
					c3.61-5.041,9.482-12.044,10.332-19.491C347.374,225.117,344.687,220.53,338.509,217.433z"/>
			</g>
		</g>
	</g>
	<g>
		<path fill="#1A0B42" d="M283.336,316.876h-86.715c-1.108,0-2.006-0.9-2.006-2.011v-6.924c0-1.11,0.898-2.011,2.006-2.011h86.715
			c1.109,0,2.007,0.9,2.007,2.011v6.924C285.343,315.976,284.445,316.876,283.336,316.876z"/>
		<path fill="#403657" d="M194.634,316.876l-17.054-64c-0.958-3.594,1.746-7.122,5.458-7.122h37.525
			c2.532,0,4.756,1.688,5.439,4.131l18.779,66.991H194.634z"/>
		<path fill="#1A0B42" d="M226.006,249.886l18.623,66.438h4.287l-18.622-66.438c-0.689-2.444-2.908-4.134-5.441-4.134h-4.289
			C223.098,245.752,225.316,247.441,226.006,249.886z"/>
		<path fill="#614C6E" d="M216.358,284.18c0.975,4.222-1.65,7.644-5.862,7.644c-4.213,0-8.419-3.422-9.393-7.644
			c-0.976-4.221,1.649-7.643,5.861-7.643C211.178,276.537,215.384,279.959,216.358,284.18z"/>
	</g>
</g>
<g>
	<path fill="#5B23A9" d="M381.189,323.411v0.625c0,3.603-2.915,6.523-6.513,6.523H36.922c-3.597,0-6.51-2.921-6.51-6.523v-0.625
		c0-3.603,2.913-6.523,6.51-6.523h337.755C378.274,316.888,381.189,319.809,381.189,323.411z"/>
	<path fill="#7846D1" d="M381.189,323.411v0.313H30.412v-0.313c0-3.603,2.913-6.523,6.51-6.523h337.755
		C378.274,316.888,381.189,319.809,381.189,323.411z"/>
</g>
</svg>
