<?xml version="1.0" encoding="utf-8"?>
<!-- Generator: Adobe Illustrator 16.0.0, SVG Export Plug-In . SVG Version: 6.00 Build 0)  -->
<!DOCTYPE svg PUBLIC "-//W3C//DTD SVG 1.1//EN" "http://www.w3.org/Graphics/SVG/1.1/DTD/svg11.dtd">
<svg version="1.1" id="Capa_1" xmlns="http://www.w3.org/2000/svg" xmlns:xlink="http://www.w3.org/1999/xlink" x="0px" y="0px"
	 width="400px" height="400px" viewBox="0 0 400 400" enable-background="new 0 0 400 400" xml:space="preserve">
<g>
	<path fill="#E6E7E8" d="M320.008,271.327c-2.704-12.831-18.295-17.464-31.221-19.675c-37.037-6.335-74.074-12.67-111.111-19.005
		l-66.984,46.241c-5.93,21.098-11.858,42.195-17.787,63.293c-0.875,3.115-1.758,6.371-1.13,9.545
		c0.513,2.596,2.009,4.909,3.824,6.834c15.224,16.146,43.69,2.967,63.751,12.454c4.312,2.039,8.066,5.075,12.189,7.474
		c21.234,12.355,51.868,3.952,63.828-17.507c2.194-3.938,3.854-8.254,6.866-11.608c6.917-7.706,18.527-8.168,28.697-10.117
		c13.609-2.608,26.891-9.215,35.169-20.327c7.188-9.647,10.055-21.748,12.751-33.474C319.919,280.813,320.99,275.99,320.008,271.327
		z"/>
	<g>
		<path fill="#5B310A" d="M169.706,165.421c0.085,0.731,5.947-0.339,11.155-1.461c-0.884,0.663-1.768,1.308-2.668,1.86
			c-1.513,0.935-4.894,2.685-6.661,2.838C169.484,168.846,169.858,166.73,169.706,165.421z"/>
		<path fill="#BCBCBC" d="M183.104,306.491c-0.009,0.246-0.018,0.493-0.025,0.739c-1.726,1.104-3.136,2.6-4.826,3.916
			c-3.024,2.379-6.372,4.427-9.906,5.956c-3.476,1.504-7.137,2.54-10.884,3.017c-2.498,0.322-5.029,0.152-7.519,0.331
			c-0.018-0.11-0.026-0.229-0.043-0.34c0.519-0.892,0.926-1.853,1.538-2.693c0.892-1.215,1.945-2.421,3.126-3.364
			c0.417-0.332-0.033-1.07-0.51-0.893c-1.64,0.611-3.075,1.402-4.214,2.77c-0.136,0.153-0.264,0.314-0.399,0.493
			c-0.356-2.897-0.722-5.803-1.079-8.7c0.773-0.883,1.623-1.639,2.804-2.285c1.462-0.799,3.28-1.316,4.613-2.361
			c1.853,1.895,4.163,3.279,6.517,2.719c0.824-0.188,1.156-1.182,0.765-1.869c-0.662-1.182-1.555-1.674-2.616-2.473
			c-1.683-1.249-3.109-2.625-4.282-4.376c-1.334-1.987-1.979-3.993-2.345-6.117c9.006,5.14,18.708,9.022,28.768,11.513
			C182.611,303.891,182.747,305.268,183.104,306.491z"/>
		<path fill="#93331D" d="M167.038,165.031c1.274,0.272,1.555,4.758,1.461,9.397c-0.085,4.647-0.535,9.431-0.73,10.306
			c-0.212,0.994-0.535,2.03-0.951,3.059c-1.606,3.951-4.707,7.672-9.253,7.324c-3.899-0.297-6.432-3.883-7.646-7.239
			c-0.985-2.744-1.3-5.76-1.401-8.836c-0.128-3.951,0.094-8.003-0.331-11.708c-0.604-5.302-1.555-11.614-4.529-16.245
			c2.813-0.867,6.05-1.572,7.919,0.467c1.104,1.206,1.597,2.829,2.192,4.35c0.772,1.954,2.234,3.636,4.035,5.021
			c0.569,3.602,0.085,7.595,0.085,11.096c0.009,4.044-0.153,8.25,0.68,12.218c0.068,0.323,0.578,0.323,0.646,0
			c1.045-4.987,0.697-10.374,0.688-15.446c0-2.294-0.068-4.571-0.493-6.763C161.762,163.476,164.489,164.496,167.038,165.031z"/>
		<path fill="#5B310A" d="M144.813,163.264c-1.699-0.884-3.619-1.589-4.503-2.234c-2.227-1.614-4.07-3.764-5.616-6.024
			c-0.611-0.9-1.146-1.877-1.725-2.821c2.506,0.179,4.919,0.569,7.511-0.11c0.331-0.085,0.705-0.195,1.096-0.323
			C142.62,155.625,144.03,159.304,144.813,163.264z"/>
		<path fill="#5B310A" d="M236.757,98.54c1.028,4.129-1.24,8.972-2.735,12.787c-1.283,3.263-2.829,6.398-4.393,9.533
			c-0.544-2.319-1.428-5.556-3.356-6.941C229.442,108.566,232.619,103.239,236.757,98.54z"/>
		<path d="M215.381,91.25c3.679,7.953,2.175,17.349-6.517,20.697c-3.271,1.274-7.238,1.436-10.161-0.127
			c-7.536-4.036-3.102-15.021,0.476-20.195c2.294-3.322,5.99-6.338,9.975-5.659C211.948,86.433,214.191,88.676,215.381,91.25z
			 M206.74,97.546c1.903-0.519,3.322-4.46,1.3-5.616c-1.69-0.952-3.662,0.952-4.044,2.549c-0.025,0.119-0.051,0.238-0.06,0.348
			C203.792,96.348,205.254,97.945,206.74,97.546z"/>
		<path d="M220.793,103.077c1.181-9.014-3.288-23.229-14.996-19.958c-0.535,0.153-0.883-0.441-0.476-0.824
			c4.078-3.9,10.34-2.014,13.662,1.962c2.345,2.804,3.619,6.38,3.917,10c0.152,1.818,0.059,3.662-0.272,5.446
			C222.552,100.104,221.294,104.275,220.793,103.077z"/>
		<path fill="#FFFFFF" d="M206.74,97.546c-1.486,0.399-2.948-1.198-2.804-2.719c0.009-0.11,0.034-0.229,0.06-0.348
			c0.382-1.597,2.354-3.5,4.044-2.549C210.063,93.086,208.644,97.028,206.74,97.546z"/>
		<path d="M193.647,335.098c5.965-1.207,12.354-2.048,18.411-1.173c0.307,0.042,0.213,0.519-0.076,0.519
			c-6.168,0.127-12.081,0.025-18.207,1.104C193.486,335.599,193.359,335.157,193.647,335.098z"/>
		<path d="M183.385,121.479c0.434,3.56-1.274,6.933-3.611,9.499c-5.667,6.219-15.369,8.955-23.16,5.318
			c-2.728-1.138-5.038-3.084-6.983-5.268c-5.056-5.692-10.757-16.108-3.476-22.498c5.506-4.826,14.639-3.348,21.011-1.342
			c4.13,1.3,8.199,3.279,11.444,6.185C180.98,115.49,183.002,118.251,183.385,121.479z"/>
		<path fill="#FFFFFF" d="M148.669,75.142c-0.968,1.164-3.144,1.257-3.899-0.068c-0.977-1.708,0.808-5.506,3.05-4.886
			c1.87,0.519,1.921,3.263,1.054,4.656C148.813,74.955,148.746,75.048,148.669,75.142z"/>
		<path d="M144.77,75.074c0.756,1.325,2.932,1.231,3.899,0.068c0.077-0.094,0.145-0.187,0.204-0.297
			c0.867-1.394,0.816-4.138-1.054-4.656C145.577,69.568,143.793,73.366,144.77,75.074z M151.252,65.185
			c3.297,2.336,3.781,7.086,3.051,11.062c-1.139,6.185-5.777,17.077-13.951,14.604c-3.169-0.968-5.862-3.883-7.272-7.103
			c-3.772-8.513,1.81-16.219,10.042-19.235C145.772,63.536,148.95,63.536,151.252,65.185z"/>
		<path d="M155.637,65.55c-5.956-10.595-19.176-3.713-24.716,3.492c-1.198,0.493,0.867-3.347,1.097-3.679
			c1.027-1.504,2.26-2.863,3.661-4.044c2.762-2.345,6.194-3.968,9.839-4.299c5.157-0.458,10.926,2.643,11.045,8.284
			C156.579,65.864,155.917,66.034,155.637,65.55z"/>
		<path fill="#FFFFFF" d="M211.033,131.829c0.095-0.207,0.216-0.397,0.326-0.595c0.283-0.687,1.731-2.482,1.649-3.147
			c-0.098-0.8-1.281-1.02-2.037-1.271c-4.661-1.547-7.916-4.049-11.762-7.105c-3.547-2.819-6.333-6.689-9.199-10.172
			c-2.882-3.502-4.058-7.229-3.67-11.747c0.279-3.253,0.402-6.526,0.913-9.756c0.496-3.132,1.588-5.576,2.914-8.409
			c1.373-2.931,2.805-5.834,4.062-8.817c2.235-5.307,4.403-10.643,6.602-15.964c2.321-5.619,5.22-11.324,6.507-17.285
			c0.437-2.024-2.189-3.17-3.337-1.407c-0.195,0.301-0.372,0.615-0.56,0.922c-3.882-1.296-7.771-2.54-11.411-4.08
			c-0.005-0.28-0.021-0.559-0.05-0.836c-0.139-0.004-0.277-0.022-0.411-0.075c-0.142-0.056-0.271-0.121-0.409-0.175
			c-0.029-0.014-0.061-0.033-0.09-0.048c-0.849-0.39-1.599-0.875-2.335-1.485c-0.198,0.093-0.384,0.208-0.544,0.348
			c-3.387,2.98-4.636,9.249-6.266,13.396c-1.199,3.05-3.366,6.91-3.794,10.495c-0.012,0.023-0.027,0.04-0.039,0.063
			c-5.661,11.307-9.224,23.523-18.979,32.163c-9.585,8.487-23.295,9.667-35.125,5.758c-0.261-0.086-0.504-0.122-0.739-0.136
			c-0.468,1.697-0.977,3.381-1.507,5.06c0.015,0.013,0.03,0.025,0.045,0.039c-1.972,6.184-4.267,13.285-5.429,20.155
			c-1.045,6.16,4.172,18.267,7.621,23.059c3.501,4.885,9.049,7.324,14.953,6.805c4.724-0.425,12.014-3.84,15.403,1.428
			c4.418,6.873,9.006,12.293,17.901,12.311c16.916,0.017,27.451-10.611,35.565-23.279c0.958-2.05,1.97-4.059,3.008-6.05
			c0.062-0.005,0.122-0.012,0.183-0.016C211.009,131.924,211.012,131.876,211.033,131.829z M179.773,130.979
			c-5.667,6.219-15.369,8.955-23.16,5.318c-2.728-1.139-5.038-3.084-6.983-5.268c-5.056-5.692-10.757-16.108-3.476-22.498
			c5.506-4.826,14.639-3.348,21.011-1.342c4.13,1.3,8.199,3.279,11.444,6.185c2.371,2.116,4.393,4.876,4.775,8.105
			C183.818,125.04,182.11,128.413,179.773,130.979z"/>
		<path fill="#AF681B" d="M270.206,137.741c-1.427-5.132-4.554-9.49-6.627-14.333c-6.406-14.97-7.459-29.507-19.932-41.469
			c-5.905-5.659-8.632-10.425-11.045-18.08c-2.056-6.508-4.953-12.787-9.991-17.255c-4.561-4.032-10.254-6.44-16.136-8.498
			c-4.422,9.425-8.095,19.187-11.972,28.844c-3.108,7.745-6.758,15.431-8.244,23.703c-1.724,9.591,0.628,18.226,7.473,25.238
			c5.342,5.473,11.601,10.207,19.08,12.166c0.031,0.008,0.057,0.021,0.086,0.031c3.525-6.401,7.36-12.601,11.225-18.894
			c3.136-5.106,6.806-11.292,11.725-14.851c0.119-0.085,0.247-0.136,0.374-0.162c-0.51-1.444-1.368-2.744-2.761-3.798
			c-1.818-1.376,1.479-3.534,3.144,0.111c7.247,15.904-4.316,32.455-7.672,47.646c-1.929,8.768-2.549,18.258-0.307,27.043
			c0.994,2.336,1.708,4.885,2.804,7.078c1.708,3.424,3.628,6.788,6.509,9.379c2.175,1.946,5.021,3.254,7.952,2.277
			c1.784-0.595,3.305-1.784,4.689-3.059c5.981-5.454,10.595-13.211,14.75-20.102c2.353-3.891,4.332-8.241,5.182-12.736
			C271.158,144.632,271.158,141.165,270.206,137.741z M208.864,111.947c-3.271,1.274-7.238,1.436-10.161-0.127
			c-7.536-4.036-3.102-15.021,0.476-20.195c2.294-3.322,5.989-6.338,9.975-5.659c2.795,0.467,5.038,2.71,6.228,5.285
			C219.06,99.203,217.556,108.6,208.864,111.947z M222.628,99.704c-0.076,0.399-1.334,4.571-1.835,3.373
			c1.181-9.015-3.288-23.229-14.996-19.958c-0.535,0.153-0.883-0.441-0.476-0.824c4.078-3.899,10.34-2.013,13.662,1.963
			c2.345,2.804,3.619,6.38,3.917,10C223.053,96.076,222.959,97.92,222.628,99.704z"/>
		<path fill="#AF681B" d="M186.774,30.427c-0.238-0.136-0.476-0.272-0.714-0.408c-1.282-1.122-2.854-1.869-4.596-2.319
			c-11.529-4.894-21.818,1.02-32.285,5.573c-5.472,2.379-9.372,4.741-13.501,9.04c-2.251,1.104-4.469,2.294-6.406,3.696
			c-1.079,0.076-2.26,0.145-2.421,0.34c0.11-0.127,0.195-0.264,0.271-0.399l0.179,0.025c0.544,0.06,2.421-2.854,4.019-5.378
			c-9.966,0.068-16.134-2.413-25.148,3.857c-7.927,5.514-13.755,13.475-21.461,19.261c-2.796,2.098-6.508,3.5-8.964,5.998
			c-2.557,2.6-2.744,6.211-2.667,9.66c0.146,6.24,0.229,12.484,0.635,18.714c0.205,3.149,0.49,6.294,0.913,9.422
			c0.57,4.222,1.232,8.413,1.756,12.65c0.501,4.05,1.72,8.2,4.538,11.256c2.721,2.951,8.743,2.707,12.319,0.196
			c0.608-0.275,1.204-0.575,1.775-0.897c15.251-8.564,23.636-28.844,27.034-44.876c1.997-9.439,1.189-18.946,2.099-28.47
			c0.255-2.608,0.96-4.486,2.821-5.93c0.611-0.111,1.223-0.238,1.826-0.374c0.103,0.263,0.076,0.595-0.17,0.807
			c-3.968,3.424-1.181,12.251-1.164,16.695c0.043,6.899-1.401,13.789-3.118,20.458c-0.38,1.487-0.86,3.117-1.396,4.85
			c7.646,2.517,17.851,2.742,25.578,0.888c8.479-2.034,14.961-8.166,19.652-15.256c5.06-7.647,8.414-16.375,11.876-24.819
			c1.956-4.77,3.725-9.569,5.164-14.519c0.86-2.959,1.651-6.153,3.327-8.781C187.947,31.078,187.353,30.763,186.774,30.427z
			 M154.303,76.247c-1.139,6.185-5.777,17.077-13.951,14.604c-3.169-0.968-5.862-3.883-7.272-7.103
			c-3.772-8.513,1.81-16.219,10.042-19.235c2.651-0.977,5.829-0.977,8.131,0.671C154.549,67.521,155.033,72.27,154.303,76.247z
			 M155.637,65.55c-5.956-10.595-19.176-3.713-24.716,3.492c-1.198,0.493,0.866-3.347,1.097-3.679
			c1.027-1.504,2.26-2.863,3.661-4.044c2.762-2.345,6.193-3.968,9.839-4.299c5.157-0.458,10.926,2.643,11.045,8.284
			C156.579,65.864,155.917,66.034,155.637,65.55z"/>
		<path fill="#212121" d="M334.334,206.892c-0.25-1.556-0.387-3.206-0.221-4.756c-0.47-0.161-1.014-0.162-1.61,0.075
			c-1.223,0.488-2.37,0.698-3.685,0.555c-1.224-0.134-2.414-0.754-3.647-0.67c-0.118,0.009-0.233,0.031-0.347,0.061
			c0.017,0.088,0.045,0.17,0.044,0.266c-0.006,0.957-0.041,1.904-0.153,2.849c0.008,0.245,0.016,0.491,0.021,0.737
			c0.211,0.203,0.436,0.393,0.681,0.561c-0.035,6.253-0.72,12.477-2.534,18.487c-1.461,4.843-4.044,10.892-7.739,15.607
			c0.459,1.401,0.85,2.829,1.24,4.265c0.34,1.283,0.714,2.507,0.841,3.747c0.442,1.394,0.808,2.821,1.104,4.274
			c2.022-3.102,4.418-6.066,6.143-9.287c2.677-4.986,4.835-10.203,6.39-15.649c1.897-6.648,2.858-13.54,2.883-20.437
			c0.073-0.018,0.153-0.033,0.225-0.053c0.142-0.037,0.261-0.095,0.386-0.147C334.348,207.215,334.336,207.055,334.334,206.892z"/>
		<path fill="#FFFFFF" d="M325.401,203.801c1.007,0.973,2.547,1.406,3.984,1.453c1.71,0.055,2.901-0.533,4.298-1.156
			c-0.167-3.892-0.633-7.772-1.413-11.599c-2.337-11.479-7.153-22.829-14.554-31.979c-1.784-2.209-3.738-4.291-5.854-6.194
			c7.12,9.499,10.688,22.829,12.167,33.755C324.73,193.25,325.275,198.527,325.401,203.801z"/>
		<path fill="#FFFFFF" d="M184.209,267.563c0.04,0.189,0.074,0.381,0.113,0.572c0.229-2.189,0.507-4.365,0.731-6.491
			c0.521-4.924,0.634-9.943,1.932-14.745c2.563-9.486,8.523-17.523,11.965-26.656c4.181-11.095,2.897-23.474,0.422-34.844
			c-1.832-8.416-5.695-17.257-3.979-25.97c-2.092,1.547-4.214,3.055-6.334,4.549c-5.718,4.027-11.521,8.105-18.097,10.493
			c0.179,5.446,0.247,11.121-2.047,16.057c-2.303,4.937-7.706,8.879-13.017,7.681c-4.494-1.02-7.587-5.335-8.793-9.788
			c-0.816-3.016-0.969-6.151-1.071-9.294c-0.051-1.479-0.084-2.965-0.178-4.435c-0.076-1.274-0.213-2.591-0.833-3.704
			c-0.926-1.666-2.744-2.575-4.375-3.552c-2.907-1.731-5.43-3.914-7.576-6.424c-0.995,11.693-6.412,23.257-10.835,33.893
			c-5.729,13.777-8.337,28.298-5.426,43.09c0.078,0.396-0.326,0.615-0.6,0.479c2.678,6.834,5.633,13.548,9.466,19.786
			c12.447,20.255,34.053,34.452,57.451,38.606C182.093,287.061,181.099,276.908,184.209,267.563z"/>
		<path fill="#BCBCBC" d="M238.609,283.807c-1.869-3.764-3.263-7.723-4.401-11.768c-0.229-0.818-0.436-1.643-0.641-2.467
			c-1.356-0.58-2.658-1.197-4.233-1.4c-2.199-0.281-4.206,0.02-6.021,1.088c-1.482,12.159-3.291,24.227-3.046,36.373
			c0.679,0.127,1.359,0.289,2.039,0.408c1.385,0.238,2.752,0.297,4.138,0.434c2.345-2.498,5.514-4.588,8.58-5.922
			c1.394-0.961,3.017-1.683,4.427-2.234c1.504-0.587,3.076-0.791,4.639-0.961c0.026-0.008,0.052-0.017,0.077-0.025
			c-0.094-0.119-0.188-0.246-0.264-0.365c0.102,0.119,0.204,0.238,0.314,0.357c0.884-0.247,1.784-0.451,2.693-0.604
			C245.083,297.026,239.408,285.421,238.609,283.807z"/>
		<path fill="#AF681B" d="M137.494,278.2c-0.779-0.608-1.567-1.204-2.325-1.838c-0.114,0.085-0.229,0.166-0.338,0.275
			c-8.8-7.294-15.383-17.154-18.995-27.991c0.444-0.303,0.801-0.759,0.978-1.383c1.058-3.748-0.02-7.777-0.21-11.613
			c-0.182-3.658-0.117-7.332,0.201-10.982c0.698-8.011,2.935-15.723,5.58-23.285c2.459-7.028,5.184-13.963,7.591-21.01
			c2.28-6.676,5.229-14.286,4.537-21.449c-0.134-1.386-2.294-2.442-2.999-0.813c-0.083,0.191-0.152,0.387-0.232,0.579
			c-1.303-1.824-2.445-3.773-3.401-5.834c-3.637,6.822-5.914,15.081-9.864,22.183c-3.942,7.111-8.131,14.155-10.714,21.895
			c-6.593,19.745-2.022,41.316,3.313,61.443c2.432,9.17,5.012,18.483,6.761,27.844c-0.484,0.527-0.674,1.385-0.245,1.967
			c2.414,3.273,7.212,1.479,10.433,0.229c4.299-1.668,8.009-4.267,11.166-7.615c0.349-0.37,0.56-0.768,0.677-1.169
			C138.738,279.204,138.135,278.701,137.494,278.2z"/>
		<path fill="#FFFFFF" d="M142.773,313.305c-1.496-8.182-2.073-16.533-1.725-24.842c0.076-1.972,0.203-4.02-0.544-5.854
			c-0.395-0.977-1.011-1.813-1.733-2.577c-0.025-0.023-0.052-0.04-0.076-0.064c-0.197-0.197-0.395-0.393-0.591-0.588
			c-1.439,3.393-4.669,5.736-8.219,7.059c-3.025,1.129-8.705,3.646-12.118,1.906c1.808,10.479,2.468,21.009,0.57,31.452
			c-0.875,4.825-2.464,9.839-6.185,13.042c5.378-2.481,11.895-2.32,17.145,0.407c-4.333-0.696-8.759-1.401-13.092-0.688
			c-4.333,0.715-8.633,3.109-10.484,7.095c-1.86,3.976-0.391,9.532,3.67,11.189c0.264-4.655,2.881-9.116,6.814-11.606
			c-2.167,3.807-3.246,8.233-3.067,12.617c2.625,1.079,5.48,1.605,8.31,1.521c-0.442-4.436,1.045-9.031,4.001-12.371
			c0.018,4.197,0.034,8.386,0.052,12.583c8.437,3.118,17.527-4.86,19.541-13.619C147.055,331.206,144.379,322.149,142.773,313.305z"
			/>
		<path fill="#FFFFFF" d="M221.337,341.248c-0.145-0.322-0.264-0.653-0.374-1.002c-0.484-1.283-0.994-2.566-1.461-3.84
			c-3.321-9.045-4.602-18.617-4.686-28.281c2.369-0.761,3.611-4.389,0.808-5.901c-4.3-2.319-8.889-3.632-13.796-3.663
			c-5.326-0.033-9.119-1-13.76-3.652c-1.442-0.824-3.454,0.906-2.406,2.406c0.712,1.018,1.487,1.872,2.312,2.606
			c0.31,12.241-0.621,24.516-2.83,36.562c-0.876,4.74-2.685,11.367-0.876,16.117c1.028,2.71,8.709,5.667,8.828,6.329
			c-0.85-4.74,0.246-8.224,2.871-12.141c-2.438,3.636-1.418,9.022,1.938,11.826c3.356,2.813,8.521,3,12.303,0.79l-1.946-11.844
			c3.543,2.592,5.625,7.061,5.327,11.445c4.707,1.13,9.031-3.807,9.414-8.633C223.24,347.256,222.407,344.23,221.337,341.248z
			 M211.982,334.443c-6.168,0.127-12.081,0.025-18.207,1.104c-0.289,0.051-0.416-0.392-0.128-0.45
			c5.965-1.207,12.354-2.048,18.411-1.173C212.365,333.967,212.271,334.443,211.982,334.443z"/>
		<path fill="#AF681B" d="M249.085,197.885c0.068-0.068,0.11-0.153,0.136-0.229c-0.152-0.068-0.289-0.161-0.416-0.255
			c-0.051-0.025-0.102-0.051-0.161-0.068c-0.094-0.051-0.196-0.11-0.298-0.153l0.246,0.102c-0.297-0.136-0.561-0.297-0.79-0.501
			c-1.81-0.799-3.543-2.209-5.165-3.084c-2.507-1.351-5.098-2.532-7.664-3.764c-5.013-2.413-9.957-5.021-13.934-8.98
			c-4.647-4.614-7.604-11.827-9.906-17.893c-2.022-5.335-3.467-11.325-1.453-16.661c-3.648,4.508-8.045,8.298-12.675,11.818
			c-0.6-0.491-1.606-0.44-2.033,0.327c-4.324,7.779,0.155,19.707,1.854,27.702c2.373,11.17,1.845,21.358-1.238,32.358
			c-5.576,19.896-16.187,40.335-9.241,61.311c0.726,5.243,1.231,10.517,1.489,15.803c1.661,2.965,4.747,4.914,8.023,5.672
			c3.216,0.744,5.339-0.578,8.242-1.4c3.797-1.076,7.193,1.842,10.778,3.019c0.181-5.556,0.701-11.116,1.42-16.601
			c2.2-16.721,6.092-33.245,7-50.094c2.388,8.819,1.717,17.418,0.766,26.424c-0.187,1.76-0.389,3.518-0.6,5.273
			c2.396-1.747,6.604-1.864,9.586-0.651c-1.555-7.011-2.269-14.208-2.088-21.386C231.413,228.506,237.25,210.969,249.085,197.885z"
			/>
		<path fill="#212121" d="M236.191,269.746c-0.873-2.921-1.453-5.843-1.757-8.822c0.137-0.611,0.085-1.196-0.122-1.718
			c-0.041-0.827-0.083-1.655-0.125-2.483c-0.012-0.236-0.05-0.455-0.104-0.66c-0.098-1.818-0.198-3.635-0.283-5.452
			c-0.125-2.69-3.984-4.132-5.367-1.454c-2.196,4.253-5.168,8.305-7.233,12.648c-0.309,3.37-0.408,7.006-1.038,10.459
			c0.245,0.107,0.51,0.197,0.815,0.247c0.331,0.054,0.657,0.086,0.986,0.134c2.381,1.971,6.344,1.687,9.396,0.66
			c0.707,0.001,1.411,0.006,2.128-0.009C235.269,273.258,236.724,271.529,236.191,269.746z"/>
		<path fill="#212121" d="M249.369,194.66c-2.327-1.812-4.658-3.374-7.314-4.674c-1.165-0.571-2.262-0.5-3.148-0.07
			c-0.815-0.645-1.609-1.321-2.379-2.041c-1.296-1.212-2.774-1.211-3.915-0.574c-0.194-0.18-0.41-0.347-0.671-0.484
			c-0.154-0.082-0.305-0.165-0.458-0.247c-1.646-1.047-3.362-1.979-5.047-2.966c-2.924-1.909-5.589-4.059-7.919-6.65
			c-2.51-3.357-4.103-7.397-5.013-11.499c-1.216-5.483-0.638-11.532-1.884-17.001c0-0.974,0.004-1.956,0.044-2.951
			c0.1-2.48-3.745-3.677-4.847-1.313c-0.497,1.064-0.752,1.976-0.835,3.144c-0.023,0.322,0.023,0.612,0.118,0.872
			c-5.008,7.285-0.568,20.219,3.254,27.116c0.982,1.773,2.117,3.486,3.372,5.121c1.243,1.867,2.7,3.585,4.386,5.083
			c0.601,0.533,1.249,1.029,1.924,1.504c2.61,2.174,5.489,4.003,8.555,5.362c1.586,1.138,3.012,2.415,4.084,3.991
			c1.837,2.703,1.972,6.197,3.867,8.906c1.785,2.553,4.237,3.906,7.328,4.039c2.136,0.092,4.085-2.121,3.724-4.23
			c0.058-0.088,0.123-0.16,0.177-0.256c1.088-1.961,2.107-3.955,3.146-5.942C250.563,197.663,250.61,195.625,249.369,194.66z"/>
		<path fill="#141313" d="M299.574,211.259c-0.813-1.403-1.817-2.66-2.878-3.878c-0.059-0.066-0.104-0.135-0.151-0.203
			c-0.621-0.297-1.258-0.574-1.9-0.848c-1.895-2.336-3.771-4.729-5.741-7.016c-0.161-0.389-0.448-0.698-0.813-0.923
			c-0.258-0.291-0.51-0.589-0.771-0.875c-2.397-2.614-5.604-4.058-8.053-6.552c-2.107-2.145-6.725,0.039-5.412,3.178
			c2.077,4.966,4.509,9.45,8.427,13.204c3.952,3.788,8.46,4.76,12.783,7.683c0.654,0.442,1.297,0.962,2.072,1.103
			c0.994,0.18,3.168-0.564,3.569-1.634C301.043,213.594,300.08,212.129,299.574,211.259z"/>
		<path fill="#FFFFFF" d="M308.268,286.09c0.119-0.824-0.011-1.682-0.453-2.297c-1.559-2.17-3.546-3.133-4.856-5.533
			c-1.558-2.852-3.234-5.569-5.212-8.152c-3.447-4.503-7.632-8.57-12.649-11.294c-5.388-2.923-11.097-3.579-17.104-4.097
			c-3.544-0.305-7.013-0.766-10.146-2.57c-3.636-2.094-6.846-5.27-10.087-7.916c-0.337-0.275-0.722-0.461-1.119-0.588
			c-1.892-3.422-4.743-6.861-8.63-6.256c-0.041,0.007-0.075,0.02-0.115,0.027c-0.752-1.75-3.753-1.953-4.261,0.255
			c-1.84,7.999-1.44,16.398,0.296,24.382c0.667,3.07,1.452,6.052,2.732,8.637c-0.008,0.224,0.003,0.453,0.06,0.69
			c0.342,1.429,2.068,4.611,1.515,6.032c1.215,2.02,1.92,4.463,2.478,6.874c0.689,1.599,1.348,3.206,1.912,4.834
			c1.661,2.259,3.411,4.452,5.491,6.294c4.707,4.168,13.382,5.327,19.462,5.156c4.201-0.117,9.988-1.077,13.435-3.86
			c0.802-0.249,1.588-0.544,2.363-0.859c-1.722,1.859-3.93,3.331-6.002,4.679c-3.509,2.268-7.222,3.457-11.155,3.713
			c-6.848,2.574-11.479-0.715-18.267-0.646c-5.582,0.06-11.173,1.979-15.463,5.574c-2.082,1.732-3.832,4.154-4.767,6.711
			c0.009-0.008,0.017-0.025,0.025-0.042c1.768-2.558,3.628-3.899,6.509-4.868c0.322-0.111,0.45,0.34,0.212,0.518
			c-1.911,1.428-4.019,3.577-5.318,5.574c-0.927,1.418-1.437,2.922-1.963,4.451c0.221,0.978,0.629,1.92,1.258,2.787
			c1.86,2.558,5.021,3.619,8.241,4.019c0.145-5.284,3.44-11.146,7.188-13.899c0.382-0.289,0.917,0.271,0.654,0.654
			c-1.92,2.813-3.738,5.564-4.698,8.869c-0.45,1.521-0.569,3.043-0.663,4.563h0.11c11.929,0.375,23.526-3.279,34.095-8.58
			c5.319-2.668,10.417-5.761,15.378-9.041c3.637-2.412,10.247-5.445,11.878-9.762c0.145-0.382,0.238-0.857-0.043-1.154
			c-0.195-0.196-0.492-0.238-0.764-0.264c-1.343-0.145-2.693-0.137-3.815-0.748c0.898-1.479,1.895-2.889,2.92-4.28
			c2.977-1.815,5.719-4.757,8.431-6.272C308.252,287.904,308.482,286.939,308.268,286.09z"/>
		<path fill="#212121" d="M240.448,242c0.396,0.266,0.757,0.588,1.096,0.938c4.301,1.351,8.074,5.646,11.198,8.295
			c4.084,3.464,8.143,4.755,13.494,5.081c4.468,0.272,8.862,0.324,13.188,1.618c6.304,1.887,11.087,5.353,14.364,11.091
			c1.821,3.188,3.058,6.66,4.807,9.877c1.845,3.393,4.128,4.586,7.682,4.985c0.425-0.851,0.833-1.708,1.218-2.576
			c6.399-5.298,7.223-15.218,7.188-23.011c-0.018-3.856-0.243-9.207-1.437-14.048c-0.115,0.252-0.26,0.482-0.422,0.698
			c-0.665-9.095-6.149-18.712-11.444-25.582c-0.242-0.313-0.513-0.556-0.794-0.766c-8.661,6.284-18.066,12.006-29.172,11.889
			c-5.853-0.061-11.542-1.91-16.738-4.505c-2.427-1.212-4.854-2.515-7.146-3.965c-1.198-0.758-2.368-1.566-3.462-2.471
			c-0.554-0.458-2.054-2.497-2.652-2.604c-1.897-0.34-5.303,0.523-2.93,2.605c-0.301,0.266-0.572,0.617-0.798,1.07
			c-0.468,0.939-0.882,1.887-1.271,2.84c-2.098,3.67-3.585,7.608-4.456,11.809c-0.316,1.526,0.318,2.738,1.305,3.427
			c0.195,0.006,0.385,0.022,0.576,0.035c-0.097,1.092,0.429,2.165,1.808,2.392C237.249,241.386,238.854,241.666,240.448,242z"/>
		<path fill="#AF681B" d="M289.579,230.561c4.231-2.26,7.815-5.728,9.986-9.996c0.714-1.404-1.236-3.512-1.949-4.676
			c-1.202-1.963-2.475-3.884-3.827-5.746c-2.55-3.51-5.383-6.828-8.562-9.785c-6.992-6.5-16.576-8.505-25.174-3.849
			c-9.575,5.177-16.01,14.041-20.023,24.056c-0.328,0.818,4.425,3.706,5.113,4.287c2.154,1.82,4.758,3.107,7.517,3.698
			c3.181,0.681,6.494,0.449,9.696,1.021c3.941,0.704,7.583,2.601,11.502,3.428C279.188,234.123,284.797,233.113,289.579,230.561z"/>
		<path fill="#5B310A" d="M135.636,282.172c1.238-1.002,2.565-1.955,3.92-2.844c-4.046-3.721-8.035-7.521-11.67-11.619
			c-4.151-4.682-8.503-10.272-9.594-16.604c-0.178,0.016-0.344,0.124-0.396,0.326c-1.104,4.204,1.268,9.279,3.367,13.068
			c1.274,3.144,2.984,6.158,4.406,8.661c2.196,3.866,4.645,7.81,7.484,11.38C133.884,283.607,134.865,282.795,135.636,282.172z"/>
		<path fill="#BCBCBC" d="M148.18,316.289c-0.299-0.904-0.577-1.809-0.841-2.716c0.231-0.497,0.322-1.091,0.182-1.759
			c-1.442-6.818-2.322-13.761-3.507-20.629c-0.383-2.221-0.666-4.975-1.728-6.857c0.13-0.204,0.261-0.406,0.386-0.615
			c1.71-2.873-2.292-6.023-4.65-3.589l-1.021,1.054c-0.7,0.219-1.274,0.561-2.019,1.148c-0.411,0.324-0.666,0.777-0.785,1.277
			c-0.362,0.332-0.574,0.844-0.448,1.455c0.507,2.46,1.196,4.874,1.9,7.285c0.21,0.897,0.444,1.813,0.775,2.664
			c0.577,2.011,1.125,4.03,1.547,6.084c0.826,4.023,1.857,7.867,3.882,11.403c0.43,1.956,1.107,3.745,2.139,5.56
			C145.251,320.27,149.007,318.797,148.18,316.289z"/>
		<path fill="#BCBCBC" d="M278.388,297.377c-0.277,0.276-0.556,0.555-0.836,0.832c-0.712-0.188-1.543,0-2.115,0.772
			c-0.984,1.33-2.094,2.315-3.392,3.12c-0.646,0.318-1.271,0.637-1.833,0.973c-0.001,0-0.001,0.001-0.002,0.002
			c-3.019,0.964-6.582,0.816-9.659,0.565c-5.573-0.454-11.092-1.503-16.627-2.271c-1.113-0.153-2.03,0.283-2.648,0.963
			c-0.789-0.125-1.595-0.169-2.444-0.049c-0.748,0.105-1.23,1.108-1.009,1.775c2.228,6.698,14.296,8.397,20.297,7.807
			c3.618-0.355,7.478-1.906,10.777-3.395c1.251-0.564,2.535-1.184,3.739-1.904c2.361-1.095,4.372-2.797,5.833-5.315
			c0.142-0.116,0.283-0.23,0.424-0.349c0.139-0.117,0.235-0.249,0.31-0.387c0.433-0.374,0.858-0.762,1.273-1.188
			C281.869,297.901,279.486,295.988,278.388,297.377z"/>
		<path d="M337.122,188.896c-2.872-12.217-8.599-24.138-17.247-33.322c-8.463-8.989-18.259-14.291-30.663-13.458
			c-0.306,0.017-0.629,0.051-0.884,0.229c-1.333,0.968,9.703,5.455,11.122,6.38c4.426,2.889,7.994,6.856,10.756,11.334
			c5.727,9.252,8.054,20.348,9.277,31.028c1.726,14.919,1.606,30.569-6.703,43.669c-4.987-12.701-12.311-24.485-21.479-34.587
			c-3.925-4.325-8.359-8.454-13.865-10.399c-5.344-1.895-11.351-1.453-16.525,0.756c-0.96,0.417-1.928,1.028-2.889,1.725
			c-0.152-0.085-0.297-0.179-0.467-0.255c-1.818-0.816-3.688-1.521-5.565-2.184c8.275-4.928,13.543-18.556,17.792-25.65
			c5.503-9.184,9.495-18.025,6.252-28.706c-3.518-11.586-10.035-21.652-13.003-33.537c-0.924-2.078-1.87-4.139-2.867-6.159
			c-2.583-5.225-5.361-10.943-9.065-15.472c-3.024-3.696-7.876-6.092-9.745-10.671c-2.608-6.389-3.704-13.288-6.983-19.422
			c-5.735-10.765-16.016-16.95-27.681-19.337c-2.6-0.535-5.259-0.977-7.816-1.733c-1.028-0.399-2.057-0.773-3.102-1.122
			c-2.931-1.292-5.615-3.092-8.453-4.563c-5.709-2.948-11.589-4.146-17.995-3.262c-6.949,0.96-13.288,3.866-19.583,6.822
			c-3.509,1.648-6.992,3.373-10.629,4.732c-9.304,3.483-17.094,1.47-26.321,3.076c-6.593,1.155-12.234,6.228-17.222,10.365
			c-6.304,5.216-12.574,10.476-18.81,15.777c-2.94,2.489-5.939,5.072-7.774,8.462c-2.48,4.571-2.558,10.017-2.421,15.217
			c0.322,12.081,1.503,24.146,3.525,36.074c1.088,6.423,2.829,13.449,8.19,17.162c5.743,3.993,13.916,2.6,19.635-1.419
			c5.726-4.019,9.549-10.144,13.211-16.1c0.926,7.944,4.011,15.625,8.836,22.005c0.323,0.425,0.663,0.858,0.994,1.292
			c3.959,5.166-4.682,18.853-6.788,23.144c-7.205,14.69-15.82,29.524-16.381,46.244c-0.561,16.662,4.401,33.008,8.955,48.845
			c6.644,23.084,11.945,49.601-1.096,69.762c-3.084,4.767-7.299,9.677-6.509,15.293c1.088,7.688,10.425,10.799,18.14,11.665
			c6.338,0.714,12.854,1.003,18.988-0.748c6.126-1.758,11.869-5.861,14.206-11.792c1.971-5.013,1.334-10.629,0.671-15.973
			c-0.17-1.368-0.34-2.735-0.51-4.104c6.305,1.64,14.571-0.544,19.855-2.71c3.662-1.504,8.599-3.866,12.464-6.934
			c-0.068,5.973-0.204,11.945-0.951,17.876c-1.045,8.267-7.477,19.516-0.365,26.602c6.125,6.092,18.326,5.964,26.295,5.828
			c3.713-0.068,7.596-0.604,11.096-1.895c11.453-4.248,10.519-12.421,10.009-21.733c-0.595-1.699-1.215-3.398-1.827-5.089
			c-1.461-3.501-2.786-7.034-3.849-10.654c0.425,0.629,0.927,1.198,1.504,1.69c5.998,5.098,14.758,6.092,22.328,5.786
			c2.549-0.103,4.987-0.612,7.349-1.359c10.323-1.266,20.773-6.075,29.261-10.603c6.202-3.314,13.017-6.738,18.521-11.173
			c3.62-2.905,7.205-8.683,5.106-13.212c-0.187-0.985-0.544-1.902-1.096-2.642c0.807-0.841,1.546-1.69,2.191-2.447
			c3.433-4.053,5.99-8.717,7.766-13.712c2.124-5.99,3.178-12.787,2.889-19.465c4.647-3.136,7.97-9.457,10.544-14.231
			c3.008-5.591,5.353-11.614,6.967-17.757C340.053,215.328,340.154,201.793,337.122,188.896z M81.287,131.191
			c0.824,0.425,1.69,0.833,2.616,1.198c0.994,0.399,1.988,0.697,2.957,0.935C84.821,133.451,82.927,132.831,81.287,131.191z
			 M116.358,117.716c1.751-10.348,6.083-21.257,7.986-28.691c1.717-6.669,3.161-13.56,3.118-20.458
			c-0.017-4.443-2.804-13.271,1.164-16.695c0.246-0.212,0.272-0.544,0.17-0.807c-0.604,0.136-1.215,0.263-1.826,0.374
			c-1.861,1.444-2.566,3.322-2.821,5.93c-0.909,9.524-0.102,19.031-2.099,28.47c-3.398,16.032-11.784,36.313-27.034,44.876
			c-4.019,2.26-9.125,3.645-13.042,0.425c-3.449-2.837-4.545-7.562-4.961-11.928c-0.009-0.009-0.009-0.026-0.018-0.034
			c-3.594-12.506-3.61-26.848-3.917-39.804c-0.076-3.449,0.111-7.061,2.668-9.66c2.456-2.498,6.168-3.9,8.964-5.998
			c7.706-5.786,13.534-13.747,21.461-19.261c9.015-6.27,15.183-3.79,25.148-3.857c-1.598,2.523-3.475,5.438-4.019,5.378
			l-0.179-0.025c-0.076,0.136-0.161,0.272-0.271,0.399c0.161-0.195,1.342-0.264,2.421-0.34c1.938-1.402,4.155-2.591,6.406-3.696
			c4.129-4.299,8.029-6.661,13.501-9.04c10.467-4.554,20.756-10.467,32.285-5.573c1.741,0.45,3.313,1.198,4.596,2.319
			c0.238,0.136,0.476,0.272,0.714,0.408c10.9,6.347,26.007,7.485,35.837,16.177c5.038,4.469,7.936,10.748,9.991,17.255
			c2.413,7.655,5.14,12.421,11.045,18.08c12.473,11.962,13.525,26.499,19.932,41.469c2.073,4.843,5.2,9.201,6.627,14.333
			c0.952,3.424,0.952,6.891,0.306,10.28c-0.85,4.495-2.829,8.845-5.182,12.736c-4.155,6.89-8.769,14.647-14.75,20.102
			c-1.385,1.274-2.905,2.464-4.689,3.059c-2.932,0.977-5.777-0.331-7.952-2.277c-2.881-2.591-4.801-5.956-6.509-9.379
			c-1.096-2.192-1.81-4.741-2.804-7.078c-2.242-8.785-1.622-18.275,0.307-27.043c3.355-15.191,14.919-31.742,7.672-47.646
			c-1.665-3.645-4.962-1.487-3.144-0.111c1.393,1.054,2.251,2.354,2.761,3.798c-0.127,0.025-0.255,0.077-0.374,0.162
			c-4.919,3.56-8.589,9.745-11.725,14.851c-5.828,9.49-11.605,18.759-16.32,28.844c-8.114,12.668-18.649,23.296-35.565,23.279
			c-8.896-0.017-13.483-5.438-17.901-12.311c-3.39-5.268-10.68-1.853-15.403-1.428c-5.904,0.519-11.452-1.92-14.953-6.805
			C120.53,135.982,115.313,123.875,116.358,117.716z M228.193,179.474c-0.85-0.688-1.606-1.47-2.371-2.234
			c-6.108-9.125-10.518-19.601-10.781-30.705c-0.238-10.187,3.093-20.416,9.277-28.513c2.94,6.695,0.247,14.341-1.223,21.503
			C220.343,152.916,222.187,167.197,228.193,179.474z M226.272,113.918c3.17-5.353,6.347-10.679,10.484-15.378
			c1.028,4.129-1.24,8.972-2.735,12.787c-1.283,3.263-2.829,6.398-4.393,9.533C229.085,118.54,228.201,115.303,226.272,113.918z
			 M148.186,167.333c-0.604-5.302-1.555-11.614-4.529-16.245c2.813-0.867,6.05-1.572,7.919,0.467
			c1.104,1.206,1.597,2.829,2.192,4.35c0.772,1.954,2.234,3.636,4.035,5.021c0.569,3.602,0.085,7.595,0.085,11.096
			c0.009,4.044-0.153,8.25,0.68,12.218c0.068,0.323,0.578,0.323,0.646,0c1.045-4.987,0.697-10.374,0.688-15.446
			c0-2.294-0.068-4.571-0.493-6.763c2.354,1.444,5.081,2.464,7.63,2.999c1.274,0.272,1.555,4.758,1.461,9.397
			c-0.085,4.647-0.535,9.431-0.73,10.306c-0.212,0.994-0.535,2.03-0.951,3.059c-1.606,3.951-4.707,7.672-9.253,7.324
			c-3.899-0.297-6.432-3.883-7.646-7.239c-0.985-2.744-1.3-5.76-1.401-8.836C148.389,175.09,148.61,171.038,148.186,167.333z
			 M144.813,163.264c-1.699-0.884-3.62-1.589-4.503-2.234c-2.227-1.614-4.07-3.764-5.616-6.024c-0.611-0.9-1.147-1.877-1.725-2.821
			c2.506,0.179,4.919,0.569,7.511-0.11c0.331-0.085,0.705-0.195,1.096-0.323C142.62,155.625,144.03,159.304,144.813,163.264z
			 M169.706,165.421c0.085,0.731,5.947-0.339,11.155-1.461c-0.884,0.663-1.768,1.308-2.668,1.86
			c-1.513,0.935-4.894,2.685-6.661,2.838C169.484,168.846,169.858,166.73,169.706,165.421z M145.637,285.82
			c1.665,1.155,3.364,2.251,5.089,3.305c-0.425,3.221,0.416,6.652,1.86,9.481c0.229,0.459,0.502,0.943,0.815,1.437
			c-2.03,0.076-4.239,0.85-5.777,1.767C146.962,296.482,146.299,291.146,145.637,285.82z M183.079,307.23
			c-1.726,1.104-3.136,2.6-4.826,3.916c-3.024,2.379-6.372,4.427-9.906,5.956c-3.476,1.504-7.137,2.54-10.884,3.017
			c-2.498,0.322-5.029,0.152-7.52,0.331c-0.017-0.11-0.025-0.229-0.042-0.34c0.519-0.892,0.926-1.853,1.538-2.693
			c0.892-1.215,1.945-2.421,3.126-3.364c0.417-0.332-0.033-1.07-0.51-0.893c-1.64,0.611-3.075,1.402-4.214,2.77
			c-0.136,0.153-0.264,0.314-0.399,0.493c-0.356-2.897-0.722-5.803-1.079-8.7c0.773-0.883,1.623-1.639,2.804-2.285
			c1.462-0.799,3.28-1.316,4.613-2.361c1.853,1.895,4.163,3.279,6.517,2.719c0.824-0.188,1.156-1.182,0.765-1.869
			c-0.662-1.182-1.555-1.674-2.616-2.473c-1.683-1.249-3.109-2.625-4.282-4.376c-1.334-1.987-1.979-3.993-2.345-6.117
			c9.006,5.14,18.708,9.022,28.768,11.513c0.025,1.418,0.161,2.795,0.519,4.019C183.096,306.737,183.087,306.984,183.079,307.23z
			 M222.306,306.041c-0.68-0.119-1.36-0.281-2.039-0.408c-0.289-14.316,2.276-28.521,3.798-42.896
			c0.951-9.006,1.622-17.604-0.766-26.424c-0.908,16.849-4.8,33.373-7,50.094c-2.192,16.729-2.608,34.172,3.203,50
			c0.467,1.273,0.977,2.557,1.461,3.84c0.11,0.349,0.229,0.68,0.374,1.002c1.07,2.982,1.903,6.008,1.665,9.125
			c-0.383,4.826-4.707,9.763-9.414,8.633c0.298-4.385-1.784-8.854-5.327-11.445l1.946,11.844c-3.781,2.21-8.946,2.022-12.303-0.79
			c-3.355-2.804-4.375-8.19-1.938-11.826c-2.625,3.917-3.721,7.4-2.871,12.141c-0.119-0.662-7.8-3.619-8.828-6.329
			c-1.809-4.75,0-11.377,0.876-16.117c4.171-22.744,3.856-46.304-0.935-68.92c-3.11,9.346-2.116,19.498-1.079,29.303
			c-23.398-4.154-45.004-18.352-57.451-38.606c-5.564-9.058-9.295-19.108-12.981-29.091c-0.137,18.352,8.521,36.559,22.829,48.045
			c1.929,1.555,4.052,3.102,4.979,5.396c0.747,1.835,0.62,3.883,0.544,5.854c-0.349,8.309,0.229,16.66,1.725,24.842
			c1.605,8.845,4.281,17.901,2.269,26.661c-2.014,8.759-11.104,16.737-19.541,13.619c-0.018-4.197-0.034-8.386-0.052-12.583
			c-2.956,3.34-4.443,7.936-4.001,12.371c-2.829,0.084-5.685-0.442-8.31-1.521c-0.179-4.384,0.9-8.811,3.067-12.617
			c-3.934,2.49-6.551,6.951-6.814,11.606c-4.061-1.657-5.53-7.214-3.67-11.189c1.852-3.985,6.151-6.38,10.484-7.095
			c4.333-0.713,8.759-0.008,13.092,0.688c-5.25-2.728-11.767-2.889-17.145-0.407c3.721-3.203,5.31-8.217,6.185-13.042
			c3.722-20.483-2.387-41.3-7.723-61.419c-5.336-20.127-9.906-41.698-3.313-61.443c2.583-7.74,6.771-14.783,10.714-21.895
			c3.95-7.103,6.228-15.361,9.864-22.183c2.786,6.007,7.034,11.164,12.77,14.579c1.631,0.977,3.449,1.886,4.375,3.552
			c0.62,1.113,0.757,2.43,0.833,3.704c0.094,1.47,0.127,2.957,0.178,4.435c0.103,3.144,0.255,6.278,1.071,9.294
			c1.206,4.452,4.299,8.768,8.793,9.788c5.311,1.198,10.714-2.744,13.017-7.681c2.294-4.936,2.226-10.611,2.047-16.057
			c6.576-2.388,12.379-6.466,18.097-10.493c7.409-5.226,14.92-10.536,20.62-17.579c-2.014,5.335-0.569,11.325,1.453,16.661
			c2.303,6.066,5.259,13.279,9.906,17.893c3.977,3.959,8.921,6.567,13.934,8.98c2.566,1.232,5.157,2.413,7.664,3.764
			c1.622,0.875,3.355,2.285,5.165,3.084c0.229,0.204,0.493,0.365,0.79,0.501l-0.246-0.102c0.102,0.042,0.204,0.102,0.298,0.153
			c0.06,0.017,0.11,0.042,0.161,0.068c0.127,0.094,0.264,0.187,0.416,0.255c-0.025,0.077-0.067,0.162-0.136,0.229
			c-11.835,13.083-17.672,30.621-18.122,48.087c-0.221,8.785,0.875,17.604,3.245,26.066c1.139,4.045,2.532,8.004,4.401,11.768
			c0.799,1.614,6.474,13.22,8.301,12.914c-0.909,0.152-1.81,0.356-2.693,0.604c-0.11-0.119-0.213-0.238-0.314-0.357
			c0.076,0.119,0.17,0.246,0.264,0.365c-0.025,0.009-0.051,0.018-0.077,0.025c-1.563,0.17-3.135,0.374-4.639,0.961
			c-1.41,0.552-3.033,1.273-4.427,2.234c-3.066,1.334-6.235,3.424-8.58,5.922C225.058,306.338,223.69,306.279,222.306,306.041z
			 M222.934,312.09c-0.857,2.184-1.359,4.537-1.486,6.84c-0.408-2.455-0.697-4.895-0.9-7.341
			C221.328,311.81,222.136,311.971,222.934,312.09z M311.285,269.125c-0.994,5.311-2.838,10.434-5.318,15.234
			c-2.762,5.326-6.908,9.574-9.958,14.596c1.122,0.611,2.473,0.604,3.815,0.748c0.271,0.025,0.568,0.067,0.764,0.264
			c0.281,0.297,0.188,0.772,0.043,1.154c-1.631,4.316-8.241,7.35-11.878,9.762c-4.961,3.28-10.059,6.373-15.378,9.041
			c-10.568,5.301-22.166,8.955-34.095,8.58h-0.11c0.094-1.52,0.213-3.041,0.663-4.563c0.96-3.305,2.778-6.057,4.698-8.869
			c0.263-0.383-0.272-0.943-0.654-0.654c-3.747,2.753-7.043,8.615-7.188,13.899c-3.221-0.399-6.381-1.461-8.241-4.019
			c-0.629-0.867-1.037-1.81-1.258-2.787c0.526-1.529,1.036-3.033,1.963-4.451c1.3-1.997,3.407-4.146,5.318-5.574
			c0.238-0.178,0.11-0.629-0.212-0.518c-2.881,0.969-4.741,2.311-6.509,4.868c-0.009,0.017-0.017,0.034-0.025,0.042
			c0.935-2.557,2.685-4.979,4.767-6.711c4.29-3.595,9.881-5.515,15.463-5.574c6.788-0.068,11.419,3.221,18.267,0.646
			c3.934-0.256,7.646-1.445,11.155-3.713c3.135-2.039,6.61-4.342,8.182-7.885c-2.43,0.586-5.259,3.16-7.766,4.333
			c-3.033,1.419-6.253,2.404-9.601,2.667c-5.522,0.442-11.605-1.078-16.287-4.315c-0.008,0-0.017-0.009-0.033-0.009
			c-0.026-0.025-0.06-0.051-0.085-0.076c-2.558-1.801-4.69-4.121-6.059-6.933c-2.421-3.79-4.469-7.868-6.1-12.039
			c-3.892-9.958-5.565-20.722-4.894-31.394c1.146-18.301,8.283-39.158,25.318-48.368c8.598-4.656,18.182-2.651,25.174,3.849
			c12.77,11.877,21.759,31.232,25.607,48.071C312.466,255.574,312.525,262.507,311.285,269.125z M330.86,228.013
			c-1.555,5.446-3.713,10.663-6.39,15.649c-1.725,3.221-4.12,6.186-6.143,9.287c-0.297-1.453-0.662-2.881-1.104-4.274
			c-0.127-1.24-0.501-2.464-0.841-3.747c-0.391-1.436-0.781-2.863-1.24-4.265c3.695-4.716,6.278-10.765,7.739-15.607
			c3.611-11.962,2.804-24.766,1.147-36.975c-1.479-10.926-5.047-24.256-12.167-33.755c2.116,1.903,4.07,3.985,5.854,6.194
			c7.4,9.15,12.217,20.501,14.554,31.979C334.666,204.24,334.148,216.492,330.86,228.013z"/>
	</g>
</g>
</svg>
