<?xml version="1.0" encoding="utf-8"?>
<!-- Generator: Adobe Illustrator 16.0.0, SVG Export Plug-In . SVG Version: 6.00 Build 0)  -->
<!DOCTYPE svg PUBLIC "-//W3C//DTD SVG 1.1//EN" "http://www.w3.org/Graphics/SVG/1.1/DTD/svg11.dtd">
<svg version="1.1" id="Capa_1" xmlns="http://www.w3.org/2000/svg" xmlns:xlink="http://www.w3.org/1999/xlink" x="0px" y="0px"
	 width="400px" height="400px" viewBox="0 0 400 400" enable-background="new 0 0 400 400" xml:space="preserve">
<g>
	<rect x="74.475" y="271.236" fill="#ECEBEB" width="269.467" height="0.145"/>
	<rect x="123.227" y="276.711" fill="#ECEBEB" width="13.406" height="0.145"/>
	<rect x="156.573" y="275.15" fill="#ECEBEB" width="14.821" height="0.145"/>
	<rect x="100.164" y="282.051" fill="#ECEBEB" width="31.316" height="0.143"/>
	<rect x="305.304" y="281.084" fill="#ECEBEB" width="11.639" height="0.145"/>
	<rect x="190.233" y="276.262" fill="#ECEBEB" width="15.052" height="0.145"/>
	<rect x="236.515" y="278.656" fill="#ECEBEB" width="37.845" height="0.145"/>
	<path fill="#ECEBEB" d="M202.21,245.596H98.142c-1.696,0-3.076-1.473-3.076-3.281V86.264c0-1.811,1.38-3.282,3.076-3.282H202.21
		c1.696,0,3.075,1.471,3.075,3.282v156.051C205.285,244.123,203.906,245.596,202.21,245.596z M98.142,83.126
		c-1.622,0-2.941,1.407-2.941,3.138v156.051c0,1.729,1.32,3.137,2.941,3.137H202.21c1.621,0,2.94-1.408,2.94-3.137V86.264
		c0-1.731-1.319-3.138-2.94-3.138H98.142z"/>
	<path fill="#ECEBEB" d="M318.78,245.596H214.712c-1.695,0-3.076-1.473-3.076-3.281V86.264c0-1.811,1.381-3.282,3.076-3.282H318.78
		c1.695,0,3.076,1.471,3.076,3.282v156.051C321.856,244.123,320.476,245.596,318.78,245.596z M214.712,83.126
		c-1.62,0-2.941,1.407-2.941,3.138v156.051c0,1.729,1.321,3.137,2.941,3.137H318.78c1.621,0,2.94-1.408,2.94-3.137V86.264
		c0-1.731-1.319-3.138-2.94-3.138H214.712z"/>
</g>
<g>
	<g>
		<g>
			<rect x="106.626" y="99.399" fill="#E7E6E5" width="82.099" height="109.083"/>
			<rect x="107.476" y="99.399" fill="#F5F5F5" width="83.068" height="109.083"/>
			<path fill="#E7E6E5" d="M107.761,97.91h82.064c0.396,0,0.719-0.346,0.719-0.767l0,0c0-0.421-0.323-0.767-0.719-0.767h-82.064
				c-0.395,0-0.718,0.346-0.718,0.767l0,0C107.043,97.564,107.367,97.91,107.761,97.91z"/>
			<rect x="106.626" y="208.482" fill="#E7E6E5" width="82.099" height="1.52"/>
			<rect x="119.778" y="208.482" fill="#F5F5F5" width="79.085" height="1.52"/>
			<rect x="110.024" y="102.928" fill="#FCFCFC" width="77.972" height="102.025"/>
			<polygon fill="#FFFFFF" points="137.104,204.953 143.116,102.928 153.934,102.928 147.922,204.953 			"/>
			<polygon fill="#FFFFFF" points="150.982,204.953 156.995,102.928 162.014,102.928 156.001,204.953 			"/>
			<rect x="187.673" y="102.451" fill="#E7E6E5" width="0.323" height="68.676"/>
		</g>
		<g opacity="0.4">
			<path fill="#E7E6E5" d="M104.715,102.751v98.425l0,0c4.777,0,9.094-4.728,11.054-12.054
				c4.142-15.485,10.527-40.833,12.501-86.901c0.305-7.112-1.073-7.377-2.897-7.377h-18.658
				C105.611,94.844,104.715,98.384,104.715,102.751z"/>
		</g>
		<g opacity="0.4">
			<path fill="#E7E6E5" d="M192.626,102.751v98.425l0,0c-4.777,0-9.094-4.728-11.053-12.054
				c-4.142-15.485-10.528-40.833-12.501-86.901c-0.306-7.112,1.073-7.377,2.897-7.377h18.657
				C191.73,94.844,192.626,98.384,192.626,102.751z"/>
		</g>
	</g>
	<g>
		<rect x="161.871" y="226.811" fill="#E7E6E5" width="9.523" height="44.426"/>
		<polygon fill="#F5F5F5" points="167.27,271.236 171.394,271.236 171.394,263.865 167.169,263.865 		"/>
		<rect x="106.977" y="226.811" fill="#E7E6E5" width="9.523" height="44.426"/>
		<rect x="112.901" y="226.811" fill="#F5F5F5" width="58.492" height="41.889"/>
		<polygon fill="#F5F5F5" points="117.025,271.236 112.901,271.236 112.901,263.865 117.125,263.865 		"/>
		<rect x="116.101" y="230.334" fill="#F1F0F0" width="52.094" height="15.451"/>
		<path fill="#FFFFFF" d="M142.147,240.705c-2.332,0-4.23-2.023-4.23-4.51c0-2.488,1.898-4.514,4.23-4.514s4.229,2.025,4.229,4.514
			C146.377,238.682,144.479,240.705,142.147,240.705z M142.147,232.158c-2.086,0-3.784,1.811-3.784,4.037
			c0,2.225,1.698,4.035,3.784,4.035c2.085,0,3.783-1.811,3.783-4.035C145.931,233.969,144.233,232.158,142.147,232.158z"/>
		<rect x="116.101" y="249.518" fill="#F1F0F0" width="52.094" height="15.449"/>
		<path fill="#FFFFFF" d="M142.147,259.889c-2.333,0-4.23-2.025-4.23-4.514s1.897-4.512,4.23-4.512c2.332,0,4.229,2.023,4.229,4.512
			S144.479,259.889,142.147,259.889z M142.147,251.34c-2.087,0-3.784,1.811-3.784,4.035c0,2.227,1.697,4.037,3.784,4.037
			c2.085,0,3.783-1.811,3.783-4.037C145.931,253.15,144.233,251.34,142.147,251.34z"/>
	</g>
	<g>
		<g>
			<g>
				<g>
					<rect x="235.112" y="219.854" fill="#E7E6E5" width="32.497" height="51.381"/>
					<rect x="267.609" y="219.854" fill="#F1F0F0" width="42.708" height="51.381"/>
					<rect x="235.112" y="215.479" opacity="0.7" fill="#E7E6E5" width="75.205" height="5.322"/>
				</g>
				<g>
					<rect x="233.476" y="214.934" fill="#E7E6E5" width="34.134" height="4.92"/>
					<rect x="267.609" y="214.934" fill="#F1F0F0" width="44.349" height="4.92"/>
				</g>
			</g>
		</g>
		<g>
			<g>
				<g>
					<rect x="196.137" y="239.52" fill="#ECEBEB" width="26.584" height="31.715"/>
					<rect x="222.722" y="239.52" fill="#F5F5F5" width="34.94" height="31.715"/>
					<rect x="196.137" y="235.939" opacity="0.7" fill="#E7E6E5" width="61.525" height="4.354"/>
				</g>
				<g>
					<rect x="194.796" y="235.496" fill="#ECEBEB" width="27.926" height="4.023"/>
					<rect x="222.722" y="235.496" fill="#F5F5F5" width="36.281" height="4.023"/>
				</g>
			</g>
		</g>
	</g>
	<g>
		<rect x="242.652" y="107.57" fill="#E7E6E5" width="54.194" height="89.444"/>
		<rect x="243.435" y="107.57" fill="#F5F5F5" width="58.048" height="89.444"/>
		<path fill="#FFFFFF" d="M247.135,189.958v-75.333c0-1.716,1.305-3.106,2.914-3.106h44.818c1.609,0,2.913,1.39,2.913,3.106v75.333
			c0,1.716-1.304,3.106-2.913,3.106h-44.818C248.439,193.065,247.135,191.675,247.135,189.958z"/>
		<polygon fill="#F5F5F5" points="264.677,163.828 261.643,160.592 280.238,140.757 283.271,143.992 		"/>
		<polygon fill="#F5F5F5" points="257.03,155.67 253.996,152.435 272.592,132.598 275.624,135.835 		"/>
		<polygon fill="#F5F5F5" points="272.324,171.985 269.29,168.751 287.886,148.915 290.918,152.15 		"/>
	</g>
</g>
<ellipse id="_x3C_Path_x3E__14_" fill="#F5F5F5" cx="209.208" cy="290.691" rx="104.493" ry="6.51"/>
<g>
	<g>
		<g>
			<path fill="#4868A9" d="M210.101,250.012l0.612-2.225h-29.646l-11.174,40.609h5.407l5.373-19.529h7.155l5.373,19.529h6.338
				l5.373-19.529h7.155l5.374,19.529h3.222L210.101,250.012z M181.1,267.314l3.15-11.449l3.15,11.449H181.1z M195.277,284.232
				l-4.228-15.365h8.455L195.277,284.232z M199.932,267.314h-9.31l-4.761-17.303l0.185-0.672h18.832L199.932,267.314z
				 M205.34,267.314l3.149-11.449l3.15,11.449H205.34z"/>
			<path opacity="0.2" fill="#010002" d="M210.101,250.012l0.612-2.225h-29.646l-11.174,40.609h5.407l5.373-19.529h7.155
				l5.373,19.529h6.338l5.373-19.529h7.155l5.374,19.529h3.222L210.101,250.012z M181.1,267.314l3.15-11.449l3.15,11.449H181.1z
				 M195.277,284.232l-4.228-15.365h8.455L195.277,284.232z M199.932,267.314h-9.31l-4.761-17.303l0.185-0.672h18.832
				L199.932,267.314z M205.34,267.314l3.149-11.449l3.15,11.449H205.34z"/>
		</g>
		<g>
			<path fill="#4868A9" d="M211.824,247.787h-27.462l11.174,40.609h3.222l-5.373-19.529h21.017l5.374,19.529h3.222L211.824,247.787z
				 M192.957,267.314l-4.945-17.975h21.017l4.946,17.975H192.957z"/>
			<path opacity="0.4" fill="#FFFFFF" d="M211.824,247.787h-27.462l11.174,40.609h3.222l-5.373-19.529h21.017l5.374,19.529h3.222
				 M192.957,267.314l-4.945-17.975h21.017l4.946,17.975H192.957z"/>
		</g>
	</g>
	<g>
		<path fill="#253137" d="M211.26,101.934c0,0,1.191-3.018,7.679-2.299c4.722,0.522,7.588,5.941,7.229,13.604
			c-0.358,7.667-3.3,10.971-3.3,10.971l-15.471-8.582C207.396,115.628,206.344,102.94,211.26,101.934z"/>
		<path fill="#253137" d="M225.197,110.029v11.883C227.622,111.212,225.197,110.029,225.197,110.029z"/>
		<path fill="#253137" d="M224.412,105.236l2.522,11.574C226.371,103.853,223.747,103.253,224.412,105.236z"/>
		<path fill="#E5BABA" d="M224.008,134.284c0.391,1.117,0.808,2.314,1.252,3.454c0.436,1.155,0.881,2.301,1.362,3.424
			c0.488,1.117,0.988,2.217,1.525,3.275c0.272,0.525,0.551,1.037,0.839,1.534c0.14,0.258,0.299,0.477,0.446,0.719l0.201,0.315
			c0.027,0.043,0.058,0.086,0.099,0.129c0.152,0.172,0.438,0.366,0.825,0.517c0.387,0.152,0.86,0.255,1.359,0.32
			c1.008,0.131,2.123,0.104,3.249,0.015c1.13-0.088,2.279-0.257,3.425-0.479c1.147-0.197,2.315-0.469,3.433-0.741l0.729,2.17
			c-2.295,1.104-4.626,1.922-7.133,2.477c-1.256,0.264-2.55,0.444-3.944,0.409c-0.699-0.026-1.425-0.101-2.193-0.316
			c-0.762-0.213-1.591-0.576-2.342-1.257c-0.187-0.167-0.364-0.356-0.529-0.56c-0.096-0.116-0.134-0.172-0.188-0.242l-0.155-0.21
			c-0.201-0.28-0.428-0.558-0.608-0.843l-0.565-0.855l-0.519-0.866c-0.671-1.161-1.283-2.337-1.834-3.535
			c-0.548-1.198-1.071-2.401-1.55-3.62c-0.467-1.234-0.917-2.43-1.315-3.737L224.008,134.284z"/>
		<path fill="#E5BABA" d="M241.734,149.38l2.67,0.739l0.458-3.895c0,0-2.729-0.037-4.035,1.246L241.734,149.38z"/>
		<polygon fill="#E5BABA" points="247.761,150.342 247.383,147.466 244.862,146.224 244.404,150.119 		"/>
		<polygon opacity="0.2" fill="#010002" points="247.761,150.342 247.383,147.466 246.233,146.9 244.862,150.15 		"/>
		<g>
			<g>
				<path fill="#4868A9" d="M216.511,131.146c0.166,1.498,1.187,4.375,2.015,6.529c0.604,1.554,1.101,2.726,1.101,2.726l0.804-0.323
					l6.671-2.687c-0.341-3.862-0.976-8.082-4.789-10.21C219.914,125.842,216.22,128.474,216.511,131.146z"/>
			</g>
		</g>
		<path opacity="0.3" fill="#010002" d="M218.525,137.675c0.604,1.554,1.101,2.726,1.101,2.726l0.804-0.323
			c-0.045-1.521-0.224-3.92-0.937-5.046C218.994,135.775,218.695,136.711,218.525,137.675z"/>
		<polygon fill="#E5BABA" points="193.407,243.178 197.729,243.613 198.889,232.977 194.568,232.539 		"/>
		<polygon fill="#E5BABA" points="157.833,230.707 161.312,233.504 168.237,225.711 164.759,222.914 		"/>
		<path fill="#253137" d="M161.998,233.117l-2.497-4.496c-0.091-0.164-0.269-0.227-0.427-0.152l-3.532,1.662
			c-0.367,0.174-0.51,0.705-0.294,1.078c0.895,1.551,1.399,2.25,2.497,4.229c0.676,1.217,2.007,4.018,2.94,5.697
			c0.913,1.643,2.5,0.754,2.248-0.039c-1.125-3.547-1.011-5.559-0.788-7.158C162.185,233.65,162.13,233.357,161.998,233.117z"/>
		<path fill="#253137" d="M198.279,242.232h-5.145c-0.188,0-0.353,0.139-0.398,0.334l-1.005,4.344
			c-0.104,0.451,0.218,0.865,0.651,0.867c1.813,0.02,2.673-0.135,4.936-0.135c1.392,0,4.995,0.145,6.917,0.145
			c1.879,0,2.22-2.027,1.438-2.213c-3.511-0.82-5.551-1.957-6.656-3.041C198.817,242.338,198.553,242.232,198.279,242.232z"/>
		<polygon opacity="0.2" fill="#010002" points="198.888,232.979 198.29,238.463 193.92,238.463 194.565,232.541 		"/>
		<polygon opacity="0.2" fill="#010002" points="164.757,222.916 168.235,225.715 164.665,229.73 161.185,226.93 		"/>
		<g>
			<g>
				<path fill="#4868A9" d="M196.007,146.308c3.166,1.332,9.894,4.16,16.397,6.9c12.524-23.888,10.937-25.316,10.937-25.316
					s-2.59-1.837-5.3-3.406c-0.408-0.239-0.823-0.472-1.235-0.691c-2.347-1.263-4.638-2.121-7.443-3.138
					c-0.373-0.138-0.748-0.262-1.122-0.388c-3.201-1.041-6.18-1.556-6.18-1.556c-0.389,3.404-0.755,6.28-1.129,8.777
					c-0.484,3.255-0.97,5.855-1.486,8.095C198.477,139.753,197.4,142.682,196.007,146.308z"/>
			</g>
		</g>
		<path opacity="0.3" fill="#010002" d="M199.446,135.586c1.698-2.346,3.46-7.922,3.152-10.086l-1.666,1.991
			C200.447,130.747,199.962,133.347,199.446,135.586z"/>
		<g>
			<path fill="#4868A9" d="M220.085,124.979c-0.683-3.898-11.76-6.787-11.76-6.787l6.283,11.61l0.99,0.429
				C215.599,130.23,220.538,127.57,220.085,124.979z"/>
			<path opacity="0.3" fill="#010002" d="M220.085,124.979c-0.683-3.898-11.76-6.787-11.76-6.787l6.283,11.61l0.99,0.429
				C215.599,130.23,220.538,127.57,220.085,124.979z"/>
		</g>
		<path fill="#E5BABA" d="M212.38,115.646c-0.63,2.212-1.605,4.375-3.02,5.012c0,0-0.76,5.77,4.208,11.253
			c5.62-3.636,3.237-8.119,3.237-8.119c-2.438-1.811-1.841-3.741-0.038-6.62l-1.828-1.774
			C214.333,114.217,212.743,114.375,212.38,115.646z"/>
		<path fill="#4868A9" d="M208.018,120.199l0.308-2.008c0,0,2.559,1.469,3.622,3.848s-0.573,6.864-0.573,6.864l-3.978-4.054
			L208.018,120.199z"/>
		<path opacity="0.2" fill="#010002" d="M214.939,115.396c-0.571-1.115-2.024-1.037-2.488,0.053
			c0.498,1.918,1.295,3.634,2.796,5.008c0.178-0.959,0.734-2.036,1.519-3.289L214.939,115.396z"/>
		<path fill="#E5BABA" d="M210.627,107.7c0.119,4.634,0.079,6.595,2.156,9.093c3.125,3.759,8.337,2.708,9.494-1.839
			c1.042-4.094,0.671-10.984-3.439-13.069C214.788,99.829,210.507,103.067,210.627,107.7z"/>
		<path fill="#253137" d="M211.043,103.659c3.227,3.645,9.387,1.437,9.387,1.437l3.226,2.091l-1.714-4.152l-3.794-2.362
			C218.147,100.672,209.389,101.79,211.043,103.659z"/>
		<path fill="#253137" d="M211.394,102.221c0,0,1.527,1.342,2.605,4.216c1.078,2.875-3.225,5.076-3.225,5.076
			S207.262,107.587,211.394,102.221z"/>
		<path fill="#E5BABA" d="M209.529,111.938c0.177,0.944,0.737,1.723,1.35,2.164c0.923,0.659,1.7-0.133,1.71-1.258
			c0.01-1.012-0.46-2.576-1.514-2.786C210.039,109.85,209.328,110.857,209.529,111.938z"/>
		<path fill="#253137" d="M212.404,153.208c0,0-2.906,23.353-5.029,41.311c-1.687,14.276-7.847,41.793-7.847,41.793l-6.311-0.668
			c0,0,2.639-31.222,5.054-41.243c-1.493-20.611-5.398-40.565,0.977-46.839L212.404,153.208z"/>
		<polygon fill="#4868A9" points="192.188,234.004 200.511,234.273 200.055,237.305 192.273,237.178 		"/>
		<path opacity="0.3" fill="#010002" d="M202.049,165.274l-6.306-5.6c-0.221,7.203,0.884,16.517,1.817,26.417
			C200.745,178.979,202.96,171.339,202.049,165.274z"/>
		<path fill="#253137" d="M208.807,151.755c0,0-11.688,25.983-16.362,43.311c-5.844,13.704-25.475,33.333-25.475,33.333
			l-4.468-4.258c0,0,15.684-28.064,21.022-32.825c2.556-20.066,4.551-39.336,12.483-45.007L208.807,151.755z"/>
		<polygon fill="#4868A9" points="166.759,229.939 160.953,224.809 162.462,222.037 168.824,228 		"/>
		<g>
			<path fill="#4868A9" d="M196.113,145.168l-1.276,1.271c-0.099,0.098-0.007,0.28,0.182,0.359l17.198,7.238
				c0.148,0.063,0.298,0.037,0.34-0.06l0.686-1.519c0.047-0.104-0.049-0.252-0.211-0.32l-16.605-6.989
				C196.303,145.097,196.177,145.105,196.113,145.168z"/>
			<path opacity="0.2" fill="#FFFFFF" d="M196.113,145.168l-1.276,1.271c-0.099,0.098-0.007,0.28,0.182,0.359l17.198,7.238
				c0.148,0.063,0.298,0.037,0.34-0.06l0.686-1.519c0.047-0.104-0.049-0.252-0.211-0.32l-16.605-6.989
				C196.303,145.097,196.177,145.105,196.113,145.168z"/>
		</g>
		<path fill="#253137" d="M197.664,148.107l-0.445-0.187c-0.088-0.037-0.139-0.116-0.112-0.172l0.907-1.966
			c0.027-0.058,0.121-0.075,0.209-0.037l0.445,0.187c0.088,0.037,0.14,0.114,0.113,0.172l-0.907,1.965
			C197.847,148.129,197.752,148.144,197.664,148.107z"/>
		<path fill="#253137" d="M210.91,153.682l-0.445-0.187c-0.089-0.037-0.14-0.114-0.113-0.172l0.905-1.966
			c0.027-0.057,0.122-0.073,0.211-0.037l0.444,0.187c0.089,0.038,0.139,0.114,0.113,0.172l-0.908,1.967
			C211.092,153.702,210.998,153.719,210.91,153.682z"/>
		<path fill="#253137" d="M204.287,150.896l-0.445-0.188c-0.088-0.037-0.14-0.115-0.113-0.172l0.906-1.965
			c0.027-0.058,0.122-0.075,0.21-0.037l0.445,0.186c0.088,0.038,0.14,0.116,0.112,0.172l-0.906,1.966
			C204.47,150.916,204.375,150.932,204.287,150.896z"/>
		<path fill="#253137" d="M216.853,109.388c-0.011,0.376,0.164,0.692,0.39,0.706c0.227,0.014,0.42-0.28,0.431-0.656
			c0.012-0.376-0.162-0.692-0.389-0.706C217.058,108.718,216.864,109.012,216.853,109.388z"/>
		<path fill="#253137" d="M220.771,109.621c-0.01,0.376,0.163,0.693,0.391,0.706c0.225,0.013,0.419-0.28,0.429-0.656
			c0.014-0.376-0.162-0.692-0.389-0.706S220.783,109.247,220.771,109.621z"/>
		<path fill="#253137" d="M221.101,108.98l0.841-0.21C221.941,108.77,221.493,109.449,221.101,108.98z"/>
		<path fill="#D27D7A" d="M220.326,110.15c0,0,0.538,1.653,1.163,2.473c-0.473,0.436-1.244,0.177-1.244,0.177L220.326,110.15z"/>
		<path fill="#253137" d="M218.601,114.247c0.037-0.013,0.063-0.051,0.064-0.098c0.002-0.061-0.042-0.113-0.099-0.116
			c-1.518-0.091-2.196-1.288-2.203-1.297c-0.029-0.053-0.092-0.071-0.139-0.042c-0.049,0.03-0.063,0.098-0.034,0.151
			c0.029,0.053,0.738,1.312,2.369,1.408C218.574,114.255,218.587,114.253,218.601,114.247z"/>
		<path fill="#253137" d="M216.511,107.925c0.033-0.013,0.062-0.035,0.086-0.066c0.572-0.752,1.318-0.659,1.327-0.659
			c0.11,0.017,0.211-0.07,0.224-0.19c0.01-0.121-0.071-0.232-0.181-0.247c-0.041-0.006-0.976-0.123-1.686,0.812
			c-0.071,0.093-0.059,0.232,0.029,0.312C216.368,107.938,216.446,107.951,216.511,107.925z"/>
		<path fill="#253137" d="M223.248,107.855c0.008-0.012,0.015-0.023,0.021-0.035c0.055-0.104,0.021-0.24-0.078-0.303
			c-0.982-0.623-1.82-0.182-1.854-0.162c-0.1,0.053-0.139,0.186-0.087,0.296c0.052,0.109,0.175,0.154,0.273,0.101
			c0.031-0.017,0.688-0.351,1.469,0.146C223.078,107.953,223.185,107.932,223.248,107.855z"/>
		<path fill="#4868A9" d="M162.668,235.525c0.022,0.01,0.044,0.018,0.066,0.027c0.186,0.057,0.369,0.008,0.547-0.154
			c0.134-0.119,0.149-0.256,0.139-0.35c-0.066-0.596-1.458-1.33-1.616-1.412c-0.038-0.02-0.081-0.014-0.111,0.016
			c-0.03,0.031-0.041,0.076-0.029,0.119C161.833,234.34,162.182,235.301,162.668,235.525z M161.937,233.957
			c0.548,0.313,1.247,0.807,1.282,1.117c0.004,0.041,0.001,0.094-0.065,0.154c-0.124,0.111-0.242,0.148-0.362,0.107
			C162.51,235.248,162.196,234.738,161.937,233.957z"/>
		<path fill="#4868A9" d="M161.813,233.889c0.478,0.223,1.526,0.367,1.861,0.027c0.07-0.07,0.17-0.227,0.064-0.48
			c-0.066-0.162-0.18-0.271-0.339-0.324c-0.593-0.201-1.648,0.5-1.693,0.531c-0.031,0.021-0.049,0.057-0.048,0.098
			c0,0.039,0.02,0.076,0.052,0.094C161.742,233.852,161.775,233.869,161.813,233.889z M163.381,233.34
			c0.08,0.039,0.137,0.1,0.173,0.188c0.054,0.131,0.02,0.189-0.016,0.225c-0.22,0.225-1.065,0.166-1.553-0.027
			c0.362-0.213,1.002-0.52,1.356-0.398C163.355,233.328,163.368,233.336,163.381,233.34z"/>
		<path fill="#4868A9" d="M200.585,243.139c0.398,0,0.767-0.066,0.999-0.256c0.157-0.131,0.24-0.307,0.246-0.527
			c0.004-0.164-0.072-0.254-0.137-0.299c-0.477-0.336-2.206,0.514-2.547,0.686c-0.039,0.02-0.062,0.066-0.056,0.111
			c0.007,0.047,0.04,0.086,0.083,0.096C199.549,243.037,200.089,243.139,200.585,243.139z M201.38,242.191
			c0.089,0,0.158,0.016,0.202,0.047c0.022,0.016,0.045,0.039,0.043,0.104c-0.004,0.154-0.061,0.275-0.17,0.367
			c-0.295,0.242-1.006,0.275-1.932,0.092C200.147,242.508,200.967,242.191,201.38,242.191z"/>
		<path fill="#4868A9" d="M199.195,242.951c0.013,0,0.026-0.002,0.038-0.008c0.575-0.254,1.72-1.256,1.64-1.771
			c-0.018-0.115-0.094-0.258-0.36-0.293c-1.026-0.127-1.407,1.854-1.422,1.939c-0.007,0.039,0.006,0.08,0.036,0.107
			C199.147,242.941,199.171,242.951,199.195,242.951z M200.425,241.096c0.023,0,0.046,0,0.07,0.002
			c0.108,0.014,0.167,0.049,0.175,0.102c0.046,0.301-0.742,1.092-1.325,1.439C199.468,242.158,199.81,241.096,200.425,241.096z"/>
		<path fill="#253137" d="M217.184,108.747l0.841-0.21C218.024,108.536,217.574,109.215,217.184,108.747z"/>
		<path fill="#E5BABA" d="M202.067,126.248c-1.738,1.718-3.497,3.512-5.179,5.307c-0.84,0.903-1.654,1.824-2.432,2.75
			c-0.776,0.919-1.524,1.877-2.094,2.787c-0.28,0.429-0.517,0.934-0.552,1.07c-0.01,0.021-0.002,0.005-0.01,0.005
			c0.005-0.02-0.004-0.075-0.003-0.014c-0.005,0.073-0.006,0.145,0,0.217c0.009,0.146,0.04,0.296,0.086,0.462
			c0.187,0.668,0.839,1.481,1.649,2.184c1.641,1.427,3.843,2.568,5.97,3.506l-0.524,2.236c-0.672-0.103-1.278-0.242-1.908-0.404
			c-0.625-0.161-1.247-0.345-1.86-0.573c-1.225-0.456-2.462-0.98-3.646-1.777c-0.592-0.399-1.184-0.85-1.734-1.428
			c-0.548-0.575-1.074-1.271-1.458-2.144c-0.192-0.436-0.336-0.915-0.423-1.414c-0.044-0.248-0.071-0.503-0.083-0.757
			c-0.01-0.101-0.005-0.32,0.006-0.502c0.017-0.163,0.036-0.341,0.065-0.477c0.112-0.585,0.276-1.014,0.441-1.408
			c0.168-0.391,0.344-0.737,0.525-1.067c0.729-1.306,1.528-2.382,2.339-3.448c0.818-1.052,1.67-2.042,2.53-3.019
			c1.725-1.953,3.498-3.779,5.388-5.563L202.067,126.248z"/>
		<path fill="#E5BABA" d="M197.802,146.322l2.145,3.007l2.158-3.165c0,0-2.023-1.952-3.796-1.913L197.802,146.322z"/>
		<polygon fill="#E5BABA" points="201.723,151.3 203.223,148.878 202.105,146.164 199.947,149.329 		"/>
		<g>
			<g>
				<path fill="#4868A9" d="M202.061,118.715c-2.157-0.26-6.641,5.194-6.641,5.194l4.026,7.584c0,0,5.964-4.503,5.744-7.382
					C204.996,121.563,204.809,119.048,202.061,118.715z"/>
			</g>
		</g>
	</g>
</g>
<g>
	<g>
		<polygon fill="#4868A9" points="250.853,192.818 250.386,192.53 251.679,190.142 252.146,190.429 		"/>
		<polygon fill="#4868A9" points="253.472,187.98 253.005,187.694 257.691,179.041 258.158,179.329 		"/>
		<polygon fill="#4868A9" points="272.809,124.028 235.327,142.211 249.84,142.211 200.185,233.893 226.426,233.893 
			276.081,142.211 290.594,142.211 		"/>
		<polygon fill="#4868A9" points="226.426,233.891 200.189,233.891 182.337,200.927 208.575,200.927 		"/>
		<polygon opacity="0.3" fill="#010002" points="226.426,233.891 200.189,233.891 182.337,200.927 208.575,200.927 		"/>
	</g>
	<polygon fill="#4868A9" points="208.575,200.927 182.334,200.927 132.68,292.607 158.922,292.607 	"/>
</g>
</svg>
