<?xml version="1.0" encoding="utf-8"?>
<!-- Generator: Adobe Illustrator 16.0.0, SVG Export Plug-In . SVG Version: 6.00 Build 0)  -->
<!DOCTYPE svg PUBLIC "-//W3C//DTD SVG 1.1//EN" "http://www.w3.org/Graphics/SVG/1.1/DTD/svg11.dtd">
<svg version="1.1" id="Capa_1" xmlns="http://www.w3.org/2000/svg" xmlns:xlink="http://www.w3.org/1999/xlink" x="0px" y="0px"
	 width="400px" height="400px" viewBox="0 0 400 400" enable-background="new 0 0 400 400" xml:space="preserve">
<g>
	<path fill="#B7B7C2" d="M207.101,101.513v8.466H73.627v-8.466c0-2.36,2.414-4.279,5.394-4.279h122.685
		C204.687,97.234,207.101,99.153,207.101,101.513z"/>
	<path fill="#DEDEDF" d="M207.101,109.979v121.053c0,2.36-2.414,4.28-5.395,4.28H79.021c-2.98,0-5.394-1.92-5.394-4.28V109.979
		H207.101z"/>
	<ellipse fill="#F4F2F8" cx="197.915" cy="103.606" rx="2.66" ry="2.112"/>
	<ellipse fill="#F4F2F8" cx="189.069" cy="103.606" rx="2.661" ry="2.112"/>
	<ellipse fill="#F4F2F8" cx="180.224" cy="103.606" rx="2.66" ry="2.112"/>
	<rect x="84.34" y="116.729" fill="#FFFFFF" width="113.665" height="52.366"/>
	<line fill="none" stroke="#FFFFFF" stroke-width="7" stroke-miterlimit="10" x1="84.34" y1="177.728" x2="197.915" y2="177.728"/>
	<line fill="none" stroke="#FFFFFF" stroke-width="7" stroke-miterlimit="10" x1="84.34" y1="186.034" x2="197.915" y2="186.034"/>
	<line fill="none" stroke="#FFFFFF" stroke-width="7" stroke-miterlimit="10" x1="84.34" y1="194.342" x2="197.915" y2="194.342"/>
	<polygon fill="#FFFFFF" points="112.692,202.834 107.078,202.834 84.679,202.834 84.679,223.718 107.078,223.718 112.692,223.718 
		146.493,223.718 146.493,202.834 	"/>
	
		<line fill="none" stroke="#FFFFFF" stroke-width="7" stroke-miterlimit="10" x1="154.537" y1="204.454" x2="197.915" y2="204.454"/>
	
		<line fill="none" stroke="#FFFFFF" stroke-width="7" stroke-miterlimit="10" x1="154.537" y1="212.646" x2="197.915" y2="212.646"/>
	
		<line fill="none" stroke="#FFFFFF" stroke-width="7" stroke-miterlimit="10" x1="154.537" y1="220.837" x2="197.915" y2="220.837"/>
</g>
<g>
	<rect x="112.202" y="274.024" fill="#C75A8A" width="221.725" height="31.199"/>
	<rect x="105.221" y="274.024" fill="#C75A8A" width="228.706" height="8.575"/>
	<polygon opacity="0.6" fill="#A0598D" points="333.927,282.6 112.202,282.6 112.202,293.371 333.927,285.293 	"/>
</g>
<g>
	<defs>
		<rect id="SVGID_1_" x="51.115" y="80.841" width="282.812" height="224.383"/>
	</defs>
	<clipPath id="SVGID_2_">
		<use xlink:href="#SVGID_1_"  overflow="visible"/>
	</clipPath>
	<g clip-path="url(#SVGID_2_)">
		<g>
			<g>
				<polygon fill="#EDCFB4" points="173.359,227.335 193.003,187.637 182.782,182.963 153.616,222.905 				"/>
				<path fill="#EDCFB4" d="M183.816,185.693c0,0-5.269-7.049-3.857-13.048s-5.645-10.06-2.621-10.829
					c3.024-0.769,8.064,6.429,8.064,8.508c0,2.08,6.653-4.672,10.483-1.855c3.83,2.815,8.266,3.952,8.67,7.464
					c0.403,3.51-6.453,10.802-10.686,12.993c-4.233,2.193-5.242,3.938-6.451,4.105C186.209,193.2,183.816,185.693,183.816,185.693z"
					/>
				<path fill="#D9A29F" d="M204.556,175.934c-0.404-3.512-4.84-4.648-8.67-7.464c-1.613-1.187-3.727-0.674-5.635,0.161
					c-0.154,0.271-0.332,0.582-0.538,0.943c-1.614,2.802-0.397,2.543,0.899,3.205c0.609,0.311,1.138,0.279,1.814-0.191
					c-0.28,0.369-0.484,0.661-0.567,0.824c-0.488,0.964,0.495,2.394,2.419,2.608c0.424,0.047,0.836-0.062,1.246-0.275
					c-0.798,1.212-0.261,1.599,0.906,2.004c0.713,0.247,1.066,0.286,1.618-0.008c-0.052,0.044-0.087,0.073-0.087,0.073
					s-0.919,0.937-0.214,1.919s1.284,1.602,3.767,0.019c0.859-0.548,1.785-1.101,2.623-1.645
					C204.466,177.296,204.626,176.555,204.556,175.934z"/>
				<g>
					<path fill="#EDCFB4" d="M191.774,164.943c0.612-1.089,2.714-1.555,4.428-1.022c1.716,0.534,2.224,0.894-0.572,4.339
						c-2.795,3.445-3.721,4.306-5.018,3.645s-2.513-0.403-0.899-3.206C191.326,165.896,191.162,166.035,191.774,164.943z"/>
					<path fill="#EDCFB4" d="M197.022,166.207c0,0,1.848-0.121,3.152,0.617c1.303,0.737,2.285,1.076,0.007,3.356
						c-2.278,2.282-3.979,5.181-5.903,4.966s-2.907-1.646-2.419-2.609S197.022,166.207,197.022,166.207z"/>
					<path fill="#EDCFB4" d="M204.536,171.48c-0.066,0.499-1.78,1.979-4.242,3.792c-2.463,1.813-2.536,2.062-3.863,1.604
						c-1.326-0.461-1.84-0.896-0.508-2.547c1.332-1.652,4.252-5.318,6.106-5.362C203.885,168.924,204.679,170.395,204.536,171.48z"
						/>
					<path fill="#EDCFB4" d="M197.962,176.94c0,0-0.919,0.938-0.214,1.919s1.284,1.602,3.767,0.019
						c2.482-1.584,5.531-3.208,5.369-4.54c-0.165-1.332-1.183-3.146-2.545-2.387C202.976,172.71,197.962,176.94,197.962,176.94z"/>
				</g>
				<g>
					<g>
						<g>
							<path fill="#D9A29F" d="M195.63,167.501c-2.795,3.445-3.721,4.306-5.018,3.645c-0.71-0.362-1.394-0.452-1.603-0.916
								c-0.322,1.198,0.615,1.171,1.603,1.676c1.296,0.661,2.222-0.2,5.018-3.645c1.718-2.118,2.186-3.068,1.895-3.611
								C197.327,165.248,196.745,166.126,195.63,167.501z"/>
						</g>
						<g>
							<path fill="#D9A29F" d="M200.182,169.421c-2.278,2.281-3.979,5.181-5.903,4.966c-1.365-0.152-2.253-0.918-2.481-1.692
								c-0.317,0.954,0.658,2.249,2.481,2.452c1.924,0.215,3.625-2.685,5.903-4.966c1.276-1.278,1.529-1.946,1.274-2.416
								C201.296,168.172,200.903,168.698,200.182,169.421z"/>
						</g>
						<g>
							<path fill="#D9A29F" d="M200.294,174.512c-2.463,1.813-2.536,2.063-3.863,1.604c-0.589-0.204-1.018-0.404-1.195-0.709
								c-0.312,0.804,0.223,1.131,1.195,1.469c1.327,0.459,1.4,0.21,3.863-1.603c2.462-1.813,4.176-3.294,4.242-3.792
								c0.027-0.214,0.019-0.442-0.027-0.672C204.284,171.378,202.626,172.795,200.294,174.512z"/>
						</g>
						<g>
							<path fill="#D9A29F" d="M201.515,178.118c-2.482,1.583-3.062,0.964-3.767-0.018c-0.103-0.143-0.167-0.282-0.208-0.419
								c-0.098,0.335-0.098,0.752,0.208,1.178c0.705,0.982,1.284,1.602,3.767,0.019c2.482-1.584,5.531-3.208,5.369-4.54
								c-0.014-0.107-0.034-0.218-0.059-0.329C206.404,175.252,203.735,176.701,201.515,178.118z"/>
						</g>
					</g>
				</g>
				<path fill="#D9A29F" d="M185.441,170.538l-0.001,0.007c0,0,0.769,1.807,1.139,4.099c0.36,2.232,0.942-0.767,0.384-4.346
					C186.144,170.708,185.583,170.892,185.441,170.538z"/>
				<polygon fill="#D9A29F" points="173.359,227.335 191.49,190.694 191.49,190.694 167.157,224.128 				"/>
			</g>
		</g>
		<path fill="#197194" d="M97.597,210.622c0,0-6.917,3.84-7.893,15.06c-0.975,11.22,6.613,18.399,6.613,18.399L97.597,210.622z"/>
		<g>
			<g>
				<g>
					<g>
						<path fill="#EDCFB4" d="M140.206,197.266c0.42,3.213,1.316,6.008,2.285,8.294c-1.291,0.568-4.785,1.949-9.753,2.003
							c-5.334,0.058-9.097-1.446-10.362-2.003c1.563-2.431,3.416-6.156,3.734-10.818c0.079-1.175,0.057-2.301-0.051-3.371
							c-0.438-4.507-2.285-8.066-3.684-10.252h20.115c-0.11,0.261-0.221,0.529-0.328,0.807c-1.323,3.359-2.487,7.882-2.165,13.218
							C140.042,195.869,140.111,196.576,140.206,197.266z"/>
						<path fill="#D9A29F" d="M125.592,188.584c4.898,2.988,9.979,5.393,14.436,6.938c-0.009-0.127-0.022-0.251-0.03-0.379
							c-0.322-5.336,0.842-9.858,2.165-13.218c0.107-0.277,0.218-0.546,0.328-0.807h-20.115
							C123.471,182.831,124.839,185.39,125.592,188.584z"/>
						<g>
							<path fill="#EDCFB4" d="M170.417,160.306c-0.454,17.145-1.076,29.748-15.879,31.348c-3.954,0.426-16.91-2.103-23.418-5.307
								c-13.329-6.561-27.97-18.355-27.665-29.876c0.454-17.146,14.409-27.513,31.279-27.232S170.87,143.161,170.417,160.306z"/>
						</g>
						<path fill="#D9A29F" d="M125.515,172.246h-14.351c5.387,5.63,12.856,10.609,19.955,14.102
							c5.552,2.733,15.79,4.974,21.136,5.309c-1.3-0.467-2.5-0.958-3.534-1.469C140.046,185.918,130.819,179.431,125.515,172.246z"
							/>
						<path fill="#D9A29F" d="M134.733,129.24c-1.762-0.03-3.489,0.063-5.176,0.263v30.726c13.716-0.198,32.509-5.449,39.467-8.343
							C164.352,138.897,148.724,129.473,134.733,129.24z"/>
						<path fill="#FFFFFF" d="M163.911,179.753c-8.945,7.35-13.885,0.195-15.465-2.861c-0.271-0.522,0.312-1.069,1.005-0.939
							l14.041,2.641C164.153,178.718,164.383,179.364,163.911,179.753z"/>
						<path fill="#00243D" d="M147.689,128.942c-11.739-4.628-31.889-3.553-38.945,8.17c-0.366,0.608-0.936,1.131-1.673,1.467
							c-2.008,0.914-6.298,3.673-8.491,11.112c-3.127,10.609,6.999,24.684,13.1,29.756c15.262,12.688,15.899,2.915,15.261-4.858
							c-0.15-1.828-1.866-4.151-3.819-5.126c-2.867-1.432-4.514-3.427-4.1-6.735c0.654-5.238,2.794-6.474,6.636-7.118
							c3.802-0.638,2.227,0.575,4.705,2.559c17.093-0.247,42.073-8.341,42.203-9.942
							C173.374,138.334,158.494,133.329,147.689,128.942z"/>
						<path fill="#00243D" d="M132.682,155.129c0,0-0.504,14.556-2.117,14.236c-1.613-0.319-3.025-10.299-4.436-15.027
							c-1.411-4.727-3.024-5.287-4.738-5.287c-1.714,0,8.669,0.48,9.476,1.28C131.674,151.131,132.682,155.129,132.682,155.129z"/>
						<path fill="#00243D" d="M146.475,162.898c0.154,1.737-0.705,3.201-1.918,3.269c-1.214,0.067-2.322-1.286-2.477-3.024
							c-0.154-1.738,0.705-3.201,1.918-3.269C145.212,159.807,146.321,161.16,146.475,162.898z"/>
						
							<polyline fill="#EDCFB4" stroke="#00243D" stroke-width="2.6359" stroke-linecap="round" stroke-linejoin="round" stroke-miterlimit="10" points="
							167.977,158.051 162.873,161.208 167.711,161.208 						"/>
						
							<path fill="#EDCFB4" stroke="#00243D" stroke-width="2.6359" stroke-linecap="round" stroke-linejoin="round" stroke-miterlimit="10" d="
							M161.109,156.33c0,0,4.182-3.677,6.048-4.08"/>
						
							<path fill="none" stroke="#00243D" stroke-width="2.6359" stroke-linecap="round" stroke-linejoin="round" stroke-miterlimit="10" d="
							M137.319,155.63c0,0,12.198-0.661,14.516,1.579"/>
						<path fill="#D9A29F" d="M125.324,158.731c0.47,2.21,1.618,8.075,1.618,8.075s-6.317-0.408-5.18-5.064
							C122.568,158.438,125.324,158.731,125.324,158.731z"/>
						
							<path fill="#EDCFB4" stroke="#00243D" stroke-width="2.6359" stroke-linecap="round" stroke-linejoin="round" stroke-miterlimit="10" d="
							M157.993,161.817c0,0-0.476,4.495,0.686,5.703c0,0,4.657-0.79,5.49,1.617c0.834,2.408-1.92,4.578-4.748,4.772"/>
					</g>
				</g>
				<path fill="#197194" d="M118.947,206.137c0,0,3.455-4.698,4.72-5.256c1.266-0.558,17.502-0.209,18.487,0.461
					s3.445,5.357,3.445,5.357L118.947,206.137z"/>
				<path fill="#4AA3A0" d="M172.086,247.714c-0.299-15.428-0.484-16.142-3.128-36.747c-0.574-4.474-30.232-5.541-30.232-5.541
					h-5.846h-0.358l0,0h-0.358c0,0-4.386,0.056-5.846,0c-11.806-0.445-21.091,1.273-27.501,4.475
					c-8.906,4.447-5.562,18.793-5.86,34.221c-0.124,6.385-0.571,62.297-3.251,64.707h36.613h5.846h0.358l0,0h0.358h5.846h36.612
					C172.657,306.418,172.209,254.099,172.086,247.714z"/>
				<g>
					<defs>
						<path id="SVGID_3_" d="M172.086,247.714c-0.299-15.428-0.484-16.142-3.128-36.747c-0.574-4.474-30.232-5.541-30.232-5.541
							h-5.846h-0.358l0,0h-0.358c0,0-4.386,0.056-5.846,0c-11.806-0.445-21.524-1.035-26.748,0.711
							c-9.698,3.24-6.315,22.557-6.614,37.984c-0.124,6.385-0.571,62.297-3.251,64.707h36.613h5.846h0.358l0,0h0.358h5.846h36.612
							C172.657,306.418,172.209,254.099,172.086,247.714z"/>
					</defs>
					<clipPath id="SVGID_4_">
						<use xlink:href="#SVGID_3_"  overflow="visible"/>
					</clipPath>
					<polygon opacity="0.6" clip-path="url(#SVGID_4_)" fill="#3FA2AF" points="158.113,229.469 173.458,295.479 175.337,238.698 
											"/>
				</g>
			</g>
		</g>
		<g>
			<g>
				<path fill="#EDCFB4" d="M173.459,248.882l19.872,21.658c3.085,3.363,8.812,4.424,13.456,2.491l0,0
					c5.146-2.143,7.148-7.18,4.48-11.275l-14.41-22.132L173.459,248.882z"/>
				<path fill="#D9A29F" d="M196.856,239.624l-23.397,9.258l6.61,7.202c3.16-0.828,6.75-1.995,10.527-3.657
					c4.438-1.955,7.987-4.087,10.706-5.978L196.856,239.624z"/>
				<polygon fill="#EDCFB4" points="203.306,273.912 256.726,269.16 254.601,261.808 199.024,257.992 				"/>
				<g>
					<path fill="#D9A29F" d="M277.882,265.062c0,0,0.85,1.734,1.18,2.916c0.328,1.183,1.367,1.579,2.309,1.183
						c0.943-0.396,0.377-4.81,0.377-4.81L277.882,265.062z"/>
					<path fill="#D9A29F" d="M274.101,265.062c0,0,0.848,1.734,1.178,2.916c0.33,1.183,1.367,1.579,2.309,1.183
						c0.943-0.396,0.379-4.81,0.379-4.81L274.101,265.062z"/>
					<path fill="#EDCFB4" d="M256.726,269.16c0,0,2.727,1.622,9.986,1.248c7.258-0.374,10.559-3.526,11.688-4.455
						c0.6-0.492,2.875-0.528,4.574,0.454c1.51,0.873,1.414,2.753,3.156,2.753c1.508,0,1.51-2.305,0.756-3.725
						c-0.48-0.908-5.516-4.376-6.93-4.899s-2.686-1.646-4.666-1.421c-1.98,0.224-4.053-0.714-7.258-0.021
						c-3.207,0.693-13.432,2.713-13.432,2.713L256.726,269.16z"/>
				</g>
			</g>
			<path fill="#197194" d="M161.673,207.731c0,0,14.28,1.636,23.236,10.541c5.846,5.813,15.671,23.804,15.671,23.804
				c-2.835,2.066-6.737,4.523-11.791,6.749c-5.636,2.48-10.86,3.86-14.854,4.657c-3.271-5.131-6.542-10.262-9.813-15.395
				c-1.662-1.636-9.488-9.685-7.473-20.289C157.512,213.259,159.878,209.833,161.673,207.731z"/>
		</g>
	</g>
</g>
<g>
	<g>
		<path fill="#197194" d="M123.9,277.515H82.836c-10.608,0-19.208-6.823-19.208-15.24v-21.772c0-8.416,8.599-15.239,19.208-15.239
			H123.9c10.608,0,19.208,6.823,19.208,15.239v21.772C143.108,270.691,134.509,277.515,123.9,277.515z"/>
		<path fill="#00243D" d="M116.83,277.515H75.766c-10.608,0-19.207-6.823-19.207-15.24v-21.772c0-8.416,8.599-15.239,19.207-15.239
			h41.064c10.608,0,19.208,6.823,19.208,15.239v21.772C136.038,270.691,127.438,277.515,116.83,277.515z"/>
		<path fill="#197194" d="M105.221,305.224H87.375v-57.623c0-3.91,3.995-7.079,8.923-7.079l0,0c4.928,0,8.922,3.169,8.922,7.079
			V305.224z"/>
		<path fill="#00243D" d="M101.451,305.224H83.604v-57.623c0-3.91,3.996-7.079,8.923-7.079l0,0c4.928,0,8.923,3.169,8.923,7.079
			V305.224z"/>
		<polygon opacity="0.6" fill="#00243D" points="83.604,277.515 83.604,255.824 77.991,277.515 		"/>
	</g>
	<g>
		<g>
			<path fill="#4AA3A0" d="M309.956,114.495v-9c0-0.607-0.621-1.099-1.385-1.099h-80.027c-0.766,0-1.386,0.492-1.386,1.099v9
				c0,0.606,0.62,1.099,1.386,1.099h80.027C309.335,115.594,309.956,115.101,309.956,114.495z"/>
			<g>
				
					<line fill="none" stroke="#0A4062" stroke-width="2" stroke-miterlimit="10" x1="303.929" y1="104.396" x2="303.929" y2="107.388"/>
				
					<line fill="none" stroke="#0A4062" stroke-width="2" stroke-miterlimit="10" x1="300.698" y1="104.396" x2="300.698" y2="107.388"/>
				
					<line fill="none" stroke="#0A4062" stroke-width="2" stroke-miterlimit="10" x1="297.468" y1="104.396" x2="297.468" y2="107.388"/>
				
					<line fill="none" stroke="#0A4062" stroke-width="2" stroke-miterlimit="10" x1="294.239" y1="104.396" x2="294.239" y2="107.388"/>
				
					<line fill="none" stroke="#0A4062" stroke-width="2" stroke-miterlimit="10" x1="291.009" y1="104.396" x2="291.009" y2="107.388"/>
				
					<line fill="none" stroke="#0A4062" stroke-width="2" stroke-miterlimit="10" x1="287.78" y1="104.396" x2="287.78" y2="107.388"/>
				
					<line fill="none" stroke="#0A4062" stroke-width="2" stroke-miterlimit="10" x1="284.552" y1="104.396" x2="284.552" y2="107.388"/>
				
					<line fill="none" stroke="#0A4062" stroke-width="2" stroke-miterlimit="10" x1="281.321" y1="104.396" x2="281.321" y2="107.388"/>
				
					<line fill="none" stroke="#0A4062" stroke-width="2" stroke-miterlimit="10" x1="278.093" y1="104.396" x2="278.093" y2="107.388"/>
				
					<line fill="none" stroke="#0A4062" stroke-width="2" stroke-miterlimit="10" x1="274.862" y1="104.396" x2="274.862" y2="107.388"/>
				
					<line fill="none" stroke="#0A4062" stroke-width="2" stroke-miterlimit="10" x1="271.634" y1="104.396" x2="271.634" y2="107.388"/>
				
					<line fill="none" stroke="#0A4062" stroke-width="2" stroke-miterlimit="10" x1="268.403" y1="104.396" x2="268.403" y2="107.388"/>
				
					<line fill="none" stroke="#0A4062" stroke-width="2" stroke-miterlimit="10" x1="265.175" y1="104.396" x2="265.175" y2="107.388"/>
				
					<line fill="none" stroke="#0A4062" stroke-width="2" stroke-miterlimit="10" x1="261.944" y1="104.396" x2="261.944" y2="107.388"/>
				
					<line fill="none" stroke="#0A4062" stroke-width="2" stroke-miterlimit="10" x1="258.716" y1="104.396" x2="258.716" y2="107.388"/>
				
					<line fill="none" stroke="#0A4062" stroke-width="2" stroke-miterlimit="10" x1="255.485" y1="104.396" x2="255.485" y2="107.388"/>
				
					<line fill="none" stroke="#0A4062" stroke-width="2" stroke-miterlimit="10" x1="252.255" y1="104.396" x2="252.255" y2="107.388"/>
				
					<line fill="none" stroke="#0A4062" stroke-width="2" stroke-miterlimit="10" x1="249.026" y1="104.396" x2="249.026" y2="107.388"/>
				
					<line fill="none" stroke="#0A4062" stroke-width="2" stroke-miterlimit="10" x1="245.796" y1="104.396" x2="245.796" y2="107.388"/>
				
					<line fill="none" stroke="#0A4062" stroke-width="2" stroke-miterlimit="10" x1="242.567" y1="104.396" x2="242.567" y2="107.388"/>
				
					<line fill="none" stroke="#0A4062" stroke-width="2" stroke-miterlimit="10" x1="239.337" y1="104.396" x2="239.337" y2="107.388"/>
				
					<line fill="none" stroke="#0A4062" stroke-width="2" stroke-miterlimit="10" x1="236.108" y1="104.396" x2="236.108" y2="107.388"/>
				
					<line fill="none" stroke="#0A4062" stroke-width="2" stroke-miterlimit="10" x1="232.879" y1="104.396" x2="232.879" y2="107.388"/>
			</g>
		</g>
		<g>
			<g>
				<path fill="#C75A8A" d="M299.214,216.635h-69.769c-3.347,0-6.061-2.152-6.061-4.808v-29.372c0-2.655,2.714-4.809,6.061-4.809
					h69.769c3.348,0,6.061,2.153,6.061,4.809v29.372C305.274,214.482,302.562,216.635,299.214,216.635z"/>
				<polygon fill="#C75A8A" points="234.377,212.236 234.377,224.128 243.144,212.236 				"/>
			</g>
			<g>
				<path fill="#197194" d="M272.415,206.515h-37.242c-2.627,0-4.756-1.689-4.756-3.773v-1.285c0-2.084,2.129-3.773,4.756-3.773
					h37.242V206.515z"/>
				<path fill="#F4F2F8" d="M295.599,206.515h-25.922c-2.627,0-4.756-1.689-4.756-3.773v-1.285c0-2.084,2.129-3.773,4.756-3.773
					h25.922V206.515z"/>
				<g>
					<defs>
						<path id="SVGID_5_" d="M295.599,206.515h-25.922c-2.627,0-4.756-1.689-4.756-3.773v-1.285c0-2.084,2.129-3.773,4.756-3.773
							h25.922V206.515z"/>
					</defs>
					<clipPath id="SVGID_6_">
						<use xlink:href="#SVGID_5_"  overflow="visible"/>
					</clipPath>
					<g clip-path="url(#SVGID_6_)">
						
							<line fill="none" stroke="#DEDEDF" stroke-width="2" stroke-miterlimit="10" x1="263.319" y1="198.975" x2="299.046" y2="198.975"/>
						
							<line fill="none" stroke="#DEDEDF" stroke-width="2" stroke-miterlimit="10" x1="263.319" y1="200.537" x2="299.046" y2="200.537"/>
						
							<line fill="none" stroke="#DEDEDF" stroke-width="2" stroke-miterlimit="10" x1="263.319" y1="202.099" x2="299.046" y2="202.099"/>
						
							<line fill="none" stroke="#DEDEDF" stroke-width="2" stroke-miterlimit="10" x1="263.319" y1="203.659" x2="299.046" y2="203.659"/>
						
							<line fill="none" stroke="#DEDEDF" stroke-width="2" stroke-miterlimit="10" x1="263.319" y1="205.222" x2="299.046" y2="205.222"/>
					</g>
				</g>
			</g>
			<g>
				<path fill="#0A4062" d="M269.019,197.759h-25.92c-2.629,0-4.758-1.689-4.758-3.773V192.7c0-2.083,2.129-3.773,4.758-3.773h25.92
					V197.759z"/>
				<path fill="#F4F2F8" d="M292.202,197.759H266.28c-2.627,0-4.756-1.689-4.756-3.773V192.7c0-2.083,2.129-3.773,4.756-3.773
					h25.922V197.759z"/>
				<g>
					<defs>
						<path id="SVGID_7_" d="M292.202,197.759H266.28c-2.627,0-4.756-1.689-4.756-3.773V192.7c0-2.083,2.129-3.773,4.756-3.773
							h25.922V197.759z"/>
					</defs>
					<clipPath id="SVGID_8_">
						<use xlink:href="#SVGID_7_"  overflow="visible"/>
					</clipPath>
					<g clip-path="url(#SVGID_8_)">
						
							<line fill="none" stroke="#DEDEDF" stroke-width="2" stroke-miterlimit="10" x1="259.923" y1="190.22" x2="295.651" y2="190.22"/>
						
							<line fill="none" stroke="#DEDEDF" stroke-width="2" stroke-miterlimit="10" x1="259.923" y1="191.781" x2="295.651" y2="191.781"/>
						
							<line fill="none" stroke="#DEDEDF" stroke-width="2" stroke-miterlimit="10" x1="259.923" y1="193.344" x2="295.651" y2="193.344"/>
						
							<line fill="none" stroke="#DEDEDF" stroke-width="2" stroke-miterlimit="10" x1="259.923" y1="194.905" x2="295.651" y2="194.905"/>
						
							<line fill="none" stroke="#DEDEDF" stroke-width="2" stroke-miterlimit="10" x1="259.923" y1="196.467" x2="295.651" y2="196.467"/>
					</g>
				</g>
			</g>
		</g>
		<g>
			<path fill="#0A4062" d="M263.663,168.47h-35.707c-2.473,0-4.479-1.592-4.479-3.553v-33.38c0-1.962,2.006-3.553,4.479-3.553
				h35.707c2.473,0,4.479,1.591,4.479,3.553v33.38C268.142,166.878,266.136,168.47,263.663,168.47z"/>
			<polygon fill="#0A4062" points="231.601,165.219 231.601,174.007 238.079,165.219 			"/>
		</g>
		<g>
			<g>
				<g>
					<polygon fill="#DEDEDF" points="241.747,151.924 239.14,151.215 255.595,113.136 258.202,113.846 					"/>
					<polygon fill="#B7B7C2" points="244.354,152.633 241.747,151.924 258.202,113.846 260.81,114.555 					"/>
					<polygon fill="#DEDEDF" points="246.964,153.344 244.354,152.633 260.81,114.555 263.419,115.264 					"/>
					<polygon fill="#B7B7C2" points="249.571,154.053 246.964,153.344 263.419,115.264 266.028,115.974 					"/>
				</g>
				<path fill="#F4F2F8" d="M243.356,159.471l-1.949,1.7c-0.451,0.395-1.281,0.171-1.332-0.361l-0.225-2.292L243.356,159.471z"/>
				<polygon fill="#C75A8A" points="249.571,154.053 243.356,159.471 239.851,158.518 239.136,151.213 				"/>
				<polygon fill="#00243D" points="266.792,114.204 256.358,111.366 255.595,113.136 266.028,115.974 				"/>
				<path fill="#C75A8A" d="M264.497,106.024L264.497,106.024c-2.881-0.784-6.018,0.434-7.006,2.719l-1.133,2.623l10.434,2.838
					l1.133-2.622C268.913,109.295,267.378,106.808,264.497,106.024z"/>
			</g>
		</g>
		<g>
			<path fill="#B7B7C2" d="M294.901,161.576l-13.959-5.958c-1.234-0.527-1.697-1.748-1.033-2.728l0,0
				c0.664-0.98,2.203-1.346,3.438-0.819l13.961,5.958c1.234,0.527,1.695,1.748,1.031,2.728l0,0
				C297.675,161.736,296.136,162.103,294.901,161.576z"/>
			<path fill="#0A4062" d="M284.489,166.521l-3.012-1.285c-2.598-1.109-3.572-3.681-2.174-5.745l0,0l12.426,5.304l0,0
				C290.331,166.858,287.091,167.631,284.489,166.521z"/>
			<g>
				<defs>
					<path id="SVGID_9_" d="M292.497,165.123l-13.959-5.959c-1.234-0.527-1.699-1.748-1.033-2.727l0,0
						c0.664-0.979,2.203-1.346,3.438-0.819l13.959,5.958c1.234,0.527,1.697,1.748,1.033,2.727l0,0
						C295.271,165.283,293.731,165.649,292.497,165.123z"/>
				</defs>
				<clipPath id="SVGID_10_">
					<use xlink:href="#SVGID_9_"  overflow="visible"/>
				</clipPath>
				<path clip-path="url(#SVGID_10_)" fill="#B7B7C2" d="M292.497,165.123l-13.959-5.959c-1.234-0.527-1.699-1.748-1.033-2.727l0,0
					c0.664-0.979,2.203-1.346,3.438-0.819l13.959,5.958c1.234,0.527,1.697,1.748,1.033,2.727l0,0
					C295.271,165.283,293.731,165.649,292.497,165.123z"/>
				<polygon clip-path="url(#SVGID_10_)" fill="#0A4062" points="294.901,161.576 275.802,155.71 277.005,153.938 				"/>
			</g>
			<path fill="#C75A8A" d="M310.083,147.938c3.439-5.074,1.045-11.401-5.352-14.132c-6.396-2.73-14.371-0.829-17.811,4.246
				c-0.887,1.308-1.385,2.698-1.527,4.089l-1.168,10.305l6.102,2.604l6.102,2.604l10.193-6.453
				C308.007,150.341,309.196,149.246,310.083,147.938z"/>
			<path fill="none" stroke="#F4F2F8" stroke-width="3" stroke-miterlimit="10" d="M288.21,154.146l6.59-9.718
				c0.627-0.927,2.086-1.274,3.254-0.775l0,0c1.17,0.498,1.609,1.655,0.98,2.583l-6.59,9.718"/>
			<g>
				
					<line fill="none" stroke="#0A4062" stroke-width="4" stroke-linecap="round" stroke-miterlimit="10" x1="309.89" y1="126.199" x2="307.144" y2="130.25"/>
				
					<line fill="none" stroke="#0A4062" stroke-width="4" stroke-linecap="round" stroke-miterlimit="10" x1="302.188" y1="124.713" x2="301.438" y2="128.796"/>
				
					<line fill="none" stroke="#0A4062" stroke-width="4" stroke-linecap="round" stroke-miterlimit="10" x1="294.81" y1="126.52" x2="295.452" y2="128.978"/>
				
					<line fill="none" stroke="#0A4062" stroke-width="4" stroke-linecap="round" stroke-miterlimit="10" x1="320.454" y1="135.485" x2="315.069" y2="137.188"/>
				
					<line fill="none" stroke="#0A4062" stroke-width="4" stroke-linecap="round" stroke-miterlimit="10" x1="314.761" y1="131.125" x2="311.876" y2="133.164"/>
			</g>
		</g>
		<g>
			<path fill="#C75A8A" d="M278.69,121.787l1.434,3.014c0.021,0.046,0.066,0.083,0.127,0.101l3.799,1.137
				c0.188,0.056,0.188,0.266,0,0.323l-3.799,1.137c-0.061,0.017-0.105,0.054-0.127,0.1l-1.434,3.015
				c-0.07,0.149-0.336,0.149-0.406,0l-1.434-3.015c-0.021-0.046-0.068-0.083-0.127-0.1l-3.801-1.137
				c-0.186-0.057-0.186-0.267,0-0.323l3.801-1.137c0.059-0.018,0.105-0.055,0.127-0.101l1.434-3.014
				C278.354,121.637,278.62,121.637,278.69,121.787z"/>
			<path fill="#C75A8A" d="M219.872,92.7l0.938,1.976c0.015,0.031,0.046,0.055,0.083,0.065l2.492,0.747
				c0.123,0.037,0.123,0.174,0,0.211l-2.492,0.746c-0.037,0.012-0.068,0.036-0.083,0.065l-0.938,1.977
				c-0.047,0.098-0.221,0.098-0.268,0l-0.939-1.977c-0.016-0.03-0.045-0.054-0.084-0.065l-2.491-0.746
				c-0.123-0.037-0.123-0.174,0-0.211l2.491-0.747c0.039-0.01,0.068-0.035,0.084-0.065l0.939-1.976
				C219.651,92.602,219.825,92.602,219.872,92.7z"/>
			<path fill="#C75A8A" d="M233.013,137.261l0.939,1.977c0.016,0.031,0.043,0.055,0.082,0.065l2.492,0.746
				c0.123,0.037,0.123,0.174,0,0.211l-2.492,0.745c-0.039,0.012-0.066,0.036-0.082,0.066l-0.939,1.977
				c-0.047,0.098-0.221,0.098-0.268,0l-0.939-1.977c-0.014-0.031-0.045-0.055-0.084-0.066l-2.49-0.745
				c-0.124-0.037-0.124-0.175,0-0.211l2.49-0.746c0.039-0.01,0.07-0.035,0.084-0.065l0.939-1.977
				C232.792,137.164,232.966,137.164,233.013,137.261z"/>
		</g>
	</g>
</g>
</svg>
