<?xml version="1.0" encoding="utf-8"?>
<!-- Generator: Adobe Illustrator 16.0.0, SVG Export Plug-In . SVG Version: 6.00 Build 0)  -->
<!DOCTYPE svg PUBLIC "-//W3C//DTD SVG 1.1//EN" "http://www.w3.org/Graphics/SVG/1.1/DTD/svg11.dtd">
<svg version="1.1" id="Capa_1" xmlns="http://www.w3.org/2000/svg" xmlns:xlink="http://www.w3.org/1999/xlink" x="0px" y="0px"
	 width="400px" height="400px" viewBox="0 0 400 400" enable-background="new 0 0 400 400" xml:space="preserve">
<g>
	<rect x="94.077" y="257.686" fill="#ECEBEB" width="191.52" height="0.104"/>
	<rect x="253.72" y="264.361" fill="#ECEBEB" width="12.687" height="0.104"/>
	<rect x="217.618" y="265.486" fill="#ECEBEB" width="3.329" height="0.104"/>
	<rect x="245.984" y="260.511" fill="#ECEBEB" width="7.353" height="0.103"/>
	<rect x="114.171" y="261.207" fill="#ECEBEB" width="16.545" height="0.104"/>
	<rect x="134.126" y="261.207" fill="#ECEBEB" width="2.426" height="0.104"/>
	<rect x="144.436" y="262.958" fill="#ECEBEB" width="35.881" height="0.103"/>
	<path fill="#ECEBEB" d="M184.862,239.188h-73.963c-1.206,0-2.187-1.062-2.187-2.367v-112.58c0-1.305,0.981-2.367,2.187-2.367
		h73.963c1.206,0,2.188,1.062,2.188,2.367v112.58C187.049,238.127,186.068,239.188,184.862,239.188z M110.898,121.979
		c-1.152,0-2.091,1.014-2.091,2.262v112.58c0,1.247,0.938,2.263,2.091,2.263h73.963c1.154,0,2.091-1.016,2.091-2.263v-112.58
		c0-1.248-0.938-2.262-2.091-2.262H110.898z"/>
	<path fill="#ECEBEB" d="M267.712,239.188h-73.963c-1.206,0-2.187-1.062-2.187-2.367v-112.58c0-1.305,0.981-2.367,2.187-2.367
		h73.963c1.207,0,2.187,1.062,2.187,2.367v112.58C269.898,238.127,268.919,239.188,267.712,239.188z M193.749,121.979
		c-1.153,0-2.091,1.014-2.091,2.262v112.58c0,1.247,0.938,2.263,2.091,2.263h73.963c1.154,0,2.091-1.016,2.091-2.263v-112.58
		c0-1.248-0.937-2.262-2.091-2.262H193.749z"/>
</g>
<g>
	<g>
		<g>
			<g>
				<rect x="119.663" y="138.738" fill="#E7E6E5" width="51.978" height="118.948"/>
				<rect x="118.508" y="138.738" fill="#F5F5F5" width="51.978" height="118.948"/>
				<rect x="120.581" y="141.26" fill="#FCFCFC" width="47.831" height="113.902"/>
				<polygon fill="#FFFFFF" points="157.396,255.162 145.28,141.26 131.597,141.26 143.714,255.162 				"/>
				<rect x="120.581" y="141.26" fill="#E7E6E5" width="0.874" height="113.902"/>
				<rect x="119.365" y="151.125" fill="#F5F5F5" width="50.264" height="3.385"/>
			</g>
		</g>
	</g>
	<g>
		<rect x="178.13" y="188.669" fill="#F1F0F0" width="20.986" height="69.016"/>
		<rect x="179.283" y="190.686" fill="#F5F5F5" width="18.681" height="20.23"/>
		<rect x="179.283" y="212.731" fill="#F5F5F5" width="18.681" height="20.23"/>
		<rect x="179.283" y="234.776" fill="#F5F5F5" width="18.681" height="20.23"/>
		<path fill="#E7E6E5" d="M192.757,190.419L192.757,190.419h-8.27l0,0c0,1.159,0.868,2.097,1.938,2.097h4.396
			C191.891,192.517,192.757,191.578,192.757,190.419z"/>
		<path fill="#E7E6E5" d="M192.757,212.464L192.757,212.464h-8.27l0,0c0,1.158,0.868,2.098,1.938,2.098h4.396
			C191.891,214.562,192.757,213.622,192.757,212.464z"/>
		<path fill="#E7E6E5" d="M192.757,234.51L192.757,234.51h-8.27l0,0c0,1.159,0.868,2.097,1.938,2.097h4.396
			C191.891,236.606,192.757,235.669,192.757,234.51z"/>
		<rect x="199.117" y="188.669" fill="#F5F5F5" width="10.481" height="69.016"/>
	</g>
	<g>
		<g>
			<rect x="255.141" y="204.029" fill="#F1F0F0" width="5.818" height="51.96"/>
			<rect x="204.283" y="255.989" fill="#F1F0F0" width="55.869" height="1.696"/>
			<rect x="203.479" y="204.029" fill="#FCFCFC" width="51.662" height="51.96"/>
			<path fill="#F1F0F0" d="M213.592,234.392h31.435c3.085,0,5.596-2.717,5.596-6.058s-2.511-6.061-5.596-6.061h-31.435
				c-3.086,0-5.596,2.72-5.596,6.061S210.506,234.392,213.592,234.392z M245.026,222.681c2.879,0,5.221,2.536,5.221,5.653
				c0,3.116-2.342,5.652-5.221,5.652h-31.435c-2.878,0-5.221-2.536-5.221-5.652c0-3.117,2.343-5.653,5.221-5.653H245.026z"/>
			<path fill="#F1F0F0" d="M213.592,249.468h31.435c3.085,0,5.596-2.72,5.596-6.061s-2.511-6.06-5.596-6.06h-31.435
				c-3.086,0-5.596,2.719-5.596,6.06S210.506,249.468,213.592,249.468z M245.026,237.755c2.879,0,5.221,2.536,5.221,5.652
				c0,3.117-2.342,5.654-5.221,5.654h-31.435c-2.878,0-5.221-2.537-5.221-5.654c0-3.116,2.343-5.652,5.221-5.652H245.026z"/>
			<path fill="#ECEBEB" d="M224.565,227.026h9.486c0.642,0,1.168-0.568,1.168-1.264l0,0c0-0.695-0.526-1.265-1.168-1.265h-9.486
				c-0.642,0-1.167,0.569-1.167,1.265l0,0C223.398,226.458,223.924,227.026,224.565,227.026z"/>
			<path fill="#F1F0F0" d="M213.592,219.318h31.435c3.085,0,5.596-2.72,5.596-6.061s-2.511-6.06-5.596-6.06h-31.435
				c-3.086,0-5.596,2.719-5.596,6.06S210.506,219.318,213.592,219.318z M245.026,207.606c2.879,0,5.221,2.535,5.221,5.651
				c0,3.118-2.342,5.653-5.221,5.653h-31.435c-2.878,0-5.221-2.535-5.221-5.653c0-3.116,2.343-5.651,5.221-5.651H245.026z"/>
			<path fill="#ECEBEB" d="M224.565,211.952h9.486c0.642,0,1.168-0.57,1.168-1.265l0,0c0-0.694-0.526-1.265-1.168-1.265h-9.486
				c-0.642,0-1.167,0.57-1.167,1.265l0,0C223.398,211.382,223.924,211.952,224.565,211.952z"/>
			<path fill="#ECEBEB" d="M224.565,242.101h9.486c0.642,0,1.168-0.568,1.168-1.264l0,0c0-0.696-0.526-1.264-1.168-1.264h-9.486
				c-0.642,0-1.167,0.567-1.167,1.264l0,0C223.398,241.532,223.924,242.101,224.565,242.101z"/>
		</g>
		<rect x="202.415" y="201.39" fill="#F1F0F0" width="52.726" height="2.64"/>
		<rect x="255.141" y="201.39" fill="#E7E6E5" width="6.959" height="2.64"/>
	</g>
	<g>
		<path fill="#E0E0E0" d="M217.425,159.798c1.176,0.638,4.361-0.046,3.301,2.288c-0.5,1.097-1.314,2.27-2.179,3.426
			c-1.188,1.585-0.964,3.304,0.438,3.928c0.34,0.152,0.618,0.34,0.775,0.583c0.645,1.002-0.88,2.346-1.628,3.35
			c-0.724,0.97-1.05,1.991-0.497,2.738c0.611,0.825,1.883,0.521,2.895,0.771c2.431,0.598-0.069,4.228,0.188,6.092
			c0.177,1.276,1.133,1.632,2.432,1.814c1.06,0.146,2.474,0.249,2.532,1.425c0.052,1.018-1.173,2.173-1.494,3.242
			c-0.312,1.04-0.206,2.05,0.235,2.82c0.395,0.688,1.046,1.153,1.908,1.351c1.204,0.277,3.024-0.01,3.112,1.46
			c0.039,0.657-0.385,1.238-0.091,1.844c0.247,0.511,0.811,0.768,1.413,0.899c0.966,0.209,2.359,0.153,3.469-0.067
			c1.414-0.281,3.499-1.629,2.734-2.929c-0.217-0.365-0.629-0.577-1.094-0.68c-0.341-0.075-1.327,0.042-1.453-0.207
			c-0.128-0.249,0.213-1.205,0.227-1.552c0.042-1-0.122-1.939-0.411-2.807c-0.391-1.177-1.01-2.234-1.823-3.128
			c-0.334-0.366-0.871-0.636-0.938-1.172c-0.065-0.509,0.242-1.125,0.586-1.646c0.541-0.825,1.378-1.612,1.682-2.494
			c0.476-1.385-0.679-1.824-1.746-2.14c-0.967-0.284-2.238-0.649-1.91-1.921c0.237-0.917,1.305-1.667,1.624-2.562
			c0.429-1.2-0.615-1.248-1.366-1.677c-0.974-0.556-1.22-1.548-0.866-2.808c0.583-2.076,4.096-5.004,2.297-6.353
			c-0.457-0.343-0.88-0.458-1.155-0.972c-0.294-0.55-0.337-1.237-0.718-1.737c-0.606-0.792-1.856-0.925-2.512-1.661
			c-1.341-1.509,1.557-4.187-1.088-4.823c-0.604-0.146-1.141-0.284-1.547-0.693c-0.24-0.244-0.438-1.427-0.71-1.51
			c-1.214-0.367-3.403,2.185-4.091,2.971C219.12,156.217,216.021,159.036,217.425,159.798z"/>
		<path fill="#F5F5F5" d="M238.249,194.977c-0.722-1.444-3.872-2.885-1.78-4.563c0.982-0.787,2.279-1.44,3.614-2.042
			c1.831-0.825,2.483-2.735,1.554-4.317c-0.224-0.385-0.375-0.764-0.395-1.119c-0.074-1.461,1.937-1.812,3.093-2.335
			c1.116-0.506,1.91-1.333,1.792-2.469c-0.132-1.254-1.404-1.8-2.173-2.734c-1.85-2.248,2.15-4.284,2.846-6.367
			c0.474-1.427-0.193-2.435-1.251-3.492c-0.863-0.864-2.058-1.921-1.529-3.165c0.458-1.077,2.108-1.436,2.92-2.314
			c0.79-0.855,1.196-1.961,1.187-3.047c-0.007-0.969-0.353-1.883-1.016-2.666c-0.924-1.094-2.673-2.024-2.022-3.588
			c0.29-0.699,0.951-1.012,0.991-1.828c0.033-0.689-0.336-1.333-0.803-1.871c-0.749-0.865-2.008-1.745-3.095-2.266
			c-1.385-0.663-3.893-0.684-3.858,1.161c0.009,0.519,0.269,1.014,0.628,1.431c0.262,0.306,1.189,0.849,1.181,1.189
			c-0.012,0.341-0.784,1.09-0.971,1.437c-0.53,0.996-0.849,2.069-1.022,3.15c-0.237,1.469-0.215,2.968,0.063,4.431
			c0.113,0.601,0.453,1.237,0.249,1.83c-0.194,0.566-0.772,0.99-1.333,1.293c-0.883,0.479-2.012,0.722-2.715,1.422
			c-1.106,1.098-0.305,2.326,0.483,3.366c0.71,0.942,1.65,2.173,0.734,3.252c-0.664,0.78-1.977,0.83-2.7,1.53
			c-0.972,0.941-0.073,1.692,0.378,2.637c0.583,1.225,0.311,2.406-0.623,3.458c-1.541,1.733-6.089,2.369-5.168,4.961
			c0.234,0.658,0.549,1.06,0.537,1.772c-0.012,0.761-0.313,1.492-0.225,2.261c0.144,1.22,1.182,2.196,1.396,3.391
			c0.438,2.447-3.443,3.24-1.425,5.671c0.462,0.556,0.867,1.059,1.021,1.748c0.093,0.414-0.319,1.758-0.118,2.025
			c0.89,1.192,4.081,0.052,5.077-0.29C234.983,197.504,239.109,196.701,238.249,194.977z"/>
		<g>
			<path fill="#F1F0F0" d="M246.323,191.717c0,0-0.382,9.673-15.007,9.673c-14.624,0-15.006-9.673-15.006-9.673H246.323z"/>
		</g>
	</g>
</g>
<ellipse id="_x3C_Path_x3E__188_" fill="#F5F5F5" cx="189.837" cy="271.719" rx="74.267" ry="4.698"/>
<g>
	<g opacity="0.2">
		<polygon fill="#4868A9" points="232.251,268.248 207.855,219.426 183.459,268.248 		"/>
		<polygon fill="#4868A9" points="232.251,185.651 207.855,234.473 183.459,185.651 		"/>
	</g>
	<g>
		<path fill="#4868A9" d="M212.322,214.475l-3.568,7.145c-0.387,0.773-1.412,0.773-1.799,0l-3.569-7.145
			c-1.409-2.817,0.478-6.242,3.436-6.242h2.066C211.848,208.232,213.731,211.657,212.322,214.475z"/>
		<path fill="#4868A9" d="M208.244,255.925l11.074,4.934c1.034,0.462,0.729,2.131-0.389,2.131h-22.15
			c-1.119,0-1.425-1.669-0.388-2.131l11.074-4.934C207.715,255.813,207.994,255.813,208.244,255.925z"/>
		<ellipse fill="#4868A9" cx="207.854" cy="244.992" rx="1.42" ry="1.539"/>
		<ellipse fill="#4868A9" cx="207.854" cy="228.922" rx="0.732" ry="0.792"/>
		<ellipse fill="#4868A9" cx="207.854" cy="236.585" rx="0.832" ry="0.901"/>
	</g>
	<path fill="#4868A9" d="M232.127,265.842h-48.544c-1.222,0-2.222,1.083-2.222,2.406l0,0c0,1.323,1,2.406,2.222,2.406h48.544
		c1.223,0,2.222-1.083,2.222-2.406l0,0C234.349,266.925,233.35,265.842,232.127,265.842z"/>
	<path fill="#4868A9" d="M232.127,183.245h-48.544c-1.222,0-2.222,1.083-2.222,2.406l0,0c0,1.324,1,2.407,2.222,2.407h48.544
		c1.223,0,2.222-1.083,2.222-2.407l0,0C234.349,184.328,233.35,183.245,232.127,183.245z"/>
</g>
<g>
	<g>
		<g>
			<polygon fill="#D3817A" points="168.627,267.343 165.926,266.392 167.605,259.494 170.306,260.442 			"/>
			<path fill="#253137" d="M165.886,266.004l3.035,1.065c0.111,0.04,0.168,0.15,0.14,0.27l-0.632,2.652
				c-0.065,0.275-0.375,0.447-0.628,0.354c-1.051-0.392-1.535-0.636-2.869-1.104c-0.821-0.29-3.528-1.046-4.661-1.445
				c-1.109-0.389-0.738-1.6-0.224-1.54c2.302,0.262,4.364,0.143,5.321-0.235C165.54,265.951,165.725,265.945,165.886,266.004z"/>
			<g>
				<polygon opacity="0.2" fill="#010002" points="170.307,260.447 167.604,259.497 166.74,263.052 169.442,264.002 				"/>
			</g>
			<path fill="#4868A9" d="M177.686,190.629c0,0-4.846,24.284-5.982,33.015c-1.244,9.561-5.92,38.271-5.92,38.271l5.014,1.498
				c0,0,6.947-27.843,8.976-37.138c2.202-10.088,8.061-35.646,8.061-35.646H177.686z"/>
			<path opacity="0.3" fill="#010002" d="M183.678,198.592c-1.912,4.702-2.861,14.947-2.118,19.637
				c1.355-6.033,2.988-13.209,4.248-18.729C185.383,197.899,184.678,196.132,183.678,198.592z"/>
			<polygon fill="#253137" points="170.923,263.521 165.554,261.919 165.657,259.55 171.703,261.814 			"/>
			<path fill="#253137" d="M164.776,266.178c0.249,0.087,0.542,0.127,0.75,0.146c0.026,0.004,0.051-0.013,0.063-0.037
				c0.014-0.024,0.011-0.054-0.004-0.077c-0.067-0.095-0.663-0.931-1.034-0.904c-0.086,0.004-0.157,0.053-0.205,0.14
				c-0.079,0.144-0.089,0.276-0.032,0.397C164.388,265.996,164.567,266.102,164.776,266.178z M165.384,266.164
				c-0.515-0.065-0.865-0.207-0.951-0.387c-0.036-0.073-0.027-0.157,0.028-0.258c0.025-0.047,0.056-0.069,0.097-0.072
				C164.76,265.435,165.135,265.839,165.384,266.164z"/>
			<path fill="#253137" d="M165.512,266.321c0.01,0.003,0.021,0.004,0.031,0.003c0.022-0.003,0.042-0.021,0.05-0.044
				c0.013-0.035,0.327-0.854,0.14-1.233c-0.051-0.104-0.131-0.166-0.239-0.19c-0.129-0.025-0.232,0.018-0.29,0.128
				c-0.158,0.295,0.062,1.048,0.278,1.316C165.491,266.311,165.501,266.317,165.512,266.321z M165.498,265.006
				c0.053,0.019,0.091,0.053,0.117,0.108c0.112,0.228-0.01,0.715-0.101,0.99c-0.17-0.297-0.299-0.854-0.196-1.05
				c0.02-0.037,0.055-0.077,0.149-0.057C165.479,264.999,165.489,265.003,165.498,265.006z"/>
		</g>
		<path fill="#253137" d="M182.842,167.573c-0.147,0.372-0.267,0.653-0.403,0.969c-0.134,0.307-0.277,0.606-0.418,0.906
			c-0.286,0.597-0.583,1.185-0.893,1.769c-0.628,1.161-1.305,2.298-2.069,3.391c-0.758,1.099-1.593,2.161-2.549,3.151
			c-0.95,0.997-2.038,1.919-3.323,2.659l-0.096,0.056c-0.154,0.09-0.325,0.154-0.488,0.193c-0.923,0.213-1.859,0.133-2.632-0.114
			c-0.781-0.244-1.434-0.611-2.008-1.009c-1.145-0.806-2-1.758-2.775-2.723c-0.763-0.977-1.423-1.991-2.016-3.035
			c-0.593-1.053-1.117-2.093-1.584-3.253c-0.274-0.679,0.013-1.471,0.641-1.769c0.52-0.246,1.11-0.075,1.454,0.377l0.038,0.05
			c0.633,0.833,1.318,1.714,2.008,2.52c0.692,0.812,1.404,1.588,2.139,2.272c0.724,0.689,1.494,1.284,2.199,1.659
			c0.351,0.186,0.684,0.303,0.945,0.338c0.265,0.035,0.429,0.008,0.551-0.051l-0.584,0.249c0.741-0.52,1.464-1.227,2.15-2.032
			c0.682-0.81,1.326-1.713,1.933-2.666c0.604-0.953,1.178-1.954,1.721-2.979c0.272-0.512,0.537-1.032,0.789-1.557l0.37-0.787
			c0.119-0.251,0.251-0.54,0.341-0.746l0.024-0.055c0.588-1.347,2.071-1.921,3.314-1.285
			C182.833,164.695,183.366,166.248,182.842,167.573z"/>
		<path opacity="0.3" fill="#010002" d="M176.581,173.205c1.203-3.459,3.758-3.518,4.865-2.6c-0.08,0.162-0.165,0.323-0.249,0.485
			c-0.598,1.124-1.253,2.219-1.973,3.281c-0.72,1.058-1.509,2.09-2.401,3.06c-0.275,0.295-0.56,0.585-0.854,0.868
			C175.907,176.668,176.022,174.822,176.581,173.205z"/>
		<path fill="#D3817A" d="M161.483,170.75l-2.488,0.096l0.622-2.878c0,0,1.482,0.066,2.539,0.398
			c0.641,0.203,0.902,1.037,0.538,1.642l-0.001,0.002C162.424,170.456,161.974,170.732,161.483,170.75z"/>
		<path fill="#4868A9" d="M162.887,168.313c-0.206-0.178-0.475-0.347-0.822-0.459c-0.21,1.177-1.519,3.167-1.519,3.167h1.037
			c0.271,0,0.529-0.131,0.703-0.357l0.727-0.942C163.341,169.296,163.287,168.658,162.887,168.313z"/>
		<polygon fill="#D3817A" points="157.094,169.522 157.794,167.49 159.617,167.968 158.995,170.846 		"/>
		<g>
			<polygon fill="#D3817A" points="188.4,268.686 185.561,268.686 185.463,261.565 188.302,261.565 			"/>
			<path fill="#253137" d="M185.412,268.33h3.189c0.116,0,0.204,0.088,0.211,0.21l0.154,2.731c0.016,0.286-0.229,0.554-0.497,0.548
				c-1.11-0.021-1.641-0.09-3.044-0.09c-0.863,0-3.749,0.097-4.94,0.097c-1.166,0-1.159-1.277-0.653-1.392
				c2.265-0.52,4.288-1.234,5.09-1.915C185.068,268.397,185.242,268.33,185.412,268.33z"/>
			<g>
				<polygon opacity="0.2" fill="#010002" points="188.303,261.566 185.463,261.566 185.514,265.237 188.355,265.237 				"/>
			</g>
			<path fill="#4868A9" d="M183.226,190.629c0,0-1.085,26.715-0.624,35.519c0.505,9.641,1.563,38.203,1.563,38.203h5.201
				c0,0,1.312-27.785,1.625-37.329c0.341-10.359,1.883-36.393,1.883-36.393H183.226z"/>
			<polygon fill="#253137" points="189.576,264.351 183.956,264.351 183.528,262.089 189.731,262.422 			"/>
			<path fill="#253137" d="M184.406,268.865c0.262,0,0.552-0.058,0.756-0.109c0.026-0.006,0.046-0.027,0.05-0.056
				c0.005-0.028-0.005-0.056-0.027-0.073c-0.09-0.066-0.894-0.662-1.242-0.515c-0.079,0.032-0.133,0.104-0.153,0.201
				c-0.033,0.164-0.005,0.295,0.083,0.391C183.985,268.825,184.185,268.865,184.406,268.865z M184.98,268.651
				c-0.508,0.108-0.882,0.093-1.014-0.049c-0.056-0.06-0.07-0.143-0.048-0.257c0.012-0.053,0.034-0.085,0.073-0.1
				C184.178,268.166,184.651,268.425,184.98,268.651z"/>
			<path fill="#253137" d="M185.147,268.757c0.01,0,0.021-0.001,0.03-0.007c0.021-0.012,0.033-0.033,0.035-0.059
				c0.003-0.037,0.067-0.921-0.22-1.219c-0.077-0.083-0.171-0.115-0.281-0.103c-0.13,0.019-0.216,0.094-0.239,0.219
				c-0.065,0.334,0.357,0.977,0.64,1.16C185.124,268.754,185.136,268.757,185.147,268.757z M184.759,267.512
				c0.055,0,0.102,0.021,0.142,0.062c0.171,0.179,0.194,0.687,0.187,0.977c-0.247-0.225-0.528-0.713-0.486-0.934
				c0.009-0.042,0.03-0.092,0.127-0.102C184.739,267.513,184.75,267.512,184.759,267.512z"/>
		</g>
		<path fill="#253137" d="M194.297,165.833c0.179-1.088-0.508-2.118-1.518-2.279l-0.033-0.004c-0.914-0.146-2.064-0.294-3.19-0.354
			c-1.938-0.1-4.745-0.166-6.454,0c-0.992,0.101-1.961,0.279-2.735,0.44c-0.009,0.002-0.019,0.004-0.029,0.006
			c-0.985,0.216-1.78,1.006-2.066,2.05c-0.926,3.382-2.03,10.283-0.585,24.937h15.188c0.107-1.469-0.196-6.246,0.026-12.33
			C193.069,173.662,193.831,168.665,194.297,165.833z"/>
		<path opacity="0.3" fill="#010002" d="M194.15,166.739c-0.314,1.966-0.703,4.638-0.971,7.452c0,0-1.384-2.944-1.638-5.463
			C191.29,166.209,193.271,166.032,194.15,166.739z"/>
		<g opacity="0.2">
			<g>
				<path fill="#FFFFFF" d="M183.964,167.126c-0.052,0-0.102-0.031-0.127-0.084c-0.037-0.076-0.009-0.17,0.062-0.21l4.734-2.658
					c0.071-0.039,0.158-0.009,0.194,0.067c0.036,0.076,0.008,0.17-0.062,0.209l-4.734,2.658
					C184.008,167.12,183.986,167.126,183.964,167.126z"/>
				<path fill="#FFFFFF" d="M186.132,167.371c-0.036,0-0.073-0.016-0.101-0.047l-2.594-2.794c-0.056-0.061-0.056-0.159,0-0.22
					c0.056-0.062,0.146-0.062,0.203,0l2.594,2.795c0.056,0.059,0.056,0.159,0,0.219C186.207,167.355,186.17,167.371,186.132,167.371
					z"/>
			</g>
			<path fill="#FFFFFF" d="M189.555,163.196c-1.939-0.1-4.746-0.166-6.451,0c-0.035,0.003-0.073,0.009-0.107,0.012
				c-0.062,0.274-0.118,0.783,0.165,1.273c0.36,0.622,1.115,0.971,2.248,1.037c0.146,0.009,0.288,0.012,0.425,0.012
				c3.083,0,4.249-2.016,4.298-2.103l0.106-0.187C190.009,163.225,189.784,163.208,189.555,163.196z"/>
		</g>
		<path fill="#D3817A" d="M183.408,163.171c1.877-0.481,2.207-1.738,2.08-3.118c-0.026-0.337-0.08-0.685-0.15-1.03l2.352-2.115
			l1.728-1.551c-0.478,2.251-1.019,6.354,0.387,7.855c0,0-1.165,2.077-4.376,1.89C182.716,164.943,183.408,163.171,183.408,163.171z
			"/>
		<path opacity="0.2" fill="#010002" d="M185.338,159.024c0.07,0.344,0.124,0.693,0.15,1.03c0.877-0.191,2.049-1.205,2.171-2.175
			c0.046-0.365,0.054-0.717,0.03-0.97L185.338,159.024z"/>
		<path fill="#253137" d="M184.081,148.231c-1.277,0.813-1.073,2.904-1.42,4.389c0.814,0.087,2.094-1.476,2.094-1.476l0.763-2.377
			L184.081,148.231z"/>
		<path fill="#D3817A" d="M190.876,152.403c-0.815,2.929-1.155,4.683-2.881,5.905c-2.594,1.838-5.704-0.257-5.716-3.361
			c-0.011-2.792,1.325-7.115,4.282-7.71C189.476,146.648,191.693,149.474,190.876,152.403z"/>
		<path fill="#253137" d="M188.327,154.889c1.912-2.407-0.48-3.593,1.479-5.264c-2.203,0.112-5.829-0.058-6.476-1.693
			c-0.647-1.637,1.344-3.849,3.002-4.056c1.928-0.241,1.5,2.328,1.5,2.328s7.331-0.496,5.003,2.88
			c1.763-0.115,1.279,2.973-1.788,5.576C190.279,154.96,188.327,154.889,188.327,154.889z"/>
		<path fill="#253137" d="M192.396,149.147c0,0,1.51-0.484,1.457-1.781C194.398,147.774,194.456,149.008,192.396,149.147z"/>
		<path fill="#D3817A" d="M191.322,155.46c-0.486,0.648-1.162,1.036-1.74,1.149c-0.869,0.17-1.075-0.7-0.641-1.549
			c0.391-0.764,1.314-1.774,2.093-1.561C191.804,153.71,191.88,154.72,191.322,155.46z"/>
		
			<ellipse transform="matrix(0.9773 0.2118 -0.2118 0.9773 36.4753 -35.9917)" fill="#253137" cx="186.245" cy="152.27" rx="0.272" ry="0.448"/>
		
			<ellipse transform="matrix(0.9775 0.2109 -0.2109 0.9775 36.1373 -35.3371)" fill="#253137" cx="183.707" cy="151.72" rx="0.272" ry="0.448"/>
		<path fill="#C75557" d="M184.754,152.074c0,0-0.815,1.283-1.524,1.833c0.31,0.485,1.026,0.449,1.026,0.449L184.754,152.074z"/>
		<path fill="#253137" d="M185.032,155.205c0.899,0.077,1.446-0.488,1.471-0.515c0.026-0.028,0.027-0.073,0.002-0.103
			c-0.026-0.028-0.068-0.029-0.095-0.001c-0.005,0.006-0.628,0.649-1.616,0.436c-0.036-0.009-0.071,0.017-0.079,0.058
			c-0.007,0.039,0.016,0.077,0.052,0.083C184.859,155.184,184.946,155.197,185.032,155.205z"/>
		<path fill="#253137" d="M187.492,151.659c0.021,0.001,0.043-0.002,0.065-0.012c0.068-0.034,0.098-0.12,0.068-0.193
			c-0.306-0.724-0.924-0.818-0.95-0.821c-0.069-0.018-0.141,0.046-0.15,0.126c-0.01,0.079,0.042,0.152,0.116,0.162
			c0.026,0.004,0.499,0.084,0.739,0.653C187.4,151.624,187.444,151.655,187.492,151.659z"/>
		<path fill="#253137" d="M183.344,150.128c0.041,0.014,0.087,0.006,0.123-0.024c0.483-0.406,0.963-0.25,0.967-0.248
			c0.071,0.024,0.146-0.019,0.168-0.096c0.023-0.076-0.016-0.158-0.086-0.182c0,0-0.001,0-0.001,0
			c-0.024-0.009-0.619-0.204-1.213,0.294c-0.058,0.051-0.069,0.143-0.023,0.206C183.295,150.102,183.318,150.119,183.344,150.128z"
			/>
		<path fill="#253137" d="M194.444,164.649l0.321,0.472l0.286,0.441c0.189,0.293,0.362,0.588,0.541,0.883
			c0.35,0.59,0.678,1.192,0.999,1.796c0.633,1.214,1.217,2.455,1.731,3.734c0.268,0.633,0.5,1.286,0.744,1.931
			c0.217,0.661,0.45,1.31,0.64,1.982c0.418,1.325,0.718,2.701,0.996,4.076l0.033,0.157c0.115,0.583,0,1.168-0.277,1.634
			c-0.481,0.806-1.067,1.563-1.741,2.237c-0.669,0.679-1.458,1.242-2.291,1.67c-0.838,0.424-1.735,0.688-2.628,0.789
			c-0.447,0.051-0.894,0.056-1.339,0.026c-0.222-0.019-0.443-0.045-0.666-0.083c-0.112-0.02-0.222-0.045-0.337-0.072l-0.384-0.101
			c-0.096-0.025-0.154-0.128-0.131-0.231l0.53-2.404c0.004-0.019,0.1-0.024,0.161-0.041l0.211-0.046
			c0.143-0.032,0.287-0.069,0.431-0.112c0.285-0.083,0.564-0.192,0.833-0.313c0.534-0.246,1.021-0.549,1.45-0.926
			c0.864-0.732,1.506-1.709,2.017-2.84l-0.244,1.791c-0.329-1.172-0.676-2.339-1.1-3.484c-0.416-1.146-0.878-2.276-1.382-3.389
			c-0.503-1.111-1.038-2.211-1.615-3.28c-0.284-0.537-0.585-1.063-0.881-1.586l-0.457-0.77l-0.227-0.375l-0.209-0.332l-0.076-0.123
			c-0.773-1.23-0.478-2.906,0.659-3.742C192.148,163.199,193.655,163.49,194.444,164.649z"/>
		<path fill="#D3817A" d="M189.371,185.965l-0.827,1.463l3.577-0.157c0,0,0.937-2.604-0.344-3.015l-0.493,0.149
			C190.486,184.644,189.803,185.203,189.371,185.965z"/>
		<path fill="#4868A9" d="M190.84,183.92c-0.217,0.159-0.447,0.385-0.651,0.709c0.973,0.573,2.332,2.523,2.332,2.523l0.312-1.07
			c0.083-0.28,0.043-0.586-0.102-0.834l-0.612-1.034C191.843,183.748,191.266,183.61,190.84,183.92z"/>
		<polygon fill="#D3817A" points="188.859,189.675 191.807,189.392 192.121,187.271 188.544,187.428 		"/>
	</g>
</g>
<g>
	<path fill="#4868A9" d="M152.704,139.039l-0.196-0.356c0.561-0.36,1.15-0.677,1.753-0.943l0.144,0.384
		C153.82,138.381,153.248,138.689,152.704,139.039z"/>
	<path fill="#4868A9" d="M147.111,146.344l-0.361-0.142c0.907-2.715,2.53-5.052,4.696-6.762l0.226,0.335
		C149.569,141.436,147.991,143.707,147.111,146.344z"/>
	<ellipse fill="#4868A9" cx="159.27" cy="151.089" rx="11.789" ry="12.765"/>
	<path opacity="0.6" fill="#FFFFFF" d="M169.119,151.088c0,5.893-4.408,10.667-9.851,10.667c-2.577,0-4.925-1.073-6.679-2.83
		c-1.95-1.948-3.17-4.739-3.17-7.837c0-5.888,4.412-10.666,9.849-10.666c2.882,0,5.474,1.34,7.277,3.476
		c0.004,0,0.013,0.004,0.018,0.019C168.15,145.813,169.119,148.326,169.119,151.088z"/>
	<path fill="#FFFFFF" d="M169.119,151.088c0,5.893-4.408,10.667-9.851,10.667c-2.577,0-4.925-1.073-6.679-2.83
		c-1.623-1.901-2.618-4.447-2.618-7.238c0-5.888,4.413-10.666,9.85-10.666c2.604,0,4.96,1.088,6.725,2.877
		c0.004,0,0.013,0.004,0.018,0.019C168.15,145.813,169.119,148.326,169.119,151.088z"/>
	<path fill="#253137" d="M159.27,151.711c-0.147,0-0.293-0.061-0.406-0.182l-4.803-5.201c-0.225-0.244-0.225-0.638,0-0.88
		c0.224-0.242,0.587-0.242,0.813,0l4.396,4.762l2.54-2.751c0.225-0.242,0.588-0.242,0.813,0c0.224,0.243,0.224,0.637,0,0.881
		l-2.947,3.189C159.563,151.65,159.417,151.711,159.27,151.711z"/>
</g>
</svg>
