<?xml version="1.0" encoding="utf-8"?>
<!-- Generator: Adobe Illustrator 16.0.0, SVG Export Plug-In . SVG Version: 6.00 Build 0)  -->
<!DOCTYPE svg PUBLIC "-//W3C//DTD SVG 1.1//EN" "http://www.w3.org/Graphics/SVG/1.1/DTD/svg11.dtd">
<svg version="1.1" id="Capa_1" xmlns="http://www.w3.org/2000/svg" xmlns:xlink="http://www.w3.org/1999/xlink" x="0px" y="0px"
	 width="400px" height="400px" viewBox="0 0 400 400" enable-background="new 0 0 400 400" xml:space="preserve">
<g>
	<g>
		<path fill="#E6CAAE" d="M196.846,167.935c0.298-1.008,0.598-2.015,0.846-3.037c-0.257-0.595-0.513-1.189-0.771-1.784
			c0.215-0.902,0.405-1.812,0.638-2.708c0.283-0.004,1.488,0.066,1.536,0.339c0.102,0.584,0.011,1.021,0.411,1.493
			c0.66-0.7,1.096-1.43,1.431-2.339c0.292-0.792,0.418-1.731,1.497-1.192c0.289,0.146,0.519,0.45,0.682,0.758
			c0.415,0.779,0.595,1.616,0.496,2.5c-0.078,0.698-0.303,1.326-0.195,2.035c0.017,0.117,0.084,0.185,0.029,0.345
			c-0.133,0.386-0.813,0.963-1.064,1.222c-0.254,0.257-0.703,0.811-0.759,0.927c-0.52,1.093-0.914,1.893-1.455,2.868
			C199.062,168.884,197.941,168.434,196.846,167.935z"/>
		<path fill="#C68991" d="M190.186,178.709c1.074-1.289,1.689-3.074,2.432-4.608c1.32-2.728,2.698-5.016,4.382-7.475
			c0.482,0.101,6.623,2.577,6.646,2.509c-1.403,4.373-2.807,8.744-4.21,13.117c-0.501,1.562-1.025,3.167-2.084,4.439
			c-3.068,3.691-8.681,5.039-13.225,6.17c-5.089,1.27-10.41,1.924-15.665,1.624c-1.173-0.067-2.153-0.396-3.162-0.782
			c-2.58-0.986-3.292-3.501-3.081-6.117c0.131-1.61,0.927-3.234,2.348-4.069c1.205-0.706,2.675-0.772,4.079-0.842
			c6.32-0.315,12.616-1.085,18.82-2.304C188.651,180.137,189.51,179.522,190.186,178.709z"/>
	</g>
	<g>
		<g>
			<g>
				<g>
					<path fill="#393028" d="M171.58,278.784c-0.096,2.14-0.602,4.022,0.663,5.87c0.27,0.396,0.576,0.785,0.996,1.025
						c0.247,0.144,0.525,0.229,0.773,0.369c0.219,0.127,0.409,0.299,0.628,0.427c0.917,0.534,2.094,0.218,3.09-0.164
						c0.492-0.188,1.066-0.517,1.033-1.035c-0.018-0.275-0.215-0.502-0.389-0.719c-0.588-0.736-1.022-1.589-1.268-2.489
						c-0.09-0.328-2.543-4.596-2.374-4.669C174.731,277.399,171.58,278.784,171.58,278.784z"/>
				</g>
				<g>
					<polygon fill="#4E4E4E" points="183.492,224.409 182.222,250.571 176.891,279.99 171.125,280.039 169.129,251.348 
						164.341,229.66 					"/>
				</g>
			</g>
			<g>
				<path fill="#393028" d="M145.508,274.866c0.185,0.5,0.445,0.979,0.736,1.428c0.868,1.346,2.022,2.51,3.368,3.4
					c0.248,0.164,0.517,0.325,0.815,0.343c0.756,0.048,1.255-0.791,1.34-1.533c0.178-1.538-0.556-2.991-0.617-4.512
					c-0.054-1.336,0.103-1.565-0.987-2.376c-0.292-0.221-2.937-2.207-2.81-2.41c-1.122,1.796-2.635,2.735-1.991,5.197
					C145.403,274.56,145.452,274.715,145.508,274.866z"/>
				<path fill="#4E4E4E" d="M151.716,273.595c-0.108,0.123-0.216,0.243-0.324,0.367c-0.094,0.106-0.194,0.217-0.315,0.251
					c-0.183,0.052-0.354-0.085-0.499-0.215c-1.488-1.342-2.92-2.772-4.292-4.286c1.975-4.554,3.95-9.104,5.925-13.655
					c0.427-0.982,0.861-1.988,1.012-3.075c0.195-1.402-0.101-2.793-0.373-4.137c-0.732-3.615-1.308-7.293-1.725-11.011
					c-0.275-2.464-0.471-5.049,0.22-7.464c0.558-1.943,1.646-3.612,2.353-5.488c0.314-0.837,0.578-1.756,1.151-2.353
					c0.664-0.692,1.07-0.271,1.689-0.092c0.741,0.213,1.547,0.489,2.471,0.546c2.226,0.147,4.447,0.344,6.662,0.595
					c0.845,0.095,3.626-0.14,4.203,0.571c0.583,0.718-0.055,4.038-0.126,5.085c-0.514,7.608-1.275,15.212-2.281,22.785
					c-0.072,0.538-0.145,1.08-0.31,1.592c-0.175,0.546-0.448,1.038-0.724,1.522c-1.113,1.938-2.328,3.792-3.633,5.543
					c-1.693,2.269-3.533,4.354-5.37,6.438C155.526,269.274,153.621,271.436,151.716,273.595z"/>
			</g>
		</g>
		<g>
			<g>
				<g>
					<path fill="#E6CAAE" d="M155.054,166.568c-0.482-0.6-0.807-1.318-0.929-2.071c-0.099-0.612-0.163-1.333,0.301-1.757
						c0.344-0.312,0.883-0.342,1.329-0.193c0.408,0.138,0.76,0.412,1.109,0.649c0.859-1.001,0.576-3.127,1.216-4.369
						c0.44-0.852,1.147-1.566,1.858-2.256c0.466-0.452,0.948-0.904,1.543-1.208c2.286-1.167,5.121-1.113,7.496-0.252
						c5.033,1.828,4.867,7.244,5.634,11.542c0.61,3.42,0.551,6.834-3.29,8.469c-0.985,0.418-2.091,1.102-2.557,2.07
						c-0.252,0.526-0.347,1.105-0.422,1.678c-0.056,0.425-0.11,0.873-0.373,1.224c-0.455,0.611-1.349,0.71-2.132,0.754
						c-0.954,0.055-2.061,0.047-2.66-0.657c-0.766-0.899-0.505-2.358-1.113-3.366c-0.504-0.835-1.292-1.329-1.935-2.016
						c-0.662-0.706-1.256-1.498-1.921-2.211c-0.876-0.941-1.739-2.011-1.616-3.341c0.043-0.47,0.173-0.988-0.096-1.38
						c-0.133-0.19-0.341-0.316-0.532-0.452C155.62,167.183,155.314,166.893,155.054,166.568z"/>
					<path fill="#393028" d="M154.102,156.416c0.897-1.349,2.127-2.509,3.539-3.373c1.112-0.681,2.296-1.303,3.59-1.521
						c2.405-0.405,8.482,2.007,9.483-0.825c0.374-1.056,2.12-1.361,2.857-0.499c0.22,0.257,0.347,0.575,0.572,0.826
						c0.226,0.253,0.613,0.433,0.928,0.282c0.413-0.198,0.406-0.793,0.775-1.057c0.459-0.33,1.145,0.11,1.281,0.634
						c0.077,0.303-0.074,0.646-0.002,0.922c0.056,0.21,0.221,0.291,0.292,0.49c0.163,0.45,0.336,0.829,0.039,1.29
						c-0.118,0.184-0.289,0.337-0.384,0.532c-0.185,0.374-0.062,0.807-0.043,1.219c0.041,0.903-0.439,1.739-1.046,2.464
						c0.324,0.88,0.556,1.805,0.492,2.684c-0.109,1.461-1.235,3.124-1.829,4.463c-0.294-0.412-0.371-0.928-0.503-1.413
						c-0.278-1.026-0.833-1.978-1.592-2.737c-0.374-0.374-0.794-0.704-1.141-1.101c-0.06,0.014-0.121,0.03-0.178,0.044
						c-0.364,0.099-0.737,0.198-1.113,0.172c-1.28-0.089-2.556,0.026-3.881-0.004c-1.37-0.032-2.771-0.026-4.06,0.428
						c-1.288,0.453-2.458,1.441-2.745,2.746c-0.13,0.587-0.116,1.281-0.593,1.661c-1.661,1.322-2.387-1.794-3.752-1.234
						c-0.998,0.408-0.278,1.979,0.147,2.588c0.378,0.54,0.898,0.976,1.266,1.521c0.368,0.546,0.564,1.283,0.222,1.846
						c-0.081,0.132-0.206,0.258-0.364,0.264c-0.187,0.007-0.332-0.152-0.444-0.298c-1.591-2.047-2.927-4.37-3.292-6.914
						C152.31,160.315,152.916,158.2,154.102,156.416z"/>
				</g>
			</g>
			<path fill="#C68991" d="M184.67,220.637c-0.246-3.052-0.604-6.099-0.823-9.163c-0.219-3.051-0.516-6.098-0.917-9.127
				c-0.856-6.463-2.274-12.843-6.384-18.088c-0.898-1.145-1.866-2.377-3.143-3.148c-0.868-0.522-2.225-0.624-2.923-1.367
				c-0.502-0.536-0.501-1.563-0.34-2.24c-2.494-0.042-5.206-0.004-7.783-0.138c-2.022-0.104-1.619,0.904-2.395,2.22
				c-0.833,1.412-2.913,2.112-4.087,3.176c-1.087,0.986-1.877,2.288-2.556,3.622c-1.117,2.197-1.978,4.543-2.495,6.977
				c-0.499,2.342-0.674,4.748-0.813,7.143c-0.483,8.301-0.543,16.627-0.176,24.934c0.064,1.456-0.084,3.51,0.465,4.873
				c0.559,1.386,2.149,1.189,3.564,1.4c3.306,0.483,6.642,0.728,9.978,0.734c6.674,0.018,13.35-0.916,19.784-2.789
				c0.362-0.107,0.745-0.229,0.985-0.534c0.264-0.333,0.292-0.802,0.304-1.235C184.989,225.457,184.865,223.045,184.67,220.637z"/>
		</g>
		<g>
			<g>
				<g>
					<g>
						<path opacity="0.16" fill="#309DCD" d="M173.629,163.133c-0.231-0.121-0.467-0.178-0.698-0.186
							c-0.762-0.024-1.473,0.513-1.815,1.23c-0.572,1.197-0.274,2.02,0.073,2.49c0.584,0.788,1.702,1.131,2.634,0.841
							c0.444-0.139,1.184-0.536,1.295-1.682C175.23,164.679,174.463,163.566,173.629,163.133z"/>
						<path opacity="0.16" fill="#309DCD" d="M166.65,162.938c-0.307-0.141-0.62-0.209-0.928-0.219
							c-1.022-0.034-1.993,0.587-2.473,1.422c-0.804,1.396-0.417,2.354,0.043,2.9c0.772,0.912,2.271,1.296,3.525,0.948
							c0.593-0.165,1.583-0.632,1.752-1.951C168.739,164.718,167.749,163.439,166.65,162.938z"/>
						<path fill="#333333" d="M166.737,162.704c-1.459-0.674-3.061,0.101-3.751,1.289c-0.691,1.191-0.666,2.35,0.075,3.22
							c0.696,0.817,1.922,1.246,3.088,1.157c0.251-0.019,0.5-0.061,0.738-0.129c1.099-0.311,1.785-1.096,1.921-2.157
							C168.991,164.646,167.924,163.253,166.737,162.704z M168.569,166.038c-0.17,1.319-1.16,1.786-1.752,1.951
							c-1.254,0.349-2.753-0.036-3.525-0.948c-0.46-0.546-0.847-1.504-0.043-2.9c0.48-0.834,1.451-1.456,2.473-1.422
							c0.308,0.01,0.622,0.078,0.928,0.219C167.749,163.439,168.739,164.718,168.569,166.038z"/>
						<path fill="#333333" d="M173.691,162.931c-1.1-0.577-2.278,0.098-2.771,1.121c-0.49,1.021-0.455,2.011,0.101,2.761
							c0.524,0.705,1.44,1.084,2.307,1.019c0.188-0.015,0.373-0.049,0.551-0.106c0.822-0.26,1.331-0.938,1.419-1.86
							C175.42,164.615,174.593,163.405,173.691,162.931z M175.119,165.826c-0.111,1.146-0.852,1.543-1.295,1.682
							c-0.932,0.29-2.05-0.053-2.634-0.841c-0.347-0.47-0.645-1.292-0.073-2.49c0.343-0.717,1.053-1.254,1.815-1.23
							c0.23,0.008,0.466,0.065,0.698,0.186C174.463,163.566,175.23,164.679,175.119,165.826z"/>
					</g>
					<path fill="#030104" d="M170.665,165.302c-0.199-0.34-0.571-0.485-0.926-0.447c-0.324,0.035-0.872,0.275-0.964,0.639
						c-0.015,0.056,0.039,0.109,0.089,0.109c0.262,0.001,0.449-0.239,0.68-0.33c0.3-0.118,0.638-0.088,0.84,0.221
						C170.516,165.693,170.784,165.507,170.665,165.302z"/>
				</g>
			</g>
		</g>
	</g>
	<g>
		<path fill="#ACD2E3" d="M255.268,212.997h1.03c4.388,0,7.944-3.465,7.944-7.739s-3.557-7.741-7.944-7.741h-1.937
			c4.387,0,7.944-3.465,7.944-7.74c0-4.275-3.854-7.74-8.242-7.74h-5.943h-9.675c-4.734-2.077-6.269-5.728-6.447-9.729
			c-0.139-3.07,0.521-6.346,1.14-9.276c0.808-3.821,1.228-7.818-0.036-11.549c-1.262-3.729-4.51-7.159-8.899-8.062
			c-1.375-0.284-2.877-0.304-4.148,0.231c-2.05,0.864-3.02,2.975-3.072,4.939c-0.051,1.963,0.622,3.881,0.984,5.821
			c0.519,2.774,0.392,5.675-0.711,8.318c-2.139,5.128-7.536,8.625-12.54,11.963c-2.808,1.873-5.489,3.937-8.013,6.15
			c-1.021,0.897-1.355,1.605-1.868,2.892c-0.161,0.403-0.661,2.356-1.278,2.356c-0.205,0-22.29,0-22.29,0v47.962
			c3.554,0,7.107,0,10.661,0c4.327,0,10.316-1.246,13.527,2.142c0.727,0.767,1.327,1.668,2.201,2.271
			c2.791,1.926,8.055,0.971,11.245,0.966c13.072-0.023,26.147-0.028,39.221-0.028h4.6c3.098,0,5.607-2.445,5.607-5.462
			c0-3.019-2.51-5.464-5.607-5.464h2.235h0.313c4.388,0,7.945-3.466,7.945-7.742C263.213,216.463,259.655,212.997,255.268,212.997z"
			/>
		<path fill="#3C5A7F" d="M184.458,240.69h-18.113c-0.699,0-1.265-0.551-1.265-1.232v-57.783c0-0.682,0.566-1.233,1.265-1.233
			h18.113c0.699,0,1.265,0.551,1.265,1.233v57.783C185.723,240.14,185.157,240.69,184.458,240.69z"/>
	</g>
	<g>
		<path fill="#E6CAAE" d="M172.536,200.145l2.823-1.047l0.966-1.428l2.345-0.872c0,0,0.697,1.25,0.515,1.319
			c-0.423,0.159-0.782,0.551-0.899,0.958c0.864,0.291,2.525,0.142,3.251-0.391c0.694-0.511,1.504,0.032,1.361,0.873
			c-0.06,0.356-0.263,0.67-0.478,0.964c-0.569,0.773-1.245,1.469-1.918,2.159c-0.216,0.223-0.452,0.455-0.759,0.516
			c-0.197,0.039-0.4,0.003-0.598-0.032c-1.203-0.224-2.422-0.593-3.62-0.426c-0.829,0.118-1.676,0.368-2.505,0.524L172.536,200.145z
			"/>
		<path fill="#C68991" d="M159.842,198.77c1.218,0.975,3.55,0.572,4.989,0.485c0.843-0.053,8.509-1.467,8.709-1.111
			c0.645,1.102,1.052,2.34,1.184,3.603c0.169,1.631,0.033,1.688-1.411,2.287c-2.414,0.998-5.102,1.616-7.646,2.214
			c-3.108,0.729-6.084,1.919-9.192,2.661c-2.475,0.59-7.728,2.05-8.946-1.146c-0.367-0.965-0.306-2.029-0.21-3.053
			c0.301-3.19,0.897-6.352,1.779-9.438c0.416-1.455,0.914-2.925,1.869-4.114c2.192-2.726,7.862-2.804,8.773,1.163
			c0.516,2.249-1.882,4.426-0.085,6.28C159.715,198.661,159.777,198.718,159.842,198.77z"/>
	</g>
</g>
</svg>
