<?xml version="1.0" encoding="utf-8"?>
<!-- Generator: Adobe Illustrator 16.0.0, SVG Export Plug-In . SVG Version: 6.00 Build 0)  -->
<!DOCTYPE svg PUBLIC "-//W3C//DTD SVG 1.1//EN" "http://www.w3.org/Graphics/SVG/1.1/DTD/svg11.dtd">
<svg version="1.1" id="Capa_1" xmlns="http://www.w3.org/2000/svg" xmlns:xlink="http://www.w3.org/1999/xlink" x="0px" y="0px"
	 width="400px" height="400px" viewBox="0 0 400 400" enable-background="new 0 0 400 400" xml:space="preserve">
<g>
	<path fill="#DD9E48" d="M190.875,250.125l-24.19,13.122l-29.943-100.709l20.447-11.092c2.066-1.12,4.416,0.234,5.245,3.025
		L190.875,250.125z"/>
	<g>
		<polygon fill="#A9C8D1" points="193.722,246.377 147.405,257.47 135.86,169.508 182.177,158.417 		"/>
		<polygon fill="#527198" points="170.561,170.85 149.877,175.803 149.795,175.175 170.479,170.223 		"/>
		<polygon fill="#527198" points="174.697,168.22 145.323,175.252 145.241,174.625 174.614,167.592 		"/>
		<polygon fill="#527198" points="178.901,175.646 143.265,184.178 143.183,183.552 178.819,175.018 		"/>
		<polygon fill="#527198" points="179.297,178.662 143.661,187.195 143.579,186.567 179.215,178.035 		"/>
		<polygon fill="#527198" points="180.089,184.694 144.452,193.228 144.37,192.602 180.007,184.068 		"/>
		<polygon fill="#527198" points="180.486,187.712 144.849,196.245 144.766,195.617 180.403,187.083 		"/>
		<polygon fill="#527198" points="180.881,190.729 145.245,199.262 145.162,198.635 180.799,190.101 		"/>
		<polygon fill="#527198" points="182.623,203.995 146.986,212.529 146.903,211.902 182.541,203.369 		"/>
		<polygon fill="#527198" points="183.033,207.124 147.396,215.657 147.314,215.031 182.951,206.498 		"/>
		<polygon fill="#527198" points="183.444,210.253 147.807,218.786 147.724,218.159 183.361,209.626 		"/>
		<polygon fill="#527198" points="183.854,213.382 148.217,221.915 148.135,221.286 183.772,212.754 		"/>
		<polygon fill="#527198" points="184.265,216.509 148.628,225.042 148.546,224.415 184.183,215.882 		"/>
		<polygon fill="#527198" points="184.675,219.638 149.039,228.169 148.957,227.543 184.593,219.01 		"/>
		<polygon fill="#527198" points="185.085,222.765 149.449,231.298 149.367,230.671 185.003,222.138 		"/>
	</g>
	<g>
		<polygon fill="#D7EAF2" points="192.334,242.611 146.844,258.782 130.012,172.391 175.502,156.221 		"/>
		<polygon fill="#527198" points="164.677,169.895 144.363,177.116 144.243,176.501 164.557,169.279 		"/>
		<polygon fill="#527198" points="168.641,166.816 139.792,177.071 139.671,176.456 168.52,166.199 		"/>
		<polygon fill="#527198" points="173.281,173.753 138.28,186.195 138.16,185.578 173.161,173.138 		"/>
		<polygon fill="#527198" points="173.858,176.717 138.857,189.157 138.737,188.542 173.738,176.1 		"/>
		<polygon fill="#527198" points="175.013,182.642 140.012,195.083 139.892,194.467 174.893,182.025 		"/>
		<polygon fill="#527198" points="175.59,185.604 140.589,198.045 140.469,197.429 175.47,184.988 		"/>
		<polygon fill="#527198" points="176.167,188.566 141.166,201.009 141.046,200.393 176.047,187.95 		"/>
		<polygon fill="#527198" points="178.707,201.598 143.705,214.04 143.585,213.424 178.586,200.981 		"/>
		<polygon fill="#527198" points="179.304,204.67 144.304,217.112 144.184,216.496 179.185,204.055 		"/>
		<polygon fill="#527198" points="179.903,207.743 144.903,220.185 144.782,219.568 179.783,207.126 		"/>
		<polygon fill="#527198" points="180.502,210.814 145.501,223.256 145.381,222.641 180.382,210.198 		"/>
		<polygon fill="#527198" points="181.101,213.887 146.1,226.329 145.98,225.713 180.98,213.271 		"/>
		<polygon fill="#527198" points="181.699,216.959 146.698,229.4 146.578,228.785 181.579,216.344 		"/>
		<polygon fill="#527198" points="182.297,220.031 147.297,232.473 147.177,231.857 182.178,219.416 		"/>
	</g>
	<path fill="#E2AB51" d="M181.697,255.104l-48.7,26.417l-28.404-95.529l40.923-34.099c2.3-1.916,5.323-0.571,6.331,2.815
		L181.697,255.104z"/>
</g>
<path fill="#3BA0A0" d="M198.449,156.072l5.601-5.556c-0.554-6.701-1.302-12.273-1.302-12.273
	c-7.452,4.122-12.431,10.104-15.712,16.745l1.78,10.516l-3.814-5.765c-6.907,18.799-2.491,40.419-2.491,40.419
	s18.247-21.679,21.055-28.301c1.084-2.557,1.209-8.151,0.954-14.056C201.99,157.302,198.449,156.072,198.449,156.072z"/>
<path fill="#349D96" d="M202.748,138.243c0,0-17.799,38.587-20.237,61.915c0,0,18.247-21.679,21.055-28.301
	c1.084-2.557,1.209-8.151,0.954-14.056c-2.53-0.5-6.071-1.729-6.071-1.729l5.601-5.556
	C203.496,143.815,202.748,138.243,202.748,138.243z"/>
<path fill="#3BA0A0" d="M213.983,162.03c-4.88,0.451-9.106,2.235-12.751,4.816c-0.118,2.57-0.307,5.643-0.307,5.643l-2.139-3.723
	c-13.189,11.415-17.726,33.088-17.726,33.088c10.698-0.765,17.921-5.056,22.798-10.557c-0.397-1.636-1.014-4.056-1.014-4.056
	l2.529,2.214c2.205-2.889,3.846-6.022,5.067-9.103c-1.322-1.141-2.789-2.483-2.789-2.483l3.859-0.517
	C214.133,169.135,213.983,162.03,213.983,162.03z"/>
<path fill="#349D96" d="M203.859,191.298c-0.397-1.636-1.014-4.056-1.014-4.056l2.529,2.214c2.205-2.889,3.846-6.022,5.067-9.103
	c-1.322-1.141-2.789-2.483-2.789-2.483l3.859-0.517c2.62-8.219,2.471-15.323,2.471-15.323
	c-16.104,11.891-32.922,39.824-32.922,39.824C191.76,201.09,198.982,196.799,203.859,191.298z"/>
<g>
	<path fill="#C13B64" d="M258.752,189.518h3.33c-0.545-0.502-1.227-0.803-1.968-0.803h-83.429c-4.365,0-7.904,4.236-7.904,9.463
		v6.01c0,5.228,3.539,9.464,7.904,9.464l82.495-0.034L258.752,189.518z"/>
	<path fill="#E2AB51" d="M175.78,204.188v-6.01c0-5.227,3.539-9.463,7.904-9.463h-1.792c-4.365,0-7.903,4.236-7.903,9.463v6.01
		c0,5.228,3.539,9.464,7.903,9.464l1.769-0.001C179.306,213.635,175.78,209.405,175.78,204.188z"/>
	<path fill="#E2AB51" d="M195.319,204.188v-6.01c0-5.227,3.538-9.463,7.903-9.463h-1.791c-4.366,0-7.904,4.236-7.904,9.463v6.01
		c0,5.228,3.538,9.464,7.904,9.464l1.768-0.001C198.845,213.635,195.319,209.405,195.319,204.188z"/>
	<path fill="#C75777" d="M211.387,188.737c-4.174,0-7.558,4.051-7.558,9.049v6.794c0,4.997,3.384,9.049,7.558,9.049h51.938v-1.52
		h-0.215l-13.203-1.496l-2.669-12.535c0,0,5.15-6.929,5.486-7.106c0.337-0.18,10.386-0.722,10.386-0.722l0.215-0.002v-1.511H211.387
		z"/>
	<path fill="#D7EAF2" d="M259.956,201.138c0-7.329,3.162-10.881,3.162-10.881h-50.667c-3.834,0-6.941,3.721-6.941,8.312v5.229
		c0,4.591,3.107,8.313,6.941,8.313h50.667C263.118,212.109,259.956,210.366,259.956,201.138z"/>
	<path fill="#D7EAF2" d="M205.51,198.568v5.229c0,0.687,0.07,1.354,0.201,1.994c1.71-5.006,4.984-9.828,11.219-11.378
		c14.557-3.621,46.188-4.156,46.188-4.156h-50.667C208.617,190.257,205.51,193.978,205.51,198.568z"/>
</g>
<g>
	<path fill="#274A75" d="M257.379,239.362h3.769c-0.616-0.63-1.389-1.008-2.228-1.008h-94.426c-4.94,0-8.945,5.304-8.945,11.846
		v7.522c0,6.543,4.005,11.845,8.945,11.845l93.37-0.041L257.379,239.362z"/>
	<path fill="#527198" d="M203.771,238.382c-4.724,0-8.555,5.073-8.555,11.329v8.502c0,6.255,3.831,11.327,8.555,11.327h58.783
		v-1.901h-0.243l-14.943-1.875l-3.021-15.69c0,0,5.83-8.67,6.21-8.894s11.755-0.902,11.755-0.902l0.243-0.004v-1.892H203.771z"/>
	<path fill="#D7EAF2" d="M258.74,253.906c0-9.175,3.58-13.621,3.58-13.621h-57.346c-4.34,0-7.857,4.657-7.857,10.403v6.546
		c0,5.745,3.518,10.404,7.857,10.404h57.346C262.32,267.639,258.74,265.458,258.74,253.906z"/>
	<path fill="#D7EAF2" d="M197.117,250.688v6.546c0,0.86,0.08,1.694,0.229,2.495c1.934-6.266,5.643-12.302,12.698-14.243
		c16.476-4.53,52.276-5.201,52.276-5.201h-57.346C200.635,240.285,197.117,244.942,197.117,250.688z"/>
</g>
<g>
	<path fill="#3BA0A0" d="M152.437,214.386h-3.771c0.617-0.499,1.388-0.798,2.228-0.798h94.463c4.942,0,8.948,4.207,8.948,9.397
		v5.972c0,5.189-4.006,9.397-8.948,9.397l-93.406-0.033L152.437,214.386z"/>
	<path fill="#349D96" d="M206.065,213.609c4.727,0,8.558,4.024,8.558,8.988v6.746c0,4.965-3.831,8.988-8.558,8.988H147.26v-1.509
		h0.243l14.95-1.486l3.021-12.451c0,0-5.832-6.879-6.212-7.057c-0.38-0.177-11.759-0.716-11.759-0.716l-0.243-0.003v-1.501H206.065z
		"/>
	<path fill="#D7EAF2" d="M151.074,225.927c0-7.279-3.582-10.808-3.582-10.808h57.369c4.342,0,7.859,3.696,7.859,8.255v5.193
		c0,4.561-3.518,8.256-7.859,8.256h-57.369C147.492,236.823,151.074,235.093,151.074,225.927z"/>
	<path fill="#D7EAF2" d="M212.721,223.374v5.193c0,0.684-0.079,1.347-0.229,1.979c-1.935-4.971-5.643-9.76-12.703-11.301
		c-16.481-3.594-52.297-4.127-52.297-4.127h57.369C209.203,215.119,212.721,218.815,212.721,223.374z"/>
	<path opacity="0.5" fill="#527198" d="M237.001,228.957v-5.972c0-5.19-4.007-9.397-8.949-9.397h8.971
		c4.942,0,8.948,4.207,8.948,9.397v5.972c0,5.189-4.006,9.398-8.948,9.398l-8.851-0.004
		C233.059,238.285,237.001,234.105,237.001,228.957z"/>
</g>
<path fill="#E2AB51" d="M145.306,270.525h-4.065c0.665-0.559,1.497-0.894,2.402-0.894h101.833c5.328,0,9.646,4.701,9.646,10.5v6.671
	c0,5.8-4.318,10.501-9.646,10.501l-100.694-0.037L145.306,270.525z"/>
<path fill="#DD9E48" d="M203.118,269.656c5.095,0,9.226,4.497,9.226,10.042v7.539c0,5.546-4.131,10.042-9.226,10.042h-63.394v-1.687
	h0.262l16.116-1.66l3.257-13.911c0,0-6.287-7.688-6.697-7.886s-12.676-0.8-12.676-0.8l-0.262-0.003v-1.677H203.118z"/>
<path fill="#D7EAF2" d="M143.836,283.419c0-8.134-3.86-12.076-3.86-12.076h61.845c4.68,0,8.474,4.13,8.474,9.224v5.803
	c0,5.095-3.794,9.224-8.474,9.224h-61.845C139.976,295.593,143.836,293.659,143.836,283.419z"/>
<path fill="#D7EAF2" d="M210.294,280.566v5.803c0,0.763-0.087,1.503-0.247,2.212c-2.087-5.556-6.084-10.907-13.693-12.626
	c-17.768-4.018-56.378-4.612-56.378-4.612h61.845C206.5,271.343,210.294,275.473,210.294,280.566z"/>
<path fill="#C1DBE2" d="M286.938,300.167H115.193c-0.507,0-0.918-0.556-0.918-1.241v-0.571c0-0.686,0.411-1.242,0.918-1.242h171.745
	c0.507,0,0.919,0.557,0.919,1.242v0.571C287.857,299.611,287.445,300.167,286.938,300.167z"/>
<polygon fill="#DD9E48" points="113.222,196.538 146.378,170.924 150.86,182.914 116.933,207.156 "/>
<g>
	<path fill="#E4B7B7" d="M149.422,275.479l-4.578,0.313l-0.579,18.341l-2.341,1.523l0.113,0.668l0.87,0.277
		c0,0,2.815-0.064,2.9-0.064s0.665-0.864,0.665-0.864l-0.087-0.151l0.468-0.43L149.422,275.479z"/>
	<path fill="#E4B7B7" d="M161.822,295.656c0,0-2.286-1.552-2.343-1.523l0.518-18.678l-5.674,0.024l2.569,19.612l0.282,0.259
		c-0.071,0.325-0.126,0.607-0.139,0.697c-0.037,0.244,0.967,0.26,1.317,0.343c0.35,0.08,1.365,0.228,2.018,0.473
		s1.474-0.473,1.474-0.473L161.822,295.656z"/>
	<path fill="#C85634" d="M161.975,225.063c-0.661-2.32-1.304-1.401-2.496-4.208c-0.19-0.445-0.326-1.023-0.422-1.557
		c-0.286-1.59-0.905-3.044-1.822-4.114c-2.797-3.262-5.96-1.814-5.96-1.814s0.82,6.305,0.978,7.583
		c-0.699,1.283-1.403,2.596-1.403,2.596s-1.472,10.364,0.837,11.238c2.31,0.874,2.73-0.529,3.858-1.26
		c1.127-0.729,2.229,1.264,3.914-0.123c1.287-1.062,0.633-3.703,1.314-4.199C161.453,228.708,162.688,227.567,161.975,225.063z"/>
	<path fill="#C85634" d="M150.077,218.599c-0.042-0.024-1.1-0.832-2.091-1.588l6.157-9.258c0,0-1.866-0.488-1.98-0.507
		c-0.113-0.021-2.789,1.104-2.789,1.104l-2.759,1.01c-2.105,10.377-4.727,12.255-4.728,12.257c-0.316,0.283-0.616,0.663-0.919,1.323
		c-1.044,2.283,0.013,3.713,0.613,4.371c0.602,0.658-0.404,3.091,0.715,4.455c1.466,1.786,2.821,0.102,3.829,1.102
		c1.008,1.001,1.229,2.483,3.619,2.204c2.389-0.28,2.366-10.833,2.366-10.833S150.154,218.644,150.077,218.599z"/>
	<path fill="#C75777" d="M160.529,237.514c0,0,2.032,13.103,1.442,14.52c-0.59,1.417-8.325,1.859-8.325,1.859l-0.327-16.821
		l2.949-6.021L160.529,237.514z"/>
	<path fill="#192157" d="M158.076,252.683l-1.445-5.35c0,0-4.757-2.34-5.059-2.368c-0.303-0.028-4.33,2.368-4.33,2.368
		s-1.23,3.365-1.472,3.97c-0.133,0.336,0.174,2.396,0.475,4.165l-1.707,0.108l-1.133,33.817c0,0,2.457,1.786,5.102,0.255
		l2.173-29.537l1.89-0.382l2.834,29.281c0,0,2.268,2.297,5.48,0.383l-2.128-32.589C158.664,255.396,158.435,254.01,158.076,252.683z
		"/>
	<path fill="#E4B7B7" d="M148.824,227.072c0,0,2.111-0.597,6.038-0.22c3.926,0.375-1.817,3.363-1.817,3.363
		s-2.015-0.089-2.102-0.109C150.856,230.084,148.824,227.072,148.824,227.072z"/>
	<rect x="150.332" y="224.078" fill="#E4B7B7" width="3.486" height="8.263"/>
	<path fill="#D78F8F" d="M153.813,225.489v-2.817h-3.48v2.397C151.082,225.612,152.191,225.927,153.813,225.489z"/>
	<path fill="#E4B7B7" d="M158.695,214.879c-0.333-0.222-0.72-0.183-1.07,0.059c0.12-4.258-2.451-7.84-5.688-7.688
		c-3.237-0.151-5.808,3.431-5.688,7.688c-0.35-0.241-0.737-0.28-1.07-0.059c-0.639,0.425-0.838,1.647-0.444,2.726
		c0.395,1.08,1.232,1.611,1.872,1.185c0.089-0.06,0.168-0.136,0.239-0.223c0.367,3.519,2.541,6.157,5.091,6.108
		c2.551,0.049,4.725-2.59,5.091-6.108c0.071,0.087,0.151,0.163,0.239,0.223c0.639,0.427,1.477-0.104,1.872-1.185
		C159.533,216.526,159.334,215.304,158.695,214.879z"/>
	<path fill="#333333" d="M150.5,216.449c0.015,0.356-0.188,0.661-0.452,0.681c-0.265,0.02-0.49-0.254-0.504-0.61
		c-0.015-0.357,0.188-0.662,0.452-0.682C150.259,215.818,150.485,216.092,150.5,216.449z"/>
	<path fill="#333333" d="M154.621,216.509c0.015,0.355-0.188,0.661-0.452,0.68c-0.264,0.021-0.49-0.253-0.504-0.609
		c-0.014-0.356,0.188-0.662,0.452-0.682C154.38,215.879,154.606,216.152,154.621,216.509z"/>
	<path fill="#C85634" d="M151.025,215.125c-0.24-0.112-0.467-0.2-0.695-0.255c-0.227-0.055-0.451-0.068-0.669-0.037
		c-0.218,0.036-0.437,0.097-0.646,0.223l-0.081,0.042c-0.027,0.013-0.052,0.035-0.078,0.051l-0.16,0.106
		c-0.107,0.071-0.208,0.164-0.327,0.235c0.064-0.146,0.137-0.288,0.222-0.419c0.093-0.115,0.18-0.254,0.294-0.341
		c0.212-0.209,0.477-0.326,0.742-0.366c0.267-0.038,0.539,0.019,0.781,0.151C150.647,214.653,150.868,214.851,151.025,215.125z"/>
	<path fill="#C85634" d="M152.955,215.114c0.155-0.274,0.374-0.475,0.614-0.615c0.241-0.135,0.512-0.194,0.78-0.158
		c0.266,0.037,0.531,0.15,0.744,0.357c0.115,0.087,0.202,0.224,0.296,0.338c0.085,0.13,0.159,0.272,0.224,0.418
		c-0.12-0.071-0.22-0.162-0.328-0.233l-0.161-0.104c-0.027-0.016-0.052-0.036-0.079-0.052l-0.082-0.039
		c-0.21-0.124-0.43-0.184-0.647-0.216c-0.219-0.03-0.443-0.013-0.669,0.044C153.421,214.91,153.193,215,152.955,215.114z"/>
	<path fill="#D78F8F" d="M152.173,215.563c-0.024,0.34-0.006,0.681,0.041,1.017c0.024,0.17,0.058,0.337,0.106,0.502
		c0.051,0.164,0.112,0.331,0.224,0.474c0.127,0.133,0.182,0.173,0.219,0.294c0.038,0.104,0.021,0.239-0.019,0.367
		c-0.09,0.261-0.295,0.456-0.52,0.602c0.247-0.017,0.52-0.15,0.682-0.477c0.079-0.158,0.122-0.383,0.07-0.594
		c-0.052-0.218-0.145-0.295-0.246-0.403c-0.089-0.095-0.147-0.231-0.204-0.386c-0.053-0.137-0.09-0.291-0.133-0.444
		C152.316,216.206,152.248,215.889,152.173,215.563z"/>
	<path fill="#D78F8F" d="M150.604,219.618c0.132,0.123,0.27,0.234,0.412,0.33c0.141,0.099,0.287,0.186,0.436,0.255
		c0.298,0.14,0.61,0.227,0.923,0.227c0.313,0.003,0.624-0.084,0.916-0.242c0.291-0.164,0.561-0.398,0.811-0.671
		c-0.11,0.157-0.23,0.304-0.36,0.436c-0.129,0.133-0.271,0.242-0.416,0.342c-0.148,0.092-0.303,0.166-0.463,0.215
		c-0.161,0.047-0.324,0.07-0.488,0.072c-0.329-0.005-0.654-0.101-0.954-0.271C151.122,220.142,150.84,219.913,150.604,219.618z"/>
	<path fill="#3BA0A0" d="M158.853,228.726c-1.889-2.477-4.5-1.951-4.5-1.951c-0.292,0.394-0.585,0.691-0.874,0.914
		c-0.414,0.284-0.933,0.53-1.512,0.552c-0.011,0-0.021,0-0.031,0c-0.01,0-0.02,0-0.03,0c-0.579-0.021-1.098-0.268-1.512-0.552
		c-0.289-0.223-0.582-0.521-0.874-0.914c0,0-2.611-0.525-4.5,1.951s-3.777,7.938-3.777,7.938s2.389,2.941,4.666,3.317
		c0,0,1.112,6.902,1.333,7.353c0,0,1.146,0.727,2.813,1.108c0.606,0.154,1.203,0.219,1.774,0.223
		c0.035,0.002,0.07,0.001,0.106,0.002c0.036-0.001,0.071,0,0.106-0.002c0.572-0.004,1.168-0.068,1.775-0.223
		c1.667-0.382,2.813-1.108,2.813-1.108c0.222-0.45,1.333-7.353,1.333-7.353c2.278-0.376,4.667-3.317,4.667-3.317
		S160.742,231.202,158.853,228.726z"/>
	<g>
		<path fill="#C13B64" d="M152.14,245.472c0,0,0.702-0.157,1.089,0.538l-0.027,1.792l-0.858,0.54c0,0-1.062-1.222-0.982-1.253
			C151.442,247.059,152.14,245.472,152.14,245.472z"/>
		<polygon fill="#C13B64" points="154.323,257.18 143.028,261.594 141.933,250.424 153.229,246.01 		"/>
		<polygon fill="#D7EAF2" points="142.095,259.796 143.087,260.928 153.898,256.742 152.927,246.216 152.164,245.783 		"/>
		<polygon fill="#D7EAF2" points="153.898,256.742 153.127,255.835 151.717,253.743 151.803,247.984 152.164,245.783 
			152.931,246.198 		"/>
		<polygon fill="#C75777" points="153.127,255.835 141.832,260.25 140.845,249.886 152.14,245.472 		"/>
	</g>
	<path fill="#D7EAF2" d="M147.584,233.989c-0.262,0.43-0.501,0.879-0.721,1.342c-0.218,0.465-0.414,0.946-0.573,1.447
		c-0.16,0.5-0.282,1.021-0.352,1.559c-0.069,0.538-0.077,1.088-0.029,1.644c-0.126-0.532-0.164-1.106-0.12-1.67
		c0.041-0.565,0.16-1.117,0.323-1.636c0.168-0.518,0.378-1.009,0.626-1.459C146.986,234.766,147.265,234.344,147.584,233.989z"/>
	<path fill="#E4B7B7" d="M145.24,252.829c-1.989-4.549-1.068-10.082-0.282-13.142c-1.562-0.68-3.008-2.214-3.519-2.796
		c-3.175,9.683,2.202,17.965,2.202,17.965l0.011-0.012c0.102,0.313,0.177,0.592,0.177,0.592c1.268,3.094,1.323,3.045,1.414,3.001
		c0.091-0.044-0.16-1.517-0.048-1.512c0.112,0.004,0.912,1.776,0.971,1.61s-0.533-1.925-0.447-1.955
		c0.087-0.029,0.84,1.697,1.006,1.548c0.166-0.149-0.707-2.003-0.54-2.049c0.167-0.045,1.026,1.886,1.161,1.715
		c0.113-0.142-0.808-2.332-1.104-3.024c-0.038-0.089,0.014-0.201,0.09-0.193c1.176,0.091,1.271,0.006,1.25-0.171
		C147.566,254.28,146.153,253.391,145.24,252.829z"/>
	<path fill="#C13B64" d="M158.547,227.259c-2.438,11.853,0.504,15.349,0.517,15.44l-0.441,2.756c0,0-6.003-5.272-2.198-19.32
		c0.107-0.396,0.426-0.602,0.708-0.426l1.139,0.714C158.506,226.569,158.616,226.924,158.547,227.259z"/>
	<path fill="#E4B7B7" d="M163.869,256.2c0,0-0.077-0.263-0.15-0.572c0-0.001,0-0.003,0-0.005h-0.001l-0.115-1.147
		c-0.072-2.605-0.392-11.843-1.445-17.279c-0.801,0.859-2.505,2.484-4.157,2.776c1.036,2.926,3.205,9.67,3.581,15.8
		c-0.382,1.169-0.897,2.787-0.853,2.883c0.067,0.145,0.174,0.124,0.965-0.938c0.051-0.069,0.139-0.035,0.154,0.062
		c0.113,0.743,0.479,3.076,0.625,3.081c0.174,0.005-0.115-2.091,0.025-2.201c0.14-0.108,0.384,1.945,0.571,1.91
		c0.187-0.034-0.083-1.899-0.008-1.951c0.075-0.052,0.474,1.697,0.593,1.766c0.119,0.069-0.139-1.868-0.061-1.966
		c0.078-0.099,0.584,1.158,0.669,1.112S164.41,259.471,163.869,256.2z"/>
	<path fill="#C85634" d="M145.247,214.833c0,0-0.353-8.811,6.916-9.393c0,0-0.226,8.656-5.914,9.497l-0.438-1.153L145.247,214.833z"
		/>
	<path fill="#C85634" d="M152.163,205.44c0,0,5.897-0.446,6.21,9.305c0,0-0.429-0.041-0.748,0.192c0,0-4.67-1.58-5.831-7.691
		L152.163,205.44z"/>
	<path fill="#192157" d="M143.91,296.326c-1.185,0.161-1.745-0.188-1.985-0.67l-0.803,0.709c-0.318,0.272-0.175,0.938,0.203,0.938
		h5.217c0.184,0,0.333-0.201,0.333-0.449v-1.904C146.538,295.416,145.748,296.077,143.91,296.326z"/>
	<path fill="#192157" d="M159.836,296.326c1.186,0.161,1.745-0.188,1.985-0.67l0.803,0.709c0.318,0.272,0.175,0.938-0.203,0.938
		h-5.216c-0.184,0-0.333-0.201-0.333-0.449v-1.904C157.208,295.416,157.999,296.077,159.836,296.326z"/>
</g>
<g>
	<g>
		<path fill="#D7EAF2" d="M268.964,233.251l6.027,0.653l-1.945,6.585l-3.042-0.329l-1.267,5.489
			c-0.309-0.189-0.536-0.335-0.582-0.376c-0.093-0.082-0.43-2.807-0.725-5.379L268.964,233.251z"/>
		<path fill="#C13B64" d="M272.404,293.813v2.871c0,0.236,0.142,0.428,0.316,0.428h4.96c0.359,0,0.496-0.634,0.193-0.895
			l-2.782-2.404C275.092,293.813,273.999,294.895,272.404,293.813z"/>
		<path fill="#E4B7B7" d="M262.666,172.164c-0.072,0.037-0.148-0.048-0.132-0.15c0.124-0.797,0.503-3.308,0.359-3.396
			c-0.17-0.106-0.55,2.127-0.721,2.154c-0.173,0.026,0.237-2.139,0.042-2.211c-0.194-0.074-0.521,1.917-0.61,1.926
			c-0.09,0.007,0.07-1.946-0.025-2.082c-0.095-0.137-0.454,1.921-0.563,1.972c-0.107,0.051-0.208-1.479-0.307-1.481
			c-0.099-0.004-0.164-0.028-0.666,3.505c0,0-0.03,1.295-0.2,1.599l0.379,1.041l1.17,0.053c0,0,2.542-3.106,2.521-3.296
			C263.894,171.615,263.781,171.573,262.666,172.164z"/>
		<path fill="#E4B7B7" d="M274.711,172.946c0.053,0.078,0.148,0.05,0.169-0.053c0.158-0.785,0.667-3.253,0.825-3.245
			c0.187,0.011-0.229,2.231-0.085,2.362c0.144,0.13,0.511-2.05,0.708-1.995c0.198,0.055-0.184,2.028-0.106,2.09
			c0.078,0.063,0.594-1.774,0.725-1.837c0.132-0.063-0.242,1.989-0.164,2.102s0.685-1.188,0.773-1.131s0.155,0.076-0.591,3.531
			c0,0-0.41,1.171-0.361,1.546l-0.687,0.693l-1.061-0.674c0,0-1.214-4.33-1.132-4.485
			C273.804,171.702,273.917,171.733,274.711,172.946z"/>
		<polygon fill="#E4B7B7" points="265.411,201.244 265.43,207.285 261.084,206.381 261.809,199.586 		"/>
		<path opacity="0.6" fill="#D38481" d="M261.476,202.715l0.333-3.129l3.606,2.231l0.002,1.192
			C264.548,203.296,262.922,203.553,261.476,202.715z"/>
		<path fill="#C13B64" d="M257.56,293.495v3.147c0,0.259-0.156,0.47-0.348,0.47h-5.457c-0.396,0-0.546-0.695-0.213-0.982
			l3.061-2.635C254.603,293.495,255.805,294.679,257.56,293.495z"/>
		<g>
			<g>
				<g>
					<path fill="#192157" d="M252.576,240.014c0.011-0.673-1.287,1.313-1.262,0.774c0.509-11.178,16.678-1.805,16.678-1.805
						l3.946,3.912l4.457,51.803c0,0-2.42,0.946-4.011,0.173l-9.867-44.392l-1.214-0.632
						C261.304,249.848,255.907,244.764,252.576,240.014z"/>
				</g>
			</g>
		</g>
		<g>
			<g>
				<g>
					<path fill="#349D96" d="M251.295,241.245c-0.004,0.13-0.008,0.264-0.013,0.401
						C251.287,241.509,251.291,241.375,251.295,241.245z"/>
				</g>
				<g>
					<path fill="#349D96" d="M251.282,241.653c-0.004,0.14-0.007,0.285-0.011,0.43C251.275,241.938,251.278,241.793,251.282,241.653
						z"/>
				</g>
				<g>
					<path fill="#349D96" d="M251.27,242.142c-0.003,0.152-0.006,0.307-0.008,0.468C251.264,242.448,251.267,242.294,251.27,242.142
						z"/>
				</g>
				<g>
					<path fill="#349D96" d="M251.314,240.788c-0.006,0.121-0.011,0.248-0.016,0.375
						C251.304,241.036,251.309,240.909,251.314,240.788z"/>
				</g>
				<g>
					<path fill="#192157" d="M251.315,238.25c3.331,4.748,9.988,11.598,9.988,11.598l1.214,0.632l-1.214-0.632l-3.751,44.851
						c0,0-2.674,0.688-4.201-0.43C253.352,294.269,251.099,251.577,251.315,238.25z"/>
				</g>
				<g>
					<path fill="#349D96" d="M276.396,294.698c0,0-1.043,0.409-2.209,0.469C275.353,295.107,276.396,294.698,276.396,294.698
						L276.396,294.698z"/>
				</g>
				<g>
					<path fill="#349D96" d="M272.851,295.045c0.108,0.029,0.217,0.055,0.328,0.073C273.067,295.1,272.959,295.074,272.851,295.045z
						"/>
				</g>
				<g>
					<path fill="#349D96" d="M274.187,295.167c-0.278,0.016-0.563,0.01-0.841-0.024
						C273.624,295.177,273.908,295.183,274.187,295.167z"/>
				</g>
			</g>
		</g>
		<path fill="#0F1844" d="M271.938,242.896l0.636,7.393c-1.683,0.881-5.784,1.821-8.875-7.311c-0.975-2.88-1.225-4.953-1.045-6.44
			c2.96,1.068,5.338,2.446,5.338,2.446L271.938,242.896z"/>
		<path fill="#D7EAF2" d="M257.103,212.718c0.187,0,2.987-8.572,2.987-8.572c2.396,2.268,5.648,0.692,5.648,0.692
			s13.083,32.339,4.309,37.383s-17.051-1.092-17.051-1.092s-1.867-6.557-1.867-6.81
			C251.129,234.068,256.916,212.718,257.103,212.718z"/>
		<path fill="#527198" d="M274.154,176.406c0,0,0.566,15.343-0.498,18.155c-3.532,9.33-7.918,10.276-7.918,10.276
			s-1.51,32.635-0.265,40.451c0,0,4.138,1.723,10.236-2.143c0,0-4.667-25.302-4.419-28.496c0,0,7.469-8.993,7.717-19.584
			c0.249-10.591-1.805-20.005-1.805-20.005L274.154,176.406z"/>
		<path fill="#527198" d="M254.022,244.113c0,0,0.467-12.147,2.521-23.663c2.055-11.515,3.547-16.305,3.547-16.305
			c-2.753-4.1-2.296-7.803-2.053-12.609c0.279-5.547,4.293-16.644,4.293-16.644l-2.707-2.395
			c-12.975,21.055-5.787,37.823-5.787,37.823s-4.854,23.2-5.507,30.261C248.329,240.582,250.912,242.6,254.022,244.113z"/>
		<path fill="#FFFFFF" d="M271.166,214.616c-0.156-0.149-0.341-0.378-0.521-0.67c-0.551-0.897-0.836-1.908-1.033-3.035
			c0.119,0.481,0.438,1.881,1.111,2.945c0.301,0.465,0.46,0.622,0.606,0.749c-0.024,0.029-0.038,0.045-0.038,0.045
			c-0.001,0.021-0.002,0.044-0.003,0.066c-0.173,0.049-0.477,0.063-0.987-0.313c-0.316-0.225-0.568-0.505-0.829-0.804
			c0.171,0.164,0.525,0.512,0.859,0.724C270.564,214.479,270.906,214.642,271.166,214.616z"/>
		<path fill="#FFFFFF" d="M253.936,210.245c0.222-0.191,0.414-0.464,0.593-0.737c0.55-0.872,0.853-1.905,1.111-2.947
			c-0.197,1.123-0.48,2.136-1.033,3.036c-0.18,0.29-0.363,0.518-0.521,0.67c0.121,0.011,0.268-0.021,0.365-0.059
			c0.16-0.053,0.317-0.134,0.468-0.234c0.313-0.196,0.62-0.493,0.861-0.723c-0.232,0.267-0.499,0.568-0.83,0.803
			c-0.15,0.112-0.31,0.205-0.477,0.271c-0.169,0.057-0.341,0.105-0.532,0.036l-0.1-0.036L253.936,210.245z"/>
		<polygon fill="#192157" points="259.178,188.916 258.914,193.063 259.399,193.474 260.297,188.425 		"/>
		<path fill="#D78F8F" d="M259.83,192.634c0.134,0.938-0.209,1.817-0.766,1.961s-1.115-0.5-1.249-1.439
			c-0.133-0.938,0.21-1.817,0.766-1.961C259.138,191.05,259.696,191.694,259.83,192.634z"/>
		<path fill="#E4B7B7" d="M259.034,196.467c-0.143-1.2-0.122-2.428-0.043-3.483c0.017-0.227,0.024-0.453,0.028-0.681
			c0.017-0.917,0.158-1.857,0.455-2.782c0.958-2.979,3.294-4.785,5.679-4.385c3.213,0.539,5.33,4.621,4.712,8.796
			c0.374-0.161,0.76-0.118,1.062,0.172c0.581,0.558,0.634,1.803,0.118,2.782s-1.404,1.323-1.984,0.767
			c-0.08-0.078-0.148-0.169-0.21-0.271c-0.794,3.479-3.354,5.638-5.93,4.882C260.966,201.689,259.353,199.499,259.034,196.467z"/>
		<path fill="#333333" d="M264.974,193.15c-0.126,0.429,0.103,0.893,0.451,0.891c0.189-0.002,0.364-0.164,0.436-0.402
			c0.126-0.429-0.104-0.894-0.451-0.892C265.219,192.749,265.044,192.913,264.974,193.15z"/>
		<path fill="#333333" d="M260.905,192.329c-0.127,0.428,0.104,0.891,0.452,0.89c0.189-0.002,0.364-0.166,0.434-0.404
			c0.126-0.429-0.104-0.892-0.451-0.889C261.15,191.927,260.976,192.089,260.905,192.329z"/>
		<path fill="#D78F8F" d="M264.341,197.667c-0.252,0.17-0.536,0.296-0.769,0.356c-0.265,0.068-0.535,0.092-0.8,0.04
			c-0.266-0.047-0.52-0.172-0.752-0.353c-0.231-0.186-0.438-0.429-0.625-0.698c0.189,0.361,0.361,0.57,0.586,0.781
			c0.23,0.205,0.477,0.338,0.778,0.398c0.277,0.049,0.561,0.022,0.828-0.073C263.857,198.024,264.115,197.88,264.341,197.667z"/>
		<path fill="#192157" d="M264.587,191.841c0.25-0.061,0.484-0.1,0.715-0.104s0.453,0.028,0.665,0.106
			c0.21,0.081,0.419,0.188,0.611,0.358c0.261,0.201,0.448,0.447,0.585,0.567c-0.088-0.298-0.228-0.651-0.42-0.859
			c-0.185-0.251-0.432-0.423-0.688-0.519c-0.26-0.094-0.534-0.098-0.788-0.018C265.016,191.456,264.774,191.604,264.587,191.841z"/>
		<path fill="#192157" d="M262.687,191.417c-0.12-0.304-0.313-0.548-0.533-0.736c-0.222-0.185-0.482-0.302-0.75-0.324
			c-0.266-0.02-0.54,0.035-0.774,0.193c-0.231,0.113-0.449,0.391-0.602,0.633c0.171-0.061,0.385-0.205,0.688-0.284
			c0.223-0.078,0.445-0.089,0.664-0.075c0.22,0.019,0.438,0.082,0.654,0.188C262.252,191.114,262.465,191.253,262.687,191.417z"/>
		<path fill="#D78F8F" d="M263.517,192.231c-0.226,0.284-0.431,0.593-0.625,0.913c-0.193,0.32-0.374,0.656-0.535,1.016
			c-0.092,0.215-0.207,0.502-0.234,0.747c-0.017,0.136-0.009,0.267,0.159,0.49c0.11,0.156,0.234,0.285,0.361,0.403
			c0.128,0.116,0.261,0.224,0.4,0.312c-0.232-0.269-0.468-0.537-0.65-0.846c-0.029-0.047-0.086-0.157-0.105-0.22
			c-0.01-0.046,0.008-0.146,0.032-0.23c0.05-0.178,0.121-0.355,0.198-0.527c0.152-0.348,0.323-0.687,0.491-1.027
			C263.18,192.922,263.351,192.582,263.517,192.231z"/>
		<path fill="#192157" d="M259.749,184.488c0,0-1.612-0.42,0.374-1.733c1.986-1.315,6.855-2.081,9.401,0.864
			c0,0,0.856-1.483,1.624-0.833c0.771,0.652-0.8,1.373-0.8,1.373s1.074,0.279,1.282,1.087c0.152,0.597-0.505,0.419-0.858,0.286
			c0.585,0.324,2.303,2.517,0.071,8.503c-0.396-0.251-2.948-5.169-2.948-5.169s-5.133,2.276-4.197,0.389
			c0,0-5.981,2.032-4.531-1.632C259.167,187.623,256.962,187.177,259.749,184.488z"/>
		<path fill="#192157" d="M270.844,194.035c0,0-0.387-0.401-0.979-0.104c-0.592,0.296-0.968,2.089-0.968,2.089
			s-1.937,2.143-0.992-7.194c0.928-9.174,2.213,1.526,2.213,1.526L270.844,194.035z"/>
	</g>
	<g>
		<path fill="#C13B64" d="M257.577,165.04l-0.837-0.111c0.146-0.108,0.322-0.161,0.509-0.137l20.988,2.789
			c1.098,0.146,1.91,1.328,1.814,2.644l-0.11,1.512c-0.096,1.314-1.063,2.262-2.16,2.116l-20.753-2.766L257.577,165.04z"/>
		<path fill="#E2AB51" d="M278.182,171.503l0.109-1.513c0.096-1.314-0.716-2.499-1.814-2.645l0.45,0.06
			c1.099,0.146,1.911,1.331,1.815,2.646l-0.109,1.512c-0.097,1.314-1.063,2.262-2.163,2.116l-0.444-0.059
			C277.121,173.761,278.086,172.814,278.182,171.503z"/>
		<path fill="#E2AB51" d="M273.266,170.85l0.11-1.512c0.096-1.314-0.717-2.499-1.814-2.645l0.451,0.06
			c1.097,0.146,1.909,1.329,1.814,2.645l-0.11,1.512c-0.096,1.315-1.063,2.263-2.162,2.117l-0.444-0.059
			C272.206,173.108,273.171,172.162,273.266,170.85z"/>
		<path fill="#C75777" d="M269.507,166.426c1.05,0.14,1.827,1.272,1.735,2.528l-0.124,1.71c-0.092,1.256-1.018,2.163-2.067,2.023
			l-13.065-1.735l0.028-0.382l0.054,0.007l3.35,0.064l0.9-3.064c0,0-1.169-1.914-1.25-1.971c-0.082-0.056-2.6-0.528-2.6-0.528
			l-0.055-0.008l0.028-0.38L269.507,166.426z"/>
		<path fill="#D7EAF2" d="M257.063,167.923c0.134-1.844-0.598-2.843-0.598-2.843l12.747,1.692c0.964,0.128,1.678,1.168,1.594,2.323
			l-0.096,1.315c-0.084,1.154-0.935,1.987-1.898,1.858l-12.747-1.692C256.064,170.577,256.893,170.244,257.063,167.923z"/>
		<path fill="#D7EAF2" d="M270.806,169.096l-0.096,1.315c-0.013,0.173-0.043,0.338-0.088,0.495
			c-0.338-1.317-1.073-2.639-2.613-3.238c-3.596-1.396-11.544-2.588-11.544-2.588l12.747,1.692
			C270.176,166.9,270.89,167.94,270.806,169.096z"/>
	</g>
</g>
<g>
	<path fill="#527198" d="M232.124,208.568l-0.864,2.607c-0.072,0.216-0.001,0.47,0.158,0.566l4.521,2.736
		c0.326,0.199,0.643-0.304,0.445-0.708l-1.749-3.681C234.636,210.09,233.253,210.431,232.124,208.568z"/>
	<path fill="#527198" d="M226.381,208.568l-0.865,2.607c-0.071,0.216,0,0.47,0.159,0.566l4.521,2.736
		c0.327,0.199,0.644-0.304,0.446-0.708l-1.749-3.681C228.893,210.09,227.509,210.431,226.381,208.568z"/>
	<path fill="#192157" d="M216.616,136.675l-0.48,4.072l-1.015-5.429c0,0,1.423-0.933,1.485-0.593
		C216.67,135.063,216.616,136.675,216.616,136.675z"/>
	<polygon fill="#E4B7B7" points="208.537,145.44 208.098,152.479 212.697,152.184 212.166,145.949 	"/>
	<path fill="#D78F8F" d="M212.418,148.914l-0.252-2.965l-3.629-0.509l-0.152,2.438C209.106,148.849,210.404,149.855,212.418,148.914
		z"/>
	<g>
		<path fill="#D78F8F" d="M215.238,140.696c-0.276,0.772-0.129,1.642,0.328,1.94c0.458,0.298,1.053-0.086,1.329-0.858
			c0.276-0.771,0.131-1.641-0.327-1.94C216.111,139.54,215.516,139.924,215.238,140.696z"/>
		<path fill="#E4B7B7" d="M215.906,141.262c0.024-0.2,0.058-0.4,0.092-0.599c0.144-0.801,0.182-1.66,0.082-2.556
			c-0.319-2.879-2.035-5.177-4.172-5.575c-2.877-0.538-5.412,2.34-5.592,6.152c-0.296-0.256-0.638-0.339-0.949-0.183
			c-0.6,0.302-0.857,1.365-0.579,2.376c0.278,1.01,0.989,1.585,1.589,1.284c0.083-0.043,0.158-0.1,0.229-0.169
			c0.092,3.264,1.942,5.937,4.305,6.086c1.154,0.072,2.23-0.472,3.063-1.424C215.107,145.529,215.682,143.139,215.906,141.262z"/>
		<path fill="#D78F8F" d="M212.324,139.134c0.009,0.38,0.012,0.751,0.025,1.115c0.018,0.355,0.046,0.735,0.152,0.986
			c0.107,0.202,0.191,0.333,0.195,0.581c0.006,0.251-0.092,0.478-0.215,0.614c-0.252,0.286-0.577,0.313-0.846,0.224
			c0.274-0.066,0.538-0.193,0.691-0.436c0.07-0.121,0.118-0.255,0.102-0.382c-0.012-0.139-0.043-0.169-0.168-0.401
			c-0.088-0.202-0.116-0.408-0.133-0.607c-0.014-0.2-0.012-0.393,0.002-0.584C212.157,139.861,212.219,139.487,212.324,139.134z"/>
		<path fill="#333333" d="M210.691,139.543c0.031,0.395-0.227,0.712-0.515,0.634c-0.179-0.05-0.319-0.258-0.339-0.504
			c-0.029-0.393,0.227-0.709,0.515-0.632C210.531,139.09,210.672,139.298,210.691,139.543z"/>
		<path fill="#333333" d="M214.36,140.104c0.03,0.393-0.226,0.709-0.514,0.631c-0.179-0.049-0.319-0.257-0.339-0.502
			c-0.031-0.395,0.227-0.712,0.514-0.633C214.2,139.65,214.341,139.858,214.36,140.104z"/>
		<path fill="#D78F8F" d="M209.975,143.56c0.112,0.133,0.229,0.255,0.354,0.363c0.123,0.112,0.25,0.213,0.383,0.299
			c0.264,0.173,0.543,0.299,0.832,0.346c0.287,0.049,0.581,0.015,0.864-0.086c0.282-0.107,0.55-0.282,0.804-0.494
			c-0.275,0.314-0.504,0.47-0.778,0.605c-0.289,0.131-0.578,0.175-0.903,0.125c-0.303-0.053-0.596-0.19-0.859-0.393
			C210.408,144.122,210.167,143.869,209.975,143.56z"/>
		<path fill="#192157" d="M211.232,138.328c-0.219-0.091-0.424-0.161-0.628-0.204c-0.202-0.042-0.401-0.05-0.595-0.018
			c-0.194,0.035-0.388,0.09-0.574,0.205c-0.143,0.061-0.488,0.336-0.579,0.389c0.106-0.263,0.26-0.544,0.45-0.702
			c0.188-0.194,0.426-0.305,0.664-0.345c0.241-0.039,0.486,0.009,0.705,0.126C210.893,137.9,211.092,138.079,211.232,138.328z"/>
		<path fill="#192157" d="M213.121,138.615c0.174-0.207,0.395-0.331,0.625-0.391c0.23-0.059,0.479-0.042,0.711,0.06
			c0.228,0.103,0.443,0.274,0.602,0.513c0.164,0.203,0.274,0.521,0.34,0.808c-0.082-0.078-0.381-0.438-0.512-0.534
			c-0.168-0.162-0.35-0.268-0.533-0.352c-0.186-0.082-0.383-0.128-0.588-0.14C213.561,138.568,213.349,138.583,213.121,138.615z"/>
	</g>
	<path fill="#161D50" d="M211.07,178.464c0,0-0.959,8.788,5.326,10.318c6.287,1.531,14.109,1.074,14.109,1.074l1.089,20.187
		l3.281,0.227c0,0,8.451-28.049-3.246-32.434l-10.513,0.07l-4.328-0.418c0,0-4.38-1.461-4.431-1.184
		C212.307,176.584,211.173,178.603,211.07,178.464z"/>
	<path fill="#1B2264" d="M205.293,178.509c0,0-0.959,8.789,5.326,10.32c6.287,1.531,14.109,1.074,14.109,1.074l1.088,20.187
		l3.282,0.228c0,0,8.45-28.05-3.247-32.434l-10.512,0.068l-4.328-0.416c0,0-4.379-1.463-4.431-1.185
		C206.529,176.631,205.396,178.648,205.293,178.509z"/>
	<path fill="#C75777" d="M213.211,149.673c0,0,4.328,0.742,5.428,1.948c1.099,1.206,6.389,18.931,6.389,18.931l-4.396,6.96
		l-9.344,0.093c0,0-7.008,5.104-11.404,0.279c-4.396-4.826-2.131-21.622,0.412-25.241c2.542-3.62,7.076-3.527,7.076-3.527
		S211.493,153.013,213.211,149.673z"/>
	<path fill="#FFFFFF" d="M204.829,158.488c0.154,0.966,0.249,1.946,0.317,2.931c0.037,0.491,0.053,0.985,0.074,1.479
		c0.01,0.495,0.019,0.989,0.014,1.484c-0.014,0.989-0.055,1.982-0.18,2.962c-0.123,0.977-0.303,1.955-0.638,2.837
		c0.226-0.94,0.337-1.908,0.419-2.877c0.08-0.971,0.106-1.948,0.117-2.928c0.014-0.978-0.004-1.958-0.025-2.939
		C204.9,160.456,204.868,159.474,204.829,158.488z"/>
	<path fill="#FFFFFF" d="M217.779,157.839c0.198,1.438,0.407,2.87,0.621,4.3c0.217,1.428,0.441,2.854,0.697,4.27
		c0.254,1.414,0.534,2.82,0.875,4.198c0.17,0.688,0.361,1.369,0.583,2.028c0.221,0.662,0.481,1.301,0.83,1.861
		c-0.397-0.501-0.689-1.138-0.954-1.778c-0.256-0.648-0.477-1.323-0.667-2.011c-0.194-0.686-0.361-1.385-0.52-2.086
		c-0.152-0.704-0.292-1.413-0.422-2.124c-0.124-0.714-0.243-1.428-0.351-2.146c-0.103-0.719-0.204-1.438-0.289-2.16
		C218.007,160.748,217.869,159.297,217.779,157.839z"/>
	<g>
		<path fill="#EEEDEC" d="M227.152,161.045c-0.8-1.681-7.35-4.533-7.35-4.533c0,2.727,0,2.845,0,2.845l6.667,3.147L227.152,161.045z
			"/>
		<polygon fill="#FFFFFF" points="226.681,160.931 219.075,156.193 219.075,158.033 226.493,161.647 		"/>
		<polygon fill="#EEEDEC" points="226.258,160.931 218.23,156.828 218.23,159.998 226.177,161.647 		"/>
		<path fill="#FFFFFF" d="M227.152,160.607c0,0,1.548-4.89,2.181-5.904c0,3.217-0.962,7.262-0.962,7.262L227.152,160.607z"/>
		<polygon fill="#EEEDEC" points="227.827,160.823 229.704,154.418 229.704,157.469 228.415,161.647 		"/>
		<polygon fill="#FFFFFF" points="228.415,160.931 230.461,154.703 230.461,156.923 		"/>
		<polygon fill="#25406A" points="228.415,180.119 230.993,174.12 230.993,154.932 228.415,160.931 		"/>
		<polygon fill="#527198" points="216.534,177.221 225.665,180.119 225.665,160.931 216.534,158.032 		"/>
		<path fill="#E0E0DF" d="M225.665,160.931c0.805-0.52,2.488-0.336,2.75,0C228.276,162.028,225.87,162.243,225.665,160.931z"/>
		<path fill="#39547D" d="M225.665,180.119c0,0.471,2.763,0.471,2.763,0v-19.188c-0.28,0.559-2.451,0.542-2.763,0V180.119z"/>
	</g>
	<path fill="#E4B7B7" d="M219.954,173.501c-0.026-0.294-1.678-0.622-2.285-0.665c-0.46-0.032-3.509-0.169-4.546-0.232l0.076,0.36
		l-0.016,1.591l-0.17,1.053c0.91,0.078,3.134,0.195,3.597,0.319c0.618,0.165,1.691,0.795,1.691,0.795s0.446-0.137-0.12-0.467
		c-0.456-0.265-0.775-0.677-0.91-0.881c-0.078-0.117,0.007-0.328,0.063-0.307c1.543,0.546,1.702,0.636,1.702,0.636
		s1.814-0.013,0.01-0.564c-1.081-0.33-1.469-0.521-1.565-0.686c-0.041-0.07,0.033-0.308,0.099-0.313
		c0.937-0.078,2.619,0.37,2.158,0.076c-0.376-0.24-1.559-0.503-2.02-0.603c-0.027-0.006-0.073-0.237,0.052-0.252
		C218.663,173.263,219.979,173.773,219.954,173.501z"/>
	<path fill="#FFFFFF" d="M203.772,169.938c0.38,0.125,0.755,0.269,1.136,0.376c0.379,0.121,0.764,0.211,1.145,0.318
		c0.766,0.188,1.534,0.354,2.305,0.5c0.771,0.137,1.544,0.262,2.318,0.363c0.771,0.103,1.557,0.191,2.32,0.25l0.103,0.007
		l0.022,0.12c0.066,0.351,0.109,0.691,0.141,1.042c0.033,0.348,0.047,0.699,0.047,1.051c-0.003,0.352-0.025,0.703-0.068,1.052
		c-0.047,0.349-0.124,0.688-0.226,1.016l-0.009,0.028l-0.018,0.015l-0.848,0.769c-0.283,0.256-0.566,0.512-0.854,0.761
		c0.266-0.289,0.534-0.57,0.805-0.853l0.809-0.843l-0.025,0.043c0.084-0.315,0.145-0.641,0.178-0.975
		c0.029-0.334,0.043-0.672,0.037-1.01c-0.009-0.338-0.033-0.675-0.069-1.011c-0.036-0.333-0.085-0.671-0.149-0.988l0.125,0.129
		c-0.404-0.016-0.785-0.051-1.179-0.089c-0.39-0.039-0.78-0.08-1.169-0.137c-0.778-0.107-1.555-0.239-2.328-0.405
		c-0.772-0.17-1.541-0.373-2.303-0.616c-0.379-0.13-0.759-0.257-1.133-0.416C204.51,170.292,204.141,170.114,203.772,169.938z"/>
	<path fill="#192157" d="M216.709,132.822c0,0,1.443,0.063-0.071-1.585c-1.515-1.647-5.581-3.581-8.186-1.722
		c0,0-0.521-1.496-1.274-1.14c-0.754,0.357,0.488,1.388,0.488,1.388s-0.961-0.042-1.254,0.595c-0.218,0.471,0.371,0.492,0.693,0.47
		c-0.547,0.127-2.646,1.918-1.593,7.635c0.374-0.111,2.509-4.291,2.509-4.291s4.879,3.662,4.396,0.75c0,0,5.058,4.262,4.34,0.741
		C216.758,135.664,218.713,135.858,216.709,132.822z"/>
	<path fill="#192157" d="M205.508,138.498c0,0,0.404-0.192,0.84,0.274c0.435,0.466,0.387,2.103,0.387,2.103s2.074,1.808,1.855-5.84
		c-0.232-8.135-1.73,0.652-1.73,0.652L205.508,138.498z"/>
</g>
<g>
	<path fill="#192157" d="M182.989,291.003l0.866,2.607c0.071,0.216,0,0.469-0.159,0.564l-4.521,2.737
		c-0.327,0.198-0.643-0.304-0.446-0.707l1.749-3.682C180.478,292.523,181.861,292.865,182.989,291.003z"/>
	<path fill="#192157" d="M188.848,290.692l0.865,2.608c0.072,0.216,0,0.468-0.159,0.564l-4.521,2.738
		c-0.328,0.196-0.643-0.305-0.446-0.71l1.75-3.681C186.336,292.213,187.719,292.555,188.848,290.692z"/>
	<path fill="#C85634" d="M194.131,206.249c0,0-4.927-1.121-6.58,6.313l2.041,4.125c0,0,4.279-2.22,4.296-2.438
		C193.904,214.03,194.131,206.249,194.131,206.249z"/>
	<path fill="#C85634" d="M202.061,209.599c0,0,1.438,2.918,2.17,4.076c1.844,2.911,2.082,1.998,3.228,4.502
		c1.237,2.704-0.015,4.396-0.726,5.176c-0.712,0.779,0.479,3.659-0.847,5.275c-1.735,2.114-3.34,0.121-4.534,1.305
		c-1.193,1.185-1.455,2.941-4.284,2.609s-2.802-12.827-2.802-12.827s2.316-6.625,2.408-6.679
		C196.766,212.98,202.061,209.599,202.061,209.599z"/>
	<path fill="#C85634" d="M187.551,212.562c0,0-0.169,2.292-0.73,3.614c-1.412,3.321-2.173,2.233-2.956,4.982
		c-0.844,2.966,0.618,4.315,1.424,4.902c0.806,0.588,0.032,3.717,1.556,4.973c1.996,1.643,3.298-0.719,4.634,0.146
		c1.335,0.865,1.833,2.525,4.567,1.491c2.735-1.035,0.992-13.306,0.992-13.306s-3.184-5.931-3.282-5.962
		C193.658,213.374,187.551,212.562,187.551,212.562z"/>
	<path fill="#E4B7B7" d="M194.699,227.358c0,0,4.723-1.173,6.894-1.074c2.172,0.1-1.315,7.726-1.315,7.726l-3.547,0.107
		c0,0-2.174-3.28-2.031-3.663c0.144-0.381-0.006-2.883-0.006-2.883L194.699,227.358z"/>
	<g>
		<path fill="#E4B7B7" d="M198.91,221.273l1.246,5.105c0,0-1.085,3.028-4.406,1.723c0,0,0.379-1.058-0.129-3.236
			C195.102,222.641,198.91,221.273,198.91,221.273z"/>
		<path opacity="0.6" fill="#D38481" d="M198.91,221.273l0.584,2.385c-0.348,1.743-1.479,2.93-3.609,3.299
			c0.001-0.519-0.059-1.211-0.264-2.092C195.102,222.641,198.91,221.273,198.91,221.273z"/>
		<g>
			<path fill="#D78F8F" d="M191.313,217.534c0.27,0.829,0.09,1.738-0.401,2.029s-1.107-0.145-1.377-0.975
				c-0.27-0.829-0.09-1.737,0.401-2.028C190.426,216.27,191.043,216.706,191.313,217.534z"/>
			<path fill="#E4B7B7" d="M191.175,221.3c-0.318-1.067-0.491-2.207-0.583-3.204c-0.02-0.213-0.048-0.425-0.08-0.636
				c-0.128-0.854-0.144-1.761-0.013-2.699c0.42-3.021,2.295-5.354,4.559-5.663c3.051-0.416,5.643,2.752,5.722,6.781
				c0.319-0.255,0.682-0.323,1.007-0.142c0.623,0.348,0.865,1.483,0.543,2.533c-0.324,1.052-1.09,1.622-1.713,1.272
				c-0.086-0.048-0.164-0.113-0.235-0.189c-0.192,3.438-2.22,6.158-4.716,6.192C193.794,225.572,191.949,224.037,191.175,221.3z"/>
			<path fill="#D78F8F" d="M194.432,216.039c0.098,0.38,0.149,0.776,0.166,1.181c0.009,0.202,0.006,0.407-0.016,0.615
				c-0.023,0.207-0.06,0.422-0.156,0.63c-0.114,0.196-0.174,0.261-0.19,0.419c-0.021,0.135,0.026,0.282,0.1,0.413
				c0.157,0.265,0.433,0.411,0.721,0.489c-0.286,0.076-0.627,0.028-0.882-0.284c-0.123-0.151-0.219-0.391-0.205-0.651
				c0.014-0.271,0.105-0.393,0.222-0.599c0.062-0.125,0.099-0.301,0.129-0.478c0.032-0.181,0.042-0.37,0.059-0.561
				C194.402,216.83,194.414,216.438,194.432,216.039z"/>
			<path fill="#333333" d="M196.141,216.558c-0.043,0.414,0.221,0.762,0.526,0.692c0.19-0.042,0.344-0.255,0.37-0.512
				c0.044-0.414-0.219-0.762-0.524-0.693C196.322,216.088,196.168,216.301,196.141,216.558z"/>
			<path fill="#333333" d="M192.256,216.954c-0.043,0.415,0.219,0.761,0.524,0.694c0.19-0.041,0.345-0.254,0.372-0.512
				c0.045-0.415-0.219-0.763-0.525-0.694C192.438,216.485,192.283,216.697,192.256,216.954z"/>
			<path opacity="0.3" fill="#D78F8F" d="M196.216,221.304c0,0-0.647-0.313-1.257,0.226c0,0-0.658-0.557-1.178-0.024
				c0,0,0.242,1.324,1.323,1.234C196.188,222.65,196.216,221.304,196.216,221.304z"/>
			<path fill="#D78F8F" d="M196.783,220.829c-0.123,0.135-0.25,0.257-0.385,0.364c-0.132,0.112-0.27,0.213-0.411,0.296
				c-0.283,0.168-0.582,0.286-0.888,0.321c-0.306,0.036-0.615-0.016-0.909-0.137c-0.294-0.128-0.571-0.326-0.834-0.562
				c0.117,0.143,0.243,0.273,0.376,0.39c0.135,0.115,0.28,0.207,0.428,0.288c0.15,0.077,0.307,0.133,0.467,0.162
				c0.16,0.028,0.322,0.034,0.482,0.018c0.322-0.04,0.635-0.17,0.918-0.369C196.309,221.399,196.57,221.146,196.783,220.829z"/>
			<path fill="#C85634" d="M195.605,215.246c0.234-0.085,0.452-0.146,0.668-0.182c0.215-0.034,0.426-0.031,0.629,0.012
				c0.202,0.048,0.404,0.117,0.6,0.247c0.146,0.07,0.506,0.379,0.6,0.44c-0.104-0.282-0.26-0.589-0.455-0.764
				c-0.193-0.215-0.439-0.345-0.691-0.399c-0.252-0.054-0.513-0.017-0.747,0.098C195.977,214.813,195.762,214.991,195.605,215.246z"
				/>
			<path fill="#C85634" d="M193.605,215.45c-0.178-0.228-0.406-0.369-0.647-0.445c-0.242-0.074-0.505-0.067-0.75,0.026
				c-0.245,0.097-0.478,0.266-0.65,0.511c-0.179,0.205-0.305,0.533-0.382,0.832c0.088-0.076,0.415-0.441,0.556-0.535
				c0.181-0.161,0.375-0.263,0.571-0.344c0.199-0.076,0.406-0.114,0.623-0.115C193.143,215.378,193.366,215.405,193.605,215.45z"/>
		</g>
	</g>
	<path fill="#E4B7B7" d="M202.913,258.558c0,0,1.393,8.852-4.927,10.953c-6.318,2.103-14.292,2.315-14.292,2.315l-0.147,20.619
		l-3.326,0.515c0,0-9.925-27.784,1.759-33.257l10.691-0.84l4.382-0.8c0,0,4.383-1.867,4.448-1.588S202.814,258.709,202.913,258.558z
		"/>
	<path fill="#E4B7B7" d="M208.789,258.104c0,0,1.393,8.852-4.926,10.954c-6.319,2.102-14.293,2.315-14.293,2.315l-0.147,20.618
		l-3.326,0.515c0,0-9.925-27.784,1.759-33.257l10.69-0.84l4.381-0.8c0,0,4.384-1.866,4.449-1.587
		C207.443,256.301,208.691,258.254,208.789,258.104z"/>
	<path fill="#E2AB51" d="M186.071,257.06c-5.328,0.11-10.188,4.242-11.917,12.269c-1.729,8.024-5.673,16.305-5.297,16.223
		c8.357,6.319,10.984-0.027,16.76,1.849c5.776,1.875,7.824,1.027,7.824,1.027c-1.672-11.327-3.871-17.054-3.871-17.054
		c0.485,0.117,14.66,0.4,18.162-4.842c0.982-1.471,1.734-3.319,1.584-7.839C209.037,250.281,187.617,257.028,186.071,257.06z"/>
	<path fill="#D7EAF2" d="M187.659,271.964c0.182-0.044,0.365-0.086,0.544-0.144c0.18-0.056,0.357-0.12,0.533-0.193
		c0.088-0.036,0.177-0.077,0.264-0.121c-0.092-0.025-0.18-0.06-0.268-0.103c-0.173-0.083-0.336-0.203-0.488-0.338
		c-0.147-0.146-0.287-0.304-0.409-0.486c-0.122-0.18-0.227-0.377-0.32-0.584l0.181,0.266c0.065,0.082,0.125,0.17,0.193,0.245
		c0.129,0.162,0.273,0.299,0.42,0.422c0.149,0.121,0.307,0.22,0.469,0.297c0.161,0.073,0.335,0.127,0.496,0.135l0.296,0.015
		l-0.262,0.164c-0.178,0.112-0.355,0.186-0.537,0.254c-0.182,0.069-0.366,0.117-0.55,0.16c-0.185,0.04-0.369,0.075-0.555,0.094
		c-0.187,0.019-0.373,0.03-0.559,0.03C187.293,272.04,187.477,272.01,187.659,271.964z"/>
	<path fill="#E4B7B7" d="M189.333,239.786c0,0-0.43,14.461-1.634,16.728l6.622-2.033v-15.74L189.333,239.786z"/>
	<path fill="#E2AB51" d="M192.01,241.761c0,0,1.066,3.641,1.234,5.572c0.416,4.802-0.036,8.19-0.771,10.924
		c-1.032,3.831,6.955,2.373,7.147,2.38c8.44,0.271,8.361-0.194,8.361-0.194l1.348-1.461c-0.188-4.685-0.667-8.733-0.593-12.911
		l0.077-4.31l-0.388-4.356l-11.947-1.271L192.01,241.761z"/>
	<g>
		<path fill="#EEEDEC" d="M187.919,244.976c0.729-1.533,6.706-4.137,6.706-4.137c0,2.488,0,2.596,0,2.596l-6.083,2.872
			L187.919,244.976z"/>
		<path fill="#EEEDEC" d="M187.919,244.976c0.729-1.533,6.706-4.137,6.706-4.137c0,2.488,0,2.596,0,2.596l-6.083,2.872
			L187.919,244.976z"/>
		<polygon fill="#FFFFFF" points="188.349,244.872 195.289,240.55 195.289,242.228 188.521,245.525 		"/>
		<polygon fill="#EEEDEC" points="188.734,244.872 196.06,241.129 196.06,244.021 188.808,245.525 		"/>
		<path fill="#FFFFFF" d="M187.919,244.577c0,0-1.413-4.462-1.991-5.388c0,2.935,0.878,6.626,0.878,6.626L187.919,244.577z"/>
		<polygon fill="#EEEDEC" points="187.303,244.773 185.591,238.929 185.591,241.714 186.767,245.525 		"/>
		<polygon fill="#FFFFFF" points="186.767,244.872 184.901,239.189 184.901,241.216 		"/>
		<polygon fill="#C65574" points="186.767,262.379 185.054,257.056 185.054,239.55 186.767,244.872 		"/>
		<polygon fill="#C75777" points="197.607,259.733 189.275,262.379 189.275,244.872 197.607,242.228 		"/>
		<path fill="#E0E0DF" d="M189.275,244.872c-0.734-0.475-2.271-0.308-2.508,0C186.893,245.873,189.089,246.068,189.275,244.872z"/>
		<path fill="#C54E68" d="M189.275,262.379c0,0.429-2.52,0.429-2.52,0v-17.507c0.255,0.509,2.236,0.494,2.52,0V262.379z"/>
	</g>
	<path fill="#E4B7B7" d="M211.314,238.039l-5.67,3.547c0,0-0.441,9.799-0.715,10.231c-0.496,0.784-5.523,3.033-8.173,3.689
		c-0.426,0.106-0.864,0.062-1.272-0.134c-1.313-0.626-3.639-1.755-4.006-1.922c-0.575-0.265-2.199-0.781-2.305-0.522
		c-0.098,0.242,1.265,0.423,2.067,0.961c0.113,0.076,0.007,0.269-0.021,0.26c-0.455-0.138-1.626-0.482-2.041-0.448
		c-0.509,0.045,1.177,0.466,2.026,1.006c0.059,0.038,0.063,0.296,0.006,0.339c-0.135,0.105-0.547,0.092-1.643-0.142
		c-1.827-0.388-0.145,0.53-0.145,0.53s0.173-0.006,1.757,0.256c0.058,0.011,0.079,0.247-0.025,0.316
		c-0.182,0.122-0.591,0.346-1.087,0.365c-0.617,0.025-0.239,0.375-0.239,0.375s1.169-0.051,1.789,0.104
		c0.464,0.116,2.563,1.116,3.43,1.496l0.106-0.18c1.202,0.379,12.279,1.473,13.625-2.968
		C211.253,247.039,211.314,238.039,211.314,238.039z"/>
	<path fill="#E2AB51" d="M194.699,227.358c0,0,3.211,5.062,6.894-1.074c0,0,4.024-0.443,6.991,2.404
		c2.968,2.846,4.744,9.237,4.744,9.237s-4.259,3.835-7.691,3.835l-8.049-3.895l-5.578,3.895c0,0-2.591-0.233-4.784-1.742
		C187.226,240.019,187.604,229.857,194.699,227.358z"/>
	<path fill="#192157" d="M204.658,235.993c0.139,0.627,0.262,1.261,0.387,1.894c0.23,1.244,0.443,2.428,0.6,3.699
		c0.291,0.019,0.619-0.038,0.906-0.094c1.551-0.373,2.568-0.959,3.947-1.723c2.068-1.271,1.789-1.148,2.83-1.844
		c-1.211,1.035-1.862,1.501-2.744,2.096c-1.209,0.757-2.363,1.458-3.989,1.845c-0.711,0.13-0.916,0.102-1.186,0.061
		c-0.105-0.933-0.226-1.888-0.556-3.98l-0.307-1.915l-0.316-1.914C204.384,234.737,204.521,235.365,204.658,235.993z"/>
	<path fill="#192157" d="M191.898,237.17c-0.094,0.653-0.158,1.517-0.136,2.321c0.011,0.376,0.216,1.428,0.452,2.493
		c-0.043,0.021-0.088,0.044-0.133,0.067c-0.273-1.071-0.509-2.145-0.539-2.535c-0.072-0.808-0.023-1.622,0.078-2.413
		c0.112-0.798,0.26-1.542,0.484-2.312c0.213-0.745,0.465-1.472,0.779-2.146c-0.209,0.743-0.4,1.489-0.572,2.242
		C192.146,235.642,191.998,236.4,191.898,237.17z"/>
	<path fill="#C85634" d="M200.78,215.879c0,0-5.514-1.795-8.147-6.856c0,0-0.046-4.607,5.016-3.563
		C202.566,206.476,203.717,212.938,200.78,215.879z"/>
</g>
</svg>
