<?xml version="1.0" encoding="utf-8"?>
<!-- Generator: Adobe Illustrator 16.0.0, SVG Export Plug-In . SVG Version: 6.00 Build 0)  -->
<!DOCTYPE svg PUBLIC "-//W3C//DTD SVG 1.1//EN" "http://www.w3.org/Graphics/SVG/1.1/DTD/svg11.dtd">
<svg version="1.1" id="Capa_1" xmlns="http://www.w3.org/2000/svg" xmlns:xlink="http://www.w3.org/1999/xlink" x="0px" y="0px"
	 width="400px" height="400px" viewBox="0 0 400 400" enable-background="new 0 0 400 400" xml:space="preserve">
<path fill="#F6E9DA" d="M291.787,267.005c0,0,6.172-60.007-57.059-60.007c-68.311,0-28.436-34.994-73.594-45.107
	c-39.856-8.927-65.316,29.723-48.729,54.009c11.939,17.479-36.796,27.166-30.969,51.468L291.787,267.005z"/>
<g>
	<path fill="#2B3961" d="M170.871,180.258c-0.32-0.516-3.993-5.965-13.839-1.902c0,0,5.047-1.638,6.928-0.146
		c0,0-4.549-0.841-6.768,1.087s-1.429,6.742-0.675,8.102c0.754,1.361,4.702,5.064,6.588,4.681c0.715-0.146,1.424-0.512,2.03-0.911
		c-0.093,0.82-0.142,1.7-0.125,2.65c0.149,8.797,8.054,13.898,10.891,11.664c1.819-1.434,4.224,1.484,4.224,1.484l12.027-23.855
		C192.15,183.112,176.832,172.702,170.871,180.258z"/>
	<path fill="#E0A780" d="M198.909,229.813c-2.521,1.557-5.683,2.841-9.65,3.655c-14.876,3.059-20.577-8.131-22.718-15.812
		c2.029-1.033,3.937-1.261,5.04-1.377c1.075-0.114,2.207-0.19,3.143-0.23c1.67-1.14,4.16-5.799,4.711-13.034l0.699,0.165
		l11.725,2.856c0,0-0.537,3.317-0.801,6.452c-0.203,2.453-0.236,4.798,0.287,5.371c0.914,0.178,1.464,0.292,1.464,0.292
		s0,0.004,0.006,0.01C192.971,218.392,196.373,223.369,198.909,229.813z"/>
	<path fill="#D89061" d="M191.858,206.039c0,0-0.54,3.313-0.801,6.451c-6.642-0.592-9.725-6.221-10.925-9.308L191.858,206.039z"/>
	<path fill="#E0A780" d="M195.482,207.187c0,0-15.333,3.354-17.533-5.176s-5.661-13.842,4.035-16.345
		c9.697-2.502,12.446,0.363,13.958,3.051C197.455,191.405,199.415,206.095,195.482,207.187z"/>
	<path fill="#2B3961" d="M194.268,184.066c-3.037-2.083-4.691-1.155-5.501-0.178c-9.468-2.406-13.327,4.782-13.327,4.782
		c0.541,6.332-3.52,10.847-3.52,10.847s3.201,0.972,9.289-1.823c1.859-0.854,3.303-2.462,4.412-4.282
		c-1.615,4.437-4.455,7.974-4.455,7.974c6.91-4.748,7.557-14.941,7.607-16.015c1.132,0.56,3.402,1.815,4.377,3.299
		c1.326,2.018,2.818,6.42,4.244,5.97C197.395,194.639,198.824,187.189,194.268,184.066z"/>
	<path fill="#D88D4F" d="M198.909,219.244c-2.142-1.015-4.896-1.766-7.894-2.32c0,0-1.545,3.54-6.252,3.464
		c-4.474-0.073-8.899-4.476-9.33-4.915c-5.125-0.146-8.893-0.002-8.893-0.002s-10.794,15.033-9.458,18.514
		c0.881,2.294,1.574,4.561,2.114,6.766c2.511,10.256,1.716,19.188,1.077,23.371c-0.246,1.616-0.471,2.522-0.471,2.522l34,0.703
		c0,0,2.817-8.925,4.905-16.538c0.063-0.229,0.124-0.458,0.187-0.683c1.415,2.597,5.433,6.501,7.251,6.808
		c0.107,0.018,0.617,0.028,1.352,0.034c2.723,0.02,7.989,0.052,7.989,0.052C216.499,249.845,203.331,220.95,198.909,219.244z"/>
	<path fill="#D17839" d="M160.274,264.121c0.639-4.184,1.434-13.115-1.077-23.371c0.01-0.118,0.015-0.181,0.015-0.181
		s9.301,7.907,10.909,16.177C171.218,262.392,164.521,263.862,160.274,264.121z"/>
	<path fill="#E0A780" d="M186.643,256.746c-0.191-0.545-3.277-3.345-4.949-3.688c-1.672-0.344-7.19,0.785-7.19,0.785l0,0.001
		c-3.424-0.406-11.232-1.497-20.377-3.859c-1.611-0.416-3.264-0.872-4.941-1.371l13.93-11.177l12.32-21.965
		c0,0-10.447-0.733-13.092,0.669c-9.514,5.047-27.143,34.504-26.808,40.604c0,0,4.466,0.22,12.622,0.312
		c6.266,0.072,14.714,0.068,24.987-0.166c0,0,1.129-0.006,2.316-0.146H186.643z"/>
	<path fill="#D88D4F" d="M163.114,237.438l-12.286,11.309c1.21,0.408,2.475,0.99,3.298,1.239c0,0-1.123,4.301-5.971,7.072
		c-8.156-0.092-12.622-0.312-12.622-0.312c-0.334-6.101,17.294-35.558,26.808-40.604c2.645-1.402,13.092-0.669,13.092-0.669
		L163.114,237.438z"/>
	<path fill="#D17839" d="M215.487,257.02c-0.734-0.006-9.233-0.068-9.341-0.086c-1.818-0.307-5.836-4.211-7.251-6.808
		c-0.063,0.225,0.45-2.458,0.926-3.546c1.026-2.346,2.396-4.336,2.396-4.336C207.1,241.589,215.5,252.893,215.487,257.02z"/>
	<path fill="#E0A780" d="M215.197,250.2c-1.082-7.3-3.395-19.943-7.942-34.497l-0.028-0.002c-0.268-0.918-2.377-8.091-3.26-8.876
		c-0.943-0.839-5.914-2.598-6.771-2.786c0,0-0.139,0.508,0.375,0.908c0.15,0.117,0.438,0.298,0.785,0.501l-1.178,0.563
		c0,0,0.443,0.344,1.102,0.257c0.314-0.039,0.742-0.144,1.104-0.242c0.243,0.132,0.484,0.261,0.703,0.374
		c0.371,0.312,0.811,0.707,0.848,0.848c0.045,0.166,0.205,0.9,0.305,1.363c-0.182-0.143-0.339-0.289-0.441-0.43
		c-0.471-0.648-1.457-0.582-1.457-0.582s1.35,1.509,1.477,2.487c0.195,1.49,1.129,2.271,1.129,2.271l0,0
		c0.344,0.358,0.828,0.682,1.236,1.436c0.299,0.552,0.416,1.609,0.499,2.217l0,0c0.202,2.201,0.896,10.308,0.706,16.277
		c-0.254,8.034-1.109,15.236-0.096,19.704c0.264,1.157,0.65,2.131,1.206,2.889c2.212,3.021,9.99,2.139,9.99,2.139
		S215.821,254.407,215.197,250.2z"/>
	<path fill="#D88D4F" d="M215.487,257.02c0,0-7.778,0.882-9.99-2.139c-0.556-0.758-0.942-1.731-1.206-2.889
		c1.668,0.372,6.232,1,10.906-1.792C215.821,254.407,215.487,257.02,215.487,257.02z"/>
</g>
<g>
	<g>
		<path fill="#7DAB75" d="M273.923,253.259c0,0-6.327-6.567-0.39-10.739c0,0,4.334-2.335,7.869-2.146c0,0-5.009,7.476-3.389,8.218
			c1.621,0.744,4.908-8.688,4.908-8.688s9.865-0.852,13.039,0.507c0,0-8.435,6.143-6.658,6.508
			c1.776,0.366,10.887-5.663,10.887-5.663s9.184,1.392,8.693,6.376c-0.49,4.985-3.654,6.524-5.045,6.392
			c-1.391-0.132-9.525-2.896-9.702-1.882c-0.178,1.015,4.719,4.329,8.148,4.482c0,0-6.475,6.355-10.776,4.521
			c-4.303-1.833-4.67-4.74-7.353-5.831c-2.682-1.09-4.972-1.087-3.864,0.024c1.107,1.112,5.961,2.192,7.496,4.607
			c1.533,2.414,2.909,4.043-1.542,3.447c-4.452-0.597-11.687-3.496-12.005-6.814C273.923,253.259,273.923,253.259,273.923,253.259z"
			/>
		<g>
			<path fill="#7DAB75" d="M304.371,247.767c0,0-24.94-0.854-30.448,5.492c0,0-1.219,3.248-4.967,6.204l-0.585,1.417
				c0,0,4.322-4.056,5.869-4.301C274.24,256.579,271.822,248.715,304.371,247.767z"/>
			<path fill="#7DAB75" d="M269.996,259.433c-0.216,0.21-0.536,0.493-0.993,0.871c-0.009,0.007-0.016,0.014-0.024,0.021
				c-0.149,0.124-0.295,0.255-0.435,0.396c-0.89,0.878-1.648,2.067-2.274,3.283c-0.124,0.24-0.244,0.482-0.356,0.723h-1.457
				c0.123-0.249,0.251-0.489,0.386-0.723c1.697-2.95,4.113-4.541,4.113-4.541s0.001-0.001,0.002-0.001
				C269.049,259.412,271.205,258.252,269.996,259.433z"/>
		</g>
	</g>
	<g>
		<path fill="#A2C599" d="M256.459,244.851c0,0,10.063-5.015,5.367-11.821c0,0-3.757-4.179-7.781-5.253c0,0,2.147,10.148,0,10.388
			c-2.146,0.238-1.477-11.463-1.477-11.463s-10.6-4.537-14.758-4.179c0,0,6.574,9.91,4.427,9.671
			c-2.146-0.238-9.524-10.269-9.524-10.269s-10.868-1.791-12.611,3.94c-1.745,5.731,1.072,8.598,2.683,8.956
			s11.941,0.238,11.672,1.433c-0.269,1.193-7.244,3.104-11.135,2.029c0,0,4.293,9.433,9.928,8.955s7.379-3.581,10.867-3.82
			s6.038,0.597,4.293,1.433c-1.744,0.836-7.646,0.273-10.464,2.406c-2.818,2.131-5.1,3.444,0.134,4.399
			c5.232,0.955,14.623,0.359,16.502-3.224C256.459,244.851,256.459,244.851,256.459,244.851z"/>
		<g>
			<path fill="#7DAB75" d="M225.065,227.656c0,0,28.174,8.12,31.394,17.194c0,0-0.133,4.06,2.685,8.717v1.791
				c0,0-2.951-6.089-4.563-6.926C254.581,248.433,260.887,240.552,225.065,227.656z"/>
			<path fill="#7DAB75" d="M261.637,264.004c-0.034,0.239-0.073,0.48-0.122,0.723h-1.465c0.017-0.223,0.034-0.465,0.048-0.723
				c0.133-2.422,0.104-6.231-1.057-8.849c-0.004-0.012-0.009-0.022-0.015-0.033c-0.099-0.222-0.206-0.434-0.322-0.636
				c-0.002-0.005-0.005-0.009-0.008-0.014c-0.331-0.576-0.555-1.003-0.696-1.313c0,0,0-0.002-0.002-0.003
				c-0.807-1.759,1.059,0.313,1.143,0.407c0,0.002,0.001,0.003,0.001,0.003S262.481,258.076,261.637,264.004z"/>
		</g>
	</g>
	<g>
		<path fill="#A2C599" d="M268.583,234.608c0,0-13.265-6.609-7.074-15.583c0,0,4.952-5.509,10.258-6.925c0,0-2.829,13.379,0,13.694
			c2.829,0.314,1.944-15.109,1.944-15.109s13.973-5.982,19.454-5.509c0,0-8.665,13.063-5.836,12.748
			c2.83-0.315,12.557-13.537,12.557-13.537s14.325-2.359,16.625,5.195c2.299,7.554-1.415,11.332-3.537,11.806
			c-2.123,0.472-15.741,0.313-15.388,1.888c0.354,1.574,9.552,4.093,14.68,2.676c0,0-5.659,12.435-13.087,11.805
			s-9.728-4.723-14.325-5.036c-4.599-0.315-7.959,0.787-5.659,1.888c2.3,1.103,10.08,0.361,13.795,3.171
			c3.713,2.811,6.72,4.542-0.177,5.801c-6.898,1.26-19.277,0.472-21.753-4.249C268.583,234.608,268.583,234.608,268.583,234.608z"/>
		<g>
			<path fill="#7DAB75" d="M309.966,211.943c0,0-37.138,10.703-41.383,22.665c0,0,0.177,5.352-3.536,11.489v2.361
				c0,0,3.891-8.026,6.013-9.128C271.06,239.331,262.747,228.943,309.966,211.943z"/>
			<path fill="#7DAB75" d="M265.047,246.098c0,0-5.729,7.741-2.462,17.164l1.472-0.352c0,0-1.43-10.379,1.566-15.599
				S265.047,246.098,265.047,246.098z"/>
		</g>
	</g>
</g>
<g>
	<path fill="#2B3961" d="M245,256.934H110.67c-6.293,0-11.396,4.541-11.396,10.143l0,0h157.121l0,0
		C256.396,261.475,251.292,256.934,245,256.934z"/>
	<path fill="#2A4484" d="M261.457,256.934H127.129c-6.294,0-11.396,4.541-11.396,10.143l0,0h157.12l0,0
		C272.853,261.475,267.751,256.934,261.457,256.934z"/>
</g>
<path fill="#0C090C" stroke="#0A080B" stroke-miterlimit="10" d="M185.612,195.918c0.99,0.442,2.177,0.9,2.78,1.297
	c-1.297-0.223-2.313-0.84-3.49-1.297"/>
</svg>
