<?xml version="1.0" encoding="utf-8"?>
<!-- Generator: Adobe Illustrator 16.0.0, SVG Export Plug-In . SVG Version: 6.00 Build 0)  -->
<!DOCTYPE svg PUBLIC "-//W3C//DTD SVG 1.1//EN" "http://www.w3.org/Graphics/SVG/1.1/DTD/svg11.dtd">
<svg version="1.1" id="Capa_1" xmlns="http://www.w3.org/2000/svg" xmlns:xlink="http://www.w3.org/1999/xlink" x="0px" y="0px"
	 width="800px" height="800px" viewBox="0 0 800 800" enable-background="new 0 0 800 800" xml:space="preserve">
<g>
	<ellipse opacity="0.05" fill="#333333" cx="471.385" cy="575.934" rx="71.385" ry="7.779"/>
	<g>
		<g>
			<path fill="#CC9864" d="M491.729,544.422c5.98-0.078,15.548,0.078,21.528,0c0.328,3.867,1.079,8.352,4.231,10.479
				c0.272,0.184,0.557,0.355,0.864,0.5c1.157,0.549,2.454,0.736,3.732,0.881c1.294,0.148,2.599,0.262,3.904,0.383
				c3.775,0.355,7.546,0.783,10.963,2.324c3.753,1.697,6.769,4.779,8.526,8.408c0.801,1.656,1.602,3.438,1.444,5.313
				c-0.197,2.348-2.36,2.797-4.469,3.236c-13.719,2.859-27.909,2.117-41.854,0.637c-2.843-0.301-7.17-1.238-9.527-2.492
				c-0.104-0.055-0.2-0.111-0.284-0.174c-0.854-0.6-0.804-1.438-0.891-2.691C489.827,570.111,488.632,544.463,491.729,544.422z"/>
			<path fill="#CC9864" d="M518.063,574.346c9.684,0.146,19.339-0.951,28.846-2.676c0.032,0.344,0.044,0.689,0.015,1.039
				c-0.197,2.348-2.36,2.797-4.469,3.236c-13.719,2.859-27.909,2.117-41.854,0.637c-2.843-0.301-7.17-1.238-9.527-2.492
				c-0.104-0.055-0.2-0.111-0.284-0.174c-0.854-0.6-0.804-1.438-0.891-2.691c-0.009-0.141-0.035-0.68-0.069-1.51
				C498.797,572.773,508.449,574.199,518.063,574.346z"/>
		</g>
		<g>
			<path fill="#CC9864" d="M403.962,570.199c1.77-3.623,4.797-6.695,8.556-8.379c3.358-1.502,7.057-1.93,10.766-2.268
				c1.375-0.123,2.75-0.238,4.112-0.389c1.271-0.141,2.562-0.324,3.716-0.859c0.006-0.004,0.012-0.006,0.018-0.008
				c3.9-1.83,4.797-10.469,5.275-14.656c0.012-0.109,10.354,0.42,11.302,0.459c1.731,0.07,3.579,0.336,5.29,0.074
				c1.384-0.213,2.559-0.51,4.023-0.422c0.208,0.014,0.438,0.035,0.594,0.174c0.177,0.154,0.215,0.404,0.238,0.635
				c0.511,4.732,0.27,9.494,0.272,14.242c0.003,2.061,0.044,11.963-0.058,13.055c-0.062,0.676-0.244,1.199-0.52,1.611
				c-0.899,1.359-2.799,1.525-4.698,2.018c-2.422,0.625-4.878,1.172-7.35,1.586c-13.825,2.316-24.692,3.609-38.544,1.688
				c-2.132-0.297-4.483-0.305-4.673-2.648C402.132,574.232,403.153,571.854,403.962,570.199z"/>
			<path fill="#CC9864" d="M447.295,573.045c3.683-0.865,7.357-1.945,10.823-3.428c-0.012,1.127-0.026,1.965-0.052,2.24
				c-0.062,0.676-0.244,1.199-0.52,1.611c-0.899,1.359-2.799,1.525-4.698,2.018c-2.422,0.625-4.878,1.172-7.35,1.586
				c-13.825,2.316-24.692,3.609-38.544,1.688c-2.132-0.297-4.483-0.305-4.673-2.648c-0.037-0.482,0.004-0.998,0.096-1.525
				C417.26,576.99,432.631,576.492,447.295,573.045z"/>
		</g>
		<g>
			<path fill="#4E5D60" d="M514.415,346.697c-0.15-0.419-0.308-0.837-0.467-1.255c-0.664-1.735-1.482-3.572-3.109-4.529
				c-3.646-2.142-7.731-2.013-11.845-2.167c-11.783-0.442-23.593-0.216-35.351,0.673c-3.426,0.258-10.566-0.6-12.944,2.259
				c-0.8,0.963-1.247,2.151-1.653,3.323c-1.649,4.742-3.266,9.837-3.756,14.81c-3.491,35.249-6.383,64.734-8.251,99.968
				c-1.479,27.922-2.886,65.676-4.364,93.596c5.545,4.256,17.16,4.521,26.311-0.02c0.786-0.391,1.731-15.086,2.12-17
				c1.07-5.23,1.662-10.604,2.471-15.877c1.674-10.916,3.283-21.842,4.707-32.793c2.799-21.537,4.899-43.188,5.395-64.904
				c0.296-13.023,2.46-24.089,5.479-36.639c-1.287,5.35,1.273,14.468,1.772,20.209c0.638,7.344,1.271,14.689,1.879,22.037
				c1.219,14.729,2.35,29.463,3.283,44.211c0.935,14.748,1.677,29.506,2.114,44.275c0.218,7.371,0.36,14.744,0.415,22.117
				c0.015,2.104-1.154,12.49,0.125,14.094c0.994,1.248,6.392,2.023,7.976,2.281c6.047,0.979,14.429,0.244,19.776-2.803
				c-0.02-11.539-0.806-25.936-0.484-37.475c0.81-28.842,0.94-58.34,1.749-87.184c0.403-14.412,0.531-28.858,1.21-43.26
				C519.574,371.834,518.826,358.932,514.415,346.697z"/>
			<g>
				
					<path fill="none" stroke="#333333" stroke-width="0.5" stroke-linecap="round" stroke-linejoin="round" stroke-miterlimit="10" d="
					M479.311,385.468c-5.891-1.201-11.929-1.715-17.941-1.529"/>
				
					<path fill="none" stroke="#333333" stroke-width="0.5" stroke-linecap="round" stroke-linejoin="round" stroke-miterlimit="10" d="
					M477.573,384.92c-0.925-9.159-0.604-18.436,0.954-27.514"/>
				
					<path fill="none" stroke="#333333" stroke-width="0.5" stroke-linecap="round" stroke-linejoin="round" stroke-miterlimit="10" d="
					M471.874,383.894c-1.16-8.356-1.281-16.851-0.365-25.237"/>
				
					<path fill="none" stroke="#333333" stroke-width="0.5" stroke-linecap="round" stroke-linejoin="round" stroke-miterlimit="10" d="
					M475.091,384.728c-5.815,24.543-7.816,49.737-9.371,74.819c-1.926,31.072-4.962,64.795-10.789,95.225"/>
				
					<path fill="none" stroke="#333333" stroke-width="0.5" stroke-linecap="round" stroke-linejoin="round" stroke-miterlimit="10" d="
					M476.279,387.457c-7.671-0.19-15.356,0.014-23.007,0.613"/>
				
					<path fill="none" stroke="#333333" stroke-width="0.5" stroke-linecap="round" stroke-linejoin="round" stroke-miterlimit="10" d="
					M517.809,375.268c-3.646-1.961-6.225-5.395-8.115-9.006c-3.944-7.535-5.319-16.055-6.642-24.413"/>
			</g>
		</g>
		<g>
			<g>
				<g>
					<path fill="#F4E6D7" d="M531.19,275.026c-0.186-4.213-0.624-8.421-1.117-12.59c-0.432-3.651-1.589-7.178-3.454-10.375
						c-1.227-2.1-3.219-4.042-2.45-6.671c0.203-0.688,0.563-1.37,0.461-2.078c-0.174-1.218-1.563-1.841-2.764-2.222
						c-8.89-2.82-17.509-3.771-26.738-4.256c-6.763-0.354-13.544-0.063-20.293,0.403c-8.329,0.576-17.821,1.749-25.174,5.867
						c-2.532,1.417-4.641,3.868-4.817,6.705c-0.026,0.42-0.012,0.847-0.11,1.258c-0.15,0.634-0.563,1.175-0.948,1.706
						c-2.816,3.874-5.27,8.764-6.502,13.342c-2.805,10.443-5.389,22.467-3.797,33.292c0.146,0.981,0.371,2.034,1.128,2.696
						c0.989,0.862,2.497,0.749,3.803,0.513c3.735-0.674,7.36-1.927,10.702-3.698c3.074-1.63,2.645,2.453,2.697,4.262
						c0.168,5.875,0.533,12.209-0.682,17.997c-1.36,6.463-3.896,12.843-5.574,19.254c-0.334,1.277-0.645,2.699,0.006,3.854
						c0.498,0.885,1.464,1.425,2.067,2.245c1.621,2.207,0.76,3.74,3.394,5.178c2.303,1.257,4.725,2.315,7.201,3.198
						c4.962,1.769,10.186,2.801,15.452,3.167c10.798,0.75,21.787-1.252,31.671-5.509c3.248-1.4,10.708-5.294,9.786-9.727
						c-0.285-1.361-1.512-2.58-1.192-3.934c0.134-0.562,0.522-1.039,0.676-1.595c0.267-0.964-0.209-1.953-0.537-2.898
						c-0.516-1.489-0.679-3.068-0.82-4.632c-0.49-5.399-0.783-10.816-0.879-16.236c-0.046-2.622-0.046-5.246,0-7.868
						c0.035-2.012-0.542-5.576,0.345-7.401c2.651-5.444,10.584,2.352,13.644,3.376c1.627,0.544,3.506,0.605,4.997-0.227
						c0.623-0.348,1.2-0.929,1.194-1.629c-0.006-0.462-0.264-0.898-0.246-1.36c0.038-1.011,1.285-1.53,1.761-2.43
						c0.791-1.5-0.763-3.077-1.683-4.505c-1.592-2.467-1.352-5.604-1.206-8.514C531.323,280.336,531.306,277.679,531.19,275.026z"/>
					<path fill="#F2B27E" d="M498.084,240.101c0.133,2.762-19.513,12.137-19.513,12.137s-8.994-8.068-9.128-10.83
						c-0.13-2.761,6.204-3.697,14.003-4.051C491.242,237.002,497.95,237.34,498.084,240.101z"/>
				</g>
				<g>
					
						<path fill="none" stroke="#333333" stroke-width="0.5" stroke-linecap="round" stroke-linejoin="round" stroke-miterlimit="10" d="
						M451.558,287.442c0.073-3.719,0.473-7.43,1.189-11.083c0.345-1.757,1.189-3.68,1.316-5.444c0.11-1.513-0.234-2.674,0.215-4.285
						c0.362-1.293,0.38-2.677,0.053-3.979"/>
					
						<path fill="none" stroke="#333333" stroke-width="0.5" stroke-linecap="round" stroke-linejoin="round" stroke-miterlimit="10" d="
						M508.049,286.97c-1.215-1.265-1.131-3.493,0.171-4.669c0.67-0.605,1.68-1.096,1.691-1.986c0.006-0.372-0.177-0.716-0.322-1.061
						c-0.316-0.761-0.443-1.595-0.371-2.413c0.055-0.604,0.218-1.196,0.267-1.801c0.102-1.236-0.27-2.456-0.571-3.66
						c-0.945-3.803-1.184-7.733-1.418-11.639"/>
					
						<path fill="none" stroke="#333333" stroke-width="0.5" stroke-linecap="round" stroke-linejoin="round" stroke-miterlimit="10" d="
						M508.841,253.787c1.319-2.873,3.448-5.389,6.091-7.2"/>
					
						<path fill="none" stroke="#333333" stroke-width="0.5" stroke-linecap="round" stroke-linejoin="round" stroke-miterlimit="10" d="
						M478.687,252.906c-0.374,9.869-1.148,18.63-1.525,28.5c-0.113,2.992-0.226,5.994-0.733,8.946
						c-0.636,3.724-1.892,7.34-2.314,11.092c-0.934,8.25,2.192,16.436,2.312,24.736c0.015,0.993-0.021,2.018-0.436,2.925
						c-0.423,0.92-1.209,1.655-1.586,2.596c-1.235,3.102,2.465,6.167,2.291,9.491c-0.162,3.107-3.622,5.297-3.9,8.396
						c-0.293,3.254,2.97,5.766,3.764,8.94"/>
					
						<path fill="none" stroke="#333333" stroke-width="0.5" stroke-linecap="round" stroke-linejoin="round" stroke-miterlimit="10" d="
						M460.082,339.063c14.469,4.834,30.902,3.813,44.626-2.769"/>
					
						<path fill="none" stroke="#333333" stroke-width="0.5" stroke-linecap="round" stroke-linejoin="round" stroke-miterlimit="10" d="
						M466.462,325.175c9.356,3.171,20.079,2.28,28.745-2.39"/>
					
						<path fill="none" stroke="#333333" stroke-width="0.5" stroke-linecap="round" stroke-linejoin="round" stroke-miterlimit="10" d="
						M447.35,247.448c1.902,3.326,3.439,6.85,4.573,10.494"/>
					
						<path fill="none" stroke="#333333" stroke-width="0.5" stroke-linecap="round" stroke-linejoin="round" stroke-miterlimit="10" d="
						M478.687,252.906c0.717-1.683,3.139-2.095,4.826-1.31c1.686,0.785,2.796,2.375,3.825,3.896
						c1.561,2.303,3.121,4.605,4.682,6.908c2.555-3.868,4.663-8.018,6.265-12.346c1.012-2.73,1.818-5.765,0.789-8.488
						c-0.375-0.992-1.135-1.991-2.217-2.084"/>
					
						<path fill="none" stroke="#333333" stroke-width="0.5" stroke-linecap="round" stroke-linejoin="round" stroke-miterlimit="10" d="
						M478.42,252.856c-0.371-0.981-1.465-1.57-2.535-1.64c-1.072-0.07-2.122,0.288-3.103,0.716
						c-3.052,1.335-5.754,3.415-7.793,5.998c-0.574-3.405-1.151-6.886-0.549-10.286c0.601-3.399,2.613-6.764,5.879-8.102"/>
					
						<path fill="none" stroke="#333333" stroke-width="0.5" stroke-linecap="round" stroke-linejoin="round" stroke-miterlimit="10" d="
						M512.806,281.044c4.797-0.369,9.725,1.687,12.761,5.324"/>
					
						<path fill="none" stroke="#333333" stroke-width="0.5" stroke-linecap="round" stroke-linejoin="round" stroke-miterlimit="10" d="
						M449.075,286.385c-3.895,0.386-7.68,1.783-10.858,4.007"/>
				</g>
			</g>
			<g>
				<g>
					<path fill="#E8D5C4" d="M454.311,288.568c-2.95-2.065-8.994,0.091-11.737,1.579c-3.257,1.765-5.96,4.366-8.295,7.194
						c-1.409,1.708-2.738,3.595-3.083,5.76c-0.49,3.083,1.232,4.77,3.75,6.1c2.216,1.17,3.077,3.199,5.069,4.616
						c1.447,1.028,3.402,1.18,5.148,0.782c1.743-0.398,3.323-1.287,4.846-2.204c3.542-2.133,7.637-4.625,9.792-8.217
						c2.479-4.129,0.777-8.988-1.013-13.038c-0.203-0.457-0.426-0.941-0.858-1.208c-0.641-0.394-1.499-0.171-2.213-0.418
						C455.178,289.326,454.777,288.895,454.311,288.568z"/>
					<path fill="#E8D5C4" d="M506.564,289.253c-0.363-1.082,0.814-2.051,1.896-2.478c1.372-0.54,2.851-0.808,4.33-0.783
						c3.953,0.064,7.549,2.162,10.771,4.393c3.188,2.205,6.334,4.733,7.987,8.182c1.653,3.449,1.389,8.035-1.569,10.521
						c-0.922,0.775-2.044,1.308-2.915,2.137c-0.56,0.533-1,1.174-1.554,1.714c-1.073,1.048-2.506,1.657-3.904,2.241
						c-1.053,0.441-2.146,0.891-3.294,0.867c-2.248-0.045-4-1.835-5.424-3.528C510.561,309.754,495.802,289.634,506.564,289.253z"/>
					<g>
						<path fill="#EAA673" d="M482.478,312.86c-13.176,0.138-26.65,0.126-39.162-3.332c-3.098-0.856-3.144-1.563-2.065-4.45
							c0.786-2.104,1.973-4.067,3.489-5.751c2.26-2.509,6.854-5.82,10.534-4.659c1.899,0.599,3.613,1.917,5.614,2.505
							c1.912,0.561,3.872,0.952,5.777,1.527c9.504,2.868,19.009,5.736,28.513,8.604c2.428,0.733,13.475,3.352,6.755,5.272
							c-2.572,0.736-6.979,0.12-9.742,0.161C488.954,312.786,485.717,312.82,482.478,312.86z"/>
						<path fill="#F2B27E" d="M518.09,297.695c1.331,1.299,2.494,2.755,3.422,4.359c2.506,4.325,0.911,8.363-3.326,10.854
							c-2.654,1.56-8.118,1.271-11.064,0.843c-6.578-0.955-12.828-3.037-18.95-5.222c-10.786-3.849-21.375-8.068-31.727-12.639
							c-0.722-0.319-1.511-0.708-1.714-1.348c-0.22-0.69,0.343-1.375,0.983-1.854c2.114-1.58,5.171-1.992,8.048-2.263
							c7.675-0.724,15.39-0.938,23.095-0.899c7.965,0.041,15.865-0.224,23.33,2.98C513.104,293.757,515.839,295.503,518.09,297.695z
							"/>
					</g>
				</g>
				<g>
					
						<path fill="none" stroke="#333333" stroke-width="0.5" stroke-linecap="round" stroke-linejoin="round" stroke-miterlimit="10" d="
						M510.369,289.49c7.653,0.916,14.809,5.239,19.046,11.513"/>
					
						<path fill="none" stroke="#333333" stroke-width="0.5" stroke-linecap="round" stroke-linejoin="round" stroke-miterlimit="10" d="
						M453.295,292.272c-6.003,1.143-11.552,4.434-15.345,9.105"/>
				</g>
			</g>
		</g>
		<g>
			<g>
				<path fill="#CE802C" d="M506.953,209.266c-3.559,4.651-8.716,8.122-14.44,9.721c-4.571,1.276-9.598,1.347-13.994-0.42
					c-2.856-1.148-5.2-3.148-7.964-4.411c-3.106-1.42-6.265-2.858-9.264-4.514c-9.478-5.231-16.36-14.709-18.266-25.151
					c-0.365-2.009-0.548-4.121,0.122-6.052c0.551-1.578,1.633-2.922,2.758-4.176c4.771-5.311,10.717-9.615,17.312-12.533
					c3.086-1.364,6.325-2.432,9.673-2.925c12.123-1.784,24.635,4.503,31.729,14.235c3.741,5.132,6.107,11.119,7.25,17.294
					C513.104,196.993,511.097,203.847,506.953,209.266z"/>
				<g>
					<g>
						<g>
							<defs>
								<path id="XMLID_90_" d="M495.059,238.409c0,3.929-1.842,7.508-11.157,7.508s-11.157-3.453-11.157-7.508
									c0-4.056-1.372-19.598-1.372-19.598h25.056C496.428,218.811,495.059,234.48,495.059,238.409z"/>
							</defs>
							<use xlink:href="#XMLID_90_"  overflow="visible" fill="#F2B27E"/>
							<clipPath id="XMLID_2_">
								<use xlink:href="#XMLID_90_"  overflow="visible"/>
							</clipPath>
							<ellipse clip-path="url(#XMLID_2_)" fill="#FFE3C0" cx="477.443" cy="215.359" rx="21.43" ry="19.979"/>
						</g>
						<path fill="#F2B27E" d="M513.226,191.238c0.131-9.754-2.604-19.577-8.213-27.092c-5.395-7.23-13.681-11.503-23.516-11.769
							c-9.832-0.265-17.451,2.755-23.541,8.532c-6.711,6.368-10.003,15.833-9.214,24.924c0.345,3.987,1.421,7.897,1.627,11.894
							c0.374,7.23-2.077,14.739,0.371,21.573c2.114,5.895,7.688,10.197,13.813,12.044c6.126,1.847,12.747,1.51,19.04,0.32
							c8.922-1.686,16.338-7.857,21.587-14.96C510.416,209.619,513.102,200.459,513.226,191.238z"/>
						<g>
							<g>
								
									<path fill="none" stroke="#333333" stroke-width="0.5" stroke-linecap="round" stroke-linejoin="round" stroke-miterlimit="10" d="
									M469.325,191.364c0.386,3.481-0.232,7.062-1.764,10.228c-0.844,1.748-1.992,3.497-1.877,5.425
									c0.079,1.305,0.78,2.563,1.862,3.336c1.082,0.773,2.523,1.049,3.825,0.732"/>
								
									<path fill="none" stroke="#333333" stroke-width="0.5" stroke-linecap="round" stroke-linejoin="round" stroke-miterlimit="10" d="
									M470.253,217.847c4.13,0.438,8.422-0.866,11.563-3.514"/>
								
									<path fill="none" stroke="#333333" stroke-width="0.5" stroke-linecap="round" stroke-linejoin="round" stroke-miterlimit="10" d="
									M474.818,221.518c1.406,0.044,2.821-0.36,3.979-1.136"/>
							</g>
							<ellipse fill="#38322E" cx="483.199" cy="198.196" rx="3.176" ry="3.093"/>
							<path fill="#38322E" d="M465.677,198.196c0,1.708-1.425,3.093-3.176,3.093c-1.755,0-3.179-1.384-3.179-3.093
								c0-1.708,1.424-3.092,3.179-3.092C464.252,195.104,465.677,196.489,465.677,198.196z"/>
						</g>
						<g>
							<ellipse fill="#E89777" cx="491.744" cy="208.947" rx="6.563" ry="6.389"/>
							<path fill="#E89777" d="M463.728,208.947c0,3.529-2.938,6.389-6.563,6.389c-3.622,0-6.563-2.86-6.563-6.389
								s2.941-6.389,6.563-6.389C460.789,202.558,463.728,205.418,463.728,208.947z"/>
						</g>
					</g>
					<g>
						<path fill="#CE802C" d="M484.641,184.146c-4.19-1.476-7.151,0.824-7.503,3.086c0,0,2.604-0.836,6.563-0.254
							c3.962,0.582,7.173,2.274,7.173,2.274S488.838,185.623,484.641,184.146z"/>
						<path fill="#CE802C" d="M459.589,184.146c4.193-1.476,7.154,0.824,7.506,3.086c0,0-2.604-0.836-6.563-0.254
							c-3.962,0.582-7.175,2.274-7.175,2.274S455.395,185.623,459.589,184.146z"/>
					</g>
				</g>
			</g>
			<path fill="#CE802C" d="M507.722,158.14c-0.92-3.742-3.887-6.802-7.404-8.553c-3.519-1.751-7.547-2.321-11.497-2.362
				c-8.701-0.091-17.219,2.242-25.548,4.687c-6.111,1.793-12.199,3.657-18.205,5.757c-1.856,0.648-3.771,1.359-5.157,2.726
				c-1.05,1.033-1.723,2.375-2.187,3.755c-0.995,2.965-1.067,6.252,0.003,9.193c1.839,5.047,6.877,8.552,12.236,9.763
				c5.356,1.21,10.998,0.418,16.291-1.032c5.296-1.45,10.386-3.546,15.679-5.011c5.29-1.464,10.922-2.284,16.29-1.115
				c-1.073,5.128-0.177,10.623,2.475,15.175c1.415,2.43,3.338,4.664,3.984,7.385c0.278,1.187,0.305,2.424,0.652,3.593
				c0.352,1.168,1.132,2.323,2.335,2.657c1.441,0.401,2.915-0.492,4.022-1.475c4.641-4.125,6.688-10.317,7.866-16.328
				c0.916-4.658,1.427-9.39,1.525-14.131c0.119-5.573-0.705-11.873-5.256-15.253c-4.182-3.104-10.853-2.318-14.15,1.669"/>
			<g>
				<path fill="#F2B27E" d="M518.85,202.439c-2.521,6.595-8.695,10.535-11.79,9.07c-2.404-1.138-2.784-5.529-1.383-10.797
					c1.4-5.268,5.443-11.97,9.524-10.969C519.281,190.745,521.367,195.845,518.85,202.439z"/>
				<path fill="#FFE3C0" d="M515.393,193.461c-2.021,0.799-3.617,2.397-4.817,4.171c-1.612,2.385-2.61,5.16-2.877,8.003
					c0.649-0.467,1.543-0.595,2.303-0.332c0.82,0.283,1.189,0.893,1.589,1.579c1.805-0.733,3.376-3.287,4.197-4.919
					c0.963-1.913,1.487-4.041,1.465-6.174C517.24,194.675,516.924,192.857,515.393,193.461z"/>
			</g>
		</g>
	</g>
</g>
<g>
	<ellipse opacity="0.05" fill="#333333" cx="264.923" cy="582.075" rx="71.385" ry="7.777"/>
	<g>
		<g>
			<path fill="#E56741" d="M244.58,550.563c-5.981-0.079-15.549,0.077-21.53,0c-0.328,3.865-1.078,8.351-4.231,10.477
				c-0.272,0.184-0.555,0.355-0.864,0.501c-1.157,0.548-2.454,0.736-3.732,0.882c-1.292,0.146-2.6,0.261-3.905,0.382
				c-3.777,0.354-7.546,0.782-10.961,2.324c-3.754,1.697-6.769,4.779-8.527,8.409c-0.802,1.655-1.602,3.436-1.445,5.313
				c0.196,2.346,2.361,2.797,4.469,3.235c13.719,2.859,27.908,2.118,41.855,0.637c2.842-0.302,7.167-1.239,9.526-2.491
				c0.105-0.056,0.2-0.113,0.286-0.174c0.85-0.601,0.803-1.438,0.888-2.692C246.482,576.251,247.676,550.603,244.58,550.563z"/>
			<path fill="#F9C2B2" d="M218.246,580.485c-9.687,0.146-19.34-0.95-28.846-2.674c-0.031,0.343-0.045,0.688-0.015,1.039
				c0.196,2.346,2.361,2.797,4.469,3.235c13.719,2.859,27.908,2.118,41.855,0.637c2.842-0.302,7.167-1.239,9.526-2.491
				c0.105-0.056,0.2-0.113,0.286-0.174c0.85-0.601,0.803-1.438,0.888-2.692c0.009-0.142,0.037-0.681,0.072-1.511
				C237.512,578.914,227.858,580.34,218.246,580.485z"/>
		</g>
		<g>
			<path fill="#E56741" d="M332.346,576.34c-1.77-3.624-4.796-6.696-8.556-8.379c-3.359-1.502-7.056-1.93-10.765-2.268
				c-1.375-0.124-2.75-0.238-4.112-0.39c-1.271-0.14-2.562-0.323-3.715-0.859c-0.006-0.003-0.013-0.005-0.02-0.007
				c-3.898-1.83-4.796-10.469-5.273-14.656c-0.012-0.11-10.355,0.421-11.304,0.459c-1.73,0.07-3.578,0.336-5.289,0.073
				c-1.385-0.212-2.56-0.51-4.022-0.421c-0.211,0.013-0.439,0.035-0.597,0.174c-0.176,0.153-0.214,0.405-0.239,0.634
				c-0.51,4.733-0.268,9.494-0.271,14.244c-0.001,2.06-0.042,11.962,0.057,13.053c0.062,0.677,0.245,1.199,0.519,1.612
				c0.902,1.358,2.8,1.525,4.698,2.017c2.423,0.625,4.88,1.173,7.35,1.587c13.826,2.315,24.693,3.61,38.544,1.687
				c2.134-0.296,4.483-0.303,4.671-2.648C334.175,580.374,333.154,577.995,332.346,576.34z"/>
			<path fill="#F9C2B2" d="M289.015,579.187c-3.685-0.865-7.358-1.947-10.825-3.43c0.01,1.128,0.026,1.966,0.051,2.24
				c0.062,0.677,0.245,1.199,0.519,1.612c0.902,1.358,2.8,1.525,4.698,2.017c2.423,0.625,4.88,1.173,7.35,1.587
				c13.826,2.315,24.693,3.61,38.544,1.687c2.134-0.296,4.483-0.303,4.671-2.648c0.039-0.482-0.001-0.998-0.093-1.524
				C319.049,583.131,303.678,582.633,289.015,579.187z"/>
		</g>
		<g>
			<g>
				<g>
					<path fill="#F2B27E" d="M297.896,327.732c-0.533-0.061-1.062-0.175-1.575-0.349c-5.89-1.997-7.895-7.08-9.677-12.325
						c-3.201-9.423-6.835-18.619-8.83-28.383c-0.712-3.491-3.605-10.642,0.171-12.889c3.786-2.252,8.65-4.488,13.181-4.533
						c0.455-0.004,0.938,0.021,1.314,0.27c0.43,0.285,0.624,0.798,0.792,1.278c1.766,5.057,3.304,10.186,4.715,15.347
						c0.706,2.58,1.378,5.168,2.033,7.761c0.507,2.008,0.7,5.808,2.031,7.355c2.527-2.319,4.462-5.895,6.694-8.562
						c2.29-2.735,4.644-5.421,6.879-8.199c4.527-5.625,7.991-11.742,11.133-18.145c2.282-4.651,4.87-9.73,8.599-13.462
						c2.174-2.175,5.038-3.545,7.84-4.874c0.789-0.373,1.929-0.659,2.382,0.071c0.265,0.426,0.11,0.974-0.087,1.432
						c-1.274,2.963-4.007,5.14-5.362,8.068c-0.325,0.704-0.521,1.649,0.612,1.579c0.378-0.024,0.73-0.19,1.07-0.354
						c3.937-1.896,8.046-3.933,10.543-7.451c0.747-1.05,1.336-2.22,2.251-3.136c0.736-0.735,3.86-2.337,4.377-0.561
						c0.616-0.146,1.262-0.265,1.88-0.126c0.618,0.14,1.2,0.605,1.272,1.219c0.02,0.17,0,0.347,0.059,0.508
						c0.068,0.188,0.23,0.327,0.367,0.474c0.645,0.698,0.794,1.728,0.619,2.651c-0.175,0.922-0.634,1.768-1.089,2.596
						c0.531,0.672,0.569,1.617,0.313,2.427c-0.256,0.811-0.767,1.518-1.27,2.209c-1.601,2.202-3.201,4.403-4.802,6.605
						c-1.354,1.861-2.938,3.373-4.671,4.873c-2.268,1.963-5.005,3.412-7.793,4.543c-2.108,0.855-4.119,1.917-6.193,2.84
						c-2.069,0.921-2.969,2.214-4.295,4.024c-2.54,3.47-4.711,7.178-6.743,10.946c-3.35,6.212-6.316,12.625-9.993,18.667
						c-3.185,5.231-7.052,11.075-12.58,14.196C302.207,327.37,300.001,327.969,297.896,327.732z"/>
					
						<path fill="none" stroke="#333333" stroke-width="0.5" stroke-linecap="round" stroke-linejoin="round" stroke-miterlimit="10" d="
						M336.661,271.951c3.087-2.838,7.015-4.799,11.184-5.583"/>
					
						<path fill="none" stroke="#333333" stroke-width="0.5" stroke-linecap="round" stroke-linejoin="round" stroke-miterlimit="10" d="
						M361.924,254.961c-1.35,0.288-2.242,1.499-3.025,2.606c-1.676,2.373-3.455,4.699-5.619,6.66"/>
					
						<path fill="none" stroke="#333333" stroke-width="0.5" stroke-linecap="round" stroke-linejoin="round" stroke-miterlimit="10" d="
						M361.808,249.176c-1.999,0.813-3.24,2.727-4.44,4.482c-1.837,2.688-3.868,5.249-6.072,7.66"/>
					
						<path fill="none" stroke="#333333" stroke-width="0.5" stroke-linecap="round" stroke-linejoin="round" stroke-miterlimit="10" d="
						M358.547,247.905c-1.388,0.887-2.262,2.336-3.179,3.683c-1.705,2.505-3.711,4.816-5.964,6.869"/>
				</g>
			</g>
		</g>
		<g>
			<path fill="#CC9864" d="M221.894,352.837c0.151-0.419,0.307-0.837,0.466-1.255c0.665-1.735,1.481-3.572,3.11-4.529
				c3.644-2.142,7.731-2.013,11.842-2.167c11.784-0.442,23.596-0.216,35.353,0.673c3.425,0.258,10.566-0.6,12.942,2.259
				c0.8,0.962,1.247,2.151,1.655,3.323c1.65,4.742,3.264,9.837,3.756,14.81c3.489,35.249,6.384,64.734,8.25,99.969
				c1.479,27.92,2.887,65.675,4.366,93.595c-5.548,4.257-17.163,4.521-26.312-0.02c-0.785-0.39-1.73-15.087-2.121-17
				c-1.068-5.23-1.662-10.603-2.471-15.877c-1.673-10.917-3.282-21.843-4.706-32.793c-2.801-21.538-4.9-43.188-5.394-64.904
				c-0.296-13.023-2.46-24.089-5.479-36.639c1.287,5.35-1.273,14.469-1.773,20.209c-0.64,7.344-1.27,14.689-1.878,22.037
				c-1.219,14.728-2.349,29.463-3.285,44.211c-0.935,14.747-1.675,29.507-2.113,44.275c-0.218,7.371-0.361,14.744-0.415,22.116
				c-0.014,2.105,1.153,12.492-0.125,14.094c-0.995,1.248-6.391,2.025-7.978,2.282c-6.046,0.979-14.426,0.244-19.776-2.803
				c0.022-11.54,0.807-25.937,0.483-37.476c-0.807-28.84-0.939-58.34-1.746-87.183c-0.403-14.411-0.533-28.858-1.211-43.26
				C216.733,377.975,217.482,365.072,221.894,352.837z"/>
			<g>
				
					<path fill="none" stroke="#333333" stroke-width="0.5" stroke-linecap="round" stroke-linejoin="round" stroke-miterlimit="10" d="
					M256.999,391.608c5.89-1.202,11.927-1.715,17.941-1.529"/>
				
					<path fill="none" stroke="#333333" stroke-width="0.5" stroke-linecap="round" stroke-linejoin="round" stroke-miterlimit="10" d="
					M257.824,391.034c1.568-13.39,0.897-26.965-1.989-40.259"/>
				
					<path fill="none" stroke="#333333" stroke-width="0.5" stroke-linecap="round" stroke-linejoin="round" stroke-miterlimit="10" d="
					M264.433,390.034c1.16-8.356,1.537-25.934-2.426-38.069"/>
				
					<path fill="none" stroke="#333333" stroke-width="0.5" stroke-linecap="round" stroke-linejoin="round" stroke-miterlimit="10" d="
					M261.218,390.869c5.815,24.543,7.817,49.737,9.371,74.819c1.926,31.071,4.963,64.796,10.788,95.225"/>
				
					<path fill="none" stroke="#333333" stroke-width="0.5" stroke-linecap="round" stroke-linejoin="round" stroke-miterlimit="10" d="
					M260.027,393.598c7.673-0.19,15.356,0.014,23.008,0.613"/>
				
					<path fill="none" stroke="#333333" stroke-width="0.5" stroke-linecap="round" stroke-linejoin="round" stroke-miterlimit="10" d="
					M218.499,381.408c3.645-1.961,6.226-5.395,8.117-9.006c3.943-7.535,5.319-16.055,6.641-24.413"/>
			</g>
		</g>
		<g>
			<g>
				<path fill="#F4E6D7" d="M303.212,289.713c-2.061-6.34-4.122-12.679-6.183-19.018c-1.782-5.48-3.482-11.405-6.775-16.195
					c-1.318-1.917-2.893-3.654-4.828-5.107c-6.015-4.517-16.593-5.505-23.954-6.014c-10.492-0.726-21.261-1.025-31.646,0.886
					c-9.929,1.827-16.507,7.895-22.33,15.507c-6.186,8.087-11.225,17.006-14.91,26.43c-0.402,1.025,4.946,5.659,5.75,6.378
					c2.215,1.983,4.651,3.732,7.249,5.211c2.597,1.479,5.357,2.688,8.219,3.591c1.479,0.466,2.982,0.841,4.503,1.148
					c1.966,0.397,2.288-0.133,3.427-1.728c1.063-1.484,2.124-2.97,3.186-4.454c-1.085,1.517-0.307,4.869-0.345,6.653
					c-0.054,2.621-0.569,5.353-0.45,7.958c0.107,2.343,0.593,4.664,0.59,7.04c-0.015,9.778,0.149,19.536-0.54,29.307
					c10.259,2.778,20.691,5.177,31.318,5.843c10.627,0.667,21.513-0.457,31.32-4.5c0.508-0.208,1.052-0.461,1.298-0.941
					c0.199-0.39,0.159-0.849,0.113-1.281c-0.684-6.435-1.984-12.698-3.352-19.019c-1.232-5.693-0.55-12.247-0.381-18.089
					c0.014-0.497,0.324-7.526,0.816-7.695c6.355-2.187,12.274-5.568,17.335-9.903c0.294-0.252,0.6-0.529,0.702-0.897
					C303.448,290.459,303.33,290.074,303.212,289.713z"/>
				<path fill="#F2B27E" d="M237.546,247.224c-0.172,3.583,6.568,8.06,14.707,8.429c8.139,0.37,15.019-3.481,15.191-7.064
					s-6.435-4.723-14.574-5.092C244.731,243.127,237.718,243.642,237.546,247.224z"/>
			</g>
			<g>
				
					<path fill="none" stroke="#333333" stroke-width="0.5" stroke-linecap="round" stroke-linejoin="round" stroke-miterlimit="10" d="
					M219.014,252.625c4.54,7.18,5.391,15.928,6.128,24.329"/>
				
					<path fill="none" stroke="#333333" stroke-width="0.5" stroke-linecap="round" stroke-linejoin="round" stroke-miterlimit="10" d="
					M285.34,300.984c1.208-7.281,2.156-14.603,2.841-21.948"/>
				
					<path fill="none" stroke="#333333" stroke-width="0.5" stroke-linecap="round" stroke-linejoin="round" stroke-miterlimit="10" d="
					M240.466,321.747c9.865-5.011,20.617-8.362,31.636-9.863"/>
			</g>
		</g>
		<g>
			<g>
				<path fill="#5E4028" d="M230.371,217.298c2.881,4.143,6.743,7.645,11.444,9.596c3.755,1.559,8.061,2.012,12.052,1.124
					c4.548-1.012,6.903-3.618,10.356-6.311c3.229-2.519,7.196-3.937,10.795-5.924c9.477-5.23,16.359-14.709,18.265-25.151
					c0.366-2.008,0.55-4.12-0.123-6.052c-0.55-1.578-1.631-2.922-2.757-4.176c-4.77-5.311-10.715-9.614-17.313-12.533
					c-3.083-1.364-6.323-2.432-9.672-2.925c-12.121-1.784-24.632,4.503-31.728,14.235c-3.591,4.926-6.386,11.105-7.966,16.945
					c-1.46,5.395,2.07,13.092,4.599,17.823C228.937,215.097,229.621,216.219,230.371,217.298z"/>
				<g>
					<g>
						<g>
							<defs>
								<path id="XMLID_88_" d="M241.25,244.549c0,3.93,1.843,7.509,11.158,7.509c9.315,0,11.157-3.453,11.157-7.509
									c0-4.055,1.371-19.598,1.371-19.598h-25.057C239.879,224.951,241.25,240.62,241.25,244.549z"/>
							</defs>
							<use xlink:href="#XMLID_88_"  overflow="visible" fill="#F2B27E"/>
							<clipPath id="XMLID_3_">
								<use xlink:href="#XMLID_88_"  overflow="visible"/>
							</clipPath>
							<ellipse opacity="0.7" clip-path="url(#XMLID_3_)" fill="#F2B27E" cx="258.866" cy="221.5" rx="21.43" ry="19.979"/>
						</g>
						<path fill="#F2B27E" d="M223.084,197.378c-0.131-9.753,2.602-19.578,8.211-27.093c5.396-7.229,13.681-11.502,23.515-11.768
							c9.833-0.265,17.453,2.755,23.542,8.532c6.71,6.367,10.005,15.833,9.216,24.923c-0.346,3.987-1.422,7.897-1.628,11.894
							c-0.374,7.23,2.077,14.739-0.372,21.573c-2.112,5.895-7.688,10.197-13.814,12.044c-6.125,1.847-12.744,1.51-19.04,0.32
							c-8.919-1.686-16.338-7.857-21.586-14.959C225.892,215.759,223.207,206.6,223.084,197.378z"/>
						<g>
							<ellipse fill="#E89777" cx="244.565" cy="215.087" rx="6.563" ry="6.389"/>
							<ellipse fill="#E89777" cx="279.144" cy="215.087" rx="6.563" ry="6.389"/>
						</g>
						<g>
							<g>
								
									<path fill="none" stroke="#333333" stroke-width="0.5" stroke-linecap="round" stroke-linejoin="round" stroke-miterlimit="10" d="
									M266.983,197.505c-0.386,3.48,0.231,7.061,1.763,10.228c0.846,1.748,1.993,3.497,1.877,5.425
									c-0.079,1.305-0.779,2.563-1.862,3.336c-1.082,0.774-2.524,1.05-3.826,0.732"/>
								
									<path fill="none" stroke="#333333" stroke-width="0.5" stroke-linecap="round" stroke-linejoin="round" stroke-miterlimit="10" d="
									M262.893,228.936c-2.02,0.126-4.073-0.195-5.773-0.902"/>
								<g>
									<defs>
										<path id="XMLID_87_" d="M253.81,220.713c-0.517,2.722,2.488,5.351,6.712,5.873s8.068-1.261,8.585-3.983
											c0.517-2.721-2.991-2.704-7.215-3.225C257.668,218.855,254.327,217.992,253.81,220.713z"/>
									</defs>
									<use xlink:href="#XMLID_87_"  overflow="visible" fill="#C9413A"/>
									<clipPath id="XMLID_4_">
										<use xlink:href="#XMLID_87_"  overflow="visible"/>
									</clipPath>
									<path clip-path="url(#XMLID_4_)" fill="#F96C4B" d="M247.099,222.949c-1.125,2.755,2.382,6.22,7.833,7.738
										c5.451,1.518,10.782,0.515,11.907-2.241c1.125-2.755-2.382-6.219-7.834-7.737
										C253.554,219.19,248.223,220.193,247.099,222.949z"/>
									<path clip-path="url(#XMLID_4_)" fill="#FFFFFF" d="M254.189,218.424c-0.335,1.854,2.962,2.893,7.173,3.386
										c4.21,0.493,7.602,0.651,7.937-1.203c0.336-1.854-2.953-2.577-7.164-3.069C257.925,217.044,254.525,216.57,254.189,218.424
										z"/>
									
										<use xlink:href="#XMLID_87_"  overflow="visible" fill="none" stroke="#333333" stroke-width="0.5" stroke-linecap="round" stroke-linejoin="round" stroke-miterlimit="10"/>
								</g>
							</g>
							<ellipse fill="#38322E" cx="253.108" cy="204.337" rx="3.177" ry="3.092"/>
							<ellipse fill="#38322E" cx="273.808" cy="204.337" rx="3.177" ry="3.092"/>
						</g>
					</g>
					<g>
						<path fill="#5E4028" d="M251.666,188.493c4.192-1.477,7.154,0.824,7.504,3.086c0,0-2.604-0.837-6.564-0.255
							c-3.96,0.583-7.173,2.274-7.173,2.274S247.471,189.97,251.666,188.493z"/>
						<path fill="#5E4028" d="M276.718,188.493c-4.192-1.477-7.153,0.824-7.504,3.086c0,0,2.604-0.837,6.563-0.255
							s7.173,2.274,7.173,2.274S280.913,189.97,276.718,188.493z"/>
					</g>
				</g>
			</g>
			<path fill="#5E4028" d="M289.898,170.247c-1.664-5.792-5.43-11.016-10.548-14.383c-6.543-4.304-14.801-5.403-22.693-5.113
				c-7.396,0.272-16.723,1.093-23.105,5.427c-2.19-0.574-4.583-0.495-6.769,0.149c-3.205,0.945-5.987,2.962-8.282,5.335
				c-5.039,5.212-7.959,12.472-7.255,19.597c0.945,9.546,7.961,17.707,9.146,27.229c6.842-2.683,12.336-8.009,16.242-14.101
				c3.905-6.092,6.355-12.951,8.466-19.832c2.557,4.188,6.506,7.554,11.107,9.468c-1.537-3.756-2.457-7.751-2.713-11.787
				c2.771,4.566,7.206,8.152,12.324,9.968c3.848,1.365,7.979,1.738,11.981,2.585c4.037,0.855,7.818,2.312,10.777,5.191
				c1.373-1.949,1.754-6.378,2.074-8.708C291.158,177.599,290.925,173.822,289.898,170.247z"/>
			<g>
				<path fill="#F2B27E" d="M217.459,208.58c2.519,6.595,8.693,10.535,11.79,9.069c2.403-1.138,2.782-5.528,1.382-10.797
					c-1.399-5.268-5.443-11.969-9.523-10.968S214.941,201.985,217.459,208.58z"/>
				<path fill="#FFE3C0" d="M220.916,199.602c2.022,0.799,3.618,2.397,4.818,4.171c1.612,2.384,2.61,5.16,2.877,8.003
					c-0.651-0.467-1.543-0.595-2.305-0.332c-0.819,0.282-1.188,0.893-1.588,1.579c-1.802-0.733-3.375-3.287-4.197-4.919
					c-0.963-1.913-1.486-4.041-1.464-6.174C219.069,200.815,219.385,198.997,220.916,199.602z"/>
			</g>
		</g>
		<g>
			<g>
				<polygon fill="#FFF6EE" points="240.163,385.986 190.311,373.051 207.62,309.816 257.472,322.75 				"/>
				<polygon fill="#F4EBE4" points="225.725,341.202 204.95,335.812 210.486,315.586 231.262,320.975 				"/>
				<g>
					
						<line fill="none" stroke="#333333" stroke-width="0.5" stroke-linecap="round" stroke-linejoin="round" stroke-miterlimit="10" x1="203.184" y1="342.529" x2="244.599" y2="353.275"/>
					
						<line fill="none" stroke="#333333" stroke-width="0.5" stroke-linecap="round" stroke-linejoin="round" stroke-miterlimit="10" x1="201.556" y1="348.478" x2="242.971" y2="359.223"/>
					
						<line fill="none" stroke="#333333" stroke-width="0.5" stroke-linecap="round" stroke-linejoin="round" stroke-miterlimit="10" x1="199.927" y1="354.425" x2="241.342" y2="365.171"/>
					
						<line fill="none" stroke="#333333" stroke-width="0.5" stroke-linecap="round" stroke-linejoin="round" stroke-miterlimit="10" x1="198.299" y1="360.375" x2="239.714" y2="371.12"/>
					
						<line fill="none" stroke="#333333" stroke-width="0.5" stroke-linecap="round" stroke-linejoin="round" stroke-miterlimit="10" x1="196.671" y1="366.323" x2="238.086" y2="377.068"/>
				</g>
				<g>
					
						<line fill="none" stroke="#333333" stroke-width="0.5" stroke-linecap="round" stroke-linejoin="round" stroke-miterlimit="10" x1="235.287" y1="323.516" x2="251.587" y2="327.745"/>
					
						<line fill="none" stroke="#333333" stroke-width="0.5" stroke-linecap="round" stroke-linejoin="round" stroke-miterlimit="10" x1="233.658" y1="329.464" x2="249.959" y2="333.693"/>
					
						<line fill="none" stroke="#333333" stroke-width="0.5" stroke-linecap="round" stroke-linejoin="round" stroke-miterlimit="10" x1="232.029" y1="335.413" x2="248.331" y2="339.642"/>
					
						<line fill="none" stroke="#333333" stroke-width="0.5" stroke-linecap="round" stroke-linejoin="round" stroke-miterlimit="10" x1="230.402" y1="341.362" x2="246.702" y2="345.59"/>
				</g>
			</g>
			<g>
				<polygon fill="#FFFFFF" points="233.728,397.638 197.042,362.32 244.305,315.786 280.99,351.104 				"/>
				<g>
					
						<line fill="none" stroke="#333333" stroke-width="0.5" stroke-linecap="round" stroke-linejoin="round" stroke-miterlimit="10" x1="242.902" y1="325.823" x2="270.698" y2="352.583"/>
					
						<line fill="none" stroke="#333333" stroke-width="0.5" stroke-linecap="round" stroke-linejoin="round" stroke-miterlimit="10" x1="238.456" y1="330.2" x2="266.252" y2="356.959"/>
					
						<line fill="none" stroke="#333333" stroke-width="0.5" stroke-linecap="round" stroke-linejoin="round" stroke-miterlimit="10" x1="234.01" y1="334.577" x2="261.807" y2="361.338"/>
					
						<line fill="none" stroke="#333333" stroke-width="0.5" stroke-linecap="round" stroke-linejoin="round" stroke-miterlimit="10" x1="229.563" y1="338.955" x2="257.36" y2="365.714"/>
					
						<line fill="none" stroke="#333333" stroke-width="0.5" stroke-linecap="round" stroke-linejoin="round" stroke-miterlimit="10" x1="225.118" y1="343.333" x2="252.914" y2="370.092"/>
					
						<line fill="none" stroke="#333333" stroke-width="0.5" stroke-linecap="round" stroke-linejoin="round" stroke-miterlimit="10" x1="220.672" y1="347.709" x2="248.468" y2="374.469"/>
					
						<line fill="none" stroke="#333333" stroke-width="0.5" stroke-linecap="round" stroke-linejoin="round" stroke-miterlimit="10" x1="216.226" y1="352.087" x2="244.022" y2="378.847"/>
					
						<line fill="none" stroke="#333333" stroke-width="0.5" stroke-linecap="round" stroke-linejoin="round" stroke-miterlimit="10" x1="211.78" y1="356.464" x2="239.577" y2="383.224"/>
					
						<line fill="none" stroke="#333333" stroke-width="0.5" stroke-linecap="round" stroke-linejoin="round" stroke-miterlimit="10" x1="207.334" y1="360.842" x2="235.131" y2="387.602"/>
				</g>
			</g>
		</g>
		<g>
			<g>
				<path fill="#F2B27E" d="M232.871,356.975c-0.729-5.807-5.398-11.424-9.248-16.475c-0.87-1.141-1.699-2.253-2.43-3.332
					c-4.935-7.278-9.869-14.555-14.803-21.833c-2.864-4.225-0.279-7.986,2.212-11.574c0.807-1.123,1.584-2.265,2.372-3.4
					c-6.224-2.465-11.837-6.393-16.176-11.387c-1.32,2.831-2.542,5.711-3.746,8.646c-2.774,6.766-4.957,15.146-1.25,21.965
					c1.806,3.323,4.4,6.165,6.968,8.973c3.568,3.9,7.136,7.8,10.704,11.701c2.341,2.56,4.683,5.119,7.025,7.679
					c3.939,4.305,0.548,7.001-1.622,11.076c-1.163,2.184-2.333,4.387-3.023,6.753c-0.858,2.939-2.336,5.921-1.262,9.021
					c0.769,2.222,2.688,3.846,4.09,5.75c0.312,0.425,0.607,0.873,1.027,1.195c0.303,0.231,0.657,0.388,1.007,0.542
					c1.177,0.517,2.355,1.033,3.532,1.55c0.152,0.066,0.318,0.136,0.481,0.098c0.323-0.076,0.397-0.486,0.405-0.809
					c0.042-1.77,0.251-3.361,0.614-5.089c0.41-1.958,1.429-3.725,2.584-5.355c0.54-0.763,1.15-1.482,1.618-2.28
					c0.283-0.48,0.657-1.15,1.346-1.114c0.792,0.041,1.185,0.952,1.3,1.717c0.462,3.098-0.613,6.278-0.067,9.363
					c0.085,0.477,0.254,1.006,0.699,1.221c0.766,0.369,1.549-0.447,1.996-1.156c1.589-2.519,3.205-5.105,3.821-8
					c0.017-0.079,0.024-0.163,0.042-0.242C234.074,367.274,233.488,361.88,232.871,356.975z"/>
			</g>
		</g>
		
			<path fill="none" stroke="#333333" stroke-width="0.5" stroke-linecap="round" stroke-linejoin="round" stroke-miterlimit="10" d="
			M210.647,370.733c-0.12,0.593,0.081,1.239,0.518,1.668c0.347,0.342,0.815,0.54,1.188,0.853c0.602,0.504,0.909,1.255,1.286,1.936
			c0.377,0.682,0.918,1.365,1.697,1.521"/>
	</g>
</g>
</svg>
