<?xml version="1.0" encoding="utf-8"?>
<!-- Generator: Adobe Illustrator 16.0.0, SVG Export Plug-In . SVG Version: 6.00 Build 0)  -->
<!DOCTYPE svg PUBLIC "-//W3C//DTD SVG 1.1//EN" "http://www.w3.org/Graphics/SVG/1.1/DTD/svg11.dtd">
<svg version="1.1" id="Capa_1" xmlns="http://www.w3.org/2000/svg" xmlns:xlink="http://www.w3.org/1999/xlink" x="0px" y="0px"
	 width="800px" height="800px" viewBox="0 0 800 800" enable-background="new 0 0 800 800" xml:space="preserve">
<g>
	<path fill="#A3F6E6" d="M648.113,558.508c0.238,42.938-127.853,78.494-286.099,79.414c-158.246,0.922-286.723-33.14-286.962-76.078
		c-0.238-42.94,127.853-78.495,286.098-79.417C519.397,481.506,647.874,515.569,648.113,558.508z"/>
	<path opacity="0.3" fill="#4F5DB8" d="M578.563,549.813c0.153,27.498-96.892,50.356-216.755,51.055
		c-119.863,0.697-217.156-21.029-217.308-48.528c-0.152-27.497,96.892-50.356,216.755-51.054
		C481.119,500.587,578.411,522.314,578.563,549.813z"/>
	<path fill="#96EDDD" d="M520.476,543.188c0.089,16.298-71.016,29.925-158.818,30.436s-159.054-12.287-159.145-28.585
		c-0.09-16.299,71.015-29.926,158.817-30.436C449.133,514.092,520.384,526.89,520.476,543.188z"/>
</g>
<path opacity="0.1" fill="#24336F" d="M431.044,555.931c-2.527,0.747-5.245,1.781-6.551,4.12
	c-3.151,5.646,4.286,11.173,10.297,13.281c30.573,10.719,61.342,21.488,93.277,26.555c23.543,3.734,49.073,3.941,69.503-8.604
	c6.733-4.135,12.651-9.508,19.067-14.144c12.888-9.313,27.841-15.61,43.397-18.278c7.969-1.366,18.811-5.365,16.958-13.415
	c-1.211-5.263-7.391-7.238-12.59-8.186c-39.776-7.255-80.562-8.598-120.724-4.138c-20.305,2.255-40.446,5.996-60.227,11.199
	C466.055,548.898,448.154,550.866,431.044,555.931z"/>
<path opacity="0.1" fill="#24336F" d="M127.228,580.326c-5.868,6.398-8.678,14.59-9.846,22.736
	c-1.036,7.216-0.763,14.951,3.494,21.183c2.645,3.874,6.628,6.874,10.542,9.805c6.886,5.155,21.1,10.361,29.537,13.242
	c7.889,2.694,16.505,3.153,24.959,3.583c15.843,0.806,32.668,1.425,46.557-5.342c8.678-4.229,15.36-10.974,21.635-17.726
	c11.935-12.845,23.573-28.759,14.083-45.409c-6.345-11.131-18.107-18.869-32.022-20.058
	C207.858,559.926,146.964,558.806,127.228,580.326z"/>
<g>
	<g>
		<path fill="#DA4E40" d="M199.645,442.193c0,0,2.439,9.756,3.424,15.123c0,0,3.4,1.934,8.375-0.049c0,0,1.584-10.755,2.275-15.154
			L199.645,442.193z"/>
		<path fill="#DA4E40" d="M553.413,442.677c0,0,2.438,9.754,3.423,15.122c0,0,3.4,1.933,8.375-0.05c0,0,1.584-10.755,2.275-15.154
			L553.413,442.677z"/>
		<path fill="#DA4E40" d="M513.623,438.498c0,0,2.44,9.754,3.426,15.122c0,0,3.4,1.933,8.373-0.049c0,0,1.584-10.755,2.277-15.155
			L513.623,438.498z"/>
		<path fill="#DA4E40" d="M265.899,460.36c0,0,2.439,9.754,3.424,15.121c0,0,3.401,1.934,8.374-0.049c0,0,1.585-10.755,2.276-15.154
			L265.899,460.36z"/>
		<polygon fill="#DA4E40" points="255.357,339.909 552.833,338.177 558.97,428.645 267.038,431.165 		"/>
		<path fill="#FF8378" d="M577.255,316.782c-14.33-3.067-28.538,0.43-28.538,0.43l-0.502-0.188l-14.112-5.414l-48.867-18.749
			c-0.071-0.014-0.101-0.028-0.101-0.028c8.081-3.491,14.884-5.391,19.858-6.402c5.419-1.116,11.03-0.826,16.349,0.696
			c6.236,1.794,12.103,3.959,17.496,6.287c22.712,9.744,37.28,22.363,38.359,23.309
			C577.225,316.752,577.239,316.768,577.255,316.782z"/>
		<path fill="#DA4E40" d="M550.823,446.291c0,0-3.31-0.524-8.799-1.913c-3.899-1.004-8.887-2.424-14.581-4.413
			c-1.349-0.477-2.726-0.98-4.146-1.53c-6.31-2.395-13.283-5.445-20.417-9.302c-4.322-2.334-8.716-4.976-13.068-7.938
			c-1.825-1.249-3.28-2.971-4.192-4.973c-0.116-0.233-0.203-0.468-0.306-0.701c-0.348-0.907-0.597-1.857-0.73-2.839
			c-1.135-8.331-3.221-25.638-3.982-46.778c-0.085-2.622-0.157-5.304-0.216-8.028c-0.067-4.586-0.094-9.319-0.021-14.14
			c0.034-1.7,0.067-3.414,0.13-5.144c0.071-2.609,0.171-5.247,0.299-7.9c0.053-0.894,0.105-1.774,0.157-2.667c0,0,0,0,0-0.016
			c0.679-11.71,1.987-23.631,4.185-35.175c0,0,0.029,0.014,0.101,0.028c1.79,0.371,26.15,5.577,49.528,16.767
			c4.606,2.201,9.186,4.636,13.522,7.322c0.145,0.086,0.288,0.174,0.431,0.261l0.347,20.98l1.477,90.531L550.823,446.291z"/>
		<path fill="#FC6655" d="M482.415,333.862c0,0.015-1.439-1.442-1.439-1.442l-109.581,2.06c-0.085,0-0.186,0-0.271,0.016
			l-89.353,5.253l-0.243,0.016l-18.787,1.106l-4.335,0.259l-2.875,0.163l-6.281,0.374l-3.792,0.212l-4.836,0.292l-3.047,0.179
			c-0.136-3.794-0.313-7.47-0.52-11.06c-0.047-0.63-0.079-1.274-0.125-1.904c-0.393-6.341-0.913-12.361-1.531-18.043
			c-6.233-57.886-22.094-81.59-22.094-81.59c1.029-0.299,2.058-0.584,3.087-0.868c0.014-0.015,0.042-0.015,0.072-0.015
			c37.355-10.445,75.873-14.919,111.375-16.284c59.369-2.323,110.258,4.003,132.979,5.454c6.7,0.43,12.225,5.526,13.393,12.289
			C482.847,280.303,482.451,332.821,482.415,333.862z"/>
		<path fill="#DA4E40" d="M224.542,229.474c-21.053-4.703-20.92,12.921-19.25,55.893c1.669,42.972,2.721,60.549,2.721,60.549
			s17.22,7.886,32.002,6.737C240.016,352.654,248.426,234.809,224.542,229.474z"/>
		<path fill="#DA4E40" d="M540.842,356.534c0,0-33.671-14.275-59.759-25.864c0,0-181.108,6.065-220.423,8.175
			c0,0,18.524,17.961,27.144,25.912C287.803,364.757,530.104,355.476,540.842,356.534z"/>
		<path fill="#DA4E40" d="M261.87,462.883c0,0-31.81-2.081-62.953-19.4c-3.008-1.674-5.167-4.586-5.947-7.999
			c-3.833-16.793-14.819-70.805-9.931-119.418c0,0,36.758,4.042,65.464,18.455L261.87,462.883z"/>
		<path fill="#FC6655" d="M254.039,330.841c4.659-0.863,10.899-1.568,17.793-1.13c4.948,0.313,8.954,4.245,9.589,9.277
			c2.594,20.56,8.782,75.637,6.021,113.951c-0.321,4.45-3.242,8.301-7.436,9.513c-4.168,1.204-10.222,1.955-18.136,0.431
			c-4.422-0.854-7.748-4.619-8.279-9.194c-2.293-19.751-8.355-75.616-8.132-112.451C245.49,336.108,249.108,331.754,254.039,330.841
			z"/>
		<path fill="#FF8378" d="M276.898,331.476c0,0-24.024-17.843-58.289-24.407c-5.439-1.042-11.049-0.81-16.355,0.795
			c-4.862,1.47-11.477,3.976-19.214,8.202l65.464,18.455C248.503,334.52,262.362,329.731,276.898,331.476z"/>
		<path fill="#FC6655" d="M554.558,314.057c4.716-0.433,10.993-0.562,17.82,0.505c4.902,0.766,8.547,5.048,8.74,10.119
			c0.787,20.714,2.136,76.137-3.965,114.046c-0.707,4.401-3.954,7.968-8.237,8.791c-4.256,0.819-10.352,1.012-18.1-1.231
			c-4.33-1.254-7.313-5.312-7.443-9.917c-0.557-19.881-1.712-76.077,1.73-112.744C545.584,318.521,549.568,314.515,554.558,314.057z
			"/>
		<path fill="#FC6655" d="M292.302,455.415c27.121-0.875,186.905-6.076,246.9-8.939c1.638-0.077,2.942-1.405,3.03-3.081
			c0.277-5.198,0.697-16.486-0.095-27.354c-0.128-1.777-1.596-3.135-3.333-3.052c-24.565,1.176-190,9.066-246.944,10.976
			c-2.085,0.07-3.734,1.829-3.707,3.967c0.063,4.967,0.166,14.109,0.199,23.573C288.361,453.716,290.142,455.486,292.302,455.415z"
			/>
		<path fill="#FC6655" d="M286.467,377.78c0.156,8.176,0.737,27.225,2.849,40.09c0.352,2.142,2.596,3.719,5.227,3.672
			c27.638-0.497,174.711-3.31,243.521-8.104c2.697-0.188,4.757-2.049,4.734-4.274c-0.089-8.792-0.382-30.106-1.232-40.615
			c-0.185-2.272-2.495-4.015-5.268-3.958c-27.995,0.579-170.9,3.717-245.094,8.882C288.489,373.662,286.424,375.542,286.467,377.78z
			"/>
		<path opacity="0.17" fill="#BE0662" d="M538.838,293.414c-1.329,5.415-2.4,11.018-4.074,16.215
			c-0.211,0.661-0.422,1.322-0.661,1.982c-1.862,5.213-4.426,9.931-8.599,13.56c-4.23,3.688-9.601,5.668-14.844,7.56
			c-4.543,1.652-9.099,3.306-13.641,4.958c-0.757,0.269-1.5,0.551-2.256,0.819c-4.8,1.742-9.6,3.484-14.399,5.227
			c-14.269,5.197-28.524,10.379-42.793,15.562c-5.471,1.98-10.927,3.976-16.397,5.957c-2.4,0.878-4.813,1.742-7.243,2.606
			c-11.214,3.905-22.673,7.268-34.467,7.25c-7.571-0.016-15.396-1.699-22.155-5.146c-3.79-1.913-7.253-4.383-10.161-7.428
			c-1.756-1.807-3.299-3.834-4.599-6.055c-2.688-4.585-8.232-10.648-11.559-6.526c-1.336,1.664-1.021,4.064-1.038,6.219
			c-0.015,2.462-0.546,4.839-1.493,7.057c-1.341,3.173-3.501,6.013-6.121,8.373c-2.009,1.77-4.262,3.278-6.646,4.42
			c-7.68,3.665-16.364,4.243-24.82,4.747c-1.531,0.096-2.977,0.134-4.336,0.142c-0.257,0.001-0.515,0.003-0.758-0.01
			c-18.851-0.197-20.835-9.637-23.863-29.006c-0.682-4.274-1.903-7.755-3.509-10.764c-0.202-0.424-0.434-0.848-0.68-1.242
			c-1.387-2.424-3.016-4.554-4.76-6.624c-0.461-0.555-0.937-1.094-1.412-1.633c-3.342-3.82-6.983-7.594-10.188-12.645
			c-0.159-0.263-0.332-0.525-0.491-0.788c-0.939-1.563-2.082-3.695-3.155-6.107c-2.695-6.064-4.944-13.877-2.536-18.55
			c1.402-2.734,3.484-4.153,5.897-5.075c4.028-1.518,8.965-1.576,13.104-3.813c12.514-6.784,18.075-23.433,32.64-27.034
			c6.803-1.681,14.186,0.284,20.785-2.055c14.085-4.976,15.567-24.122,19.134-38.941c0.321-1.365,0.701-2.7,1.094-4.036
			c59.369-2.323,110.258,4.003,132.979,5.454c6.7,0.43,12.225,5.526,13.393,12.289c8.637,49.974,6.777,96.64,6.74,97.68
			c0.679-11.71,1.987-23.631,4.185-35.175c8.081-3.491,14.884-5.391,19.858-6.402c5.419-1.116,11.03-0.826,16.349,0.696
			C527.578,288.922,533.444,291.086,538.838,293.414z"/>
	</g>
	<g>
		<g>
			<g>
				<path fill="#CF4DA5" d="M438.554,353.371c0,0-39.792,20.014-73.991,3.362c-34.214-16.652-25.093-49.439-41.101-55.69
					c-13.612-5.313-31.903,10.179-37.115,14.986c-0.926,0.84-1.438,1.356-1.438,1.356l-17.192-21.146l-1.787-2.187
					c0.257-0.251,0.584-0.575,0.983-0.958c5.708-5.631,25.397-24.457,50.635-26.201c2.174-0.144,4.278-0.186,6.326-0.095
					c23.163,0.891,37.545,16.061,49.895,31.022c13.458,16.289,36.533,6.63,36.533,6.63
					C414.97,327.866,438.554,353.371,438.554,353.371z"/>
				<path opacity="0.12" fill="#33075C" d="M438.554,353.371c0,0-39.792,20.014-73.991,3.362
					c-34.214-16.652-25.093-49.439-41.101-55.69c-13.612-5.313-31.903,10.179-37.115,14.986c-0.926,0.84-1.438,1.356-1.438,1.356
					l-17.192-21.146l-1.787-2.187c0.257-0.251,0.584-0.575,0.983-0.958c5.708-5.631,25.397-24.457,50.635-26.201
					c2.174-0.144,4.278-0.186,6.326-0.095c23.163,0.891,37.545,16.061,49.895,31.022c13.458,16.289,36.533,6.63,36.533,6.63
					C414.97,327.866,438.554,353.371,438.554,353.371z"/>
				<path fill="#7D446E" d="M279.203,320.832c0,0-0.412,0.574-1.136,1.487c-3.071,3.842-11.733,13.534-18.124,9.615
					c-1.767-1.074-3.736-2.586-5.706-4.319c-1.984-1.718-3.971-3.669-5.742-5.638c-4.45-4.868-7.641-9.788-6.332-11.421
					c2.373-2.944,4.064-0.023,8.357-0.049c3.335-0.02,7.956-5.673,9.831-8.174c0.541-0.722,0.853-1.177,0.853-1.177l2.073,2.258
					l10.124,11.078L279.203,320.832z"/>
				<path opacity="0.3" fill="#FF8FFC" d="M323.874,266.796c-3.583,1.56-10.095,1.714-13.424,2.745
					c-4.901,1.522-9.671,3.441-14.296,5.709c-9.434,4.641-18.188,10.773-25.776,18.188c-0.499,0.487-0.996,0.987-1.479,1.503
					c-0.413,0.428-0.812,0.855-1.181,1.296c-1.906,2.151-3.539,4.505-4.44,7.176c-0.154,0.441-0.281,0.896-0.393,1.352
					c-0.056,0.249-0.112,0.499-0.153,0.762c-0.418,2.156-0.434,4.413-1.195,6.483c-1.157,3.142-3.849,5.444-6.687,7.131
					c-1.998,1.199-4.139,2.148-6.354,2.835c-4.45-4.868-7.641-9.788-6.332-11.421c2.373-2.944,4.064-0.023,8.357-0.049
					c3.335-0.02,7.956-5.673,9.831-8.174c-0.952-1.343-1.833-2.671-2.612-3.97c-0.449-0.774-0.425-1.741,0.057-2.491
					c0.696-1.089,2.075-2.694,4.771-4.41c0.855-0.533,1.944-0.465,2.706,0.19c0.446,0.378,0.993,0.844,1.641,1.441
					c5.708-5.631,25.397-24.457,50.635-26.201C319.722,266.747,321.826,266.706,323.874,266.796z"/>
				<path fill="#FFFFFF" d="M287.563,320.959c-0.796,0.972-2.263,2.255-4.975,3.589c-0.856,0.43-1.888,0.275-2.579-0.38
					c-0.504-0.48-1.165-1.107-1.942-1.849c-1.626-1.588-3.785-3.73-6.132-6.207c-2.995-3.163-6.293-6.85-9.205-10.584
					c-0.836-1.064-1.629-2.13-2.379-3.195c-0.952-1.343-1.833-2.671-2.612-3.97c-0.449-0.774-0.425-1.741,0.057-2.491
					c0.696-1.089,2.075-2.694,4.771-4.41c0.855-0.533,1.944-0.465,2.706,0.19c0.446,0.378,0.993,0.844,1.641,1.441
					c0.589,0.524,1.25,1.136,1.985,1.849c2.806,2.694,6.621,6.702,10.887,12.084c2.089,2.654,4.311,5.66,6.562,9.002
					c0.447,0.686,0.909,1.372,1.371,2.087C288.282,318.991,288.231,320.149,287.563,320.959z"/>
				<path opacity="0.33" fill="#632E5A" d="M287.563,320.959c-0.796,0.972-2.263,2.255-4.975,3.589
					c-0.856,0.43-1.888,0.275-2.579-0.38c-0.504-0.48-1.165-1.107-1.942-1.849c-3.071,3.842-11.733,13.534-18.124,9.615
					c-1.767-1.074-3.736-2.586-5.706-4.319c2.514-0.879,4.956-1.934,7.252-3.281c2.925-1.702,5.575-3.842,8.167-6.012
					c0.698-0.589,1.467-1.341,2.278-2.21c0.47-0.501,0.953-1.046,1.465-1.621c1.935-2.209,4.095-4.874,6.385-7.465
					c2.089,2.654,4.311,5.66,6.562,9.002c0.447,0.686,0.909,1.372,1.371,2.087C288.282,318.991,288.231,320.149,287.563,320.959z"/>
			</g>
			<g>
				<path fill="#CF4DA5" d="M436.913,354.172c0,0-18.167,9.571-51.819,6.338c-33.653-3.218-37.715-46.669-53.2-43.853
					c-15.485,2.83-14.178,24.347-14.178,24.347l-14.474-0.75l-12.971-0.671c-0.514-7.573,0.956-44.462,20.41-61.91
					c14.981-13.421,34.404-13.286,50.875-3.432c4.941,2.946,9.613,6.772,13.817,11.364c18.246,19.91,37.272,10.772,37.272,10.772
					C409.681,321.537,436.913,354.172,436.913,354.172z"/>
				<path opacity="0.15" fill="#33075C" d="M436.913,354.172c0,0-18.167,9.571-51.819,6.338
					c-33.653-3.218-37.715-46.669-53.2-43.853c-15.485,2.83-14.178,24.347-14.178,24.347l-14.474-0.75
					c0.084-0.25,0.184-0.485,0.268-0.735c4.244-11.542,10.611-22.216,18.82-31.246c2.958-3.286,6.547-6.53,10.911-6.804
					c8.686-0.564,13.308,9.813,17.702,17.495c3.902,6.806,9.387,12.634,15.881,16.875c4.309,2.817,10.574,4.7,14.087,0.885
					c1.95-2.107,2.276-5.244,2.433-8.132c0.309-6.142,0.289-12.296-0.074-18.433c-0.11-1.845-0.265-3.793-1.217-5.385
					c-3.107-5.272-10.923-2.823-16.854-3.903c-5.417-0.979-9.938-5.875-10.599-11.484c-0.675-5.711,2.428-11.385,6.801-15.03
					c0.058-0.045,0.1-0.088,0.157-0.118c4.941,2.946,9.613,6.772,13.817,11.364c18.246,19.91,37.272,10.772,37.272,10.772
					C409.681,321.537,436.913,354.172,436.913,354.172z"/>
				<path fill="#7D446E" d="M309.64,368.599c-3.673,0.901-8.895,1.283-13.792,1.149c-6.999-0.208-13.318-1.446-13.517-3.687
					c-0.322-3.793,2.875-2.918,5.935-6.012c2.362-2.403,1.807-9.741,1.432-12.874c-0.105-0.893-0.194-1.45-0.194-1.45l17.223,0.75
					l9.09,0.401c0,0,0.104,0.703,0.196,1.86C316.455,353.672,316.9,366.827,309.64,368.599z"/>
				<path fill="#FFFFFF" d="M320.77,347.111c-0.324,0.911-1.15,1.531-2.109,1.565c-0.686,0.019-1.574,0.039-2.647,0.06
					c-2.461,0.043-5.838,0.048-9.604-0.062c-5.282-0.16-11.353-0.564-16.71-1.5c-1.604-0.27-3.138-0.598-4.571-0.97
					c-0.86-0.229-1.508-0.944-1.67-1.822c-0.251-1.272-0.349-3.412,0.392-6.567c0.238-0.998,1.064-1.721,2.065-1.814
					c2.847-0.25,9.343-0.596,18.479,0.332c4.582,0.458,9.84,1.232,15.643,2.488c1.004,0.214,1.767,1.088,1.83,2.143
					C321.959,342.225,321.785,344.205,320.77,347.111z"/>
				<path opacity="0.18" fill="#632E5A" d="M320.77,347.111c-0.324,0.911-1.15,1.531-2.109,1.565
					c-0.686,0.019-1.574,0.039-2.647,0.06c0.442,4.936,0.888,18.091-6.373,19.862c-3.673,0.901-8.895,1.283-13.792,1.149
					c0.583-0.779,1.18-1.559,1.777-2.311c3.425-4.357,7.463-11.809,8.784-18.762c0.139-0.733,0.25-1.466,0.318-2.2
					c0.312-2.977,0.024-5.773-1.133-8.097c-0.319-0.643-0.723-1.329-1.199-2.044c4.582,0.458,9.84,1.232,15.643,2.488
					c1.004,0.214,1.767,1.088,1.83,2.143C321.959,342.225,321.785,344.205,320.77,347.111z"/>
			</g>
		</g>
		<g>
			<g>
				<path fill="#FFFAE0" d="M433.026,164.683c0,0-4.132-3.181-8.083-5.86s-40.607,0.969-50.971,3.25c0,0-6.852-9.645-9.906-12.008
					c0,0-5.343-0.595-6.485,0.995l15.871,13.97L433.026,164.683z"/>
				<path fill="#63EFF7" d="M356.91,150.106l2.147-0.012l12.941,10.794l4.121,1.071c0,0,33.27-1.352,58.335,2.166l3.049,1.325
					c0,0-52.793-3.05-61.015-1.537l-5.751-1.027C370.737,162.885,358.897,153.575,356.91,150.106z"/>
				<path fill="#3AD4DE" d="M370.931,161.989c0,0-12.22-9.695-14.021-11.882c0,0-7.214,36.281-6.931,80.16
					c0,0,6.188,11.607,12.65,15.417C362.629,245.683,365.902,190.65,370.931,161.989z"/>
				<path fill="#3AD4DE" d="M369.073,246.378c0,0,49.025,0.829,59.229,1.853c0,0,6.788-66.404,9.201-82.781
					c0,0-38.126-3.502-61.021-2.453C376.482,162.997,369.222,208.646,369.073,246.378z"/>
				<path fill="#00B5BD" d="M369.073,246.378c0,0-3.753,0.754-6.444-0.695c0,0,2.368-56.86,8.301-83.694
					c0,0,1.436,0.666,5.552,1.008C376.482,162.997,369.42,212.125,369.073,246.378z"/>
				<path fill="#00B5BD" d="M385.718,183.208c0,0,23.11-0.791,36.318-0.212l-0.502,6.184c0,0-22.722-0.116-36.142-0.221
					C385.393,188.96,384.846,187.126,385.718,183.208z"/>
			</g>
			<g>
				<g>
					<path fill="#FF9DA1" d="M440.024,280.45c-18.498,14.307-33,18.948-47.213,18.84c-6.913-0.033-13.762-1.209-20.955-2.925
						c-21.97-5.25-37.324-20.048-38.451-50.329c-1.029-28.054,11.701-47.484,13.576-50.191c0.142-0.221,0.227-0.324,0.227-0.324
						c0.942-0.401,2.063,0.281,3.242,1.52c0.159,0.175,0.332,0.364,0.505,0.554c0.734,0.875,1.485,1.955,2.207,3.094l0.014,0.014
						c0.549,0.876,1.083,1.796,1.575,2.702c0.304,0.555,0.607,1.11,0.882,1.636c0.014,0.029,0.029,0.073,0.043,0.103
						c1.403,2.673,2.346,4.851,2.346,4.851c-2.832,5.628-17.331,59.694,25.147,61.879c42.477,2.199,54.032-20.096,54.032-20.096
						S467.543,259.175,440.024,280.45z"/>
					<g>
						<path fill="#FF9DA1" d="M358.023,209.993l-2.885-4.013l-0.072-0.087c0.185-0.294,0.37-0.588,0.568-0.853
							c0.781-1.147,1.592-2.076,2.403-2.769c0.014-0.014,0.014-0.029,0.043-0.029c1.766-1.505,3.453-1.794,4.491-0.51
							C364.185,203.73,359.553,207.23,358.023,209.993z"/>
						<path fill="#FF9DA1" d="M358.08,202.242c-0.029,0-0.029,0.015-0.043,0.029c-0.811,0.957-1.693,1.944-2.36,2.872
							c-0.199,0.279-0.384,0.559-0.54,0.838l-0.072-0.087l-0.966-1.357l-1.918-2.656c0.099-0.132,0.199-0.265,0.313-0.383
							c0.198-0.265,0.397-0.501,0.625-0.736c0-0.029,0.028-0.058,0.042-0.074c0.028-0.015,0.028-0.029,0.042-0.044
							c2.048-2.313,4.202-3.761,5.663-3.403c0.301,0.071,0.574,0.216,0.819,0.463C360.737,198.768,359.544,200.46,358.08,202.242z"
							/>
						<path fill="#FF9DA1" d="M352.571,201.607c1.424-2.557,5.894-5.972,4.215-7.669c-1.468-1.486-4.412,0.588-6.947,3.863
							L352.571,201.607z"/>
						<path fill="#FF9DA1" d="M349.588,199.461c1.424-2.557,5.894-5.972,4.216-7.669c-1.468-1.486-4.412,0.589-6.947,3.863
							L349.588,199.461z"/>
						<path fill="#FF9DA1" d="M347.417,194.964c0,0,1.484-5.066,0.935-7.26c-0.549-2.195,3.75-1.304,3.771,2.542
							c0.021,3.847-1.595,6.237-1.595,6.237L347.417,194.964z"/>
					</g>
				</g>
				<path opacity="0.29" fill="#FF4261" d="M440.024,280.45c-18.498,14.307-33,18.948-47.213,18.84
					c0.699-3.051,0.982-6.028-0.236-8.864c-1.768-4.093-6.175-6.338-10.472-7.25c-4.286-0.898-8.75-0.843-12.965-2.035
					c-11.984-3.374-19.268-16.035-22.17-28.4c-3.885-16.52-0.861-34.003,7.132-48.205c0.198-0.382,0.425-0.75,0.652-1.132
					c1.248-2.131,2.625-4.191,4.116-6.163c0.301,0.071,0.574,0.216,0.819,0.463c1.051,1.064-0.143,2.756-1.606,4.538
					c1.766-1.505,3.453-1.794,4.491-0.51c1.614,1.999-3.018,5.499-4.548,8.262c-2.832,5.628-17.331,59.694,25.147,61.879
					c42.477,2.199,54.032-20.096,54.032-20.096S467.543,259.175,440.024,280.45z"/>
			</g>
			<g>
				<path fill="#6F78CF" d="M464.957,223.774l-15.755,39.171c-4.155-0.723-7.705-3.311-10.166-5.671
					c-0.963-0.917-1.77-1.792-2.375-2.521c-0.85-1.006-1.016-2.456-0.406-3.617c5.381-10.333,11.241-16.931,16.628-21.109
					C457.443,226.485,461.67,224.673,464.957,223.774z"/>
				<path opacity="0.17" fill="#33075C" d="M464.957,223.774l-15.755,39.171c-4.155-0.723-7.705-3.311-10.166-5.671
					c2.085-3.382,4.328-6.692,6.586-9.928c3.607-5.194,7.452-11.18,7.261-17.318C457.443,226.485,461.67,224.673,464.957,223.774z"
					/>
			</g>
			<g>
				<path fill="#6F78CF" d="M500.474,305.14c-22.233,32.366-51.979,47.191-60.556,48.956c-5.718,1.162-15.084-7.502-22.06-18.686
					c-3.509-5.606-6.405-11.832-7.955-17.771c-4.637-17.806-2.75-23.429-1.095-24.42c1.669-0.992,22.37-10.387,33.731-26.323
					c11.36-15.95,19.094-40.904,22.417-43.122c0.456-0.295,1.984-0.788,4.43-1.198c5.249-0.896,14.677-1.418,26.584,1.017
					c17.438,3.562,28.693,12.288,29.917,18.64C527.125,248.571,522.722,272.774,500.474,305.14z"/>
				<path opacity="0.17" fill="#33075C" d="M500.474,305.14c-22.233,32.366-51.979,47.191-60.556,48.956
					c-5.718,1.162-15.084-7.502-22.06-18.686c15.374-9.849,31.253-19.084,44.407-31.806c15.02-14.506,26.386-34.867,24.321-55.896
					c-0.12-1.171-0.285-2.372-0.906-3.365c-1.487-2.438-4.78-2.61-7.489-3.356c-10.938-3.042-11.81-10.687-8.805-18.411
					c5.249-0.896,14.677-1.418,26.584,1.017c17.438,3.562,28.693,12.288,29.917,18.64
					C527.125,248.571,522.722,272.774,500.474,305.14z"/>
			</g>
			<g>
				<g>
					<path fill="#FF9DA1" d="M526.855,287.623c-4.072,24.582-19.745,42.402-36.227,48.594c-3.171,1.191-6.374,1.957-9.521,2.254
						c-19.556,1.814-37.287-13.469-50.808-40.981c-12.812-26.11-20.967-61.698-21.761-65.269c-0.058-0.189-0.072-0.292-0.072-0.292
						c0.711-0.884,1.521-1.708,2.391-2.461c0.042-0.059,0.1-0.103,0.157-0.133c1.067-0.944,2.222-1.8,3.378-2.555
						c0.042-0.03,0.085-0.06,0.128-0.088c1.44-0.932,2.867-1.731,4.166-2.369c0.1-0.059,0.199-0.104,0.285-0.148
						c0.442-0.223,0.856-0.416,1.242-0.594c1.569-0.727,2.756-1.173,3.241-1.351c0.143-0.045,0.229-0.075,0.229-0.075l1.711,1.353
						l0.632,0.494l4.811,2.947l1.105,0.682c11.341,44.625,31.793,75.525,48.402,73.964c16.435-1.546,16.415-20.697,16.412-21.093
						C506.572,284.59,526.855,287.623,526.855,287.623z"/>
					<g>
						<path fill="#FF9DA1" d="M431.941,227.117c0,0-0.443-0.041-1.103-0.169c-1.733-0.313-4.958-1.115-5.497-2.812
							c0.029,0,0.042-0.234,0.055-0.63c0.072-2.286,0.187-10.009,4.325-9.535C432.772,214.32,431.009,221.466,431.941,227.117z"/>
						<path fill="#FF9DA1" d="M423.689,222.989c0,0-1.542,3.335-3.001,3.387c-0.516,0.018-1.032-0.375-1.453-1.5
							c-0.088-0.22-0.175-0.454-0.263-0.702c-1.557-4.402-3.043-11.88,0.189-12.251c0.401-0.046,0.744-0.019,1.032,0.096
							c2.094,0.735,1.759,5.119,3.262,10.209C423.528,222.477,423.602,222.74,423.689,222.989z"/>
						<path fill="#FF9DA1" d="M418.889,224.965c-2.002-6.123-1.138-11.458-4.534-11.063c-3.396,0.396-1.563,8.693,0.072,12.955
							C416.06,231.119,418.889,224.965,418.889,224.965z"/>
						<path fill="#FF9DA1" d="M414.691,227.245c-1.824-5.578-1.036-10.436-4.13-10.076c-3.094,0.36-1.422,7.917,0.065,11.799
							C412.115,232.849,414.691,227.245,414.691,227.245z"/>
						<path fill="#FF9DA1" d="M411.078,229.528c-1.604-4.9-0.91-9.169-3.629-8.853c-2.72,0.316-1.25,6.956,0.058,10.367
							C408.813,234.452,411.078,229.528,411.078,229.528z"/>
					</g>
				</g>
				<path opacity="0.29" fill="#FF4261" d="M526.855,287.623c-4.072,24.582-19.745,42.402-36.227,48.594
					c-0.531-7.821-1.188-15.393-7.009-19.887c-4.5-3.461-10.569-3.587-15.974-5.196c-16.889-5.045-25.595-23.647-32.285-40.298
					c-5.805-14.37-11.624-28.931-14.629-44.225c-0.015-0.073-0.029-0.162-0.044-0.235c-0.191-0.98-0.354-1.902-0.474-2.796
					c-0.713-4.699-0.677-8.348-0.021-11.561c2.094,0.735,1.759,5.119,3.262,10.209c0.143-0.045,0.229-0.075,0.229-0.075l1.711,1.353
					c0.072-2.286,0.187-10.009,4.325-9.535c3.051,0.349,1.287,7.494,2.22,13.146c0,0-0.443-0.041-1.103-0.169l1.105,0.682
					c11.341,44.625,31.793,75.525,48.402,73.964c16.435-1.546,16.415-20.697,16.412-21.093
					C506.572,284.59,526.855,287.623,526.855,287.623z"/>
			</g>
			<g>
				<path fill="#6F78CF" d="M529.718,287.606c-2.137,1.933-6.658,2.017-15.257,0.089c-0.243-0.057-0.486-0.114-0.745-0.171
					c-8.541-1.973-20.212-5.524-20.539-7.735c-0.49-3.425,2.508-22.726,11.982-33.038c2.774-3.005,6.998-5.331,11.446-5.972
					c6.021-0.856,12.402,1.378,16.009,9.227C538.888,263.64,531.854,285.659,529.718,287.606z"/>
				<path opacity="0.17" fill="#33075C" d="M529.718,287.606c-2.137,1.933-6.658,2.017-15.257,0.089
					c-0.243-0.057-0.486-0.114-0.745-0.171c1.157-2.981,2.3-5.962,3.241-9.016c2.826-9.233,3.745-19.085,2.676-28.72
					c-0.362-3.164-0.995-6.471-2.971-8.936c-0.014-0.029-0.044-0.043-0.057-0.073c6.021-0.856,12.402,1.378,16.009,9.227
					C538.888,263.64,531.854,285.659,529.718,287.606z"/>
			</g>
		</g>
		<g>
			<g>
				<g>
					<path fill="#7D446E" d="M529.032,174.314c-3.136,2.568-7.665,3.825-11.534,3.027c-6.248-1.282-10.779-7.938-4.981-23.196
						c0,0-9.992,2.255-4.825-8.016c-0.455,0.442-11.66,11.058-13.468-0.186c0,0-21.367,18.206-21.874,2.091
						c0,0-19.913,12.073-17.372-4.543c0,0-6.262,3.699-6.597,0.038c0,0-3.037,4.663-6.08,5.647c-0.7,0.239-1.329,0.331-1.873,0.348
						c-1.846,0.055-2.838-0.803-2.838-0.803c-8.578,1.764-16.583-14.308-2.407-20.984c0,0-14.859-10.668-7.946-26.329
						c4.594-10.429,12.419-13.743,18.726-11.992c3.154,0.875,5.942,3.042,7.734,6.211c3.122,5.535,9.044,7.317,17.463,7.914
						c6.015,0.433,13.298,0.259,21.758,0.415c20.282,0.365,33.487,14.692,40.969,32.115
						C541.382,153.494,537.209,167.629,529.032,174.314z"/>
					<path opacity="0.3" fill="#FF72F5" d="M444.701,130.48c-3.455-1.24-7.613,0.074-9.787,3.09
						c-2.158,3.016-2.147,7.485,0.045,10.491c1.5,2.057,3.926,3.538,5.469,5.462c-1.846,0.055-2.838-0.803-2.838-0.803
						c-8.578,1.764-16.583-14.308-2.407-20.984c0,0-14.859-10.668-7.946-26.329c4.594-10.429,12.419-13.743,18.726-11.992
						c-6.655,2.691-11.661,8.288-12.234,16.028C433.036,114.856,438.238,123.749,444.701,130.48z"/>
					<path fill="#632E5A" d="M529.032,174.314c-3.136,2.568-7.665,3.825-11.534,3.027c-0.26-2.929-0.104-5.934,0.337-8.779
						c1.302-8.14,4.479-15.954,4.833-24.206c0.671-15.726-10.407-31.165-25.258-35.21c-6.437-1.75-20.083-0.557-26.251-5.605
						c6.015,0.433,13.298,0.259,21.758,0.415c20.282,0.365,33.487,14.692,40.969,32.115
						C541.382,153.494,537.209,167.629,529.032,174.314z"/>
					<path fill="#7D446E" d="M529.827,131.089c0,0,0.648-8.551,3.996-7.105c3.348,1.446-0.683,6.109-0.683,6.109
						s6.674-1.016,7.17,2.157C540.805,135.421,533.208,134.732,529.827,131.089z"/>
				</g>
				<g>
					<path fill="#FFFFFF" d="M486.541,236.841c17.604,0.962,29.104-15.042,14.111-18.875c-14.99-3.832-27.843,1.615-28.522,7.969
						S478.466,236.4,486.541,236.841z"/>
					<path fill="#FF9DA1" d="M460.551,136.557c-0.1,0.133-0.341,0.427-0.682,0.825C460.18,136.97,460.438,136.675,460.551,136.557z"
						/>
					<path fill="#FF9DA1" d="M529.203,182.255c-3.19,7.711-10.889,5.382-10.889,5.382c-3.52,10.819-14.755,16.013-16.011,16.563
						c-1.257,0.564-1.692,17.242-2.039,19.251c-0.348,2.009-5.145,6.624-12.491,5.934c-1.375-0.124-2.563-0.351-3.61-0.625
						c-4.587-1.218-6.26-3.582-6.31-4.637c-0.051-1.274,0.561-4.75,0.9-8.064c0.34-3.284,1.394-6.777-5.406-6.915h-0.014
						c-4.208-0.092-11.854-0.868-19.424-5.396c-4.651-2.772-9.27-6.965-13.055-13.288c-1.213-2.03-2.17-4.178-2.926-6.401
						c-0.771-2.237-1.329-4.549-1.714-6.862c-1.391-8.153-0.734-16.334,0.079-21.818c0.606-4.063,1.295-6.66,1.295-6.66
						c6.319-1.062,11.8-9.081,12.539-10.199c-0.427,0.706-2.254,4.087,1.738,3.888c3.348-0.166,6.578-3.408,7.987-5.014
						c-1.948,2.459-6.476,9.27,0.805,11.014c7.783,1.86,14.637-8.555,16.325-11.333c-1.402,2.616-5.873,11.917,1.049,13.606
						c8.068,1.974,18.646-13.664,18.646-13.664c-4.603,19.442,14.027,3.04,14.027,3.04c-3.665,15.025,6.144,8.199,6.144,8.199
						c-6.687,22.575-1.112,26.381,4.24,23.977C526.444,169.817,532.367,174.544,529.203,182.255z"/>
					<path opacity="0.29" fill="#FF4261" d="M529.203,182.255c-3.19,7.711-10.889,5.382-10.889,5.382
						c-3.52,10.819-14.755,16.013-16.011,16.563c-1.257,0.564-1.692,17.242-2.039,19.251c-0.348,2.009-5.145,6.624-12.491,5.934
						c-1.375-0.124-2.563-0.351-3.61-0.625l0.255-0.528c2.251-4.438,5.1-9.496,3.242-14.129c-1.756-4.341-7.076-6.084-11.639-5.5
						c-0.9,0.123-1.802,0.303-2.674,0.542h-0.014c-4.208-0.092-11.854-0.868-19.424-5.396c4.384,0.634,8.794,0.974,13.199,0.583
						c7.884-0.691,15.894-3.99,20.61-10.495c5.567-7.681,5.522-18.245,3.538-27.597c-1.16-5.503-3.254-11.322-7.936-14.254
						c-4.373,3.952-10.517,5.732-16.261,4.724c-0.102-2.402-0.185-4.79-0.285-7.178c-2.948,2.42-6.141,4.944-9.917,5.216
						c-3.819,0.286-7.128-2.523-7.479-6.389c-4.51,4.73-9.091,6.911-13.085,7.021c0.606-4.063,1.295-6.66,1.295-6.66
						c6.319-1.062,11.8-9.081,12.539-10.199c-0.427,0.706-2.254,4.087,1.738,3.888c3.348-0.166,6.578-3.408,7.987-5.014
						c-1.948,2.459-6.476,9.27,0.805,11.014c7.783,1.86,14.637-8.555,16.325-11.333c-1.402,2.616-5.873,11.917,1.049,13.606
						c8.068,1.974,18.646-13.664,18.646-13.664c-4.603,19.442,14.027,3.04,14.027,3.04c-3.665,15.025,6.144,8.199,6.144,8.199
						c-6.687,22.575-1.112,26.381,4.24,23.977C526.444,169.817,532.367,174.544,529.203,182.255z"/>
					<path fill="#FF5C87" d="M524.156,176.756c2.887,1.286,0.222,7.723-2.835,4.981
						C519.617,180.208,521.646,175.637,524.156,176.756z"/>
				</g>
			</g>
			<g>
				<g>
					<path fill="#621C55" d="M446.542,171.563c0.011,1.788-0.782,3.24-1.771,3.247c-0.988,0.005-1.796-1.438-1.805-3.226
						c-0.013-1.787,0.782-3.24,1.771-3.246S446.532,169.777,446.542,171.563z"/>
					
						<ellipse transform="matrix(1 -0.0057 0.0057 1 -0.9565 2.8394)" fill="#621C55" cx="495.068" cy="168.351" rx="1.79" ry="3.235"/>
				</g>
				<path fill="#FF5C87" d="M463.035,171.269c0.971,0.104,2.222,0.17,3.757-0.074c0.306-0.049,0.513-0.318,0.479-0.604
					c-0.109-0.92-0.28-3.156-0.034-7.04c0.019-0.31-0.388-0.479-0.611-0.247c-0.949,0.982-2.299,3.239-4.073,7.192
					C462.4,170.836,462.64,171.228,463.035,171.269z"/>
				<g>
					<path fill="none" stroke="#621C55" stroke-linecap="round" stroke-linejoin="round" stroke-miterlimit="10" d="
						M442.372,161.573c0,0,2.138-1.722,3.931-0.877"/>
					<path fill="none" stroke="#621C55" stroke-linecap="round" stroke-linejoin="round" stroke-miterlimit="10" d="
						M494.293,157.915c0,0,2.737-1.359,4.063,1.32"/>
				</g>
				<path fill="#E25381" d="M479.734,192.416c-2.328,1.008-5.182,1.756-8.617,2.148c-5.081,0.569-9.114,0.15-12.247-0.881
					c-8.808-2.889-10.521-10.54-8.062-14.295c0.227-0.333,0.454-0.637,0.709-0.9c1.757-1.889,4.235-2.206,6.92-2.07
					c0.539,0.039,1.092,0.09,1.658,0.142c2.212,0.222,4.507,0.609,6.597,0.555c0.148,0,0.31-0.016,0.458-0.016
					c0.525-0.031,1.024-0.075,1.537-0.133c2.532-0.347,4.86-1.091,7.136-1.629c0.431-0.1,0.848-0.198,1.267-0.27
					c2.559-0.498,5.092-0.568,7.863,0.672c0.095,0.041,0.176,0.082,0.257,0.137C490.146,178.399,490.32,187.896,479.734,192.416z"/>
				<g>
					<path fill="#FFFFFF" d="M454.532,182.238c-2.199-0.057-2.83-2.248-3.015-3.75c1.757-1.889,4.235-2.206,6.92-2.07
						C458.94,179.727,457.458,182.332,454.532,182.238z"/>
					<path fill="#FFFFFF" d="M467.15,177.099c-0.165,1.851-0.927,5.513-4.3,5.104c-3.035-0.369-3.067-3.585-2.755-5.644
						c2.212,0.222,4.507,0.609,6.597,0.555C466.841,177.114,467.002,177.099,467.15,177.099z"/>
					<path fill="#FFFFFF" d="M471.946,181.225c-2.696,0.084-3.236-2.465-3.259-4.259c2.532-0.347,4.86-1.091,7.136-1.629
						C476.31,178.025,475.33,181.108,471.946,181.225z"/>
					<path fill="#FFFFFF" d="M485.21,175.875c-0.283,2.196-1.821,4.663-4.734,4.266c-2.808-0.398-3.35-3.362-3.386-5.074
						c2.559-0.498,5.092-0.568,7.863,0.672C485.048,175.779,485.129,175.82,485.21,175.875z"/>
				</g>
				<path fill="#FFA1C9" d="M479.734,192.416c-2.328,1.008-5.182,1.756-8.617,2.148c-5.081,0.569-9.114,0.15-12.247-0.881
					c1.245-1.595,4.169-4.303,9.87-4.736C474.104,188.542,477.811,190.798,479.734,192.416z"/>
				<g opacity="0.83">
					
						<ellipse transform="matrix(1 -0.0059 0.0059 1 -1.0449 2.9396)" fill="#FF5C87" cx="500.855" cy="179.682" rx="7.037" ry="4.02"/>
					<path fill="#FF5C87" d="M445.838,180.367c0.011,2.081-2.828,3.783-6.349,3.803c-0.544,0.003-1.059-0.038-1.56-0.108
						c-0.771-2.237-1.329-4.549-1.714-6.862c0.943-0.343,2.044-0.54,3.232-0.546C442.968,176.633,445.826,178.301,445.838,180.367z"
						/>
				</g>
			</g>
		</g>
	</g>
</g>
<g>
	<g>
		<path fill="#7D446E" d="M425.109,542.203c0,0,2.223,13.541,1.174,17.943s-6.408,5.898-5.673,9.557
			c0.736,3.658,15.771,4.671,24.34,1.689c8.573-2.979,3.064-28.224,3.064-28.224L425.109,542.203z"/>
		<path fill="#6F78CF" d="M590.892,530.253c0,0-42.281,22.957-75.442,9.963c-33.178-12.994-25.823-41.611-48.361-41.112
			c-17.761,0.381-16.035,27.742-14.51,39.323c0.402,3.017-1.558,5.872-4.487,6.445c-4.146,0.8-8.11,0.955-11.66,0.741
			c-3.093-0.171-5.871-0.61-8.193-1.124c-1.647-0.356-3.082-0.744-4.228-1.104c-1.993-0.634-3.463-2.31-3.89-4.402
			c-6.638-33.078-6.103-88.614,30.54-98.47c7.688-2.065,14.833-1.757,21.397,0.198c25.719,7.586,42.388,40.137,47.59,51.491
			c0,0,0.13,0.351,0.479,1.009c1.633,3.127,8.103,13.199,28.291,25.199C572.83,532.921,590.892,530.253,590.892,530.253z"/>
		<path opacity="0.28" fill="#A1E9FF" d="M472.058,440.712c-11.281-0.521-22.679,3.635-31.037,11.435
			c-16.417,15.35-18.753,40.682-18.168,63.42c0.183,7.019,0.55,14.123,2.549,20.837c0.803,2.705,1.876,5.396,2.836,8.086
			c-1.647-0.356-3.082-0.744-4.228-1.104c-1.993-0.634-3.463-2.31-3.89-4.402c-6.638-33.078-6.103-88.614,30.54-98.47
			C458.349,438.448,465.493,438.757,472.058,440.712z"/>
		<path opacity="0.17" fill="#33075C" d="M590.892,530.253c0,0-42.281,22.957-75.442,9.963
			c-33.178-12.994-25.823-41.611-48.361-41.112c-17.761,0.381-16.035,27.742-14.51,39.323c0.402,3.017-1.558,5.872-4.487,6.445
			c-4.146,0.8-8.11,0.955-11.66,0.741c1.796-11.645,2.861-23.329,3.983-35.16c0.878-9.427,1.869-19.191,6.433-27.438
			c4.575-8.248,13.786-14.587,22.857-12.632c8.612,1.868,14.198,10.174,18.892,17.794c3.35,5.433,6.686,10.864,10.023,16.295
			c3.004,4.877,6.237,9.986,11.248,12.594c5.024,2.609,12.332,1.497,14.648-3.747c2.828-6.421-3.191-13.185-4.39-20.107
			c1.633,3.127,8.103,13.199,28.291,25.199C572.83,532.921,590.892,530.253,590.892,530.253z"/>
		<path fill="#7D446E" d="M497.143,541.785c0,0-18.378-2.459-26.957-1.31c-8.582,1.148-7.467,8.682-8.853,17.009
			c-1.384,8.327,0.077,13.813,3.293,13.062s3.197-4.414,6.413-5.165c3.216-0.752,21.111,0.049,21.111,0.049L497.143,541.785z"/>
		<path fill="#6F78CF" d="M576.101,580.523c-36.452,5.561-71.183-5.944-80.202-9.276c-1.492-0.548-2.615-1.787-3.082-3.323
			c-1.385-4.623-1.881-8.912-1.831-12.737c0.072-7.693,2.315-13.553,3.857-16.697c0.778-1.587,2.332-2.622,4.064-2.749
			c8.126-0.604,33.248-2.509,47.478-4.6c0.444-0.061,0.873-0.137,1.302-0.197c16.716-2.603,60.123-13.61,66.673,6.177
			C620.909,556.906,618.5,574.051,576.101,580.523z"/>
		<path opacity="0.17" fill="#33075C" d="M576.101,580.523c-36.452,5.561-71.183-5.944-80.202-9.276
			c-1.492-0.548-2.615-1.787-3.082-3.323c-1.385-4.623-1.881-8.912-1.831-12.737c18.798,3.465,36.76,6,56.161,4.934
			c14.781-0.805,31.734-4.624,38.429-18.13c-8.949-3.273-18.473-4.507-27.676-6.901c-3.913-1.017-7.813-2.283-11.515-3.948
			c0.444-0.061,0.873-0.137,1.302-0.197c16.716-2.603,60.123-13.61,66.673,6.177C620.909,556.906,618.5,574.051,576.101,580.523z"/>
	</g>
	<g>
		<g>
			<path fill="#FFAB53" d="M547.7,453.752c-2.1,0.423-6.534,1.182-12.056,1.565c-1.488,0.096-3.063,0.179-4.693,0.203
				c-5.253,0.118-11.064-0.215-16.611-1.487c-6.404-1.442-12.432-4.133-16.78-8.78c-0.216-0.233-0.432-0.467-0.633-0.715
				c-3.344-3.98-5.983-10.354-8.055-17.449c-1.459-5.032-2.634-10.431-3.579-15.613c-0.547-3.029-1.021-5.987-1.408-8.739
				c-0.224-1.595-0.434-3.133-0.613-4.583C482.372,390.979,482.03,386,482.03,386c12.474-6.286,18.904-8.345,18.904-8.345
				c0.676,0.626,1.885,4.501,3.618,9.707c1.323,3.994,2.938,8.76,4.87,13.454c1.623,3.991,3.463,7.936,5.516,11.308
				c2.411,3.942,5.104,7.106,8.076,8.629c0.402,0.202,0.805,0.405,1.204,0.563c2.942,1.258,5.763,1.579,8.51,1.241
				c4.063-0.449,7.96-2.305,11.813-4.48c4.022-2.265,7.987-4.882,12.056-6.678C562.479,408.8,554.307,452.439,547.7,453.752z"/>
			<g opacity="0.49">
				<path fill="#FBFFB8" d="M509.426,400.811c-5.315,3.988-13.604,8.827-24.128,10.662c-0.87-4.787-1.526-9.384-2.021-13.322
					c5.542-2.113,13.639-5.664,21.28-10.792C505.881,391.351,507.497,396.119,509.426,400.811z"/>
				<path fill="#FBFFB8" d="M524.226,421.313c-5.615,6.964-14.879,16.556-27.294,23.223c-3.343-3.981-5.983-10.354-8.054-17.448
					c6.726-2.604,17.075-7.412,26.065-14.966c2.412,3.942,5.105,7.105,8.076,8.627C523.421,420.951,523.824,421.153,524.226,421.313
					z"/>
				<path fill="#FBFFB8" d="M544.546,418.073c-0.879,9.279-3.137,22.993-8.896,37.239c-6.309,0.435-14.037,0.375-21.303-1.281
					c5.926-7.464,14.475-19.573,18.388-31.479C536.796,422.104,540.693,420.25,544.546,418.073z"/>
			</g>
			<path opacity="0.1" fill="#FA1717" d="M547.7,453.752c-2.1,0.423-6.534,1.182-12.056,1.565c-1.488,0.096-3.063,0.179-4.693,0.203
				c0.056-0.294,0.082-0.587,0.109-0.88c0.642-8.355-8.974-12.856-14.89-18.64c-5.151-5.025-7.88-12.072-10.081-18.99
				c-4.603-14.494-11.904-12.343-22.205-14.274c-0.224-1.595-0.434-3.133-0.613-4.583C482.372,390.979,482.03,386,482.03,386
				c12.474-6.286,18.904-8.345,18.904-8.345c0.676,0.626,1.885,4.501,3.618,9.707c1.323,3.994,2.938,8.76,4.87,13.454
				c1.623,3.991,3.463,7.936,5.516,11.308c2.411,3.942,5.104,7.106,8.076,8.629c0.402,0.202,0.805,0.405,1.204,0.563
				c2.942,1.258,5.763,1.579,8.51,1.241c4.063-0.449,7.96-2.305,11.813-4.48c4.022-2.265,7.987-4.882,12.056-6.678
				C562.479,408.8,554.307,452.439,547.7,453.752z"/>
		</g>
		<g>
			<path fill="#FF9480" d="M483.751,353.92c1.356-2.075,1.435-5.14,2.596-6.101c1.159-0.961,4.093,2.363,2.368,6.789
				c-1.723,4.426-4.929,5.518-4.929,5.518S482.74,355.468,483.751,353.92z"/>
			<path fill="#FF9480" d="M483.49,388.409c0,0-2.051-6.127-3.765-7.762c-1.715-1.634,0.85-22.651,3.984-24.937
				c3.134-2.285,6.421,1.991,10.176,6.146c3.752,4.154,6.508,17.538,6.508,17.538L483.49,388.409z"/>
		</g>
		<g>
			<path fill="#FC7278" d="M634.825,532.521c0,0-3.132,2.645-4.055,4.319c-0.924,1.676-1.261,4.065,10.519,5.069
				c11.778,1.006,32.776,3.986,34.627,1.351c1.852-2.637-5.382-3.668-11.804-5.421c-6.42-1.752-12.029-4.472-11.231-7.516
				C653.68,527.279,634.825,532.521,634.825,532.521z"/>
			<path fill="#FFAB53" d="M655.799,519.91c-0.092,6.492-0.5,10.334-0.798,10.951c-0.325,0.66-4.301,1.344-8.864,1.824
				c-5.593,0.604-12.088,0.906-13.794,0.505c0,0-0.62-3.351-1.637-8.546c-0.736-3.793-1.679-8.549-2.738-13.729
				c-0.896-4.376-1.883-9.061-2.896-13.699c-1.029-4.757-2.1-9.453-3.14-13.725c-0.614-2.563-1.229-4.96-1.813-7.126
				c-0.525-1.947-1.037-3.701-1.517-5.208c-0.321-1.023-0.642-1.931-0.932-2.705l1.263-14.938l1.182-13.985l1.156-13.678
				l1.166-13.883c5.393,1.771,9.833,5.188,13.538,9.84c2.479,3.151,4.633,6.86,6.501,11.012c1.682,3.739,3.136,7.85,4.405,12.209
				c1.518,5.208,2.751,10.783,3.799,16.535c0.842,4.698,1.57,9.516,2.197,14.362c0.136,1.054,0.27,2.106,0.404,3.162
				c0.48,3.968,0.887,7.746,1.208,11.319c0.486,5.243,0.814,10.063,1.01,14.398C655.791,510.782,655.849,515.866,655.799,519.91z"/>
			<g opacity="0.57">
				<path fill="#FBFFB8" d="M642.482,432.814c-5.985,1.999-13.788,4.417-22.362,6.71l1.154-13.679
					c4.846-1.302,9.976-2.71,14.705-4.041C638.459,424.954,640.613,428.665,642.482,432.814z"/>
				<path fill="#FBFFB8" d="M650.686,461.561c-7.454,3.003-19.524,7.249-32.078,9.594c-0.32-1.024-0.642-1.932-0.932-2.706
					l1.263-14.938c8.547-2.027,18.923-4.873,27.949-8.485C648.404,450.232,649.639,455.808,650.686,461.561z"/>
				<path fill="#FBFFB8" d="M654.495,490.404c-7.485,2.344-17.99,5.175-29.417,6.809c-1.028-4.756-2.1-9.454-3.14-13.727
					c7.923-1.35,20.56-3.855,30.945-7.565c0.135,1.055,0.27,2.109,0.403,3.164C653.768,483.053,654.175,486.83,654.495,490.404z"/>
				<path fill="#FBFFB8" d="M655.805,519.907c-6.432,1.897-15.55,4.061-25.093,4.732c-0.736-3.791-1.679-8.548-2.738-13.729
					c7.438-1.04,18.347-2.965,27.532-6.11C655.797,510.778,655.854,515.862,655.805,519.907z"/>
			</g>
			<path opacity="0.1" fill="#FA1717" d="M655.799,519.91c-0.092,6.492-0.5,10.334-0.798,10.951
				c-0.325,0.66-4.301,1.344-8.864,1.824c0.151-11.591-0.342-23.193-1.452-34.732c-1.549-16.022-4.633-32.768-14.762-45.075
				c-0.49-0.598-1.081-1.225-1.839-1.249c-1.219-0.067-1.926,1.359-2.306,2.548c-1.802,5.507-3.18,14.994-5.659,22.188
				c-0.525-1.947-1.037-3.701-1.517-5.208c-0.321-1.023-0.642-1.931-0.932-2.705l1.263-14.938l1.182-13.985l1.156-13.678
				l1.166-13.883c5.393,1.771,9.833,5.188,13.538,9.84c2.479,3.151,4.633,6.86,6.501,11.012c1.682,3.739,3.136,7.85,4.405,12.209
				c1.518,5.208,2.751,10.783,3.799,16.535c0.842,4.698,1.57,9.516,2.197,14.362c0.136,1.054,0.27,2.106,0.404,3.162
				c0.48,3.968,0.887,7.746,1.208,11.319c0.486,5.243,0.814,10.063,1.01,14.398C655.791,510.782,655.849,515.866,655.799,519.91z"/>
		</g>
		<g>
			<path fill="#FFAB53" d="M622.438,411.968c0,0-0.019,1.655-0.089,4.558c-0.098,2.989-0.245,7.298-0.546,12.457
				c-0.247,4.56-0.59,9.762-1.102,15.318c-0.528,5.776-1.194,11.936-2.09,18.065c-0.883,6.202-1.979,12.379-3.336,18.174
				c-0.055,0.22-0.098,0.44-0.152,0.659c-2.113,8.863-4.859,16.733-7.757,23.432c-2.953,6.875-6.07,12.52-8.837,16.756
				c-3.435,5.28-6.338,8.359-7.638,8.866c-2.827,1.085-22.724,0.878-40.289-7.664c-3.502-1.694-6.905-3.727-10.068-6.139
				c-19.044-14.542-21.411-23.146-19.646-24.797c0.557-0.5,2.45-2.24,5.054-5.099c2.731-3.006,6.256-7.26,9.833-12.673
				c2.612-3.956,5.264-8.515,7.624-13.643c1.358-2.895,2.615-5.979,3.741-9.224c0.029-0.088,0.072-0.191,0.101-0.279
				c1.464-4.258,2.701-8.236,3.756-11.891c1.065-3.713,1.921-7.089,2.619-10.111c0.952-4.079,1.604-7.512,2.048-10.211
				c0.762-4.618,0.933-7.125,0.933-7.125s3.912-1.693,10.702-3.198C578.964,405.626,599.091,403.663,622.438,411.968z"/>
			<g opacity="0.59">
				<path fill="#FBFFB8" d="M622.354,416.521c-0.098,2.99-0.245,7.299-0.545,12.459c-13.749,1.135-45.497,3.121-68.188-0.249
					c0.95-4.078,1.605-7.511,2.048-10.209C564.56,418.909,592.243,419.7,622.354,416.521z"/>
				<path fill="#FBFFB8" d="M620.704,444.298c-0.525,5.776-1.191,11.934-2.09,18.063c-11.477,0.023-44.715-0.926-71.367-11.629
					c1.464-4.257,2.701-8.234,3.755-11.891C564.957,441.516,595.728,446.524,620.704,444.298z"/>
				<path fill="#FBFFB8" d="M615.281,480.537c-0.055,0.219-0.097,0.438-0.153,0.659c-2.112,8.863-4.86,16.731-7.756,23.432
					c-12.262-1.863-47.108-8.885-71.591-30.751c2.612-3.956,5.262-8.514,7.624-13.643
					C551.791,465.256,574.209,476.247,615.281,480.537z"/>
				<path fill="#FBFFB8" d="M598.535,521.384c-3.437,5.28-6.338,8.359-7.638,8.864c-3.398,1.31-31.313,0.74-50.357-13.803
					c-19.045-14.542-21.411-23.144-19.646-24.794c0.556-0.503,2.449-2.242,5.053-5.101
					C535.078,496.755,558.18,517.399,598.535,521.384z"/>
			</g>
			<path opacity="0.1" fill="#FA1717" d="M622.438,411.968c0,0-0.019,1.655-0.089,4.558c-0.098,2.989-0.245,7.298-0.546,12.457
				c-0.247,4.56-0.59,9.762-1.102,15.318c-0.528,5.776-1.194,11.936-2.09,18.065c-0.883,6.202-1.979,12.379-3.336,18.174
				c-0.055,0.22-0.098,0.44-0.152,0.659c-2.113,8.863-4.859,16.733-7.757,23.432c-2.953,6.875-6.07,12.52-8.837,16.756
				c-3.435,5.28-6.338,8.359-7.638,8.866c-2.827,1.085-22.724,0.878-40.289-7.664c1.214-0.402,2.443-0.791,3.643-1.267
				c14.409-5.638,22.352-21.465,26.633-36.641c4.379-15.484,6.308-31.688,5.702-47.802c-0.068-2.079-0.224-4.276-1.364-6
				c-2.353-3.562-7.403-3.399-11.334-4.887c-10.385-3.938-10.508-10.781-6.583-17.793
				C578.964,405.626,599.091,403.663,622.438,411.968z"/>
		</g>
		<g>
			<path fill="#FFFAE0" d="M487.875,329.738c0,0,29.37-13.358,33.119-14.846c0,0-1.077,11.729-2.919,22.18l-28.99-2.578
				L487.875,329.738z"/>
			<path fill="#6F78CF" d="M481.181,397.647c0,0,34.048,6.662,50.153,7.3c0,0,4.788-34.206,7.254-68.36
				c0,0-41.467-2.873-49.445-3.192C489.143,333.395,484.603,372.168,481.181,397.647z"/>
			<path fill="#5969A8" d="M489.143,333.395l-1.265-3.106c0,0-7.523,55.541-8.614,62.874c0,0,0.639,3.312,1.917,4.485
				C481.181,397.647,488.735,343.837,489.143,333.395z"/>
			<polygon fill="#8A95DD" points="519.021,314.171 520.994,314.893 489.518,330.279 490.094,332.107 537.379,335.311 
				538.588,336.587 489.143,333.395 487.875,329.738 			"/>
			<path fill="#4A57AB" d="M496.051,345.159c0,0,18.314,0.317,31.742,2.092c0,0,0.021,3.501-0.848,8.452
				c0,0-28.1-1.935-31.676-1.873C495.27,353.831,495.659,350.739,496.051,345.159z"/>
			<g>
				<path fill="none" stroke="#4A57AB" stroke-miterlimit="10" d="M501.037,361.815c0,0,13.327,0.866,18.655,1.413"/>
				<path fill="none" stroke="#4A57AB" stroke-miterlimit="10" d="M503.571,367.119c0,0,8.235,0.738,10.919,0.826"/>
			</g>
		</g>
		<g>
			<g>
				<path fill="#FF9480" d="M483.739,361.313l-0.066,0.689l-0.53,5.249l-0.026,0.308l-0.542,5.424l-0.027,0.338l-0.556,5.542
					l-0.041,0.424l-0.42,4.237c-0.473-0.056-1.032-0.213-1.604-0.474v-0.014c-0.604-0.275-1.25-0.653-1.854-1.148
					c-0.949-0.77-1.842-1.806-2.508-3.105c-1.533-2.968-1.258-15.145,0.945-18.016c0.525-0.691,1.209-1.413,1.948-2.12
					c2.349-2.286,5.243-4.368,5.243-4.368C483.821,355.232,483.739,361.313,483.739,361.313z"/>
				<g>
					<path fill="#FF9480" d="M489.488,368.093l-0.043,0c-1.861-0.047-3.395-0.259-4.497-0.458c-0.027,0.001-0.057,0.001-0.1-0.014
						c-0.96-0.17-1.548-0.328-1.706-0.371c-0.027-0.014-0.042-0.014-0.042-0.014s-1.168-4.037,0.572-5.234
						c0.041-0.029,0.085-0.06,0.128-0.089c0,0,5.54,0.085,8.221,0.904C494.718,363.638,493.339,368.189,489.488,368.093z"/>
					<path fill="#FF9480" d="M488.59,373.725c-0.602-0.01-1.188-0.051-1.718-0.091c-0.102,0-0.201-0.014-0.303-0.028
						c-0.386-0.041-0.772-0.083-1.158-0.109h-0.043c-1.318-0.183-2.293-0.398-2.794-0.513c-0.244-0.057-0.373-0.1-0.373-0.1
						s-1.226-4.242,0.701-5.323c0,0,0.071,0,0.214-0.001c0.314,0.013,0.945,0.039,1.732,0.063c0.043,0.015,0.072,0.015,0.1,0.014
						c1.303,0.081,3.021,0.203,4.497,0.458l0.043,0c0.604,0.114,1.16,0.229,1.634,0.373
						C493.803,369.285,492.44,373.835,488.59,373.725z"/>
					<path fill="#FF9480" d="M487.333,379.463c-2.376-0.06-4.253-0.372-5.342-0.599c-0.674-0.128-1.031-0.244-1.031-0.244
						s-1.24-4.243,0.686-5.323c0,0,0.343-0.001,0.901,0.024c0.702,0.026,1.718,0.077,2.821,0.175h0.043
						c0.386,0.025,0.772,0.068,1.158,0.109c0.102,0.014,0.201,0.028,0.303,0.028c1.116,0.14,2.191,0.309,3.007,0.568
						C492.563,375.021,491.184,379.558,487.333,379.463z"/>
					<path fill="#FF9480" d="M486.429,384.098c-3.851-0.08-6.388-0.666-6.388-0.666s-0.058-0.146-0.115-0.38v-0.014
						c-0.263-0.908-0.69-3.103,0.823-3.772c0,0,0.473-0.002,1.201,0.023c1.775,0.063,5.112,0.221,7.017,0.679
						C491.662,380.609,490.279,384.164,486.429,384.098z"/>
				</g>
			</g>
			<path opacity="0.29" fill="#FF4261" d="M488.59,373.725c-0.602-0.01-1.188-0.051-1.718-0.091c1.116,0.14,2.191,0.309,3.007,0.568
				c2.684,0.82,1.305,5.356-2.546,5.262c-2.376-0.06-4.253-0.372-5.342-0.599l-0.041,0.424c1.775,0.063,5.112,0.221,7.017,0.679
				c2.695,0.642,1.313,4.197-2.538,4.131c-3.851-0.08-6.388-0.666-6.388-0.666s-0.058-0.146-0.115-0.38v-0.014
				c-0.604-0.275-1.25-0.653-1.854-1.148c1.408-3.92,3.407-7.581,2.993-12.413c-0.306-3.574-1.9-7.169-2.607-10.828
				c2.349-2.286,5.243-4.368,5.243-4.368c0.12,0.952,0.038,7.033,0.038,7.033l-0.066,0.689c0.041-0.029,0.085-0.06,0.128-0.089
				c0,0,5.54,0.085,8.221,0.904c2.696,0.82,1.317,5.371-2.533,5.275c0.604,0.114,1.16,0.229,1.634,0.373
				C493.803,369.285,492.44,373.835,488.59,373.725z"/>
		</g>
	</g>
	<g>
		<g>
			<g>
				<path fill="#F2DEAE" d="M649.51,327.965c-1.223,4.389-11.333,0.77-11.333,0.77s7.039,22.465-7.79,40.238
					c-6.028,7.215-11.887,9.3-16.285,8.257c-6.435-1.517-9.715-9.718-5.742-18.313c6.689-14.472,9.978-20.586-1.762-18.525
					c-11.739,2.046-24.477-3.125-8.623-9.006c0,0-17.591-7.692-50.173-1.275c0,0-8.828,5.723-12.871-0.481
					c-3.795-5.825,6.784-13.242,12.602-14.375c-2.202,0.188-7.14,0.1-7.167-4.618c-0.032-5.641,13.083-10.128,29.947-9.274
					c-4.239-0.562-9.972-2.213-8.482-6.984c1.533-4.917,13.788-6.879,27.867-5.056c0.028,0,0.057-0.001,0.085,0.014
					c7.004,0.897,14.458,2.729,21.257,5.605c20.516,8.643,25.048,28.573,25.048,28.573s6.291-11.788,10.167-9.54
					c3.892,2.249-5.47,9.938-5.47,9.938S650.729,323.578,649.51,327.965z"/>
				<path opacity="0.21" fill="#C5753A" d="M649.51,327.965c-1.223,4.389-11.333,0.77-11.333,0.77s7.039,22.465-7.79,40.238
					c-6.028,7.215-11.887,9.3-16.285,8.257c0.509-6.158,2.15-12.204,4.868-17.7c4.443-8.993,11.875-18.854,7.617-27.943
					c-2.434,0.043-4.866,0.072-7.3,0.115c3.765-0.036,5.277-5.979,2.614-8.747c-2.665-2.798-7.285-2.493-10.638-0.627
					c2.507-2.155,3.057-6.319,1.165-9.063c-1.355-1.97-3.838-2.996-6.169-2.749c2.967-1.892,4.286-6.56,2.921-10.112
					c-1.713-4.43-6.095-7.159-10.427-8.937c-2.238-0.924-5.477-1.506-8.972-2.13c7.004,0.897,14.458,2.729,21.257,5.605
					c20.516,8.643,25.048,28.573,25.048,28.573s6.291-11.788,10.167-9.54c3.892,2.249-5.47,9.938-5.47,9.938
					S650.729,323.578,649.51,327.965z"/>
			</g>
			<g>
				<path fill="#FFFFFF" d="M583.498,423.326c20.396,0.2,26.747-16.091,13.659-20.777c-13.085-4.685-28.54,2.085-27.813,10.555
					C570.071,421.573,579.322,423.285,583.498,423.326z"/>
				<path fill="#FF9480" d="M627.963,381.017c-5.928,2.307-10.791-2.487-10.791-2.487c-5.749,11.214-18.167,14.964-18.852,15.394
					c-0.684,0.429-0.474,15.153-0.827,15.858c-0.367,0.705-4.992,5.686-11.491,5.298c-0.487-0.026-0.959-0.067-1.418-0.123
					c-5.486-0.584-7.886-2.504-8.152-4.056c-0.281-1.698,0.396-3.401,0.781-8.927c0.133-1.878,0.182-3.138-0.038-4.044
					c-0.453-1.743-1.972-2.187-6.087-3.276c-2.951-0.79-9.03-2.483-15.134-6.286c-6.766-4.226-13.588-11.057-16.253-22.119
					c-0.499-2.093-0.84-4.142-1.021-6.134c-0.215-2.46-0.214-4.834-0.024-7.091c0.652-8.518,3.734-15.466,6.116-19.7
					c1.586-2.852,2.881-4.471,2.881-4.471c35.185-9.407,56.944,1.646,56.822,2.922c-0.137,1.275-14.08,3.188-9.642,6.137
					s15.456-2.772,21.288,0.727c5.829,3.497-2.263,15.442-5.385,25.526c-3.12,10.084,4.891,9.292,7.771,7.516
					c2.896-1.774,4.794-7.896,4.794-7.896C637.956,363.698,633.889,378.728,627.963,381.017z"/>
				<path opacity="0.29" fill="#FF4261" d="M627.963,381.017c-5.928,2.307-10.791-2.487-10.791-2.487
					c-5.749,11.214-18.167,14.964-18.852,15.394c-0.684,0.429-0.474,15.153-0.827,15.858c-0.367,0.705-4.992,5.686-11.491,5.298
					c-0.487-0.026-0.959-0.067-1.418-0.123c1.542-3.219,2.569-6.463,1.691-9.696c-1.123-4.095-4.902-6.433-9.101-7.331
					c-0.453-1.743-1.972-2.187-6.087-3.276c-2.951-0.79-9.03-2.483-15.134-6.286c7.047,1.028,14.118,1.032,20.528-1.893
					c7.496-3.414,13.121-10.832,14.491-19.118c1.372-8.287-1.555-17.179-7.525-22.946c3.927-3.936,1.096-11.407-3.871-13.839
					c-9.185-4.504-21.275,1.354-30.672,2.494c-1.358,0.168-2.747,0.221-4.134,0.258c1.586-2.852,2.881-4.471,2.881-4.471
					c35.185-9.407,56.944,1.646,56.822,2.922c-0.137,1.275-14.08,3.188-9.642,6.137s15.456-2.772,21.288,0.727
					c5.829,3.497-2.263,15.442-5.385,25.526c-3.12,10.084,4.891,9.292,7.771,7.516c2.896-1.774,4.794-7.896,4.794-7.896
					C637.956,363.698,633.889,378.728,627.963,381.017z"/>
			</g>
		</g>
		<g>
			<g>
				<path fill="#682202" d="M550.403,345.987c-0.396,1.724-1.451,2.946-2.354,2.728c-0.904-0.217-1.315-1.792-0.92-3.517
					c0.396-1.725,1.451-2.947,2.355-2.729C550.388,342.688,550.799,344.262,550.403,345.987z"/>
				<path fill="#682202" d="M597.013,351.903c-0.396,1.725-1.451,2.947-2.355,2.729c-0.902-0.217-1.314-1.792-0.918-3.517
					c0.396-1.725,1.451-2.946,2.354-2.729C596.997,348.604,597.409,350.179,597.013,351.903z"/>
			</g>
			<path fill="#FF5C87" d="M561.361,351.837c1.243,0.262,2.854,0.513,4.874,0.4c0.401-0.022,0.703-0.344,0.696-0.717
				c-0.027-1.205,0.033-4.124,0.841-9.117c0.065-0.398-0.439-0.671-0.758-0.401c-1.354,1.147-3.386,3.889-6.182,8.772
				C560.594,351.193,560.854,351.73,561.361,351.837z"/>
			<path opacity="0.75" fill="none" stroke="#682202" stroke-linecap="round" stroke-linejoin="round" stroke-miterlimit="10" d="
				M551.912,362.497c0,0,5.214,5.064,20.966,4.123c15.753-0.941,20.139-7.617,20.139-7.617"/>
			<g opacity="0.76">
				<path fill="#FF5C87" d="M606.63,365.102c-0.31,2.284-3.339,3.739-6.767,3.25c-3.426-0.488-5.951-2.735-5.641-5.018
					c0.311-2.284,3.34-3.739,6.767-3.251C604.415,360.571,606.939,362.818,606.63,365.102z"/>
				<path fill="#FF5C87" d="M548.204,357.726c-0.303,2.273-3.328,3.741-6.767,3.249c-1.018-0.14-1.948-0.443-2.753-0.863
					c-0.215-2.46-0.213-4.834-0.024-7.092c1.114-0.388,2.474-0.527,3.905-0.316C545.988,353.196,548.52,355.438,548.204,357.726z"/>
			</g>
			<path fill="#FF5C87" d="M627.359,370.407c3.72,1.386,1.151,8.342-3.004,6.81C620.199,375.686,623.619,369.014,627.359,370.407z"
				/>
		</g>
		<g>
			<path fill="none" stroke="#C1521E" stroke-linecap="round" stroke-linejoin="round" stroke-miterlimit="10" d="M548.227,334.67
				c0,0,2.189-1.44,3.735-0.379"/>
			<path fill="none" stroke="#C1521E" stroke-linecap="round" stroke-linejoin="round" stroke-miterlimit="10" d="M596.549,337.53
				c0,0,2.693-1.005,3.576,1.816"/>
		</g>
	</g>
</g>
<path fill="#7D446E" d="M334.729,579.539c0,0-2.222,13.539-1.174,17.94c1.05,4.405,6.409,5.898,5.673,9.56
	c-0.736,3.657-15.771,4.67-24.341,1.688c-8.572-2.979-3.063-28.224-3.063-28.224L334.729,579.539z"/>
<path fill="#00CC71" d="M168.947,567.588c0,0,42.281,22.958,75.443,9.963c33.179-12.993,25.822-41.611,48.361-41.114
	c17.761,0.384,16.035,27.743,14.51,39.325c-0.402,3.017,1.557,5.872,4.488,6.444c4.146,0.802,8.109,0.956,11.66,0.741
	c3.093-0.172,5.872-0.609,8.193-1.125c1.647-0.354,3.082-0.743,4.228-1.102c1.993-0.635,3.462-2.309,3.89-4.404
	c6.638-33.076,6.102-88.613-30.541-98.467c-7.689-2.065-14.833-1.757-21.397,0.197c-25.719,7.587-42.388,40.138-47.59,51.49
	c0,0-0.129,0.353-0.478,1.011c-1.634,3.124-8.102,13.198-28.292,25.197C187.009,570.256,168.947,567.588,168.947,567.588z"/>
<path opacity="0.28" fill="#A1E9FF" d="M287.781,478.047c11.28-0.521,22.679,3.635,31.037,11.433
	c16.417,15.353,18.752,40.685,18.168,63.422c-0.183,7.017-0.551,14.123-2.549,20.837c-0.803,2.705-1.876,5.395-2.836,8.084
	c1.647-0.354,3.082-0.743,4.228-1.102c1.993-0.635,3.462-2.309,3.89-4.404c6.638-33.076,6.102-88.613-30.541-98.467
	C301.49,475.784,294.346,476.093,287.781,478.047z"/>
<path opacity="0.17" fill="#005900" d="M168.947,567.588c0,0,42.281,22.958,75.443,9.963c33.179-12.993,25.822-41.611,48.361-41.114
	c17.761,0.384,16.035,27.743,14.51,39.325c-0.402,3.017,1.557,5.872,4.488,6.444c4.146,0.802,8.109,0.956,11.66,0.741
	c-1.796-11.644-2.861-23.33-3.984-35.16c-0.877-9.427-1.868-19.191-6.432-27.436c-4.575-8.249-13.787-14.588-22.857-12.633
	c-8.612,1.869-14.197,10.173-18.891,17.795c-3.35,5.431-6.687,10.863-10.024,16.295c-3.004,4.877-6.238,9.985-11.248,12.593
	c-5.024,2.609-12.332,1.496-14.649-3.747c-2.828-6.421,3.192-13.185,4.39-20.106c-1.634,3.124-8.102,13.198-28.292,25.197
	C187.009,570.256,168.947,567.588,168.947,567.588z"/>
<path fill="#7D446E" d="M262.697,579.118c0,0,18.376-2.458,26.958-1.308c8.582,1.147,7.466,8.68,8.851,17.008
	c1.384,8.328-0.077,13.814-3.293,13.063c-3.216-0.75-3.196-4.414-6.412-5.166c-3.217-0.75-21.111,0.051-21.111,0.051
	L262.697,579.118z"/>
<path fill="#00CC71" d="M183.739,617.859c36.452,5.561,71.181-5.944,80.202-9.278c1.491-0.547,2.615-1.785,3.082-3.322
	c1.385-4.622,1.881-8.911,1.831-12.738c-0.073-7.692-2.316-13.551-3.857-16.696c-0.779-1.588-2.333-2.621-4.064-2.75
	c-8.126-0.604-33.249-2.507-47.478-4.599c-0.443-0.06-0.873-0.138-1.302-0.197c-16.716-2.603-60.123-13.611-66.672,6.176
	C138.929,594.24,141.338,611.386,183.739,617.859z"/>
<path opacity="0.17" fill="#005900" d="M183.739,617.859c36.452,5.561,71.181-5.944,80.202-9.278
	c1.491-0.547,2.615-1.785,3.082-3.322c1.385-4.622,1.881-8.911,1.831-12.738c-18.797,3.466-36.759,6.001-56.162,4.935
	c-14.781-0.805-31.733-4.626-38.428-18.131c8.95-3.273,18.474-4.508,27.676-6.899c3.914-1.019,7.813-2.283,11.514-3.949
	c-0.443-0.06-0.873-0.138-1.302-0.197c-16.716-2.603-60.123-13.611-66.672,6.176C138.929,594.24,141.338,611.386,183.739,617.859z"
	/>
<g>
	<path fill="#FFAB53" stroke="#00AA00" stroke-miterlimit="10" d="M212.138,491.086c2.101,0.424,6.534,1.182,12.056,1.564
		c1.489,0.098,3.063,0.182,4.694,0.204c5.252,0.12,11.064-0.215,16.61-1.485c6.406-1.442,12.433-4.133,16.781-8.783
		c0.216-0.232,0.432-0.467,0.633-0.713c3.343-3.979,5.983-10.354,8.055-17.448c1.459-5.034,2.635-10.431,3.58-15.614
		c0.547-3.03,1.021-5.986,1.407-8.74c0.224-1.594,0.434-3.133,0.614-4.581c0.899-7.175,1.241-12.154,1.241-12.154
		c-12.475-6.287-18.904-8.345-18.904-8.345c-0.677,0.625-1.886,4.501-3.618,9.707c-1.324,3.992-2.94,8.76-4.87,13.453
		c-1.624,3.99-3.463,7.936-5.516,11.308c-2.413,3.943-5.106,7.105-8.077,8.628c-0.402,0.203-0.804,0.407-1.205,0.563
		c-2.941,1.26-5.763,1.58-8.509,1.242c-4.062-0.449-7.959-2.304-11.812-4.481c-4.022-2.264-7.988-4.883-12.056-6.677
		C197.359,446.136,205.533,489.775,212.138,491.086z"/>
	<g opacity="0.49">
		<path fill="#FBFFB8" stroke="#00AA00" stroke-miterlimit="10" d="M250.413,438.146c5.315,3.988,13.605,8.828,24.128,10.663
			c0.87-4.789,1.526-9.385,2.021-13.324c-5.542-2.113-13.637-5.662-21.28-10.791C253.957,428.687,252.341,433.454,250.413,438.146z"
			/>
		<path fill="#FBFFB8" stroke="#00AA00" stroke-miterlimit="10" d="M235.614,458.646c5.614,6.964,14.878,16.557,27.294,23.225
			c3.342-3.981,5.982-10.355,8.054-17.449c-6.726-2.604-17.076-7.412-26.065-14.967c-2.413,3.943-5.106,7.106-8.078,8.628
			C236.417,458.287,236.015,458.489,235.614,458.646z"/>
		<path fill="#FBFFB8" stroke="#00AA00" stroke-miterlimit="10" d="M215.293,455.408c0.879,9.279,3.136,22.994,8.896,37.24
			c6.309,0.432,14.039,0.374,21.304-1.283c-5.926-7.462-14.474-19.571-18.388-31.479
			C223.043,459.44,219.145,457.585,215.293,455.408z"/>
	</g>
	<path opacity="0.1" fill="#FA1717" stroke="#00AA00" stroke-miterlimit="10" d="M212.138,491.086
		c2.101,0.424,6.534,1.182,12.056,1.564c1.489,0.098,3.063,0.182,4.694,0.204c-0.056-0.292-0.083-0.587-0.11-0.878
		c-0.64-8.357,8.974-12.859,14.889-18.64c5.152-5.025,7.882-12.074,10.082-18.991c4.603-14.496,11.904-12.343,22.205-14.275
		c0.224-1.594,0.434-3.133,0.614-4.581c0.899-7.175,1.241-12.154,1.241-12.154c-12.475-6.287-18.904-8.345-18.904-8.345
		c-0.677,0.625-1.886,4.501-3.618,9.707c-1.324,3.992-2.94,8.76-4.87,13.453c-1.624,3.99-3.463,7.936-5.516,11.308
		c-2.413,3.943-5.106,7.105-8.077,8.628c-0.402,0.203-0.804,0.407-1.205,0.563c-2.941,1.26-5.763,1.58-8.509,1.242
		c-4.062-0.449-7.959-2.304-11.812-4.481c-4.022-2.264-7.988-4.883-12.056-6.677C197.359,446.136,205.533,489.775,212.138,491.086z"
		/>
</g>
<g>
	<path fill="#FF9480" stroke="#00AA00" stroke-miterlimit="10" d="M276.088,391.255c-1.357-2.077-1.436-5.141-2.596-6.102
		c-1.16-0.961-4.094,2.363-2.369,6.789c1.724,4.426,4.93,5.519,4.93,5.519S277.099,392.802,276.088,391.255z"/>
	<path fill="#FF9480" stroke="#00AA00" stroke-miterlimit="10" d="M276.35,425.744c0,0,2.05-6.127,3.764-7.761
		c1.715-1.634-0.85-22.652-3.985-24.938c-3.133-2.285-6.421,1.992-10.175,6.147c-3.753,4.153-6.508,17.535-6.508,17.535
		L276.35,425.744z"/>
</g>
<g>
	<path fill="#FC7278" stroke="#00AA00" stroke-miterlimit="10" d="M125.013,569.854c0,0,3.133,2.645,4.055,4.321
		c0.924,1.674,1.261,4.063-10.519,5.069c-11.779,1.007-32.776,3.986-34.626,1.351c-1.851-2.637,5.382-3.67,11.803-5.42
		c6.42-1.752,12.03-4.475,11.232-7.517C106.159,564.614,125.013,569.854,125.013,569.854z"/>
	<path fill="#FFAB53" stroke="#00AA00" stroke-miterlimit="10" d="M104.04,557.245c0.092,6.491,0.5,10.335,0.798,10.949
		c0.325,0.662,4.301,1.345,8.864,1.826c5.592,0.604,12.089,0.904,13.794,0.503c0,0,0.621-3.351,1.637-8.545
		c0.737-3.791,1.679-8.547,2.738-13.728c0.897-4.379,1.882-9.061,2.896-13.7c1.028-4.756,2.099-9.452,3.139-13.726
		c0.615-2.561,1.23-4.959,1.814-7.126c0.525-1.945,1.037-3.699,1.516-5.208c0.321-1.021,0.642-1.929,0.932-2.705l-1.264-14.938
		l-1.181-13.985l-1.156-13.677l-1.167-13.882c-5.392,1.768-9.833,5.188-13.538,9.839c-2.478,3.15-4.632,6.858-6.501,11.012
		c-1.681,3.74-3.136,7.85-4.405,12.208c-1.518,5.209-2.75,10.783-3.799,16.536c-0.842,4.699-1.57,9.516-2.197,14.36
		c-0.136,1.057-0.27,2.109-0.404,3.163c-0.481,3.969-0.888,7.747-1.208,11.321c-0.488,5.242-0.815,10.062-1.011,14.397
		C104.048,548.116,103.991,553.202,104.04,557.245z"/>
	<g opacity="0.57">
		<path fill="#FBFFB8" stroke="#00AA00" stroke-miterlimit="10" d="M117.357,470.148c5.984,2.001,13.787,4.419,22.361,6.711
			l-1.154-13.68c-4.846-1.302-9.975-2.71-14.705-4.04C121.379,462.289,119.226,465.999,117.357,470.148z"/>
		<path fill="#FBFFB8" stroke="#00AA00" stroke-miterlimit="10" d="M109.152,498.896c7.456,3.002,19.526,7.249,32.08,9.593
			c0.32-1.025,0.64-1.932,0.931-2.705l-1.264-14.938c-8.547-2.029-18.922-4.874-27.948-8.485
			C111.435,487.565,110.201,493.144,109.152,498.896z"/>
		<path fill="#FBFFB8" stroke="#00AA00" stroke-miterlimit="10" d="M105.344,527.74c7.485,2.344,17.989,5.174,29.417,6.809
			c1.029-4.758,2.1-9.456,3.139-13.729c-7.922-1.348-20.56-3.854-30.945-7.564c-0.134,1.054-0.27,2.109-0.404,3.162
			C106.07,520.389,105.664,524.165,105.344,527.74z"/>
		<path fill="#FBFFB8" stroke="#00AA00" stroke-miterlimit="10" d="M104.034,557.242c6.431,1.897,15.549,4.062,25.093,4.731
			c0.736-3.79,1.679-8.546,2.738-13.729c-7.437-1.038-18.346-2.964-27.531-6.109C104.042,548.113,103.985,553.195,104.034,557.242z"
			/>
	</g>
	<path opacity="0.1" fill="#FA1717" stroke="#00AA00" stroke-miterlimit="10" d="M104.04,557.245
		c0.092,6.491,0.5,10.335,0.798,10.949c0.325,0.662,4.301,1.345,8.864,1.826c-0.15-11.59,0.342-23.195,1.453-34.733
		c1.548-16.021,4.633-32.766,14.762-45.075c0.491-0.597,1.081-1.224,1.839-1.25c1.217-0.065,1.925,1.359,2.305,2.55
		c1.802,5.506,3.18,14.993,5.66,22.188c0.525-1.945,1.037-3.699,1.516-5.208c0.321-1.021,0.642-1.929,0.932-2.705l-1.264-14.938
		l-1.181-13.985l-1.156-13.677l-1.167-13.882c-5.392,1.768-9.833,5.188-13.538,9.839c-2.478,3.15-4.632,6.858-6.501,11.012
		c-1.681,3.74-3.136,7.85-4.405,12.208c-1.518,5.209-2.75,10.783-3.799,16.536c-0.842,4.699-1.57,9.516-2.197,14.36
		c-0.136,1.057-0.27,2.109-0.404,3.163c-0.481,3.969-0.888,7.747-1.208,11.321c-0.488,5.242-0.815,10.062-1.011,14.397
		C104.048,548.116,103.991,553.202,104.04,557.245z"/>
</g>
<g>
	<path fill="#FFAB53" stroke="#00AA00" stroke-miterlimit="10" d="M137.401,449.304c0,0,0.02,1.653,0.09,4.555
		c0.098,2.991,0.244,7.299,0.545,12.458c0.248,4.559,0.59,9.762,1.103,15.319c0.527,5.775,1.193,11.935,2.089,18.063
		c0.882,6.205,1.979,12.381,3.335,18.177c0.056,0.22,0.098,0.44,0.154,0.657c2.112,8.863,4.858,16.733,7.756,23.433
		c2.953,6.874,6.07,12.521,8.837,16.757c3.434,5.279,6.337,8.358,7.637,8.865c2.828,1.085,22.724,0.879,40.29-7.664
		c3.501-1.694,6.904-3.726,10.067-6.139c19.045-14.544,21.411-23.146,19.646-24.797c-0.556-0.502-2.451-2.241-5.054-5.098
		c-2.731-3.008-6.256-7.26-9.833-12.675c-2.612-3.955-5.264-8.515-7.624-13.642c-1.358-2.894-2.615-5.979-3.742-9.225
		c-0.028-0.089-0.071-0.191-0.099-0.277c-1.465-4.259-2.702-8.236-3.755-11.891c-1.067-3.715-1.922-7.089-2.619-10.111
		c-0.952-4.08-1.605-7.512-2.048-10.211c-0.762-4.619-0.934-7.126-0.934-7.126s-3.913-1.694-10.702-3.199
		C180.875,442.961,160.748,440.998,137.401,449.304z"/>
	<g opacity="0.59">
		<path fill="#FBFFB8" stroke="#00AA00" stroke-miterlimit="10" d="M137.485,453.856c0.098,2.99,0.245,7.297,0.545,12.458
			c13.749,1.136,45.498,3.122,68.188-0.25c-0.951-4.078-1.604-7.51-2.047-10.208C195.279,456.243,167.595,457.035,137.485,453.856z"
			/>
		<path fill="#FBFFB8" stroke="#00AA00" stroke-miterlimit="10" d="M139.134,481.633c0.525,5.775,1.192,11.934,2.089,18.064
			c11.478,0.022,44.717-0.928,71.369-11.63c-1.465-4.256-2.702-8.235-3.755-11.893C194.882,478.852,164.111,483.859,139.134,481.633
			z"/>
		<path fill="#FBFFB8" stroke="#00AA00" stroke-miterlimit="10" d="M144.557,517.872c0.056,0.219,0.098,0.438,0.154,0.659
			c2.112,8.862,4.86,16.732,7.756,23.433c12.262-1.863,47.109-8.887,71.591-30.751c-2.612-3.958-5.262-8.514-7.625-13.643
			C208.047,502.59,185.63,513.583,144.557,517.872z"/>
		<path fill="#FBFFB8" stroke="#00AA00" stroke-miterlimit="10" d="M161.305,558.72c3.435,5.28,6.337,8.359,7.637,8.863
			c3.399,1.311,31.312,0.741,50.357-13.803c19.045-14.541,21.412-23.144,19.646-24.796c-0.557-0.5-2.451-2.241-5.053-5.099
			C224.761,534.091,201.66,554.732,161.305,558.72z"/>
	</g>
	<path opacity="0.1" fill="#FA1717" stroke="#00AA00" stroke-miterlimit="10" d="M137.401,449.304c0,0,0.02,1.653,0.09,4.555
		c0.098,2.991,0.244,7.299,0.545,12.458c0.248,4.559,0.59,9.762,1.103,15.319c0.527,5.775,1.193,11.935,2.089,18.063
		c0.882,6.205,1.979,12.381,3.335,18.177c0.056,0.22,0.098,0.44,0.154,0.657c2.112,8.863,4.858,16.733,7.756,23.433
		c2.953,6.874,6.07,12.521,8.837,16.757c3.434,5.279,6.337,8.358,7.637,8.865c2.828,1.085,22.724,0.879,40.29-7.664
		c-1.215-0.403-2.443-0.793-3.643-1.268c-14.41-5.639-22.352-21.463-26.633-36.64c-4.379-15.485-6.308-31.687-5.703-47.802
		c0.068-2.081,0.224-4.278,1.364-6.001c2.352-3.56,7.403-3.399,11.333-4.886c10.385-3.94,10.508-10.783,6.583-17.794
		C180.875,442.961,160.748,440.998,137.401,449.304z"/>
</g>
<path fill="#FFFAE0" stroke="#00AA00" stroke-miterlimit="10" d="M271.963,367.073c0,0-29.37-13.358-33.118-14.846
	c0,0,1.076,11.729,2.918,22.179l28.991-2.577L271.963,367.073z"/>
<path fill="#E7626E" stroke="#00AA00" stroke-miterlimit="10" d="M278.658,434.982c0,0-34.047,6.662-50.153,7.301
	c0,0-4.789-34.208-7.254-68.361c0,0,41.467-2.873,49.444-3.194C270.695,370.729,275.237,409.503,278.658,434.982z"/>
<path fill="#5969A8" stroke="#00AA00" stroke-miterlimit="10" d="M270.695,370.729l1.265-3.106c0,0,7.524,55.541,8.614,62.875
	c0,0-0.638,3.31-1.916,4.484C278.658,434.982,271.104,381.171,270.695,370.729z"/>
<polygon fill="#8A95DD" stroke="#00AA00" stroke-miterlimit="10" points="240.817,351.506 238.845,352.228 270.321,367.613 
	269.745,369.441 222.46,372.646 221.251,373.922 270.695,370.729 271.963,367.073 "/>
<path fill="#4A57AB" stroke="#00AA00" stroke-miterlimit="10" d="M263.788,382.494c0,0-18.315,0.318-31.743,2.092
	c0,0-0.02,3.503,0.849,8.453c0,0,28.099-1.935,31.676-1.874C264.57,391.165,264.18,388.074,263.788,382.494z"/>
<g>
	<path fill="none" stroke="#00AA00" stroke-miterlimit="10" d="M258.801,399.149c0,0-13.327,0.867-18.655,1.414"/>
	<path fill="none" stroke="#00AA00" stroke-miterlimit="10" d="M256.268,404.453c0,0-8.235,0.739-10.919,0.826"/>
</g>
<g>
	<g>
		<path fill="#FF9480" stroke="#00AA00" stroke-miterlimit="10" d="M276.1,398.649l0.067,0.689l0.53,5.249l0.026,0.306l0.542,5.427
			l0.026,0.337l0.556,5.541l0.041,0.427l0.421,4.235c0.472-0.055,1.032-0.212,1.604-0.473v-0.016c0.604-0.274,1.25-0.65,1.854-1.146
			c0.949-0.772,1.842-1.807,2.507-3.107c1.533-2.966,1.258-15.143-0.944-18.013c-0.525-0.693-1.209-1.414-1.948-2.121
			c-2.35-2.286-5.243-4.369-5.243-4.369C276.018,392.567,276.1,398.649,276.1,398.649z"/>
		<g>
			<path fill="#FF9480" stroke="#00AA00" stroke-miterlimit="10" d="M270.351,405.428h0.043c1.86-0.047,3.394-0.257,4.496-0.457
				c0.028,0.001,0.057,0.001,0.101-0.013c0.959-0.171,1.547-0.328,1.706-0.371c0.028-0.015,0.042-0.015,0.042-0.015
				s1.168-4.038-0.571-5.234c-0.042-0.03-0.085-0.06-0.129-0.089c0,0-5.539,0.084-8.22,0.904
				C265.122,400.972,266.5,405.522,270.351,405.428z"/>
			<path fill="#FF9480" stroke="#00AA00" stroke-miterlimit="10" d="M271.25,411.061c0.601-0.012,1.188-0.052,1.717-0.092
				c0.101,0,0.201-0.015,0.302-0.028c0.386-0.042,0.773-0.083,1.159-0.11h0.043c1.318-0.182,2.292-0.396,2.794-0.511
				c0.243-0.058,0.373-0.101,0.373-0.101s1.226-4.242-0.702-5.322c0,0-0.071,0-0.214-0.004c-0.314,0.015-0.945,0.041-1.732,0.065
				c-0.043,0.014-0.072,0.014-0.101,0.013c-1.302,0.081-3.022,0.203-4.496,0.457h-0.043c-0.603,0.115-1.16,0.229-1.634,0.373
				C266.036,406.618,267.399,411.169,271.25,411.061z"/>
			<path fill="#FF9480" stroke="#00AA00" stroke-miterlimit="10" d="M272.506,416.797c2.376-0.059,4.253-0.371,5.342-0.6
				c0.674-0.127,1.031-0.243,1.031-0.243s1.24-4.241-0.686-5.323c0,0-0.343,0-0.902,0.025c-0.702,0.025-1.717,0.078-2.82,0.174
				h-0.043c-0.386,0.027-0.773,0.068-1.159,0.11c-0.101,0.014-0.202,0.028-0.302,0.028c-1.117,0.139-2.191,0.309-3.008,0.566
				C267.277,412.356,268.655,416.893,272.506,416.797z"/>
			<path fill="#FF9480" stroke="#00AA00" stroke-miterlimit="10" d="M273.41,421.432c3.851-0.08,6.388-0.665,6.388-0.665
				s0.058-0.146,0.116-0.38v-0.016c0.263-0.906,0.691-3.102-0.823-3.771c0,0-0.472-0.003-1.202,0.023
				c-1.775,0.063-5.111,0.219-7.016,0.677C268.177,417.943,269.56,421.497,273.41,421.432z"/>
		</g>
	</g>
	<path opacity="0.29" fill="#FF4261" stroke="#00AA00" stroke-miterlimit="10" d="M271.25,411.061
		c0.601-0.012,1.188-0.052,1.717-0.092c-1.117,0.139-2.191,0.309-3.008,0.566c-2.682,0.821-1.304,5.357,2.547,5.262
		c2.376-0.059,4.253-0.371,5.342-0.6l0.041,0.427c-1.775,0.063-5.111,0.219-7.016,0.677c-2.695,0.643-1.313,4.196,2.538,4.131
		c3.851-0.08,6.388-0.665,6.388-0.665s0.058-0.146,0.116-0.38v-0.016c0.604-0.274,1.25-0.65,1.854-1.146
		c-1.409-3.921-3.408-7.581-2.994-12.415c0.306-3.573,1.901-7.169,2.608-10.827c-2.35-2.286-5.243-4.369-5.243-4.369
		c-0.12,0.952-0.039,7.034-0.039,7.034l0.067,0.689c-0.042-0.03-0.085-0.06-0.129-0.089c0,0-5.539,0.084-8.22,0.904
		c-2.696,0.818-1.318,5.369,2.533,5.274c-0.603,0.115-1.16,0.229-1.634,0.373C266.036,406.618,267.399,411.169,271.25,411.061z"/>
</g>
<linearGradient id="SVGID_1_" gradientUnits="userSpaceOnUse" x1="109.7251" y1="370.4014" x2="226.2104" y2="370.4014">
	<stop  offset="0" style="stop-color:#FFFFFF"/>
	<stop  offset="1" style="stop-color:#000000"/>
</linearGradient>
<path fill="#5E523D" stroke="url(#SVGID_1_)" stroke-miterlimit="10" d="M110.329,365.301c1.222,4.388,11.333,0.77,11.333,0.77
	s-7.039,22.464,7.791,40.238c6.028,7.215,11.886,9.299,16.285,8.256c6.435-1.515,9.715-9.718,5.741-18.311
	c-6.689-14.473-9.977-20.588,1.762-18.526c11.739,2.046,24.478-3.125,8.624-9.005c0,0,17.59-7.692,50.173-1.276
	c0,0,8.828,5.723,12.87-0.481c3.796-5.825-6.783-13.242-12.602-14.375c2.203,0.189,7.141,0.101,7.167-4.618
	c0.033-5.641-13.082-10.128-29.946-9.274c4.239-0.561,9.972-2.213,8.482-6.984c-1.533-4.917-13.789-6.879-27.867-5.056
	c-0.028,0-0.057-0.001-0.085,0.014c-7.004,0.897-14.458,2.729-21.257,5.606c-20.515,8.643-25.048,28.573-25.048,28.573
	s-6.29-11.788-10.167-9.54c-3.891,2.249,5.471,9.937,5.471,9.937S109.109,360.913,110.329,365.301z"/>
<linearGradient id="SVGID_2_" gradientUnits="userSpaceOnUse" x1="109.7251" y1="370.7461" x2="170.1445" y2="370.7461">
	<stop  offset="0" style="stop-color:#FFFFFF"/>
	<stop  offset="1" style="stop-color:#000000"/>
</linearGradient>
<path opacity="0.21" fill="#EFDA00" stroke="url(#SVGID_2_)" stroke-miterlimit="10" d="M110.329,365.301
	c1.222,4.388,11.333,0.77,11.333,0.77s-7.039,22.464,7.791,40.238c6.028,7.215,11.886,9.299,16.285,8.256
	c-0.509-6.157-2.15-12.204-4.869-17.699c-4.443-8.994-11.875-18.854-7.616-27.944c2.434,0.043,4.865,0.072,7.299,0.116
	c-3.764-0.037-5.276-5.98-2.614-8.748c2.664-2.798,7.285-2.493,10.638-0.627c-2.508-2.154-3.057-6.319-1.166-9.063
	c1.355-1.969,3.838-2.996,6.169-2.748c-2.968-1.892-4.287-6.56-2.921-10.112c1.713-4.43,6.094-7.16,10.427-8.937
	c2.238-0.924,5.476-1.506,8.972-2.131c-7.004,0.897-14.458,2.729-21.257,5.606c-20.515,8.643-25.048,28.573-25.048,28.573
	s-6.29-11.788-10.167-9.54c-3.891,2.249,5.471,9.937,5.471,9.937S109.109,360.913,110.329,365.301z"/>
<g>
	<path fill="#FFFFFF" d="M176.34,460.662c-20.396,0.199-26.746-16.093-13.659-20.777c13.085-4.687,28.541,2.083,27.814,10.555
		C189.769,458.907,180.517,460.618,176.34,460.662z"/>
	<path fill="#FF9480" d="M131.876,418.353c5.928,2.305,10.792-2.487,10.792-2.487c5.749,11.213,18.166,14.965,18.851,15.393
		c0.683,0.429,0.474,15.154,0.827,15.858c0.367,0.707,4.993,5.687,11.492,5.297c0.486-0.024,0.959-0.065,1.417-0.122
		c5.486-0.584,7.886-2.505,8.153-4.056c0.281-1.696-0.396-3.399-0.781-8.926c-0.133-1.877-0.182-3.14,0.038-4.046
		c0.453-1.74,1.973-2.186,6.087-3.275c2.953-0.789,9.031-2.483,15.134-6.287c6.765-4.224,13.587-11.057,16.252-22.118
		c0.499-2.093,0.84-4.142,1.021-6.133c0.215-2.461,0.214-4.834,0.025-7.092c-0.653-8.517-3.735-15.465-6.116-19.701
		c-1.586-2.851-2.881-4.47-2.881-4.47c-35.186-9.407-56.945,1.646-56.823,2.922c0.137,1.276,14.081,3.188,9.641,6.137
		c-4.438,2.949-15.456-2.771-21.287,0.726c-5.83,3.497,2.261,15.442,5.384,25.527c3.121,10.085-4.89,9.291-7.771,7.515
		c-2.896-1.773-4.794-7.896-4.794-7.896C121.882,401.032,125.95,416.062,131.876,418.353z"/>
	<path opacity="0.29" fill="#FF4261" d="M131.876,418.353c5.928,2.305,10.792-2.487,10.792-2.487
		c5.749,11.213,18.166,14.965,18.851,15.393c0.683,0.429,0.474,15.154,0.827,15.858c0.367,0.707,4.993,5.687,11.492,5.297
		c0.486-0.024,0.959-0.065,1.417-0.122c-1.542-3.217-2.568-6.462-1.691-9.696c1.124-4.096,4.902-6.433,9.1-7.331
		c0.453-1.74,1.973-2.186,6.087-3.275c2.953-0.789,9.031-2.483,15.134-6.287c-7.047,1.03-14.118,1.031-20.527-1.892
		c-7.496-3.414-13.122-10.832-14.493-19.118c-1.371-8.287,1.556-17.178,7.527-22.946c-3.928-3.936-1.096-11.407,3.87-13.839
		c9.184-4.503,21.275,1.354,30.672,2.494c1.358,0.169,2.746,0.22,4.134,0.257c-1.586-2.851-2.881-4.47-2.881-4.47
		c-35.186-9.407-56.945,1.646-56.823,2.922c0.137,1.276,14.081,3.188,9.641,6.137c-4.438,2.949-15.456-2.771-21.287,0.726
		c-5.83,3.497,2.261,15.442,5.384,25.527c3.121,10.085-4.89,9.291-7.771,7.515c-2.896-1.773-4.794-7.896-4.794-7.896
		C121.882,401.032,125.95,416.062,131.876,418.353z"/>
</g>
<g>
	<g>
		<path fill="#682202" d="M209.435,383.322c0.397,1.724,1.451,2.946,2.355,2.729c0.904-0.218,1.315-1.793,0.919-3.518
			c-0.397-1.726-1.451-2.947-2.355-2.73C209.45,380.022,209.04,381.598,209.435,383.322z"/>
		<path fill="#682202" d="M162.826,389.239c0.397,1.724,1.451,2.946,2.355,2.727c0.903-0.217,1.315-1.792,0.918-3.517
			c-0.397-1.724-1.451-2.944-2.354-2.727C162.842,385.939,162.43,387.514,162.826,389.239z"/>
	</g>
	<path fill="#FF5C87" d="M198.478,389.171c-1.243,0.262-2.854,0.514-4.874,0.399c-0.401-0.021-0.703-0.343-0.696-0.715
		c0.026-1.206-0.034-4.124-0.841-9.118c-0.064-0.399,0.44-0.672,0.759-0.402c1.353,1.146,3.385,3.889,6.18,8.773
		C199.246,388.528,198.984,389.064,198.478,389.171z"/>
	<path opacity="0.75" fill="none" stroke="#682202" stroke-linecap="round" stroke-linejoin="round" stroke-miterlimit="10" d="
		M207.927,399.832c0,0-5.213,5.064-20.967,4.122c-15.752-0.94-20.138-7.616-20.138-7.616"/>
	<g opacity="0.76">
		<path fill="#FF5C87" d="M153.209,402.437c0.31,2.283,3.339,3.739,6.766,3.249c3.426-0.486,5.951-2.734,5.641-5.017
			c-0.31-2.284-3.339-3.74-6.766-3.251C155.424,397.906,152.898,400.154,153.209,402.437z"/>
		<path fill="#FF5C87" d="M211.635,395.06c0.302,2.274,3.328,3.742,6.766,3.249c1.018-0.14,1.949-0.442,2.754-0.862
			c0.214-2.461,0.212-4.835,0.024-7.091c-1.114-0.389-2.473-0.528-3.905-0.318C213.85,390.531,211.319,392.773,211.635,395.06z"/>
	</g>
	<path fill="#FF5C87" d="M132.479,407.74c-3.719,1.387-1.151,8.343,3.004,6.812C139.639,413.02,136.22,406.348,132.479,407.74z"/>
</g>
<g>
	<path fill="none" stroke="#C1521E" stroke-linecap="round" stroke-linejoin="round" stroke-miterlimit="10" d="M211.611,372.005
		c0,0-2.189-1.439-3.735-0.379"/>
	<path fill="none" stroke="#C1521E" stroke-linecap="round" stroke-linejoin="round" stroke-miterlimit="10" d="M163.291,374.865
		c0,0-2.695-1.006-3.577,1.816"/>
</g>
</svg>
