<?xml version="1.0" encoding="utf-8"?>
<!-- Generator: Adobe Illustrator 16.0.0, SVG Export Plug-In . SVG Version: 6.00 Build 0)  -->
<!DOCTYPE svg PUBLIC "-//W3C//DTD SVG 1.1//EN" "http://www.w3.org/Graphics/SVG/1.1/DTD/svg11.dtd">
<svg version="1.1" id="Capa_1" xmlns="http://www.w3.org/2000/svg" xmlns:xlink="http://www.w3.org/1999/xlink" x="0px" y="0px"
	 width="400px" height="400px" viewBox="0 0 400 400" enable-background="new 0 0 400 400" xml:space="preserve">
<g>
	<path fill="#DFA794" d="M190.849,144.745l-2.876-0.518l-2.554-0.553l-4.452-0.263c-1.226-0.073-2.353-0.601-3.086-1.447
		l-0.327-0.376c-0.822-0.168-1.497-0.667-1.811-1.34l-0.624-1.335l-1.249-1.873l-1.935-3.531c-0.437-0.963,0.381-1.008,1.124-0.535
		l2.934,2.407l1.686,1.017l3.714-0.214v-1.017l-2.091-1.444l-1.279-0.651c-1.093-0.632-0.593-1.329,0.509-1.111l2.861,0.853
		l3.839,2.514l2.371,4.066l3.246,1.818V144.745z"/>
	<path fill="#1D5E89" d="M212.735,115.833c-5.195,3.65-7.512,15.405-9.631,24.685l-15.052-0.78c1.553,2.208,0.466,3.319-0.914,4.309
		c7.367,3.657,14.795,4.581,22.476,5.147c10.031-1.223-0.634-19.319,10.987-22.248L212.735,115.833z"/>
	<ellipse fill="#CCCCCC" cx="221.875" cy="99.137" rx="6.83" ry="5.855"/>
	<g>
		<path fill="#24425A" d="M150.214,251.668c2.623,0.468,3.045,2.218,2.045,3.739l-2.954,3.583c-1.109,1.651-2.598,2.428-4.545,2.147
			c-2.444-0.863-2.001-1.916-0.949-5.266l1.313-4.595L150.214,251.668z"/>
		<path fill="#DFA794" d="M143.835,256.236c0.818,2.383,5.019,2.183,5.373-1.006l1.067-4.194l1.221-4.806
			c0-0.008,0.309-1.926,0.309-1.926l0.345-1.223l2.624-9.339l0.643-2.294l-1.977-0.979l-7.839-3.873
			c-0.428,1.684-0.692,4.017-0.833,6.841c-0.117,2.342,0.937,5.385,0.967,8.309C142.968,246.108,143.482,250.784,143.835,256.236z"
			/>
		<path fill="#24425A" d="M160.872,262.127c-0.952,1.587-0.282,4.119,0.426,5.246c1.24,0.726,3.757,0.712,4.966,0.286
			c3.242-1.146,4.145-0.688,5.911-1.22c1.879-0.565,2.863-0.704,3.725-2.392c0.326-0.75-0.29-2.094-1.862-2.214
			c-2.91,0.049-5.253-0.103-6.718-0.64l-1.916-3.904l-4.285,3.276L160.872,262.127z"/>
		<path fill="#DFA794" d="M151.805,226.598c0.557,1.305,1.107,2.602,1.635,3.873c0.461,1.112,0.909,2.206,1.334,3.272
			c0.904,2.266,1.713,4.423,2.367,6.4c0.64,1.93,2.146,3.89,2.43,5.412c-2.335,8.202,0,9.826,1.301,16.572
			c2.464,2.218,6.563,1.116,6.466-1.277c-0.209-1.85-0.329-3.356-0.387-4.621c-0.253-5.524,0.653-6.465,0.214-11.265
			c-0.162-1.828-0.359-3.563-0.599-5.225c-0.536-3.701-1.284-7.045-2.354-10.278L151.805,226.598z"/>
		<path opacity="0.5" fill="#DFA794" d="M162.349,243.041l1.148,2.681c2.132,1.608,1.941,6.668,3.453,10.508
			c-0.253-5.524,0.653-6.465,0.214-11.265c-0.162-1.828-0.359-3.563-0.599-5.225L162.349,243.041z"/>
		<path opacity="0.5" fill="#DFA794" d="M150.275,251.036l1.221-4.806c0-0.008,0.309-1.926,0.309-1.926l0.345-1.223l-1.917,0.719
			C150.874,243.992,150.445,249.2,150.275,251.036z"/>
		<path fill="#24425A" d="M142.967,241.411c2.147,1.518,4.529,2.27,7.266,2.39c0.809,0.035,1.648,0.016,2.522-0.057
			c0.814-2.216,1.204-3.621,1.232-5.403c1.166,1.822,2.219,4.34,3.474,7.368c2.202,0.124,4.322,0.195,6.036,0.013
			c2.029-0.215,3.492-0.788,3.841-2.059c-0.401-5.333-1.118-10.082-2.711-13.185l-0.098-1.224l-0.444-5.575l-12.281-3.274
			l-5.951,4.464c-1.201,3.036-1.527,5.776-1.069,8.25L142.967,241.411z"/>
		<path fill="#24425A" d="M163.498,245.722c2.029-0.215,3.492-0.788,3.841-2.059c-0.401-5.333-1.118-10.082-2.711-13.185
			l-0.098-1.224l-4.958,0.363C163.937,234.745,164.992,240.133,163.498,245.722z"/>
		<path fill="#DFA794" d="M159.98,189.952c0.541-0.912,0.945-2.059,0.725-4.271v-2.562c-0.018-0.606-0.384-0.664-0.725-0.437v-0.457
			c-0.011-0.645-0.741-0.696-0.987,0.1l-0.311,1.688l-0.115-1.51c-0.069-0.768-0.825-0.371-0.962,0.329l-0.73,4.518l-1.042,2.603
			H159.98z"/>
		<path fill="#EFCB3F" d="M143.615,208.057c0.384-1.842,1.442-3.847,3.899-6.186c0,0,7.67-10.808,7.809-10.768
			c0.139,0.04,3.67,0.636,3.67,0.636l-4.552,15.413L143.615,208.057z"/>
		<path fill="#DFA794" d="M157.794,204.789c0.03,0.159-1.716,5.204-1.716,5.204l-8.564-3.568l2.548-5.429L157.794,204.789z"/>
		<path fill="#DFA794" d="M161.874,197.639c0.119-2.954-0.496-10.913-11.735-8.122c-5.658,1.404-8.213,7.788-3.39,12.609
			c2.936,2.933,7.661,4.155,11.053,2.869C161.194,203.705,163.45,201.579,161.874,197.639z"/>
		<path fill="#EFCB3F" d="M144.35,227.263c-0.047,2.604,8.892,4.725,15.126,4.651c2.691-0.03,4.88-0.473,5.623-1.461
			c0.339-6.599-0.167-4.82,0.072-9.222c0.117-2.181-0.059-5.183-0.047-7.809c0.008-1.537,0.081-2.947,0.315-3.987
			c0,0-5.99-1.536-13.634-3.601c-3.893-1.055-6.009-1.18-7.224-0.291c-0.492,0.357-0.879,1.451-0.965,2.513
			C142.579,216.676,146.065,222.575,144.35,227.263z"/>
		<path fill="#4C1B0E" d="M154.492,188.385c9.182,0.048,8.173,7.231,8.173,7.231c-4.057,0.099-2.831,6.387-5.688,8.354
			c-1.297,0.894-3.424,1.354-5.932,0.922c-4.149-0.711-5.922-2.643-7.336-7.001C142.588,194.436,145.329,188.339,154.492,188.385z"
			/>
		<path fill="#DFA794" d="M158.88,199.537c-0.493-0.021-0.938,0.302-1.133,0.69c-0.195,0.388-0.185,0.827-0.129,1.248
			c0.052,0.39,0.141,0.776,0.266,1.153c0.108,0.326,0.301,0.692,0.688,0.763c0.251,0.047,0.516-0.056,0.693-0.215
			c0.177-0.16,0.281-0.368,0.364-0.576C159.938,201.83,160.474,199.601,158.88,199.537z"/>
		<path fill="#EFCB3F" d="M159.476,231.914c2.691-0.03,4.88-0.473,5.623-1.461c0.339-6.599-0.167-4.82,0.072-9.222
			c0.117-2.181-0.059-5.183-0.047-7.809h-4.743C161.631,220.271,165.246,227.337,159.476,231.914z"/>
		<path fill="#DFA794" d="M163.372,208.735c4.093,0.7,8.778-0.13,14.15,0.481c0.283-1.951,1.085-5.518,3.082-9.258h3.198
			c0.011,4.906-0.398,9.469-2.225,12.873c-3.114,2.07-10.65,2.767-18.205,3.456C159.476,216.288,158.993,208.735,163.372,208.735z"
			/>
		<path fill="#EFCB3F" d="M161.678,208.46c2.841,0.485,7.563,0.446,10.747,0.516c1.503,1.837,0.938,5.047-0.391,6.955
			c-2.78,0.378-5.574,0.521-8.662,0.805C159.476,216.735,157.299,208.46,161.678,208.46z"/>
		<path fill="#DFA794" d="M180.557,201.253c0-0.06,0.046-1.294,0.046-1.294l-0.145-1.852c-0.072-0.929,0.169-1.855,0.695-2.67
			l0.319-0.495l0.698-2.072c0.292-0.773,1.04-0.715,1.022,0.015l-0.279,2.132l2.926-4.43c0.55-0.62,1.28-0.322,0.927,0.378
			l-1.136,1.966l2.526-2.344c0.787-0.71,1.465-0.347,1.182,0.338c0.579-0.407,1.136,0.085,0.533,0.774l-0.626,0.716
			c0.516-0.318,0.585,0.158,0.115,0.813l-2.201,2.939l-3.359,3.791l-0.695,2.246L180.557,201.253z"/>
		<path fill="#24425A" d="M144.785,233.119c0.909,2.346,2.585,3.755,5.372,5.407c0,0,0.203,4.499,0.077,5.274
			c0.809,0.035,1.648,0.016,2.522-0.057c0.814-2.216,1.204-3.621,1.232-5.403C150.042,237.236,146.903,235.546,144.785,233.119z"/>
	</g>
	<path fill="#D99378" d="M202.249,226.528c4.664-1.128,8.539-3.158,9.779-6.053c1.077-9.273-5.702-22.087-7.46-34.893l14.438,3.668
		c8.338,10.402,0.124,25.396,1.35,31.219c2.303,2.472,3.488,4.91,1.229,7.249l-6.782-0.027l-6.719,3.611l-7.282-0.108
		C199.939,229.201,199.389,227.31,202.249,226.528z"/>
	<path fill="#24425A" d="M221.034,221.24c3.427,2.06,3.612,5.605,2.544,8.383c-2.227,2.723-7.04,0.913-10.323,1.68
		c-7.551,1.765-7.564,3.262-11.187,3.192c-5.858-0.11-9.718-2.247-9.401-3.897c0.259-1.352,2.79-2.708,6.909-4.029l6.657-1.385
		c-1.028,0.508-2.437,0.94-3.984,1.345c-2.098,1.169-1.354,2.409,0.597,3.908c2.177,0.813,4.9,0.017,8.386-1.548l7.509-3.063
		C220.745,224.746,221.686,223.28,221.034,221.24z"/>
	<path fill="#DFA794" d="M248.955,231.947c0.239-2.534,0.304-4.856-0.757-6.467c-1.363-11.085,10.027-17.239-1.593-31.403
		c3.935-13.693,0.115-12.787,2.176-32.299c-4.319-11.192-28.98-7.169-24.407-4.018c-0.448,10.617,4.048,24.403,8.567,36.624
		c3.85,9.159,7.896,18.434,7.285,30.459c-1.68,5.096-1.84,8.373-5.294,11.18l2.119,4.511c0,0,6.758-1.413,6.858-1.739
		C244.012,238.469,248.955,231.947,248.955,231.947z"/>
	<path fill="#24425A" d="M248.198,225.48c2.368,1.655,2.27,4.999,1.765,7.5c-1.11,2.011-2.705,3.242-4.539,6.194l-1.728,1.939
		c-3.449,2.47-9.62,2.788-11.788,1.484c-1.413-2.119,0.274-4.208,4.511-7.913c-1.615,2.836,0.229,4.218,4.419,3.837
		c1.989-0.323,3.325-2.609,5.493-5.705C248.319,229.563,249.651,227.653,248.198,225.48z"/>
	<path fill="#24425A" d="M204.568,185.583c0,1.819,3.148,23.919,3.148,23.919c0.686,8.799,36.185,11.738,45.502,3.925
		c1.333-9.744-1.335-14.618,0-23.688c0.763-19.585,3.436-31.987-6.521-37.197l-29.416,0.611c-1.629-0.968-2.353,1.563-3.16,3.918
		C209.802,169.692,204.568,171.202,204.568,185.583z"/>
	<path fill="#2877AD" d="M250.409,155.961c-2.918,10.103-28.32,14.457-35.028-0.187l-1.669-9.194c0,0-7.253-1.855-4.839-9.198
		c1.013-3.087,3.188-6.278,1.104-10.558c-2.321-4.767,2.872-11.415,7.004-11.164c9.399-2.12,8.927-3.037,19.103,0.886
		c4.196,1.973,6.216,3.379,8.375,7.691c0.635,1.251,1.271,2.753,1.98,4.581C246.619,129.29,250.409,144.12,250.409,155.961z"/>
	<path opacity="0.5" fill="#2877AD" d="M250.409,155.961c-2.918,10.103-28.32,14.457-35.028-0.187l-1.669-9.194
		c0.995-0.089,2.389-0.772,3.583-1.641c0.729-0.528,1.855-0.357,2.245,0.39c0.956,1.835,3.022,4.41,7.012,4.102
		c11.048-0.853,9.617-13.733,17.907-25.193c0.635,1.251,1.271,2.753,1.98,4.581C246.619,129.29,250.409,144.12,250.409,155.961z"/>
	<path fill="#DFA794" d="M225.292,106.453l4.894,9.49c0,0-1.149,13.366-6.798,12.182c-4.494-0.942-3.999-7.961-3.999-7.961
		l-2.719-10.853L225.292,106.453z"/>
	<path opacity="0.5" fill="#DFA794" d="M226.767,113.051c0,0,0.196,10.561-4.315,10.667c-3.229,0.075-5.47-8.057-5.47-8.057
		L226.767,113.051z"/>
	<path fill="#DFA794" d="M207.286,107.459c0,0,4.571,12.197,10.84,13.722c3.775,0.918,6.131-2.991,6.131-2.991
		c2.552-3.599,4.062-6.946,3.119-9.696l-6.055-8.194L207.286,107.459z"/>
	<path fill="#DFA794" d="M255.008,163.161l0.438,3.289l1.587,6.599l-0.375,3.853l-1.204,4.061c-0.148,0.773-0.931,1.068-1.055,0.55
		l-0.474,1.733c-0.339,1.253-1.229,1.066-1.198-0.105l0.401-6.009l-1.209,6.073c-0.246,1.142-1.263,0.968-1.161-0.216l0.323-6.774
		l-1.387,5.019c-0.381,1.319-1.317,1.324-1.284-0.102l0.567-8.879l-2.117,2.734l-1.316,1.32c-0.902,0.835-1.748,0.071-0.963-0.993
		l0.862-1.417l0.794-2.78l4.447-4.941l0.915-4.04L255.008,163.161z"/>
	<path fill="#2877AD" d="M255.446,166.45c0.215-8.3,0.235-16.218-0.839-21.986c-2.956-9.554-8.188-18.289-12.159-23.239
		c-5.281-2.136-7.805,6.323-4.718,10.613l8.83,14.396l4.125,19.94L255.446,166.45z"/>
	<path fill="#E7E6E5" d="M209.084,111.44l2.238-3.967c0,0,9.033,4.768,16.337,3.568c0,0,0.443,1.22,0.96,1.864
		c2.396-3.304-0.293-10.705-1.852-12.604c-2.107-2.572-6.215-3.249-10.636-3.22C212.558,97.103,201.367,102.292,209.084,111.44z"/>
</g>
</svg>
