<?xml version="1.0" encoding="utf-8"?>
<!-- Generator: Adobe Illustrator 16.0.0, SVG Export Plug-In . SVG Version: 6.00 Build 0)  -->
<!DOCTYPE svg PUBLIC "-//W3C//DTD SVG 1.1//EN" "http://www.w3.org/Graphics/SVG/1.1/DTD/svg11.dtd">
<svg version="1.1" id="Capa_1" xmlns="http://www.w3.org/2000/svg" xmlns:xlink="http://www.w3.org/1999/xlink" x="0px" y="0px"
	 width="400px" height="400px" viewBox="0 0 400 400" enable-background="new 0 0 400 400" xml:space="preserve">
<g>
	<rect x="36.621" y="83.914" fill="#FFFFFF" stroke="#3E64FF" stroke-miterlimit="10" width="105.633" height="20.423"/>
	<rect x="247.887" y="83.914" fill="#FFFFFF" stroke="#3E64FF" stroke-miterlimit="10" width="105.635" height="20.422"/>
	<rect x="142.254" y="83.914" fill="#FFFFFF" stroke="#3E64FF" stroke-miterlimit="10" width="105.633" height="20.422"/>
	<rect x="36.62" y="104.04" fill="#FFFFFF" stroke="#3E64FF" stroke-miterlimit="10" width="105.633" height="52.916"/>
	<rect x="247.887" y="104.042" fill="#FFFFFF" stroke="#3E64FF" stroke-miterlimit="10" width="105.635" height="52.914"/>
	<rect x="142.253" y="104.04" fill="#FFFFFF" stroke="#3E64FF" stroke-miterlimit="10" width="105.633" height="52.916"/>
	<rect x="36.62" y="156.956" fill="#FFFFFF" stroke="#3E64FF" stroke-miterlimit="10" width="105.633" height="52.916"/>
	<rect x="247.887" y="156.957" fill="#FFFFFF" stroke="#3E64FF" stroke-miterlimit="10" width="105.635" height="52.914"/>
	<rect x="142.253" y="156.956" fill="#FFFFFF" stroke="#3E64FF" stroke-miterlimit="10" width="105.633" height="52.916"/>
	<rect x="36.619" y="209.871" fill="#FFFFFF" stroke="#3E64FF" stroke-miterlimit="10" width="105.633" height="83.9"/>
	<rect x="247.887" y="209.873" fill="#FFFFFF" stroke="#3E64FF" stroke-miterlimit="10" width="105.635" height="83.898"/>
	<rect x="142.252" y="209.871" fill="#FFFFFF" stroke="#3E64FF" stroke-miterlimit="10" width="105.633" height="83.9"/>
	<text transform="matrix(1 0 0 1 68.3101 97.7021)" font-family="'Montserrat-Bold'" font-size="12">Tipos</text>
	<text transform="matrix(1 0 0 1 162.2529 97.7021)" font-family="'Montserrat-Bold'" font-size="12">Significado</text>
	<text transform="matrix(1 0 0 1 268 97.7021)" font-family="'Montserrat-Bold'" font-size="12">Ejemplo</text>
	<text transform="matrix(1 0 0 1 52.8037 130.4976)" font-family="'Montserrat-Bold'" font-size="12">Copulativas</text>
	<text transform="matrix(1 0 0 1 52.8037 192.7012)" font-family="'Montserrat-Bold'" font-size="12">Disyuntivas</text>
	<text transform="matrix(1 0 0 1 45.7612 251.8223)" font-family="'Montserrat-Bold'" font-size="12">Adversativas</text>
	<text transform="matrix(1 0 0 1 150.9727 119.2783)"><tspan x="0" y="0" font-family="'Montserrat-Regular'" font-size="12">Suman los </tspan><tspan x="0" y="14.4" font-family="'Montserrat-Regular'" font-size="12">significados.</tspan><tspan x="0" y="28.8" font-family="'Montserrat-Regular'" font-size="12">y, e, ni</tspan></text>
	<text transform="matrix(1 0 0 1 145.9727 171.7432)"><tspan x="0" y="0" font-family="'Montserrat-Regular'" font-size="12">Presentan dos </tspan><tspan x="0" y="14.4" font-family="'Montserrat-Regular'" font-size="12">oposiciones que </tspan><tspan x="0" y="28.8" font-family="'Montserrat-Regular'" font-size="12">se excluyen. o, u</tspan></text>
	<text transform="matrix(1 0 0 1 145.9727 228.251)"><tspan x="0" y="0" font-family="'Montserrat-Regular'" font-size="12">Unen elementos,</tspan><tspan x="0" y="14.399" font-family="'Montserrat-Regular'" font-size="12">de los cuales el</tspan><tspan x="0" y="28.8" font-family="'Montserrat-Regular'" font-size="12">segundo corrige </tspan><tspan x="0" y="43.2" font-family="'Montserrat-Regular'" font-size="12">algo del primero.</tspan><tspan x="0" y="57.601" font-family="'Montserrat-Regular'" font-size="12">pero, sino, más.</tspan></text>
	<text transform="matrix(1 0 0 1 255 117.1094)"><tspan x="0" y="0" font-family="'Montserrat-Regular'" font-size="12">No habla </tspan><tspan x="57.215" y="0" fill="#E30613" font-family="'Montserrat-Regular'" font-size="12">ni </tspan><tspan x="0" y="14.4" font-family="'Montserrat-Regular'" font-size="12">come.</tspan><tspan x="0" y="28.8" font-family="'Montserrat-Regular'" font-size="12">Viene </tspan><tspan x="37.367" y="28.8" fill="#E30613" font-family="'Montserrat-Regular'" font-size="12">y </tspan><tspan x="47.016" y="28.8" font-family="'Montserrat-Regular'" font-size="12">va.</tspan></text>
	<text transform="matrix(1 0 0 1 255.001 171.7432)"><tspan x="0" y="0" fill="#E30613" font-family="'Montserrat-Regular'" font-size="12">O</tspan><tspan x="10.067" y="0" font-family="'Montserrat-Regular'" font-size="12"> coges al niño </tspan><tspan x="0" y="14.4" fill="#E30613" font-family="'Montserrat-Regular'" font-size="12">o</tspan><tspan x="7.524" y="14.4" font-family="'Montserrat-Regular'" font-size="12"> le das de </tspan><tspan x="0" y="28.8" font-family="'Montserrat-Regular'" font-size="12">comer.</tspan></text>
	<text transform="matrix(1 0 0 1 251.001 240.0527)"><tspan x="0" y="0" font-family="'Montserrat-Regular'" font-size="12">Es un libro corto, </tspan><tspan x="0" y="14.4" fill="#E30613" font-family="'Montserrat-Regular'" font-size="12">pero</tspan><tspan x="27.72" y="14.4" font-family="'Montserrat-Regular'" font-size="12"> muy </tspan><tspan x="0" y="28.801" font-family="'Montserrat-Regular'" font-size="12">interesante.</tspan></text>
</g>
</svg>
