<?xml version="1.0" encoding="utf-8"?>
<!-- Generator: Adobe Illustrator 16.0.0, SVG Export Plug-In . SVG Version: 6.00 Build 0)  -->
<!DOCTYPE svg PUBLIC "-//W3C//DTD SVG 1.1//EN" "http://www.w3.org/Graphics/SVG/1.1/DTD/svg11.dtd">
<svg version="1.1" id="Capa_1" xmlns="http://www.w3.org/2000/svg" xmlns:xlink="http://www.w3.org/1999/xlink" x="0px" y="0px"
	 width="400px" height="400px" viewBox="0 0 400 400" enable-background="new 0 0 400 400" xml:space="preserve">
<g>
	<rect x="32.896" y="41.963" fill="#FFFFFF" stroke="#3E64FF" stroke-miterlimit="10" width="105.633" height="20.423"/>
	<rect x="138.532" y="41.963" fill="#FFFFFF" stroke="#3E64FF" stroke-miterlimit="10" width="228.575" height="20.422"/>
	<rect x="32.896" y="62.09" fill="#FFFFFF" stroke="#3E64FF" stroke-miterlimit="10" width="105.633" height="52.916"/>
	<rect x="138.53" y="62.09" fill="#FFFFFF" stroke="#3E64FF" stroke-miterlimit="10" width="228.576" height="52.916"/>
	<rect x="32.896" y="115.005" fill="#FFFFFF" stroke="#3E64FF" stroke-miterlimit="10" width="105.633" height="52.916"/>
	<rect x="138.53" y="115.005" fill="#FFFFFF" stroke="#3E64FF" stroke-miterlimit="10" width="228.576" height="52.916"/>
	<rect x="32.895" y="167.921" fill="#FFFFFF" stroke="#3E64FF" stroke-miterlimit="10" width="105.633" height="83.9"/>
	<rect x="138.527" y="167.921" fill="#FFFFFF" stroke="#3E64FF" stroke-miterlimit="10" width="228.575" height="83.9"/>
	<text transform="matrix(1 0 0 1 64.5854 55.752)" font-family="'Montserrat-Bold'" font-size="12">Tipos</text>
	<text transform="matrix(0.9048 0 0 1 214.1621 55.752)" font-family="'Montserrat-Bold'" font-size="13.2619">Forma</text>
	<text transform="matrix(1 0 0 1 49.0791 88.5474)" font-family="'Montserrat-Bold'" font-size="12">Causa</text>
	<text transform="matrix(1 0 0 1 36.896 150.751)" font-family="'Montserrat-Bold'" font-size="12"> Consecuencia</text>
	<text transform="matrix(1 0 0 1 42.0366 209.8711)" font-family="'Montserrat-Bold'" font-size="12">Condici칩n</text>
	<text transform="matrix(1 0 0 1 149.9941 141.4634)"><tspan x="0" y="0" font-family="'Montserrat-Regular'" font-size="12">Conque</tspan><tspan x="0" y="14.4" font-family="'Montserrat-Regular'" font-size="12">Basta conque quieras divertirte.</tspan></text>
	<text transform="matrix(1 0 0 1 149.9941 79.0894)"><tspan x="0" y="0" font-family="'Montserrat-Regular'" font-size="12">Porque.</tspan><tspan x="0" y="14.4" font-family="'Montserrat-Regular'" font-size="12">Est치s cansado porque has corrido </tspan><tspan x="0" y="28.8" font-family="'Montserrat-Regular'" font-size="12">mucho.</tspan></text>
	<text transform="matrix(1 0 0 1 149.9941 196.1592)"><tspan x="0" y="0" font-family="'Montserrat-Regular'" font-size="12">Si</tspan><tspan x="0" y="14.399" font-family="'Montserrat-Regular'" font-size="12">Tienes que estudiar si quieres </tspan><tspan x="0" y="28.8" font-family="'Montserrat-Regular'" font-size="12">progresar.</tspan></text>
	<rect x="32.896" y="251.821" fill="#FFFFFF" stroke="#3E64FF" stroke-miterlimit="10" width="105.633" height="83.9"/>
	<rect x="138.529" y="251.821" fill="#FFFFFF" stroke="#3E64FF" stroke-miterlimit="10" width="228.575" height="83.9"/>
	<text transform="matrix(1 0 0 1 42.0381 293.7715)" font-family="'Montserrat-Bold'" font-size="12">Concesi칩n</text>
	<text transform="matrix(1 0 0 1 146.1548 279.1406)"><tspan x="0" y="0" font-family="'Montserrat-Regular'" font-size="12">Aunque</tspan><tspan x="0" y="14.4" font-family="'Montserrat-Regular'" font-size="12">Lamento tu decisi칩n aunque fue lo </tspan><tspan x="0" y="28.799" font-family="'Montserrat-Regular'" font-size="12">correcto.</tspan></text>
</g>
</svg>
