<?xml version="1.0" encoding="utf-8"?>
<!-- Generator: Adobe Illustrator 16.0.0, SVG Export Plug-In . SVG Version: 6.00 Build 0)  -->
<!DOCTYPE svg PUBLIC "-//W3C//DTD SVG 1.1//EN" "http://www.w3.org/Graphics/SVG/1.1/DTD/svg11.dtd">
<svg version="1.1" id="Capa_1" xmlns="http://www.w3.org/2000/svg" xmlns:xlink="http://www.w3.org/1999/xlink" x="0px" y="0px"
	 width="400px" height="400px" viewBox="0 0 400 400" enable-background="new 0 0 400 400" xml:space="preserve">
<g>
	<g>
		<polygon fill="#E6CAAE" points="230.469,137.28 227.41,134.74 227.361,131.477 226.569,131.134 226.052,131.975 225.13,129.277 
			222.966,128.01 219.732,129.091 217.878,131.779 219.438,134.489 222.879,136.463 226.896,140.1 		"/>
	</g>
	<polygon fill="#AAC6D5" points="230.176,134.219 224.672,139.953 239.435,159.681 244.928,161.241 268.332,144.821 
		262.071,133.579 244.617,146.629 	"/>
	<g>
		<g>
			<polygon fill="#393028" points="304.438,289.11 305.256,292.409 298.78,297.106 294.316,294.507 297.146,290.509 
				303.622,285.813 			"/>
			<polygon fill="#8B9397" points="281.791,187.696 289.017,202.356 289.698,243.606 304.558,287.976 297.647,290.671 
				267.326,239.153 263.876,222.835 262.504,188.468 			"/>
		</g>
		<g>
			<polygon fill="#8B9397" points="246.802,190.981 246.234,234.21 255.493,289.948 262.612,289.948 267.109,238.519 
				276.853,187.088 			"/>
			<polygon fill="#393028" points="262.571,289.202 262.571,292.589 254.873,295.976 251.023,292.589 254.873,289.202 			"/>
		</g>
	</g>
	<path fill="#AAC6D5" d="M260.822,132.446l18.912-0.617c0,0,11.314,8.734,17.161,31.428c5.954,23.11-1.1,56.378-1.1,56.378
		s-50.738-5.951-59.059-6.869l12.693-45.627L260.822,132.446z"/>
	<g>
		<path fill="#E6CAAE" d="M267.6,134.146c2.209-0.19,4.418-0.38,6.625-0.57c0.025-1.557-0.093-3.115-0.352-4.656
			c1.842-0.567,3.97-1.418,4.294-3.111c0.102-0.534-0.003-1.078-0.106-1.611c-0.429-2.204-0.858-4.406-1.287-6.609
			c-0.148-0.762-0.307-1.546-0.777-2.199c-0.824-1.146-2.427-1.649-3.945-1.883c-3.875-0.596-8.1,0.137-11.109,2.368
			c-0.801,0.593-1.525,1.307-1.879,2.174c-0.546,1.336-0.142,2.812,0.267,4.186c0.375,1.269,0.753,2.538,1.129,3.807
			c0.434,1.459,1.059,3.118,2.655,3.667c0.848,0.291,1.85,0.208,2.616,0.638C267.082,131.105,266.898,132.876,267.6,134.146z"/>
		<path fill="#393028" d="M246.023,112.129c-0.043-1.51,0.198-3.038,0.541-4.416c0.589-2.366,3.763-3.43,6.51-3.598
			c5.933-0.363,11.658-2.728,17.45-0.902c3.313,1.044,7.76,1.294,10.758,2.767c1.251,0.614,2.248,1.574,3.025,2.633
			c2.693,3.67,2.7,8.726,0.018,12.403c-0.602,0.825-1.321,1.579-2.077,2.298c-1.565,1.49-3.438,3.33-5.589,3.879
			c-0.049-1.692,1.711-7.026,0.236-8.415c-2.341-2.204-7.643-1.442-10.552-0.904c-3.173,0.587-6.004,2.56-9.149,2.978
			c-2.265,0.302-5.151-0.678-7.074-1.709C247.107,117.528,246.102,114.858,246.023,112.129z"/>
	</g>
	<path fill="#FFFFFF" d="M266.039,134.503l-19.882,69.968l-1.63,9.176l24.771,2.867c0,0-0.979-33.505-0.653-37.972
		c0.327-4.467,4.001-14.13,4.564-24.54c0.325-6.022,2.5-16.838,0.978-20.359L266.039,134.503z"/>
	<g>
		<polygon fill="#E6CAAE" points="248.229,171.854 243.798,173.086 240.192,171.373 239.39,171.861 240.033,172.753 
			236.577,172.086 234.024,173.242 233.472,176.57 235.424,179.589 239.237,179.72 243.252,177.861 249.401,176.404 		"/>
		<path fill="#AAC6D5" d="M244.461,172.124c6.883-1.42,13.766-2.84,20.648-4.26c1.852-0.382,3.773-0.464,5.626-0.859
			c2.71-0.576,3.452-0.777,3.832-3.05c1.104-6.587-0.299-13.421,0.832-19.911c2.719-0.238,5.343-0.805,8.117-0.772
			c4.531,0.052,4.139,2.795,4.394,5.85c0.302,3.625,0.482,7.259,0.511,10.893c0.023,3.011,1.153,16.07-3.874,17.026
			c-3.604,0.694-39.911,2.396-39.896,3.051C244.645,179.827,244.461,172.124,244.461,172.124z"/>
	</g>
</g>
<g>
	<g>
		<polygon fill="#E6CAAE" points="168.337,143.41 170.884,141.298 170.927,138.583 171.586,138.299 172.017,138.998 
			172.785,136.753 174.586,135.7 177.275,136.601 178.817,138.838 177.517,141.093 174.654,142.733 171.31,145.757 		"/>
		<polygon fill="#86A89B" points="169.143,140.097 154.882,154.968 134.192,138.301 130.226,152.552 156.032,167.956 
			173.871,144.429 		"/>
	</g>
	<g>
		<polygon fill="#504943" points="106.924,288.97 106.615,291.651 112.154,294.995 115.386,292.644 112.771,289.632 
			107.233,286.288 		"/>
		<polygon fill="#C7B39F" points="107.063,206.976 106.125,215.12 114.429,243.103 106.718,288.069 112.394,289.792 127.362,245.89 
			129.738,233.118 129.651,206.081 		"/>
	</g>
	<g>
		<polygon fill="#C7B39F" points="150.72,216.052 138.781,291.401 133.354,291.401 132.377,243.103 122.5,209.204 		"/>
		<polygon fill="#504943" points="133.385,290.806 133.385,293.513 139.253,296.22 142.188,293.513 139.253,290.806 		"/>
	</g>
	<path fill="#86A89B" d="M135.987,139.439c-0.11-0.164-0.224-0.326-0.344-0.485c-4.262-5.674-13.909-2.106-20.228-2.106
		c-1.729,16.016-6.509,31.28-9.596,47.006c-3.279,16.7-6.971,33.338-11.073,49.899c-0.232,0.938,16.283,0.465,17.841,0.488
		c15.888,0.234,36.686,0.188,52.017-4.039c-9.784-23.109-13.356-47.974-21.061-71.684c-1.7-5.229-3.54-10.383-5.713-15.432
		C137.295,141.841,136.753,140.585,135.987,139.439z"/>
	<path fill="#996451" d="M130.178,115.071c4.022,0.968,7.188,4.242,7.629,7.89c2.198-1.802,3.32-4.568,2.916-7.186
		c-0.404-2.619-2.325-5.021-4.99-6.24c-2.493,1.164-4.427,3.224-5.254,5.599L130.178,115.071z"/>
	<path fill="#E6CAAE" d="M138.359,119.812c-2.078-9.653-15.786-7.985-19.718-0.168c-2.236,4.446,0.107,10.738,4.58,13.831
		c0.096,0.854,0.222,3.212,0.965,3.783c0.804,0.62,3.337,0.029,4.33-0.173c0.275-0.056,0.563-0.125,0.762-0.301
		c0.25-0.22,0.292-0.811,0.297-1.464c0.729-0.044,1.475-0.168,2.235-0.388c3.188-0.92,5.497-3.518,6.452-6.348
		C139.216,125.753,138.983,122.712,138.359,119.812z"/>
	<path fill="#996451" d="M117.696,143.503c0.855,0.049,1.709,0.099,2.564,0.148c1.963,0.114,4.101,0.186,5.705-0.815
		c0.32-0.2,0.63-0.474,0.661-0.818c0.023-0.263-0.121-0.512-0.254-0.748c-1.977-3.489-2.545-7.581-1.582-11.386
		c1.29-5.102,5.253-8.194,9.07-11.884c1.048-1.013,2.133-2.097,2.454-3.437c0.354-1.482-0.32-3.048-1.432-4.204
		c-1.71-1.781-3.74-2.667-6.323-2.721c-8.747-0.184-17.872,5.958-20.933,13.008c-0.965,2.222-1.46,4.579-1.871,6.931
		c-0.876,5.014-1.394,10.075-1.548,15.146C108.703,142.984,113.199,143.243,117.696,143.503z"/>
	<g>
		<polygon fill="#AB644F" points="195.298,195.224 130.722,195.224 130.722,155.273 163.01,139.472 195.298,155.273 		"/>
		<path fill="#2F455F" d="M211.561,153.958c-5.173-2.526-10.345-5.052-15.516-7.578c-8.363-4.083-16.727-8.167-25.09-12.252
			c-2.021-0.987-4.02-2.026-6.07-2.964c-1.299-0.594-2.615-0.555-3.866,0.065c-0.8,0.396-1.585,0.815-2.377,1.221
			c-7.64,3.929-15.28,7.856-22.92,11.785c-6.198,3.187-12.465,6.29-18.604,9.564c-0.102,0.054-0.206,0.105-0.309,0.159
			c-1.554,0.799-2.105,2.647-1.196,4.014c0.912,1.373,3.002,1.855,4.563,1.053c5.028-2.584,10.056-5.169,15.083-7.754
			c7.975-4.101,15.951-8.201,23.926-12.302c1.29-0.663,2.579-1.325,3.868-1.989c4.688,2.29,9.377,4.58,14.065,6.869
			c8.429,4.117,16.857,8.233,25.287,12.349c1.93,0.942,3.859,1.884,5.788,2.827c1.575,0.769,3.64,0.336,4.563-1.053
			C213.653,156.623,213.14,154.729,211.561,153.958z"/>
		<rect x="139.917" y="167.348" fill="#FEFDF1" width="15.746" height="26.687"/>
		<g>
			<rect x="166.294" y="167.348" fill="#FEFDF1" width="8.565" height="6.426"/>
			<rect x="177.505" y="167.348" fill="#FEFDF1" width="8.565" height="6.426"/>
			<rect x="166.294" y="176.142" fill="#FEFDF1" width="8.565" height="6.426"/>
			<rect x="177.505" y="176.142" fill="#FEFDF1" width="8.565" height="6.426"/>
		</g>
	</g>
	<g>
		<polygon fill="#E6CAAE" points="122.146,173.578 125.596,175.053 128.775,174.037 129.362,174.52 128.715,175.179 131.628,175 
			133.556,176.215 133.551,178.99 131.544,181.25 128.413,180.954 125.389,179.009 120.567,177.169 		"/>
		<path fill="#86A89B" d="M113.142,168.995c-1.381-1.089-2.227-2.502-2.067-4.415c0.147-1.762,0.883-3.437,1.494-5.119
			c1.941-5.343,2.679-11.02,2.161-16.61c-0.517-5.562-8.732,0.362-10.002,2.69c-1.407,2.58-1.588,5.552-2.263,8.314
			c-0.907,3.708-1.646,7.449-2.214,11.208c-0.359,2.378-1.9,7.914,0.732,9.618c0.712,0.461,1.576,0.697,2.42,0.924
			c1.328,0.358,17.259,4.113,17.624,3.439c0-0.002,3.209-5.946,3.208-5.946C120.958,172.084,115.947,171.207,113.142,168.995z"/>
	</g>
</g>
</svg>
