<?xml version="1.0" encoding="utf-8"?>
<!-- Generator: Adobe Illustrator 16.0.0, SVG Export Plug-In . SVG Version: 6.00 Build 0)  -->
<!DOCTYPE svg PUBLIC "-//W3C//DTD SVG 1.1//EN" "http://www.w3.org/Graphics/SVG/1.1/DTD/svg11.dtd">
<svg version="1.1" xmlns="http://www.w3.org/2000/svg" xmlns:xlink="http://www.w3.org/1999/xlink" x="0px" y="0px" width="750px"
	 height="500px" viewBox="0 0 750 500" enable-background="new 0 0 750 500" xml:space="preserve">
<g id="BACKGROUND">
	<path opacity="0.16" fill="#FFB000" d="M358.777,400.414c-5.091,0.685-236.85,32.109-301.501-125.561
		C-18.525,89.993,93.988,57.928,209.806,87.528c115.818,29.6,215.991,0.952,286.366-24.658
		c70.375-25.611,95.085-44.746,158.466-7.88C723.857,95.252,813.453,339.298,358.777,400.414z"/>
</g>
<g id="OBJECTS">
	<g>
		<ellipse opacity="0.2" fill="#1B73F0" cx="536.552" cy="406.867" rx="145.887" ry="14.129"/>
		<g>
			<path fill="#2E53BC" d="M630.015,401.826l-26.246,2.919c-7.174,0.794-14.392,1.129-21.607,1.016
				c-17.935-0.298-42.719-5.989-50.923-4.216c-33.369,7.215-96.358,5.757-96.358,5.757l1.305-10.986l0.924-7.809
				c0,0,8.602-0.374,20.225-1.026c21.197-1.185,52.425-3.287,59.795-5.669c1.932-0.622,5.615-1.559,10.406-2.682
				c23.461-5.499,73.4-15.495,73.4-15.495L630.015,401.826z"/>
			<path fill="#284C8C" d="M527.534,379.13c-1.803,1.292-3.93,2.338-5.221,3.162c-4.123,2.601-8.276,5.206-12.813,7.02
				c-4.896,1.956-10.144,2.938-15.033,4.917c-4.622,1.86-8.849,4.58-13.521,6.298c-5.147,1.9-10.683,2.521-16.162,2.923
				c-9.485,0.69-19.021,0.758-28.509,0.204c-0.307-0.016-0.626-0.047-0.945-0.093l0.855-7.245
				c5.022-3.187,10.717-5.265,16.374-7.212c1.593-0.551,3.184-1.088,4.774-1.623c21.197-1.185,52.425-3.287,59.795-5.669
				C519.06,381.189,522.743,380.253,527.534,379.13z"/>
			<path fill="#FF9700" d="M610.825,326.601c0.313,5.428-2.355,10.613-5.658,14.969c-3.302,4.355-7.301,8.193-10.308,12.751
				c-1.091,1.654-2.021,3.915-0.798,5.476c0.593,0.756,1.563,1.127,2.516,1.313c3.645,0.717,7.35-0.78,10.6-2.555
				c8.109-4.428,15.176-10.941,19.417-19.062c1.938-3.711,3.289-7.814,3.173-11.987c-0.116-4.172-1.845-8.415-5.171-11.002
				c-2.983-2.319-8.642-3.412-12.134-1.411C608.349,317.448,610.609,322.872,610.825,326.601z"/>
			<path opacity="0.22" fill="#D38C0D" d="M616.672,328.177c-2.157,4.547-1.968,9.908-4.124,14.454
				c-2.636,5.56-8.369,9.103-11.573,14.363c-0.778,1.276-1.41,2.69-1.447,4.178s0.62,3.059,1.926,3.808
				c0.829,0.477,1.822,0.583,2.782,0.598c5.637,0.084,10.958-2.64,15.413-6.042c9.251-7.065,15.939-17.703,16.902-29.193
				c0.325-3.874-0.741-13.785-6.504-13.668C625.23,316.771,618.516,324.289,616.672,328.177z"/>
			<path fill="#6478FF" d="M612.146,364.327c0,0-57.909-27.399-68.517-26.538c-10.607,0.862-83.563,43.813-83.563,43.813
				l15.488,12.451c0,0,48.899-16.917,65.617-21.452c13.999-3.798,70.972,27.802,83.646,29.158
				c12.675,1.357,34.198-7.913,34.198-7.913L612.146,364.327z"/>
			<g>
				<g>
					<path fill="#FFB000" d="M574.979,345.788l-6.415-1.646c-1.645-0.421-2.936,1.371-2.011,2.776
						c1.539,2.341,3.768,4.318,5.994,6.097c9.009,7.196,19.271,13.014,30.423,16.156c2.029,0.571,1.06-10.639,0.8-11.548
						c-0.797-2.784-2.163-6.945-5.074-8.261c-2.602-1.176-6.525-0.398-9.297-0.666C584.507,348.226,579.724,347.006,574.979,345.788
						z"/>
					<g opacity="0.54">
						<path opacity="0.22" fill="#D38C0D" d="M584.009,353.981c3.712-1.458,7.294-3.233,10.699-5.292
							c-1.841-0.021-3.756,0.157-5.309,0.007c-0.74-0.07-1.477-0.164-2.212-0.268C585.468,349.897,583.965,351.781,584.009,353.981z
							"/>
						<path opacity="0.22" fill="#D38C0D" d="M603.771,357.623c-0.797-2.784-2.163-6.945-5.074-8.261
							c-0.523-0.236-1.104-0.392-1.714-0.494c-1.693,2.967-3.654,5.795-6.516,7.636c-0.896,0.576-2.003,1.28-1.916,2.332
							c0.07,0.845,0.896,1.397,1.387,2.095c0.697,0.994,0.672,2.188,0.354,3.385c4.075,1.976,8.308,3.623,12.679,4.855
							C605,369.742,604.03,358.532,603.771,357.623z"/>
					</g>
				</g>
				<g>
					<path fill="#FFB000" d="M669.058,309.576c1.798,9.344,0.316,18.975-1.498,28.315c-1.813,9.34-3.97,18.744-3.513,28.242
						c0.173,3.577,0.717,7.146,0.526,10.723c-0.188,3.562-1.105,7.061-2.398,10.393c-2.218,5.711-5.824,11.238-11.361,14.004
						c-2.203,1.102-4.621,1.719-7.042,2.202c-18.19,3.625-37.804-0.28-53.135-10.581c-4.456-2.993-8.773-6.583-13.432-9.202
						c-4.159-2.338-4.244-8.17-0.133-10.587c6.88-4.045,14.278-7.235,21.967-9.457c3.522-1.018,7.185-1.867,10.233-3.88
						c6.772-4.47,8.742-13.269,9.907-21.216c1.164-7.946,2.479-16.692,8.645-21.944c2.851-2.428,19.789-25.209,22.993-27.17
						c3.432-2.101,5.681-0.281,8.49,2.202C664.526,296.233,667.764,302.854,669.058,309.576z"/>
					<path opacity="0.22" fill="#D38C0D" d="M648.443,389.56c-1.198,1.737-2.34,3.808-4.393,4.382
						c-2.74,0.767-5.66-1.59-8.387-0.778c-1.6,0.475-2.692,1.928-4.18,2.675c-2.345,1.18-5.261,0.442-7.728,1.349
						c-2.806,1.03-4.174,3.696-4.838,6.694c8.228,1.307,16.683,1.202,24.853-0.426c2.421-0.483,4.839-1.101,7.042-2.202
						c5.537-2.766,9.144-8.293,11.361-14.004c0.882-2.272,1.582-4.625,2.003-7.02c-0.809,0.14-1.608,0.277-2.375,0.442
						C656.424,381.826,651.539,385.075,648.443,389.56z"/>
				</g>
				<path fill="none" stroke="#FF9700" stroke-width="0.8242" stroke-miterlimit="10" d="M577.208,380.288
					c9.131-6.627,21.296-7.85,30.878-13.827c7.84-4.889,13.568-12.952,15.545-21.881c0.774-3.5,1.005-7.141,2.292-10.491
					c1.852-4.822,5.695-8.58,8.881-12.671c3.689-4.736,6.579-10.074,8.518-15.729c1.609-4.699,2.697-9.844,6.189-13.417"/>
				<path opacity="0.22" fill="#D38C0D" d="M650.928,294.838c-3.058,1.965-4.854,5.325-6.291,8.632
					c-2.688,6.191-4.57,12.705-5.861,19.318c-0.697,3.568-1.23,7.194-2.515,10.601c-1.283,3.406-3.419,6.642-6.599,8.484
					c-3.866,2.238-8.702,2.118-13.086,1.185c-1.014-0.216-2.04-0.473-3.073-0.392c-3.601,0.282-5.623,4.788-4.431,8.146
					c1.191,3.357,4.508,5.539,7.865,6.849c5.934,2.313,12.65,2.629,18.782,0.883c3.29-0.938,6.47-2.496,8.824-4.945
					c2.264-2.354,3.642-5.379,4.978-8.342c3.363-7.461,6.727-14.924,10.09-22.386c1.984-4.401,3.992-8.881,4.622-13.657
					C665.18,302.05,660.545,288.661,650.928,294.838z"/>
			</g>
			<path fill="#FCB4D2" d="M598.854,342.346c0,0-2.038-1.135-5.205-5.485c-3.167-4.35-6.199-5.703-8.379-8.097
				s-5.356-5.855-4.772-2.596s4.534,6.799,1.714,6.475c-2.821-0.324-11.943-9.08-13.641-8.696
				c-2.194,0.497,6.901,11.596,13.43,18.808c6.529,7.213,6.62,6.923,13.603,10.093C602.587,356.017,616.492,347.119,598.854,342.346
				z"/>
			<path fill="#6478FF" d="M605.392,256.917c-0.257,1.768-0.001,3.647-0.741,5.277c-1.052,2.312-3.966,3.792-4.028,6.324
				c-0.068,2.741,3.228,4.341,4.239,6.896c1.43,3.612-2.114,7.437-1.738,11.296c0.173,1.779,1.166,3.364,2.133,4.878
				c0.185,0.289,0.411,0.607,0.754,0.658c0.357,0.054,0.678-0.203,0.94-0.448c1.714-1.6,3.356-3.467,5.623-4.12
				c1.866-0.538,3.858-0.16,5.802-0.083s4.127-0.275,5.295-1.808c0.936-1.224,0.975-2.879,0.934-4.41
				c-0.05-1.842-0.159-3.682-0.328-5.517c-0.192-2.098-0.471-4.217-1.272-6.171c-0.917-2.236-2.476-4.148-4.011-6.027
				c-1.969-2.405-3.937-4.811-5.905-7.216C610.673,253.496,606.165,251.574,605.392,256.917z"/>
			<g>
				<path fill="#FCB4D2" d="M620.82,280.419c0,0,6.593,5.82,5.9,11.903c-1.025,8.995,16.715-5.464,16.715-5.464l-13.538-16.246
					L620.82,280.419z"/>
				<path fill="#FC86BC" d="M624.935,285.421c0,0,4.732-0.739,7.145-3.963c0,0,0.112,3.843-5.616,7.625L624.935,285.421z"/>
				<path fill="#FCB4D2" d="M620.035,251.38c0,0-10.394,3.138-10.809,9.952c-0.416,6.814,6.253,25.926,14,24.835
					c7.746-1.091,10.951-6.98,13.843-11.312C649.183,256.713,628.695,246.184,620.035,251.38z"/>
			</g>
			<g>
				<path fill="#02132B" d="M606.544,331.845c0.275,0.77,0.687,1.657,1.503,1.801c0.637,0.111,1.244-0.301,1.705-0.749
					c1.656-1.611,2.504-3.943,4.332-5.363c0.998-0.775,2.212-1.217,3.382-1.708c5.967-2.508,11.221-6.634,15.031-11.804
					c1.076-1.462,2.052-3.018,3.376-4.266c1.257-1.183,2.78-2.045,4.19-3.045c4.054-2.869,7.212-6.948,8.95-11.556
					c0.527-1.396,0.93-2.908,0.613-4.364c-0.473-2.181-2.536-3.789-4.748-4.264s-4.531,0.011-6.645,0.811
					c-3.705,1.401-7.07,3.767-10.979,4.438c-4.282,0.736-8.972-0.607-12.873,1.282c-5.425,2.629-9.234,12.065-10.962,17.522
					C601.177,317.667,604.161,325.205,606.544,331.845z"/>
				<path fill="#042956" d="M627.264,291.046c2.02-0.801,3.699-2.232,5.48-3.468c4.012-2.778,8.693-4.613,13.547-5.307
					c2.894-0.413,6.634,0.094,7.49,2.847c0.474,1.523-0.193,3.17-1.102,4.487c-1.91,2.776-4.844,4.71-7.001,7.305
					c-1.57,1.889-2.698,4.09-4.057,6.133c-4.022,6.049-10.174,10.697-17.148,12.96c-3.979,1.29-8.376,1.805-12.336,0.455
					c-3.958-1.35-7.323-4.872-7.538-8.992c-0.146-2.776,1.081-5.428,2.364-7.904c1.35-2.605,2.848-5.231,5.142-7.09
					C617.427,288.162,621.893,293.176,627.264,291.046z"/>
			</g>
			<g>
				<path fill="#FF9700" d="M661.094,361.1c-3.229,3.515-6.846,6.848-11.273,8.719c-5.177,2.185-10.994,2.188-16.629,2.022
					c-15.967-0.462-32.715-2.244-45.83-11.232c2.257-6.458,5.277-12.649,8.999-18.405c0.342-0.535,0.73-1.09,1.318-1.324
					c0.688-0.267,1.453-0.036,2.15,0.199c2.484,0.812,4.987,1.545,7.516,2.213c3.716,0.986,7.47,1.805,11.262,2.472
					c2.897,0.495,5.813,0.903,8.742,1.223c2.134,0.229,4.367,0.395,6.366-0.364c4.037-1.536,5.596-5.977,6.439-10.321
					c0.163-0.831,0.297-1.649,0.414-2.452c0.129-0.87,0.265-1.739,0.407-2.601c1.092-6.908,2.466-13.767,4.09-20.566
					c1.268-5.287,2.854-10.823,6.837-14.586c6.313-5.978,10.692-5.09,16.857,5.535C673.905,310.499,669.672,351.756,661.094,361.1z"
					/>
				<path opacity="0.15" fill="#D38C0D" d="M644.774,344.746c-2.299,2.606-5.36,4.496-7.544,7.195
					c-1.416,1.753-2.539,3.896-4.587,4.866c-2.614,1.234-5.687,0.09-8.338-1.077c-6.02-2.651-12.225-5.614-16.195-10.803
					c-0.371-0.49-0.738-1.039-0.766-1.637c3.716,0.986,7.47,1.805,11.262,2.472c2.897,0.495,5.813,0.903,8.742,1.223
					c2.134,0.229,4.367,0.395,6.366-0.364c4.037-1.536,5.596-5.977,6.439-10.321c0.163-0.831,0.297-1.649,0.414-2.452
					c0.129-0.87,0.265-1.739,0.407-2.601C646.827,332.122,649.754,339.112,644.774,344.746z"/>
			</g>
			<path fill="#02132B" d="M438.683,380.614c-2.759-1.39-4.614-4.3-7.567-5.223c-0.635-0.198-1.341-0.3-1.956-0.048
				c-1.301,0.532-1.513,2.245-1.404,3.629c0.781,10.002,8.356,19.149,18.148,21.914c2.114,0.598,5.168-0.814,6.095,1.148
				c0.507,1.075-4.416,6.409-3.704,7.364c1.408,1.885,8.688-1.165,10.745-2.332c2.266-1.283,4.531-2.566,6.797-3.85
				c1.104-0.626,8.696-6.353,9.408-7.393c0.908-1.326,0.958-3.053,0.711-4.634c-0.568-3.646-2.495-6.925-4.386-10.108
				c-2.285-3.847-4.674-6.177-9.767-3.852C456.85,379.493,449.08,385.853,438.683,380.614z"/>
			<path fill="#02132B" d="M423.597,379.595c-3.551-3.527-5.896-8.126-7.122-12.943c-0.338-1.329-0.78-2.896-2.094-3.352
				c-1.011-0.351-2.165,0.174-2.847,0.988c-0.681,0.815-0.988,1.864-1.256,2.886c-1.468,5.617-2.226,11.415-2.25,17.215
				c-0.008,1.931,0.073,3.908,0.804,5.7c1.742,4.273,6.737,6.568,8.585,10.8c0.354,0.812,0.584,1.707,0.44,2.58
				c-0.26,1.579-5.522,3.034-5.231,4.609c0.345,1.864,6.56,2.371,8.48,2.468c4.002,0.201,8.024-0.009,11.983-0.624
				c1.965-0.307,4.091-0.818,5.285-2.385c1.033-1.354,1.114-3.17,1.154-4.863c0.09-3.782,1.489-14.278-2.283-16.654
				c-1.611-1.016-4.476-0.86-6.31-1.587C428.188,383.344,425.681,381.665,423.597,379.595z"/>
			<g>
				<polygon fill="#FFFFFF" points="552.744,304.861 555.311,302.827 563.527,312.618 583.753,307.014 583.897,310.521 
					561.547,315.775 				"/>
				<polygon fill="#FF5D00" points="564.466,314.68 583.897,310.521 612.241,335.868 592.383,340.77 				"/>
				
					<line fill="none" stroke="#FF5D00" stroke-width="1.6484" stroke-miterlimit="10" x1="552.479" y1="304.975" x2="562.563" y2="316.772"/>
				<path fill="#DD4D05" d="M564.466,314.68c0,0-2.063,1.838-4.691,0.506l30.165,26.952l2.443-1.368L564.466,314.68z"/>
				<polygon fill="#F2F2F2" points="583.753,307.014 612.54,332.603 612.241,335.868 583.897,310.521 				"/>
			</g>
			<g>
				<path fill="#6478FF" d="M615.291,255.279c2.385,0.457,3.936,1.208,4.851,3.424c0.794,1.924,0.872,4.217,2.309,5.736
					c2.598,2.748,8.089,1.375,10.172,4.519c1.106,1.672,0.665,3.903-0.112,5.745c-0.779,1.842-1.87,3.629-1.981,5.621
					c-0.148,2.684,1.519,5.133,3.382,7.096c0.376,0.396,0.916,0.816,1.419,0.597c0.286-0.124,0.447-0.417,0.608-0.681
					c1.688-2.76,5.281-3.854,8.55-3.718c2.513,0.104,5.489,0.63,7.154-1.227c1.247-1.392,1.112-3.532,2.048-5.145
					c1.662-2.865,5.905-3.039,8.271-5.377c0.427-0.42,0.803-0.97,0.739-1.561c-0.141-1.306-1.951-1.468-3.271-1.657
					c-3.013-0.434-5.526-3.133-5.704-6.126c-0.078-1.309,0.238-2.651-0.107-3.917c-0.736-2.695-3.967-3.791-5.871-5.857
					c-1.74-1.891-18.854-24.157-36.175-5.562c-1.336,1.435-3.507,5.022-3.161,7.104
					C608.846,256.909,612.796,254.805,615.291,255.279z"/>
				<path fill="#FCB4D2" d="M625.621,264.201c0,0,0.042-6.204,5.474-7.325c5.431-1.122,7.237,8.044,1.652,14.733
					C627.163,278.299,625.621,264.201,625.621,264.201z"/>
			</g>
		</g>
	</g>
	<g>
		<ellipse opacity="0.2" fill="#1B73F0" cx="133.408" cy="411.63" rx="63.408" ry="15.611"/>
		<g>
			<path fill="#1B73F0" d="M171.43,291.955c-2.274,24.903,2.633,71.9-2.335,98.608c0,0-6.227,2.833-15.253,1.27
				c-9.027-1.563-12.56-79.648-13.72-92.491c-1.16-12.85-5.792-39.805-7.257-46.141c-1.106-4.786,0.534-13.849-0.832-17.989
				c-0.71-2.142-3.663-2.601-4.914-0.714c-2.16,3.261-0.603,11.618-0.946,32.036c-0.496,29.457-5.273,44.576-8.913,59.365
				s-11.766,50.338-14.895,58.552c0,0-9.484,5.774-18.718,0.312c0,0,3.899-48.643,6.089-67.017
				c2.19-18.373,5.356-35.619,5.311-54.549c-0.015-6.102-0.473-12.993-1.045-19.952c-0.985-11.851-2.297-23.882-2.313-32.441
				c-0.007-2.006,0.062-3.817,0.222-5.396c1.228-12.272,71.194,4.466,71.194,4.466C163.319,214.714,173.704,267.051,171.43,291.955z
				"/>
			<path opacity="0.34" fill="#0A3E89" d="M150.741,235.66c-13.176-7.273-37.041-19.684-49.961-15.55
				c-2.793,0.894-5.735,1.25-8.631,1.262c-0.447-6.345-0.645-11.928-0.24-15.961c1.23-12.271,71.317,5.294,71.317,5.294
				c0.071,1.594,3.048,19.409,4.194,26.686C164.271,238.954,159.886,240.708,150.741,235.66z"/>
			<path opacity="0.34" fill="#0A3E89" d="M155.674,291.05c1.788-12.672,10.28-15.194,15.99-15.643
				c0.25,5.828,0.228,11.482-0.234,16.549c-0.684,7.495-0.716,16.383-0.564,25.866C164.893,314.229,153.696,305.069,155.674,291.05z
				"/>
			<path opacity="0.34" fill="#0A3E89" d="M104.636,296.11c1.336-14.739,14.801-19.313,21.25-20.846
				c-0.957,19.199-3.844,31.706-6.636,42.762C115.094,316.768,103.174,312.237,104.636,296.11z"/>
			<path fill="#001A49" d="M172.524,368.373c0,0,1.9-3.425-2.699-1.396c-4.599,2.03-22.561,2.688-23.393,3.664
				c-0.832,0.978-2.474,1.121-1.003,3.166c1.47,2.046,1.898,3.938,2.739,8.604s-2.086,11.26-1.081,15.156s-3.454,9.535,0.04,11.586
				c3.494,2.051,7.771,2.584,10.669,4.143c2.898,1.56,15.048,3.763,23.855,3.54c8.806-0.223,13.024-2.4,8.028-6.855
				s-7.063-6.992-11.818-8.751c-4.754-1.76-5.708-6.658-5.697-11.141s-0.703-3.515-0.011-8.103
				C172.845,377.399,172.524,368.373,172.524,368.373z"/>
			<path fill="#001A49" d="M83.476,361.835c0,0-1.61-3.043,4.455-0.864s22.358,1.003,21.582,3.457
				c-0.777,2.454-0.425,7.947-2.036,9.986c-1.61,2.04,0.314,3.582-0.919,7.479s-2.273,10.229-0.412,13.494
				c1.861,3.264,7.896,13.669,8.925,19.054c1.03,5.384-5.993,8.771-15.267,1.489s-9.221-9.482-12.393-12.674
				c-3.171-3.191-7.907-4.486-7.738-10.61c0.17-6.126-0.034-9.039,0.962-12.692c0.996-3.654,2.88-6.56,2.182-9.942
				C82.119,366.63,83.476,361.835,83.476,361.835z"/>
			<path opacity="0.34" fill="#0A3E89" d="M110.904,224.803c-2.708,4.457-5.875,8.635-9.439,12.452
				c-2.182,2.345-4.609,4.599-7.462,5.989c-0.985-11.851-2.297-23.882-2.313-32.441c0.008-0.015,0.023-0.03,0.039-0.045
				c0.45-0.436,1.137-0.511,1.77-0.548c4.212-0.271,8.47,0.098,12.576,1.082c2.556,0.616,5.288,1.646,6.547,3.93
				C114.27,218.213,112.683,221.888,110.904,224.803z"/>
		</g>
		<path fill="#FF8BB7" d="M174.994,172.667c-1.748,1.112-3.884,1.458-5.975,1.308c-0.519-0.03-1.03-0.098-1.534-0.196
			c-2.549-0.465-4.929-1.54-7.31-2.555c-2.861-1.225-5.929-2.525-7.6-5.11c-0.885-1.368-1.297-2.968-1.648-4.554
			c-1.076-4.817-1.778-9.709-2.099-14.631c-0.145-2.262-0.183-4.652,0.87-6.666c2.335-4.463,8.684-4.629,12.049-1.172
			c2.984,3.066,2.442,10.145,2.953,14.06c0.069,0.526,0.137,1.06,0.29,1.57c0.114,0.406,0.282,0.79,0.526,1.127
			c0.419,0.586,1.038,1,1.641,1.398c2.014,1.322,4.021,2.652,6.036,3.975c1.915,1.263,3.968,2.698,4.625,4.87
			C178.557,168.541,177.176,171.284,174.994,172.667z"/>
		<path fill="#F268A0" d="M174.994,172.667c-1.748,1.112-3.884,1.458-5.975,1.308c-1.007-4.599-2.587-9.018-3.716-13.594
			c-0.381-1.555-0.679-3.156-0.496-4.742c0.039-0.308,0.099-0.616,0.184-0.917c0.114,0.406,0.282,0.79,0.526,1.127
			c0.419,0.586,1.038,1,1.641,1.398c2.014,1.322,4.021,2.652,6.036,3.975c1.915,1.263,3.968,2.698,4.625,4.87
			C178.557,168.541,177.176,171.284,174.994,172.667z"/>
		<path fill="#C9DFFF" d="M155.641,136.717c0.632,18.996,9.124,76.702,9.124,76.702c-24.033,19.931-73.931,8.424-73.931,8.424
			l-0.334-61.77l8.825-59.058c6.64-3.433,39.556-0.422,39.556-0.422s13.837-0.303,18.483,5.362
			c6.788,8.275,7.763,37.613,7.763,37.613s-4.427,4.359-10.119,2.491"/>
		<path fill="#B6D7FF" d="M159.205,127.865l0.37,8.748c0.044,1.05-0.251,2.086-0.844,2.96l-0.43,0.635
			c-0.435,0.64-0.651,1.399-0.62,2.169l0,0c0.054,1.335-0.361,2.647-1.175,3.716l-0.324,0.426"/>
		<path fill="#FF8BB7" d="M85.188,175.626c0.948,2.239,2.105,4.555,4.186,5.854c1.97,1.23,4.516,1.334,6.751,0.678
			c2.235-0.656,4.201-2.001,5.959-3.51c9.776-8.392,13.599-21.502,20.64-32.226c2.809-4.278,6.147-8.191,9.2-12.304
			c1.701-2.292,3.362-4.767,3.714-7.584c0.352-2.817-1.023-6.042-3.762-6.927c-1.076-0.348-2.531-0.555-2.734-1.651
			c-0.075-0.402,0.069-0.815,0.275-1.169c0.668-1.151,1.926-1.822,2.906-2.732c0.98-0.91,1.702-2.425,0.958-3.531
			c-0.56-0.833-1.759-1.049-2.729-0.76c-0.971,0.289-1.762,0.972-2.505,1.651c-4.434,4.056-8.503,9.037-9.25,14.951
			c-0.245,1.943-0.127,3.959-0.799,5.802c-0.575,1.579-1.687,2.904-2.778,4.193c-5.357,6.333-10.747,12.698-17.102,18.063
			c0.872-4.364,1.129-8.846,0.763-13.279c-0.219-2.645-0.736-5.439-2.559-7.394c-2.625-2.815-7.407-2.931-10.689-0.889
			c-6.465,4.022-6.572,12.776-6.266,19.462C79.73,160.221,82.118,168.369,85.188,175.626z"/>
		<path fill="#C9DFFF" d="M111.701,99.431c0,0-28.845-1.029-30.989,20.264c-1.267,12.589-4.797,32.029-3.382,35.372
			c0,0,15.498-2.364,24.941-5.291c0,0,0.301-11.359-1.666-15.838"/>
		<path fill="#B6D7FF" d="M93.833,114.02c3.352,4.763,6.834,9.91,6.904,15.704c0.014,1.16-0.112,2.326,0.031,3.478
			c0.223,1.811,1.091,3.475,1.609,5.226c0.925,3.13,0.713,6.462,0.493,9.714c-0.034,0.507-0.078,1.041-0.374,1.457
			c-0.363,0.511-1.015,0.723-1.621,0.902"/>
		<g>
			<path fill="#FF8BB7" d="M154.542,65.583c0.108,0.918-0.005,17.362-3.898,23.077c-3.893,5.714-7.167,7.327-14.151,5.489
				l-0.621,9.689c0,0-4.134,7.661-13.947,3.605c-6.276-2.595-7.648-8.126-7.648-8.126l12.066-37.958L154.542,65.583z"/>
			<path fill="#001A49" d="M117.146,86.445c0.149,1.147,6.707,0.271,10.035-2.318c3.328-2.589,4.169-2.105,4.054-3.929
				c-0.116-1.823-1.77-0.861-2.807-3.837c-1.037-2.975-0.67-7.367,3.231-6.749c3.901,0.619,3.656,3.547,5.47,2.276
				c1.814-1.27,0.609-5.676,2.308-6.257c1.699-0.58,2.826-3.512,9.456,0.276c6.629,3.787,12.119,7.898,13.291,2.834
				c1.172-5.063-4.246-5.22-0.415-6.865c3.832-1.645,0.246-6.263-6.904-6.124c-7.149,0.138-14.942-11.099-27.167-4.872
				C115.471,57.109,114.018,62.343,117.146,86.445z"/>
			<path fill="#F268A0" d="M136.493,94.149c-1.412-0.197-4.691-0.714-8.124-3.393c-3.433-2.679,0.792,4.168,3.357,5.46
				s4.376,2.932,4.376,2.932L136.493,94.149z"/>
			<path fill="#FF8BB7" d="M137.384,73.448c0,0-2.339-5.761-7.811-4.852s-3.756,10.091,3.923,14.311
				C141.175,87.126,137.384,73.448,137.384,73.448z"/>
		</g>
		<g>
			<path fill="#B6D7FF" d="M115.601,94.275c-1.373,0.26-3.795,3.277-4.237,5.779l-0.595,3.366c-0.164,0.929,0.142,1.879,0.819,2.546
				l0.589,0.58c0.171,0.168,0.324,0.354,0.456,0.553l5.665,4.386l3.27-1.073c0.403-0.132,0.823-0.206,1.247-0.22l4.044-0.128
				c0.255-0.008,0.295-0.36,0.049-0.424c-10.155-2.647-11.951-9.646-11.951-9.646S116.028,94.195,115.601,94.275z"/>
			<path fill="#B6D7FF" d="M129.622,109.738c-0.167,0.22,0.081,0.512,0.332,0.391c2.749-1.323,5.238-3.168,7.287-5.407
				c0.691-0.755,1.349-1.583,1.446-2.65c0.032-0.347-0.074-0.685-0.157-1.022c-0.438-1.771-0.584-3.322-2.106-4.347
				c-0.207,1.507,0.251,5.776-3.187,8.375C131.667,106.264,130.805,108.179,129.622,109.738z"/>
		</g>
		<g>
			<polygon fill="#606060" points="211.977,151.145 208.137,128.945 165.184,146.361 165.577,155.69 			"/>
			<polygon fill="#FFFFFF" points="210.649,150.271 206.577,128.542 166.101,144.884 167.125,155.008 			"/>
			<path fill="#6478FF" d="M204.403,154.82l7.574-3.676c0,0-14.549-9.663-15.536-9.126c-0.988,0.538-42.764,18.909-42.764,18.909
				l17.18,9.182L204.403,154.82z"/>
		</g>
		<path fill="#FF8BB7" d="M186.141,163.771c0.702,0.048,1.431,0.111,2.037,0.463c0.605,0.353,1.044,1.083,0.826,1.741
			c-0.302,0.91-1.505,1.083-2.318,1.607c-0.947,0.61-1.374,1.738-1.794,2.773c-1.036,2.553-2.562,5.157-5.122,6.253
			c-1.283,0.549-2.715,0.665-4.113,0.625c-2.17-0.061-4.605-0.667-5.657-2.536c-0.299-0.53-0.457-1.189-0.201-1.74
			c0.32-0.689,1.172-0.976,1.941-0.994c0.769-0.018,1.54,0.158,2.304,0.069c0.194-0.023,0.396-0.067,0.542-0.194
			c0.347-0.301,0.207-0.851,0.301-1.297c0.248-1.178,2.037-1.402,2.507-2.512c0.284-0.671-0.013-1.431-0.008-2.157
			C177.416,162.009,183.883,163.617,186.141,163.771z"/>
	</g>
	<g>
		<g>
			<path fill="#1B73F0" d="M326.59,311.277c0,0,1.494-5.593-2.391-9.124c-3.885-3.532-63.698-13.469-63.698-13.469l-12.509,21.709
				L326.59,311.277z"/>
			<g>
				
					<line fill="none" stroke="#2E53BC" stroke-width="3.3669" stroke-miterlimit="10" x1="325.064" y1="311.277" x2="334.521" y2="415.439"/>
				<polyline fill="none" stroke="#2E53BC" stroke-width="3.3669" stroke-miterlimit="10" points="255.859,416.536 262.319,308.163 
					257.423,305.516 246.789,403.473 				"/>
				<path fill="none" stroke="#2E53BC" stroke-width="3.3669" stroke-miterlimit="10" d="M327.935,339.599
					c0,0,4.551,13.051-1.391,14.592c-5.942,1.54-60.989,4.004-69.121-1.232s-3.77-18.523-3.77-18.523"/>
				<polyline fill="none" stroke="#2E53BC" stroke-width="3.3669" stroke-miterlimit="10" points="325.918,326.769 261.176,325.535 
					255.4,319.866 				"/>
			</g>
		</g>
		<g>
			<g>
				<g>
					<path fill="#FF8BB7" d="M285.222,189.111c0,0,1.079,4.075,0.54,6.377c-0.54,2.304-9.616,3.306-9.616,3.306l21.679,29.383
						l15.101-27.02l-4.15-8.988l-3.046-0.401l-1.439-9.744L285.222,189.111z"/>
					<path fill="#F2649E" d="M292.199,225.771c1.869,0.586,3.912,0.128,5.749-0.533c6.382-2.305,11.635-7.321,14.426-13.411
						c0.771-1.674,1.357-3.423,1.723-5.226c0.115-0.555,0.207-1.119,0.282-1.682c0.191-1.449,0.237-2.929,0.084-4.378v-0.007
						c-0.053-0.503-0.129-0.999-0.236-1.486c-0.252-1.202-0.656-2.358-1.266-3.432c-1.296-2.291-4.133-4.453-6.832-4.994
						c-1.22,0.315-2.326,0.886-2.936,1.682c-0.709,0.917-0.938,2.103-1.06,3.244c-0.244,2.373-0.076,4.775,0.488,7.088
						c0.282,1.164,1.914,1.284,2.364,0.173c0.259-0.661,2.211,0.488,1.99,1.652c-0.442,2.328-1.807,4.377-3.203,6.308
						c-1.7,2.357-3.53,4.7-5.146,7.141c-1.99,3.011-5.818,3.732-8.685,2.208c-0.305,0.36-0.534,0.773-0.664,1.254
						C288.792,223.241,290.332,225.187,292.199,225.771z"/>
				</g>
				<path fill="#F2649E" d="M283.772,187.703l17.198-0.822c0,0,3.422,4.567-1.17,8.862
					C295.208,200.037,283.772,187.703,283.772,187.703z"/>
				<path fill="#FF8BB7" d="M293.88,156.714c-0.676,0.116-14.578,0.277-15.66,9.604s-0.026,27.938,9.2,27.184
					c9.227-0.754,13.005-3.651,15.727-7.035c2.721-3.384,8.261-8.488,8.134-13.778C311.152,167.4,305.756,154.688,293.88,156.714z"
					/>
				<path fill="#6478FF" d="M293.168,164.814c0.798,0.696,1.931,0.827,2.951,1.131c2.491,0.742,4.559,2.736,5.365,5.172
					c0.581-1.553,2.771-2.151,4.216-1.307c1.446,0.844,2.02,2.772,1.52,4.353c-0.501,1.581-1.905,2.781-3.486,3.341
					c-0.722,0.256-1.564,0.453-1.95,1.106c-0.432,0.73-0.071,1.65,0.292,2.416c0.69,1.453,1.38,2.907,2.07,4.36
					c0.088,0.186,0.185,0.382,0.359,0.495c0.362,0.236,0.836,0.01,1.23-0.17c1.249-0.571,2.724-0.643,4.023-0.195
					c0.733,0.252,1.464,0.669,2.231,0.549c0.923-0.145,1.546-1.033,1.806-1.918c0.26-0.885,0.271-1.829,0.562-2.705
					c0.687-2.066,2.754-3.339,4.048-5.102c2.505-3.412,1.707-8.436-0.979-11.712c-0.991-1.208-2.239-2.302-2.681-3.794
					c-0.662-2.233,0.601-4.996-0.91-6.785c-1.596-1.89-4.931-1.018-6.872-2.563c-1.156-0.921-1.675-2.605-3.07-3.111
					c-2.223-0.806-4.149,2.017-6.505,2.255c-2.413,0.243-4.606-2.294-6.941-1.644c-1.458,0.406-2.377,1.952-3.849,2.309
					c-1.286,0.312-2.637-0.375-3.944-0.167c-1.751,0.279-2.823,2.012-3.531,3.613c-1.877,4.247-2.887,8.863-2.953,13.494
					c-0.01,0.699,0.199,1.621,0.908,1.668c0.313,0.021,0.604-0.16,0.833-0.371c1.042-0.95,1.256-2.459,1.569-3.823
					c0.313-1.364,0.963-2.872,2.322-3.275c0.574-0.17,1.195-0.111,1.776-0.258c1.931-0.488,3.077-2.987,5.251-2.162
					C291.051,160.86,291.578,163.428,293.168,164.814z"/>
				<path fill="#FF8BB7" d="M300.098,171.127c0,0,2.506-5.292,7.601-4.154c5.094,1.138,2.989,9.679-4.454,13.246
					C295.802,183.786,300.098,171.127,300.098,171.127z"/>
			</g>
			<g>
				<g>
					<path fill="#FF8BB7" d="M241.281,285.25c-1.828,0.153-3.808,0.429-5.087,1.724c-0.908,0.92-1.306,2.214-1.535,3.478
						c-0.334,1.845-0.367,3.791,0.297,5.548c0.664,1.757,2.111,3.294,3.96,3.736c1.019,0.244,2.084,0.151,3.128,0.057
						c3.78-0.341,7.56-0.683,11.34-1.023c2.393-0.216,5.088-0.595,6.493-2.515c2.598-3.552-0.726-8.966-4.224-10.663
						C251.758,283.702,245.4,284.902,241.281,285.25z"/>
					<g>
						<path fill="#001A49" d="M207.569,299.566c3.02-4.946,8.121-8.761,13.843-10.003c1.905-0.414,3.971-0.552,5.543-1.689
							c0.944-0.683,1.612-1.661,2.362-2.547c2.222-2.62,5.434-4.543,8.895-4.732c2.999-0.164,7.409,1.38,8.418,4.473
							c-3.109,0.022-5.732,0.422-8.382,1.913c-1.783,2.703-0.654,6.648,1.124,9.301c0.458,0.683,1.646,2.344,1.689,3.16
							c0.083,1.563-2.211,1.654-3.629,2.363c-3.118,1.56-6.235,3.119-9.353,4.679c-4.321,2.16-8.802,4.365-13.641,4.62
							c-1.915,0.102-3.903-0.13-5.567-1.067c-1.478-0.832-2.646-2.304-2.876-3.945C205.657,305.304,205.986,302.16,207.569,299.566z
							"/>
						<path fill="#FFFFFF" d="M207.569,299.566c3.02-4.946,8.121-8.761,13.843-10.003c1.905-0.414,3.971-0.552,5.543-1.689
							c0.944-0.683,1.612-1.661,2.362-2.547c2.222-2.62,5.434-4.543,8.895-4.732c2.132-0.117,4.971,0.634,6.8,2.187
							c-2.285,1.576-4.995,2.561-7.778,2.758c-1.813,0.129-3.757-0.027-5.313,0.896c-1.208,0.716-1.969,1.968-3.003,2.912
							c-3.921,3.579-11.104,2.296-14.3,6.517c-0.371,0.49-0.671,1.054-0.723,1.662c-0.12,1.413,1.065,2.555,2.01,3.625
							c2.194,2.487,3.433,5.735,3.585,9.022c-1.645,0.498-3.325,0.84-5.051,0.931c-1.915,0.102-3.903-0.13-5.567-1.067
							c-1.478-0.832-2.646-2.304-2.876-3.945C205.657,305.304,205.986,302.16,207.569,299.566z"/>
						<g>
							<path fill="#C9DFFF" d="M228.004,300.333c-0.101,0.419,0.163,0.837,0.587,0.937c0.424,0.098,0.85-0.161,0.95-0.579
								c0.101-0.418-0.163-0.837-0.587-0.936C228.529,299.655,228.104,299.915,228.004,300.333z"/>
							<path fill="#C9DFFF" d="M231.789,298.636c-0.101,0.418,0.163,0.837,0.587,0.936c0.424,0.099,0.85-0.16,0.95-0.578
								c0.1-0.419-0.163-0.838-0.587-0.937C232.314,297.958,231.889,298.218,231.789,298.636z"/>
							<path fill="#C9DFFF" d="M235.823,295.99c-0.425-0.098-0.85,0.161-0.95,0.579s0.163,0.837,0.587,0.937
								c0.425,0.099,0.85-0.16,0.95-0.579C236.511,296.509,236.248,296.09,235.823,295.99z"/>
						</g>
						<g>
							<path fill="#C9DFFF" d="M226.373,296.061c-0.1,0.418,0.163,0.836,0.587,0.936c0.425,0.099,0.85-0.16,0.951-0.578
								c0.1-0.419-0.163-0.838-0.587-0.937C226.899,295.383,226.474,295.643,226.373,296.061z"/>
							<path fill="#C9DFFF" d="M230.158,294.362c-0.1,0.418,0.163,0.837,0.587,0.936s0.85-0.16,0.951-0.578
								c0.1-0.418-0.163-0.837-0.588-0.936C230.684,293.685,230.259,293.944,230.158,294.362z"/>
							<path fill="#C9DFFF" d="M234.193,291.718c-0.424-0.099-0.85,0.16-0.951,0.578c-0.1,0.418,0.163,0.837,0.588,0.937
								c0.424,0.099,0.85-0.16,0.95-0.578C234.88,292.236,234.618,291.816,234.193,291.718z"/>
						</g>
					</g>
				</g>
				<g>
					<path fill="#001A49" d="M298.972,371.802c0.039,1.2,0.017,2.439-0.457,3.546c-0.781,1.826-2.634,2.964-4.461,3.794
						s-3.791,1.505-5.249,2.87c-1.284,1.202-2.057,2.834-3.178,4.186c-1.097,1.324-2.512,2.36-3.981,3.271
						c-5.943,3.681-20.229,4.502-21.823,0.892c-2.268-5.139,2.559-6.845,6.178-10.339c3.619-3.494,8.024-6.115,11.691-9.56
						c0.666-0.626,1.321-1.3,1.669-2.139c0.786-1.896-0.185-4.018-1.166-5.822c-0.265-0.486-0.536-0.987-0.59-1.535
						c-0.105-1.074,0.645-2.053,1.498-2.73c3.142-2.494,7.867-2.247,11.414-0.35s6.131,5.141,8.385,8.438"/>
					<path fill="#FFFFFF" d="M264.392,381.429c2.928,1.909,5.396,4.503,7.065,7.546c5.343-2.091,10.958-4.381,14.424-8.898
						c1.356-1.769,2.313-3.8,3.555-5.648c1.242-1.848,2.869-3.576,5.005-4.272c1.425-0.465,2.961-0.417,4.427-0.053
						c0.043,0.566,0.084,1.132,0.103,1.699c0.039,1.2,0.017,2.439-0.457,3.546c-0.781,1.826-2.634,2.964-4.461,3.794
						c-1.827,0.83-3.791,1.505-5.249,2.87c-1.284,1.202-2.057,2.834-3.178,4.186c-1.097,1.324-2.512,2.36-3.981,3.271
						c-5.943,3.681-20.229,4.502-21.823,0.892C257.882,385.96,261.143,384.073,264.392,381.429z"/>
					<g>
						<ellipse fill="#C9DFFF" cx="274.062" cy="378.578" rx="0.79" ry="0.778"/>
						<ellipse fill="#C9DFFF" cx="277.779" cy="376.382" rx="0.79" ry="0.778"/>
						<ellipse fill="#C9DFFF" cx="279.87" cy="373.362" rx="0.79" ry="0.778"/>
					</g>
				</g>
				<path fill="#C9DFFF" d="M242.522,301.873c-4.194,5.491-4.511,12.958-0.806,18.78c1.538,2.417,2.978,4.598,3.696,5.47
					c11.185,13.598,25.665,25.643,30.597,42.454c0.198,0.668,0.397,1.367,0.9,1.847c0.465,0.436,1.113,0.616,1.739,0.759
					c7.495,1.646,15.806-1.036,20.86-6.735c-3.812-14.454-13.328-26.296-24.467-36.44c-2.295-2.087-4.682-4.159-6.305-6.78
					c-1.624-2.628-2.402-5.969-1.22-8.815c0.999-2.41,3.11-3.987,5.505-5.233c1.387-0.735,2.875-1.352,4.292-1.952
					c6.222-2.665,12.115-6.074,17.506-10.145c1.799-1.359,3.667-3.011,3.926-5.226c0.282-2.403-1.54-4.656-3.774-5.662
					c-2.226-1.006-4.773-1.014-7.221-0.916c-6.297,0.263-12.573,1.156-18.688,2.665l3.347-1.073
					c-1.921,0.548-3.858,1.104-5.787,1.704c-3.386,0.932-6.717,2.043-9.973,3.342l3.85-1.23c-4.315,1.666-8.41,3.754-11.97,6.667
					c-0.916,0.743-1.785,1.562-2.6,2.44C244.75,299.061,243.599,300.463,242.522,301.873z"/>
				<path fill="#B6D7FF" d="M262.319,308.163c4.184,1.197,6.462,0.021,10.702-0.985c1.387-0.735,2.875-1.352,4.292-1.952
					c6.222-2.665,12.115-6.074,17.506-10.145c1.799-1.359,3.667-3.011,3.926-5.226c0.282-2.403-1.54-4.656-3.774-5.662
					c-2.226-1.006-4.773-1.014-7.221-0.916c-6.297,0.263-12.573,1.156-18.688,2.665l3.347-1.073
					c-1.921,0.548-3.858,1.104-5.787,1.704c-3.386,0.932-6.717,2.043-9.973,3.342l3.85-1.23c-4.315,1.666-8.41,3.754-11.97,6.667
					C247.615,296.095,252.437,305.334,262.319,308.163z"/>
				<g>
					<path fill="#FF8BB7" d="M237.486,260.823c-1.1,1.816-2.24,3.929-1.586,5.943c0.481,1.484,1.899,2.554,3.435,2.929
						s3.168,0.138,4.67-0.351c3.662-1.188,6.719-3.824,8.911-6.948s3.585-6.726,4.665-10.37c0.63-2.128,1.14-4.507,0.127-6.486
						c-2.218-4.333-9.011-3.418-11.448,0.131C243.026,250.382,240.464,255.902,237.486,260.823z"/>
					<path fill="#FFB000" d="M243.651,249.84c1.837,1.953,9.706,4.16,13.022,4.979h0.008c0.892,0.218,1.456,0.33,1.472,0.315
						c0.503-0.48,1.037-1.27,1.585-2.23c2.646-4.67,5.467-13.374,5.155-10.294c-0.359,3.589-1.273,28.713,3.301,30.621
						c0.153,0.068,0.32,0.105,0.488,0.112l44.101,3.087l10.24-10.73l0.976-1.021c-0.183-4.408-0.297-9.754,0.442-13.313
						c0.076-0.384,0.145-0.789,0.206-1.216c0.023-0.211,0.054-0.429,0.069-0.646c0.023-0.218,0.046-0.442,0.061-0.668
						c0.023-0.247,0.039-0.502,0.046-0.766c0.023-0.308,0.03-0.616,0.038-0.931c0.038-1.262,0.007-2.575-0.054-3.875
						c-0.015-0.36-0.038-0.729-0.061-1.088c-0.068-1.097-0.152-2.17-0.259-3.161c-0.015-0.158-0.03-0.308-0.045-0.458
						c-0.015-0.15-0.03-0.292-0.046-0.436v-0.007c-0.015-0.15-0.03-0.3-0.053-0.45c-0.015-0.15-0.03-0.293-0.046-0.436
						c-0.045-0.428-0.099-0.834-0.152-1.209c-0.008-0.112-0.023-0.21-0.038-0.315c-0.038-0.308-0.076-0.593-0.114-0.856
						c-0.023-0.15-0.038-0.285-0.061-0.413c-0.084-0.601-0.145-0.977-0.16-1.059l3.53,9.296c0,0,1.785-0.736,4.179-1.555
						c4.369-1.501,10.766-3.296,12.078-1.487c0.457-1.66,0.815-3.341,1.09-5.038c1.044-6.405,0.831-13.013-0.625-19.343
						c-0.053-0.345-0.122-0.691-0.229-1.021c-0.023-0.083-0.053-0.158-0.076-0.232c-0.251-0.954-0.511-1.9-0.816-2.838l-3.37-3.657
						c0.022,0.255,0.053,0.51,0.076,0.766c-4.316-3.612-10.835-5.646-16.05-7.524c-2.013-0.721-3.835-1.426-5.253-2.177
						c-0.336-0.18-0.679-0.353-1.007-0.518c-2.943-1.487-5.672-2.478-7.739-3.124c0.107,1.682,0.442,3.364,0.587,5.031
						c0.114,1.179,0.122,2.342-0.099,3.507c-0.442,2.327-1.807,4.377-3.202,6.307c-1.701,2.358-3.531,4.7-5.147,7.141
						c-1.99,3.011-5.817,3.731-8.685,2.208c-1.006-0.526-1.898-1.344-2.546-2.44c-1.35-2.275-2.593-4.61-3.675-7.021
						c-1.607-3.605-2.83-7.43-3.4-11.323c-0.232-1.582-1.883-2.548-3.399-1.982c-7.792,2.908-18.167,7.003-20.984,9.19
						c-4.666,3.627-14.059,40.532-15.646,43.146C243.14,249.052,243.262,249.436,243.651,249.84z"/>
					<path fill="#FF9700" d="M264.893,242.61c-0.359,3.589-1.273,28.713,3.301,30.621c1.197-2.651,1.998-5.467,2.722-8.282
						c1.075-4.167,2.005-8.395,2.249-12.689c0.358-6.413-0.824-12.811-2.013-19.125c-0.274-1.486-0.678-3.153-2.005-3.904
						c-0.74-0.428-1.663-0.473-2.509-0.308c-3.545,0.676-5.558,4.393-6.473,7.839c-1.471,5.497-0.755,10.655-0.427,16.144
						C262.384,248.234,265.206,239.531,264.893,242.61z"/>
					<path fill="#FF9700" d="M315.055,209.736c3.081,8.169,3.782,16.992,4.324,25.687c0.503,8.095,0.587,16.227,1.159,24.313
						c0.221,3.087,1.243,5.129,2.485,5.963l0.976-1.021c-0.183-4.408-0.297-9.754,0.442-13.313
						c1.258-6.09-0.587-17.466-0.671-17.992l3.53,9.296c0,0,1.785-0.736,4.179-1.555c0.099-0.624,0.198-1.254,0.305-1.877
						c0.419-2.576,0.839-5.219,0.275-7.764c-0.816-3.725-3.591-6.675-5.429-10.024c-2.539-4.633-3.263-9.994-5.078-14.95
						c-1.814-4.948-5.314-9.904-10.552-10.955C310.77,200.493,313.309,205.088,315.055,209.736z"/>
					<path fill="#FF8BB7" d="M305.692,201.634c0.282,1.164,1.914,1.284,2.364,0.172c0.259-0.661,0.564-1.292,1.151-1.622
						c0.282-0.165,0.61-0.225,0.938-0.232c0.229-0.015,0.458,0.007,0.678,0.037c0.229,0.03,0.458,0.076,0.679,0.136
						c1.09,0.255,2.104,0.788,2.943,1.539c1.258,1.126,2.104,2.478,2.722,3.935c0.595,1.426,0.976,2.943,1.296,4.46
						c1.784,8.492,1.982,17.36,4.933,25.537c0.305,0.849,0.64,1.69,0.999,2.516v0.007c1.716,3.965,3.965,7.712,6.207,11.429
						c1.426,2.373,3.241,4.993,6.016,5.315c1.547,0.181,3.103-0.435,4.384-1.313c3.866-2.666,5.612-7.637,5.292-12.269
						c-0.16-2.313-0.762-4.543-1.646-6.69c-0.893-2.163-2.067-4.235-3.355-6.195c-2.562-3.904-5.597-7.493-8.083-11.443
						c-3.049-4.858-5.665-10.024-8.89-14.785c-0.29-0.42-0.534-0.901-0.762-1.427c-1.037-2.328-1.677-5.391-3.438-6.855
						c-2.181-1.81-4.057-3.003-6.695-4.145c-1.121-0.48-2.752-0.488-4.224-0.12c-1.22,0.315-2.326,0.886-2.936,1.682
						c-0.709,0.916-0.938,2.103-1.06,3.244C304.96,196.918,305.128,199.321,305.692,201.634z"/>
				</g>
				<g>
					<path fill="#A5CFF9" d="M354.431,265.891c0.056,4.688-2.275,9.121-5.275,12.76c-3.001,3.639-6.681,6.667-9.967,10.059
						c-3.751,3.872-7.029,8.258-11.4,11.438c-8.525,6.203-20.881,6.771-29.955,1.375c-2.237-1.329-4.331-3.048-5.518-5.341
						c-2.886-5.579,0.657-12.61,5.851-16.222c5.193-3.609,11.641-4.859,17.649-6.906c8.705-2.965,16.633-7.693,24.24-12.734
						c3.225-2.137,6.19-5.977,9.887-3.598C352.847,258.59,354.391,262.609,354.431,265.891z"/>
					<path fill="#C9DFFF" d="M347.146,254.655c-5.807-1.28-11.655,1.454-17.036,3.958c-25.614,11.917-53.683,18.754-81.653,23.184
						c3.002,8.618,2.171,13.978,8.97,20.158c11.959,1.133,28.707,0.758,38.24-3.816c6.166-2.958,11.874-6.834,18.233-9.364
						c5.822-2.316,12.052-3.45,18.017-5.383c5.965-1.932,11.883-4.844,15.648-9.793S350.913,259.603,347.146,254.655z"/>
				</g>
			</g>
			<g>
				<polygon fill="#F2F2F2" points="218.29,258.389 255.954,269.482 235.813,275.422 226.027,269.931 				"/>
				<polygon fill="#F2F2F2" points="216.696,254.467 251.872,265.672 232.357,272.6 				"/>
				<path fill="#FFFFFF" d="M263.053,264.559l0.404,3.582c0,0-14.28,0.531-19.938,2.521c-5.658,1.991-9.43,4.909-9.43,4.909
					l-4.176-1.725l-2.29-2.388c0,0-0.943-6.767-5.523-7.165s-8.083-10.083-8.083-10.083h3.233c0,0,2.021,3.45,4.042,5.175
					c2.021,1.725,5.928,2.786,7.814,6.235c1.886,3.449,3.233,5.041,3.233,5.041l2.291,0.929c0,0,3.907-3.979,10.912-5.174
					C252.545,265.222,263.053,264.559,263.053,264.559z"/>
				<polygon fill="#FF5D00" points="212.399,253.547 210.378,253.813 229.508,275.172 231.799,274.907 				"/>
			</g>
			<polygon fill="#FF5D00" points="263.917,265.061 234.089,275.57 249.447,281.938 293.364,273.183 			"/>
			<path fill="#FF8BB7" d="M228.075,273.59c-0.718-0.774,0.072-2.377,1.025-2.447c0.954-0.071,1.776,0.758,2.489,1.537
				c1.21,1.321,2.42,2.643,3.631,3.964c0.354,0.387,0.726,0.786,1.184,0.938c0.461,0.152,0.949,0.033,1.417-0.082
				c3.748-0.924,7.536-1.593,11.343-2.006c2.063-0.225,4.256-0.342,6.078,0.865c-0.384,1.801-1.536,3.243-2.866,4.137
				c-1.33,0.893-2.835,1.306-4.325,1.648c-3.828,0.879-7.718,1.357-11.612,1.428c-1.094,0.02-2.226-0.002-3.223-0.554
				c-1.115-0.619-1.933-1.832-2.625-3.07L228.075,273.59z"/>
		</g>
		<ellipse opacity="0.2" fill="#1B73F0" cx="290.571" cy="408.183" rx="67.485" ry="12.083"/>
	</g>
	<g>
		<ellipse opacity="0.2" fill="#1B73F0" cx="468.567" cy="263.078" rx="84.243" ry="17.862"/>
		<path fill="#FF5D00" d="M484.657,120.399c-2.636-7.515-4.862-15.955-4.486-23.261c0-0.001,0-0.001,0-0.002
			c0.192-3.009,0.222-5.658,0.376-7.304c0.818-8.707-5.624-12.123-7.944-12.34c-2.319-0.217-4.381-1.831-12.092-1.567
			c-7.381,0.252-12.444,5.433-13.843,12.604c-1.13,5.79-0.417,9.244,0.676,14.247c0.059,1.478,0.122,7.349-2.325,11.466
			c-2.818,4.743-6.663,5.579-6.824,16.893c-0.159,11.315,46.463,3.884,46.463,3.884S487.294,127.915,484.657,120.399z"/>
		<g>
			<path fill="#FCB4D2" d="M439.966,260.292c-0.504,0.599-0.755,1.364-0.931,2.123c-0.539,2.315-0.487,4.761,0.146,7.053
				c0.076,0.273,0.171,0.562,0.395,0.741c0.225,0.181,0.53,0.214,0.818,0.235c2.989,0.223,6.018-0.068,8.906-0.857
				c0.252-0.067,0.516-0.148,0.687-0.343c0.198-0.226,0.223-0.548,0.238-0.847c0.094-1.893,0.188-3.786,0.28-5.678
				c0.024-0.489,0.048-0.987-0.08-1.459C449.521,257.936,441.806,258.104,439.966,260.292z"/>
			<g>
				<path fill="#D38C0D" d="M435.327,272.094c-2.254,1.597-5.832,3.225-8.467,2.363c-0.55-0.18-1.094-0.494-1.352-1.005
					c-0.188-0.37-0.205-0.799-0.212-1.212c-0.053-3.701,0.51-7.408,1.659-10.933c0.679-2.083,1.856-4.359,4.021-4.856
					c2.133-0.488,5.176,0.01,7.041,1.137c3.326,2.014,11.653,0.631,12.053,0.837c0.943,0.485,1.202,5.521,0.812,6.493
					c-1.064,2.656-4.385,3.718-7.013,4.044C440.519,269.377,438.132,270.107,435.327,272.094z"/>
				<path fill="#FFB000" d="M432.349,256.285c-0.481,0.021-0.947,0.068-1.372,0.166c-2.164,0.497-3.342,2.773-4.021,4.856
					c-1.149,3.524-1.712,7.231-1.659,10.933c0.007,0.413,0.024,0.842,0.212,1.212c0.258,0.511,0.802,0.825,1.352,1.005
					c1.623,0.53,3.604,0.115,5.415-0.655c0.827-2.184,1.429-4.441,1.687-6.759C434.369,263.4,433.887,259.597,432.349,256.285z"/>
			</g>
		</g>
		<g>
			<path fill="#C9DFFF" d="M451.947,126.407c10.08-0.251,20.224-0.498,30.193,0.991c3.363,0.502,6.801,1.245,9.583,3.171
				c5.205,3.605,6.882,10.366,7.816,16.564c0.655,4.34,1.136,8.704,1.616,13.066c0.238,2.16,0.474,4.366-0.01,6.485
				c-0.626,2.748-2.397,5.091-4.214,7.266c-5.67,6.786-12.384,12.948-20.505,16.589c-8.121,3.642-17.812,4.518-25.953,0.92
				c-2.844-1.256-5.427-3.011-7.979-4.771c-3.12-2.15-6.294-4.395-8.413-7.511c-1.499-2.207-2.398-4.751-3.146-7.302
				c-2.57-8.768-3.466-18.19-1.667-27.191c1.11-5.559,0.314-11.192,5.825-14.035C439.684,128.28,446.855,126.534,451.947,126.407z"
				/>
			<g>
				<path fill="#FCB4D2" d="M457.325,116.994l-1.526,14.06c0,0,8.342,3.998,16.029,0l-1.525-17.059L457.325,116.994z"/>
				<path fill="#EA5E89" d="M457.325,116.994l-0.36,4.084c1.641,0.775,3.822,1.405,5.559,0.206c2.301-1.589,4.767-3.012,8.174-2.033
					l-0.395-5.256L457.325,116.994z"/>
				<g>
					<path fill="#FCB4D2" d="M463.589,118.767L463.589,118.767c-6.953,0-12.642-5.602-12.642-12.449V93.541
						c0-6.847,5.688-12.449,12.642-12.449l0,0c6.952,0,12.642,5.602,12.642,12.449v12.777
						C476.23,113.165,470.541,118.767,463.589,118.767z"/>
					<path fill="#FCB4D2" d="M453.276,99.929c0,0-3.992-4.095-8.317-1.474c-4.323,2.621,0.334,9.828,8.317,10.811
						S453.276,99.929,453.276,99.929z"/>
					<path fill="#FCB4D2" d="M474.352,99.929c0,0,3.992-4.095,8.316-1.474c4.324,2.621-0.333,9.828-8.316,10.811
						C466.367,110.249,474.352,99.929,474.352,99.929z"/>
				</g>
			</g>
			<path fill="#FF5D00" d="M450.067,91.788c0.093,0,8.784,0.585,14.187-3.673c1.34-1.056,3.332-0.65,4.231,0.788
				c1.964,3.135,5.22,7.241,8.477,6.521c5.168-1.142-2.953-19.317-17.295-15.371C445.324,83.999,450.067,91.788,450.067,91.788z"/>
			<path fill="#C9DFFF" d="M504.749,139.361c-3.121-4.99-10.06-8.178-16.842-10.186c0.499,0.455,0.775,1.117,0.731,1.805
				l-2.098,32.212c3.981,6.674,7.87,14.022,7.311,17.026c-0.552,2.959-5.287,10.234-9.476,16.234
				c-3.484,4.992-6.591,9.102-6.591,9.102c5.393,3.983,7.527,9.641,7.527,9.641s3.623-1.92,8.49-4.985
				c5.525-3.479,12.655-8.434,17.911-13.728C521.601,186.525,511.826,150.677,504.749,139.361z"/>
			<path fill="#C9DFFF" d="M447.153,206.223L447.153,206.223c0,0-4.159-3.937-6.308-5.978c0.012,0.005,0.025,0.009,0.037,0.014
				c0,0-1.717-1.626-1.717-1.623c0.001,0.006,0.005,0.011,0.006,0.016c-1.142-1.085-2.267-2.159-3.358-3.201
				c-3.084-2.948-5.879-5.641-7.842-7.574c0,0-1.173-2.151,1.025-6.059c1.259-2.238,3.882-6.278,7.048-9.633
				c0.94-20.787-1.808-36.211-1.12-41.422c-7.794,3.716-9.577,6.487-11.226,8.598c-1.879,2.407-22.556,42.458-15.55,54.238
				c4.007,6.738,8.794,13.419,16.79,19.291c5.984,4.394,13.764,4.254,24.376,7.423c0,0,2.127-8.246,7.649-8.919
				C456.965,211.395,452.626,211.398,447.153,206.223z"/>
			<path fill="#B6D7FF" d="M408.321,176.099c-1.836,7.265-2.38,13.788-0.172,17.5c2.089,3.512,4.404,7.007,7.261,10.382
				C424.234,193.308,412.755,180.41,408.321,176.099z"/>
			<path fill="#B6D7FF" d="M515.402,173.852c-4.96,3.103-13.385,10.998-8.909,27.322c1.846-1.514,3.624-3.083,5.221-4.691
				C515.883,192.284,516.549,183.478,515.402,173.852z"/>
			<path fill="#B6D7FF" d="M496.288,174.611c-0.146-4.247-4.094-5.777-5.117-11.419c-0.66-3.638-2.761-5.882-4.173-7.022
				l-0.457,7.022c3.981,6.674,7.87,14.022,7.311,17.026C493.852,180.218,496.435,178.857,496.288,174.611z"/>
			<path fill="#B6D7FF" d="M428.997,181.819c1.259-2.238,3.882-6.278,7.048-9.633c0.228-5.016,0.236-9.711,0.134-14.034
				c-1.912,2.303-4.203,5.974-5.534,11.062c-2.484,9.502-6.287,9.934-5.701,12.814c0.465,2.286,0.477,3.485,2.799,5.106
				C427.564,186.196,427.55,184.391,428.997,181.819z"/>
			<path fill="#B6D7FF" d="M453.46,128.895c-0.075,0.252-0.154,0.522-0.073,0.773c0.086,0.266,0.332,0.445,0.569,0.599
				c4.697,3.046,10.734,2.931,16.354,2.707c0.857-0.034,1.852-0.143,2.305-0.859c0.244-0.384,0.269-0.859,0.285-1.311
				c0.1-2.6,0.198-5.2,0.297-7.8c0.021-0.547,0.032-1.132-0.267-1.594c-0.521-0.802-1.745-0.837-2.613-0.417
				c-0.867,0.421-1.52,1.167-2.303,1.725c-1.229,0.877-2.985,1.247-4.258,0.433c-0.771-0.493-1.252-1.34-2.02-1.837
				c-1.229-0.795-2.531-0.392-3.875-0.497c-0.924-0.072-2.185-0.93-2.852-0.565C453.647,121,453.91,127.384,453.46,128.895z"/>
		</g>
		<path fill="#C9DFFF" d="M419.183,148.403"/>
		<g>
			<path fill="#FFFFFF" d="M504.269,171.078l-8.958-8.16c0,0-21.051-0.22-33.143,9.263c0,0-7.639-7.814-20.244-7.814
				s-12.605,0-12.605,0l-7.749,5.291l0.413,7.021l79.471,6.309L504.269,171.078z"/>
			<path fill="#E6E6E6" d="M421.569,169.658l0.413,7.021h32.663l-1.391-1.973C453.255,174.707,455.937,170.557,421.569,169.658z"/>
			<polygon fill="#6478FF" points="459.329,215.418 458.566,215.394 420.53,214.014 419.726,203.272 418.789,190.685 
				417.355,171.527 421.682,171.666 450.585,172.613 450.593,172.613 456.767,172.817 457.165,179.469 			"/>
			<polygon fill="#6478FF" points="507.584,212.724 469.299,218.014 468.089,180.335 467.957,176.343 504.269,171.086 
				506.018,170.833 506.474,182.988 506.93,195.321 			"/>
			<path fill="#415BD8" d="M456.766,172.82c5.518,4.417,11.193,3.527,11.193,3.527l1.343,41.666
				c-7.877,0.792-10.731-2.594-10.731-2.594L456.766,172.82z"/>
		</g>
		<path fill="#FCB4D2" d="M508.199,199.206c0.041,1.101-0.439,2.171-1.332,2.833c-0.426,0.316-0.853,0.729-1.276,1.273
			c-2.669,3.412-10.377-3.526-13.245-5.803c-2.859-2.286,1.244-6.367,4.824-8.302c0.456-0.245,0.896-0.44,1.302-0.588
			c1.724-0.645,3.075-0.498,4.45-0.179c0.846,0.196,1.707,0.465,2.669,0.653c0.067,0.013,0.133,0.025,0.196,0.036
			c1.196,0.198,2.083,1.188,2.128,2.381L508.199,199.206z"/>
		<path fill="#FCB4D2" d="M435.292,206.27c-2.859,2.286-10.576,9.224-13.245,5.812c-0.603-0.771-1.212-1.279-1.813-1.622
			c-0.939-0.535-1.507-1.535-1.599-2.6c-0.17-1.991-0.423-5.065-0.585-7.522c-0.093-1.411,1.13-2.536,2.558-2.394
			c0.424,0.042,0.902,0.025,1.438-0.082c2.876-0.571,4.841-1.828,8.422,0.106C434.049,199.911,438.151,203.984,435.292,206.27z"/>
		<g>
			<path fill="#022B66" d="M537.469,225.943c-0.771-1.963-1.729-3.913-3.263-5.379c-3.482-3.331-8.936-3.391-13.772-2.984
				c-6.391,0.536-12.735,1.519-19.027,2.742c-2.344,0.455-4.726,0.946-7.102,0.707c-1.51-0.152-1.812-6.429-1.812-6.429
				l-60.894,2.911c0,0,0.485,2.078,0,2.47c-3.839,3.107-9.764-1.829-14.669-2.62c-3.414-0.551-6.887-1.063-10.319-0.645
				c-3.434,0.418-6.876,1.889-8.934,4.628c-2.057,2.738-2.676,7.561-2.048,10.909c1.629,8.673,12.188,16.953,20.573,20.049
				c61.031,22.54,81.91-12.778,96.451-13.691c7.179-0.451,14.615-0.743,21.059-3.89c1.999-0.977,4.025-2.44,4.457-4.594
				C538.452,228.72,537.993,227.279,537.469,225.943z"/>
			<g>
				<g>
					<path fill="none" stroke="#FFB000" stroke-width="0.4575" stroke-linejoin="round" d="M434.813,221.29
						c0.297-0.067,0.595-0.131,0.893-0.191"/>
					<path fill="none" stroke="#FFB000" stroke-width="0.4575" stroke-linejoin="round" stroke-dasharray="1.7842,1.7842" d="
						M437.462,220.786c12.125-1.892,24.747,1.553,37.02,0.09c5.144-0.613,10.503-2.061,15.433-0.863"/>
					<path fill="none" stroke="#FFB000" stroke-width="0.4575" stroke-linejoin="round" d="M490.774,220.251
						c0.29,0.09,0.578,0.19,0.864,0.301"/>
				</g>
			</g>
			
				<path fill="none" stroke="#FFB000" stroke-width="0.4575" stroke-linejoin="round" stroke-miterlimit="10" stroke-dasharray="1.83" d="
				M463.682,221.542c0.375,6.496,0.412,13.011,0.111,19.51"/>
		</g>
		<g>
			<path fill="#00368B" d="M534.211,220.759c-5.663-5.168-18.668-0.526-25.658,2.704c-6.596,3.048-12.955,6.564-19.309,10.077
				l-44.861,22.164c0,0,1.918,14.797,4.794,16.371c2.878,1.574,78.32-24.241,78.32-24.241S552.004,237,534.211,220.759z"/>
			
				<path fill="none" stroke="#FFB000" stroke-width="0.4575" stroke-linejoin="round" stroke-miterlimit="10" stroke-dasharray="1.83" d="
				M449.896,270.346c26.763-8.287,51.809-16.071,77.938-26.129c2.563-0.986,5.148-2.006,7.361-3.616
				c2.211-1.61,4.042-3.899,4.507-6.568"/>
			<path fill="none" d="M473.47,232.254c4.354,3.747,8.708,7.495,13.063,11.242c1.753,1.509,3.557,3.048,5.736,3.854
				c1.871,0.693,3.914,0.801,5.911,0.714c6.243-0.268,12.256-2.342,18.448-3.176c6.191-0.833,13.129-0.169,17.608,4.123"/>
			<path opacity="0.37" fill="#022B66" d="M516.628,244.646c-6.192,0.833-12.205,2.907-18.448,3.176
				c-1.997,0.085-4.04-0.022-5.911-0.714c-2.18-0.806-3.984-2.346-5.736-3.854c-2.12-1.825-4.24-3.649-6.36-5.474l-35.789,17.683
				c0,0,1.918,14.797,4.794,16.37c2.878,1.574,78.32-24.241,78.32-24.241s1.155-0.51,2.781-1.476
				C526.182,244.237,521.202,244.03,516.628,244.646z"/>
		</g>
		<g>
			<path fill="#FCB4D2" d="M491.8,254.922c-0.768-0.244-1.556-0.389-2.381-0.359c-2.523,0.088-4.717,1.834-6.129,3.896
				c-1.354,1.978-2.172,4.374-1.939,6.748c0.571,5.8,5.913,6.64,11.082,6.639c0.728-2.138,1.218-4.346,1.368-6.597
				C494.038,261.713,493.402,258.072,491.8,254.922z"/>
			<g>
				<path fill="#D38C0D" d="M527.099,264.625c-1.641-3.195-4.964-5.321-8.475-6.248c-3.512-0.927-7.221-0.789-10.835-0.404
					c-3.215,0.341-6.549,0.859-9.615-0.148c-2.207-0.724-4.21-2.214-6.374-2.902c1.603,3.15,2.238,6.791,2.001,10.326
					c-0.15,2.251-0.641,4.459-1.368,6.597c2.216-0.001,4.4-0.156,6.163-0.143c7.526,0.059,14.957,2.909,22.423,1.974
					c2.629-0.329,5.498-1.386,6.542-3.784C528.289,268.219,527.932,266.249,527.099,264.625z"/>
				<path fill="#FFB000" d="M527.099,264.625c-1.641-3.195-4.964-5.321-8.475-6.248c-2.678-0.707-5.47-0.793-8.247-0.623
					c-1.156,5.293-0.258,10.984,2.369,15.738c2.758,0.355,5.513,0.529,8.272,0.184c2.629-0.329,5.498-1.386,6.542-3.784
					C528.289,268.219,527.932,266.249,527.099,264.625z"/>
			</g>
		</g>
		<g>
			<g>
				<path fill="#00368B" d="M401.444,219.573c5.662-5.168,18.667-0.527,25.656,2.703c6.597,3.048,12.956,6.564,19.31,10.078
					l42.599,20.812c0,0-2.329,15.857-5.206,17.432c-2.876,1.573-75.646-23.95-75.646-23.95S383.65,235.813,401.444,219.573z"/>
			</g>
			
				<path fill="none" stroke="#FFB000" stroke-width="0.4575" stroke-linejoin="round" stroke-miterlimit="10" stroke-dasharray="1.83" d="
				M395.259,228.904c2.422,4.589,4.931,9.288,8.862,12.717c4.551,3.97,10.55,5.846,16.356,7.62
				c7.348,2.243,14.694,4.486,22.042,6.729l39.908,12.606"/>
		</g>
	</g>
</g>
<g id="DESIGNED_BY_FREEPIK">
</g>
</svg>
