<?xml version="1.0" encoding="utf-8"?>
<!-- Generator: Adobe Illustrator 16.0.0, SVG Export Plug-In . SVG Version: 6.00 Build 0)  -->
<!DOCTYPE svg PUBLIC "-//W3C//DTD SVG 1.1//EN" "http://www.w3.org/Graphics/SVG/1.1/DTD/svg11.dtd">
<svg version="1.1" id="Capa_1" xmlns="http://www.w3.org/2000/svg" xmlns:xlink="http://www.w3.org/1999/xlink" x="0px" y="0px"
	 width="400px" height="400px" viewBox="0 0 400 400" enable-background="new 0 0 400 400" xml:space="preserve">
<g>
	<rect x="82" y="271.656" fill="#ECEBEB" width="235.857" height="0.107"/>
	<rect x="267.434" y="278.6" fill="#ECEBEB" width="7.813" height="0.106"/>
	<rect x="237.285" y="277.044" fill="#ECEBEB" width="17.834" height="0.106"/>
	<rect x="207.005" y="274.571" fill="#ECEBEB" width="32.587" height="0.106"/>
	<rect x="106.746" y="275.29" fill="#ECEBEB" width="5.987" height="0.106"/>
	<rect x="116.934" y="275.29" fill="#ECEBEB" width="17.374" height="0.106"/>
	<rect x="153.858" y="277.098" fill="#ECEBEB" width="28.081" height="0.106"/>
	<path fill="#ECEBEB" d="M193.803,252.57h-91.088c-1.484,0-2.692-1.097-2.692-2.443V133.961c0-1.347,1.208-2.443,2.692-2.443h91.088
		c1.484,0,2.692,1.096,2.692,2.443v116.166C196.495,251.474,195.288,252.57,193.803,252.57z M102.715,131.625
		c-1.419,0-2.575,1.048-2.575,2.336v116.166c0,1.288,1.155,2.336,2.575,2.336h91.088c1.419,0,2.574-1.048,2.574-2.336V133.961
		c0-1.289-1.154-2.336-2.574-2.336H102.715z"/>
	<path fill="#ECEBEB" d="M295.834,252.57h-91.088c-1.484,0-2.692-1.097-2.692-2.443V133.961c0-1.347,1.208-2.443,2.692-2.443h91.088
		c1.484,0,2.692,1.096,2.692,2.443v116.166C298.526,251.474,297.318,252.57,295.834,252.57z M204.746,131.625
		c-1.419,0-2.574,1.048-2.574,2.336v116.166c0,1.288,1.155,2.336,2.574,2.336h91.088c1.42,0,2.574-1.048,2.574-2.336V133.961
		c0-1.289-1.154-2.336-2.574-2.336H204.746z"/>
</g>
<g>
	<g>
		<rect x="192.336" y="108" fill="#F5F5F5" width="10.168" height="163.656"/>
		<rect x="202.505" y="108" fill="#E0E0E0" width="1.427" height="163.656"/>
	</g>
	<g>
		<path fill="#E7E6E5" d="M147.647,255.174H94.029l0,0c0-2.994,2.675-5.422,5.975-5.422h47.644V255.174z"/>
		<path fill="#E0E0E0" d="M151.578,255.174H128.15l0,0c0-2.994,2.675-5.422,5.975-5.422h17.453V255.174z"/>
	</g>
	<g>
		<path fill="#E7E6E5" d="M185.111,255.174h-53.619l0,0c0-2.994,2.676-5.422,5.976-5.422h47.643V255.174z"/>
		<path fill="#E0E0E0" d="M189.042,255.174h-23.429l0,0c0-2.994,2.675-5.422,5.976-5.422h17.453V255.174z"/>
	</g>
	<g>
		<path fill="#E7E6E5" d="M261.232,255.174h-53.619l0,0c0-2.994,2.675-5.422,5.975-5.422h47.645V255.174z"/>
		<path fill="#E0E0E0" d="M265.162,255.174h-23.428l0,0c0-2.994,2.675-5.422,5.975-5.422h17.453V255.174z"/>
	</g>
	<g>
		<polygon fill="#ECEBEB" points="284.092,238.246 260.346,238.246 263.689,271.656 280.75,271.656 		"/>
		<g>
			<path fill="#ECEBEB" d="M271.983,243.816c-0.436-13.82,3.13-42.44,9.498-54.083l0.423,0.19
				c-6.115,11.179-9.889,39.944-9.449,53.881L271.983,243.816z"/>
			<g>
				<path fill="#ECEBEB" d="M274.341,216.602c0,0-1.558-13.381-7.323-17.487C263.926,207.563,270.256,210.477,274.341,216.602z"/>
				<path fill="#ECEBEB" d="M274.341,216.816c-0.081,0-0.158-0.039-0.202-0.104c-1.063-1.595-2.275-2.965-3.447-4.291
					c-3.338-3.772-6.22-7.031-3.898-13.375c0.024-0.066,0.083-0.118,0.156-0.137c0.073-0.02,0.154-0.007,0.214,0.037
					c5.777,4.114,7.349,17.083,7.412,17.632c0.012,0.101-0.055,0.193-0.159,0.226C274.392,216.813,274.366,216.816,274.341,216.816z
					 M267.136,199.48c-2.044,5.928,0.726,9.059,3.923,12.674c0.979,1.105,1.984,2.242,2.912,3.518
					C273.494,212.61,271.676,203.023,267.136,199.48z"/>
			</g>
			<g>
				<path fill="#ECEBEB" d="M275.198,211.533c0,0,6.116-12.373,13.036-14.566C288.147,205.869,281.248,206.936,275.198,211.533z"/>
				<path fill="#ECEBEB" d="M275.198,211.747c-0.05,0-0.101-0.015-0.142-0.044c-0.088-0.06-0.118-0.167-0.073-0.258
					c0.251-0.509,6.237-12.482,13.173-14.68c0.072-0.023,0.152-0.013,0.215,0.028c0.063,0.041,0.1,0.106,0.099,0.176
					c-0.065,6.757-3.974,9.066-8.498,11.739c-1.522,0.899-3.098,1.831-4.622,2.989C275.306,211.73,275.252,211.747,275.198,211.747z
					 M287.992,197.278c-5.574,2.031-10.643,10.735-12.137,13.498c1.287-0.907,2.591-1.678,3.859-2.427
					C284.055,205.785,287.812,203.566,287.992,197.278z"/>
			</g>
			<g>
				<path fill="#ECEBEB" d="M272.355,235.438c0,0-2.363-18.618-9.521-23.532C259.25,222.311,267.209,228.019,272.355,235.438z"/>
				<path fill="#ECEBEB" d="M272.355,235.7c-0.097,0-0.19-0.044-0.244-0.122c-1.1-1.586-2.348-3.114-3.553-4.593
					c-4.555-5.585-8.857-10.861-5.999-19.157c0.028-0.082,0.099-0.146,0.188-0.172c0.091-0.025,0.188-0.011,0.263,0.041
					c7.173,4.925,9.535,22.947,9.633,23.711c0.016,0.122-0.064,0.236-0.191,0.277C272.42,235.695,272.388,235.7,272.355,235.7z
					 M262.988,212.352c-2.52,7.833,1.639,12.931,6.035,18.322c0.963,1.181,1.952,2.393,2.875,3.646
					C271.256,230.275,268.714,216.719,262.988,212.352z"/>
			</g>
			<g>
				<path fill="#ECEBEB" d="M273.18,225.4c0,0,7.98-13.26,16.4-16.08C289.688,220.221,280.477,219.652,273.18,225.4z"/>
				<path fill="#ECEBEB" d="M273.18,225.663c-0.063,0-0.127-0.02-0.181-0.058c-0.108-0.08-0.14-0.219-0.072-0.33
					c0.328-0.545,8.129-13.379,16.554-16.201c0.088-0.029,0.188-0.019,0.264,0.03c0.078,0.048,0.125,0.128,0.125,0.214
					c0.075,7.656-4.362,9.777-9.5,12.236c-2.334,1.115-4.746,2.27-7,4.044C273.315,225.642,273.248,225.663,273.18,225.663z
					 M289.291,209.703c-6.582,2.466-12.912,11.328-15.074,14.6c1.934-1.324,3.936-2.281,5.883-3.213
					C284.983,218.754,289.213,216.731,289.291,209.703z"/>
			</g>
			<g>
				<path fill="#ECEBEB" d="M276.939,203.066c0,0-1.088-9.334-5.109-12.199C269.673,196.762,274.09,198.793,276.939,203.066z"/>
				<path fill="#ECEBEB" d="M276.939,203.216c-0.057,0-0.111-0.026-0.141-0.071c-0.742-1.113-1.588-2.068-2.406-2.994
					c-2.328-2.632-4.339-4.905-2.719-9.33c0.017-0.046,0.057-0.082,0.108-0.096s0.107-0.004,0.149,0.025
					c4.03,2.871,5.126,11.918,5.171,12.301c0.009,0.07-0.038,0.135-0.111,0.158C276.975,203.213,276.957,203.216,276.939,203.216z
					 M271.912,191.123c-1.425,4.135,0.506,6.32,2.737,8.842c0.683,0.771,1.384,1.563,2.031,2.454
					C276.349,200.283,275.079,193.594,271.912,191.123z"/>
			</g>
			<g>
				<path fill="#ECEBEB" d="M278.811,196.781c0,0,4.267-8.631,9.094-10.161C287.844,192.83,283.03,193.574,278.811,196.781z"/>
				<path fill="#ECEBEB" d="M278.811,196.93c-0.035,0-0.07-0.01-0.1-0.03c-0.061-0.042-0.082-0.117-0.051-0.18
					c0.176-0.354,4.352-8.708,9.189-10.241c0.051-0.016,0.106-0.009,0.15,0.02c0.043,0.028,0.068,0.074,0.068,0.123
					c-0.046,4.714-2.771,6.324-5.928,8.189c-1.063,0.628-2.162,1.277-3.225,2.085C278.885,196.918,278.848,196.93,278.811,196.93z
					 M287.735,186.836c-3.89,1.417-7.425,7.49-8.467,9.417c0.897-0.633,1.808-1.171,2.692-1.693
					C284.988,192.771,287.609,191.223,287.735,186.836z"/>
			</g>
		</g>
	</g>
	<path fill="#F5F5F5" d="M155.606,191.318c-4.484-0.286-6.424,0.19-8.363-3.472s-8.702-5.622-10.903-2.431s-2.988,5.412-8.072,3.517
		c-5.085-1.895-6.762-0.516-7.497,2.005c-0.733,2.521-12.37,1.305-8.963,4.909h43.087
		C154.896,195.846,160.091,191.603,155.606,191.318z"/>
	<path fill="#F5F5F5" d="M288.989,171.754c-2.537-0.161-3.635,0.108-4.731-1.964c-1.098-2.072-4.924-3.181-6.169-1.375
		c-1.245,1.805-1.69,3.062-4.567,1.99c-2.877-1.072-3.826-0.292-4.241,1.135c-0.415,1.426-6.999,0.738-5.071,2.777h24.378
		C288.587,174.316,291.527,171.916,288.989,171.754z"/>
	<path fill="#F5F5F5" d="M258.618,121.574c-1.259-1.855-4.856-2.474-8.075-1.03c-3.22,1.443-1.026-7.598-7.045-6.083
		c-8.598,2.165-6.203,8.634-9.785,8.041c-3.582-0.593-14.082,0.997-8.53,4.227h31.771
		C256.954,126.729,259.877,123.431,258.618,121.574z"/>
</g>
<ellipse id="_x3C_Path_x3E__175_" fill="#F5F5F5" cx="199.929" cy="286.139" rx="91.46" ry="4.847"/>
<g>
	<rect x="120.428" y="108" fill="#4868A9" width="0.815" height="53.721"/>
	<rect x="168.364" y="108" fill="#4868A9" width="0.816" height="53.721"/>
	<g>
		<g>
			<g>
				<rect x="111.15" y="141.72" fill="#4868A9" width="67.307" height="13.892"/>
				<rect x="111.15" y="141.72" opacity="0.3" fill="#FFFFFF" width="67.307" height="13.892"/>
			</g>
			<polygon fill="#FFFFFF" points="119.404,147.619 117.735,146.106 115.43,146.106 117.438,147.927 113.395,147.927 
				113.395,149.405 117.439,149.405 115.43,151.225 117.735,151.225 119.404,149.711 120.555,148.663 			"/>
			<rect x="150.404" y="146.637" opacity="0.7" fill="#4868A9" width="24.194" height="4.058"/>
			<rect x="136.382" y="146.637" opacity="0.7" fill="#4868A9" width="10.362" height="4.058"/>
			<g>
				<rect x="123.447" y="144.526" fill="#FFFFFF" width="9.127" height="8.28"/>
				<g>
					<path fill="#253137" d="M131.542,146.638l-0.228-0.001c-0.029,0-0.057,0.001-0.085,0.002c-0.002,0-0.004,0-0.007,0h-0.001
						c-0.188,0.011-0.372,0.056-0.542,0.133l-1.411,0.643l-2.654-0.401c-0.225-0.026-0.452,0.008-0.656,0.097l-0.253,0.11
						l1.73,1.097l-1.608,0.686l-1.064-0.279l-0.474,0.207l1.247,0.857l2.62-1.144l1.503-0.656l1.492-0.651
						c0.112-0.049,0.216-0.112,0.31-0.185c0.006-0.005,0.012-0.01,0.018-0.015c0,0,0,0,0,0c0.083-0.067,0.158-0.144,0.222-0.228
						C131.789,146.795,131.697,146.638,131.542,146.638z"/>
					<rect x="124.071" y="151.121" fill="#253137" width="7.878" height="0.695"/>
				</g>
			</g>
		</g>
		<g>
			<g>
				<rect x="111.15" y="159.741" fill="#4868A9" width="67.307" height="13.892"/>
				<rect x="111.15" y="159.741" opacity="0.3" fill="#FFFFFF" width="67.307" height="13.892"/>
			</g>
			<polygon fill="#FFFFFF" points="114.545,165.641 116.213,164.127 118.52,164.127 116.512,165.948 120.555,165.948 
				120.555,167.426 116.51,167.426 118.52,169.246 116.213,169.246 114.545,167.733 113.395,166.684 			"/>
			<rect x="150.404" y="164.658" opacity="0.7" fill="#4868A9" width="24.194" height="4.058"/>
			<rect x="136.382" y="164.658" opacity="0.7" fill="#4868A9" width="10.362" height="4.058"/>
			<g>
				<rect x="123.447" y="162.547" fill="#FFFFFF" width="9.127" height="8.28"/>
				<g>
					<path fill="#253137" d="M131.542,164.659l-0.228,0c-0.029,0-0.057,0.001-0.085,0.002c-0.002,0-0.004,0-0.007,0l-0.001,0
						c-0.188,0.011-0.372,0.056-0.542,0.133l-1.411,0.642l-2.654-0.401c-0.225-0.026-0.452,0.007-0.656,0.097l-0.253,0.11
						l1.73,1.097l-1.608,0.686l-1.064-0.278l-0.474,0.207l1.247,0.857l2.62-1.143l1.503-0.656l1.492-0.651
						c0.112-0.049,0.216-0.111,0.31-0.185c0.006-0.005,0.012-0.009,0.018-0.014c0,0,0,0,0,0c0.083-0.068,0.158-0.144,0.222-0.228
						C131.789,164.817,131.697,164.659,131.542,164.659z"/>
					<rect x="124.071" y="169.142" fill="#253137" width="7.878" height="0.695"/>
				</g>
			</g>
		</g>
	</g>
</g>
<g>
	<g>
		<polygon fill="#4868A9" points="236.27,155.303 232.434,153.223 234.666,152.826 240.609,153.896 		"/>
		<polygon opacity="0.3" fill="#253137" points="236.27,155.303 232.434,153.223 234.666,152.826 240.609,153.896 		"/>
	</g>
	<g>
		<path fill="#4868A9" d="M262.801,148.929l-4.668-5.315l1.727-0.307c1.4-0.249,2.852-0.125,4.176,0.358l9.027,3.284
			L262.801,148.929z"/>
		<path opacity="0.3" fill="#253137" d="M262.801,148.929l-4.668-5.315l1.727-0.307c1.4-0.249,2.852-0.125,4.176,0.358l9.027,3.284
			L262.801,148.929z"/>
	</g>
	<path fill="#4868A9" d="M287.264,145.116l-1.386-0.331c-1.343-0.321-2.751-0.352-4.109-0.089l-45.685,9.4l-0.434,1.787l1.783,1.153
		l46.223-8.211c1.514-0.269,2.925-0.892,4.093-1.806C288.49,146.438,288.21,145.342,287.264,145.116z"/>
	<polygon fill="#4868A9" points="239.381,162.197 239.329,161.977 259.328,158.112 259.379,158.332 	"/>
	<polygon fill="#4868A9" points="243.76,149.2 243.709,148.98 256.744,146.46 256.795,146.68 	"/>
	<polygon fill="#4868A9" points="230.287,163.955 230.234,163.735 235.594,162.699 235.645,162.919 	"/>
	<path opacity="0.3" fill="#253137" d="M282.51,148.123l-45.152,8.726c-0.211,0.041-0.407,0.109-0.586,0.206
		c0.216,0.026,0.438,0.021,0.663-0.02l46.22-8.211c0.758-0.135,1.49-0.357,2.178-0.661c0.056-0.025,0.114-0.051,0.17-0.076
		C284.85,147.888,283.662,147.899,282.51,148.123z"/>
	<polygon fill="#4868A9" points="235.65,155.883 234.49,160.329 236.723,159.933 240.786,155.118 	"/>
	<polygon fill="#4868A9" points="236.084,154.096 233.373,149.65 235.457,149.28 241.457,153.142 	"/>
	<path fill="#4868A9" d="M263.207,150.806l-0.752,12.831l0,0c2.14-0.38,3.986-1.598,5.046-3.328l7.052-11.519L263.207,150.806z"/>
	<g opacity="0.5">
		<g>
			<polygon fill="#FFFFFF" points="251.47,152.359 250.899,152.465 251.113,153.41 251.684,153.304 			"/>
			<polygon fill="#FFFFFF" points="252.621,152.145 252.051,152.251 252.265,153.196 252.835,153.09 			"/>
			<polygon fill="#FFFFFF" points="253.773,151.931 253.203,152.037 253.416,152.981 253.986,152.875 			"/>
			<polygon fill="#FFFFFF" points="254.925,151.716 254.354,151.822 254.568,152.768 255.139,152.661 			"/>
			<polygon fill="#FFFFFF" points="256.076,151.502 255.506,151.608 255.72,152.553 256.29,152.447 			"/>
			<polygon fill="#FFFFFF" points="257.229,151.288 256.658,151.394 256.871,152.339 257.441,152.233 			"/>
			<polygon fill="#FFFFFF" points="258.38,151.074 257.81,151.18 258.023,152.125 258.594,152.019 			"/>
			<polygon fill="#FFFFFF" points="259.532,150.859 258.961,150.966 259.175,151.911 259.745,151.804 			"/>
			<polygon fill="#FFFFFF" points="260.684,150.645 260.113,150.751 260.326,151.696 260.896,151.59 			"/>
			<polygon fill="#FFFFFF" points="261.835,150.431 261.265,150.537 261.479,151.482 262.049,151.376 			"/>
			<polygon fill="#FFFFFF" points="262.986,150.217 262.416,150.323 262.63,151.268 263.201,151.162 			"/>
			<polygon fill="#FFFFFF" points="264.139,150.002 263.568,150.109 263.781,151.054 264.353,150.947 			"/>
			<polygon fill="#FFFFFF" points="265.29,149.788 264.721,149.895 264.934,150.839 265.504,150.733 			"/>
			<polygon fill="#FFFFFF" points="266.442,149.574 265.871,149.68 266.085,150.625 266.655,150.519 			"/>
			<polygon fill="#FFFFFF" points="267.594,149.36 267.023,149.466 267.236,150.411 267.808,150.305 			"/>
			<polygon fill="#FFFFFF" points="268.746,149.146 268.175,149.252 268.389,150.197 268.959,150.091 			"/>
			<polygon fill="#FFFFFF" points="269.896,148.932 269.326,149.038 269.54,149.982 270.111,149.876 			"/>
			<polygon fill="#FFFFFF" points="271.049,148.717 270.479,148.823 270.691,149.768 271.263,149.662 			"/>
			<polygon fill="#FFFFFF" points="272.201,148.503 271.63,148.609 271.844,149.554 272.414,149.448 			"/>
			<polygon fill="#FFFFFF" points="273.353,148.289 272.782,148.395 272.996,149.34 273.566,149.234 			"/>
			<polygon fill="#FFFFFF" points="274.504,148.075 273.934,148.181 274.146,149.125 274.718,149.02 			"/>
			<polygon fill="#FFFFFF" points="275.656,147.86 275.085,147.966 275.299,148.912 275.869,148.805 			"/>
		</g>
	</g>
	<path opacity="0.5" fill="#FFFFFF" d="M287.264,145.117l-1.388-0.332c-0.186-0.044-0.374-0.084-0.564-0.118l-2.045,0.363
		c-0.284,0.05-0.471,0.302-0.415,0.56c0.056,0.258,0.334,0.431,0.617,0.38l4.113-0.731
		C287.485,145.185,287.382,145.146,287.264,145.117z"/>
</g>
<g>
	<g>
		<path fill="#253137" d="M213.16,165.73c5.769,11.312,19.909,17.466,5.168,23.717c-14.741,6.251-16.197-10.872-15.768-16.088
			C202.99,168.143,210.043,159.618,213.16,165.73z"/>
		<path fill="#253137" d="M224.145,181.809c-0.008,0-0.017,0-0.025-0.002c-0.064-0.013-0.105-0.071-0.092-0.129
			c0.763-3.253-1.91-5.66-5.005-8.448c-2.307-2.078-4.921-4.433-6.3-7.458c-0.678-1.483-1.59-2.127-2.712-1.917
			c-3.015,0.565-6.405,6.845-6.343,10.515c0,0.06-0.053,0.11-0.118,0.111c-0.068-0.003-0.121-0.047-0.122-0.107
			c-0.064-3.742,3.43-10.15,6.534-10.732c0.86-0.162,2.077,0.063,2.982,2.048c1.361,2.985,3.957,5.323,6.247,7.386
			c3.145,2.833,5.861,5.278,5.07,8.648C224.25,181.774,224.2,181.809,224.145,181.809z"/>
		<path fill="#253137" d="M201.979,169.654c1.451,0.893,3.941-2.546,5.138-7.047c-2.994-2.239-4.814-1.892-6.013,0.067
			C199.706,164.958,200.318,168.633,201.979,169.654z"/>
		<g>
			<path fill="#4868A9" d="M197.018,240.542c0,0,20.243-3.741,34.984-0.608c-4.326-5.881-22.671-31.935-22.671-31.935l-8.72,9.408
				L197.018,240.542z"/>
			<path opacity="0.2" fill="#010002" d="M197.018,240.542c0,0,20.243-3.741,34.984-0.608c-4.326-5.881-22.671-31.935-22.671-31.935
				l-8.72,9.408L197.018,240.542z"/>
		</g>
		<path fill="#4868A9" d="M203.318,183.895c-0.314,1.256-0.668,2.396-1.069,3.577c-0.399,1.169-0.839,2.331-1.331,3.486
			c-0.495,1.155-1.024,2.308-1.652,3.453c-0.624,1.148-1.307,2.292-2.215,3.438c-0.11,0.143-0.227,0.287-0.352,0.431
			c-0.125,0.146-0.225,0.271-0.423,0.475c-0.178,0.189-0.357,0.363-0.535,0.51c-0.18,0.161-0.359,0.301-0.537,0.429
			c-0.716,0.525-1.424,0.894-2.114,1.22c-1.379,0.649-2.732,1.054-4.074,1.415c-1.346,0.342-2.68,0.609-4.02,0.808
			c-1.347,0.2-2.659,0.346-4.054,0.407l-0.63-2.969c2.332-0.816,4.735-1.649,6.905-2.608c1.084-0.47,2.13-0.99,2.993-1.53
			c0.428-0.269,0.804-0.557,1.066-0.807c0.071-0.063,0.129-0.122,0.171-0.176c0.057-0.057,0.089-0.106,0.113-0.147l0.162-0.231
			c0.066-0.093,0.132-0.193,0.197-0.299c0.521-0.821,1.01-1.787,1.459-2.782c0.443-1.001,0.866-2.04,1.255-3.1
			c0.393-1.059,0.765-2.135,1.122-3.218c0.353-1.072,0.709-2.198,1.025-3.226L203.318,183.895z"/>
		<path fill="#E5BABA" d="M181.058,200.992l-3.809,0.18l2.16,3.543c0,0,2.437-0.787,3.035-2.96L181.058,200.992z"/>
		<polygon fill="#E5BABA" points="174.441,203.434 177.523,205.632 179.409,204.715 177.249,201.172 		"/>
		<polygon fill="#E5BABA" points="212.536,282.908 208.271,283.274 207.393,274.367 211.657,274.001 		"/>
		<polygon fill="#E5BABA" points="245.963,269.74 242.865,272.379 236.178,265.711 239.275,263.072 		"/>
		<path fill="#253137" d="M242.017,271.693l2.327-3.805c0.085-0.139,0.26-0.198,0.421-0.143l3.584,1.237
			c0.372,0.129,0.533,0.562,0.331,0.878c-0.836,1.314-1.313,1.91-2.337,3.584c-0.63,1.029-1.856,3.391-2.727,4.813
			c-0.851,1.391-2.466,0.717-2.243,0.055c0.994-2.972,0.807-4.625,0.525-5.938C241.849,272.139,241.893,271.896,242.017,271.693z"/>
		<path fill="#253137" d="M207.704,282.118h5.065c0.185,0,0.351,0.116,0.4,0.279l1.102,3.636c0.114,0.377-0.191,0.725-0.618,0.728
			c-1.785,0.015-2.631,0.008-4.858,0.008c-1.371,0-4.917,0-6.809,0c-1.852,0-2.239-1.698-1.473-1.851
			c3.434-0.69,5.414-1.642,6.473-2.549C207.178,282.205,207.435,282.118,207.704,282.118z"/>
		<polygon opacity="0.2" fill="#010002" points="207.394,274.369 207.846,278.961 212.148,278.961 211.66,274.004 		"/>
		<polygon opacity="0.2" fill="#010002" points="239.277,263.072 236.178,265.713 239.627,269.148 242.727,266.509 		"/>
		<path fill="#253137" d="M196.694,184.043c0.283,2.909,1.35,8.682,4.537,20.126l17.278-1.356c-0.83-5.875-1.22-9.681,0.394-20.77
			c0.232-1.596-1.075-3.044-2.846-3.133c-1.229-0.062-2.68-0.097-4.137-0.046c-2.92,0.101-5.311,0.203-7.846,0.616
			c-1.565,0.254-3.245,0.625-4.589,0.948C197.707,180.856,196.532,182.381,196.694,184.043z"/>
		<path fill="#E5BABA" d="M210.378,170.911c-0.276,2.33-0.37,6.565,1.542,7.955c0,0,0.152,2.406-5.234,3.192
			c-3.782-0.292-2.611-2.576-2.611-2.576c2.756-0.831,2.503-2.72,1.843-4.461L210.378,170.911z"/>
		<path opacity="0.2" fill="#010002" d="M208.56,172.587l-2.64,2.43c0.157,0.412,0.289,0.832,0.361,1.245
			c1.063-0.226,2.6-1.227,2.616-2.257C208.906,173.491,208.674,172.817,208.56,172.587z"/>
		<path fill="#E5BABA" d="M212.636,167.272c-1.069,3.72-1.436,5.316-3.951,6.875c-3.782,2.345-8.585,0.338-8.761-3.597
			c-0.158-3.543,1.62-9.031,6.007-9.805C210.253,159.981,213.707,163.552,212.636,167.272z"/>
		<path fill="#253137" d="M203.667,160.447c-1.741,1.587,1.896,5.595,7.932,9.132c4.674-2.568,3.071-6.009,0.935-7.959
			C210.438,159.708,205.659,158.63,203.667,160.447z"/>
		<path fill="#253137" d="M205.295,164.569c-0.03,0-0.062-0.011-0.085-0.032c-1.925-1.743-2.675-3.065-2.229-3.93
			c0.655-1.272,3.616-1.043,3.741-1.033c0.066,0.005,0.115,0.059,0.109,0.119c-0.007,0.06-0.063,0.103-0.131,0.099
			c-0.029-0.002-2.918-0.226-3.502,0.908c-0.393,0.762,0.361,2.035,2.181,3.683c0.047,0.042,0.047,0.112,0,0.154
			C205.356,164.559,205.326,164.569,205.295,164.569z"/>
		<path fill="#E5BABA" d="M212.975,170.63c-0.402,0.708-1.129,1.181-1.82,1.37c-1.04,0.284-1.581-0.556-1.311-1.456
			c0.244-0.811,1.079-1.936,2.131-1.825C213.012,168.828,213.436,169.82,212.975,170.63z"/>
		<path fill="#253137" d="M201.23,204.17c0,0-4.99,23.445-1.088,39.986c2.613,11.078,5.966,33.474,5.966,33.474l7.369-0.172
			c0,0-1.917-23.485-3.392-32.722c-2.523-15.799,3.797-41.56,3.797-41.56L201.23,204.17z"/>
		<path opacity="0.2" fill="#010002" d="M207.972,208.907l3.685,5.272c-0.938,5.468-1.871,12.307-2.108,18.887
			C204.366,224.649,206.819,213.363,207.972,208.907z"/>
		<polygon fill="#4868A9" points="205.459,277.889 214.142,277.867 214.115,275.229 204.92,275.12 		"/>
		<path fill="#253137" d="M205.008,203.92c0,0,3.43,24.882,10.863,38.466c6.005,10.972,22.027,26.591,22.027,26.591l4.097-3.829
			c0,0-10.822-16.974-15.285-24.263c-10.942-17.871-1.999-31.51-8.201-38.071L205.008,203.92z"/>
		<polygon fill="#4868A9" points="237.483,269.488 242.77,264.813 241.017,262.648 235.41,267.726 		"/>
		<path fill="#FFFFFF" d="M218.68,201.873l0.913,1.342c0.07,0.105-0.061,0.227-0.261,0.242l-18.119,1.422
			c-0.156,0.013-0.292-0.046-0.311-0.135l-0.289-1.391c-0.021-0.096,0.106-0.189,0.277-0.203l17.496-1.373
			C218.516,201.768,218.635,201.807,218.68,201.873z"/>
		<path fill="#253137" d="M216.499,203.832l0.469-0.035c0.093-0.008,0.16-0.057,0.148-0.109l-0.394-1.807
			c-0.012-0.053-0.097-0.09-0.19-0.083l-0.469,0.037c-0.093,0.007-0.16,0.057-0.148,0.109l0.394,1.806
			C216.32,203.803,216.406,203.84,216.499,203.832z"/>
		<path fill="#253137" d="M202.544,204.928l0.469-0.036c0.093-0.007,0.16-0.057,0.147-0.109l-0.393-1.806
			c-0.012-0.053-0.098-0.09-0.191-0.084l-0.468,0.037c-0.094,0.008-0.16,0.057-0.148,0.109l0.394,1.807
			C202.364,204.898,202.45,204.936,202.544,204.928z"/>
		<path fill="#253137" d="M209.521,204.381l0.469-0.037c0.093-0.008,0.16-0.057,0.148-0.109l-0.394-1.806
			c-0.012-0.053-0.097-0.09-0.19-0.083l-0.469,0.037c-0.094,0.008-0.16,0.057-0.148,0.109l0.393,1.806
			C209.342,204.351,209.428,204.388,209.521,204.381z"/>
		<path fill="#253137" d="M205.695,167.145c-0.066,0.307-0.3,0.523-0.521,0.484c-0.221-0.04-0.347-0.32-0.28-0.627
			c0.066-0.307,0.3-0.523,0.521-0.484C205.637,166.557,205.762,166.837,205.695,167.145z"/>
		<path fill="#253137" d="M201.875,166.463c-0.066,0.307-0.3,0.523-0.521,0.484c-0.221-0.039-0.346-0.32-0.279-0.626
			s0.3-0.523,0.52-0.484C201.816,165.876,201.941,166.157,201.875,166.463z"/>
		<path fill="#253137" d="M201.689,165.871l-0.766-0.357C200.923,165.514,201.215,166.163,201.689,165.871z"/>
		<path fill="#D27D7A" d="M203.188,167.228c0,0-0.859,1.217-1.628,1.742c0.364,0.458,1.16,0.42,1.16,0.42L203.188,167.228z"/>
		<path fill="#253137" d="M204.282,170.851c1.196,0,1.892-0.634,1.926-0.665c0.032-0.03,0.032-0.079-0.002-0.108
			c-0.032-0.029-0.086-0.029-0.118,0.001c-0.01,0.008-0.918,0.831-2.404,0.564c-0.048-0.009-0.09,0.019-0.099,0.06
			c-0.009,0.042,0.021,0.082,0.066,0.09C203.874,170.833,204.086,170.851,204.282,170.851z"/>
		<path fill="#253137" d="M207.99,165.955c0.029,0,0.059-0.007,0.086-0.022c0.08-0.043,0.105-0.137,0.057-0.209
			c-0.569-0.855-1.484-0.893-1.522-0.894c-0.098,0.003-0.17,0.063-0.174,0.147c-0.003,0.083,0.069,0.154,0.161,0.158
			c0.032,0.001,0.775,0.037,1.248,0.746C207.877,165.929,207.933,165.955,207.99,165.955z"/>
		<path fill="#253137" d="M200.814,164.727c0.027,0,0.056-0.006,0.082-0.019c0.804-0.407,1.484-0.092,1.491-0.089
			c0.082,0.04,0.184,0.011,0.227-0.064c0.044-0.074,0.012-0.167-0.07-0.206c-0.034-0.016-0.85-0.394-1.811,0.093
			c-0.081,0.041-0.11,0.134-0.065,0.207C200.698,164.699,200.755,164.727,200.814,164.727z"/>
		<path fill="#4868A9" d="M211.656,178.428c0,0-0.706,4.131-0.645,10.867c0.04,4.453-1.208,24.375,5.504,47.779
			c10.732,0.056,15.486,2.859,15.486,2.859s-10.407-38.104-11.725-57.801c-0.131-1.962-1.848-3.524-4.011-3.647
			C214.134,178.364,211.656,178.428,211.656,178.428z"/>
		<path fill="#FFFFFF" d="M222.508,210.885c-0.029,0-0.058-0.007-0.084-0.021c-3.016-1.632-6.103-6.211-6.232-6.404
			c-0.047-0.07-0.021-0.162,0.056-0.205c0.077-0.042,0.179-0.02,0.226,0.051c0.031,0.047,3.174,4.709,6.119,6.303
			c0.078,0.043,0.104,0.134,0.057,0.205C222.618,210.858,222.563,210.885,222.508,210.885z"/>
		<path opacity="0.2" fill="#010002" d="M220.87,188.054l-3.485-2.774c0,0,1.524,5.983,4.601,10.314
			C221.548,192.977,221.163,190.443,220.87,188.054z"/>
		<path fill="#4868A9" d="M203.547,179.186c0,0-0.385,4.125-0.385,14.734c0,10.237,1.394,24.983-0.75,43.548
			c-3.472,0.775-5.395,3.073-5.395,3.073s2.896-33.705-0.432-56.546c-0.287-1.972,1.322-3.761,3.477-4.128
			C202.156,179.51,203.547,179.186,203.547,179.186z"/>
		<g>
			<g>
				<polygon fill="#4868A9" points="237.119,213.127 226.726,215.582 225.764,212.23 236.158,209.775 				"/>
				<polygon opacity="0.8" fill="#FFFFFF" points="236.939,212.502 226.546,214.956 226.373,214.354 236.767,211.898 				"/>
			</g>
			<polygon fill="#253137" points="236.627,213.277 227.709,214.971 226.788,210.98 235.707,209.287 			"/>
		</g>
		<path fill="#E5BABA" d="M227.959,208.512l-0.736,3.395l3.531-0.81c0,0,0.24-2.335-1.212-3.261L227.959,208.512z"/>
		<polygon fill="#E5BABA" points="228.121,213.676 231.672,213.361 230.754,211.097 227.223,211.906 		"/>
		<path fill="#4868A9" d="M218.98,179.618c1.035,0.97,1.954,1.925,2.886,2.925c0.917,1,1.821,2.013,2.678,3.076
			c0.865,1.059,1.7,2.143,2.487,3.303c0.394,0.587,0.785,1.166,1.143,1.811l0.271,0.473l0.26,0.507l0.255,0.51
			c0.085,0.167,0.171,0.386,0.254,0.576c0.308,0.768,0.5,1.467,0.657,2.159c0.157,0.688,0.281,1.361,0.386,2.025
			c0.201,1.328,0.321,2.634,0.402,3.933c0.151,2.601,0.148,5.156-0.057,7.752l-3.329,0.16c-0.535-2.442-1.04-4.918-1.601-7.322
			c-0.278-1.204-0.579-2.395-0.911-3.543c-0.164-0.574-0.342-1.133-0.534-1.667c-0.194-0.528-0.399-1.042-0.611-1.444
			c-0.059-0.097-0.093-0.176-0.167-0.29l-0.215-0.335l-0.215-0.335l-0.25-0.347c-0.32-0.458-0.696-0.933-1.062-1.403
			c-0.751-0.942-1.585-1.88-2.419-2.819c-1.679-1.863-3.497-3.741-5.231-5.542L218.98,179.618z"/>
		<path fill="#4868A9" d="M241.199,273.74c0.055,0,0.109-0.01,0.165-0.025c0.507-0.155,0.839-1.006,0.991-1.5
			c0.01-0.028-0.002-0.061-0.027-0.079c-0.026-0.02-0.063-0.022-0.092-0.009c-0.154,0.073-1.508,0.73-1.553,1.215
			c-0.006,0.074,0.014,0.182,0.146,0.271C240.951,273.697,241.076,273.74,241.199,273.74z M242.137,272.351
			c-0.235,0.681-0.538,1.132-0.826,1.22c-0.125,0.037-0.248,0.012-0.381-0.08c-0.076-0.051-0.08-0.102-0.078-0.137
			C240.879,273.057,241.672,272.59,242.137,272.351z"/>
		<path fill="#4868A9" d="M240.99,272.543c0.48,0,1.07-0.139,1.328-0.283c0.026-0.014,0.041-0.039,0.041-0.066
			c-0.001-0.027-0.018-0.053-0.044-0.065c-0.045-0.022-1.117-0.558-1.693-0.371c-0.151,0.048-0.257,0.14-0.316,0.271
			c-0.091,0.205,0.009,0.324,0.077,0.376C240.511,272.504,240.735,272.543,240.99,272.543z M242.09,272.194
			c-0.458,0.178-1.348,0.286-1.599,0.094c-0.042-0.032-0.083-0.085-0.029-0.202c0.04-0.092,0.111-0.152,0.216-0.186
			C241.07,271.773,241.785,272.059,242.09,272.194z"/>
		<path fill="#4868A9" d="M205.457,282.861c0.486,0,1.016-0.085,1.382-0.159c0.035-0.007,0.062-0.033,0.065-0.065
			c0.005-0.033-0.015-0.064-0.048-0.078c-0.208-0.089-2.045-0.859-2.508-0.575c-0.06,0.036-0.128,0.106-0.12,0.236
			c0.012,0.18,0.096,0.323,0.25,0.431C204.709,282.807,205.068,282.861,205.457,282.861z M206.551,282.6
			c-0.546,0.094-1.555,0.213-1.971-0.072c-0.115-0.078-0.176-0.182-0.184-0.316c-0.004-0.063,0.022-0.087,0.046-0.101
			C204.701,281.951,205.788,282.295,206.551,282.6z"/>
		<path fill="#4868A9" d="M206.821,282.704c0.02,0,0.039-0.006,0.054-0.019c0.024-0.018,0.035-0.047,0.028-0.075
			c-0.018-0.069-0.435-1.714-1.433-1.609c-0.25,0.027-0.317,0.14-0.331,0.229c-0.063,0.419,1.097,1.263,1.649,1.468
			C206.8,282.702,206.811,282.704,206.821,282.704z M205.562,281.148c0.637,0,1.009,0.957,1.132,1.34
			c-0.6-0.284-1.428-0.97-1.387-1.237c0.003-0.02,0.012-0.079,0.185-0.099C205.516,281.15,205.538,281.148,205.562,281.148z"/>
		<path fill="#253137" d="M205.509,166.552l-0.766-0.357C204.743,166.195,205.035,166.844,205.509,166.552z"/>
		<g>
			<path fill="#4868A9" d="M212.916,178.323l-1.311,0.03c-0.074,0.001-0.138,0.049-0.152,0.115
				c-0.164,0.75-1.045,5.256-0.472,13.353c0.561-2.362,1.933-7.359,2.514-8.45c-0.501-0.345-1.302-0.927-1.302-0.927l1.471-0.854
				l-0.587-3.146C213.064,178.373,212.995,178.321,212.916,178.323z"/>
			<path opacity="0.2" fill="#FFFFFF" d="M212.916,178.323l-1.311,0.03c-0.074,0.001-0.138,0.049-0.152,0.115
				c-0.164,0.75-1.045,5.256-0.472,13.353c0.561-2.362,1.933-7.359,2.514-8.45c-0.501-0.345-1.302-0.927-1.302-0.927l1.471-0.854
				l-0.587-3.146C213.064,178.373,212.995,178.321,212.916,178.323z"/>
		</g>
		<g>
			<path fill="#4868A9" d="M202.109,179.308l1.554-0.245c0,0,0.135,4.024-0.497,12.928c-0.561-2.363-1.729-7.256-1.795-8.62
				c0.501-0.345,1.302-0.927,1.302-0.927l-1.47-0.854L202.109,179.308z"/>
			<path opacity="0.2" fill="#FFFFFF" d="M202.109,179.308l1.554-0.245c0,0,0.135,4.024-0.497,12.928
				c-0.561-2.363-1.729-7.256-1.795-8.62c0.501-0.345,1.302-0.927,1.302-0.927l-1.47-0.854L202.109,179.308z"/>
		</g>
	</g>
	<g>
		<path fill="#253137" d="M182.075,234.479h-17.786c-4.271,0-7.766,3.17-7.766,7.045v33.99c0,3.874,3.494,7.045,7.766,7.045h17.786
			c4.271,0,7.766-3.171,7.766-7.045v-33.99C189.841,237.648,186.347,234.479,182.075,234.479z"/>
		<path fill="#253137" d="M175.528,203.272c2.422,0,4.393,1.788,4.393,3.985v45.947c0,2.197-1.971,3.984-4.393,3.984h-4.692
			c-2.422,0-4.393-1.787-4.393-3.984v-45.947c0-2.197,1.971-3.985,4.393-3.985H175.528 M175.528,202.504h-4.692
			c-2.882,0-5.24,2.14-5.24,4.754v45.947c0,2.614,2.358,4.754,5.24,4.754h4.692c2.882,0,5.24-2.14,5.24-4.754v-45.947
			C180.768,204.644,178.41,202.504,175.528,202.504L175.528,202.504z"/>
		<ellipse fill="#253137" cx="183.316" cy="283.104" rx="1.977" ry="1.793"/>
		<ellipse fill="#253137" cx="176.36" cy="283.104" rx="1.977" ry="1.793"/>
		<ellipse fill="#253137" cx="164.984" cy="283.104" rx="1.977" ry="1.793"/>
		<ellipse fill="#253137" cx="158.027" cy="283.104" rx="1.977" ry="1.793"/>
		<g>
			<path fill="#4868A9" d="M177.055,234.479h-17.787c-4.271,0-7.766,3.17-7.766,7.045v33.99c0,3.874,3.495,7.045,7.766,7.045h17.787
				c4.271,0,7.765-3.171,7.765-7.045v-33.99C184.82,237.648,181.325,234.479,177.055,234.479z"/>
			<path opacity="0.2" fill="#FFFFFF" d="M177.055,234.479h-17.787c-4.271,0-7.766,3.17-7.766,7.045v33.99
				c0,3.874,3.495,7.045,7.766,7.045h17.787c4.271,0,7.765-3.171,7.765-7.045v-33.99
				C184.82,237.648,181.325,234.479,177.055,234.479z"/>
		</g>
		<path fill="#4868A9" d="M173.546,238.957h-14.473c-3.476,0-6.318,2.58-6.318,5.732v27.657c0,3.152,2.843,5.731,6.318,5.731h14.473
			c3.475,0,6.318-2.579,6.318-5.731v-27.657C179.864,241.537,177.021,238.957,173.546,238.957z"/>
		<path fill="#FFFFFF" d="M157.345,275.246c-0.993,0-1.8-0.732-1.8-1.633v-30.19c0-0.899,0.807-1.632,1.8-1.632s1.8,0.732,1.8,1.632
			v30.19C159.146,274.514,158.338,275.246,157.345,275.246z M157.345,242.175c-0.759,0-1.376,0.56-1.376,1.248v30.19
			c0,0.688,0.617,1.248,1.376,1.248c0.759,0,1.376-0.56,1.376-1.248v-30.19C158.722,242.734,158.104,242.175,157.345,242.175z"/>
		<path fill="#FFFFFF" d="M175.334,275.246c-0.992,0-1.8-0.732-1.8-1.633v-30.19c0-0.899,0.808-1.632,1.8-1.632
			c0.993,0,1.801,0.732,1.801,1.632v30.19C177.135,274.514,176.327,275.246,175.334,275.246z M175.334,242.175
			c-0.759,0-1.376,0.56-1.376,1.248v30.19c0,0.688,0.617,1.248,1.376,1.248c0.759,0,1.377-0.56,1.377-1.248v-30.19
			C176.711,242.734,176.093,242.175,175.334,242.175z"/>
		<path fill="#FFFFFF" d="M169.338,275.246c-0.992,0-1.8-0.732-1.8-1.633v-30.19c0-0.899,0.808-1.632,1.8-1.632
			c0.993,0,1.8,0.732,1.8,1.632v30.19C171.138,274.514,170.331,275.246,169.338,275.246z M169.338,242.175
			c-0.759,0-1.376,0.56-1.376,1.248v30.19c0,0.688,0.617,1.248,1.376,1.248c0.759,0,1.376-0.56,1.376-1.248v-30.19
			C170.714,242.734,170.097,242.175,169.338,242.175z"/>
		<path fill="#FFFFFF" d="M163.342,275.246c-0.993,0-1.8-0.732-1.8-1.633v-30.19c0-0.899,0.807-1.632,1.8-1.632
			c0.992,0,1.8,0.732,1.8,1.632v30.19C165.142,274.514,164.334,275.246,163.342,275.246z M163.342,242.175
			c-0.759,0-1.376,0.56-1.376,1.248v30.19c0,0.688,0.618,1.248,1.376,1.248s1.376-0.56,1.376-1.248v-30.19
			C164.718,242.734,164.101,242.175,163.342,242.175z"/>
	</g>
</g>
</svg>
