<?xml version="1.0" encoding="utf-8"?>
<!-- Generator: Adobe Illustrator 16.0.0, SVG Export Plug-In . SVG Version: 6.00 Build 0)  -->
<!DOCTYPE svg PUBLIC "-//W3C//DTD SVG 1.1//EN" "http://www.w3.org/Graphics/SVG/1.1/DTD/svg11.dtd">
<svg version="1.1" id="Capa_1" xmlns="http://www.w3.org/2000/svg" xmlns:xlink="http://www.w3.org/1999/xlink" x="0px" y="0px"
	 width="400px" height="400px" viewBox="0 0 400 400" enable-background="new 0 0 400 400" xml:space="preserve">
<g>
	<g>
		<path fill="#84B4C3" d="M253.998,264.028c-29.637,15.559-77.837,15.479-107.66-0.177c-29.823-15.656-29.974-40.96-0.337-56.519
			c29.637-15.558,77.837-15.479,107.659,0.177C283.483,223.166,283.635,248.471,253.998,264.028z"/>
		<path fill="#84B4C3" d="M274.455,227.58h-44.463c-0.419-0.492-1.003-0.955-1.773-1.356c-3.365-1.769-8.804-1.774-12.148-0.021
			c-2.336,1.225-3.027,2.986-2.089,4.541h-63.028c-0.419-0.491-1.004-0.953-1.772-1.356c-3.366-1.767-8.806-1.776-12.151-0.021
			c-3.345,1.756-3.328,4.612,0.038,6.379c3.366,1.768,8.806,1.776,12.151,0.021c1.142-0.6,1.883-1.328,2.241-2.098h67.991
			c2.998,0.532,6.43,0.183,8.809-1.065c1.141-0.602,1.882-1.33,2.24-2.098h44.923C275.172,229.525,274.848,228.55,274.455,227.58z"
			/>
		<path fill="#84B4C3" d="M195.631,252.035l-5.992,7.254l0.135,0.059h-10.775v9.729h63.234c4.159-1.445,8.104-3.128,11.767-5.05
			c2.528-1.33,4.844-2.729,6.938-4.188c1.369-0.947,2.641-1.924,3.822-2.924c1.87-1.574,3.508-3.207,4.914-4.881H195.631z"/>
		<g>
			<g>
				<g>
					<g>
						<linearGradient id="SVGID_1_" gradientUnits="userSpaceOnUse" x1="132.4155" y1="231.8486" x2="149.5996" y2="231.8486">
							<stop  offset="0" style="stop-color:#96643C"/>
							<stop  offset="0.0558" style="stop-color:#9A673E"/>
							<stop  offset="0.1308" style="stop-color:#A86F43"/>
							<stop  offset="0.2164" style="stop-color:#BD7D4C"/>
							<stop  offset="0.2441" style="stop-color:#C48350"/>
							<stop  offset="0.3976" style="stop-color:#9A653D"/>
							<stop  offset="0.5555" style="stop-color:#7A5030"/>
							<stop  offset="0.711" style="stop-color:#664227"/>
							<stop  offset="0.8611" style="stop-color:#5B3A21"/>
							<stop  offset="1" style="stop-color:#58381F"/>
						</linearGradient>
						<path fill="url(#SVGID_1_)" d="M149.534,230.84c-0.226-0.971-1.047-1.911-2.47-2.658c-3.366-1.767-8.806-1.775-12.151-0.02
							c-1.33,0.698-2.126,1.57-2.394,2.479l-0.104-0.009v1.711h0.001c0.017,1.146,0.861,2.295,2.534,3.172
							c3.366,1.768,8.806,1.776,12.151,0.021c1.611-0.847,2.44-1.946,2.493-3.059l0.002,0.001l0-0.063c0-0.036,0.001-0.072,0-0.107
							l0.002-1.559L149.534,230.84z"/>
						<path fill="#D8915A" d="M147.102,233.832c-3.345,1.756-8.785,1.748-12.151-0.02s-3.383-4.623-0.038-6.379
							c3.345-1.756,8.785-1.747,12.151,0.02C150.43,229.221,150.447,232.076,147.102,233.832z"/>
						<path fill="#D8915A" d="M147.099,233.835c-0.06,0.034-0.128,0.062-0.188,0.089h-5.483v-7.786
							c2.05,0.055,4.063,0.491,5.633,1.317C150.434,229.218,150.449,232.08,147.099,233.835z"/>
					</g>
					<g>
						<linearGradient id="SVGID_2_" gradientUnits="userSpaceOnUse" x1="134.0757" y1="229.9092" x2="147.9399" y2="229.9092">
							<stop  offset="0" style="stop-color:#96643C"/>
							<stop  offset="0.0558" style="stop-color:#9A673E"/>
							<stop  offset="0.1308" style="stop-color:#A86F43"/>
							<stop  offset="0.2164" style="stop-color:#BD7D4C"/>
							<stop  offset="0.2441" style="stop-color:#C48350"/>
							<stop  offset="0.3976" style="stop-color:#9A653D"/>
							<stop  offset="0.5555" style="stop-color:#7A5030"/>
							<stop  offset="0.711" style="stop-color:#664227"/>
							<stop  offset="0.8611" style="stop-color:#5B3A21"/>
							<stop  offset="1" style="stop-color:#58381F"/>
						</linearGradient>
						<path fill="url(#SVGID_2_)" d="M147.887,229.096c-0.182-0.783-0.845-1.543-1.993-2.145c-2.715-1.426-7.105-1.434-9.804-0.017
							c-1.073,0.563-1.716,1.267-1.932,2.001l-0.083-0.008v1.381h0.001c0.013,0.925,0.695,1.851,2.044,2.559
							c2.716,1.426,7.105,1.434,9.804,0.017c1.3-0.683,1.968-1.571,2.011-2.468l0.001,0.002l0-0.052c0-0.028,0.001-0.058,0-0.087
							l0.002-1.258L147.887,229.096z"/>
						<path fill="#D8915A" d="M145.925,231.51c-2.699,1.416-7.088,1.409-9.804-0.017c-2.715-1.426-2.729-3.729-0.031-5.146
							s7.088-1.409,9.804,0.017C148.61,227.789,148.624,230.093,145.925,231.51z"/>
						<path fill="#D8915A" d="M146.43,231.219h-5.243v-5.921c1.705,0.021,3.395,0.376,4.709,1.065
							C148.428,227.695,148.608,229.792,146.43,231.219z"/>
					</g>
					<g>
						<linearGradient id="SVGID_3_" gradientUnits="userSpaceOnUse" x1="135.8413" y1="228.2148" x2="146.1738" y2="228.2148">
							<stop  offset="0" style="stop-color:#96643C"/>
							<stop  offset="0.0558" style="stop-color:#9A673E"/>
							<stop  offset="0.1308" style="stop-color:#A86F43"/>
							<stop  offset="0.2164" style="stop-color:#BD7D4C"/>
							<stop  offset="0.2441" style="stop-color:#C48350"/>
							<stop  offset="0.3976" style="stop-color:#9A653D"/>
							<stop  offset="0.5555" style="stop-color:#7A5030"/>
							<stop  offset="0.711" style="stop-color:#664227"/>
							<stop  offset="0.8611" style="stop-color:#5B3A21"/>
							<stop  offset="1" style="stop-color:#58381F"/>
						</linearGradient>
						<path fill="url(#SVGID_3_)" d="M146.134,227.607c-0.136-0.584-0.63-1.149-1.485-1.598c-2.024-1.063-5.295-1.068-7.306-0.013
							c-0.8,0.421-1.279,0.944-1.44,1.491l-0.062-0.006v1.029h0c0.01,0.689,0.519,1.379,1.524,1.907
							c2.023,1.063,5.295,1.067,7.306,0.012c0.968-0.509,1.467-1.171,1.499-1.839l0.001,0.001v-0.038c0-0.021,0.001-0.043,0-0.064
							l0.001-0.938L146.134,227.607z"/>
						<path fill="#D8915A" d="M144.672,229.406c-2.011,1.057-5.283,1.051-7.306-0.012c-2.024-1.063-2.034-2.779-0.023-3.836
							c2.011-1.055,5.282-1.05,7.306,0.012C146.673,226.633,146.684,228.351,144.672,229.406z"/>
						<path fill="#D8915A" d="M146.062,228.057h-5.055v-2.309h3.951C146.009,226.411,146.377,227.265,146.062,228.057z"/>
					</g>
					<g>
						<linearGradient id="SVGID_4_" gradientUnits="userSpaceOnUse" x1="139.2505" y1="182.9585" x2="142.7651" y2="182.9585">
							<stop  offset="0" style="stop-color:#96643C"/>
							<stop  offset="0.0558" style="stop-color:#9A673E"/>
							<stop  offset="0.1308" style="stop-color:#A86F43"/>
							<stop  offset="0.2164" style="stop-color:#BD7D4C"/>
							<stop  offset="0.2441" style="stop-color:#C48350"/>
							<stop  offset="0.3976" style="stop-color:#9A653D"/>
							<stop  offset="0.5555" style="stop-color:#7A5030"/>
							<stop  offset="0.711" style="stop-color:#664227"/>
							<stop  offset="0.8611" style="stop-color:#5B3A21"/>
							<stop  offset="1" style="stop-color:#58381F"/>
						</linearGradient>
						<path fill="url(#SVGID_4_)" d="M142.751,138.676c-0.046-0.198-0.214-0.391-0.505-0.543c-0.688-0.361-1.801-0.363-2.485-0.004
							c-0.272,0.143-0.435,0.321-0.49,0.507l-0.021-0.001v88.501l0,0c0.003,0.234,0.176,0.47,0.519,0.649
							c0.688,0.361,1.801,0.362,2.485,0.004c0.329-0.174,0.499-0.398,0.51-0.627l0,0.001v-0.013c0-0.008,0-0.015,0-0.021l0-88.471
							L142.751,138.676z"/>
						<path fill="#D8915A" d="M142.254,139.289c-0.684,0.359-1.797,0.357-2.485-0.004s-0.692-0.946-0.008-1.305
							c0.684-0.359,1.797-0.357,2.485,0.004S142.938,138.929,142.254,139.289z"/>
					</g>
				</g>
				<g>
					<g>
						<linearGradient id="SVGID_5_" gradientUnits="userSpaceOnUse" x1="139.7397" y1="137.5688" x2="142.2764" y2="137.5688">
							<stop  offset="0" style="stop-color:#96643C"/>
							<stop  offset="0.0558" style="stop-color:#9A673E"/>
							<stop  offset="0.1308" style="stop-color:#A86F43"/>
							<stop  offset="0.2164" style="stop-color:#BD7D4C"/>
							<stop  offset="0.2441" style="stop-color:#C48350"/>
							<stop  offset="0.3976" style="stop-color:#9A653D"/>
							<stop  offset="0.5555" style="stop-color:#7A5030"/>
							<stop  offset="0.711" style="stop-color:#664227"/>
							<stop  offset="0.8611" style="stop-color:#5B3A21"/>
							<stop  offset="1" style="stop-color:#58381F"/>
						</linearGradient>
						<path fill="url(#SVGID_5_)" d="M142.266,136.598c-0.033-0.143-0.154-0.282-0.364-0.393c-0.497-0.261-1.3-0.262-1.793-0.002
							c-0.197,0.103-0.314,0.231-0.354,0.366l-0.015-0.001v1.897v0c0.002,0.169,0.127,0.339,0.374,0.468
							c0.497,0.261,1.3,0.262,1.793,0.003c0.238-0.125,0.36-0.287,0.368-0.451h0v-0.009c0-0.005,0-0.01,0-0.016l0-1.875
							L142.266,136.598z"/>
						<path fill="#D8915A" d="M141.907,137.04c-0.494,0.259-1.296,0.258-1.793-0.003c-0.497-0.261-0.5-0.683-0.005-0.942
							c0.494-0.259,1.297-0.258,1.793,0.003C142.399,136.359,142.401,136.781,141.907,137.04z"/>
					</g>
				</g>
				
					<radialGradient id="SVGID_6_" cx="380.084" cy="459.5439" r="6.8821" gradientTransform="matrix(0.374 0 0 0.3401 -2.0308 -21.021)" gradientUnits="userSpaceOnUse">
					<stop  offset="0" style="stop-color:#C48350"/>
					<stop  offset="0.203" style="stop-color:#9A653D"/>
					<stop  offset="0.412" style="stop-color:#7A5030"/>
					<stop  offset="0.6176" style="stop-color:#664227"/>
					<stop  offset="0.8163" style="stop-color:#5B3A21"/>
					<stop  offset="1" style="stop-color:#58381F"/>
				</radialGradient>
				<ellipse fill="url(#SVGID_6_)" cx="141.008" cy="136.009" rx="2.252" ry="2.048"/>
			</g>
			<g>
				<g>
					<path fill="#1B6C56" d="M134.001,168.603l-3.124,8.735c0,0-0.546,3.551,1.563,6.675l1.796-1.775l4.296-17.399L134.001,168.603z
						"/>
					<path fill="#1B6C56" d="M144.936,165.052c0,0,0.101,2.37-3.887,2.113l1.777-5.273L144.936,165.052z"/>
					<path fill="#359B80" d="M142.592,189.162l-0.106,0.195l-2.882-4.314l-4.587-0.426h-1.64v1.03c0,0,1.679,6.64,5.741,10.12
						C139.117,195.767,144.311,192.536,142.592,189.162z"/>
					<path fill="#207D65" d="M142.905,189.819c0,0-4.627-5.646-11.012-4.527l6.003-21.359l5.009-0.746V189.819z"/>
					<path fill="#359B80" d="M141.187,139.557l3.749,25.495c-0.253-0.151-0.539-0.264-0.824-0.354
						c-0.882-0.281-1.842-0.33-2.757-0.167c-1.553,0.275-2.907,1.121-4.015,2.118c-1.967,1.771-3.221,4.002-4.408,6.245
						c-0.212,0.4-0.424,0.801-0.626,1.206c-0.343,0.687-0.658,1.386-0.943,2.095c-0.243,0.603-0.546,1.267-0.508,1.924
						c-0.06-1.027,0.083-2.008,0.336-3.009c0.114-0.451,0.235-0.899,0.362-1.347c0.259-0.911,1.58-5.187,1.713-5.7
						c0.455-1.759,0.91-3.517,1.367-5.275c0.481-1.853,0.964-3.705,1.45-5.557c0.467-1.784,0.937-3.568,1.41-5.35
						c0.412-1.552,0.826-3.103,1.247-4.653c0.313-1.157,0.629-2.313,0.96-3.466c0.171-0.597,0.325-1.207,0.551-1.79
						C141.187,139.557,141.187,139.557,141.187,139.557z"/>
				</g>
			</g>
		</g>
		<g>
			<path fill="#84B4C3" d="M271.245,221.806h-78.348c-0.359,0.769-1.1,1.497-2.24,2.099c-3.348,1.755-8.786,1.744-12.152-0.021
				c-3.366-1.769-3.385-4.625-0.037-6.38c3.344-1.755,8.786-1.748,12.148,0.021c0.771,0.401,1.354,0.864,1.772,1.356h76.504
				C269.753,219.844,270.539,220.82,271.245,221.806z"/>
			<g>
				<g>
					<g>
						<g>
							<linearGradient id="SVGID_7_" gradientUnits="userSpaceOnUse" x1="174.5894" y1="219.7832" x2="191.7734" y2="219.7832">
								<stop  offset="0" style="stop-color:#96643C"/>
								<stop  offset="0.0558" style="stop-color:#9A673E"/>
								<stop  offset="0.1308" style="stop-color:#A86F43"/>
								<stop  offset="0.2164" style="stop-color:#BD7D4C"/>
								<stop  offset="0.2441" style="stop-color:#C48350"/>
								<stop  offset="0.3976" style="stop-color:#9A653D"/>
								<stop  offset="0.5555" style="stop-color:#7A5030"/>
								<stop  offset="0.711" style="stop-color:#664227"/>
								<stop  offset="0.8611" style="stop-color:#5B3A21"/>
								<stop  offset="1" style="stop-color:#58381F"/>
							</linearGradient>
							<path fill="url(#SVGID_7_)" d="M191.707,218.775c-0.225-0.971-1.047-1.912-2.469-2.658
								c-3.366-1.768-8.806-1.776-12.151-0.021c-1.331,0.698-2.127,1.571-2.395,2.479l-0.103-0.009v1.712l0.001-0.002
								c0.017,1.147,0.862,2.295,2.535,3.174c3.366,1.766,8.806,1.775,12.151,0.02c1.611-0.846,2.44-1.947,2.492-3.059l0.002,0.002
								v-0.064c0.001-0.035,0.001-0.07,0-0.106l0.002-1.56L191.707,218.775z"/>
							<path fill="#D8915A" d="M189.276,221.768c-3.345,1.756-8.785,1.746-12.151-0.021c-3.366-1.767-3.383-4.623-0.038-6.379
								c3.345-1.756,8.785-1.747,12.151,0.021C192.604,217.154,192.621,220.011,189.276,221.768z"/>
							<path fill="#D8915A" d="M189.272,221.77c-0.06,0.034-0.127,0.061-0.188,0.088h-5.483v-7.785
								c2.051,0.055,4.064,0.492,5.634,1.318C192.607,217.152,192.622,220.014,189.272,221.77z"/>
						</g>
						<g>
							<linearGradient id="SVGID_8_" gradientUnits="userSpaceOnUse" x1="176.249" y1="217.8438" x2="190.1138" y2="217.8438">
								<stop  offset="0" style="stop-color:#96643C"/>
								<stop  offset="0.0558" style="stop-color:#9A673E"/>
								<stop  offset="0.1308" style="stop-color:#A86F43"/>
								<stop  offset="0.2164" style="stop-color:#BD7D4C"/>
								<stop  offset="0.2441" style="stop-color:#C48350"/>
								<stop  offset="0.3976" style="stop-color:#9A653D"/>
								<stop  offset="0.5555" style="stop-color:#7A5030"/>
								<stop  offset="0.711" style="stop-color:#664227"/>
								<stop  offset="0.8611" style="stop-color:#5B3A21"/>
								<stop  offset="1" style="stop-color:#58381F"/>
							</linearGradient>
							<path fill="url(#SVGID_8_)" d="M190.06,217.029c-0.182-0.783-0.845-1.542-1.992-2.145c-2.716-1.426-7.105-1.433-9.804-0.016
								c-1.073,0.563-1.716,1.268-1.932,2l-0.083-0.007v1.381l0.001-0.001c0.014,0.926,0.695,1.852,2.045,2.561
								c2.715,1.425,7.105,1.432,9.803,0.016c1.3-0.683,1.969-1.57,2.011-2.468l0.002,0.001v-0.051c0-0.029,0.001-0.058,0-0.086
								l0.002-1.259L190.06,217.029z"/>
							<path fill="#D8915A" d="M188.098,219.443c-2.698,1.418-7.088,1.41-9.803-0.016c-2.716-1.426-2.729-3.73-0.031-5.146
								c2.699-1.417,7.088-1.41,9.804,0.016S190.797,218.027,188.098,219.443z"/>
							<path fill="#D8915A" d="M188.604,219.154h-5.243v-5.922c1.705,0.021,3.395,0.375,4.709,1.064
								C190.602,215.629,190.782,217.727,188.604,219.154z"/>
						</g>
						<g>
							<linearGradient id="SVGID_9_" gradientUnits="userSpaceOnUse" x1="178.0151" y1="216.1484" x2="188.3477" y2="216.1484">
								<stop  offset="0" style="stop-color:#96643C"/>
								<stop  offset="0.0558" style="stop-color:#9A673E"/>
								<stop  offset="0.1308" style="stop-color:#A86F43"/>
								<stop  offset="0.2164" style="stop-color:#BD7D4C"/>
								<stop  offset="0.2441" style="stop-color:#C48350"/>
								<stop  offset="0.3976" style="stop-color:#9A653D"/>
								<stop  offset="0.5555" style="stop-color:#7A5030"/>
								<stop  offset="0.711" style="stop-color:#664227"/>
								<stop  offset="0.8611" style="stop-color:#5B3A21"/>
								<stop  offset="1" style="stop-color:#58381F"/>
							</linearGradient>
							<path fill="url(#SVGID_9_)" d="M188.308,215.542c-0.135-0.583-0.63-1.149-1.485-1.599c-2.023-1.063-5.295-1.067-7.306-0.012
								c-0.8,0.42-1.279,0.944-1.439,1.49l-0.062-0.004v1.028l0-0.001c0.01,0.69,0.518,1.38,1.524,1.908
								c2.024,1.063,5.295,1.068,7.306,0.012c0.969-0.508,1.467-1.17,1.499-1.838h0.001l0-0.038c0-0.021,0-0.043,0-0.063
								l0.001-0.938L188.308,215.542z"/>
							<path fill="#D8915A" d="M186.846,217.341c-2.011,1.056-5.282,1.051-7.306-0.012s-2.034-2.78-0.023-3.835
								c2.011-1.057,5.283-1.051,7.306,0.012C188.847,214.568,188.857,216.285,186.846,217.341z"/>
							<path fill="#D8915A" d="M188.235,215.991h-5.055v-2.309h3.951C188.183,214.346,188.551,215.199,188.235,215.991z"/>
						</g>
						<g>
							<linearGradient id="SVGID_10_" gradientUnits="userSpaceOnUse" x1="181.4238" y1="170.8931" x2="184.9385" y2="170.8931">
								<stop  offset="0" style="stop-color:#96643C"/>
								<stop  offset="0.0558" style="stop-color:#9A673E"/>
								<stop  offset="0.1308" style="stop-color:#A86F43"/>
								<stop  offset="0.2164" style="stop-color:#BD7D4C"/>
								<stop  offset="0.2441" style="stop-color:#C48350"/>
								<stop  offset="0.3976" style="stop-color:#9A653D"/>
								<stop  offset="0.5555" style="stop-color:#7A5030"/>
								<stop  offset="0.711" style="stop-color:#664227"/>
								<stop  offset="0.8611" style="stop-color:#5B3A21"/>
								<stop  offset="1" style="stop-color:#58381F"/>
							</linearGradient>
							<path fill="url(#SVGID_10_)" d="M184.925,126.611c-0.046-0.198-0.214-0.391-0.505-0.543
								c-0.688-0.361-1.801-0.363-2.485-0.004c-0.272,0.143-0.435,0.321-0.49,0.507l-0.021-0.001v88.501l0,0
								c0.004,0.234,0.176,0.469,0.519,0.648c0.688,0.361,1.801,0.363,2.485,0.004c0.33-0.173,0.499-0.398,0.51-0.625h0v-0.014
								c0-0.007,0-0.014,0-0.021v-88.47L184.925,126.611z"/>
							<path fill="#D8915A" d="M184.428,127.223c-0.684,0.359-1.797,0.357-2.485-0.004c-0.688-0.361-0.692-0.945-0.008-1.305
								c0.685-0.359,1.797-0.357,2.485,0.004C185.108,126.28,185.112,126.864,184.428,127.223z"/>
						</g>
					</g>
					<g>
						<g>
							<linearGradient id="SVGID_11_" gradientUnits="userSpaceOnUse" x1="181.9131" y1="125.5039" x2="184.4497" y2="125.5039">
								<stop  offset="0" style="stop-color:#96643C"/>
								<stop  offset="0.0558" style="stop-color:#9A673E"/>
								<stop  offset="0.1308" style="stop-color:#A86F43"/>
								<stop  offset="0.2164" style="stop-color:#BD7D4C"/>
								<stop  offset="0.2441" style="stop-color:#C48350"/>
								<stop  offset="0.3976" style="stop-color:#9A653D"/>
								<stop  offset="0.5555" style="stop-color:#7A5030"/>
								<stop  offset="0.711" style="stop-color:#664227"/>
								<stop  offset="0.8611" style="stop-color:#5B3A21"/>
								<stop  offset="1" style="stop-color:#58381F"/>
							</linearGradient>
							<path fill="url(#SVGID_11_)" d="M184.44,124.533c-0.033-0.143-0.155-0.282-0.365-0.393c-0.497-0.261-1.3-0.262-1.793-0.003
								c-0.196,0.103-0.314,0.232-0.354,0.366l-0.015-0.001v1.896l0,0c0.002,0.169,0.127,0.339,0.374,0.468
								c0.497,0.261,1.3,0.262,1.794,0.003c0.238-0.125,0.36-0.288,0.368-0.452v0v-0.009c0-0.005,0-0.011,0-0.016l0-1.874
								L184.44,124.533z"/>
							<path fill="#D8915A" d="M184.081,124.974c-0.494,0.259-1.297,0.258-1.794-0.002c-0.497-0.261-0.499-0.683-0.005-0.942
								s1.297-0.258,1.793,0.003C184.572,124.293,184.575,124.715,184.081,124.974z"/>
						</g>
					</g>
					
						<radialGradient id="SVGID_12_" cx="492.8438" cy="424.0654" r="6.8821" gradientTransform="matrix(0.374 0 0 0.3401 -2.0308 -21.021)" gradientUnits="userSpaceOnUse">
						<stop  offset="0" style="stop-color:#C48350"/>
						<stop  offset="0.203" style="stop-color:#9A653D"/>
						<stop  offset="0.412" style="stop-color:#7A5030"/>
						<stop  offset="0.6176" style="stop-color:#664227"/>
						<stop  offset="0.8163" style="stop-color:#5B3A21"/>
						<stop  offset="1" style="stop-color:#58381F"/>
					</radialGradient>
					<ellipse fill="url(#SVGID_12_)" cx="183.181" cy="123.944" rx="2.252" ry="2.048"/>
				</g>
				<g>
					<g>
						<g>
							<path fill="#AC433E" d="M176.175,156.537l-3.124,8.735c0,0-0.547,3.551,1.562,6.676l1.796-1.775l4.295-17.399
								L176.175,156.537z"/>
						</g>
						<g>
							<path fill="#AC433E" d="M187.109,152.986c0,0,0.101,2.37-3.888,2.113l1.777-5.273L187.109,152.986z"/>
						</g>
						<path fill="#C75452" d="M184.766,177.097l-0.107,0.195l-2.882-4.314l-4.587-0.426h-1.64v1.029c0,0,1.679,6.64,5.741,10.12
							C181.291,183.701,186.484,180.47,184.766,177.097z"/>
						<path fill="#C64F4A" d="M185.079,177.753c0,0-4.628-5.646-11.013-4.527l6.003-21.358l5.009-0.746V177.753z"/>
						<path fill="#C75452" d="M183.36,127.491l3.749,25.495c-0.254-0.152-0.539-0.264-0.824-0.355
							c-0.882-0.281-1.842-0.33-2.758-0.167c-1.553,0.275-2.907,1.121-4.015,2.118c-1.968,1.771-3.221,4.002-4.408,6.244
							c-0.212,0.401-0.424,0.801-0.626,1.206c-0.343,0.688-0.657,1.387-0.942,2.096c-0.243,0.603-0.547,1.267-0.508,1.924
							c-0.06-1.027,0.083-2.008,0.336-3.009c0.114-0.451,0.234-0.9,0.362-1.348c0.259-0.911,1.58-5.186,1.713-5.699
							c0.455-1.759,0.91-3.517,1.367-5.275c0.481-1.853,0.965-3.706,1.45-5.558c0.467-1.784,0.937-3.567,1.41-5.35
							c0.412-1.552,0.826-3.103,1.247-4.653c0.314-1.157,0.63-2.313,0.96-3.466c0.171-0.597,0.325-1.207,0.551-1.789
							C183.36,127.491,183.36,127.491,183.36,127.491z"/>
					</g>
				</g>
			</g>
		</g>
		<g>
			<g>
				<g>
					<g>
						<g>
							<linearGradient id="SVGID_13_" gradientUnits="userSpaceOnUse" x1="211.3809" y1="228.6846" x2="228.5654" y2="228.6846">
								<stop  offset="0" style="stop-color:#96643C"/>
								<stop  offset="0.0558" style="stop-color:#9A673E"/>
								<stop  offset="0.1308" style="stop-color:#A86F43"/>
								<stop  offset="0.2164" style="stop-color:#BD7D4C"/>
								<stop  offset="0.2441" style="stop-color:#C48350"/>
								<stop  offset="0.3976" style="stop-color:#9A653D"/>
								<stop  offset="0.5555" style="stop-color:#7A5030"/>
								<stop  offset="0.711" style="stop-color:#664227"/>
								<stop  offset="0.8611" style="stop-color:#5B3A21"/>
								<stop  offset="1" style="stop-color:#58381F"/>
							</linearGradient>
							<path fill="url(#SVGID_13_)" d="M228.499,227.676c-0.226-0.971-1.048-1.912-2.47-2.658c-3.365-1.768-8.806-1.775-12.15-0.02
								c-1.33,0.697-2.127,1.57-2.395,2.479l-0.104-0.008v1.711l0.002-0.001c0.017,1.147,0.861,2.294,2.534,3.173
								c3.366,1.768,8.806,1.775,12.151,0.02c1.61-0.846,2.439-1.946,2.492-3.059l0.002,0.002v-0.063
								c0.001-0.036,0.002-0.071,0-0.106l0.003-1.561L228.499,227.676z"/>
							<path fill="#D8915A" d="M226.068,230.668c-3.346,1.756-8.785,1.747-12.151-0.02c-3.366-1.768-3.384-4.623-0.038-6.379
								c3.345-1.756,8.785-1.748,12.15,0.02C229.396,226.056,229.412,228.912,226.068,230.668z"/>
							<path fill="#D8915A" d="M226.064,230.67c-0.061,0.035-0.128,0.062-0.188,0.09h-5.483v-7.787
								c2.05,0.055,4.063,0.492,5.633,1.318C229.398,226.054,229.414,228.915,226.064,230.67z"/>
						</g>
						<g>
							<linearGradient id="SVGID_14_" gradientUnits="userSpaceOnUse" x1="213.041" y1="226.7441" x2="226.9063" y2="226.7441">
								<stop  offset="0" style="stop-color:#96643C"/>
								<stop  offset="0.0558" style="stop-color:#9A673E"/>
								<stop  offset="0.1308" style="stop-color:#A86F43"/>
								<stop  offset="0.2164" style="stop-color:#BD7D4C"/>
								<stop  offset="0.2441" style="stop-color:#C48350"/>
								<stop  offset="0.3976" style="stop-color:#9A653D"/>
								<stop  offset="0.5555" style="stop-color:#7A5030"/>
								<stop  offset="0.711" style="stop-color:#664227"/>
								<stop  offset="0.8611" style="stop-color:#5B3A21"/>
								<stop  offset="1" style="stop-color:#58381F"/>
							</linearGradient>
							<path fill="url(#SVGID_14_)" d="M226.852,225.931c-0.182-0.783-0.844-1.542-1.992-2.145
								c-2.715-1.426-7.104-1.433-9.803-0.017c-1.074,0.563-1.717,1.268-1.933,2.001l-0.083-0.007v1.381l0.001-0.002
								c0.014,0.927,0.695,1.852,2.045,2.561c2.716,1.426,7.104,1.433,9.804,0.016c1.299-0.682,1.969-1.57,2.011-2.467l0.002,0.001
								v-0.052c0.001-0.028,0.001-0.057,0.001-0.086l0.002-1.258L226.852,225.931z"/>
							<path fill="#D8915A" d="M224.891,228.345c-2.699,1.417-7.088,1.409-9.804-0.017c-2.716-1.425-2.729-3.729-0.03-5.146
								c2.698-1.416,7.088-1.409,9.803,0.017C227.576,224.624,227.589,226.928,224.891,228.345z"/>
							<path fill="#D8915A" d="M225.396,228.055h-5.243v-5.922c1.705,0.021,3.396,0.376,4.71,1.066
								C227.394,224.531,227.574,226.627,225.396,228.055z"/>
						</g>
						<g>
							<linearGradient id="SVGID_15_" gradientUnits="userSpaceOnUse" x1="214.8066" y1="225.0498" x2="225.1387" y2="225.0498">
								<stop  offset="0" style="stop-color:#96643C"/>
								<stop  offset="0.0558" style="stop-color:#9A673E"/>
								<stop  offset="0.1308" style="stop-color:#A86F43"/>
								<stop  offset="0.2164" style="stop-color:#BD7D4C"/>
								<stop  offset="0.2441" style="stop-color:#C48350"/>
								<stop  offset="0.3976" style="stop-color:#9A653D"/>
								<stop  offset="0.5555" style="stop-color:#7A5030"/>
								<stop  offset="0.711" style="stop-color:#664227"/>
								<stop  offset="0.8611" style="stop-color:#5B3A21"/>
								<stop  offset="1" style="stop-color:#58381F"/>
							</linearGradient>
							<path fill="url(#SVGID_15_)" d="M225.1,224.443c-0.136-0.584-0.63-1.149-1.484-1.599c-2.024-1.063-5.295-1.067-7.307-0.012
								c-0.8,0.419-1.278,0.944-1.439,1.491l-0.063-0.006v1.029l0.001-0.001c0.011,0.69,0.519,1.38,1.524,1.907
								c2.023,1.063,5.295,1.068,7.306,0.013c0.969-0.509,1.467-1.171,1.499-1.839l0.001,0.001v-0.038
								c0.001-0.021,0.001-0.043,0.001-0.064v-0.938L225.1,224.443z"/>
							<path fill="#D8915A" d="M223.638,226.242c-2.011,1.056-5.282,1.051-7.306-0.012s-2.035-2.779-0.023-3.836
								c2.012-1.056,5.282-1.051,7.307,0.012C225.639,223.469,225.648,225.187,223.638,226.242z"/>
							<path fill="#D8915A" d="M225.027,224.893h-5.055v-2.309h3.951C224.975,223.246,225.344,224.1,225.027,224.893z"/>
						</g>
						<g>
							<linearGradient id="SVGID_16_" gradientUnits="userSpaceOnUse" x1="218.2158" y1="179.7939" x2="221.7305" y2="179.7939">
								<stop  offset="0" style="stop-color:#96643C"/>
								<stop  offset="0.0558" style="stop-color:#9A673E"/>
								<stop  offset="0.1308" style="stop-color:#A86F43"/>
								<stop  offset="0.2164" style="stop-color:#BD7D4C"/>
								<stop  offset="0.2441" style="stop-color:#C48350"/>
								<stop  offset="0.3976" style="stop-color:#9A653D"/>
								<stop  offset="0.5555" style="stop-color:#7A5030"/>
								<stop  offset="0.711" style="stop-color:#664227"/>
								<stop  offset="0.8611" style="stop-color:#5B3A21"/>
								<stop  offset="1" style="stop-color:#58381F"/>
							</linearGradient>
							<path fill="url(#SVGID_16_)" d="M221.717,135.512c-0.046-0.199-0.214-0.391-0.504-0.544
								c-0.689-0.361-1.803-0.363-2.486-0.004c-0.271,0.143-0.436,0.321-0.49,0.507l-0.021-0.001v88.501h0.001
								c0.002,0.234,0.176,0.469,0.518,0.648c0.688,0.361,1.801,0.364,2.485,0.005c0.329-0.173,0.499-0.398,0.511-0.626v0.001
								v-0.013c0-0.008,0-0.016,0-0.022v-88.471L221.717,135.512z"/>
							<path fill="#D8915A" d="M221.22,136.124c-0.685,0.359-1.797,0.357-2.485-0.004s-0.691-0.946-0.008-1.305
								c0.684-0.359,1.797-0.357,2.486,0.004C221.9,135.181,221.904,135.765,221.22,136.124z"/>
						</g>
					</g>
					<g>
						<g>
							<linearGradient id="SVGID_17_" gradientUnits="userSpaceOnUse" x1="218.7051" y1="134.4043" x2="221.2422" y2="134.4043">
								<stop  offset="0" style="stop-color:#96643C"/>
								<stop  offset="0.0558" style="stop-color:#9A673E"/>
								<stop  offset="0.1308" style="stop-color:#A86F43"/>
								<stop  offset="0.2164" style="stop-color:#BD7D4C"/>
								<stop  offset="0.2441" style="stop-color:#C48350"/>
								<stop  offset="0.3976" style="stop-color:#9A653D"/>
								<stop  offset="0.5555" style="stop-color:#7A5030"/>
								<stop  offset="0.711" style="stop-color:#664227"/>
								<stop  offset="0.8611" style="stop-color:#5B3A21"/>
								<stop  offset="1" style="stop-color:#58381F"/>
							</linearGradient>
							<path fill="url(#SVGID_17_)" d="M221.232,133.434c-0.033-0.143-0.154-0.282-0.365-0.392c-0.496-0.261-1.3-0.262-1.793-0.003
								c-0.197,0.104-0.314,0.232-0.354,0.366l-0.016-0.001v1.896v0c0.002,0.169,0.127,0.339,0.375,0.468
								c0.496,0.261,1.299,0.262,1.793,0.003c0.238-0.125,0.36-0.287,0.368-0.451l0,0v-0.009c0-0.005,0-0.011,0-0.016l0.001-1.874
								L221.232,133.434z"/>
							<path fill="#D8915A" d="M220.873,133.875c-0.494,0.259-1.297,0.258-1.793-0.003c-0.498-0.261-0.5-0.683-0.006-0.942
								c0.493-0.259,1.297-0.258,1.793,0.003C221.364,133.194,221.367,133.616,220.873,133.875z"/>
						</g>
					</g>
					
						<radialGradient id="SVGID_18_" cx="591.2148" cy="450.2383" r="6.8833" gradientTransform="matrix(0.374 0 0 0.3401 -2.0308 -21.021)" gradientUnits="userSpaceOnUse">
						<stop  offset="0" style="stop-color:#C48350"/>
						<stop  offset="0.203" style="stop-color:#9A653D"/>
						<stop  offset="0.412" style="stop-color:#7A5030"/>
						<stop  offset="0.6176" style="stop-color:#664227"/>
						<stop  offset="0.8163" style="stop-color:#5B3A21"/>
						<stop  offset="1" style="stop-color:#58381F"/>
					</radialGradient>
					<ellipse fill="url(#SVGID_18_)" cx="219.973" cy="132.845" rx="2.252" ry="2.048"/>
				</g>
				<g>
					<g>
						<path fill="#24357C" d="M212.967,165.438l-3.124,8.735c0,0-0.547,3.551,1.562,6.675l1.797-1.775l4.296-17.399L212.967,165.438
							z"/>
						<path fill="#24357C" d="M223.901,161.887c0,0,0.101,2.37-3.888,2.113l1.777-5.273L223.901,161.887z"/>
						<path fill="#3E5098" d="M221.559,185.998l-0.107,0.195l-2.883-4.314l-4.586-0.426h-1.641v1.03c0,0,1.68,6.64,5.74,10.12
							C218.082,192.602,223.276,189.371,221.559,185.998z"/>
						<path fill="#304390" d="M221.871,186.655c0,0-4.628-5.646-11.013-4.528l6.003-21.358l5.01-0.746V186.655z"/>
						<path fill="#3E5098" d="M220.152,136.392l3.749,25.495c-0.254-0.151-0.539-0.263-0.825-0.354
							c-0.881-0.281-1.841-0.33-2.757-0.167c-1.553,0.275-2.907,1.121-4.015,2.118c-1.968,1.771-3.221,4.002-4.408,6.245
							c-0.212,0.4-0.424,0.801-0.625,1.206c-0.344,0.687-0.658,1.386-0.943,2.095c-0.242,0.603-0.547,1.267-0.508,1.924
							c-0.061-1.027,0.082-2.008,0.336-3.009c0.113-0.45,0.234-0.899,0.361-1.347c0.259-0.912,1.58-5.187,1.713-5.7
							c0.455-1.759,0.91-3.517,1.367-5.275c0.482-1.853,0.965-3.705,1.45-5.558c0.468-1.784,0.937-3.567,1.409-5.35
							c0.412-1.552,0.826-3.104,1.246-4.653c0.314-1.157,0.631-2.313,0.961-3.466c0.171-0.597,0.324-1.207,0.551-1.79
							C220.152,136.392,220.152,136.392,220.152,136.392z"/>
					</g>
				</g>
			</g>
		</g>
		<g>
			<g>
				<g>
					<path fill="#F0D8CB" d="M170.955,202.177c0.057,0.069,0.115,0.142,0.197,0.185c0.072,0.039,0.157,0.053,0.241,0.062
						c0.562,0.06,1.146-0.091,1.59-0.408c0.444-0.317,0.744-0.798,0.814-1.307c0.011-0.078,0.016-0.158-0.007-0.233
						c-0.023-0.075-0.073-0.141-0.123-0.205c-0.597-0.772-1.193-1.546-1.79-2.319c-0.101,0.652-0.436,1.333-1.09,1.616
						c-0.531,0.229-1.519,0.321-1.108,1.089c0.106,0.198,0.322,0.355,0.469,0.529C170.426,201.51,170.687,201.846,170.955,202.177z"
						/>
					<path fill="#3E4875" d="M190.778,190.465c-0.389,0.389-0.758,0.804-1.088,1.237c-0.312,0.397-0.379,0.786-0.496,1.246
						c-0.088,0.354-0.224,0.689-0.321,1.034c-0.166,0.565-0.331,1.131-0.457,1.705c0,0.009,0,0.026-0.009,0.035
						c-0.253,1.255-0.224,2.527-0.253,3.799c-0.01,0.177-0.019,0.335-0.039,0.495c0,0.027,0,0.053-0.01,0.08
						c-0.029,0.283-0.048,0.557,0.039,0.884c0.146,0.609,0.156,1.051-0.048,1.661c-0.175,0.494-0.437,0.971-0.758,1.396
						c-0.029,0.054-0.068,0.106-0.107,0.15c-0.632,0.795-1.448,1.458-2.293,2.085c-0.846,0.627-1.72,1.219-2.682,1.679
						c-0.855,0.406-2.206,0.972-3.177,0.733c-1.059-0.256-2.021-0.83-2.905-1.396c-1.283-0.813-2.497-1.723-3.614-2.703
						c-0.554-0.486-1.108-0.98-1.604-1.511c-0.408-0.433-0.962-0.954-1.176-1.502c-0.068-0.168-0.233-0.786,0.175-0.663
						c0.175,0.053,0.282,0.363,0.447,0.468c0.213,0.15,0.496,0.221,0.768,0.177c0.048-0.009,0.087-0.018,0.136-0.026
						c0.136-0.045,0.272-0.106,0.389-0.178c0.437-0.273,0.719-0.706,0.865-1.166c0.165-0.521,0.213-1.025-0.156-1.484
						c0.097,0.036,0.952,0.557,1.263,0.76c0.35,0.239,0.7,0.468,1.059,0.689c0.729,0.441,1.467,0.857,2.225,1.254
						c0.583,0.292,1.176,0.574,1.778,0.849c0.496,0.211,0.641,0.361,1.175,0.115c0.331-0.143,0.496-0.311,0.7-0.593
						c0.603-0.804,1.146-1.634,1.652-2.492c0.777-1.298,1.477-2.624,2.196-3.949c0.457-0.822,0.884-1.679,1.497-2.42
						c0.447-0.53,0.991-0.999,1.603-1.378C188.514,190.942,189.622,190.572,190.778,190.465z"/>
					<path fill="#575E7D" d="M188.417,195.908c0.01,1.378-0.097,2.748-0.301,4.108c0,0.027,0,0.053-0.01,0.08
						c-0.184,1.325-0.457,2.633-0.767,3.94c-0.029,0.054-0.068,0.106-0.107,0.15c-0.632,0.795-1.448,1.458-2.293,2.085
						c-0.846,0.627-1.72,1.219-2.682,1.679c-0.855,0.406-2.206,0.972-3.177,0.733c-1.059-0.256-2.021-0.83-2.905-1.396
						c-1.283-0.813-2.497-1.723-3.614-2.703c-0.554-0.486-1.108-0.98-1.604-1.511c-0.408-0.433-0.962-0.954-1.176-1.502
						c-0.068-0.168-0.233-0.786,0.175-0.663c0.175,0.053,0.282,0.363,0.447,0.468c0.213,0.15,0.496,0.221,0.768,0.177
						c0.048-0.009,0.087-0.018,0.136-0.026c1.147,1.033,2.303,2.066,3.45,3.102c0.758,0.68,1.525,1.359,2.429,1.873
						c0.904,0.503,1.973,0.82,3.022,0.706c1.516-0.177,2.73-1.21,3.721-2.263c0.632-0.67,1.283-1.404,1.613-2.243
						c0.34-0.866,0.418-1.803,0.447-2.721c0-0.062,0-0.124,0.009-0.186c0.039-1.944-0.126-3.914,0.331-5.805
						c0.117-0.513,0.292-1.034,0.67-1.422c0.563,0.167,0.962,0.875,1.137,1.343c0.213,0.583,0.262,1.202,0.272,1.811
						C188.417,195.784,188.417,195.846,188.417,195.908z"/>
					<path fill="#4D4D4D" d="M199.785,254.211c-0.029,0.15-0.078,0.3-0.165,0.433c-0.117,0.194-0.301,0.362-0.505,0.495
						c-1.292,0.856-3.138,0.68-4.499,1.448c-0.651,0.371-1.147,0.937-1.671,1.449c-0.603,0.583-1.312,1.131-2.177,1.272
						c-0.185,0.025-0.369,0.044-0.554,0.035c-0.194,0-0.389-0.018-0.573-0.053c-0.292-0.045-0.593-0.124-0.845-0.283
						c-0.884-0.574-0.836-1.775-0.321-2.535c1.166-1.715,3.731-2.254,4.994-3.905c0.059-0.08,0.107-0.15,0.166-0.229
						c0.048-0.08,0.097-0.16,0.155-0.238c0.058-0.098,0.126-0.204,0.194-0.311c0.525-0.795,1.292-1.184,2.313-1.174
						c0.797,0,1.623,0.229,2.167,0.777c0.408,0.406,0.875,0.707,1.137,1.236C199.843,253.115,199.912,253.681,199.785,254.211z"/>
					<path fill="#4D4D4D" d="M199.785,254.211c-0.029,0.15-0.078,0.3-0.165,0.433c-0.117,0.194-0.301,0.362-0.505,0.495
						c-1.292,0.856-3.138,0.68-4.499,1.448c-0.651,0.371-1.147,0.937-1.671,1.449c-0.603,0.583-1.312,1.131-2.177,1.272
						c-0.185,0.025-0.369,0.044-0.554,0.035c0.369-0.212,0.709-0.459,1.02-0.733c0.729-0.636,1.292-1.405,2.07-1.988
						c1.088-0.821,2.556-1.255,3.372-2.314c0.321-0.415,0.496-1.042,0.107-1.413c-0.408-0.389-1.117-0.23-1.71-0.266
						c-0.418-0.035-0.943-0.221-1.283-0.529c0.058-0.098,0.126-0.204,0.194-0.311c0.525-0.795,1.292-1.184,2.313-1.174
						c0.797,0,1.623,0.229,2.167,0.777c0.408,0.406,0.875,0.707,1.137,1.236C199.843,253.115,199.912,253.681,199.785,254.211z"/>
					<path fill="#4D4D4D" d="M203.487,256.676c-0.263,0.186-0.563,0.326-0.807,0.539c-0.359,0.3-0.554,0.732-0.787,1.131
						c-1.03,1.758-3.012,3.03-5.169,3.348c-0.272,0.045-0.554,0.07-0.826,0.08c-0.845,0.035-1.759-0.159-2.38-0.707
						c-0.466-0.416-0.049-1.307,0.223-1.732c0.749-1.139,1.836-2.066,2.857-3.029c0.418-0.398,0.835-0.795,1.205-1.229
						c0.146-0.159,0.272-0.344,0.408-0.529c0.787-1.141,1.428-2.536,3.246-2.236c0.359,0.063,0.709,0.186,1.02,0.371
						c0.146,0.08,0.243,0.142,0.398,0.178c0.02,0,0.039,0.008,0.059,0.018c0.719,0.193,1.029,1.271,1.156,1.855
						C204.226,255.43,204.148,256.225,203.487,256.676z"/>
					<path fill="#4D4D4D" d="M203.487,256.676c-0.263,0.186-0.563,0.326-0.807,0.539c-0.359,0.3-0.554,0.732-0.787,1.131
						c-1.03,1.758-3.012,3.03-5.169,3.348c1.467-1.024,2.721-2.306,3.692-3.736c0.233-0.346,0.447-0.689,0.603-1.061
						c0.126-0.283,0.369-0.786,0.281-1.096c-0.155-0.521-1.127-0.53-1.583-0.645c-0.418-0.115-0.826-0.248-1.225-0.424
						c-0.087-0.036-0.185-0.107-0.282-0.186c0.787-1.141,1.428-2.536,3.246-2.236c0.359,0.063,0.709,0.186,1.02,0.371
						c0.146,0.08,0.243,0.142,0.398,0.178c0.02,0,0.039,0.008,0.059,0.018c0.719,0.193,1.029,1.271,1.156,1.855
						C204.226,255.43,204.148,256.225,203.487,256.676z"/>
					<path fill="#3E4875" d="M198.969,250.933c0,0.036,0,0.062-0.009,0.089c-0.01,0.025-0.039,0.053-0.068,0.07
						c-0.534,0.38-1.117,0.725-1.749,0.945c-0.155,0.053-0.32,0.105-0.486,0.141c-0.826,0.186-1.749,0.125-2.458-0.3
						c-0.087-0.044-0.165-0.097-0.214-0.177c-0.058-0.07-0.078-0.158-0.087-0.247c-0.107-0.539-0.107-1.078-0.194-1.608
						c-0.029-0.229-0.068-0.45-0.107-0.68c-0.126-0.805-0.263-1.608-0.398-2.412c-0.185-1.087-0.369-2.174-0.554-3.26
						c-0.204-1.229-0.418-2.447-0.631-3.676c-0.205-1.229-0.418-2.457-0.632-3.676c-0.185-1.086-1.118-6.449-1.195-6.83
						c-0.369-1.793-0.68-3.604-0.835-5.406c-0.146-1.732-0.155-3.463,0.068-5.195c0.01-0.053,0.029-0.115,0.078-0.133
						c0.049-0.025,0.107-0.008,0.156,0.018c0.602,0.248,1.088,0.08,1.729,0.239c1.137,0.282,2.069,1.069,2.682,1.987
						c0.612,0.91,0.942,1.953,1.234,2.996c0.651,2.376,1.069,4.788,1.37,7.218c0.156,1.22,0.282,2.438,0.389,3.657
						c0.059,0.593,0.126,1.193,0.156,1.785c0.019,0.354,0.107,1.299-0.087,1.617c-0.049,0.079-0.126,0.141-0.214,0.194
						c0.165,0.247,0.32,0.494,0.457,0.751c0.311,0.565,0.554,1.157,0.797,1.749c0.146,0.362,0.233,0.671,0.252,1.052
						c0.029,0.424,0.194,0.848,0.224,1.281c0.078,0.909-0.039,1.828-0.126,2.738c-0.048,0.469-0.087,0.928-0.117,1.396
						c-0.029,0.379,0.029,0.725,0.097,1.113C198.619,249.228,198.881,250.066,198.969,250.933z"/>
					<path fill="#575E7D" d="M198.969,250.933c0,0.036,0,0.062-0.009,0.089c-0.01,0.025-0.039,0.053-0.068,0.07
						c-0.534,0.38-1.117,0.725-1.749,0.945c-1.555-8.119-1.574-16.478-3.604-24.518c-0.185-0.75-0.428-1.537-1.05-2.066
						c-0.952-0.805-2.235-0.885-3.138-1.547c-0.146-1.732-0.155-3.463,0.068-5.195c0.01-0.053,0.029-0.115,0.078-0.133
						c0.049-0.025,0.107-0.008,0.156,0.018c0.602,0.248,1.088,0.08,1.729,0.239c1.137,0.282,2.069,1.069,2.682,1.987
						c0.612,0.91,0.942,1.953,1.234,2.996c0.651,2.376,1.069,4.788,1.37,7.218c0.156,1.22,0.282,2.438,0.389,3.657
						c0.059,0.593,0.126,1.193,0.156,1.785c0.019,0.354,0.107,1.299-0.087,1.617c-0.049,0.079-0.126,0.141-0.214,0.194
						c0.165,0.247,0.32,0.494,0.457,0.751c0.311,0.565,0.554,1.157,0.797,1.749c0.146,0.362,0.233,0.671,0.252,1.052
						c0.029,0.424,0.194,0.848,0.224,1.281c0.078,0.909-0.039,1.828-0.126,2.738c-0.048,0.469-0.087,0.928-0.117,1.396
						c-0.029,0.379,0.029,0.725,0.097,1.113C198.619,249.228,198.881,250.066,198.969,250.933z"/>
					<path fill="#3E4875" d="M205.975,224.622c-0.155,3.339-1.408,22.308-1.584,24.544c-0.107,1.299-0.262,2.57-0.35,3.869
						c-0.059,0.557-0.059,0.938-0.583,1.29c-0.116,0.079-0.233,0.15-0.351,0.222c-0.154,0.097-0.32,0.186-0.494,0.246
						c-0.39,0.15-0.816,0.178-1.234,0.186c-0.836,0.01-1.71-0.097-2.419-0.512c-0.214-0.124-0.564-0.336-0.67-0.557
						c-0.098-0.194-0.059-0.521-0.078-0.733c-0.204-2.447-0.612-4.868-0.816-7.315c-0.146-1.785-1.506-12.271-2.448-19.702
						c-0.418-3.322-0.758-6.034-0.875-7.095c0.194,0.937,1.176,2.05,2.147,2.156c1.564,0.176,3.372,0.079,4.946,0
						c0.854-0.053,1.72-0.159,2.546-0.371c0.35-0.088,1.681-0.84,1.973-0.752c0.029,0.01,0.048,0.019,0.067,0.036
						C206.324,220.566,206.004,224.012,205.975,224.622z"/>
					<path fill="#575E7D" d="M205.975,224.622c-0.155,3.339-1.408,22.308-1.584,24.544c-0.107,1.299-0.262,2.57-0.35,3.869
						c-0.059,0.557-0.059,0.938-0.583,1.29c-0.116,0.079-0.233,0.15-0.351,0.222c-0.174-8.5,1.449-17.053,0.545-25.525
						c-0.039-0.361-0.098-0.742-0.33-1.033c-0.447-0.584-1.361-0.602-2.138-0.619c-2.147-0.053-4.247-0.486-6.238-1.21
						c-0.418-3.322-0.758-6.034-0.875-7.095c0.194,0.937,1.176,2.05,2.147,2.156c1.564,0.176,3.372,0.079,4.946,0
						c0.854-0.053,1.72-0.159,2.546-0.371c0.35-0.088,1.681-0.84,1.973-0.752c0.029,0.01,0.048,0.019,0.067,0.036
						C206.324,220.566,206.004,224.012,205.975,224.622z"/>
					<path fill="#F2F2F2" d="M209.638,198.135v0.026c-0.175,0.927-0.389,1.846-0.622,2.756c-0.01,0.009-0.01,0.009-0.01,0.009
						c-0.428,1.626-0.933,3.243-1.379,4.877c-0.176,0.645-0.341,1.298-0.486,1.943c-0.506,2.155-0.855,4.312-0.942,6.521
						c-0.126,2.906,0.067,5.805,0.224,8.702c0,0.124,0.01,0.265-0.039,0.389c-0.059,0.133-0.185,0.239-0.301,0.336
						c-0.418,0.354-0.846,0.716-1.332,0.972c-0.631,0.336-1.359,0.504-2.079,0.628c-2.691,0.477-5.539,0.397-8.152-0.31
						c-1.409-0.381-2.75-0.955-3.964-1.715c-0.321-0.202-0.632-0.424-0.816-0.732c-0.136-0.221-0.194-0.469-0.243-0.716
						c-0.185-0.901-0.427-1.891-0.213-2.792c0.233-0.972,0.087-2.059,0.039-3.048c-0.087-2.19-0.272-4.382-0.505-6.573
						c-0.33-3.154-1.02-6.299-1.554-9.436c-0.088-0.539-0.185-1.087-0.282-1.634c-0.194-1.158-0.388-2.315-0.417-3.49
						c-0.02-0.989-0.078-2.262,0.816-2.986c0.34-0.273,0.816-0.433,1.264-0.556c1.253-0.362,2.526-0.68,3.809-0.963
						c0.651-0.141,1.302-0.273,1.953-0.389c0.865-0.141,1.661-0.521,2.478-0.804c0.389-0.142,0.845-0.318,1.273-0.345
						c0.243-0.018,0.515,0.071,0.768,0.168c0.155,0.062,0.311,0.124,0.457,0.168c0.544,0.185,1.088,0.397,1.623,0.645
						c0.204,0.088,0.409,0.177,0.602,0.274c0.389,0.186,0.768,0.389,1.146,0.592c0.02,0.018,0.039,0.026,0.059,0.035
						c0.049,0.026,0.088,0.053,0.137,0.08c0.553,0.38,1.088,0.769,1.632,1.157c0.826,0.592,4.276,3.305,4.646,3.667l0.058,0.053
						c0.097,0.124,0.194,0.274,0.282,0.415C209.998,196.8,209.793,197.348,209.638,198.135z"/>
					<path fill="#FCFBFB" d="M201.702,200.738c0.26,0.06,0.52,0.121,0.778,0.183c-0.122,0.848-0.32,1.687-0.437,2.538
						c-0.062,0.463-0.108,0.928-0.146,1.393c-0.031,0.395-0.263,0.606-0.623,0.818c-0.583,0.342-1.197,0.656-1.867,0.822
						c-0.67,0.165-1.407,0.172-2.04-0.088c-0.364-0.148-0.679-0.377-0.988-0.606c-0.348-0.258-0.702-0.513-1.036-0.784
						c-0.305-0.25-0.09-0.809-0.044-1.135c0.067-0.48,0.155-0.96,0.263-1.436c0.159-0.705,0.363-1.402,0.608-2.087
						c0.059-0.163,0.113-0.33,0.184-0.489c0.089-0.199,0.082-0.174,0.287-0.125c0.358,0.086,0.728,0.14,1.094,0.203
						C199.068,200.174,200.39,200.438,201.702,200.738z"/>
					<path fill="#2F3659" d="M210.191,197.666c-0.02,0.433,0,0.848-0.107,1.272c-0.174,0.715-0.611,1.36-1.078,1.988
						c-0.068,0.088-0.126,0.167-0.193,0.256c-0.244,0.317-0.486,0.636-0.729,0.954c-0.389,0.504-0.407,1.192-0.495,1.785
						c-0.068,0.459-0.137,0.928-0.205,1.396c-0.028,0.221-0.048,0.441-0.077,0.663c-0.067,0.592-0.116,1.174-0.165,1.766
						c-0.194,2.324-0.252,4.656-0.311,6.98c0,0.123,0,0.248-0.01,0.362c-0.059,2.995-0.117,5.99-0.34,8.968
						c-0.02,0.256-0.01,0.592-0.195,0.813c-0.087,0.105-0.223,0.177-0.359,0.23c-1.359,0.627-2.837,1.051-4.353,1.236
						c-1.225,0.15-2.468,0.15-3.692-0.01c-0.515-0.061-1.03-0.158-1.516-0.316c-0.437-0.133-0.845-0.318-1.234-0.539
						c-0.389-0.23-0.651-0.354-0.651-0.796c-0.166-3.64,0.097-7.28,0.35-10.911c0.165-2.254,0.33-4.532,0.622-6.795
						c0.01-0.123,0.029-0.246,0.049-0.379c0.534-4.1,1.486-8.128,3.498-11.813c0.593-1.086,1.273-2.156,1.681-3.322
						c0.185-0.548,0.32-1.096,0.32-1.67c0-0.097,0-0.186-0.009-0.283c0.059,0.044,0.106,0.08,0.165,0.115
						c0.379,0.274,0.806,0.477,1.204,0.742c0.195,0.133,0.389,0.265,0.584,0.407c0.029,0.018,0.049,0.035,0.078,0.053
						c0.524,0.362,1.039,0.733,1.554,1.104c0.826,0.592,4.276,3.304,4.646,3.667l0.058,0.053c0.272,0.274,0.534,0.557,0.729,0.884
						C210.23,196.924,210.201,197.251,210.191,197.666z"/>
					<path fill="#575E7D" d="M207.441,200.767c-0.049,1.52-0.067,3.03-0.059,4.55c-0.028,0.221-0.048,0.441-0.077,0.663
						c-0.067,0.592-0.116,1.174-0.165,1.766c-0.194,2.324-0.252,4.656-0.311,6.98c0,0.123,0,0.248-0.01,0.362
						c-0.059,2.995-0.117,5.99-0.34,8.968c-0.02,0.256-0.01,0.592-0.195,0.813c-0.087,0.105-0.223,0.177-0.359,0.23
						c-1.359,0.627-2.837,1.051-4.353,1.236c0.028-8.093-0.748-16.273,1.583-24.049c0.408-1.388,0.865-3.923,2.188-4.859
						C207.189,196.138,207.461,199.928,207.441,200.767z"/>
					<polygon fill="#3E4875" points="202.274,203.822 197.476,201.668 197.682,200.546 202.48,202.699 					"/>
					<path fill="#575E7D" d="M204.488,195.033c0,0.044,0,0.097-0.02,0.15c-0.127,0.283-0.525,0.574-0.738,0.813
						c-0.253,0.283-0.506,0.565-0.768,0.848c-0.506,0.565-1.002,1.14-1.486,1.723c-0.739,0.866-1.449,1.75-2.138,2.642
						c-0.807,1.051-1.604,2.085-2.313,3.189c-0.078,0.115-0.166,0.238-0.243,0.354c-0.058,0.098-0.126,0.176-0.185,0.273
						c-0.059,0.106-0.126,0.203-0.185,0.31c-0.136,0.203-0.272,0.406-0.408,0.609c-0.204,0.292-0.292,0.628-0.496,0.928
						c-0.02,0.026-0.048,0.062-0.058,0.097c-0.01,0.01-0.01,0.01-0.01,0.019c0.01-0.133,0.039-0.265,0.059-0.397
						c0.058-0.274,0.126-0.549,0.165-0.831c0.048-0.292,0.087-0.583,0.175-0.866c0.039-0.149,0.087-0.291,0.146-0.433
						c0.156-0.397,0.301-0.795,0.457-1.192c0.059-0.168,0.146-0.309,0.195-0.486c0.039-0.186,0.087-0.379,0.136-0.564
						c0.428-1.67,0.991-3.305,1.632-4.913c0.807-2.05,1.885-4.002,2.42-6.149c0.097-0.38,0.204-0.751,0.263-1.14
						c0.019-0.132,0.038-0.265,0.067-0.397c0.379,0.274,0.806,0.477,1.204,0.742c0.195,0.133,0.389,0.265,0.584,0.407
						c0.029,0.018,0.049,0.035,0.078,0.053c0.115,0.177,0.223,0.354,0.32,0.53c0.184,0.335,0.301,0.68,0.438,1.034
						c0.087,0.221,0.145,0.601,0.34,0.76c-0.603-0.495-1.438-0.751-2.244-0.689c0.193,0,0.66,0.45,0.796,0.556
						c0.272,0.212,0.524,0.433,0.768,0.672c0.233,0.238,0.456,0.495,0.661,0.751C204.226,194.6,204.459,194.813,204.488,195.033z"/>
					<path fill="#3E4875" d="M203.811,194.868c-0.027-0.213-0.256-0.43-0.383-0.593c-0.203-0.264-0.425-0.516-0.663-0.753
						c-0.238-0.238-0.493-0.463-0.763-0.672c-0.141-0.109-0.63-0.572-0.814-0.558c0.815-0.063,1.654,0.193,2.264,0.689
						c-0.199-0.162-0.258-0.54-0.346-0.76c-0.14-0.352-0.256-0.697-0.441-1.034c-0.4-0.725-0.93-1.47-1.533-2.066
						c-0.064-0.063-0.478-0.503-0.467-0.542c-0.117,0.419-0.179,0.85-0.248,1.277c-0.063,0.387-0.17,0.759-0.265,1.141
						c-0.531,2.141-1.609,4.093-2.423,6.146c-0.638,1.608-1.203,3.245-1.629,4.91c-0.411,1.61-0.722,3.279-0.643,4.937
						c0,0,0-0.009,0.01-0.035c0.338-0.921,0.581-1.846,1.048-2.726c0.596-1.121,1.36-2.161,2.147-3.178
						c0.694-0.896,1.407-1.779,2.141-2.649c0.489-0.58,0.986-1.154,1.492-1.721c0.253-0.284,0.509-0.566,0.765-0.847
						c0.217-0.235,0.613-0.527,0.732-0.814C203.813,194.97,203.816,194.919,203.811,194.868z"/>
					<path fill="#575E7D" d="M200.196,189.062c-0.189,0.546-0.457,0.984-0.87,1.42c-0.573,0.605-1.211,1.169-1.953,1.596
						s-1.596,0.715-2.474,0.74c0.104-0.002,0.397,0.15,0.483,0.208c0.104,0.07,0.192,0.197,0.272,0.29
						c0.154,0.176,0.281,0.371,0.377,0.578c0.099,0.213,0.166,0.439,0.197,0.669c0.015,0.115,0.022,0.231,0.019,0.347
						c-0.001,0.043,0.009,0.285-0.031,0.307c1.347-0.743,2.576-1.665,3.636-2.725c0.424-0.423,0.824-0.874,1.104-1.387
						c0.434-0.793,0.479-1.627,0.102-2.443c-0.164-0.352-0.421-0.664-0.612-1.004C200.425,188.127,200.349,188.61,200.196,189.062z"
						/>
					<path fill="#FCFBFB" d="M196.289,193.138l-0.665-1.303l-0.854,0.185c0,0-3.641,11.04-4.097,20.206l-0.36,10.496l1.519,1.118
						l0.36-10.495C192.648,204.179,196.289,193.138,196.289,193.138z"/>
					<polygon fill="#4D4D4D" points="194.892,192.287 195.748,192.617 196.336,193.62 195.324,194.678 194.383,194.314 
						194.034,192.838 					"/>
					<polygon fill="#4D4D4D" points="194.383,194.314 193.158,197.03 190.777,214.5 191.622,216.363 192.75,215.287 
						195.324,198.105 195.324,194.678 					"/>
					<path fill="#575E7D" d="M194.791,192.615c-0.149,0.161-0.298,0.324-0.417,0.505c-0.061,0.091-0.113,0.187-0.152,0.287
						c-0.036,0.09-0.093,0.172-0.115,0.266c-0.021,0.096-0.038,0.192-0.063,0.287c-0.013,0.05-0.032,0.166-0.09,0.193
						c-0.07,0.032-0.118-0.07-0.141-0.113c-0.239-0.453-0.526-0.924-0.679-1.408c-0.137-0.437-0.197-1.097,0.041-1.51
						c0.13-0.226,0.319-0.426,0.514-0.608c0.112-0.105,0.57-0.37,0.6-0.499c-0.128,0.557-0.087,1.146,0.117,1.684
						c0.064,0.169,0.135,0.331,0.283,0.45c0.137,0.111,0.293,0.23,0.491,0.177c-0.154,0.042-0.266,0.158-0.37,0.27
						C194.803,192.603,194.797,192.609,194.791,192.615z"/>
					<path fill="#2F3659" d="M186.499,198.445c-0.098-0.844-0.181-1.69-0.236-2.537c-0.052-0.808-0.13-1.651,0.035-2.453
						c0.016-0.08,0.037-0.16,0.061-0.238c0.175-0.563,0.572-1.055,1.06-1.436c0.488-0.382,1.063-0.659,1.656-0.887
						c0.708-0.272,1.446-0.478,2.193-0.644c0.375-0.083,0.752-0.157,1.13-0.224c0.193-0.034,0.392-0.057,0.583-0.099
						c0.092-0.021,0.243-0.118,0.302,0.009c0.032,0.069,0.002,0.148-0.031,0.216c-0.145,0.289-0.363,0.542-0.551,0.81
						c-0.457,0.652-0.699,1.396-0.828,2.15c-0.038,0.216-0.073,0.432-0.12,0.646c-0.562,2.548-1.124,5.102-1.364,7.691
						c-0.178,1.92-0.177,3.85-0.195,5.775c-0.021,2.244,0.207,9.977,0.201,11.121c-0.007,1.108-0.062,2.199-0.026,3.309
						c0.019,0.586,0.001,1.17,0.054,1.757c-0.92-0.368-1.997-1.312-2.1-2.249c-0.034-0.309-0.05-0.619-0.066-0.93
						C188.102,217.287,186.681,200.021,186.499,198.445z"/>
					<path fill="#3E4875" d="M188.685,191.867c0.549-0.134,1.142-0.116,1.68,0.051c-0.605,0.309-1.154,0.707-1.62,1.174
						c-0.068,0.068-0.135,0.139-0.173,0.224c-0.058,0.128-0.042,0.272-0.026,0.411c0.523,4.379,1.508,8.721,1.643,13.125
						c0.244-2.274,0.52-4.545,0.828-6.813c0.308-2.267,0.649-4.531,1.021-6.79c0.092-0.558,0.101-1.209,0.383-1.719
						c0.19-0.343,0.387-0.684,0.589-1.021c0.032-0.053-0.286-0.381-0.333-0.425c-0.128-0.123-0.279-0.212-0.456-0.265
						c-0.361-0.106-0.667,0.123-0.97,0.275C190.31,190.571,189.442,191.169,188.685,191.867z"/>
					<path fill="#F0D8CB" d="M201.029,190.139c-0.078,0.627-0.486,1.096-0.962,1.52c-0.554,0.486-1.224,0.866-1.943,1.113
						c-0.359,0.124-0.729,0.221-1.107,0.274c-0.428,0.062-0.583-0.044-0.875-0.318c-0.126-0.115-0.282-0.212-0.447-0.265
						c-0.146-0.071-0.301-0.115-0.466-0.15c-0.136-0.018-0.262-0.035-0.398-0.044c-0.175-0.009-0.37-0.009-0.505-0.106
						c-0.263-0.168-0.02-0.512-0.088-0.751c-0.068-0.247-0.301-0.433-0.573-0.53c-0.544-0.194-1.458-0.044-1.36-0.884
						c0.029-0.283,0.224-0.53,0.447-0.733c0.67-0.61,1.623-0.901,2.41-1.387c0.661-0.407,1.205-0.937,1.71-1.493
						c0.563-0.627,0.972-1.378,1.555-1.979c0.301-0.301,0.554-0.663,0.768-1.016c0.117-0.194,0.224-0.38,0.311-0.583
						c0.059-0.097,0.224-0.371,0.224-0.495c0.223,0.928,0.282,1.882,0.359,2.828c0.097,1.069,0.204,2.138,0.544,3.163
						c0.048,0.133,0.087,0.265,0.136,0.398v0.009C200.932,189.176,201.088,189.653,201.029,190.139z"/>
					<path fill="#EAC7B2" d="M200.767,188.699v0.009c-0.253,0.583-0.632,1.122-1.098,1.582c-0.875,0.866-2.021,1.484-3.216,1.926
						c-0.252,0.088-0.505,0.177-0.758,0.248c-0.146-0.071-0.301-0.115-0.466-0.15c0.952-0.68,1.875-1.431,2.419-2.421
						c0.165-0.3,0.301-0.618,0.379-0.945c0.233-0.963-0.194-1.891-0.146-2.854c0.019-0.407,0.224-0.725,0.592-0.937
						c0.175-0.097,0.36-0.177,0.564-0.212c0.359-0.062,0.729,0.018,1.049,0.195c0.097,1.069,0.204,2.138,0.544,3.163
						C200.679,188.434,200.718,188.566,200.767,188.699z"/>
					<path fill="#FCFBFB" d="M200.196,188.59c-0.189,0.546-0.457,0.984-0.87,1.42c-0.573,0.605-1.211,1.168-1.953,1.596
						c-0.742,0.427-1.596,0.715-2.474,0.741c0.104-0.003,0.397,0.15,0.483,0.208c0.104,0.07,0.192,0.197,0.272,0.289
						c0.154,0.176,0.281,0.372,0.377,0.579c0.099,0.213,0.166,0.438,0.197,0.668c0.015,0.115,0.022,0.231,0.019,0.347
						c-0.001,0.043,0.009,0.285-0.031,0.308c1.347-0.744,2.576-1.665,3.636-2.726c0.424-0.424,0.824-0.875,1.104-1.387
						c0.434-0.793,0.479-1.627,0.102-2.443c-0.164-0.352-0.421-0.664-0.612-1.004C200.425,187.656,200.349,188.139,200.196,188.59z"
						/>
					<path fill="#FCFBFB" d="M194.958,192.456c-0.348,0.178-0.636,0.455-0.809,0.781c-0.08,0.15-0.118,0.916-0.336,0.501
						c-0.239-0.453-0.526-0.923-0.679-1.407c-0.137-0.437-0.197-1.097,0.041-1.509c0.13-0.227,0.319-0.427,0.514-0.609
						c0.112-0.105,0.57-0.37,0.6-0.499c-0.128,0.557-0.087,1.146,0.117,1.684c0.146,0.384,0.39,0.756,0.775,0.961
						C195.104,192.386,195.029,192.419,194.958,192.456z"/>
					<path fill="#F0D8CB" d="M200.349,184.387c0.02,0.23-0.029,0.459-0.087,0.689c-0.185,0.733-0.486,1.414-1.059,1.953
						c-0.224,0.194-0.321,0.229-0.622,0.186c-0.059-0.009-0.476-0.062-0.476-0.159c-0.292,0.76-0.583,1.528-1.118,2.165
						c-0.418,0.513-0.981,0.91-1.564,1.263c-0.729,0.433-1.555,0.795-2.419,0.849c-0.126,0.009-0.252,0.018-0.379,0.009
						c-0.321-0.018-0.651-0.088-0.923-0.239c-0.408-0.229-0.525-0.583-0.622-0.98c-0.059-0.239-0.175-0.451-0.224-0.698
						c-0.116-0.495-0.185-1.069-0.651-1.414c-0.155-0.106-0.34-0.194-0.437-0.344c-0.166-0.248-0.02-0.575,0.078-0.857
						c0.175-0.503,0.165-1.034,0.146-1.555c-0.01-0.256-0.019-0.513-0.117-0.742c-0.126-0.265-0.35-0.477-0.486-0.733
						c-0.185-0.354-0.165-0.769-0.116-1.157c0.078-0.698,0.165-1.44,0.457-2.094c0.204-0.459,0.311-1.14,0.748-1.466
						c0.311-0.23,0.739-0.274,1.137-0.301c0.447-0.035,0.914-0.053,1.351,0.036c0.544,0.115,1.03,0.397,1.487,0.689
						c0.787,0.504,1.526,1.069,2.313,1.59c0.126,0.097,0.253,0.177,0.389,0.265c0.447,0.292,0.875,0.627,1.351,0.883
						c0.194,0.106,0.408,0.168,0.544,0.327c0.233,0.283,0.359,0.654,0.612,0.91c0.107,0.115,0.263,0.186,0.389,0.292
						C200.232,183.91,200.329,184.148,200.349,184.387z"/>
					<path fill="#EAC7B2" d="M200.349,184.387c0.02,0.23-0.029,0.459-0.087,0.689c-0.185,0.733-0.486,1.414-1.059,1.953
						c-0.224,0.194-0.321,0.229-0.622,0.186c-0.059-0.009-0.476-0.062-0.476-0.159c-0.292,0.76-0.583,1.528-1.118,2.165
						c-0.418,0.513-0.981,0.91-1.564,1.263c-0.729,0.433-1.555,0.795-2.419,0.849c0.321-0.239,0.632-0.495,0.904-0.778
						c0.631-0.645,1.107-1.431,1.283-2.279c0.233-1.167-0.126-2.368-0.593-3.481c-0.146-0.327-0.301-0.663-0.369-1.016
						c-0.126-0.654,0.009-1.405,0.272-2.023c0.185-0.442,0.719-0.609,1.214-0.663c0.34-0.026,0.7-0.044,1.049-0.018
						c0.126,0.097,0.253,0.177,0.389,0.265c0.447,0.292,0.875,0.627,1.351,0.883c0.194,0.106,0.408,0.168,0.544,0.327
						c0.233,0.283,0.359,0.654,0.612,0.91c0.107,0.115,0.263,0.186,0.389,0.292C200.232,183.91,200.329,184.148,200.349,184.387z"/>
					<g>
						<path fill="#885659" d="M202.389,181.056c0.029,0.583-0.048,1.166-0.145,1.74c-0.146,0.831-0.477,1.644-0.846,2.412
							c-0.127,0.256-0.875,1.891-1.234,1.732c-0.311-0.133-0.126-0.68-0.087-0.91c0.048-0.318,0.087-0.645,0.087-0.963
							c0.01-0.265,0-0.574-0.146-0.804c-0.136-0.238-0.428-0.397-0.719-0.442c-0.35-0.044-0.835,0.133-1.108,0.336
							c-0.466,0.327-0.631,0.875-0.816,1.361c-0.049,0.132-0.049,0.38-0.224,0.424c-0.214,0.071-0.534-0.336-0.661-0.459
							c-0.466-0.451-0.865-0.954-1.273-1.449c-0.107-0.142-0.214-0.274-0.292-0.433c-0.311-0.636,0.087-1.396-0.34-2.014
							c-0.02-0.026-0.039-0.053-0.059-0.08c-0.262-0.309-0.719-0.424-1.146-0.424c-0.428,0.009-0.845,0.124-1.273,0.194
							c-0.767,0.142-1.574,0.133-2.351-0.009c-0.02,0-0.049-0.009-0.068-0.009c-0.836-0.168-0.749-0.98-0.515-1.546
							c0.427-1.016,0.942-1.9,1.895-2.598c1.749-1.281,4.12-1.75,6.296-1.263c0.981,0.212,1.866,0.689,2.633,1.281
							c0.165,0.124,0.32,0.256,0.476,0.389C201.563,178.485,202.321,179.651,202.389,181.056z"/>
					</g>
					<g>
						<path fill="#885659" d="M202.389,181.056c0.029,0.583-0.048,1.166-0.145,1.74c-0.146,0.831-0.477,1.644-0.846,2.412
							c-0.127,0.256-0.875,1.891-1.234,1.732c-0.311-0.133-0.126-0.68-0.087-0.91c0.048-0.318,0.087-0.645,0.087-0.963
							c0.01-0.265,0-0.574-0.146-0.804c-0.136-0.238-0.428-0.397-0.719-0.442c-0.35-0.044-0.835,0.133-1.108,0.336
							c-0.466,0.327-0.631,0.875-0.816,1.361c-0.049,0.132-0.049,0.38-0.224,0.424c-0.214,0.071-0.534-0.336-0.661-0.459
							c-0.466-0.451-0.865-0.954-1.273-1.449c-0.107-0.142-0.214-0.274-0.292-0.433c-0.311-0.636,0.087-1.396-0.34-2.014
							c0.563,0,1.107-0.044,1.671-0.212c0.088-0.026,0.175-0.053,0.263-0.079c0.806-0.292,1.535-0.733,2.167-1.281
							c0.301-0.256,0.583-0.548,0.797-0.875c0.379-0.61,0.466-1.308,0.515-2.006c0.165,0.124,0.32,0.256,0.476,0.389
							C201.563,178.485,202.321,179.651,202.389,181.056z"/>
					</g>
					<path fill="#F0D8CB" d="M172.501,198.461c-0.117,0.318-0.457,0.53-0.534,0.848c-0.039,0.132-0.029,0.265-0.02,0.397
						c0,0.186-0.02,0.362-0.029,0.547c-0.01,0.106-0.02,0.212-0.068,0.31c-0.059,0.115-0.175,0.203-0.282,0.274
						c-0.311,0.194-0.845,0.434-1.234,0.345c-0.136-0.036-0.272-0.097-0.408-0.168c-0.253-0.141-0.505-0.318-0.719-0.459
						c-0.544-0.354-1.069-0.716-1.681-0.98c-0.525-0.23-1.03-0.574-1.467-0.928c-0.049-0.044-0.107-0.088-0.156-0.132
						c-0.282-0.238-0.554-0.503-0.68-0.831c-0.107-0.256-0.097-0.689,0.282-0.742c0.146-0.018,0.301,0,0.438,0.044
						c-0.078-0.159-0.243-0.274-0.389-0.397c-0.272-0.239-0.486-0.53-0.7-0.831c-0.087-0.133-0.097-0.327-0.126-0.486
						c-0.039-0.185-0.02-0.389,0.078-0.556c0.02-0.044,0.048-0.098,0.048-0.142c0.01-0.08-0.048-0.15-0.087-0.221
						c-0.116-0.212-0.068-0.486,0.117-0.654c0.185-0.159,0.496-0.194,0.719-0.08c-0.097-0.247,0.204-0.513,0.496-0.513
						s0.544,0.177,0.758,0.362c0.719,0.61,1.253,1.387,2.001,1.979c0.175,0.132,0.379,0.265,0.603,0.265
						c-0.01-0.831-0.972-1.502-0.904-2.332c0.02-0.239,0.175-0.513,0.447-0.521h0.039c0.214,0.009,0.379,0.194,0.515,0.362
						c0.379,0.495,0.768,0.998,1.147,1.493c0.243,0.309,0.476,0.618,0.68,0.945c0.185,0.292,0.34,0.601,0.495,0.901
						c0.136,0.283,0.282,0.565,0.418,0.839C172.462,197.737,172.637,198.117,172.501,198.461z"/>
					<path fill="#EAC7B2" d="M172.501,198.461c-0.117,0.318-0.457,0.53-0.534,0.848c-0.039,0.132-0.029,0.265-0.02,0.397
						c0,0.186-0.02,0.362-0.029,0.547c-0.01,0.106-0.02,0.212-0.068,0.31c-0.059,0.115-0.175,0.203-0.282,0.274
						c-0.311,0.194-0.845,0.434-1.234,0.345c-0.136-0.036-0.272-0.097-0.408-0.168c0.107,0.009,0.204-0.009,0.311-0.053
						c0.233-0.097,0.398-0.3,0.524-0.512c0.156-0.248,0.262-0.521,0.321-0.795c0.029-0.15,0.048-0.3,0.126-0.424
						c0.107-0.203,0.34-0.318,0.477-0.504c0.116-0.159,0.155-0.362,0.175-0.557c0.068-0.963-0.398-1.899-0.972-2.712
						c-0.573-0.813-1.273-1.555-1.759-2.421c-0.029-0.062-0.068-0.115-0.087-0.177c0.214,0.009,0.379,0.194,0.515,0.362
						c0.379,0.495,0.768,0.998,1.147,1.493c0.243,0.309,0.476,0.618,0.68,0.945c0.185,0.292,0.34,0.601,0.495,0.901
						c0.136,0.283,0.282,0.565,0.418,0.839C172.462,197.737,172.637,198.117,172.501,198.461z"/>
				</g>
			</g>
			<g>
				<g>
					<linearGradient id="SVGID_19_" gradientUnits="userSpaceOnUse" x1="170.0972" y1="264.4463" x2="187.9067" y2="264.4463">
						<stop  offset="0" style="stop-color:#F2F2F2"/>
						<stop  offset="0.234" style="stop-color:#EFEEEE"/>
						<stop  offset="0.4747" style="stop-color:#E4E4E4"/>
						<stop  offset="0.7185" style="stop-color:#D1D1D2"/>
						<stop  offset="0.9631" style="stop-color:#B7B7B7"/>
						<stop  offset="1" style="stop-color:#B3B3B3"/>
					</linearGradient>
					<path fill="url(#SVGID_19_)" d="M187.907,262.615h-0.778c-0.436-0.516-1.046-0.999-1.851-1.421
						c-3.49-1.832-9.13-1.841-12.598-0.021c-0.813,0.426-1.427,0.918-1.857,1.441h-0.726v1.699
						c-0.029,1.221,0.842,2.449,2.623,3.385c3.489,1.831,9.129,1.84,12.597,0.02c1.741-0.913,2.603-2.115,2.588-3.316h0.001V262.615
						z"/>
					<path fill="#D8C382" d="M185.317,266.131c-3.468,1.82-9.108,1.811-12.597-0.021c-3.49-1.832-3.507-4.793-0.04-6.613
						s9.108-1.811,12.598,0.021C188.768,261.349,188.785,264.31,185.317,266.131z"/>
				</g>
				<g>
					<linearGradient id="SVGID_20_" gradientUnits="userSpaceOnUse" x1="170.0972" y1="262.8672" x2="187.9067" y2="262.8672">
						<stop  offset="0" style="stop-color:#C48350"/>
						<stop  offset="0.203" style="stop-color:#9A653D"/>
						<stop  offset="0.412" style="stop-color:#7A5030"/>
						<stop  offset="0.6176" style="stop-color:#664227"/>
						<stop  offset="0.8163" style="stop-color:#5B3A21"/>
						<stop  offset="1" style="stop-color:#58381F"/>
					</linearGradient>
					<path fill="url(#SVGID_20_)" d="M187.907,261.036h-0.778c-0.436-0.515-1.046-0.999-1.851-1.421
						c-3.49-1.832-9.13-1.841-12.598-0.02c-0.813,0.426-1.427,0.918-1.857,1.44h-0.726v1.699c-0.029,1.222,0.842,2.45,2.623,3.385
						c3.489,1.832,9.129,1.841,12.597,0.021c1.741-0.914,2.603-2.115,2.588-3.316h0.001V261.036z"/>
					<path fill="#D08A54" d="M185.317,264.552c-3.468,1.821-9.108,1.812-12.597-0.021c-3.49-1.832-3.507-4.793-0.04-6.613
						s9.108-1.812,12.598,0.021C188.768,259.771,188.785,262.73,185.317,264.552z"/>
					<path fill="#6D4729" d="M186.184,264.023h-6.304v-7.439c1.97,0.107,3.885,0.561,5.398,1.355
						C188.446,259.605,188.752,262.199,186.184,264.023z"/>
				</g>
				<g>
					<polygon fill="#F2F2F2" points="179.881,264.025 174.081,260.98 172.104,223.766 181.858,228.886 					"/>
					<polygon fill="#B3B3B3" points="179.881,264.025 183.878,261.906 184.641,228.059 181.858,228.886 					"/>
				</g>
				<g>
					<linearGradient id="SVGID_21_" gradientUnits="userSpaceOnUse" x1="177.4409" y1="222.9707" x2="193.5732" y2="221.5119">
						<stop  offset="0" style="stop-color:#96643C"/>
						<stop  offset="0.0558" style="stop-color:#9A673E"/>
						<stop  offset="0.1308" style="stop-color:#A86F43"/>
						<stop  offset="0.2164" style="stop-color:#BD7D4C"/>
						<stop  offset="0.2441" style="stop-color:#C48350"/>
						<stop  offset="0.3976" style="stop-color:#9A653D"/>
						<stop  offset="0.5555" style="stop-color:#7A5030"/>
						<stop  offset="0.711" style="stop-color:#664227"/>
						<stop  offset="0.8611" style="stop-color:#5B3A21"/>
						<stop  offset="1" style="stop-color:#58381F"/>
					</linearGradient>
					<path fill="url(#SVGID_21_)" d="M199.876,225.037l-15.883-8.338c-1.494-0.785-4.216-1.188-6.08-0.901l-15.078,2.319
						l-0.087-0.621l-2.232-0.52l0.005,2.129h0.002c-0.04,0.328,0.265,0.701,0.943,1.058l16.759,8.798
						c1.494,0.784,4.216,1.188,6.08,0.901l15.777-2.427c1.056-0.162,1.609-0.512,1.619-0.926h0.002v-2.096L199.876,225.037z"/>
					<path fill="#D8915A" d="M178.226,226.813l-16.759-8.798c-1.494-0.784-1.194-1.652,0.669-1.939l15.777-2.426
						c1.864-0.287,4.586,0.117,6.08,0.9l16.759,8.799c1.494,0.784,1.194,1.652-0.67,1.939l-15.777,2.426
						C182.441,228.002,179.72,227.598,178.226,226.813z"/>
					<rect x="167.324" y="217.943" fill="#603D22" width="17.55" height="0.316"/>
					<path fill="#603D22" d="M185.298,218.691c-1.171,0.162-2.311-0.072-2.544-0.525c-0.233-0.452,0.526-0.951,1.698-1.115
						c1.171-0.162,2.311,0.072,2.544,0.525S186.469,218.527,185.298,218.691z"/>
					<path fill="#603D22" d="M184.151,224.244l0.048-0.045c-0.068-0.008-0.136-0.008-0.204-0.018
						c0.292-0.301,0.583-0.609,0.875-0.91c-0.35-0.203-0.807-0.053-1.195,0.054c-0.554,0.142-1.137,0.185-1.701,0.124
						c-0.175-0.027-0.398-0.115-0.359-0.274c0.02-0.071,0.087-0.124,0.155-0.168c0.272-0.177,0.554-0.354,0.826-0.53
						c-0.447,0.105-0.914,0.15-1.37,0.133c-0.243-0.01-0.554-0.15-0.476-0.354c0.029-0.07,0.097-0.115,0.165-0.15
						c0.292-0.186,0.573-0.371,0.865-0.557c0.107-0.062,0.233-0.186,0.166-0.291c-0.029-0.053-0.098-0.08-0.166-0.098
						c-0.252-0.07-0.524-0.098-0.768-0.194c-0.252-0.089-0.486-0.265-0.535-0.503c-0.039-0.16,1.322-0.406,1.448-0.442
						c3.517-0.804,7.249-0.406,10.834-0.866l6.48,3.402l1.516,0.795c0.563,0.301,0.864,0.609,0.923,0.893H184.151z"/>
					<g>
						<path fill="#F0D8CB" d="M191.604,221.176c-1.497,0.938-3.42,1.131-4.995,1.971c-0.427,0.229-0.826,0.504-1.263,0.725
							c-0.272,0.133-0.563,0.256-0.875,0.318c-0.087,0.018-0.243,0.053-0.389,0.053c-0.165,0.018-0.311,0-0.369-0.098
							c-0.126-0.238,0.204-0.564,0.379-0.725c0.311-0.273,0.661-0.494,1.001-0.742c0.136-0.097,0.272-0.203,0.408-0.3
							c0.039-0.026,0.087-0.079,0.048-0.115c-0.01-0.009-0.029-0.018-0.048-0.018c-0.126-0.018-0.263,0.009-0.379,0.044
							c-1.068,0.256-2.069,0.717-3.148,0.955c-0.191,0.047-0.487,0.123-0.65-0.029c-0.125-0.115,0.026-0.257,0.116-0.342
							c0.515-0.495,1.214-0.795,1.924-1.025c0.097-0.026,0.214-0.07,0.262-0.159c-0.748,0-1.448,0.371-2.118,0.628
							c-0.204,0.079-0.428,0.158-0.651,0.141c-0.164-0.013-0.331-0.075-0.423-0.205c-0.103-0.146,0.063-0.363,0.176-0.465
							c0.083-0.074,0.209-0.131,0.306-0.191c0.102-0.065,0.203-0.135,0.311-0.189c0.224-0.115,0.447-0.213,0.67-0.31
							c0.729-0.31,1.487-0.539,2.264-0.698c-0.155-0.009-0.32,0-0.476,0.018c-0.68,0.063-1.36,0.15-2.031,0.274
							c-0.194,0.035-0.379,0.071-0.573,0.089c-0.102,0.009-0.202,0.016-0.305-0.004c-0.072-0.014-0.142-0.04-0.194-0.086
							c-0.207-0.183,0.03-0.459,0.199-0.576c0.187-0.128,0.387-0.213,0.611-0.271c1.613-0.424,3.265-0.742,4.917-1.042
							c0.914-0.169,1.827-0.327,2.73-0.504c0.438-0.079,0.865-0.159,1.292-0.247c-0.156,0.026-0.214,0.406-0.214,0.521
							c0,0.211,0.136,0.361,0.214,0.557c0.146,0.354,0.224,0.724,0.398,1.061C190.934,220.566,191.273,220.875,191.604,221.176z"/>
						<path fill="#EAC7B2" d="M191.604,221.176c-1.497,0.938-3.42,1.131-4.995,1.971c-0.427,0.229-0.826,0.504-1.263,0.725
							c-0.272,0.133-0.563,0.256-0.875,0.318c-0.087,0.018-0.243,0.053-0.389,0.053c0.029-0.035,0.059-0.07,0.097-0.106
							c0.408-0.353,0.865-0.662,1.351-0.927c0.282-0.143,0.573-0.274,0.874-0.398c0.875-0.354,1.798-0.601,2.682-0.918
							c0.252-0.089,0.524-0.213,0.592-0.442c0.059-0.229-0.106-0.45-0.252-0.646c-0.369-0.512-0.631-1.113-0.603-1.723
							c0.01-0.273,0.078-0.547,0.214-0.786c0.438-0.079,0.865-0.159,1.292-0.247c-0.156,0.026-0.214,0.406-0.214,0.521
							c0,0.211,0.136,0.361,0.214,0.557c0.146,0.354,0.224,0.724,0.398,1.061C190.934,220.566,191.273,220.875,191.604,221.176z"/>
						<path fill="#3E4875" d="M210.133,201.421c-0.466,3.137-0.98,6.265-1.797,9.348c-0.233,0.856-0.369,1.74-0.738,2.562
							c-0.34,0.761-0.807,1.264-1.506,1.768c-2.371,1.696-5.072,2.934-7.774,4.126c-2.011,0.893-4.081,1.705-6.209,2.351
							c-0.631,0.193-1.234,0.158-1.71-0.186c-0.136-0.089-0.252-0.203-0.369-0.354c-0.544-0.689-0.787-1.572-0.729-2.412
							c0.02-0.177,0.049-0.362,0.175-0.504c0.106-0.105,0.252-0.159,0.398-0.221c1.749-0.697,3.459-1.352,5.13-2.227
							c1.167-0.619,2.313-1.264,3.362-2.031c1.234-0.902,2.487-1.741,3.274-3.031c0.612-1.008,0.604-2.104,0.807-3.207
							c0.516-2.862,0.991-5.787,2.031-8.543c0.438-1.158,1.186-2.474,2.391-3.119c0.641-0.345,1.311-0.433,1.885-0.265
							c0.534,0.159,0.99,0.53,1.272,1.113c0.224,0.441,0.312,0.928,0.379,1.405C210.57,199.142,210.309,200.29,210.133,201.421z"/>
						<path fill="#575E7D" d="M210.133,201.421c-0.466,3.137-0.98,6.265-1.797,9.348c-0.233,0.856-0.369,1.74-0.738,2.562
							c-0.34,0.761-0.807,1.264-1.506,1.768c-2.371,1.696-5.072,2.934-7.774,4.126c-2.011,0.893-4.081,1.705-6.209,2.351
							c-0.631,0.193-1.234,0.158-1.71-0.186c3.955-1.608,7.841-3.367,11.65-5.258c1.011-0.504,2.041-1.024,2.828-1.793
							c1.924-1.873,2.75-4.365,3.381-6.82c0.816-3.137,1.37-6.414,0.991-9.595c-0.097-0.831-0.263-1.644-0.495-2.447
							c0.534,0.159,0.99,0.53,1.272,1.113c0.224,0.441,0.312,0.928,0.379,1.405C210.57,199.142,210.309,200.29,210.133,201.421z"/>
					</g>
					<polygon fill="#603D22" points="197.22,225.729 195.208,226.037 182.256,226.037 182.256,225.729 					"/>
				</g>
			</g>
			<path fill="#333333" d="M191.21,202.674c-0.405,0.825-1.273,1.275-1.941,1.005c-0.667-0.271-0.88-1.159-0.475-1.985
				c0.405-0.825,1.273-1.275,1.941-1.004S191.615,201.848,191.21,202.674z"/>
			<path fill="#333333" d="M178.519,211.066c-0.497,0.783-1.413,1.148-2.045,0.816c-0.633-0.333-0.743-1.236-0.246-2.02
				s1.413-1.148,2.045-0.816S179.016,210.283,178.519,211.066z"/>
			<g>
				<path fill="#333333" d="M182.44,225.983c-0.066,0.037-0.144,0.058-0.221,0.052c-0.073-0.006-0.183-0.049-0.196-0.121
					c-0.004-0.023,0.002-0.05,0.003-0.072c0.007-0.194,0.014-0.389,0.021-0.582c0.01-0.274,0.02-0.549,0.03-0.822
					c0.011-0.314,0.022-0.629,0.034-0.943c0.011-0.314,0.022-0.628,0.034-0.942c0.01-0.273,0.02-0.548,0.03-0.821
					c0.007-0.194,0.014-0.388,0.021-0.582c0.002-0.073,0.005-0.146,0.008-0.221l7.315-18.566l0.458,0.148
					c0,0-7.3,18.529-7.302,18.535c-0.018,0.044-0.004,0.118-0.005,0.164c-0.006,0.188-0.013,0.375-0.019,0.562
					c-0.009,0.276-0.019,0.554-0.028,0.831c-0.011,0.32-0.021,0.643-0.032,0.964s-0.022,0.643-0.033,0.964
					c-0.009,0.276-0.019,0.553-0.028,0.828c-0.004,0.126-0.013,0.252-0.021,0.376C182.503,225.813,182.529,225.934,182.44,225.983z"
					/>
			</g>
			<g>
				<path fill="#333333" d="M167.228,218.248c-0.057-0.016-0.108-0.045-0.145-0.087c-0.031-0.036-0.047-0.087-0.045-0.134
					c0.005-0.119,0.229-0.178,0.321-0.215c0.192-0.078,0.385-0.158,0.578-0.236c0.255-0.104,0.511-0.209,0.766-0.314
					c0.295-0.12,0.591-0.241,0.886-0.362c0.313-0.128,0.625-0.255,0.937-0.383c0.307-0.126,0.613-0.251,0.919-0.377
					c0.278-0.114,0.556-0.228,0.833-0.341c0.227-0.094,0.454-0.186,0.681-0.279c0.153-0.063,0.305-0.125,0.458-0.188
					c0.056-0.023,0.112-0.046,0.168-0.068l3.195-4.246l0.401,0.25l-3.273,4.348c-0.011,0.016-0.065,0.027-0.083,0.034
					c-0.138,0.056-0.275,0.112-0.413,0.169c-0.229,0.094-0.458,0.188-0.686,0.281c-0.292,0.119-0.585,0.239-0.877,0.359
					c-0.328,0.135-0.657,0.269-0.985,0.403c-0.337,0.138-0.674,0.276-1.011,0.413c-0.318,0.131-0.636,0.261-0.954,0.391
					c-0.271,0.111-0.543,0.223-0.814,0.334c-0.109,0.045-0.219,0.09-0.329,0.135c-0.141,0.058-0.293,0.133-0.452,0.124
					C167.278,218.258,167.253,218.254,167.228,218.248z"/>
			</g>
		</g>
		<g>
			<g>
				<g>
					<g>
						<g>
							<linearGradient id="SVGID_22_" gradientUnits="userSpaceOnUse" x1="234.8418" y1="258.251" x2="252.0264" y2="258.251">
								<stop  offset="0" style="stop-color:#96643C"/>
								<stop  offset="0.0558" style="stop-color:#9A673E"/>
								<stop  offset="0.1308" style="stop-color:#A86F43"/>
								<stop  offset="0.2164" style="stop-color:#BD7D4C"/>
								<stop  offset="0.2441" style="stop-color:#C48350"/>
								<stop  offset="0.3976" style="stop-color:#9A653D"/>
								<stop  offset="0.5555" style="stop-color:#7A5030"/>
								<stop  offset="0.711" style="stop-color:#664227"/>
								<stop  offset="0.8611" style="stop-color:#5B3A21"/>
								<stop  offset="1" style="stop-color:#58381F"/>
							</linearGradient>
							<path fill="url(#SVGID_22_)" d="M251.96,257.242c-0.226-0.971-1.048-1.912-2.47-2.658c-3.365-1.768-8.806-1.775-12.15-0.02
								c-1.33,0.697-2.127,1.57-2.395,2.479l-0.104-0.008v1.711l0.002-0.001c0.016,1.147,0.861,2.294,2.533,3.173
								c3.366,1.768,8.807,1.775,12.152,0.02c1.609-0.846,2.439-1.946,2.492-3.059l0.002,0.002v-0.063
								c0.001-0.036,0.002-0.071,0-0.106l0.003-1.561L251.96,257.242z"/>
							<path fill="#D8915A" d="M249.529,260.234c-3.346,1.756-8.786,1.747-12.152-0.02c-3.365-1.768-3.383-4.623-0.037-6.379
								c3.345-1.756,8.785-1.748,12.15,0.02C252.856,255.622,252.873,258.479,249.529,260.234z"/>
							<path fill="#D8915A" d="M249.525,260.236c-0.061,0.035-0.129,0.062-0.188,0.089h-5.484v-7.786
								c2.051,0.055,4.064,0.492,5.634,1.318C252.859,255.619,252.875,258.481,249.525,260.236z"/>
						</g>
						<g>
							<linearGradient id="SVGID_23_" gradientUnits="userSpaceOnUse" x1="236.502" y1="256.3105" x2="250.3662" y2="256.3105">
								<stop  offset="0" style="stop-color:#96643C"/>
								<stop  offset="0.0558" style="stop-color:#9A673E"/>
								<stop  offset="0.1308" style="stop-color:#A86F43"/>
								<stop  offset="0.2164" style="stop-color:#BD7D4C"/>
								<stop  offset="0.2441" style="stop-color:#C48350"/>
								<stop  offset="0.3976" style="stop-color:#9A653D"/>
								<stop  offset="0.5555" style="stop-color:#7A5030"/>
								<stop  offset="0.711" style="stop-color:#664227"/>
								<stop  offset="0.8611" style="stop-color:#5B3A21"/>
								<stop  offset="1" style="stop-color:#58381F"/>
							</linearGradient>
							<path fill="url(#SVGID_23_)" d="M250.313,255.496c-0.182-0.782-0.845-1.541-1.992-2.144
								c-2.715-1.426-7.104-1.433-9.804-0.017c-1.073,0.563-1.716,1.268-1.932,2.001l-0.083-0.007v1.381l0.001-0.002
								c0.014,0.926,0.694,1.852,2.044,2.561c2.717,1.426,7.105,1.433,9.805,0.016c1.299-0.682,1.969-1.57,2.011-2.467l0.001,0.001
								l0.001-0.052c0.001-0.028,0.001-0.057,0.001-0.086l0.001-1.258L250.313,255.496z"/>
							<path fill="#D8915A" d="M248.352,257.911c-2.699,1.417-7.088,1.409-9.805-0.017c-2.715-1.425-2.729-3.729-0.03-5.146
								c2.699-1.416,7.089-1.409,9.804,0.017C251.036,254.19,251.05,256.494,248.352,257.911z"/>
							<path fill="#D8915A" d="M248.856,257.621h-5.243v-5.922c1.705,0.021,3.396,0.376,4.71,1.066
								C250.854,254.097,251.035,256.193,248.856,257.621z"/>
						</g>
						<g>
							<linearGradient id="SVGID_24_" gradientUnits="userSpaceOnUse" x1="238.2676" y1="254.6162" x2="248.5996" y2="254.6162">
								<stop  offset="0" style="stop-color:#96643C"/>
								<stop  offset="0.0558" style="stop-color:#9A673E"/>
								<stop  offset="0.1308" style="stop-color:#A86F43"/>
								<stop  offset="0.2164" style="stop-color:#BD7D4C"/>
								<stop  offset="0.2441" style="stop-color:#C48350"/>
								<stop  offset="0.3976" style="stop-color:#9A653D"/>
								<stop  offset="0.5555" style="stop-color:#7A5030"/>
								<stop  offset="0.711" style="stop-color:#664227"/>
								<stop  offset="0.8611" style="stop-color:#5B3A21"/>
								<stop  offset="1" style="stop-color:#58381F"/>
							</linearGradient>
							<path fill="url(#SVGID_24_)" d="M248.561,254.01c-0.136-0.584-0.63-1.149-1.484-1.599c-2.024-1.063-5.295-1.067-7.307-0.012
								c-0.8,0.419-1.279,0.944-1.439,1.491l-0.063-0.006v1.029l0.001-0.001c0.011,0.69,0.519,1.38,1.524,1.907
								c2.023,1.063,5.295,1.068,7.306,0.013c0.969-0.509,1.467-1.171,1.499-1.839l0.001,0.001v-0.038
								c0.001-0.021,0.001-0.043,0.001-0.064v-0.938L248.561,254.01z"/>
							<path fill="#D8915A" d="M247.099,255.809c-2.011,1.056-5.282,1.051-7.306-0.012c-2.024-1.063-2.035-2.779-0.023-3.836
								c2.012-1.056,5.282-1.051,7.307,0.012C249.1,253.035,249.109,254.752,247.099,255.809z"/>
							<path fill="#D8915A" d="M248.488,254.459h-5.055v-2.309h3.951C248.436,252.813,248.804,253.666,248.488,254.459z"/>
						</g>
						<g>
							<linearGradient id="SVGID_25_" gradientUnits="userSpaceOnUse" x1="241.6768" y1="209.3604" x2="245.1914" y2="209.3604">
								<stop  offset="0" style="stop-color:#96643C"/>
								<stop  offset="0.0558" style="stop-color:#9A673E"/>
								<stop  offset="0.1308" style="stop-color:#A86F43"/>
								<stop  offset="0.2164" style="stop-color:#BD7D4C"/>
								<stop  offset="0.2441" style="stop-color:#C48350"/>
								<stop  offset="0.3976" style="stop-color:#9A653D"/>
								<stop  offset="0.5555" style="stop-color:#7A5030"/>
								<stop  offset="0.711" style="stop-color:#664227"/>
								<stop  offset="0.8611" style="stop-color:#5B3A21"/>
								<stop  offset="1" style="stop-color:#58381F"/>
							</linearGradient>
							<path fill="url(#SVGID_25_)" d="M245.178,165.079c-0.046-0.199-0.214-0.391-0.505-0.544
								c-0.688-0.361-1.802-0.363-2.485-0.004c-0.271,0.143-0.436,0.321-0.49,0.507l-0.021-0.001v88.501l0,0
								c0.003,0.234,0.177,0.469,0.519,0.648c0.688,0.361,1.801,0.364,2.485,0.005c0.329-0.173,0.499-0.398,0.51-0.626l0.001,0.001
								v-0.014c0-0.007,0-0.015,0-0.021V165.06L245.178,165.079z"/>
							<path fill="#D8915A" d="M244.681,165.69c-0.685,0.359-1.797,0.357-2.485-0.004c-0.688-0.362-0.691-0.946-0.008-1.305
								c0.684-0.359,1.797-0.357,2.485,0.004S245.365,165.332,244.681,165.69z"/>
						</g>
					</g>
					<g>
						<g>
							<linearGradient id="SVGID_26_" gradientUnits="userSpaceOnUse" x1="242.166" y1="163.9707" x2="244.7031" y2="163.9707">
								<stop  offset="0" style="stop-color:#96643C"/>
								<stop  offset="0.0558" style="stop-color:#9A673E"/>
								<stop  offset="0.1308" style="stop-color:#A86F43"/>
								<stop  offset="0.2164" style="stop-color:#BD7D4C"/>
								<stop  offset="0.2441" style="stop-color:#C48350"/>
								<stop  offset="0.3976" style="stop-color:#9A653D"/>
								<stop  offset="0.5555" style="stop-color:#7A5030"/>
								<stop  offset="0.711" style="stop-color:#664227"/>
								<stop  offset="0.8611" style="stop-color:#5B3A21"/>
								<stop  offset="1" style="stop-color:#58381F"/>
							</linearGradient>
							<path fill="url(#SVGID_26_)" d="M244.693,163c-0.033-0.143-0.155-0.282-0.365-0.392c-0.496-0.261-1.3-0.262-1.793-0.003
								c-0.197,0.104-0.314,0.232-0.354,0.366l-0.016-0.001v1.896l0,0c0.002,0.169,0.127,0.339,0.374,0.468
								c0.497,0.261,1.3,0.262,1.794,0.003c0.237-0.125,0.359-0.287,0.367-0.451h0.001v-0.009c0-0.005,0-0.011,0-0.016l0.001-1.874
								L244.693,163z"/>
							<path fill="#D8915A" d="M244.334,163.442c-0.494,0.259-1.297,0.258-1.794-0.003c-0.497-0.261-0.499-0.683-0.005-0.942
								c0.493-0.259,1.297-0.258,1.793,0.003C244.825,162.761,244.828,163.183,244.334,163.442z"/>
						</g>
					</g>
					
						<radialGradient id="SVGID_27_" cx="653.9414" cy="537.1777" r="6.8825" gradientTransform="matrix(0.374 0 0 0.3401 -2.0308 -21.021)" gradientUnits="userSpaceOnUse">
						<stop  offset="0" style="stop-color:#C48350"/>
						<stop  offset="0.203" style="stop-color:#9A653D"/>
						<stop  offset="0.412" style="stop-color:#7A5030"/>
						<stop  offset="0.6176" style="stop-color:#664227"/>
						<stop  offset="0.8163" style="stop-color:#5B3A21"/>
						<stop  offset="1" style="stop-color:#58381F"/>
					</radialGradient>
					<ellipse fill="url(#SVGID_27_)" cx="243.434" cy="162.411" rx="2.252" ry="2.048"/>
				</g>
				<g>
					<g>
						<path fill="#D58531" d="M236.428,195.004l-3.124,8.735c0,0-0.547,3.552,1.562,6.676l1.797-1.775l4.295-17.399L236.428,195.004
							z"/>
						<path fill="#D58531" d="M247.361,191.454c0,0,0.102,2.37-3.887,2.113l1.776-5.273L247.361,191.454z"/>
						<path fill="#F3E52F" d="M245.02,215.564l-0.107,0.195l-2.883-4.314l-4.586-0.426h-1.641v1.029c0,0,1.68,6.64,5.74,10.119
							C241.543,222.168,246.736,218.938,245.02,215.564z"/>
						<path fill="#EEC930" d="M245.331,216.221c0,0-4.627-5.646-11.013-4.527l6.004-21.358l5.009-0.746V216.221z"/>
						<path fill="#F3E52F" d="M243.613,165.958l3.748,25.495c-0.254-0.152-0.538-0.264-0.824-0.354
							c-0.881-0.281-1.842-0.33-2.757-0.167c-1.553,0.275-2.907,1.121-4.015,2.118c-1.968,1.771-3.222,4.002-4.408,6.245
							c-0.212,0.4-0.424,0.801-0.626,1.206c-0.343,0.687-0.657,1.386-0.942,2.095c-0.242,0.604-0.547,1.268-0.509,1.924
							c-0.06-1.027,0.083-2.008,0.337-3.008c0.113-0.451,0.234-0.901,0.361-1.349c0.259-0.911,1.58-5.186,1.713-5.699
							c0.455-1.759,0.91-3.517,1.367-5.275c0.481-1.853,0.965-3.706,1.449-5.558c0.468-1.784,0.938-3.567,1.41-5.35
							c0.412-1.552,0.826-3.103,1.246-4.653c0.314-1.157,0.63-2.313,0.961-3.466c0.17-0.597,0.324-1.207,0.551-1.79
							C243.613,165.958,243.613,165.958,243.613,165.958z"/>
					</g>
				</g>
			</g>
		</g>
	</g>
</g>
</svg>
