<?xml version="1.0" encoding="utf-8"?>
<!-- Generator: Adobe Illustrator 16.0.0, SVG Export Plug-In . SVG Version: 6.00 Build 0)  -->
<!DOCTYPE svg PUBLIC "-//W3C//DTD SVG 1.1//EN" "http://www.w3.org/Graphics/SVG/1.1/DTD/svg11.dtd">
<svg version="1.1" id="Capa_1" xmlns="http://www.w3.org/2000/svg" xmlns:xlink="http://www.w3.org/1999/xlink" x="0px" y="0px"
	 width="400px" height="400px" viewBox="0 0 400 400" enable-background="new 0 0 400 400" xml:space="preserve">
<g>
	<g>
		<g>
			<path fill="#EDC62C" d="M176.046,250.809v15.795c0,1.505-0.772,2.952-2.21,4.318c-0.409,0.387-0.884,0.772-1.407,1.159
				c-1.01,0.731-2.226,1.435-3.615,2.11c-0.45,0.207-0.916,0.428-1.407,0.634c-1.695,0.732-3.616,1.407-5.729,2.016
				c-0.458,0.137-0.923,0.275-1.397,0.414c-2.322,0.62-4.839,1.187-7.538,1.669c-0.459,0.082-0.933,0.166-1.406,0.248
				c-2.21,0.358-4.523,0.69-6.935,0.953c-0.467,0.039-0.933,0.097-1.398,0.138c-1.606,0.163-3.247,0.289-4.926,0.399
				c-0.466,0.041-0.933,0.069-1.406,0.097c-2.098,0.11-4.242,0.179-6.43,0.221c-0.465,0-0.933,0.014-1.405,0.014h-1.005
				c-2.041,0-4.05-0.04-6.027-0.11c-0.474-0.014-0.94-0.042-1.406-0.056c-2.018-0.096-3.993-0.235-5.923-0.401
				c-0.474-0.039-0.948-0.082-1.414-0.123c-1.334-0.123-2.635-0.275-3.912-0.427c-0.475-0.069-0.941-0.125-1.408-0.194
				c-1.623-0.22-3.205-0.469-4.725-0.744c-0.475-0.082-0.94-0.165-1.398-0.263c-1.325-0.248-2.596-0.524-3.826-0.827
				c-0.473-0.11-0.938-0.221-1.396-0.344c-1.526-0.388-2.966-0.802-4.323-1.256c-0.483-0.152-0.948-0.317-1.405-0.483
				c-1.432-0.511-2.742-1.049-3.914-1.628c-0.499-0.234-0.966-0.482-1.415-0.731c-1.174-0.649-2.177-1.324-3.006-2.028
				c-0.555-0.47-1.027-0.952-1.413-1.434c-0.853-1.076-1.304-2.195-1.304-3.34c0-4.69,0-15.795,0-15.795H176.046z"/>
			<ellipse fill="#F8E12E" cx="127.83" cy="250.813" rx="48.216" ry="12.747"/>
			<ellipse fill="#F2D32D" cx="127.83" cy="249.117" rx="39.577" ry="8.768"/>
			<path fill="#E3AE29" d="M89.46,251.273c4.338-3.801,19.87-6.613,38.37-6.613s34.032,2.813,38.368,6.613
				c0.786-0.689,1.208-1.412,1.208-2.156c0-4.844-17.718-8.769-39.576-8.769c-21.859,0-39.577,3.925-39.577,8.769
				C88.253,249.861,88.675,250.584,89.46,251.273z"/>
			<g>
				<path fill="#E3AE29" d="M82.33,257.885v13.492c-0.555-0.47-1.027-0.952-1.413-1.434v-12.059H82.33z"/>
				<path fill="#E3AE29" d="M86.751,261.845v12.292c-0.499-0.234-0.966-0.482-1.415-0.731v-11.561H86.751z"/>
				<path fill="#E3AE29" d="M92.07,264.271v11.977c-0.483-0.152-0.948-0.317-1.405-0.483v-11.493H92.07z"/>
				<path fill="#E3AE29" d="M97.79,265.9v11.947c-0.473-0.11-0.938-0.221-1.396-0.344V265.9H97.79z"/>
				<path fill="#E3AE29" d="M103.015,267.459v11.479c-0.475-0.082-0.94-0.165-1.398-0.263v-11.216H103.015z"/>
				<path fill="#E3AE29" d="M109.147,268.494v11.382c-0.475-0.069-0.941-0.125-1.408-0.194v-11.188H109.147z"/>
				<path fill="#E3AE29" d="M114.474,268.494v11.932c-0.474-0.039-0.948-0.082-1.414-0.123v-11.809H114.474z"/>
				<path fill="#E3AE29" d="M121.803,268.494v12.389c-0.474-0.014-0.94-0.042-1.406-0.056v-12.333H121.803z"/>
				<path fill="#E3AE29" d="M130.24,267.459v13.521c-0.465,0-0.933,0.014-1.405,0.014v-13.534H130.24z"/>
				<path fill="#E3AE29" d="M138.076,265.9v14.762c-0.466,0.041-0.933,0.069-1.406,0.097V265.9H138.076z"/>
				<path fill="#E3AE29" d="M144.4,265.9v14.225c-0.467,0.039-0.933,0.097-1.398,0.138V265.9H144.4z"/>
				<path fill="#E3AE29" d="M152.741,264.271v14.652c-0.459,0.082-0.933,0.166-1.406,0.248v-14.9H152.741z"/>
				<path fill="#E3AE29" d="M161.677,262.713v14.128c-0.458,0.137-0.923,0.275-1.397,0.414v-14.542H161.677z"/>
				<path fill="#E3AE29" d="M168.813,258.92v15.271c-0.45,0.207-0.916,0.428-1.407,0.634V258.92H168.813z"/>
				<path fill="#E3AE29" d="M173.836,256.325v14.597c-0.409,0.387-0.884,0.772-1.407,1.159v-15.756H173.836z"/>
			</g>
			<path fill="#E8E1E2" d="M173.836,263.942c-0.409,0.385-0.884,0.771-1.407,1.157c-1.01,0.731-2.226,1.436-3.615,2.11
				c-0.45,0.208-0.916,0.428-1.407,0.636c-1.695,0.73-3.616,1.406-5.729,2.014c-0.458,0.138-0.923,0.275-1.397,0.414
				c-2.322,0.621-4.839,1.187-7.538,1.669c-0.459,0.083-0.933,0.166-1.406,0.249c-2.21,0.358-4.523,0.69-6.935,0.952
				c-0.467,0.04-0.933,0.097-1.398,0.137c-1.606,0.166-3.247,0.291-4.926,0.4c-0.466,0.041-0.933,0.069-1.406,0.097
				c-2.098,0.111-4.242,0.18-6.43,0.221c-0.465,0-0.933,0.014-1.405,0.014h-1.005c-2.041,0-4.05-0.04-6.027-0.109
				c-0.474-0.014-0.94-0.041-1.406-0.057c-2.018-0.096-3.993-0.234-5.923-0.399c-0.474-0.041-0.948-0.083-1.414-0.123
				c-1.334-0.124-2.635-0.277-3.912-0.429c-0.475-0.068-0.941-0.123-1.408-0.193c-1.623-0.221-3.205-0.469-4.725-0.745
				c-0.475-0.082-0.94-0.164-1.398-0.262c-1.325-0.247-2.596-0.524-3.826-0.827c-0.473-0.111-0.938-0.222-1.396-0.345
				c-1.526-0.388-2.966-0.801-4.323-1.256c-0.483-0.151-0.948-0.317-1.405-0.483c-1.432-0.511-2.742-1.048-3.914-1.628
				c-0.499-0.234-0.966-0.482-1.415-0.73c-1.174-0.649-2.177-1.325-3.006-2.028c-0.555-0.469-1.027-0.952-1.413-1.435
				c-0.853-1.077-1.304-2.193-1.304-3.34c0,2.614,0,5.239,0,6.981c0,1.145,0.451,2.264,1.304,3.34
				c0.386,0.481,0.858,0.964,1.413,1.434c0.829,0.704,1.832,1.379,3.006,2.028c0.449,0.249,0.916,0.497,1.415,0.731
				c1.172,0.579,2.482,1.117,3.914,1.628c0.457,0.166,0.922,0.331,1.405,0.483c1.357,0.454,2.797,0.868,4.323,1.256
				c0.458,0.123,0.924,0.233,1.396,0.344c1.23,0.303,2.501,0.579,3.826,0.827c0.458,0.098,0.924,0.181,1.398,0.263
				c1.52,0.275,3.102,0.524,4.725,0.744c0.467,0.069,0.934,0.125,1.408,0.194c1.277,0.151,2.578,0.304,3.912,0.427
				c0.466,0.041,0.94,0.084,1.414,0.123c1.93,0.166,3.905,0.306,5.923,0.401c0.466,0.014,0.933,0.042,1.406,0.056
				c1.978,0.07,3.986,0.11,6.027,0.11h1.005c0.472,0,0.94-0.014,1.405-0.014c2.188-0.042,4.332-0.11,6.43-0.221
				c0.474-0.027,0.94-0.056,1.406-0.097c1.679-0.11,3.319-0.236,4.926-0.399c0.466-0.041,0.932-0.099,1.398-0.138
				c2.411-0.263,4.725-0.595,6.935-0.953c0.474-0.082,0.947-0.166,1.406-0.248c2.699-0.482,5.216-1.049,7.538-1.669
				c0.475-0.139,0.939-0.277,1.397-0.414c2.113-0.608,4.034-1.283,5.729-2.016c0.491-0.206,0.957-0.427,1.407-0.634
				c1.39-0.676,2.605-1.379,3.615-2.11c0.523-0.387,0.998-0.772,1.407-1.159c1.438-1.366,2.21-2.813,2.21-4.318v-6.981
				C176.046,261.126,175.273,262.575,173.836,263.942z"/>
		</g>
		<g>
			<path fill="#EDC62C" d="M171.891,231.627v15.797c0,1.504-0.77,2.951-2.21,4.318c-0.409,0.386-0.883,0.771-1.405,1.158
				c-1.013,0.73-2.227,1.435-3.615,2.111c-0.45,0.207-0.917,0.428-1.407,0.633c-1.695,0.731-3.615,1.408-5.729,2.016
				c-0.46,0.138-0.926,0.275-1.398,0.415c-2.322,0.62-4.838,1.185-7.537,1.668c-0.459,0.082-0.935,0.166-1.407,0.249
				c-2.211,0.357-4.524,0.689-6.937,0.951c-0.465,0.042-0.93,0.097-1.397,0.138c-1.606,0.166-3.247,0.29-4.926,0.4
				c-0.466,0.041-0.93,0.069-1.406,0.097c-2.097,0.111-4.243,0.18-6.43,0.222c-0.465,0-0.932,0.014-1.406,0.014h-1.004
				c-2.042,0-4.05-0.042-6.026-0.112c-0.475-0.012-0.939-0.041-1.406-0.055c-2.017-0.096-3.994-0.233-5.922-0.399
				c-0.475-0.041-0.949-0.083-1.414-0.125c-1.335-0.123-2.636-0.275-3.915-0.427c-0.474-0.068-0.941-0.124-1.406-0.193
				c-1.623-0.221-3.207-0.469-4.725-0.745c-0.476-0.082-0.941-0.165-1.4-0.262c-1.325-0.248-2.594-0.524-3.824-0.828
				c-0.474-0.11-0.94-0.221-1.397-0.345c-1.528-0.387-2.967-0.8-4.325-1.255c-0.482-0.151-0.948-0.317-1.405-0.483
				c-1.43-0.51-2.74-1.048-3.913-1.629c-0.499-0.233-0.965-0.481-1.415-0.73c-1.175-0.647-2.178-1.324-3.004-2.028
				c-0.555-0.469-1.029-0.951-1.415-1.434c-0.852-1.076-1.302-2.194-1.302-3.339c0-4.691,0-15.797,0-15.797H171.891z"/>
			<ellipse fill="#F8E12E" cx="123.676" cy="231.634" rx="48.215" ry="12.747"/>
			<ellipse fill="#F2D32D" cx="123.675" cy="229.938" rx="39.578" ry="8.767"/>
			<path fill="#E3AE29" d="M85.308,232.092c4.336-3.8,19.869-6.612,38.368-6.612c18.501,0,34.032,2.813,38.368,6.612
				c0.788-0.689,1.209-1.411,1.209-2.154c0-4.844-17.72-8.771-39.577-8.771s-39.578,3.927-39.578,8.771
				C84.098,230.681,84.521,231.402,85.308,232.092z"/>
			<g>
				<path fill="#E3AE29" d="M78.178,238.704v13.492c-0.555-0.469-1.029-0.951-1.415-1.434v-12.059H78.178z"/>
				<path fill="#E3AE29" d="M82.597,242.663v12.292c-0.499-0.233-0.965-0.481-1.415-0.73v-11.562H82.597z"/>
				<path fill="#E3AE29" d="M87.915,245.092v11.976c-0.482-0.151-0.948-0.317-1.405-0.483v-11.492H87.915z"/>
				<path fill="#E3AE29" d="M93.638,246.72v11.947c-0.474-0.11-0.94-0.221-1.397-0.345V246.72H93.638z"/>
				<path fill="#E3AE29" d="M98.862,248.278v11.479c-0.476-0.082-0.941-0.165-1.4-0.262v-11.217H98.862z"/>
				<path fill="#E3AE29" d="M104.993,249.313v11.383c-0.474-0.068-0.941-0.124-1.406-0.193v-11.189H104.993z"/>
				<path fill="#E3AE29" d="M110.321,249.313v11.935c-0.475-0.041-0.949-0.083-1.414-0.125v-11.81H110.321z"/>
				<path fill="#E3AE29" d="M117.649,249.313v12.389c-0.475-0.012-0.939-0.041-1.406-0.055v-12.334H117.649z"/>
				<path fill="#E3AE29" d="M126.086,248.278V261.8c-0.465,0-0.932,0.014-1.406,0.014v-13.535H126.086z"/>
				<path fill="#E3AE29" d="M133.921,246.72v14.762c-0.466,0.041-0.93,0.069-1.406,0.097V246.72H133.921z"/>
				<path fill="#E3AE29" d="M140.245,246.72v14.224c-0.465,0.042-0.93,0.097-1.397,0.138V246.72H140.245z"/>
				<path fill="#E3AE29" d="M148.589,245.092v14.651c-0.459,0.082-0.935,0.166-1.407,0.249v-14.9H148.589z"/>
				<path fill="#E3AE29" d="M157.524,243.534v14.126c-0.46,0.138-0.926,0.275-1.398,0.415v-14.541H157.524z"/>
				<path fill="#E3AE29" d="M164.66,239.738v15.273c-0.45,0.207-0.917,0.428-1.407,0.633v-15.906H164.66z"/>
				<path fill="#E3AE29" d="M169.681,237.146v14.597c-0.409,0.386-0.883,0.771-1.405,1.158v-15.755H169.681z"/>
			</g>
			<path fill="#E8E1E2" d="M169.681,244.761c-0.409,0.386-0.883,0.772-1.405,1.158c-1.013,0.731-2.227,1.436-3.615,2.111
				c-0.45,0.208-0.917,0.428-1.407,0.635c-1.695,0.73-3.615,1.406-5.729,2.015c-0.46,0.138-0.926,0.275-1.398,0.413
				c-2.322,0.621-4.838,1.187-7.537,1.669c-0.459,0.084-0.935,0.166-1.407,0.248c-2.211,0.36-4.524,0.69-6.937,0.953
				c-0.465,0.041-0.93,0.096-1.397,0.138c-1.606,0.165-3.247,0.291-4.926,0.399c-0.466,0.042-0.93,0.07-1.406,0.097
				c-2.097,0.111-4.243,0.18-6.43,0.222c-0.465,0-0.932,0.014-1.406,0.014h-1.004c-2.042,0-4.05-0.041-6.026-0.11
				c-0.475-0.014-0.939-0.042-1.406-0.055c-2.017-0.097-3.994-0.235-5.922-0.401c-0.475-0.041-0.949-0.082-1.414-0.124
				c-1.335-0.124-2.636-0.276-3.915-0.428c-0.474-0.068-0.941-0.124-1.406-0.193c-1.623-0.22-3.207-0.469-4.725-0.745
				c-0.476-0.082-0.941-0.165-1.4-0.263c-1.325-0.246-2.594-0.523-3.824-0.826c-0.474-0.11-0.94-0.22-1.397-0.345
				c-1.528-0.387-2.967-0.8-4.325-1.256c-0.482-0.151-0.948-0.316-1.405-0.482c-1.43-0.512-2.74-1.049-3.913-1.629
				c-0.499-0.234-0.965-0.481-1.415-0.73c-1.175-0.648-2.178-1.325-3.004-2.028c-0.555-0.47-1.029-0.952-1.415-1.435
				c-0.852-1.076-1.302-2.193-1.302-3.339c0,2.613,0,5.239,0,6.981c0,1.145,0.45,2.263,1.302,3.339
				c0.386,0.482,0.86,0.965,1.415,1.434c0.826,0.704,1.829,1.381,3.004,2.028c0.45,0.249,0.916,0.497,1.415,0.73
				c1.173,0.581,2.483,1.119,3.913,1.629c0.457,0.166,0.923,0.332,1.405,0.483c1.358,0.455,2.797,0.868,4.325,1.255
				c0.457,0.124,0.924,0.234,1.397,0.345c1.23,0.304,2.499,0.58,3.824,0.828c0.459,0.097,0.925,0.18,1.4,0.262
				c1.518,0.276,3.102,0.524,4.725,0.745c0.464,0.069,0.932,0.125,1.406,0.193c1.279,0.151,2.58,0.304,3.915,0.427
				c0.465,0.042,0.938,0.084,1.414,0.125c1.928,0.166,3.906,0.304,5.922,0.399c0.467,0.014,0.932,0.043,1.406,0.055
				c1.977,0.07,3.985,0.112,6.026,0.112h1.004c0.475,0,0.941-0.014,1.406-0.014c2.187-0.042,4.333-0.11,6.43-0.222
				c0.476-0.027,0.939-0.056,1.406-0.097c1.679-0.11,3.32-0.234,4.926-0.4c0.468-0.041,0.933-0.096,1.397-0.138
				c2.412-0.262,4.726-0.594,6.937-0.951c0.473-0.083,0.948-0.167,1.407-0.249c2.699-0.483,5.215-1.048,7.537-1.668
				c0.473-0.14,0.938-0.277,1.398-0.415c2.113-0.607,4.033-1.284,5.729-2.016c0.49-0.205,0.957-0.426,1.407-0.633
				c1.389-0.677,2.603-1.381,3.615-2.111c0.522-0.388,0.996-0.772,1.405-1.158c1.44-1.367,2.21-2.814,2.21-4.318v-6.981
				C171.891,241.946,171.121,243.396,169.681,244.761z"/>
		</g>
		<g>
			<path fill="#EDC62C" d="M176.046,211.488v15.796c0,1.504-0.772,2.953-2.21,4.32c-0.409,0.384-0.884,0.771-1.407,1.158
				c-1.01,0.73-2.226,1.435-3.615,2.109c-0.45,0.208-0.916,0.429-1.407,0.636c-1.695,0.731-3.616,1.406-5.729,2.014
				c-0.458,0.139-0.923,0.275-1.397,0.415c-2.322,0.62-4.839,1.186-7.538,1.668c-0.459,0.083-0.933,0.167-1.406,0.25
				c-2.21,0.358-4.523,0.688-6.935,0.951c-0.467,0.041-0.933,0.096-1.398,0.138c-1.606,0.165-3.247,0.29-4.926,0.399
				c-0.466,0.042-0.933,0.069-1.406,0.097c-2.098,0.111-4.242,0.181-6.43,0.221c-0.465,0-0.933,0.015-1.405,0.015h-1.005
				c-2.041,0-4.05-0.041-6.027-0.11c-0.474-0.014-0.94-0.041-1.406-0.056c-2.018-0.097-3.993-0.234-5.923-0.4
				c-0.474-0.041-0.948-0.084-1.414-0.124c-1.334-0.124-2.635-0.276-3.912-0.428c-0.475-0.068-0.941-0.124-1.408-0.193
				c-1.623-0.221-3.205-0.469-4.725-0.745c-0.475-0.081-0.94-0.164-1.398-0.262c-1.325-0.248-2.596-0.524-3.826-0.827
				c-0.473-0.111-0.938-0.222-1.396-0.345c-1.526-0.388-2.966-0.801-4.323-1.256c-0.483-0.152-0.948-0.317-1.405-0.483
				c-1.432-0.511-2.742-1.048-3.914-1.628c-0.499-0.234-0.966-0.482-1.415-0.731c-1.174-0.648-2.177-1.323-3.006-2.027
				c-0.555-0.469-1.027-0.952-1.413-1.436c-0.853-1.076-1.304-2.192-1.304-3.339c0-4.689,0-15.796,0-15.796H176.046z"/>
			<ellipse fill="#F8E12E" cx="127.83" cy="211.495" rx="48.216" ry="12.747"/>
			<ellipse fill="#F2D32D" cx="127.83" cy="209.798" rx="39.577" ry="8.769"/>
			<path fill="#E3AE29" d="M89.46,211.954c4.338-3.801,19.87-6.612,38.37-6.612s34.032,2.812,38.368,6.612
				c0.786-0.689,1.208-1.412,1.208-2.156c0-4.842-17.718-8.768-39.576-8.768c-21.859,0-39.577,3.926-39.577,8.768
				C88.253,210.542,88.675,211.265,89.46,211.954z"/>
			<g>
				<path fill="#E3AE29" d="M82.33,218.566v13.492c-0.555-0.469-1.027-0.952-1.413-1.436v-12.057H82.33z"/>
				<path fill="#E3AE29" d="M86.751,222.525v12.292c-0.499-0.234-0.966-0.482-1.415-0.731v-11.561H86.751z"/>
				<path fill="#E3AE29" d="M92.07,224.954v11.975c-0.483-0.152-0.948-0.317-1.405-0.483v-11.491H92.07z"/>
				<path fill="#E3AE29" d="M97.79,226.582v11.947c-0.473-0.111-0.938-0.222-1.396-0.345v-11.603H97.79z"/>
				<path fill="#E3AE29" d="M103.015,228.141v11.478c-0.475-0.081-0.94-0.164-1.398-0.262v-11.216H103.015z"/>
				<path fill="#E3AE29" d="M109.147,229.176v11.381c-0.475-0.068-0.941-0.124-1.408-0.193v-11.188H109.147z"/>
				<path fill="#E3AE29" d="M114.474,229.176v11.933c-0.474-0.041-0.948-0.084-1.414-0.124v-11.809H114.474z"/>
				<path fill="#E3AE29" d="M121.803,229.176v12.389c-0.474-0.014-0.94-0.041-1.406-0.056v-12.333H121.803z"/>
				<path fill="#E3AE29" d="M130.24,228.141v13.52c-0.465,0-0.933,0.015-1.405,0.015v-13.534H130.24z"/>
				<path fill="#E3AE29" d="M138.076,226.582v14.761c-0.466,0.042-0.933,0.069-1.406,0.097v-14.857H138.076z"/>
				<path fill="#E3AE29" d="M144.4,226.582v14.224c-0.467,0.041-0.933,0.096-1.398,0.138v-14.361H144.4z"/>
				<path fill="#E3AE29" d="M152.741,224.954v14.65c-0.459,0.083-0.933,0.167-1.406,0.25v-14.9H152.741z"/>
				<path fill="#E3AE29" d="M161.677,223.395v14.127c-0.458,0.139-0.923,0.275-1.397,0.415v-14.542H161.677z"/>
				<path fill="#E3AE29" d="M168.813,219.601v15.271c-0.45,0.208-0.916,0.429-1.407,0.636v-15.907H168.813z"/>
				<path fill="#E3AE29" d="M173.836,217.007v14.598c-0.409,0.384-0.884,0.771-1.407,1.158v-15.756H173.836z"/>
			</g>
			<path fill="#E8E1E2" d="M173.836,224.622c-0.409,0.387-0.884,0.772-1.407,1.159c-1.01,0.731-2.226,1.436-3.615,2.11
				c-0.45,0.207-0.916,0.428-1.407,0.635c-1.695,0.732-3.616,1.407-5.729,2.016c-0.458,0.137-0.923,0.274-1.397,0.413
				c-2.322,0.621-4.839,1.187-7.538,1.67c-0.459,0.082-0.933,0.165-1.406,0.248c-2.21,0.357-4.523,0.689-6.935,0.951
				c-0.467,0.041-0.933,0.097-1.398,0.139c-1.606,0.164-3.247,0.289-4.926,0.399c-0.466,0.042-0.933,0.069-1.406,0.097
				c-2.098,0.11-4.242,0.179-6.43,0.221c-0.465,0-0.933,0.014-1.405,0.014h-1.005c-2.041,0-4.05-0.041-6.027-0.11
				c-0.474-0.014-0.94-0.041-1.406-0.056c-2.018-0.096-3.993-0.234-5.923-0.4c-0.474-0.041-0.948-0.082-1.414-0.123
				c-1.334-0.124-2.635-0.276-3.912-0.428c-0.475-0.069-0.941-0.125-1.408-0.193c-1.623-0.22-3.205-0.47-4.725-0.745
				c-0.475-0.083-0.94-0.166-1.398-0.263c-1.325-0.247-2.596-0.523-3.826-0.826c-0.473-0.111-0.938-0.222-1.396-0.346
				c-1.526-0.387-2.966-0.801-4.323-1.255c-0.483-0.152-0.948-0.318-1.405-0.483c-1.432-0.511-2.742-1.048-3.914-1.629
				c-0.499-0.234-0.966-0.481-1.415-0.73c-1.174-0.648-2.177-1.324-3.006-2.028c-0.555-0.469-1.027-0.952-1.413-1.435
				c-0.853-1.076-1.304-2.193-1.304-3.338c0,2.612,0,5.238,0,6.979c0,1.146,0.451,2.263,1.304,3.339
				c0.386,0.483,0.858,0.967,1.413,1.436c0.829,0.704,1.832,1.379,3.006,2.027c0.449,0.249,0.916,0.497,1.415,0.731
				c1.172,0.58,2.482,1.117,3.914,1.628c0.457,0.166,0.922,0.331,1.405,0.483c1.357,0.455,2.797,0.868,4.323,1.256
				c0.458,0.123,0.924,0.233,1.396,0.345c1.23,0.303,2.501,0.579,3.826,0.827c0.458,0.098,0.924,0.181,1.398,0.262
				c1.52,0.276,3.102,0.524,4.725,0.745c0.467,0.069,0.934,0.125,1.408,0.193c1.277,0.151,2.578,0.304,3.912,0.428
				c0.466,0.04,0.94,0.083,1.414,0.124c1.93,0.166,3.905,0.304,5.923,0.4c0.466,0.015,0.933,0.042,1.406,0.056
				c1.978,0.069,3.986,0.11,6.027,0.11h1.005c0.472,0,0.94-0.015,1.405-0.015c2.188-0.04,4.332-0.109,6.43-0.221
				c0.474-0.027,0.94-0.055,1.406-0.097c1.679-0.109,3.319-0.234,4.926-0.399c0.466-0.042,0.932-0.097,1.398-0.138
				c2.411-0.263,4.725-0.593,6.935-0.951c0.474-0.083,0.947-0.167,1.406-0.25c2.699-0.482,5.216-1.048,7.538-1.668
				c0.475-0.14,0.939-0.276,1.397-0.415c2.113-0.607,4.034-1.282,5.729-2.014c0.491-0.207,0.957-0.428,1.407-0.636
				c1.39-0.675,2.605-1.379,3.615-2.109c0.523-0.388,0.998-0.774,1.407-1.158c1.438-1.367,2.21-2.816,2.21-4.32v-6.979
				C176.046,221.809,175.273,223.257,173.836,224.622z"/>
		</g>
		<g>
			<path fill="#EDC62C" d="M181.238,192.309v15.796c0,1.504-0.771,2.952-2.21,4.318c-0.41,0.387-0.885,0.772-1.408,1.158
				c-1.012,0.731-2.225,1.436-3.615,2.111c-0.451,0.208-0.917,0.428-1.406,0.635c-1.695,0.731-3.616,1.406-5.729,2.015
				c-0.458,0.138-0.924,0.276-1.398,0.413c-2.322,0.621-4.837,1.187-7.537,1.67c-0.458,0.083-0.932,0.166-1.406,0.248
				c-2.21,0.358-4.524,0.69-6.934,0.952c-0.468,0.041-0.933,0.097-1.398,0.139c-1.608,0.164-3.248,0.289-4.928,0.399
				c-0.463,0.041-0.931,0.069-1.404,0.096c-2.098,0.111-4.243,0.18-6.43,0.221c-0.466,0-0.932,0.015-1.405,0.015h-1.005
				c-2.042,0-4.05-0.041-6.028-0.11c-0.473-0.014-0.939-0.042-1.404-0.055c-2.018-0.097-3.994-0.235-5.924-0.401
				c-0.474-0.04-0.948-0.082-1.415-0.123c-1.333-0.125-2.636-0.277-3.913-0.429c-0.474-0.068-0.941-0.124-1.408-0.193
				c-1.622-0.22-3.205-0.468-4.724-0.745c-0.474-0.082-0.94-0.165-1.399-0.262c-1.325-0.248-2.595-0.524-3.825-0.826
				c-0.473-0.111-0.938-0.222-1.396-0.346c-1.528-0.386-2.966-0.8-4.325-1.256c-0.482-0.151-0.947-0.317-1.405-0.481
				c-1.432-0.513-2.74-1.05-3.914-1.63c-0.499-0.234-0.965-0.482-1.415-0.73c-1.173-0.648-2.177-1.325-3.004-2.027
				c-0.557-0.47-1.03-0.953-1.414-1.436c-0.853-1.076-1.304-2.193-1.304-3.339c0-4.691,0-15.796,0-15.796H181.238z"/>
			<ellipse fill="#F8E12E" cx="133.022" cy="192.314" rx="48.216" ry="12.748"/>
			<ellipse fill="#F2D32D" cx="133.022" cy="190.619" rx="39.577" ry="8.767"/>
			<path fill="#E3AE29" d="M94.653,192.773c4.338-3.801,19.869-6.613,38.369-6.613c18.5,0,34.031,2.812,38.37,6.613
				c0.785-0.689,1.207-1.411,1.207-2.154c0-4.844-17.718-8.77-39.577-8.77c-21.858,0-39.577,3.925-39.577,8.77
				C93.445,191.362,93.867,192.084,94.653,192.773z"/>
			<g>
				<path fill="#E3AE29" d="M87.523,199.386v13.493c-0.557-0.47-1.03-0.953-1.414-1.436v-12.058H87.523z"/>
				<path fill="#E3AE29" d="M91.942,203.345v12.292c-0.499-0.234-0.965-0.482-1.415-0.73v-11.562H91.942z"/>
				<path fill="#E3AE29" d="M97.262,205.771v11.977c-0.482-0.151-0.947-0.317-1.405-0.481v-11.495H97.262z"/>
				<path fill="#E3AE29" d="M102.982,207.401v11.948c-0.473-0.111-0.938-0.222-1.396-0.346v-11.603H102.982z"/>
				<path fill="#E3AE29" d="M108.207,208.96v11.478c-0.474-0.082-0.94-0.165-1.399-0.262V208.96H108.207z"/>
				<path fill="#E3AE29" d="M114.339,209.995v11.381c-0.474-0.068-0.941-0.124-1.408-0.193v-11.188H114.339z"/>
				<path fill="#E3AE29" d="M119.666,209.995v11.933c-0.474-0.04-0.948-0.082-1.415-0.123v-11.81H119.666z"/>
				<path fill="#E3AE29" d="M126.994,209.995v12.389c-0.473-0.014-0.939-0.042-1.404-0.055v-12.334H126.994z"/>
				<path fill="#E3AE29" d="M135.433,208.96v13.52c-0.466,0-0.932,0.015-1.405,0.015V208.96H135.433z"/>
				<path fill="#E3AE29" d="M143.267,207.401v14.762c-0.463,0.041-0.931,0.069-1.404,0.096v-14.857H143.267z"/>
				<path fill="#E3AE29" d="M149.593,207.401v14.224c-0.468,0.041-0.933,0.097-1.398,0.139v-14.362H149.593z"/>
				<path fill="#E3AE29" d="M157.934,205.771v14.653c-0.458,0.083-0.932,0.166-1.406,0.248v-14.901H157.934z"/>
				<path fill="#E3AE29" d="M166.869,204.215v14.127c-0.458,0.138-0.924,0.276-1.398,0.413v-14.54H166.869z"/>
				<path fill="#E3AE29" d="M174.005,200.42v15.272c-0.451,0.208-0.917,0.428-1.406,0.635V200.42H174.005z"/>
				<path fill="#E3AE29" d="M179.028,197.826v14.597c-0.41,0.387-0.885,0.772-1.408,1.158v-15.755H179.028z"/>
			</g>
			<path fill="#E8E1E2" d="M179.028,205.442c-0.41,0.386-0.885,0.771-1.408,1.158c-1.012,0.73-2.225,1.435-3.615,2.111
				c-0.451,0.208-0.917,0.427-1.406,0.635c-1.695,0.731-3.616,1.405-5.729,2.015c-0.458,0.136-0.924,0.275-1.398,0.413
				c-2.322,0.621-4.837,1.187-7.537,1.669c-0.458,0.083-0.932,0.166-1.406,0.249c-2.21,0.358-4.524,0.69-6.934,0.952
				c-0.468,0.04-0.933,0.097-1.398,0.138c-1.608,0.164-3.248,0.29-4.928,0.399c-0.463,0.042-0.931,0.069-1.404,0.098
				c-2.098,0.109-4.243,0.178-6.43,0.221c-0.466,0-0.932,0.013-1.405,0.013h-1.005c-2.042,0-4.05-0.041-6.028-0.11
				c-0.473-0.014-0.939-0.041-1.404-0.055c-2.018-0.097-3.994-0.234-5.924-0.401c-0.474-0.04-0.948-0.083-1.415-0.123
				c-1.333-0.123-2.636-0.277-3.913-0.429c-0.474-0.068-0.941-0.123-1.408-0.192c-1.622-0.22-3.205-0.469-4.724-0.745
				c-0.474-0.081-0.94-0.165-1.399-0.262c-1.325-0.249-2.595-0.524-3.825-0.827c-0.473-0.11-0.938-0.222-1.396-0.345
				c-1.528-0.387-2.966-0.802-4.325-1.257c-0.482-0.15-0.947-0.316-1.405-0.482c-1.432-0.51-2.74-1.048-3.914-1.628
				c-0.499-0.234-0.965-0.482-1.415-0.73c-1.173-0.649-2.177-1.325-3.004-2.029c-0.557-0.469-1.03-0.951-1.414-1.434
				c-0.853-1.076-1.304-2.194-1.304-3.34c0,2.614,0,5.24,0,6.981c0,1.146,0.451,2.263,1.304,3.339
				c0.384,0.482,0.857,0.966,1.414,1.436c0.828,0.702,1.831,1.379,3.004,2.027c0.45,0.248,0.916,0.496,1.415,0.73
				c1.174,0.58,2.482,1.117,3.914,1.63c0.458,0.164,0.923,0.33,1.405,0.481c1.358,0.456,2.797,0.87,4.325,1.256
				c0.458,0.124,0.923,0.234,1.396,0.346c1.23,0.302,2.5,0.578,3.825,0.826c0.459,0.097,0.926,0.18,1.399,0.262
				c1.519,0.277,3.102,0.525,4.724,0.745c0.467,0.069,0.935,0.125,1.408,0.193c1.276,0.151,2.579,0.304,3.913,0.429
				c0.466,0.041,0.941,0.083,1.415,0.123c1.93,0.166,3.906,0.305,5.924,0.401c0.465,0.013,0.932,0.041,1.404,0.055
				c1.978,0.069,3.986,0.11,6.028,0.11h1.005c0.474,0,0.939-0.015,1.405-0.015c2.187-0.041,4.332-0.109,6.43-0.221
				c0.473-0.026,0.941-0.055,1.404-0.096c1.681-0.11,3.32-0.235,4.928-0.399c0.465-0.042,0.93-0.098,1.398-0.139
				c2.41-0.262,4.724-0.594,6.934-0.952c0.475-0.082,0.948-0.165,1.406-0.248c2.7-0.483,5.215-1.049,7.537-1.67
				c0.475-0.137,0.94-0.275,1.398-0.413c2.113-0.608,4.034-1.283,5.729-2.015c0.489-0.207,0.955-0.427,1.406-0.635
				c1.391-0.676,2.604-1.38,3.615-2.111c0.523-0.386,0.998-0.771,1.408-1.158c1.438-1.366,2.21-2.814,2.21-4.318v-6.981
				C181.238,202.628,180.467,204.075,179.028,205.442z"/>
		</g>
	</g>
</g>
<g>
	<g>
		<g>
			<path fill="#EDC62C" d="M287.394,250.809v15.795c0,1.505-0.772,2.952-2.21,4.318c-0.409,0.387-0.884,0.772-1.407,1.159
				c-1.011,0.731-2.226,1.435-3.616,2.11c-0.449,0.207-0.915,0.428-1.406,0.634c-1.695,0.732-3.616,1.407-5.729,2.016
				c-0.458,0.137-0.923,0.275-1.397,0.414c-2.323,0.62-4.839,1.187-7.537,1.669c-0.46,0.082-0.933,0.166-1.407,0.248
				c-2.21,0.358-4.523,0.69-6.935,0.953c-0.466,0.039-0.934,0.097-1.397,0.138c-1.608,0.163-3.248,0.289-4.926,0.399
				c-0.467,0.041-0.934,0.069-1.407,0.097c-2.098,0.11-4.242,0.179-6.43,0.221c-0.466,0-0.932,0.014-1.404,0.014h-1.007
				c-2.04,0-4.049-0.04-6.025-0.11c-0.475-0.014-0.939-0.042-1.406-0.056c-2.018-0.096-3.994-0.235-5.922-0.401
				c-0.476-0.039-0.949-0.082-1.416-0.123c-1.334-0.123-2.636-0.275-3.913-0.427c-0.474-0.069-0.939-0.125-1.407-0.194
				c-1.623-0.22-3.205-0.469-4.724-0.744c-0.476-0.082-0.941-0.165-1.398-0.263c-1.326-0.248-2.597-0.524-3.826-0.827
				c-0.474-0.11-0.94-0.221-1.397-0.344c-1.526-0.388-2.966-0.802-4.324-1.256c-0.482-0.152-0.946-0.317-1.405-0.483
				c-1.431-0.511-2.74-1.049-3.913-1.628c-0.499-0.234-0.967-0.482-1.415-0.731c-1.173-0.649-2.178-1.324-3.005-2.028
				c-0.555-0.47-1.028-0.952-1.414-1.434c-0.852-1.076-1.304-2.195-1.304-3.34c0-4.69,0-15.795,0-15.795H287.394z"/>
			<ellipse fill="#F8E12E" cx="239.177" cy="250.813" rx="48.216" ry="12.747"/>
			<ellipse fill="#F2D32D" cx="239.178" cy="249.117" rx="39.576" ry="8.768"/>
			<path fill="#E3AE29" d="M200.809,251.273c4.339-3.801,19.869-6.613,38.368-6.613c18.501,0,34.032,2.813,38.37,6.613
				c0.785-0.689,1.207-1.412,1.207-2.156c0-4.844-17.719-8.769-39.577-8.769c-21.857,0-39.575,3.925-39.575,8.769
				C199.602,249.861,200.022,250.584,200.809,251.273z"/>
			<g>
				<path fill="#E3AE29" d="M193.679,257.885v13.492c-0.555-0.47-1.028-0.952-1.414-1.434v-12.059H193.679z"/>
				<path fill="#E3AE29" d="M198.099,261.845v12.292c-0.499-0.234-0.967-0.482-1.415-0.731v-11.561H198.099z"/>
				<path fill="#E3AE29" d="M203.417,264.271v11.977c-0.482-0.152-0.946-0.317-1.405-0.483v-11.493H203.417z"/>
				<path fill="#E3AE29" d="M209.139,265.9v11.947c-0.474-0.11-0.94-0.221-1.397-0.344V265.9H209.139z"/>
				<path fill="#E3AE29" d="M214.363,267.459v11.479c-0.476-0.082-0.941-0.165-1.398-0.263v-11.216H214.363z"/>
				<path fill="#E3AE29" d="M220.494,268.494v11.382c-0.474-0.069-0.939-0.125-1.407-0.194v-11.188H220.494z"/>
				<path fill="#E3AE29" d="M225.823,268.494v11.932c-0.476-0.039-0.949-0.082-1.416-0.123v-11.809H225.823z"/>
				<path fill="#E3AE29" d="M233.151,268.494v12.389c-0.475-0.014-0.939-0.042-1.406-0.056v-12.333H233.151z"/>
				<path fill="#E3AE29" d="M241.588,267.459v13.521c-0.466,0-0.932,0.014-1.404,0.014v-13.534H241.588z"/>
				<path fill="#E3AE29" d="M249.425,265.9v14.762c-0.467,0.041-0.934,0.069-1.407,0.097V265.9H249.425z"/>
				<path fill="#E3AE29" d="M255.748,265.9v14.225c-0.466,0.039-0.934,0.097-1.397,0.138V265.9H255.748z"/>
				<path fill="#E3AE29" d="M264.09,264.271v14.652c-0.46,0.082-0.933,0.166-1.407,0.248v-14.9H264.09z"/>
				<path fill="#E3AE29" d="M273.024,262.713v14.128c-0.458,0.137-0.923,0.275-1.397,0.414v-14.542H273.024z"/>
				<path fill="#E3AE29" d="M280.16,258.92v15.271c-0.449,0.207-0.915,0.428-1.406,0.634V258.92H280.16z"/>
				<path fill="#E3AE29" d="M285.184,256.325v14.597c-0.409,0.387-0.884,0.772-1.407,1.159v-15.756H285.184z"/>
			</g>
			<path fill="#E8E1E2" d="M285.184,263.942c-0.409,0.385-0.884,0.771-1.407,1.157c-1.011,0.731-2.226,1.436-3.616,2.11
				c-0.449,0.208-0.915,0.428-1.406,0.636c-1.695,0.73-3.616,1.406-5.729,2.014c-0.458,0.138-0.923,0.275-1.397,0.414
				c-2.323,0.621-4.839,1.187-7.537,1.669c-0.46,0.083-0.933,0.166-1.407,0.249c-2.21,0.358-4.523,0.69-6.935,0.952
				c-0.466,0.04-0.934,0.097-1.397,0.137c-1.608,0.166-3.248,0.291-4.926,0.4c-0.467,0.041-0.934,0.069-1.407,0.097
				c-2.098,0.111-4.242,0.18-6.43,0.221c-0.466,0-0.932,0.014-1.404,0.014h-1.007c-2.04,0-4.049-0.04-6.025-0.109
				c-0.475-0.014-0.939-0.041-1.406-0.057c-2.018-0.096-3.994-0.234-5.922-0.399c-0.476-0.041-0.949-0.083-1.416-0.123
				c-1.334-0.124-2.636-0.277-3.913-0.429c-0.474-0.068-0.939-0.123-1.407-0.193c-1.623-0.221-3.205-0.469-4.724-0.745
				c-0.476-0.082-0.941-0.164-1.398-0.262c-1.326-0.247-2.597-0.524-3.826-0.827c-0.474-0.111-0.94-0.222-1.397-0.345
				c-1.526-0.388-2.966-0.801-4.324-1.256c-0.482-0.151-0.946-0.317-1.405-0.483c-1.431-0.511-2.74-1.048-3.913-1.628
				c-0.499-0.234-0.967-0.482-1.415-0.73c-1.173-0.649-2.178-1.325-3.005-2.028c-0.555-0.469-1.028-0.952-1.414-1.435
				c-0.852-1.077-1.304-2.193-1.304-3.34c0,2.614,0,5.239,0,6.981c0,1.145,0.452,2.264,1.304,3.34
				c0.386,0.481,0.859,0.964,1.414,1.434c0.827,0.704,1.832,1.379,3.005,2.028c0.448,0.249,0.916,0.497,1.415,0.731
				c1.173,0.579,2.482,1.117,3.913,1.628c0.459,0.166,0.923,0.331,1.405,0.483c1.358,0.454,2.798,0.868,4.324,1.256
				c0.457,0.123,0.924,0.233,1.397,0.344c1.229,0.303,2.5,0.579,3.826,0.827c0.457,0.098,0.923,0.181,1.398,0.263
				c1.519,0.275,3.101,0.524,4.724,0.744c0.468,0.069,0.934,0.125,1.407,0.194c1.277,0.151,2.579,0.304,3.913,0.427
				c0.467,0.041,0.94,0.084,1.416,0.123c1.928,0.166,3.904,0.306,5.922,0.401c0.467,0.014,0.932,0.042,1.406,0.056
				c1.977,0.07,3.985,0.11,6.025,0.11h1.007c0.473,0,0.938-0.014,1.404-0.014c2.188-0.042,4.332-0.11,6.43-0.221
				c0.474-0.027,0.94-0.056,1.407-0.097c1.678-0.11,3.317-0.236,4.926-0.399c0.464-0.041,0.932-0.099,1.397-0.138
				c2.411-0.263,4.725-0.595,6.935-0.953c0.475-0.082,0.947-0.166,1.407-0.248c2.698-0.482,5.214-1.049,7.537-1.669
				c0.475-0.139,0.939-0.277,1.397-0.414c2.113-0.608,4.034-1.283,5.729-2.016c0.491-0.206,0.957-0.427,1.406-0.634
				c1.391-0.676,2.605-1.379,3.616-2.11c0.523-0.387,0.998-0.772,1.407-1.159c1.438-1.366,2.21-2.813,2.21-4.318v-6.981
				C287.394,261.126,286.621,262.575,285.184,263.942z"/>
		</g>
		<g>
			<path fill="#EDC62C" d="M283.238,231.627v15.797c0,1.504-0.77,2.951-2.208,4.318c-0.41,0.386-0.884,0.771-1.406,1.158
				c-1.013,0.73-2.227,1.435-3.617,2.111c-0.448,0.207-0.916,0.428-1.406,0.633c-1.695,0.731-3.615,1.408-5.729,2.016
				c-0.458,0.138-0.924,0.275-1.397,0.415c-2.321,0.62-4.838,1.185-7.537,1.668c-0.459,0.082-0.934,0.166-1.408,0.249
				c-2.209,0.357-4.523,0.689-6.935,0.951c-0.466,0.042-0.931,0.097-1.398,0.138c-1.607,0.166-3.246,0.29-4.926,0.4
				c-0.466,0.041-0.931,0.069-1.405,0.097c-2.098,0.111-4.244,0.18-6.431,0.222c-0.464,0-0.932,0.014-1.405,0.014h-1.004
				c-2.042,0-4.051-0.042-6.027-0.112c-0.474-0.012-0.939-0.041-1.406-0.055c-2.018-0.096-3.994-0.233-5.922-0.399
				c-0.474-0.041-0.949-0.083-1.415-0.125c-1.334-0.123-2.636-0.275-3.913-0.427c-0.475-0.068-0.941-0.124-1.406-0.193
				c-1.623-0.221-3.207-0.469-4.725-0.745c-0.475-0.082-0.94-0.165-1.399-0.262c-1.325-0.248-2.596-0.524-3.825-0.828
				c-0.473-0.11-0.939-0.221-1.397-0.345c-1.528-0.387-2.966-0.8-4.325-1.255c-0.481-0.151-0.948-0.317-1.405-0.483
				c-1.431-0.51-2.739-1.048-3.913-1.629c-0.499-0.233-0.965-0.481-1.415-0.73c-1.174-0.647-2.178-1.324-3.005-2.028
				c-0.554-0.469-1.028-0.951-1.414-1.434c-0.852-1.076-1.303-2.194-1.303-3.339c0-4.691,0-15.797,0-15.797H283.238z"/>
			<ellipse fill="#F8E12E" cx="235.023" cy="231.634" rx="48.215" ry="12.747"/>
			<ellipse fill="#F2D32D" cx="235.024" cy="229.938" rx="39.577" ry="8.767"/>
			<path fill="#E3AE29" d="M196.655,232.092c4.338-3.8,19.869-6.612,38.369-6.612s34.031,2.813,38.367,6.612
				c0.788-0.689,1.209-1.411,1.209-2.154c0-4.844-17.72-8.771-39.576-8.771c-21.858,0-39.577,3.927-39.577,8.771
				C195.447,230.681,195.867,231.402,196.655,232.092z"/>
			<g>
				<path fill="#E3AE29" d="M189.524,238.704v13.492c-0.554-0.469-1.028-0.951-1.414-1.434v-12.059H189.524z"/>
				<path fill="#E3AE29" d="M193.944,242.663v12.292c-0.499-0.233-0.965-0.481-1.415-0.73v-11.562H193.944z"/>
				<path fill="#E3AE29" d="M199.263,245.092v11.976c-0.481-0.151-0.948-0.317-1.405-0.483v-11.492H199.263z"/>
				<path fill="#E3AE29" d="M204.985,246.72v11.947c-0.473-0.11-0.939-0.221-1.397-0.345V246.72H204.985z"/>
				<path fill="#E3AE29" d="M210.21,248.278v11.479c-0.475-0.082-0.94-0.165-1.399-0.262v-11.217H210.21z"/>
				<path fill="#E3AE29" d="M216.341,249.313v11.383c-0.475-0.068-0.941-0.124-1.406-0.193v-11.189H216.341z"/>
				<path fill="#E3AE29" d="M221.669,249.313v11.935c-0.474-0.041-0.949-0.083-1.415-0.125v-11.81H221.669z"/>
				<path fill="#E3AE29" d="M228.997,249.313v12.389c-0.474-0.012-0.939-0.041-1.406-0.055v-12.334H228.997z"/>
				<path fill="#E3AE29" d="M237.434,248.278V261.8c-0.464,0-0.932,0.014-1.405,0.014v-13.535H237.434z"/>
				<path fill="#E3AE29" d="M245.27,246.72v14.762c-0.466,0.041-0.931,0.069-1.405,0.097V246.72H245.27z"/>
				<path fill="#E3AE29" d="M251.594,246.72v14.224c-0.466,0.042-0.931,0.097-1.398,0.138V246.72H251.594z"/>
				<path fill="#E3AE29" d="M259.937,245.092v14.651c-0.459,0.082-0.934,0.166-1.408,0.249v-14.9H259.937z"/>
				<path fill="#E3AE29" d="M268.871,243.534v14.126c-0.458,0.138-0.924,0.275-1.397,0.415v-14.541H268.871z"/>
				<path fill="#E3AE29" d="M276.007,239.738v15.273c-0.448,0.207-0.916,0.428-1.406,0.633v-15.906H276.007z"/>
				<path fill="#E3AE29" d="M281.03,237.146v14.597c-0.41,0.386-0.884,0.771-1.406,1.158v-15.755H281.03z"/>
			</g>
			<path fill="#E8E1E2" d="M281.03,244.761c-0.41,0.386-0.884,0.772-1.406,1.158c-1.013,0.731-2.227,1.436-3.617,2.111
				c-0.448,0.208-0.916,0.428-1.406,0.635c-1.695,0.73-3.615,1.406-5.729,2.015c-0.458,0.138-0.924,0.275-1.397,0.413
				c-2.321,0.621-4.838,1.187-7.537,1.669c-0.459,0.084-0.934,0.166-1.408,0.248c-2.209,0.36-4.523,0.69-6.935,0.953
				c-0.466,0.041-0.931,0.096-1.398,0.138c-1.607,0.165-3.246,0.291-4.926,0.399c-0.466,0.042-0.931,0.07-1.405,0.097
				c-2.098,0.111-4.244,0.18-6.431,0.222c-0.464,0-0.932,0.014-1.405,0.014h-1.004c-2.042,0-4.051-0.041-6.027-0.11
				c-0.474-0.014-0.939-0.042-1.406-0.055c-2.018-0.097-3.994-0.235-5.922-0.401c-0.474-0.041-0.949-0.082-1.415-0.124
				c-1.334-0.124-2.636-0.276-3.913-0.428c-0.475-0.068-0.941-0.124-1.406-0.193c-1.623-0.22-3.207-0.469-4.725-0.745
				c-0.475-0.082-0.94-0.165-1.399-0.263c-1.325-0.246-2.596-0.523-3.825-0.826c-0.473-0.11-0.939-0.22-1.397-0.345
				c-1.528-0.387-2.966-0.8-4.325-1.256c-0.481-0.151-0.948-0.316-1.405-0.482c-1.431-0.512-2.739-1.049-3.913-1.629
				c-0.499-0.234-0.965-0.481-1.415-0.73c-1.174-0.648-2.178-1.325-3.005-2.028c-0.554-0.47-1.028-0.952-1.414-1.435
				c-0.852-1.076-1.303-2.193-1.303-3.339c0,2.613,0,5.239,0,6.981c0,1.145,0.451,2.263,1.303,3.339
				c0.386,0.482,0.86,0.965,1.414,1.434c0.827,0.704,1.831,1.381,3.005,2.028c0.45,0.249,0.916,0.497,1.415,0.73
				c1.174,0.581,2.482,1.119,3.913,1.629c0.457,0.166,0.924,0.332,1.405,0.483c1.359,0.455,2.797,0.868,4.325,1.255
				c0.458,0.124,0.925,0.234,1.397,0.345c1.229,0.304,2.5,0.58,3.825,0.828c0.459,0.097,0.925,0.18,1.399,0.262
				c1.518,0.276,3.102,0.524,4.725,0.745c0.465,0.069,0.932,0.125,1.406,0.193c1.277,0.151,2.579,0.304,3.913,0.427
				c0.466,0.042,0.941,0.084,1.415,0.125c1.928,0.166,3.904,0.304,5.922,0.399c0.467,0.014,0.933,0.043,1.406,0.055
				c1.977,0.07,3.985,0.112,6.027,0.112h1.004c0.474,0,0.941-0.014,1.405-0.014c2.187-0.042,4.333-0.11,6.431-0.222
				c0.475-0.027,0.939-0.056,1.405-0.097c1.68-0.11,3.318-0.234,4.926-0.4c0.468-0.041,0.933-0.096,1.398-0.138
				c2.411-0.262,4.726-0.594,6.935-0.951c0.475-0.083,0.949-0.167,1.408-0.249c2.699-0.483,5.216-1.048,7.537-1.668
				c0.474-0.14,0.939-0.277,1.397-0.415c2.114-0.607,4.034-1.284,5.729-2.016c0.49-0.205,0.958-0.426,1.406-0.633
				c1.391-0.677,2.604-1.381,3.617-2.111c0.522-0.388,0.996-0.772,1.406-1.158c1.438-1.367,2.208-2.814,2.208-4.318v-6.981
				C283.238,241.946,282.469,243.396,281.03,244.761z"/>
		</g>
		<g>
			<path fill="#EDC62C" d="M287.394,211.488v15.796c0,1.504-0.772,2.953-2.21,4.32c-0.409,0.384-0.884,0.771-1.407,1.158
				c-1.011,0.73-2.226,1.435-3.616,2.109c-0.449,0.208-0.915,0.429-1.406,0.636c-1.695,0.731-3.616,1.406-5.729,2.014
				c-0.458,0.139-0.923,0.275-1.397,0.415c-2.323,0.62-4.839,1.186-7.537,1.668c-0.46,0.083-0.933,0.167-1.407,0.25
				c-2.21,0.358-4.523,0.688-6.935,0.951c-0.466,0.041-0.934,0.096-1.397,0.138c-1.608,0.165-3.248,0.29-4.926,0.399
				c-0.467,0.042-0.934,0.069-1.407,0.097c-2.098,0.111-4.242,0.181-6.43,0.221c-0.466,0-0.932,0.015-1.404,0.015h-1.007
				c-2.04,0-4.049-0.041-6.025-0.11c-0.475-0.014-0.939-0.041-1.406-0.056c-2.018-0.097-3.994-0.234-5.922-0.4
				c-0.476-0.041-0.949-0.084-1.416-0.124c-1.334-0.124-2.636-0.276-3.913-0.428c-0.474-0.068-0.939-0.124-1.407-0.193
				c-1.623-0.221-3.205-0.469-4.724-0.745c-0.476-0.081-0.941-0.164-1.398-0.262c-1.326-0.248-2.597-0.524-3.826-0.827
				c-0.474-0.111-0.94-0.222-1.397-0.345c-1.526-0.388-2.966-0.801-4.324-1.256c-0.482-0.152-0.946-0.317-1.405-0.483
				c-1.431-0.511-2.74-1.048-3.913-1.628c-0.499-0.234-0.967-0.482-1.415-0.731c-1.173-0.648-2.178-1.323-3.005-2.027
				c-0.555-0.469-1.028-0.952-1.414-1.436c-0.852-1.076-1.304-2.192-1.304-3.339c0-4.689,0-15.796,0-15.796H287.394z"/>
			<ellipse fill="#F8E12E" cx="239.177" cy="211.495" rx="48.216" ry="12.747"/>
			<ellipse fill="#F2D32D" cx="239.178" cy="209.798" rx="39.576" ry="8.769"/>
			<path fill="#E3AE29" d="M200.809,211.954c4.339-3.801,19.869-6.612,38.368-6.612c18.501,0,34.032,2.812,38.37,6.612
				c0.785-0.689,1.207-1.412,1.207-2.156c0-4.842-17.719-8.768-39.577-8.768c-21.857,0-39.575,3.926-39.575,8.768
				C199.602,210.542,200.022,211.265,200.809,211.954z"/>
			<g>
				<path fill="#E3AE29" d="M193.679,218.566v13.492c-0.555-0.469-1.028-0.952-1.414-1.436v-12.057H193.679z"/>
				<path fill="#E3AE29" d="M198.099,222.525v12.292c-0.499-0.234-0.967-0.482-1.415-0.731v-11.561H198.099z"/>
				<path fill="#E3AE29" d="M203.417,224.954v11.975c-0.482-0.152-0.946-0.317-1.405-0.483v-11.491H203.417z"/>
				<path fill="#E3AE29" d="M209.139,226.582v11.947c-0.474-0.111-0.94-0.222-1.397-0.345v-11.603H209.139z"/>
				<path fill="#E3AE29" d="M214.363,228.141v11.478c-0.476-0.081-0.941-0.164-1.398-0.262v-11.216H214.363z"/>
				<path fill="#E3AE29" d="M220.494,229.176v11.381c-0.474-0.068-0.939-0.124-1.407-0.193v-11.188H220.494z"/>
				<path fill="#E3AE29" d="M225.823,229.176v11.933c-0.476-0.041-0.949-0.084-1.416-0.124v-11.809H225.823z"/>
				<path fill="#E3AE29" d="M233.151,229.176v12.389c-0.475-0.014-0.939-0.041-1.406-0.056v-12.333H233.151z"/>
				<path fill="#E3AE29" d="M241.588,228.141v13.52c-0.466,0-0.932,0.015-1.404,0.015v-13.534H241.588z"/>
				<path fill="#E3AE29" d="M249.425,226.582v14.761c-0.467,0.042-0.934,0.069-1.407,0.097v-14.857H249.425z"/>
				<path fill="#E3AE29" d="M255.748,226.582v14.224c-0.466,0.041-0.934,0.096-1.397,0.138v-14.361H255.748z"/>
				<path fill="#E3AE29" d="M264.09,224.954v14.65c-0.46,0.083-0.933,0.167-1.407,0.25v-14.9H264.09z"/>
				<path fill="#E3AE29" d="M273.024,223.395v14.127c-0.458,0.139-0.923,0.275-1.397,0.415v-14.542H273.024z"/>
				<path fill="#E3AE29" d="M280.16,219.601v15.271c-0.449,0.208-0.915,0.429-1.406,0.636v-15.907H280.16z"/>
				<path fill="#E3AE29" d="M285.184,217.007v14.598c-0.409,0.384-0.884,0.771-1.407,1.158v-15.756H285.184z"/>
			</g>
			<path fill="#E8E1E2" d="M285.184,224.622c-0.409,0.387-0.884,0.772-1.407,1.159c-1.011,0.731-2.226,1.436-3.616,2.11
				c-0.449,0.207-0.915,0.428-1.406,0.635c-1.695,0.732-3.616,1.407-5.729,2.016c-0.458,0.137-0.923,0.274-1.397,0.413
				c-2.323,0.621-4.839,1.187-7.537,1.67c-0.46,0.082-0.933,0.165-1.407,0.248c-2.21,0.357-4.523,0.689-6.935,0.951
				c-0.466,0.041-0.934,0.097-1.397,0.139c-1.608,0.164-3.248,0.289-4.926,0.399c-0.467,0.042-0.934,0.069-1.407,0.097
				c-2.098,0.11-4.242,0.179-6.43,0.221c-0.466,0-0.932,0.014-1.404,0.014h-1.007c-2.04,0-4.049-0.041-6.025-0.11
				c-0.475-0.014-0.939-0.041-1.406-0.056c-2.018-0.096-3.994-0.234-5.922-0.4c-0.476-0.041-0.949-0.082-1.416-0.123
				c-1.334-0.124-2.636-0.276-3.913-0.428c-0.474-0.069-0.939-0.125-1.407-0.193c-1.623-0.22-3.205-0.47-4.724-0.745
				c-0.476-0.083-0.941-0.166-1.398-0.263c-1.326-0.247-2.597-0.523-3.826-0.826c-0.474-0.111-0.94-0.222-1.397-0.346
				c-1.526-0.387-2.966-0.801-4.324-1.255c-0.482-0.152-0.946-0.318-1.405-0.483c-1.431-0.511-2.74-1.048-3.913-1.629
				c-0.499-0.234-0.967-0.481-1.415-0.73c-1.173-0.648-2.178-1.324-3.005-2.028c-0.555-0.469-1.028-0.952-1.414-1.435
				c-0.852-1.076-1.304-2.193-1.304-3.338c0,2.612,0,5.238,0,6.979c0,1.146,0.452,2.263,1.304,3.339
				c0.386,0.483,0.859,0.967,1.414,1.436c0.827,0.704,1.832,1.379,3.005,2.027c0.448,0.249,0.916,0.497,1.415,0.731
				c1.173,0.58,2.482,1.117,3.913,1.628c0.459,0.166,0.923,0.331,1.405,0.483c1.358,0.455,2.798,0.868,4.324,1.256
				c0.457,0.123,0.924,0.233,1.397,0.345c1.229,0.303,2.5,0.579,3.826,0.827c0.457,0.098,0.923,0.181,1.398,0.262
				c1.519,0.276,3.101,0.524,4.724,0.745c0.468,0.069,0.934,0.125,1.407,0.193c1.277,0.151,2.579,0.304,3.913,0.428
				c0.467,0.04,0.94,0.083,1.416,0.124c1.928,0.166,3.904,0.304,5.922,0.4c0.467,0.015,0.932,0.042,1.406,0.056
				c1.977,0.069,3.985,0.11,6.025,0.11h1.007c0.473,0,0.938-0.015,1.404-0.015c2.188-0.04,4.332-0.109,6.43-0.221
				c0.474-0.027,0.94-0.055,1.407-0.097c1.678-0.109,3.317-0.234,4.926-0.399c0.464-0.042,0.932-0.097,1.397-0.138
				c2.411-0.263,4.725-0.593,6.935-0.951c0.475-0.083,0.947-0.167,1.407-0.25c2.698-0.482,5.214-1.048,7.537-1.668
				c0.475-0.14,0.939-0.276,1.397-0.415c2.113-0.607,4.034-1.282,5.729-2.014c0.491-0.207,0.957-0.428,1.406-0.636
				c1.391-0.675,2.605-1.379,3.616-2.109c0.523-0.388,0.998-0.774,1.407-1.158c1.438-1.367,2.21-2.816,2.21-4.32v-6.979
				C287.394,221.809,286.621,223.257,285.184,224.622z"/>
		</g>
		<g>
			<path fill="#EDC62C" d="M292.585,192.309v15.796c0,1.504-0.771,2.952-2.209,4.318c-0.41,0.387-0.885,0.772-1.407,1.158
				c-1.012,0.731-2.226,1.436-3.616,2.111c-0.449,0.208-0.917,0.428-1.406,0.635c-1.695,0.731-3.616,1.406-5.729,2.015
				c-0.458,0.138-0.923,0.276-1.397,0.413c-2.322,0.621-4.839,1.187-7.538,1.67c-0.459,0.083-0.932,0.166-1.406,0.248
				c-2.21,0.358-4.523,0.69-6.934,0.952c-0.468,0.041-0.934,0.097-1.399,0.139c-1.608,0.164-3.248,0.289-4.928,0.399
				c-0.464,0.041-0.931,0.069-1.404,0.096c-2.098,0.111-4.242,0.18-6.43,0.221c-0.467,0-0.933,0.015-1.405,0.015h-1.005
				c-2.041,0-4.05-0.041-6.027-0.11c-0.474-0.014-0.939-0.042-1.406-0.055c-2.017-0.097-3.993-0.235-5.923-0.401
				c-0.474-0.04-0.948-0.082-1.414-0.123c-1.334-0.125-2.636-0.277-3.913-0.429c-0.473-0.068-0.941-0.124-1.408-0.193
				c-1.622-0.22-3.204-0.468-4.724-0.745c-0.474-0.082-0.94-0.165-1.398-0.262c-1.326-0.248-2.596-0.524-3.826-0.826
				c-0.473-0.111-0.938-0.222-1.396-0.346c-1.528-0.386-2.968-0.8-4.324-1.256c-0.483-0.151-0.948-0.317-1.405-0.481
				c-1.433-0.513-2.741-1.05-3.915-1.63c-0.498-0.234-0.965-0.482-1.414-0.73c-1.174-0.648-2.179-1.325-3.005-2.027
				c-0.557-0.47-1.028-0.953-1.413-1.436c-0.854-1.076-1.305-2.193-1.305-3.339c0-4.691,0-15.796,0-15.796H292.585z"/>
			<ellipse fill="#F8E12E" cx="244.369" cy="192.314" rx="48.216" ry="12.748"/>
			<ellipse fill="#F2D32D" cx="244.37" cy="190.619" rx="39.576" ry="8.767"/>
			<path fill="#E3AE29" d="M206.001,192.773c4.338-3.801,19.869-6.613,38.369-6.613c18.501,0,34.029,2.812,38.369,6.613
				c0.785-0.689,1.207-1.411,1.207-2.154c0-4.844-17.718-8.77-39.576-8.77s-39.576,3.925-39.576,8.77
				C204.794,191.362,205.215,192.084,206.001,192.773z"/>
			<g>
				<path fill="#E3AE29" d="M198.871,199.386v13.493c-0.557-0.47-1.028-0.953-1.413-1.436v-12.058H198.871z"/>
				<path fill="#E3AE29" d="M203.29,203.345v12.292c-0.498-0.234-0.965-0.482-1.414-0.73v-11.562H203.29z"/>
				<path fill="#E3AE29" d="M208.61,205.771v11.977c-0.483-0.151-0.948-0.317-1.405-0.481v-11.495H208.61z"/>
				<path fill="#E3AE29" d="M214.33,207.401v11.948c-0.473-0.111-0.938-0.222-1.396-0.346v-11.603H214.33z"/>
				<path fill="#E3AE29" d="M219.555,208.96v11.478c-0.474-0.082-0.94-0.165-1.398-0.262V208.96H219.555z"/>
				<path fill="#E3AE29" d="M225.687,209.995v11.381c-0.473-0.068-0.941-0.124-1.408-0.193v-11.188H225.687z"/>
				<path fill="#E3AE29" d="M231.014,209.995v11.933c-0.474-0.04-0.948-0.082-1.414-0.123v-11.81H231.014z"/>
				<path fill="#E3AE29" d="M238.343,209.995v12.389c-0.474-0.014-0.939-0.042-1.406-0.055v-12.334H238.343z"/>
				<path fill="#E3AE29" d="M246.78,208.96v13.52c-0.467,0-0.933,0.015-1.405,0.015V208.96H246.78z"/>
				<path fill="#E3AE29" d="M254.614,207.401v14.762c-0.464,0.041-0.931,0.069-1.404,0.096v-14.857H254.614z"/>
				<path fill="#E3AE29" d="M260.941,207.401v14.224c-0.468,0.041-0.934,0.097-1.399,0.139v-14.362H260.941z"/>
				<path fill="#E3AE29" d="M269.281,205.771v14.653c-0.459,0.083-0.932,0.166-1.406,0.248v-14.901H269.281z"/>
				<path fill="#E3AE29" d="M278.217,204.215v14.127c-0.458,0.138-0.923,0.276-1.397,0.413v-14.54H278.217z"/>
				<path fill="#E3AE29" d="M285.353,200.42v15.272c-0.449,0.208-0.917,0.428-1.406,0.635V200.42H285.353z"/>
				<path fill="#E3AE29" d="M290.376,197.826v14.597c-0.41,0.387-0.885,0.772-1.407,1.158v-15.755H290.376z"/>
			</g>
			<path fill="#E8E1E2" d="M290.376,205.442c-0.41,0.386-0.885,0.771-1.407,1.158c-1.012,0.73-2.226,1.435-3.616,2.111
				c-0.449,0.208-0.917,0.427-1.406,0.635c-1.695,0.731-3.616,1.405-5.729,2.015c-0.458,0.136-0.923,0.275-1.397,0.413
				c-2.322,0.621-4.839,1.187-7.538,1.669c-0.459,0.083-0.932,0.166-1.406,0.249c-2.21,0.358-4.523,0.69-6.934,0.952
				c-0.468,0.04-0.934,0.097-1.399,0.138c-1.608,0.164-3.248,0.29-4.928,0.399c-0.464,0.042-0.931,0.069-1.404,0.098
				c-2.098,0.109-4.242,0.178-6.43,0.221c-0.467,0-0.933,0.013-1.405,0.013h-1.005c-2.041,0-4.05-0.041-6.027-0.11
				c-0.474-0.014-0.939-0.041-1.406-0.055c-2.017-0.097-3.993-0.234-5.923-0.401c-0.474-0.04-0.948-0.083-1.414-0.123
				c-1.334-0.123-2.636-0.277-3.913-0.429c-0.473-0.068-0.941-0.123-1.408-0.192c-1.622-0.22-3.204-0.469-4.724-0.745
				c-0.474-0.081-0.94-0.165-1.398-0.262c-1.326-0.249-2.596-0.524-3.826-0.827c-0.473-0.11-0.938-0.222-1.396-0.345
				c-1.528-0.387-2.968-0.802-4.324-1.257c-0.483-0.15-0.948-0.316-1.405-0.482c-1.433-0.51-2.741-1.048-3.915-1.628
				c-0.498-0.234-0.965-0.482-1.414-0.73c-1.174-0.649-2.179-1.325-3.005-2.029c-0.557-0.469-1.028-0.951-1.413-1.434
				c-0.854-1.076-1.305-2.194-1.305-3.34c0,2.614,0,5.24,0,6.981c0,1.146,0.451,2.263,1.305,3.339
				c0.385,0.482,0.856,0.966,1.413,1.436c0.826,0.702,1.831,1.379,3.005,2.027c0.449,0.248,0.916,0.496,1.414,0.73
				c1.174,0.58,2.482,1.117,3.915,1.63c0.457,0.164,0.922,0.33,1.405,0.481c1.356,0.456,2.796,0.87,4.324,1.256
				c0.457,0.124,0.923,0.234,1.396,0.346c1.23,0.302,2.5,0.578,3.826,0.826c0.458,0.097,0.925,0.18,1.398,0.262
				c1.52,0.277,3.102,0.525,4.724,0.745c0.467,0.069,0.936,0.125,1.408,0.193c1.277,0.151,2.579,0.304,3.913,0.429
				c0.466,0.041,0.94,0.083,1.414,0.123c1.93,0.166,3.906,0.305,5.923,0.401c0.467,0.013,0.933,0.041,1.406,0.055
				c1.978,0.069,3.986,0.11,6.027,0.11h1.005c0.473,0,0.938-0.015,1.405-0.015c2.188-0.041,4.332-0.109,6.43-0.221
				c0.474-0.026,0.94-0.055,1.404-0.096c1.68-0.11,3.319-0.235,4.928-0.399c0.466-0.042,0.932-0.098,1.399-0.139
				c2.41-0.262,4.724-0.594,6.934-0.952c0.475-0.082,0.947-0.165,1.406-0.248c2.699-0.483,5.216-1.049,7.538-1.67
				c0.475-0.137,0.939-0.275,1.397-0.413c2.113-0.608,4.034-1.283,5.729-2.015c0.489-0.207,0.957-0.427,1.406-0.635
				c1.391-0.676,2.604-1.38,3.616-2.111c0.522-0.386,0.997-0.771,1.407-1.158c1.438-1.366,2.209-2.814,2.209-4.318v-6.981
				C292.585,202.628,291.813,204.075,290.376,205.442z"/>
		</g>
	</g>
</g>
<g>
	<g>
		<g>
			<path fill="#EDC62C" d="M290.474,169.484v15.796c0,1.503-0.772,2.953-2.21,4.318c-0.41,0.386-0.884,0.772-1.408,1.159
				c-1.01,0.731-2.225,1.435-3.616,2.11c-0.449,0.207-0.915,0.428-1.405,0.635c-1.696,0.731-3.617,1.406-5.73,2.015
				c-0.458,0.137-0.923,0.276-1.397,0.413c-2.323,0.621-4.839,1.187-7.537,1.67c-0.459,0.083-0.933,0.166-1.406,0.248
				c-2.211,0.359-4.524,0.69-6.935,0.952c-0.466,0.041-0.935,0.097-1.398,0.139c-1.607,0.165-3.248,0.29-4.926,0.399
				c-0.466,0.041-0.933,0.069-1.407,0.096c-2.098,0.112-4.242,0.18-6.429,0.222c-0.466,0-0.933,0.014-1.405,0.014h-1.006
				c-2.041,0-4.05-0.04-6.026-0.11c-0.475-0.013-0.94-0.042-1.406-0.055c-2.017-0.097-3.993-0.234-5.922-0.4
				c-0.476-0.041-0.949-0.083-1.416-0.124c-1.333-0.125-2.636-0.276-3.912-0.428c-0.474-0.069-0.94-0.125-1.408-0.194
				c-1.622-0.22-3.205-0.468-4.724-0.745c-0.475-0.081-0.94-0.163-1.398-0.263c-1.325-0.247-2.596-0.523-3.826-0.825
				c-0.473-0.111-0.939-0.222-1.397-0.345c-1.525-0.387-2.966-0.801-4.323-1.256c-0.482-0.152-0.947-0.317-1.406-0.483
				c-1.43-0.51-2.74-1.049-3.912-1.629c-0.5-0.233-0.966-0.482-1.414-0.73c-1.176-0.648-2.178-1.324-3.007-2.027
				c-0.555-0.47-1.028-0.952-1.413-1.435c-0.853-1.076-1.305-2.194-1.305-3.339c0-4.69,0-15.796,0-15.796H290.474z"/>
			<ellipse fill="#F8E12E" cx="242.257" cy="169.491" rx="48.217" ry="12.747"/>
			<ellipse fill="#F2D32D" cx="242.257" cy="167.794" rx="39.577" ry="8.768"/>
			<path fill="#E3AE29" d="M203.888,169.951c4.339-3.801,19.87-6.614,38.369-6.614c18.5,0,34.031,2.813,38.369,6.614
				c0.786-0.69,1.208-1.413,1.208-2.157c0-4.843-17.719-8.769-39.577-8.769s-39.576,3.925-39.576,8.769
				C202.681,168.538,203.102,169.261,203.888,169.951z"/>
			<g>
				<path fill="#E3AE29" d="M196.758,176.562v13.493c-0.555-0.47-1.028-0.952-1.413-1.435v-12.059H196.758z"/>
				<path fill="#E3AE29" d="M201.179,180.521v12.291c-0.5-0.233-0.966-0.482-1.414-0.73v-11.561H201.179z"/>
				<path fill="#E3AE29" d="M206.497,182.95v11.975c-0.482-0.152-0.947-0.317-1.406-0.483V182.95H206.497z"/>
				<path fill="#E3AE29" d="M212.218,184.578v11.948c-0.473-0.111-0.939-0.222-1.397-0.345v-11.603H212.218z"/>
				<path fill="#E3AE29" d="M217.442,186.136v11.478c-0.475-0.081-0.94-0.163-1.398-0.263v-11.215H217.442z"/>
				<path fill="#E3AE29" d="M223.574,187.171v11.382c-0.474-0.069-0.94-0.125-1.408-0.194v-11.188H223.574z"/>
				<path fill="#E3AE29" d="M228.902,187.171v11.934c-0.476-0.041-0.949-0.083-1.416-0.124v-11.81H228.902z"/>
				<path fill="#E3AE29" d="M236.23,187.171v12.389c-0.475-0.013-0.94-0.042-1.406-0.055v-12.334H236.23z"/>
				<path fill="#E3AE29" d="M244.668,186.136v13.521c-0.466,0-0.933,0.014-1.405,0.014v-13.534H244.668z"/>
				<path fill="#E3AE29" d="M252.504,184.578v14.761c-0.466,0.041-0.933,0.069-1.407,0.096v-14.857H252.504z"/>
				<path fill="#E3AE29" d="M258.828,184.578v14.223c-0.466,0.041-0.935,0.097-1.398,0.139v-14.362H258.828z"/>
				<path fill="#E3AE29" d="M267.169,182.95v14.651c-0.459,0.083-0.933,0.166-1.406,0.248V182.95H267.169z"/>
				<path fill="#E3AE29" d="M276.104,181.391v14.127c-0.458,0.137-0.923,0.276-1.397,0.413v-14.54H276.104z"/>
				<path fill="#E3AE29" d="M283.239,177.597v15.271c-0.449,0.207-0.915,0.428-1.405,0.635v-15.906H283.239z"/>
				<path fill="#E3AE29" d="M288.264,175.002v14.596c-0.41,0.386-0.884,0.772-1.408,1.159v-15.755H288.264z"/>
			</g>
			<path fill="#E8E1E2" d="M288.264,182.619c-0.41,0.386-0.884,0.771-1.408,1.158c-1.01,0.732-2.225,1.435-3.616,2.111
				c-0.449,0.208-0.915,0.427-1.405,0.635c-1.696,0.73-3.617,1.408-5.73,2.014c-0.458,0.137-0.923,0.276-1.397,0.416
				c-2.323,0.619-4.839,1.186-7.537,1.668c-0.459,0.083-0.933,0.165-1.406,0.249c-2.211,0.357-4.524,0.689-6.935,0.951
				c-0.466,0.041-0.935,0.097-1.398,0.138c-1.607,0.164-3.248,0.29-4.926,0.4c-0.466,0.041-0.933,0.069-1.407,0.097
				c-2.098,0.11-4.242,0.18-6.429,0.221c-0.466,0-0.933,0.014-1.405,0.014h-1.006c-2.041,0-4.05-0.041-6.026-0.11
				c-0.475-0.014-0.94-0.041-1.406-0.056c-2.017-0.096-3.993-0.235-5.922-0.401c-0.476-0.04-0.949-0.081-1.416-0.122
				c-1.333-0.125-2.636-0.276-3.912-0.428c-0.474-0.069-0.94-0.125-1.408-0.195c-1.622-0.219-3.205-0.468-4.724-0.743
				c-0.475-0.082-0.94-0.166-1.398-0.263c-1.325-0.247-2.596-0.524-3.826-0.827c-0.473-0.111-0.939-0.221-1.397-0.345
				c-1.525-0.387-2.966-0.801-4.323-1.255c-0.482-0.152-0.947-0.318-1.406-0.484c-1.43-0.51-2.74-1.047-3.912-1.628
				c-0.5-0.234-0.966-0.482-1.414-0.73c-1.176-0.649-2.178-1.325-3.007-2.028c-0.555-0.47-1.028-0.952-1.413-1.435
				c-0.853-1.076-1.305-2.194-1.305-3.339c0,2.614,0,5.24,0,6.981c0,1.145,0.452,2.263,1.305,3.339
				c0.385,0.482,0.858,0.965,1.413,1.435c0.829,0.703,1.831,1.379,3.007,2.027c0.448,0.248,0.914,0.497,1.414,0.73
				c1.172,0.58,2.482,1.119,3.912,1.629c0.459,0.166,0.924,0.331,1.406,0.483c1.357,0.455,2.798,0.869,4.323,1.256
				c0.458,0.123,0.925,0.233,1.397,0.345c1.23,0.302,2.501,0.578,3.826,0.825c0.458,0.1,0.924,0.182,1.398,0.263
				c1.519,0.277,3.102,0.525,4.724,0.745c0.468,0.069,0.935,0.125,1.408,0.194c1.276,0.151,2.579,0.303,3.912,0.428
				c0.467,0.041,0.94,0.083,1.416,0.124c1.929,0.166,3.905,0.304,5.922,0.4c0.466,0.013,0.932,0.042,1.406,0.055
				c1.977,0.07,3.985,0.11,6.026,0.11h1.006c0.473,0,0.939-0.014,1.405-0.014c2.187-0.042,4.331-0.109,6.429-0.222
				c0.475-0.026,0.941-0.055,1.407-0.096c1.678-0.109,3.318-0.234,4.926-0.399c0.464-0.042,0.933-0.098,1.398-0.139
				c2.41-0.262,4.724-0.593,6.935-0.952c0.474-0.082,0.947-0.165,1.406-0.248c2.698-0.483,5.214-1.049,7.537-1.67
				c0.475-0.137,0.939-0.276,1.397-0.413c2.113-0.608,4.034-1.283,5.73-2.015c0.49-0.207,0.956-0.428,1.405-0.635
				c1.392-0.676,2.606-1.379,3.616-2.11c0.524-0.387,0.998-0.773,1.408-1.159c1.438-1.365,2.21-2.814,2.21-4.318v-6.981
				C290.474,179.804,289.701,181.252,288.264,182.619z"/>
		</g>
		<g>
			<path fill="#EDC62C" d="M286.318,150.305v15.796c0,1.503-0.77,2.952-2.209,4.317c-0.41,0.387-0.884,0.772-1.407,1.159
				c-1.012,0.73-2.227,1.435-3.615,2.111c-0.449,0.207-0.916,0.427-1.406,0.634c-1.695,0.731-3.616,1.407-5.729,2.015
				c-0.46,0.138-0.926,0.275-1.399,0.414c-2.321,0.621-4.837,1.186-7.537,1.668c-0.458,0.083-0.934,0.166-1.407,0.249
				c-2.209,0.358-4.523,0.69-6.936,0.952c-0.466,0.041-0.931,0.097-1.397,0.138c-1.607,0.166-3.247,0.29-4.927,0.4
				c-0.466,0.041-0.932,0.07-1.406,0.097c-2.096,0.11-4.243,0.179-6.429,0.221c-0.466,0-0.933,0.015-1.406,0.015h-1.004
				c-2.042,0-4.05-0.042-6.027-0.112c-0.474-0.013-0.938-0.041-1.406-0.055c-2.017-0.096-3.992-0.234-5.922-0.4
				c-0.474-0.041-0.948-0.083-1.415-0.124c-1.334-0.124-2.635-0.276-3.912-0.428c-0.475-0.068-0.941-0.124-1.407-0.193
				c-1.623-0.22-3.206-0.469-4.724-0.746c-0.476-0.082-0.941-0.165-1.4-0.262c-1.325-0.247-2.595-0.523-3.823-0.828
				c-0.475-0.11-0.941-0.22-1.399-0.344c-1.527-0.387-2.966-0.8-4.324-1.256c-0.482-0.151-0.947-0.317-1.405-0.483
				c-1.432-0.51-2.74-1.048-3.913-1.628c-0.5-0.234-0.965-0.482-1.414-0.731c-1.176-0.648-2.179-1.324-3.007-2.028
				c-0.554-0.469-1.028-0.952-1.413-1.434c-0.853-1.077-1.303-2.194-1.303-3.338c0-4.691,0-15.796,0-15.796H286.318z"/>
			<ellipse fill="#F8E12E" cx="238.103" cy="150.311" rx="48.215" ry="12.747"/>
			<ellipse fill="#F2D32D" cx="238.104" cy="148.615" rx="39.577" ry="8.767"/>
			<path fill="#E3AE29" d="M199.735,150.77c4.336-3.8,19.868-6.613,38.368-6.613c18.501,0,34.032,2.813,38.367,6.613
				c0.788-0.689,1.21-1.412,1.21-2.155c0-4.844-17.72-8.771-39.577-8.771c-21.858,0-39.577,3.927-39.577,8.771
				C198.526,149.357,198.947,150.08,199.735,150.77z"/>
			<g>
				<path fill="#E3AE29" d="M192.604,157.381v13.492c-0.554-0.469-1.028-0.952-1.413-1.434v-12.058H192.604z"/>
				<path fill="#E3AE29" d="M197.024,161.341v12.292c-0.5-0.234-0.965-0.482-1.414-0.731v-11.561H197.024z"/>
				<path fill="#E3AE29" d="M202.343,163.769v11.975c-0.482-0.151-0.947-0.317-1.405-0.483v-11.492H202.343z"/>
				<path fill="#E3AE29" d="M208.066,165.396v11.947c-0.475-0.11-0.941-0.22-1.399-0.344v-11.603H208.066z"/>
				<path fill="#E3AE29" d="M213.29,166.956v11.478c-0.476-0.082-0.941-0.165-1.4-0.262v-11.216H213.29z"/>
				<path fill="#E3AE29" d="M219.421,167.99v11.382c-0.475-0.068-0.941-0.124-1.407-0.193V167.99H219.421z"/>
				<path fill="#E3AE29" d="M224.748,167.99v11.934c-0.474-0.041-0.948-0.083-1.415-0.124v-11.81H224.748z"/>
				<path fill="#E3AE29" d="M232.076,167.99v12.389c-0.474-0.013-0.938-0.041-1.406-0.055V167.99H232.076z"/>
				<path fill="#E3AE29" d="M240.514,166.956v13.521c-0.466,0-0.933,0.015-1.406,0.015v-13.535H240.514z"/>
				<path fill="#E3AE29" d="M248.349,165.396v14.762c-0.466,0.041-0.932,0.07-1.406,0.097v-14.859H248.349z"/>
				<path fill="#E3AE29" d="M254.673,165.396v14.224c-0.466,0.041-0.931,0.097-1.397,0.138v-14.362H254.673z"/>
				<path fill="#E3AE29" d="M263.016,163.769v14.651c-0.458,0.083-0.934,0.166-1.407,0.249v-14.9H263.016z"/>
				<path fill="#E3AE29" d="M271.952,162.21v14.127c-0.46,0.138-0.926,0.275-1.399,0.414V162.21H271.952z"/>
				<path fill="#E3AE29" d="M279.087,158.416v15.273c-0.449,0.207-0.916,0.427-1.406,0.634v-15.907H279.087z"/>
				<path fill="#E3AE29" d="M284.109,155.823v14.596c-0.41,0.387-0.884,0.772-1.407,1.159v-15.755H284.109z"/>
			</g>
			<path fill="#E8E1E2" d="M284.109,163.438c-0.41,0.386-0.884,0.771-1.407,1.159c-1.012,0.731-2.227,1.435-3.615,2.11
				c-0.449,0.208-0.916,0.428-1.406,0.634c-1.695,0.732-3.616,1.408-5.729,2.016c-0.46,0.137-0.926,0.275-1.399,0.414
				c-2.321,0.621-4.837,1.186-7.537,1.669c-0.458,0.082-0.934,0.166-1.407,0.248c-2.209,0.358-4.523,0.69-6.936,0.952
				c-0.466,0.042-0.931,0.096-1.397,0.138c-1.607,0.166-3.247,0.29-4.927,0.399c-0.466,0.042-0.932,0.07-1.406,0.097
				c-2.096,0.11-4.243,0.18-6.429,0.222c-0.466,0-0.933,0.014-1.406,0.014h-1.004c-2.042,0-4.05-0.042-6.027-0.11
				c-0.474-0.015-0.938-0.042-1.406-0.056c-2.017-0.096-3.992-0.235-5.922-0.4c-0.474-0.042-0.948-0.083-1.415-0.125
				c-1.334-0.124-2.635-0.276-3.912-0.427c-0.475-0.069-0.941-0.125-1.407-0.194c-1.623-0.22-3.206-0.469-4.724-0.745
				c-0.476-0.082-0.941-0.166-1.4-0.262c-1.325-0.248-2.595-0.524-3.823-0.827c-0.475-0.111-0.941-0.221-1.399-0.345
				c-1.527-0.387-2.966-0.8-4.324-1.255c-0.482-0.151-0.947-0.317-1.405-0.482c-1.432-0.511-2.74-1.049-3.913-1.629
				c-0.5-0.234-0.965-0.482-1.414-0.73c-1.176-0.649-2.179-1.325-3.007-2.028c-0.554-0.469-1.028-0.953-1.413-1.434
				c-0.853-1.076-1.303-2.194-1.303-3.339c0,2.613,0,5.239,0,6.981c0,1.145,0.45,2.262,1.303,3.338
				c0.385,0.482,0.859,0.965,1.413,1.434c0.828,0.704,1.831,1.38,3.007,2.028c0.449,0.249,0.914,0.497,1.414,0.731
				c1.173,0.58,2.481,1.118,3.913,1.628c0.458,0.166,0.923,0.332,1.405,0.483c1.358,0.456,2.797,0.869,4.324,1.256
				c0.458,0.125,0.925,0.234,1.399,0.344c1.229,0.304,2.498,0.581,3.823,0.828c0.459,0.097,0.925,0.18,1.4,0.262
				c1.518,0.277,3.101,0.526,4.724,0.746c0.466,0.069,0.933,0.125,1.407,0.193c1.277,0.152,2.578,0.304,3.912,0.428
				c0.467,0.042,0.941,0.083,1.415,0.124c1.93,0.166,3.905,0.305,5.922,0.4c0.468,0.014,0.933,0.042,1.406,0.055
				c1.978,0.069,3.985,0.112,6.027,0.112h1.004c0.474,0,0.94-0.015,1.406-0.015c2.186-0.042,4.333-0.11,6.429-0.221
				c0.475-0.027,0.94-0.056,1.406-0.097c1.68-0.11,3.319-0.234,4.927-0.4c0.467-0.041,0.932-0.097,1.397-0.138
				c2.412-0.262,4.727-0.594,6.936-0.952c0.474-0.083,0.949-0.166,1.407-0.249c2.7-0.483,5.216-1.047,7.537-1.668
				c0.474-0.139,0.939-0.276,1.399-0.414c2.112-0.608,4.033-1.284,5.729-2.015c0.49-0.207,0.957-0.427,1.406-0.634
				c1.389-0.676,2.604-1.38,3.615-2.111c0.523-0.387,0.997-0.772,1.407-1.159c1.439-1.366,2.209-2.814,2.209-4.317v-6.981
				C286.318,160.624,285.549,162.072,284.109,163.438z"/>
		</g>
		<g>
			<path fill="#EDC62C" d="M290.474,130.166v15.795c0,1.504-0.772,2.952-2.21,4.32c-0.41,0.385-0.884,0.771-1.408,1.158
				c-1.01,0.731-2.225,1.434-3.616,2.11c-0.449,0.208-0.915,0.428-1.405,0.635c-1.696,0.731-3.617,1.407-5.73,2.014
				c-0.458,0.138-0.923,0.276-1.397,0.414c-2.323,0.621-4.839,1.186-7.537,1.669c-0.459,0.083-0.933,0.167-1.406,0.25
				c-2.211,0.358-4.524,0.689-6.935,0.951c-0.466,0.041-0.935,0.097-1.398,0.139c-1.607,0.164-3.248,0.289-4.926,0.399
				c-0.466,0.042-0.933,0.07-1.407,0.097c-2.098,0.11-4.242,0.179-6.429,0.221c-0.466,0-0.933,0.014-1.405,0.014h-1.006
				c-2.041,0-4.05-0.041-6.026-0.11c-0.475-0.014-0.94-0.041-1.406-0.056c-2.017-0.096-3.993-0.234-5.922-0.401
				c-0.476-0.041-0.949-0.082-1.416-0.124c-1.333-0.124-2.636-0.275-3.912-0.428c-0.474-0.068-0.94-0.124-1.408-0.193
				c-1.622-0.221-3.205-0.469-4.724-0.745c-0.475-0.082-0.94-0.165-1.398-0.262c-1.325-0.248-2.596-0.524-3.826-0.827
				c-0.473-0.111-0.939-0.222-1.397-0.345c-1.525-0.387-2.966-0.801-4.323-1.256c-0.482-0.152-0.947-0.318-1.406-0.483
				c-1.43-0.51-2.74-1.048-3.912-1.628c-0.5-0.234-0.966-0.482-1.414-0.731c-1.176-0.649-2.178-1.324-3.007-2.028
				c-0.555-0.469-1.028-0.952-1.413-1.435c-0.853-1.077-1.305-2.194-1.305-3.339c0-4.69,0-15.795,0-15.795H290.474z"/>
			<ellipse fill="#F8E12E" cx="242.257" cy="130.172" rx="48.217" ry="12.748"/>
			<ellipse fill="#F2D32D" cx="242.257" cy="128.476" rx="39.577" ry="8.768"/>
			<path fill="#E3AE29" d="M203.888,130.631c4.339-3.8,19.87-6.613,38.369-6.613c18.5,0,34.031,2.813,38.369,6.613
				c0.786-0.69,1.208-1.413,1.208-2.156c0-4.843-17.719-8.768-39.577-8.768s-39.576,3.925-39.576,8.768
				C202.681,129.219,203.102,129.941,203.888,130.631z"/>
			<g>
				<path fill="#E3AE29" d="M196.758,137.243v13.492c-0.555-0.469-1.028-0.952-1.413-1.435v-12.058H196.758z"/>
				<path fill="#E3AE29" d="M201.179,141.203v12.292c-0.5-0.234-0.966-0.482-1.414-0.731v-11.561H201.179z"/>
				<path fill="#E3AE29" d="M206.497,143.63v11.976c-0.482-0.152-0.947-0.318-1.406-0.483V143.63H206.497z"/>
				<path fill="#E3AE29" d="M212.218,145.258v11.949c-0.473-0.111-0.939-0.222-1.397-0.345v-11.604H212.218z"/>
				<path fill="#E3AE29" d="M217.442,146.817v11.479c-0.475-0.082-0.94-0.165-1.398-0.262v-11.217H217.442z"/>
				<path fill="#E3AE29" d="M223.574,147.852v11.381c-0.474-0.068-0.94-0.124-1.408-0.193v-11.188H223.574z"/>
				<path fill="#E3AE29" d="M228.902,147.852v11.933c-0.476-0.041-0.949-0.082-1.416-0.124v-11.809H228.902z"/>
				<path fill="#E3AE29" d="M236.23,147.852v12.389c-0.475-0.014-0.94-0.041-1.406-0.056v-12.333H236.23z"/>
				<path fill="#E3AE29" d="M244.668,146.817v13.521c-0.466,0-0.933,0.014-1.405,0.014v-13.535H244.668z"/>
				<path fill="#E3AE29" d="M252.504,145.258v14.762c-0.466,0.042-0.933,0.07-1.407,0.097v-14.859H252.504z"/>
				<path fill="#E3AE29" d="M258.828,145.258v14.225c-0.466,0.041-0.935,0.097-1.398,0.139v-14.363H258.828z"/>
				<path fill="#E3AE29" d="M267.169,143.63v14.651c-0.459,0.083-0.933,0.167-1.406,0.25V143.63H267.169z"/>
				<path fill="#E3AE29" d="M276.104,142.071v14.127c-0.458,0.138-0.923,0.276-1.397,0.414v-14.542H276.104z"/>
				<path fill="#E3AE29" d="M283.239,138.278v15.272c-0.449,0.208-0.915,0.428-1.405,0.635v-15.907H283.239z"/>
				<path fill="#E3AE29" d="M288.264,135.684v14.597c-0.41,0.385-0.884,0.771-1.408,1.158v-15.755H288.264z"/>
			</g>
			<path fill="#E8E1E2" d="M288.264,143.3c-0.41,0.385-0.884,0.772-1.408,1.159c-1.01,0.731-2.225,1.435-3.616,2.11
				c-0.449,0.208-0.915,0.428-1.405,0.635c-1.696,0.731-3.617,1.407-5.73,2.014c-0.458,0.138-0.923,0.275-1.397,0.414
				c-2.323,0.621-4.839,1.187-7.537,1.67c-0.459,0.083-0.933,0.166-1.406,0.248c-2.211,0.358-4.524,0.689-6.935,0.952
				c-0.466,0.041-0.935,0.096-1.398,0.139c-1.607,0.165-3.248,0.289-4.926,0.399c-0.466,0.042-0.933,0.069-1.407,0.097
				c-2.098,0.111-4.242,0.18-6.429,0.221c-0.466,0-0.933,0.014-1.405,0.014h-1.006c-2.041,0-4.05-0.041-6.026-0.11
				c-0.475-0.014-0.94-0.042-1.406-0.056c-2.017-0.096-3.993-0.233-5.922-0.399c-0.476-0.042-0.949-0.084-1.416-0.125
				c-1.333-0.124-2.636-0.276-3.912-0.427c-0.474-0.069-0.94-0.125-1.408-0.194c-1.622-0.22-3.205-0.469-4.724-0.745
				c-0.475-0.082-0.94-0.164-1.398-0.262c-1.325-0.248-2.596-0.524-3.826-0.827c-0.473-0.11-0.939-0.221-1.397-0.345
				c-1.525-0.387-2.966-0.8-4.323-1.255c-0.482-0.153-0.947-0.317-1.406-0.483c-1.43-0.511-2.74-1.048-3.912-1.628
				c-0.5-0.234-0.966-0.482-1.414-0.73c-1.176-0.649-2.178-1.324-3.007-2.028c-0.555-0.469-1.028-0.953-1.413-1.436
				c-0.853-1.076-1.305-2.192-1.305-3.339c0,2.614,0,5.24,0,6.981c0,1.146,0.452,2.263,1.305,3.339
				c0.385,0.482,0.858,0.965,1.413,1.435c0.829,0.704,1.831,1.379,3.007,2.028c0.448,0.249,0.914,0.497,1.414,0.731
				c1.172,0.58,2.482,1.118,3.912,1.628c0.459,0.165,0.924,0.331,1.406,0.483c1.357,0.455,2.798,0.869,4.323,1.256
				c0.458,0.123,0.925,0.233,1.397,0.345c1.23,0.303,2.501,0.58,3.826,0.827c0.458,0.097,0.924,0.18,1.398,0.262
				c1.519,0.276,3.102,0.524,4.724,0.745c0.468,0.069,0.935,0.125,1.408,0.193c1.276,0.152,2.579,0.304,3.912,0.428
				c0.467,0.042,0.94,0.083,1.416,0.124c1.929,0.167,3.905,0.305,5.922,0.401c0.466,0.015,0.932,0.042,1.406,0.056
				c1.977,0.07,3.985,0.11,6.026,0.11h1.006c0.473,0,0.939-0.014,1.405-0.014c2.187-0.042,4.331-0.11,6.429-0.221
				c0.475-0.027,0.941-0.055,1.407-0.097c1.678-0.11,3.318-0.235,4.926-0.399c0.464-0.042,0.933-0.098,1.398-0.139
				c2.41-0.262,4.724-0.593,6.935-0.951c0.474-0.083,0.947-0.167,1.406-0.25c2.698-0.483,5.214-1.048,7.537-1.669
				c0.475-0.138,0.939-0.276,1.397-0.414c2.113-0.607,4.034-1.283,5.73-2.014c0.49-0.207,0.956-0.427,1.405-0.635
				c1.392-0.676,2.606-1.379,3.616-2.11c0.524-0.387,0.998-0.773,1.408-1.158c1.438-1.368,2.21-2.815,2.21-4.32v-6.981
				C290.474,140.485,289.701,141.934,288.264,143.3z"/>
		</g>
		<g>
			<path fill="#EDC62C" d="M295.664,110.985v15.796c0,1.504-0.771,2.952-2.208,4.318c-0.411,0.387-0.886,0.772-1.407,1.159
				c-1.013,0.731-2.226,1.435-3.617,2.111c-0.45,0.208-0.917,0.428-1.405,0.634c-1.695,0.732-3.617,1.408-5.73,2.016
				c-0.458,0.137-0.924,0.275-1.398,0.414c-2.321,0.621-4.838,1.186-7.536,1.669c-0.459,0.083-0.933,0.166-1.407,0.249
				c-2.209,0.358-4.522,0.689-6.934,0.953c-0.467,0.041-0.934,0.096-1.399,0.138c-1.606,0.165-3.247,0.289-4.927,0.399
				c-0.465,0.042-0.932,0.069-1.404,0.097c-2.099,0.11-4.243,0.179-6.431,0.221c-0.466,0-0.932,0.014-1.405,0.014h-1.005
				c-2.041,0-4.049-0.041-6.027-0.111c-0.474-0.014-0.939-0.041-1.405-0.055c-2.018-0.096-3.994-0.234-5.922-0.4
				c-0.475-0.041-0.949-0.083-1.416-0.124c-1.334-0.124-2.636-0.277-3.913-0.428c-0.473-0.069-0.939-0.125-1.407-0.193
				c-1.623-0.22-3.205-0.469-4.725-0.746c-0.474-0.081-0.939-0.165-1.397-0.262c-1.327-0.248-2.597-0.524-3.826-0.826
				c-0.473-0.111-0.939-0.222-1.396-0.346c-1.528-0.386-2.968-0.8-4.324-1.255c-0.483-0.151-0.948-0.317-1.405-0.482
				c-1.432-0.512-2.74-1.049-3.914-1.629c-0.499-0.235-0.965-0.482-1.414-0.73c-1.175-0.648-2.179-1.325-3.006-2.029
				c-0.555-0.469-1.028-0.952-1.413-1.434c-0.853-1.076-1.305-2.195-1.305-3.339c0-4.691,0-15.796,0-15.796H295.664z"/>
			<ellipse fill="#F8E12E" cx="247.448" cy="110.991" rx="48.216" ry="12.748"/>
			<ellipse fill="#F2D32D" cx="247.45" cy="109.295" rx="39.577" ry="8.767"/>
			<path fill="#E3AE29" d="M209.081,111.451c4.338-3.801,19.868-6.613,38.368-6.613c18.501,0,34.03,2.812,38.369,6.613
				c0.786-0.69,1.208-1.412,1.208-2.155c0-4.843-17.719-8.769-39.577-8.769s-39.576,3.926-39.576,8.769
				C207.873,110.039,208.295,110.761,209.081,111.451z"/>
			<g>
				<path fill="#E3AE29" d="M201.95,118.063v13.492c-0.555-0.469-1.028-0.952-1.413-1.434v-12.059H201.95z"/>
				<path fill="#E3AE29" d="M206.37,122.022v12.292c-0.499-0.235-0.965-0.482-1.414-0.73v-11.562H206.37z"/>
				<path fill="#E3AE29" d="M211.689,124.449v11.976c-0.483-0.151-0.948-0.317-1.405-0.482v-11.494H211.689z"/>
				<path fill="#E3AE29" d="M217.41,126.078v11.948c-0.473-0.111-0.939-0.222-1.396-0.346v-11.602H217.41z"/>
				<path fill="#E3AE29" d="M222.634,127.637v11.478c-0.474-0.081-0.939-0.165-1.397-0.262v-11.216H222.634z"/>
				<path fill="#E3AE29" d="M228.766,128.671v11.382c-0.473-0.069-0.939-0.125-1.407-0.193v-11.189H228.766z"/>
				<path fill="#E3AE29" d="M234.095,128.671v11.934c-0.475-0.041-0.949-0.083-1.416-0.124v-11.81H234.095z"/>
				<path fill="#E3AE29" d="M241.422,128.671v12.389c-0.474-0.014-0.939-0.041-1.405-0.055v-12.334H241.422z"/>
				<path fill="#E3AE29" d="M249.859,127.637v13.521c-0.466,0-0.932,0.014-1.405,0.014v-13.534H249.859z"/>
				<path fill="#E3AE29" d="M257.694,126.078v14.762c-0.465,0.042-0.932,0.069-1.404,0.097v-14.858H257.694z"/>
				<path fill="#E3AE29" d="M264.021,126.078v14.225c-0.467,0.041-0.934,0.096-1.399,0.138v-14.362H264.021z"/>
				<path fill="#E3AE29" d="M272.361,124.449v14.652c-0.459,0.083-0.933,0.166-1.407,0.249v-14.901H272.361z"/>
				<path fill="#E3AE29" d="M281.296,122.892v14.127c-0.458,0.137-0.924,0.275-1.398,0.414v-14.541H281.296z"/>
				<path fill="#E3AE29" d="M288.432,119.097v15.272c-0.45,0.208-0.917,0.428-1.405,0.634v-15.906H288.432z"/>
				<path fill="#E3AE29" d="M293.456,116.504V131.1c-0.411,0.387-0.886,0.772-1.407,1.159v-15.754H293.456z"/>
			</g>
			<path fill="#E8E1E2" d="M293.456,124.119c-0.411,0.386-0.886,0.772-1.407,1.158c-1.013,0.731-2.226,1.435-3.617,2.11
				c-0.45,0.208-0.917,0.428-1.405,0.636c-1.695,0.731-3.617,1.406-5.73,2.014c-0.458,0.137-0.924,0.276-1.398,0.414
				c-2.321,0.621-4.838,1.187-7.536,1.669c-0.459,0.083-0.933,0.166-1.407,0.249c-2.209,0.359-4.522,0.69-6.934,0.952
				c-0.467,0.041-0.934,0.096-1.399,0.138c-1.606,0.165-3.247,0.291-4.927,0.4c-0.465,0.041-0.932,0.068-1.404,0.096
				c-2.099,0.111-4.243,0.179-6.431,0.222c-0.466,0-0.932,0.014-1.405,0.014h-1.005c-2.041,0-4.049-0.042-6.027-0.111
				c-0.474-0.013-0.939-0.041-1.405-0.054c-2.018-0.097-3.994-0.235-5.922-0.401c-0.475-0.041-0.949-0.083-1.416-0.124
				c-1.334-0.124-2.636-0.277-3.913-0.428c-0.473-0.068-0.939-0.124-1.407-0.193c-1.623-0.22-3.205-0.468-4.725-0.745
				c-0.474-0.082-0.939-0.164-1.397-0.262c-1.327-0.248-2.597-0.524-3.826-0.827c-0.473-0.11-0.939-0.222-1.396-0.345
				c-1.528-0.386-2.968-0.8-4.324-1.256c-0.483-0.151-0.948-0.317-1.405-0.482c-1.432-0.51-2.74-1.048-3.914-1.628
				c-0.499-0.234-0.965-0.482-1.414-0.731c-1.175-0.648-2.179-1.325-3.006-2.029c-0.555-0.468-1.028-0.952-1.413-1.434
				c-0.853-1.076-1.305-2.194-1.305-3.339c0,2.614,0,5.239,0,6.981c0,1.145,0.452,2.263,1.305,3.339
				c0.385,0.481,0.858,0.964,1.413,1.434c0.827,0.704,1.831,1.38,3.006,2.029c0.449,0.248,0.915,0.496,1.414,0.73
				c1.174,0.58,2.482,1.117,3.914,1.629c0.457,0.166,0.922,0.331,1.405,0.482c1.356,0.455,2.796,0.869,4.324,1.255
				c0.457,0.125,0.924,0.235,1.396,0.346c1.229,0.302,2.499,0.579,3.826,0.826c0.458,0.097,0.924,0.181,1.397,0.262
				c1.52,0.277,3.102,0.526,4.725,0.746c0.468,0.068,0.935,0.124,1.407,0.193c1.277,0.151,2.579,0.304,3.913,0.428
				c0.467,0.041,0.941,0.083,1.416,0.124c1.928,0.166,3.904,0.304,5.922,0.4c0.466,0.014,0.932,0.041,1.405,0.055
				c1.979,0.07,3.986,0.111,6.027,0.111h1.005c0.474,0,0.939-0.014,1.405-0.014c2.188-0.042,4.332-0.111,6.431-0.221
				c0.473-0.027,0.939-0.055,1.404-0.097c1.68-0.11,3.32-0.234,4.927-0.399c0.466-0.042,0.933-0.097,1.399-0.138
				c2.411-0.264,4.725-0.595,6.934-0.953c0.475-0.083,0.948-0.166,1.407-0.249c2.698-0.483,5.215-1.048,7.536-1.669
				c0.475-0.138,0.94-0.276,1.398-0.414c2.113-0.608,4.035-1.284,5.73-2.016c0.488-0.207,0.955-0.427,1.405-0.634
				c1.392-0.676,2.604-1.379,3.617-2.111c0.521-0.387,0.996-0.772,1.407-1.159c1.438-1.366,2.208-2.814,2.208-4.318v-6.981
				C295.664,121.304,294.894,122.753,293.456,124.119z"/>
		</g>
	</g>
</g>
<g>
	<path fill="#BC9124" d="M181.796,153.051c0,0.799-0.018,1.583-0.065,2.367c-0.031,0.656-0.079,1.296-0.161,1.936
		c-0.143,1.425-0.35,2.814-0.64,4.189c-0.127,0.659-0.271,1.297-0.432,1.938c-0.687,2.669-1.613,5.229-2.782,7.66
		c-0.287,0.657-0.623,1.312-0.959,1.936c-0.816,1.504-1.713,2.943-2.704,4.335c-0.447,0.656-0.928,1.311-1.455,1.935
		c-1.151,1.488-2.432,2.896-3.807,4.191c-0.705,0.688-1.424,1.328-2.159,1.935c-1.743,1.471-3.598,2.783-5.551,3.936
		c-1.184,0.72-2.399,1.359-3.646,1.934c-5.438,2.56-11.5,3.984-17.897,3.984h-9.599v-84.548c0,0,2.863,0,9.599,0
		c6.923,0,13.481,1.681,19.257,4.655c1.167,0.575,2.302,1.232,3.39,1.935c1.951,1.231,3.809,2.64,5.518,4.191
		c0.705,0.607,1.376,1.265,2.033,1.935c2.176,2.223,4.109,4.686,5.759,7.342c0.381,0.625,0.768,1.264,1.118,1.92
		c1.376,2.496,2.494,5.15,3.343,7.934c0.192,0.639,0.384,1.279,0.543,1.935c0.528,2.063,0.896,4.175,1.089,6.333
		c0.079,0.64,0.127,1.28,0.159,1.934C181.778,151.611,181.796,152.332,181.796,153.051z"/>
	<g>
		<path fill="#9C781F" d="M181.73,155.418c-0.031,0.656-0.079,1.296-0.161,1.936h-11.803v-1.936H181.73z"/>
		<path fill="#9C781F" d="M180.93,161.542c-0.127,0.659-0.271,1.297-0.432,1.938h-14.505v-1.938H180.93z"/>
		<path fill="#9C781F" d="M177.716,171.14c-0.287,0.657-0.623,1.312-0.959,1.936h-14.285v-1.936H177.716z"/>
		<path fill="#9C781F" d="M174.053,177.411c-0.447,0.656-0.928,1.311-1.455,1.935H157.77v-1.935H174.053z"/>
		<path fill="#9C781F" d="M168.791,183.537c-0.705,0.688-1.424,1.328-2.159,1.935h-13.884v-1.935H168.791z"/>
		<path fill="#9C781F" d="M161.081,189.407c-1.184,0.72-2.399,1.359-3.646,1.934H145.52v-1.934H161.081z"/>
		<path fill="#9C781F" d="M181.746,150.89h-12.778v-1.934h12.619C181.666,149.596,181.714,150.236,181.746,150.89z"/>
		<path fill="#9C781F" d="M180.498,142.623h-12.987v-1.935h12.444C180.147,141.327,180.339,141.967,180.498,142.623z"/>
		<path fill="#9C781F" d="M176.612,132.754h-13.019v-1.92h11.9C175.875,131.459,176.262,132.098,176.612,132.754z"/>
		<path fill="#9C781F" d="M169.735,123.493h-14.492v-1.935h12.459C168.407,122.165,169.078,122.822,169.735,123.493z"/>
		<path fill="#9C781F" d="M162.185,117.367h-14.043v-1.935h10.653C159.962,116.007,161.097,116.664,162.185,117.367z"/>
	</g>
	<circle fill="#F2D32D" cx="129.934" cy="153.049" r="42.27"/>
	<circle fill="#EABF2B" cx="129.934" cy="153.049" r="35.085"/>
	<path fill="#B38021" d="M132.865,185.201c-19.377,0-35.085-15.708-35.085-35.084c0-8.941,3.351-17.096,8.855-23.292
		c-7.228,6.427-11.787,15.79-11.787,26.223c0,19.377,15.708,35.085,35.085,35.085c10.437,0,19.803-4.563,26.23-11.792
		C149.968,181.851,141.81,185.201,132.865,185.201z"/>
	<g>
		<path fill="#BC9124" d="M130.313,181.316v-7.283c-4.183-0.072-8.509-1.37-11.033-3.173l1.73-4.832
			c2.596,1.731,6.346,3.101,10.384,3.101c5.12,0,8.582-2.957,8.582-7.067c0-3.966-2.813-6.418-8.149-8.582
			c-7.355-2.885-11.898-6.202-11.898-12.476c0-5.985,4.254-10.529,10.889-11.61v-7.283h4.471v6.995
			c4.327,0.145,7.284,1.298,9.375,2.524l-1.803,4.76c-1.515-0.865-4.471-2.452-9.086-2.452c-5.553,0-7.644,3.317-7.644,6.202
			c0,3.75,2.668,5.625,8.942,8.221c7.428,3.029,11.178,6.779,11.178,13.197c0,5.697-3.966,11.033-11.394,12.259v7.5H130.313z"/>
	</g>
</g>
<g>
	<path fill="#BC9124" d="M320.228,281.714c-0.623,0.501-1.245,0.979-1.886,1.433c-0.531,0.388-1.061,0.75-1.609,1.087
		c-1.199,0.782-2.413,1.491-3.666,2.126c-0.592,0.314-1.181,0.602-1.78,0.878c-2.511,1.137-5.088,2.018-7.713,2.63
		c-0.693,0.188-1.414,0.336-2.109,0.466c-1.685,0.306-3.367,0.509-5.074,0.607c-0.792,0.063-1.603,0.099-2.419,0.079
		c-1.882,0.034-3.78-0.082-5.651-0.342c-0.978-0.118-1.929-0.277-2.86-0.47c-2.239-0.438-4.424-1.062-6.546-1.861
		c-1.302-0.472-2.563-1.02-3.791-1.631c-5.402-2.634-10.311-6.468-14.317-11.453l-6.014-7.481l65.898-52.969
		c0,0,1.794,2.23,6.014,7.48c4.337,5.397,7.136,11.562,8.436,17.926c0.283,1.271,0.482,2.566,0.616,3.855
		c0.264,2.291,0.328,4.621,0.189,6.926c-0.03,0.93-0.123,1.864-0.234,2.796c-0.37,3.089-1.077,6.139-2.114,9.089
		c-0.247,0.687-0.504,1.39-0.797,2.072c-1.083,2.638-2.45,5.173-4.088,7.578c-0.379,0.55-0.757,1.099-1.167,1.636
		c-1.277,1.704-2.693,3.313-4.256,4.815c-0.448,0.464-0.916,0.901-1.408,1.336C321.339,280.8,320.788,281.263,320.228,281.714z"/>
	<g>
		<path fill="#9C781F" d="M318.342,283.146c-0.531,0.388-1.061,0.75-1.609,1.087l-7.395-9.198l1.509-1.213L318.342,283.146z"/>
		<path fill="#9C781F" d="M313.066,286.359c-0.592,0.314-1.181,0.602-1.78,0.878l-9.088-11.307l1.511-1.213L313.066,286.359z"/>
		<path fill="#9C781F" d="M303.573,289.867c-0.693,0.188-1.414,0.336-2.109,0.466l-8.949-11.134l1.508-1.214L303.573,289.867z"/>
		<path fill="#9C781F" d="M296.39,290.94c-0.792,0.063-1.603,0.099-2.419,0.079l-9.29-11.559l1.508-1.211L296.39,290.94z"/>
		<path fill="#9C781F" d="M288.319,290.678c-0.978-0.118-1.929-0.277-2.86-0.47l-8.7-10.821l1.51-1.212L288.319,290.678z"/>
		<path fill="#9C781F" d="M278.913,288.347c-1.302-0.472-2.563-1.02-3.791-1.631l-7.466-9.288l1.507-1.211L278.913,288.347z"/>
		<path fill="#9C781F" d="M321.88,280.322l-8.006-9.96l1.509-1.212l7.905,9.836C322.84,279.45,322.372,279.888,321.88,280.322z"/>
		<path fill="#9C781F" d="M327.544,274.171l-8.138-10.124l1.508-1.212l7.797,9.7C328.332,273.085,327.954,273.634,327.544,274.171z"
			/>
		<path fill="#9C781F" d="M332.799,264.957l-8.155-10.146l1.496-1.202l7.456,9.275C333.349,263.571,333.092,264.274,332.799,264.957
			z"/>
		<path fill="#9C781F" d="M335.71,253.796l-9.079-11.295l1.509-1.212l7.805,9.711C335.914,251.93,335.821,252.864,335.71,253.796z"
			/>
		<path fill="#9C781F" d="M335.755,244.074l-8.799-10.946l1.509-1.212l6.674,8.303C335.422,241.49,335.621,242.785,335.755,244.074z
			"/>
	</g>
	<circle fill="#F2D32D" cx="287.738" cy="241.291" r="42.269"/>
	<circle fill="#EABF2B" cx="287.738" cy="241.291" r="35.084"/>
	<path fill="#B38021" d="M264.515,263.721c-12.14-15.105-9.738-37.19,5.363-49.328c6.97-5.602,15.426-8.099,23.703-7.69
		c-9.538-1.605-19.691,0.706-27.823,7.243c-15.104,12.14-17.506,34.223-5.366,49.326c6.539,8.133,15.962,12.576,25.625,13.057
		C277.841,274.95,270.117,270.689,264.515,263.721z"/>
	<g>
		<path fill="#BC9124" d="M265.944,259.298l5.677-4.563c-2.564-3.305-4.264-7.49-4.439-10.587l4.851-1.678
			c0.277,3.106,1.559,6.889,4.089,10.036c3.208,3.991,7.681,4.836,10.884,2.261c3.092-2.484,3.24-6.212,1.584-11.728
			c-2.359-7.539-2.621-13.159,2.27-17.09c4.665-3.749,10.871-3.279,15.871,1.214l5.678-4.563l2.801,3.484l-5.453,4.382
			c2.6,3.463,3.552,6.49,3.906,8.889l-4.839,1.576c-0.274-1.723-0.891-5.021-3.782-8.618c-3.479-4.328-7.374-3.88-9.622-2.072
			c-2.923,2.35-2.713,5.604-0.806,12.12c2.293,7.688,1.719,12.958-3.283,16.979c-4.44,3.57-11.084,3.822-16.693-1.199l-5.846,4.698
			L265.944,259.298z"/>
	</g>
</g>
<g>
	<path fill="#BC9124" d="M301.077,255.637c0,0.799-0.019,1.584-0.065,2.367c-0.031,0.656-0.08,1.296-0.161,1.935
		c-0.143,1.425-0.35,2.815-0.639,4.19c-0.127,0.658-0.271,1.298-0.433,1.938c-0.687,2.67-1.614,5.229-2.782,7.66
		c-0.288,0.656-0.624,1.312-0.958,1.935c-0.817,1.505-1.714,2.943-2.705,4.335c-0.447,0.656-0.929,1.312-1.456,1.936
		c-1.15,1.488-2.432,2.895-3.806,4.191c-0.705,0.687-1.425,1.328-2.159,1.935c-1.743,1.472-3.599,2.783-5.552,3.937
		c-1.182,0.719-2.398,1.358-3.646,1.934c-5.438,2.56-11.5,3.983-17.896,3.983h-9.598v-84.548c0,0,2.862,0,9.598,0
		c6.924,0,13.481,1.68,19.257,4.654c1.167,0.575,2.301,1.232,3.39,1.936c1.951,1.23,3.807,2.639,5.519,4.191
		c0.703,0.606,1.376,1.264,2.031,1.934c2.176,2.223,4.11,4.687,5.759,7.343c0.382,0.624,0.768,1.264,1.118,1.919
		c1.376,2.496,2.495,5.15,3.344,7.934c0.191,0.64,0.383,1.279,0.543,1.935c0.528,2.063,0.896,4.176,1.087,6.334
		c0.082,0.64,0.129,1.279,0.16,1.935C301.059,254.197,301.077,254.917,301.077,255.637z"/>
	<g>
		<path fill="#9C781F" d="M301.012,258.004c-0.031,0.656-0.08,1.296-0.161,1.935h-11.803v-1.935H301.012z"/>
		<path fill="#9C781F" d="M300.212,264.129c-0.127,0.658-0.271,1.298-0.433,1.938h-14.507v-1.938H300.212z"/>
		<path fill="#9C781F" d="M296.997,273.727c-0.288,0.656-0.624,1.312-0.958,1.935h-14.285v-1.935H296.997z"/>
		<path fill="#9C781F" d="M293.334,279.996c-0.447,0.656-0.929,1.312-1.456,1.936H277.05v-1.936H293.334z"/>
		<path fill="#9C781F" d="M288.072,286.123c-0.705,0.687-1.425,1.328-2.159,1.935h-13.884v-1.935H288.072z"/>
		<path fill="#9C781F" d="M280.361,291.994c-1.182,0.719-2.398,1.358-3.646,1.934H264.8v-1.934H280.361z"/>
		<path fill="#9C781F" d="M301.026,253.477h-12.778v-1.935h12.618C300.948,252.182,300.995,252.821,301.026,253.477z"/>
		<path fill="#9C781F" d="M299.779,245.208h-12.987v-1.935h12.444C299.428,243.913,299.619,244.553,299.779,245.208z"/>
		<path fill="#9C781F" d="M295.893,235.34h-13.019v-1.919h11.9C295.156,234.045,295.542,234.685,295.893,235.34z"/>
		<path fill="#9C781F" d="M289.016,226.078h-14.491v-1.934h12.46C287.688,224.751,288.36,225.408,289.016,226.078z"/>
		<path fill="#9C781F" d="M281.466,219.953h-14.043v-1.936h10.653C279.243,218.593,280.377,219.25,281.466,219.953z"/>
	</g>
	<circle fill="#F2D32D" cx="249.215" cy="255.635" r="42.269"/>
	<circle fill="#EABF2B" cx="249.215" cy="255.635" r="35.085"/>
	<path fill="#B38021" d="M252.146,287.788c-19.377,0-35.085-15.709-35.085-35.085c0-8.941,3.35-17.096,8.854-23.292
		c-7.228,6.427-11.786,15.79-11.786,26.224c0,19.378,15.708,35.085,35.086,35.085c10.437,0,19.802-4.562,26.229-11.793
		C269.249,284.437,261.091,287.788,252.146,287.788z"/>
	<g>
		<path fill="#BC9124" d="M249.593,283.901v-7.283c-4.183-0.072-8.51-1.37-11.033-3.173l1.73-4.832
			c2.596,1.73,6.346,3.101,10.385,3.101c5.119,0,8.581-2.956,8.581-7.066c0-3.967-2.813-6.418-8.149-8.581
			c-7.355-2.886-11.898-6.202-11.898-12.477c0-5.985,4.255-10.528,10.89-11.61v-7.283h4.471v6.995
			c4.327,0.145,7.284,1.299,9.375,2.523l-1.803,4.761c-1.515-0.866-4.472-2.453-9.087-2.453c-5.553,0-7.644,3.317-7.644,6.203
			c0,3.749,2.668,5.624,8.942,8.221c7.428,3.028,11.178,6.778,11.178,13.196c0,5.696-3.967,11.033-11.395,12.259v7.5H249.593z"/>
	</g>
</g>
</svg>
