<?xml version="1.0" encoding="utf-8"?>
<!-- Generator: Adobe Illustrator 16.0.0, SVG Export Plug-In . SVG Version: 6.00 Build 0)  -->
<!DOCTYPE svg PUBLIC "-//W3C//DTD SVG 1.1//EN" "http://www.w3.org/Graphics/SVG/1.1/DTD/svg11.dtd">
<svg version="1.1" id="Capa_1" xmlns="http://www.w3.org/2000/svg" xmlns:xlink="http://www.w3.org/1999/xlink" x="0px" y="0px"
	 width="400px" height="400px" viewBox="0 0 400 400" enable-background="new 0 0 400 400" xml:space="preserve">
<g>
	<rect x="146.779" y="243.968" fill="#002149" width="2.41" height="23.612"/>
	<rect x="143.426" y="234.507" fill="#002149" width="9.117" height="5.259"/>
	<path fill="#7BB6D4" d="M160.912,234.981v-25.247c0-1.196-0.969-2.165-2.167-2.165h-21.521c-1.198,0-2.167,0.969-2.167,2.165
		v25.247H160.912z"/>
	<path fill="#7BB6D4" d="M164.516,241.886c0,0.348-0.938,0.63-2.095,0.63h-29.974c-1.157,0-2.096-0.282-2.096-0.63l3.879-4.006
		c0.452-0.391,0.938-0.631,2.095-0.631h23.268c1.157,0,1.87,0.262,2.096,0.631L164.516,241.886z"/>
	<path fill="#5092B4" d="M130.352,241.854v1.561c0,0.419,0.805,0.758,1.796,0.758h30.573c0.991,0,1.795-0.339,1.795-0.758v-1.561
		H130.352z"/>
	<path fill="#002149" d="M139.235,244.172c0.856,1.463,2.416,2.441,4.201,2.441h8.864c1.784,0,3.345-0.979,4.2-2.441H139.235z"/>
	<g>
		<path fill="#002149" d="M136.524,267.74h-2.644c0.702-2.381,2.813-5.039,5.293-6.573c2.487-1.537,5.617-2.385,8.811-2.385
			c3.195,0,6.323,0.848,8.811,2.385c2.48,1.534,4.585,4.192,5.287,6.573h-2.637c-1.182-4.012-6-6.924-11.46-6.924
			C142.526,260.816,137.706,263.729,136.524,267.74z"/>
	</g>
	<ellipse fill="#00032D" cx="134.767" cy="267.58" rx="2.491" ry="2.149"/>
	<ellipse fill="#00032D" cx="147.982" cy="267.58" rx="2.49" ry="2.149"/>
	<ellipse fill="#00032D" cx="160.912" cy="267.58" rx="2.491" ry="2.149"/>
</g>
<g>
	<polygon fill="#4F6F74" points="277.669,176.228 189.688,316.62 154.288,209.78 246.277,103.5 	"/>
</g>
</svg>
