<svg id="OBJECTS" xmlns="http://www.w3.org/2000/svg" viewBox="0 0 400 400"><defs><style>.cls-1{fill:#fff;}</style></defs><title>icon_incorrecto</title><path class="cls-1" d="M77.23,192.13c-22.29,21.21-7.4,59.27,23,59.27h64.7c-11.77,31.27-14.13,56.93-14.13,85.67,0,38.48,44.49,58,64.81,37.33a28.62,28.62,0,0,0,8.22-20.19,119.1,119.1,0,0,1,30.11-79.26,5.78,5.78,0,0,0-.38-8.07,5.55,5.55,0,0,0-7.93.39,130.67,130.67,0,0,0-33,86.94,17.16,17.16,0,0,1-4.94,12.12c-12.88,13.1-45.63-.56-45.63-29.25,0-29.27,2.66-55.57,15.61-87.21,25.62-8.11,32.23-42.13,11.11-59.41a34.28,34.28,0,0,0,16.82-20.67,89.05,89.05,0,0,1,68.81-32.59h11.23a5.71,5.71,0,0,0,0-11.42H274.4a99.84,99.84,0,0,0-68.21,26.9A34.2,34.2,0,0,0,185,127.92c16.53-15.74,13.51-43.32-6.44-54.83A31.71,31.71,0,0,0,183,28.67H246.3c55.88,0,101.12,46,101.12,102.8,0,40.93-20.38,78.32-54.52,100l-10.56,6.7a5.76,5.76,0,0,0-1.78,7.87,5.56,5.56,0,0,0,7.74,1.82c15.8-10,37.46-22.6,54.41-53.69,45.84-84.07-11.79-176.93-96.4-176.93H108.67c-27.8,0-41.36,34.53-21.39,54-22.54,9.58-27.95,39.59-10,56.63C48.07,139,48,181,77.23,192.13ZM167.65,240H100.24a22.85,22.85,0,0,1,0-45.69h67.42a22.85,22.85,0,0,1,0,45.69Zm-59-211.31h50.56a20,20,0,0,1,0,40H108.67a20,20,0,0,1,0-40Zm-8.43,51.4H162a22.85,22.85,0,0,1,0,45.69h-61.8a22.85,22.85,0,0,1,0-45.69ZM89,137.18h84.26a22.85,22.85,0,0,1,0,45.69H89a22.85,22.85,0,0,1,0-45.69Z"/><rect class="cls-1" x="258.57" y="249.76" width="15" height="15" rx="7.5" ry="7.5" transform="translate(532.15 514.51) rotate(180)"/></svg>