<?xml version="1.0" encoding="utf-8"?>
<!-- Generator: Adobe Illustrator 21.0.0, SVG Export Plug-In . SVG Version: 6.00 Build 0)  -->
<svg version="1.1" id="Layer_1" xmlns="http://www.w3.org/2000/svg" xmlns:xlink="http://www.w3.org/1999/xlink" x="0px" y="0px"
	 viewBox="0 0 2600 2000" style="enable-background:new 0 0 2600 2000;" xml:space="preserve">
<style type="text/css">
	.st0{fill:#3E64FF;}
	.st1{fill:#FED333;stroke:#000000;stroke-width:15;stroke-miterlimit:10;}
</style>
<polygon class="st0" points="971.2,301.4 982.7,245 931,230.8 939.8,174.7 892,155.1 891.8,112 870,112.2 870.3,169.7 915.6,188.3 
	906.4,246.7 957.3,260.6 946.9,311.7 "/>
<polygon class="st0" points="523.5,376.4 545.4,417.4 592.7,414.7 614,462.4 663.5,444 690,496.8 737.6,485.5 771.4,532.2 
	753.8,544.9 728.5,510.1 678.2,522 652.7,471.2 602.4,489.9 578.9,437.3 532.7,439.9 512.4,402 482.4,410 476.8,389 "/>
<polygon class="st0" points="319.5,699.6 284.6,703.2 272.7,647.7 221.1,646.6 205.4,606.5 185.1,614.4 206.1,668 255,669.1 
	267.4,726.8 319.9,721.5 "/>
<polygon class="st0" points="256.8,1301.6 243.7,1334.1 189,1318.9 164,1364.1 121.2,1359.4 118.8,1381.1 176.1,1387.4 
	199.7,1344.5 256.7,1360.4 276.3,1311.4 "/>
<g>
	<path class="st1" d="M980.1,1189.4l-163.8,50.4l-51.4,163.5c-4.2,13.2-21.6,15.9-29.6,4.6l-98.5-140.2l-171.4,1.6
		c-13.8,0.1-21.8-15.7-13.5-26.7l102.9-137L500.3,943c-4.4-13.1,8.2-25.6,21.2-21.1l162.1,55.5l137.7-102.1
		c11.1-8.2,26.9-0.2,26.7,13.7l-2.7,171.4l139.6,99.4C996.1,1167.8,993.3,1185.3,980.1,1189.4z"/>
	<path class="st1" d="M1552.8,862.3L1389,912.6l-51.4,163.5c-4.2,13.2-21.6,15.9-29.6,4.6l-98.5-140.2l-171.4,1.6
		c-13.8,0.1-21.8-15.7-13.5-26.7l102.9-137L1073,615.9c-4.4-13.1,8.2-25.6,21.2-21.1l162.1,55.5L1394,548.3
		c11.1-8.2,26.9-0.2,26.7,13.7l-2.7,171.4l139.6,99.4C1568.8,840.7,1566,858.2,1552.8,862.3z"/>
	<path class="st1" d="M2132.8,1189.4l-163.8,50.4l-51.4,163.5c-4.2,13.2-21.6,15.9-29.6,4.6l-98.5-140.2l-171.4,1.6
		c-13.8,0.1-21.8-15.7-13.5-26.7l102.9-137L1653.1,943c-4.4-13.1,8.2-25.6,21.2-21.1l162.1,55.5l137.7-102.1
		c11.1-8.2,26.9-0.2,26.7,13.7l-2.7,171.4l139.6,99.4C2148.9,1167.8,2146.1,1185.3,2132.8,1189.4z"/>
</g>
<ellipse class="st0" cx="165.9" cy="1049.8" rx="21.3" ry="19.7"/>
<polygon class="st0" points="1658.6,301.4 1648.5,245 1694.1,230.8 1686.3,174.7 1728.3,155.1 1728.5,112 1747.7,112.2 
	1747.4,169.7 1707.6,188.3 1715.7,246.7 1670.9,260.6 1680.1,311.7 "/>
<polygon class="st0" points="2052.7,376.4 2033.4,417.4 1991.8,414.7 1973,462.4 1929.5,444 1906.2,496.8 1864.2,485.5 
	1834.5,532.2 1850,544.9 1872.2,510.1 1916.5,522 1938.9,471.2 1983.2,489.9 2003.9,437.3 2044.5,439.9 2062.4,402 2088.8,410 
	2093.8,389 "/>
<polygon class="st0" points="2232.2,699.6 2262.9,703.2 2273.3,647.7 2318.8,646.6 2332.6,606.5 2350.5,614.4 2332,668 
	2288.9,669.1 2278,726.8 2231.8,721.5 "/>
<polygon class="st0" points="2287.4,1301.6 2298.9,1334.1 2347,1318.9 2369,1364.1 2406.7,1359.4 2408.8,1381.1 2358.4,1387.4 
	2337.6,1344.5 2287.5,1360.4 2270.2,1311.4 "/>
<ellipse class="st0" cx="2456.5" cy="1026.9" rx="18.8" ry="19.7"/>
</svg>
