<svg id="OBJECTS" xmlns="http://www.w3.org/2000/svg" viewBox="0 0 400 400"><defs><style>.cls-1{fill:#fff;}</style></defs><title>icon_correcto</title><path class="cls-1" d="M327.35,211.63c22.29-21.21,7.4-59.27-23-59.27h-64.7c11.77-31.27,14.13-56.93,14.13-85.67,0-38.48-44.49-58-64.81-37.33a28.62,28.62,0,0,0-8.22,20.19,119.1,119.1,0,0,1-30.11,79.26,5.78,5.78,0,0,0,.38,8.07,5.55,5.55,0,0,0,7.93-.39,130.67,130.67,0,0,0,33-86.94,17.16,17.16,0,0,1,4.94-12.12c12.88-13.1,45.63.56,45.63,29.25,0,29.27-2.66,55.57-15.61,87.21C201.3,162,194.7,196,215.81,213.31A34.28,34.28,0,0,0,199,234a89.05,89.05,0,0,1-68.81,32.59H118.95a5.71,5.71,0,0,0,0,11.42h11.23a99.84,99.84,0,0,0,68.21-26.9,34.2,34.2,0,0,0,21.14,24.74C203,291.58,206,319.16,226,330.66a31.71,31.71,0,0,0-4.43,44.42H158.27c-55.88,0-101.12-46-101.12-102.8,0-40.93,20.38-78.32,54.52-100l10.56-6.7a5.76,5.76,0,0,0,1.78-7.87,5.56,5.56,0,0,0-7.74-1.82c-15.8,10-37.46,22.6-54.41,53.69C16,293.65,73.65,386.51,158.26,386.51H295.9c27.8,0,41.36-34.53,21.39-54,22.54-9.58,27.95-39.59,10-56.63,29.16-11.09,29.19-53.1,0-64.21Zm-90.43-47.85h67.42a22.85,22.85,0,0,1,0,45.69H236.92a22.85,22.85,0,0,1,0-45.69Zm59,211.31H245.35a20,20,0,0,1,0-40H295.9a20,20,0,0,1,0,40Zm8.43-51.4h-61.8a22.85,22.85,0,0,1,0-45.69h61.8a22.85,22.85,0,0,1,0,45.69Zm11.23-57.11H231.3a22.85,22.85,0,0,1,0-45.69h84.26a22.85,22.85,0,0,1,0,45.69Z"/><rect class="cls-1" x="131" y="139" width="15" height="15" rx="7.5" ry="7.5"/></svg>