<?xml version="1.0" encoding="utf-8"?>
<!-- Generator: Adobe Illustrator 21.0.0, SVG Export Plug-In . SVG Version: 6.00 Build 0)  -->
<svg version="1.1" id="Capa_1" xmlns="http://www.w3.org/2000/svg" xmlns:xlink="http://www.w3.org/1999/xlink" x="0px" y="0px"
	 viewBox="0 0 698 187" style="enable-background:new 0 0 698 187;" xml:space="preserve">
<style type="text/css">
	.st0{fill:#FFFFFF;}
	.st1{font-family:'Montserrat-Bold';}
	.st2{font-size:61.4853px;}
</style>
<title>Logotipo_mi_expresion_cuenta_blue_HORIZONTAL</title>
<text transform="matrix(1 0 0 1 274.8286 84.4375)" class="st0 st1 st2">Mi </text>
<text transform="matrix(1 0 0 1 369.4531 84.4375)" class="st0 st1 st2">e</text>
<text transform="matrix(1 0 0 1 407.3184 84.4375)" class="st0 st1 st2">xp</text>
<text transform="matrix(1 0 0 1 486.3379 84.4375)" class="st0 st1 st2">r</text>
<text transform="matrix(1 0 0 1 512.2891 84.4375)" class="st0 st1 st2">esión</text>
<text transform="matrix(1 0 0 1 274.8286 158.2217)" class="st0 st1 st2">C</text>
<text transform="matrix(1 0 0 1 319.0347 158.2217)" class="st0 st1 st2">uenta</text>
<path class="st0" d="M202.3,86.1c2.9-2.8,3.1-7.4,0.3-10.3c-1.3-1.4-3.2-2.2-5.2-2.3h-13.7c2.2-5.8,3.2-12,3-18.1
	c0-8.2-9.4-12.3-13.7-7.9c-1.1,1.1-1.7,2.7-1.7,4.2c0,6.2-2.3,12.2-6.4,16.8c-0.5,0.5-0.5,1.2,0,1.7c0.4,0.5,1.2,0.5,1.6,0
	c0,0,0,0,0,0c4.5-5.1,7-11.6,7-18.4c0-1,0.4-1.9,1-2.6c2.7-2.8,9.7,0.1,9.7,6.2c0.3,6.3-0.8,12.6-3.1,18.5c-3.8,1.3-5.9,5.4-4.7,9.2
	c0.4,1.3,1.2,2.5,2.3,3.4c-1.7,0.9-3,2.5-3.6,4.4c-3.6,4.4-8.9,6.9-14.6,6.9h-2.4c-0.7,0-1.2,0.5-1.2,1.2c0,0.7,0.5,1.2,1.2,1.2h2.4
	c5.4,0,10.5-2,14.5-5.7c0.5,2.4,2.2,4.4,4.5,5.2c-2.9,2.8-3,7.4-0.3,10.3c0.5,0.5,1,0.9,1.6,1.3c-2.8,2.4-3.3,6.6-0.9,9.4h-13.5
	c-11.9-0.1-21.5-9.8-21.4-21.8c0,0,0,0,0,0c-0.1-8.6,4.3-16.6,11.6-21.2l2.2-1.4c0.6-0.4,0.7-1.1,0.4-1.7c-0.3-0.6-1.1-0.7-1.6-0.4
	c-4.8,2.6-8.8,6.6-11.5,11.4c-9.7,17.8,2.5,37.5,20.4,37.5h29.2c3.7-0.1,6.6-3.1,6.5-6.8c0-1.8-0.8-3.4-2-4.7
	c3.7-1.6,5.4-5.9,3.8-9.6c-0.4-0.9-1-1.7-1.7-2.4c3.8-1.5,5.6-5.7,4.1-9.5C205.6,88.3,204.1,86.8,202.3,86.1L202.3,86.1z M183.2,76
	h14.3c2.7,0,4.8,2.2,4.8,4.8c0,2.7-2.2,4.8-4.8,4.8h-14.3c-2.7,0-4.8-2.2-4.8-4.8C178.3,78.1,180.5,76,183.2,76L183.2,76z
	 M195.7,120.8h-10.8c-2.3,0-4.2-1.9-4.2-4.2c0-2.3,1.9-4.2,4.2-4.2h10.7c2.3,0,4.2,1.9,4.2,4.2C199.8,118.9,197.9,120.8,195.7,120.8
	L195.7,120.8z M197.4,109.9h-13.1c-2.7,0-4.8-2.2-4.8-4.8c0-2.7,2.2-4.8,4.8-4.8l0,0h13.1c2.7,0,4.8,2.2,4.8,4.8
	C202.3,107.7,200.1,109.9,197.4,109.9z M199.8,97.8h-17.9c-2.7,0-4.8-2.2-4.8-4.8c0-2.7,2.2-4.8,4.8-4.8l0,0h17.9
	c2.7,0,4.8,2.2,4.8,4.8C204.6,95.6,202.4,97.8,199.8,97.8L199.8,97.8z"/>
<path class="st0" d="M237.4,31.9h-14.5v-5c0.1-2-1.2-3.7-3.1-4.2c-10.1-2.6-20.4-4-30.8-3.9c-17.1,0-40.4,3.9-57.7,21.4
	c-17.1-17.7-40.6-21.4-57.7-21.4c-10.4,0-20.8,1.3-30.9,3.9c-1.9,0.5-3.1,2.3-3.1,4.2v4.9H25.2c-2.3,0-4.2,1.9-4.2,4.2v136.6
	c0,2.3,1.8,4.3,4.2,4.3c0.8,0,1.5-0.2,2.2-0.6c0.4-0.2,43.2-23.6,102.9-8.5h1c0.3,0,0.7,0,1,0c59.9-15.2,102.7,8.2,102.9,8.5
	c2,1.2,4.6,0.5,5.8-1.6c0.4-0.6,0.6-1.4,0.6-2.1V36.2C241.7,33.8,239.8,31.9,237.4,31.9C237.4,31.9,237.4,31.9,237.4,31.9z
	 M29.5,166V40.4h10.2v107.3c0,2.3,1.9,4.2,4.2,4.2h0.7c8.8-1.3,17.8-2.1,26.7-2.1c12.4-0.2,24.7,1.6,36.5,5.5
	C81.3,152.2,54.3,155.8,29.5,166z M71.4,141.4c-7.8,0-15.6,0.5-23.3,1.5V30.3c8.4-1.9,16.9-2.8,25.4-2.8c16,0,38.2,3.7,53.4,21
	L127,155C118.1,149.2,100.7,141.4,71.4,141.4z M135.6,48.4c15.3-17.1,37.4-21,53.4-21c8.6,0,17.1,1,25.4,2.8v112.6
	c-7.7-1-15.4-1.5-23.2-1.5c-29.2,0-46.6,7.8-55.6,13.7L135.6,48.4z M233.1,166c-24.9-10.2-51.9-13.8-78.6-10.6
	c11.8-3.9,24.3-5.7,36.7-5.5c9,0.1,18,0.8,26.9,2.1c2.3,0.4,4.5-1.2,4.9-3.5c0-0.2,0.1-0.5,0.1-0.7V40.4h10.2L233.1,166z"/>
</svg>
