<svg id="Capa_1" data-name="Capa 1" xmlns="http://www.w3.org/2000/svg" viewBox="0 0 400 200"><defs><style>.cls-1{font-size:29px;font-family:Montserrat-Bold, Montserrat;font-weight:700;}.cls-1,.cls-5{fill:#3e64ff;}.cls-2{letter-spacing:-0.01em;}.cls-3{letter-spacing:-0.01em;}.cls-4{letter-spacing:-0.01em;}</style></defs><title>Logotipo_mi_expresion_cuenta_blue_HORIZONTAL</title><text class="cls-1" transform="translate(168.23 85.15)">Mi <tspan class="cls-2" x="44.63" y="0">e</tspan><tspan x="62.49" y="0">xp</tspan><tspan class="cls-3" x="99.76" y="0">r</tspan><tspan x="112" y="0">esión</tspan><tspan class="cls-4" x="0" y="34.8">C</tspan><tspan x="20.85" y="34.8">uenta </tspan></text><path class="cls-5" d="M134,85.94A3.44,3.44,0,0,0,131.7,80h-6.47a22.6,22.6,0,0,0,1.41-8.56c0-3.85-4.45-5.79-6.48-3.73a2.86,2.86,0,0,0-.82,2,11.9,11.9,0,0,1-3,7.92.58.58,0,0,0,0,.81.55.55,0,0,0,.79,0,13.06,13.06,0,0,0,3.3-8.69,1.72,1.72,0,0,1,.49-1.21c1.29-1.31,4.56.06,4.56,2.92A21.39,21.39,0,0,1,124,80.17a3.45,3.45,0,0,0-1.11,5.94,3.43,3.43,0,0,0-1.68,2.07,8.9,8.9,0,0,1-6.88,3.26h-1.12a.57.57,0,0,0,0,1.14h1.12a10,10,0,0,0,6.82-2.69,3.42,3.42,0,0,0,2.11,2.47,3.45,3.45,0,0,0,.64,5.48,3.17,3.17,0,0,0-.44,4.44H117.1A10.18,10.18,0,0,1,107,92a11.76,11.76,0,0,1,5.45-10l1.06-.67a.58.58,0,0,0,.18-.79.56.56,0,0,0-.77-.18,13.68,13.68,0,0,0-5.44,5.37c-4.58,8.4,1.18,17.68,9.63,17.68h13.76A3.15,3.15,0,0,0,133,98a3.45,3.45,0,0,0,1-5.66,3.45,3.45,0,0,0,0-6.42Zm-9-4.78h6.74a2.28,2.28,0,0,1,0,4.57H125a2.28,2.28,0,0,1,0-4.57Zm5.89,21.12H125.8a2,2,0,0,1,0-4h5.05a2,2,0,0,1,0,4Zm.84-5.14h-6.18a2.28,2.28,0,0,1,0-4.57h6.18a2.28,2.28,0,0,1,0,4.57Zm1.12-5.71H124.4a2.28,2.28,0,0,1,0-4.57h8.42a2.28,2.28,0,0,1,0,4.57Z"/><path class="cls-5" d="M150.58,60.37h-6.86V58a2,2,0,0,0-1.45-2,56.86,56.86,0,0,0-14.55-1.86c-8.07,0-19.07,1.82-27.2,10.09-8.07-8.35-19.15-10.09-27.2-10.09A56.85,56.85,0,0,0,58.76,56a2,2,0,0,0-1.45,2v2.32h-6.8a2,2,0,0,0-2,2v64.45a2,2,0,0,0,3,1.76c.2-.1,20.38-11.14,48.55-4h.48a2,2,0,0,0,.48,0c28.25-7.16,48.43,3.85,48.55,4a2,2,0,0,0,3-1.74V62.39A2,2,0,0,0,150.58,60.37ZM52.52,123.61V64.4h4.82V115a2,2,0,0,0,2,2l.33,0a88.45,88.45,0,0,1,12.61-1,52.36,52.36,0,0,1,17.23,2.6A74.19,74.19,0,0,0,52.52,123.61ZM72.28,112a88.77,88.77,0,0,0-11,.71V59.62a55.67,55.67,0,0,1,12-1.33c7.55,0,18,1.74,25.18,9.89l.06,50.27C94.32,115.7,86.12,112,72.28,112Zm30.27-43.83c7.23-8.07,17.64-9.89,25.18-9.89a55.88,55.88,0,0,1,12,1.33v53.09a88.8,88.8,0,0,0-10.92-.73c-13.76,0-22,3.69-26.23,6.44Zm46,55.43a74.21,74.21,0,0,0-37.07-5,52.49,52.49,0,0,1,17.32-2.6,88.32,88.32,0,0,1,12.69,1,2,2,0,0,0,2.32-2V64.4h4.82Z"/></svg>