<?xml version="1.0" encoding="utf-8"?>
<!-- Generator: Adobe Illustrator 16.0.0, SVG Export Plug-In . SVG Version: 6.00 Build 0)  -->
<!DOCTYPE svg PUBLIC "-//W3C//DTD SVG 1.1//EN" "http://www.w3.org/Graphics/SVG/1.1/DTD/svg11.dtd">
<svg version="1.1" xmlns="http://www.w3.org/2000/svg" xmlns:xlink="http://www.w3.org/1999/xlink" x="0px" y="0px" width="800px"
	 height="800px" viewBox="0 0 800 800" enable-background="new 0 0 800 800" xml:space="preserve">
<g id="Background">
</g>
<g id="Objects">
	<g id="XMLID_580_">
		<ellipse id="XMLID_314_" fill="#BDD5DB" cx="298.289" cy="492.542" rx="50.626" ry="6.412"/>
		<g id="XMLID_236_">
			<path id="XMLID_479_" fill="#FFC8AC" d="M288.466,404.462c-2.894-1.26-7.893,0.395-16.976,10.578
				c-2.618,2.934-5.181,5.918-7.684,8.953c-1.87,2.266-3.708,4.559-5.5,6.887c-0.658,0.854-1.282,1.771-2.109,2.479
				c-0.931,0.797-2.148,1.104-3.305,1.414c-0.726,0.195-1.627,0.316-2.178,0.877c-0.573,0.584-0.292,1.451,0.434,1.738
				c0.78,0.309,1.746,0.105,2.566,0.168c0.138,0.01,0.273,0.057,0.358,0.166c0.129,0.166-0.006,0.414-0.091,0.539
				c-0.549,0.813-0.892,1.221-1.22,1.697c-0.534,0.773-2.063,2.461-1.393,3.475c0.263,0.398,0.972,0.533,1.328,0.361
				c0.575-0.277,1.09-0.664,1.564-1.088c0.239-0.215,0.468-0.439,0.693-0.668c0.182-0.186,0.431-0.525,0.729-0.49
				c0.252,0.029,0.246,0.344,0.207,0.525c-0.045,0.211-0.148,0.406-0.252,0.594c-0.394,0.709-0.851,1.41-1.146,2.164
				c-0.144,0.367-0.275,0.744-0.309,1.137c-0.026,0.307,0.02,0.643,0.237,0.859c0.157,0.156,0.384,0.229,0.605,0.244
				c0.496,0.037,0.984-0.178,1.374-0.488c0.487-0.387,0.875-0.877,1.254-1.367c0.396-0.51,0.791-1.023,1.207-1.518
				c0.089-0.105,0.195-0.219,0.333-0.227c0.149-0.008,0.28,0.117,0.324,0.262c0.043,0.143,0.02,0.297-0.013,0.443
				c-0.088,0.393-0.265,0.719-0.414,1.088c-0.154,0.381-0.288,0.77-0.401,1.166c-0.123,0.428-0.231,0.9-0.062,1.313
				c0.311,0.76,1.202,0.906,1.871,0.414c0.661-0.488,2.105-3.275,2.34-3.705c1.444-2.65,3.313-5.031,5.065-7.488
				c2.765-3.875,9.23-11.541,11.752-13.777L288.466,404.462z"/>
			<path id="XMLID_470_" fill="#002030" d="M334.61,372.533c2.674,2.858,14.385,24.528-0.092,36.699
				c-14.477,12.172-60.398,13.188-79.209,0c-18.811-13.185-5.809-35.039-5.809-35.039c-15.215-5.072-14.662-28.125,2.674-47.857
				c17.336-19.733,49.148-18.903,61.057-12.541c11.909,6.363,10.499,15.484,10.499,15.484s5.809-1.191,11.065,4.986
				c5.256,6.178,3.043,18.035,3.043,18.035L334.61,372.533z"/>
			<path id="XMLID_480_" fill="#FFC8AC" d="M317.099,423.187c-3.988-13.051-8.881-16.223-9.244-20.572
				c-0.338-4.064-0.434-8.609-0.434-8.609h-18.087c0,0-0.095,4.545-0.434,8.609c-0.362,4.35-5.256,7.521-9.244,20.572
				c-4.599,15.051-5.935,31.355-5.935,31.355s9.62,3.207,24.656,3.207c15.036,0,24.656-3.207,24.656-3.207
				S321.698,438.237,317.099,423.187z"/>
			<path id="XMLID_440_" fill="#F49282" d="M307.479,394.005h-18.145c0,0-0.078,3.674-0.339,7.369
				c1.857,0.104,3.698,0.145,5.482,0.145c4.266,0,10.126-1.469,13.108-3.103C307.421,395.078,307.479,394.005,307.479,394.005z"/>
			<path id="XMLID_477_" fill="#FFC8AC" d="M273.721,454.542l2.6,31.107c0,0-4.796,1.414-7.255,2.83
				c-2.459,1.414-1.858,3.145,9.084,3.145s15.907,0,15.907,0l3.356-37.082H273.721z"/>
			<path id="XMLID_488_" fill="#FFC8AC" d="M323.099,454.542l-2.599,31.107c0,0,4.795,1.414,7.255,2.83
				c2.459,1.414,1.858,3.145-9.084,3.145c-10.942,0-15.906,0-15.906,0l-3.356-37.082H323.099z"/>
			<path id="XMLID_363_" fill="#F49282" d="M297.19,456.993h-23.264l1.133,13.568c4.521,1.254,11.136,2.328,20.677,2.498
				L297.19,456.993z"/>
			<path id="XMLID_368_" fill="#F49282" d="M299.63,456.993l1.454,16.064c9.554-0.174,16.166-1.258,20.678-2.516l1.132-13.549
				H299.63z"/>
			<path id="XMLID_503_" fill="#002030" d="M302.765,491.624c0,0,4.964,0,15.906,0c10.942,0,11.543-1.73,9.084-3.145
				c-2.459-1.416-7.255-2.83-7.255-2.83h-18.276L302.765,491.624z"/>
			<path id="XMLID_509_" fill="#002030" d="M276.321,485.649c0,0-4.796,1.414-7.255,2.83c-2.459,1.414-1.858,3.145,9.084,3.145
				s15.906,0,15.906,0l0.541-5.975H276.321z"/>
			<path id="XMLID_560_" fill="#F18856" d="M288.469,404.47c-1.723-1.947-5.985-2.607-12.674,4.152
				c-6.689,6.762-8.715,8.984-8.715,8.984s1.986,8.406,11.573,11.395L288.469,404.47z"/>
			<path id="XMLID_561_" fill="#FFC8AC" d="M308.289,404.462c2.894-1.26,7.893,0.395,16.976,10.578
				c2.618,2.934,5.181,5.918,7.684,8.953c1.87,2.266,3.708,4.559,5.5,6.887c0.658,0.854,1.282,1.771,2.109,2.479
				c0.931,0.797,2.148,1.104,3.305,1.414c0.725,0.195,1.627,0.316,2.178,0.877c0.573,0.584,0.292,1.451-0.434,1.738
				c-0.78,0.309-1.746,0.105-2.566,0.168c-0.138,0.01-0.273,0.057-0.358,0.166c-0.129,0.166,0.005,0.414,0.09,0.539
				c0.549,0.813,0.892,1.221,1.22,1.697c0.534,0.773,2.063,2.461,1.392,3.475c-0.263,0.398-0.972,0.533-1.328,0.361
				c-0.575-0.277-1.09-0.664-1.564-1.088c-0.239-0.215-0.468-0.439-0.693-0.668c-0.182-0.186-0.431-0.525-0.729-0.49
				c-0.252,0.029-0.246,0.344-0.207,0.525c0.045,0.211,0.148,0.406,0.252,0.594c0.394,0.709,0.851,1.41,1.146,2.164
				c0.144,0.367,0.275,0.744,0.309,1.137c0.026,0.307-0.02,0.643-0.237,0.859c-0.157,0.156-0.384,0.229-0.605,0.244
				c-0.496,0.037-0.984-0.178-1.374-0.488c-0.487-0.387-0.875-0.877-1.254-1.367c-0.396-0.51-0.791-1.023-1.207-1.518
				c-0.089-0.105-0.195-0.219-0.333-0.227c-0.149-0.008-0.28,0.117-0.324,0.262c-0.043,0.143-0.02,0.297,0.013,0.443
				c0.088,0.393,0.266,0.719,0.414,1.088c0.154,0.381,0.288,0.77,0.401,1.166c0.123,0.428,0.231,0.9,0.063,1.313
				c-0.311,0.76-1.202,0.906-1.871,0.414c-0.662-0.488-2.106-3.275-2.34-3.705c-1.444-2.65-2.968-5.293-4.722-7.748
				c-4.675-6.545-9.574-11.281-12.096-13.518L308.289,404.462z"/>
			<path id="XMLID_559_" fill="#F18856" d="M308.286,404.47c1.723-1.947,5.985-2.607,12.674,4.152
				c6.689,6.762,8.715,8.984,8.715,8.984s-1.986,8.406-11.573,11.395L308.286,404.47z"/>
			<path id="XMLID_401_" fill="#FFC8AC" d="M294.477,396.039c9.635,0,20.877-1.146,27.759-7.57s7.57-22.941,3.441-39.23
				c-4.129-16.288-19.959-19.959-31.2-19.959s-27.071,3.671-31.2,19.959c-4.129,16.289-3.441,32.807,3.441,39.23
				S284.841,396.039,294.477,396.039z"/>
			<path id="XMLID_570_" fill="#002030" d="M317.999,336.337l5.753-7.27c0.004-0.041,0.007-0.09,0.011-0.143l-0.004-1.241
				c-0.181-2.895-1.667-9.155-10.528-13.89c-11.908-6.362-43.721-7.192-61.057,12.541c-17.335,19.732-17.889,42.785-2.674,47.857
				c24.098-2.254,6.253-35.119,38.969-42.146C303.088,328.908,312.572,333.068,317.999,336.337z"/>
			<circle id="XMLID_436_" fill="#FCA39A" cx="269.065" cy="378.37" r="6.921"/>
			<circle id="XMLID_461_" fill="#FCA39A" cx="318.344" cy="378.37" r="6.921"/>
			<path id="XMLID_517_" fill="#FCA39A" d="M292.82,374.67c-2.517-0.085-4.791,1.513-4.776,2.261c0.035,1.748,8.953,2.105,8.857,0
				C296.848,375.755,294.98,374.744,292.82,374.67z"/>
			<g id="XMLID_426_">
				<path id="XMLID_521_" fill="#9E5147" d="M287.816,377.401c1.582-1.185,2.731-2.364,4.888-2.372
					c1.985-0.007,3.042,1.061,4.127,2.537c0.187,0.254,0.667,0.264,0.618-0.135c-0.548-4.474-8.572-4.057-9.725-0.16
					C287.709,377.322,287.741,377.458,287.816,377.401L287.816,377.401z"/>
			</g>
			<g id="XMLID_427_">
				<path id="XMLID_437_" fill="#9E5147" d="M285.454,385.028c5.796,3.442,15.386,1.956,19.896-2.946
					c0.482-0.525-0.563-1.027-0.989-0.563c-4.538,4.951-12.954,5.43-18.836,3.037C285.199,384.423,285.249,384.906,285.454,385.028
					L285.454,385.028z"/>
			</g>
			<g id="XMLID_428_">
				<path id="XMLID_438_" fill="#9E5147" d="M304.287,379.845c-0.563,0.576,0.015,1.611,0.478,2.043
					c0.532,0.495,1.459,0.963,2.2,0.705c0.252-0.088,0.524-0.394,0.247-0.639c-0.219-0.193-0.751-0.025-1.035-0.084
					c-1.036-0.217-1.339-1.076-1.662-1.955C304.478,379.812,304.368,379.763,304.287,379.845L304.287,379.845z"/>
			</g>
			<g id="XMLID_434_">
				<path id="XMLID_431_" fill="#FFFFFF" d="M311.078,355.209c-3.328-0.011-8.228,1.991-9.644,6.774
					c-1.722,5.818,1.848,11.47,9.644,11.193c8.364-0.295,11.323-5.266,10.427-9.879
					C320.544,358.357,316.913,355.228,311.078,355.209z"/>
				<g id="XMLID_429_">
					<path id="XMLID_476_" fill="#002030" d="M301.3,363.009c1.555-4.693,6.913-7.592,11.686-6.63
						c1.932,0.39,4.013,1.453,5.292,2.976c1.43,1.702,1.632,3.913,2.975,5.609c0.212,0.27,0.768,0.432,0.963,0.05
						c1.248-2.438-0.699-5.614-2.44-7.372c-1.814-1.833-4.531-3.059-7.08-3.354c-2.601-0.301-5.485,0.277-7.706,1.694
						c-2.672,1.704-3.437,3.928-3.904,6.948C301.06,363.101,301.235,363.205,301.3,363.009L301.3,363.009z"/>
				</g>
				<circle id="XMLID_430_" fill="#19313A" cx="309.505" cy="365.681" r="7.505"/>
				<circle id="XMLID_432_" fill="#FFFFFF" cx="305.89" cy="365" r="2.399"/>
			</g>
			<g id="XMLID_443_">
				<path id="XMLID_469_" fill="#FFFFFF" d="M276.577,355.209c3.328-0.011,8.228,1.991,9.644,6.774
					c1.722,5.818-1.849,11.47-9.644,11.193c-8.364-0.295-11.323-5.266-10.427-9.879
					C267.109,358.357,270.741,355.228,276.577,355.209z"/>
				<g id="XMLID_451_">
					<path id="XMLID_516_" fill="#002030" d="M286.566,362.872c-0.503-3.125-1.787-5.565-4.626-7.196
						c-2.639-1.514-5.991-1.855-8.891-0.991c-2.049,0.61-4.146,1.757-5.557,3.39c-1.425,1.648-3.39,4.627-1.992,6.738
						c0.227,0.343,0.788,0.656,1.077,0.202c0.903-1.417,1.125-3.1,2.013-4.542c0.988-1.605,2.372-2.664,4.084-3.43
						c5.258-2.348,11.887,0.375,13.672,5.979C286.419,363.251,286.59,363.023,286.566,362.872L286.566,362.872z"/>
				</g>
				<circle id="XMLID_450_" fill="#19313A" cx="278.149" cy="365.681" r="7.505"/>
				<circle id="XMLID_444_" fill="#FFFFFF" cx="274.397" cy="365" r="2.399"/>
			</g>
			<g id="XMLID_458_">
				<path id="XMLID_459_" fill="#002030" d="M317.999,348.45c0.055-0.159,0.086-0.318,0.051-0.483
					c-0.184-0.841-0.653-1.461-1.225-2.09c-0.77-0.847-1.725-1.525-2.719-2.082c-1.937-1.086-4.181-1.637-6.402-1.518
					c-0.419,0.022-0.849,0.071-1.218,0.27c-0.479,0.258-0.811,0.771-0.851,1.313c-0.074,1.004,0.73,1.471,1.614,1.605
					c0.668,0.101,1.336,0.201,2.004,0.303c0.489,0.074,0.979,0.148,1.464,0.246c1.624,0.328,3.193,0.926,4.624,1.76
					c0.592,0.346,1.178,0.738,1.848,0.88C317.424,348.703,317.885,348.75,317.999,348.45z"/>
			</g>
			<g id="XMLID_467_">
				<path id="XMLID_468_" fill="#002030" d="M271.454,348.063c-0.042-0.163-0.062-0.325-0.013-0.485
					c0.249-0.824,0.764-1.406,1.383-1.99c0.833-0.784,1.837-1.387,2.872-1.865c2.016-0.934,4.294-1.309,6.5-1.019
					c0.416,0.055,0.841,0.136,1.194,0.363c0.458,0.294,0.749,0.83,0.747,1.374c-0.003,1.006-0.842,1.41-1.732,1.475
					c-0.674,0.05-1.348,0.1-2.021,0.148c-0.494,0.035-0.988,0.072-1.479,0.133c-1.645,0.201-3.255,0.676-4.747,1.396
					c-0.617,0.299-1.23,0.646-1.91,0.734C272.007,348.359,271.544,348.371,271.454,348.063z"/>
			</g>
			<g id="XMLID_471_">
				<path id="XMLID_472_" fill="#002030" d="M324.715,317.802c1.444,1.207,1.62,4.406,1.433,6.043c-0.194,1.705-0.914,2.56-2,3.852
					c-0.547,0.651-0.613,0.562-0.885,1.336c-0.118,0.335,0.387,0.578,0.646,0.49c3.05-1.037,3.935-5.152,3.382-7.933
					c-0.273-1.374-0.916-3.744-2.511-4.114C324.617,317.438,324.633,317.735,324.715,317.802L324.715,317.802z"/>
			</g>
			<path id="XMLID_486_" fill="#002030" d="M332.292,327.863c-0.905-2.705-6.792-1.354-8.092,0.164
				c-0.201,0.234-0.545,0.697-0.437,1.027c0.364,1.107,2.431-0.339,2.825-0.49c1.34-0.514,4.192-1.254,5.564-0.507
				C332.271,328.121,332.322,327.953,332.292,327.863z"/>
			<path id="XMLID_474_" fill="#FFC8AC" d="M327.523,358.648c1.111-3.535,5.978-8.511,11.602-6.348
				c5.624,2.164,6.921,10.6,3.785,16.871c-3.136,6.273-11.693,8.57-14.876,4.016L327.523,358.648z"/>
			<path id="XMLID_464_" fill="#9E5147" d="M327.205,363.07c-0.069,0.209,0.215,0.658,0.462,0.495
				c1.061-0.696,1.817-1.712,2.924-2.338c1.198-0.679,2.52-0.872,3.853-0.729c0.621,0.859,1.176,1.52,1.045,2.838
				c-0.114,1.143-0.6,2.406-1.392,3.25c-0.622,0.662-1.56,0.855-2.323,1.307c-0.058,0.034-0.118,0.218-0.021,0.242
				c3.616,0.882,6.041-4.148,4.927-7.063c2.04,0.86,3.729,2.569,3.62,4.958c-0.005,0.112,0.113,0.087,0.146,0.006
				C343.42,358.546,329.553,355.908,327.205,363.07z"/>
			<path id="XMLID_460_" fill="#002030" d="M334.881,351.925c-1.291,9.314-7.463,14.43-8.486,12.678
				c-1.023-1.75,0.497-9.832,0-12.303L334.881,351.925"/>
			<path id="XMLID_478_" fill="#E73555" d="M273.721,454.542l-7.714,9.184c0,0,5.532,6.906,32.37,6.906
				c26.838,0,32.37-6.906,32.37-6.906l-7.714-9.184H273.721z"/>
			<path id="XMLID_378_" fill="#F8B272" d="M317.099,423.187c-3.409-11.154-7.477-15.092-8.813-18.717l0,0
				c-0.032,0.084-1.651,4.232-9.908,4.232c-8.251,0-9.875-4.143-9.909-4.232c-1.337,3.625-5.405,7.563-8.813,18.717
				c-4.599,15.051-5.935,31.355-5.935,31.355s9.62,3.207,24.656,3.207c15.036,0,24.656-3.207,24.656-3.207
				S321.698,438.237,317.099,423.187z"/>
			<path id="XMLID_313_" fill="#FFE568" d="M288.899,402.614c0,0-4.902,1.408-4.58,5.076c0.322,3.666,7.565,7.199,14.058,1.012
				L288.899,402.614z"/>
			<path id="XMLID_562_" fill="#FFE568" d="M307.855,402.614c0,0,4.902,1.408,4.58,5.076c-0.322,3.666-7.565,7.199-14.058,1.012
				L307.855,402.614z"/>
		</g>
	</g>
	<g id="XMLID_707_">
		<ellipse id="XMLID_702_" fill="#BDD5DB" cx="407.148" cy="494.342" rx="50.625" ry="6.41"/>
		<g id="XMLID_304_">
			<g id="XMLID_494_">
				<path id="XMLID_585_" fill="#894E4E" d="M417.014,310.887c-2.851,0.134-3.153,6.166-2.047,7.83
					c0.171,0.257,0.521,0.715,0.869,0.7c1.165-0.049,0.337-2.432,0.298-2.852c-0.13-1.43-0.064-4.376,1.028-5.492
					C417.256,310.978,417.107,310.882,417.014,310.887z"/>
			</g>
			<path id="XMLID_487_" fill="#894E4E" d="M448.329,334.104c-4.425,6.669-12.845,4.309-21.398-1.366
				c-8.553-5.676-14-12.517-9.574-19.186c4.425-6.67,14.946-7.476,23.499-1.8C449.408,317.427,452.755,327.434,448.329,334.104z"/>
			<path id="XMLID_34_" fill="#FFC8AC" d="M394.019,406.085c-2.894-1.26-7.893,0.395-16.976,10.577
				c-2.618,2.935-5.181,5.92-7.684,8.953c-1.87,2.267-3.708,4.559-5.5,6.887c-0.658,0.855-1.282,1.772-2.109,2.479
				c-0.931,0.796-2.148,1.104-3.305,1.414c-0.725,0.194-1.627,0.315-2.178,0.877c-0.573,0.584-0.292,1.452,0.434,1.738
				c0.78,0.309,1.746,0.104,2.566,0.168c0.138,0.011,0.273,0.056,0.358,0.165c0.129,0.166-0.006,0.414-0.091,0.54
				c-0.549,0.813-0.892,1.222-1.22,1.697c-0.534,0.773-2.063,2.46-1.393,3.475c0.263,0.397,0.972,0.534,1.328,0.361
				c0.575-0.278,1.09-0.663,1.564-1.089c0.239-0.214,0.468-0.438,0.693-0.667c0.182-0.186,0.431-0.524,0.729-0.49
				c0.252,0.03,0.246,0.344,0.207,0.525c-0.045,0.211-0.148,0.406-0.252,0.594c-0.394,0.709-0.851,1.409-1.146,2.165
				c-0.144,0.366-0.275,0.743-0.309,1.136c-0.026,0.306,0.02,0.643,0.237,0.859c0.157,0.157,0.384,0.229,0.605,0.244
				c0.496,0.036,0.984-0.179,1.374-0.488c0.487-0.387,0.875-0.878,1.254-1.366c0.396-0.51,0.791-1.023,1.207-1.518
				c0.089-0.106,0.195-0.22,0.333-0.228c0.149-0.009,0.28,0.118,0.324,0.261c0.043,0.144,0.02,0.298-0.013,0.443
				c-0.088,0.394-0.266,0.72-0.414,1.088c-0.154,0.382-0.288,0.771-0.401,1.167c-0.123,0.429-0.231,0.9-0.063,1.313
				c0.311,0.76,1.202,0.906,1.871,0.413c0.662-0.486,2.106-3.274,2.341-3.704c1.444-2.65,3.312-5.031,5.065-7.488
				c2.765-3.876,9.23-11.541,11.752-13.777L394.019,406.085z"/>
			<path id="XMLID_33_" fill="#FFC8AC" d="M413.842,406.085c2.894-1.26,7.893,0.395,16.976,10.577
				c2.618,2.935,5.181,5.92,7.685,8.953c1.869,2.267,3.707,4.559,5.5,6.887c0.658,0.855,1.282,1.772,2.108,2.479
				c0.932,0.796,2.148,1.104,3.306,1.414c0.725,0.194,1.627,0.315,2.178,0.877c0.572,0.584,0.291,1.452-0.435,1.738
				c-0.78,0.309-1.745,0.104-2.565,0.168c-0.138,0.011-0.273,0.056-0.358,0.165c-0.129,0.166,0.006,0.414,0.091,0.54
				c0.549,0.813,0.892,1.222,1.22,1.697c0.533,0.773,2.063,2.46,1.393,3.475c-0.264,0.397-0.972,0.534-1.328,0.361
				c-0.574-0.278-1.09-0.663-1.563-1.089c-0.239-0.214-0.468-0.438-0.693-0.667c-0.182-0.186-0.431-0.524-0.729-0.49
				c-0.252,0.03-0.246,0.344-0.207,0.525c0.046,0.211,0.148,0.406,0.252,0.594c0.394,0.709,0.852,1.409,1.146,2.165
				c0.144,0.366,0.275,0.743,0.31,1.136c0.026,0.306-0.021,0.643-0.237,0.859c-0.157,0.157-0.384,0.229-0.605,0.244
				c-0.496,0.036-0.984-0.179-1.374-0.488c-0.487-0.387-0.875-0.878-1.254-1.366c-0.396-0.51-0.791-1.023-1.207-1.518
				c-0.089-0.106-0.194-0.22-0.333-0.228c-0.149-0.009-0.28,0.118-0.324,0.261c-0.044,0.144-0.02,0.298,0.014,0.443
				c0.088,0.394,0.266,0.72,0.414,1.088c0.153,0.382,0.288,0.771,0.401,1.167c0.123,0.429,0.231,0.9,0.063,1.313
				c-0.312,0.76-1.202,0.906-1.871,0.413c-0.662-0.486-2.106-3.274-2.341-3.704c-1.444-2.65-2.968-5.293-4.722-7.749
				c-4.675-6.544-9.574-11.28-12.097-13.517L413.842,406.085z"/>
			<path id="XMLID_625_" fill="#FFC8AC" d="M422.74,424.37c-3.988-13.05-8.882-16.222-9.244-20.571
				c-0.339-4.064-0.435-8.609-0.435-8.609h-18.087c0,0-0.095,4.545-0.434,8.609c-0.362,4.35-5.256,7.521-9.244,20.571
				c-4.599,15.051-5.935,31.356-5.935,31.356s9.62,3.206,24.656,3.206c15.035,0,24.655-3.206,24.655-3.206
				S427.339,439.421,422.74,424.37z"/>
			<path id="XMLID_485_" fill="#AA5E5E" d="M366.362,371.242c-4.27-0.819-15.521-28.596,5.275-46.552
				c20.795-17.955,54.708-7.449,57.913,6.017c0.851-0.11,7.32-0.535,12.142,9.045c4.35,8.643,6.937,41.823-11.861,47.559
				C411.033,393.046,366.362,371.242,366.362,371.242z"/>
			<path id="XMLID_624_" fill="#F49282" d="M413.119,395.189h-18.145c0,0-0.078,3.674-0.339,7.368
				c1.857,0.104,3.698,0.146,5.482,0.146c4.266,0,10.125-1.47,13.108-3.104C413.063,396.261,413.119,395.189,413.119,395.189z"/>
			<path id="XMLID_623_" fill="#0880A5" d="M379.362,455.727c0,11.12,2.6,31.106,2.6,31.106s-4.796,1.415-7.255,2.83
				c-2.459,1.416-1.858,3.146,9.084,3.146s15.907,0,15.907,0l3.356-37.082C403.054,455.727,379.362,444.607,379.362,455.727z"/>
			<path id="XMLID_32_" fill="#0E547A" d="M402.278,464.292c-1.947-0.299-5.12-1.442-5.12-1.442l-1.841,23.983h4.92L402.278,464.292
				z"/>
			<path id="XMLID_622_" fill="#0880A5" d="M428.74,455.727c0,11.12-2.6,31.106-2.6,31.106s4.796,1.415,7.255,2.83
				c2.46,1.416,1.858,3.146-9.084,3.146c-10.941,0-15.906,0-15.906,0l-3.356-37.082C405.049,455.727,428.74,444.607,428.74,455.727z
				"/>
			<path id="XMLID_620_" fill="#0880A5" d="M400.877,457.719h6.282v6.282c-2.094,0.564-4.188,0.564-6.282,0V457.719z"/>
			<path id="XMLID_619_" fill="#002030" d="M408.405,492.809c0,0,4.965,0,15.907,0c10.941,0,11.543-1.729,9.083-3.146
				c-2.459-1.415-7.255-2.83-7.255-2.83h-18.276L408.405,492.809z"/>
			<path id="XMLID_618_" fill="#002030" d="M381.962,486.833c0,0-4.796,1.415-7.255,2.83c-2.459,1.416-1.858,3.146,9.084,3.146
				s15.907,0,15.907,0l0.541-5.976H381.962z"/>
			<path id="XMLID_613_" fill="#FFC8AC" d="M400.118,397.223c9.635,0,20.876-1.147,27.759-7.57c6.882-6.424,7.57-22.941,3.44-39.23
				c-4.129-16.288-19.959-19.959-31.2-19.959c-11.241,0-27.071,3.671-31.2,19.959c-4.129,16.289-3.441,32.807,3.441,39.23
				C379.241,396.075,390.482,397.223,400.118,397.223z"/>
			<circle id="XMLID_589_" fill="#FCA39A" cx="374.707" cy="379.554" r="6.921"/>
			<circle id="XMLID_588_" fill="#FCA39A" cx="423.984" cy="379.554" r="6.921"/>
			<path id="XMLID_406_" fill="#8E3257" d="M391.845,383.13c0,0,1.488,5.882,8.627,5.657c8.229-0.259,8.439-6.474,8.439-6.474
				s-1.44,0-8.07,0.351C396.318,382.903,391.845,383.13,391.845,383.13z"/>
			<path id="XMLID_409_" fill="#EE7BA5" d="M400.473,388.787c1.966-0.062,3.463-0.469,4.62-1.044
				c-1.25-1.171-3.108-1.916-5.188-1.916c-1.883,0-3.588,0.609-4.822,1.595C396.36,388.257,398.099,388.862,400.473,388.787z"/>
			<path id="XMLID_393_" fill="#AA5E5E" d="M400.118,326.478c-38.303,0-34.469,30.664-34.469,30.664
				c12.402-2.58,19.969-11.857,23.145-16.662c-0.409,4.141-1.078,11.341-0.918,12.631c0.117,0.945,6.289,1.346,12.242,1.268
				c5.954,0.078,12.125-0.322,12.242-1.268c0.16-1.29-0.509-8.49-0.918-12.631c3.176,4.805,10.743,14.082,23.146,16.662
				C434.587,357.142,438.421,326.478,400.118,326.478z"/>
			<path id="XMLID_612_" fill="#FCA39A" d="M398.462,374.227c-2.517-0.085-4.792,1.513-4.777,2.26c0.035,1.749,8.954,2.105,8.858,0
				C402.49,375.311,400.622,374.3,398.462,374.227z"/>
			<g id="XMLID_610_">
				<path id="XMLID_611_" fill="#9E5147" d="M393.458,376.957c1.582-1.185,2.732-2.364,4.888-2.372
					c1.985-0.007,3.042,1.06,4.127,2.537c0.187,0.253,0.667,0.264,0.618-0.135c-0.548-4.474-8.572-4.057-9.725-0.16
					C393.351,376.878,393.382,377.014,393.458,376.957L393.458,376.957z"/>
			</g>
			<g id="XMLID_600_">
				<path id="XMLID_605_" fill="#FFFFFF" d="M416.719,356.394c-3.328-0.011-8.229,1.991-9.644,6.774
					c-1.723,5.818,1.849,11.47,9.644,11.193c8.364-0.295,11.322-5.266,10.427-9.879
					C426.186,359.541,422.554,356.412,416.719,356.394z"/>
				<g id="XMLID_603_">
					<path id="XMLID_604_" fill="#002030" d="M406.941,364.193c1.555-4.692,6.912-7.591,11.685-6.63
						c1.933,0.389,4.014,1.453,5.293,2.976c1.43,1.702,1.632,3.913,2.975,5.609c0.213,0.269,0.768,0.432,0.963,0.05
						c1.248-2.438-0.699-5.615-2.44-7.373c-1.813-1.832-4.53-3.058-7.08-3.353c-2.601-0.301-5.484,0.277-7.705,1.694
						c-2.672,1.704-3.438,3.928-3.904,6.947C406.7,364.285,406.876,364.389,406.941,364.193L406.941,364.193z"/>
				</g>
				<circle id="XMLID_602_" fill="#19313A" cx="415.146" cy="366.865" r="7.505"/>
				<circle id="XMLID_601_" fill="#FFFFFF" cx="411.312" cy="366.184" r="2.399"/>
			</g>
			<g id="XMLID_594_">
				<path id="XMLID_599_" fill="#FFFFFF" d="M382.218,356.394c3.328-0.011,8.228,1.991,9.644,6.774
					c1.722,5.818-1.848,11.47-9.644,11.193c-8.364-0.295-11.323-5.266-10.427-9.879
					C372.751,359.541,376.382,356.412,382.218,356.394z"/>
				<g id="XMLID_597_">
					<path id="XMLID_598_" fill="#002030" d="M392.207,364.056c-0.503-3.125-1.787-5.566-4.625-7.195
						c-2.639-1.516-5.991-1.855-8.892-0.992c-2.049,0.61-4.146,1.757-5.557,3.389c-1.425,1.649-3.39,4.628-1.992,6.739
						c0.227,0.343,0.788,0.655,1.077,0.202c0.903-1.417,1.125-3.1,2.013-4.542c0.989-1.605,2.372-2.665,4.084-3.43
						c5.258-2.349,11.887,0.376,13.672,5.979C392.061,364.436,392.231,364.206,392.207,364.056L392.207,364.056z"/>
				</g>
				<circle id="XMLID_596_" fill="#19313A" cx="383.791" cy="366.865" r="7.505"/>
				<circle id="XMLID_595_" fill="#FFFFFF" cx="380.113" cy="366.184" r="2.399"/>
			</g>
			<g id="XMLID_592_">
				<path id="XMLID_593_" fill="#7A4141" d="M429.274,353.584c0.054-0.16,0.086-0.319,0.051-0.482
					c-0.185-0.842-0.654-1.462-1.226-2.091c-0.77-0.847-1.725-1.525-2.719-2.083c-1.938-1.086-4.181-1.636-6.402-1.517
					c-0.419,0.022-0.849,0.071-1.218,0.27c-0.479,0.258-0.812,0.771-0.852,1.313c-0.074,1.003,0.73,1.471,1.614,1.604
					c0.668,0.102,1.336,0.202,2.004,0.304c0.489,0.074,0.979,0.148,1.464,0.246c1.624,0.328,3.193,0.926,4.624,1.76
					c0.592,0.346,1.177,0.738,1.848,0.88C428.699,353.837,429.16,353.884,429.274,353.584z"/>
			</g>
			<g id="XMLID_590_">
				<path id="XMLID_591_" fill="#7A4141" d="M371.394,352.851c-0.042-0.164-0.062-0.324-0.014-0.485
					c0.249-0.824,0.765-1.406,1.383-1.989c0.833-0.785,1.837-1.388,2.872-1.866c2.015-0.934,4.294-1.309,6.5-1.019
					c0.416,0.055,0.841,0.137,1.194,0.363c0.458,0.294,0.749,0.83,0.747,1.374c-0.003,1.006-0.842,1.41-1.732,1.475
					c-0.674,0.05-1.348,0.099-2.021,0.148c-0.494,0.036-0.987,0.072-1.479,0.132c-1.645,0.202-3.255,0.677-4.747,1.398
					c-0.617,0.299-1.23,0.645-1.91,0.733C371.947,353.147,371.484,353.158,371.394,352.851z"/>
			</g>
			<path id="XMLID_584_" fill="#FFC8AC" d="M433.164,359.832c1.11-3.535,5.978-8.511,11.602-6.348
				c5.623,2.163,6.921,10.599,3.785,16.871c-3.137,6.273-11.693,8.57-14.877,4.015L433.164,359.832z"/>
			<path id="XMLID_583_" fill="#9E5147" d="M432.846,364.254c-0.068,0.209,0.215,0.657,0.463,0.495
				c1.061-0.697,1.817-1.712,2.924-2.338c1.198-0.679,2.521-0.873,3.853-0.729c0.621,0.859,1.177,1.52,1.046,2.838
				c-0.114,1.143-0.601,2.406-1.392,3.249c-0.622,0.663-1.561,0.857-2.323,1.308c-0.059,0.034-0.118,0.218-0.021,0.242
				c3.615,0.882,6.04-4.148,4.927-7.063c2.04,0.86,3.729,2.569,3.62,4.958c-0.006,0.112,0.113,0.087,0.146,0.006
				C449.061,359.729,435.193,357.092,432.846,364.254z"/>
			<path id="XMLID_581_" fill="#AA5E5E" d="M440.522,353.11c-1.291,9.313-7.464,14.429-8.486,12.678s0.498-9.832,0-12.304
				L440.522,353.11"/>
			<path id="XMLID_579_" fill="#74CC78" d="M422.74,424.37c-3.408-11.154-7.477-15.092-8.813-18.716l0,0
				c-0.032,0.084-1.651,4.233-9.908,4.233c-8.251,0-9.875-4.144-9.909-4.233c-1.337,3.625-5.405,7.563-8.813,18.716
				c-4.599,15.051-5.935,23.312-5.935,31.356c0,0,9.62,3.206,24.656,3.206c15.035,0,24.655-3.206,24.655-3.206
				C428.674,447.532,427.339,439.421,422.74,424.37z"/>
		</g>
	</g>
	<g id="XMLID_705_">
		<ellipse id="XMLID_700_" fill="#BDD5DB" cx="506.328" cy="488.384" rx="50.625" ry="6.41"/>
		<g id="XMLID_627_">
			<path id="XMLID_676_" fill="#FFC8AC" d="M524.899,419.198c-3.988-13.049-8.882-16.222-9.244-20.571
				c-0.339-4.064-0.434-8.609-0.434-8.609h-18.088c0,0-0.096,4.545-0.435,8.609c-0.362,4.35-5.256,7.522-9.243,20.571
				c-4.599,15.051-5.935,31.357-5.935,31.357s9.62,3.205,24.656,3.205s24.656-3.205,24.656-3.205S529.498,434.249,524.899,419.198z"
				/>
			<path id="XMLID_57_" fill="#CC5440" d="M468.785,358.612c0,0-7.838-0.973-8.004-16.389
				c-0.216-20.002,27.435-41.088,58.281-20.917c16.97-3.792,28.835,9.198,27.862,27.007c-1.121,20.524-0.77,39.126-16.091,43.738
				c-15.322,4.612-26.132,1.724-26.132,1.724L468.785,358.612z"/>
			<g id="XMLID_697_">
				<path id="XMLID_698_" fill="#CC5440" d="M513.265,312.643c1.869,0.217,3.77,2.798,4.51,4.269
					c0.771,1.533,0.638,2.643,0.438,4.319c-0.102,0.844-0.205,0.805-0.009,1.602c0.086,0.345,0.641,0.272,0.81,0.056
					c1.983-2.539,0.468-6.466-1.518-8.489c-0.98-0.999-2.817-2.629-4.354-2.066C512.983,312.392,513.159,312.631,513.265,312.643
					L513.265,312.643z"/>
			</g>
			<path id="XMLID_696_" fill="#CC5440" d="M525.116,316.906c-2.24-1.767-6.424,2.589-6.679,4.572
				c-0.04,0.306-0.074,0.881,0.197,1.098c0.911,0.727,1.848-1.616,2.095-1.958c0.839-1.165,2.819-3.347,4.376-3.473
				C525.239,317.134,525.19,316.965,525.116,316.906z"/>
			<path id="XMLID_31_" fill="#FFC8AC" d="M496.266,398.991c-2.894-1.26-7.893,0.395-16.976,10.577
				c-2.618,2.935-5.181,5.92-7.684,8.954c-1.87,2.266-3.708,4.559-5.5,6.886c-0.659,0.855-1.283,1.772-2.109,2.479
				c-0.932,0.797-2.148,1.104-3.305,1.414c-0.726,0.195-1.627,0.316-2.178,0.877c-0.573,0.584-0.292,1.452,0.434,1.738
				c0.78,0.309,1.746,0.105,2.565,0.168c0.139,0.011,0.274,0.057,0.358,0.166c0.13,0.166-0.006,0.413-0.09,0.539
				c-0.55,0.813-0.893,1.222-1.221,1.697c-0.533,0.773-2.063,2.461-1.393,3.475c0.264,0.397,0.973,0.534,1.328,0.361
				c0.575-0.277,1.09-0.663,1.564-1.088c0.238-0.215,0.468-0.439,0.692-0.668c0.182-0.186,0.431-0.524,0.729-0.49
				c0.252,0.03,0.246,0.344,0.207,0.525c-0.045,0.211-0.148,0.406-0.252,0.594c-0.394,0.709-0.851,1.409-1.146,2.165
				c-0.144,0.366-0.275,0.743-0.309,1.136c-0.026,0.307,0.02,0.643,0.236,0.859c0.158,0.157,0.384,0.229,0.606,0.244
				c0.496,0.037,0.984-0.178,1.373-0.488c0.487-0.387,0.875-0.878,1.255-1.366c0.396-0.51,0.79-1.023,1.206-1.518
				c0.089-0.106,0.195-0.22,0.333-0.228c0.149-0.008,0.28,0.118,0.324,0.262c0.044,0.143,0.02,0.297-0.014,0.443
				c-0.087,0.393-0.265,0.719-0.413,1.087c-0.154,0.382-0.288,0.771-0.402,1.167c-0.122,0.429-0.23,0.9-0.062,1.313
				c0.311,0.76,1.201,0.906,1.871,0.414c0.661-0.487,2.105-3.275,2.34-3.705c1.444-2.65,3.313-5.031,5.065-7.488
				c2.766-3.875,9.23-11.541,11.753-13.777L496.266,398.991z"/>
			<path id="XMLID_30_" fill="#FFC8AC" d="M516.089,398.991c2.894-1.26,7.894,0.395,16.977,10.577
				c2.618,2.935,5.181,5.92,7.684,8.954c1.869,2.266,3.707,4.559,5.5,6.886c0.658,0.855,1.282,1.772,2.108,2.479
				c0.932,0.797,2.148,1.104,3.306,1.414c0.725,0.195,1.627,0.316,2.178,0.877c0.572,0.584,0.292,1.452-0.434,1.738
				c-0.78,0.309-1.746,0.105-2.566,0.168c-0.138,0.011-0.273,0.057-0.358,0.166c-0.129,0.166,0.006,0.413,0.091,0.539
				c0.549,0.813,0.892,1.222,1.22,1.697c0.534,0.773,2.063,2.461,1.393,3.475c-0.263,0.397-0.972,0.534-1.328,0.361
				c-0.574-0.277-1.09-0.663-1.563-1.088c-0.238-0.215-0.468-0.439-0.692-0.668c-0.183-0.186-0.432-0.524-0.729-0.49
				c-0.253,0.03-0.247,0.344-0.207,0.525c0.045,0.211,0.147,0.406,0.252,0.594c0.394,0.709,0.851,1.409,1.146,2.165
				c0.143,0.366,0.274,0.743,0.309,1.136c0.026,0.307-0.02,0.643-0.237,0.859c-0.157,0.157-0.384,0.229-0.605,0.244
				c-0.496,0.037-0.984-0.178-1.374-0.488c-0.486-0.387-0.874-0.878-1.254-1.366c-0.396-0.51-0.791-1.023-1.207-1.518
				c-0.089-0.106-0.194-0.22-0.332-0.228c-0.149-0.008-0.28,0.118-0.324,0.262c-0.044,0.143-0.02,0.297,0.013,0.443
				c0.088,0.393,0.266,0.719,0.414,1.087c0.154,0.382,0.288,0.771,0.401,1.167c0.123,0.429,0.231,0.9,0.063,1.313
				c-0.311,0.76-1.202,0.906-1.871,0.414c-0.662-0.487-2.105-3.275-2.341-3.705c-1.443-2.65-2.967-5.293-4.722-7.748
				c-4.675-6.545-9.574-11.281-12.096-13.518L516.089,398.991z"/>
			<path id="XMLID_98_" fill="#CC5440" d="M539.802,394.27c-0.731,3.396-2.511,8.065-5.409,9.845
				c-2.899,1.78-10.171-6.483-7.49-12.584c1.507-3.43,4.896-5.057,6.652-5.296C535.311,385.996,540.751,389.861,539.802,394.27z"/>
			<path id="XMLID_183_" fill="#CC5440" d="M540.149,406.739c-0.73,3.396-2.511,8.064-5.409,9.845s-10.171-6.483-7.49-12.585
				c1.507-3.429,4.896-5.057,6.652-5.295C535.659,398.464,541.099,402.33,540.149,406.739z"/>
			<path id="XMLID_675_" fill="#F49282" d="M515.278,390.018h-18.145c0,0-0.078,3.673-0.34,7.369
				c1.857,0.105,3.698,0.145,5.483,0.145c4.266,0,10.125-1.47,13.107-3.103C515.222,391.089,515.278,390.018,515.278,390.018z"/>
			<path id="XMLID_674_" fill="#FFC8AC" d="M481.521,450.556l2.6,31.105c0,0-4.796,1.416-7.256,2.83
				c-2.459,1.416-1.857,3.146,9.084,3.146c10.942,0,15.907,0,15.907,0l3.356-37.081H481.521z"/>
			<path id="XMLID_673_" fill="#FFC8AC" d="M530.899,450.556l-2.6,31.105c0,0,4.796,1.416,7.256,2.83
				c2.459,1.416,1.858,3.146-9.084,3.146s-15.907,0-15.907,0l-3.356-37.081H530.899z"/>
			<path id="XMLID_672_" fill="#F49282" d="M504.991,453.006h-23.265l1.134,13.567c4.521,1.254,11.136,2.329,20.677,2.498
				L504.991,453.006z"/>
			<path id="XMLID_671_" fill="#F49282" d="M507.43,453.006l1.454,16.063c9.554-0.174,16.166-1.256,20.679-2.516l1.132-13.548
				H507.43z"/>
			<path id="XMLID_41_" fill="#EC5E76" d="M516.086,400.482l-9.908,4.233l-9.909-4.233c0,0-18.585,27.792-22.461,59.257
				c0,0,4.901,6.906,32.37,6.906s32.369-6.906,32.369-6.906C534.672,428.274,516.086,400.482,516.086,400.482z"/>
			<path id="XMLID_670_" fill="#002030" d="M510.564,487.637c0,0,4.965,0,15.907,0s11.543-1.729,9.084-3.146
				c-2.46-1.414-7.256-2.83-7.256-2.83h-18.276L510.564,487.637z"/>
			<path id="XMLID_669_" fill="#002030" d="M484.121,481.661c0,0-4.796,1.416-7.256,2.83c-2.459,1.416-1.857,3.146,9.084,3.146
				c10.942,0,15.907,0,15.907,0l0.541-5.976H484.121z"/>
			<path id="XMLID_664_" fill="#FFC8AC" d="M502.277,392.051c9.635,0,20.876-1.147,27.759-7.571
				c6.882-6.423,7.57-22.941,3.441-39.229c-4.13-16.288-19.959-19.959-31.2-19.959s-27.071,3.671-31.2,19.959
				c-4.13,16.289-3.441,32.806,3.44,39.229C481.4,390.904,492.642,392.051,502.277,392.051z"/>
			<circle id="XMLID_640_" fill="#FCA39A" cx="476.866" cy="374.382" r="6.921"/>
			<circle id="XMLID_639_" fill="#FCA39A" cx="526.144" cy="374.382" r="6.921"/>
			<path id="XMLID_59_" fill="#CC5440" d="M503.841,325.318c0,0,5.638,15.947,31.154,30.334c0,0,5.23-14.417-4.583-23.454
				C520.598,323.162,503.841,325.318,503.841,325.318z"/>
			<path id="XMLID_103_" fill="#CC5440" d="M503.841,325.318c0,0-5.082,19.773-36.711,29.556c0,0,0.327-13.638,10.141-22.675
				C487.084,323.162,503.841,325.318,503.841,325.318z"/>
			<path id="XMLID_663_" fill="#FCA39A" d="M500.621,370.683c-2.518-0.085-4.792,1.512-4.777,2.26c0.035,1.749,8.953,2.105,8.858,0
				C504.648,371.768,502.781,370.756,500.621,370.683z"/>
			<g id="XMLID_661_">
				<path id="XMLID_662_" fill="#9E5147" d="M495.616,373.413c1.582-1.185,2.732-2.364,4.889-2.372
					c1.984-0.007,3.041,1.06,4.127,2.537c0.187,0.253,0.667,0.264,0.618-0.135c-0.548-4.473-8.572-4.057-9.726-0.159
					C495.51,373.334,495.541,373.47,495.616,373.413L495.616,373.413z"/>
			</g>
			<g id="XMLID_659_">
				<path id="XMLID_660_" fill="#9E5147" d="M493.255,381.04c5.796,3.442,15.385,1.957,19.896-2.947
					c0.481-0.524-0.563-1.027-0.989-0.562c-4.538,4.951-12.954,5.429-18.837,3.036C492.999,380.435,493.049,380.918,493.255,381.04
					L493.255,381.04z"/>
			</g>
			<g id="XMLID_657_">
				<path id="XMLID_658_" fill="#9E5147" d="M512.087,375.858c-0.563,0.576,0.016,1.611,0.479,2.042
					c0.531,0.496,1.459,0.963,2.2,0.706c0.252-0.088,0.523-0.394,0.246-0.639c-0.218-0.193-0.751-0.025-1.034-0.084
					c-1.035-0.217-1.339-1.076-1.661-1.955C512.277,375.824,512.168,375.776,512.087,375.858L512.087,375.858z"/>
			</g>
			<g id="XMLID_651_">
				<path id="XMLID_656_" fill="#FFFFFF" d="M518.878,351.222c-3.328-0.011-8.229,1.991-9.644,6.775
					c-1.722,5.818,1.849,11.469,9.644,11.194c8.364-0.296,11.322-5.266,10.427-9.879C528.345,354.37,524.714,351.24,518.878,351.222
					z"/>
				<g id="XMLID_654_">
					<path id="XMLID_655_" fill="#002030" d="M509.101,359.021c1.555-4.692,6.912-7.59,11.685-6.629
						c1.933,0.389,4.014,1.453,5.293,2.976c1.43,1.702,1.633,3.913,2.975,5.609c0.213,0.269,0.768,0.431,0.963,0.05
						c1.248-2.438-0.699-5.615-2.439-7.373c-1.814-1.833-4.531-3.058-7.08-3.353c-2.602-0.301-5.485,0.278-7.706,1.694
						c-2.672,1.705-3.438,3.928-3.904,6.948C508.859,359.113,509.035,359.217,509.101,359.021L509.101,359.021z"/>
				</g>
				<circle id="XMLID_653_" fill="#19313A" cx="517.305" cy="361.693" r="7.505"/>
				<circle id="XMLID_652_" fill="#FFFFFF" cx="513.352" cy="361.012" r="2.399"/>
			</g>
			<g id="XMLID_645_">
				<path id="XMLID_650_" fill="#FFFFFF" d="M484.377,351.222c3.328-0.011,8.229,1.991,9.644,6.775
					c1.722,5.818-1.849,11.469-9.644,11.194c-8.364-0.296-11.323-5.266-10.427-9.879C474.91,354.37,478.541,351.24,484.377,351.222z
					"/>
				<g id="XMLID_648_">
					<path id="XMLID_649_" fill="#002030" d="M494.366,358.884c-0.503-3.125-1.786-5.566-4.626-7.195
						c-2.639-1.515-5.991-1.856-8.891-0.992c-2.05,0.61-4.146,1.757-5.557,3.389c-1.426,1.649-3.391,4.627-1.993,6.739
						c0.227,0.343,0.788,0.655,1.077,0.202c0.903-1.417,1.125-3.1,2.013-4.542c0.988-1.606,2.372-2.665,4.084-3.43
						c5.259-2.349,11.888,0.375,13.673,5.979C494.22,359.264,494.391,359.035,494.366,358.884L494.366,358.884z"/>
				</g>
				<circle id="XMLID_647_" fill="#19313A" cx="485.95" cy="361.693" r="7.505"/>
				<circle id="XMLID_646_" fill="#FFFFFF" cx="482.144" cy="361.012" r="2.399"/>
			</g>
			<g id="XMLID_643_">
				<path id="XMLID_644_" fill="#A03717" d="M525.733,343.47c0.055-0.16,0.087-0.319,0.051-0.483
					c-0.185-0.841-0.653-1.461-1.225-2.09c-0.77-0.847-1.726-1.525-2.72-2.083c-1.938-1.086-4.181-1.636-6.401-1.517
					c-0.419,0.022-0.85,0.071-1.219,0.27c-0.479,0.258-0.811,0.77-0.851,1.312c-0.074,1.003,0.73,1.471,1.613,1.604
					c0.668,0.101,1.336,0.202,2.004,0.304c0.489,0.074,0.979,0.148,1.464,0.246c1.624,0.328,3.193,0.925,4.624,1.76
					c0.593,0.345,1.178,0.738,1.849,0.879C525.158,343.722,525.62,343.77,525.733,343.47z"/>
			</g>
			<g id="XMLID_641_">
				<path id="XMLID_642_" fill="#A03717" d="M477.353,342.736c-0.042-0.164-0.062-0.324-0.013-0.485
					c0.248-0.825,0.764-1.407,1.383-1.989c0.832-0.785,1.837-1.387,2.871-1.866c2.016-0.934,4.295-1.309,6.5-1.019
					c0.416,0.055,0.841,0.136,1.194,0.363c0.457,0.294,0.749,0.83,0.747,1.374c-0.004,1.006-0.842,1.41-1.733,1.475
					c-0.674,0.049-1.347,0.099-2.021,0.148c-0.494,0.036-0.988,0.072-1.479,0.132c-1.644,0.202-3.255,0.676-4.746,1.398
					c-0.617,0.298-1.23,0.645-1.91,0.734C477.906,343.033,477.443,343.044,477.353,342.736z"/>
			</g>
			<path id="XMLID_635_" fill="#FFC8AC" d="M535.323,354.661c1.111-3.536,5.978-8.511,11.602-6.348
				c5.623,2.163,6.921,10.599,3.785,16.871c-3.137,6.273-11.693,8.57-14.877,4.015L535.323,354.661z"/>
			<path id="XMLID_634_" fill="#9E5147" d="M535.005,359.083c-0.068,0.209,0.216,0.658,0.463,0.495
				c1.061-0.697,1.817-1.712,2.925-2.338c1.198-0.678,2.52-0.873,3.852-0.729c0.621,0.859,1.177,1.52,1.046,2.838
				c-0.113,1.143-0.601,2.407-1.392,3.25c-0.622,0.663-1.561,0.856-2.323,1.307c-0.058,0.034-0.118,0.218-0.021,0.242
				c3.615,0.882,6.04-4.148,4.928-7.063c2.039,0.86,3.728,2.569,3.619,4.958c-0.005,0.113,0.113,0.087,0.146,0.006
				C551.22,354.558,537.353,351.92,535.005,359.083z"/>
			<path id="XMLID_632_" fill="#CC5440" d="M542.682,347.938c-1.291,9.313-7.464,14.429-8.486,12.678s0.498-9.833,0-12.303
				L542.682,347.938"/>
			<path id="XMLID_629_" fill="#F7F9F9" d="M496.699,398.627c0,0-4.901,1.408-4.579,5.075c0.321,3.668,7.564,7.201,14.058,1.014
				L496.699,398.627z"/>
			<path id="XMLID_628_" fill="#F7F9F9" d="M515.655,398.627c0,0,4.901,1.408,4.58,5.075c-0.322,3.668-7.565,7.201-14.058,1.014
				L515.655,398.627z"/>
		</g>
	</g>
</g>
<g id="Designed_by_Freepik">
</g>
</svg>
