<?xml version="1.0" encoding="utf-8"?>
<!-- Generator: Adobe Illustrator 16.0.0, SVG Export Plug-In . SVG Version: 6.00 Build 0)  -->
<!DOCTYPE svg PUBLIC "-//W3C//DTD SVG 1.1//EN" "http://www.w3.org/Graphics/SVG/1.1/DTD/svg11.dtd">
<svg version="1.1" id="Capa_1" xmlns="http://www.w3.org/2000/svg" xmlns:xlink="http://www.w3.org/1999/xlink" x="0px" y="0px"
	 width="800px" height="800px" viewBox="0 0 800 800" enable-background="new 0 0 800 800" xml:space="preserve">
<g id="XMLID_704_">
	<path id="XMLID_699_" fill="#BDD5DB" d="M177.303,730.727c0-12.031,106.178-21.781,237.149-21.781
		c130.977,0,237.153,9.75,237.153,21.781c0,12.033-106.177,21.781-237.153,21.781C283.48,752.508,177.303,742.76,177.303,730.727z"
		/>
	<g id="XMLID_780_">
		<path id="XMLID_829_" fill="#FFC8AC" d="M502.166,494.992c-18.678-44.34-41.606-55.117-43.305-69.898
			c-1.587-13.809-2.029-29.253-2.029-29.253h-84.73c0,0-0.446,15.445-2.033,29.253c-1.697,14.781-24.623,25.559-43.302,69.898
			c-21.544,51.143-27.799,106.549-27.799,106.549s45.064,10.891,115.498,10.891c70.436,0,115.5-10.891,115.5-10.891
			S523.708,546.135,502.166,494.992z"/>
		<path id="XMLID_394_" fill="#AA5E5E" d="M561.554,195.94c0,0,52.544-3.912,51.932,56.407
			c-0.704,69.378-27.961,110.445-80.688,119.357C480.064,380.613,561.554,195.94,561.554,195.94z"/>
		<g id="XMLID_395_">
			<path id="XMLID_396_" fill="#AA5E5E" d="M561.201,161.058c6.766,4.096,7.59,14.97,6.716,20.528
				c-0.91,5.793-4.281,8.698-9.373,13.09c-2.563,2.212-2.868,1.908-4.146,4.536c-0.553,1.141,1.813,1.968,3.029,1.667
				c14.291-3.523,18.43-17.507,15.842-26.954c-1.276-4.665-4.286-12.72-11.757-13.979
				C560.744,159.817,560.822,160.826,561.201,161.058L561.201,161.058z"/>
		</g>
		<path id="XMLID_389_" fill="#AA5E5E" d="M596.7,195.24c-4.241-9.193-31.816-4.6-37.905,0.558
			c-0.942,0.798-2.557,2.368-2.046,3.489c1.703,3.764,11.387-1.15,13.235-1.665c6.276-1.748,19.64-4.262,26.063-1.723
			C596.601,196.116,596.842,195.544,596.7,195.24z"/>
		<path id="XMLID_402_" fill="#FFC8AC" d="M368.289,432.863c-13.555-4.281-36.974,1.342-79.523,35.939
			c-12.262,9.971-24.268,20.113-35.992,30.422c-8.759,7.703-17.368,15.492-25.765,23.4c-3.086,2.902-6.008,6.021-9.878,8.424
			c-4.364,2.707-10.064,3.75-15.483,4.805c-3.396,0.66-7.621,1.074-10.201,2.98c-2.683,1.984-1.368,4.93,2.033,5.906
			c3.653,1.049,8.177,0.354,12.018,0.57c0.647,0.037,1.283,0.193,1.679,0.561c0.606,0.564-0.025,1.406-0.424,1.836
			c-2.571,2.76-4.179,4.15-5.716,5.766c-2.5,2.629-9.665,8.359-6.522,11.807c1.231,1.348,4.552,1.811,6.22,1.229
			c2.692-0.945,5.105-2.258,7.326-3.701c1.118-0.727,2.191-1.488,3.243-2.266c0.854-0.631,2.02-1.785,3.419-1.666
			c1.181,0.1,1.154,1.168,0.971,1.785c-0.213,0.717-0.695,1.381-1.18,2.018c-1.844,2.41-3.987,4.789-5.371,7.354
			c-0.673,1.248-1.29,2.527-1.448,3.863c-0.123,1.037,0.092,2.184,1.11,2.92c0.738,0.531,1.797,0.775,2.838,0.828
			c2.324,0.125,4.611-0.604,6.435-1.658c2.279-1.314,4.096-2.984,5.876-4.643c1.857-1.736,3.703-3.477,5.651-5.158
			c0.417-0.359,0.913-0.746,1.56-0.771c0.698-0.029,1.313,0.402,1.516,0.887c0.207,0.488,0.092,1.012-0.059,1.51
			c-0.412,1.334-1.244,2.441-1.94,3.693c-0.722,1.297-1.349,2.617-1.88,3.965c-0.576,1.453-1.083,3.059-0.292,4.459
			c1.457,2.582,5.629,3.08,8.765,1.406c3.1-1.654,9.865-11.129,10.963-12.588c6.763-9.006,15.517-17.096,23.729-25.445
			c12.955-13.168,43.24-39.213,55.053-46.813L368.289,432.863z"/>
		<path id="XMLID_400_" fill="#FFC8AC" d="M461.15,432.863c13.555-4.281,36.972,1.342,79.52,35.939
			c12.266,9.971,24.269,20.113,35.994,30.422c8.761,7.703,17.37,15.492,25.765,23.4c3.087,2.902,6.01,6.021,9.881,8.424
			c4.364,2.707,10.063,3.75,15.48,4.805c3.398,0.66,7.621,1.074,10.202,2.98c2.684,1.984,1.367,4.93-2.033,5.906
			c-3.654,1.049-8.173,0.354-12.017,0.57c-0.646,0.037-1.281,0.193-1.679,0.561c-0.604,0.564,0.027,1.406,0.421,1.836
			c2.576,2.76,4.182,4.15,5.718,5.766c2.497,2.629,9.662,8.359,6.523,11.807c-1.233,1.348-4.556,1.811-6.221,1.229
			c-2.695-0.945-5.105-2.258-7.324-3.701c-1.121-0.727-2.191-1.488-3.247-2.266c-0.853-0.631-2.018-1.785-3.418-1.666
			c-1.181,0.1-1.153,1.168-0.97,1.785c0.21,0.717,0.695,1.381,1.18,2.018c1.844,2.41,3.985,4.789,5.37,7.354
			c0.673,1.248,1.291,2.527,1.451,3.863c0.124,1.037-0.097,2.184-1.112,2.92c-0.736,0.531-1.798,0.775-2.836,0.828
			c-2.324,0.125-4.615-0.604-6.437-1.658c-2.283-1.314-4.099-2.984-5.878-4.643c-1.853-1.736-3.701-3.477-5.649-5.158
			c-0.417-0.359-0.911-0.746-1.562-0.771c-0.698-0.029-1.313,0.402-1.518,0.887c-0.206,0.488-0.092,1.012,0.064,1.51
			c0.406,1.334,1.239,2.441,1.938,3.693c0.719,1.297,1.349,2.617,1.881,3.965c0.571,1.453,1.08,3.059,0.288,4.459
			c-1.456,2.582-5.627,3.08-8.766,1.406c-3.096-1.654-9.862-11.129-10.961-12.588c-6.766-9.006-13.901-17.986-22.118-26.33
			c-21.897-22.236-44.85-38.328-56.666-45.928L461.15,432.863z"/>
		<path id="XMLID_828_" fill="#F49282" d="M457.102,395.84h-85c0,0-0.364,12.484-1.59,25.037c8.699,0.357,17.32,0.492,25.682,0.492
			c19.982,0,47.435-4.99,61.401-10.541C456.832,399.482,457.102,395.84,457.102,395.84z"/>
		<path id="XMLID_827_" fill="#FFC8AC" d="M298.968,601.541l12.175,105.693c0,0-22.464,4.805-33.985,9.615
			c-11.522,4.813-8.706,10.686,42.553,10.686c51.259,0,74.513,0,74.513,0l15.722-125.994H298.968z"/>
		<path id="XMLID_826_" fill="#FFC8AC" d="M530.272,601.541L518.1,707.234c0,0,22.461,4.805,33.985,9.615
			c11.519,4.813,8.704,10.686-42.554,10.686c-51.259,0-74.512,0-74.512,0l-15.727-125.994H530.272z"/>
		<path id="XMLID_362_" fill="#0880A5" d="M298.956,601.537c0,37.785,12.176,105.697,12.176,105.697s-22.464,4.805-33.985,9.615
			c-11.521,4.813-8.706,10.686,42.553,10.686c51.256,0,74.511,0,74.511,0l15.721-125.998
			C409.932,601.537,298.956,563.754,298.956,601.537z"/>
		<path id="XMLID_299_" fill="#0E547A" d="M406.305,630.643c-9.124-1.014-23.982-4.902-23.982-4.902l-8.625,81.494h23.048
			L406.305,630.643z"/>
		<path id="XMLID_231_" fill="#0880A5" d="M530.264,601.537c0,37.785-12.178,105.697-12.178,105.697s22.466,4.805,33.984,9.615
			c11.523,4.813,8.706,10.686-42.553,10.686s-74.513,0-74.513,0l-15.723-125.998C419.282,601.537,530.264,563.754,530.264,601.537z"
			/>
		<path id="XMLID_367_" fill="#0880A5" d="M400.005,608.336h29.429v21.352c-9.813,1.918-19.62,1.918-29.429,0V608.336z"/>
		<path id="XMLID_823_" fill="#002030" d="M435.015,727.535c0,0,23.258,0,74.517,0c51.258,0,54.072-5.873,42.554-10.686
			c-11.524-4.811-33.985-9.615-33.985-9.615h-85.615L435.015,727.535z"/>
		<path id="XMLID_822_" fill="#002030" d="M311.143,707.234c0,0-22.464,4.805-33.985,9.615
			c-11.522,4.813-8.706,10.686,42.553,10.686c51.259,0,74.513,0,74.513,0l2.533-20.301H311.143z"/>
		<path id="XMLID_820_" fill="#4477BB" d="M368.049,431.4c-8.067-6.619-28.036-8.863-59.37,14.109s-40.827,30.523-40.827,30.523
			s9.305,28.566,54.211,38.717L368.049,431.4z"/>
		<path id="XMLID_818_" fill="#4477BB" d="M460.879,431.4c8.07-6.619,28.039-8.863,59.374,14.109
			c31.332,22.973,40.825,30.523,40.825,30.523s-9.305,28.566-54.21,38.717L460.879,431.4z"/>
		<path id="XMLID_817_" fill="#FFC8AC" d="M396.194,402.751c45.134,0,97.792-3.899,130.034-25.725
			c32.241-21.825,35.463-77.951,16.121-133.296c-19.347-55.345-93.496-67.817-146.155-67.817
			c-52.659,0-126.811,12.472-146.155,67.817c-19.343,55.345-16.121,111.471,16.121,133.296
			C298.4,398.852,351.059,402.751,396.194,402.751z"/>
		<path id="XMLID_390_" fill="#AA5E5E" d="M545.712,254.135c0,0-36.511-15.641-39.329-53.32
			c-39.789-27.183-114.212-17.492-134.219-11.201c-20.294,6.38-37.859,16.643-54.578,26.957
			c-31.206,19.255-67.185,43.292-111.545,32.573c-27.331-6.601-47.983-26.714-46.643-47.593
			c0.762-11.806,13.081-8.545,24.308-12.252c12.646-4.176,29.941-9.463,39.244-16.694c76.977-59.815,115.669-72.551,225.78-63.006
			c30.88,2.676,71.195,17.288,91.69,40.078C568.19,180.561,564.642,220.993,545.712,254.135z"/>
		<ellipse id="XMLID_793_" fill="#FCA39A" cx="277.156" cy="342.715" rx="32.422" ry="23.518"/>
		<path id="XMLID_792_" fill="#FCA39A" d="M475.574,342.715c0-12.989,14.516-23.518,32.419-23.518
			c17.91,0,32.426,10.529,32.426,23.518c0,12.987-14.516,23.516-32.426,23.516C490.09,366.23,475.574,355.702,475.574,342.715z"/>
		<path id="XMLID_816_" fill="#FCA39A" d="M388.436,330.146c-11.788-0.29-22.443,5.138-22.374,7.679
			c0.162,5.941,41.94,7.155,41.492,0C407.301,333.83,398.556,330.393,388.436,330.146z"/>
		<g id="XMLID_814_">
			<path id="XMLID_815_" fill="#9E5147" d="M364.995,339.423c7.409-4.025,12.796-8.034,22.896-8.06
				c9.301-0.023,14.249,3.6,19.332,8.619c0.874,0.863,3.125,0.896,2.896-0.458c-2.566-15.199-40.154-13.781-45.555-0.54
				C364.494,339.156,364.641,339.615,364.995,339.423L364.995,339.423z"/>
		</g>
		<g id="XMLID_812_">
			<path id="XMLID_813_" fill="#9E5147" d="M353.929,365.338c27.151,11.697,72.074,6.648,93.205-10.014
				c2.259-1.78-2.636-3.487-4.635-1.908c-21.254,16.823-60.684,18.449-88.236,10.316
				C352.733,363.281,352.967,364.921,353.929,365.338L353.929,365.338z"/>
		</g>
		<g id="XMLID_810_">
			<path id="XMLID_811_" fill="#9E5147" d="M442.15,347.729c-2.64,1.957,0.069,5.474,2.238,6.938
				c2.487,1.683,6.834,3.272,10.306,2.397c1.182-0.297,2.453-1.336,1.154-2.169c-1.02-0.655-3.519-0.085-4.846-0.287
				c-4.849-0.737-6.272-3.657-7.78-6.641C443.043,347.614,442.526,347.451,442.15,347.729L442.15,347.729z"/>
		</g>
		<g id="XMLID_804_">
			<path id="XMLID_809_" fill="#FFFFFF" d="M473.959,264.019c-15.591-0.035-38.543,6.766-45.174,23.021
				c-8.066,19.771,8.658,38.972,45.174,38.034c39.181-1.005,53.042-17.893,48.842-33.569
				C518.305,274.716,501.297,264.081,473.959,264.019z"/>
			<g id="XMLID_807_">
				<path id="XMLID_808_" fill="#002030" d="M428.157,290.521c7.284-15.943,32.384-25.792,54.736-22.525
					c9.053,1.322,18.801,4.936,24.794,10.11c6.697,5.783,7.649,13.296,13.935,19.06c0.997,0.914,3.596,1.465,4.511,0.169
					c5.846-8.284-3.276-19.077-11.429-25.052c-8.499-6.225-21.226-10.389-33.166-11.393c-12.185-1.022-25.695,0.945-36.099,5.758
					c-12.516,5.791-16.098,13.344-18.284,23.605C427.032,290.834,427.852,291.186,428.157,290.521L428.157,290.521z"/>
			</g>
			<path id="XMLID_806_" fill="#19313A" d="M431.433,299.601c0-14.084,15.741-25.502,35.161-25.502
				c19.414,0,35.155,11.418,35.155,25.502c0,14.085-15.741,25.501-35.155,25.501C447.174,325.103,431.433,313.686,431.433,299.601z"
				/>
			<ellipse id="XMLID_805_" fill="#FFFFFF" cx="450.798" cy="297.284" rx="11.239" ry="8.151"/>
		</g>
		<g id="XMLID_798_">
			<path id="XMLID_803_" fill="#FFFFFF" d="M312.344,264.019c15.588-0.035,38.543,6.766,45.174,23.021
				c8.065,19.771-8.659,38.972-45.174,38.034c-39.184-1.005-53.041-17.893-48.844-33.569
				C267.995,274.716,285.006,264.081,312.344,264.019z"/>
			<g id="XMLID_801_">
				<path id="XMLID_802_" fill="#002030" d="M359.135,290.053c-2.355-10.618-8.367-18.911-21.668-24.448
					c-12.363-5.148-28.063-6.305-41.65-3.37c-9.6,2.072-19.423,5.969-26.029,11.514c-6.675,5.603-15.878,15.724-9.334,22.899
					c1.063,1.165,3.691,2.227,5.046,0.687c4.229-4.815,5.27-10.533,9.428-15.432c4.63-5.458,11.109-9.056,19.13-11.654
					c24.635-7.98,55.688,1.276,64.05,20.315C358.452,291.346,359.25,290.567,359.135,290.053L359.135,290.053z"/>
			</g>
			<ellipse id="XMLID_800_" fill="#19313A" cx="319.711" cy="299.601" rx="35.159" ry="25.502"/>
			<ellipse id="XMLID_799_" fill="#FFFFFF" cx="302.985" cy="297.284" rx="11.239" ry="8.151"/>
		</g>
		<g id="XMLID_796_">
			<path id="XMLID_797_" fill="#7A4141" d="M506.073,252.048c0.255-0.543,0.406-1.083,0.237-1.641
				c-0.86-2.859-3.06-4.965-5.737-7.103c-3.604-2.876-8.083-5.181-12.739-7.076c-9.075-3.689-19.586-5.56-29.986-5.154
				c-1.964,0.075-3.981,0.242-5.71,0.917c-2.241,0.876-3.796,2.616-3.983,4.46c-0.349,3.407,3.421,4.997,7.557,5.451
				c3.129,0.343,6.259,0.687,9.387,1.03c2.291,0.252,4.588,0.503,6.857,0.837c7.607,1.115,14.96,3.144,21.66,5.981
				c2.778,1.172,5.518,2.506,8.66,2.987C503.383,252.907,505.542,253.066,506.073,252.048z"/>
		</g>
		<g id="XMLID_794_">
			<path id="XMLID_795_" fill="#7A4141" d="M279.44,249.558c-0.199-0.558-0.291-1.104-0.064-1.649
				c1.165-2.803,3.582-4.782,6.478-6.761c3.9-2.666,8.607-4.713,13.452-6.341c9.442-3.172,20.119-4.447,30.449-3.46
				c1.949,0.186,3.938,0.464,5.593,1.233c2.143,1,3.508,2.822,3.5,4.669c-0.016,3.417-3.944,4.791-8.115,5.012
				c-3.157,0.168-6.313,0.335-9.47,0.503c-2.313,0.123-4.624,0.246-6.925,0.45c-7.705,0.684-15.248,2.297-22.233,4.75
				c-2.891,1.015-5.766,2.19-8.95,2.493C282.032,250.564,279.861,250.602,279.44,249.558z"/>
		</g>
		<path id="XMLID_788_" fill="#FFC8AC" d="M550.995,275.704c5.206-12.012,28.002-28.918,54.347-21.569
			c26.346,7.352,32.42,36.014,17.731,57.327c-14.692,21.313-54.776,29.119-69.69,13.641L550.995,275.704z"/>
		<path id="XMLID_787_" fill="#9E5147" d="M549.504,290.73c-0.319,0.71,1.012,2.232,2.169,1.681c4.967-2.37,8.514-5.816,13.7-7.945
			c5.613-2.303,11.804-2.965,18.043-2.479c2.91,2.92,5.512,5.164,4.899,9.642c-0.532,3.883-2.814,8.178-6.52,11.044
			c-2.914,2.249-7.31,2.909-10.883,4.439c-0.27,0.118-0.554,0.742-0.096,0.823c16.936,2.999,28.294-14.095,23.083-23.997
			c9.552,2.923,17.468,8.732,16.953,16.848c-0.022,0.381,0.531,0.296,0.684,0.02C625.466,275.357,560.506,266.392,549.504,290.73z"
			/>
		<path id="XMLID_785_" fill="#AA5E5E" d="M585.466,252.863c-6.048,31.644-34.96,49.026-39.754,43.076
			c-4.789-5.95,2.333-33.407,0-41.805L585.466,252.863"/>
		<path id="XMLID_178_" fill="#9DD7F0" d="M502.152,494.992c-15.965-37.9-35.019-51.279-41.281-63.596l0,0
			c-0.15,0.289-7.736,14.389-46.419,14.389c-38.65,0-46.252-14.076-46.412-14.385c-6.266,12.316-25.321,25.695-41.284,63.592
			c-21.544,51.143-27.8,79.211-27.8,106.545c0,0,45.065,10.895,115.497,10.895c70.436,0,115.501-10.895,115.501-10.895
			C529.953,573.693,523.698,546.135,502.152,494.992z"/>
	</g>
</g>
</svg>
