<?xml version="1.0" encoding="utf-8"?>
<!-- Generator: Adobe Illustrator 16.0.0, SVG Export Plug-In . SVG Version: 6.00 Build 0)  -->
<!DOCTYPE svg PUBLIC "-//W3C//DTD SVG 1.1//EN" "http://www.w3.org/Graphics/SVG/1.1/DTD/svg11.dtd">
<svg version="1.1" id="Capa_1" xmlns="http://www.w3.org/2000/svg" xmlns:xlink="http://www.w3.org/1999/xlink" x="0px" y="0px"
	 width="800px" height="800px" viewBox="0 0 800 800" enable-background="new 0 0 800 800" xml:space="preserve">
<g>
	<g id="XMLID_704_">
		<path id="XMLID_699_" fill="#BDD5DB" d="M313.178,557.282c0-7.427,40.112-13.448,89.594-13.448s89.594,6.021,89.594,13.448
			c0,7.431-40.112,13.449-89.594,13.449S313.178,564.713,313.178,557.282z"/>
		<g id="XMLID_780_">
			<path id="XMLID_829_" fill="#FFC8AC" d="M435.909,411.725c-7.057-27.379-15.719-34.034-16.36-43.161
				c-0.6-8.527-0.767-18.063-0.767-18.063h-32.011c0,0-0.168,9.537-0.768,18.063c-0.641,9.126-9.303,15.781-16.359,43.161
				c-8.139,31.578-10.503,65.791-10.503,65.791s17.025,6.724,43.635,6.724c26.61,0,43.636-6.724,43.636-6.724
				S444.048,443.303,435.909,411.725z"/>
			<path id="XMLID_394_" fill="#AA5E5E" d="M458.345,227.067c0,0,19.852-2.415,19.62,34.83c-0.267,42.839-10.563,68.198-30.483,73.7
				C427.56,341.098,458.345,227.067,458.345,227.067z"/>
			<g id="XMLID_395_">
				<path id="XMLID_396_" fill="#AA5E5E" d="M458.212,205.528c2.557,2.53,2.868,9.244,2.537,12.676
					c-0.344,3.578-1.617,5.371-3.541,8.083c-0.968,1.365-1.083,1.178-1.566,2.8c-0.209,0.705,0.686,1.215,1.145,1.029
					c5.399-2.176,6.963-10.81,5.985-16.643c-0.482-2.88-1.62-7.854-4.441-8.632C458.039,204.762,458.069,205.385,458.212,205.528
					L458.212,205.528z"/>
			</g>
			<path id="XMLID_389_" fill="#AA5E5E" d="M471.623,226.635c-1.602-5.677-12.02-2.841-14.319,0.344
				c-0.356,0.493-0.967,1.461-0.772,2.154c0.642,2.324,4.301-0.71,4.999-1.027c2.371-1.08,7.42-2.632,9.846-1.065
				C471.586,227.176,471.677,226.822,471.623,226.635z"/>
			<path id="XMLID_402_" fill="#FFC8AC" d="M385.331,373.361c-5.121-2.645-13.969,0.828-30.043,22.191
				c-4.633,6.157-9.168,12.421-13.598,18.784c-3.309,4.756-6.562,9.566-9.734,14.449c-1.166,1.793-2.27,3.719-3.732,5.202
				c-1.649,1.672-3.802,2.315-5.85,2.967c-1.283,0.407-2.879,0.664-3.854,1.84c-1.013,1.225-0.517,3.045,0.768,3.646
				c1.38,0.647,3.09,0.22,4.541,0.354c0.245,0.021,0.485,0.118,0.634,0.346c0.229,0.349-0.009,0.869-0.16,1.134
				c-0.971,1.704-1.579,2.563-2.16,3.561c-0.944,1.623-3.651,5.161-2.463,7.29c0.465,0.832,1.719,1.118,2.35,0.758
				c1.017-0.584,1.929-1.394,2.768-2.285c0.422-0.448,0.828-0.919,1.226-1.398c0.322-0.39,0.763-1.103,1.292-1.029
				c0.445,0.062,0.436,0.722,0.366,1.103c-0.08,0.442-0.263,0.853-0.446,1.246c-0.697,1.487-1.507,2.956-2.029,4.54
				c-0.254,0.771-0.487,1.562-0.547,2.385c-0.046,0.642,0.035,1.349,0.419,1.804c0.279,0.327,0.679,0.479,1.072,0.512
				c0.878,0.076,1.742-0.373,2.431-1.023c0.862-0.813,1.548-1.843,2.22-2.868c0.702-1.07,1.399-2.146,2.135-3.186
				c0.157-0.221,0.345-0.458,0.59-0.475c0.263-0.019,0.496,0.248,0.573,0.547c0.078,0.301,0.034,0.625-0.023,0.933
				c-0.155,0.823-0.47,1.508-0.733,2.279c-0.273,0.801-0.509,1.616-0.71,2.449c-0.218,0.896-0.41,1.889-0.11,2.754
				c0.55,1.595,2.126,1.901,3.311,0.869c1.171-1.023,3.727-6.873,4.142-7.774c2.555-5.561,5.862-10.556,8.964-15.711
				c4.895-8.132,16.335-24.214,20.799-28.906L385.331,373.361z"/>
			<path id="XMLID_400_" fill="#FFC8AC" d="M420.413,373.361c5.121-2.645,13.968,0.828,30.042,22.191
				c4.634,6.157,9.169,12.421,13.599,18.784c3.31,4.756,6.562,9.566,9.733,14.449c1.167,1.793,2.271,3.719,3.733,5.202
				c1.648,1.672,3.802,2.315,5.849,2.967c1.283,0.407,2.879,0.664,3.854,1.84c1.014,1.225,0.517,3.045-0.768,3.646
				c-1.381,0.647-3.088,0.22-4.539,0.354c-0.244,0.021-0.484,0.118-0.635,0.346c-0.229,0.349,0.01,0.869,0.159,1.134
				c0.973,1.704,1.579,2.563,2.16,3.561c0.944,1.623,3.649,5.161,2.464,7.29c-0.466,0.832-1.722,1.118-2.35,0.758
				c-1.018-0.584-1.93-1.394-2.767-2.285c-0.425-0.448-0.829-0.919-1.229-1.398c-0.32-0.39-0.762-1.103-1.29-1.029
				c-0.446,0.062-0.436,0.722-0.366,1.103c0.079,0.442,0.262,0.853,0.445,1.246c0.696,1.487,1.506,2.956,2.029,4.54
				c0.254,0.771,0.487,1.562,0.548,2.385c0.046,0.642-0.036,1.349-0.42,1.804c-0.278,0.327-0.68,0.479-1.071,0.512
				c-0.879,0.076-1.744-0.373-2.433-1.023c-0.861-0.813-1.548-1.843-2.221-2.868c-0.699-1.07-1.397-2.146-2.135-3.186
				c-0.156-0.221-0.343-0.458-0.589-0.475c-0.264-0.019-0.495,0.248-0.573,0.547c-0.078,0.301-0.035,0.625,0.024,0.933
				c0.153,0.823,0.468,1.508,0.732,2.279c0.271,0.801,0.51,1.616,0.711,2.449c0.216,0.896,0.407,1.889,0.108,2.754
				c-0.55,1.595-2.126,1.901-3.312,0.869c-1.17-1.023-3.726-6.873-4.141-7.774c-2.557-5.561-5.253-11.105-8.356-16.258
				c-8.273-13.729-16.944-23.667-21.408-28.359L420.413,373.361z"/>
			<path id="XMLID_828_" fill="#F49282" d="M418.884,350.5h-32.112c0,0-0.137,7.708-0.601,15.46c3.287,0.22,6.543,0.304,9.703,0.304
				c7.548,0,17.92-3.083,23.197-6.51C418.782,352.749,418.884,350.5,418.884,350.5z"/>
			<path id="XMLID_827_" fill="#FFC8AC" d="M359.142,477.516l4.6,65.262c0,0-8.486,2.968-12.839,5.938
				c-4.353,2.971-3.289,6.598,16.077,6.598s28.15,0,28.15,0l5.94-77.797H359.142z"/>
			<path id="XMLID_826_" fill="#FFC8AC" d="M446.527,477.516l-4.599,65.262c0,0,8.485,2.968,12.839,5.938
				c4.352,2.971,3.289,6.598-16.076,6.598s-28.15,0-28.15,0l-5.941-77.797H446.527z"/>
			<path id="XMLID_362_" fill="#0880A5" d="M359.137,477.514c0,23.331,4.6,65.264,4.6,65.264s-8.487,2.968-12.839,5.938
				c-4.353,2.971-3.289,6.598,16.076,6.598c19.365,0,28.15,0,28.15,0l5.939-77.799C401.063,477.514,359.137,454.183,359.137,477.514
				z"/>
			<path id="XMLID_299_" fill="#0E547A" d="M399.693,495.483c-3.447-0.627-9.061-3.025-9.061-3.025l-3.258,50.319h8.708
				L399.693,495.483z"/>
			<path id="XMLID_231_" fill="#0880A5" d="M446.523,477.514c0,23.331-4.6,65.264-4.6,65.264s8.487,2.968,12.839,5.938
				c4.354,2.971,3.289,6.598-16.076,6.598s-28.15,0-28.15,0l-5.94-77.799C404.596,477.514,446.523,454.183,446.523,477.514z"/>
			<path id="XMLID_367_" fill="#0880A5" d="M397.313,481.712h11.118v13.183c-3.707,1.184-7.412,1.184-11.118,0V481.712z"/>
			<path id="XMLID_823_" fill="#002030" d="M410.539,555.313c0,0,8.787,0,28.152,0s20.428-3.627,16.076-6.598
				c-4.354-2.97-12.839-5.938-12.839-5.938h-32.345L410.539,555.313z"/>
			<path id="XMLID_822_" fill="#002030" d="M363.741,542.777c0,0-8.486,2.968-12.839,5.938c-4.353,2.971-3.289,6.598,16.077,6.598
				s28.15,0,28.15,0l0.958-12.535H363.741z"/>
			<path id="XMLID_820_" fill="#4477BB" d="M385.24,372.458c-3.048-4.088-10.592-5.473-22.429,8.712
				c-11.838,14.185-15.424,18.848-15.424,18.848s3.515,17.639,20.481,23.907L385.24,372.458z"/>
			<path id="XMLID_818_" fill="#4477BB" d="M420.312,372.458c3.048-4.088,10.592-5.473,22.431,8.712
				c11.837,14.185,15.423,18.848,15.423,18.848s-3.515,17.639-20.479,23.907L420.312,372.458z"/>
			<path id="XMLID_817_" fill="#FFC8AC" d="M395.874,354.768c17.05,0,36.945-2.407,49.125-15.884
				c12.181-13.477,13.398-48.133,6.091-82.307c-7.309-34.174-35.322-41.875-55.216-41.875c-19.895,0-47.909,7.701-55.216,41.875
				c-7.308,34.173-6.091,68.83,6.09,82.307C358.927,352.36,378.822,354.768,395.874,354.768z"/>
			<path id="XMLID_390_" fill="#AA5E5E" d="M452.36,263.001c0,0-13.794-9.658-14.857-32.924
				c-15.033-16.785-43.149-10.801-50.708-6.916c-7.666,3.939-14.302,10.276-20.619,16.646c-11.79,11.89-25.382,26.731-42.142,20.113
				c-10.325-4.076-18.128-16.496-17.622-29.388c0.288-7.29,4.942-5.277,9.184-7.565c4.778-2.578,11.311-5.843,14.826-10.308
				c29.082-36.935,43.7-44.798,85.299-38.904c11.666,1.652,26.897,10.674,34.641,24.747
				C460.854,217.571,459.512,242.536,452.36,263.001z"/>
			<ellipse id="XMLID_793_" fill="#FCA39A" cx="350.902" cy="317.696" rx="12.249" ry="14.521"/>
			<ellipse id="XMLID_792_" fill="#FCA39A" cx="438.112" cy="317.696" rx="12.25" ry="14.521"/>
			<path id="XMLID_816_" fill="#FCA39A" d="M392.942,309.935c-4.454-0.178-8.479,3.172-8.453,4.743
				c0.061,3.668,15.845,4.417,15.676,0C400.07,312.211,396.766,310.088,392.942,309.935z"/>
			<g id="XMLID_814_">
				<path id="XMLID_815_" fill="#9E5147" d="M384.086,315.664c2.799-2.485,4.834-4.96,8.65-4.977
					c3.514-0.014,5.383,2.224,7.304,5.322c0.33,0.533,1.18,0.554,1.094-0.282c-0.97-9.385-15.17-8.51-17.211-0.334
					C383.897,315.499,383.953,315.783,384.086,315.664L384.086,315.664z"/>
			</g>
			<g id="XMLID_812_">
				<path id="XMLID_813_" fill="#9E5147" d="M379.906,331.666c10.258,7.223,27.229,4.105,35.211-6.184
					c0.854-1.099-0.995-2.153-1.75-1.178c-8.029,10.388-22.926,11.392-33.335,6.37C379.454,330.396,379.542,331.409,379.906,331.666
					L379.906,331.666z"/>
			</g>
			<g id="XMLID_810_">
				<path id="XMLID_811_" fill="#9E5147" d="M413.236,320.793c-0.998,1.208,0.025,3.38,0.845,4.284
					c0.94,1.039,2.581,2.02,3.894,1.48c0.445-0.185,0.926-0.826,0.436-1.34c-0.386-0.404-1.329-0.052-1.83-0.177
					c-1.832-0.455-2.369-2.258-2.939-4.101C413.572,320.722,413.377,320.622,413.236,320.793L413.236,320.793z"/>
			</g>
			<g id="XMLID_804_">
				<path id="XMLID_809_" fill="#FFFFFF" d="M425.253,269.104c-5.891-0.021-14.562,4.178-17.067,14.214
					c-3.047,12.208,3.272,24.064,17.067,23.486c14.802-0.621,20.038-11.049,18.452-20.728
					C442.006,275.709,435.581,269.143,425.253,269.104z"/>
				<g id="XMLID_807_">
					<path id="XMLID_808_" fill="#002030" d="M407.949,285.468c2.751-9.845,12.234-15.926,20.679-13.909
						c3.42,0.816,7.104,3.048,9.366,6.243c2.531,3.57,2.891,8.21,5.266,11.768c0.376,0.565,1.357,0.905,1.703,0.105
						c2.209-5.116-1.237-11.78-4.316-15.47c-3.212-3.843-8.02-6.415-12.53-7.035c-4.604-0.631-9.708,0.584-13.638,3.556
						c-4.729,3.575-6.082,8.24-6.908,14.576C407.523,285.662,407.833,285.879,407.949,285.468L407.949,285.468z"/>
				</g>
				<ellipse id="XMLID_806_" fill="#19313A" cx="422.469" cy="291.075" rx="13.283" ry="15.747"/>
				<ellipse id="XMLID_805_" fill="#FFFFFF" cx="416.502" cy="289.644" rx="4.247" ry="5.033"/>
			</g>
			<g id="XMLID_798_">
				<path id="XMLID_803_" fill="#FFFFFF" d="M364.195,269.104c5.889-0.021,14.562,4.178,17.067,14.214
					c3.047,12.208-3.272,24.064-17.067,23.486c-14.803-0.621-20.038-11.049-18.453-20.728
					C347.44,275.709,353.867,269.143,364.195,269.104z"/>
				<g id="XMLID_801_">
					<path id="XMLID_802_" fill="#002030" d="M381.873,285.179c-0.89-6.556-3.161-11.676-8.186-15.096
						c-4.671-3.179-10.603-3.893-15.735-2.08c-3.627,1.279-7.338,3.686-9.834,7.109c-2.521,3.459-5.999,9.708-3.526,14.139
						c0.402,0.719,1.395,1.375,1.907,0.424c1.597-2.973,1.99-6.504,3.562-9.529c1.749-3.37,4.197-5.591,7.228-7.196
						c9.307-4.927,21.038,0.788,24.197,12.545C381.614,285.977,381.916,285.497,381.873,285.179L381.873,285.179z"/>
				</g>
				<ellipse id="XMLID_800_" fill="#19313A" cx="366.978" cy="291.075" rx="13.282" ry="15.747"/>
				<ellipse id="XMLID_799_" fill="#FFFFFF" cx="360.659" cy="289.644" rx="4.246" ry="5.033"/>
			</g>
			<g id="XMLID_796_">
				<path id="XMLID_797_" fill="#7A4141" d="M437.385,261.712c0.097-0.336,0.154-0.669,0.09-1.014
					c-0.324-1.765-1.156-3.065-2.167-4.385c-1.362-1.776-3.054-3.2-4.813-4.369c-3.429-2.279-7.398-3.433-11.328-3.183
					c-0.742,0.047-1.505,0.15-2.157,0.566c-0.847,0.541-1.435,1.616-1.506,2.753c-0.131,2.104,1.293,3.086,2.855,3.366
					c1.182,0.212,2.364,0.424,3.547,0.637c0.865,0.156,1.732,0.311,2.59,0.516c2.874,0.689,5.651,1.941,8.184,3.693
					c1.049,0.724,2.085,1.548,3.271,1.845C436.369,262.243,437.185,262.341,437.385,261.712z"/>
			</g>
			<g id="XMLID_794_">
				<path id="XMLID_795_" fill="#7A4141" d="M351.765,260.174c-0.075-0.344-0.109-0.681-0.024-1.018
					c0.44-1.73,1.354-2.952,2.447-4.175c1.473-1.646,3.251-2.911,5.082-3.915c3.567-1.959,7.601-2.746,11.503-2.137
					c0.737,0.114,1.489,0.287,2.113,0.762c0.81,0.619,1.325,1.743,1.322,2.883c-0.006,2.11-1.49,2.958-3.066,3.095
					c-1.193,0.104-2.385,0.207-3.578,0.311c-0.874,0.076-1.748,0.151-2.617,0.277c-2.91,0.423-5.76,1.419-8.399,2.933
					c-1.092,0.627-2.178,1.353-3.381,1.54C352.744,260.796,351.924,260.819,351.765,260.174z"/>
			</g>
			<path id="XMLID_788_" fill="#FFC8AC" d="M454.356,276.319c1.967-7.417,10.578-17.856,20.532-13.318
				c9.953,4.539,12.248,22.238,6.699,35.398c-5.552,13.16-20.695,17.98-26.329,8.423L454.356,276.319z"/>
			<path id="XMLID_787_" fill="#9E5147" d="M453.793,285.598c-0.121,0.438,0.382,1.378,0.818,1.037
				c1.878-1.463,3.217-3.591,5.177-4.906c2.12-1.422,4.459-1.831,6.816-1.53c1.1,1.803,2.083,3.188,1.851,5.954
				c-0.2,2.397-1.063,5.05-2.462,6.819c-1.102,1.389-2.762,1.797-4.112,2.742c-0.102,0.073-0.209,0.458-0.036,0.508
				c6.397,1.852,10.689-8.704,8.722-14.818c3.607,1.806,6.598,5.392,6.404,10.404c-0.009,0.235,0.2,0.183,0.258,0.012
				C482.49,276.105,457.949,270.57,453.793,285.598z"/>
			<path id="XMLID_785_" fill="#AA5E5E" d="M467.379,262.215c-2.285,19.54-13.207,30.273-15.019,26.599
				c-1.81-3.673,0.881-20.628,0-25.813L467.379,262.215"/>
			<path id="XMLID_178_" fill="#9DD7F0" d="M435.903,411.725c-6.031-23.402-13.229-31.664-15.596-39.269l0,0
				c-0.058,0.178-2.922,8.883-17.536,8.883c-14.602,0-17.474-8.691-17.534-8.882c-2.368,7.606-9.566,15.867-15.597,39.267
				c-8.139,31.578-10.503,48.91-10.503,65.789c0,0,17.025,6.726,43.634,6.726c26.609,0,43.635-6.726,43.635-6.726
				C446.406,460.32,444.044,443.303,435.903,411.725z"/>
		</g>
	</g>
	<g id="XMLID_706_">
		<ellipse id="XMLID_703_" fill="#BDD5DB" cx="198.774" cy="560.701" rx="89.594" ry="13.449"/>
		<g id="XMLID_493_">
			<path id="XMLID_543_" fill="#FFC8AC" d="M232.497,413.996c-7.057-27.382-15.717-34.035-16.36-43.163
				c-0.598-8.527-0.768-18.063-0.768-18.063h-32.01c0,0-0.168,9.536-0.768,18.063c-0.641,9.127-9.302,15.781-16.359,43.163
				c-8.139,31.577-10.503,65.788-10.503,65.788s17.025,6.724,43.636,6.724c26.609,0,43.634-6.724,43.634-6.724
				S240.637,445.573,232.497,413.996z"/>
			<path id="XMLID_687_" fill="#CC5440" d="M252.199,216.971c0,0,11.511,2.703,16.792,21.076
				c5.284,18.373,10.987,87.605-27.403,103.106L252.199,216.971z"/>
			<g id="XMLID_694_">
				<path id="XMLID_695_" fill="#CC5440" d="M251.773,196.124c2.557,2.53,2.868,9.245,2.537,12.676
					c-0.344,3.578-1.618,5.37-3.541,8.083c-0.968,1.367-1.083,1.179-1.564,2.801c-0.211,0.705,0.683,1.215,1.142,1.029
					c5.397-2.176,6.963-10.81,5.985-16.644c-0.482-2.88-1.621-7.853-4.442-8.63C251.601,195.359,251.63,195.98,251.773,196.124
					L251.773,196.124z"/>
			</g>
			<path id="XMLID_693_" fill="#CC5440" d="M265.186,217.231c-1.603-5.677-12.022-2.842-14.321,0.344
				c-0.356,0.492-0.965,1.46-0.772,2.155c0.644,2.323,4.302-0.711,5-1.029c2.371-1.08,7.419-2.632,9.848-1.065
				C265.147,217.772,265.237,217.42,265.186,217.231z"/>
			<path id="XMLID_685_" fill="#CC5440" d="M252.199,216.971c0,0,0.579-30.616-36.444-40.115
				c-40.095-10.284-70.277,4.11-89.493,33.449c-15.489,23.646-19.851,78.25,6.712,79.929
				C159.538,291.914,252.199,216.971,252.199,216.971z"/>
			<path id="XMLID_542_" fill="#CC5440" d="M241.587,341.153c8.658-7.609,22.49-17.247,22.381-76.668h-17.02L241.587,341.153z"/>
			<path id="XMLID_541_" fill="#F49282" d="M215.471,352.771h-32.112c0,0-0.137,7.708-0.6,15.461
				c3.287,0.219,6.543,0.303,9.702,0.303c7.551,0,17.92-3.084,23.199-6.51C215.369,355.02,215.471,352.771,215.471,352.771z"/>
			<path id="XMLID_540_" fill="#FFC8AC" d="M155.729,479.784l4.601,65.264c0,0-8.487,2.969-12.84,5.938
				c-4.353,2.968-3.288,6.597,16.077,6.597c19.365,0,28.151,0,28.151,0l5.94-77.799H155.729z"/>
			<path id="XMLID_539_" fill="#FFC8AC" d="M243.117,479.784l-4.601,65.264c0,0,8.488,2.969,12.84,5.938
				c4.354,2.968,3.289,6.597-16.077,6.597c-19.363,0-28.15,0-28.15,0l-5.94-77.799H243.117z"/>
			<path id="XMLID_546_" fill="#9DD7F0" d="M155.725,479.784c0,10.164,0.874,23.859,1.86,36.08h37.313l2.755-36.08
				C197.653,479.784,155.725,456.453,155.725,479.784z"/>
			<path id="XMLID_545_" opacity="0.5" fill="#588BC8" d="M194.898,515.864l1.383-18.109c-3.447-0.627-9.061-3.026-9.061-3.026
				l-1.368,21.136H194.898z"/>
			<path id="XMLID_547_" fill="#9DD7F0" d="M201.184,479.784l2.755,36.08h37.313c0.987-12.221,1.86-25.916,1.86-36.08
				C243.112,456.453,201.184,479.784,201.184,479.784z"/>
			<path id="XMLID_538_" fill="#FFC8AC" d="M181.918,375.63c-5.121-2.643-13.968,0.83-30.042,22.192
				c-4.634,6.158-9.168,12.42-13.599,18.786c-3.309,4.753-6.561,9.564-9.733,14.446c-1.166,1.795-2.271,3.719-3.733,5.202
				c-1.647,1.673-3.802,2.317-5.848,2.968c-1.283,0.409-2.88,0.663-3.854,1.842c-1.014,1.223-0.517,3.044,0.768,3.646
				c1.381,0.647,3.089,0.219,4.541,0.351c0.244,0.022,0.484,0.118,0.635,0.348c0.228,0.349-0.011,0.867-0.161,1.132
				c-0.972,1.704-1.579,2.563-2.159,3.562c-0.944,1.622-3.652,5.162-2.464,7.289c0.466,0.834,1.721,1.121,2.35,0.76
				c1.018-0.583,1.93-1.394,2.768-2.284c0.422-0.45,0.828-0.923,1.226-1.4c0.323-0.39,0.763-1.102,1.292-1.027
				c0.446,0.062,0.436,0.719,0.366,1.103c-0.08,0.441-0.262,0.852-0.446,1.243c-0.697,1.487-1.505,2.956-2.029,4.542
				c-0.254,0.771-0.487,1.56-0.547,2.383c-0.047,0.642,0.035,1.349,0.42,1.804c0.278,0.33,0.679,0.479,1.072,0.514
				c0.877,0.074,1.741-0.375,2.431-1.023c0.861-0.814,1.548-1.845,2.219-2.868c0.702-1.07,1.4-2.148,2.135-3.186
				c0.159-0.221,0.345-0.458,0.59-0.475c0.264-0.018,0.496,0.246,0.574,0.547c0.078,0.3,0.035,0.623-0.023,0.931
				c-0.155,0.823-0.469,1.508-0.732,2.279c-0.272,0.803-0.51,1.619-0.71,2.449c-0.218,0.899-0.41,1.89-0.11,2.756
				c0.55,1.592,2.126,1.898,3.312,0.867c1.17-1.022,3.726-6.87,4.142-7.774c2.555-5.561,5.862-10.555,8.964-15.71
				c4.894-8.131,16.335-24.213,20.799-28.906L181.918,375.63z"/>
			<path id="XMLID_537_" fill="#FFC8AC" d="M217.001,375.63c5.122-2.643,13.968,0.83,30.044,22.192
				c4.632,6.158,9.167,12.42,13.599,18.786c3.308,4.753,6.56,9.564,9.733,14.446c1.165,1.795,2.271,3.719,3.733,5.202
				c1.647,1.673,3.802,2.317,5.848,2.968c1.283,0.409,2.879,0.663,3.854,1.842c1.012,1.223,0.515,3.044-0.768,3.646
				c-1.381,0.647-3.09,0.219-4.542,0.351c-0.244,0.022-0.484,0.118-0.634,0.348c-0.229,0.349,0.01,0.867,0.16,1.132
				c0.972,1.704,1.58,2.563,2.16,3.562c0.944,1.622,3.651,5.162,2.463,7.289c-0.465,0.834-1.72,1.121-2.349,0.76
				c-1.019-0.583-1.929-1.394-2.769-2.284c-0.422-0.45-0.828-0.923-1.228-1.4c-0.321-0.39-0.762-1.102-1.29-1.027
				c-0.446,0.062-0.435,0.719-0.366,1.103c0.08,0.441,0.263,0.852,0.446,1.243c0.694,1.487,1.505,2.956,2.029,4.542
				c0.252,0.771,0.487,1.56,0.546,2.383c0.046,0.642-0.035,1.349-0.42,1.804c-0.279,0.33-0.68,0.479-1.072,0.514
				c-0.878,0.074-1.743-0.375-2.432-1.023c-0.861-0.814-1.549-1.845-2.219-2.868c-0.702-1.07-1.399-2.148-2.136-3.186
				c-0.155-0.221-0.344-0.458-0.587-0.475c-0.265-0.018-0.498,0.246-0.574,0.547c-0.078,0.3-0.035,0.623,0.022,0.931
				c0.155,0.823,0.47,1.508,0.732,2.279c0.273,0.803,0.51,1.619,0.71,2.449c0.218,0.899,0.409,1.89,0.111,2.756
				c-0.55,1.592-2.126,1.898-3.312,0.867c-1.172-1.022-3.726-6.87-4.141-7.774c-2.558-5.561-5.254-11.105-8.358-16.256
				c-8.271-13.731-16.944-23.667-21.406-28.36L217.001,375.63z"/>
			<path id="XMLID_533_" fill="#9DD7F0" d="M193.65,483.981h11.118v13.182c-3.705,1.187-7.413,1.187-11.118,0V483.981z"/>
			<path id="XMLID_532_" fill="#315095" d="M181.829,374.726c-3.049-4.087-10.593-5.472-22.431,8.714
				c-11.838,14.185-15.423,18.848-15.423,18.848s3.514,17.64,20.48,23.905L181.829,374.726z"/>
			<path id="XMLID_531_" fill="#315095" d="M216.901,374.726c3.048-4.087,10.592-5.472,22.429,8.714
				c11.839,14.185,15.423,18.848,15.423,18.848s-3.513,17.64-20.48,23.905L216.901,374.726z"/>
			<path id="XMLID_530_" fill="#E73555" d="M232.493,413.996c-6.032-23.403-13.231-31.664-15.596-39.27l0,0
				c-0.059,0.177-2.924,8.882-17.537,8.882c-14.603,0-17.474-8.692-17.536-8.882c-2.367,7.606-9.565,15.867-15.597,39.27
				c-8.139,31.577-10.503,48.909-10.503,65.788c0,0,17.025,6.724,43.636,6.724c26.61,0,43.634-6.724,43.634-6.724
				C242.994,462.592,240.631,445.573,232.493,413.996z"/>
			<path id="XMLID_529_" fill="#002030" d="M207.129,557.583c0,0,8.787,0,28.15,0c19.365,0,20.43-3.629,16.077-6.597
				c-4.352-2.97-12.84-5.938-12.84-5.938h-32.344L207.129,557.583z"/>
			<path id="XMLID_528_" fill="#002030" d="M160.33,545.048c0,0-8.487,2.969-12.84,5.938c-4.353,2.968-3.288,6.597,16.077,6.597
				c19.365,0,28.151,0,28.151,0l0.957-12.535H160.33z"/>
			<path id="XMLID_527_" fill="#FFC8AC" d="M192.461,357.036c17.053,0,36.947-2.406,49.126-15.883
				c12.181-13.478,13.397-48.133,6.09-82.306c-7.307-34.174-35.322-41.876-55.216-41.876s-47.908,7.702-55.216,41.876
				c-7.308,34.173-6.089,68.829,6.09,82.306C155.515,354.63,175.409,357.036,192.461,357.036z"/>
			<ellipse id="XMLID_500_" fill="#FCA39A" cx="147.49" cy="319.966" rx="12.249" ry="14.521"/>
			<ellipse id="XMLID_499_" fill="#FCA39A" cx="234.7" cy="319.966" rx="12.248" ry="14.521"/>
			<path id="XMLID_686_" fill="#CC5440" d="M229.817,228.556c0,0,2.38,26.675,8.298,35.612c5.916,8.935-26.766,7.087-34.094-23.556
				c0,0,4.861,24.513,0.132,28.232c-4.728,3.721-39.783,4.321-51.386-38.339L229.817,228.556z"/>
			<path id="XMLID_524_" fill="#FCA39A" d="M189.531,312.204c-4.454-0.178-8.479,3.174-8.454,4.743
				c0.062,3.667,15.845,4.418,15.677,0C196.659,314.48,193.354,312.358,189.531,312.204z"/>
			<g id="XMLID_522_">
				<path id="XMLID_523_" fill="#9E5147" d="M180.674,317.935c2.799-2.488,4.834-4.962,8.651-4.977
					c3.513-0.017,5.382,2.223,7.305,5.321c0.329,0.533,1.179,0.554,1.093-0.282c-0.969-9.384-15.17-8.511-17.21-0.334
					C180.485,317.769,180.542,318.052,180.674,317.935L180.674,317.935z"/>
			</g>
			<g id="XMLID_513_">
				<path id="XMLID_520_" fill="#FFFFFF" d="M221.84,271.373c-5.889-0.021-14.561,4.178-17.065,14.213
					c-3.048,12.209,3.27,24.065,17.065,23.487c14.804-0.621,20.039-11.048,18.455-20.727
					C238.594,277.979,232.168,271.412,221.84,271.373z"/>
				<g id="XMLID_518_">
					<path id="XMLID_519_" fill="#002030" d="M204.536,287.738c2.752-9.845,12.235-15.926,20.681-13.91
						c3.419,0.817,7.104,3.049,9.367,6.246c2.53,3.569,2.888,8.208,5.265,11.768c0.376,0.563,1.358,0.904,1.704,0.103
						c2.209-5.115-1.237-11.779-4.316-15.467c-3.211-3.846-8.02-6.417-12.53-7.036c-4.604-0.631-9.709,0.584-13.639,3.555
						c-4.729,3.577-6.083,8.241-6.908,14.578C204.111,287.931,204.422,288.15,204.536,287.738L204.536,287.738z"/>
				</g>
				<ellipse id="XMLID_515_" fill="#19313A" cx="219.057" cy="293.344" rx="13.283" ry="15.746"/>
				<ellipse id="XMLID_514_" fill="#FFFFFF" cx="212.976" cy="291.914" rx="4.246" ry="5.034"/>
			</g>
			<g id="XMLID_506_">
				<path id="XMLID_512_" fill="#FFFFFF" d="M160.783,271.373c5.89-0.021,14.562,4.178,17.066,14.213
					c3.048,12.209-3.271,24.065-17.066,23.487c-14.803-0.621-20.039-11.048-18.453-20.727
					C144.029,277.979,150.456,271.412,160.783,271.373z"/>
				<g id="XMLID_510_">
					<path id="XMLID_511_" fill="#002030" d="M178.461,287.449c-0.891-6.557-3.162-11.677-8.186-15.096
						c-4.67-3.178-10.603-3.893-15.735-2.082c-3.627,1.281-7.339,3.686-9.835,7.111c-2.521,3.458-5.999,9.708-3.525,14.14
						c0.4,0.717,1.393,1.375,1.905,0.422c1.599-2.971,1.992-6.504,3.562-9.527c1.75-3.371,4.198-5.592,7.229-7.198
						c9.307-4.926,21.039,0.789,24.197,12.545C178.202,288.246,178.504,287.767,178.461,287.449L178.461,287.449z"/>
				</g>
				<ellipse id="XMLID_508_" fill="#19313A" cx="163.567" cy="293.344" rx="13.282" ry="15.746"/>
				<ellipse id="XMLID_507_" fill="#FFFFFF" cx="157.599" cy="291.914" rx="4.246" ry="5.034"/>
			</g>
			<g id="XMLID_504_">
				<path id="XMLID_505_" fill="#A03717" d="M233.973,263.983c0.096-0.336,0.155-0.67,0.089-1.014
					c-0.325-1.764-1.154-3.067-2.167-4.386c-1.362-1.777-3.052-3.199-4.812-4.368c-3.429-2.279-7.399-3.435-11.331-3.182
					c-0.739,0.047-1.502,0.147-2.157,0.565c-0.846,0.541-1.434,1.614-1.503,2.753c-0.131,2.104,1.293,3.085,2.855,3.366
					c1.182,0.211,2.364,0.425,3.546,0.635c0.866,0.156,1.732,0.312,2.591,0.519c2.874,0.688,5.65,1.94,8.183,3.692
					c1.048,0.725,2.084,1.547,3.27,1.844C232.956,264.512,233.772,264.612,233.973,263.983z"/>
			</g>
			<g id="XMLID_501_">
				<path id="XMLID_502_" fill="#A03717" d="M148.352,262.444c-0.074-0.344-0.109-0.683-0.024-1.018
					c0.44-1.731,1.353-2.953,2.448-4.176c1.474-1.646,3.252-2.909,5.082-3.916c3.567-1.957,7.6-2.746,11.503-2.135
					c0.735,0.114,1.488,0.285,2.113,0.762c0.81,0.617,1.325,1.742,1.322,2.883c-0.006,2.11-1.49,2.957-3.067,3.094
					c-1.192,0.102-2.384,0.207-3.577,0.31c-0.874,0.076-1.749,0.151-2.617,0.279c-2.91,0.424-5.761,1.417-8.4,2.932
					c-1.092,0.627-2.178,1.354-3.381,1.541C149.331,263.065,148.512,263.09,148.352,262.444z"/>
			</g>
			<path id="XMLID_498_" fill="#FFC8AC" d="M250.944,278.59c1.967-7.419,10.581-17.856,20.531-13.318
				c9.954,4.538,12.25,22.237,6.699,35.397c-5.549,13.16-20.692,17.981-26.329,8.423L250.944,278.59z"/>
			<path id="XMLID_497_" fill="#9E5147" d="M250.383,287.867c-0.122,0.439,0.382,1.379,0.817,1.037
				c1.879-1.461,3.218-3.59,5.177-4.905c2.121-1.422,4.46-1.83,6.818-1.53c1.099,1.803,2.081,3.188,1.849,5.954
				c-0.201,2.397-1.061,5.048-2.461,6.819c-1.101,1.389-2.762,1.797-4.111,2.742c-0.104,0.072-0.209,0.459-0.036,0.508
				c6.398,1.85,10.689-8.704,8.719-14.818c3.61,1.805,6.599,5.39,6.407,10.402c-0.01,0.238,0.201,0.185,0.256,0.013
				C279.079,278.375,254.537,272.84,250.383,287.867z"/>
			<path id="XMLID_495_" fill="#CC5440" d="M248.95,265.272c0,0-12.111-11.941-19.132-36.716l-18.571,9.163
				c-13.541,6.684-28.749,6.823-42.375,0.39l-16.104-7.604c-3.256,4.614-16.215,10.511-19.793,59.729c0,0-9.187-42.465,7.358-70.468
				c16.544-28.004,45.786-32.708,78.725-25.681c22.126,4.721,46.166,25.354,44.911,70.4c-2.285,19.541-10.833,30.638-12.644,26.966
				C249.517,287.777,249.831,270.456,248.95,265.272l15.019-0.787"/>
			<g id="XMLID_691_">
				<path id="XMLID_692_" fill="#9E5147" d="M177.544,335.533c10.257,7.222,27.228,4.106,35.212-6.184
					c0.854-1.098-0.996-2.153-1.751-1.178c-8.031,10.388-22.925,11.392-33.336,6.371
					C177.092,334.263,177.18,335.276,177.544,335.533L177.544,335.533z"/>
			</g>
			<g id="XMLID_525_">
				<path id="XMLID_526_" fill="#9E5147" d="M210.872,324.661c-0.995,1.207,0.028,3.379,0.847,4.285
					c0.94,1.039,2.582,2.02,3.892,1.479c0.448-0.184,0.928-0.826,0.437-1.34c-0.385-0.403-1.329-0.051-1.83-0.176
					c-1.833-0.455-2.371-2.257-2.942-4.102C211.211,324.589,211.016,324.489,210.872,324.661L210.872,324.661z"/>
			</g>
		</g>
	</g>
	<g id="XMLID_708_">
		<ellipse id="XMLID_701_" fill="#BDD5DB" cx="597.651" cy="556.593" rx="89.595" ry="13.449"/>
		<g id="XMLID_729_">
			<path id="XMLID_778_" fill="#FFC8AC" d="M630.422,409.856c-7.056-27.38-15.717-34.034-16.357-43.163
				c-0.6-8.525-0.77-18.063-0.77-18.063h-32.01c0,0-0.169,9.538-0.769,18.063c-0.641,9.128-9.302,15.783-16.357,43.163
				c-8.142,31.578-10.504,65.787-10.504,65.787s17.026,6.726,43.635,6.726c26.61,0,43.635-6.726,43.635-6.726
				S638.563,441.435,630.422,409.856z"/>
			<path id="XMLID_688_" fill="#002030" d="M639.513,337.014c0,0,19.208-1.604,25.472-29.91c6.264-28.307,6.429-54.298,2.313-69.576
				c-4.116-15.279-13.379-18.301-13.379-18.301s4.477-10.304-10.429-26.754c-9.482-10.468-63.645-29.25-95.598,0.008
				c-35.667,32.659-25.915,77.514-16.992,93.614L639.513,337.014z"/>
			<path id="XMLID_397_" fill="#002030" d="M639.513,337.014c8.657-7.61,22.491-17.248,22.381-76.668h-17.02L639.513,337.014z"/>
			<path id="XMLID_777_" fill="#F49282" d="M613.396,348.631h-32.111c0,0-0.138,7.708-0.601,15.461
				c3.287,0.219,6.542,0.303,9.702,0.303c7.552,0,17.921-3.083,23.196-6.509C613.295,350.881,613.396,348.631,613.396,348.631z"/>
			<path id="XMLID_776_" fill="#FFC8AC" d="M553.655,475.644l4.6,65.265c0,0-8.485,2.969-12.84,5.938
				c-4.352,2.97-3.288,6.598,16.077,6.598s28.149,0,28.149,0l5.941-77.8H553.655z"/>
			<path id="XMLID_775_" fill="#FFC8AC" d="M641.043,475.644l-4.601,65.265c0,0,8.486,2.969,12.838,5.938
				c4.354,2.97,3.29,6.598-16.075,6.598s-28.149,0-28.149,0l-5.94-77.8H641.043z"/>
			<path id="XMLID_413_" fill="#FFC8AC" d="M579.845,371.491c-5.121-2.643-13.968,0.83-30.043,22.193
				c-4.633,6.157-9.169,12.418-13.598,18.785c-3.311,4.753-6.563,9.564-9.734,14.446c-1.166,1.795-2.271,3.72-3.732,5.202
				c-1.649,1.672-3.803,2.318-5.85,2.969c-1.283,0.408-2.878,0.662-3.854,1.841c-1.014,1.223-0.517,3.045,0.768,3.647
				c1.381,0.646,3.09,0.219,4.541,0.35c0.245,0.022,0.484,0.119,0.634,0.349c0.229,0.348-0.011,0.866-0.159,1.131
				c-0.973,1.704-1.58,2.563-2.161,3.561c-0.942,1.623-3.649,5.164-2.464,7.29c0.467,0.834,1.722,1.121,2.352,0.761
				c1.018-0.585,1.928-1.394,2.768-2.285c0.422-0.45,0.828-0.922,1.226-1.401c0.322-0.387,0.763-1.101,1.291-1.026
				c0.445,0.062,0.436,0.719,0.366,1.103c-0.08,0.442-0.263,0.853-0.445,1.243c-0.697,1.49-1.506,2.957-2.029,4.543
				c-0.254,0.771-0.488,1.562-0.546,2.383c-0.048,0.644,0.034,1.349,0.418,1.805c0.279,0.329,0.679,0.478,1.073,0.513
				c0.878,0.075,1.741-0.375,2.43-1.025c0.862-0.813,1.549-1.844,2.221-2.868c0.701-1.069,1.398-2.146,2.135-3.184
				c0.158-0.222,0.346-0.459,0.59-0.476c0.264-0.019,0.496,0.246,0.573,0.547c0.078,0.3,0.035,0.624-0.023,0.931
				c-0.154,0.823-0.47,1.508-0.731,2.28c-0.272,0.801-0.511,1.618-0.712,2.448c-0.217,0.899-0.408,1.89-0.109,2.756
				c0.55,1.593,2.126,1.899,3.312,0.867c1.169-1.023,3.726-6.87,4.142-7.773c2.555-5.561,5.861-10.557,8.964-15.711
				c4.895-8.131,16.336-24.213,20.8-28.906L579.845,371.491z"/>
			<path id="XMLID_412_" fill="#FFC8AC" d="M614.927,371.491c5.12-2.643,13.969,0.83,30.045,22.193
				c4.633,6.157,9.168,12.418,13.597,18.785c3.309,4.753,6.562,9.564,9.733,14.446c1.166,1.795,2.271,3.72,3.732,5.202
				c1.648,1.672,3.802,2.318,5.85,2.969c1.282,0.408,2.88,0.662,3.854,1.841c1.013,1.223,0.517,3.045-0.768,3.647
				c-1.381,0.646-3.09,0.219-4.541,0.35c-0.244,0.022-0.484,0.119-0.635,0.349c-0.229,0.348,0.01,0.866,0.16,1.131
				c0.972,1.704,1.577,2.563,2.158,3.561c0.945,1.623,3.652,5.164,2.465,7.29c-0.464,0.834-1.72,1.121-2.35,0.761
				c-1.017-0.585-1.929-1.394-2.768-2.285c-0.421-0.45-0.828-0.922-1.225-1.401c-0.324-0.387-0.765-1.101-1.292-1.026
				c-0.447,0.062-0.437,0.719-0.366,1.103c0.079,0.442,0.261,0.853,0.446,1.243c0.696,1.49,1.505,2.957,2.029,4.543
				c0.252,0.771,0.484,1.562,0.546,2.383c0.046,0.644-0.035,1.349-0.421,1.805c-0.277,0.329-0.679,0.478-1.071,0.513
				c-0.878,0.075-1.741-0.375-2.432-1.025c-0.861-0.813-1.547-1.844-2.218-2.868c-0.703-1.069-1.401-2.146-2.138-3.184
				c-0.156-0.222-0.344-0.459-0.587-0.476c-0.266-0.019-0.497,0.246-0.573,0.547c-0.079,0.3-0.035,0.624,0.021,0.931
				c0.156,0.823,0.471,1.508,0.733,2.28c0.272,0.801,0.51,1.618,0.71,2.448c0.218,0.899,0.409,1.89,0.111,2.756
				c-0.551,1.593-2.128,1.899-3.313,0.867c-1.172-1.023-3.726-6.87-4.143-7.773c-2.554-5.561-5.251-11.105-8.355-16.257
				c-8.273-13.731-16.944-23.667-21.406-28.36L614.927,371.491z"/>
			<path id="XMLID_411_" fill="#EA9565" d="M553.65,475.644c0,23.331,4.601,65.265,4.601,65.265s-8.486,2.969-12.839,5.938
				c-4.354,2.97-3.289,6.598,16.076,6.598c19.364,0,28.149,0,28.149,0l5.94-77.8C595.578,475.644,553.65,452.313,553.65,475.644z"/>
			<path id="XMLID_410_" fill="#D8794A" d="M594.206,493.615c-3.446-0.627-9.062-3.026-9.062-3.026l-3.257,50.319h8.708
				L594.206,493.615z"/>
			<path id="XMLID_408_" fill="#EA9565" d="M641.038,475.644c0,23.331-4.603,65.265-4.603,65.265s8.488,2.969,12.843,5.938
				c4.352,2.97,3.288,6.598-16.077,6.598s-28.152,0-28.152,0l-5.938-77.8C599.11,475.644,641.038,452.313,641.038,475.644z"/>
			<path id="XMLID_414_" fill="#EA9565" d="M591.576,479.843h11.118v13.18c-3.707,1.187-7.413,1.187-11.118,0V479.843z"/>
			<path id="XMLID_407_" fill="#49AE48" d="M579.754,370.589c-3.048-4.09-10.592-5.475-22.429,8.712
				c-11.839,14.185-15.425,18.848-15.425,18.848s3.515,17.639,20.482,23.905L579.754,370.589z"/>
			<path id="XMLID_405_" fill="#49AE48" d="M614.826,370.589c3.049-4.09,10.593-5.475,22.43,8.712
				c11.838,14.185,15.425,18.848,15.425,18.848s-3.516,17.639-20.481,23.905L614.826,370.589z"/>
			<path id="XMLID_404_" fill="#FFE568" d="M630.419,409.856c-6.031-23.403-13.231-31.664-15.598-39.27l0,0
				c-0.058,0.179-2.923,8.882-17.535,8.882c-14.603,0-17.475-8.691-17.537-8.88c-2.366,7.604-9.564,15.865-15.595,39.268
				c-8.139,31.578-10.504,48.909-10.504,65.787c0,0,17.026,6.726,43.636,6.726c26.61,0,43.636-6.726,43.636-6.726
				C640.922,458.453,638.557,441.435,630.419,409.856z"/>
			<path id="XMLID_772_" fill="#002030" d="M605.056,553.443c0,0,8.784,0,28.149,0s20.43-3.628,16.075-6.598
				c-4.352-2.969-12.838-5.938-12.838-5.938h-32.345L605.056,553.443z"/>
			<path id="XMLID_771_" fill="#002030" d="M558.255,540.908c0,0-8.485,2.969-12.84,5.938c-4.352,2.97-3.288,6.598,16.077,6.598
				s28.149,0,28.149,0l0.958-12.535H558.255z"/>
			<path id="XMLID_766_" fill="#FFC8AC" d="M590.387,352.897c17.054,0,36.946-2.406,49.126-15.883
				c12.182-13.478,13.399-48.133,6.091-82.307c-7.308-34.173-35.322-41.875-55.217-41.875s-47.907,7.702-55.216,41.875
				c-7.308,34.174-6.135,64.432,7.29,79.471C554.57,347.744,573.336,352.897,590.387,352.897z"/>
			<ellipse id="XMLID_742_" fill="#FCA39A" cx="547.893" cy="315.826" rx="12.249" ry="14.521"/>
			<ellipse id="XMLID_741_" fill="#FCA39A" cx="632.626" cy="315.826" rx="12.248" ry="14.521"/>
			<path id="XMLID_491_" fill="#8E3257" d="M605.878,325.724c0,0-2.22,12.453-14.861,12.572
				c-14.573,0.138-15.377-12.875-15.377-12.875s2.547-0.119,14.296,0.07C597.953,325.618,605.878,325.724,605.878,325.724z"/>
			<path id="XMLID_490_" fill="#EE7BA5" d="M591.017,338.296c-3.481,0.033-6.158-0.696-8.244-1.807
				c2.128-2.56,5.364-4.272,9.04-4.444c3.33-0.155,6.388,0.979,8.64,2.942C598.252,336.843,595.219,338.257,591.017,338.296z"/>
			<path id="XMLID_765_" fill="#FCA39A" d="M587.456,308.067c-4.454-0.178-8.479,3.171-8.453,4.741
				c0.061,3.667,15.845,4.418,15.676,0C594.584,310.341,591.279,308.218,587.456,308.067z"/>
			<g id="XMLID_763_">
				<path id="XMLID_764_" fill="#9E5147" d="M578.6,313.795c2.801-2.488,4.834-4.962,8.649-4.977
					c3.515-0.017,5.385,2.224,7.307,5.321c0.33,0.532,1.178,0.553,1.092-0.283c-0.968-9.384-15.169-8.511-17.21-0.334
					C578.412,313.63,578.467,313.915,578.6,313.795L578.6,313.795z"/>
			</g>
			<g id="XMLID_753_">
				<path id="XMLID_758_" fill="#FFFFFF" d="M619.766,267.234c-5.888-0.023-14.562,4.178-17.066,14.215
					c-3.047,12.208,3.271,24.063,17.066,23.484c14.805-0.621,20.039-11.047,18.454-20.727
					C636.521,273.84,630.094,267.273,619.766,267.234z"/>
				<g id="XMLID_756_">
					<path id="XMLID_757_" fill="#002030" d="M602.463,283.599c2.753-9.845,12.233-15.926,20.68-13.91
						c3.421,0.817,7.104,3.048,9.367,6.245c2.529,3.569,2.889,8.208,5.265,11.769c0.375,0.563,1.358,0.904,1.704,0.104
						c2.209-5.115-1.238-11.781-4.319-15.468c-3.209-3.847-8.019-6.417-12.529-7.036c-4.604-0.631-9.709,0.583-13.636,3.555
						c-4.729,3.578-6.085,8.24-6.911,14.578C602.037,283.792,602.349,284.01,602.463,283.599L602.463,283.599z"/>
				</g>
				<ellipse id="XMLID_755_" fill="#19313A" cx="616.984" cy="289.207" rx="13.282" ry="15.748"/>
				<ellipse id="XMLID_754_" fill="#FFFFFF" cx="610.682" cy="287.774" rx="4.245" ry="5.035"/>
			</g>
			<g id="XMLID_747_">
				<path id="XMLID_752_" fill="#FFFFFF" d="M561.186,267.234c5.891-0.023,14.562,4.178,17.067,14.215
					c3.046,12.208-3.272,24.063-17.067,23.484c-14.803-0.621-20.039-11.047-18.453-20.727
					C544.433,273.84,550.857,267.273,561.186,267.234z"/>
				<g id="XMLID_750_">
					<path id="XMLID_751_" fill="#002030" d="M578.864,283.31c-0.892-6.556-3.162-11.677-8.187-15.096
						c-4.67-3.178-10.603-3.893-15.736-2.082c-3.626,1.281-7.336,3.687-9.834,7.112c-2.521,3.458-5.998,9.708-3.525,14.139
						c0.4,0.719,1.395,1.375,1.906,0.424c1.599-2.972,1.991-6.505,3.563-9.529c1.748-3.371,4.197-5.591,7.227-7.196
						c9.308-4.927,21.039,0.787,24.198,12.544C578.605,284.106,578.908,283.627,578.864,283.31L578.864,283.31z"/>
				</g>
				<ellipse id="XMLID_749_" fill="#19313A" cx="563.97" cy="289.207" rx="13.282" ry="15.748"/>
				<ellipse id="XMLID_748_" fill="#FFFFFF" cx="557.463" cy="287.774" rx="4.246" ry="5.035"/>
			</g>
			<g id="XMLID_745_">
				<path id="XMLID_746_" fill="#002030" d="M631.897,259.844c0.098-0.336,0.154-0.67,0.093-1.014
					c-0.327-1.764-1.158-3.065-2.17-4.385c-1.361-1.776-3.052-3.2-4.811-4.371c-3.43-2.278-7.399-3.432-11.331-3.182
					c-0.741,0.047-1.501,0.15-2.155,0.565c-0.849,0.541-1.436,1.615-1.507,2.754c-0.131,2.104,1.292,3.086,2.857,3.366
					c1.182,0.211,2.363,0.424,3.546,0.635c0.865,0.156,1.731,0.312,2.591,0.519c2.874,0.688,5.651,1.94,8.184,3.692
					c1.047,0.725,2.082,1.549,3.269,1.844C630.882,260.372,631.697,260.473,631.897,259.844z"/>
			</g>
			<g id="XMLID_743_">
				<path id="XMLID_744_" fill="#002030" d="M546.278,258.305c-0.074-0.345-0.109-0.681-0.024-1.019
					c0.44-1.731,1.354-2.952,2.446-4.175c1.475-1.646,3.254-2.909,5.083-3.915c3.567-1.957,7.602-2.746,11.504-2.135
					c0.736,0.115,1.488,0.285,2.112,0.763c0.81,0.616,1.325,1.741,1.321,2.882c-0.005,2.11-1.489,2.957-3.065,3.094
					c-1.192,0.104-2.385,0.207-3.577,0.309c-0.873,0.076-1.747,0.151-2.617,0.279c-2.91,0.424-5.761,1.417-8.399,2.934
					c-1.092,0.625-2.177,1.352-3.38,1.538C547.258,258.926,546.437,258.95,546.278,258.305z"/>
			</g>
			<path id="XMLID_737_" fill="#FFC8AC" d="M648.871,274.45c1.966-7.419,10.579-17.856,20.53-13.318
				c9.954,4.539,12.25,22.237,6.699,35.397c-5.55,13.16-20.693,17.981-26.328,8.423L648.871,274.45z"/>
			<path id="XMLID_736_" fill="#9E5147" d="M648.308,283.728c-0.12,0.438,0.381,1.379,0.82,1.037
				c1.876-1.461,3.214-3.59,5.174-4.905c2.121-1.421,4.458-1.83,6.818-1.53c1.099,1.803,2.08,3.188,1.849,5.954
				c-0.2,2.397-1.062,5.05-2.461,6.819c-1.101,1.389-2.762,1.797-4.111,2.741c-0.104,0.072-0.211,0.458-0.036,0.508
				c6.398,1.85,10.688-8.704,8.718-14.818c3.612,1.805,6.6,5.391,6.407,10.404c-0.01,0.235,0.199,0.183,0.257,0.01
				C677.004,274.235,652.463,268.701,648.308,283.728z"/>
			<path id="XMLID_398_" fill="#002030" d="M646.876,261.132c0,0-12.112-11.94-19.132-36.716l-2.566,1.266
				c-23.803,11.745-50.534,11.991-74.485,0.683l0,0c-3.257,4.614-16.215,10.511-19.793,59.729c0,0-9.187-42.465,7.357-70.468
				c16.544-28.002,45.787-32.706,78.727-25.681c22.125,4.721,46.166,25.355,44.91,70.401c-2.284,19.541-10.833,30.637-12.642,26.965
				C647.44,283.638,647.756,266.316,646.876,261.132l15.018-0.786"/>
			<g id="XMLID_689_">
				<path id="XMLID_690_" fill="#002030" d="M666.773,215.057c-2.478-5.216-12.258-0.103-14.008,3.538
					c-0.271,0.563-0.716,1.652-0.417,2.289c1.003,2.14,4.111-1.659,4.746-2.126c2.157-1.59,6.868-4.243,9.502-3.245
					C666.822,215.598,666.856,215.229,666.773,215.057z"/>
			</g>
		</g>
	</g>
</g>
</svg>
