<?xml version="1.0" encoding="utf-8"?>
<!-- Generator: Adobe Illustrator 16.0.0, SVG Export Plug-In . SVG Version: 6.00 Build 0)  -->
<!DOCTYPE svg PUBLIC "-//W3C//DTD SVG 1.1//EN" "http://www.w3.org/Graphics/SVG/1.1/DTD/svg11.dtd">
<svg version="1.1" id="Capa_1" xmlns="http://www.w3.org/2000/svg" xmlns:xlink="http://www.w3.org/1999/xlink" x="0px" y="0px"
	 width="400px" height="400px" viewBox="0 0 400 400" enable-background="new 0 0 400 400" xml:space="preserve">
<g>
	<g>
		<path fill="#1A2E35" d="M186.55,186.612c6.404,14.643,22.102,22.611,5.737,30.703c-16.365,8.092-17.981-14.074-17.505-20.826
			C175.259,189.736,183.089,178.7,186.55,186.612z"/>
		<path fill="#1A2E35" d="M198.743,207.427c-0.009,0-0.019-0.001-0.027-0.003c-0.072-0.017-0.118-0.091-0.102-0.168
			c0.847-4.211-2.121-7.327-5.556-10.936c-2.561-2.689-5.463-5.738-6.995-9.654c-0.751-1.92-1.765-2.753-3.01-2.482
			c-3.345,0.731-7.11,8.861-7.041,13.612c0.001,0.078-0.058,0.142-0.132,0.144c-0.075-0.004-0.133-0.061-0.135-0.139
			c-0.07-4.843,3.808-13.14,7.254-13.894c0.955-0.209,2.305,0.082,3.311,2.652c1.511,3.863,4.393,6.89,6.935,9.561
			c3.492,3.667,6.506,6.833,5.629,11.196C198.86,207.382,198.806,207.427,198.743,207.427z"/>
		<path fill="#1A2E35" d="M174.137,191.693c1.61,1.155,4.375-3.297,5.704-9.124c-3.324-2.899-5.345-2.449-6.675,0.087
			C171.614,185.614,172.293,190.37,174.137,191.693z"/>
		<g>
			<path fill="#007CFF" d="M168.629,283.459c0,0,22.472-4.843,38.836-0.788c-4.802-7.613-25.166-41.341-25.166-41.341l-9.681,12.179
				L168.629,283.459z"/>
			<path opacity="0.2" d="M168.629,283.459c0,0,22.472-4.843,38.836-0.788c-4.802-7.613-25.166-41.341-25.166-41.341l-9.681,12.179
				L168.629,283.459z"/>
		</g>
		<path fill="#007CFF" d="M175.625,210.126c-0.35,1.627-0.742,3.104-1.188,4.631c-0.442,1.515-0.932,3.018-1.477,4.514
			c-0.549,1.495-1.136,2.987-1.833,4.47c-0.692,1.486-1.451,2.967-2.459,4.449c-0.122,0.187-0.251,0.372-0.391,0.559
			c-0.14,0.189-0.25,0.353-0.469,0.614c-0.197,0.245-0.396,0.471-0.594,0.66c-0.2,0.209-0.399,0.391-0.596,0.556
			c-0.795,0.679-1.581,1.157-2.348,1.579c-1.531,0.84-3.033,1.363-4.522,1.833c-1.494,0.441-2.976,0.788-4.462,1.044
			c-1.495,0.259-2.952,0.449-4.5,0.528l-0.699-3.845c2.588-1.056,5.256-2.134,7.665-3.375c1.203-0.609,2.364-1.282,3.323-1.981
			c0.475-0.348,0.893-0.721,1.183-1.045c0.078-0.081,0.144-0.158,0.189-0.229c0.063-0.073,0.098-0.137,0.125-0.19l0.18-0.3
			c0.074-0.12,0.147-0.249,0.218-0.386c0.578-1.063,1.121-2.313,1.621-3.601c0.492-1.297,0.961-2.643,1.393-4.014
			c0.436-1.37,0.849-2.764,1.246-4.166c0.392-1.388,0.787-2.846,1.138-4.175L175.625,210.126z"/>
		<path fill="#FFC3BD" d="M150.912,232.26l-4.228,0.232l2.397,4.586c0,0,2.705-1.02,3.37-3.831L150.912,232.26z"/>
		<polygon fill="#FFC3BD" points="143.567,235.42 146.988,238.267 149.082,237.078 146.684,232.492 		"/>
		<polygon fill="#FFC3BD" points="185.856,338.303 181.122,338.776 180.146,327.246 184.881,326.771 		"/>
		<polygon fill="#FFC3BD" points="222.965,321.256 219.525,324.672 212.101,316.04 215.54,312.623 		"/>
		<path fill="#1A2E35" d="M218.583,323.784l2.585-4.926c0.094-0.179,0.287-0.256,0.466-0.184l3.979,1.602
			c0.412,0.166,0.592,0.727,0.368,1.136c-0.93,1.701-1.459,2.473-2.595,4.64c-0.7,1.333-2.062,4.39-3.026,6.23
			c-0.945,1.801-2.738,0.928-2.491,0.07c1.104-3.847,0.896-5.988,0.584-7.686C218.397,324.361,218.445,324.047,218.583,323.784z"/>
		<path fill="#1A2E35" d="M180.493,337.279h5.623c0.204,0,0.389,0.15,0.444,0.361l1.223,4.707c0.127,0.489-0.213,0.938-0.687,0.942
			c-1.981,0.019-2.921,0.01-5.394,0.01c-1.521,0-5.458,0-7.558,0c-2.055,0-2.485-2.198-1.634-2.397
			c3.812-0.893,6.01-2.123,7.186-3.298C179.909,337.393,180.193,337.279,180.493,337.279z"/>
		<polygon opacity="0.2" points="180.148,327.248 180.649,333.191 185.426,333.191 184.884,326.775 		"/>
		<polygon opacity="0.2" points="215.542,312.625 212.102,316.042 215.932,320.49 219.371,317.073 		"/>
		<path fill="#1A2E35" d="M168.27,210.319c0.313,3.767,1.498,11.239,5.036,26.054l19.181-1.755
			c-0.921-7.606-1.355-12.532,0.437-26.888c0.257-2.065-1.193-3.94-3.159-4.056c-1.363-0.079-2.974-0.125-4.592-0.06
			c-3.242,0.131-5.895,0.265-8.71,0.798c-1.737,0.329-3.602,0.81-5.094,1.229C169.395,206.194,168.091,208.167,168.27,210.319z"/>
		<path fill="#FFC3BD" d="M183.461,193.319c-0.308,3.016-0.411,8.498,1.711,10.296c0,0,0.169,3.115-5.811,4.134
			c-4.198-0.379-2.899-3.336-2.899-3.336c3.061-1.075,2.779-3.521,2.046-5.775L183.461,193.319z"/>
		<path opacity="0.2" d="M181.442,195.489l-2.931,3.147c0.175,0.532,0.322,1.077,0.403,1.611c1.178-0.292,2.885-1.588,2.903-2.922
			C181.827,196.659,181.569,195.787,181.442,195.489z"/>
		<path fill="#FFC3BD" d="M185.968,188.608c-1.189,4.816-1.595,6.882-4.387,8.9c-4.2,3.035-9.53,0.437-9.726-4.657
			c-0.175-4.586,1.797-11.691,6.668-12.693C183.322,179.17,187.157,183.792,185.968,188.608z"/>
		<path fill="#1A2E35" d="M176.011,179.773c-1.933,2.054,2.105,7.243,8.806,11.822c5.188-3.325,3.41-7.778,1.038-10.303
			C183.527,178.817,178.222,177.421,176.011,179.773z"/>
		<path fill="#1A2E35" d="M177.818,185.11c-0.034,0-0.068-0.014-0.095-0.041c-2.136-2.256-2.968-3.968-2.474-5.087
			c0.728-1.647,4.014-1.35,4.152-1.337c0.074,0.008,0.128,0.076,0.122,0.154c-0.007,0.077-0.069,0.134-0.145,0.127
			c-0.033-0.002-3.24-0.292-3.888,1.175c-0.437,0.986,0.401,2.635,2.421,4.768c0.052,0.055,0.052,0.145,0,0.2
			C177.887,185.096,177.852,185.11,177.818,185.11z"/>
		<path fill="#FFC3BD" d="M186.344,192.956c-0.448,0.917-1.253,1.529-2.021,1.773c-1.155,0.368-1.755-0.718-1.455-1.884
			c0.271-1.049,1.198-2.505,2.367-2.362C186.385,190.623,186.855,191.908,186.344,192.956z"/>
		<path fill="#1A2E35" d="M173.306,236.373c0,0-5.54,30.352-1.208,51.764c2.901,14.341,6.623,43.333,6.623,43.333l8.181-0.223
			c0,0-2.128-30.402-3.765-42.358c-2.801-20.452,4.215-53.801,4.215-53.801L173.306,236.373z"/>
		<path opacity="0.2" d="M180.79,242.507l4.089,6.825c-1.04,7.078-2.076,15.93-2.34,24.449
			C176.787,262.885,179.511,248.274,180.79,242.507z"/>
		<polygon fill="#007CFF" points="178,331.805 187.639,331.776 187.61,328.361 177.403,328.221 		"/>
		<path fill="#1A2E35" d="M177.5,236.05c0,0,3.808,32.21,12.06,49.795c6.666,14.204,24.452,34.423,24.452,34.423l4.548-4.957
			c0,0-12.015-21.974-16.968-31.408c-12.147-23.136-2.221-40.79-9.105-49.284L177.5,236.05z"/>
		<polygon fill="#007CFF" points="213.552,320.931 219.42,314.878 217.473,312.075 211.25,318.647 		"/>
		<path fill="#FFFFFF" d="M192.677,233.4l1.014,1.737c0.078,0.136-0.068,0.293-0.29,0.313l-20.115,1.841
			c-0.173,0.017-0.324-0.061-0.344-0.175l-0.321-1.801c-0.022-0.124,0.119-0.245,0.308-0.263l19.424-1.777
			C192.495,233.265,192.626,233.313,192.677,233.4z"/>
		<path fill="#1A2E35" d="M190.256,235.938l0.52-0.048c0.104-0.01,0.178-0.073,0.166-0.142l-0.437-2.337
			c-0.013-0.069-0.108-0.116-0.212-0.107l-0.52,0.047c-0.104,0.01-0.178,0.074-0.165,0.142l0.437,2.338
			C190.057,235.898,190.152,235.946,190.256,235.938z"/>
		<path fill="#1A2E35" d="M174.764,237.355l0.521-0.048c0.104-0.009,0.178-0.073,0.165-0.142l-0.437-2.338
			c-0.013-0.068-0.108-0.116-0.212-0.106l-0.52,0.048c-0.104,0.009-0.178,0.072-0.166,0.141l0.437,2.338
			C174.565,237.316,174.66,237.365,174.764,237.355z"/>
		<path fill="#1A2E35" d="M182.51,236.646l0.521-0.048c0.104-0.01,0.178-0.073,0.165-0.142l-0.437-2.337
			c-0.013-0.069-0.107-0.117-0.211-0.108l-0.521,0.048c-0.104,0.01-0.178,0.073-0.165,0.142l0.437,2.338
			C182.311,236.607,182.407,236.655,182.51,236.646z"/>
		<path fill="#1A2E35" d="M178.262,188.443c-0.074,0.397-0.333,0.677-0.578,0.626c-0.245-0.052-0.384-0.414-0.311-0.812
			c0.074-0.397,0.333-0.678,0.578-0.626S178.336,188.046,178.262,188.443z"/>
		<path fill="#1A2E35" d="M174.022,187.561c-0.074,0.396-0.333,0.677-0.578,0.626c-0.245-0.051-0.384-0.414-0.311-0.811
			c0.074-0.397,0.333-0.678,0.578-0.626C173.957,186.801,174.096,187.164,174.022,187.561z"/>
		<path fill="#1A2E35" d="M173.815,186.794l-0.85-0.462C172.965,186.333,173.289,187.173,173.815,186.794z"/>
		<path fill="#FF847F" d="M175.479,188.55c0,0-0.954,1.577-1.808,2.255c0.405,0.592,1.288,0.544,1.288,0.544L175.479,188.55z"/>
		<path fill="#1A2E35" d="M176.694,193.241c1.329,0,2.101-0.82,2.138-0.86c0.036-0.039,0.035-0.102-0.001-0.14
			c-0.037-0.038-0.096-0.037-0.132,0.002c-0.011,0.01-1.019,1.075-2.669,0.73c-0.053-0.012-0.1,0.025-0.109,0.078
			c-0.011,0.053,0.023,0.105,0.073,0.116C176.241,193.219,176.476,193.241,176.694,193.241z"/>
		<path fill="#1A2E35" d="M180.81,186.904c0.033,0,0.066-0.009,0.096-0.028c0.088-0.057,0.117-0.178,0.063-0.271
			c-0.631-1.106-1.647-1.155-1.69-1.156c-0.108,0.004-0.188,0.082-0.192,0.19c-0.004,0.108,0.076,0.2,0.179,0.205
			c0.035,0.002,0.86,0.049,1.385,0.966C180.685,186.87,180.746,186.904,180.81,186.904z"/>
		<path fill="#1A2E35" d="M172.844,185.314c0.031,0,0.062-0.008,0.09-0.025c0.893-0.527,1.648-0.12,1.655-0.115
			c0.092,0.051,0.205,0.013,0.252-0.083s0.013-0.216-0.079-0.266c-0.038-0.022-0.944-0.511-2.01,0.119
			c-0.09,0.054-0.123,0.174-0.073,0.269C172.715,185.277,172.779,185.314,172.844,185.314z"/>
		<path fill="#007CFF" d="M184.879,203.05c0,0-0.783,5.349-0.716,14.068c0.045,5.764-1.341,31.553,6.111,61.851
			c11.914,0.072,17.19,3.702,17.19,3.702s-11.553-49.328-13.015-74.825c-0.145-2.541-2.051-4.563-4.452-4.722
			C187.63,202.967,184.879,203.05,184.879,203.05z"/>
		<path fill="#FFFFFF" d="M196.926,245.065c-0.032,0-0.063-0.009-0.092-0.027c-3.348-2.113-6.774-8.039-6.918-8.291
			c-0.053-0.09-0.025-0.209,0.061-0.265c0.086-0.055,0.198-0.026,0.25,0.065c0.035,0.061,3.523,6.096,6.794,8.16
			c0.085,0.055,0.115,0.172,0.063,0.264C197.049,245.032,196.989,245.065,196.926,245.065z"/>
		<path opacity="0.2" d="M195.108,215.511l-3.868-3.591c0,0,1.692,7.746,5.106,13.353
			C195.861,221.885,195.434,218.604,195.108,215.511z"/>
		<path fill="#007CFF" d="M175.877,204.031c0,0-0.426,5.34-0.426,19.073c0,13.253,1.547,32.341-0.833,56.375
			c-3.854,1.003-5.989,3.979-5.989,3.979s3.215-43.633-0.479-73.201c-0.319-2.554,1.468-4.868,3.86-5.345
			C174.334,204.451,175.877,204.031,175.877,204.031z"/>
		<g>
			<g>
				<polygon fill="#007CFF" points="213.147,247.97 201.608,251.147 200.541,246.808 212.079,243.631 				"/>
				<polygon opacity="0.8" fill="#FFFFFF" points="212.948,247.159 201.409,250.337 201.217,249.557 212.756,246.379 				"/>
			</g>
			<polygon fill="#1A2E35" points="212.601,248.162 202.7,250.354 201.678,245.19 211.579,242.998 			"/>
		</g>
		<path fill="#FFC3BD" d="M202.979,241.993l-0.816,4.395l3.918-1.047c0,0,0.267-3.021-1.345-4.222L202.979,241.993z"/>
		<polygon fill="#FFC3BD" points="203.157,248.68 207.1,248.272 206.08,245.341 202.162,246.388 		"/>
		<path fill="#007CFF" d="M193.011,204.59c1.149,1.256,2.169,2.492,3.203,3.788c1.019,1.294,2.022,2.605,2.973,3.98
			c0.96,1.371,1.888,2.773,2.761,4.276c0.437,0.761,0.871,1.51,1.269,2.344l0.302,0.613l0.287,0.655l0.282,0.661
			c0.095,0.217,0.191,0.499,0.283,0.746c0.342,0.994,0.556,1.899,0.729,2.795c0.174,0.891,0.313,1.762,0.428,2.621
			c0.224,1.721,0.356,3.411,0.447,5.092c0.168,3.367,0.165,6.674-0.063,10.036l-3.696,0.207c-0.595-3.161-1.154-6.366-1.777-9.479
			c-0.309-1.56-0.642-3.101-1.011-4.587c-0.182-0.743-0.379-1.468-0.593-2.158c-0.216-0.683-0.443-1.349-0.679-1.868
			c-0.065-0.127-0.104-0.229-0.186-0.375l-0.238-0.434l-0.239-0.436l-0.277-0.448c-0.356-0.593-0.774-1.208-1.179-1.816
			c-0.833-1.22-1.76-2.434-2.686-3.649c-1.864-2.411-3.881-4.843-5.807-7.175L193.011,204.59z"/>
		<path fill="#007CFF" d="M217.677,326.434c0.061,0,0.121-0.012,0.183-0.032c0.563-0.202,0.932-1.303,1.102-1.941
			c0.01-0.038-0.003-0.079-0.032-0.104c-0.028-0.024-0.068-0.029-0.102-0.011c-0.172,0.095-1.674,0.945-1.723,1.572
			c-0.008,0.097,0.015,0.235,0.161,0.352C217.401,326.378,217.539,326.434,217.677,326.434z M218.717,324.635
			c-0.261,0.881-0.598,1.465-0.918,1.579c-0.138,0.048-0.275,0.015-0.422-0.103c-0.084-0.067-0.09-0.133-0.086-0.177
			C217.321,325.549,218.201,324.945,218.717,324.635z"/>
		<path fill="#007CFF" d="M217.443,324.884c0.535,0,1.188-0.181,1.476-0.365c0.028-0.019,0.045-0.052,0.045-0.087
			s-0.019-0.067-0.048-0.085c-0.051-0.029-1.241-0.722-1.881-0.48c-0.167,0.063-0.285,0.181-0.351,0.352
			c-0.103,0.266,0.01,0.419,0.085,0.487C216.912,324.833,217.161,324.884,217.443,324.884z M218.665,324.433
			c-0.509,0.229-1.496,0.371-1.774,0.122c-0.046-0.043-0.092-0.108-0.033-0.263c0.045-0.118,0.124-0.195,0.239-0.239
			C217.533,323.888,218.326,324.257,218.665,324.433z"/>
		<path fill="#007CFF" d="M177.997,338.242c0.541,0,1.128-0.11,1.536-0.207c0.039-0.009,0.068-0.043,0.072-0.086
			c0.005-0.041-0.017-0.082-0.053-0.099c-0.231-0.116-2.271-1.113-2.785-0.745c-0.066,0.047-0.143,0.138-0.133,0.306
			c0.013,0.232,0.106,0.419,0.278,0.557C177.167,338.172,177.567,338.242,177.997,338.242z M179.212,337.903
			c-0.605,0.12-1.726,0.276-2.187-0.093c-0.128-0.104-0.195-0.237-0.205-0.411c-0.004-0.081,0.026-0.111,0.051-0.13
			C177.159,337.063,178.365,337.509,179.212,337.903z"/>
		<path fill="#007CFF" d="M179.512,338.038c0.022,0,0.044-0.008,0.061-0.023c0.027-0.023,0.039-0.062,0.031-0.097
			c-0.02-0.092-0.483-2.22-1.59-2.085c-0.277,0.036-0.353,0.181-0.368,0.297c-0.069,0.542,1.217,1.635,1.832,1.901
			C179.489,338.035,179.5,338.038,179.512,338.038z M178.114,336.024c0.707,0,1.119,1.238,1.256,1.735
			c-0.665-0.368-1.584-1.257-1.54-1.603c0.003-0.025,0.013-0.104,0.206-0.128C178.063,336.026,178.088,336.024,178.114,336.024z"/>
		<path fill="#1A2E35" d="M178.056,187.676l-0.85-0.462C177.206,187.214,177.53,188.055,178.056,187.676z"/>
		<g>
			<path fill="#007CFF" d="M186.278,202.915l-1.454,0.039c-0.083,0.001-0.153,0.063-0.169,0.148
				c-0.183,0.971-1.161,6.804-0.523,17.285c0.623-3.058,2.146-9.526,2.791-10.938c-0.556-0.447-1.445-1.2-1.445-1.2l1.632-1.105
				l-0.651-4.073C186.442,202.979,186.366,202.912,186.278,202.915z"/>
			<path opacity="0.2" fill="#FFFFFF" d="M186.278,202.915l-1.454,0.039c-0.083,0.001-0.153,0.063-0.169,0.148
				c-0.183,0.971-1.161,6.804-0.523,17.285c0.623-3.058,2.146-9.526,2.791-10.938c-0.556-0.447-1.445-1.2-1.445-1.2l1.632-1.105
				l-0.651-4.073C186.442,202.979,186.366,202.912,186.278,202.915z"/>
		</g>
		<g>
			<path fill="#007CFF" d="M174.282,204.189l1.724-0.317c0,0,0.15,5.209-0.551,16.736c-0.622-3.059-1.919-9.395-1.993-11.158
				c0.555-0.447,1.445-1.2,1.445-1.2l-1.633-1.105L174.282,204.189z"/>
			<path opacity="0.2" fill="#FFFFFF" d="M174.282,204.189l1.724-0.317c0,0,0.15,5.209-0.551,16.736
				c-0.622-3.059-1.919-9.395-1.993-11.158c0.555-0.447,1.445-1.2,1.445-1.2l-1.633-1.105L174.282,204.189z"/>
		</g>
	</g>
	<g>
		<path fill="#1A2E35" d="M152.042,275.608h-19.746c-4.741,0-8.62,4.104-8.62,9.119v44.002c0,5.016,3.879,9.12,8.62,9.12h19.746
			c4.741,0,8.62-4.104,8.62-9.12v-44.002C160.662,279.712,156.783,275.608,152.042,275.608z"/>
		<path fill="#1A2E35" d="M144.773,235.213c2.689,0,4.876,2.313,4.876,5.159v59.479c0,2.845-2.188,5.159-4.876,5.159h-5.208
			c-2.689,0-4.877-2.314-4.877-5.159v-59.479c0-2.846,2.188-5.159,4.877-5.159H144.773 M144.773,234.217h-5.208
			c-3.2,0-5.817,2.77-5.817,6.155v59.479c0,3.385,2.618,6.154,5.817,6.154h5.208c3.2,0,5.817-2.77,5.817-6.154v-59.479
			C150.59,236.986,147.973,234.217,144.773,234.217L144.773,234.217z"/>
		<ellipse fill="#1A2E35" cx="153.419" cy="338.555" rx="2.195" ry="2.321"/>
		<ellipse fill="#1A2E35" cx="145.696" cy="338.555" rx="2.195" ry="2.321"/>
		<ellipse fill="#1A2E35" cx="133.068" cy="338.555" rx="2.195" ry="2.321"/>
		<ellipse fill="#1A2E35" cx="125.345" cy="338.555" rx="2.195" ry="2.321"/>
		<g>
			<path fill="#007CFF" d="M146.468,275.608h-19.746c-4.741,0-8.621,4.104-8.621,9.119v44.002c0,5.016,3.879,9.12,8.621,9.12h19.746
				c4.741,0,8.621-4.104,8.621-9.12v-44.002C155.088,279.712,151.209,275.608,146.468,275.608z"/>
			<path opacity="0.2" fill="#FFFFFF" d="M146.468,275.608h-19.746c-4.741,0-8.621,4.104-8.621,9.119v44.002
				c0,5.016,3.879,9.12,8.621,9.12h19.746c4.741,0,8.621-4.104,8.621-9.12v-44.002C155.088,279.712,151.209,275.608,146.468,275.608
				z"/>
		</g>
		<path fill="#007CFF" d="M142.572,281.407h-16.066c-3.858,0-7.015,3.339-7.015,7.421v35.802c0,4.081,3.157,7.421,7.015,7.421
			h16.066c3.858,0,7.014-3.34,7.014-7.421v-35.802C149.586,284.746,146.431,281.407,142.572,281.407z"/>
		<path fill="#FFFFFF" d="M124.588,328.384c-1.102,0-1.999-0.948-1.999-2.114v-39.082c0-1.166,0.896-2.113,1.999-2.113
			c1.102,0,1.999,0.947,1.999,2.113v39.082C126.587,327.436,125.69,328.384,124.588,328.384z M124.588,285.571
			c-0.843,0-1.528,0.726-1.528,1.616v39.082c0,0.891,0.685,1.616,1.528,1.616c0.842,0,1.528-0.726,1.528-1.616v-39.082
			C126.116,286.297,125.431,285.571,124.588,285.571z"/>
		<path fill="#FFFFFF" d="M144.558,328.384c-1.102,0-1.998-0.948-1.998-2.114v-39.082c0-1.166,0.896-2.113,1.998-2.113
			c1.103,0,1.999,0.947,1.999,2.113v39.082C146.556,327.436,145.66,328.384,144.558,328.384z M144.558,285.571
			c-0.842,0-1.527,0.726-1.527,1.616v39.082c0,0.891,0.685,1.616,1.527,1.616c0.843,0,1.528-0.726,1.528-1.616v-39.082
			C146.086,286.297,145.4,285.571,144.558,285.571z"/>
		<path fill="#FFFFFF" d="M137.901,328.384c-1.102,0-1.998-0.948-1.998-2.114v-39.082c0-1.166,0.896-2.113,1.998-2.113
			c1.102,0,1.999,0.947,1.999,2.113v39.082C139.9,327.436,139.003,328.384,137.901,328.384z M137.901,285.571
			c-0.842,0-1.527,0.726-1.527,1.616v39.082c0,0.891,0.685,1.616,1.527,1.616s1.528-0.726,1.528-1.616v-39.082
			C139.429,286.297,138.744,285.571,137.901,285.571z"/>
		<path fill="#FFFFFF" d="M131.245,328.384c-1.102,0-1.998-0.948-1.998-2.114v-39.082c0-1.166,0.896-2.113,1.998-2.113
			s1.999,0.947,1.999,2.113v39.082C133.243,327.436,132.346,328.384,131.245,328.384z M131.245,285.571
			c-0.843,0-1.527,0.726-1.527,1.616v39.082c0,0.891,0.685,1.616,1.527,1.616s1.528-0.726,1.528-1.616v-39.082
			C132.772,286.297,132.087,285.571,131.245,285.571z"/>
	</g>
</g>
<g>
	<g>
		<polygon fill="#007CFF" points="176.823,163.606 171.698,160.501 174.682,159.909 182.621,161.505 		"/>
		<polygon opacity="0.3" fill="#1A2E35" points="176.823,163.606 171.698,160.501 174.682,159.909 182.621,161.505 		"/>
	</g>
	<g>
		<path fill="#007CFF" d="M212.272,154.088l-6.237-7.936l2.307-0.458c1.871-0.372,3.81-0.187,5.579,0.533l12.062,4.905
			L212.272,154.088z"/>
		<path opacity="0.3" fill="#1A2E35" d="M212.272,154.088l-6.237-7.936l2.307-0.458c1.871-0.372,3.81-0.187,5.579,0.533
			l12.062,4.905L212.272,154.088z"/>
	</g>
	<path fill="#007CFF" d="M244.957,148.396l-1.852-0.495c-1.795-0.479-3.675-0.524-5.49-0.132l-61.041,14.036l-0.577,2.668
		l2.382,1.723l61.759-12.262c2.021-0.402,3.907-1.331,5.467-2.697C246.595,150.37,246.222,148.733,244.957,148.396z"/>
	<polygon fill="#007CFF" points="180.979,173.901 180.911,173.573 207.632,167.8 207.7,168.129 	"/>
	<polygon fill="#007CFF" points="186.831,154.494 186.763,154.165 204.18,150.402 204.248,150.731 	"/>
	
		<rect x="172.207" y="171.926" transform="matrix(0.2051 0.9787 -0.9787 0.2051 308.8851 -29.1291)" fill="#007CFF" width="0.336" height="7.324"/>
	<path opacity="0.3" fill="#1A2E35" d="M238.604,152.885l-60.327,13.03c-0.283,0.061-0.544,0.163-0.783,0.307
		c0.287,0.039,0.586,0.031,0.887-0.029l61.754-12.261c1.012-0.201,1.991-0.533,2.909-0.987c0.074-0.037,0.153-0.076,0.228-0.113
		C241.732,152.535,240.145,152.551,238.604,152.885z"/>
	<polygon fill="#007CFF" points="175.997,164.473 174.447,171.112 177.43,170.52 182.859,163.331 	"/>
	<polygon fill="#007CFF" points="176.574,161.805 172.954,155.165 175.737,154.612 183.755,160.379 	"/>
	<path fill="#007CFF" d="M212.814,156.892l-1.005,19.159l0,0c2.86-0.567,5.327-2.386,6.741-4.969l9.423-17.2L212.814,156.892z"/>
	<g opacity="0.5">
		<g>
			<polygon fill="#FFFFFF" points="197.133,159.21 196.37,159.369 196.655,160.781 197.418,160.622 			"/>
			<polygon fill="#FFFFFF" points="198.671,158.891 197.909,159.049 198.194,160.46 198.956,160.302 			"/>
			<polygon fill="#FFFFFF" points="200.21,158.571 199.447,158.729 199.732,160.14 200.496,159.982 			"/>
			<polygon fill="#FFFFFF" points="201.749,158.25 200.986,158.409 201.271,159.821 202.035,159.662 			"/>
			<polygon fill="#FFFFFF" points="203.288,157.931 202.525,158.09 202.811,159.501 203.573,159.343 			"/>
			<polygon fill="#FFFFFF" points="204.826,157.612 204.064,157.77 204.35,159.181 205.112,159.022 			"/>
			<polygon fill="#FFFFFF" points="206.365,157.291 205.604,157.45 205.889,158.861 206.65,158.702 			"/>
			<polygon fill="#FFFFFF" points="207.904,156.971 207.142,157.13 207.428,158.542 208.189,158.383 			"/>
			<polygon fill="#FFFFFF" points="209.443,156.652 208.681,156.81 208.966,158.221 209.729,158.063 			"/>
			<polygon fill="#FFFFFF" points="210.982,156.332 210.219,156.49 210.505,157.901 211.268,157.743 			"/>
			<polygon fill="#FFFFFF" points="212.521,156.011 211.759,156.17 212.044,157.582 212.807,157.423 			"/>
			<polygon fill="#FFFFFF" points="214.06,155.692 213.297,155.85 213.583,157.262 214.346,157.104 			"/>
			<polygon fill="#FFFFFF" points="215.598,155.372 214.836,155.531 215.121,156.942 215.884,156.783 			"/>
			<polygon fill="#FFFFFF" points="217.138,155.052 216.375,155.211 216.66,156.622 217.422,156.463 			"/>
			<polygon fill="#FFFFFF" points="218.676,154.732 217.913,154.891 218.198,156.302 218.962,156.144 			"/>
			<polygon fill="#FFFFFF" points="220.215,154.412 219.452,154.571 219.737,155.982 220.5,155.824 			"/>
			<polygon fill="#FFFFFF" points="221.754,154.093 220.991,154.251 221.276,155.662 222.039,155.504 			"/>
			<polygon fill="#FFFFFF" points="223.293,153.773 222.53,153.931 222.815,155.342 223.578,155.184 			"/>
			<polygon fill="#FFFFFF" points="224.831,153.453 224.069,153.611 224.354,155.023 225.117,154.864 			"/>
			<polygon fill="#FFFFFF" points="226.369,153.133 225.608,153.292 225.894,154.703 226.655,154.544 			"/>
			<polygon fill="#FFFFFF" points="227.909,152.813 227.146,152.972 227.433,154.382 228.194,154.224 			"/>
			<polygon fill="#FFFFFF" points="229.447,152.493 228.685,152.651 228.971,154.063 229.732,153.904 			"/>
		</g>
	</g>
	<path opacity="0.5" fill="#FFFFFF" d="M244.958,148.397l-1.855-0.497c-0.247-0.064-0.499-0.125-0.754-0.176l-2.732,0.542
		c-0.379,0.076-0.629,0.451-0.555,0.836c0.074,0.385,0.446,0.643,0.825,0.567l5.495-1.091
		C245.254,148.499,245.115,148.439,244.958,148.397z"/>
</g>
<g>
	<path fill="none" stroke="#2C8273" stroke-width="11" stroke-miterlimit="10" d="M256.091,119.847
		c-7.575,0.337-13.417,6.23-13.049,13.163c0.367,6.934,6.805,12.281,14.38,11.945c7.574-0.337,13.416-6.23,13.048-13.163
		C270.103,124.858,263.665,119.51,256.091,119.847z"/>
	<g>
		<path fill="#FFFFFF" stroke="#2C8273" stroke-width="2" stroke-miterlimit="10" d="M257.399,144.537
			c-7.322,0.325-13.546-4.844-13.901-11.546c-0.354-6.702,5.292-12.399,12.613-12.724c7.322-0.326,13.546,4.843,13.902,11.546
			C270.368,138.514,264.722,144.211,257.399,144.537z"/>
		<path fill="#CBDAD9" stroke="#003649" stroke-width="2" stroke-miterlimit="10" d="M256.111,120.266
			c-7.321,0.325-12.968,6.022-12.613,12.724c0.355,6.703,6.579,11.872,13.901,11.546s12.969-6.022,12.614-12.725
			C269.657,125.109,263.434,119.94,256.111,120.266z"/>
	</g>
	<g opacity="0.75">
		<g>
			<g>
				<g>
					<g>
						
							<ellipse transform="matrix(0.1162 -0.9932 0.9932 0.1162 107.2116 363.7695)" fill-rule="evenodd" clip-rule="evenodd" fill="#FFFFFF" cx="258.016" cy="121.64" rx="0.139" ry="0.151"/>
						<path fill-rule="evenodd" clip-rule="evenodd" fill="#FFFFFF" d="M259.264,121.684c0.082,0.017,0.133,0.089,0.117,0.165
							c-0.019,0.075-0.1,0.122-0.181,0.106c-0.081-0.016-0.134-0.09-0.116-0.164C259.102,121.716,259.183,121.668,259.264,121.684z"
							/>
						<path fill-rule="evenodd" clip-rule="evenodd" fill="#FFFFFF" d="M260.469,121.983c0.079,0.024,0.121,0.102,0.097,0.175
							c-0.026,0.073-0.112,0.112-0.191,0.088c-0.08-0.024-0.122-0.102-0.097-0.174C260.304,121.999,260.39,121.959,260.469,121.983z
							"/>
						<path fill-rule="evenodd" clip-rule="evenodd" fill="#FFFFFF" d="M261.632,122.396c0.076,0.031,0.109,0.113,0.076,0.183
							c-0.034,0.069-0.124,0.101-0.199,0.069c-0.076-0.031-0.11-0.113-0.077-0.183C261.467,122.396,261.556,122.364,261.632,122.396
							z"/>
						<path fill-rule="evenodd" clip-rule="evenodd" fill="#FFFFFF" d="M262.836,122.771c0.129,0.069,0.174,0.221,0.099,0.34
							c-0.076,0.119-0.244,0.159-0.372,0.09c-0.129-0.069-0.174-0.221-0.1-0.34C262.538,122.742,262.705,122.701,262.836,122.771z"
							/>
						<path fill-rule="evenodd" clip-rule="evenodd" fill="#FFFFFF" d="M263.786,123.542c0.067,0.045,0.082,0.132,0.034,0.193
							c-0.05,0.062-0.146,0.076-0.212,0.031c-0.067-0.045-0.082-0.131-0.033-0.193C263.625,123.51,263.719,123.496,263.786,123.542z
							"/>
						<path fill-rule="evenodd" clip-rule="evenodd" fill="#FFFFFF" d="M264.754,124.263c0.063,0.051,0.067,0.139,0.012,0.196
							c-0.057,0.056-0.152,0.061-0.214,0.009c-0.063-0.051-0.067-0.139-0.012-0.195S264.692,124.211,264.754,124.263z"/>
						<path fill-rule="evenodd" clip-rule="evenodd" fill="#FFFFFF" d="M265.635,125.072c0.055,0.057,0.05,0.145-0.013,0.196
							c-0.062,0.051-0.157,0.046-0.213-0.01c-0.057-0.057-0.052-0.145,0.012-0.196C265.483,125.011,265.578,125.016,265.635,125.072
							z"/>
						<path fill-rule="evenodd" clip-rule="evenodd" fill="#FFFFFF" d="M266.416,125.962c0.049,0.062,0.033,0.148-0.034,0.193
							c-0.067,0.045-0.161,0.031-0.21-0.031c-0.049-0.062-0.034-0.148,0.034-0.193C266.273,125.886,266.367,125.9,266.416,125.962z"
							/>
						<path fill-rule="evenodd" clip-rule="evenodd" fill="#FFFFFF" d="M267.254,126.837c0.074,0.119,0.029,0.271-0.101,0.339
							c-0.13,0.069-0.298,0.028-0.371-0.091c-0.075-0.119-0.03-0.271,0.1-0.339C267.012,126.677,267.178,126.719,267.254,126.837z"
							/>
						<path fill-rule="evenodd" clip-rule="evenodd" fill="#FFFFFF" d="M267.657,127.94c0.033,0.07-0.001,0.152-0.077,0.183
							c-0.077,0.031-0.167,0-0.2-0.07s0-0.152,0.078-0.183C267.533,127.84,267.623,127.871,267.657,127.94z"/>
						<path fill-rule="evenodd" clip-rule="evenodd" fill="#FFFFFF" d="M268.101,129.008c0.024,0.073-0.018,0.151-0.097,0.174
							c-0.081,0.023-0.167-0.017-0.19-0.089c-0.026-0.072,0.018-0.15,0.097-0.174C267.989,128.895,268.073,128.936,268.101,129.008z
							"/>
						<path fill-rule="evenodd" clip-rule="evenodd" fill="#FFFFFF" d="M268.42,130.112c0.017,0.075-0.035,0.148-0.116,0.164
							c-0.082,0.016-0.162-0.032-0.18-0.107c-0.018-0.074,0.036-0.147,0.116-0.163C268.322,129.99,268.403,130.038,268.42,130.112z"
							/>
						
							<ellipse transform="matrix(0.9954 -0.0957 0.0957 0.9954 -11.3237 26.2803)" fill-rule="evenodd" clip-rule="evenodd" fill="#FFFFFF" cx="268.461" cy="131.255" rx="0.151" ry="0.139"/>
						<path fill-rule="evenodd" clip-rule="evenodd" fill="#FFFFFF" d="M268.605,133.522c-0.009,0.076-0.084,0.131-0.168,0.123
							c-0.082-0.008-0.142-0.076-0.134-0.152c0.01-0.076,0.084-0.13,0.167-0.123S268.612,133.446,268.605,133.522z"/>
						<path fill-rule="evenodd" clip-rule="evenodd" fill="#FFFFFF" d="M268.407,134.65c-0.019,0.074-0.099,0.122-0.182,0.105
							c-0.08-0.016-0.133-0.089-0.115-0.164s0.099-0.122,0.18-0.106C268.371,134.501,268.424,134.575,268.407,134.65z"/>
						<path fill-rule="evenodd" clip-rule="evenodd" fill="#FFFFFF" d="M268.079,135.752c-0.025,0.073-0.11,0.112-0.189,0.088
							c-0.078-0.023-0.123-0.102-0.097-0.174c0.025-0.073,0.111-0.112,0.19-0.088C268.063,135.602,268.105,135.68,268.079,135.752z"
							/>
						<path fill-rule="evenodd" clip-rule="evenodd" fill="#FFFFFF" d="M267.63,136.817c-0.034,0.07-0.123,0.101-0.2,0.07
							c-0.076-0.032-0.11-0.114-0.076-0.183c0.034-0.07,0.123-0.101,0.199-0.07C267.63,136.666,267.664,136.748,267.63,136.817z"/>
						<path fill-rule="evenodd" clip-rule="evenodd" fill="#FFFFFF" d="M267.22,137.918c-0.075,0.119-0.242,0.159-0.372,0.09
							c-0.129-0.069-0.174-0.221-0.098-0.34c0.075-0.119,0.241-0.16,0.371-0.091C267.25,137.647,267.295,137.8,267.22,137.918z"/>
						<path fill-rule="evenodd" clip-rule="evenodd" fill="#FFFFFF" d="M266.377,138.79c-0.048,0.062-0.143,0.075-0.211,0.03
							c-0.067-0.044-0.082-0.131-0.032-0.193c0.048-0.062,0.143-0.075,0.211-0.03C266.411,138.642,266.427,138.728,266.377,138.79z"
							/>
						<path fill-rule="evenodd" clip-rule="evenodd" fill="#FFFFFF" d="M265.59,139.675c-0.056,0.057-0.151,0.062-0.214,0.01
							c-0.063-0.051-0.067-0.139-0.011-0.196c0.056-0.057,0.152-0.061,0.213-0.01C265.641,139.531,265.646,139.619,265.59,139.675z"
							/>
						<path fill-rule="evenodd" clip-rule="evenodd" fill="#FFFFFF" d="M264.705,140.481c-0.063,0.05-0.158,0.046-0.213-0.011
							c-0.057-0.057-0.052-0.145,0.011-0.196s0.157-0.046,0.213,0.011C264.771,140.342,264.767,140.43,264.705,140.481z"/>
						<path fill-rule="evenodd" clip-rule="evenodd" fill="#FFFFFF" d="M263.732,141.197c-0.067,0.045-0.162,0.031-0.21-0.031
							c-0.049-0.062-0.034-0.149,0.031-0.193c0.068-0.044,0.164-0.031,0.212,0.031C263.815,141.066,263.801,141.152,263.732,141.197
							z"/>
						<path fill-rule="evenodd" clip-rule="evenodd" fill="#FFFFFF" d="M262.777,141.963c-0.131,0.069-0.297,0.028-0.371-0.091
							c-0.075-0.12-0.03-0.272,0.1-0.341c0.13-0.068,0.296-0.027,0.372,0.092C262.952,141.743,262.907,141.895,262.777,141.963z"/>
						<path fill-rule="evenodd" clip-rule="evenodd" fill="#FFFFFF" d="M261.57,142.332c-0.076,0.032-0.165,0-0.198-0.07
							c-0.035-0.07,0.001-0.152,0.076-0.183c0.078-0.03,0.166,0.001,0.199,0.07C261.683,142.22,261.646,142.301,261.57,142.332z"/>
						<path fill-rule="evenodd" clip-rule="evenodd" fill="#FFFFFF" d="M260.405,142.738c-0.08,0.024-0.165-0.016-0.189-0.088
							c-0.027-0.073,0.018-0.151,0.097-0.174c0.079-0.024,0.164,0.017,0.19,0.089C260.527,142.637,260.484,142.715,260.405,142.738z
							"/>
						<path fill-rule="evenodd" clip-rule="evenodd" fill="#FFFFFF" d="M259.197,143.031c-0.08,0.016-0.16-0.032-0.178-0.107
							c-0.017-0.075,0.035-0.148,0.117-0.164c0.08-0.016,0.162,0.032,0.178,0.107C259.333,142.942,259.28,143.016,259.197,143.031z"
							/>
						
							<ellipse transform="matrix(0.1128 0.9936 -0.9936 0.1128 371.0229 -129.3672)" fill-rule="evenodd" clip-rule="evenodd" fill="#FFFFFF" cx="257.95" cy="143.069" rx="0.139" ry="0.151"/>
						<path fill-rule="evenodd" clip-rule="evenodd" fill="#FFFFFF" d="M255.474,143.2c-0.083-0.008-0.143-0.076-0.135-0.152
							c0.01-0.076,0.085-0.131,0.168-0.124c0.083,0.009,0.142,0.077,0.134,0.152C255.631,143.153,255.556,143.208,255.474,143.2z"/>
						<path fill-rule="evenodd" clip-rule="evenodd" fill="#FFFFFF" d="M254.241,143.019c-0.08-0.016-0.134-0.089-0.117-0.164
							c0.019-0.074,0.099-0.123,0.182-0.107c0.081,0.017,0.133,0.09,0.115,0.165C254.403,142.987,254.323,143.035,254.241,143.019z"
							/>
						<path fill-rule="evenodd" clip-rule="evenodd" fill="#FFFFFF" d="M253.038,142.72c-0.079-0.024-0.123-0.103-0.097-0.175
							c0.025-0.072,0.111-0.112,0.189-0.088c0.081,0.024,0.124,0.102,0.098,0.174C253.201,142.704,253.118,142.744,253.038,142.72z"
							/>
						<path fill-rule="evenodd" clip-rule="evenodd" fill="#FFFFFF" d="M251.874,142.308c-0.077-0.031-0.111-0.113-0.077-0.183
							c0.034-0.069,0.125-0.101,0.2-0.069c0.076,0.031,0.109,0.113,0.077,0.183C252.04,142.308,251.949,142.339,251.874,142.308z"/>
						<path fill-rule="evenodd" clip-rule="evenodd" fill="#FFFFFF" d="M250.672,141.932c-0.131-0.069-0.175-0.221-0.1-0.34
							c0.075-0.119,0.242-0.16,0.371-0.091c0.131,0.069,0.175,0.221,0.099,0.341C250.968,141.961,250.802,142.001,250.672,141.932z"
							/>
						<path fill-rule="evenodd" clip-rule="evenodd" fill="#FFFFFF" d="M249.721,141.162c-0.068-0.045-0.083-0.132-0.034-0.193
							c0.049-0.063,0.144-0.076,0.212-0.031c0.065,0.046,0.08,0.132,0.032,0.194C249.881,141.193,249.786,141.207,249.721,141.162z"
							/>
						<path fill-rule="evenodd" clip-rule="evenodd" fill="#FFFFFF" d="M248.751,140.44c-0.063-0.051-0.065-0.138-0.01-0.195
							c0.056-0.057,0.15-0.062,0.214-0.01c0.062,0.051,0.065,0.138,0.01,0.195C248.909,140.487,248.814,140.492,248.751,140.44z"/>
						<path fill-rule="evenodd" clip-rule="evenodd" fill="#FFFFFF" d="M247.872,139.631c-0.056-0.057-0.051-0.145,0.011-0.196
							c0.063-0.051,0.159-0.046,0.213,0.011c0.057,0.056,0.052,0.145-0.009,0.195C248.023,139.692,247.928,139.688,247.872,139.631z
							"/>
						<path fill-rule="evenodd" clip-rule="evenodd" fill="#FFFFFF" d="M247.09,138.741c-0.049-0.062-0.034-0.148,0.033-0.193
							c0.068-0.045,0.162-0.032,0.212,0.031c0.048,0.062,0.033,0.148-0.035,0.193C247.232,138.816,247.139,138.803,247.09,138.741z"
							/>
						<path fill-rule="evenodd" clip-rule="evenodd" fill="#FFFFFF" d="M246.253,137.865c-0.074-0.12-0.03-0.271,0.1-0.34
							c0.13-0.068,0.297-0.027,0.371,0.092c0.074,0.119,0.031,0.271-0.101,0.339C246.493,138.025,246.328,137.984,246.253,137.865z"
							/>
						<path fill-rule="evenodd" clip-rule="evenodd" fill="#FFFFFF" d="M245.85,136.762c-0.034-0.07,0.001-0.151,0.077-0.183
							s0.165,0,0.198,0.07c0.035,0.07,0,0.151-0.076,0.183C245.972,136.863,245.884,136.832,245.85,136.762z"/>
						<path fill-rule="evenodd" clip-rule="evenodd" fill="#FFFFFF" d="M245.406,135.695c-0.026-0.073,0.018-0.151,0.096-0.174
							c0.08-0.023,0.165,0.016,0.192,0.089c0.023,0.073-0.018,0.151-0.098,0.174S245.432,135.767,245.406,135.695z"/>
						<path fill-rule="evenodd" clip-rule="evenodd" fill="#FFFFFF" d="M245.085,134.59c-0.016-0.075,0.035-0.148,0.118-0.165
							c0.08-0.015,0.163,0.033,0.178,0.108c0.019,0.074-0.033,0.148-0.116,0.164C245.183,134.713,245.104,134.665,245.085,134.59z"
							/>
						
							<ellipse transform="matrix(-0.9955 0.095 -0.095 -0.9955 501.6622 243.0027)" fill-rule="evenodd" clip-rule="evenodd" fill="#FFFFFF" cx="245.044" cy="133.448" rx="0.152" ry="0.139"/>
						
							<ellipse transform="matrix(-0.9955 -0.095 0.095 -0.9955 476.525 285.0853)" fill-rule="evenodd" clip-rule="evenodd" fill="#FFFFFF" cx="245.051" cy="131.195" rx="0.152" ry="0.139"/>
						<path fill-rule="evenodd" clip-rule="evenodd" fill="#FFFFFF" d="M245.1,130.053c0.019-0.075,0.098-0.123,0.18-0.106
							c0.081,0.016,0.133,0.089,0.115,0.164c-0.018,0.074-0.098,0.122-0.18,0.106C245.135,130.201,245.082,130.127,245.1,130.053z"
							/>
						<path fill-rule="evenodd" clip-rule="evenodd" fill="#FFFFFF" d="M245.427,128.951c0.025-0.073,0.111-0.113,0.19-0.088
							c0.078,0.023,0.121,0.102,0.097,0.175c-0.027,0.072-0.112,0.112-0.19,0.088C245.444,129.102,245.4,129.023,245.427,128.951z"
							/>
						<path fill-rule="evenodd" clip-rule="evenodd" fill="#FFFFFF" d="M245.876,127.885c0.034-0.07,0.124-0.101,0.2-0.07
							s0.11,0.113,0.076,0.183c-0.034,0.07-0.123,0.101-0.2,0.07C245.877,128.037,245.842,127.955,245.876,127.885z"/>
						<path fill-rule="evenodd" clip-rule="evenodd" fill="#FFFFFF" d="M246.286,126.785c0.075-0.119,0.241-0.16,0.372-0.091
							c0.13,0.069,0.175,0.221,0.1,0.34c-0.077,0.12-0.243,0.16-0.373,0.09C246.256,127.055,246.211,126.903,246.286,126.785z"/>
						<path fill-rule="evenodd" clip-rule="evenodd" fill="#FFFFFF" d="M247.129,125.913c0.05-0.062,0.144-0.075,0.21-0.03
							c0.068,0.045,0.083,0.132,0.035,0.193c-0.051,0.062-0.146,0.075-0.212,0.03C247.095,126.062,247.079,125.975,247.129,125.913z
							"/>
						<path fill-rule="evenodd" clip-rule="evenodd" fill="#FFFFFF" d="M247.916,125.027c0.057-0.057,0.151-0.062,0.214-0.01
							c0.062,0.052,0.066,0.139,0.011,0.195c-0.055,0.057-0.151,0.062-0.214,0.01C247.865,125.171,247.86,125.084,247.916,125.027z"
							/>
						<path fill-rule="evenodd" clip-rule="evenodd" fill="#FFFFFF" d="M248.801,124.222c0.062-0.052,0.158-0.047,0.213,0.01
							c0.058,0.057,0.052,0.145-0.011,0.195c-0.063,0.052-0.157,0.047-0.213-0.01C248.734,124.361,248.739,124.273,248.801,124.222z
							"/>
						<path fill-rule="evenodd" clip-rule="evenodd" fill="#FFFFFF" d="M249.773,123.505c0.068-0.044,0.161-0.03,0.211,0.031
							c0.049,0.062,0.034,0.148-0.034,0.193c-0.067,0.044-0.162,0.031-0.211-0.031C249.689,123.637,249.706,123.55,249.773,123.505z
							"/>
						<path fill-rule="evenodd" clip-rule="evenodd" fill="#FFFFFF" d="M250.729,122.74c0.13-0.069,0.296-0.028,0.371,0.091
							c0.075,0.12,0.03,0.271-0.101,0.34c-0.13,0.068-0.295,0.027-0.371-0.092C250.555,122.96,250.599,122.808,250.729,122.74z"/>
						<path fill-rule="evenodd" clip-rule="evenodd" fill="#FFFFFF" d="M251.935,122.371c0.076-0.031,0.166,0.001,0.2,0.07
							s-0.001,0.152-0.077,0.183s-0.167,0-0.2-0.07C251.824,122.483,251.859,122.401,251.935,122.371z"/>
						<path fill-rule="evenodd" clip-rule="evenodd" fill="#FFFFFF" d="M253.102,121.964c0.078-0.023,0.164,0.017,0.189,0.089
							c0.025,0.073-0.017,0.151-0.098,0.174c-0.079,0.023-0.165-0.017-0.189-0.089C252.978,122.065,253.021,121.988,253.102,121.964
							z"/>
						<path fill-rule="evenodd" clip-rule="evenodd" fill="#FFFFFF" d="M254.308,121.672c0.081-0.016,0.162,0.032,0.179,0.106
							s-0.035,0.148-0.116,0.165c-0.083,0.015-0.163-0.033-0.18-0.107C254.173,121.761,254.226,121.688,254.308,121.672z"/>
						
							<ellipse transform="matrix(-0.1095 -0.994 0.994 -0.1095 162.6263 388.9674)" fill-rule="evenodd" clip-rule="evenodd" fill="#FFFFFF" cx="255.555" cy="121.634" rx="0.138" ry="0.151"/>
					</g>
				</g>
			</g>
		</g>
	</g>
	<g>
		<path fill-rule="evenodd" clip-rule="evenodd" fill="#0B4251" d="M257.248,132.584l0.121,0.181c0.1,0.146,0.31,0.193,0.472,0.105
			l5.014-2.726c0.162-0.087,0.218-0.279,0.123-0.43l0,0c-0.094-0.149-0.299-0.203-0.465-0.122l-5.137,2.545
			C257.201,132.225,257.142,132.429,257.248,132.584z"/>
		<path fill-rule="evenodd" clip-rule="evenodd" fill="#0B4251" d="M256.662,133.514l-0.132,8.145
			c-0.001,0.036,0.01,0.071,0.026,0.104c0.104,0.196,0.435,0.117,0.438-0.101l0.133-8.135c0.236-0.059,0.441-0.217,0.538-0.457
			c0.106-0.265,0.024-0.577-0.202-0.77c-0.413-0.352-1.068-0.217-1.28,0.256c-0.108,0.24-0.066,0.526,0.115,0.725
			C256.399,133.394,256.529,133.472,256.662,133.514z"/>
		
			<linearGradient id="SVGID_1_" gradientUnits="userSpaceOnUse" x1="543.668" y1="-94.6655" x2="543.1224" y2="-99.1084" gradientTransform="matrix(-0.9956 -0.0935 0.0935 -0.9956 806.9766 86.0879)">
			<stop  offset="0" style="stop-color:#5A595B"/>
			<stop  offset="1" style="stop-color:#000001"/>
		</linearGradient>
		<path fill-rule="evenodd" clip-rule="evenodd" fill="url(#SVGID_1_)" d="M256.886,133.368c-0.338-0.029-0.586-0.303-0.555-0.613
			s0.331-0.537,0.67-0.508c0.339,0.029,0.587,0.304,0.555,0.614C257.524,133.17,257.225,133.397,256.886,133.368z"/>
		<path fill-rule="evenodd" clip-rule="evenodd" fill="#0B4251" d="M256.738,133.386c-0.273-0.1-0.407-0.385-0.298-0.636
			c0.096-0.221,0.348-0.341,0.595-0.299l2.856-6.439l0.165,0.06l-2.776,6.485c0.171,0.133,0.239,0.355,0.152,0.556
			C257.322,133.364,257.013,133.486,256.738,133.386z"/>
		<path fill-rule="evenodd" clip-rule="evenodd" fill="#D4254F" d="M256.912,133.211c-0.168-0.015-0.293-0.152-0.277-0.307
			c0.016-0.154,0.167-0.268,0.334-0.253c0.17,0.014,0.294,0.151,0.279,0.306C257.23,133.112,257.081,133.226,256.912,133.211z"/>
	</g>
	<path fill="#FFFFFF" d="M246.146,132.513h-1.286c-0.121,0-0.221-0.091-0.221-0.202l0,0c0-0.111,0.1-0.202,0.221-0.202h1.286
		c0.121,0,0.22,0.09,0.22,0.202l0,0C246.366,132.422,246.268,132.513,246.146,132.513z"/>
	<path fill="#FFFFFF" d="M268.689,132.599h-1.285c-0.122,0-0.222-0.09-0.222-0.201l0,0c0-0.111,0.1-0.202,0.222-0.202h1.285
		c0.121,0,0.22,0.091,0.22,0.202l0,0C268.909,132.509,268.811,132.599,268.689,132.599z"/>
	<path fill="#FFFFFF" d="M256.602,122.624v-1.176c0-0.111,0.1-0.202,0.221-0.202l0,0c0.12,0,0.22,0.09,0.22,0.202v1.176
		c0,0.111-0.1,0.202-0.22,0.202l0,0C256.701,122.826,256.602,122.735,256.602,122.624z"/>
	<path fill="#FFFFFF" d="M256.507,143.26v-1.176c0-0.111,0.1-0.202,0.22-0.202l0,0c0.122,0,0.221,0.091,0.221,0.202v1.176
		c0,0.112-0.099,0.202-0.221,0.202l0,0C256.606,143.462,256.507,143.372,256.507,143.26z"/>
</g>
</svg>
