<?xml version="1.0" encoding="utf-8"?>
<!-- Generator: Adobe Illustrator 16.0.0, SVG Export Plug-In . SVG Version: 6.00 Build 0)  -->
<!DOCTYPE svg PUBLIC "-//W3C//DTD SVG 1.1//EN" "http://www.w3.org/Graphics/SVG/1.1/DTD/svg11.dtd">
<svg version="1.1" id="Capa_1" xmlns="http://www.w3.org/2000/svg" xmlns:xlink="http://www.w3.org/1999/xlink" x="0px" y="0px"
	 width="400px" height="400px" viewBox="0 0 400 400" enable-background="new 0 0 400 400" xml:space="preserve">
<g>
	<g>
		<path fill="#E5AE81" d="M283.396,123.026l0.768-0.795l1.4-1.452v-5.491l-1.547-5.741c0,0,3.717,0,4.646,4.243
			c1.24,1.248,1.24,1.248,1.24,1.248s6.816-6.739,8.055-5.99c1.24,0.749,0,4.992,0,4.992s0,2.996-0.619,4.993
			c-0.619,1.997-8.057,2.995-8.057,2.995l-1.393,2.87L283.396,123.026z"/>
		<path fill="#E5AE81" d="M174.447,110.781l-0.417-0.949l-0.763-1.733l2.147-5.211l3.715-5.056c0,0-3.529-0.943-6.07,2.848
			c-1.664,0.87-1.664,0.87-1.664,0.87s-3.834-8.126-5.304-7.73c-1.469,0.396-1.952,4.738-1.952,4.738s-1.171,2.842-1.364,4.895
			c-0.192,2.053,6.475,4.887,6.475,4.887l0.201,3.078L174.447,110.781z"/>
		<path fill="#518B8F" d="M156.02,316.745c0,0,59.253-10.109,121.99,2.246C278.01,318.991,213.879,327.976,156.02,316.745z"/>
		<g>
			<g>
				<g>
					<g>
						<path fill="#7E474A" d="M201.525,124.807c0,0-6.252,2.689-6.52,6.277c-0.268,3.588,3.144,13.172,3.144,13.172
							S208.229,129.896,201.525,124.807z"/>
						<path fill="#E5AE81" d="M230.764,154.146c-7.434,10.222-21.2,11.328-27.425,9.032s-11.876-9.494-9.027-14.509
							c2.85-5.014,3.22-9.041,3.653-15.779c0.436-6.738,8.521-10.058,8.521-10.058s14.885-5.928,27.307,3.649
							C246.213,136.057,230.764,154.146,230.764,154.146z"/>
						<path fill="#DA896F" d="M231.135,150.119c0,0,8.152-6.032,8.566-0.527S224.143,160.861,231.135,150.119z"/>
						<path fill="#DA896F" d="M228.975,135.13c0,0,0.508,9.148-0.438,13.238c-0.947,4.091-4.791,12.584-19.883,14.55
							c-5.441-0.818-11.792-4.191-11.792-4.191s2.975,4.982,10.66,5.835c7.685,0.852,17.767-2.168,23.153-9.221
							c4.096-6.339,7.594-18.21,7.594-18.21L228.975,135.13z"/>
						<path fill="#7E474A" d="M219.074,129.258c0,0-11.076,6.5-15.807,2.614s-13.582-14.287-4.24-20.593
							c9.342-6.307,35.43,2.603,42.381,16.346c-1.596,2.028-3.873,2.139-3.873,2.139s4.391,2.927,4.223,6.077
							c-0.607,2.629-6.207,12.22-6.207,12.22s-3.67,1.262-6.861,5.319l-1.973-1.204l6.752-12.139L219.074,129.258z"/>
						<path fill="#965C52" d="M208.32,110.861c0,0-9.566-0.833-10.489,4.774c0.891,5.878,33.67,10.199,34.008,8.738
							s-14.176-8.479-12.658-8.553c1.52-0.075,13.471,5.047,17.01,9.207C235.578,122.818,228.336,113.567,208.32,110.861z"/>
						<path fill="#965C52" d="M235.074,131.889c0,0,4.826-0.182,4.186,3.804c-0.861,3.726-3.09,3.618-4.57,2.715
							c-1.48-0.902-10.379-7.455-6.619-6.664C231.826,132.535,235.074,131.889,235.074,131.889z"/>
					</g>
					<path fill="#7E474A" d="M211.547,140.059c0,0,7.293,0.654,10.354,2.19c0.035-1.299-4.553-3.604-6.209-3.87
						C214.037,138.112,211.547,140.059,211.547,140.059z"/>
					<path fill="#7E474A" d="M204.822,138.533c0,0-5.438-0.196-7.899,0.646c0.159-0.955,3.85-2.219,5.102-2.261
						C203.275,136.875,204.822,138.533,204.822,138.533z"/>
					<path fill="#7E474A" d="M215.225,144.23c-0.186,0.805-0.832,1.384-1.443,1.292c-0.609-0.092-0.955-0.819-0.768-1.624
						c0.186-0.805,0.832-1.383,1.443-1.292S215.412,143.425,215.225,144.23z"/>
					<path fill="#7E474A" d="M202.156,142.267c-0.188,0.805-0.833,1.384-1.443,1.292c-0.611-0.092-0.955-0.819-0.77-1.624
						c0.188-0.805,0.834-1.384,1.445-1.292C201.998,140.734,202.342,141.461,202.156,142.267z"/>
					<path fill="#DA896F" d="M203.779,147.112l-8.757-2.987c0,0,0.105,6.514,6.45,5.982
						C203.561,150.049,203.779,147.112,203.779,147.112z"/>
				</g>
			</g>
			<path fill="#283543" d="M185.1,224.239c0,0,13.168,78.25,13.168,87.984c-0.465,0,2.324,0.375,2.324,0.375
				s-1.859,2.246-6.972,3.744c-3.718,1.496,11.153,0.373,13.013-0.75c-0.465-1.123-3.254-3.744-3.254-3.744
				c0.931-0.748-0.654-71.104-0.654-71.104s20.639,51.635,23.893,73.725c-0.465,0-0.465,0-0.465,0l3.252,1.498l-6.041,3.744
				c0,0,9.992,0,10.457-1.873c-0.465-1.871-0.93-3.369-0.93-3.369s-13.865-82.367-14.949-89.482
				C212.211,221.244,185.1,224.239,185.1,224.239z"/>
			<path fill="#F2F3CD" d="M214.533,166.956c0,0,13.246,5.99,14.641,6.926c1.395,0.936,3.641,2.683,3.641,2.683l-7.746,7.488
				c0,0-13.633,25.21-7.127,40.934c0,0-15.182,5.492-32.842-0.748c-0.711-3.762-4.338-5.242,0-45.178
				c0.62-3.245-1.239-8.986-1.239-8.986l23.237-2.247L214.533,166.956z"/>
			<path fill="#DA896F" d="M206.168,163.024c0,0,0.93,3.745-1.626,6.552c0.464,0.188,3.485,1.685,3.485,1.685l6.738-2.62
				l-1.162-5.617H206.168z"/>
			<path fill="#A38037" d="M202.451,168.828c0,0-2.17,3.744-2.17,5.491c0.619,0,6.197-1.997,6.197-1.997l5.266,4.742
				c0,0,4.648-3.744,4.338-7.737c0.93,1.997-1.238,8.237-3.717,9.484c-2.479-0.499-5.887-4.992-5.887-4.992l-8.676,2.746
				C197.803,176.565,199.042,171.823,202.451,168.828z"/>
			<polygon fill="#A38037" points="203.379,174.257 204.076,178.188 208.725,176.316 206.479,172.322 			"/>
			<path fill="#A38037" d="M206.506,176.32c0,0-7.842,27.506-8.399,40.384l-5.853,4.684l-4.069-6.732
				c0,0,11.401-30.512,16.063-39.448C205.593,176.179,206.506,176.32,206.506,176.32z"/>
			<path fill="#7E612E" d="M198.422,212.926c0.916-7.991,3.48-18.997,5.479-26.851l-3.967-1.319
				c-3.521,8.379-7.659,19.113-9.964,25.177C192.759,210.905,195.814,211.981,198.422,212.926z"/>
			<path fill="#242C34" d="M184.325,222.491c0,0,17.662,4.992,33.152,0.375c0.543,2.215,0.775,4.119,0.775,4.119
				s-17.506,4.117-32.843-0.749C185.1,226.236,184.325,222.491,184.325,222.491z"/>
			<path fill="#283543" d="M188.74,227.796l-1.162-4.68l3.021,0.748l0.697,5.242C191.296,229.106,189.205,227.983,188.74,227.796z"
				/>
			<path fill="#283543" d="M210.699,228.357l1.395-4.306l-3.252,0.375l-0.697,5.241
				C208.145,229.668,210.234,228.545,210.699,228.357z"/>
		</g>
		<path fill="#F2F3CD" d="M199.664,152.541c0,0,4.646,1.311,12.084-0.562c0,0-1.162,5.054-8.133,5.054
			C203.615,157.034,199.432,156.285,199.664,152.541z"/>
		<path fill="#F2F3CD" d="M225.068,184.053c0,0,46.865-47.05,64.525-59.78l-5.111-3.744c0,0-27.422,16.848-63.207,52.042
			L225.068,184.053z"/>
		<path fill="#F2F3CD" d="M192.46,170.7c0-1.124-14.872-41.185-16.266-61.776l-8.366,1.497c0,0,0.465,26.958,18.59,71.886
			c3.718-2.247,6.972-13.104,6.972-13.104"/>
		<g>
			<g>
				<path fill="#5A9E52" d="M252.336,108.237c0,0,3.873,10.858,15.492,13.604l6.584-5.928c0,0-12.084-4.867-12.859-12.355
					L252.336,108.237z"/>
				<ellipse fill="#94C234" cx="262.6" cy="113.479" rx="3.369" ry="2.714"/>
				<ellipse fill="#94C234" cx="254.892" cy="109.61" rx="0.774" ry="0.811"/>
				<path fill="#94C234" d="M267.33,119.351c0.494,0.205,0.736,0.619,0.541,0.925c-0.195,0.307-0.754,0.389-1.25,0.185
					c-0.494-0.205-0.736-0.62-0.541-0.926C266.275,119.229,266.836,119.146,267.33,119.351z"/>
				<path fill="#94C234" d="M272.059,115.346c0.395,0.163,0.588,0.492,0.432,0.736c-0.156,0.243-0.6,0.309-0.992,0.146
					c-0.395-0.163-0.588-0.493-0.432-0.736C271.223,115.25,271.668,115.184,272.059,115.346z"/>
				<ellipse fill="#94C234" cx="260.779" cy="106.365" rx="0.619" ry="0.649"/>
			</g>
			<g>
				<path fill="#5A9E52" d="M224.992,84.518c0,0-13.863-1.701-21.813,5.656l3.936,7.296c0,0,10.535-6.812,19.305-4.25
					L224.992,84.518z"/>
				<path fill="#94C234" d="M213.385,92.307c-1.689-0.626-2.43-2.238-1.652-3.6c0.777-1.362,2.777-1.958,4.469-1.333
					c1.689,0.626,2.432,2.238,1.654,3.6C217.076,92.337,215.076,92.933,213.385,92.307z"/>
				<path fill="#94C234" d="M222.053,86.383c-0.506-0.187-0.77-0.593-0.592-0.906c0.18-0.313,0.734-0.415,1.238-0.228
					c0.506,0.188,0.771,0.593,0.592,0.906S222.559,86.57,222.053,86.383z"/>
				<path fill="#94C234" d="M206.195,90.85c-0.438,0.276-1.007,0.281-1.271,0.01c-0.264-0.271-0.123-0.715,0.314-0.992
					s1.006-0.281,1.271-0.01C206.773,90.129,206.633,90.574,206.195,90.85z"/>
				<path fill="#94C234" d="M208.734,95.985c-0.348,0.22-0.799,0.223-1.01,0.008c-0.209-0.216-0.098-0.568,0.25-0.788
					c0.349-0.22,0.801-0.223,1.01-0.008C209.195,95.412,209.083,95.765,208.734,95.985z"/>
				<path fill="#94C234" d="M223.318,91.934c-0.404-0.15-0.615-0.474-0.475-0.725c0.145-0.25,0.588-0.332,0.992-0.183
					c0.404,0.15,0.615,0.475,0.473,0.725C224.166,92.002,223.723,92.083,223.318,91.934z"/>
			</g>
			<g>
				<path fill="#5A9E52" d="M164.55,115.208c0,0-13.863-1.701-21.813,5.656l3.936,7.296c0,0,10.537-6.811,19.306-4.25
					L164.55,115.208z"/>
				<path fill="#94C234" d="M152.943,122.996c-1.691-0.626-2.431-2.238-1.654-3.6c0.777-1.361,2.778-1.958,4.469-1.332
					c1.691,0.626,2.432,2.238,1.654,3.6C156.635,123.026,154.634,123.622,152.943,122.996z"/>
				<path fill="#94C234" d="M161.61,117.072c-0.505-0.188-0.77-0.593-0.591-0.906c0.179-0.313,0.733-0.415,1.238-0.228
					c0.505,0.187,0.77,0.593,0.591,0.906C162.67,117.157,162.116,117.259,161.61,117.072z"/>
				<path fill="#94C234" d="M145.752,121.539c-0.438,0.276-1.006,0.281-1.27,0.01c-0.265-0.271-0.124-0.715,0.314-0.992
					s1.006-0.281,1.271-0.01C146.33,120.818,146.189,121.263,145.752,121.539z"/>
				<path fill="#94C234" d="M148.293,126.674c-0.348,0.22-0.8,0.223-1.01,0.008c-0.21-0.216-0.098-0.568,0.249-0.788
					c0.348-0.22,0.8-0.223,1.01-0.008C148.752,126.101,148.64,126.454,148.293,126.674z"/>
				<path fill="#94C234" d="M162.875,122.623c-0.404-0.15-0.616-0.474-0.473-0.725c0.143-0.25,0.586-0.332,0.991-0.182
					c0.404,0.149,0.616,0.474,0.473,0.724C163.723,122.691,163.279,122.772,162.875,122.623z"/>
			</g>
			<g>
				<path fill="#5A9E52" d="M265.063,167.893c0,0,13.633,2.653,22.336-4.127l-3.143-7.54c0,0-11.225,6.057-19.688,2.899
					L265.063,167.893z"/>
				<path fill="#94C234" d="M277.457,160.936c1.617,0.741,2.184,2.398,1.264,3.701s-2.977,1.759-4.594,1.019
					c-1.617-0.741-2.184-2.398-1.264-3.702C273.783,160.651,275.84,160.195,277.457,160.936z"/>
				<path fill="#94C234" d="M268.191,166.239c0.482,0.221,0.703,0.643,0.492,0.943c-0.211,0.299-0.775,0.363-1.258,0.142
					c-0.484-0.222-0.705-0.644-0.494-0.944C267.145,166.081,267.707,166.017,268.191,166.239z"/>
				<path fill="#94C234" d="M284.465,162.885c0.467-0.246,1.033-0.211,1.268,0.078c0.234,0.288,0.047,0.721-0.418,0.966
					s-1.031,0.21-1.266-0.078C283.814,163.563,284.002,163.13,284.465,162.885z"/>
				<path fill="#94C234" d="M282.482,157.593c0.371-0.195,0.82-0.167,1.008,0.062c0.186,0.229,0.037,0.573-0.334,0.768
					c-0.369,0.195-0.82,0.167-1.006-0.062C281.965,158.131,282.113,157.788,282.482,157.593z"/>
				<path fill="#94C234" d="M267.521,160.621c0.387,0.177,0.564,0.515,0.395,0.754c-0.168,0.24-0.619,0.291-1.006,0.114
					c-0.389-0.177-0.564-0.515-0.395-0.755C266.686,160.494,267.135,160.443,267.521,160.621z"/>
			</g>
			<g>
				<path fill="#5A9E52" d="M298.516,206.47c0,0,13.631-2.653,17.531-11.889l-7.07-5.551c0,0-6.551,9.518-15.871,9.821
					L298.516,206.47z"/>
				<path fill="#94C234" d="M305.598,195.721c1.859,0.064,3.301,1.33,3.223,2.827c-0.078,1.498-1.65,2.661-3.51,2.596
					c-1.859-0.063-3.303-1.33-3.223-2.828C302.166,196.819,303.738,195.657,305.598,195.721z"/>
				<path fill="#94C234" d="M300.361,203.848c0.555,0.02,0.99,0.313,0.973,0.658c-0.02,0.345-0.484,0.608-1.039,0.589
					c-0.557-0.02-0.992-0.314-0.973-0.658C299.34,204.093,299.805,203.828,300.361,203.848z"/>
				<path fill="#94C234" d="M312.938,194.875c0.277-0.388,0.801-0.567,1.172-0.396c0.373,0.17,0.451,0.624,0.176,1.014
					s-0.801,0.567-1.172,0.396C312.742,195.719,312.664,195.266,312.938,194.875z"/>
				<path fill="#94C234" d="M308.174,190.898c0.219-0.31,0.635-0.45,0.93-0.315c0.297,0.136,0.359,0.497,0.141,0.806
					c-0.219,0.309-0.635,0.45-0.932,0.315C308.018,191.568,307.955,191.208,308.174,190.898z"/>
				<path fill="#94C234" d="M296.58,199.096c0.445,0.015,0.793,0.251,0.779,0.526c-0.016,0.276-0.387,0.487-0.83,0.472
					c-0.445-0.016-0.795-0.251-0.781-0.527C295.766,199.292,296.137,199.081,296.58,199.096z"/>
			</g>
			<g>
				<path fill="#5A9E52" d="M267.205,225.81c0,0-8.021-9.268-20.117-8.84l-3.854,7.324c0,0,13.389,1.461,17.123,8.345
					L267.205,225.81z"/>
				<path fill="#94C234" d="M252.199,224.398c-0.6-1.419,0.34-2.962,2.102-3.446c1.76-0.484,3.676,0.273,4.277,1.692
					s-0.338,2.962-2.1,3.445C254.717,226.575,252.801,225.817,252.199,224.398z"/>
				<path fill="#94C234" d="M263.502,225.378c-0.18-0.424,0.002-0.857,0.408-0.969c0.404-0.111,0.879,0.142,1.057,0.566
					c0.18,0.424-0.002,0.857-0.406,0.969C264.154,226.056,263.682,225.802,263.502,225.378z"/>
				<path fill="#94C234" d="M248.557,219.195c-0.549-0.065-0.945-0.394-0.885-0.735c0.063-0.341,0.559-0.564,1.109-0.5
					c0.551,0.066,0.947,0.395,0.885,0.736C249.604,219.036,249.107,219.261,248.557,219.195z"/>
				<path fill="#94C234" d="M245.688,224.217c-0.438-0.052-0.752-0.313-0.703-0.585c0.049-0.27,0.445-0.449,0.881-0.396
					c0.438,0.051,0.752,0.313,0.703,0.584S246.125,224.269,245.688,224.217z"/>
				<path fill="#94C234" d="M259.379,229.94c-0.145-0.338,0.002-0.686,0.326-0.774c0.324-0.09,0.703,0.113,0.846,0.452
					c0.145,0.34-0.002,0.687-0.326,0.775C259.902,230.483,259.521,230.28,259.379,229.94z"/>
			</g>
			<g>
				<path fill="#5A9E52" d="M161.491,200.302c0,0-8.02-9.267-20.117-8.84l-3.853,7.324c0,0,13.387,1.461,17.124,8.345
					L161.491,200.302z"/>
				<path fill="#94C234" d="M146.487,198.89c-0.601-1.418,0.339-2.961,2.1-3.445c1.761-0.485,3.676,0.273,4.277,1.691
					c0.601,1.419-0.339,2.961-2.1,3.445C149.003,201.066,147.088,200.309,146.487,198.89z"/>
				<path fill="#94C234" d="M157.789,199.87c-0.18-0.424,0.003-0.858,0.407-0.969c0.405-0.112,0.879,0.142,1.059,0.566
					c0.18,0.424-0.003,0.858-0.408,0.969C158.442,200.548,157.968,200.294,157.789,199.87z"/>
				<path fill="#94C234" d="M142.844,193.688c-0.55-0.064-0.946-0.394-0.884-0.735c0.062-0.341,0.558-0.564,1.108-0.5
					c0.55,0.065,0.946,0.394,0.884,0.735S143.394,193.752,142.844,193.688z"/>
				<path fill="#94C234" d="M139.974,198.708c-0.438-0.052-0.751-0.313-0.702-0.584c0.049-0.271,0.443-0.449,0.881-0.397
					c0.437,0.052,0.751,0.313,0.703,0.584C140.806,198.583,140.411,198.76,139.974,198.708z"/>
				<path fill="#94C234" d="M153.666,204.433c-0.144-0.339,0.002-0.687,0.326-0.774c0.324-0.09,0.703,0.113,0.847,0.452
					c0.144,0.339-0.002,0.686-0.326,0.775C154.188,204.975,153.809,204.772,153.666,204.433z"/>
			</g>
			<g>
				<path fill="#5A9E52" d="M155.467,257.921c0,0,13.879-1.617,18.833-10.518l-6.396-6.059c0,0-7.626,8.982-16.94,8.586
					L155.467,257.921z"/>
				<path fill="#94C234" d="M163.764,247.753c1.844,0.203,3.134,1.572,2.881,3.057c-0.252,1.486-1.952,2.525-3.795,2.322
					c-1.844-0.205-3.134-1.574-2.881-3.059C160.221,248.587,161.92,247.548,163.764,247.753z"/>
				<path fill="#94C234" d="M157.607,255.448c0.551,0.063,0.951,0.389,0.893,0.73c-0.058,0.34-0.552,0.568-1.103,0.508
					c-0.551-0.061-0.951-0.387-0.893-0.729C156.563,255.616,157.057,255.388,157.607,255.448z"/>
				<path fill="#94C234" d="M171.17,247.464c0.319-0.367,0.862-0.504,1.212-0.307s0.376,0.654,0.057,1.021
					c-0.319,0.367-0.862,0.504-1.212,0.307C170.877,248.288,170.852,247.831,171.17,247.464z"/>
				<path fill="#94C234" d="M166.887,243.146c0.253-0.293,0.685-0.402,0.963-0.244c0.278,0.156,0.299,0.52,0.045,0.813
					c-0.253,0.291-0.685,0.4-0.963,0.242C166.654,243.8,166.634,243.437,166.887,243.146z"/>
				<path fill="#94C234" d="M154.395,250.435c0.441,0.049,0.761,0.309,0.714,0.582s-0.441,0.455-0.882,0.406
					s-0.76-0.309-0.714-0.582S153.954,250.386,154.395,250.435z"/>
			</g>
			<g>
				<path fill="#5A9E52" d="M126.886,170.316c0,0,13.878-1.617,18.833-10.518l-6.397-6.06c0,0-7.626,8.984-16.94,8.586
					L126.886,170.316z"/>
				<path fill="#94C234" d="M135.183,160.146c1.844,0.204,3.133,1.573,2.881,3.058c-0.252,1.484-1.952,2.524-3.796,2.32
					c-1.844-0.204-3.133-1.572-2.881-3.058C131.64,160.981,133.339,159.943,135.183,160.146z"/>
				<path fill="#94C234" d="M129.026,167.844c0.551,0.061,0.951,0.387,0.893,0.729s-0.552,0.569-1.103,0.508
					c-0.551-0.062-0.951-0.387-0.893-0.729C127.982,168.01,128.476,167.783,129.026,167.844z"/>
				<path fill="#94C234" d="M142.589,159.857c0.319-0.367,0.862-0.504,1.212-0.306c0.351,0.198,0.376,0.655,0.057,1.022
					c-0.319,0.367-0.861,0.505-1.212,0.307S142.271,160.224,142.589,159.857z"/>
				<path fill="#94C234" d="M138.307,155.539c0.253-0.292,0.685-0.401,0.963-0.244c0.279,0.158,0.299,0.521,0.046,0.813
					c-0.254,0.292-0.685,0.4-0.963,0.244C138.073,156.194,138.053,155.831,138.307,155.539z"/>
				<path fill="#94C234" d="M125.814,162.829c0.441,0.049,0.76,0.309,0.714,0.583c-0.046,0.273-0.441,0.455-0.882,0.406
					c-0.44-0.048-0.76-0.309-0.714-0.582C124.978,162.961,125.374,162.78,125.814,162.829z"/>
			</g>
			<g>
				<path fill="#5A9E52" d="M214.639,201.801c0,0,13.879-1.617,18.834-10.518l-6.396-6.059c0,0-7.627,8.983-16.941,8.585
					L214.639,201.801z"/>
				<path fill="#94C234" d="M222.938,191.632c1.842,0.204,3.133,1.573,2.879,3.058c-0.252,1.485-1.951,2.524-3.795,2.321
					s-3.133-1.572-2.881-3.058S221.092,191.429,222.938,191.632z"/>
				<path fill="#94C234" d="M216.779,199.33c0.551,0.061,0.951,0.387,0.893,0.728c-0.059,0.342-0.551,0.569-1.102,0.508
					c-0.553-0.061-0.951-0.387-0.895-0.729C215.736,199.496,216.229,199.269,216.779,199.33z"/>
				<path fill="#94C234" d="M230.342,191.343c0.32-0.367,0.863-0.504,1.213-0.307c0.35,0.198,0.375,0.656,0.057,1.023
					c-0.318,0.367-0.861,0.504-1.211,0.307C230.049,192.167,230.023,191.71,230.342,191.343z"/>
				<path fill="#94C234" d="M226.061,187.024c0.254-0.291,0.684-0.4,0.963-0.244c0.277,0.157,0.299,0.521,0.045,0.813
					c-0.254,0.292-0.686,0.401-0.963,0.244C225.826,187.68,225.807,187.316,226.061,187.024z"/>
				<path fill="#94C234" d="M213.566,194.314c0.441,0.048,0.762,0.309,0.715,0.582s-0.441,0.456-0.883,0.407
					c-0.439-0.049-0.76-0.309-0.713-0.583C212.73,194.447,213.127,194.266,213.566,194.314z"/>
			</g>
			<g>
				<path fill="#5A9E52" d="M277.137,263.694c0,0,13.879-1.619,18.834-10.52l-6.396-6.059c0,0-7.627,8.984-16.939,8.586
					L277.137,263.694z"/>
				<path fill="#94C234" d="M285.436,253.524c1.842,0.203,3.133,1.572,2.881,3.057c-0.252,1.486-1.953,2.525-3.797,2.322
					c-1.844-0.205-3.133-1.572-2.879-3.059C281.893,254.36,283.592,253.321,285.436,253.524z"/>
				<path fill="#94C234" d="M279.277,261.222c0.553,0.061,0.951,0.387,0.895,0.727c-0.059,0.344-0.553,0.57-1.104,0.51
					s-0.951-0.387-0.893-0.729S278.729,261.161,279.277,261.222z"/>
				<path fill="#94C234" d="M292.842,253.235c0.318-0.367,0.861-0.504,1.211-0.307c0.352,0.197,0.377,0.654,0.059,1.021
					s-0.863,0.504-1.213,0.307S292.523,253.603,292.842,253.235z"/>
				<path fill="#94C234" d="M288.559,248.915c0.254-0.291,0.686-0.4,0.963-0.242c0.279,0.156,0.299,0.52,0.047,0.813
					c-0.254,0.291-0.686,0.4-0.963,0.242C288.324,249.571,288.307,249.208,288.559,248.915z"/>
				<path fill="#94C234" d="M276.066,256.206c0.439,0.049,0.76,0.309,0.713,0.582c-0.045,0.273-0.441,0.455-0.881,0.406
					c-0.441-0.049-0.762-0.309-0.715-0.582S275.625,256.157,276.066,256.206z"/>
			</g>
			<g>
				<path fill="#5A9E52" d="M217.432,273.126c0,0,8.727,8.844,20.766,7.809l3.275-7.504c0,0-13.475-0.783-17.74-7.465
					L217.432,273.126z"/>
				<path fill="#94C234" d="M232.516,273.776c0.711,1.387-0.107,2.975-1.828,3.547c-1.719,0.572-3.689-0.088-4.4-1.473
					c-0.711-1.387,0.109-2.973,1.828-3.545C229.836,271.733,231.807,272.392,232.516,273.776z"/>
				<path fill="#94C234" d="M221.16,273.37c0.213,0.414,0.064,0.857-0.33,0.988c-0.396,0.131-0.889-0.098-1.102-0.512
					c-0.211-0.414-0.064-0.857,0.332-0.988C220.455,272.728,220.949,272.956,221.16,273.37z"/>
				<path fill="#94C234" d="M236.557,278.786c0.555,0.037,0.975,0.346,0.939,0.689s-0.512,0.592-1.066,0.555
					s-0.977-0.346-0.939-0.689C235.525,278.997,236.002,278.749,236.557,278.786z"/>
				<path fill="#94C234" d="M239.031,273.63c0.439,0.029,0.773,0.275,0.746,0.549s-0.408,0.469-0.85,0.439
					c-0.439-0.029-0.773-0.273-0.746-0.547C238.211,273.798,238.59,273.601,239.031,273.63z"/>
				<path fill="#94C234" d="M224.92,268.608c0.17,0.332,0.053,0.686-0.264,0.789c-0.316,0.107-0.711-0.076-0.881-0.408
					s-0.051-0.686,0.266-0.791C224.357,268.095,224.752,268.276,224.92,268.608z"/>
			</g>
			<g>
				<path fill="#5A9E52" d="M136.51,292.294c0,0,8.725,8.846,20.765,7.809l3.276-7.504c0,0-13.475-0.781-17.739-7.465
					L136.51,292.294z"/>
				<path fill="#94C234" d="M151.594,292.946c0.71,1.385-0.108,2.973-1.828,3.545c-1.72,0.572-3.69-0.086-4.4-1.473
					c-0.711-1.385,0.107-2.973,1.827-3.545C148.913,290.901,150.883,291.562,151.594,292.946z"/>
				<path fill="#94C234" d="M140.238,292.54c0.212,0.414,0.064,0.855-0.331,0.986c-0.396,0.133-0.888-0.098-1.101-0.512
					s-0.063-0.855,0.332-0.986C139.534,291.896,140.026,292.126,140.238,292.54z"/>
				<path fill="#94C234" d="M155.634,297.956c0.555,0.035,0.975,0.344,0.94,0.688c-0.036,0.344-0.514,0.592-1.068,0.555
					s-0.975-0.346-0.939-0.689C154.603,298.167,155.081,297.919,155.634,297.956z"/>
				<path fill="#94C234" d="M158.108,292.8c0.44,0.029,0.774,0.273,0.747,0.547c-0.028,0.273-0.408,0.471-0.849,0.441
					s-0.775-0.275-0.747-0.549C157.288,292.968,157.668,292.769,158.108,292.8z"/>
				<path fill="#94C234" d="M143.999,287.776c0.17,0.332,0.051,0.686-0.265,0.791s-0.71-0.078-0.88-0.41
					c-0.17-0.33-0.051-0.684,0.265-0.789S143.829,287.446,143.999,287.776z"/>
			</g>
			<g>
				<path fill="#5A9E52" d="M246.432,312.161c0,0,8.725,8.846,20.766,7.809l3.275-7.504c0,0-13.475-0.781-17.738-7.465
					L246.432,312.161z"/>
				<path fill="#94C234" d="M261.516,312.813c0.711,1.387-0.107,2.973-1.828,3.545c-1.719,0.572-3.689-0.086-4.398-1.473
					c-0.711-1.385,0.107-2.973,1.826-3.545C258.836,310.769,260.807,311.429,261.516,312.813z"/>
				<path fill="#94C234" d="M250.16,312.407c0.213,0.414,0.064,0.855-0.33,0.988c-0.396,0.131-0.889-0.098-1.1-0.512
					c-0.213-0.414-0.064-0.857,0.33-0.988C249.457,311.765,249.949,311.993,250.16,312.407z"/>
				<path fill="#94C234" d="M265.557,317.823c0.555,0.037,0.975,0.346,0.939,0.688c-0.035,0.344-0.514,0.592-1.068,0.555
					c-0.553-0.035-0.973-0.346-0.938-0.688C264.525,318.034,265.002,317.786,265.557,317.823z"/>
				<path fill="#94C234" d="M268.031,312.667c0.439,0.029,0.775,0.273,0.746,0.547c-0.027,0.273-0.408,0.471-0.848,0.441
					c-0.441-0.029-0.775-0.275-0.748-0.547C267.211,312.835,267.59,312.638,268.031,312.667z"/>
				<path fill="#94C234" d="M253.922,307.646c0.17,0.33,0.051,0.684-0.266,0.789s-0.711-0.078-0.881-0.408
					c-0.17-0.332-0.051-0.686,0.266-0.791S253.752,307.313,253.922,307.646z"/>
			</g>
			<g>
				<path fill="#5A9E52" d="M167.987,162.87c0,0,8.725,8.844,20.765,7.808l3.276-7.504c0,0-13.475-0.782-17.74-7.464L167.987,162.87
					z"/>
				<path fill="#94C234" d="M183.071,163.521c0.71,1.386-0.108,2.973-1.828,3.545c-1.72,0.573-3.69-0.087-4.4-1.473
					c-0.71-1.385,0.108-2.972,1.828-3.544C180.39,161.477,182.36,162.136,183.071,163.521z"/>
				<path fill="#94C234" d="M171.715,163.114c0.212,0.415,0.064,0.857-0.331,0.988c-0.396,0.132-0.888-0.098-1.101-0.511
					c-0.212-0.414-0.064-0.856,0.332-0.988C171.011,162.471,171.503,162.7,171.715,163.114z"/>
				<path fill="#94C234" d="M187.111,168.53c0.554,0.037,0.975,0.346,0.939,0.689s-0.513,0.592-1.068,0.555
					c-0.554-0.037-0.975-0.345-0.939-0.689C186.079,168.741,186.557,168.494,187.111,168.53z"/>
				<path fill="#94C234" d="M189.585,163.375c0.441,0.029,0.775,0.274,0.747,0.547c-0.028,0.273-0.408,0.471-0.848,0.441
					c-0.44-0.03-0.775-0.275-0.747-0.548C188.765,163.542,189.145,163.345,189.585,163.375z"/>
				<path fill="#94C234" d="M175.476,158.352c0.169,0.332,0.051,0.686-0.265,0.791c-0.316,0.105-0.71-0.078-0.88-0.409
					c-0.17-0.332-0.051-0.686,0.265-0.791C174.912,157.837,175.306,158.021,175.476,158.352z"/>
			</g>
			<g>
				<path fill="#5A9E52" d="M114.015,243.907c0,0,13.586-2.797,17.334-12.074l-7.161-5.476c0,0-6.395,9.587-15.708,9.99
					L114.015,243.907z"/>
				<path fill="#94C234" d="M120.92,233.085c1.86,0.044,3.323,1.295,3.269,2.793s-1.607,2.678-3.467,2.633
					c-1.86-0.045-3.323-1.294-3.269-2.793C117.508,234.22,119.06,233.04,120.92,233.085z"/>
				<path fill="#94C234" d="M115.816,241.267c0.556,0.014,0.997,0.303,0.984,0.648c-0.013,0.344-0.474,0.611-1.029,0.6
					c-0.556-0.014-0.997-0.303-0.984-0.648C114.8,241.522,115.26,241.253,115.816,241.267z"/>
				<path fill="#94C234" d="M128.247,232.161c0.269-0.392,0.79-0.574,1.165-0.408s0.46,0.619,0.192,1.012s-0.79,0.575-1.165,0.408
					C128.063,233.007,127.978,232.554,128.247,232.161z"/>
				<path fill="#94C234" d="M123.417,228.235c0.213-0.313,0.628-0.457,0.926-0.325c0.297,0.132,0.366,0.493,0.152,0.804
					c-0.214,0.313-0.628,0.457-0.926,0.325C123.272,228.907,123.204,228.547,123.417,228.235z"/>
				<path fill="#94C234" d="M111.959,236.556c0.445,0.011,0.797,0.242,0.787,0.518s-0.378,0.49-0.823,0.48
					c-0.445-0.012-0.797-0.243-0.787-0.519S111.515,236.544,111.959,236.556z"/>
			</g>
		</g>
		<g>
			<path fill="#F2F3CD" d="M275.871,201.045l0.936-1.91c0.268-0.547,1.229-0.547,1.496,0l0.936,1.91
				c0.082,0.168,0.246,0.301,0.453,0.366l2.371,0.753c0.68,0.217,0.68,0.99,0,1.207l-2.371,0.753
				c-0.207,0.066-0.371,0.199-0.453,0.365l-0.936,1.91c-0.268,0.548-1.229,0.548-1.496,0l-0.936-1.91
				c-0.082-0.166-0.246-0.299-0.453-0.365l-2.371-0.753c-0.68-0.217-0.68-0.99,0-1.207l2.371-0.753
				C275.625,201.346,275.789,201.213,275.871,201.045z"/>
			<path fill="#F2F3CD" d="M244.865,255.788l0.682-1.393c0.195-0.4,0.898-0.4,1.092,0l0.684,1.393
				c0.061,0.123,0.18,0.219,0.332,0.268l1.729,0.549c0.496,0.158,0.496,0.723,0,0.881l-1.729,0.551
				c-0.152,0.047-0.271,0.145-0.332,0.266l-0.684,1.395c-0.193,0.398-0.896,0.398-1.092,0l-0.682-1.395
				c-0.061-0.121-0.18-0.219-0.332-0.266l-1.73-0.551c-0.496-0.158-0.496-0.723,0-0.881l1.73-0.549
				C244.686,256.007,244.805,255.911,244.865,255.788z"/>
			<path fill="#F2F3CD" d="M132.508,214.13l0.682-1.394c0.196-0.399,0.897-0.399,1.093,0l0.682,1.394
				c0.06,0.123,0.18,0.219,0.331,0.268l1.731,0.549c0.496,0.158,0.496,0.723,0,0.881l-1.731,0.55
				c-0.151,0.048-0.271,0.144-0.331,0.267l-0.682,1.394c-0.196,0.399-0.897,0.399-1.093,0l-0.682-1.394
				c-0.06-0.123-0.18-0.219-0.331-0.267l-1.73-0.55c-0.496-0.158-0.496-0.723,0-0.881l1.73-0.549
				C132.328,214.349,132.448,214.253,132.508,214.13z"/>
			<path fill="#F2F3CD" d="M116.241,143.368l0.683-1.394c0.195-0.399,0.897-0.399,1.093,0l0.682,1.394
				c0.06,0.122,0.18,0.219,0.331,0.267l1.73,0.55c0.496,0.158,0.496,0.723,0,0.881l-1.73,0.549
				c-0.151,0.048-0.271,0.145-0.331,0.267l-0.682,1.394c-0.196,0.399-0.897,0.399-1.093,0l-0.683-1.394
				c-0.06-0.122-0.18-0.219-0.331-0.267l-1.73-0.549c-0.496-0.158-0.496-0.723,0-0.881l1.73-0.55
				C116.062,143.587,116.182,143.49,116.241,143.368z"/>
			<path fill="#F2F3CD" d="M247.27,94.017l0.443-0.901c0.125-0.258,0.578-0.258,0.705,0l0.441,0.901
				c0.039,0.079,0.117,0.142,0.213,0.172l1.119,0.355c0.322,0.102,0.322,0.467,0,0.569l-1.119,0.355
				c-0.096,0.031-0.174,0.094-0.213,0.172l-0.441,0.901c-0.127,0.258-0.58,0.258-0.705,0l-0.443-0.901
				c-0.037-0.079-0.113-0.141-0.213-0.172l-1.117-0.355c-0.322-0.102-0.322-0.467,0-0.569l1.117-0.355
				C247.156,94.158,247.232,94.096,247.27,94.017z"/>
			<path fill="#F2F3CD" d="M308.453,236.468l0.441-0.901c0.127-0.259,0.582-0.259,0.707,0l0.441,0.901
				c0.039,0.078,0.115,0.141,0.215,0.172l1.117,0.355c0.32,0.102,0.32,0.467,0,0.568l-1.117,0.356
				c-0.1,0.03-0.176,0.093-0.215,0.173l-0.441,0.9c-0.125,0.258-0.58,0.258-0.707,0l-0.441-0.9c-0.037-0.08-0.115-0.143-0.213-0.173
				l-1.119-0.356c-0.32-0.102-0.32-0.467,0-0.568l1.119-0.355C308.338,236.608,308.416,236.546,308.453,236.468z"/>
			<path fill="#F2F3CD" d="M159.901,273.78l0.714-1.459c0.205-0.418,0.939-0.418,1.144,0l0.714,1.459
				c0.063,0.127,0.188,0.229,0.346,0.277l1.811,0.576c0.519,0.164,0.519,0.756,0,0.922l-1.811,0.574
				c-0.159,0.051-0.284,0.152-0.346,0.279l-0.714,1.459c-0.205,0.418-0.939,0.418-1.144,0l-0.714-1.459
				c-0.063-0.127-0.188-0.229-0.347-0.279l-1.811-0.574c-0.519-0.166-0.519-0.758,0-0.922l1.811-0.576
				C159.713,274.009,159.838,273.907,159.901,273.78z"/>
			<path fill="#F2F3CD" d="M269.346,301.327l0.271-0.557c0.078-0.16,0.359-0.16,0.438,0l0.271,0.557
				c0.025,0.049,0.072,0.086,0.133,0.105l0.691,0.219c0.197,0.064,0.197,0.289,0,0.352l-0.691,0.221
				c-0.061,0.018-0.107,0.057-0.133,0.105l-0.271,0.557c-0.078,0.158-0.359,0.158-0.438,0l-0.271-0.557
				c-0.023-0.049-0.07-0.088-0.131-0.105l-0.691-0.221c-0.197-0.063-0.197-0.287,0-0.352l0.691-0.219
				C269.275,301.413,269.322,301.376,269.346,301.327z"/>
		</g>
		<g>
			<g>
				<path fill="#8EE2E3" d="M119.917,188.111l-0.935-1.91c-0.268-0.548-1.229-0.548-1.498,0l-0.936,1.91
					c-0.082,0.167-0.246,0.3-0.454,0.365l-2.371,0.753c-0.68,0.216-0.68,0.99,0,1.206l2.371,0.753
					c0.208,0.066,0.372,0.199,0.454,0.366l0.936,1.91c0.268,0.547,1.229,0.547,1.498,0l0.935-1.91
					c0.082-0.167,0.246-0.299,0.454-0.366l2.371-0.753c0.679-0.216,0.679-0.99,0-1.206l-2.371-0.753
					C120.164,188.411,120,188.278,119.917,188.111z"/>
				<path fill="#8EE2E3" d="M150.924,242.854l-0.682-1.395c-0.195-0.398-0.897-0.398-1.093,0l-0.683,1.395
					c-0.059,0.121-0.179,0.219-0.331,0.266l-1.73,0.551c-0.496,0.156-0.496,0.723,0,0.881l1.73,0.549
					c0.151,0.047,0.271,0.145,0.331,0.266l0.683,1.395c0.196,0.4,0.898,0.4,1.093,0l0.682-1.395c0.06-0.121,0.18-0.219,0.331-0.266
					l1.73-0.549c0.496-0.158,0.496-0.725,0-0.881l-1.73-0.551C151.104,243.073,150.984,242.976,150.924,242.854z"/>
				<path fill="#8EE2E3" d="M263.281,201.195l-0.684-1.394c-0.195-0.399-0.896-0.399-1.092,0l-0.682,1.394
					c-0.061,0.121-0.18,0.219-0.332,0.267l-1.73,0.55c-0.496,0.158-0.496,0.723,0,0.881l1.73,0.549
					c0.152,0.049,0.271,0.145,0.332,0.268l0.682,1.394c0.195,0.398,0.896,0.398,1.092,0l0.684-1.394
					c0.059-0.123,0.18-0.219,0.332-0.268l1.729-0.549c0.496-0.158,0.496-0.723,0-0.881l-1.729-0.55
					C263.461,201.414,263.34,201.316,263.281,201.195z"/>
				<path fill="#8EE2E3" d="M279.547,130.433l-0.684-1.394c-0.193-0.399-0.896-0.399-1.092,0l-0.682,1.394
					c-0.061,0.122-0.18,0.219-0.33,0.267l-1.732,0.55c-0.494,0.157-0.494,0.723,0,0.88l1.732,0.549
					c0.15,0.049,0.27,0.145,0.33,0.267l0.682,1.394c0.195,0.4,0.898,0.4,1.092,0l0.684-1.394c0.061-0.122,0.18-0.218,0.332-0.267
					l1.73-0.549c0.494-0.158,0.494-0.723,0-0.88l-1.73-0.55C279.727,130.652,279.607,130.555,279.547,130.433z"/>
				<path fill="#8EE2E3" d="M148.518,81.082l-0.441-0.901c-0.126-0.258-0.58-0.258-0.707,0l-0.441,0.901
					c-0.039,0.079-0.116,0.141-0.214,0.172l-1.119,0.355c-0.321,0.102-0.321,0.467,0,0.569l1.119,0.355
					c0.098,0.031,0.175,0.093,0.214,0.172l0.441,0.901c0.126,0.258,0.58,0.258,0.707,0l0.441-0.901
					c0.039-0.079,0.116-0.141,0.214-0.172l1.119-0.355c0.32-0.102,0.32-0.467,0-0.569l-1.119-0.355
					C148.634,81.223,148.556,81.161,148.518,81.082z"/>
				<path fill="#8EE2E3" d="M87.334,223.532l-0.44-0.9c-0.127-0.26-0.58-0.26-0.707,0l-0.441,0.9
					c-0.039,0.08-0.116,0.141-0.214,0.173l-1.119,0.354c-0.321,0.102-0.321,0.468,0,0.569l1.119,0.356
					c0.098,0.03,0.175,0.093,0.214,0.172l0.441,0.9c0.127,0.259,0.58,0.259,0.707,0l0.44-0.9c0.039-0.079,0.116-0.142,0.214-0.172
					l1.118-0.356c0.321-0.102,0.321-0.468,0-0.569l-1.118-0.354C87.45,223.673,87.373,223.612,87.334,223.532z"/>
				<path fill="#8EE2E3" d="M235.887,260.845l-0.713-1.459c-0.205-0.418-0.939-0.418-1.145,0l-0.715,1.459
					c-0.063,0.127-0.188,0.229-0.346,0.279l-1.811,0.574c-0.52,0.166-0.52,0.758,0,0.922l1.811,0.576
					c0.158,0.049,0.283,0.15,0.346,0.277l0.715,1.459c0.205,0.418,0.939,0.418,1.145,0l0.713-1.459
					c0.063-0.127,0.188-0.229,0.348-0.277l1.809-0.576c0.52-0.164,0.52-0.756,0-0.922l-1.809-0.574
					C236.074,261.073,235.949,260.972,235.887,260.845z"/>
				<path fill="#8EE2E3" d="M126.442,288.392l-0.272-0.557c-0.078-0.158-0.358-0.158-0.436,0l-0.272,0.557
					c-0.024,0.049-0.072,0.088-0.132,0.105l-0.69,0.221c-0.198,0.063-0.198,0.287,0,0.35l0.69,0.221
					c0.06,0.02,0.108,0.057,0.132,0.105l0.272,0.557c0.078,0.16,0.358,0.16,0.436,0l0.272-0.557
					c0.024-0.049,0.072-0.086,0.132-0.105l0.69-0.221c0.198-0.063,0.198-0.287,0-0.35l-0.69-0.221
					C126.514,288.479,126.466,288.44,126.442,288.392z"/>
			</g>
		</g>
	</g>
</g>
</svg>
