<?xml version="1.0" encoding="utf-8"?>
<!-- Generator: Adobe Illustrator 16.0.0, SVG Export Plug-In . SVG Version: 6.00 Build 0)  -->
<!DOCTYPE svg PUBLIC "-//W3C//DTD SVG 1.1//EN" "http://www.w3.org/Graphics/SVG/1.1/DTD/svg11.dtd">
<svg version="1.1" id="Capa_1" xmlns="http://www.w3.org/2000/svg" xmlns:xlink="http://www.w3.org/1999/xlink" x="0px" y="0px"
	 width="400px" height="400px" viewBox="0 0 400 400" enable-background="new 0 0 400 400" xml:space="preserve">
<polygon fill="#8E7A7E" points="321.074,251.511 323.619,254.183 323.703,251.511 321.119,250.199 "/>
<polygon fill="#E98543" points="229.211,218.241 171.557,218.241 169.442,193.486 231.328,193.486 "/>
<g>
	<polygon fill="#E7C8B4" points="216.635,215.537 218.054,203.752 210.814,205.343 211.475,217.112 217.105,216.521 	"/>
</g>
<g>
	<polygon fill="#E7C8B4" points="170.303,203.565 178.667,210.633 179.818,220.382 190.275,219.592 187.537,193.207 
		169.442,193.486 	"/>
</g>
<g>
	<path fill="#FFF8EF" d="M229.761,174.632c-0.053-0.026-0.106-0.045-0.161-0.066c0.018-0.004,0.035-0.008,0.053-0.011
		c2.028-3.042,2.812-7.403,2.814-11.329c0.007-5.566-0.938-11.327-3.644-15.859c-2.608-4.368-7.091-7.919-11.456-7.265
		c1.037-0.255,1.998-0.93,2.682-1.906c0.787-1.127,1.014-2.524,0.925-4.003c-1.556,2.686-3.665,4.62-6.139,5.959
		c-0.016-0.008-0.03-0.016-0.046-0.022c1.164-1.007,1.893-2.714,1.877-4.455c-0.006-0.405-0.051-0.824-0.212-1.182
		c-0.165-0.36-0.307-0.611-0.644-0.63c-0.568,2.115-1.137,3.891-2.004,5.813c-0.003-0.001-0.006-0.002-0.01-0.004
		c-0.09-0.04-0.178-0.078-0.268-0.114c-0.684-0.986-3.393-3.051-3.748-3.285c-1.4-0.941-2.879-1.612-4.439-2.021
		c-9.062-2.374-20.676-0.457-26.577,9.006c-2.144,3.442-3.275,7.725-3.56,12.041c-0.334,5.137,0.698,10.667,2.585,15.312
		c0.705,0.278,1.416,0.541,2.126,0.8c0.066,0.506,0.133,1.012,0.198,1.518c0,0.001,0,0.001,0,0.001
		c-0.301-0.331-0.679-0.606-1.16-0.807c-0.759-0.315-1.674-0.225-2.295,0.363c-0.748,0.707-0.923,1.926-0.913,3.029
		c0.034,3.811,1.789,7.59,4.632,9.628c0.077,0.056,0.164,0.109,0.251,0.146c-0.146,2.041-0.213,4.091,0.47,5.994
		c0.99,2.734,2.514,5.255,4.603,7.07c2.538,2.203,5.63,3.433,8.76,4.184c7.392,1.769,16.901,1.699,23.137-3.787
		c0.118-0.104,0.235-0.208,0.351-0.32c0.251-0.23,0.492-0.471,0.725-0.721c2.411-2.581,3.259-6.165,3.898-9.852c0,0,0,0,0-0.001
		c0,0.001,0.001,0.002,0.002,0.002c0.033,0.034,0.072,0.056,0.114,0.078c0.215,0.108,0.472,0.03,0.722-0.078
		c0.188-0.087,0.371-0.191,0.528-0.252c1.05-0.396,2.036-0.882,2.956-1.581c1.791-1.362,3.236-3.322,4.022-5.606
		c0.353-1.021,0.583-2.128,0.44-3.208C231.213,176.125,230.65,175.069,229.761,174.632z M225.619,176.324c0,0.001,0,0.001,0,0.002
		V176.324c0.15-0.344,0.301-0.684,0.453-1.025c0.23-0.043,0.459-0.082,0.688-0.127C226.34,175.496,225.961,175.894,225.619,176.324z
		"/>
	<path fill="#FFF8EF" d="M234.957,163.021c0.604-1.446,0.91-2.834,1.23-4.37c0.203-0.972-0.005-2.022-0.418-2.887
		c-0.526-1.106-1.358-1.979-2.182-2.821c-0.523-0.535-1.057-1.072-1.684-1.435c-1.221-0.707-2.657-0.682-4.027-0.643
		c-0.295,0.085-0.439,0.507-0.346,0.835s0.359,0.559,0.642,0.69c0.282,0.13,0.586,0.183,0.878,0.279
		c0.898,0.299,1.648,1.024,2.209,1.871c0.4,0.605,0.716,1.273,1.004,1.953c0.239,0.563,0.608,1.161,0.023,1.632
		c-0.355,0.284-0.861,0.187-1.225-0.084c-0.363-0.271-0.622-0.684-0.9-1.062c-1.107-1.508-2.645-2.603-4.324-3.079
		c-1.166-0.33-1.857,2.303-1.147,3.402c-0.771-0.171-1.433,0.817-1.366,1.701c0.068,0.887,0.616,1.62,1.174,2.246
		c0.52,0.584,1.105,1.152,1.348,1.95c0.236,0.774,0.351,1.552,0.342,2.375c-0.016,1.646-0.412,3.432,0.237,4.991
		c0.558,1.337,1.687,1.953,2.681,2.774c0.078,0.065,0.154,0.136,0.231,0.203c0.274,1.204,0.583,2.358,0.73,3.322
		c0.574,3.717,0.851,7.546,0.224,11.279c-0.018,0.109-0.041,0.229-0.066,0.354c-0.245,1.178-0.771,2.951-0.867,4.491
		c-2.97,2.167-6.49,3.719-9.922,4.854c-1.297,0.429-2.619,0.797-3.847,1.408c-1.228,0.613-2.374,1.505-3.006,2.707
		s-0.649,2.743,0.193,3.729c1.267,1.481,3.833,1.467,5.634,0.928c1.344-0.403,2.59-1.096,3.807-1.813
		c3.307-1.949,6.49-4.117,9.516-6.483c1.424-1.113,3.305-2.829,3.302-4.76c0.144-0.589,0.216-1.211,0.274-1.816
		c0.692-7.156,0.229-14.452-1.348-21.425c-0.027-0.154-0.057-0.308-0.081-0.462c-0.136-0.834-0.226-1.667-0.195-2.479
		C233.743,165.823,234.381,164.403,234.957,163.021z"/>
	<path fill="#F7D495" d="M176.528,205.2c-0.048-3.916,1.333-7.83,3.75-10.629c0.668,1.937,0.723,4.133,0.065,6.073
		C179.686,202.587,178.168,204.266,176.528,205.2z"/>
	<path fill="#FFF8EF" d="M182.746,198.765c-3.073-2.751-6.145-5.501-9.217-8.252c0.435-5.629,0.378-11.361,2.118-16.63
		c0.539-1.635,1.256-3.253,1.288-4.998c0.021-1.148-0.615-3.604-1.911-3.733c-1.22-0.123-2.117,3.272-2.552,4.326
		c-1.601,3.877-2.92,7.901-3.939,12.021c-0.548,2.213-1.012,4.479-1.016,6.778c-0.003,2.175,0.442,4.396,1.51,6.195
		c0.017,0.03,0.034,0.061,0.052,0.09c0.044,0.071,0.082,0.147,0.128,0.219c0.26,0.399,0.562,0.778,0.913,1.069
		c0.212,0.222,0.432,0.445,0.656,0.68c2.753,2.889,5.871,5.633,9.63,6.507c0.791,0.185,1.633,0.277,2.39-0.041
		s1.396-1.146,1.339-2.059C184.077,200.019,183.384,199.336,182.746,198.765z"/>
	<path fill="#FBAD81" d="M179.883,203.184c0.792,0.184,1.633,0.276,2.39-0.042c0.756-0.317,1.396-1.146,1.339-2.058
		c-0.057-0.919-0.75-1.602-1.388-2.173c-3.275-2.932-6.55-5.864-9.825-8.796c-0.615-0.551-1.281-1.123-2.062-1.186
		c-2.002-0.158-2.686,2.416-2.379,4.194c0.279,1.623,1.261,2.468,2.296,3.553C173.007,199.564,176.125,202.311,179.883,203.184z"/>
	<path fill="#FFFBF3" d="M189.838,201.097c-3.477-1.534-6.63-3.542-9.498-6.598c-0.143,5.202-1.648,8.493-3.927,10.683
		c2.533,2.396,5.365,3.963,8.461,3.87c1.587-0.049,3.295-0.539,4.344-2.144C190.397,205.102,191.536,201.847,189.838,201.097z"/>
	<path fill="#F7D495" d="M222.33,209.546c-3.021-3.305-4.318-8.498-3.271-13.105c0.418-0.134,0.893,0.032,1.223,0.349
		s0.557,0.749,0.759,1.182C222.646,201.41,222.994,205.729,222.33,209.546z"/>
	<path fill="#FBAD81" d="M218.766,197.597c-1.297,0.429-2.621,0.796-3.848,1.408s-2.374,1.504-3.006,2.706
		c-0.631,1.201-0.648,2.744,0.193,3.729c1.268,1.483,3.834,1.469,5.635,0.929c1.343-0.402,2.59-1.097,3.805-1.813
		c3.309-1.949,6.49-4.117,9.518-6.483c1.489-1.165,3.484-2.99,3.293-5.03c-0.213-2.26-3.055-2.397-4.559-1.156
		C226.621,194.511,222.635,196.316,218.766,197.597z"/>
	<path fill="#FFFBF3" d="M219.194,196.33c-0.422,4.581,0.7,9.323,3.089,13.052c-2.178,0.645-4.392,1.145-6.625,1.475
		c-1.705,0.252-3.859,0.638-5.482-0.159c-2.412-1.187-3.729-4.637-2.973-7.473c0.449-1.69,1.723-2.968,3.133-3.716
		s2.969-1.048,4.498-1.378C216.365,197.799,217.852,197.222,219.194,196.33z"/>
	<g>
		<path fill="#223948" d="M215.07,219.931c-10.451,0.819-20.263,1.593-30.695,0.467c0.004-6.729,1.062-13.294,4.483-18.587
			c0.432-0.672,0.906-1.327,1.417-1.958c0.498-0.604,1.028-1.187,1.6-1.749c5.835-1.219,11.617-1.264,17.458-0.175
			c0.144,0.022,0.286,0.052,0.43,0.078c0.91,1.904,1.715,3.873,2.408,5.892C213.928,209.021,214.948,214.446,215.07,219.931z"/>
		<path fill="#FFFBF3" d="M209.334,197.929c-0.265,4.01-1.719,7.93-4.111,10.933c-1.73,2.174-4.295,3.959-6.818,3.254
			c-1.723-0.484-3.042-2.026-4.112-3.62c-1.75-2.608-3.11-5.539-4.017-8.643c0.498-0.604,1.028-1.187,1.6-1.749
			C197.711,196.885,203.492,196.84,209.334,197.929z"/>
	</g>
	<g>
		<path fill="#F5865E" d="M178.129,172.048c-0.759-0.315-1.674-0.224-2.294,0.363c-0.749,0.707-0.923,1.926-0.914,3.029
			c0.035,3.811,1.79,7.591,4.633,9.628c0.198,0.143,0.455,0.277,0.654,0.137c0.154-0.107,0.199-0.335,0.229-0.536
			c0.38-2.591,0.419-5.243,0.123-7.847C180.33,174.812,180.039,172.845,178.129,172.048z"/>
		<path fill="#F5865E" d="M230.094,180.346c-0.786,2.284-2.232,4.242-4.022,5.605c-0.921,0.699-1.905,1.186-2.956,1.581
			c-0.157,0.061-0.341,0.166-0.529,0.252c-0.249,0.108-0.506,0.188-0.721,0.078c-0.042-0.022-0.08-0.043-0.115-0.078
			c-0.697-0.509-0.395-2.01-0.303-2.753c0.004-0.018,0.004-0.04,0.008-0.057c0.376-3.066,1.361-6.175,3.183-8.528
			c0.05-0.065,0.104-0.131,0.157-0.195c0.498-0.63,1.069-1.199,1.748-1.555c0.744-0.399,1.637-0.513,2.393-0.139
			c0.89,0.438,1.453,1.493,1.6,2.579C230.676,178.218,230.446,179.325,230.094,180.346z"/>
		<path fill="#FBAD81" d="M228.277,165.976c-0.252,2.128-0.844,4.026-1.568,5.854c-0.255,0.636-0.518,1.264-0.797,1.892
			c-0.367,0.839-0.744,1.681-1.119,2.531c-0.234,0.543-0.469,1.091-0.689,1.653c-0.194,0.469-0.378,0.947-0.552,1.437
			c-0.728,2.058-1.119,4.357-1.503,6.669c-0.1,0.594-0.194,1.184-0.3,1.772c-0.64,3.688-1.487,7.271-3.899,9.853
			c-0.23,0.25-0.473,0.489-0.725,0.721c-0.115,0.111-0.23,0.216-0.35,0.319c-6.236,5.486-15.744,5.557-23.138,3.787
			c-3.129-0.751-6.222-1.979-8.759-4.184c-2.089-1.815-3.613-4.335-4.603-7.07c-0.684-1.903-0.616-3.952-0.47-5.995
			c0.085-1.194,0.191-2.389,0.191-3.549c0-2.404-0.218-4.777-0.5-7.147c-0.068-0.555-0.136-1.109-0.208-1.665
			c-0.289-2.242-0.602-4.483-0.81-6.742c-0.027-0.277-0.051-0.551-0.075-0.829c-0.109-1.439-0.177-2.889-0.16-4.346
			c0.048-3.914,0.612-7.867,1.966-11.481c1.412-3.76,3.841-6.446,7.001-8.411c2.786-1.734,5.906-2.705,9.049-3.237
			c3.089-0.52,6.249-0.62,9.345-0.22c2.41,0.313,4.777,0.925,7.05,1.877c0.105,0.042,0.211,0.088,0.316,0.135
			c0.501,0.211,0.997,0.447,1.483,0.701c0.01,0.004,0.018,0.007,0.027,0.011c0.004,0,0.004,0,0.004,0.008
			c0.377,0.193,0.752,0.397,1.122,0.613c0.146,0.085,0.289,0.169,0.432,0.258c0.36,0.22,0.718,0.451,1.071,0.69
			c0.457,0.305,0.906,0.628,1.344,0.971c2.787,2.146,5.195,4.9,6.944,8.161C227.783,155.449,228.886,160.816,228.277,165.976z"/>
		<path fill="#E16534" d="M202.805,187.989c0.34,0.632,0.234,1.487-0.148,2.087c-0.381,0.6-0.995,0.968-1.629,1.151
			c-1.131,0.327-2.378,0.103-3.363-0.607c-0.4-0.291-0.771-0.673-0.952-1.17c-0.182-0.498-0.139-1.126,0.195-1.51
			c-0.551,0.488-0.861,1.487-0.642,2.24s0.777,1.339,1.416,1.665c0.639,0.325,1.352,0.417,2.051,0.414
			c0.734-0.003,1.482-0.11,2.145-0.468c0.663-0.357,1.234-0.991,1.439-1.789C203.521,189.204,203.407,188.462,202.805,187.989z"/>
		<g>
			<path fill="#E16534" d="M204.951,180.263c-1.15-1.209-1.193-2.938-0.102-4.178c0.234-0.265,0.582-0.532,1.01-0.514
				C204.826,176.97,204.311,178.742,204.951,180.263z"/>
			<path fill="#223948" d="M215.96,183.506c-3.062-0.651-5.964-2.755-7.647-5.726c-0.663,0.399-1.16,1.14-1.322,1.971
				c0.994,1.701,2.424,3.191,4.142,3.806C212.85,184.172,214.283,184.252,215.96,183.506z"/>
			<path fill="#223948" d="M196.108,178.103c-1.455,1.328-3.286,2.124-5.154,2.238c-1.867,0.114-3.658-0.459-5.233-1.601
				c3.328,0.086,6.67-0.729,9.67-2.361C195.815,177.003,196.169,177.318,196.108,178.103z"/>
			<path fill="#E16534" d="M198.293,179.477c0.68-0.487,1.182-1.281,1.37-2.166c0.188-0.886,0.06-1.853-0.351-2.635
				c0.832,0.52,1.189,1.625,1.037,2.687C200.199,178.423,199.227,179.28,198.293,179.477z"/>
			<path fill="#E16534" d="M194.56,182.717c-2.484-1.597-5.403-2.005-8.09-1.133c2.024-0.015,3.847,0.499,5.816,1.111
				c-1.41,0.232-2.997,0.665-4.314,1.363c2.536-0.688,5.287-0.525,7.83,0.114C195.4,183.676,195.056,183.035,194.56,182.717z"/>
			<path fill="#E16534" d="M206.445,184.674c2.725-0.968,5.654-0.671,8.118,0.824c-1.977-0.5-3.853-0.432-5.894-0.303
				c1.336,0.563,2.807,1.365,3.964,2.362c-2.351-1.278-5.069-1.775-7.674-1.758C205.443,185.409,205.9,184.866,206.445,184.674z"/>
		</g>
		<path fill="#E16534" d="M179.121,180.649c-0.422-0.096-0.834-0.354-1.126-0.793c-0.292-0.438-0.451-1.067-0.368-1.656
			c0.084-0.59,0.563-1.076,0.988-1.16c0.013-0.743,0.024-1.511-0.176-2.201c-0.2-0.688-0.668-1.28-1.197-1.242
			c-0.45,0.032-1.054,0.442-1.257,1.007c-0.203,0.563-0.354,1.271-0.092,1.904c-0.06-0.598,0.124-1.096,0.46-1.472
			s0.844-0.441,1.206-0.117c0.363,0.324,0.531,1.038,0.349,1.585c-0.199,0.594-0.794,0.93-0.893,1.57
			c-0.106,0.689,0.167,1.405,0.555,1.851C177.957,180.37,178.644,180.429,179.121,180.649z"/>
		<path fill="#E16534" d="M222.912,184.115c0.654-0.374,1.162-1.007,1.393-1.734c0.232-0.729,0.184-1.545-0.131-2.238
			c0.484-0.601,0.756-1.344,1.195-1.979s0.99-1.231,1.705-1.503c0.715-0.272,1.619-0.141,2.085,0.475
			c0.317,0.418,0.39,0.979,0.374,1.508c-0.025,1.051-0.345,2.093-0.91,2.974c0.468-0.893,0.512-1.81,0.542-2.821
			c0.014-0.47-0.063-1.016-0.456-1.259c-0.37-0.229-0.849-0.085-1.232,0.116c-1.098,0.575-1.968,1.591-2.379,2.778
			c0.412,0.716,0.146,1.736-0.262,2.454C224.43,183.604,223.67,183.813,222.912,184.115z"/>
		<path fill="#E7C8B4" d="M228.277,165.976c-0.252,2.128-0.844,4.026-1.568,5.854c-0.255,0.636-0.518,1.264-0.797,1.892
			c-0.367,0.839-0.744,1.681-1.119,2.531c-0.234,0.543-0.469,1.091-0.689,1.653c-2.154,0.403-4.321,0.724-6.491,0.959
			c0.099-6.064-0.745-12.087-2.542-17.751c0.316,1.43,0.521,2.894,0.619,4.361c0.27,4.058-0.241,8.142-1.146,12.075
			c0.437-1.892,0.072-4.507-0.021-6.45c-0.102-2.184-0.302-4.364-0.599-6.526c-0.303-2.207-0.725-4.376-1.204-6.542
			c-0.017-0.078-0.034-0.147-0.048-0.216c-0.771,7.552-2.785,14.911-5.905,21.542c-4.415-0.074-8.835-0.485-13.221-1.233
			c-0.003-5.46,1.235-10.88,2.461-16.175c-3.195,4.23-4.58,10.08-4.59,15.781c-0.028-0.003-0.058-0.011-0.085-0.015
			c-2.466-6.134-3.77-12.854-3.715-19.627c-2.246,5.714-2.691,12.391-1.276,18.49c-2.296-0.593-4.582-1.279-6.845-2.062
			c-0.068-0.555-0.136-1.109-0.208-1.665c-0.289-2.242-0.602-4.483-0.81-6.742c-0.027-0.277-0.051-0.551-0.075-0.829
			c-0.109-1.439-0.177-2.889-0.16-4.346c0.048-3.914,0.612-7.867,1.966-11.481c1.412-3.76,3.841-6.446,7.001-8.411
			c2.786-1.734,5.906-2.705,9.049-3.237c3.089-0.52,6.249-0.62,9.345-0.22c0.783,0.347,1.545,0.768,2.287,1.265
			c0.422,0.281,4.154,3.132,3.892,3.706c0.47-1.014,0.851-1.973,1.188-2.958c0.501,0.211,0.997,0.447,1.483,0.701
			c-0.337,1.028-0.93,1.935-1.694,2.54c1.011-0.532,1.967-1.164,2.848-1.908c0.146,0.085,0.289,0.169,0.432,0.258
			c0.36,0.22,0.718,0.451,1.071,0.69c-0.496,0.385-1.054,0.659-1.633,0.801c0.994-0.15,1.994-0.08,2.977,0.17
			c2.787,2.146,5.195,4.9,6.944,8.161C227.783,155.449,228.886,160.816,228.277,165.976z"/>
		<path fill="#E16534" d="M207.58,199.18c-0.67,0.37-1.453,0.451-2.211,0.524c-1.12,0.111-2.239,0.22-3.358,0.332
			c-0.97,0.092-2.062,0.15-2.786-0.518c-0.248-0.227-0.422-0.524-0.527-0.847c-0.089-0.277-0.126-0.575-0.105-0.863
			c0.228-3.482,5.997-3.148,8.223-2.331c0.718,0.262,1.473,0.716,1.766,1.402c0.055,0.131,0.096,0.271,0.111,0.416
			C208.787,198.071,208.25,198.807,207.58,199.18z"/>
		<path fill="#803A1B" d="M208.58,196.88c-0.041,0.687-0.537,1.314-1.144,1.649c-0.687,0.377-1.487,0.462-2.263,0.54
			c-1.146,0.11-2.293,0.223-3.436,0.335c-0.994,0.096-2.109,0.152-2.852-0.528c-0.067-0.062-0.129-0.131-0.189-0.204
			c-0.089-0.277-0.126-0.575-0.105-0.863c0.228-3.482,5.997-3.148,8.223-2.331C207.532,195.739,208.287,196.193,208.58,196.88z"/>
	</g>
	<path fill="#223948" d="M168.344,148.86c1.333,0.748,2.665,1.496,3.997,2.243c-1.48,0.315-2.814,1.425-3.52,2.933
		c0.337-0.719,3.659-0.864,4.341-0.926c1.018-0.091,3.53,0.492,3.226-1.462c-0.201-1.292-2.38-1.771-3.297-2.068
		C171.551,149.081,169.946,148.835,168.344,148.86z"/>
	<path fill="#223948" d="M231.642,163.151c-0.003,3.926-0.785,8.287-2.813,11.328c-3.357,0.786-6.746,1.36-10.151,1.729
		c0.095-6.064-0.748-12.086-2.542-17.746c0.316,1.429,0.521,2.894,0.62,4.361c0.269,4.054-0.241,8.138-1.149,12.071
		c0.435-1.892,0.074-4.509-0.018-6.446c-0.102-2.188-0.303-4.365-0.599-6.531c-0.303-2.203-0.728-4.376-1.208-6.537
		c-0.017-0.082-0.03-0.151-0.044-0.22c-0.776,7.552-2.786,14.911-5.906,21.545c-3.735-0.064-7.471-0.37-11.186-0.913
		c-0.68-0.1-1.357-0.208-2.034-0.323c0-1.145,0.054-2.285,0.149-3.425c0.363-4.3,1.341-8.562,2.31-12.75
		c-1.813,2.401-3.041,5.321-3.769,8.438c-0.555,2.38-0.817,4.874-0.82,7.343c-0.027-0.003-0.058-0.008-0.085-0.015
		c-2.466-6.135-3.77-12.854-3.715-19.628c-1.769,4.505-2.426,9.61-1.926,14.558c0.133,1.324,0.351,2.643,0.65,3.934
		c-3.321-0.855-6.61-1.911-9.849-3.159c-0.197-0.074-0.395-0.15-0.592-0.228c-1.888-4.647-2.919-10.176-2.586-15.312
		c0.286-4.315,1.416-8.6,3.559-12.041c3.161-5.067,7.961-7.972,13.128-9.212c0.561-0.135,1.129-0.25,1.698-0.343
		c0.965-0.166,1.939-0.273,2.913-0.332c3.026-0.174,6.055,0.151,8.841,0.878c1.559,0.409,3.039,1.083,4.437,2.023
		c0.422,0.277,4.157,3.132,3.892,3.703c0.949-2.039,1.541-3.888,2.141-6.115c0.336,0.02,0.476,0.27,0.643,0.632
		c0.16,0.358,0.207,0.774,0.214,1.183c0.014,1.812-0.772,3.594-2.021,4.581c2.559-1.341,4.732-3.309,6.328-6.065
		c0.084,1.48-0.141,2.875-0.926,4.003c-0.684,0.976-1.644,1.65-2.684,1.908c4.367-0.655,8.848,2.895,11.457,7.263
		C230.707,151.824,231.648,157.584,231.642,163.151z"/>
	<path fill="#1D3341" d="M185.909,159.287c-0.33,3.583-0.044,7.248,0.847,10.704c0.133,1.324,0.351,2.643,0.65,3.934
		c-3.321-0.855-6.61-1.911-9.849-3.159c-0.731-1.772-0.902-3.788-1.007-5.749c-0.211-3.927-0.198-7.891,0.439-11.756
		c0.636-3.864,1.921-7.641,4.068-10.73c2.042-2.932,4.787-5.151,7.715-6.858c1.259-0.735,2.613-1.413,3.991-2.042
		c0.965-0.166,1.939-0.273,2.913-0.332c-4.781,4.058-8.479,9.74-10.449,16.133c2.011-3.075,4.586-5.668,7.519-7.568
		C189.012,146.738,186.498,152.864,185.909,159.287z"/>
	<path fill="#FBAD81" d="M229.553,188.251c-0.404,1.952-1.595,5.556-0.293,6.99c1.184,1.303,3.352,1.164,4.396-0.282
		c0.687-0.953,0.864-2.24,0.983-3.464c0.783-8.104,0.088-16.39-2.033-24.183c-0.145-0.534-0.311-1.091-0.674-1.472
		c-1.059-1.113-2.512-0.046-3.16,1.031c-1.562,2.602,0.195,6.961,0.625,9.746c0.573,3.716,0.85,7.545,0.224,11.278
		C229.602,188.007,229.578,188.126,229.553,188.251z"/>
	<path fill="#FBAD81" d="M168.01,181.646c-0.548,2.213-1.012,4.479-1.016,6.777c-0.004,2.299,0.484,4.655,1.689,6.505
		c0.405,0.622,0.91,1.197,1.551,1.462s1.439,0.151,1.887-0.433c0.319-0.415,0.417-0.987,0.493-1.531
		c0.944-6.802,0.381-13.946,2.51-20.396c0.54-1.635,1.257-3.254,1.288-4.998c0.021-1.149-0.615-3.605-1.91-3.735
		c-1.221-0.122-2.117,3.274-2.552,4.328C170.35,173.5,169.03,177.525,168.01,181.646z"/>
	<path fill="#FBAD81" d="M171.486,169.365c0.014-0.849-0.017-1.688-0.164-2.481c-0.283-1.527-1.116-2.811-1.885-4.068
		c-0.466-0.762-0.861-1.578-1.204-2.42c-0.299-0.733-0.737-1.425-0.717-2.268c0.014-0.604,0.195-1.188,0.423-1.734
		c1.061-2.537,3.258-4.422,5.701-4.894c0.467-0.091,1.015-0.102,1.335,0.292c0.392,0.482,0.21,1.248,0.006,1.862
		c0.313-0.94,2.188-1.977,2.984-1.389c0.75,0.555,1.187,2.094,0.777,3.015c0.735-0.312,1.531,0.541,1.592,1.426
		c0.061,0.887-0.375,1.712-0.834,2.433c-0.429,0.672-0.924,1.341-1.049,2.172c-0.122,0.808-0.123,1.597,0.004,2.407
		c0.253,1.621,0.902,3.31,0.485,4.968c-0.357,1.422-1.382,2.239-2.244,3.232c-1.124,1.296-2.027,2.996-3.001,4.44
		c-0.089,0.132-0.18,0.266-0.304,0.353c-0.362,0.253-0.843,0.008-1.143-0.334c-0.865-0.986-0.899-2.537-0.879-3.927
		C171.386,171.459,171.47,170.406,171.486,169.365z"/>
	<path fill="#FBAD81" d="M233.209,169.61c-0.137-0.834-0.228-1.668-0.195-2.479c0.059-1.559,0.696-2.979,1.273-4.362
		c0.604-1.445,0.91-2.832,1.23-4.368c0.201-0.973-0.007-2.022-0.418-2.888c-0.527-1.105-1.359-1.978-2.184-2.82
		c-0.522-0.535-1.057-1.072-1.684-1.436c-1.221-0.705-2.656-0.681-4.025-0.641c-0.296,0.084-0.44,0.506-0.348,0.835
		c0.094,0.328,0.359,0.559,0.643,0.69c0.281,0.131,0.586,0.182,0.877,0.28c0.899,0.297,1.648,1.023,2.211,1.871
		c0.398,0.604,0.714,1.273,1.003,1.953c0.239,0.562,0.608,1.16,0.022,1.631c-0.354,0.285-0.861,0.188-1.224-0.084
		c-0.364-0.271-0.622-0.683-0.9-1.062c-1.106-1.508-2.645-2.602-4.324-3.078c-1.165-0.331-1.857,2.303-1.147,3.402
		c-0.771-0.171-1.434,0.815-1.365,1.702c0.066,0.885,0.615,1.619,1.172,2.245c0.521,0.584,1.105,1.151,1.348,1.949
		c0.237,0.774,0.352,1.553,0.344,2.375c-0.017,1.646-0.414,3.433,0.236,4.992c0.558,1.337,1.688,1.952,2.68,2.774
		c1.295,1.069,2.432,2.58,3.602,3.824c0.106,0.114,0.215,0.229,0.351,0.293c0.394,0.182,0.833-0.149,1.08-0.542
		c0.711-1.132,0.521-2.669,0.301-4.036C233.609,171.658,233.375,170.635,233.209,169.61z"/>
	<g>
		<path fill="#E16534" d="M175.063,153.471c-0.131,0.086-0.309,0.153-0.418,0.214c-0.189,0.106-0.381,0.208-0.574,0.305
			c-0.387,0.194-0.781,0.369-1.181,0.524c-0.666,0.259-1.35,0.757-1.847,1.332c-0.059,0.068-0.116,0.139-0.171,0.211
			c-0.674,0.899-0.936,2.169-0.7,3.317c-0.024-0.117,0.075-0.361,0.106-0.476c0.042-0.156,0.097-0.304,0.15-0.454
			c0.093-0.261,0.111-0.561,0.202-0.83c0.19-0.567,0.505-1.078,0.883-1.507c0.556-0.631,1.242-1.095,1.945-1.496
			c0.613-0.349,1.263-0.67,1.726-1.244C175.154,153.405,175.111,153.44,175.063,153.471z"/>
	</g>
	<path fill="#E16534" d="M178.545,155.322c-0.938,0.391-1.88,0.783-2.75,1.336c-0.872,0.554-1.675,1.28-2.223,2.227
		c-0.548,0.946-0.82,2.127-0.605,3.231c0.27-1.399,0.99-2.545,1.947-3.481C176.091,157.48,177.574,156.7,178.545,155.322z"/>
	<path fill="#E16534" d="M229.013,162.591c-0.063-0.902-0.396-1.784-0.946-2.439c-0.957-1.14-2.486-1.556-3.301-2.829
		c1.148,0.354,2.166,0.896,3.061,1.785C228.72,159.997,229.242,161.268,229.013,162.591z"/>
	<path fill="#223948" d="M235.225,151.584c-2.086,0.8-4.172,1.601-6.259,2.401c2.097,1.442,3.481,4.126,3.56,6.903
		c-0.936-2.261-2.297-4.293-3.969-5.922c-0.131,0.699-0.436,1.357-0.868,1.877c0.517-0.622-0.269-2.329-0.228-3.063
		c0.058-1.005,0.683-1.251,1.469-1.611C230.909,151.261,233.141,151.039,235.225,151.584z"/>
	<path fill="#223948" d="M174.317,168.358c1.433-1.191,2.978-2.211,4.6-3.037c-1.396,1.342-2.169,3.473-2.01,5.538
		c0.636-0.99,1.271-1.979,1.907-2.969c0.242-0.377,0.485-0.756,0.65-1.182c0.269-0.693,0.542-2.273,0.177-2.995
		c-0.49-0.966-1.261-0.213-1.928,0.281C176.264,165.07,175.069,166.589,174.317,168.358z"/>
	<path fill="#223948" d="M228.809,167.542c-1.059-1.079-2.119-2.158-3.179-3.237c0.474,1.45,0.947,2.899,1.421,4.349
		c-1.059-1.234-2.143-2.513-2.707-4.11c-0.842-2.385,0.605-2.047,1.93-0.949C227.451,164.57,228.368,165.963,228.809,167.542z"/>
	<path fill="#FFF8EF" d="M220.368,195.316c-2.595,3.641-6.359,6.12-10.403,7.076c1.865-0.697,3.713-1.507,5.386-2.674
		c1.673-1.166,3.301-2.709,4.278-4.641C220.061,195.171,219.923,195.966,220.368,195.316z"/>
</g>
<g>
	<polygon fill="#DC6C26" points="344.148,250.43 59.188,250.43 99.321,215.506 304.016,215.506 	"/>
	<polygon fill="#812922" points="59.188,250.43 344.148,250.43 343.025,255.031 60.751,255.031 	"/>
	<polygon fill="#092B44" points="68.387,255.031 69.257,259.078 334.33,259.078 335.635,255.031 	"/>
	<polygon fill="#092B44" points="79,293.004 75.171,293.004 68.992,257.867 74.849,257.867 	"/>
	<polygon fill="#092B44" points="324.76,293.004 328.59,293.004 334.768,257.867 328.912,257.867 	"/>
	<polygon fill="#136C79" points="79,293.004 74.991,259.078 76.996,259.078 80.526,293.004 	"/>
	<polygon fill="#092B44" points="324.76,293.004 323.203,293.004 326.531,259.078 328.77,259.078 	"/>
	<g>
		<path fill="#D46520" d="M71.11,241.822c5.095,0.101,10.167,0.086,15.25,0.068c5.08-0.033,10.16-0.14,15.24-0.236
			c5.08-0.09,10.159-0.234,15.238-0.411c2.54-0.069,5.08-0.169,7.62-0.212l0.952-0.021c0.315-0.007,0.643-0.005,0.97-0.051
			c0.327-0.043,0.662-0.119,0.979-0.313c0.315-0.183,0.6-0.586,0.57-1.05c-0.034-0.459-0.288-0.786-0.529-1.041
			c-0.25-0.259-0.529-0.463-0.819-0.639c-0.58-0.314-1.142-0.654-1.734-0.931c-4.685-2.349-9.773-3.469-14.824-4.17
			c-5.066-0.686-10.146-0.894-15.165-1.578c-1.254-0.168-2.504-0.37-3.749-0.604c-0.62-0.133-1.243-0.248-1.858-0.404l-0.926-0.22
			l-0.918-0.253c-1.09-0.298-2.166-0.659-3.225-1.078l-0.385,0.335c0.532,0.268,1.082,0.484,1.622,0.734
			c0.606,0.231,1.208,0.481,1.824,0.677c2.452,0.839,4.97,1.404,7.497,1.815c1.263,0.212,2.53,0.379,3.797,0.538
			c1.267,0.144,2.535,0.276,3.802,0.4l7.583,0.716c2.521,0.249,5.035,0.563,7.516,1.099c1.244,0.254,2.471,0.588,3.689,0.961
			c0.604,0.21,1.212,0.403,1.804,0.652c0.297,0.121,0.597,0.233,0.891,0.361l0.876,0.405c0.584,0.268,1.148,0.599,1.716,0.9
			c0.271,0.16,0.531,0.349,0.751,0.573c0.22,0.22,0.399,0.499,0.413,0.771c0.016,0.271-0.149,0.533-0.394,0.675
			c-0.245,0.148-0.544,0.221-0.847,0.258c-0.604,0.067-1.253,0.026-1.885,0.038c-2.541,0.007-5.081-0.041-7.622-0.06
			c-5.082-0.074-10.162-0.115-15.243-0.101c-5.081,0.006-10.161,0.003-15.241,0.071c-2.54,0.05-5.08,0.075-7.62,0.144
			c-2.541,0.063-5.079,0.143-7.611,0.158c-0.29,0.004-0.581,0.002-0.871,0.004l-1.082,0.94
			C69.814,241.777,70.462,241.802,71.11,241.822z"/>
		<path fill="#D46520" d="M270.982,247.904c-8.089-2.23-16.249-4.131-24.453-5.724l-6.162-1.133l-6.186-0.964
			c-2.06-0.335-4.134-0.552-6.201-0.82c-1.033-0.124-2.066-0.271-3.102-0.376l-3.109-0.303c-8.289-0.819-16.598-1.359-24.915-1.51
			c-2.078-0.095-4.158-0.061-6.237-0.083l-3.121-0.03l-3.12,0.064l-3.121,0.07l-1.561,0.035l-1.559,0.087
			c-2.078,0.122-4.158,0.223-6.237,0.363l-6.223,0.619c-1.039,0.093-2.071,0.248-3.104,0.394l-3.098,0.452
			c-1.031,0.163-2.067,0.284-3.094,0.48l-3.083,0.572c-2.055,0.387-4.112,0.736-6.157,1.211c-2.047,0.452-4.086,1.001-6.087,1.707
			c-2,0.706-3.969,1.562-5.824,2.691c-1.854,1.122-3.581,2.536-5.039,4.256c-0.128,0.151-0.251,0.309-0.375,0.465h0.52
			c0.045-0.051,0.087-0.104,0.133-0.152c1.48-1.617,3.215-2.907,5.04-3.963c3.681-2.098,7.744-3.152,11.8-4.023
			c8.167-1.622,16.404-2.791,24.667-3.629l6.205-0.533l1.552-0.133l1.555-0.081l3.11-0.164l3.111-0.158l3.113-0.064
			c2.076-0.024,4.152-0.101,6.229-0.03c8.308,0.073,16.605,0.756,24.857,1.796c8.25,1.069,16.472,2.4,24.635,4.094
			c8.168,1.677,16.278,3.677,24.35,5.867c1.416,0.388,2.834,0.78,4.25,1.175h4.84C276.852,249.583,273.922,248.725,270.982,247.904z
			"/>
		<path fill="#D46520" d="M126.465,221.042c0.448,0.252,0.91,0.462,1.37,0.682l1.381,0.653c0.938,0.386,1.873,0.782,2.82,1.138
			c1.9,0.69,3.83,1.29,5.791,1.708c0.489,0.111,0.98,0.206,1.47,0.31l1.481,0.235c0.984,0.176,1.978,0.271,2.968,0.378
			c1.982,0.203,3.971,0.259,5.955,0.299c0.993-0.013,1.985-0.019,2.977-0.049l1.487-0.081c0.496-0.023,0.992-0.049,1.485-0.108
			l2.968-0.295l2.957-0.433c3.935-0.656,7.818-1.674,11.641-2.887c3.826-1.208,7.61-2.549,11.374-3.922
			c2.985-1.096,5.974-2.176,8.982-3.164h-3.896c-1.829,0.584-3.647,1.204-5.458,1.84c-3.781,1.343-7.524,2.782-11.304,4.068
			c-3.781,1.278-7.582,2.465-11.447,3.362c-3.866,0.872-7.814,1.357-11.761,1.247l-1.478-0.087
			c-0.492-0.038-0.985-0.042-1.476-0.112l-1.47-0.182l-0.734-0.092l-0.73-0.127c-0.974-0.168-1.948-0.321-2.911-0.556l-1.447-0.32
			c-0.478-0.129-0.955-0.266-1.434-0.386c-3.822-1.012-7.59-2.3-11.204-4.045c-2.751-1.319-5.426-2.854-7.997-4.611h-0.637
			C120.761,217.668,123.548,219.517,126.465,221.042z"/>
		<path fill="#D46520" d="M261.268,227.072c0.289-0.201,0.607-0.356,0.936-0.485c0.33-0.129,0.668-0.22,1.018-0.304
			c0.347-0.091,0.697-0.167,1.047-0.234c1.402-0.274,2.824-0.406,4.248-0.481c2.85-0.141,5.713,0.011,8.596,0.009
			c5.76-0.009,11.518-0.497,17.223-1.374c5.264-0.828,10.488-1.979,15.615-3.534l-0.219-0.189
			c-5.143,1.14-10.311,2.075-15.506,2.722c-5.689,0.729-11.404,1.132-17.125,1.292c-2.859,0.104-5.742,0.086-8.623,0.352
			c-1.44,0.139-2.88,0.337-4.297,0.68c-0.354,0.087-0.709,0.169-1.061,0.272c-0.349,0.093-0.707,0.2-1.055,0.346
			c-0.348,0.146-0.688,0.323-1.007,0.557c-0.315,0.231-0.618,0.535-0.81,0.95c-0.088,0.213-0.135,0.448-0.136,0.686
			c0.005,0.237,0.062,0.471,0.153,0.676c0.189,0.412,0.493,0.705,0.802,0.941c0.626,0.482,1.329,0.729,2.005,1.008
			c1.369,0.536,2.781,0.912,4.205,1.184c2.852,0.528,5.734,0.714,8.602,0.88c1.432,0.091,2.863,0.178,4.285,0.32
			c0.711,0.074,1.418,0.153,2.125,0.261c0.707,0.084,1.41,0.213,2.115,0.33c2.814,0.508,5.598,1.237,8.377,2.016
			c5.547,1.572,11.09,3.453,16.838,4.348c2.867,0.447,5.752,0.745,8.643,0.813c2.891,0.069,5.781-0.036,8.658-0.315
			c1.77-0.18,3.535-0.436,5.289-0.754l-0.809-0.704c-1.512,0.193-3.027,0.343-4.547,0.441c-5.699,0.396-11.426,0.099-17.057-0.855
			c-5.639-0.91-11.158-2.667-16.762-4.163c-2.799-0.754-5.633-1.412-8.498-1.848c-1.434-0.218-2.877-0.373-4.32-0.455
			c-1.441-0.085-2.881-0.114-4.316-0.146c-2.865-0.083-5.738-0.103-8.559-0.619c-1.409-0.25-2.805-0.604-4.155-1.112
			c-0.332-0.137-0.677-0.255-1.001-0.407c-0.322-0.157-0.637-0.333-0.918-0.552c-0.281-0.217-0.537-0.48-0.676-0.796
			c-0.146-0.312-0.143-0.677-0.008-0.987C260.727,227.526,260.979,227.269,261.268,227.072z"/>
		<path fill="#D46520" d="M315.398,248.388c-4.33-1.026-8.633-2.204-12.924-3.47c-4.297-1.24-8.582-2.551-12.893-3.771
			c-4.311-1.219-8.643-2.374-13.012-3.343c-4.367-0.975-8.779-1.736-13.219-2.189c-4.441-0.482-8.902-0.488-13.339-0.478
			c-4.438-0.006-8.876,0.061-13.29-0.365c-2.207-0.197-4.406-0.504-6.578-0.979c-0.545-0.105-1.084-0.238-1.621-0.387
			c-0.537-0.145-1.08-0.275-1.605-0.454c-1.047-0.351-2.093-0.803-2.914-1.57c-0.397-0.388-0.734-0.86-0.885-1.414
			c-0.164-0.544-0.126-1.145,0.046-1.693c0.177-0.551,0.476-1.056,0.845-1.484c0.367-0.433,0.798-0.796,1.273-1.069
			c0.951-0.567,2.016-0.876,3.09-1.1c1.078-0.218,2.182-0.356,3.281-0.522l13.207-1.94c8.799-1.319,17.576-2.826,26.359-4.278
			c4.574-0.778,9.146-1.566,13.717-2.374h-4.557c-3.096,0.456-6.191,0.917-9.283,1.385c-8.795,1.372-17.595,2.688-26.372,4.194
			l-13.161,2.296c-1.095,0.197-2.195,0.365-3.297,0.621c-1.098,0.263-2.205,0.613-3.209,1.247c-0.505,0.315-0.977,0.711-1.373,1.19
			c-0.4,0.475-0.73,1.038-0.928,1.673c-0.193,0.631-0.234,1.354-0.031,2.003c0.186,0.655,0.58,1.19,1.022,1.613
			c0.909,0.828,1.995,1.272,3.067,1.62c0.54,0.178,1.084,0.302,1.629,0.442c0.541,0.141,1.084,0.289,1.632,0.396
			c2.183,0.498,4.396,0.824,6.61,1.041c2.217,0.217,4.438,0.349,6.658,0.444c2.222,0.085,4.441,0.13,6.66,0.177
			c4.438,0.096,8.863,0.259,13.258,0.794c4.395,0.528,8.758,1.364,13.094,2.363c8.672,2.009,17.201,4.786,25.813,7.258
			c5.605,1.61,11.264,3.079,16.98,4.165h6.676C322.33,249.906,318.854,249.208,315.398,248.388z"/>
		<path fill="#D46520" d="M93.146,220.88c6.611,3.354,13.492,6.043,20.512,8.123c7.589,2.188,15.338,3.71,23.148,4.414
			c0.487,0.049,0.976,0.101,1.464,0.136l1.467,0.082l2.934,0.163c0.977,0.047,1.957,0.045,2.935,0.07
			c0.979,0.009,1.956,0.059,2.935,0.032l2.934-0.053l1.466-0.03l1.465-0.08l2.93-0.146c0.977-0.053,1.95-0.162,2.925-0.232
			c7.799-0.629,15.554-1.884,23.223-3.614c7.677-1.695,15.266-3.854,22.813-6.137c7.551-2.271,15.078-4.603,22.654-6.681
			c1.773-0.491,3.552-0.965,5.334-1.421h-5.354c-0.089,0.023-0.18,0.047-0.27,0.07c-7.611,2.053-15.125,4.493-22.648,6.849
			c-7.523,2.354-15.048,4.686-22.659,6.62c-7.605,1.945-15.333,3.342-23.119,3.892c-0.973,0.066-1.945,0.146-2.92,0.184
			l-2.923,0.081l-1.461,0.034l-1.461-0.018l-2.923-0.042c-0.974-0.006-1.947-0.088-2.92-0.127c-0.973-0.055-1.946-0.084-2.917-0.16
			l-2.912-0.254l-1.455-0.127l-1.452-0.171l-2.903-0.339c-0.968-0.106-1.93-0.279-2.896-0.41c-0.964-0.147-1.931-0.269-2.893-0.438
			l-2.883-0.512l-1.442-0.253l-1.435-0.304l-2.868-0.612c-0.957-0.2-1.901-0.469-2.853-0.698c-0.948-0.248-1.904-0.464-2.846-0.737
			c-6.975-1.91-13.833-4.365-20.538-7.316L93.146,220.88z"/>
	</g>
	<polygon fill="#812922" points="76.996,259.078 80.526,293.004 323.203,293.004 326.531,259.078 	"/>
</g>
<polygon fill="#E7C8B4" points="77.128,240.109 78.307,239.36 76.122,235.839 66.228,244.304 70.095,244.578 117.534,246.5 "/>
<polygon fill="#E7C8B4" points="130.314,238.644 126.046,237.419 148.807,215.52 150.995,215.705 "/>
<g>
	<path fill="#FF9F1C" d="M152.184,214.132l-0.859,2.71l-0.054,0.165l-0.261,0.282l-15.409,16.684l-0.138,0.151l-1.009,1.092
		c-0.08-0.383-0.237-0.747-0.452-1.052c-0.46-0.643-1.138-1.042-1.848-1.251c-0.073-0.021-0.15-0.039-0.226-0.052l1.617-1.594
		l0.215-0.213l15.747-15.537l0.092-0.048l0.023-0.014L152.184,214.132z"/>
	<polygon fill="#FFBA53" points="151.325,216.842 151.271,217.007 151.01,217.289 135.601,233.973 135.463,234.124 135.083,232.597 
		150.681,216.082 	"/>
	<polygon fill="#E77D13" points="149.703,215.727 133.976,231.524 133.545,231.268 133.76,231.055 149.507,215.518 149.599,215.47 	
		"/>
	<path fill="#FEECC1" d="M152.184,214.132l-0.398,1.26l-0.514,1.615l-0.261,0.282c-0.05,0.021-0.104,0.03-0.161,0.026
		c-0.227-0.018-0.399-0.265-0.441-0.521c-0.038-0.256-0.042-0.529,0.02-0.781c-0.307,0.152-0.61,0.309-0.917,0.461
		c-0.096,0.047-0.223,0.091-0.295,0.004c-0.065-0.078-0.038-0.2,0-0.3c0.1-0.266,0.238-0.508,0.407-0.722l1.116-0.577h0.003
		L152.184,214.132z"/>
	<path fill="#643F1D" d="M152.184,214.132l-0.398,1.26c-0.246,0.156-0.514,0.266-0.79,0.313c0.061-0.196,0.118-0.396,0.18-0.595
		c0.011-0.049,0.027-0.097,0.019-0.14c-0.023-0.113-0.157-0.144-0.257-0.122c-0.062,0.013-0.13,0.03-0.196,0.03L152.184,214.132z"/>
	<path fill="#DA3F16" d="M132.155,232.915c-0.074-0.022-0.151-0.041-0.227-0.054l-2.297,2.267l-0.479,0.473
		c-1.522,1.768,0.916,4.056,2.539,2.593c0.042-0.039,0.088-0.082,0.13-0.125l2.636-2.854c-0.082-0.38-0.239-0.744-0.456-1.047
		C133.543,233.523,132.861,233.123,132.155,232.915z"/>
	<path fill="#BF320B" d="M131.72,238.024c-0.007,0.062-0.015,0.117-0.03,0.169c-1.623,1.463-4.061-0.825-2.539-2.593l0.479-0.473
		c0.149-0.03,0.311-0.03,0.483,0.014c0.425,0.104,0.79,0.429,1.039,0.833c0.253,0.404,0.398,0.878,0.502,1.355
		C131.706,237.556,131.744,237.79,131.72,238.024z"/>
	<path fill="#418C9C" d="M135.601,233.739c0.004,0.077,0.004,0.155,0,0.233l-1.147,1.243c-0.08-0.383-0.237-0.747-0.452-1.052
		c-0.46-0.643-1.138-1.042-1.848-1.251c-0.073-0.021-0.15-0.039-0.226-0.052l1.832-1.807c0.411,0.065,0.836,0.373,1.131,0.707
		C135.344,232.279,135.574,233.013,135.601,233.739z"/>
</g>
<g>
	<path fill="#E7C8B4" d="M154.212,220.44l-19.49,19l19.829,4.081c0,0,11.243-20.776,10.895-20.838
		C165.098,222.62,154.212,220.44,154.212,220.44z"/>
	<linearGradient id="SVGID_1_" gradientUnits="userSpaceOnUse" x1="126.3315" y1="238.6641" x2="182.0917" y2="228.2153">
		<stop  offset="0" style="stop-color:#FEECC1"/>
		<stop  offset="0.351" style="stop-color:#F6D6AC"/>
		<stop  offset="0.9441" style="stop-color:#E6A981"/>
	</linearGradient>
	<path fill="url(#SVGID_1_)" d="M190.275,221.929c-5.318,9.596-11.524,17.061-19.458,23.548
		c-12.431-0.097-24.583-3.326-35.734-9.551c8.564-4.448,16.392-10.706,22.961-18.354
		C167.765,221.41,179.121,221.929,190.275,221.929z"/>
	<g>
		<path fill="#897564" d="M152.746,229.82l-2.887-1.46l0.398-0.288c0.373-0.271,0.767-0.579,1.148-0.876
			c0.385-0.301,0.783-0.61,1.162-0.887l0.116-0.084l0.126,0.064c0.293,0.147,0.569,0.332,0.835,0.511
			c0.266,0.179,0.518,0.347,0.785,0.481l0.344,0.174l-0.271,0.298c-0.274,0.301-0.544,0.632-0.806,0.953
			c-0.267,0.327-0.542,0.666-0.827,0.978L152.746,229.82z M150.925,228.267l1.713,0.866c0.232-0.264,0.461-0.544,0.684-0.817
			c0.186-0.229,0.376-0.462,0.571-0.688c-0.174-0.104-0.343-0.218-0.507-0.329c-0.225-0.149-0.439-0.292-0.66-0.415
			c-0.338,0.249-0.689,0.522-1.03,0.79C151.441,227.87,151.181,228.072,150.925,228.267z"/>
	</g>
	<g>
		<path fill="#897564" d="M156.946,225.28l-0.151-0.05c-0.648-0.217-1.267-0.532-1.84-0.941l-0.22-0.155l0.196-0.339
			c0.381-0.66,0.775-1.344,1.311-1.859l0.122-0.117l0.146,0.072c0.31,0.152,0.604,0.296,0.899,0.438
			c0.293,0.143,0.586,0.285,0.895,0.438l0.329,0.161l-0.244,0.299c-0.263,0.322-0.45,0.619-0.647,0.934
			c-0.199,0.315-0.403,0.64-0.688,0.988L156.946,225.28z M155.449,223.954c0.423,0.275,0.871,0.5,1.336,0.669
			c0.208-0.272,0.371-0.528,0.541-0.799c0.14-0.222,0.283-0.448,0.455-0.686c-0.194-0.095-0.384-0.187-0.573-0.279
			c-0.248-0.119-0.495-0.239-0.751-0.366C156.069,222.904,155.752,223.43,155.449,223.954z"/>
	</g>
	<g>
		<path fill="#897564" d="M143.797,237.399l-3.153-1.217l0.378-0.328c0.246-0.214,0.513-0.473,0.771-0.724
			c0.264-0.256,0.538-0.521,0.794-0.744l0.113-0.098l0.132,0.058c0.726,0.311,1.545,0.791,2.307,1.355l0.364,0.27l-0.386,0.228
			c-0.42,0.249-0.909,0.715-1.208,1.067L143.797,237.399z M141.699,235.979l1.958,0.755c0.227-0.25,0.535-0.55,0.856-0.796
			c-0.58-0.401-1.179-0.745-1.728-0.994c-0.214,0.192-0.44,0.411-0.66,0.625C141.984,235.706,141.841,235.846,141.699,235.979z"/>
	</g>
	<g>
		<path fill="#897564" d="M148.441,233.587l-3.121-1.506l2.131-1.924l0.138,0.063c0.407,0.187,0.815,0.385,1.224,0.583
			c0.406,0.197,0.813,0.396,1.216,0.581l0.42,0.191l-0.363,0.308c-0.688,0.581-1.2,1.099-1.524,1.537L148.441,233.587z
			 M146.307,231.929l1.989,0.96c0.281-0.351,0.66-0.739,1.13-1.16c-0.271-0.129-0.543-0.261-0.815-0.393
			c-0.359-0.175-0.718-0.35-1.076-0.516L146.307,231.929z"/>
	</g>
	<g>
		<path fill="#897564" d="M177.762,236.765c-8.176-0.599-16.145-2.742-23.686-6.372l0.199-0.531
			c7.488,3.604,15.401,5.732,23.52,6.327L177.762,236.765z"/>
	</g>
	<g>
		<path fill="#897564" d="M178.457,235.668c-6.69-0.574-13.324-2.041-19.714-4.358l0.156-0.551
			c6.353,2.305,12.946,3.762,19.597,4.333L178.457,235.668z"/>
	</g>
	<g>
		<path fill="#897564" d="M173.882,240.012c-8.036-0.525-15.946-2.378-23.508-5.505l0.175-0.543
			c7.516,3.107,15.376,4.947,23.363,5.471L173.882,240.012z"/>
	</g>
	<g>
		<path fill="#897564" d="M156.822,235.378c-1.378-0.398-2.771-0.834-4.141-1.295l0.146-0.554c1.363,0.458,2.75,0.892,4.121,1.289
			L156.822,235.378z"/>
	</g>
	<g>
		<path fill="#897564" d="M165.619,237.5c-2.183-0.424-4.382-0.928-6.537-1.496l0.116-0.563c2.145,0.567,4.334,1.068,6.506,1.489
			L165.619,237.5z"/>
	</g>
	<g>
		<path fill="#897564" d="M171.532,238.463c-1.597-0.21-3.216-0.465-4.811-0.756l0.081-0.57c1.588,0.289,3.199,0.542,4.79,0.752
			L171.532,238.463z"/>
	</g>
	<g>
		<path fill="#897564" d="M175.208,238.879c-0.808-0.076-1.63-0.163-2.445-0.261l0.053-0.575c0.811,0.098,1.63,0.185,2.434,0.26
			L175.208,238.879z"/>
	</g>
	<g>
		<path fill="#897564" d="M168.447,243.635c-7.776,0-15.584-1.857-22.691-5.412l0.206-0.529c7.573,3.787,15.947,5.633,24.222,5.332
			l0.016,0.578C169.616,243.625,169.031,243.635,168.447,243.635z"/>
	</g>
	<g>
		<path fill="#897564" d="M168.864,242.43c-6.351,0-12.632-1.102-18.7-3.282l0.154-0.552c6.641,2.387,13.54,3.473,20.503,3.22
			l0.016,0.578C170.179,242.417,169.521,242.43,168.864,242.43z"/>
	</g>
	<g>
		<path fill="#897564" d="M181.002,230.839c-7.694-0.578-15.291-2.313-22.58-5.157l0.167-0.547
			c7.247,2.827,14.799,4.553,22.447,5.128L181.002,230.839z"/>
	</g>
	<g>
		<path fill="#897564" d="M181.716,229.066c-5.015-0.035-10.03-0.731-14.903-2.069l0.121-0.562c4.835,1.327,9.81,2.018,14.786,2.053
			L181.716,229.066z"/>
	</g>
	<g>
		<path fill="#897564" d="M169.338,232.923c-4.158-0.896-8.294-2.197-12.293-3.867l0.177-0.542
			c3.973,1.658,8.081,2.951,12.212,3.842L169.338,232.923z"/>
	</g>
	<g>
		<path fill="#897564" d="M179.558,234.342c-2.804-0.18-5.616-0.531-8.358-1.044l0.083-0.569c2.724,0.51,5.518,0.857,8.304,1.036
			L179.558,234.342z"/>
	</g>
</g>
<path fill="#E7C8B4" d="M233.428,231.524l-9.308,1.106l-6.066-8.51l-39.386-0.839c-1.445,5.065-4.526,9.756-8.58,14.223
	c0.355,0.054,35.674,0.489,51.04,0.676l13.824,12.249h4.615l17.972-4.381L233.428,231.524z"/>
<linearGradient id="SVGID_2_" gradientUnits="userSpaceOnUse" x1="221.6377" y1="235.2275" x2="265.4986" y2="235.3581">
	<stop  offset="0" style="stop-color:#FEECC1"/>
	<stop  offset="0.351" style="stop-color:#F6D6AC"/>
	<stop  offset="0.9441" style="stop-color:#E6A981"/>
</linearGradient>
<path fill="url(#SVGID_2_)" d="M218.701,223.878c3.898,10.167,10.049,18.878,17.982,25.365c12.431-0.096,24.584-3.326,35.734-9.55
	c-8.564-4.447-16.393-10.706-22.962-18.354C239.734,225.178,228.762,226.352,218.701,223.878z"/>
<g>
	<path fill="#897564" d="M236.574,246.15l-0.127-0.185c-0.456-0.668-0.979-1.281-1.552-1.822l-0.327-0.312l0.521-0.236
		c0.636-0.289,1.236-0.563,1.923-0.724l0.135-0.031l0.098,0.109c0.298,0.336,0.569,0.702,0.835,1.057
		c0.258,0.346,0.525,0.704,0.808,1.023l0.376,0.424l-0.527,0.067c-0.646,0.083-1.385,0.21-1.977,0.529L236.574,246.15z
		 M235.542,244.014c0.428,0.437,0.825,0.913,1.186,1.421c0.458-0.212,0.965-0.333,1.45-0.415c-0.168-0.211-0.329-0.428-0.488-0.641
		c-0.228-0.304-0.462-0.618-0.708-0.907C236.484,243.603,236.02,243.799,235.542,244.014z"/>
</g>
<g>
	<path fill="#897564" d="M232.953,241.823l-1.996-2.261l0.451-0.114c0.367-0.092,0.699-0.207,1.021-0.318
		c0.332-0.114,0.674-0.231,1.059-0.329l0.125-0.031l0.098,0.095c0.299,0.296,0.6,0.57,0.891,0.835
		c0.296,0.271,0.6,0.549,0.906,0.852l-0.235,0.313l0.017,0.071c-0.03,0.01-0.063,0.02-0.094,0.03l-0.02,0.025l-0.014-0.014
		c-0.303,0.101-0.629,0.238-0.946,0.372c-0.374,0.158-0.761,0.321-1.12,0.431L232.953,241.823z M231.964,239.887l1.14,1.289
		c0.299-0.101,0.621-0.236,0.934-0.369c0.221-0.093,0.444-0.187,0.665-0.271c-0.142-0.132-0.282-0.26-0.421-0.386
		c-0.264-0.239-0.534-0.487-0.807-0.753c-0.317,0.086-0.61,0.188-0.896,0.286C232.381,239.752,232.178,239.821,231.964,239.887z"/>
</g>
<g>
	<path fill="#897564" d="M229.793,238.051l-0.129-0.134c-0.596-0.624-1.087-1.353-1.461-2.167l-0.197-0.434l0.43,0.011
		c0.633,0.024,1.328-0.216,1.826-0.604l0.186-0.146l0.149,0.191c0.244,0.313,0.479,0.646,0.71,0.968
		c0.227,0.317,0.459,0.645,0.695,0.946l0.281,0.36l-0.414,0.112c-0.618,0.166-1.211,0.416-1.92,0.81L229.793,238.051z
		 M228.855,235.884c0.286,0.54,0.631,1.033,1.029,1.474c0.527-0.283,0.996-0.489,1.467-0.646c-0.149-0.202-0.297-0.41-0.442-0.612
		c-0.181-0.253-0.364-0.514-0.553-0.761C229.918,235.628,229.381,235.821,228.855,235.884z"/>
</g>
<g>
	<path fill="#897564" d="M226.457,233.69l-0.1-0.115c-0.516-0.598-0.953-1.272-1.302-2.005l-0.157-0.329l0.321-0.088
		c0.397-0.109,0.761-0.269,1.144-0.438c0.383-0.168,0.778-0.342,1.209-0.459l0.164-0.046l0.102,0.154
		c0.199,0.307,0.414,0.716,0.623,1.111c0.201,0.385,0.41,0.781,0.596,1.063l0.232,0.357l-0.382,0.097
		c-0.372,0.095-0.765,0.214-1.146,0.329c-0.387,0.115-0.785,0.236-1.166,0.333L226.457,233.69z M225.664,231.614
		c0.272,0.518,0.594,1,0.959,1.441c0.33-0.089,0.674-0.191,1.006-0.293c0.265-0.079,0.534-0.161,0.801-0.235
		c-0.135-0.236-0.272-0.499-0.407-0.756c-0.167-0.316-0.337-0.643-0.496-0.905c-0.335,0.104-0.648,0.242-0.979,0.388
		C226.264,231.379,225.972,231.508,225.664,231.614z"/>
</g>
<g>
	<path fill="#897564" d="M240.84,244.802l-0.082-0.571c7.283-1.354,14.375-3.821,21.074-7.332l0.215,0.524
		C255.305,240.955,248.17,243.438,240.84,244.802z"/>
</g>
<g>
	<path fill="#897564" d="M244.064,242.514l-0.081-0.57c1.911-0.349,3.833-0.82,5.714-1.405l0.135,0.559
		C247.934,241.686,245.994,242.163,244.064,242.514z"/>
</g>
<g>
	<path fill="#897564" d="M251.672,240.484l-0.152-0.551c3.2-1.133,6.316-2.608,9.263-4.384l0.24,0.51
		C258.048,237.853,254.902,239.342,251.672,240.484z"/>
</g>
<g>
	<path fill="#897564" d="M238.315,239.853l-0.075-0.571c5.773-0.968,11.384-2.869,16.676-5.648l0.215,0.524
		C249.795,236.96,244.137,238.877,238.315,239.853z"/>
</g>
<g>
	<path fill="#897564" d="M240.995,237.684l-0.095-0.567c3.092-0.659,6.168-1.589,9.142-2.761l0.168,0.545
		C247.211,236.082,244.111,237.02,240.995,237.684z"/>
</g>
<g>
	<path fill="#897564" d="M252.34,234.013l-0.186-0.538c0.567-0.249,1.137-0.51,1.69-0.775l0.198,0.532
		C253.484,233.499,252.91,233.762,252.34,234.013z"/>
</g>
<g>
	<path fill="#897564" d="M235.373,235.833l-0.088-0.57c5.913-1.164,11.752-2.997,17.352-5.445l0.184,0.538
		C247.188,232.819,241.318,234.661,235.373,235.833z"/>
</g>
<g>
	<path fill="#897564" d="M232.664,235.467l-0.105-0.565c1.123-0.271,2.264-0.559,3.392-0.857l0.118,0.563
		C234.937,234.906,233.791,235.196,232.664,235.467z"/>
</g>
<g>
	<path fill="#897564" d="M237.696,234.164l-0.122-0.562c1.447-0.402,2.902-0.831,4.324-1.273l0.135,0.558
		C240.607,233.33,239.148,233.76,237.696,234.164z"/>
</g>
<g>
	<path fill="#897564" d="M245.975,231.6l-0.146-0.553c1.834-0.628,3.682-1.301,5.49-2.001l0.164,0.548
		C249.67,230.296,247.815,230.971,245.975,231.6z"/>
</g>
<g>
	<polygon fill="#E7C8B4" points="265.385,248.834 261.374,248.834 252.975,244.557 257.361,242.982 	"/>
	<g>
		<path fill="#FEECC1" d="M272.035,243.628l-0.689,1.168c-1.67,1.571-3.699,2.886-5.961,4.038c-1.808-0.786-3.553-1.638-5.24-2.552
			c-1.371-0.738-2.701-1.521-3.993-2.346l0.968-1.764l0.015-0.027c1.401-1.16,2.796-2.084,4.19-2.705
			c1.813,0.351,3.637,0.925,5.465,1.665C268.533,241.81,270.281,242.669,272.035,243.628z"/>
		<path fill="#E6A981" d="M267.029,247.108c-1.418-0.71-2.837-1.414-4.259-2.124c-0.464-0.232-0.931-0.463-1.396-0.695
			c-0.021,0.017-0.043,0.033-0.063,0.049c-0.387,0.645-0.776,1.294-1.163,1.938c1.688,0.913,3.429,1.771,5.236,2.558
			c2.262-1.152,4.291-2.467,5.961-4.038l0.689-1.168C270.432,244.907,268.766,246.075,267.029,247.108z"/>
		<path fill="#897564" d="M266.789,241.105c-1.828-0.74-3.651-1.314-5.465-1.665c-1.395,0.621-2.789,1.545-4.19,2.705l-0.015,0.027
			c1.42,0.704,2.837,1.41,4.255,2.116C262.688,243.263,264.943,242.034,266.789,241.105z"/>
		<path fill="#625348" d="M261.374,244.289c-1.418-0.706-2.835-1.412-4.255-2.116l-0.968,1.764c0.688,0.439,1.39,0.865,2.103,1.281
			c0.232,0.136,0.473,0.265,0.707,0.399c0.393,0.223,0.787,0.443,1.188,0.659c0.387-0.645,0.776-1.294,1.163-1.938
			C261.331,244.322,261.354,244.306,261.374,244.289z"/>
	</g>
</g>
<g>
	<path fill="#897564" d="M236.005,230.818l-0.087-0.57c4.4-0.857,8.785-2.075,13.033-3.618l0.154,0.551
		C244.836,228.731,240.428,229.955,236.005,230.818z"/>
</g>
<g>
	<path fill="#897564" d="M231.368,230.419l-0.077-0.57c5.494-0.944,10.961-2.404,16.248-4.342l0.158,0.549
		C242.383,228.003,236.89,229.472,231.368,230.419z"/>
</g>
<g>
	<linearGradient id="SVGID_3_" gradientUnits="userSpaceOnUse" x1="172.1343" y1="227.7783" x2="226.4502" y2="227.7783">
		<stop  offset="0" style="stop-color:#FEECC1"/>
		<stop  offset="0.351" style="stop-color:#F6D6AC"/>
		<stop  offset="0.9441" style="stop-color:#E6A981"/>
	</linearGradient>
	<path fill="url(#SVGID_3_)" d="M226.45,234.974c-17.87,3.48-36.452,3.33-54.316-0.191c0.527-0.428,1.044-0.872,1.544-1.33
		c4.569-4.156,8.094-9.505,10.121-15.4c12.4,2.616,25.216,3.337,37.755,1.549c0.973,4.766,2.443,9.382,4.273,13.871
		C226.029,233.977,226.236,234.473,226.45,234.974z"/>
	<path fill="#E6A981" d="M225.828,233.472c-17.164,3.26-34.969,3.176-52.149-0.02c4.569-4.156,8.094-9.505,10.121-15.4
		c12.4,2.616,25.216,3.337,37.755,1.549C222.527,224.366,223.998,228.982,225.828,233.472z"/>
	<linearGradient id="SVGID_4_" gradientUnits="userSpaceOnUse" x1="171.813" y1="225.2637" x2="226.1289" y2="225.2637">
		<stop  offset="0" style="stop-color:#FEECC1"/>
		<stop  offset="0.351" style="stop-color:#F6D6AC"/>
		<stop  offset="0.9441" style="stop-color:#E6A981"/>
	</linearGradient>
	<path fill="url(#SVGID_4_)" d="M221.232,217.084c1.081,5.3,2.781,10.413,4.896,15.376c-17.871,3.478-36.454,3.328-54.316-0.195
		c5.32-4.315,9.413-10.186,11.666-16.728C195.88,218.15,208.691,218.874,221.232,217.084z"/>
	<g>
		<g>
			<path fill="#897564" d="M184.056,230.708l-0.143-0.004c-1.119-0.026-2.242-0.155-3.339-0.386l-0.362-0.074l0.362-0.688
				c0.34-0.651,0.66-1.267,1.167-1.84l0.08-0.091l0.113,0.007c1.012,0.06,1.956,0.272,3.159,0.712l0.314,0.114l-0.177,0.315
				c-0.176,0.313-0.37,0.618-0.557,0.912c-0.183,0.288-0.371,0.585-0.54,0.885L184.056,230.708z M181.027,229.822
				c0.909,0.17,1.833,0.271,2.754,0.301c0.154-0.266,0.318-0.524,0.478-0.775c0.118-0.187,0.239-0.377,0.355-0.568
				c-0.964-0.331-1.761-0.503-2.592-0.563C181.612,228.703,181.338,229.226,181.027,229.822z"/>
		</g>
		<g>
			<path fill="#897564" d="M185.758,226.662l-0.181-0.032c-0.936-0.168-1.849-0.447-2.653-0.694l-0.331-0.101l0.18-0.33
				c0.4-0.733,0.743-1.512,1.021-2.315l0.083-0.238l0.218,0.064c0.422,0.123,0.859,0.306,1.282,0.482
				c0.412,0.173,0.838,0.351,1.234,0.466l0.312,0.091l-0.149,0.323c-0.162,0.349-0.313,0.695-0.463,1.044
				c-0.153,0.352-0.305,0.704-0.469,1.057L185.758,226.662z M183.383,225.477c0.654,0.199,1.368,0.406,2.092,0.549
				c0.13-0.287,0.254-0.572,0.378-0.859c0.107-0.245,0.214-0.492,0.325-0.74c-0.326-0.112-0.656-0.251-0.978-0.386
				c-0.337-0.141-0.684-0.285-1.017-0.397C183.954,224.273,183.686,224.889,183.383,225.477z"/>
		</g>
		<g>
			<path fill="#897564" d="M187.347,222.728l-0.192-0.053c-0.432-0.118-0.843-0.236-1.253-0.354
				c-0.402-0.115-0.804-0.23-1.228-0.347l-0.327-0.089l0.165-0.334c0.267-0.538,0.49-1.109,0.666-1.693l0.075-0.25l0.226,0.063
				c0.413,0.111,0.862,0.185,1.297,0.258c0.446,0.072,0.907,0.149,1.342,0.268l0.32,0.087l-0.154,0.329
				c-0.125,0.265-0.271,0.606-0.417,0.948c-0.149,0.35-0.299,0.699-0.427,0.97L187.347,222.728z M185.115,221.501
				c0.31,0.087,0.611,0.172,0.912,0.26c0.347,0.1,0.694,0.199,1.054,0.299c0.103-0.229,0.215-0.49,0.327-0.753
				c0.092-0.215,0.185-0.432,0.272-0.628c-0.32-0.071-0.653-0.126-0.978-0.18c-0.37-0.061-0.75-0.124-1.117-0.211
				C185.45,220.703,185.293,221.108,185.115,221.501z"/>
		</g>
		<g>
			<path fill="#897564" d="M200.777,230.989c-4.208,0-8.415-0.178-12.602-0.534l0.039-0.575c10.786,0.916,21.702,0.647,32.443-0.801
				l0.062,0.575C214.113,230.544,207.443,230.989,200.777,230.989z"/>
		</g>
		<g>
			<path fill="#897564" d="M200.234,229.373c-1.443,0-2.883-0.025-4.321-0.076l0.016-0.578c7.991,0.281,16.056-0.221,23.972-1.49
				l0.071,0.572C213.452,228.846,206.831,229.373,200.234,229.373z"/>
		</g>
		<g>
			<path fill="#897564" d="M202.488,227.004c-4.629,0-9.259-0.328-13.864-0.985l0.064-0.573c10.156,1.448,20.435,1.293,30.552-0.468
				l0.078,0.571C213.742,226.519,208.116,227.004,202.488,227.004z"/>
		</g>
		<g>
			<path fill="#897564" d="M202.365,225.813c-0.88,0-1.758-0.012-2.632-0.035l0.013-0.578c2.095,0.058,4.224,0.046,6.325-0.035
				l0.018,0.578C204.854,225.789,203.607,225.813,202.365,225.813z"/>
		</g>
		<g>
			<path fill="#897564" d="M210.191,225.496l-0.036-0.576c3.132-0.256,6.29-0.669,9.387-1.229l0.08,0.57
				C216.512,224.824,213.339,225.24,210.191,225.496z"/>
		</g>
		<g>
			<path fill="#897564" d="M202.969,223.581c-3.803,0-7.604-0.246-11.39-0.74l0.059-0.574c9.083,1.186,18.265,0.94,27.29-0.73
				l0.083,0.57C213.699,223.09,208.334,223.581,202.969,223.581z"/>
		</g>
		<g>
			<path fill="#897564" d="M206.24,222.114c-0.666,0-1.329-0.012-1.99-0.036l0.017-0.579c2.743,0.103,5.521-0.009,8.257-0.331
				l0.055,0.574C210.478,221.99,208.354,222.114,206.24,222.114z"/>
		</g>
		<g>
			<path fill="#897564" d="M214.726,221.445l-0.071-0.573c0.984-0.155,1.971-0.341,2.936-0.548l0.096,0.567
				C216.713,221.102,215.717,221.288,214.726,221.445z"/>
		</g>
	</g>
</g>
</svg>
