<?xml version="1.0" encoding="utf-8"?>
<!-- Generator: Adobe Illustrator 16.0.0, SVG Export Plug-In . SVG Version: 6.00 Build 0)  -->
<!DOCTYPE svg PUBLIC "-//W3C//DTD SVG 1.1//EN" "http://www.w3.org/Graphics/SVG/1.1/DTD/svg11.dtd">
<svg version="1.1" id="Capa_1" xmlns="http://www.w3.org/2000/svg" xmlns:xlink="http://www.w3.org/1999/xlink" x="0px" y="0px"
	 width="400px" height="400px" viewBox="0 0 400 400" enable-background="new 0 0 400 400" xml:space="preserve">
<g>
	<path fill="#5E0808" d="M219.017,175.364l4.922-1.869c0,0,1.514-0.085,2.109,5.779c0.6,5.862,1.77,17.112-2.531,17.265
		C219.214,196.693,211.55,185.775,219.017,175.364z"/>
	<g>
		<path fill="#EFCAA6" d="M167.461,191.55c0,0-15.272,13.7-24.837,17.759c0,0-1.053,0.379-0.285,2.975
			c0.77,2.6,1.221,3.762,2.748,3.418c1.527-0.348,19.042-10.309,25.419-17.793L167.461,191.55z"/>
		<path fill="#F4D9BF" d="M164.576,203.389c2.354-1.859,4.444-3.738,5.931-5.48l-3.045-6.358c0,0-2.85,2.555-6.856,5.784
			C161.529,199.605,162.81,201.723,164.576,203.389z"/>
		<path fill="#EFCAA6" d="M143.705,209.189c-0.042-0.021-0.087-0.043-0.128-0.07c-0.017-0.016-0.039-0.018-0.054-0.016
			c-3.355-4.178-7.156-5.584-8.211-5.219c-1.46,0.506,3.718,4.168,4.657,5.268c-0.539-0.408-6.984-4.398-7.882-3.586
			c-0.758,0.684-0.113,1.395,2.26,2.791c0.647,0.383,3.084,2.18,3.724,2.551c-0.356-0.084-0.714-0.172-1.068-0.275
			c-0.881-0.26-7.271-2.404-7.96-1.424c-0.463,0.666,1.737,1.703,5.885,3.299c0.98,0.379,1.865,0.99,2.862,1.273
			c-1.619,0.021-9.576-1.461-9.647,0.701c-0.045,1.35,4.657,1.342,5.602,1.451c1.159,0.133,2.832,0.258,3.825,0.219
			c0.953-0.033,1.51,0.119,1.926,1.316c0.415,1.193-4.651,4.297-1.584,4.945c1.033,0.221,6.06-4.172,6.542-5.748
			c0.109-0.355,0.338-0.68,0.634-0.965C144.965,213.422,144.477,211.32,143.705,209.189z"/>
	</g>
	<g>
		<path fill="#E30613" d="M182.397,180.658c0,0-6.678-1.586-11.608,2.895c-4.931,4.476-11.005,9.077-11.005,9.077
			s6.008,10.073,12.331,13.126L182.397,180.658z"/>
	</g>
	<g>
		<path fill="#DEDBC3" d="M164.489,189.847c1.943-1.807,3.846-3.677,5.892-5.364c1.89-1.558,3.847-2.858,5.997-3.754
			c-1.829,0.4-3.82,1.215-5.588,2.825c-4.931,4.476-11.005,9.077-11.005,9.077s0.14,0.232,0.393,0.633
			C161.519,192.017,163.139,191.098,164.489,189.847z"/>
	</g>
	<g>
		<path fill="#DCB1B1" d="M174.671,188.813c-1.155,2.446-1.821,5.01-2.771,7.533c-0.463,1.227-0.964,3.084-2.138,3.826
			c-1.893,1.197-4.204-0.326-5.726-1.553c2.236,2.75,5.124,5.709,8.08,7.137l10.214-24.932
			C178.869,182.369,176.356,185.256,174.671,188.813z"/>
	</g>
	<path fill="#EFCAA6" d="M242.894,168.329c-17.057,6.636-31.82,10.427-31.82,10.427l2.633,14.876
		c14.523-5.063,31.896-16.328,31.896-16.328L242.894,168.329z"/>
	<path opacity="0.5" fill="#EFCAA6" d="M238.782,179.036c-4.742,2.804-9.607,6.257-15.148,7.096
		c-5.59,0.849-4.73-6.457-2.504-10.269c-6.133,1.885-10.057,2.893-10.057,2.893l2.633,14.876
		c14.523-5.063,31.896-16.328,31.896-16.328l-0.594-1.97C242.94,176.58,240.858,177.805,238.782,179.036z"/>
	<path fill="#E30613" d="M217.966,178.649c0.783-2.205,2.5-3.612,5.973-5.154c-0.002-0.005-0.004-0.01-0.006-0.013
		c-3.916,0.823-12.459-0.342-26.918,5.232l14.059,19.366c0,0,3.652-0.611,11.941-1.266c0.191-0.012,0.34-0.176,0.502-0.275
		C216.22,193.784,217.138,180.985,217.966,178.649z"/>
	<path fill="#DEDBC3" d="M212.37,175.178c2.598-0.522,5.188-0.945,7.811-1.283c0.234-0.031,0.473-0.057,0.713-0.083
		c-4.668,0.298-12.404,0.478-23.879,4.902l0.05,0.067C202.032,176.977,207.198,176.213,212.37,175.178z"/>
	<path fill="#DCB1B1" d="M217.606,186.78c-0.061,1.752-0.068,3.518-0.271,5.247c-0.113,0.997-0.906,1.729-1.893,1.786
		c-4.289,0.234-4.854-3.162-6.805-6.231c-2.572-4.045-6.432-8.446-11.441-8.62l13.877,19.117c0,0,3.652-0.611,11.941-1.266
		c0.191-0.012,0.34-0.176,0.502-0.275C219.659,195.083,218.099,190.82,217.606,186.78z"/>
	<path fill="#DEDBC3" d="M221.538,173.771c-0.619,0.589-1.143,1.277-1.58,2.043c0.961-0.818,2.252-1.55,3.98-2.318
		c-0.002-0.005-0.004-0.01-0.006-0.013C223.269,173.62,222.468,173.703,221.538,173.771z"/>
	<g>
		<path fill="#EFCAA6" d="M270.032,160.345c-0.506-1.342-0.941-2.727-1.617-3.983c-0.438-0.813-0.988-1.54-1.42-2.355
			c-0.033-0.067-0.047-0.14-0.07-0.213c-0.023-0.016-0.039-0.026-0.066-0.042c-0.018-0.008-0.025,0.026-0.037,0.039
			c-0.002-0.023-0.008-0.044-0.008-0.065c-0.121-1.283-2.014-5.452-4.586-6.218c-1.518-0.454-3.184-0.355-4.752-0.272
			c-2.896,0.151-5.809,1.07-8.717,0.833c-1.016-0.083-2.09-0.517-2.482-1.571c-1.061-2.84-3.1-8.814-5.441-11.029
			c-1.678-1.584-4.689-3.053-6.871-1.433c-1.525,1.137-1.855,2.321-1.412,4.19c0.357,1.498,1.383,2.812,2.166,4.094
			c1.34,2.188,2.34,4.491,2.879,7.015c0.951,4.46-0.498,8.936,0.07,13.386c0.369,2.911,1.479,4.816,3.262,6.54
			c0.063,0.883,0.154,1.766,0.289,2.633c2.063,7.062,8.111,12.831,15.744,12.389c3.902-0.223,10.127-1.693,10.949-6.434
			c0.174-1.015-0.291-2.671,0.316-3.531c1.027-1.443,1.826-4.294,0.604-5.891c-0.111-0.148-0.064-0.33,0.057-0.446
			c0.346-0.327,0.625-0.725,0.85-1.163c0.467-1.488,0.602-3.11,0.502-4.712c-0.039-0.078-0.074-0.156-0.111-0.231
			c0.031-0.125,0.045-0.242,0.07-0.366C270.157,161.116,270.099,160.732,270.032,160.345z"/>
		<path fill="#EFCAA6" d="M240.929,169.263c0.043,0.592,0.105,1.179,0.176,1.766c-0.014-0.509,0.027-1.015,0.131-1.521
			c-0.037-0.021-0.074-0.047-0.107-0.094c-1.01-1.368-2.002-2.362-2.582-4.003c-0.461-1.311-0.619-2.742-0.563-4.123
			c0.133-3.279,1.184-6.491,1.117-9.772c-0.078-3.923-2.199-7.291-4.236-10.489c-1.199-1.89-2.123-3.894-1.906-5.997
			c-0.635,0.867-0.725,1.856-0.406,3.199c0.357,1.498,1.383,2.812,2.166,4.094c1.34,2.188,2.34,4.491,2.879,7.015
			c0.951,4.46-0.498,8.936,0.07,13.386C238.036,165.634,239.146,167.539,240.929,169.263z"/>
		<path fill="#C39368" d="M269.817,166.511c0.395-1.417,0.52-2.937,0.42-4.445c-0.117,0.651-0.236,1.309-0.4,1.944
			c-0.092,1.493-0.426,2.825-1.309,4.017c-0.037,0.042-0.074,0.091-0.104,0.146c-0.5,0.639-1.17,1.236-2.049,1.796
			c-2.094,1.334-4.693,1.82-7.092,2.233c-2.592,0.444-5.207,0.535-7.826,0.348c-2.709-0.192-6.627-3.251-4.029-6.569
			c1.678,0.402,3.639-0.158,5.172-0.602c2.764-0.805,5.568-1.535,8.256-2.581c4.713-1.828,5.959-4.518,5.957-9.401
			c0-0.283-0.32,0.013-0.334,0.174c-0.264,3.074-0.619,6.109-3.662,7.776c-1.902,1.041-3.934,1.695-6.008,2.306
			c-4.146,1.228-9.295,3.72-12.346-0.808c-2.965-4.398,2.381-6.628,4.943-7.457c1.664-0.535,3.4-0.763,5.057-1.334
			c2.086-0.717,1.889-2.838,2.48-4.712c0.033-0.101-0.068-0.091-0.1-0.013c-0.682,1.688-1.025,3.811-3.148,4.522
			c-1.35,0.452-2.805,0.621-4.172,1.013c-1.766,0.504-3.389,1.298-4.729,2.576c-2.512,2.407-1.227,5.956,1.143,7.83
			c0.342,0.273,0.715,0.467,1.111,0.603c-1.895,0.665-0.881,4.351,0.389,5.429c0.484,0.408,0.791,0.966,1.377,1.27
			c-0.793,1.942-0.922,4.006,0.697,5.541c0.463,0.431,1.012,0.743,1.607,0.966c0.779,9.513,19.645,4.507,16.881-4.133
			c-0.041-0.132-0.127-0.153-0.221-0.122c1.672-1.711,2.432-3.97,1.098-6.735C269.259,167.607,269.567,167.08,269.817,166.511z
			 M251.325,179.16c3.102,1.033,7.566-0.296,10.148-0.966c2.1-0.545,4.4-1.581,6.008-3.079c-0.053,0.104-0.082,0.208-0.057,0.293
			C269.665,182.639,253.552,187.59,251.325,179.16z M260.497,177.95c-4.334,1.132-13.77,2.176-11.535-5.317
			c2.57,1.215,7.035,0.483,9.131,0.213c3.775-0.494,7.939-1.711,10.334-4.245C271.2,174.264,264.647,176.865,260.497,177.95z"/>
		<path opacity="0.5" fill="#EFCAA6" d="M270.198,161.511c-0.041-0.395-0.1-0.779-0.166-1.166c-0.506-1.342-0.941-2.727-1.617-3.983
			c-0.438-0.813-0.988-1.54-1.42-2.355c-0.033-0.067-0.047-0.14-0.07-0.213c-0.023-0.016-0.039-0.026-0.066-0.042
			c-0.018-0.008-0.025,0.026-0.037,0.039c-0.002-0.023-0.008-0.044-0.008-0.065c-0.121-1.283-2.014-5.452-4.586-6.218
			c-1.518-0.454-3.184-0.355-4.752-0.272c-2.896,0.151-5.809,1.07-8.717,0.833c-1.016-0.083-2.09-0.517-2.482-1.571
			c-1.061-2.84-3.1-8.814-5.441-11.029c-1.678-1.584-4.689-3.053-6.871-1.433c-0.82,0.61-1.283,1.236-1.477,1.968
			c0.287-0.47,0.674-0.888,1.17-1.215c2.293-1.519,5.195,1.166,6.383,2.967c1.83,2.786,2.424,5.771,3.32,8.916
			c0.6,2.103,1.578,3.752,3.979,3.843c1.664,0.065,3.328-0.195,4.875,0.576c0.273,0.138,0.227,0.563-0.088,0.607
			c-2.98,0.437-6.092,2.147-8.049,4.481c-1.023,1.223-2.078,2.89-1.883,4.587c0.207,1.828,1.326,3.349,1.582,5.146
			c0.311,2.202-1.189,4.159-3.377,2.765c-0.037-0.023-0.068-0.049-0.107-0.076c0.203,0.224,0.416,0.441,0.637,0.66
			c0.063,0.883,0.154,1.766,0.289,2.633c2.063,7.062,8.111,12.831,15.744,12.389c3.902-0.223,10.127-1.693,10.949-6.434
			c0.174-1.015-0.291-2.671,0.316-3.531c1.027-1.443,1.826-4.294,0.604-5.891c-0.111-0.148-0.064-0.33,0.057-0.446
			c0.346-0.327,0.625-0.725,0.85-1.163c0.467-1.488,0.602-3.11,0.502-4.712c-0.039-0.078-0.074-0.156-0.111-0.231
			C270.159,161.752,270.173,161.635,270.198,161.511z M243.847,160.187c0.926-3.715,5.018-4.349,8.037-5.545
			c0.701-0.338,1.406-0.67,2.088-1.049c1.732-0.969,2.824-2.29,3.527-4.175c0.08-0.206,0.42-0.275,0.539-0.068
			c1.559,2.698,1.65,6.688-0.299,9.248c-1.916,2.513-5.527,3.37-8.482,3.788C247.659,162.614,243.077,163.271,243.847,160.187z
			 M248.233,179.991c-0.461,0.384-1.313-0.13-1.693-0.379c-2.416-1.583-4.271-4.356-4.309-7.327c0-0.14,0.072-0.236,0.166-0.293
			c0.072-0.825,0.398-1.425,1.307-1.012c2.492,1.137,3.684,4.634,4.545,7.049C248.46,178.618,248.819,179.508,248.233,179.991z
			 M262.12,179.316c-2.07,2.433-7.201,4.642-9.107,0.924c-0.086-0.166,0.059-0.439,0.254-0.436c0.236,0.002,0.471,0,0.707,0.002
			c2.85,0.672,5.402-1.275,7.947-1C262.147,178.828,262.271,179.14,262.12,179.316z M259.755,177.14
			c-2.266,0.992-5.275,1.792-7.689,0.841c-1.193-0.467-3.836-3.183-1.584-4.024c1.063-0.395,2.357,0.135,3.438,0.159
			c2.916,0.06,5.639-0.891,8.391-1.727c0.191-0.067,0.379-0.125,0.574-0.171c0.064-0.018,0.127-0.039,0.189-0.057
			c0.023-0.005,0.043-0.005,0.068-0.005c0.229-0.046,0.467-0.083,0.713-0.104c0.215-0.019,0.365,0.15,0.352,0.361
			C264.06,174.736,261.651,176.31,259.755,177.14z M256.575,170.458c-2.426,0.704-6.635,1.35-8.443-0.891
			c-0.02-0.013-0.039-0.018-0.059-0.036c-0.674-0.652-1.307-1.82-0.898-2.781c0.439-1.039,2.678-0.805,3.529-0.963
			c4.455-0.828,9.541-1.212,13.43-3.757c0.193-0.129,0.473-0.042,0.5,0.213C265.147,166.63,260.063,169.445,256.575,170.458z"/>
	</g>
	<g>
		<path fill="#EFCAA6" d="M153.667,292.775c3.897-0.258,3.897-0.258,3.897-0.258l0.025-1.73c0.091-8.65,2.056-25.861,14.527-45.914
			l-6.5-4.074c0,0-15.006,14.801-13.825,49.877c0,0-0.038,0.006-0.106,0.021C152.466,290.83,153.312,291.33,153.667,292.775z"/>
		<path opacity="0.5" fill="#EFCAA6" d="M166.302,246.908c1.06,1.064,1.849,2.357,2.458,3.748c1.025-1.896,2.139-3.826,3.356-5.783
			l-6.5-4.074c0,0-1.603,1.59-3.716,4.936C163.398,245.322,164.95,245.551,166.302,246.908z"/>
		<path fill="#E30613" d="M157.588,290.787l-0.025,1.73c0,0,0,0-3.897,0.258c-0.355-1.445-1.201-1.945-1.982-2.078
			c-0.334,0.066-1.43,0.371-2.396,1.531c-1.166,1.393-4.973,1.84-9.286,1.756c-4.318-0.078-5.681,1.668-6.206,4.502
			c-0.015,0.057-0.025,0.107-0.033,0.162c1.448,0.539,4.596,1.182,11.315,1.111c7.713-0.074,12.608-1.459,14.954-2.342
			C160.319,294.996,160.399,290.762,157.588,290.787z"/>
		<path fill="#CAC7A8" d="M133.764,298.648c-0.322,2.098,2.458,2.781,10.291,2.957c8.03,0.18,15.509-1.438,15.765-2.762
			c0.054-0.275,0.144-0.789,0.214-1.426c-2.346,0.883-7.241,2.268-14.954,2.342C138.36,299.83,135.211,299.188,133.764,298.648z"/>
	</g>
	<g>
		<path fill="#EFCAA6" d="M235.411,285.383l-20.156-44.111l-9.363,3.232c0,0,20.039,36.41,25.408,46.125l1.432-1.488
			C232.731,289.141,233.452,286.379,235.411,285.383z"/>
		<path opacity="0.5" fill="#EFCAA6" d="M217.538,246.268l-2.283-4.996l-9.363,3.232c0,0,1.307,2.375,3.34,6.066
			C211.14,248.082,214.274,246.701,217.538,246.268z"/>
		<path fill="#E30613" d="M240.626,284.486c-1.082,1.01-1.957,1.654-2.414,1.137c-0.795-0.91-2.801-0.24-2.801-0.24
			c-1.959,0.996-2.68,3.758-2.68,3.758l-1.432,1.488c-1.361,1.447-0.975,6.031,1.006,8.254c0.477-1.449,1.676-3.453,4.373-6.096
			c5.641-5.525,13.756-11.875,17.24-10.824C252.421,280.365,245.169,280.238,240.626,284.486z"/>
	</g>
	<path fill="#009A9A" d="M174.649,222.168l-12.285,14.395l-0.627-0.299l-1.314,2.201c0,0,11.226,9.076,19.698,10.051
		c1.532-2.057,1.55-2.363,1.55-2.363l-0.337-0.281c0,0,5.663-7.133,7.018-10.385c3.539,0.729,5.641,0.186,5.641,0.186l4.319,8.975
		l-0.574,0.273l2.299,3.234c0,0,13.564-3.986,20.166-6.723c-0.822-3.914-1.004-4.191-1.004-4.191l-0.475,0.238
		c0,0-4.244-10.531-6.336-17.457C204.142,221.783,187.683,224.186,174.649,222.168z"/>
	<path fill="#009A9A" d="M179.752,229.674c4.428,0.688,8.953,1.049,13.431,0.875c7.311-0.285,14.469-1.744,21.348-4.115
		c-0.789-2.215-1.551-4.457-2.143-6.412c-8.246,1.762-24.705,4.164-37.739,2.146l-3.757,4.402
		C173.429,228.406,176.724,229.203,179.752,229.674z"/>
	<path fill="#096C6B" d="M183.735,233.689c0,0,0.211,0.141,0.6,0.326c0.195,0.096,0.437,0.201,0.71,0.309
		c0.282,0.098,0.598,0.217,0.95,0.322c0.351,0.111,0.735,0.201,1.145,0.293c0.406,0.09,0.848,0.156,1.293,0.232
		c0.457,0.053,0.924,0.131,1.402,0.156c0.479,0.037,0.966,0.076,1.453,0.072l0.731,0.023c0.241-0.002,0.485-0.012,0.726-0.012
		c0.481-0.02,0.954-0.02,1.412-0.055c0.455-0.047,0.902-0.053,1.321-0.1c0.42-0.041,0.819-0.088,1.183-0.127
		c0.734-0.072,1.343-0.174,1.773-0.229c0.426-0.047,0.672-0.082,0.672-0.082s-0.235,0.066-0.654,0.184
		c-0.208,0.061-0.463,0.125-0.758,0.199c-0.289,0.082-0.619,0.17-0.986,0.227c-0.366,0.063-0.764,0.139-1.183,0.213
		c-0.42,0.078-0.868,0.123-1.336,0.174c-0.458,0.061-0.939,0.092-1.43,0.107c-0.249,0.008-0.49,0.016-0.737,0.027l-0.749-0.016
		c-0.497-0.004-0.997-0.049-1.483-0.098c-0.488-0.029-0.966-0.141-1.43-0.203c-0.461-0.094-0.898-0.197-1.312-0.316
		c-0.415-0.125-0.8-0.254-1.149-0.396c-0.354-0.121-0.659-0.283-0.931-0.42c-0.269-0.143-0.5-0.277-0.681-0.398
		C183.918,233.867,183.735,233.689,183.735,233.689z"/>
	<g>
		<path fill="#096C6B" d="M214.337,225.891c-0.721-2.041-1.406-4.076-1.949-5.869c-1.117,0.232-2.389,0.486-3.779,0.738
			C208.919,222.432,210.138,226.756,214.337,225.891z"/>
		<path fill="#096C6B" d="M161.737,236.264l-1.314,2.201c0,0,11.226,9.076,19.698,10.051c1.532-2.057,1.55-2.363,1.55-2.363
			l-0.337-0.281l-18.97-9.309L161.737,236.264z"/>
		<path fill="#096C6B" d="M176.847,222.459c-0.742-0.084-1.479-0.182-2.198-0.291l-4.959,5.801
			C174.207,228.58,176.213,224.268,176.847,222.459z"/>
		<path fill="#096C6B" d="M219.198,237.24l-0.475,0.238l-20.412,7.168l-0.574,0.273l2.299,3.234c0,0,13.564-3.986,20.166-6.723
			C219.38,237.518,219.198,237.24,219.198,237.24z"/>
	</g>
	<g opacity="0.5">
		<path fill="#009A9A" d="M212.782,221.271c-0.139-0.428-0.27-0.846-0.395-1.25c-8.246,1.762-24.705,4.164-37.739,2.146l-2.01,2.35
			C178.57,225.471,196.988,227.656,212.782,221.271z"/>
		<path fill="#009A9A" d="M203.101,232.865c-4.76,3.014-16.396,2.07-21.435-0.434c0.988,1.645,1.765,2.793,1.765,2.793
			l-9.575,11.477c2.121,0.902,4.266,1.588,6.265,1.814c1.532-2.057,1.55-2.363,1.55-2.363l-0.337-0.281
			c0,0,5.663-7.133,7.018-10.385c3.539,0.729,5.641,0.186,5.641,0.186l4.319,8.975l-0.574,0.273l2.299,3.234
			c0,0,1.967-0.582,4.764-1.445c-2.11-4.17-5.822-11.398-5.822-11.398S200.066,235.254,203.101,232.865z"/>
	</g>
	<g>
		<path fill="#CAC7A8" d="M236.144,296.227c3.469-4.264,13.865-14.262,18.215-12.838c0.041-0.482-0.029-0.895-0.252-1.203
			c-0.053-0.08-0.121-0.146-0.188-0.223c-3.484-1.051-11.6,5.299-17.24,10.824c-2.697,2.643-3.896,4.646-4.373,6.096
			c0.256,0.285,0.539,0.539,0.838,0.734c0.494,0.314,1.115,0.457,1.826,0.471C234.474,299.414,234.485,298.252,236.144,296.227z"/>
		<path fill="#FFFACE" d="M236.144,296.227c-1.658,2.025-1.67,3.188-1.174,3.861c3.219,0.043,8.326-2.736,12.01-6.182
			c3.752-3.521,7.146-8.031,7.379-10.518C250.009,281.965,239.612,291.963,236.144,296.227z"/>
	</g>
	<path fill="#E3BB94" d="M189.53,182.224c2.47-0.174,2.752-4.047,2.752-4.047l0.043-0.049c-0.059,0.018-0.089,0.026-0.089,0.026
		l-0.119-1.064l-6.378,0.275l0.162,1.56C185.901,178.924,185.944,182.515,189.53,182.224z"/>
	<path fill="#EFCAA6" d="M167.098,135.88c-1.474,2.76-2.662,8.03-2.766,12.716c-0.103,4.687-2,8.604-2,8.604
		c-1.555,4.03-0.503,19.815,24.47,20.765c17.91-0.254,26.064-6.343,26.799-18.896c0,0,0.125-13.251-0.883-21.585
		C192.366,133.59,178.568,134.447,167.098,135.88z"/>
	<path fill="#EFCAA6" d="M187.059,137.184c9.473-0.633,19.429,1.36,26.251,7.724c-0.133-2.594-0.32-5.185-0.592-7.423
		c-20.352-3.895-34.149-3.038-45.62-1.604c-1.101,2.064-2.043,5.525-2.492,9.105C170.57,139.842,180.023,137.656,187.059,137.184z"
		/>
	<g>
		<path fill="none" stroke="#5BB354" stroke-width="0.3816" stroke-miterlimit="10" d="M161.285,148.14
			c0.132-0.042,0.261-0.078,0.38-0.119C161.531,148.052,161.404,148.093,161.285,148.14z"/>
		<path fill="#F4D9BF" d="M161.665,148.021c-0.119,0.042-0.248,0.078-0.38,0.119c-3.408,1.392-3.354,9.98,1.047,9.061
			c0,0,1.803-3.733,1.985-8.279C163.673,147.922,162.497,147.725,161.665,148.021z"/>
	</g>
	<path fill="#5D1A00" d="M158.166,140.231c0.158,1.117,3.401,0.091,3.401,0.091s-3.475,3.025-2.879,4.172
		c0.587,1.15,3.144-1.256,3.144-1.256s-1.571,2.466-0.167,4.782c0.832-0.296,2.008-0.099,2.652,0.901
		c0.004-0.106,0.012-0.215,0.015-0.325c0.104-4.686,1.292-9.957,2.766-12.716c-2.52,0.4-4.25,1.285-4.25,1.285
		S158.145,138.775,158.166,140.231z"/>
	<path fill="#F4D9BF" d="M218.028,151.668c-1.346-2.49-3.342-1.831-4.512-1.129c0.078,3.217,0.09,5.966,0.084,7.425
		C216.815,159.82,219.382,155.16,218.028,151.668z"/>
	<g>
		<path fill="#5D1A00" d="M217.688,145.954c2.705,0.499,4.244-1.913-0.381-4.138c1.807-0.01,1.963-0.79,1.963-0.79
			s1.434-0.137,1.518-1.583c0.076-1.293-3.35-1.454-4.055-1.48l-0.053,0.052l-3.963-0.53c0.471,3.895,0.691,8.864,0.799,13.054
			c1.018-0.613,2.654-1.179,3.947,0.301C218.876,150.134,220.88,148.524,217.688,145.954z"/>
		<path fill="#006AB0" d="M219.271,141.026c0,0-0.156,0.779-1.963,0.79c4.625,2.225,3.086,4.637,0.381,4.138
			c3.191,2.57,1.188,4.18-0.225,4.886c0.197,0.224,0.385,0.499,0.564,0.829c1.354,3.492-1.213,8.152-4.428,6.296
			c0.002,0.704,0,1.106,0,1.106c5.793,0.353,11.059-3.341,11.643-9.435C225.558,146.089,219.271,141.026,219.271,141.026z"/>
	</g>
	<polygon fill="none" stroke="#5BB354" stroke-width="0.3816" stroke-miterlimit="10" points="187.39,132.412 187.555,134.611 
		190.7,134.748 190.74,132.744 	"/>
	<g>
		<path fill="#E30613" d="M186.104,113.994c-12.216,1.703-20.086,7.334-23.255,23.172c0,0,1.729-0.885,4.25-1.285
			c2.379-0.296,4.863-0.569,7.48-0.779C174.552,130.9,175.5,119.316,186.104,113.994z"/>
		<path fill="#E30613" d="M216.593,137.962c0,0-0.625-22.224-22.752-24.187c4.517,3.007,10.639,9.492,9.293,22.151
			c3.031,0.405,6.215,0.912,9.584,1.558l3.963,0.53l0.053-0.052C216.646,137.962,216.593,137.962,216.593,137.962z"/>
		<path fill="#006AB0" d="M193.841,113.775c-1.501-0.137-3.098-0.174-4.805-0.109c-1.005,0.088-1.98,0.203-2.932,0.327
			c-10.604,5.322-11.552,16.907-11.525,21.108c7.912-0.639,17.086-0.707,28.555,0.825
			C204.479,123.268,198.357,116.782,193.841,113.775z"/>
	</g>
	<path fill="#FECB27" d="M187.37,113.729c0,0,0.285-1.631,2.086-1.646c1.808-0.016,2.251,1.433,2.251,1.433L187.37,113.729z"/>
	<g>
		<path fill="#FFFFFF" d="M188.215,167.041c6.11-0.354,7.88-2.643,8.424-4.424c-7.022,1.467-12.672,1.306-16.511,0.794
			C180.795,164.813,182.765,167.363,188.215,167.041z"/>
		<path fill="#ED6C73" d="M188.552,168.754c-3.536,0.104-5.107,2.357-5.713,3.609c1.546,0.41,3.293,0.54,5.286,0.459
			c2.12-0.086,4.106-0.532,5.9-1.291C193.313,170.338,191.75,168.656,188.552,168.754z"/>
		<path fill="#F6B9C6" d="M202.308,161.14c-1.977,0.615-3.866,1.101-5.669,1.477c-0.544,1.781-2.313,4.071-8.424,4.424
			c-5.45,0.322-7.42-2.228-8.087-3.63c-3.667-0.488-5.689-1.293-5.689-1.293c1.802,6.205,4.398,9.181,8.399,10.245
			c0.606-1.251,2.177-3.505,5.713-3.609c3.198-0.099,4.761,1.583,5.473,2.778C198.308,169.72,201.438,166.096,202.308,161.14z"/>
	</g>
	<g>
		<path fill="#C39368" d="M171.958,160.545c0,0,0.26,0.15,0.633,0.363c0.197,0.094,0.406,0.229,0.645,0.343
			c0.236,0.125,0.481,0.257,0.742,0.374c0.245,0.14,0.507,0.249,0.749,0.361c0.12,0.06,0.233,0.122,0.345,0.179
			c0.11,0.052,0.214,0.099,0.315,0.146c0.394,0.176,0.651,0.348,0.651,0.348s-0.3,0.005-0.738-0.057
			c-0.228-0.021-0.478-0.088-0.742-0.176c-0.267-0.073-0.546-0.182-0.813-0.327c-0.127-0.063-0.264-0.135-0.394-0.2
			c-0.125-0.081-0.241-0.168-0.358-0.247c-0.235-0.153-0.42-0.348-0.586-0.499c-0.153-0.171-0.273-0.312-0.344-0.431
			C171.991,160.618,171.958,160.545,171.958,160.545z"/>
		<path fill="#C39368" d="M186.722,155.846c0,0-0.112-0.06-0.316-0.148c-0.198-0.088-0.501-0.203-0.851-0.268
			c-0.18-0.026-0.37-0.047-0.553-0.018c-0.189,0.021-0.355,0.106-0.49,0.233c-0.145,0.125-0.227,0.325-0.313,0.527
			c-0.004,0.016-0.023,0.073-0.021,0.06l-0.023,0.094l-0.04,0.184c-0.029,0.13-0.008,0.213-0.018,0.322
			c0.004,0.104,0.015,0.218,0.033,0.327c0.033,0.104,0.045,0.218,0.101,0.317c0.087,0.205,0.19,0.4,0.337,0.563
			c0.273,0.345,0.615,0.6,0.937,0.755c0.163,0.078,0.315,0.135,0.458,0.169c0.143,0.028,0.274,0.049,0.374,0.031
			c0.221-0.008,0.334-0.088,0.335-0.076c0,0-0.024,0.021-0.071,0.052c-0.051,0.042-0.127,0.099-0.236,0.125
			c-0.112,0.047-0.255,0.063-0.419,0.067c-0.165,0-0.353-0.026-0.547-0.081c-0.195-0.06-0.399-0.14-0.6-0.262
			c-0.199-0.125-0.405-0.27-0.577-0.467c-0.094-0.093-0.176-0.197-0.25-0.312c-0.086-0.106-0.148-0.233-0.202-0.366
			c-0.069-0.122-0.097-0.267-0.141-0.402c-0.029-0.14-0.048-0.288-0.06-0.436c0.016-0.146,0.013-0.327,0.048-0.447l0.044-0.187
			l0.022-0.088c0.021-0.078,0.028-0.083,0.047-0.12c0.058-0.135,0.101-0.267,0.196-0.387l0.127-0.171
			c0.051-0.049,0.105-0.096,0.159-0.143c0.222-0.19,0.512-0.281,0.757-0.275c0.253-0.016,0.47,0.052,0.659,0.117
			c0.38,0.14,0.642,0.34,0.826,0.47C186.634,155.752,186.722,155.846,186.722,155.846z"/>
		<path fill="#C39368" d="M185.52,151.287c0,0,0.195,0.187,0.373,0.54c0.093,0.174,0.177,0.392,0.239,0.633
			c0.063,0.242,0.095,0.506,0.101,0.779c-0.001,0.268-0.025,0.543-0.102,0.79c-0.026,0.119-0.078,0.233-0.125,0.337
			c-0.043,0.109-0.095,0.208-0.153,0.291c-0.207,0.342-0.442,0.488-0.428,0.493c0,0,0.01-0.067,0.04-0.171
			c0.035-0.112,0.076-0.265,0.11-0.441c0.042-0.182,0.078-0.384,0.104-0.603c0.017-0.114,0.018-0.223,0.024-0.342
			c0.016-0.114,0.01-0.234,0.006-0.354c0.01-0.47-0.054-0.945-0.103-1.319C185.554,151.541,185.52,151.287,185.52,151.287z"/>
	</g>
	<g>
		<path fill="#673121" d="M197.96,150.134c-0.086,1.246-0.546,2.17-1.037,2.056c-0.492-0.114-0.828-1.21-0.746-2.461
			c0.075-1.251,0.542-2.173,1.034-2.057C197.702,147.782,198.037,148.888,197.96,150.134z"/>
		<path fill="#FFFFFF" d="M196.997,148.955c-0.047,0.363-0.211,0.631-0.358,0.584c-0.149-0.046-0.227-0.384-0.174-0.758
			c0.05-0.374,0.213-0.631,0.363-0.584C196.974,148.244,197.052,148.586,196.997,148.955z"/>
	</g>
	<g>
		<path fill="#673121" d="M177.527,151.133c-0.076,1.249-0.539,2.173-1.029,2.064c-0.493-0.119-0.826-1.22-0.745-2.466
			c0.073-1.251,0.54-2.168,1.029-2.056C177.278,148.786,177.611,149.89,177.527,151.133z"/>
		<path fill="#FFFFFF" d="M176.573,149.955c-0.051,0.369-0.214,0.634-0.36,0.589c-0.15-0.052-0.225-0.389-0.177-0.758
			c0.052-0.374,0.217-0.634,0.366-0.582C176.547,149.251,176.623,149.588,176.573,149.955z"/>
	</g>
	<path fill="#5D1A00" d="M173.989,143.7c0,0,1.119-2.29,2.445-2.093c1.32,0.198,2.716,3.116,2.716,3.116s-0.126-3.723-2.364-4.211
		C174.554,140.024,173.989,143.7,173.989,143.7z"/>
	<path fill="#5D1A00" d="M194.604,144.422c0,0,2.08-3.827,3.418-3.86c1.334-0.039,2.842,3.941,2.842,3.941s-0.361-4.676-2.908-4.832
		C195.415,139.515,194.604,144.422,194.604,144.422z"/>
	<g>
		<path fill="#C39368" d="M160.459,152.958c0,0,0.004-0.067,0.03-0.176c0.026-0.109,0.082-0.27,0.187-0.449
			c0.052-0.086,0.125-0.174,0.218-0.268c0.102-0.073,0.214-0.161,0.369-0.197c0.143-0.036,0.326-0.052,0.47,0.01
			c0.165,0.037,0.275,0.127,0.409,0.208c0.104,0.096,0.195,0.2,0.294,0.301c0.078,0.104,0.143,0.221,0.209,0.319
			c0.07,0.102,0.106,0.216,0.153,0.319c0.047,0.104,0.084,0.2,0.116,0.291c0.106,0.374,0.133,0.633,0.133,0.633
			s-0.189-0.192-0.401-0.488c-0.117-0.143-0.244-0.317-0.378-0.488c-0.069-0.083-0.149-0.161-0.22-0.254
			c-0.074-0.073-0.15-0.146-0.23-0.213c-0.082-0.047-0.158-0.125-0.238-0.14c-0.075-0.037-0.145-0.044-0.227-0.042
			c-0.073,0.005-0.153,0.036-0.233,0.067c-0.073,0.047-0.149,0.088-0.218,0.146C160.631,152.748,160.459,152.958,160.459,152.958z"
			/>
		<path fill="#C39368" d="M161.229,154.594c0,0-0.033-0.166,0.026-0.384c0.029-0.106,0.071-0.234,0.152-0.358
			c0.072-0.125,0.188-0.233,0.311-0.335c0.135-0.083,0.289-0.164,0.446-0.176c0.075-0.018,0.149-0.013,0.221-0.003
			c0.067-0.002,0.129,0.016,0.186,0.042c0.227,0.07,0.318,0.218,0.322,0.213c0,0.005-0.162,0.036-0.337,0.091
			c-0.181,0.057-0.363,0.143-0.537,0.272c-0.173,0.12-0.354,0.283-0.511,0.413C161.357,154.496,161.229,154.594,161.229,154.594z"/>
	</g>
	<g>
		<path fill="#C39368" d="M217.241,154.236c0,0-0.004-0.065-0.043-0.174c-0.029-0.112-0.092-0.268-0.213-0.434
			c-0.059-0.088-0.135-0.166-0.234-0.249c-0.104-0.073-0.227-0.156-0.381-0.179c-0.145-0.026-0.324-0.029-0.465,0.042
			c-0.162,0.049-0.266,0.148-0.398,0.236c-0.098,0.101-0.186,0.213-0.273,0.316c-0.074,0.106-0.129,0.229-0.191,0.338
			c-0.061,0.104-0.09,0.22-0.127,0.322c-0.039,0.106-0.078,0.208-0.1,0.301c-0.086,0.379-0.09,0.641-0.09,0.641
			s0.174-0.2,0.367-0.511c0.107-0.153,0.223-0.333,0.346-0.514c0.063-0.086,0.137-0.174,0.203-0.26
			c0.066-0.083,0.145-0.166,0.217-0.234c0.074-0.057,0.148-0.137,0.225-0.156c0.074-0.046,0.145-0.057,0.225-0.06
			c0.08,0.005,0.156,0.023,0.24,0.057c0.078,0.039,0.156,0.075,0.225,0.127C217.054,154.044,217.241,154.236,217.241,154.236z"/>
		<path fill="#C39368" d="M216.579,155.916c0,0,0.021-0.166-0.051-0.376c-0.037-0.111-0.09-0.233-0.178-0.348
			c-0.078-0.122-0.203-0.226-0.332-0.317c-0.146-0.073-0.297-0.143-0.453-0.15c-0.074-0.005-0.152,0-0.221,0.016
			c-0.07,0.005-0.133,0.026-0.186,0.052c-0.217,0.094-0.299,0.25-0.307,0.234c0,0.008,0.162,0.026,0.34,0.07
			c0.188,0.044,0.373,0.122,0.553,0.236c0.184,0.109,0.373,0.26,0.535,0.379C216.442,155.83,216.579,155.916,216.579,155.916z"/>
	</g>
	<path fill="#5D1A00" d="M180.388,131.43c0,0,11.77-0.052,17.115,1.423c1.044-6.223-5.578-9.071-9.109-9.284
		C184.859,123.356,179.963,127.04,180.388,131.43z"/>
	<g>
		<path fill="#CECCB6" d="M216.593,137.962c0,0-0.625-22.224-22.752-24.187c-1.501-0.137-3.098-0.174-4.805-0.109
			c-1.005,0.088-1.98,0.203-2.932,0.327c-1.096,0.156-2.155,0.343-3.182,0.566l0.176,0.102c0,0,24.584-4.783,24.545,20.563
			c-6.303-1.161-29.268-4.326-44.482,0.478c-0.108,0.48-0.213,0.971-0.313,1.464c0,0,1.729-0.885,4.25-1.285
			c2.379-0.296,4.863-0.569,7.48-0.779c7.912-0.639,17.086-0.707,28.555,0.825c3.031,0.405,6.215,0.912,9.584,1.558l3.963,0.53
			l0.053-0.052C216.646,137.962,216.593,137.962,216.593,137.962z"/>
	</g>
	<path fill="#F9CBC0" d="M174.71,155.42c-0.013,0.758-1.474,1.35-3.26,1.327c-1.793-0.034-3.234-0.672-3.226-1.428
		c0.017-0.755,1.473-1.342,3.264-1.316C173.281,154.028,174.724,154.665,174.71,155.42z"/>
	<path fill="#F9CBC0" d="M204.438,154.805c-0.012,0.755-1.476,1.345-3.259,1.321c-1.794-0.031-3.233-0.672-3.224-1.428
		c0.012-0.758,1.473-1.34,3.261-1.312C203.011,153.41,204.452,154.052,204.438,154.805z"/>
	<g>
		<path fill="#CAC7A8" d="M247.511,285.662c0,0,0.355-0.016,0.871,0.031c0.516,0.049,1.201,0.148,1.865,0.289
			c0.672,0.154,1.334,0.342,1.818,0.514c0.492,0.176,0.809,0.334,0.809,0.334s-0.35,0.016-0.867-0.033
			c-0.516-0.041-1.199-0.148-1.869-0.291c-0.668-0.15-1.33-0.338-1.818-0.514C247.831,285.818,247.511,285.662,247.511,285.662z"/>
		<path fill="#CAC7A8" d="M244.12,288.297c0,0,0.439-0.008,1.094,0.047c0.648,0.043,1.508,0.15,2.359,0.303
			c0.855,0.154,1.697,0.35,2.328,0.531c0.631,0.174,1.045,0.336,1.045,0.336s-0.445,0.016-1.098-0.037
			c-0.65-0.047-1.514-0.152-2.367-0.305c-0.848-0.154-1.695-0.35-2.32-0.529C244.528,288.465,244.12,288.297,244.12,288.297z"/>
		<path fill="#CAC7A8" d="M240.708,291.564c0,0,0.469-0.014,1.162,0.047c0.693,0.047,1.613,0.16,2.523,0.313
			c0.91,0.154,1.813,0.352,2.486,0.535c0.672,0.18,1.111,0.348,1.111,0.348s-0.473,0.008-1.162-0.045
			c-0.691-0.047-1.609-0.162-2.521-0.313c-0.91-0.158-1.814-0.355-2.488-0.539C241.147,291.732,240.708,291.564,240.708,291.564z"/>
		<path fill="#CAC7A8" d="M237.304,294.758c0,0,0.412,0.023,1.01,0.135c0.596,0.098,1.387,0.279,2.162,0.498
			c0.775,0.223,1.533,0.49,2.102,0.719c0.564,0.227,0.928,0.424,0.928,0.424s-0.41-0.025-1.014-0.125
			c-0.598-0.105-1.385-0.279-2.156-0.504c-0.779-0.223-1.537-0.49-2.105-0.721C237.667,294.955,237.304,294.758,237.304,294.758z"/>
		<path fill="#CAC7A8" d="M235.38,297.248c0,0,0.33-0.006,0.811,0.051c0.473,0.061,1.104,0.174,1.719,0.338
			c0.613,0.16,1.215,0.365,1.66,0.555c0.443,0.188,0.729,0.354,0.729,0.354s-0.33,0-0.803-0.059
			c-0.477-0.055-1.104-0.174-1.719-0.334c-0.617-0.166-1.219-0.367-1.66-0.557C235.671,297.41,235.38,297.248,235.38,297.248z"/>
	</g>
	<path fill="#DEDBC3" d="M214.415,224.572c0.057-0.73-0.432-46.606-19.852-46.048c-0.771,0.023-1.524-0.241-2.287-0.355
		c-0.33,1.895-0.89,4.128-3.238,4.102c-1.957-0.023-2.933-1.583-3.137-3.347c-2.166,0.875-4.648,2.329-6.407,4.123
		c-2.603,2.659-6.909,10.71-7.791,23.844c-0.282,4.199-1.031,13.891-0.949,18.102C178.3,231.367,211.183,226.293,214.415,224.572z"
		/>
	<path opacity="0.6" fill="#DEDBC3" d="M211.993,202.002c-0.723,5.078-2.48,9.846-6.406,13.586
		c-4.715,4.498-11.228,6.883-17.699,6.361c-6.558-0.527-13.199-3.211-15.345-10.053c-0.394-1.254-0.693-2.541-0.919-3.85
		c-0.322,4.619-0.945,13.082-0.87,16.945c7.547,6.375,40.429,1.301,43.662-0.42C214.442,224.217,214.339,213.182,211.993,202.002z"
		/>
</g>
</svg>
