<?xml version="1.0" encoding="utf-8"?>
<!-- Generator: Adobe Illustrator 16.0.0, SVG Export Plug-In . SVG Version: 6.00 Build 0)  -->
<!DOCTYPE svg PUBLIC "-//W3C//DTD SVG 1.1//EN" "http://www.w3.org/Graphics/SVG/1.1/DTD/svg11.dtd">
<svg version="1.1" id="Capa_1" xmlns="http://www.w3.org/2000/svg" xmlns:xlink="http://www.w3.org/1999/xlink" x="0px" y="0px"
	 width="400px" height="400px" viewBox="0 0 400 400" enable-background="new 0 0 400 400" xml:space="preserve">
<g>
	<path fill="#683C13" d="M208.06,161.119c-0.269-29.835-3.578-44.257-3.578-44.257l-38.25-1.467
		c-1.036,3.498-3.975,20.356-3.844,46.631c0.008,1.664,2.384,3.697,8.482,0.271c2.655-1.492,6.529-1.51,8.609,0
		c2.079,1.51,6.586,0.878,8.025-0.338c1.445-1.213,2.052,1.855,6.42,0.17c1.588-0.611,3.169-1.578,6.809,0.168
		C204.369,164.037,208.074,162.745,208.06,161.119z"/>
	<rect x="177.471" y="147.245" fill="#F18F79" width="16.496" height="15.137"/>
	<path fill="#F29784" d="M202.141,135.456c-2.705,15.338-9.385,17.777-16.96,17.777c-6.808,0-13.076-7.246-14.792-15.813
		c-0.773-3.858-3.43-17.638-3.43-17.638c0-10.366,8.399-17.119,18.76-17.119l0,0c10.366,0,18.763,6.752,18.763,17.119
		C204.481,119.782,203.17,129.618,202.141,135.456z"/>
	<g>
		<g>
			<path fill="#EE7D7A" d="M197.633,138.644c0,1.113-1.643,2.015-3.668,2.015c-2.023,0-3.661-0.901-3.661-2.015
				c0-1.12,1.638-2.024,3.661-2.024C195.99,136.62,197.633,137.524,197.633,138.644z"/>
			<path fill="#EE7D7A" d="M180.943,138.644c0,1.113-1.642,2.015-3.667,2.015c-2.023,0-3.664-0.901-3.664-2.015
				c0-1.12,1.64-2.024,3.664-2.024C179.301,136.62,180.943,137.524,180.943,138.644z"/>
		</g>
		
			<path fill="none" stroke="#683C13" stroke-width="0.7979" stroke-linecap="round" stroke-linejoin="round" stroke-miterlimit="10" d="
			M190.025,133.089c0-0.022,0-0.046,0-0.066c0-1.955,1.512-3.538,3.379-3.538c1.864,0,3.377,1.583,3.377,3.554"/>
		
			<path fill="none" stroke="#683C13" stroke-width="0.7979" stroke-linecap="round" stroke-linejoin="round" stroke-miterlimit="10" d="
			M175.05,133.089c0-0.022,0-0.046,0-0.066c0-1.955,1.512-3.538,3.378-3.538c1.865,0,3.377,1.583,3.377,3.554"/>
		<path fill="#683C13" d="M173.864,128.719c-0.173,0.281-0.401-0.611-0.056-1.236c0.976-1.752,5.281-2.834,6.9-1.692
			C181.792,126.557,176.243,124.883,173.864,128.719z"/>
		<path fill="#683C13" d="M197.34,128.719c0.176,0.281,0.404-0.611,0.056-1.236c-0.974-1.752-5.278-2.834-6.896-1.692
			C189.414,126.557,194.961,124.883,197.34,128.719z"/>
		<path fill="#EE7D7A" d="M187.295,128.505c0.821,0.95,1.277,6.806,0.9,10.386c-0.244,2.356-6.575,2.779-5.075-0.498
			c1.88-4.105,1.015-8.414,1.557-9.639C185.046,127.923,186.412,127.487,187.295,128.505z"/>
		<path fill="#FFFFFF" d="M191.787,143.359c-6.5,3.603-11.731,0-11.731,0s-0.013,5.386,5.725,5.386
			C191.518,148.745,191.787,143.359,191.787,143.359z"/>
	</g>
	<path fill="#683C13" d="M205.237,128.589c0,0-1.721,0.749-3.892,0.749c0,0-5.266-5.967-3.873-15.483c0,0-8.979,7.128-16.954,7.396
		c-7.976,0.273-11.463,3.136-13.56,8.725c0,0-3.634-5.005-0.307-16.098c2.83-9.432,13.82-11.53,19.419-11.53
		C195.217,102.347,206.217,105.511,205.237,128.589z"/>
	<g>
		<path fill="#F29784" d="M205.779,131.615c-0.371,2.151-1.963,3.674-3.556,3.401c-1.597-0.278-2.589-2.242-2.222-4.392
			c0.369-2.147,1.954-3.669,3.55-3.396C205.148,127.499,206.146,129.465,205.779,131.615z"/>
		<circle fill="#5C3B66" cx="202.21" cy="134.979" r="1.587"/>
	</g>
	<g>
		<path fill="#F29784" d="M171.517,130.344c0.334,2.156-0.688,4.108-2.282,4.359c-1.604,0.246-3.17-1.294-3.512-3.451
			c-0.337-2.152,0.68-4.102,2.279-4.354C169.601,126.646,171.174,128.19,171.517,130.344z"/>
		<circle fill="#5C3B66" cx="169.514" cy="135.302" r="1.588"/>
	</g>
	<path fill="#5C3B66" d="M151.03,252.512h67.444l-0.677-59.515l4.271-23.791c0-2.773-7.561-6.133-10.797-7.176
		c-5.326-1.713-17.305-3.983-17.305-3.983s-1.035,3.267-7.982,3.267c-6.324,0-8.513-3.419-8.513-3.419s-12.92,3.192-17.602,4.999
		c-3.449,1.333-12.313,4.56-12.313,6.697l3.805,23.424L151.03,252.512z"/>
	<path fill="#F29784" d="M237.576,219.109h-18.74c1.336,9.148,3.479,23.113,4.524,29.08c0.486,2.781,1.772,8.27,9.081,7.797
		c5.675-0.365,7.295-5.82,7.168-8.252C239.256,241.02,238.256,228.064,237.576,219.109z"/>
	<path fill="#F29784" d="M145.928,252.512c0,0,2.738-30.092,3.473-34.268h-17.882c-1.029,9.859-1.855,24.547-3.339,34.268H145.928z"
		/>
	<path fill="#5C3B66" d="M239.615,221.074c-1.527-14.602-3.504-27.87-6.021-35.347c-5.459-16.216-13.155-19.019-13.155-19.019
		s-3.836,4.665-3.939,28.567c-0.039,8.738,1.484,19.099,2.66,25.798H239.615z"/>
	<path fill="#5C3B66" d="M150.328,221.074c1.136-6.691,2.463-16.275,2.427-24.442c-0.103-23.902-3.939-28.568-3.939-28.568
		s-7.695,2.804-13.155,19.019c-2.439,7.246-4.37,19.927-5.878,33.992H150.328z"/>
	<path fill="#F29784" d="M224.089,245.977c-0.69,2.365-1.429,8.186,5.876,9.682c1.895,0.387,5.931,2.135,11.995-8.014
		c7.188-12.029,24.429-49.682,24.429-49.682l-6.971-4.868C259.418,193.094,228.486,230.91,224.089,245.977z"/>
	<g>
		<path fill="#F29784" d="M266.033,198.446c5.965-4.689,9.461-7.563,15.078-13.275c3.18-3.236,3.646-3.718,4.697-9.505
			c0.357-1.973-0.617-4.317-2.77-3.392c-1.266,0.543-2.24,4.816-3.251,6.561c-2.163,3.729-9.949,9.862-10.741,9.085
			c-0.939-0.924,2.576-3.334,3.341-5.574c1.159-3.393-2.812-3.758-4.855-0.628c-4.946,7.572-8.114,11.377-8.114,11.377
			L266.033,198.446z"/>
	</g>
</g>
<rect x="103.897" y="250.881" fill="#683C13" width="153.628" height="17.184"/>
<g>
	<g>
		<ellipse fill="#C6C6C5" cx="180.827" cy="230.279" rx="37.417" ry="5.244"/>
		<ellipse fill="#CFCFCF" cx="180.827" cy="230.279" rx="34.255" ry="3.746"/>
		<path fill="#CFCFCF" d="M193.818,262.473c-3.842,2.373-24.845,1.186-25.949-0.094c-0.966-1.117-0.034-3.02-0.034-3.02h25.983
			C193.818,259.359,195.078,261.693,193.818,262.473z"/>
		<g>
			<path fill="#E3313C" d="M201.613,205.893l-15.708,25.85c0,0,15.756,11.732,31.514,0.098L201.613,205.893z"/>
			<path fill="#FFFFFF" d="M196.406,217.811c0.006,0.16,0.059,0.742,0.355,0.639c0.195-0.068,0.326-0.295,0.455-0.443
				c0.115-0.133,0.238-0.26,0.406-0.328c0.021-0.008,0.047,0.01,0.053,0.029c0.078,0.314-0.074,1.828,0.543,1.637
				c0.318-0.1,0.523-0.479,0.686-0.742c0.143-0.234,0.27-0.514,0.473-0.701c0.025-0.023,0.059-0.012,0.07,0.018
				c0.119,0.311,0.217,0.629,0.352,0.934c0.068,0.156,0.141,0.313,0.232,0.457c0.055,0.084,0.174,0.355,0.273,0.236
				c0.375-0.441,0.406-1.063,0.762-1.518c0.012-0.016,0.035-0.016,0.049-0.008c0.553,0.295,0.754,0.949,1.256,1.297
				c0.029,0.021,0.205,0.158,0.24,0.086c0.051-0.111,0.1-0.223,0.143-0.336c0.07-0.189,0.133-0.379,0.189-0.574
				c0.113-0.389,0.215-0.781,0.348-1.164c0.008-0.025,0.037-0.039,0.063-0.025c0.678,0.395,1.129,1.066,1.781,1.496
				c0.098-0.15,0.17-0.314,0.223-0.486l-4.76-7.813l-4.195,6.908C196.406,217.543,196.4,217.678,196.406,217.811z"/>
			<path fill="#93C01F" d="M214.902,227.707c0,0-4.082,3.816-13.24,3.816c-9.242,0-13.305-3.816-13.305-3.816l-2.452,4.035
				c0,0,15.756,11.732,31.514,0.098L214.902,227.707z"/>
			<path fill="#579832" d="M187.602,228.951l-1.696,2.791c0,0,15.756,11.732,31.514,0.098l-1.76-2.889c0,0-4.754,4.225-13.998,4.225
				C191.783,233.176,187.602,228.951,187.602,228.951z"/>
			<g>
				<path fill="#8E2311" d="M193.645,224.951c0.424,0.15,0.361,3.121-0.949,2.658C191.443,227.168,193.076,224.752,193.645,224.951z
					"/>
				<path fill="#8E2311" d="M197.955,226.199c0.422,0.15,0.359,3.121-0.951,2.658C195.752,228.416,197.385,225.998,197.955,226.199z
					"/>
				<path fill="#8E2311" d="M209.125,224.951c-0.422,0.15-0.361,3.121,0.949,2.658C211.326,227.168,209.693,224.752,209.125,224.951
					z"/>
				<path fill="#8E2311" d="M205.383,225.996c-0.424,0.148-0.361,3.119,0.947,2.658
					C207.582,228.211,205.951,225.795,205.383,225.996z"/>
				<path fill="#8E2311" d="M201.715,226.504c0.447,0.02,1.252,2.879-0.135,2.818C200.254,229.264,201.111,226.477,201.715,226.504z
					"/>
				<path fill="#8E2311" d="M196.555,221.652c0.396,0.107,0.551,2.816-0.676,2.488C194.707,223.828,196.021,221.51,196.555,221.652z
					"/>
				<path fill="#8E2311" d="M200.039,222.338c0.395,0.105,0.551,2.816-0.676,2.488C198.191,224.512,199.506,222.195,200.039,222.338
					z"/>
				<path fill="#8E2311" d="M206.791,221.625c-0.375,0.166-0.107,2.865,1.053,2.354
					C208.953,223.486,207.295,221.402,206.791,221.625z"/>
				<path fill="#8E2311" d="M203.486,222.348c0.408-0.014,1.346,2.533,0.076,2.576C202.35,224.965,202.936,222.367,203.486,222.348z
					"/>
				<path fill="#8E2311" d="M199.072,218.891c0.313,0.117,0.219,2.346-0.756,1.977C197.385,220.516,198.648,218.73,199.072,218.891z
					"/>
				<path fill="#8E2311" d="M204.645,218.859c-0.318,0.104-0.32,2.332,0.668,2.008C206.26,220.557,205.076,218.719,204.645,218.859z
					"/>
				<path fill="#8E2311" d="M201.889,219.18c0.334,0.021,0.889,2.18-0.148,2.111C200.744,221.225,201.436,219.15,201.889,219.18z"/>
			</g>
			<path fill="#E3D6DD" d="M201.613,205.893l-1.289,2.123c0.258,0.344,9.969,16.793,10.482,17.986
				c0.439,1.025,0.848,2.096,0.885,3.223c0.033,0.943-0.17,1.904-0.697,2.699c-0.582,0.877-1.463,1.51-2.451,1.857
				c-1.129,0.398-11.332,3.203-21.518-3.881l-1.12,1.842c0,0,15.756,11.732,31.514,0.098L201.613,205.893z"/>
		</g>
		<g>
			<path fill="#FAB600" d="M185.779,209.334c0,0,2.52-1.074,5.465,0.064c0,0-0.906,1.205-2.885,1.205
				S185.861,209.678,185.779,209.334z"/>
			<g>
				<path fill="#579832" d="M192.992,203.221c0,0,0.527,3.684-3.916,5.387C189.076,208.607,189.305,203.699,192.992,203.221z"/>
				<path fill="#9DC430" d="M189.086,208.604c4.434-1.705,3.906-5.383,3.906-5.383c-0.012,0-0.021,0.002-0.031,0.004
					L189.086,208.604z"/>
			</g>
			<g>
				<path fill="#683C13" d="M189.512,210.699c0,0-1.139-5.123,0.078-7.322c0,0-1.482-0.654-3.221,0.707c0,0,1.26,5.502,1.111,6.631
					L189.512,210.699z"/>
				<path fill="#C99A54" d="M189.59,203.377c0,0-0.434-0.191-1.105-0.152c0,0-0.145,2.305-0.168,3.123
					c-0.031,1.016-0.535,4.008-0.832,4.336c-0.002,0.01-0.002,0.021-0.004,0.031l2.031-0.016
					C189.512,210.699,188.373,205.576,189.59,203.377z"/>
			</g>
			<path fill="#F5A023" d="M200.102,220.934c0,6.484-5.258,11.74-11.742,11.74c-6.484,0-11.741-5.256-11.741-11.74
				c0-6.008,3.575-11.568,9.436-11.605c1.186-0.008,1.826,0.725,2.305,0.725c0.549,0,1.484-0.842,2.438-0.721
				C196.525,210.066,200.102,214.996,200.102,220.934z"/>
			<path fill="#FFFFFF" d="M179.515,222.686c0.774,0.078,1.518,0.006,2.064-0.613c1.282-1.451,1.745-3.287,1.789-5.189
				c0.028-1.289-0.021-2.689,0.604-3.865c0.286-0.535,0.684-0.92,1.153-1.18c-0.132-0.031-0.277-0.051-0.438-0.049
				c-4.04,0.025-6.506,3.859-6.506,8c0,0.979,0.175,1.918,0.493,2.787C178.956,222.619,179.236,222.658,179.515,222.686z"/>
			<path fill="#FDD998" d="M196.969,212.447c0.912,2.021,1.039,4.439,0.832,6.602c-0.24,2.457-1.059,4.74-2.629,6.664
				c-1.496,1.834-3.563,3.457-5.932,3.926c-2.588,0.512-5.392,0.219-7.822-0.797c-1.011-0.422-2.046-0.973-2.962-1.605
				c2.084,3.268,5.738,5.438,9.903,5.438c6.484,0,11.742-5.256,11.742-11.74C200.102,217.6,198.973,214.582,196.969,212.447z"/>
		</g>
		<g>
			<g>
				<path fill="#683C13" d="M170.531,215.021c0,0-1.428-6.42,0.098-9.172c0,0-1.857-0.818-4.035,0.885c0,0,1.577,6.893,1.393,8.307
					L170.531,215.021z"/>
				<path fill="#C99A54" d="M170.628,205.85c0,0-0.543-0.24-1.385-0.189c0,0-0.181,2.885-0.211,3.91
					c-0.039,1.271-0.672,5.02-1.043,5.432c-0.002,0.014-0.002,0.027-0.004,0.039l2.545-0.02
					C170.531,215.021,169.103,208.602,170.628,205.85z"/>
			</g>
			<g>
				<path fill="#E3313C" d="M181.292,222.268c0,7.004-5.679,12.682-12.682,12.682s-12.681-5.678-12.681-12.682
					c0-4.709,1.323-7.436,5.227-9.232c4.687-2.16,5.716,0.637,8.008,0.637c2.793,0,5.259-2.443,8.087-0.504
					C180.203,215.193,181.292,218.635,181.292,222.268z"/>
				<path fill="#FFFFFF" d="M159.808,224.533c0.622-0.336,1.103-0.813,1.356-1.482c0.238-0.623,0.318-1.289,0.37-1.951
					c0.088-1.096,0.11-2.213,0.352-3.291c0.183-0.813,0.509-1.613,1.14-2.184c0.553-0.5,1.236-0.797,1.948-0.994
					c-0.862-0.43-1.859-0.869-3.861,0.053c-2.594,1.195-3.475,3.006-3.475,6.139c0,1.475,0.381,2.861,1.049,4.068
					C159.078,224.824,159.465,224.721,159.808,224.533z"/>
				<path fill="#E1C4D3" d="M177.251,213.168c-1.55-1.064-2.991-0.811-4.437-0.363c0.214,0.174,0.423,0.352,0.619,0.541
					c1.421,1.369,4.892,6.018,3.038,11.967c-2.958,9.498-15.656,6.715-16.544,6.172c-0.023-0.014-0.047-0.031-0.071-0.045
					c2.277,2.172,5.359,3.51,8.754,3.51c7.003,0,12.682-5.678,12.682-12.682C181.292,218.635,180.203,215.193,177.251,213.168z"/>
			</g>
			<g>
				<path fill="#579832" d="M174.884,205.467c0,0,0.661,4.615-4.905,6.748C169.979,212.215,170.262,206.066,174.884,205.467z"/>
				<path fill="#9DC430" d="M169.992,212.211c5.553-2.137,4.893-6.744,4.893-6.744c-0.015,0.002-0.027,0.004-0.041,0.006
					L169.992,212.211z"/>
			</g>
		</g>
		<g>
			<g>
				<path fill="#683C13" d="M151.384,217.584c0.65-2.043,0.1-8.4-0.94-11.488c0,0,1.411-0.883,2.841,0.764
					c0,0-0.828,7.947-0.99,10.744L151.384,217.584z"/>
			</g>
			<g>
				<g>
					<path fill="#C99A54" d="M151.079,205.883c0.103,0.186,0.198,0.377,0.278,0.576c0.54,1.342,0.673,2.848,0.873,4.271
						c0.2,1.41,0.168,2.822-0.01,4.236c-0.09,0.711-0.218,1.428-0.37,2.131c-0.038,0.172-0.084,0.363-0.219,0.488
						c-0.001,0-0.002,0-0.003,0.002l0.666,0.016c0.162-2.797,0.99-10.744,0.99-10.744
						C152.451,205.9,151.625,205.799,151.079,205.883z"/>
				</g>
			</g>
			<g>
				<path fill="#579832" d="M148.035,211.473c0,0,0.038,2.898,3.661,3.674C151.696,215.146,150.93,211.396,148.035,211.473z"/>
				<path fill="#9DC430" d="M151.689,215.145c-3.616-0.777-3.654-3.672-3.654-3.672c0.01,0,0.018,0,0.025,0L151.689,215.145z"/>
			</g>
			<g>
				<path fill="#579832" d="M156.028,209.355c0,0,0.196,2.891-3.353,3.957C152.675,213.313,153.135,209.514,156.028,209.355z"/>
				<path fill="#9DC430" d="M152.682,213.311c3.542-1.068,3.346-3.955,3.346-3.955c-0.009,0-0.017,0.002-0.024,0.002
					L152.682,213.311z"/>
			</g>
			<g>
				<g>
					
						<ellipse transform="matrix(0.988 -0.1546 0.1546 0.988 -32.4172 24.6843)" fill="#5C3B66" cx="142.481" cy="220.745" rx="3.872" ry="3.773"/>
					<path fill="#FFFFFF" d="M140.481,221.109c0.834-0.43,1.029-1.285,1.093-1.918c0.047-0.471-0.17-0.951-0.029-1.426
						c0.029-0.1,0.079-0.188,0.145-0.264c-1.565,0.373-2.609,1.859-2.362,3.438c0.022,0.145,0.056,0.283,0.098,0.42
						C139.794,221.346,140.162,221.271,140.481,221.109z"/>
					<path fill="#D2B2C2" d="M143.771,217.176c0.438,0.508,0.741,1.137,0.852,1.842c0.322,2.059-1.128,3.994-3.241,4.326
						c-0.652,0.102-1.291,0.037-1.872-0.158c0.839,0.975,2.168,1.504,3.556,1.287c2.113-0.33,3.564-2.268,3.241-4.326
						C146.083,218.723,145.073,217.615,143.771,217.176z"/>
				</g>
				<g>
					
						<ellipse transform="matrix(0.988 -0.1546 0.1546 0.988 -32.1826 25.6731)" fill="#5C3B66" cx="148.956" cy="219.731" rx="3.872" ry="3.773"/>
					<path fill="#FFFFFF" d="M146.955,220.096c0.832-0.43,1.03-1.285,1.093-1.918c0.047-0.473-0.169-0.953-0.03-1.426
						c0.03-0.102,0.08-0.188,0.146-0.264c-1.564,0.373-2.608,1.859-2.362,3.438c0.022,0.145,0.057,0.283,0.098,0.42
						C146.268,220.332,146.634,220.26,146.955,220.096z"/>
					<path fill="#D2B2C2" d="M150.244,216.162c0.438,0.508,0.742,1.135,0.854,1.842c0.322,2.057-1.129,3.994-3.242,4.324
						c-0.651,0.104-1.291,0.039-1.872-0.156c0.839,0.973,2.168,1.504,3.556,1.287c2.113-0.33,3.565-2.268,3.242-4.326
						C152.558,217.709,151.545,216.602,150.244,216.162z"/>
				</g>
				<g>
					
						<ellipse transform="matrix(0.988 -0.1546 0.1546 0.988 -31.9477 26.6828)" fill="#5C3B66" cx="155.542" cy="218.7" rx="3.871" ry="3.771"/>
					<path fill="#FFFFFF" d="M153.542,219.064c0.832-0.43,1.03-1.285,1.093-1.918c0.046-0.473-0.17-0.953-0.029-1.426
						c0.028-0.102,0.078-0.188,0.144-0.266c-1.565,0.375-2.608,1.861-2.361,3.438c0.023,0.145,0.056,0.285,0.098,0.422
						C152.855,219.301,153.223,219.227,153.542,219.064z"/>
					<path fill="#D2B2C2" d="M156.831,215.131c0.437,0.506,0.742,1.135,0.853,1.84c0.322,2.059-1.129,3.996-3.24,4.326
						c-0.653,0.104-1.292,0.039-1.873-0.156c0.839,0.973,2.168,1.504,3.557,1.285c2.111-0.33,3.564-2.268,3.24-4.324
						C159.145,216.678,158.132,215.57,156.831,215.131z"/>
				</g>
				<g>
					
						<ellipse transform="matrix(0.9879 -0.1549 0.1549 0.9879 -31.7539 27.7274)" fill="#5C3B66" cx="162.089" cy="217.674" rx="3.872" ry="3.774"/>
					<path fill="#FFFFFF" d="M160.088,218.037c0.833-0.428,1.03-1.283,1.093-1.916c0.046-0.473-0.169-0.953-0.03-1.426
						c0.029-0.102,0.08-0.189,0.146-0.264c-1.564,0.373-2.608,1.859-2.362,3.436c0.022,0.145,0.057,0.285,0.098,0.422
						C159.402,218.275,159.77,218.201,160.088,218.037z"/>
					<path fill="#D2B2C2" d="M163.379,214.104c0.437,0.508,0.742,1.137,0.852,1.842c0.323,2.059-1.129,3.996-3.241,4.326
						c-0.653,0.104-1.292,0.039-1.873-0.156c0.839,0.973,2.167,1.504,3.557,1.287c2.113-0.332,3.564-2.27,3.241-4.328
						C165.694,215.652,164.679,214.545,163.379,214.104z"/>
				</g>
				<g>
					
						<ellipse transform="matrix(0.988 -0.1546 0.1546 0.988 -32.9996 25.3062)" fill="#5C3B66" cx="146.188" cy="224.8" rx="3.872" ry="3.773"/>
					<path fill="#FFFFFF" d="M144.186,225.164c0.833-0.428,1.03-1.285,1.093-1.918c0.046-0.471-0.169-0.951-0.029-1.424
						c0.028-0.102,0.079-0.189,0.145-0.266c-1.564,0.373-2.608,1.861-2.361,3.438c0.023,0.145,0.055,0.283,0.098,0.42
						C143.5,225.402,143.867,225.328,144.186,225.164z"/>
					<path fill="#D2B2C2" d="M147.477,221.23c0.438,0.508,0.741,1.137,0.852,1.842c0.322,2.057-1.13,3.994-3.242,4.326
						c-0.651,0.102-1.291,0.039-1.872-0.158c0.84,0.973,2.169,1.506,3.557,1.287c2.112-0.33,3.564-2.268,3.242-4.326
						C149.791,222.777,148.777,221.67,147.477,221.23z"/>
				</g>
				<g>
					
						<ellipse transform="matrix(0.988 -0.1546 0.1546 0.988 -32.765 26.2948)" fill="#5C3B66" cx="152.661" cy="223.786" rx="3.872" ry="3.773"/>
					<path fill="#FFFFFF" d="M150.661,224.15c0.832-0.43,1.03-1.283,1.093-1.918c0.047-0.473-0.17-0.951-0.03-1.426
						c0.03-0.1,0.08-0.188,0.145-0.264c-1.564,0.373-2.608,1.861-2.361,3.436c0.022,0.145,0.057,0.285,0.099,0.422
						C149.974,224.387,150.341,224.314,150.661,224.15z"/>
					<path fill="#D2B2C2" d="M153.95,220.217c0.438,0.508,0.742,1.135,0.853,1.84c0.322,2.059-1.129,3.996-3.241,4.328
						c-0.651,0.102-1.29,0.039-1.872-0.158c0.84,0.973,2.168,1.504,3.556,1.287c2.113-0.332,3.564-2.268,3.241-4.326
						C156.264,221.764,155.251,220.656,153.95,220.217z"/>
				</g>
				<g>
					
						<ellipse transform="matrix(0.988 -0.1546 0.1546 0.988 -32.5187 27.2933)" fill="#5C3B66" cx="159.248" cy="222.755" rx="3.873" ry="3.773"/>
					<path fill="#FFFFFF" d="M157.247,223.117c0.834-0.428,1.031-1.283,1.093-1.916c0.047-0.473-0.169-0.953-0.029-1.426
						c0.029-0.102,0.08-0.188,0.145-0.266c-1.564,0.375-2.609,1.863-2.361,3.438c0.021,0.146,0.055,0.285,0.097,0.42
						C156.561,223.355,156.927,223.283,157.247,223.117z"/>
					<path fill="#D2B2C2" d="M160.538,219.184c0.436,0.51,0.741,1.139,0.852,1.842c0.322,2.059-1.129,3.996-3.242,4.326
						c-0.651,0.104-1.29,0.039-1.871-0.156c0.838,0.973,2.167,1.504,3.556,1.287c2.112-0.332,3.564-2.268,3.242-4.326
						C162.85,220.732,161.837,219.625,160.538,219.184z"/>
				</g>
				<g>
					
						<ellipse transform="matrix(0.9879 -0.1548 0.1548 0.9879 -33.7205 26.0333)" fill="#5C3B66" cx="150.254" cy="229.477" rx="3.872" ry="3.772"/>
					<path fill="#FFFFFF" d="M148.253,229.84c0.832-0.428,1.031-1.283,1.092-1.916c0.048-0.473-0.169-0.953-0.029-1.426
						c0.029-0.102,0.079-0.188,0.145-0.266c-1.564,0.375-2.608,1.861-2.362,3.438c0.024,0.145,0.058,0.285,0.099,0.42
						C147.568,230.078,147.934,230.004,148.253,229.84z"/>
					<path fill="#D2B2C2" d="M151.542,225.908c0.437,0.506,0.742,1.135,0.854,1.84c0.322,2.059-1.129,3.996-3.242,4.326
						c-0.652,0.102-1.291,0.039-1.872-0.158c0.839,0.975,2.168,1.506,3.556,1.287c2.113-0.33,3.564-2.268,3.242-4.326
						C153.856,227.455,152.844,226.348,151.542,225.908z"/>
				</g>
				<g>
					
						<ellipse transform="matrix(0.988 -0.1546 0.1546 0.988 -33.4354 26.9763)" fill="#5C3B66" cx="156.729" cy="228.464" rx="3.872" ry="3.771"/>
					<path fill="#FFFFFF" d="M154.726,228.826c0.834-0.428,1.031-1.283,1.094-1.916c0.046-0.473-0.17-0.953-0.03-1.426
						c0.03-0.102,0.079-0.188,0.146-0.266c-1.565,0.373-2.608,1.861-2.362,3.439c0.023,0.143,0.056,0.283,0.099,0.418
						C154.041,229.064,154.408,228.99,154.726,228.826z"/>
					<path fill="#D2B2C2" d="M158.017,224.893c0.438,0.508,0.742,1.137,0.852,1.842c0.323,2.059-1.129,3.996-3.241,4.326
						c-0.651,0.102-1.292,0.039-1.872-0.156c0.838,0.973,2.167,1.504,3.557,1.285c2.112-0.33,3.564-2.268,3.242-4.324
						C160.331,226.441,159.319,225.332,158.017,224.893z"/>
				</g>
				<g>
					
						<ellipse transform="matrix(0.988 -0.1546 0.1546 0.988 -34.3538 26.6311)" fill="#5C3B66" cx="154.05" cy="234.196" rx="3.872" ry="3.771"/>
					<path fill="#FFFFFF" d="M152.048,234.559c0.833-0.428,1.031-1.283,1.093-1.916c0.047-0.473-0.169-0.953-0.03-1.426
						c0.031-0.102,0.08-0.188,0.146-0.266c-1.563,0.375-2.608,1.861-2.361,3.439c0.022,0.145,0.056,0.283,0.098,0.42
						C151.363,234.797,151.729,234.723,152.048,234.559z"/>
					<path fill="#D2B2C2" d="M155.339,230.625c0.438,0.508,0.741,1.137,0.853,1.842c0.322,2.061-1.13,3.996-3.242,4.328
						c-0.652,0.102-1.291,0.037-1.872-0.158c0.838,0.973,2.167,1.504,3.556,1.285c2.113-0.33,3.564-2.266,3.242-4.324
						C157.652,232.174,156.64,231.066,155.339,230.625z"/>
				</g>
			</g>
		</g>
		<g>
			<g>
				<g>
					<g>
						<path fill="#FFCE33" d="M166.692,225.42c2.444,1.328,5.426,4.658,12.039,5.385c6.804,0.75,14.656-3.287,16.451-0.793
							c2.191,3.053-7.74,9.102-17.664,8.684c-4.78-0.201-11.884-3.514-14.239-10.555c-0.658-1.969,0.536-2.666-1.078-5.15
							l1.297-0.838C163.498,222.152,163.029,223.43,166.692,225.42z"/>
					</g>
				</g>
				<g>
					<path fill="#FFFFFF" d="M183.314,231.709c-0.195,0.166-0.44,0.379-0.516,0.625c-0.143,0.461,0.405,0.646,0.793,0.693
						c0.672,0.08,1.359-0.004,2.031-0.055c0.825-0.064,1.59-0.313,2.364-0.576c0.684-0.23,1.373-0.502,1.969-0.896
						c0.494-0.328,1.08-0.752,1.088-1.381c0-0.031-0.006-0.059-0.006-0.088c-1.865,0.193-4.352,0.867-6.958,1.223
						C183.806,231.369,183.548,231.514,183.314,231.709z"/>
				</g>
				<g>
					<path fill="#683C13" d="M194.912,232.484c0,0,1.131-1.205,0.27-2.473c-0.457-0.672-1.309-0.76-1.775-0.805
						c0,0,0.748,0.787,1.07,1.406C194.838,231.307,194.912,232.484,194.912,232.484z"/>
				</g>
				<g>
					<path fill="#FDD998" d="M195.182,230.012c2.191,3.053-7.74,9.102-17.664,8.684c-4.78-0.201-11.884-3.514-14.239-10.555
						c-0.658-1.969,0.536-2.666-1.078-5.15c0,0,4.723,11.082,14.833,12.096C188.83,236.266,195.182,230.012,195.182,230.012z"/>
				</g>
			</g>
			<g>
				<g>
					<g>
						<path fill="#FFCE33" d="M165.842,223.281c2.74,0.703,6.574,3.318,13.15,2.275c6.767-1.074,13.158-7.348,15.605-5.27
							c2.996,2.541-4.813,11.445-14.486,13.703c-4.661,1.088-12.458-0.393-16.767-6.988c-1.203-1.844-0.256-2.885-2.529-5.002
							l1.005-1.213C161.821,220.787,161.74,222.229,165.842,223.281z"/>
					</g>
				</g>
				<g>
					<path fill="#FFFFFF" d="M183.667,225.244c-0.142,0.223-0.314,0.506-0.316,0.781c-0.003,0.512,0.577,0.553,0.965,0.496
						c0.668-0.098,1.308-0.369,1.938-0.605c0.775-0.289,1.441-0.75,2.109-1.23c0.59-0.424,1.176-0.889,1.635-1.455
						c0.381-0.473,0.822-1.066,0.648-1.713c-0.008-0.033-0.021-0.059-0.033-0.09c-1.736,0.703-3.936,2.07-6.342,3.141
						C184.042,224.76,183.835,224.979,183.667,225.244z"/>
				</g>
				<g>
					<path fill="#683C13" d="M195.057,222.9c0,0,0.74-1.545-0.459-2.613c-0.633-0.566-1.479-0.426-1.939-0.348
						c0,0,0.947,0.607,1.438,1.156C194.645,221.711,195.057,222.9,195.057,222.9z"/>
				</g>
				<g>
					<path fill="#FDD998" d="M194.598,220.287c2.996,2.541-4.813,11.445-14.486,13.703c-4.661,1.088-12.458-0.393-16.767-6.988
						c-1.203-1.844-0.256-2.885-2.529-5.002c0,0,7.757,10.109,17.783,8.412C190.299,228.432,194.598,220.287,194.598,220.287z"/>
				</g>
				<g>
					<path fill="#683C13" d="M162.99,226.355c0,0,0.18-2,2.498-3.154c0,0-1.521-0.414-2.45-1.143
						c-0.453-0.355-0.986-1.654-1.553-1.652c-0.378,0.002-0.966,1.164-0.966,1.164C162.161,223.586,162.202,225.094,162.99,226.355z
						"/>
				</g>
			</g>
		</g>
		<path fill="#E3E3E2" d="M143.411,230.279c0.493,16.348,13.978,30.85,37.417,30.85c22.524,0,36.924-14.502,37.417-30.85
			c0,0-0.43,3.871-37.417,3.871C155.378,234.15,143.411,230.279,143.411,230.279z"/>
		<path fill="#E3E3E2" d="M159.064,243.83c1.36,1.328,3.521,2.012,5.358,2.529c0.93,0.264,1.878,0.393,2.834,0.518
			c0.981,0.129,1.966,0.232,2.953,0.27c2.3,0.082,4.64-0.174,6.723-1.215c1.621-0.813,2.945-2.049,3.86-3.615
			c0.81-1.387,1.329-2.891,1.77-4.426c-2.831,0.084-6.288,0.105-10.515,0.033c-7.81-0.135-13.563-0.822-17.387-1.48
			C154.771,237.543,154.623,239.496,159.064,243.83z"/>
		<path fill="#F5F5F5" d="M206.672,233.176c-0.988,2.035-2.053,4.033-3.078,6.02c-1.416,2.74-3.154,5.271-5.449,7.352
			c-2.309,2.092-5.025,3.877-7.887,5.111c-6.721,2.904-14.141,2.996-21.266,1.795c-3.023-0.51-5.918-1.32-8.585-2.867
			c-2.418-1.406-4.575-3.242-6.369-5.389c-3.339-3.996-5.499-8.852-6.604-13.92c-2.699-0.57-4.022-0.998-4.022-0.998
			c0.493,16.348,13.978,30.85,37.417,30.85c22.524,0,36.924-14.502,37.417-30.85C218.244,230.279,218.049,232.031,206.672,233.176z"
			/>
	</g>
</g>
</svg>
