<?xml version="1.0" encoding="utf-8"?>
<!-- Generator: Adobe Illustrator 16.0.0, SVG Export Plug-In . SVG Version: 6.00 Build 0)  -->
<!DOCTYPE svg PUBLIC "-//W3C//DTD SVG 1.1//EN" "http://www.w3.org/Graphics/SVG/1.1/DTD/svg11.dtd">
<svg version="1.1" id="Capa_1" xmlns="http://www.w3.org/2000/svg" xmlns:xlink="http://www.w3.org/1999/xlink" x="0px" y="0px"
	 width="400px" height="400px" viewBox="0 0 400 400" enable-background="new 0 0 400 400" xml:space="preserve">
<g>
	<g>
		<g>
			<polygon fill="#22A1BD" points="262.912,144.913 265.32,118.625 271.393,118.625 271.393,110.623 233.863,109.654 
				233.863,118.726 241.754,119.178 246.004,146.292 			"/>
			<polygon fill="#22BABD" points="271.393,110.623 271.393,115.874 240.842,114.455 237.537,109.749 			"/>
		</g>
		<path fill="#7E6467" d="M119.452,195.676l-1.179,21.132l-3.363-4.408c-0.687-0.9-2.104-0.137-1.729,0.932l4.424,12.58
			l-0.725,18.422h8.744v-48.657H119.452z"/>
		<g>
			<polygon fill="#B5D55A" points="146.776,140.984 145.041,106.979 107.029,82.183 91.968,156.176 111.503,205.595 
				138.076,198.298 			"/>
			<polygon fill="#A4B55C" points="145.041,106.979 133.016,99.135 108.188,164.452 91.968,156.176 111.503,205.595 
				138.076,198.298 146.776,140.984 			"/>
		</g>
		<g>
			<polygon fill="#22BABD" points="299.25,172.692 279.857,135.618 140.954,137.849 122.926,176.083 			"/>
			<path fill="#22A1BD" d="M140.954,137.849l-18.028,38.234l128.617-2.473c-24.951-12.673-50.729-24.202-75.889-36.318
				L140.954,137.849z"/>
			<path fill="#D4D5C9" d="M129.688,177.446l3.822,66.887h34.465c-7.959-22.406-16.83-44.486-23.228-67.331L129.688,177.446z"/>
			<path fill="#EEEDD8" d="M298.336,172.478l-153.589,4.525c6.398,22.844,15.269,44.924,23.228,67.331h122.719L298.336,172.478z"/>
			<polygon fill="#D4D5C9" points="199.348,244.333 204.015,174.389 207.236,182.071 209.061,244.333 			"/>
			<polygon fill="#7E6467" points="302.52,175.904 121.336,178.599 121.574,173.828 302.805,170.178 			"/>
			<g>
				<polygon fill="#EEEDD8" points="145.369,244.333 142.715,173.247 174.116,135.25 204.015,174.389 199.348,244.333 				"/>
				<polygon fill="#7E6467" points="212.07,177.25 173.244,133.137 135.174,178.599 140.618,182.658 173.789,142.383 
					207.236,182.071 				"/>
			</g>
			<g>
				<path fill="#FECC8D" d="M228.229,185.454c0.225,0.676,2.705,34.233,2.705,34.233l44.199-2.438l4.736-31.795H228.229z"/>
				<path fill="#7595AE" d="M233.438,216.837c-1.26-16.982-1.893-24.913-2.229-28.677h45.521l-3.949,26.509L233.438,216.837z"/>
				<g>
					<path fill="#93ACBF" d="M241.045,188.16c-3.014,2.016-6.178,3.865-9.359,5.702c0.135,1.681,0.293,3.681,0.475,6.048
						c5.811-3.812,11.623-7.628,17.182-11.75H241.045z"/>
					<path fill="#93ACBF" d="M253.004,188.16c-6.721,5.312-13.592,10.484-20.543,15.666c0.049,0.65,0.102,1.33,0.152,2.023
						c7.713-5.709,15.197-11.833,22.969-17.689H253.004z"/>
					<path fill="#93ACBF" d="M276.541,189.43c-14.188,8.841-28.527,17.378-43.275,25.097c0.055,0.752,0.113,1.518,0.172,2.311
						l2.178-0.119c13.627-7.201,26.906-15.291,40.314-23.194L276.541,189.43z"/>
					<path fill="#93ACBF" d="M275.395,197.12c-10.699,7.08-22.189,12.732-33.107,19.23l5.82-0.322
						c9.273-4.582,18.143-9.592,26.727-15.143L275.395,197.12z"/>
				</g>
				<polygon fill="#FECC8D" points="252.02,186.581 252.02,216.837 254.725,216.837 255.627,186.581 				"/>
				<polygon fill="#FECC8D" points="276.26,199.905 231.385,199.905 231.385,202.612 276.26,203.513 				"/>
				<polygon fill="#7E6467" points="277.586,216.837 228.904,219.009 229.582,223.563 276.74,222.042 				"/>
			</g>
			<circle fill="#FECC8D" cx="173.365" cy="165.722" r="8.015"/>
			<circle fill="#7595AE" cx="173.365" cy="165.722" r="5.178"/>
			<path fill="#93ACBF" d="M175.538,161.027c-0.662-0.307-1.396-0.482-2.173-0.482c-2.86,0-5.178,2.318-5.178,5.178
				c0,0.403,0.051,0.794,0.138,1.17C170.729,164.951,173.134,163.002,175.538,161.027z"/>
			<path fill="#93ACBF" d="M177.586,162.745c-2.644,2.219-5.304,4.406-8.015,6.492c0.554,0.599,1.249,1.062,2.03,1.347
				c2.304-1.735,4.594-3.474,6.92-5.135C178.467,164.445,178.134,163.517,177.586,162.745z"/>
			<g>
				<polygon fill="#7E6467" points="157.438,244.333 153.116,184.71 190.614,182.658 186.699,244.333 				"/>
				<polygon fill="#FECC8D" points="160.584,244.333 156.738,187.899 186.998,186.244 183.524,244.333 				"/>
				<polygon fill="#FEB66D" points="183.524,244.333 163.96,228.3 161.938,187.615 156.738,187.899 160.584,244.333 				"/>
				<polygon fill="#7E6467" points="181.38,210.192 178.521,210.192 177.716,216.382 181.38,216.382 				"/>
			</g>
			<polygon fill="#D4D5C9" points="276.74,222.042 252.02,231.681 229.582,223.563 			"/>
		</g>
	</g>
	<path fill="#A4B55C" d="M116.88,244.333l-8.094,7.086h85.999c3.979-2.393,7.988-4.764,12.049-7.086H116.88z"/>
	<path fill="#B5D55A" d="M246.916,251.419h61.115l-9.695-7.086h-91.502c-4.061,2.322-8.07,4.693-12.049,7.086h22.004l10.18,6.303
		l-1.051-6.303l12.67,8.404l-2.984-8.404l12.793,6.059L246.916,251.419z"/>
</g>
<g>
	<path fill="#2C3A64" d="M140.394,184.261c-0.044-0.154-0.615-1.81-4.644-1.528c0,0,2.005-0.032,2.472,0.487
		c0,0-1.498-0.558-2.541-0.237c-1.043,0.32-1.407,1.597-1.322,1.998c0.085,0.401,0.987,1.636,1.706,1.682
		c0.272,0.017,0.572-0.022,0.84-0.077c-0.142,0.2-0.277,0.419-0.398,0.66c-1.123,2.236,0.993,4.124,2.295,3.773
		c0.835-0.224,1.296,0.695,1.296,0.695l7.445-5.122C147.543,186.592,143.514,182.802,140.394,184.261z"/>
	<path fill="#2B478B" d="M150.094,245.943l-1.812,0.429c0,0-7.865-6.937-8.834-13.039c-0.172-1.089-0.115-2.146,0.259-3.12
		c0,0-0.077-0.279-0.211-0.772c-0.062-0.23-0.139-0.508-0.226-0.825c-0.255-0.932-0.608-2.206-1.01-3.658
		c-0.925-3.339-2.125-7.609-3.056-10.747l0.488-0.1l5.279-1.083l1.091-2.204l3.931-0.657c0,0,0.878,1.092,1.664,6.252
		c0.145,0.676,0.276,1.423,0.375,2.232c0.306,2.47,0.328,5.534-0.375,9.038c-0.18,0.896-0.408,1.822-0.69,2.773
		c-0.207,0.698-0.238,1.648-0.15,2.739C147.214,238.19,150.094,245.943,150.094,245.943z"/>
	<path fill="#233862" d="M148.033,218.65l-8.537,10.79c-0.062-0.23-0.139-0.508-0.226-0.825c-0.255-0.932-0.608-2.206-1.01-3.658
		c-0.925-3.339-2.125-7.609-3.056-10.747l0.488-0.1l5.279-1.083l1.091-2.204l3.931-0.657c0,0,0.878,1.092,1.664,6.252
		C147.802,217.094,147.934,217.841,148.033,218.65z"/>
	<path fill="#2B478B" d="M144.277,211.55c0,0-0.002,0.01-0.009,0.026c-0.027,0.071-0.11,0.289-0.229,0.602
		c-0.568,1.485-1.954,5.09-2.038,5.087c-0.761,3.381-1.906,7.761-3.327,11.127c-0.752,1.781-1.581,3.278-2.474,4.194
		c-0.306,0.314-0.64,0.841-0.989,1.511c-2.054,3.948-4.581,12.886-4.581,12.886l-1.153,0.295c0,0-4.442-8.03-0.593-14.552
		c0.393-0.664,0.871-1.312,1.448-1.936c0.066-0.072,0.111-0.15,0.095-0.233c0-0.001,0-0.001,0-0.003
		c-0.05-0.271-0.175-0.952-0.316-1.907c-0.393-2.637-0.768-11.549-0.973-13.646c-0.078-0.794-0.032-1.502,0.096-2.129
		c0.247-1.224,0.801-2.141,1.343-2.781c0.684-0.809,1.348-1.179,1.348-1.179s8.846,2.121,12.157,1.562L144.277,211.55z"/>
	<path fill="#223E77" d="M144.268,212.083c-0.071,0.033-0.147,0.064-0.229,0.095c-3.051,1.134-13.753,0.735-14.806,0.693
		c0.247-1.224,0.801-2.141,1.343-2.781c4.578,0.259,12.166,0.782,13.693,1.486C144.616,211.736,144.651,211.906,144.268,212.083z"/>
	<path fill="#ED985F" d="M161.341,209.784l-0.537,1.01c0,0-0.108-0.012-0.294-0.043c-0.586-0.093-2.015-0.31-3.615-0.608
		c-2.411-0.436-5.247-1.044-6.278-1.631c-1.572-0.889-3.876-3.322-5.169-5.64c-0.039-0.058-0.065-0.113-0.091-0.169
		c-0.669-1.229-1.043-2.413-0.846-3.303c0.112-0.545,0.338-0.998,0.627-1.38c0.38-0.505,0.877-0.882,1.358-1.155
		c0.068-0.045,0.137-0.091,0.23-0.124c0.787-0.415,1.392-0.682,1.392-0.682c0.348-0.049,0.756,0.228,1.05,0.518
		c0,0,0.477,0.577,0.68,0.99c0.011,0.01,0.022,0.02,0.02,0.029c0.045,0.084,0.089,0.178,0.143,0.282
		c0.022,0.02,0.029,0.047,0.037,0.066c0.092,0.213,0.183,0.437,0.27,0.668c1.007,2.488,1.788,6.172,2.963,7.378
		c0.507,0.519,3.159,1.726,5.281,2.642C160.09,209.286,161.341,209.784,161.341,209.784z"/>
	<path fill="#FFB27D" d="M147.152,198.473c-0.959,0.399-2.154,0.72-3.645,0.911c-5.588,0.716-7.584-2.306-8.292-4.368
		c0.769-0.262,1.484-0.31,1.897-0.334c0.403-0.022,0.826-0.035,1.176-0.04c0.637-0.292,1.621-1.519,1.912-3.444l0.259,0.049
		l4.342,0.84c0,0-0.239,0.881-0.375,1.715c-0.105,0.652-0.145,1.277,0.043,1.434c0.34,0.053,0.543,0.087,0.543,0.087
		s0,0.001,0.002,0.003C145.07,195.388,146.281,196.739,147.152,198.473z"/>
	<path fill="#2B478B" d="M149.097,200.693c-0.026,0.075-0.057,0.15-0.092,0.226c-0.98,2.086-1.774,10.422-1.774,10.422
		c0.708,1.42-17.263,1.301-17.611-0.02c-0.94-1.348,1.36-3.864,2.689-5.143c0.167-0.161,0.31-0.33,0.428-0.505
		c0.3-0.44,0.445-0.919,0.416-1.402c-0.117-1.906-0.638-3.655-0.856-4.729l0,0c0.277-0.175,0.546-0.337,0.796-0.491
		c0.382-0.238,0.717-0.458,0.953-0.671c0.259-0.233,0.403-0.46,0.371-0.698c-0.025-0.181-0.076-0.362-0.147-0.544
		c-0.033-0.084-0.07-0.169-0.11-0.254c-0.427-0.888-1.212-1.657-1.212-1.657c1.422-0.528,4.163-0.545,4.163-0.545
		s0.019,0.096,0.053,0.251c0.134,0.625,0.509,2.227,0.893,2.501c0.48,0.341,8.057,1.332,8.321,0.784
		c0.259-0.538-1.305-2.806-1.364-2.892c-0.002-0.001-0.002-0.003-0.002-0.003c2.549,0.379,3.526,0.805,3.526,0.805
		C147.222,196.862,149.788,198.694,149.097,200.693z"/>
	<path fill="#ED985F" d="M144.801,192.088c0,0-0.24,0.88-0.375,1.714c-2.472-0.202-3.556-1.723-3.967-2.554L144.801,192.088z"/>
	<path fill="#FFB27D" d="M145.504,192.931c0,0-5.875-0.312-5.513-2.635c0.361-2.323-0.153-3.928,3.613-3.827
		c3.767,0.101,4.356,1.033,4.532,1.828S147.042,192.952,145.504,192.931z"/>
	<path fill="#2C3A64" d="M148.165,186.994c-0.796-0.757-1.506-0.647-1.923-0.461c-3.029-1.324-5.356,0.201-5.356,0.201
		c-0.655,1.642-2.695,2.477-2.695,2.477s1.003,0.487,3.531,0.241c0.772-0.075,1.498-0.373,2.134-0.748
		c-1.165,0.999-2.643,1.678-2.643,1.678c3.08-0.678,4.672-3.206,4.833-3.473c0.326,0.227,0.961,0.716,1.108,1.165
		c0.199,0.61,0.139,1.836,0.704,1.831C147.858,189.903,149.36,188.128,148.165,186.994z"/>
	<path fill="#233862" d="M141.878,209.059c-3.471,0.296-6.929-1.722-9.14-3.385c0.3-0.44,0.445-0.919,0.416-1.402
		c-0.117-1.906-0.638-3.655-0.856-4.729l0,0c0.277-0.175,0.546-0.337,0.796-0.491c0.382-0.238,0.717-0.458,0.953-0.671
		C137.582,201.169,146.585,208.656,141.878,209.059z"/>
	<g>
		<path fill="#ED985F" d="M153.99,209.814l0.614,1.324c0,0-1.55-0.224-2.521-0.284c-0.291-0.019-0.458-0.035-0.458-0.035
			c-0.778-0.054-1.711-0.133-2.726-0.217l-0.014,0.001c-1.743-0.166-3.696-0.374-5.354-0.632c-1.167-0.189-2.188-0.404-2.893-0.637
			c-0.072-0.021-0.13-0.045-0.203-0.076c-1.698-0.649-3.892-2.715-5.684-4.959c-0.249-0.312-0.484-0.621-0.718-0.924
			c-0.841-1.125-1.544-2.241-2.006-3.213c-0.286-0.578-0.496-1.109-0.584-1.55c-0.035-0.156-0.068-0.302-0.073-0.442
			c-0.01-0.08-0.018-0.159-0.024-0.235c0.687-0.382,2.27-1.095,4.429-1.021c0.045,0.048,0.089,0.099,0.134,0.149
			c0.932,1.077,1.948,2.481,2.909,3.879c0.532,0.768,1.048,1.534,1.558,2.241c0.293,0.431,0.583,0.834,0.853,1.204
			c0.522,0.705,0.985,1.274,1.377,1.629c0.252,0.231,0.926,0.535,1.811,0.871c1.538,0.589,3.765,1.279,5.698,1.837
			c0.803,0.235,1.561,0.448,2.19,0.623C153.32,209.632,153.99,209.814,153.99,209.814z"/>
		<path fill="#2B478B" d="M135.986,197.079c-2.691-0.316-4.624,1.089-4.624,1.089c-0.31-2.515,1.61-2.967,1.61-2.967
			C133.736,194.948,134.855,195.781,135.986,197.079z"/>
	</g>
	<path fill="#233862" d="M136.178,247.876h-9.121c0,0-0.218-0.884,0.258-1.554c0.457-0.645,1.172-0.937,1-1.715
		c0.58,0.379,1.524,0.805,2.843,0.691c0.162,0.166,1.042,1.058,1.583,1.305C133.336,246.876,135.994,246.778,136.178,247.876z"/>
	<path fill="#233862" d="M155.761,247.876h-9.121c0,0-0.341-0.925,0.258-1.554c0.53-0.558,0.327-0.875-0.066-1.336
		c0.414,0.107,0.948,0.206,1.536,0.184c0.455-0.016,0.935-0.146,1.356-0.303c0.393,0.284,2.074,1.495,2.599,1.736
		C152.92,246.876,155.578,246.778,155.761,247.876z"/>
	<path fill="#FFFFFF" d="M144.103,191.587c0,0,0.082,0.308,1.272,0.308c0,0,1,0.001,1.002-0.334
		C146.378,191.562,145.436,191.287,144.103,191.587z"/>
</g>
</svg>
