<?xml version="1.0" encoding="utf-8"?>
<!-- Generator: Adobe Illustrator 16.0.0, SVG Export Plug-In . SVG Version: 6.00 Build 0)  -->
<!DOCTYPE svg PUBLIC "-//W3C//DTD SVG 1.1//EN" "http://www.w3.org/Graphics/SVG/1.1/DTD/svg11.dtd">
<svg version="1.1" id="Capa_1" xmlns="http://www.w3.org/2000/svg" xmlns:xlink="http://www.w3.org/1999/xlink" x="0px" y="0px"
	 width="400px" height="400px" viewBox="0 0 400 400" enable-background="new 0 0 400 400" xml:space="preserve">
<g>
	<g>
		<path fill="#E3E4E3" d="M120.839,245.215c0,0,3.153,15.923-1.405,22.81l9.705,0.563l0.386-25.308L120.839,245.215z"/>
		<g>
			<path fill="#DDDBDB" d="M129.06,265.827c-2.757,0.121-5.515,0.167-8.279,0.139c-0.444-0.006-0.423,0.444,0.02,0.449
				c2.764,0.028,5.522-0.018,8.279-0.139C129.52,266.258,129.503,265.808,129.06,265.827z"/>
			<path fill="#DDDBDB" d="M128.953,263.439c-2.468,0.076-4.936,0.15-7.403,0.227c-0.442,0.013-0.424,0.463,0.019,0.449
				c2.468-0.075,4.936-0.151,7.404-0.226C129.416,263.876,129.397,263.426,128.953,263.439z"/>
			<path fill="#DDDBDB" d="M128.865,261.383c-2.352,0.196-4.701,0.24-7.067,0.13c-0.442-0.021-0.42,0.429,0.02,0.449
				c2.367,0.11,4.715,0.066,7.067-0.13C129.319,261.796,129.305,261.346,128.865,261.383z"/>
			<path fill="#DDDBDB" d="M129.444,258.519c-2.402,0.225-4.811,0.35-7.238,0.376c-0.444,0.005-0.425,0.454,0.019,0.449
				c2.427-0.026,4.837-0.151,7.239-0.376C129.897,258.928,129.883,258.478,129.444,258.519z"/>
			<path fill="#DDDBDB" d="M129.15,255.937c-2.354,0.091-4.708,0.14-7.065,0.144c-0.444,0.001-0.424,0.45,0.019,0.449
				c2.358-0.004,4.712-0.052,7.066-0.144C129.612,256.368,129.594,255.919,129.15,255.937z"/>
			<path fill="#DDDBDB" d="M128.86,253.363c-2.289,0.141-4.582,0.228-6.881,0.26c-0.443,0.007-0.425,0.456,0.02,0.45
				c2.299-0.033,4.592-0.12,6.881-0.261C129.318,253.785,129.302,253.336,128.86,253.363z"/>
			<path fill="#DDDBDB" d="M128.907,250.446c-2.457,0.19-4.92,0.316-7.394,0.381c-0.073,0.002-0.13,0.019-0.178,0.04
				c0.002,0.019,0.002,0.036,0.004,0.055c0.033,0.111,0.058,0.224,0.08,0.336c0.035,0.009,0.068,0.02,0.113,0.019
				c2.474-0.064,4.937-0.19,7.393-0.381C129.363,250.862,129.348,250.412,128.907,250.446z"/>
			<path fill="#DDDBDB" d="M129.13,247.548c-2.409,0.086-4.819,0.173-7.228,0.26c-0.442,0.016-0.424,0.465,0.02,0.449
				c2.409-0.086,4.819-0.173,7.228-0.26C129.591,247.981,129.574,247.532,129.13,247.548z"/>
		</g>
	</g>
	<g>
		<g>
			<g>
				<path fill="#F6DA83" d="M285.523,301.026l-174.792-0.262c-0.224,0-0.405-0.114-0.405-0.255l0.042-17.988
					c0-0.141,0.182-0.254,0.406-0.254l174.793,0.261c0.223,0.001,0.404,0.115,0.404,0.256l-0.041,17.988
					C285.928,300.912,285.748,301.026,285.523,301.026z"/>
				<polygon fill="#6F6154" points="141.52,300.813 123.147,300.786 123.189,282.284 141.562,282.313 				"/>
				<polygon fill="#6F6154" points="149.843,300.825 145.758,300.819 145.801,282.318 149.886,282.324 				"/>
				
					<ellipse transform="matrix(1 0.0015 -0.0015 1 0.4373 -0.2398)" fill="#6F6154" cx="160.177" cy="291.591" rx="5.211" ry="3.276"/>
			</g>
			<g>
				<path fill="#B0A7A7" d="M287.004,282.733l-174.793-0.261c-0.224-0.001-0.405-0.115-0.404-0.256l0.033-14.41
					c0-0.142,0.182-0.256,0.405-0.255l174.794,0.261c0.223,0.001,0.404,0.114,0.404,0.256l-0.035,14.411
					C287.408,282.62,287.227,282.733,287.004,282.733z"/>
				<polygon fill="#EFE4E5" points="134.162,271.812 134.146,278.278 139.679,275.406 				"/>
				<polygon fill="#EFE4E5" points="141.188,272.445 141.176,277.666 145.641,275.347 				"/>
				<rect x="121.307" y="267.566" fill="#EFE4E5" width="0.795" height="14.92"/>
				<rect x="125.04" y="267.572" fill="#EFE4E5" width="0.795" height="14.92"/>
			</g>
			<g>
				<g>
					<path fill="#ECE0E0" d="M180.876,104.633l-12.751,2.162l0.422-1.821c1.273-5.482,0.649-12.204-1.205-17.638l0.556-0.305
						l12.177-5.425L180.876,104.633z"/>
					<polygon fill="#9EB79C" points="251.914,105.438 179.953,103.577 167.832,106.7 245.75,108.822 					"/>
					<g>
						<path fill="#B1C1BB" d="M167.696,106.198c2.133-0.235,4.222-0.98,6.291-1.55c1.941-0.533,3.877-1.066,5.811-1.598
							c0.306-0.084,0.451,0.522,0.143,0.607c-2.087,0.574-4.178,1.15-6.274,1.728c-1.963,0.541-3.931,1.22-5.955,1.443
							C167.393,106.864,167.379,106.233,167.696,106.198L167.696,106.198z"/>
					</g>
					<path fill="#B1C1BB" d="M179.971,82.439c-4.384,1.448-8.684,3.281-12.875,5.507c-0.435,0.23-0.839-0.604-0.401-0.837
						c4.253-2.257,8.609-4.128,13.059-5.596C180.211,81.362,180.428,82.289,179.971,82.439z"/>
					<path fill="#9FC39F" d="M251.955,83.697l-72.472-2.109l0.436,4.959c0.352,4.011,0.447,8.026,0.285,12.006l-0.251,5.024
						l71.961,1.86l0.066-0.294C253.561,98.208,253.555,90.75,251.955,83.697L251.955,83.697z"/>
				</g>
				<path fill="#5C84AD" d="M190.366,82.405c-0.124-0.633-1.713-0.605-1.589,0.034c1.304,6.679,1.16,13.398-0.462,20.049
					c-0.154,0.632,1.392,0.869,1.548,0.233C191.505,95.984,191.687,89.172,190.366,82.405z"/>
				<path fill="#5C84AD" d="M243.217,84.185c-0.133-0.633-1.723-0.596-1.588,0.042c1.396,6.672,1.346,13.391-0.182,20.051
					c-0.146,0.633,1.404,0.861,1.549,0.225C244.545,97.757,244.631,90.944,243.217,84.185z"/>
			</g>
			<g>
				<path fill="#ECD7C4" d="M142.316,132.167l-28.332,2.882l0.936-2.441c2.816-7.35,1.416-16.362-2.714-23.652l1.236-0.408
					l27.048-7.258L142.316,132.167z"/>
				<polygon fill="#B76256" points="300.17,133.339 140.264,130.75 113.334,134.921 286.482,137.869 				"/>
				<g>
					<path fill="#C1A185" d="M113.032,134.248c4.738-0.312,9.38-1.309,13.976-2.069c4.311-0.713,8.614-1.425,12.908-2.135
						c0.68-0.112,1.002,0.702,0.32,0.814c-4.636,0.769-9.282,1.538-13.939,2.309c-4.36,0.723-8.732,1.63-13.228,1.928
						C112.362,135.141,112.329,134.294,113.032,134.248L113.032,134.248z"/>
				</g>
				<path fill="#C1A185" d="M140.261,102.407c-9.738,1.936-19.29,4.388-28.599,7.368c-0.963,0.309-1.866-0.812-0.893-1.123
					c9.448-3.021,19.124-5.524,29.007-7.486C140.793,100.963,141.276,102.205,140.261,102.407z"/>
				<path fill="#C46856" d="M300.219,104.188l-161.043-2.923l0.977,6.65c0.791,5.378,1.01,10.762,0.658,16.099l-0.547,6.736
					l159.906,2.589l0.15-0.395C303.814,123.648,303.787,113.647,300.219,104.188L300.219,104.188z"/>
			</g>
			<path fill="#D46981" d="M274.799,267.636l-147.914-0.222l0.051-21.887l147.914,0.221l0.143,0.299
				C278.336,253.098,278.27,260.613,274.799,267.636L274.799,267.636z"/>
			<polygon fill="#849197" points="162.678,267.468 142.011,267.437 142.062,245.55 162.729,245.58 			"/>
			<g>
				<path fill="#ECD7C4" d="M127.502,222.363l-27.437-2.529l0.993,1.933c2.983,5.811,1.994,12.862-1.658,18.498l1.192,0.335
					l26.177,6.065L127.502,222.363z"/>
				<polygon fill="#D3B192" points="287.736,222.906 125.556,223.468 99.447,219.929 273.275,219.029 				"/>
				<g>
					<path fill="#C1A185" d="M99.185,220.457c4.553,0.287,9.05,1.115,13.502,1.757c4.185,0.604,8.371,1.207,12.556,1.811
						c0.664,0.096,0.949-0.546,0.283-0.643c-4.52-0.651-9.041-1.304-13.561-1.955c-4.225-0.609-8.458-1.363-12.779-1.636
						C98.508,219.748,98.511,220.414,99.185,220.457L99.185,220.457z"/>
				</g>
				<path fill="#C1A185" d="M126.51,245.785c-9.435-1.659-18.67-3.713-27.66-6.166c-0.929-0.254-1.742,0.606-0.805,0.862
					c9.118,2.487,18.468,4.583,28.04,6.269C127.072,246.924,127.496,245.96,126.51,245.785z"/>
				<path fill="#E7C5A3" d="M287.682,246.905l-162.179-0.243l0.718-5.192c0.583-4.212,0.614-8.448,0.094-12.665l-0.759-5.337
					l162.18-0.562l0.156,0.329C291.561,230.965,291.486,239.205,287.682,246.905L287.682,246.905z"/>
			</g>
			<path fill="#5C84AD" d="M272.07,221.357l-153.695-0.23c-0.224,0-0.405-0.114-0.404-0.255l0.051-22.173
				c0-0.141,0.182-0.254,0.405-0.253l153.696,0.229c0.225,0,0.406,0.113,0.404,0.255l-0.051,22.173
				C272.477,221.244,272.295,221.357,272.07,221.357z"/>
			<path fill="#76A192" d="M293.406,182.639l-190.012-0.283c-0.224-0.001-0.405-0.115-0.405-0.256l0.037-16.049
				c0-0.141,0.182-0.255,0.406-0.254l190.013,0.284c0.223,0.001,0.404,0.115,0.404,0.256l-0.037,16.049
				C293.811,182.525,293.631,182.64,293.406,182.639z"/>
			<g>
				<path fill="#E1D6BC" d="M262.949,166.343l-121.119-0.181l0.076-32.708l121.118,0.181l0.436,1.821
					c2.307,9.638,2.283,19.437-0.066,29.066L262.949,166.343z"/>
				<polygon fill="#F6DA83" points="179.289,166.001 155.256,165.964 155.33,133.691 179.363,133.727 				"/>
				<polygon fill="#F8E3A9" points="173.907,165.992 160.413,165.973 160.487,133.699 173.981,133.719 				"/>
				<polygon opacity="0.13" fill="#000100" points="141.905,133.636 263.023,133.817 264.693,142.241 141.901,135.408 				"/>
			</g>
			<path opacity="0.64" fill="#5C84AD" d="M210.514,92.552c-0.008,2.848-3.685,5.151-8.213,5.145
				c-4.529-0.007-8.195-2.322-8.189-5.169c0.006-2.848,3.684-5.152,8.212-5.145C206.854,87.389,210.52,89.704,210.514,92.552z"/>
			<g>
				<path fill="#E1D6BC" d="M122.055,173.929c-1.631-1.274-3.502-2.357-5.633-3.293c-0.841-0.37-1.639,0.496-0.805,0.862
					c1.816,0.798,3.398,1.727,4.824,2.78c-1.544,1.115-3.195,2.152-4.983,3.116c-0.778,0.42,0.349,1.126,1.122,0.709
					c1.976-1.066,3.793-2.216,5.474-3.466C122.354,174.413,122.345,174.155,122.055,173.929z"/>
				<path fill="#E1D6BC" d="M131.305,173.734c-1.082-1.035-3.099-1.924-4.523-2.779c-0.74-0.444-1.868,0.26-1.125,0.706
					c1.202,0.721,2.929,1.476,3.982,2.329c-0.606,0.46-1.628,0.887-2.268,1.255c-0.854,0.49-1.706,0.981-2.559,1.472
					c-0.756,0.436,0.369,1.143,1.123,0.709c1.023-0.589,2.046-1.178,3.07-1.767c0.756-0.435,1.789-0.853,2.299-1.42
					C131.438,174.089,131.46,173.883,131.305,173.734z"/>
				<path fill="#E1D6BC" d="M136.282,169.887c-0.729-0.452-1.856,0.252-1.126,0.706c0.439,0.272,1.297,1.211,0.222,1.34
					c-1.004,0.121-0.582,1.085,0.42,0.965c1.003-0.12,1.622-0.689,1.664-1.31C137.505,170.945,136.994,170.329,136.282,169.887z"/>
				<path fill="#E1D6BC" d="M145.136,172.446c-0.224-0.201-0.564-0.251-0.867-0.207c-1.331-0.426-3.022-0.263-4.003,0.471
					c-0.967,0.726-0.828,1.838,0.165,2.528c1.097,0.764,2.948,0.78,4.196,0.146C146.044,174.666,146.148,173.354,145.136,172.446z
					 M143.682,174.585c-0.62,0.346-1.583,0.362-2.123-0.052c-1.113-0.854,0.528-1.903,1.976-1.413
					c0.152,0.052,0.302,0.067,0.441,0.061C144.335,173.646,144.353,174.209,143.682,174.585z"/>
			</g>
			<rect x="249.841" y="198.599" fill="#E1D6BC" width="1.832" height="22.771"/>
			<rect x="257.259" y="198.611" fill="#E1D6BC" width="1.832" height="22.77"/>
			<path opacity="0.11" fill="#000100" d="M126.769,246.665l148.603,0.222c0,0,0.951,2.234,1.295,3.729l-149.735-3.388
				L126.769,246.665z"/>
			<g>
				<path fill="#6F6154" d="M283.527,198.89l-190.012-0.285c-0.223,0-0.405-0.114-0.404-0.255l0.037-16.049
					c0-0.142,0.181-0.255,0.405-0.255l190.013,0.284c0.223,0,0.404,0.114,0.404,0.256l-0.037,16.049
					C283.934,198.775,283.75,198.89,283.527,198.89z"/>
				<rect x="115.167" y="186.973" fill="#E1D6BC" width="2.875" height="6.774"/>
				<polygon fill="#E1D6BC" points="127.062,193.763 124.188,193.759 124.203,186.984 127.078,186.988 				"/>
			</g>
		</g>
		<path fill="#EFE4E5" d="M294.125,182.336l-190.564-0.121c-0.561,0.001-0.978-0.325-0.856-0.669l0,0l190.948-0.806L294.125,182.336
			z"/>
		<path fill="#E3D9D9" d="M293.432,181.622l-190.564-0.121c-0.561,0.001-0.978-0.325-0.857-0.669l0,0l190.949-0.806L293.432,181.622
			z"/>
	</g>
	<path fill="#E3E4E3" d="M133.242,136.083c0,0,5.632,20.747-1.125,29.311l9.714,0.768l0.075-32.526L133.242,136.083z"/>
</g>
</svg>
