<?xml version="1.0" encoding="utf-8"?>
<!-- Generator: Adobe Illustrator 16.0.0, SVG Export Plug-In . SVG Version: 6.00 Build 0)  -->
<!DOCTYPE svg PUBLIC "-//W3C//DTD SVG 1.1//EN" "http://www.w3.org/Graphics/SVG/1.1/DTD/svg11.dtd">
<svg version="1.1" id="Capa_1" xmlns="http://www.w3.org/2000/svg" xmlns:xlink="http://www.w3.org/1999/xlink" x="0px" y="0px"
	 width="400px" height="400px" viewBox="0 0 400 400" enable-background="new 0 0 400 400" xml:space="preserve">
<path d="M344.207,303.816"/>
<path d="M327.34,198.938"/>
<g>
	<g>
		<path opacity="0.5" fill="#04B2AD" d="M146.446,167.281c-0.029-0.023-0.059-0.045-0.088-0.068
			c-0.029-0.022-0.06-0.045-0.089-0.067c-0.029-0.023-0.059-0.045-0.089-0.068c-0.029-0.023-0.059-0.045-0.088-0.067
			c-0.029-0.022-0.059-0.045-0.088-0.067c-0.029-0.023-0.059-0.045-0.088-0.068c-0.029-0.022-0.059-0.044-0.088-0.067
			s-0.06-0.045-0.089-0.068c-0.03-0.023-0.059-0.045-0.088-0.067c-0.03-0.022-0.06-0.045-0.088-0.068
			c-0.029-0.022-0.059-0.044-0.088-0.067c-0.029-0.022-0.059-0.044-0.088-0.068c-0.03-0.022-0.06-0.044-0.089-0.067
			c-0.03-0.023-0.059-0.045-0.088-0.067c-0.029-0.023-0.059-0.045-0.088-0.068c-0.029-0.021-0.059-0.044-0.087-0.067
			c-0.029-0.023-0.06-0.045-0.09-0.068c-0.029-0.022-0.059-0.044-0.088-0.067s-0.059-0.045-0.088-0.067
			c-0.029-0.023-0.059-0.045-0.088-0.068c-0.029-0.022-0.059-0.044-0.088-0.067c-0.03-0.023-0.059-0.045-0.088-0.068
			c-0.03-0.022-0.06-0.044-0.089-0.067c-0.029-0.023-0.059-0.045-0.088-0.067c-0.029-0.023-0.059-0.045-0.088-0.068
			c-0.03-0.022-0.059-0.044-0.088-0.067s-0.06-0.045-0.089-0.067c-0.03-0.024-0.06-0.045-0.088-0.068
			c-0.03-0.023-0.059-0.045-0.088-0.067c-1.34-1.028-2.729-1.996-4.16-2.905l-25.86-30.534c-0.039-0.045-0.087-0.082-0.141-0.115
			c-0.027-0.025-0.056-0.048-0.088-0.068c-0.027-0.024-0.057-0.047-0.089-0.067c-0.027-0.024-0.056-0.047-0.088-0.067
			c-0.027-0.025-0.056-0.047-0.088-0.067c-0.027-0.025-0.057-0.048-0.089-0.068c-0.027-0.025-0.056-0.048-0.088-0.068
			c-0.027-0.024-0.057-0.047-0.088-0.067c-0.027-0.024-0.056-0.047-0.089-0.067c-0.027-0.025-0.056-0.047-0.088-0.067
			c-0.027-0.025-0.057-0.048-0.088-0.068c-0.027-0.025-0.056-0.047-0.088-0.068c-0.027-0.024-0.056-0.047-0.088-0.067
			c-0.027-0.024-0.057-0.047-0.088-0.067c-0.027-0.025-0.056-0.047-0.089-0.068c-0.027-0.024-0.056-0.047-0.088-0.067
			c-0.027-0.024-0.056-0.048-0.088-0.068c-0.027-0.024-0.056-0.047-0.088-0.067c-0.027-0.025-0.056-0.047-0.088-0.067
			c-0.027-0.025-0.056-0.047-0.088-0.068c-0.027-0.024-0.056-0.047-0.088-0.068c-0.027-0.024-0.056-0.047-0.088-0.067
			c-0.027-0.024-0.057-0.047-0.089-0.067c-0.027-0.025-0.056-0.047-0.088-0.067c-0.027-0.025-0.056-0.047-0.088-0.068
			c-0.027-0.024-0.056-0.047-0.088-0.067c-0.027-0.025-0.056-0.048-0.088-0.068c-0.027-0.024-0.056-0.047-0.088-0.067
			c-0.027-0.025-0.056-0.047-0.088-0.067c-0.027-0.025-0.056-0.048-0.088-0.068c-0.122-0.111-0.297-0.18-0.489-0.183
			c-0.233-0.008-0.427,0.075-0.555,0.21l-28.686,30.599c-5.553,3.019-10.545,6.921-14.776,11.52
			c-0.307,0.334-0.61,0.671-0.909,1.013c-3.587,4.091-6.589,8.698-8.875,13.693c-0.19,0.416-0.376,0.834-0.556,1.257
			c-2.888,6.744-4.485,14.159-4.485,21.943l0,0c0,1.46,0.057,2.906,0.167,4.338c0.074,0.954,0.171,1.901,0.292,2.843
			c0.121,0.939,0.265,1.873,0.433,2.799c0.167,0.925,0.357,1.844,0.57,2.752c0.563,2.407,1.285,4.754,2.148,7.031
			c0.278,0.734,0.568,1.463,0.876,2.182c0.18,0.421,0.366,0.84,0.556,1.256c0.243,0.532,0.498,1.059,0.758,1.582
			c0.35,0.703,0.711,1.402,1.089,2.09c1.538,2.796,3.307,5.448,5.284,7.934c0.564,0.71,1.146,1.406,1.744,2.088
			c0.299,0.342,0.602,0.678,0.909,1.012c2.169,2.357,4.538,4.531,7.079,6.498c0.03,0.023,0.06,0.045,0.089,0.068
			s0.059,0.045,0.088,0.066c0.029,0.023,0.059,0.045,0.088,0.068c0.029,0.023,0.059,0.045,0.088,0.068s0.06,0.045,0.088,0.066
			c0.03,0.023,0.06,0.047,0.089,0.068c0.029,0.023,0.059,0.045,0.088,0.068c0.029,0.021,0.059,0.045,0.087,0.066
			c0.03,0.023,0.06,0.045,0.089,0.068c0.029,0.023,0.059,0.045,0.088,0.066c0.029,0.025,0.059,0.047,0.088,0.068
			c0.03,0.023,0.059,0.045,0.088,0.068c0.029,0.021,0.059,0.045,0.088,0.066c0.03,0.023,0.06,0.045,0.089,0.068
			c0.03,0.023,0.06,0.045,0.089,0.068s0.059,0.045,0.089,0.068c0.029,0.021,0.059,0.045,0.087,0.066
			c0.029,0.021,0.059,0.045,0.088,0.066c0.029,0.023,0.06,0.047,0.089,0.068c0.029,0.023,0.059,0.047,0.088,0.068
			c0.03,0.023,0.059,0.045,0.089,0.068c0.029,0.023,0.059,0.045,0.087,0.068c0.029,0.021,0.059,0.043,0.088,0.066
			c0.03,0.023,0.059,0.045,0.089,0.068c0.029,0.021,0.059,0.045,0.088,0.066c0.03,0.025,0.059,0.047,0.089,0.068
			c0.029,0.023,0.058,0.045,0.088,0.068c0.029,0.021,0.059,0.045,0.087,0.066c0.03,0.023,0.06,0.045,0.089,0.068
			c0.366,0.283,0.735,0.564,1.107,0.84c0.366,0.27,0.736,0.537,1.109,0.797c0.745,0.525,1.504,1.031,2.276,1.52
			c0.772,0.49,1.557,0.963,2.354,1.414c1.992,1.131,4.059,2.148,6.192,3.039c0.427,0.178,0.856,0.352,1.288,0.52
			c0.864,0.336,1.738,0.652,2.622,0.947c0.884,0.297,1.777,0.572,2.68,0.824c1.806,0.506,3.648,0.928,5.521,1.258
			c3.279,0.58,6.654,0.881,10.102,0.881c31.518,0,57.068-25.24,57.068-56.375C168.614,193.734,159.931,177.592,146.446,167.281z
			 M110.653,153.507L110.653,153.507L110.653,153.507c-0.583-0.017-1.167-0.029-1.753-0.029c-0.002,0-0.004,0-0.005,0
			c-6,0-11.781,0.916-17.212,2.612l18.949-20.213c0.016,0.013,0.034,0.023,0.052,0.035c0.029,0.023,0.058,0.046,0.088,0.067
			c0.029,0.024,0.058,0.047,0.088,0.069c0.029,0.022,0.058,0.045,0.088,0.067c0.029,0.022,0.058,0.045,0.088,0.067
			c0.03,0.023,0.058,0.045,0.088,0.067c0.029,0.024,0.058,0.046,0.089,0.067c0.029,0.024,0.058,0.047,0.088,0.069
			c0.029,0.022,0.057,0.045,0.088,0.067c0.029,0.022,0.058,0.045,0.089,0.067c0.029,0.023,0.057,0.045,0.088,0.067
			c0.386,0.307,0.923,0.5,1.524,0.5c0.835,0,1.551-0.37,1.903-0.906l19.863,23.454C127.56,155.947,119.351,153.767,110.653,153.507z
			"/>
		<g>
			<g>
				<g>
					<path fill="#575756" d="M154.415,182.552c-0.003,0-0.005,0-0.009,0H61.76c-0.249,0-0.477-0.106-0.589-0.275
						c-0.114-0.169-0.094-0.373,0.051-0.528l48.674-51.92c0.127-0.136,0.322-0.219,0.554-0.21c0.219,0.003,0.422,0.09,0.541,0.231
						l43.92,51.858c0.104,0.09,0.167,0.208,0.167,0.337C155.078,182.325,154.781,182.552,154.415,182.552z M63.052,181.537h90.133
						l-42.779-50.512L63.052,181.537z"/>
				</g>
				<ellipse fill="#575756" cx="110.221" cy="133.422" rx="2.137" ry="1.637"/>
			</g>
			<g>
				<g>
					<ellipse fill="#F4DE7F" cx="108.676" cy="209.853" rx="57.068" ry="56.376"/>
					<path fill="#DDC252" d="M55.126,209.853c0-30.553,24.605-55.427,55.309-56.346c-0.585-0.017-1.17-0.029-1.759-0.029
						c-31.518,0-57.068,25.24-57.068,56.375c0,31.136,25.55,56.376,57.068,56.376c0.588,0,1.174-0.012,1.759-0.029
						C79.731,265.279,55.126,240.406,55.126,209.853z"/>
				</g>
				<g>
					<g>
						<g>
							<path fill="#B8E3FE" d="M160.31,209.854c0,28.168-23.117,51.006-51.635,51.006c-13.658,0-26.076-5.238-35.308-13.792
								c-3.731-3.456-6.945-7.455-9.504-11.868c-3.209-5.522-5.399-11.693-6.322-18.267c-0.273-1.938-0.437-3.912-0.478-5.913
								c-0.014-0.387-0.018-0.775-0.018-1.166c0-28.171,23.113-51.008,51.63-51.008c12.655,0,24.245,4.497,33.222,11.961
								c1.536,1.273,2.991,2.631,4.358,4.072c4.478,4.684,8.059,10.204,10.482,16.297c1.845,4.625,3.022,9.581,3.423,14.753
								C160.26,207.223,160.31,208.531,160.31,209.854z"/>
						</g>
						<path fill="#A3D6EF" d="M160.194,205.929c-0.4-5.172-1.577-10.127-3.422-14.753c-2.423-6.093-6.005-11.613-10.481-16.297
							c-1.369-1.441-2.823-2.798-4.359-4.072c-1.103-0.917-2.244-1.788-3.423-2.612c1.501,1.25,2.925,2.581,4.264,3.991
							c4.477,4.684,8.059,10.204,10.481,16.298c1.845,4.625,3.022,9.58,3.422,14.752c0.101,1.294,0.15,2.603,0.15,3.926
							c0,28.168-23.118,51.003-51.635,51.003c-11.095,0-21.371-3.455-29.785-9.336c8.989,7.506,20.609,12.031,33.303,12.031
							c28.517,0,51.635-22.838,51.635-51.006C160.344,208.531,160.294,207.223,160.194,205.929z"/>
					</g>
					<g>
						<g>
							<path fill="#D9F5FC" d="M146.255,174.879l-88.715,42.054c-0.273-1.938-0.437-3.912-0.478-5.913l84.834-40.212
								C143.433,172.081,144.888,173.438,146.255,174.879z"/>
						</g>
						<g>
							<path fill="#D9F5FC" d="M160.16,205.929l-86.793,41.139c-3.731-3.456-6.945-7.455-9.504-11.868l92.875-44.023
								C158.582,195.801,159.76,200.757,160.16,205.929z"/>
						</g>
					</g>
				</g>
			</g>
		</g>
	</g>
	<g>
		<path opacity="0.5" fill="#04B2AD" d="M352.607,161.106v-0.067h-0.088v-0.067h-0.09v-0.068h-0.09v-0.068h-0.086v-0.067h-0.09
			V160.7h-0.088v-0.068h-0.088v-0.067H351.9v-0.068h-0.088v-0.067h-0.09v-0.067h-0.088v-0.068h-0.088v-0.067h-0.088v-0.067h-0.09
			v-0.068h-0.09v-0.067h-0.088v-0.068h-0.088v-0.068h-0.088v-0.066h-0.088v-0.068h-0.088v-0.067h-0.09v-0.068h-0.088v-0.068h-0.088
			v-0.067h-0.088v-0.067h-0.09v-0.067h-0.088v-0.068h-0.09v-0.067h-0.088v-0.068h-0.088v-0.067h-9.201l-53.254-17.585
			c-0.164-0.054-0.348-0.056-0.512-0.003l-56.109,17.588h-9.557v59.51h0.09v0.066h0.088v0.068h0.088v0.068h0.088v0.066h0.09v0.068
			h0.088v0.068h0.09v0.067h0.088v0.067h0.088v0.068h0.088v0.066h0.088v0.068h0.088v0.068h0.088v0.066h0.09v0.068h0.086v0.068h0.09
			v0.067h0.09v0.066h0.088v0.068h0.09v0.067h0.088v0.068h0.088v0.068h0.088v0.066h0.09v0.068h0.088v0.067h0.088v0.067h0.088v0.067
			h0.088v0.068h0.09v0.067h0.088v0.068h0.088v0.066h1.365h127.268V162.15v-1.044H352.607z M286.207,145.718
			c0.021,0.018,0.045,0.032,0.066,0.048c0.029,0.023,0.059,0.046,0.088,0.068c0.029,0.023,0.059,0.045,0.088,0.067
			c0.031,0.023,0.059,0.045,0.09,0.067c0.029,0.024,0.057,0.045,0.09,0.067c0.027,0.024,0.057,0.046,0.088,0.068
			c0.027,0.023,0.057,0.046,0.088,0.068c0.027,0.023,0.059,0.045,0.088,0.067c0.027,0.023,0.059,0.045,0.088,0.067
			c0.027,0.024,0.059,0.045,0.088,0.067c0.029,0.024,0.059,0.047,0.09,0.068c0.027,0.023,0.057,0.046,0.088,0.068
			c0.029,0.023,0.059,0.045,0.088,0.067c0.029,0.023,0.059,0.045,0.088,0.067c0.029,0.024,0.059,0.046,0.088,0.067
			c0.031,0.024,0.059,0.047,0.09,0.068c0.029,0.023,0.059,0.046,0.088,0.068c0.029,0.022,0.059,0.045,0.09,0.067
			c0.027,0.024,0.057,0.045,0.088,0.067c0.029,0.024,0.059,0.046,0.088,0.068c0.027,0.023,0.059,0.045,0.088,0.068
			c0.029,0.022,0.059,0.045,0.09,0.067c0.027,0.022,0.057,0.045,0.086,0.067c0.031,0.024,0.059,0.045,0.09,0.067
			c0.029,0.024,0.057,0.046,0.088,0.068c0.391,0.316,0.939,0.517,1.553,0.517c1.18,0,2.137-0.733,2.137-1.637
			c0-0.484-0.277-0.918-0.715-1.217c-0.027-0.022-0.057-0.046-0.088-0.068c-0.012-0.009-0.023-0.018-0.035-0.027l42.75,14.117h-90.4
			L286.207,145.718z"/>
		<g>
			<g>
				<g>
					<path fill="#575756" d="M346.639,162.127c-0.002,0-0.006,0-0.01,0h-122.27c-0.316,0-0.588-0.172-0.65-0.41
						c-0.061-0.238,0.105-0.476,0.4-0.568l62.725-19.663c0.164-0.052,0.35-0.05,0.514,0.003l59.486,19.645
						c0.271,0.064,0.467,0.256,0.467,0.484C347.301,161.9,347.004,162.127,346.639,162.127z M227.729,161.112h115.689l-56.34-18.604
						L227.729,161.112z"/>
				</g>
				<ellipse fill="#575756" cx="287.053" cy="144.24" rx="2.137" ry="1.637"/>
			</g>
			<g>
				<g>
					<rect x="221.17" y="159.076" fill="#774A2B" width="128.633" height="59.51"/>
					<polygon fill="#59392C" points="349.803,160.12 349.803,159.076 221.17,159.076 221.17,218.586 222.533,218.586 
						222.533,160.12 					"/>
				</g>
				<g>
					<g>
						<rect x="228.609" y="164.752" fill="#B8E3FE" width="114.395" height="48.157"/>
						<polygon fill="#A3D6EF" points="339.191,164.752 339.191,210.125 228.74,210.125 228.74,212.909 343.131,212.909 
							343.131,164.752 						"/>
					</g>
					<g>
						<polygon fill="#D9F5FC" points="285.936,164.752 228.609,193.626 228.609,179.911 259.754,164.752 						"/>
						<polygon fill="#D9F5FC" points="343.004,164.752 343.004,169.548 261.047,212.909 235.113,212.909 326.016,164.752 						"/>
					</g>
				</g>
			</g>
		</g>
	</g>
</g>
<g>
	<path opacity="0.5" fill="#04B2AD" d="M246.066,247.531c0-0.705-1.176-1.27-1.846-1.732c-0.59-0.406-1.178-0.813-1.766-1.219
		c-0.605-0.418-1.186-0.885-1.84-1.268c-0.189-0.11-0.303-0.117-0.385-0.271c-0.072-0.137-0.088-0.299-0.133-0.441
		c-0.117-0.364-0.252-0.726-0.402-1.084c-0.27-0.64-0.592-1.268-0.965-1.88c-1.332-2.188-3.307-4.112-5.73-5.788
		c-1.184-0.817-2.369-1.636-3.553-2.453c-1.023-0.707-2.033-1.416-3.168-2.042c-1.441-0.798-3.012-1.485-4.67-2.049
		c-3.355-1.138-7.107-1.745-10.801-1.784c-6.398-0.065-12.684,1.578-17.417,4.549c-4.667,2.928-7.633,7.023-8.204,11.361
		c-0.07,0.533-0.104,1.069-0.104,1.604c-1.042,0-2.083,0-3.124,0c-0.818,0-1.627,0.027-2.057,0.603
		c-0.268,0.357-0.182,0.793-0.165,1.182c0.02,0.443,0.06,0.885,0.12,1.324c0.457,3.367,2.1,6.637,4.753,9.477
		c1.931,2.068,4.455,3.748,6.956,5.477c0.784,0.541,1.564,1.084,2.352,1.623c1.73,1.186,3.705,2.215,5.799,3.074
		c2.208,0.9,4.578,1.613,7.041,2.109c0.314,0.063,0.633,0.121,0.951,0.178c0.287,0.051,0.701,0.064,0.961,0.16
		c0.361,0.131,0.1-0.035,0.162,0.064c0.051,0.088,0,0.275,0,0.367c0,1.418,0,2.834,0,4.254c0,3.797,0,7.594,0,11.393
		c0,0.225,0,0.451,0,0.678c0,0.082,0.061,0.303,0,0.379c-0.094,0.117-0.605,0.051-0.824,0.051c-1.162,0-2.328,0.061-3.488,0.123
		c-2.58,0.139-5.158,0.373-7.683,0.773c-1.83,0.287-3.699,0.65-5.356,1.275c-0.883,0.332-2.009,0.84-2.188,1.588
		c-0.058,0.244,0.162,0.27,0.299,0.385c0.116,0.098,0.275,0.174,0.392,0.271c0.466,0.393,1.102,0.689,1.568,1.082
		c0.454,0.383,1.036,0.734,1.542,1.084c0.261,0.182,0.527,0.355,0.782,0.541c0.057,0.041,0.245,0.188,0.306,0.203
		c0.064,0.016,0.185,0,0.251,0c3.708,0,7.416,0,11.125,0c6.047,0,12.094,0,18.141,0c4.07,0,8.141,0,12.211,0
		c0.201,0,0.404,0,0.607,0c0-0.643-0.781-1.072-1.385-1.488c-0.375-0.26-0.75-0.518-1.127-0.779
		c-0.76-0.523-1.518-1.049-2.277-1.572c-0.934-0.645-1.818-1.174-3.031-1.561c-1.891-0.602-3.953-0.953-5.988-1.225
		c-1.295-0.174-2.598-0.307-3.906-0.414c-0.305-0.025-0.607-0.049-0.912-0.068c-0.129-0.01-0.875-0.002-0.934-0.063
		c-0.014-0.014,0.01-0.045,0-0.061c-0.059-0.084,0-0.283,0-0.379c0-0.229,0-0.457,0-0.688c0-1.633,0-3.266,0-4.9
		c0-3.449,0-6.898,0-10.348c0-0.109-0.057-0.303,0-0.41c0.01-0.016-0.018-0.057,0-0.072c0.088-0.078,0.922-0.047,1.096-0.059
		c2.055-0.123,4.094-0.393,6.072-0.799c3.842-0.793,7.447-2.113,10.561-3.861c6.285-3.527,10.391-8.721,11.219-14.287
		C246.012,248.992,246.066,248.262,246.066,247.531z"/>
	<g>
		<g>
			<g>
				<g>
					<g>
						<path fill="#F4DE7F" d="M211.734,285.51v-20.174c16.195-0.578,29.109-9.865,29.109-21.188c0-0.616-0.721-1.114-1.611-1.114
							h-4.898l0.191,2.228h3.049c-0.838,9.957-12.83,17.877-27.453,17.877c-14.617,0-26.614-7.92-27.45-17.877h3.048l0.191-2.228
							h-4.897c-0.892,0-1.612,0.498-1.612,1.114c0,11.322,12.915,20.609,29.109,21.188v20.174H211.734z"/>
					</g>
					<path fill="#DDC252" d="M231.295,289.367h-42.346c0-2.018,8.006-3.684,18.371-3.941h5.604
						C223.289,285.684,231.295,287.35,231.295,289.367z"/>
				</g>
				<path fill="#DDC252" d="M180.744,244.148c0-0.616,0.72-1.114,1.613-1.114h-1.344c-0.892,0-1.612,0.498-1.612,1.114
					c0,11.322,12.915,20.609,29.109,21.188v20.174h1.344v-20.174C193.658,264.758,180.744,255.471,180.744,244.148z"/>
			</g>
		</g>
		<g>
			<g>
				<g>
					<ellipse fill="#C44E7C" cx="210.122" cy="243.035" rx="25.362" ry="17.518"/>
					<path fill="#B2366E" d="M187.29,243.034c0-9.382,10.677-17.04,24.097-17.495c-0.42-0.014-0.84-0.021-1.266-0.021
						c-14.007,0-25.361,7.842-25.361,17.517c0,9.673,11.354,17.519,25.361,17.519c0.426,0,0.846-0.01,1.266-0.023
						C197.967,260.074,187.29,252.416,187.29,243.034z"/>
				</g>
				<g>
					<g>
						<path fill="#B8E3FE" d="M231.33,243.034c0,0.79-0.086,1.567-0.266,2.325c-1.613,6.986-10.371,12.322-20.943,12.322
							c-1.098,0-2.176-0.055-3.229-0.17c-2.561-0.268-4.969-0.854-7.14-1.693c-0.182-0.072-0.363-0.145-0.539-0.217
							c-2.208-0.92-4.152-2.102-5.744-3.494c-0.72-0.629-1.371-1.303-1.936-2.008c-0.58-0.729-1.073-1.494-1.471-2.291
							c-0.228-0.459-0.424-0.926-0.584-1.4c-0.233-0.688-0.399-1.387-0.484-2.107c-0.055-0.418-0.086-0.838-0.086-1.267
							c0-8.091,9.499-14.65,21.213-14.65c0.564,0,1.119,0.014,1.668,0.044c1.955,0.105,3.836,0.395,5.6,0.84
							c2.938,0.738,5.572,1.914,7.738,3.413c0.479,0.331,0.938,0.679,1.361,1.041c0.676,0.561,1.289,1.159,1.834,1.784
							c0.756,0.868,1.381,1.794,1.859,2.761c0.297,0.589,0.535,1.19,0.715,1.806C231.186,241.03,231.33,242.021,231.33,243.034z"/>
						<path fill="#A3D6EF" d="M230.896,240.075c-0.482-1.64-1.365-3.178-2.576-4.567c-0.895-1.032-1.969-1.981-3.191-2.828
							c-0.254-0.175-0.516-0.346-0.783-0.513c0.969,0.729,1.838,1.522,2.578,2.376c1.211,1.391,2.094,2.928,2.576,4.566
							c0.287,0.955,0.436,1.946,0.436,2.96c0,0.79-0.088,1.567-0.268,2.325c-1.611,6.986-10.373,12.324-20.943,12.324
							c-3.99,0-7.721-0.76-10.908-2.082c-1.209-0.502-2.335-1.088-3.373-1.74c1.39,1.053,2.993,1.965,4.77,2.705
							c3.185,1.322,6.919,2.082,10.908,2.082c10.572,0,19.332-5.338,20.943-12.324c0.178-0.758,0.27-1.535,0.27-2.325
							C231.334,242.021,231.186,241.028,230.896,240.075z"/>
					</g>
					<g>
						<g>
							<path fill="#D9F5FC" d="M217.389,229.268L191.534,250.1c-0.58-0.729-1.073-1.494-1.471-2.291
								c-0.228-0.459-0.424-0.926-0.584-1.4l22.311-17.98C213.744,228.533,215.625,228.822,217.389,229.268z"/>
						</g>
						<g>
							<path fill="#D9F5FC" d="M230.182,238.267l-23.289,19.245c-2.561-0.268-4.969-0.854-7.14-1.693l26.736-22.097
								c0.676,0.561,1.289,1.159,1.834,1.784C229.078,236.374,229.703,237.3,230.182,238.267z"/>
						</g>
					</g>
				</g>
			</g>
		</g>
	</g>
</g>
</svg>
