<?xml version="1.0" encoding="utf-8"?>
<!-- Generator: Adobe Illustrator 16.0.0, SVG Export Plug-In . SVG Version: 6.00 Build 0)  -->
<!DOCTYPE svg PUBLIC "-//W3C//DTD SVG 1.1//EN" "http://www.w3.org/Graphics/SVG/1.1/DTD/svg11.dtd">
<svg version="1.1" id="Capa_1" xmlns="http://www.w3.org/2000/svg" xmlns:xlink="http://www.w3.org/1999/xlink" x="0px" y="0px"
	 width="400px" height="400px" viewBox="0 0 400 400" enable-background="new 0 0 400 400" xml:space="preserve">
<path fill="#8CC63F" d="M140.737,257.837c40.931-5.287,101.117-4.328,141.037,5.861s26.036,18.086,0.186,19.367
	c-25.85,1.279-39,4.682-75.179,6.428c-32.166,1.553-80.119-2.836-87.191-4.637c-10.886-2.77,0.489-9.947-11.861-9.947
	C82.405,274.909,99.805,263.122,140.737,257.837z"/>
<g>
	<path fill="#6FA329" d="M261.374,263.759c-3.114-1.217-7.454-0.174-10.663,0.432c-1.416,0.35-8.305,2.52-4.625,3.908
		c2.36,0.869,5.475,0.521,7.834,0.521c3.02,0,5.284,0.348,8.115,1.043c2.736,0.607,5.757,0.346,8.494,0.346
		c3.113,0,6.227,0,9.248-0.174c1.604-0.172,3.209-0.26,4.717-0.605c1.227-0.176,3.209-0.35,2.076-1.564
		c-1.037-1.129-4.436-1.563-5.756-1.824c-1.697-0.346-3.492-0.52-5.191-0.867c-2.264-0.434-4.435-1.129-6.793-1.303
		c-3.113-0.086-6.417,0-9.531,0.348"/>
</g>
<g>
	<path fill="#8C1418" d="M144.736,246.116c-0.53-2.539,9.949-1.021,12.446,1.742c0.499,3.51-3.663,4.244-3.663,4.244
		S144.972,248.214,144.736,246.116z"/>
	<path fill="#FFC099" d="M156.144,236.011c1.491,6.223,2.153,10.363-0.315,13.656c-2.469,3.293-4.344,10.268-2.809,13.52
		c1.536,3.248-5.377-1.002-7.095-4.975c-1.718-3.973-1.068-6.521,0.622-9.031c1.69-2.512,2.615-4.326,0.974-10.83
		C145.879,231.849,156.144,236.011,156.144,236.011z"/>
	<g opacity="0.4">
		<path fill="#BA7B54" d="M157.288,241.722c-0.224-1.693-0.632-3.578-1.144-5.711c0,0-2.048-0.83-4.168-1.17
			c-1.63,0.533-3.261,1.588-4.589,2.801c0.029,0.223,0.069,0.455,0.134,0.709c1.642,6.504,0.717,8.318-0.974,10.83
			c-0.479,0.711-0.871,1.428-1.153,2.176c1.186,1.506,2.692,2.91,3.035,3.148c0.566,0.391,9.626-5.275,4.671-4.299
			s-2.124-3.516-1.274-6.252C152.665,241.257,155.91,239.517,157.288,241.722z"/>
	</g>
	<path fill="#C1272D" d="M144.823,245.501c-0.127,2.645,7.441,5.891,12.101,3.498c0.575-0.531,0.075-1.381,0.075-1.381
		c1.274,0.586,1.035,2.105,0.263,3.26c-0.771,1.156-4.497,8.26-3.416,11.443c1.08,3.186-4.042,3.059-6.727,0.371
		c-3.449-3.453-2.601-6.291-2.795-8.68C144.128,251.626,144.37,246.433,144.823,245.501z"/>
	<path opacity="0.5" fill="#8C1418" d="M148.121,248.765c-1.966-0.863-3.353-2.117-3.298-3.264c-0.453,0.932-0.694,6.125-0.5,8.512
		c0.194,2.389-0.653,5.227,2.795,8.68c0.709,0.709,1.588,1.238,2.479,1.578C145.815,260.751,147.268,251.304,148.121,248.765z"/>
	<path fill="#8C1418" d="M131.797,247.765c-0.885-2.453,9.72-2.203,12.586,0.238c0.991,3.418-3.032,4.646-3.032,4.646
		S132.328,249.815,131.797,247.765z"/>
	<path fill="#FFC099" d="M142.39,238.528c2.359,5.99,2.854,7.705,0.873,11.266s-2.854,10.701-0.873,13.74
		c1.982,3.039-5.473-0.348-7.738-4.08c-2.265-3.734-1.982-6.338-0.66-9.031c1.321-2.691,1.981-4.602-0.566-10.852
		C130.876,233.319,142.39,238.528,142.39,238.528z"/>
	<g opacity="0.4">
		<path fill="#BA7B54" d="M142.39,238.528c0,0-11.513-5.209-8.965,1.043c2.548,6.25,1.887,8.16,0.566,10.852
			c-0.754,1.535-1.167,3.045-0.965,4.75c0.824,0.402,1.611,0.311,2.168-0.732c1.769-3.322,3.539-5.537,3.114-8.727
			c-0.416-3.121,3.751-4.299,5.616-2.998C143.569,241.567,143.057,240.222,142.39,238.528z"/>
	</g>
	<path fill="#FFC099" d="M148.778,204.288c3.634-3.654,7.787-9.852,7.852-16.574c-0.461-0.201-0.271-2.137-1.526-2.822
		c-0.336-1.205,1.767-1.03,2.442,0.063c0.038-2.441,2.261-5.969,2.138-0.949c0.12-1.927,2.39-4.274,1.955,0.59
		c0.412-3.677,1.933-1.777,1.624,0.306c0.639-2.259,2.531-0.278,1.279,3.511c-1.252,3.791-5.942,21.395-13.269,25.223
		C146.591,214.337,146.593,209.392,148.778,204.288z"/>
	<g opacity="0.4">
		<path fill="#BA7B54" d="M148.778,204.288c3.634-3.654,7.787-9.852,7.852-16.574c-0.461-0.201-0.271-2.137-1.526-2.822
			c-0.336-1.205,1.767-1.03,2.442,0.063c0.038-2.441,2.261-5.969,2.138-0.949c0.12-1.927,2.39-4.274,1.955,0.59
			c0.412-3.677,1.933-1.777,1.624,0.306c0.639-2.259,2.531-0.278,1.279,3.511c-1.252,3.791-5.942,21.395-13.269,25.223
			C146.591,214.337,146.593,209.392,148.778,204.288z"/>
	</g>
	<path fill="#FFFFFF" d="M132.009,216.647c0.236,1.129,0.086,5.58,1.557,5.557c6.147-0.092,19.399-5.541,19.818-7.293
		c0.519-2.17,4.671-6.729,5.662-9.768s-2.448-5.818-6.365-5.602c-3.869,1.867-1.987,3.908-4.818,5.014
		c-1.269,0.283-1.416,0.109-6.229,0.457c-1.741,0.125-7.313,0.738-7.88,0.477"/>
	<g opacity="0.5">
		<path fill="#B3B3B3" d="M135.406,207.097c2.053,0.455,4.035-0.131,6.299-0.521c1.239-0.213,0.55-0.934-0.328-1.543
			c-1.968,0.158-7.082,0.707-7.623,0.457l-0.11,0.707C134.28,206.644,134.887,206.981,135.406,207.097z"/>
	</g>
	<g>
		<g opacity="0.5">
			<path fill="#B3B3B3" d="M133.566,222.204c0.417-0.006,0.869-0.037,1.345-0.092c0.131-1.277,0.365-4.336-0.07-6.939
				c-0.808-0.195-1.629-0.574-2.435-1.057l-0.396,2.531C132.246,217.776,132.095,222.228,133.566,222.204z"/>
		</g>
		<g opacity="0.5">
			<path fill="#B3B3B3" d="M157.792,201.206c-0.535,2.842-2.711,6.008-5.4,8.234c0,0,0.433,2.883,0.836,5.75
				c0.077-0.1,0.135-0.195,0.155-0.279c0.519-2.17,4.671-6.729,5.662-9.768C159.529,203.663,158.955,202.247,157.792,201.206z"/>
		</g>
		<g opacity="0.5">
			<path fill="#B3B3B3" d="M149.845,205.534c2.682-0.916,4.741-4.41,5.421-5.691c-0.805-0.234-1.681-0.35-2.585-0.301
				c-3.869,1.867-1.987,3.908-4.818,5.014c-0.798,0.18-1.154,0.176-2.505,0.236C146.291,205.524,147.881,206.204,149.845,205.534z"
				/>
		</g>
	</g>
	<path fill="#0071BC" d="M154.586,222.79c-0.754-3.928-0.483-16.574-5.343-18.787c-0.46-0.209-0.991,0.521-1.84,0.586
		c2.974,1.742,3.787,6.023,3.716,6.807c-0.283,0.584-6.299,2.539-11.82,1.691c-0.324-3.334-1.556-6.316-3.681-7.619
		c-0.663,0.094-1.679-0.209-2.1-0.109c5.804,5.037,3.963,17.67-1.462,14.59c0,0,0.047,2.441-0.425,4.123
		c-0.666,2.377-7.739,6.816-9.059,9.594c15.854,14.414,36.237,5.473,38.721-0.693C161.736,232.271,160.164,227.345,154.586,222.79z"
		/>
	<path fill="#FFC099" d="M147.533,202.019c0,0-0.566,1.822-0.613,3.992c-2.5,3.82-8.352,0.088-8.682-0.391
		c-0.33-0.477,0.048-3.082,0.095-4.602C138.332,201.019,143.711,202.798,147.533,202.019z"/>
	<g opacity="0.4">
		<path fill="#BA7B54" d="M147.533,202.019c0,0-0.566,1.822-0.613,3.992c-2.5,3.82-8.352,0.088-8.682-0.391
			c-0.33-0.477,0.048-3.082,0.095-4.602C138.332,201.019,143.711,202.798,147.533,202.019z"/>
	</g>
	<path fill="#FFC099" d="M135.347,170.952c10.163-2.474,20.803,0.883,21.896,14.661c5.21,2.488,8.297,9.93-4.286,15.363
		s-28.354,2.926-29.381-15.693C123.596,177.965,127.987,172.735,135.347,170.952z"/>
	<g opacity="0.4">
		<path fill="#BA7B54" d="M139.511,202.864c-8.139-0.588-9.908-8.727-8.635-15.76l-2.335-4.234c0,0-3.468,0.652-4.105,1.173
			c-0.167,0.137-0.476,0.414-0.84,0.758c-0.005,0.161-0.019,0.318-0.02,0.481c1.027,18.619,16.798,21.127,29.381,15.693
			c2.028-0.875,3.643-1.805,4.914-2.754C152.443,201.466,146.411,203.36,139.511,202.864z"/>
	</g>
	<path fill="#7A1015" d="M153.417,192.731c-1.345,0.092-8.1,4.113-9.458,2.832c5.106,6.615,9.405,3.6,9.29,0.838
		C153.152,194.079,153.469,193.062,153.417,192.731z"/>
	<path fill="#C1272D" d="M145.964,197.731c1.673-1.643,5.429-1.748,7.176-0.453C152.546,199.331,149.628,200.923,145.964,197.731z"
		/>
	<g>
		<g>
			<g>
				<path d="M143.664,191.165c-0.183,0.234-0.73,0.039-1.467-0.145c-0.363-0.113-0.774-0.154-1.153-0.158
					c-0.375,0.035-0.7,0.146-1.061,0.41c-0.361,0.26-0.69,0.66-0.982,1.057c-0.151,0.215-0.295,0.422-0.43,0.613
					c-0.08,0.125-0.208,0.301-0.353,0.455c-0.147,0.139-0.286,0.271-0.449,0.338c-0.637,0.361-1.223-0.004-1.431-0.258
					c-0.213-0.285-0.224-0.479-0.134-0.574c0.186-0.205,0.743-0.021,0.861-0.428c0.014-0.039,0.017-0.082,0.019-0.115
					c-0.003-0.027-0.008-0.061,0.024-0.16c0.078-0.232,0.183-0.512,0.322-0.795c0.281-0.566,0.681-1.203,1.37-1.719
					c0.679-0.525,1.615-0.754,2.366-0.643c0.737,0.133,1.304,0.422,1.676,0.736c0.394,0.299,0.625,0.609,0.753,0.855
					C143.727,190.88,143.75,191.06,143.664,191.165z"/>
			</g>
		</g>
	</g>
	<g>
		<g>
			<g>
				<path d="M152.235,187.983c-0.241-0.102-0.3-0.652-0.065-1.477c0.118-0.41,0.312-0.891,0.665-1.4
					c0.167-0.256,0.403-0.516,0.693-0.766c0.156-0.121,0.346-0.233,0.529-0.342c0.226-0.081,0.437-0.188,0.703-0.21
					c0.52-0.098,1.058,0.065,1.438,0.282c0.398,0.224,0.653,0.515,0.863,0.799c0.098,0.135,0.197,0.305,0.283,0.482
					c0.035,0.076,0.045,0.121,0.068,0.182l0.007,0.021l0.002,0.004l0.001,0.004h0c-0.45,0.297-0.125,0.082-0.226,0.148h-0.008
					l-0.035,0.008c-0.023,0.008-0.047,0.021-0.069,0.041c-0.017,0.01-0.054,0.064-0.046,0.057c0.007-0.01,0.01-0.02,0.01-0.025
					s-0.002-0.01-0.005-0.008c0-0.006,0.013-0.055,0.012-0.078c0.004-0.061-0.021-0.086-0.034-0.146
					c-0.005-0.029-0.017-0.066-0.023-0.082l0.01,0.016c0.12,0.059,0.325-0.094,0.479-0.205c0.126-0.131,0.275-0.25,0.41-0.253
					s0.259,0.119,0.341,0.423c0.02,0.287,0.024,0.813-0.564,1.266c-0.157,0.104-0.336,0.211-0.635,0.229
					c-0.235,0.047-0.692-0.105-0.882-0.336c-0.463-0.588-0.32-0.426-0.506-0.592c-0.266-0.244-0.504-0.313-0.612-0.277
					c-0.144-0.012-0.511,0.219-0.802,0.525c-0.305,0.291-0.588,0.619-0.836,0.9C152.898,187.733,152.496,188.095,152.235,187.983z"
					/>
			</g>
		</g>
	</g>
	<g>
		<g>
			<g>
				<path fill="#511D00" d="M151.584,177.887c-0.461-0.296,0.648-1.284,2.003-0.945c0.668,0.157,1.159,0.556,1.395,0.899
					c0.243,0.349,0.272,0.638,0.144,0.76c-0.282,0.251-1.027-0.198-1.837-0.375C152.475,178.033,151.7,178.103,151.584,177.887z"/>
			</g>
		</g>
	</g>
	<path fill="#511D00" d="M128.072,171.807c1.665-10.97-10.618-10.453-14.646-8.396s-8.819-0.512-8.07-2.118
		c-8.699,10.383,8.007,26.271,22.404,14.103C130.027,173.186,128.072,171.807,128.072,171.807z"/>
	<g opacity="0.5">
		<path fill="#290F00" d="M127.759,175.395c2.268-2.209,0.313-3.588,0.313-3.588c0.371-2.443,0.047-4.315-0.721-5.728
			c-0.72,2.118-2.749,5.059-8.553,7.806c-9.257,4.381-16.361-4.742-14.791-10.573C98.752,173.567,114.27,186.796,127.759,175.395z"
			/>
	</g>
	<path fill="#F7931E" d="M123.592,176.535c-2.82-1.393,0.473-6.757,3.633-4.021c0.566,4.136-3.331,4.194-3.331,4.194"/>
	<path fill="#511D00" d="M124.093,192.005c-4.288-3.945-6.049-12.993,2.525-19.857c5.081-4.069,26.247-6.902,24.331,0.747
		c-0.884-0.567-3.634-2.057-6.979,0.013c-3.349-1.455-0.828,7.128-3.742,10.661c-2.914,3.534-10.999,3.831-11.12,8.967
		C129.049,195.067,127.32,194.927,124.093,192.005z"/>
	<g opacity="0.5">
		<path fill="#290F00" d="M140.228,183.569c2.914-3.533,0.393-12.116,3.742-10.661c-0.778-3.321-3.256-2.865-3.68,0.912
			c-0.425,3.776,1.344,9.139-7.856,13.046c-7.615,3.232-11.997-4.451-9.846-10.286c-3.709,5.927-1.903,12.288,1.505,15.424
			c3.227,2.922,4.956,3.063,5.015,0.531C129.229,187.399,137.314,187.103,140.228,183.569z"/>
	</g>
	<path fill="#C1272D" d="M131.797,247.146c0.248,2.637,8.21,4.949,12.492,2.02c0.495-0.598,0.005-1.221,0.005-1.221
		c0.973,0.26,1.198,1.807,0.596,3.043c-0.602,1.238-3.292,8.727-1.77,11.756c1.522,3.027-3.574,3.516-6.618,1.172
		c-3.907-3.012-3.468-5.926-3.999-8.271C131.974,253.3,131.479,248.122,131.797,247.146z"/>
	<path fill="#FFC099" d="M127.807,194.528c-3.75-5.189-8.083-0.672-5.165,3.061c2.917,3.73,6.796,1.582,6.739,0.02"/>
	<g opacity="0.4">
		<path fill="#BA7B54" d="M127.807,194.528c-3.75-5.189-8.083-0.672-5.165,3.061c2.917,3.73,6.796,1.582,6.739,0.02"/>
	</g>
	<g>
		<g>
			<g>
				<path fill="#BA7B54" d="M150.61,190.806c-0.162,0.105-0.431-0.061-0.755-0.238c-0.154-0.105-0.341-0.156-0.45-0.174
					c-0.1,0.018-0.123,0.023-0.285,0.135c-0.314,0.238-0.652,0.711-0.909,1.014c-0.264,0.314-0.487,0.518-0.665,0.469
					c-0.172-0.049-0.264-0.361-0.192-0.836c0.09-0.465,0.264-1.119,0.98-1.705c0.352-0.299,1-0.434,1.445-0.23
					c0.416,0.195,0.644,0.469,0.758,0.695C150.789,190.392,150.751,190.718,150.61,190.806z"/>
			</g>
		</g>
	</g>
	<g>
		<g>
			<g>
				<path fill="#290F00" d="M135.002,182.845c0.119,0.354-0.507,0.868-0.986,1.587c-0.503,0.683-0.804,1.448-1.197,1.436
					c-0.181-0.014-0.308-0.252-0.35-0.672c-0.038-0.212,0.004-0.455,0.085-0.723c0.059-0.277,0.203-0.551,0.395-0.815
					c0.375-0.533,0.895-0.847,1.298-0.949C134.646,182.594,134.951,182.675,135.002,182.845z"/>
			</g>
		</g>
	</g>
	<path fill="#FFC099" d="M130.984,204.06c-3.645-3.645-8.055-8.775-8.138-15.498c0.461-0.201,0.266-2.137,1.519-2.824
		c0.333-1.206-1.769-1.026-2.442,0.068c-0.044-2.441-2.195-5.87-2.058-0.85c-0.125-1.925-2.483-4.363-2.036,0.5
		c-0.89-3.843-2.871-1.89-1.622,0.309c-1.815-2.069-2.532-0.271-1.271,3.516c1.262,3.789,4.519,18.043,11.855,21.852
		C131.474,211.825,133.183,209.157,130.984,204.06z"/>
	<g opacity="0.4">
		<path fill="#BA7B54" d="M115.048,184.908c-0.892-0.162-1.05,1.552-0.111,4.373c1.262,3.789,4.519,18.043,11.855,21.852
			c0.007,0.002,0.013,0.002,0.021,0.004c0.622-0.184,1.093-0.566,1.304-1.238C120.853,206.183,115.445,190.128,115.048,184.908z"/>
	</g>
	<path fill="#FFFFFF" d="M132.009,216.647c-0.85-1.801-5.167-3.625-8.989-8.314c2.477,1.629,7.467-3.146,5.627-6.838
		c1.416,0.555,4.653,3.529,5.037,3.994C134.31,206.249,136.751,217.767,132.009,216.647z"/>
	<g>
		<g>
			<g>
				<path fill="#BA7B54" d="M121.922,185.806c0.049,0.377-0.664,0.771-1.391,1.391c-0.797,0.59-1.167,1.102-1.544,1.111
					c-0.09-0.01-0.163-0.076-0.209-0.213c-0.051-0.139-0.064-0.344-0.004-0.559c0.094-0.457,0.432-0.971,0.933-1.367
					c0.492-0.414,1.069-0.592,1.484-0.637C121.627,185.522,121.89,185.628,121.922,185.806z"/>
			</g>
		</g>
	</g>
	
		<linearGradient id="SVGID_1_" gradientUnits="userSpaceOnUse" x1="205.8604" y1="209.5547" x2="215.2637" y2="209.5547" gradientTransform="matrix(0.9933 -0.1153 0.1153 0.9933 -94.9688 14.4976)">
		<stop  offset="0.0306" style="stop-color:#C1272D;stop-opacity:0.3"/>
		<stop  offset="0.4949" style="stop-color:#C1272D;stop-opacity:0.3"/>
	</linearGradient>
	<path fill="url(#SVGID_1_)" d="M143.019,197.87c0.234,1.859-1.669,3.588-4.251,3.865c-2.582,0.275-4.865-1.008-5.1-2.865
		c-0.234-1.857,1.669-3.588,4.251-3.863S142.785,196.013,143.019,197.87z"/>
	<linearGradient id="SVGID_2_" gradientUnits="userSpaceOnUse" x1="154.4878" y1="191.4692" x2="161.7749" y2="191.4692">
		<stop  offset="0.0306" style="stop-color:#C1272D;stop-opacity:0.3"/>
		<stop  offset="0.4949" style="stop-color:#C1272D;stop-opacity:0.3"/>
	</linearGradient>
	<path fill="url(#SVGID_2_)" d="M157.021,188.577c-2.218,1.246-3.157,3.553-2.097,5.146c1.059,1.598,3.716,1.881,5.935,0.635
		c0.175-0.1,0.338-0.205,0.497-0.316c0.918-2.332,0.246-4.549-1.205-6.232C159.145,187.761,158.038,188.007,157.021,188.577z"/>
	<g>
		<g>
			<g>
				<path fill="#004A7A" d="M154.445,222.53c0.033,0.059-0.229,0.258-0.74,0.57c-0.499,0.34-1.285,0.697-2.278,1.104
					c-0.5,0.189-1.065,0.352-1.666,0.543c-0.606,0.17-1.267,0.301-1.958,0.455c-1.396,0.223-2.946,0.424-4.577,0.422
					c-3.264,0.055-6.192-0.441-8.25-0.98c-2.067-0.535-3.247-1.211-3.18-1.332c0.062-0.121,1.271,0.299,3.331,0.65
					c2.049,0.354,4.917,0.727,8.085,0.672c1.585,0.004,3.083-0.164,4.441-0.33c0.671-0.127,1.316-0.223,1.91-0.352
					c0.587-0.152,1.145-0.27,1.643-0.41c0.988-0.311,1.793-0.561,2.332-0.787C154.088,222.554,154.413,222.47,154.445,222.53z"/>
			</g>
		</g>
	</g>
	<g>
		<g>
			<g>
				<path fill="#004A7A" d="M134.416,220.337c0.136-0.004,0.297,1.045,0.448,2.748c0.018,0.213,0.036,0.436,0.056,0.668
					c0.009,0.115,0.018,0.234,0.027,0.355c0.003,0.064,0.013,0.102,0.011,0.221l-0.026,0.207c-0.038,0.266-0.063,0.545-0.121,0.826
					c-0.086,0.277-0.174,0.561-0.265,0.852c-0.452,1.146-1.336,2.17-2.31,3.064c-0.98,0.9-1.949,1.658-2.75,2.412
					c-0.816,0.74-1.437,1.494-1.882,2.18c-0.881,1.381-1.086,2.438-1.257,2.4c-0.094-0.002-0.146-1.141,0.652-2.75
					c0.401-0.791,1.029-1.668,1.85-2.48c0.808-0.83,1.779-1.625,2.715-2.486c0.935-0.859,1.721-1.746,2.145-2.699
					c0.09-0.242,0.177-0.48,0.262-0.711c0.062-0.236,0.097-0.475,0.147-0.703l0.034-0.16c0.006-0.002,0.002-0.09,0.004-0.145
					c0-0.121,0.001-0.24,0.002-0.355c0.002-0.234,0.005-0.457,0.008-0.67C134.193,221.401,134.279,220.343,134.416,220.337z"/>
			</g>
		</g>
	</g>
	<g>
		<g>
			<g>
				<path fill="#004A7A" d="M141.423,215.952c0.099-0.01,0.233,0.344,0.472,0.912c0.292,0.553,0.791,1.311,1.693,1.914
					c0.885,0.6,2.183,1.02,3.538,0.816c1.349-0.219,2.584-1.234,3.17-2.76c0.114-0.379,0.226-0.752,0.337-1.119l0.05-0.297
					c-0.027-0.047-0.168,0.041-0.254,0.057c-0.331,0.096-0.654,0.189-0.969,0.281c-1.547,0.426-2.972,0.654-4.18,0.717
					c-1.204,0.092-2.194,0-2.864-0.117c-0.674-0.154-1.017-0.322-0.993-0.402c0.024-0.096,0.398-0.102,1.035-0.107
					c0.648-0.045,1.577-0.094,2.718-0.299c1.141-0.176,2.49-0.488,3.934-0.953c0.18-0.061,0.362-0.121,0.546-0.182l0.278-0.092
					l0.483-0.193c0.332-0.133,0.667-0.268,1.006-0.404l0.515-0.205l0.26-0.104c0.019-0.004,0.051-0.025,0.059-0.018l-0.009,0.068
					l-0.018,0.139c-0.098,0.746-0.197,1.504-0.298,2.271c-0.122,0.564-0.267,0.951-0.408,1.441
					c-0.679,1.867-2.449,3.307-4.223,3.479c-1.768,0.188-3.293-0.459-4.272-1.271c-0.999-0.828-1.449-1.816-1.617-2.49
					C141.297,216.337,141.342,215.958,141.423,215.952z"/>
			</g>
		</g>
	</g>
	<path fill="#FBB03B" d="M136.681,212.306c0.283-0.172,2.359-0.434,2.76-0.326c0.401,0.109,0.542,1.021,0.354,1.369
		c-0.188,0.346-1.581,0.65-2.454,0.434C136.468,213.563,136.397,212.479,136.681,212.306z"/>
	<path fill="#FBB03B" d="M151.072,210.396c0.203-0.174,1.646-0.455,1.935-0.346c0.288,0.107,0.466,0.779,0.33,1.127
		c-0.135,0.348-1.355,0.652-1.981,0.436C150.729,211.396,150.868,210.569,151.072,210.396z"/>
	<g>
		<g>
			<g>
				<path fill="#B3B3B3" d="M134.7,207.704c0.117-0.049,0.478,0.504,0.883,1.494c0.375,0.988,0.766,2.477,0.548,4.18
					c-0.146,0.842-0.425,1.641-0.874,2.262c-0.451,0.619-1.015,1.053-1.553,1.279c-0.532,0.24-1.059,0.232-1.381,0.107
					c-0.167-0.053-0.272-0.146-0.324-0.232c-0.054-0.076-0.063-0.123-0.039-0.146c0.025-0.023,0.083-0.023,0.156-0.014
					c0.067,0.018,0.157,0.031,0.285,0.016c0.237-0.016,0.602-0.092,0.987-0.355c0.385-0.25,0.784-0.639,1.109-1.158
					c0.324-0.525,0.527-1.188,0.654-1.904c0.188-1.459-0.048-2.846-0.242-3.84C134.692,208.399,134.564,207.759,134.7,207.704z"/>
			</g>
		</g>
	</g>
	<g>
		<g>
			<g>
				<path fill="#004A7A" d="M123.689,233.261c-0.168,0.215-0.394,0.318-0.504,0.229c-0.109-0.088-0.056-0.33,0.119-0.539
					c0.175-0.211,0.401-0.313,0.504-0.229C123.911,232.804,123.858,233.046,123.689,233.261z"/>
			</g>
			<g>
				<path fill="#004A7A" d="M125.333,234.452c-0.151,0.227-0.465,0.279-0.7,0.115s-0.295-0.475-0.134-0.695s0.474-0.273,0.7-0.115
					C125.425,233.913,125.485,234.226,125.333,234.452z"/>
			</g>
			<g>
				<path fill="#004A7A" d="M127.056,235.532c-0.137,0.236-0.446,0.307-0.69,0.16c-0.244-0.148-0.324-0.455-0.179-0.686
					c0.146-0.232,0.455-0.303,0.691-0.16S127.193,235.296,127.056,235.532z"/>
			</g>
			<g>
				<path fill="#004A7A" d="M128.841,236.505c-0.123,0.244-0.427,0.334-0.68,0.201c-0.252-0.133-0.351-0.436-0.22-0.674
					c0.131-0.24,0.436-0.33,0.68-0.201S128.964,236.261,128.841,236.505z"/>
			</g>
			<g>
				<path fill="#004A7A" d="M130.683,237.368c-0.107,0.25-0.406,0.359-0.667,0.242s-0.377-0.414-0.261-0.66
					c0.117-0.246,0.416-0.355,0.667-0.242S130.791,237.116,130.683,237.368z"/>
			</g>
			<g>
				<path fill="#004A7A" d="M132.571,238.114c-0.091,0.256-0.382,0.385-0.649,0.283c-0.267-0.102-0.402-0.389-0.301-0.641
					c0.101-0.256,0.392-0.381,0.649-0.285C132.528,237.569,132.663,237.856,132.571,238.114z"/>
			</g>
			<g>
				<path fill="#004A7A" d="M134.506,238.737c-0.074,0.262-0.356,0.408-0.63,0.324c-0.274-0.082-0.427-0.361-0.343-0.619
					c0.084-0.262,0.367-0.406,0.63-0.326C134.427,238.196,134.581,238.474,134.506,238.737z"/>
			</g>
			<g>
				<path fill="#004A7A" d="M136.48,239.229c-0.056,0.268-0.328,0.432-0.607,0.367s-0.451-0.332-0.385-0.596
					c0.067-0.266,0.339-0.43,0.607-0.367C136.364,238.694,136.537,238.962,136.48,239.229z"/>
			</g>
			<g>
				<path fill="#004A7A" d="M138.485,239.581c-0.037,0.27-0.296,0.453-0.58,0.41c-0.284-0.045-0.474-0.299-0.426-0.568
					c0.048-0.27,0.308-0.451,0.58-0.41C138.331,239.056,138.521,239.31,138.485,239.581z"/>
			</g>
			<g>
				<path fill="#004A7A" d="M140.511,239.784c-0.016,0.273-0.261,0.475-0.547,0.451c-0.287-0.023-0.496-0.262-0.467-0.533
					s0.273-0.475,0.547-0.451C140.318,239.272,140.527,239.511,140.511,239.784z"/>
			</g>
			<g>
				<path fill="#004A7A" d="M142.543,239.835c0.005,0.271-0.224,0.492-0.51,0.49c-0.287-0.002-0.513-0.225-0.505-0.496
					c0.007-0.273,0.236-0.494,0.51-0.492S142.538,239.562,142.543,239.835z"/>
			</g>
			<g>
				<path fill="#004A7A" d="M144.57,239.726c0.026,0.271-0.185,0.51-0.471,0.531c-0.286,0.02-0.529-0.186-0.542-0.457
					c-0.013-0.273,0.197-0.51,0.471-0.529C144.301,239.249,144.544,239.454,144.57,239.726z"/>
			</g>
			<g>
				<path fill="#004A7A" d="M146.584,239.462c0.047,0.268-0.145,0.521-0.428,0.564s-0.542-0.143-0.577-0.412
					c-0.035-0.271,0.157-0.525,0.428-0.566C146.279,239.007,146.537,239.192,146.584,239.462z"/>
			</g>
			<g>
				<path fill="#004A7A" d="M148.574,239.04c0.068,0.264-0.104,0.531-0.384,0.596c-0.279,0.064-0.551-0.1-0.607-0.367
					s0.116-0.533,0.384-0.596S148.506,238.774,148.574,239.04z"/>
			</g>
			<g>
				<path fill="#004A7A" d="M150.527,238.468c0.087,0.258-0.064,0.537-0.338,0.623c-0.274,0.086-0.558-0.057-0.633-0.318
					c-0.076-0.264,0.075-0.543,0.337-0.625C150.156,238.065,150.439,238.208,150.527,238.468z"/>
			</g>
			<g>
				<path fill="#004A7A" d="M152.433,237.753c0.105,0.252-0.025,0.541-0.292,0.646c-0.267,0.105-0.561-0.016-0.655-0.271
					c-0.095-0.256,0.036-0.547,0.292-0.646C152.034,237.38,152.327,237.501,152.433,237.753z"/>
			</g>
			<g>
				<path fill="#004A7A" d="M154.286,236.907c0.123,0.242,0.012,0.541-0.246,0.664c-0.259,0.125-0.56,0.023-0.673-0.225
					c-0.113-0.25-0.002-0.549,0.246-0.668C153.862,236.562,154.163,236.661,154.286,236.907z"/>
			</g>
			<g>
				<path fill="#004A7A" d="M156.072,235.942c0.138,0.234,0.048,0.539-0.201,0.678c-0.249,0.141-0.556,0.059-0.685-0.182
					c-0.129-0.24-0.04-0.545,0.201-0.68S155.934,235.706,156.072,235.942z"/>
			</g>
			<g>
				<path fill="#004A7A" d="M157.8,234.866c0.151,0.227,0.08,0.535-0.161,0.689c-0.24,0.156-0.552,0.092-0.695-0.139
					c-0.144-0.232-0.072-0.543,0.16-0.691C157.336,234.575,157.647,234.638,157.8,234.866z"/>
			</g>
			<g>
				<path fill="#004A7A" d="M159.464,233.69c0.164,0.217,0.109,0.531-0.122,0.699s-0.546,0.123-0.703-0.1
					c-0.157-0.225-0.103-0.537,0.121-0.701C158.985,233.427,159.299,233.472,159.464,233.69z"/>
			</g>
			<g>
				
					<ellipse transform="matrix(0.779 -0.6271 0.6271 0.779 -110.5229 152.1422)" fill="#004A7A" cx="160.549" cy="232.846" rx="0.251" ry="0.495"/>
			</g>
		</g>
	</g>
	<path opacity="0.5" fill="#8C1418" d="M134.897,249.776c-1.749-0.639-3.004-1.609-3.101-2.631
		c-0.318,0.977,0.177,6.154,0.708,8.498c0.531,2.346,0.092,5.26,3.999,8.271c0.331,0.254,0.688,0.475,1.056,0.662
		C134.328,260.733,134.666,252.804,134.897,249.776z"/>
	<g opacity="0.5">
		<path fill="#B3B3B3" d="M132.009,216.647c1.348,0.318,2.114-0.387,2.508-1.572c-3.402-1.012-6.977-4.957-8.429-7.029
			c-1.066,0.65-2.215,0.848-3.067,0.287C126.843,213.022,131.16,214.847,132.009,216.647z"/>
	</g>
	<g opacity="0.5">
		<path fill="#B3B3B3" d="M133.685,205.489c-0.384-0.465-3.622-3.439-5.037-3.994c0.133,0.268,0.227,0.541,0.292,0.818
			c1.057,0.619,3.267,2.98,5.115,4.154C133.91,205.958,133.777,205.603,133.685,205.489z"/>
	</g>
	<g>
		<g>
			<g>
				<path fill="#B3B3B3" d="M147.392,205.315c0.046-0.041,0.237,0.063,0.422,0.385c0.18,0.305,0.335,0.943-0.014,1.59
					c-0.328,0.672-1.035,1.066-1.752,1.471c-0.386,0.166-0.816,0.316-1.265,0.426c-0.46,0.037-0.946,0.168-1.431,0.086
					c-1.974-0.15-3.48-1.066-4.471-1.732c-0.974-0.721-1.499-1.25-1.423-1.355c0.084-0.115,0.752,0.211,1.782,0.756
					c1.042,0.496,2.504,1.225,4.166,1.344c0.417,0.078,0.808-0.041,1.197-0.049c0.375-0.084,0.737-0.189,1.075-0.307
					c0.652-0.316,1.268-0.598,1.523-1c0.29-0.375,0.298-0.795,0.252-1.094C147.404,205.534,147.334,205.362,147.392,205.315z"/>
			</g>
		</g>
	</g>
	<g opacity="0.5">
		<path fill="#290F00" d="M150.316,172.535c0.008-0.006,0.017-0.011,0.024-0.018c-3.468-4.818-5.662-2.279-6.37,0.391
			C146.729,171.201,149.08,171.916,150.316,172.535z"/>
	</g>
</g>
<g>
	<path fill="#FFC099" d="M277.5,201.276c3.645-3.645,8.056-8.775,8.138-15.498c-0.461-0.201-0.265-2.136-1.519-2.824
		c-0.334-1.206,1.77-1.026,2.441,0.067c0.045-2.44,2.196-5.868,2.059-0.85c0.125-1.924,2.482-4.363,2.035,0.501
		c0.89-3.844,2.872-1.89,1.622,0.309c1.815-2.068,2.532-0.271,1.271,3.515c-1.262,3.789-4.518,18.043-11.855,21.854
		C277.01,209.042,275.301,206.374,277.5,201.276z"/>
	<g opacity="0.4">
		<path fill="#BA7B54" d="M293.436,182.125c0.893-0.162,1.052,1.552,0.111,4.372c-1.262,3.789-4.518,18.043-11.855,21.854
			c-0.006,0-0.012,0-0.02,0.002c-0.622-0.184-1.094-0.568-1.305-1.238C287.633,203.399,293.039,187.345,293.436,182.125z"/>
	</g>
	<g>
		<g>
			<g>
				<path fill="#BA7B54" d="M286.561,183.022c0.033-0.177,0.295-0.282,0.732-0.272c0.415,0.045,0.992,0.223,1.484,0.637
					c0.502,0.396,0.839,0.911,0.934,1.368c0.06,0.213,0.046,0.42-0.005,0.559c-0.046,0.137-0.118,0.203-0.208,0.213
					c-0.379-0.01-0.749-0.522-1.545-1.112C287.225,183.793,286.512,183.401,286.561,183.022z"/>
			</g>
		</g>
	</g>
	<path fill="#FFC099" d="M247.852,200.915c-4.409-2.84-9.917-6.979-11.568-13.527c0.402-0.287-0.24-2.139,0.822-3.057
		c0.043-1.244-1.967-0.652-2.368,0.55c-0.614-2.375-3.516-5.298-2.21-0.424c-0.572-1.854-3.443-3.77-1.871,0.892
		c-1.766-3.578-3.246-1.279-1.511,0.623c-2.257-1.661-2.536,0.234-0.419,3.684s8.629,16.727,16.685,18.996
		C250.146,208.401,251.191,205.458,247.852,200.915z"/>
	<g opacity="0.4">
		<path fill="#BA7B54" d="M227.813,185.364c-0.908,0.018-0.662,1.723,0.914,4.291c2.117,3.449,8.629,16.727,16.685,18.996
			c0.008,0,0.014-0.002,0.021-0.002c0.564-0.303,0.936-0.77,0.984-1.469C238.453,204.993,229.421,190.382,227.813,185.364z"/>
	</g>
	<g>
		<g>
			<g>
				<path fill="#BA7B54" d="M234.742,184.958c0.123,0.362-0.482,0.883-1.045,1.629c-0.635,0.729-0.873,1.297-1.238,1.396
					c-0.09,0.012-0.176-0.035-0.253-0.154c-0.081-0.123-0.144-0.318-0.135-0.539c-0.016-0.463,0.198-1.037,0.599-1.529
					c0.388-0.507,0.913-0.798,1.307-0.925C234.398,184.74,234.674,184.791,234.742,184.958z"/>
			</g>
		</g>
	</g>
	<path fill="#300200" d="M249.338,250.983c-0.377-1.389,12.986-1.061,12.574,0.283C261.185,253.642,249.768,254.021,249.338,250.983
		z"/>
	<path fill="#FFC099" d="M250.941,242.085c-0.07,3.906,1.063,9.898,0.637,14.064c5.238,1.76,8.777,0.588,8.777,0.588l0.354-13.871"
		/>
	<g opacity="0.4">
		<path fill="#BA7B54" d="M260.688,243.673c-0.356-0.316-0.782-0.627-1.231-0.908l-8.516-0.68c-0.019,1.104,0.058,2.379,0.168,3.729
			c0.475-1.203,5.973,0.418,6.065,5.838c0.055,3.139,0.142,4.701,0.204,5.465c0.378-0.002,0.723-0.02,1.034-0.047
			c0.61-0.488,1.39-1.143,1.979-1.742L260.688,243.673z"/>
	</g>
	<path fill="#300200" d="M267.016,253.288c-0.595-1.322,13.042-2.725,12.713-1.363C279.25,253.899,268.146,254.978,267.016,253.288z
		"/>
	<path fill="#FFC099" d="M267.43,244.12c0.552,3.875,2.627,9.648,2.869,13.83c5.461,1.031,8.775-0.604,8.775-0.604l-1.857-13.77"/>
	<g opacity="0.4">
		<path fill="#BA7B54" d="M277.217,243.577l-9.787,0.543c0.156,1.098,0.438,2.352,0.762,3.674c1.375-2.293,6.968-4.719,8.953,6.494
			c0.598-0.037,1.077-0.178,1.468-0.373L277.217,243.577z"/>
	</g>
	<path fill="#4F0300" d="M267.139,252.981c-1.141,1.617,2.822,10.873,2.635,11.029c-1.374,3.297-1.439,5.633,2.516,4.873
		c2.222-0.426,4.277-1.781,5.273-2.707c0.244,0.625,2.534,0.182,2.835-1.506c0.3-1.688,0.794-11.158-0.654-12.945
		C280.2,253.382,268.83,255.423,267.139,252.981z"/>
	<path fill="#37457E" d="M250.141,225.239c-0.803,2.172-1.323,15.021-1.322,17.756c3.633,2.91,10.145,3.777,14.014,1.607
		c-0.235-1.953-0.377-4.125-0.377-4.125s1.65,1.129,2.313,3.994c2.642,1.563,10.568,1.605,14.768-2.779
		c-0.377-2.908-1.84-15.02-2.406-17.799C275.053,224.024,257.17,226.976,250.141,225.239z"/>
	<g opacity="0.5">
		<path fill="#1F2B5C" d="M277.129,223.894c-2.076,0.131-19.959,3.082-26.988,1.346c-0.284,0.766-0.531,2.861-0.734,5.369
			c3.555,2.297,17.352,5.668,28.684-0.258C277.713,227.509,277.352,224.983,277.129,223.894z"/>
	</g>
	<g>
		<g>
			<g>
				<path fill="#1F2B5C" d="M278.029,242.757c-0.066-0.008-0.138-0.207-0.207-0.547c-0.034-0.17-0.068-0.373-0.101-0.609
					c-0.054-0.24-0.116-0.516-0.185-0.818c-0.234-1.209-0.637-2.889-1.022-4.752c-0.397-1.863-0.726-3.563-0.901-4.811
					c-0.189-1.24-0.168-2.066-0.036-2.063c0.144,0,0.356,0.713,0.72,1.918c0.349,1.201,0.786,2.877,1.186,4.75
					c0.388,1.877,0.685,3.59,0.748,4.867c0.02,0.318,0.037,0.604,0.041,0.857c-0.018,0.262-0.039,0.484-0.064,0.666
					C278.158,242.575,278.098,242.763,278.029,242.757z"/>
			</g>
		</g>
	</g>
	<g>
		<path fill="#FBB03B" d="M252.286,201.886c-1.833,0-7.03-3.107-7.384-3.303c-0.353-0.195-5.615,2.215-3.066,10.16
			c2.83,2.996,7.125,3.84,7.125,3.84c0.211,4.299-0.567,13.025-0.426,15.045c0.143,2.018,17.033,7.705,30.197,0.346
			c-0.494-8.465-1.604-13.631-1.604-13.631c3.468-1.824,6.299-5.404,8.493-8.662c-2.123-0.912-6.015-5.404-5.025-7.814
			c-2.264,1.693-5.614,3.344-6.394,3.67c-0.779,0.324-4.51,0.947-6.369,0.736C261.275,201.536,262.407,204.183,252.286,201.886z"/>
	</g>
	<g>
		<g opacity="0.5">
			<path fill="#ED760E" d="M248.98,213.087c0.316-1.398,0.603-2.646,0.82-3.629c-1.053-0.24-6.57-2.631-8.655-4.521
				c0.007,0.254,0.024,0.52,0.05,0.793c0.004,0.035,0.006,0.07,0.008,0.107c0.029,0.279,0.068,0.566,0.121,0.865
				c0.002,0.01,0.004,0.02,0.006,0.029c0.05,0.273,0.111,0.557,0.182,0.846c0.017,0.074,0.035,0.146,0.054,0.219
				c0.079,0.309,0.165,0.621,0.271,0.947c2.83,2.996,7.125,3.84,7.125,3.84C248.969,212.745,248.975,212.915,248.98,213.087z"/>
		</g>
		<g opacity="0.5">
			<path fill="#ED760E" d="M244.805,198.577c-0.045,0.004-0.098,0.018-0.162,0.037c1.153,1.203,2.9,2.709,5.237,3.859
				c4.601,2.26,7.103,3.838,12.479,3.447c5.381-0.393,6.984-0.957,9.604-2.563c1.857-1.139,6.135-2.998,8.541-4.008l0,0
				c-0.026-0.146-0.045-0.287-0.055-0.426c-0.004-0.064-0.002-0.125-0.002-0.189c0-0.102,0.004-0.199,0.016-0.295
				c0.006-0.051,0.011-0.104,0.02-0.154c0.024-0.145,0.061-0.287,0.114-0.42c-2.264,1.693-5.614,3.344-6.394,3.67
				c-0.779,0.324-4.51,0.947-6.369,0.736c-6.559-0.736-5.427,1.91-15.548-0.387c-1.833,0-7.03-3.107-7.384-3.303
				c-0.018-0.01-0.05-0.012-0.092-0.008C244.809,198.577,244.807,198.577,244.805,198.577z"/>
		</g>
		<g opacity="0.5">
			<path fill="#ED760E" d="M285.622,205.681c-0.118-0.049-0.243-0.115-0.371-0.188c-0.03-0.018-0.06-0.033-0.089-0.051
				c-0.125-0.074-0.253-0.154-0.385-0.246c-0.027-0.02-0.056-0.041-0.082-0.061c-0.109-0.078-0.221-0.162-0.333-0.25
				c-0.04-0.033-0.081-0.063-0.124-0.098c-0.125-0.104-0.251-0.211-0.379-0.324c-0.053-0.047-0.104-0.096-0.156-0.145
				c-0.093-0.086-0.184-0.174-0.277-0.264c-0.048-0.049-0.098-0.096-0.148-0.146v-0.002c-2.31,2.521-6.503,5.67-9.121,6.984
				c0.062,0.893,0.97,13.916,0.903,18.777c0.007-0.002,0.013-0.004,0.021-0.006c0.33-0.125,0.663-0.258,0.994-0.396
				c0.146-0.063,0.291-0.129,0.437-0.191c0.249-0.109,0.496-0.223,0.743-0.34c0.126-0.061,0.252-0.121,0.379-0.184
				c0.369-0.186,0.736-0.375,1.1-0.578c-0.494-8.465-1.604-13.631-1.604-13.631C280.597,212.519,283.428,208.938,285.622,205.681z"
				/>
		</g>
	</g>
	<path fill="#FFC099" d="M258.047,201.319c0,0-0.592,3.813,4.715,3.711c5.018-0.096,6.299-2.344,5.592-5.34
		C267.668,196.792,262.718,202.034,258.047,201.319z"/>
	<g opacity="0.4">
		<path fill="#BA7B54" d="M258.047,201.319c0,0-0.592,3.813,4.715,3.711c5.018-0.096,6.299-2.344,5.592-5.34
			C267.668,196.792,262.718,202.034,258.047,201.319z"/>
	</g>
	<path fill="#FFC099" d="M277.129,186.927c0.142-3.192,7.645-4.298,7.291,0.586c-0.354,4.883-6.016,6.186-7.645,4.363
		C275.146,190.052,277.129,186.927,277.129,186.927z"/>
	<g opacity="0.4">
		<path fill="#BA7B54" d="M277.129,186.927c0.142-3.192,7.645-4.298,7.291,0.586c-0.354,4.883-6.016,6.186-7.645,4.363
			C275.146,190.052,277.129,186.927,277.129,186.927z"/>
	</g>
	<path fill="#FFC099" d="M260.992,169.799c-14.014,0.782-17.316,11.138-15.051,19.083c-7.55,2.518-0.606,15.9,19.109,12.438
		c14.579-2.563,16.209-13.861,12.645-22.923C276.092,174.314,270.476,168.627,260.992,169.799z"/>
	<g opacity="0.4">
		<path fill="#BA7B54" d="M278.852,182.262c-0.597,0.517-1.186,1.209-1.723,2.144c0.555,15.279-14.037,18.201-23.137,16.544
			c-9.959-1.811-13.001-10.521-7.301-12.008c-1.796-5.381,0-10.958,3.107-13.652l-0.238-1.279
			c-4.264,3.922-5.045,9.873-3.619,14.871c-4.958,1.652-3.658,7.986,3.397,11.162c-0.028-0.012-0.058-0.021-0.085-0.031
			c0.084,0.039,0.174,0.074,0.26,0.111c0.02,0.01,0.039,0.018,0.059,0.025c0.248,0.107,0.5,0.211,0.762,0.309
			c0.02,0.008,0.041,0.016,0.061,0.023c0.271,0.102,0.551,0.199,0.836,0.291c0.006,0.002,0.012,0.006,0.018,0.006
			c3.518,1.135,8.127,1.537,13.803,0.541C277.61,199.11,280.555,190.421,278.852,182.262z"/>
	</g>
	<path fill="#7A1015" d="M254.886,193.345c1.235-0.5,9.25,0.145,9.8-1.572c-1.148,8.045-6.48,7.23-7.783,4.742
		C255.807,194.421,255.009,193.657,254.886,193.345z"/>
	<path fill="#C1272D" d="M264.016,194.552c-2.314-0.73-5.687,0.793-6.572,2.689C259.013,198.8,262.402,198.95,264.016,194.552z"/>
	<g>
		<g>
			<g>
				<path d="M253.359,188.929c-0.205,0.191-0.676,0.039-1.267-0.248c-0.586-0.271-1.368-0.684-2.011-0.689
					c-0.617-0.063-1.16,0.268-1.6,0.645c-0.433,0.371-0.658,0.67-0.936,0.707c-0.268,0.053-0.565-0.576-0.268-1.42
					c0.148-0.412,0.428-0.889,0.92-1.289c0.486-0.4,1.236-0.666,1.977-0.617c0.382-0.002,0.7,0.119,1.021,0.207
					c0.279,0.137,0.57,0.256,0.789,0.42c0.457,0.313,0.779,0.658,1.012,0.973C253.448,188.255,253.555,188.751,253.359,188.929z"/>
			</g>
		</g>
	</g>
	<g>
		<g>
			<g>
				<path fill="#511D00" d="M248.951,179.435c-0.01,0.253-0.736,0.521-1.353,1.025c-0.618,0.479-1.044,1.213-1.411,1.133
					c-0.173-0.043-0.291-0.306-0.244-0.726c0.039-0.411,0.291-0.998,0.824-1.431C247.844,178.549,249.228,178.983,248.951,179.435z"
					/>
			</g>
		</g>
	</g>
	<g>
		<g>
			<g>
				<path d="M265.932,188.663c-0.23-0.115-0.281-0.621,0.003-1.348c0.138-0.365,0.391-0.775,0.771-1.184
					c0.408-0.383,0.952-0.791,1.673-0.935c0.71-0.151,1.415-0.035,1.952,0.205c0.547,0.234,0.928,0.6,1.189,0.936
					c0.537,0.691,0.438,1.402,0.161,1.416c-0.282,0.031-0.565-0.156-1.087-0.367c-0.51-0.221-1.191-0.393-1.799-0.256
					c-0.613,0.135-1.24,0.582-1.721,0.996C266.584,188.519,266.186,188.792,265.932,188.663z"/>
			</g>
		</g>
	</g>
	<g>
		<g>
			<g>
				<path fill="#511D00" d="M267.677,178.465c-0.376-0.385,0.897-1.107,2.147-0.491c0.619,0.298,1.008,0.801,1.154,1.191
					c0.153,0.396,0.109,0.683-0.045,0.769c-0.334,0.174-0.942-0.434-1.68-0.771C268.516,178.806,267.742,178.706,267.677,178.465z"
					/>
			</g>
		</g>
	</g>
	<g>
		<g>
			<g>
				<path fill="#BA7B54" d="M256.385,190.433c-0.164-0.008-0.365-0.27-0.361-0.807c-0.004-0.258,0.069-0.637,0.405-1.002
					c0.362-0.389,1.004-0.459,1.419-0.348c0.855,0.225,1.322,0.703,1.621,1.072c0.291,0.383,0.364,0.701,0.238,0.828
					c-0.132,0.129-0.428,0.059-0.815-0.096c-0.38-0.15-0.897-0.414-1.329-0.518c-0.221-0.041-0.275-0.033-0.338-0.021
					c-0.074,0.031-0.213,0.15-0.299,0.313C256.728,190.159,256.58,190.444,256.385,190.433z"/>
			</g>
		</g>
	</g>
	<path fill="#511D00" d="M259.86,168.931c-5.001-6.339-15.099-3.474-13.4,0.348c-8.399-1.216-16.504,9.975-0.273,9.888
		c1.208-2.414,4.237-3.637,4.237-3.637c5.851,4.689,18.59,1.736,23.119-2.952c2.266-0.521-2.736,13.632,4.908,13.892
		c3.303-0.953,1.697-13.979-5.945-16.757C264.861,166.934,259.86,168.931,259.86,168.931z"/>
	<path fill="#C1272D" d="M259.86,168.931c2.312,0.218,16.843,2.953,19.628,16.369c2.313-1.259,3.351-5.949,1.037-10.486
		c1.063-5.698-15.285-17.474-28.734-8.747C254.906,167.152,259.86,168.931,259.86,168.931z"/>
	<g>
		<g>
			<g>
				<path fill="#A11117" d="M280.621,174.879c-0.076,0.051-0.318-0.127-0.688-0.485c-0.184-0.18-0.4-0.403-0.643-0.668
					c-0.25-0.258-0.565-0.525-0.887-0.84c-0.621-0.654-1.486-1.295-2.383-2.064c-0.982-0.665-2.012-1.462-3.23-2.088
					c-4.74-2.814-9.381-3.122-9.299-3.622c0.018-0.182,1.164-0.161,3.039,0.029c0.924,0.151,2.004,0.457,3.212,0.771
					c0.578,0.234,1.185,0.479,1.814,0.734c0.312,0.136,0.64,0.251,0.95,0.414c0.306,0.173,0.615,0.348,0.93,0.525
					c1.286,0.663,2.359,1.535,3.348,2.292c0.906,0.862,1.742,1.611,2.304,2.377c0.292,0.37,0.568,0.691,0.772,1.005
					c0.197,0.319,0.36,0.598,0.485,0.829C280.597,174.552,280.696,174.829,280.621,174.879z"/>
			</g>
		</g>
	</g>
	<path fill="#511D00" d="M259.86,168.931c-5.001-6.339-15.099-3.474-13.4,0.348"/>
	<g opacity="0.5">
		<path fill="#290F00" d="M270.816,172.963c-13.303,6.817-23.287-1.109-24.309-5.451c-0.282,0.539-0.327,1.14-0.048,1.767
			c-0.214-0.031-0.43-0.052-0.644-0.067c-0.08,1.464,0.284,3.16,1.729,4.243c-2.377,1.832-9.042,2.621-10.408,0.229
			c-1.152,2.669,0.816,5.527,9.05,5.482c1.208-2.414,4.237-3.637,4.237-3.637c5.306,4.253,16.275,2.218,21.65-1.696
			C271.659,173.526,271.239,173.237,270.816,172.963z"/>
	</g>
	<path fill="#4F0300" d="M249.369,250.81c-1.128,1.938,0.936,11.137,0.725,11.266c-2.266,1.824-3.61,4.363,0.424,4.559
		s5.803-0.586,6.936-1.367c0.142,0.652,2.478,0.521,3.043-1.107c0.566-1.627,1.941-10.734,1.416-12.893
		C261.559,252.642,249.437,252.249,249.369,250.81z"/>
	<g>
		<g>
			<g>
				<path fill="#ED760E" d="M249.172,217.208c-0.348-0.014-0.602-2.893-0.33-6.465c0.144-1.785,0.463-3.414,0.887-4.551
					c0.429-1.15,1.023-1.715,1.143-1.619c0.176,0.119-0.075,0.76-0.244,1.867c-0.168,1.109-0.33,2.662-0.473,4.412
					C249.89,214.351,249.551,217.222,249.172,217.208z"/>
			</g>
		</g>
	</g>
	<g>
		<g>
			<g>
				<path fill="#ED760E" d="M270.831,202.687c0.118,0.107-0.357,0.938-1.548,1.895c-1.168,0.967-3.139,1.955-5.48,2.225
					c-2.332,0.27-4.512-0.197-5.856-1.088c-0.669-0.43-1.135-1.037-1.176-1.559c-0.042-0.52,0.196-0.725,0.257-0.691
					c0.099,0.029,0.08,0.271,0.238,0.555c0.145,0.283,0.535,0.619,1.14,0.885c1.204,0.541,3.156,0.834,5.245,0.59
					c2.099-0.244,3.898-0.984,5.109-1.686C269.984,203.122,270.688,202.544,270.831,202.687z"/>
			</g>
		</g>
	</g>
	<g>
		<g>
			<g>
				<path fill="#ED760E" d="M277.129,214.343c0.01,0.09-0.14,0.174-0.453,0.242c-0.158,0.051-0.352,0.047-0.583,0.004
					c-0.114-0.02-0.245-0.029-0.371-0.07c-0.122-0.057-0.251-0.115-0.386-0.178c-1.119-0.559-1.865-2.07-2.164-3.619
					c-0.615-3.172,0.152-5.703,0.489-5.627c0.374,0.049,0.239,2.51,0.802,5.361c0.274,1.408,0.767,2.598,1.389,3.109
					C276.46,214.104,277.121,214.126,277.129,214.343z"/>
			</g>
		</g>
	</g>
	<g>
		<g>
			<g>
				<path fill="#1F2B5C" d="M264.318,242.8c-0.123,0.059-0.429-0.209-0.798-0.656c-0.213-0.201-0.464-0.436-0.74-0.697
					c-0.31-0.221-0.612-0.498-0.999-0.703c-1.482-0.926-2.998-1.088-2.982-1.395c0-0.121,0.401-0.26,1.057-0.221
					c0.653,0.014,1.564,0.238,2.438,0.768c0.451,0.244,0.801,0.594,1.119,0.896c0.287,0.334,0.51,0.666,0.678,0.945
					C264.355,242.353,264.441,242.741,264.318,242.8z"/>
			</g>
		</g>
	</g>
</g>
<g>
	<g>
		<path fill="#6FA329" d="M229.182,268.161c-4.742-1.953-10.615-0.195-8.633,0.846c0.545,0.105,1.302,0.455,2.147,0.906
			c-3.79,0.795-12.081,2.529-18.423,3.848c-0.154-0.035-0.324-0.041-0.513,0.006c-0.86,0.205-1.517,0.299-3.274,0.727
			c-1.691-0.83-3.4-1.391-4.475-1.252c-15.357,2.148-12.244,12.568,9.626,5.926c0.761-0.541-0.796-2.063-2.939-3.43
			c0.988-0.166,1.384-0.313,1.813-0.391c0.086-0.018,0.157-0.047,0.223-0.08c7.6-1.578,17.918-3.74,20.033-4.186
			c1.807,1.045,3.594,2.066,4.414,1.963C230.74,272.851,232.434,269.501,229.182,268.161z M228.225,271.124
			c-0.719-0.221-2.365-1.174-3.386-1.762c-0.507-0.295-0.997-0.578-1.464-0.838c0.129-0.004,0.264-0.006,0.4-0.006
			c1.002,0,2.512,0.129,4.006,0.744c0.826,0.34,0.845,0.742,0.85,0.895C228.648,270.569,228.4,270.954,228.225,271.124z"/>
	</g>
	<g>
		<g>
			<path fill="#0071BC" d="M196.059,275.888l-0.32-1.438c2.719-0.514,28.248-5.869,28.506-5.924l0.354,1.432
				C223.547,270.179,198.796,275.372,196.059,275.888z"/>
		</g>
		<path fill="#0071BC" d="M228.668,267.159c-4.742-1.953-10.617-0.195-8.635,0.846c2.052,0.391,7.078,4.234,8.635,4.037
			C230.225,271.847,231.92,268.499,228.668,267.159z M227.71,270.122c-0.72-0.221-2.366-1.174-3.386-1.764
			c-0.508-0.293-0.998-0.576-1.464-0.836c0.128-0.006,0.263-0.008,0.399-0.008c1.004,0,2.514,0.131,4.006,0.744
			c0.828,0.342,0.846,0.746,0.851,0.896C228.135,269.567,227.886,269.954,227.71,270.122z"/>
		<path fill="#666666" d="M195.498,272.239c-15.359,2.148-12.245,12.566,9.625,5.924
			C206.68,277.058,198.541,271.847,195.498,272.239z"/>
		<path fill="#828282" d="M199.768,273.54c-1.368,0.26-5.992,1.955-5.662,2.301c0.33,0.35,6.689-0.879,7.998-1.094
			c1.052-0.17,1.451-0.322,1.894-0.404c1.046-0.191,0.483-1.877-0.751-1.578C202.353,272.978,201.69,273.067,199.768,273.54z"/>
	</g>
</g>
<g>
	<g>
		<path fill="#472C1B" d="M210.107,261.22c-3.963-1.824-9.246-1.912-13.493-1.824c-3.458,0.08-13.413,1.084-13.742,5.67
			c-1.438,1.035-4.51,0.791-5.415,2.318c-2.359,4.168,16.893,3.994,18.779,3.994c4.152,0,8.494,0.262,12.646-0.348
			c1.133-0.174,3.209-0.521,3.586-1.65c0.095-0.434-0.66-0.869-0.377-1.303c0.188-0.346,1.32-0.26,1.604-0.346
			C218.791,266.515,212.186,262.173,210.107,261.22z"/>
	</g>
	<g opacity="0.5">
		<path fill="#2E1B10" d="M212.256,262.464c-0.018-0.002-0.033-0.008-0.047-0.008c-0.661,0.086-1.133,0.086-1.51,0.695
			c-0.662-0.695-1.794-0.609-2.643-0.174c-0.189-0.781-0.661-0.781-1.229-1.043c-0.094-0.086-1.32-0.436-1.509-0.436
			c-0.849-0.26-2.454-0.867-3.304-0.26c-0.566-0.781-3.49-0.607-3.113,0.695c0.943,0,3.02,0.262,3.681,0.867
			c0.566,0.521,0.377,2.52-0.378,2.867c0.473,0.779-0.189,1.127-0.943,0.955c0,1.475-2.076,1.041-3.114,1.215
			s-1.981,0.781-3.304,0.869c-0.565,0-1.32-0.262-1.887-0.262c-0.661,0.088-1.227,0.434-1.981,0.521
			c-0.378,0-1.321-0.088-1.604-0.088c-0.473-0.086-0.85,0.088-1.416-0.26c0,0.088,0,0.174,0,0.26
			c-1.32,0.695-3.586,0.262-4.152-1.129c-0.472,0.176-2.076,0.436-2.359,0c-0.377-0.781,0.85-1.041,1.322-0.955
			c-0.661-1.301,4.34-1.91,5.285-2.082c-0.189-0.783-1.605-0.609-2.172-0.609c0.095-0.174,0.095-0.434,0.095-0.607
			c-0.661,0-1.321,0.262-1.888,0.607c0.09-0.697,0.312-1.371,0.693-1.92c-1.092,0.752-1.822,1.697-1.907,2.881
			c-1.438,1.035-4.51,0.791-5.415,2.318c-2.359,4.168,16.893,3.994,18.779,3.994c4.152,0,8.494,0.262,12.646-0.348
			c1.133-0.174,3.209-0.521,3.586-1.65c0.095-0.434-0.66-0.869-0.377-1.303c0.188-0.346,1.32-0.26,1.604-0.346
			C217.52,266.817,214.752,264.144,212.256,262.464z"/>
	</g>
	<g>
		<g>
			<path fill="#7A563F" d="M184.597,204.173c-6.911-5.738-8.61-14.803-8.61-13.824c2.045,17.307,15.488,15.051,17.089,32.727
				c1.6,17.678,0.726,36.547-1.23,38.674c0,0,0.036,0.072,0.106,0.182c1.855,0.396,3.983,0.098,6.025-0.521
				c-1.979-13.715,1.769-40.705,5.344-46.994c-3.209,1.68-6.367,21.775-6.592,18.912c-1.308-12.578,0.072-26.168,9.09-33.752
				c10.887-9.154,14.313-16.647,11.62-22.768c1.219,5.445-3.267,12.413-4.277,12.756c-1.011,0.346,0.937-7.217-0.273-8.096
				c-0.805,14.959-11.364,17.469-14.689,24.542c-1.601,3.404-2.288,3.895-2.21,0.682c0.066-2.756,0.154-12.043,0.269-17.287
				c0.192-8.859,11.599-18.033,11.093-27.053c-1.562,4.45-12.576,26.036-13.208,20.541c-4.167-36.212-11.833-41.546-10.101-39.512
				c10.546,26.126,10.486,69.426,9.609,69.909C192.773,213.769,190.204,208.829,184.597,204.173z"/>
		</g>
		<g>
			<path fill="#52A830" d="M185.107,145.468c-0.71-2.64,1.002-6.795,3.596-7.591C189.854,142.817,187.315,145.308,185.107,145.468z"
				/>
		</g>
		<g>
			<path fill="#52A830" d="M207.118,164.143c1.638-2.264,6.126-3.905,8.516-2.681C212.447,165.577,208.736,165.535,207.118,164.143z
				"/>
		</g>
		<g>
			<path fill="#8CC63F" d="M175.444,190.019c-2.548-1.377-4.58-5.409-3.386-7.672C176.703,185.042,176.863,188.454,175.444,190.019z
				"/>
		</g>
		<g>
			<path fill="#8CC63F" d="M178.184,198.411c-4.079,2.143-7.428-0.555-8.433-2.895C175.051,194.192,177.89,196.392,178.184,198.411z
				"/>
		</g>
		<g>
			<path fill="#8CC63F" d="M217.588,181.026c-4.697,0.035-6.187-3.824-5.818-6.317C217.095,175.936,218.404,179.132,217.588,181.026
				z"/>
		</g>
		<g>
			<path fill="#8CC63F" d="M207.105,162.283c-3.991-2.277-3.012-6.272-1.254-8.201C209.642,157.737,208.895,161.083,207.105,162.283
				z"/>
		</g>
		<g>
			<path fill="#8CC63F" d="M184.457,143.71c-4.693,0.146-6.292-3.676-5.996-6.177C183.82,138.634,185.221,141.796,184.457,143.71z"
				/>
		</g>
		<g>
			<path fill="#52A830" d="M175.041,153.541c-1.742,2.198-6.302,3.662-8.632,2.346C169.782,151.9,173.488,152.088,175.041,153.541z"
				/>
		</g>
		<g>
			<path fill="#8CC63F" d="M172.974,151.646c-4.694,0.146-6.292-3.675-5.996-6.178C172.338,146.569,173.737,149.733,172.974,151.646
				z"/>
		</g>
		<g>
			<path fill="#52A830" d="M175.647,191.321c-0.71-2.641,1.001-6.795,3.595-7.594C180.394,188.669,177.855,191.159,175.647,191.321z
				"/>
		</g>
		<g>
			<path fill="#52A830" d="M217.518,177.546c-1.064-2.537,0.065-6.857,2.531-7.949C221.865,174.365,219.688,177.13,217.518,177.546z
				"/>
		</g>
		<g>
			<path fill="#8CC63F" d="M202.627,214.905c-1.793-3.996,1.539-6.711,4.189-7.332C207.572,212.579,204.842,214.894,202.627,214.905
				z"/>
		</g>
		<g>
			<path fill="#52A830" d="M200.854,219.206c1.257-2.461,5.433-4.695,7.993-3.811C206.356,219.899,202.678,220.362,200.854,219.206z
				"/>
		</g>
		<path fill="#6FA329" d="M187.76,151.964c-0.225-4.446,2.887-7.778,6.396-8.054C195.33,148.395,190.794,151.582,187.76,151.964z"/>
		<path fill="#6FA329" d="M204.402,170.134c1.332-4.094,7.316-4.515,9.055-2.667C213.377,171.493,205.587,171.283,204.402,170.134z"
			/>
		<path fill="#6FA329" d="M211.253,193.304c1.89-3.393,8.829-5.898,10.908-4.176C221.979,194.226,212.499,194.612,211.253,193.304z"
			/>
		<g>
			<path fill="#7A563F" d="M190.117,163.049c-1.126-3.001-13.629-8.368-17.472-12.453c0.623,4.065,14.945,9.871,17.396,13.874
				C190.876,164.73,190.117,163.049,190.117,163.049z"/>
		</g>
		<g>
			<path fill="#8CC63F" d="M190.648,166.587c-4.078,2.142-7.428-0.555-8.432-2.896C187.516,162.368,190.356,164.568,190.648,166.587
				z"/>
		</g>
		<g>
			<path fill="#52A830" d="M176.988,154.837c-2.174-1.841-3.236-6.177-1.55-8.158C179.359,150.217,178.734,153.583,176.988,154.837z
				"/>
		</g>
	</g>
</g>
<path fill="#6FA329" d="M123.548,272.741c-4.134-1.619,4.189-4.209,14.536-4.982c10.346-0.775,4.763,1.313,10.754,1.484
	s13.328,0.646,9.426,2.82C154.361,274.235,128.893,274.835,123.548,272.741z"/>
</svg>
