<?xml version="1.0" encoding="utf-8"?>
<!-- Generator: Adobe Illustrator 16.0.0, SVG Export Plug-In . SVG Version: 6.00 Build 0)  -->
<!DOCTYPE svg PUBLIC "-//W3C//DTD SVG 1.1//EN" "http://www.w3.org/Graphics/SVG/1.1/DTD/svg11.dtd">
<svg version="1.1" id="Capa_1" xmlns="http://www.w3.org/2000/svg" xmlns:xlink="http://www.w3.org/1999/xlink" x="0px" y="0px"
	 width="29.946px" height="42.486px" viewBox="0 0 29.946 42.486" enable-background="new 0 0 29.946 42.486" xml:space="preserve">
<g>
	<g>
		<rect x="7.621" y="17.412" fill="#F9CE83" width="13.511" height="9.779"/>
		<rect x="8.421" y="18.207" fill="#379C9B" width="11.912" height="8.191"/>
		<polygon opacity="0.08" fill="#FFFFFF" points="20.333,18.207 8.421,26.398 8.421,18.207 		"/>
		<rect x="7.254" y="26.784" fill="#F9E398" width="14.245" height="0.407"/>
		<path fill="#F2F2F2" d="M11.737,26.559c0,0.122-0.085,0.22-0.191,0.22h-1.2c-0.104,0-0.191-0.098-0.191-0.22l0,0
			c0-0.121,0.087-0.219,0.191-0.219h1.2C11.652,26.34,11.737,26.438,11.737,26.559L11.737,26.559z"/>
		<polygon opacity="0.52" fill="#B3B3B3" points="20.332,18.206 20.332,18.603 8.844,18.603 8.844,26.398 8.421,26.398 
			8.421,18.206 		"/>
		<g>
			<rect x="12.177" y="25.837" fill="#87CDDE" width="1.867" height="0.767"/>
			<rect x="12.177" y="26.604" fill="#7B7982" width="1.867" height="0.175"/>
		</g>
		<g opacity="0.26">
			<polygon fill="#B3B3B3" points="17.421,24.96 17.421,24.962 17.032,25.104 			"/>
			<path fill="#B3B3B3" d="M20.785,24.975c-0.006,0.016-0.014,0.033-0.02,0.052c0.006-0.02,0.014-0.036,0.018-0.054L20.785,24.975z"
				/>
			<path fill="#B3B3B3" d="M21.132,21.504c-0.112-0.223-0.233-0.39-0.421-0.616c-0.114-0.139-0.24-0.261-0.378-0.365
				c-0.375-0.287-0.828-0.442-1.32-0.442c-0.587,0-1.192,0.351-1.559,0.833c-0.346,0.456-0.67,1.088-0.741,1.629
				c-0.142,1,0.426,2.429,1.372,1.925v0.349l-0.665,0.146l-0.389,0.144l-0.075,0.027l-0.717,0.265l-0.188,0.067
				c-0.002,0-0.002,0.004-0.004,0.004l-0.006,0.001h-0.003c-0.537,0.194-0.848,0.54-1.026,0.93
				c-0.115,0.257-0.175,0.532-0.204,0.793h6.324v-2.096l-0.347-0.122h-0.002l-0.45-0.103l-0.247-0.056v-0.382
				c0.085,0.039,0.169,0.062,0.247,0.07c0.343,0.03,0.614-0.224,0.799-0.507V21.504z"/>
		</g>
		<g>
			<path fill="#F88011" d="M24.501,27.809h0.005v0.62h-8.646v-0.62c0-0.617-0.154-2.176,1.255-2.682h0.001l0.007-0.001
				c0.001,0,0.001-0.005,0.004-0.005l0.188-0.066l0.719-0.267l0,0l0,0l0.466-0.169c0.008,0.024,0.017,0.051,0.03,0.077
				c0.226,0.519,0.879,0.89,1.653,0.89c0,0.008,0,0.015,0.001,0.021c0,0.006,0.001,0.012,0.002,0.017
				c-0.001-0.012-0.001-0.024-0.001-0.037c0.753-0.001,1.394-0.354,1.634-0.853c0.016-0.032,0.03-0.068,0.042-0.102l0.47,0.165
				c0,0,0.002-0.001,0,0l0.002-0.001l0.919,0.322v0.009C24.656,25.633,24.501,27.191,24.501,27.809z"/>
			<path fill="#FFFFFF" d="M20.182,25.586c0,1.027-1.995,1.099-2.15-0.798l0.465-0.169c0.009,0.024,0.019,0.051,0.031,0.077
				C18.752,25.214,19.406,25.586,20.182,25.586z"/>
			<path fill="#FFFFFF" d="M22.328,24.797c-0.159,1.888-2.146,1.815-2.146,0.789c0.754,0,1.395-0.354,1.634-0.853
				c0.016-0.032,0.032-0.068,0.044-0.102L22.328,24.797z"/>
			<path fill="#E7C5A7" d="M21.815,24.733c-0.239,0.498-0.88,0.853-1.634,0.853c-0.775,0-1.43-0.372-1.654-0.89l0.634-0.223v-0.865
				h2v0.865L21.815,24.733z"/>
			<g>
				<path fill="#EFD2B2" d="M21.916,22.312c0,0.119-0.007,0.233-0.023,0.346c-0.013,0.103-0.033,0.203-0.059,0.302
					c-0.123,0.461-0.375,0.854-0.704,1.116c-0.278,0.222-0.609,0.352-0.97,0.352c-0.348,0-0.672-0.123-0.944-0.333
					c-0.342-0.262-0.604-0.664-0.729-1.139c-0.026-0.096-0.048-0.198-0.061-0.3c-0.01-0.066-0.017-0.133-0.02-0.203
					c-0.003-0.047-0.003-0.092-0.003-0.141c0-0.047,0-0.095,0.004-0.141c0.521-0.005,1.243-0.286,1.554-0.422
					c0.429-0.17,0.809-0.47,1.047-0.868c0.176,0.332,0.492,0.731,0.839,0.846c0.006,0.019,0.009,0.039,0.014,0.06
					c0.004,0.021,0.008,0.039,0.012,0.058l0,0C21.901,21.995,21.916,22.151,21.916,22.312z"/>
			</g>
			<g>
				<path fill="#9B6138" d="M19.216,24.093c-0.457-0.352-0.771-0.95-0.808-1.641c-0.004-0.047-0.004-0.092-0.004-0.141
					c0-0.047,0-0.095,0.004-0.141c0.521-0.005,1.243-0.286,1.554-0.422c0.429-0.17,0.809-0.47,1.047-0.868
					c0.176,0.332,0.492,0.731,0.839,0.846c0.009,0.04,0.018,0.078,0.025,0.117c0.029,0.151,0.045,0.31,0.045,0.468
					c0,0.737-0.313,1.385-0.788,1.765c0.685,0.356,1.147-0.449,1.308-0.875c0.165-0.432,0.153-0.838,0-1.471
					c-0.207-0.595-0.34-0.807-0.652-1.186c-0.429-0.519-1.023-0.809-1.698-0.809c-0.587,0-1.19,0.351-1.558,0.834
					c-0.346,0.457-0.67,1.089-0.741,1.629C17.645,23.217,18.233,24.682,19.216,24.093z"/>
			</g>
			<g opacity="0.13">
				<path fill="#4D4D4D" d="M18.404,22.313c0,0.047,0.001,0.092,0.004,0.139c0.423-0.038,0.923-0.209,1.378-0.46
					c0.521-0.283,0.984-0.671,1.205-1.074c0.005-0.012,0.014-0.024,0.02-0.037c-0.24,0.398-0.62,0.698-1.049,0.868
					c-0.311,0.136-1.033,0.417-1.554,0.422C18.405,22.217,18.404,22.266,18.404,22.313z"/>
			</g>
			<g opacity="0.48">
				<path fill="#8BACB2" d="M21.011,20.881c0.067,0.3,0.344,0.781,0.862,0.963c-0.007-0.039-0.017-0.077-0.024-0.117
					C21.501,21.612,21.185,21.213,21.011,20.881z"/>
			</g>
			<polygon fill="#CDBAB2" points="17.177,28.429 17.177,27.019 17.455,28.221 18.269,28.429 			"/>
			<polygon fill="#CDBAB2" points="23.232,28.429 23.232,27.019 22.956,28.221 22.141,28.429 			"/>
			<path fill="#F2F2F2" d="M18.487,22.955c-0.017,0.008-0.032,0.01-0.05,0.01c-0.086,0-0.155-0.07-0.155-0.155
				c0-0.083,0.063-0.149,0.145-0.154C18.439,22.757,18.461,22.859,18.487,22.955z"/>
			<path fill="#F2F2F2" d="M22.031,22.81c0,0.085-0.071,0.155-0.158,0.155c-0.015,0-0.028-0.002-0.039-0.006
				c0.025-0.099,0.046-0.199,0.059-0.302C21.97,22.666,22.031,22.731,22.031,22.81z"/>
		</g>
	</g>
</g>
<g>
	<g>
		<path fill="#F2F2F2" d="M11.595,23.374c-0.044,0.077-0.103,0.154-0.173,0.229c-0.037-0.019-0.074-0.037-0.111-0.056v-0.262
			C11.41,23.3,11.508,23.329,11.595,23.374z"/>
		<path fill="#F2F2F2" d="M9.094,23.32v0.291c-0.017,0.005-0.034,0.011-0.048,0.018c-0.082-0.083-0.153-0.169-0.2-0.255
			C8.897,23.347,8.995,23.325,9.094,23.32z"/>
		<path fill="#E1E1E1" d="M14.348,24.605l-0.152-0.054l-0.42-0.15c-0.039-0.027-0.083-0.048-0.133-0.061l-1.238-0.426l-0.087-0.03
			l-0.27-0.095c-0.219,0.561-0.704,0.978-1.243,1.281c-0.044-0.267-0.265-0.587-0.508-0.751c0,0,0.206,0.888,0,2.152H9.906
			c0,0-0.007-1.375-0.108-1.788c-0.081,0.126-0.142,0.264-0.162,0.387c-0.097-0.056-0.195-0.115-0.288-0.179
			c-0.419-0.282-0.778-0.646-0.956-1.105l-2.146,0.765l-0.152,0.054c-0.424,0.182-0.722,0.596-0.722,1.076v2.805h9.699v-2.805
			C15.07,25.201,14.772,24.787,14.348,24.605z M6.838,24.348c-0.002,0-0.003,0-0.003,0C6.835,24.347,6.836,24.347,6.838,24.348
			c0.001-0.001,0.003-0.003,0.006-0.003C6.841,24.347,6.839,24.347,6.838,24.348z"/>
		<path fill="#E1B398" d="M11.443,22.877v0.854h-0.125c-0.01,0.008-0.02,0.017-0.028,0.023c-0.017,0.018-0.034,0.034-0.055,0.049
			c-0.024,0.019-0.046,0.037-0.068,0.056c-0.129,0.101-0.262,0.185-0.375,0.243c-0.058,0.029-0.117,0.062-0.18,0.09
			c-0.101,0.049-0.206,0.102-0.314,0.146c0,0,0.211,0.904,0,2.192v-0.092c0-0.742-0.154-2.101-0.154-2.101
			c-0.119-0.051-0.234-0.106-0.343-0.159c-0.054-0.025-0.104-0.051-0.153-0.077c-0.115-0.059-0.246-0.143-0.373-0.243
			c-0.022-0.019-0.045-0.037-0.068-0.056c-0.029-0.023-0.057-0.048-0.084-0.072H8.969v-0.854H11.443z"/>
		<path fill="#FFFFFF" d="M10.144,24.32c-0.13,0.088-0.251,0.22-0.345,0.362l-0.002,0.003c-0.081,0.125-0.141,0.263-0.161,0.385
			c-0.54-0.303-1.026-0.722-1.244-1.283c0.113-0.201,0.255-0.336,0.454-0.413c0.047,0.086,0.118,0.172,0.2,0.255
			c0.001,0.004,0.005,0.008,0.008,0.011l0.04,0.038c0.042,0.039,0.085,0.079,0.132,0.117c0.021,0.018,0.044,0.036,0.065,0.054
			c0.125,0.099,0.254,0.183,0.366,0.24c0.05,0.024,0.1,0.05,0.151,0.075C9.916,24.215,10.028,24.27,10.144,24.32z"/>
		<path fill="#FFFFFF" d="M12.05,23.787c0,0.002-0.002,0.002-0.002,0.003c-0.219,0.56-0.704,0.978-1.243,1.28
			c-0.044-0.266-0.265-0.585-0.508-0.75c0.105-0.045,0.21-0.096,0.309-0.144c0.061-0.029,0.119-0.06,0.178-0.088
			c0.11-0.058,0.239-0.142,0.366-0.24c0.022-0.018,0.045-0.036,0.066-0.054c0.021-0.015,0.039-0.031,0.057-0.049
			c0.013-0.01,0.025-0.023,0.038-0.033c0.039-0.035,0.076-0.071,0.111-0.109c0.07-0.075,0.129-0.152,0.173-0.229
			C11.795,23.451,11.936,23.586,12.05,23.787z"/>
		<path fill="#F2F2F2" d="M10.297,26.381v0.092H9.906c0,0-0.007-1.374-0.109-1.787l0.002-0.003c0.094-0.143,0.215-0.274,0.345-0.362
			C10.144,24.32,10.297,25.655,10.297,26.381z"/>
		<circle fill="#B3B3B3" cx="10.653" cy="25.31" r="0.124"/>
		<circle fill="#B3B3B3" cx="10.614" cy="25.969" r="0.124"/>
		<path fill="#E1B398" d="M8.371,21.722C8.313,21.732,8.256,21.72,8.2,21.687c-0.149-0.087-0.28-0.314-0.326-0.601
			c-0.042-0.281,0.01-0.54,0.123-0.675c0.042-0.05,0.092-0.083,0.147-0.094c0.003-0.002,0.006-0.002,0.009-0.003
			c0.02-0.003,0.038-0.003,0.057-0.001c0.012,0,0.023,0.001,0.033,0.006c0.004,0,0.007,0,0.01,0.002
			c0.042,0.011,0.086,0.033,0.125,0.069c0.125,0.106,0.231,0.313,0.269,0.561C8.708,21.341,8.584,21.685,8.371,21.722z"/>
		<path fill="#E1B398" d="M12.563,21.085c-0.05,0.325-0.212,0.575-0.387,0.63c-0.036,0.012-0.072,0.015-0.108,0.008
			c-0.213-0.038-0.338-0.382-0.274-0.771c0.031-0.213,0.113-0.396,0.217-0.511c0.009-0.012,0.021-0.022,0.032-0.033
			c0.035-0.035,0.073-0.059,0.111-0.074c0.009-0.005,0.015-0.008,0.022-0.009c0.03-0.011,0.059-0.014,0.088-0.011
			c0.008,0,0.017,0,0.022,0.001c0.003,0,0.007,0.002,0.009,0.003c0.103,0.021,0.185,0.115,0.232,0.251
			C12.579,20.706,12.595,20.89,12.563,21.085z"/>
		<path fill="#EBC4A7" d="M12.257,20.814v0.031c-0.002,0.092-0.006,0.183-0.013,0.274c-0.014,0.145-0.029,0.284-0.061,0.419
			c-0.239,1.117-1.045,1.939-2.001,1.939c-0.964,0-1.772-0.834-2.007-1.965c-0.043-0.214-0.067-0.439-0.067-0.668v-0.031
			c0-0.173,0.014-0.337,0.037-0.496c0.009-0.059,0.02-0.117,0.03-0.175c0.066-0.319,0.18-0.616,0.331-0.877c0,0,0,0,0.001,0
			c0.409-0.268,1.04-0.517,1.674-0.517c0.632,0,1.266,0.249,1.678,0.517c0.146,0.255,0.258,0.543,0.324,0.852
			c0.012,0.054,0.017,0.108,0.024,0.161c0.002,0.006,0.004,0.01,0.004,0.016c0.003,0.008,0.004,0.017,0.004,0.024
			c0.006,0.031,0.012,0.063,0.015,0.099c0.002,0.005,0.002,0.007,0.002,0.014c0.004,0.039,0.008,0.079,0.012,0.116
			C12.25,20.637,12.257,20.723,12.257,20.814z"/>
		<polygon fill="#E1E1E1" points="12.404,23.915 12.317,23.885 12.049,23.787 		"/>
		<polygon fill="#CECBD3" points="6.845,28.486 6.845,26.473 7.104,28.325 7.626,28.486 		"/>
		<polygon fill="#CECBD3" points="13.59,28.486 13.59,26.473 13.327,28.325 12.807,28.486 		"/>
		<polygon fill="#8CC9C8" points="8.115,23.836 7.839,23.938 10.776,27.788 10.676,27.57 		"/>
		<polygon fill="#8CC9C8" points="12.344,23.851 12.632,23.958 10.776,27.788 10.676,27.57 		"/>
		<g>
			<path fill="#534B64" d="M11.454,27.408l0.23,1.106c0.018,0.082-0.038,0.16-0.122,0.177l-1.139,0.224
				c-0.086,0.017-0.166-0.035-0.184-0.117l-0.23-1.108c-0.017-0.081,0.037-0.159,0.121-0.177l1.142-0.224
				C11.356,27.273,11.438,27.326,11.454,27.408z"/>
			<path fill="#665C7A" d="M10.407,28.841c-0.043,0.009-0.082-0.018-0.091-0.059l-0.23-1.106c-0.008-0.041,0.02-0.081,0.061-0.089
				l1.141-0.224c0.042-0.008,0.083,0.019,0.091,0.059l0.23,1.107c0.008,0.04-0.018,0.081-0.061,0.089L10.407,28.841z"/>
			<path fill="#4F485F" d="M11.272,27.289l-1.141,0.224c-0.085,0.018-0.138,0.096-0.122,0.177l0.23,1.108
				c0.018,0.082,0.098,0.134,0.184,0.117l1.139-0.224c0.084-0.017,0.14-0.095,0.122-0.177l-0.229-1.106
				C11.438,27.326,11.356,27.273,11.272,27.289z M11.607,28.529c0.009,0.04-0.019,0.081-0.06,0.09l-1.14,0.222
				c-0.043,0.01-0.083-0.018-0.092-0.059l-0.23-1.106c-0.008-0.041,0.02-0.082,0.062-0.09l1.14-0.223
				c0.042-0.008,0.083,0.019,0.091,0.059L11.607,28.529z"/>
			<path fill="#E5E5E5" d="M10.023,27.75l0.056,0.27c-0.054,0.011-0.103-0.007-0.11-0.039l-0.031-0.151
				C9.931,27.796,9.97,27.762,10.023,27.75z"/>
			<path fill="#E5E5E5" d="M11.576,27.508l0.032,0.152c0.007,0.031-0.032,0.067-0.084,0.078l-0.057-0.27
				C11.521,27.457,11.57,27.477,11.576,27.508z"/>
			<polygon fill="#C7D2B7" points="11.426,28.02 10.28,28.242 10.173,27.722 11.318,27.497 			"/>
			<path fill="#F88011" d="M11.029,27.338l-0.653,0.128c-0.011-0.046,0.021-0.091,0.067-0.1l0.483-0.095
				C10.974,27.261,11.021,27.291,11.029,27.338z"/>
			<polygon fill="#4F485F" points="11.498,28.363 10.353,28.587 10.304,28.351 11.448,28.128 			"/>
		</g>
		<polygon fill="#665C7A" points="9.944,27.227 12.501,23.915 12.254,23.814 9.987,27.063 		"/>
		<g>
			<path fill="#F88011" d="M10.104,27.32l0.034-0.131c0.012-0.046,0.003-0.092-0.021-0.131c-0.023-0.038-0.061-0.066-0.108-0.079
				c-0.097-0.023-0.192,0.033-0.218,0.125l-0.033,0.132c-0.218,0.019-0.409,0.169-0.465,0.387l-0.222,0.852l0.516,0.127l0.092-0.352
				c0.284,0.07,0.573-0.097,0.645-0.375C10.381,27.658,10.285,27.438,10.104,27.32z M9.944,27.227
				c-0.047-0.013-0.076-0.058-0.064-0.103c0.013-0.045,0.061-0.072,0.107-0.062c0.046,0.012,0.074,0.058,0.063,0.104
				C10.039,27.212,9.991,27.237,9.944,27.227z"/>
			<path fill="#EAD5B8" d="M10.144,27.831c-0.048,0.18-0.234,0.288-0.42,0.243c-0.185-0.045-0.297-0.227-0.25-0.407
				c0.047-0.179,0.233-0.288,0.419-0.242C10.078,27.47,10.188,27.652,10.144,27.831z"/>
		</g>
		<polygon fill="#665C7A" points="9.987,27.063 8.263,23.809 8.038,23.885 9.944,27.227 		"/>
		<g>
			<path fill="#8CC9C8" d="M12.208,20.068c0,0.04-0.001,0.081-0.004,0.121c-0.006,0.096-0.02,0.19-0.04,0.283
				c0,0.001-0.001,0.003-0.001,0.004c-0.015,0.024-0.031,0.042-0.054,0.053c-0.017,0.008-0.039,0.013-0.064,0.013
				c-0.149,0-0.643-0.711-1.894-0.711c-1.109,0-1.623,0.559-1.827,0.686c-0.027,0.014-0.049,0.025-0.065,0.025
				c-0.025,0-0.048-0.005-0.067-0.014c-0.019-0.011-0.035-0.027-0.047-0.05c-0.021-0.093-0.036-0.189-0.042-0.288
				c-0.003-0.04-0.004-0.082-0.004-0.122c0-0.016,0.003-0.031,0.003-0.048c0-0.007,0-0.013,0-0.021c0-0.003,0.001-0.007,0.001-0.011
				c0.045-1.047,0.943-1.883,2.051-1.883c1.105,0,2.006,0.836,2.051,1.883c0,0.004,0.001,0.008,0.001,0.011c0,0.009,0,0.015,0,0.021
				C12.206,20.037,12.208,20.053,12.208,20.068z"/>
			<path fill="#8CC9C8" d="M12.204,20.189c-0.004,0.137-0.013,0.229-0.04,0.283C12.185,20.38,12.198,20.285,12.204,20.189z"/>
			<path fill="#FFFFFF" d="M12.048,20.541c0,0.285-0.017,0.479-0.265,0.479c-0.246,0-0.515-0.564-1.63-0.564
				c-1.116,0-1.385,0.564-1.632,0.564c-0.246,0-0.263-0.193-0.263-0.479c0.017,0,0.037-0.01,0.064-0.024
				c0.206-0.127,0.72-0.687,1.83-0.687c1.108,0,1.623,0.56,1.829,0.687C12.01,20.531,12.031,20.541,12.048,20.541z"/>
		</g>
		<path fill="#EAD5B8" d="M11.728,21.011c-0.302,0.737-1.28,0.215-1.915,0.215c-0.315,0-0.742,0.029-1.063,0.399
			c-0.146,0.169-0.253,0.313-0.427,0.386c-0.041-0.101-0.074-0.206-0.104-0.313c-0.008-0.002-0.013-0.006-0.019-0.01
			c-0.15-0.087-0.281-0.315-0.327-0.603c-0.042-0.28,0.01-0.539,0.123-0.674c0.034-0.041,0.073-0.072,0.119-0.086
			c0.005,0.032,0.009,0.063,0.017,0.095c0.003,0.021,0.007,0.039,0.012,0.059c0.012,0.022,0.028,0.039,0.047,0.05
			c0.02,0.009,0.042,0.014,0.067,0.014c0,0.285,0.017,0.479,0.263,0.479c0.041,0,0.083-0.016,0.128-0.044
			c0.232-0.129,0.573-0.521,1.502-0.521C11.184,20.455,11.492,20.938,11.728,21.011z"/>
		<path fill="#CECBD3" d="M10.183,23.481c-0.452,0-0.872-0.185-1.214-0.499v0.355c-0.051,0.01-0.095,0.023-0.123,0.038
			c-0.199,0.078-0.343,0.213-0.455,0.414h0.001l0,0c0,0,0,0-0.001,0l-0.117,0.042l-0.011-0.021l-0.135,0.045l-0.014-0.02
			L7.839,23.94l0.027,0.037l-1.433,0.51c0.095,0.064,0.199,0.116,0.299,0.162c0.533,0.265,1.266,0.419,1.89,0.318
			c0.01-0.001,0.02-0.004,0.029-0.006c0.067-0.011,0.133-0.025,0.197-0.043l-0.022-0.043l0.027,0.04
			c0.118-0.032,0.23-0.077,0.334-0.133v-0.002c0.061-0.257,0.295-0.53,0.476-0.668c-0.005-0.002-0.01-0.007-0.016-0.008
			c-0.001-0.001-0.002-0.001-0.004-0.001c0.012,0,0.022,0,0.032-0.001c0.002-0.002,0.002-0.003,0.004-0.002c0,0,0.001,0,0.002,0.002
			c0.574-0.021,1.23-0.18,1.629-0.56c0.049-0.045,0.094-0.094,0.133-0.146v-0.46C11.094,23.278,10.656,23.481,10.183,23.481z
			 M6.838,24.35c-0.003,0-0.003,0-0.003,0C6.835,24.349,6.835,24.349,6.838,24.35c0.001-0.001,0.001-0.001,0.002-0.001
			C6.839,24.349,6.838,24.349,6.838,24.35z"/>
	</g>
</g>
<path fill="#4DD599" d="M27.807,29.774c0,0.782-0.577,1.417-1.289,1.417H3.623c-0.712,0-1.289-0.635-1.289-1.417l0,0
	c0-0.782,0.577-1.417,1.289-1.417h22.895C27.229,28.357,27.807,28.992,27.807,29.774L27.807,29.774z"/>
</svg>
