<?xml version="1.0" encoding="utf-8"?>
<!-- Generator: Adobe Illustrator 16.0.0, SVG Export Plug-In . SVG Version: 6.00 Build 0)  -->
<!DOCTYPE svg PUBLIC "-//W3C//DTD SVG 1.1//EN" "http://www.w3.org/Graphics/SVG/1.1/DTD/svg11.dtd">
<svg version="1.1" id="Capa_1" xmlns="http://www.w3.org/2000/svg" xmlns:xlink="http://www.w3.org/1999/xlink" x="0px" y="0px"
	 width="200px" height="200px" viewBox="0 0 200 200" enable-background="new 0 0 200 200" xml:space="preserve">
<path fill="#4DD599" d="M149.723,114.769c0,3.13-2.259,5.667-5.045,5.667H55.046c-2.787,0-5.046-2.537-5.046-5.667l0,0
	c0-3.13,2.259-5.667,5.046-5.667h89.632C147.464,109.102,149.723,111.639,149.723,114.769L149.723,114.769z"/>
<g>
	<rect x="103.515" y="72.834" fill="#FF7300" width="18.228" height="8.526"/>
	<path fill="#EAD5B8" d="M125.373,88.514c0.252,0.924-0.292,1.877-1.215,2.129l0,0c-0.925,0.253-1.877-0.291-2.129-1.215
		l-1.99-7.283c-0.252-0.923,0.291-1.876,1.214-2.129l0,0c0.922-0.251,1.875,0.292,2.13,1.214L125.373,88.514z"/>
	<path fill="#E5E5E5" d="M119.032,77.858v5.807l5.81,0.001v-0.001C124.842,80.458,122.241,77.858,119.032,77.858z"/>
	<path fill="#EAD5B8" d="M103.872,89.365c-0.181,0.939-1.09,1.555-2.029,1.373l0,0c-0.94-0.182-1.555-1.09-1.374-2.029l1.431-7.416
		c0.18-0.939,1.09-1.554,2.029-1.373l0,0c0.939,0.182,1.554,1.091,1.373,2.029L103.872,89.365z"/>
	<path fill="#E5E5E5" d="M106.247,77.858v5.807l-5.81,0.001v-0.001C100.438,80.458,103.039,77.858,106.247,77.858z"/>
	<path fill="#4689B6" d="M116.753,77.858c0,2.271-1.846,4.112-4.113,4.112c-2.271,0-4.112-1.841-4.112-4.112H116.753z"/>
	<path fill="#D8BB93" d="M116.753,77.858c0,2.271-1.846,4.112-4.113,4.112c-2.271,0-4.112-1.841-4.112-4.112H116.753z"/>
	<path fill="#6BB820" d="M121.123,100.665h-16.966l2.068-22.807h2.302c0,2.271,1.831,3.59,4.102,3.59
		c2.268,0,4.124-1.319,4.124-3.59h2.3L121.123,100.665z"/>
	<path fill="#EAD5B8" d="M102.102,90.775c-0.955-0.037-1.701-0.844-1.662-1.799l0,0c0.038-0.957,0.844-1.701,1.799-1.663
		l7.546,0.298c0.957,0.037,1.701,0.845,1.664,1.8l0,0c-0.039,0.956-0.846,1.702-1.801,1.663L102.102,90.775z"/>
	<path fill="#EAD5B8" d="M116.312,91.149c-0.954,0.059-1.776-0.67-1.833-1.624l0,0c-0.058-0.955,0.671-1.777,1.626-1.834
		l7.537-0.454c0.954-0.059,1.776,0.671,1.835,1.626l0,0c0.057,0.955-0.672,1.775-1.627,1.834L116.312,91.149z"/>
	<rect x="109.72" y="76.894" fill="#D8BB93" width="5.85" height="1.474"/>
	<path fill="#EFD2B2" d="M119.78,70.036c0,0.037,0,0.075-0.004,0.114c-0.01,0.608-0.103,1.198-0.27,1.767
		c-1.026,3.576-4.739,6.236-6.862,6.236c-2.166,0-5.85-2.663-6.866-6.239c-0.161-0.565-0.256-1.153-0.266-1.756
		c-0.002-0.041-0.002-0.081-0.002-0.121c0-4.483,3.193-8.118,7.134-8.118C116.584,61.918,119.78,65.553,119.78,70.036z"/>
	<path fill="#FF7300" d="M121.775,72.837c0,0.344-0.012,0.685-0.034,1.024h-3.093c0.688-1.141,1.132-2.443,1.132-3.825
		c0-0.8-0.103-1.572-0.293-2.3h-8.527l-0.396-1.638l-0.307,1.638h-1.096l-0.432-2.751l-0.54,2.751h-2.387
		c-0.19,0.728-0.292,1.5-0.292,2.3c0,1.381,0.438,2.684,1.12,3.825h-3.084c-0.022-0.339-0.032-0.68-0.032-1.024
		c0-6.713,4.088-12.158,9.13-12.158S121.775,66.124,121.775,72.837z"/>
	<circle fill="#EFD2B2" cx="119.422" cy="71" r="1.432"/>
	<circle fill="#EFD2B2" cx="105.888" cy="71" r="1.432"/>
	<path fill="#EAD5B8" d="M119.711,68.918h-14.133c0.059-0.405,0.15-0.799,0.27-1.182h2.342l0.54-2.751l0.261,1.658l0.171,1.093
		h1.096l0.307-1.638l0.396,1.638h8.527C119.589,68.119,119.662,68.513,119.711,68.918z"/>
	<path fill="#40A7AE" d="M78.424,76.687v14.347h-5.328v-9.07C73.125,79.047,75.493,76.687,78.424,76.687z"/>
	<path fill="#BFA481" d="M90.378,76.689c0,2.473-2.006,4.475-4.475,4.475c-2.472,0-4.476-2.002-4.476-4.475H90.378z"/>
	<rect x="83.967" y="79.354" fill="#CCCCCC" width="4.278" height="2.424"/>
	<path fill="#68BCBE" d="M93.796,76.687v19.932H78.423V76.687h3.006c0,2.475,2.003,4.477,4.473,4.477s4.477-2.002,4.477-4.477
		H93.796z"/>
	<circle fill="#EFD2B2" cx="79.344" cy="71.393" r="1.432"/>
	<circle fill="#EFD2B2" cx="92.868" cy="71.393" r="1.431"/>
	<polygon fill="#F2F2F2" points="86.105,79.354 83.304,82.719 80.43,76.689 81.191,75.663 	"/>
	<polygon fill="#F2F2F2" points="86.105,79.354 88.908,82.719 91.781,76.689 91.02,75.663 	"/>
	<ellipse fill="#EFD2B2" cx="86.11" cy="70.429" rx="7.144" ry="8.117"/>
	<path fill="#87553B" d="M93.786,68.828c0,0.59-0.046,1.085-0.117,1.382c-0.129-0.086-0.271-0.155-0.423-0.197
		c-0.003,0-0.003,0-0.006,0c-0.004-0.097-0.01-0.19-0.017-0.285v-0.012c-0.051-0.656-0.171-1.292-0.353-1.893h-2.318l-0.539-2.752
		l-0.43,2.752h-1.098l-0.304-1.64l-0.397,1.64h-8.446c-0.181,0.601-0.3,1.237-0.352,1.893v0.012
		c-0.007,0.094-0.013,0.188-0.017,0.285c-0.003,0-0.003,0-0.006,0c-0.152,0.042-0.293,0.11-0.424,0.197
		c-0.071-0.296-0.115-0.792-0.115-1.382c0-0.358,0.016-0.755,0.058-1.166c0.003-0.055,0.009-0.107,0.017-0.162
		c0.009-0.097,0.023-0.194,0.038-0.288c0.326-2.057,1.572-3.472,2.271-4.185c0.003-0.007,0.013-0.013,0.019-0.02
		c0.891-0.843,1.902-1.479,2.99-1.857c0.155-0.055,0.31-0.104,0.469-0.142c0.068-0.019,0.136-0.035,0.2-0.052
		c0.159-0.039,0.319-0.071,0.484-0.097c0.049-0.01,0.101-0.016,0.152-0.022c0.044-0.01,0.09-0.016,0.136-0.02
		c0.047-0.006,0.1-0.01,0.148-0.016c0.118-0.013,0.241-0.022,0.364-0.026c0.103-0.006,0.207-0.009,0.313-0.009h0.039
		c0.105,0,0.21,0.003,0.313,0.009c0.123,0.004,0.242,0.013,0.365,0.026c0.05,0.006,0.1,0.01,0.148,0.016
		c0.046,0.006,0.091,0.013,0.136,0.02c0.052,0.006,0.104,0.013,0.152,0.022c0.161,0.026,0.324,0.058,0.484,0.097
		c0.063,0.017,0.133,0.033,0.2,0.052c0.154,0.042,0.313,0.091,0.469,0.142c1.088,0.378,2.099,1.015,2.989,1.857
		c0.008,0.007,0.014,0.013,0.021,0.02c0.696,0.713,1.943,2.128,2.27,4.185c0.016,0.094,0.027,0.191,0.039,0.288
		c0.006,0.055,0.014,0.106,0.016,0.162C93.77,68.072,93.786,68.469,93.786,68.828z"/>
	<path fill="#40A7AE" d="M99.121,81.963v9.033h-5.328v-14.31C96.725,76.687,99.092,79.047,99.121,81.963z"/>
	<path fill="#EAD5B8" d="M93.139,68.994H79.078c0.031-0.203,0.066-0.405,0.117-0.603c0.019-0.102,0.045-0.199,0.07-0.294
		c0.011-0.051,0.025-0.096,0.04-0.147c0.011-0.046,0.026-0.086,0.041-0.127h8.438l0.4-1.638l0.305,1.638h1.096l0.431-2.748
		l0.537,2.748h2.321c0.087,0.305,0.163,0.608,0.224,0.928C93.113,68.832,93.129,68.912,93.139,68.994z"/>
	<polygon opacity="0.24" fill="#FFFFFF" points="82.78,85.791 81.117,88.861 79.456,85.791 81.117,82.719 	"/>
	<polygon opacity="0.24" fill="#FFFFFF" points="86.105,85.791 84.442,88.861 82.78,85.791 84.442,82.719 	"/>
	<polygon opacity="0.24" fill="#FFFFFF" points="89.43,85.791 87.767,88.861 86.105,85.791 87.767,82.719 	"/>
	<polygon opacity="0.24" fill="#FFFFFF" points="92.754,85.791 91.091,88.861 89.43,85.791 91.091,82.719 	"/>
	<polygon opacity="0.24" fill="#FFFFFF" points="82.78,91.932 81.117,95.003 79.456,91.932 81.117,88.861 	"/>
	<polygon opacity="0.24" fill="#FFFFFF" points="86.105,91.932 84.442,95.003 82.78,91.932 84.442,88.861 	"/>
	<polygon opacity="0.24" fill="#FFFFFF" points="89.43,91.932 87.767,95.003 86.105,91.932 87.767,88.861 	"/>
	<polygon opacity="0.24" fill="#FFFFFF" points="92.754,91.932 91.091,95.003 89.43,91.932 91.091,88.861 	"/>
	<path fill="#E5E5E5" d="M112.629,81.448c-0.091,0.258-0.213,0.481-0.359,0.679c-1.795,2.474-7.119,0.417-5.161-4.458
		c0.02-0.055,0.04-0.111,0.065-0.167h1.431c0.04,2.114,1.719,3.833,3.816,3.94C112.492,81.448,112.559,81.448,112.629,81.448z"/>
	<path fill="#E5E5E5" d="M112.989,82.127c-0.146-0.198-0.269-0.421-0.36-0.679c0.072,0,0.139,0,0.208-0.005
		c2.1-0.106,3.774-1.826,3.813-3.94h1.435c0.026,0.056,0.047,0.111,0.066,0.167C120.108,82.544,114.785,84.602,112.989,82.127z"/>
	<path fill="#EAD5B8" d="M112.631,88.895c-0.051,1.127,0.82,2.084,1.946,2.137l1.731,0.082c1.127,0.051,2.084-0.819,2.137-1.946l0,0
		c0.051-1.128-0.819-2.085-1.946-2.138l-1.731-0.08C113.641,86.897,112.685,87.77,112.631,88.895L112.631,88.895z"/>
	<path fill="#EAD5B8" d="M116.787,89.215c0.367,0.357,0.957,0.351,1.315-0.018l0,0c0.358-0.369,0.352-0.958-0.016-1.317
		l-1.982-1.931c-0.369-0.358-0.958-0.351-1.317,0.018l0,0c-0.359,0.367-0.351,0.958,0.017,1.316L116.787,89.215z"/>
	<path fill="#EAD5B8" d="M85.905,88.895c-0.053,1.127,0.819,2.084,1.946,2.137l1.729,0.082c1.129,0.051,2.084-0.819,2.137-1.946l0,0
		c0.052-1.128-0.818-2.085-1.946-2.138l-1.73-0.08C86.914,86.897,85.958,87.77,85.905,88.895L85.905,88.895z"/>
	<path fill="#EAD5B8" d="M90.061,89.215c0.367,0.357,0.957,0.351,1.316-0.018l0,0c0.357-0.369,0.352-0.958-0.018-1.317l-1.982-1.931
		c-0.369-0.358-0.957-0.351-1.316,0.018l0,0c-0.36,0.367-0.352,0.958,0.017,1.316L90.061,89.215z"/>
	<path fill="#EAD5B8" d="M113.589,88.895c0.052,1.127-0.818,2.084-1.946,2.137l-1.73,0.082c-1.127,0.051-2.084-0.819-2.137-1.946
		l0,0c-0.051-1.128,0.819-2.085,1.947-2.138l1.73-0.08C112.58,86.897,113.536,87.77,113.589,88.895L113.589,88.895z"/>
	<path fill="#EAD5B8" d="M109.434,89.215c-0.367,0.357-0.957,0.351-1.315-0.018l0,0c-0.359-0.369-0.352-0.958,0.016-1.317
		l1.983-1.931c0.368-0.358,0.958-0.351,1.316,0.018l0,0c0.358,0.367,0.352,0.958-0.018,1.316L109.434,89.215z"/>
	<rect x="90.378" y="86.279" fill="#49ABB0" width="8.69" height="4.84"/>
	<path fill="#EAD5B8" d="M86.259,88.895c0.053,1.127-0.818,2.084-1.945,2.137l-1.731,0.082c-1.127,0.051-2.083-0.819-2.135-1.946
		l0,0c-0.053-1.128,0.818-2.085,1.945-2.138l1.731-0.08C85.251,86.897,86.206,87.77,86.259,88.895L86.259,88.895z"/>
	<path fill="#EAD5B8" d="M82.104,89.215c-0.368,0.357-0.958,0.351-1.316-0.018l0,0c-0.359-0.369-0.352-0.958,0.016-1.317
		l1.984-1.931c0.368-0.358,0.956-0.351,1.315,0.018l0,0c0.359,0.367,0.352,0.958-0.016,1.316L82.104,89.215z"/>
	<rect x="73.096" y="86.279" fill="#49ABB0" width="8.691" height="4.84"/>
	<rect x="67.741" y="91" fill="#F9E398" width="62.656" height="2.914"/>
	<rect x="106.215" y="98.355" fill="#F9A61F" width="4.335" height="16.134"/>
	<rect x="114.673" y="98.355" fill="#F9A61F" width="4.335" height="16.134"/>
	<path fill="#6DBBC6" d="M111.554,115.836h-6.273c0-1.732,1.405-3.138,3.138-3.138C110.149,112.698,111.554,114.104,111.554,115.836
		z"/>
	<rect x="105.28" y="115.836" fill="#E2E7E7" width="6.273" height="1.465"/>
	<path fill="#6DBBC6" d="M119.976,115.836h-6.273c0-1.732,1.404-3.138,3.136-3.138C118.571,112.698,119.976,114.104,119.976,115.836
		z"/>
	<rect x="113.702" y="115.836" fill="#E2E7E7" width="6.273" height="1.465"/>
	<rect x="106.211" y="101.406" fill="#C4B9AB" width="4.345" height="3.619"/>
	<rect x="114.666" y="101.406" fill="#C4B9AB" width="4.346" height="3.619"/>
	<path fill="#77404A" d="M79.271,114.492v-11.518c0-1.865,1.513-3.379,3.38-3.379c0.932,0,1.776,0.379,2.387,0.989
		c0.609,0.614,0.987,1.456,0.987,2.39v11.518H79.271z"/>
	<path fill="#77404A" d="M86.498,114.492v-11.518c0-1.865,1.511-3.379,3.378-3.379c0.931,0,1.776,0.38,2.387,0.989
		c0.609,0.614,0.989,1.456,0.989,2.392v11.516H86.498z"/>
	<path fill="#38A598" d="M93.012,115.854h-6.275c0-1.733,1.406-3.138,3.138-3.138C91.606,112.717,93.012,114.121,93.012,115.854z"/>
	<rect x="86.736" y="115.854" fill="#E8E8E8" width="6.275" height="1.465"/>
	<path fill="#38A598" d="M85.785,115.854h-6.273c0-1.733,1.405-3.138,3.137-3.138C84.381,112.717,85.785,114.121,85.785,115.854z"/>
	<rect x="71.944" y="93.914" fill="#DAC382" width="53.961" height="11.111"/>
	<rect x="79.512" y="115.854" fill="#E8E8E8" width="6.273" height="1.465"/>
	<rect x="72.9" y="105.025" fill="#A3D9E0" width="1.915" height="9.744"/>
	<rect x="72.591" y="114.77" fill="#5B77A5" width="2.535" height="2.535"/>
	<rect x="123.189" y="105.025" fill="#A3D9E0" width="1.915" height="9.744"/>
	<rect x="122.881" y="114.77" fill="#5B77A5" width="2.535" height="2.535"/>
	<rect x="71.944" y="93.914" opacity="0.51" fill="#B3B3B3" width="53.961" height="4.441"/>
</g>
</svg>
