<?xml version="1.0" encoding="utf-8"?>
<!-- Generator: Adobe Illustrator 16.0.0, SVG Export Plug-In . SVG Version: 6.00 Build 0)  -->
<!DOCTYPE svg PUBLIC "-//W3C//DTD SVG 1.1//EN" "http://www.w3.org/Graphics/SVG/1.1/DTD/svg11.dtd">
<svg version="1.1" id="Capa_1" xmlns="http://www.w3.org/2000/svg" xmlns:xlink="http://www.w3.org/1999/xlink" x="0px" y="0px"
	 width="68.703px" height="49.324px" viewBox="0 0 68.703 49.324" enable-background="new 0 0 68.703 49.324" xml:space="preserve">
<path fill="#5454E2" d="M55.193,32.233c0,1.174-1.509,2.125-3.37,2.125H8.206c-1.861,0-3.371-0.952-3.371-2.125l0,0
	c0-1.174,1.509-2.125,3.371-2.125h43.617C53.685,30.108,55.193,31.059,55.193,32.233L55.193,32.233z"/>
<g>
	<path fill="#111111" d="M40.752,23.033c-0.013-2.443-0.003-4.901-0.009-7.329v-3.704h-0.45v2.392h-0.01
		c0.008,2.566,0.02,5.135,0.005,7.707c-0.002,0.306-0.127,0.602-0.209,0.973c0.047,0.094,0.181,0.24,0.181,0.385
		c0,0.25-0.117,0.5-0.123,0.751c-0.02,0.769,0.003,1.538-0.016,2.306c-0.011,0.417-0.277,0.768-0.726,0.84
		c-0.343,0.055-0.795-0.031-1.085-0.199c-0.374-0.216-0.502-0.61-0.279-1.004c0.148-0.261,0.097-0.481-0.222-0.524
		c-0.14-0.018-0.407,0.178-0.47,0.324c-0.269,0.618-0.134,1.202,0.417,1.665c0.564,0.474,1.25,0.594,1.986,0.329
		c0.711-0.257,1.115-0.742,1.111-1.407C40.845,25.367,40.757,24.205,40.752,23.033z"/>
	<path fill="#111111" d="M40.721,3.638c-0.017-0.733,0.009-1.467-0.017-2.2C40.699,1.29,40.544,1.146,40.459,1
		c-0.086,0.141-0.244,0.28-0.249,0.423c-0.025,0.771-0.01,1.542-0.015,2.313c0,0.323-0.121,0.532-0.45,0.617c0,0,0,0,0,0
		c0.036,0.019,0.077,0.038,0.124,0.056c0.056,0.022,0.121,0.042,0.195,0.059c0,0,0,0,0.001,0c0.002,0,0.003,0,0.005,0h0.001
		c0.002,0,0.005,0.002,0.008,0.002c0,0,0,0.001-0.001,0.001c0.05,0.01,0.115,0.019,0.17,0.026C40.26,4.5,40.271,4.501,40.28,4.502
		c0.02,0.002,0.038,0.004,0.051,0.006l0.168,0.008c0.013,0,0.027,0,0.04-0.001l0.155-0.011c0.003,0,0.007,0,0.011,0l0.084-0.009
		c0.125-0.014,0.262-0.036,0.41-0.068c0.063-0.014,0.128-0.03,0.196-0.048C40.857,4.323,40.73,4.042,40.721,3.638z"/>
	<path fill="#0A3542" d="M39.872,4.41c0,0-0.002,0.001-0.003,0.001c-2.148,0.636-3.764,1.682-4.978,2.892
		c-0.152,0.151-0.298,0.305-0.437,0.46c-0.105,0.117-0.206,0.235-0.304,0.354c-0.065,0.08-0.128,0.16-0.191,0.24
		c-0.094,0.12-0.184,0.241-0.271,0.363c-0.058,0.082-0.115,0.163-0.17,0.244c-0.028,0.041-0.056,0.082-0.083,0.123
		c-0.081,0.123-0.16,0.246-0.235,0.37c-0.05,0.083-0.1,0.165-0.147,0.248c-0.024,0.042-0.047,0.083-0.071,0.124
		c-0.046,0.083-0.091,0.165-0.136,0.248c-0.045,0.082-0.088,0.165-0.129,0.247c-0.083,0.165-0.145,0.329-0.219,0.493
		c-1.234,2.707-1.249,5.17-1.249,5.226v0.001c0-0.001-0.019-0.001-0.019-0.001c-0.348-0.879-0.954-1.486-2.009-1.61
		c-1.035-0.122-1.796,0.305-2.446,1.149c0.241-2.603,1.198-4.8,2.973-6.703c2.51-2.693,5.777-4.195,9.769-4.487
		c0.087-0.006,0.164-0.018,0.231-0.036c0.001,0,0.002,0,0.002,0C39.784,4.374,39.825,4.392,39.872,4.41z"/>
	<path fill="#7895A4" d="M40.082,4.482c-0.001,0-0.001-0.005-0.002-0.005c-0.001,0.001-0.004,0-0.005,0
		c-3.401,2.805-4.079,8.771-4.211,10.872c-0.006,0.099-0.011,0.189-0.016,0.27c-0.004,0.101-0.008,0.188-0.011,0.258
		c0,0.012,0,0.022-0.001,0.033c-0.002,0.091-0.003,0.15-0.003,0.175c-0.414-1.064-1.13-1.7-2.434-1.663
		c-0.985,0.028-1.708,0.522-2.151,1.62v0.001l0,0c0,0,0,0,0-0.001c0-0.067,0.016-2.525,1.249-5.226
		c0.074-0.164,0.144-0.328,0.228-0.493c0.042-0.082,0.081-0.165,0.125-0.247c0.044-0.083,0.087-0.165,0.134-0.248
		c0.023-0.042,0.045-0.083,0.069-0.124c0.048-0.083,0.097-0.165,0.147-0.248c0.075-0.124,0.153-0.247,0.235-0.37
		c0.027-0.042,0.055-0.082,0.083-0.123c0.056-0.082,0.112-0.163,0.17-0.244c0.087-0.122,0.178-0.243,0.271-0.363
		c0.062-0.08,0.126-0.16,0.191-0.24c0.098-0.119,0.199-0.237,0.304-0.354c0.139-0.156,0.285-0.31,0.437-0.46
		c1.214-1.21,2.83-2.255,4.978-2.892c0.001,0,0.003,0.009,0.003,0.009c0.056,0.021,0.121,0.023,0.195,0.068c0,0,0,0,0.001,0
		c0.001,0,0.003,0,0.005,0h0.001C40.076,4.489,40.079,4.481,40.082,4.482z"/>
	<path fill="#0A3542" d="M49.676,16.078c-0.547-1.186-1.255-1.676-2.363-1.662c-1.055,0.012-1.783,0.528-2.253,1.625
		c0.001-0.106,0.032-5.77-4.271-11.545c0.125-0.014,0.262-0.036,0.411-0.069C50.778,7.982,49.676,16.078,49.676,16.078z"/>
	<path fill="#7895A4" d="M54.438,16.271c-0.46-1.167-1.219-1.969-2.747-1.836c-1.101,0.096-1.711,0.73-2.015,1.643
		c0,0,1.043-7.941-8.476-11.65c0.063-0.014,0.128-0.03,0.195-0.048c0.036,0.004,0.074,0.006,0.113,0.008
		c5.881,0.249,11.125,4.004,12.498,8.964C54.267,14.293,54.364,15.268,54.438,16.271z"/>
	<path fill="#0A3542" d="M40.332,4.508c0,0,0.22,11.78,0.179,11.66c-0.098-0.291-0.334-0.731-0.693-1.039
		c-0.618-0.531-1.269-0.849-2.318-0.645c-0.903,0.175-1.398,0.776-1.663,1.608c0,0-0.002,0.002-0.003,0.002c0,0-0.011,0-0.012,0
		c-0.001,0.001-0.013,0.001-0.013,0.002c0,0,0-0.001,0-0.004v-0.009c0-0.025,0.013-0.085,0.016-0.175
		c0.001-0.01,0.006-0.021,0.007-0.033c0.002-0.071,0.009-0.158,0.014-0.259c0.004-0.082,0.01-0.161,0.017-0.261
		c0.129-2.098,0.801-8.059,4.205-10.868c0,0,0,0,0.001,0c0.001,0,0.127,0.012,0.183,0.019c0.011,0.002,0.021-0.001,0.031-0.001
		C40.301,4.51,40.319,4.507,40.332,4.508z"/>
	<path fill="#7895A4" d="M40.798,4.496l-0.459,0.012c0,0,0.165,0.007,0,0l0.175,11.66c0,0,0.115-0.619,0.588-1.047
		c0.789-0.713,2.482-1.244,3.689,0.394c0.113,0.154,0.156,0.331,0.287,0.528c0,0,0-0.001,0-0.002
		C45.078,15.935,45.101,10.271,40.798,4.496z"/>
</g>
<g>
	<path fill="#F6BA2E" d="M22.736,16.026c0,0,2.485-2.012,3.732,0.865c1.014,2.337,0.003,4.505-1.408,5.736
		c-1.29,1.125-2.968,3.278-3.396,4.416c0,0-0.183-3.369,0.428-3.733c0.612-0.364,2.931-2.067,3.387-3.154
		c0.459-1.092,0.312-2.807-0.82-3.125c-1.132-0.318-2.261,1.727-2.352,3.912c-0.092,2.185-1.163-2.094-1.071-2.14
		C21.328,18.758,22.736,16.026,22.736,16.026z"/>
	<path fill="#CCE2A1" d="M16.969,12.475c0.755-0.013,5.777-0.147,6.178,1.822c0,0-0.312,8.694-1.042,11.745
		c-0.718,3.003-2.214,4.194-5.077,4.229v0.003c-0.021,0-0.04-0.002-0.06-0.002s-0.039,0.002-0.06,0.002v-0.003
		c-2.863-0.036-4.359-1.227-5.077-4.229c-0.729-3.051-1.042-11.745-1.042-11.745C11.191,12.327,16.213,12.461,16.969,12.475z"/>
	<ellipse fill="#F06E59" cx="16.978" cy="14.327" rx="6.136" ry="2.15"/>
</g>
</svg>
