<?xml version="1.0" encoding="utf-8"?>
<!-- Generator: Adobe Illustrator 16.0.0, SVG Export Plug-In . SVG Version: 6.00 Build 0)  -->
<!DOCTYPE svg PUBLIC "-//W3C//DTD SVG 1.1//EN" "http://www.w3.org/Graphics/SVG/1.1/DTD/svg11.dtd">
<svg version="1.1" id="Capa_1" xmlns="http://www.w3.org/2000/svg" xmlns:xlink="http://www.w3.org/1999/xlink" x="0px" y="0px"
	 width="61.946px" height="55.148px" viewBox="0 0 61.946 55.148" enable-background="new 0 0 61.946 55.148" xml:space="preserve">
<g>
	<path fill="#B9D034" d="M11.114,25.362c0,0-2.113-0.286-2.455-0.234c0,0,0.845-1.233,1.136-1.117c0,0-1.859-1.795-2.15-1.911
		c0,0,0.918-0.719,1.512-0.272c0,0-1.086-2.366-0.977-3.262c0,0,1.105,0.063,1.608,0.904c0,0-0.279-1.704,0.02-2.148
		c0,0,1.146,0.966,1.525,2.178c0,0,0.33-0.702,0.67-1.219c0,0,1.399,2.21,1.295,4.192c0,0,0.15-0.253,0.37-0.649
		c0,0,0.505,0.909-0.08,2.168l-0.613,2.254L11.114,25.362z"/>
	<g>
		<path fill="#FFD161" d="M17.579,30.56L17.575,30.7c-0.012,0.339-0.059,0.661-0.146,0.964l-0.035,0.114
			c-0.091,0.28-0.219,0.542-0.388,0.781L16.94,32.65c-0.176,0.229-0.392,0.437-0.653,0.621l-0.102,0.069
			c-0.2,0.13-0.425,0.247-0.678,0.349c-0.047,0.019-0.095,0.037-0.143,0.054c-0.044,0.015-0.088,0.028-0.132,0.041
			c-0.024,0.007-0.048,0.014-0.072,0.02c-0.058,0.015-0.116,0.028-0.173,0.038c-0.236,0.045-0.471,0.055-0.701,0.033l-0.106-0.013
			c-0.27-0.037-0.534-0.119-0.788-0.24l-0.093-0.047c-0.242-0.125-0.474-0.287-0.694-0.481l-0.084-0.077
			c-0.088-0.082-0.174-0.17-0.258-0.264c-0.047-0.052-0.093-0.106-0.139-0.161c-0.076-0.093-0.149-0.19-0.221-0.291
			c-0.025-0.035-0.05-0.071-0.074-0.107c-0.171-0.254-0.327-0.533-0.465-0.832c-0.02-0.044-0.04-0.088-0.059-0.133
			c-0.002-0.005-0.004-0.009-0.006-0.014c-0.021-0.047-0.041-0.096-0.06-0.144c-0.081-0.2-0.155-0.408-0.22-0.624
			c-0.033-0.109-0.063-0.218-0.091-0.327c-0.011-0.042-0.021-0.083-0.031-0.125c-0.02-0.081-0.037-0.162-0.053-0.243
			c-0.014-0.064-0.026-0.128-0.037-0.191c-0.037-0.209-0.065-0.418-0.083-0.624c0-0.005,0-0.01-0.001-0.016
			c-0.001-0.014-0.002-0.028-0.003-0.042c0-0.006-0.001-0.013-0.001-0.019c0-0.007-0.001-0.013-0.001-0.021
			c0-0.008-0.001-0.015-0.002-0.022c-0.024-0.35-0.02-0.692,0.013-1.021c0.003-0.04,0.007-0.078,0.012-0.117
			c0.002-0.017,0.004-0.034,0.006-0.051c0.002-0.017,0.005-0.034,0.007-0.051c0.017-0.122,0.038-0.242,0.064-0.359
			c0.038-0.181,0.086-0.356,0.144-0.524L11,26.582c0.128-0.342,0.298-0.655,0.509-0.93l0.082-0.103
			c0.143-0.171,0.303-0.326,0.48-0.462l0,0c0.078-0.06,0.159-0.116,0.243-0.168c0.095-0.059,0.193-0.113,0.295-0.161
			c0.056-0.027,0.113-0.052,0.171-0.076c0,0,0.001,0,0.002,0c0.341-0.138,0.675-0.2,0.999-0.195c0.044,0,0.089,0.002,0.133,0.005
			c0.339,0.024,0.665,0.122,0.974,0.283l0.096,0.053c0.26,0.149,0.507,0.344,0.737,0.579l0.076,0.079
			c0.164,0.176,0.319,0.372,0.463,0.587c0.04,0.058,0.078,0.117,0.115,0.177c0.006,0.01,0.012,0.019,0.018,0.029
			c0.014,0.022,0.028,0.045,0.042,0.068c0.167,0.281,0.319,0.587,0.453,0.916c0.015,0.038,0.03,0.076,0.045,0.115
			c0.049,0.126,0.096,0.256,0.14,0.388c0.019,0.058,0.038,0.116,0.055,0.174c0.004,0.012,0.008,0.023,0.011,0.035
			c0.048,0.158,0.092,0.314,0.134,0.47c0.011,0.044,0.023,0.088,0.034,0.132c0.057,0.226,0.106,0.449,0.146,0.668
			c0.01,0.054,0.02,0.108,0.028,0.162c0.022,0.136,0.041,0.27,0.056,0.403c0.006,0.053,0.012,0.107,0.016,0.16
			C17.572,30.17,17.581,30.368,17.579,30.56z"/>
		<path fill="#C78E3A" d="M12.781,24.681c0.223,0.061,0.455,0.129,0.693,0.204c0.036,0.011,0.072,0.023,0.109,0.035
			c0.298,0.097,0.605,0.206,0.919,0.329c0.035,0.014,0.07,0.028,0.105,0.042c0.292,0.117,0.588,0.246,0.886,0.387
			c0.034,0.016,0.067,0.032,0.101,0.048c0.222,0.108,0.445,0.223,0.667,0.346c0.04,0.058,0.078,0.117,0.115,0.177
			c0.006,0.01,0.012,0.019,0.018,0.029c-0.01-0.006-0.019-0.011-0.029-0.017c-0.282-0.161-0.564-0.309-0.846-0.444
			c-0.034-0.017-0.067-0.033-0.101-0.048c-0.298-0.141-0.594-0.269-0.886-0.384c-0.035-0.014-0.07-0.028-0.104-0.041
			c-0.314-0.122-0.621-0.23-0.919-0.325c-0.036-0.012-0.072-0.023-0.108-0.035c-0.273-0.086-0.538-0.161-0.791-0.227L12.781,24.681z
			"/>
		<path fill="#C78E3A" d="M17.128,27.939c-0.14-0.097-0.282-0.189-0.424-0.278c-0.031-0.019-0.061-0.039-0.092-0.057
			c-0.27-0.167-0.543-0.321-0.816-0.463c-0.033-0.017-0.065-0.034-0.098-0.05c-0.286-0.147-0.572-0.281-0.855-0.403
			c-0.034-0.015-0.068-0.029-0.102-0.043c-0.3-0.127-0.598-0.243-0.888-0.345c-0.035-0.013-0.07-0.025-0.105-0.037
			c-0.314-0.109-0.621-0.205-0.914-0.288c-0.036-0.01-0.072-0.021-0.108-0.03c-0.331-0.092-0.645-0.168-0.934-0.231
			c-0.037-0.009-0.074-0.017-0.11-0.024c-0.059-0.013-0.117-0.024-0.174-0.036c0.027-0.035,0.054-0.069,0.082-0.103
			c0.051,0.011,0.104,0.022,0.158,0.034c0.037,0.007,0.073,0.016,0.111,0.024c0.291,0.064,0.605,0.142,0.936,0.234
			c0.036,0.01,0.072,0.02,0.108,0.031c0.293,0.084,0.6,0.181,0.915,0.291c0.035,0.012,0.07,0.025,0.105,0.038
			c0.291,0.104,0.588,0.219,0.889,0.348c0.034,0.015,0.067,0.029,0.101,0.043c0.284,0.124,0.57,0.259,0.856,0.407
			c0.033,0.016,0.065,0.033,0.098,0.05c0.273,0.144,0.546,0.299,0.817,0.466c0.031,0.019,0.062,0.038,0.092,0.058
			c0.099,0.063,0.199,0.127,0.297,0.193C17.092,27.823,17.111,27.881,17.128,27.939z"/>
		<path fill="#C78E3A" d="M17.481,29.407c-0.171-0.13-0.345-0.255-0.52-0.374c-0.03-0.021-0.06-0.041-0.09-0.061
			c-0.261-0.174-0.524-0.335-0.789-0.485c-0.031-0.018-0.063-0.035-0.094-0.053c-0.275-0.154-0.552-0.294-0.827-0.424
			c-0.032-0.016-0.065-0.031-0.098-0.046c-0.289-0.134-0.576-0.256-0.858-0.366c-0.034-0.013-0.068-0.026-0.102-0.039
			c-0.301-0.116-0.597-0.219-0.883-0.31c-0.035-0.011-0.07-0.022-0.104-0.033c-0.314-0.098-0.617-0.182-0.903-0.255
			c-0.036-0.009-0.072-0.018-0.107-0.026c-0.332-0.082-0.639-0.146-0.916-0.199c-0.037-0.007-0.074-0.014-0.109-0.02
			c-0.041-0.008-0.082-0.015-0.122-0.022c0.013-0.038,0.026-0.075,0.041-0.112c0.046,0.008,0.093,0.017,0.141,0.025
			c0.036,0.006,0.072,0.013,0.109,0.021c0.278,0.054,0.587,0.12,0.918,0.202c0.036,0.009,0.072,0.018,0.108,0.027
			c0.287,0.073,0.589,0.158,0.904,0.257c0.035,0.011,0.069,0.021,0.105,0.033c0.287,0.093,0.583,0.196,0.885,0.313
			c0.034,0.013,0.068,0.026,0.102,0.04c0.283,0.111,0.569,0.233,0.859,0.368c0.032,0.015,0.065,0.031,0.098,0.046
			c0.275,0.13,0.551,0.272,0.827,0.427c0.031,0.017,0.063,0.035,0.094,0.053c0.265,0.151,0.528,0.313,0.789,0.487
			c0.03,0.02,0.06,0.041,0.089,0.06c0.142,0.098,0.284,0.198,0.424,0.304C17.463,29.299,17.473,29.353,17.481,29.407z"/>
		<path fill="#C78E3A" d="M17.579,30.56L17.575,30.7c-0.115-0.091-0.231-0.181-0.348-0.268c-0.028-0.021-0.057-0.042-0.086-0.063
			c-0.25-0.182-0.504-0.351-0.761-0.51c-0.031-0.019-0.061-0.038-0.091-0.056c-0.265-0.161-0.532-0.31-0.798-0.448
			c-0.031-0.017-0.063-0.033-0.095-0.048c-0.278-0.142-0.555-0.271-0.829-0.389c-0.033-0.014-0.066-0.028-0.099-0.042
			c-0.29-0.123-0.575-0.233-0.854-0.332c-0.034-0.013-0.068-0.024-0.102-0.036c-0.3-0.104-0.592-0.197-0.872-0.277
			c-0.036-0.01-0.07-0.02-0.105-0.029c-0.312-0.088-0.608-0.162-0.885-0.225c-0.036-0.008-0.078-0.016-0.113-0.023
			c-0.278-0.061-0.544-0.11-0.77-0.149v0c0-0.002-0.03-0.006-0.048-0.009c0.004-0.04,0.001-0.078,0.006-0.117
			c0.016,0.003,0.042,0.006,0.042,0.008v0c0.3,0.041,0.525,0.093,0.822,0.159c0.035,0.008,0.076,0.016,0.111,0.024
			c0.278,0.063,0.578,0.138,0.89,0.227c0.034,0.01,0.071,0.02,0.105,0.03c0.281,0.082,0.575,0.174,0.875,0.28
			c0.034,0.012,0.068,0.024,0.102,0.036c0.28,0.1,0.566,0.211,0.856,0.334c0.033,0.014,0.066,0.029,0.099,0.043
			c0.275,0.119,0.552,0.249,0.83,0.39c0.032,0.017,0.063,0.033,0.095,0.049c0.267,0.139,0.534,0.288,0.799,0.45
			c0.03,0.019,0.061,0.038,0.091,0.056c0.256,0.159,0.511,0.329,0.761,0.512c0.029,0.021,0.057,0.042,0.086,0.063
			C17.388,30.411,17.483,30.484,17.579,30.56z"/>
		<path fill="#C78E3A" d="M17.429,31.664l-0.035,0.114c-0.232-0.184-0.469-0.356-0.708-0.518c-0.03-0.021-0.059-0.04-0.088-0.059
			c-0.255-0.169-0.512-0.327-0.771-0.473c-0.031-0.018-0.062-0.035-0.093-0.052c-0.267-0.148-0.534-0.286-0.801-0.412
			c-0.032-0.015-0.064-0.031-0.096-0.045c-0.277-0.129-0.553-0.247-0.825-0.355c-0.033-0.013-0.066-0.026-0.1-0.039
			c-0.287-0.112-0.569-0.211-0.843-0.301c-0.034-0.011-0.067-0.022-0.101-0.033c-0.296-0.094-0.583-0.176-0.855-0.248
			c-0.035-0.009-0.069-0.019-0.104-0.027c-0.307-0.078-0.596-0.143-0.86-0.197c-0.036-0.007-0.07-0.014-0.105-0.021
			c-0.111-0.022-0.218-0.042-0.32-0.06c-0.002-0.02-0.003-0.041-0.005-0.06c-0.001-0.021-0.003-0.007-0.005-0.065
			c0.001,0,0.001,0,0.001,0c0.002,0,0.005,0.003,0.007,0.004c0.001,0,0.002,0.001,0.003,0.001c0.116,0.021,0.239,0.044,0.368,0.07
			c0.035,0.007,0.07,0.014,0.105,0.021c0.266,0.055,0.556,0.121,0.863,0.2c0.034,0.009,0.069,0.018,0.104,0.027
			c0.274,0.073,0.561,0.155,0.858,0.25c0.033,0.011,0.067,0.021,0.101,0.033c0.275,0.09,0.557,0.19,0.845,0.303
			c0.033,0.013,0.066,0.026,0.099,0.04c0.272,0.108,0.549,0.227,0.827,0.357c0.032,0.015,0.064,0.03,0.096,0.045
			c0.267,0.127,0.535,0.265,0.802,0.415c0.031,0.017,0.062,0.034,0.093,0.052c0.259,0.146,0.517,0.305,0.771,0.474
			c0.03,0.02,0.059,0.04,0.089,0.059C16.977,31.321,17.205,31.487,17.429,31.664z"/>
		<path fill="#C78E3A" d="M17.007,32.56L16.94,32.65c-0.252-0.186-0.509-0.359-0.769-0.521c-0.029-0.019-0.06-0.037-0.089-0.056
			c-0.257-0.157-0.515-0.303-0.773-0.439c-0.031-0.016-0.063-0.032-0.094-0.048c-0.267-0.137-0.533-0.264-0.797-0.379
			c-0.032-0.015-0.064-0.029-0.097-0.042c-0.275-0.119-0.548-0.227-0.814-0.325c-0.033-0.012-0.066-0.024-0.099-0.036
			c-0.283-0.102-0.559-0.192-0.826-0.273c-0.034-0.01-0.067-0.021-0.101-0.03c-0.29-0.085-0.567-0.159-0.83-0.223
			c-0.035-0.008-0.069-0.016-0.103-0.024c-0.219-0.052-0.426-0.096-0.62-0.134c-0.011-0.042-0.021-0.083-0.031-0.125
			c0.215,0.042,0.449,0.091,0.696,0.149c0.034,0.008,0.068,0.016,0.103,0.025c0.264,0.064,0.543,0.138,0.834,0.225
			c0.034,0.01,0.067,0.02,0.101,0.03c0.268,0.081,0.545,0.172,0.829,0.274c0.033,0.012,0.066,0.023,0.099,0.036
			c0.268,0.099,0.542,0.208,0.817,0.327c0.032,0.014,0.064,0.028,0.096,0.042c0.265,0.117,0.532,0.244,0.799,0.382
			c0.031,0.016,0.063,0.032,0.094,0.049c0.258,0.136,0.518,0.282,0.774,0.44c0.03,0.019,0.061,0.037,0.09,0.055
			C16.49,32.195,16.751,32.371,17.007,32.56z"/>
		<path fill="#C78E3A" d="M16.288,33.271l-0.102,0.069c-0.163-0.105-0.327-0.206-0.492-0.301c-0.03-0.018-0.061-0.035-0.091-0.053
			c-0.256-0.146-0.513-0.281-0.769-0.407c-0.032-0.015-0.063-0.03-0.094-0.046c-0.265-0.126-0.527-0.243-0.787-0.35
			c-0.032-0.014-0.064-0.026-0.097-0.04c-0.271-0.109-0.537-0.208-0.797-0.297c-0.033-0.011-0.066-0.022-0.099-0.033
			c-0.276-0.092-0.544-0.175-0.802-0.247c-0.034-0.01-0.067-0.02-0.101-0.028c-0.241-0.066-0.473-0.125-0.693-0.175
			c-0.02-0.044-0.04-0.088-0.059-0.133c0.25,0.057,0.515,0.122,0.793,0.199c0.034,0.009,0.067,0.019,0.101,0.028
			c0.259,0.073,0.528,0.156,0.805,0.249c0.033,0.011,0.066,0.022,0.099,0.034c0.261,0.09,0.528,0.189,0.8,0.299
			c0.032,0.013,0.064,0.026,0.097,0.039c0.261,0.108,0.524,0.225,0.789,0.352c0.032,0.016,0.063,0.031,0.094,0.046
			c0.257,0.125,0.514,0.261,0.771,0.408c0.03,0.017,0.061,0.035,0.091,0.053C15.927,33.043,16.108,33.154,16.288,33.271z"/>
		<path fill="#C78E3A" d="M15.161,33.804c-0.058,0.015-0.116,0.028-0.173,0.038c-0.193-0.1-0.386-0.194-0.579-0.283
			c-0.032-0.015-0.063-0.029-0.095-0.043c-0.259-0.117-0.516-0.225-0.769-0.323c-0.033-0.013-0.065-0.025-0.097-0.038
			c-0.263-0.1-0.522-0.191-0.773-0.273c-0.033-0.01-0.066-0.021-0.099-0.032c-0.105-0.033-0.209-0.065-0.313-0.096
			c-0.047-0.052-0.093-0.106-0.139-0.161c0.16,0.045,0.322,0.094,0.488,0.147c0.033,0.01,0.066,0.021,0.099,0.032
			c0.253,0.082,0.513,0.173,0.777,0.274c0.032,0.012,0.064,0.025,0.097,0.037c0.254,0.099,0.512,0.208,0.772,0.325
			c0.031,0.015,0.063,0.029,0.095,0.044C14.688,33.561,14.924,33.678,15.161,33.804z"/>
		<path fill="#C78E3A" d="M10.816,27.218L10.79,27.48l-0.022,0.207v0v0.117v0l-0.052,1.013v0.062
			c-0.001-0.021-0.001-0.042-0.003-0.063c-0.024-0.35-0.02-0.692,0.013-1.021c0.003-0.04,0.008-0.078,0.013-0.117
			c0.003-0.034,0.008-0.068,0.013-0.102C10.769,27.455,10.79,27.335,10.816,27.218z"/>
		<path fill="#C78E3A" d="M12.315,24.918c-0.149,0.217-0.302,0.447-0.455,0.689c-0.022,0.035-0.044,0.07-0.066,0.105
			c-0.182,0.289-0.363,0.595-0.543,0.916c-0.02,0.036-0.04,0.072-0.06,0.108c-0.149,0.271-0.296,0.551-0.439,0.841
			c0.017-0.122,0.038-0.242,0.064-0.359c0.087-0.171,0.176-0.338,0.266-0.502c0.02-0.037,0.04-0.073,0.06-0.108
			c0.179-0.322,0.36-0.629,0.542-0.919c0.022-0.036,0.044-0.07,0.066-0.105c0.108-0.171,0.216-0.337,0.322-0.496l0,0L12.315,24.918z
			"/>
		<path fill="#C78E3A" d="M13.915,24.491c-0.105,0.132-0.216,0.275-0.332,0.429c-0.024,0.032-0.049,0.065-0.074,0.099
			c-0.192,0.258-0.396,0.544-0.605,0.854c-0.023,0.034-0.046,0.067-0.068,0.102c-0.185,0.276-0.372,0.571-0.559,0.884
			c-0.021,0.034-0.042,0.069-0.063,0.104c-0.171,0.29-0.342,0.593-0.508,0.91c-0.019,0.036-0.037,0.071-0.056,0.107
			c-0.155,0.299-0.306,0.61-0.451,0.931c-0.017,0.037-0.033,0.073-0.049,0.11c-0.106,0.239-0.208,0.484-0.306,0.734
			c-0.014-0.064-0.026-0.128-0.037-0.191c0.077-0.191,0.156-0.379,0.237-0.564c0.017-0.037,0.033-0.073,0.049-0.11
			c0.145-0.322,0.295-0.633,0.451-0.934v0c0.019-0.036,0.037-0.072,0.056-0.107c0.166-0.317,0.336-0.622,0.507-0.912
			c0.021-0.035,0.041-0.07,0.062-0.105c0.187-0.313,0.375-0.609,0.559-0.886c0.023-0.035,0.045-0.069,0.068-0.103
			c0.209-0.311,0.413-0.598,0.605-0.857c0.024-0.034,0.049-0.066,0.073-0.099c0.106-0.142,0.209-0.275,0.308-0.4
			C13.826,24.485,13.871,24.487,13.915,24.491z"/>
		<path fill="#C78E3A" d="M14.984,24.827c-0.113,0.135-0.24,0.29-0.377,0.463c-0.024,0.031-0.05,0.063-0.075,0.095
			c-0.188,0.241-0.394,0.514-0.609,0.816c-0.022,0.032-0.046,0.064-0.069,0.098c-0.185,0.262-0.376,0.546-0.568,0.849
			c-0.021,0.034-0.043,0.068-0.064,0.102c-0.175,0.278-0.35,0.571-0.524,0.879c-0.02,0.034-0.039,0.069-0.058,0.104
			c-0.162,0.29-0.32,0.591-0.474,0.904c-0.018,0.036-0.035,0.071-0.052,0.107c-0.145,0.299-0.285,0.609-0.418,0.927
			c-0.015,0.036-0.03,0.073-0.044,0.109c-0.125,0.304-0.243,0.617-0.352,0.937c-0.021-0.047-0.041-0.096-0.06-0.144
			c0.097-0.278,0.2-0.551,0.309-0.817c0.015-0.037,0.03-0.073,0.045-0.109c0.132-0.319,0.276-0.629,0.421-0.93
			c0.017-0.036,0.031-0.071,0.056-0.106v-0.004h-0.008c0.153-0.292,0.312-0.614,0.473-0.904c0.02-0.035,0.039-0.069,0.059-0.104
			c0.172-0.308,0.349-0.603,0.523-0.881c0.021-0.034,0.042-0.068,0.064-0.102c0.193-0.303,0.384-0.589,0.568-0.853
			c0.023-0.033,0.047-0.066,0.069-0.099c0.215-0.303,0.42-0.577,0.609-0.819c0.025-0.032,0.05-0.064,0.074-0.095
			c0.14-0.177,0.269-0.335,0.386-0.475L14.984,24.827z"/>
		<path fill="#C78E3A" d="M15.797,25.484c-0.063,0.073-0.131,0.154-0.204,0.241c-0.024,0.03-0.049,0.06-0.075,0.092
			c-0.181,0.22-0.385,0.479-0.605,0.774c-0.023,0.031-0.046,0.063-0.07,0.095c-0.183,0.248-0.375,0.52-0.571,0.813
			c-0.022,0.032-0.044,0.065-0.066,0.098c-0.176,0.265-0.354,0.548-0.533,0.845c-0.02,0.034-0.04,0.068-0.06,0.102
			c-0.165,0.279-0.329,0.57-0.489,0.875c-0.018,0.034-0.036,0.069-0.055,0.104c-0.15,0.29-0.298,0.59-0.439,0.901
			c-0.016,0.036-0.032,0.071-0.048,0.106c-0.134,0.3-0.263,0.608-0.383,0.925c-0.014,0.036-0.028,0.073-0.041,0.109
			c-0.09,0.241-0.175,0.486-0.255,0.736c-0.025-0.035-0.05-0.071-0.074-0.107c0.072-0.222,0.148-0.441,0.228-0.657
			c0.014-0.037,0.027-0.073,0.041-0.109c0.121-0.317,0.249-0.626,0.382-0.927c0.016-0.036,0.033-0.072,0.048-0.107
			c0.141-0.311,0.288-0.613,0.439-0.904c0.018-0.035,0.036-0.069,0.055-0.104c0.16-0.305,0.324-0.598,0.488-0.877
			c0.021-0.034,0.041-0.068,0.061-0.102c0.178-0.299,0.357-0.582,0.533-0.849c0.022-0.034,0.044-0.066,0.066-0.099
			c0.196-0.294,0.389-0.567,0.571-0.816c0.023-0.032,0.047-0.064,0.07-0.095c0.219-0.295,0.424-0.556,0.606-0.779
			c0.025-0.032,0.05-0.063,0.075-0.092c0.082-0.1,0.159-0.19,0.229-0.271L15.797,25.484z"/>
		<path fill="#C78E3A" d="M16.435,26.346c-0.164,0.192-0.356,0.428-0.568,0.702c-0.023,0.03-0.047,0.061-0.071,0.092
			c-0.179,0.232-0.369,0.491-0.566,0.774c-0.022,0.031-0.044,0.063-0.067,0.096c-0.174,0.252-0.354,0.522-0.535,0.81
			c-0.021,0.033-0.041,0.065-0.062,0.098c-0.167,0.268-0.333,0.549-0.498,0.843c-0.019,0.034-0.038,0.067-0.056,0.102
			c-0.154,0.28-0.307,0.571-0.455,0.872c-0.017,0.035-0.034,0.07-0.05,0.105c-0.141,0.291-0.276,0.591-0.404,0.9
			c-0.015,0.035-0.03,0.071-0.044,0.106c-0.123,0.301-0.24,0.61-0.348,0.925c-0.012,0.037-0.025,0.073-0.037,0.109
			c-0.023,0.07-0.047,0.141-0.069,0.213c-0.028-0.025-0.056-0.051-0.084-0.077c0.018-0.056,0.036-0.112,0.055-0.167
			c0.013-0.037,0.025-0.073,0.037-0.109c0.108-0.316,0.224-0.625,0.348-0.927c0.015-0.036,0.029-0.072,0.044-0.107
			c0.128-0.309,0.264-0.61,0.404-0.901c0.017-0.035,0.033-0.07,0.051-0.105c0.147-0.302,0.299-0.595,0.454-0.875
			c0.019-0.034,0.038-0.069,0.057-0.103c0.165-0.295,0.332-0.577,0.499-0.845c0.021-0.034,0.041-0.066,0.061-0.1
			c0.181-0.288,0.361-0.56,0.536-0.813c0.022-0.033,0.044-0.064,0.066-0.096c0.198-0.283,0.388-0.543,0.567-0.778
			c0.024-0.031,0.047-0.062,0.071-0.092c0.223-0.29,0.425-0.537,0.596-0.737c0.004-0.004,0.007-0.008,0.011-0.013
			c0.006,0.01,0.012,0.019,0.018,0.029C16.407,26.3,16.421,26.323,16.435,26.346z"/>
		<path fill="#C78E3A" d="M16.934,27.377c-0.05,0.062-0.104,0.126-0.158,0.195c-0.023,0.029-0.047,0.059-0.071,0.089
			c-0.171,0.217-0.358,0.462-0.554,0.733c-0.022,0.031-0.044,0.062-0.067,0.093c-0.171,0.239-0.349,0.497-0.529,0.772
			c-0.021,0.033-0.042,0.064-0.063,0.097c-0.166,0.255-0.333,0.525-0.499,0.808c-0.02,0.033-0.039,0.066-0.058,0.1
			c-0.156,0.269-0.311,0.55-0.462,0.841c-0.018,0.034-0.035,0.069-0.053,0.103c-0.144,0.281-0.284,0.572-0.418,0.871
			c-0.016,0.035-0.032,0.07-0.047,0.105c-0.129,0.292-0.252,0.593-0.368,0.9c-0.014,0.036-0.027,0.072-0.04,0.108
			c-0.053,0.142-0.104,0.285-0.152,0.43c-0.031-0.015-0.063-0.03-0.093-0.047c0.048-0.142,0.097-0.282,0.148-0.421
			c0.013-0.036,0.027-0.072,0.04-0.108c0.116-0.309,0.24-0.609,0.368-0.902c0.016-0.035,0.031-0.07,0.047-0.105
			c0.135-0.3,0.275-0.592,0.419-0.874c0.018-0.035,0.036-0.068,0.053-0.103c0.151-0.292,0.306-0.574,0.462-0.844
			c0.02-0.033,0.039-0.067,0.058-0.1c0.167-0.284,0.334-0.555,0.5-0.811c0.021-0.033,0.042-0.065,0.063-0.097
			c0.181-0.276,0.359-0.536,0.531-0.776c0.022-0.032,0.045-0.063,0.067-0.093c0.197-0.272,0.384-0.519,0.556-0.737
			c0.024-0.031,0.048-0.06,0.071-0.089c0.071-0.089,0.14-0.173,0.205-0.252C16.903,27.3,16.918,27.338,16.934,27.377z"/>
		<path fill="#C78E3A" d="M17.307,28.577c-0.089,0.115-0.182,0.236-0.278,0.365c-0.022,0.031-0.045,0.061-0.067,0.092
			c-0.166,0.225-0.34,0.469-0.518,0.732c-0.021,0.031-0.042,0.063-0.063,0.094c-0.163,0.243-0.329,0.5-0.494,0.771
			c-0.02,0.033-0.04,0.065-0.059,0.098c-0.156,0.257-0.311,0.527-0.463,0.807c-0.018,0.033-0.036,0.066-0.054,0.1
			c-0.146,0.271-0.289,0.551-0.427,0.841c-0.016,0.034-0.033,0.068-0.049,0.103c-0.133,0.283-0.261,0.574-0.382,0.873
			c-0.014,0.035-0.029,0.071-0.043,0.106c-0.042,0.104-0.083,0.209-0.122,0.316c-0.036-0.004-0.071-0.008-0.106-0.013
			c0.043-0.117,0.088-0.232,0.134-0.347c0.014-0.035,0.028-0.071,0.043-0.107c0.122-0.299,0.25-0.591,0.383-0.875
			c0.016-0.035,0.032-0.069,0.049-0.104c0.139-0.29,0.281-0.572,0.427-0.843c0.018-0.034,0.036-0.067,0.054-0.101
			c0.153-0.281,0.309-0.552,0.464-0.811c0.02-0.033,0.04-0.065,0.059-0.097c0.166-0.272,0.333-0.531,0.496-0.775
			c0.021-0.032,0.042-0.063,0.063-0.095c0.178-0.264,0.353-0.51,0.519-0.736c0.023-0.031,0.045-0.061,0.068-0.091
			c0.115-0.155,0.227-0.301,0.333-0.437C17.284,28.489,17.296,28.533,17.307,28.577z"/>
		<path fill="#C78E3A" d="M17.554,29.97c-0.086,0.119-0.173,0.242-0.263,0.371c-0.021,0.03-0.042,0.061-0.064,0.092
			c-0.158,0.23-0.319,0.474-0.481,0.731c-0.02,0.033-0.041,0.064-0.06,0.097c-0.153,0.245-0.307,0.502-0.458,0.77
			c-0.019,0.033-0.037,0.066-0.056,0.1c-0.145,0.259-0.288,0.529-0.427,0.808c-0.017,0.034-0.034,0.067-0.051,0.102
			c-0.112,0.229-0.223,0.463-0.329,0.704c-0.044,0.015-0.088,0.028-0.132,0.041c0.119-0.273,0.243-0.539,0.37-0.797
			c0.017-0.034,0.033-0.068,0.051-0.102c0.14-0.28,0.283-0.55,0.429-0.811c0.019-0.033,0.037-0.066,0.055-0.099
			c0.152-0.269,0.306-0.528,0.46-0.774c0.02-0.032,0.04-0.064,0.06-0.097c0.163-0.259,0.325-0.504,0.484-0.735
			c0.021-0.031,0.042-0.062,0.064-0.092c0.113-0.164,0.225-0.319,0.333-0.467C17.543,29.863,17.549,29.917,17.554,29.97z"/>
	</g>
</g>
<g>
	<path fill="#B9D034" d="M25.292,25.307c0,0,2.252-0.286,2.617-0.234c0,0-0.9-1.233-1.211-1.117c0,0,1.982-1.795,2.292-1.911
		c0,0-0.979-0.719-1.612-0.272c0,0,1.158-2.366,1.042-3.262c0,0-1.178,0.063-1.713,0.904c0,0,0.296-1.704-0.021-2.148
		c0,0-1.222,0.966-1.626,2.178c0,0-0.353-0.702-0.714-1.219c0,0-1.491,2.21-1.381,4.192c0,0-0.16-0.253-0.394-0.649
		c0,0-0.539,0.909,0.085,2.168l0.654,2.254L25.292,25.307z"/>
	<g>
		<path fill="#FFD161" d="M18.399,30.505l0.003,0.141c0.014,0.339,0.063,0.661,0.156,0.964l0.037,0.114
			c0.097,0.28,0.233,0.542,0.414,0.781l0.071,0.091c0.187,0.229,0.417,0.437,0.696,0.621l0.109,0.069
			c0.214,0.13,0.453,0.247,0.723,0.349c0.05,0.019,0.101,0.037,0.151,0.054c0.047,0.015,0.094,0.028,0.141,0.041
			c0.026,0.007,0.052,0.014,0.078,0.02c0.061,0.015,0.124,0.028,0.185,0.038c0.251,0.045,0.501,0.055,0.747,0.033l0.113-0.013
			c0.288-0.037,0.569-0.119,0.84-0.24l0.099-0.047c0.259-0.125,0.506-0.287,0.741-0.481l0.089-0.077
			c0.094-0.082,0.187-0.17,0.275-0.264c0.05-0.052,0.099-0.106,0.147-0.161c0.082-0.093,0.16-0.19,0.235-0.291
			c0.027-0.035,0.054-0.071,0.079-0.107c0.183-0.254,0.348-0.533,0.496-0.832c0.021-0.044,0.042-0.088,0.063-0.133
			c0.002-0.005,0.004-0.009,0.007-0.014c0.022-0.047,0.043-0.096,0.064-0.144c0.086-0.2,0.165-0.408,0.234-0.624
			c0.036-0.109,0.068-0.218,0.097-0.327c0.012-0.042,0.022-0.083,0.033-0.125c0.021-0.081,0.04-0.162,0.057-0.243
			c0.015-0.064,0.028-0.128,0.04-0.191c0.04-0.209,0.069-0.418,0.088-0.624c0.001-0.005,0.001-0.01,0.002-0.016
			c0.001-0.014,0.002-0.028,0.003-0.042c0-0.006,0.001-0.013,0.001-0.019c0.001-0.007,0.001-0.013,0.001-0.021
			c0-0.008,0.001-0.015,0.002-0.022c0.025-0.35,0.021-0.692-0.014-1.021c-0.004-0.04-0.008-0.078-0.013-0.117
			c-0.002-0.017-0.004-0.034-0.006-0.051c-0.003-0.017-0.006-0.034-0.008-0.051c-0.018-0.122-0.041-0.242-0.068-0.359
			c-0.041-0.181-0.092-0.356-0.153-0.524l-0.043-0.112c-0.137-0.342-0.318-0.655-0.542-0.93l-0.087-0.103
			c-0.153-0.171-0.323-0.326-0.512-0.462l-0.001,0c-0.083-0.06-0.169-0.116-0.259-0.168c-0.101-0.059-0.206-0.113-0.315-0.161
			c-0.06-0.027-0.12-0.052-0.183-0.076c0,0,0,0-0.002,0c-0.363-0.138-0.719-0.2-1.064-0.195c-0.047,0-0.095,0.002-0.141,0.005
			c-0.361,0.024-0.709,0.122-1.039,0.283l-0.102,0.053c-0.278,0.149-0.541,0.344-0.786,0.579l-0.081,0.079
			c-0.174,0.176-0.34,0.372-0.494,0.587c-0.042,0.058-0.083,0.117-0.122,0.177c-0.007,0.01-0.013,0.019-0.02,0.029
			c-0.014,0.022-0.029,0.045-0.044,0.068c-0.179,0.281-0.34,0.587-0.483,0.916c-0.016,0.038-0.032,0.076-0.048,0.115
			c-0.053,0.126-0.103,0.256-0.149,0.388c-0.021,0.058-0.04,0.116-0.059,0.174c-0.004,0.012-0.008,0.023-0.011,0.035
			c-0.052,0.158-0.099,0.314-0.143,0.47c-0.012,0.044-0.024,0.088-0.036,0.132c-0.061,0.226-0.113,0.449-0.156,0.668
			c-0.011,0.054-0.021,0.108-0.03,0.162c-0.023,0.136-0.044,0.27-0.06,0.403c-0.006,0.053-0.013,0.107-0.018,0.16
			C18.407,30.116,18.398,30.313,18.399,30.505z"/>
		<path fill="#C78E3A" d="M23.514,24.626c-0.238,0.061-0.484,0.129-0.738,0.204c-0.038,0.011-0.077,0.023-0.116,0.035
			c-0.317,0.097-0.646,0.206-0.98,0.329c-0.037,0.014-0.074,0.028-0.111,0.042c-0.312,0.117-0.627,0.246-0.944,0.387
			c-0.037,0.016-0.072,0.032-0.107,0.048c-0.237,0.108-0.474,0.223-0.711,0.346c-0.042,0.058-0.083,0.117-0.122,0.177
			c-0.007,0.01-0.013,0.019-0.02,0.029c0.01-0.006,0.02-0.011,0.031-0.017c0.3-0.161,0.602-0.309,0.902-0.444
			c0.036-0.017,0.072-0.033,0.107-0.048c0.318-0.141,0.634-0.269,0.944-0.384c0.037-0.014,0.075-0.028,0.112-0.041
			c0.334-0.122,0.662-0.23,0.979-0.325c0.038-0.012,0.077-0.023,0.115-0.035c0.292-0.086,0.574-0.161,0.843-0.227L23.514,24.626z"/>
		<path fill="#C78E3A" d="M18.879,27.885c0.149-0.097,0.3-0.189,0.452-0.278c0.033-0.019,0.065-0.039,0.099-0.057
			c0.288-0.167,0.58-0.321,0.87-0.463c0.035-0.017,0.069-0.034,0.104-0.05c0.306-0.147,0.61-0.281,0.912-0.403
			c0.037-0.015,0.073-0.029,0.108-0.043c0.32-0.127,0.638-0.243,0.946-0.345c0.037-0.013,0.075-0.025,0.112-0.037
			c0.335-0.109,0.661-0.205,0.974-0.288c0.039-0.01,0.077-0.021,0.116-0.03c0.353-0.092,0.687-0.168,0.996-0.231
			c0.039-0.009,0.079-0.017,0.118-0.024c0.063-0.013,0.124-0.024,0.185-0.036c-0.029-0.035-0.058-0.069-0.087-0.103
			c-0.056,0.011-0.111,0.022-0.168,0.034c-0.04,0.007-0.079,0.016-0.118,0.024c-0.31,0.064-0.645,0.142-0.998,0.234
			c-0.038,0.01-0.077,0.02-0.116,0.031c-0.313,0.084-0.639,0.181-0.975,0.291c-0.038,0.012-0.075,0.025-0.112,0.038
			c-0.31,0.104-0.626,0.219-0.948,0.348c-0.036,0.015-0.072,0.029-0.107,0.043c-0.302,0.124-0.607,0.259-0.913,0.407
			c-0.035,0.016-0.069,0.033-0.104,0.05c-0.291,0.144-0.583,0.299-0.871,0.466c-0.033,0.019-0.066,0.038-0.099,0.058
			c-0.105,0.063-0.212,0.127-0.317,0.193C18.917,27.768,18.898,27.826,18.879,27.885z"/>
		<path fill="#C78E3A" d="M18.503,29.352c0.183-0.13,0.368-0.255,0.555-0.374c0.031-0.021,0.063-0.041,0.095-0.061
			c0.279-0.174,0.559-0.335,0.841-0.485c0.033-0.018,0.066-0.035,0.1-0.053c0.293-0.154,0.588-0.294,0.881-0.424
			c0.034-0.016,0.069-0.031,0.104-0.046c0.308-0.134,0.614-0.256,0.915-0.366c0.036-0.013,0.073-0.026,0.109-0.039
			c0.321-0.116,0.637-0.219,0.941-0.31c0.038-0.011,0.074-0.022,0.111-0.033c0.335-0.098,0.658-0.182,0.963-0.255
			c0.039-0.009,0.077-0.018,0.114-0.026c0.354-0.082,0.681-0.146,0.977-0.199c0.04-0.007,0.078-0.014,0.117-0.02
			c0.044-0.008,0.087-0.015,0.129-0.022c-0.014-0.038-0.028-0.075-0.043-0.112c-0.049,0.008-0.099,0.017-0.15,0.025
			c-0.038,0.006-0.077,0.013-0.116,0.021c-0.297,0.054-0.626,0.12-0.979,0.202c-0.039,0.009-0.077,0.018-0.116,0.027
			c-0.305,0.073-0.628,0.158-0.963,0.257c-0.037,0.011-0.074,0.021-0.112,0.033c-0.306,0.093-0.621,0.196-0.943,0.313
			c-0.036,0.013-0.073,0.026-0.109,0.04c-0.302,0.111-0.607,0.233-0.916,0.368c-0.035,0.015-0.07,0.031-0.105,0.046
			c-0.293,0.13-0.588,0.272-0.882,0.427c-0.033,0.017-0.066,0.035-0.1,0.053c-0.283,0.151-0.563,0.313-0.841,0.487
			c-0.032,0.02-0.063,0.041-0.096,0.06c-0.151,0.098-0.303,0.198-0.452,0.304C18.522,29.244,18.512,29.298,18.503,29.352z"/>
		<path fill="#C78E3A" d="M18.399,30.505l0.003,0.141c0.123-0.091,0.246-0.181,0.371-0.268c0.031-0.021,0.062-0.042,0.091-0.063
			c0.267-0.182,0.539-0.351,0.812-0.51c0.033-0.019,0.065-0.038,0.097-0.056c0.283-0.161,0.567-0.31,0.851-0.448
			c0.034-0.017,0.068-0.033,0.102-0.048c0.296-0.142,0.591-0.271,0.884-0.389c0.035-0.014,0.07-0.028,0.105-0.042
			c0.309-0.123,0.613-0.233,0.911-0.332c0.037-0.013,0.072-0.024,0.109-0.036c0.319-0.104,0.631-0.197,0.93-0.277
			c0.038-0.01,0.075-0.02,0.112-0.029c0.332-0.088,0.648-0.162,0.943-0.225c0.038-0.008,0.083-0.016,0.12-0.023
			c0.297-0.061,0.581-0.11,0.821-0.149v0c0-0.002,0.032-0.006,0.051-0.009c-0.003-0.04,0-0.078-0.006-0.117
			c-0.017,0.003-0.045,0.006-0.045,0.008v0c-0.32,0.041-0.56,0.093-0.875,0.159c-0.038,0.008-0.081,0.016-0.119,0.024
			c-0.296,0.063-0.616,0.138-0.949,0.227c-0.037,0.01-0.075,0.02-0.112,0.03c-0.3,0.082-0.614,0.174-0.933,0.28
			c-0.036,0.012-0.073,0.024-0.109,0.036c-0.298,0.1-0.604,0.211-0.912,0.334c-0.036,0.014-0.07,0.029-0.106,0.043
			c-0.292,0.119-0.588,0.249-0.884,0.39c-0.034,0.017-0.068,0.033-0.102,0.049c-0.285,0.139-0.57,0.288-0.852,0.45
			c-0.033,0.019-0.065,0.038-0.098,0.056c-0.273,0.159-0.544,0.329-0.811,0.512c-0.031,0.021-0.061,0.042-0.091,0.063
			C18.603,30.356,18.501,30.43,18.399,30.505z"/>
		<path fill="#C78E3A" d="M18.559,31.609l0.037,0.114c0.248-0.184,0.5-0.356,0.755-0.518c0.032-0.021,0.063-0.04,0.094-0.059
			c0.271-0.169,0.546-0.327,0.821-0.473c0.033-0.018,0.066-0.035,0.099-0.052c0.284-0.148,0.57-0.286,0.854-0.412
			c0.035-0.015,0.069-0.031,0.103-0.045c0.296-0.129,0.59-0.247,0.88-0.355c0.036-0.013,0.071-0.026,0.106-0.039
			c0.305-0.112,0.606-0.211,0.898-0.301c0.037-0.011,0.072-0.022,0.108-0.033c0.315-0.094,0.621-0.176,0.912-0.248
			c0.036-0.009,0.073-0.019,0.109-0.027c0.328-0.078,0.636-0.143,0.917-0.197c0.039-0.007,0.076-0.014,0.113-0.021
			c0.119-0.022,0.233-0.042,0.341-0.06c0.002-0.02,0.004-0.041,0.005-0.06c0.001-0.021,0.003-0.007,0.005-0.065
			c-0.001,0-0.001,0-0.001,0c-0.003,0-0.005,0.003-0.008,0.004c-0.001,0-0.002,0.001-0.003,0.001
			c-0.124,0.021-0.255,0.044-0.392,0.07c-0.037,0.007-0.075,0.014-0.113,0.021c-0.284,0.055-0.593,0.121-0.921,0.2
			c-0.036,0.009-0.073,0.018-0.11,0.027c-0.292,0.073-0.598,0.155-0.915,0.25c-0.036,0.011-0.072,0.021-0.108,0.033
			c-0.292,0.09-0.594,0.19-0.9,0.303c-0.036,0.013-0.071,0.026-0.106,0.04c-0.291,0.108-0.585,0.227-0.881,0.357
			c-0.034,0.015-0.068,0.03-0.103,0.045c-0.285,0.127-0.571,0.265-0.854,0.415c-0.034,0.017-0.067,0.034-0.1,0.052
			c-0.276,0.146-0.551,0.305-0.822,0.474c-0.032,0.02-0.063,0.04-0.095,0.059C19.041,31.266,18.798,31.432,18.559,31.609z"/>
		<path fill="#C78E3A" d="M19.009,32.505l0.071,0.091c0.269-0.186,0.542-0.359,0.819-0.521c0.031-0.019,0.063-0.037,0.095-0.056
			c0.274-0.157,0.549-0.303,0.825-0.439c0.033-0.016,0.066-0.032,0.1-0.048c0.284-0.137,0.568-0.264,0.85-0.379
			c0.034-0.015,0.069-0.029,0.104-0.042c0.293-0.119,0.584-0.227,0.868-0.325c0.035-0.012,0.07-0.024,0.105-0.036
			c0.301-0.102,0.596-0.192,0.881-0.273c0.036-0.01,0.072-0.021,0.108-0.03c0.309-0.085,0.604-0.159,0.884-0.223
			c0.037-0.008,0.074-0.016,0.11-0.024c0.233-0.052,0.455-0.096,0.661-0.134c0.012-0.042,0.022-0.083,0.033-0.125
			c-0.229,0.042-0.478,0.091-0.741,0.149c-0.037,0.008-0.073,0.016-0.109,0.025c-0.282,0.064-0.579,0.138-0.889,0.225
			c-0.037,0.01-0.072,0.02-0.107,0.03c-0.287,0.081-0.582,0.172-0.884,0.274c-0.036,0.012-0.07,0.023-0.105,0.036
			c-0.285,0.099-0.577,0.208-0.871,0.327c-0.035,0.014-0.068,0.028-0.103,0.042c-0.283,0.117-0.567,0.244-0.852,0.382
			c-0.034,0.016-0.067,0.032-0.1,0.049c-0.275,0.136-0.552,0.282-0.825,0.44c-0.033,0.019-0.065,0.037-0.097,0.055
			C19.56,32.14,19.281,32.316,19.009,32.505z"/>
		<path fill="#C78E3A" d="M19.776,33.216l0.109,0.069c0.173-0.105,0.348-0.206,0.524-0.301c0.032-0.018,0.065-0.035,0.097-0.053
			c0.273-0.146,0.547-0.281,0.82-0.407c0.034-0.015,0.067-0.03,0.1-0.046c0.282-0.126,0.562-0.243,0.839-0.35
			c0.035-0.014,0.068-0.026,0.103-0.04c0.289-0.109,0.573-0.208,0.85-0.297c0.036-0.011,0.07-0.022,0.105-0.033
			c0.294-0.092,0.58-0.175,0.854-0.247c0.037-0.01,0.073-0.02,0.107-0.028c0.258-0.066,0.505-0.125,0.739-0.175
			c0.021-0.044,0.042-0.088,0.063-0.133c-0.266,0.057-0.549,0.122-0.846,0.199c-0.036,0.009-0.071,0.019-0.107,0.028
			c-0.275,0.073-0.562,0.156-0.857,0.249c-0.036,0.011-0.07,0.022-0.105,0.034c-0.279,0.09-0.563,0.189-0.853,0.299
			c-0.034,0.013-0.069,0.026-0.104,0.039c-0.278,0.108-0.558,0.225-0.84,0.352c-0.034,0.016-0.067,0.031-0.101,0.046
			c-0.274,0.125-0.548,0.261-0.822,0.408c-0.032,0.017-0.065,0.035-0.097,0.053C20.16,32.988,19.967,33.1,19.776,33.216z"/>
		<path fill="#C78E3A" d="M20.978,33.749c0.061,0.015,0.124,0.028,0.185,0.038c0.205-0.1,0.411-0.194,0.616-0.283
			c0.034-0.015,0.067-0.029,0.102-0.043c0.276-0.117,0.55-0.225,0.82-0.323c0.035-0.013,0.069-0.025,0.104-0.038
			c0.28-0.1,0.556-0.191,0.824-0.273c0.036-0.01,0.071-0.021,0.106-0.032c0.112-0.033,0.223-0.065,0.333-0.096
			c0.05-0.052,0.099-0.106,0.147-0.161c-0.17,0.045-0.343,0.094-0.52,0.147c-0.035,0.01-0.071,0.021-0.105,0.032
			c-0.27,0.082-0.546,0.173-0.828,0.274c-0.035,0.012-0.069,0.025-0.104,0.037c-0.271,0.099-0.545,0.208-0.823,0.325
			c-0.033,0.015-0.067,0.029-0.101,0.044C21.481,33.506,21.229,33.623,20.978,33.749z"/>
		<path fill="#C78E3A" d="M25.609,27.163l0.029,0.263l0.023,0.207v0v0.117v0l0.055,1.013v0.062c0.002-0.021,0.002-0.042,0.003-0.063
			c0.025-0.35,0.021-0.692-0.014-1.021c-0.004-0.04-0.009-0.078-0.015-0.117c-0.004-0.034-0.009-0.068-0.014-0.102
			C25.66,27.4,25.637,27.28,25.609,27.163z"/>
		<path fill="#C78E3A" d="M24.011,24.863c0.159,0.217,0.322,0.447,0.485,0.689c0.023,0.035,0.047,0.07,0.071,0.105
			c0.194,0.289,0.387,0.595,0.579,0.916c0.021,0.036,0.042,0.072,0.063,0.108c0.159,0.271,0.316,0.551,0.468,0.841
			c-0.018-0.122-0.041-0.242-0.068-0.359c-0.093-0.171-0.188-0.338-0.283-0.502c-0.021-0.037-0.042-0.073-0.064-0.108
			c-0.191-0.322-0.384-0.629-0.577-0.919c-0.024-0.036-0.047-0.07-0.07-0.105c-0.116-0.171-0.23-0.337-0.344-0.496l-0.001,0
			L24.011,24.863z"/>
		<path fill="#C78E3A" d="M22.306,24.436c0.112,0.132,0.23,0.275,0.353,0.429c0.026,0.032,0.053,0.065,0.079,0.099
			c0.206,0.258,0.423,0.544,0.645,0.854c0.024,0.034,0.049,0.067,0.073,0.102c0.197,0.276,0.397,0.571,0.596,0.884
			c0.023,0.034,0.045,0.069,0.067,0.104c0.183,0.29,0.364,0.593,0.542,0.91c0.02,0.036,0.04,0.071,0.06,0.107
			c0.165,0.299,0.326,0.61,0.481,0.931c0.018,0.037,0.035,0.073,0.052,0.11c0.114,0.239,0.223,0.484,0.326,0.734
			c0.015-0.064,0.028-0.128,0.04-0.191c-0.082-0.191-0.167-0.379-0.253-0.564c-0.018-0.037-0.035-0.073-0.052-0.11
			C25.16,28.512,25,28.201,24.834,27.9v0c-0.021-0.036-0.04-0.072-0.061-0.107c-0.176-0.317-0.357-0.622-0.541-0.912
			c-0.022-0.035-0.043-0.07-0.065-0.105c-0.199-0.313-0.399-0.609-0.596-0.886c-0.024-0.035-0.049-0.069-0.073-0.103
			c-0.223-0.311-0.44-0.598-0.646-0.857c-0.026-0.034-0.052-0.066-0.078-0.099c-0.114-0.142-0.223-0.275-0.328-0.4
			C22.4,24.431,22.353,24.433,22.306,24.436z"/>
		<path fill="#C78E3A" d="M21.166,24.772c0.121,0.135,0.256,0.29,0.402,0.463c0.025,0.031,0.053,0.063,0.079,0.095
			c0.201,0.241,0.42,0.514,0.649,0.816c0.024,0.032,0.049,0.064,0.074,0.098c0.197,0.262,0.401,0.546,0.606,0.849
			c0.023,0.034,0.046,0.068,0.069,0.102c0.187,0.278,0.374,0.571,0.559,0.879c0.021,0.034,0.042,0.069,0.062,0.104
			c0.172,0.29,0.341,0.591,0.505,0.904c0.019,0.036,0.037,0.071,0.056,0.107c0.154,0.299,0.304,0.609,0.445,0.927
			c0.017,0.036,0.032,0.073,0.047,0.109c0.134,0.304,0.259,0.617,0.375,0.937c0.022-0.047,0.043-0.096,0.064-0.144
			c-0.104-0.278-0.213-0.551-0.33-0.817c-0.016-0.037-0.031-0.073-0.047-0.109c-0.141-0.319-0.295-0.629-0.449-0.93
			c-0.019-0.036-0.033-0.071-0.06-0.106V29.05h0.008c-0.163-0.292-0.332-0.614-0.503-0.904c-0.021-0.035-0.042-0.069-0.063-0.104
			c-0.184-0.308-0.372-0.603-0.559-0.881c-0.021-0.034-0.045-0.068-0.067-0.102c-0.206-0.303-0.41-0.589-0.606-0.853
			c-0.025-0.033-0.05-0.066-0.074-0.099c-0.229-0.303-0.448-0.577-0.65-0.819c-0.027-0.032-0.053-0.064-0.08-0.095
			c-0.148-0.177-0.287-0.335-0.412-0.475L21.166,24.772z"/>
		<path fill="#C78E3A" d="M20.299,25.43c0.067,0.073,0.14,0.154,0.217,0.241c0.026,0.03,0.053,0.06,0.08,0.092
			c0.193,0.22,0.411,0.479,0.646,0.774c0.025,0.031,0.049,0.063,0.074,0.095c0.195,0.248,0.4,0.52,0.609,0.813
			c0.023,0.032,0.046,0.065,0.07,0.098c0.188,0.265,0.378,0.548,0.568,0.845c0.021,0.034,0.043,0.068,0.064,0.102
			c0.176,0.279,0.351,0.57,0.521,0.875c0.02,0.034,0.039,0.069,0.058,0.104c0.161,0.29,0.318,0.59,0.469,0.901
			c0.016,0.036,0.034,0.071,0.051,0.106c0.142,0.3,0.28,0.608,0.407,0.925c0.016,0.036,0.031,0.073,0.044,0.109
			c0.097,0.241,0.188,0.486,0.272,0.736c0.027-0.035,0.054-0.071,0.079-0.107c-0.076-0.222-0.158-0.441-0.244-0.657
			c-0.014-0.037-0.029-0.073-0.044-0.109c-0.128-0.317-0.265-0.626-0.407-0.927c-0.018-0.036-0.035-0.072-0.051-0.107
			c-0.151-0.311-0.308-0.613-0.468-0.904c-0.02-0.035-0.039-0.069-0.059-0.104c-0.17-0.305-0.345-0.598-0.521-0.877
			c-0.022-0.034-0.043-0.068-0.064-0.102c-0.19-0.299-0.381-0.582-0.568-0.849c-0.024-0.034-0.048-0.066-0.07-0.099
			c-0.209-0.294-0.415-0.567-0.609-0.816c-0.025-0.032-0.051-0.064-0.075-0.095c-0.233-0.295-0.452-0.556-0.646-0.779
			c-0.027-0.032-0.054-0.063-0.08-0.092c-0.088-0.1-0.169-0.19-0.244-0.271L20.299,25.43z"/>
		<path fill="#C78E3A" d="M19.619,26.292c0.174,0.192,0.38,0.428,0.606,0.702c0.025,0.03,0.05,0.061,0.075,0.092
			c0.191,0.232,0.394,0.491,0.604,0.774c0.024,0.031,0.047,0.063,0.071,0.096c0.186,0.252,0.377,0.522,0.57,0.81
			c0.022,0.033,0.044,0.065,0.066,0.098c0.178,0.268,0.355,0.549,0.531,0.843c0.02,0.034,0.041,0.067,0.06,0.102
			c0.165,0.28,0.328,0.571,0.484,0.872c0.018,0.035,0.036,0.07,0.054,0.105c0.15,0.291,0.294,0.591,0.431,0.9
			c0.016,0.035,0.031,0.071,0.047,0.106c0.131,0.301,0.256,0.61,0.371,0.925c0.013,0.037,0.027,0.073,0.039,0.109
			c0.025,0.07,0.05,0.141,0.074,0.213c0.029-0.025,0.06-0.051,0.089-0.077c-0.019-0.056-0.038-0.112-0.058-0.167
			c-0.014-0.037-0.027-0.073-0.04-0.109c-0.115-0.316-0.239-0.625-0.371-0.927c-0.016-0.036-0.031-0.072-0.047-0.107
			c-0.137-0.309-0.281-0.61-0.431-0.901c-0.018-0.035-0.035-0.07-0.054-0.105c-0.157-0.302-0.319-0.595-0.483-0.875
			c-0.021-0.034-0.041-0.069-0.06-0.103c-0.176-0.295-0.354-0.577-0.532-0.845c-0.021-0.034-0.043-0.066-0.064-0.1
			c-0.193-0.288-0.385-0.56-0.572-0.813c-0.024-0.033-0.047-0.064-0.071-0.096c-0.211-0.283-0.414-0.543-0.605-0.778
			c-0.025-0.031-0.05-0.062-0.075-0.092c-0.238-0.29-0.454-0.537-0.635-0.737c-0.004-0.004-0.008-0.008-0.011-0.013
			c-0.007,0.01-0.013,0.019-0.02,0.029C19.649,26.246,19.634,26.269,19.619,26.292z"/>
		<path fill="#C78E3A" d="M19.087,27.323c0.054,0.062,0.11,0.126,0.168,0.195c0.025,0.029,0.051,0.059,0.076,0.089
			c0.183,0.217,0.381,0.462,0.591,0.733c0.024,0.031,0.048,0.062,0.072,0.093c0.183,0.239,0.372,0.497,0.564,0.772
			c0.023,0.033,0.044,0.064,0.067,0.097c0.177,0.255,0.355,0.525,0.533,0.808c0.021,0.033,0.041,0.066,0.062,0.1
			c0.167,0.269,0.332,0.55,0.493,0.841c0.019,0.034,0.037,0.069,0.056,0.103c0.153,0.281,0.303,0.572,0.446,0.871
			c0.018,0.035,0.034,0.07,0.051,0.105c0.138,0.292,0.269,0.593,0.392,0.9c0.015,0.036,0.029,0.072,0.043,0.108
			c0.056,0.142,0.11,0.285,0.163,0.43c0.033-0.015,0.066-0.03,0.099-0.047c-0.051-0.142-0.103-0.282-0.158-0.421
			c-0.015-0.036-0.029-0.072-0.042-0.108c-0.125-0.309-0.256-0.609-0.393-0.902c-0.016-0.035-0.033-0.07-0.05-0.105
			c-0.144-0.3-0.294-0.592-0.446-0.874c-0.019-0.035-0.038-0.068-0.057-0.103c-0.161-0.292-0.326-0.574-0.493-0.844
			c-0.021-0.033-0.041-0.067-0.062-0.1c-0.178-0.284-0.356-0.555-0.533-0.811c-0.022-0.033-0.044-0.065-0.066-0.097
			c-0.193-0.276-0.384-0.536-0.566-0.776c-0.024-0.032-0.049-0.063-0.073-0.093c-0.209-0.272-0.409-0.519-0.592-0.737
			c-0.026-0.031-0.051-0.06-0.076-0.089c-0.076-0.089-0.149-0.173-0.219-0.252C19.12,27.246,19.104,27.284,19.087,27.323z"/>
		<path fill="#C78E3A" d="M18.689,28.522c0.095,0.115,0.194,0.236,0.296,0.365c0.024,0.031,0.048,0.061,0.072,0.092
			c0.177,0.225,0.362,0.469,0.551,0.732c0.023,0.031,0.046,0.063,0.068,0.094c0.174,0.243,0.351,0.5,0.527,0.771
			c0.021,0.033,0.042,0.065,0.063,0.098c0.166,0.257,0.332,0.527,0.494,0.807c0.02,0.033,0.039,0.066,0.058,0.1
			c0.155,0.271,0.307,0.551,0.455,0.841c0.017,0.034,0.035,0.068,0.052,0.103c0.142,0.283,0.277,0.574,0.408,0.873
			c0.015,0.035,0.03,0.071,0.045,0.106c0.044,0.104,0.088,0.209,0.13,0.316c0.038-0.004,0.076-0.008,0.113-0.013
			c-0.046-0.117-0.093-0.232-0.142-0.347c-0.015-0.035-0.03-0.071-0.046-0.107c-0.13-0.299-0.266-0.591-0.408-0.875
			c-0.017-0.035-0.035-0.069-0.052-0.104c-0.148-0.29-0.3-0.572-0.456-0.843c-0.019-0.034-0.038-0.067-0.058-0.101
			c-0.163-0.281-0.329-0.552-0.495-0.811c-0.021-0.033-0.042-0.065-0.063-0.097c-0.178-0.272-0.355-0.531-0.529-0.775
			c-0.022-0.032-0.044-0.063-0.067-0.095c-0.19-0.264-0.377-0.51-0.554-0.736c-0.024-0.031-0.047-0.061-0.072-0.091
			c-0.124-0.155-0.243-0.301-0.356-0.437C18.713,28.434,18.701,28.478,18.689,28.522z"/>
		<path fill="#C78E3A" d="M18.426,29.915c0.091,0.119,0.185,0.242,0.281,0.371c0.022,0.03,0.045,0.061,0.067,0.092
			c0.168,0.23,0.34,0.474,0.513,0.731c0.021,0.033,0.043,0.064,0.064,0.097c0.163,0.245,0.327,0.502,0.488,0.77
			c0.02,0.033,0.04,0.066,0.06,0.1c0.154,0.259,0.306,0.529,0.456,0.808c0.018,0.034,0.036,0.067,0.054,0.102
			c0.12,0.229,0.237,0.463,0.35,0.704c0.047,0.015,0.094,0.028,0.141,0.041c-0.126-0.273-0.258-0.539-0.395-0.797
			c-0.017-0.034-0.035-0.068-0.054-0.102c-0.148-0.28-0.302-0.55-0.458-0.811c-0.019-0.033-0.04-0.066-0.058-0.099
			c-0.163-0.269-0.327-0.528-0.491-0.774c-0.021-0.032-0.042-0.064-0.063-0.097c-0.173-0.259-0.347-0.504-0.517-0.735
			c-0.022-0.031-0.045-0.062-0.067-0.092c-0.121-0.164-0.24-0.319-0.354-0.467C18.437,29.808,18.431,29.862,18.426,29.915z"/>
	</g>
</g>
<path fill="#5454E2" d="M56.789,34.801c0,1.174-1.509,2.125-3.37,2.125H9.801c-1.861,0-3.371-0.952-3.371-2.125l0,0
	c0-1.174,1.509-2.125,3.371-2.125h43.617C55.28,32.676,56.789,33.627,56.789,34.801L56.789,34.801z"/>
<g>
	<path fill="#88BA41" d="M44.461,29.493c0.092,0.205,1.065,1.977,3.235,0.889c2.308-0.994,4.245-2.205,4.208-2.184
		c0.037-0.021-4.452-3.849-6.702-2.741C43.091,26.659,44.433,29.413,44.461,29.493z"/>
	<path fill="#F2F2F2" d="M45.427,27.623c-0.044-0.88,0.345-1.789,0.43-1.883c-0.09,0.088-0.556,0.935-0.53,1.841
		c0.009,0.383,0.04,0.604,0.067,0.728c-0.304,0.244-0.488,0.461-0.61,0.623c-0.014-0.131-0.04-0.368-0.075-0.792
		c-0.097-0.984,0.228-2.065,0.306-2.183c-0.084,0.112-0.483,1.134-0.401,2.153c0.038,0.515,0.091,0.764,0.127,0.881
		c-0.213,0.311-0.206,0.377-0.207,0.379c0.004,0.001,0.029,0.002,0.276-0.24c0.065,0.084,0.206,0.22,0.542,0.439
		c0.631,0.389,1.622,0.538,1.781,0.573c-0.158-0.042-1.158-0.293-1.77-0.708c-0.279-0.192-0.424-0.293-0.505-0.35
		c0.14-0.128,0.338-0.314,0.656-0.536c0.079,0.087,0.227,0.218,0.516,0.422c0.656,0.44,1.687,0.712,1.849,0.765
		c-0.161-0.058-1.196-0.423-1.829-0.882c-0.239-0.176-0.382-0.282-0.472-0.349c0.216-0.145,0.485-0.302,0.832-0.447
		c0.081,0.085,0.222,0.211,0.475,0.403c0.641,0.469,1.647,0.843,1.802,0.907c-0.154-0.069-1.159-0.521-1.776-1.001
		c-0.207-0.163-0.34-0.269-0.429-0.339c0.289-0.116,0.591-0.207,0.901-0.271c0.071,0.073,0.183,0.176,0.368,0.326
		c0.543,0.429,1.389,0.814,1.509,0.872c-0.118-0.06-0.962-0.503-1.484-0.938c-0.148-0.125-0.251-0.212-0.325-0.274
		c0.339-0.066,0.684-0.102,1.022-0.11c0.061,0.063,0.153,0.151,0.297,0.276c0.459,0.393,1.173,0.782,1.274,0.838
		c-0.101-0.059-0.811-0.491-1.25-0.883c-0.115-0.103-0.198-0.178-0.259-0.233c0.407-0.006,0.803,0.025,1.164,0.077
		c0.037,0.038,0.086,0.087,0.156,0.153c0.289,0.267,0.733,0.546,0.795,0.585c-0.062-0.04-0.504-0.342-0.779-0.607
		c-0.053-0.051-0.095-0.092-0.129-0.125c1.023,0.157,1.75,0.458,1.747,0.45c0.003,0.008-0.759-0.365-1.817-0.592
		c0.004-0.025,0.01-0.056,0.016-0.094c0.036-0.209,0.25-0.357,0.286-0.368c-0.038,0.009-0.282,0.125-0.33,0.334
		c-0.01,0.048-0.015,0.087-0.017,0.119c-0.375-0.077-0.782-0.133-1.199-0.146c0.005-0.055,0.014-0.127,0.025-0.225
		c0.043-0.391,0.375-0.705,0.432-0.73c-0.061,0.021-0.442,0.287-0.503,0.683c-0.018,0.12-0.021,0.207-0.019,0.27
		c-0.347-0.007-0.698,0.014-1.042,0.07c0.004-0.076,0.009-0.18,0.019-0.326c0.029-0.538,0.406-1.02,0.473-1.061
		c-0.072,0.038-0.507,0.464-0.557,1.012c-0.016,0.179-0.013,0.303-0.005,0.387c-0.313,0.057-0.618,0.143-0.905,0.26
		c0-0.106-0.001-0.264,0.003-0.497c0.002-0.734,0.422-1.438,0.506-1.507c-0.09,0.063-0.582,0.705-0.604,1.457
		c-0.009,0.286,0.005,0.466,0.023,0.578c-0.344,0.149-0.608,0.315-0.818,0.473C45.45,28.136,45.439,27.937,45.427,27.623z"/>
</g>
<g>
	<path fill="#88BA41" d="M37.326,23.678c0.092,0.205,1.065,1.977,3.235,0.889c2.308-0.994,4.245-2.205,4.208-2.184
		c0.037-0.021-4.452-3.849-6.702-2.741C35.957,20.844,37.298,23.598,37.326,23.678z"/>
	<path fill="#F2F2F2" d="M38.292,21.808c-0.044-0.88,0.345-1.789,0.43-1.883c-0.09,0.088-0.556,0.935-0.53,1.841
		c0.009,0.383,0.04,0.604,0.067,0.728c-0.304,0.244-0.488,0.461-0.61,0.623c-0.014-0.131-0.04-0.368-0.075-0.792
		c-0.097-0.984,0.228-2.065,0.306-2.183c-0.084,0.112-0.483,1.134-0.401,2.153c0.038,0.515,0.091,0.764,0.127,0.881
		c-0.213,0.311-0.206,0.377-0.207,0.379c0.004,0.001,0.029,0.002,0.276-0.24c0.065,0.084,0.206,0.22,0.542,0.439
		c0.631,0.389,1.622,0.538,1.781,0.573c-0.158-0.042-1.158-0.293-1.77-0.708c-0.279-0.192-0.424-0.293-0.505-0.35
		c0.14-0.128,0.338-0.314,0.656-0.536c0.079,0.087,0.227,0.218,0.516,0.422c0.656,0.44,1.687,0.712,1.849,0.765
		c-0.161-0.058-1.196-0.423-1.829-0.882c-0.239-0.176-0.382-0.282-0.472-0.349c0.216-0.145,0.485-0.302,0.832-0.447
		c0.081,0.085,0.222,0.211,0.475,0.403c0.641,0.469,1.647,0.843,1.802,0.907c-0.154-0.069-1.159-0.521-1.776-1.001
		c-0.207-0.163-0.34-0.269-0.429-0.339c0.289-0.116,0.591-0.207,0.901-0.271c0.071,0.073,0.183,0.176,0.368,0.326
		c0.543,0.429,1.389,0.814,1.509,0.872c-0.118-0.06-0.962-0.503-1.484-0.938c-0.148-0.125-0.251-0.212-0.325-0.274
		c0.339-0.066,0.684-0.102,1.022-0.11c0.061,0.063,0.153,0.151,0.297,0.276c0.459,0.393,1.173,0.782,1.274,0.838
		c-0.101-0.059-0.811-0.491-1.25-0.883c-0.115-0.103-0.198-0.178-0.259-0.233c0.407-0.006,0.803,0.025,1.164,0.077
		c0.037,0.038,0.086,0.087,0.156,0.153c0.289,0.267,0.733,0.546,0.795,0.585c-0.062-0.04-0.504-0.342-0.779-0.607
		c-0.053-0.051-0.095-0.092-0.129-0.125c1.023,0.157,1.75,0.458,1.747,0.45c0.003,0.008-0.759-0.365-1.817-0.592
		c0.004-0.025,0.01-0.056,0.016-0.094c0.036-0.209,0.25-0.357,0.286-0.368c-0.038,0.009-0.282,0.125-0.33,0.334
		c-0.01,0.048-0.015,0.087-0.017,0.119c-0.375-0.077-0.782-0.133-1.199-0.146c0.005-0.055,0.014-0.127,0.025-0.225
		c0.043-0.391,0.375-0.705,0.432-0.73c-0.061,0.021-0.442,0.287-0.503,0.683c-0.018,0.12-0.021,0.207-0.019,0.27
		c-0.347-0.007-0.698,0.014-1.042,0.07c0.004-0.076,0.009-0.18,0.019-0.326c0.029-0.538,0.406-1.02,0.473-1.061
		c-0.072,0.038-0.507,0.464-0.557,1.012c-0.016,0.179-0.013,0.303-0.005,0.387c-0.313,0.057-0.618,0.143-0.905,0.26
		c0-0.106-0.001-0.264,0.003-0.497c0.002-0.734,0.422-1.438,0.506-1.507c-0.09,0.063-0.582,0.705-0.604,1.457
		c-0.009,0.286,0.005,0.466,0.023,0.578c-0.344,0.149-0.608,0.315-0.818,0.473C38.315,22.321,38.304,22.123,38.292,21.808z"/>
</g>
<g>
	<path fill="#88BA41" d="M29.436,28.563c0.092,0.205,1.065,1.977,3.235,0.889c2.308-0.994,4.245-2.205,4.208-2.184
		c0.037-0.021-4.452-3.849-6.702-2.741C28.066,25.729,29.408,28.483,29.436,28.563z"/>
	<path fill="#F2F2F2" d="M30.402,26.693c-0.044-0.88,0.345-1.789,0.43-1.883c-0.09,0.088-0.556,0.935-0.53,1.841
		c0.009,0.383,0.04,0.604,0.067,0.728c-0.304,0.244-0.488,0.461-0.61,0.623c-0.014-0.131-0.04-0.368-0.075-0.792
		c-0.097-0.984,0.228-2.065,0.306-2.183c-0.084,0.112-0.483,1.134-0.401,2.153c0.038,0.515,0.091,0.764,0.127,0.881
		c-0.213,0.311-0.206,0.377-0.207,0.379c0.004,0.001,0.029,0.002,0.276-0.24c0.065,0.084,0.206,0.22,0.542,0.439
		c0.631,0.389,1.622,0.538,1.781,0.573c-0.158-0.042-1.158-0.293-1.77-0.708c-0.279-0.192-0.424-0.293-0.505-0.35
		c0.14-0.128,0.338-0.314,0.656-0.536c0.079,0.087,0.227,0.218,0.516,0.422c0.656,0.44,1.687,0.712,1.849,0.765
		c-0.161-0.058-1.196-0.423-1.829-0.882c-0.239-0.176-0.382-0.282-0.472-0.349c0.216-0.145,0.485-0.302,0.832-0.447
		c0.081,0.085,0.222,0.211,0.475,0.403c0.641,0.469,1.647,0.843,1.802,0.907c-0.154-0.069-1.159-0.521-1.776-1.001
		c-0.207-0.163-0.34-0.269-0.429-0.339c0.289-0.116,0.591-0.207,0.901-0.271c0.071,0.073,0.183,0.176,0.368,0.326
		c0.543,0.429,1.389,0.814,1.509,0.872c-0.118-0.06-0.962-0.503-1.484-0.938c-0.148-0.125-0.251-0.212-0.325-0.274
		c0.339-0.066,0.684-0.102,1.022-0.11c0.061,0.063,0.153,0.151,0.297,0.276c0.459,0.393,1.173,0.782,1.274,0.838
		c-0.101-0.059-0.811-0.491-1.25-0.883c-0.115-0.103-0.198-0.178-0.259-0.233c0.407-0.006,0.803,0.025,1.164,0.077
		c0.037,0.038,0.086,0.087,0.156,0.153c0.289,0.267,0.733,0.546,0.795,0.585c-0.062-0.04-0.504-0.342-0.779-0.607
		c-0.053-0.051-0.095-0.092-0.129-0.125c1.023,0.157,1.75,0.458,1.747,0.45c0.003,0.008-0.759-0.365-1.817-0.592
		c0.004-0.025,0.01-0.056,0.016-0.094c0.036-0.209,0.25-0.357,0.286-0.368c-0.038,0.009-0.282,0.125-0.33,0.334
		c-0.01,0.048-0.015,0.087-0.017,0.119c-0.375-0.077-0.782-0.133-1.199-0.146c0.005-0.055,0.014-0.127,0.025-0.225
		c0.043-0.391,0.375-0.705,0.432-0.73c-0.061,0.021-0.442,0.287-0.503,0.683c-0.018,0.12-0.021,0.207-0.019,0.27
		c-0.347-0.007-0.698,0.014-1.042,0.07c0.004-0.076,0.009-0.18,0.019-0.326c0.029-0.538,0.406-1.02,0.473-1.061
		c-0.072,0.038-0.507,0.464-0.557,1.012c-0.016,0.179-0.013,0.303-0.005,0.387c-0.313,0.057-0.618,0.143-0.905,0.26
		c0-0.106-0.001-0.264,0.003-0.497c0.002-0.734,0.422-1.438,0.506-1.507c-0.09,0.063-0.582,0.705-0.604,1.457
		c-0.009,0.286,0.005,0.466,0.023,0.578c-0.344,0.149-0.608,0.315-0.818,0.473C30.425,27.206,30.414,27.007,30.402,26.693z"/>
</g>
</svg>
