<?xml version="1.0" encoding="utf-8"?>
<!-- Generator: Adobe Illustrator 16.0.0, SVG Export Plug-In . SVG Version: 6.00 Build 0)  -->
<!DOCTYPE svg PUBLIC "-//W3C//DTD SVG 1.1//EN" "http://www.w3.org/Graphics/SVG/1.1/DTD/svg11.dtd">
<svg version="1.1" id="Capa_1" xmlns="http://www.w3.org/2000/svg" xmlns:xlink="http://www.w3.org/1999/xlink" x="0px" y="0px"
	 width="75px" height="51.5px" viewBox="0 0 75 51.5" enable-background="new 0 0 75 51.5" xml:space="preserve">
<g>
	<ellipse fill="#313D4D" cx="37.59" cy="23.97" rx="5.989" ry="7.529"/>
	<path fill="#313D4D" d="M47.343,20.615l-7.691,1.459c-1.283,0.145-2.578,0.145-3.861,0l-7.909-1.459
		c-0.22,0-0.397-0.174-0.397-0.389v-0.197c0-0.214,0.178-0.388,0.397-0.388h19.461c0.22,0,0.398,0.174,0.398,0.388v0.197
		C47.741,20.441,47.563,20.615,47.343,20.615z"/>
	<path fill="#313D4D" d="M37.335,8.314h0.137c0.222,0.002,0.267,0.166,0.265,0.417l0.37,7.682c0.003,0.052-0.001,0.104-0.017,0.153
		c-0.103,0.342-0.493,0.616-0.696,0.614l-0.067-0.001c-0.221-0.002-0.602-0.443-0.6-0.695l0.294-7.712
		C37.024,8.521,37.114,8.312,37.335,8.314z"/>
	<rect x="25.582" y="24.308" fill="#313D4D" width="0.888" height="2.35"/>
	<ellipse fill="#313D4D" cx="26.026" cy="27.341" rx="1.207" ry="1.332"/>
	<rect x="48.08" y="24.76" fill="#313D4D" width="0.889" height="2.349"/>
	<ellipse fill="#313D4D" cx="48.525" cy="27.64" rx="1.207" ry="1.332"/>
	<ellipse fill="#EDF8FE" cx="26.026" cy="27.341" rx="0.515" ry="0.569"/>
	<ellipse fill="#EDF8FE" cx="48.524" cy="27.586" rx="0.515" ry="0.568"/>
	<path fill="#313D4D" d="M56.469,21.533L37.61,23.987l0.49,4.591c1.325-0.164,2.641-0.4,3.943-0.709l14.613-4.575
		c0.425-0.056,0.736-0.415,0.695-0.802l-0.038-0.356C57.273,21.748,56.895,21.479,56.469,21.533z"/>
	<path fill="#313D4D" d="M18.757,21.533c-0.426-0.055-0.805,0.213-0.846,0.601l-0.039,0.356c-0.041,0.388,0.27,0.747,0.695,0.803
		l15.034,4.634c1.154,0.274,2.321,0.491,3.493,0.651l0.491-4.591L18.757,21.533z"/>
	<ellipse fill="#EDF8FE" cx="37.612" cy="27.319" rx="1.225" ry="0.799"/>
	<path fill="#EDF8FE" d="M34.378,22.528l-1.559-0.859c-0.164-0.06-0.315,0.091-0.315,0.3l0.007,0.016
		c0,1.774,1.186,3.228,2.641,3.228h1.862v-2.204C37.014,23.041,35.201,22.891,34.378,22.528z"/>
	<path fill="#EDF8FE" d="M40.939,22.528l1.593-0.859c0.165-0.06,0.333,0.091,0.333,0.3l0.001,0.016c0,1.774-1.178,3.228-2.633,3.228
		h-1.996v-2.204C38.237,23.041,40.117,22.891,40.939,22.528z"/>
</g>
<path fill="#5454E2" d="M67.789,39.801c0,1.174-1.509,2.125-3.37,2.125H20.801c-1.861,0-3.371-0.952-3.371-2.125l0,0
	c0-1.174,1.509-2.125,3.371-2.125h43.617C66.28,37.676,67.789,38.627,67.789,39.801L67.789,39.801z"/>
<g>
	<polygon fill="#EEF0EF" points="61.748,27.785 61.748,28.318 56.969,28.318 56.969,27.801 56.972,27.762 56.979,27.718 
		58.181,23.495 60.533,23.495 61.758,27.766 61.754,27.78 	"/>
	<path fill="#343D50" d="M60.533,23.515h-2.352l1.037-3.637c0.049-0.173,0.226-0.173,0.275,0L60.533,23.515z"/>
	<path fill="#F59326" d="M57.447,28.351v0.002v8.521l-0.007,0.876c-0.009-0.003-0.021-0.006-0.03-0.01
		c-0.149-0.057-0.29-0.121-0.435-0.191c-0.004-0.001-0.006-0.003-0.006-0.005V27.85c0-0.014-0.005-0.028-0.002-0.042l0.002-0.021
		V27.78l-0.001-0.001l0.02-0.037c0.031-0.055,0.088-0.056,0.12-0.001l0.309,0.537c0.008,0.015,0.021,0.033,0.023,0.051
		C57.44,28.336,57.447,28.343,57.447,28.351z"/>
	<path fill="#FCB53C" d="M58.186,28.353v9.627c0-0.006-0.048-0.012-0.076-0.019c-0.045-0.011-0.087-0.022-0.132-0.035
		c-0.045-0.012-0.088-0.024-0.133-0.037c0,0,0.007,0,0.007,0c-0.139-0.041-0.274-0.087-0.405-0.139v-0.876v-8.521v-0.002
		c0-0.007-0.007-0.014-0.006-0.021c0.003-0.019,0.006-0.036,0.014-0.051l0.306-0.537c0.032-0.055,0.088-0.055,0.12,0l0.305,0.537
		c0.012,0.021,0.009,0.046,0.009,0.073C58.194,28.352,58.186,28.352,58.186,28.353z"/>
	<path fill="#F59326" d="M58.968,28.351v9.742c-0.087-0.006-0.182-0.016-0.273-0.027c-0.147-0.018-0.294-0.043-0.439-0.073
		c0,0-0.009,0-0.009,0c-0.018-0.004-0.017-0.008-0.061-0.012v-9.627c0,0,0.008-0.001,0.008-0.002c0-0.026,0.012-0.052,0.023-0.073
		l0.31-0.537c0.031-0.055,0.09-0.055,0.121,0l0.304,0.537C58.963,28.298,58.968,28.324,58.968,28.351z"/>
	<path fill="#FCB53C" d="M59.75,28.353v9.74c-0.087,0.004-0.114,0.007-0.17,0.01c-0.073,0.003-0.148,0.004-0.222,0.004
		s-0.148-0.001-0.221-0.004c-0.057-0.002-0.125-0.006-0.169-0.01v-9.742c0-0.026,0.01-0.052,0.022-0.073l0.309-0.537
		c0.031-0.055,0.089-0.055,0.12,0l0.307,0.537c0.012,0.021,0.021,0.046,0.021,0.073C59.748,28.352,59.75,28.352,59.75,28.353z"/>
	<path fill="#F59326" d="M60.531,28.351v9.63c-0.043,0.004-0.045,0.007-0.063,0.011c-0.146,0.031-0.295,0.056-0.443,0.074
		c-0.091,0.011-0.188,0.021-0.275,0.027v-9.74c0,0-0.002-0.001-0.002-0.002c0-0.027,0.006-0.053,0.017-0.073l0.305-0.535
		c0.032-0.056,0.09-0.056,0.122,0l0.313,0.535C60.517,28.298,60.531,28.324,60.531,28.351z"/>
	<path fill="#FCB53C" d="M61.271,28.353v9.396c-0.174,0.069-0.35,0.129-0.537,0.179c-0.073,0.02-0.158,0.038-0.202,0.054v-9.628
		c0,0-0.01-0.001-0.01-0.002c0-0.026,0.004-0.052,0.016-0.073l0.306-0.538c0.03-0.055,0.087-0.055,0.117,0l0.307,0.538
		c0.01,0.017,0.018,0.036,0.02,0.057v0c0,0.005,0.002,0.01,0.002,0.015c0,0-0.009,0.001-0.009,0.001L61.271,28.353z"/>
	<path fill="#F59326" d="M61.271,37.748v-9.396l0.009,0c0,0,0.004-0.001,0.004-0.001c-0.001-0.001-0.008-0.003-0.008-0.004
		c0.001-0.003-0.005-0.007-0.005-0.011v0c0-0.021,0.016-0.042,0.025-0.058l0.309-0.534c0.032-0.056,0.093-0.056,0.125,0l0.022,0.041
		l0.005,0.011c0,0,0.002,0.004,0.003,0.008c0.001,0.002,0.002,0.004,0.002,0.005c0,0.002-0.008,4.767-0.008,9.734
		C61.598,37.619,61.444,37.687,61.271,37.748z"/>
</g>
</svg>
