<?xml version="1.0" encoding="utf-8"?>
<!-- Generator: Adobe Illustrator 16.0.0, SVG Export Plug-In . SVG Version: 6.00 Build 0)  -->
<!DOCTYPE svg PUBLIC "-//W3C//DTD SVG 1.1//EN" "http://www.w3.org/Graphics/SVG/1.1/DTD/svg11.dtd">
<svg version="1.1" id="Capa_1" xmlns="http://www.w3.org/2000/svg" xmlns:xlink="http://www.w3.org/1999/xlink" x="0px" y="0px"
	 width="58px" height="48.667px" viewBox="0 0 58 48.667" enable-background="new 0 0 58 48.667" xml:space="preserve">
<g>
	<path fill="#3F4C51" d="M11.414,9.454C11.315,9.5,11.272,9.6,11.316,9.678l10.109,17.789c0.045,0.078,0.161,0.105,0.259,0.059l0,0
		c0.098-0.045,0.142-0.146,0.098-0.224L11.673,9.513C11.628,9.435,11.513,9.408,11.414,9.454L11.414,9.454z"/>
	<path fill="#3F4C51" d="M11.026,31.243h4.388v-2.438c0-0.547,0.492-0.991,1.099-0.991s1.099,0.444,1.099,0.991v2.438h3.808
		c1.034,0,1.871,0.755,1.871,1.688c0,0.045-0.002,0.089-0.006,0.134H9.161c-0.004-0.044-0.007-0.089-0.007-0.134
		C9.154,31.998,9.992,31.243,11.026,31.243z"/>
	<path fill="#3F4C51" d="M11.539,8.818L11.54,8.82c0.115-0.047,0.243-0.073,0.377-0.073c0.503,0,0.911,0.368,0.911,0.821
		c0,0.336-0.224,0.625-0.544,0.751c-4.867,2.289-6.789,7.691-4.292,12.111c2.489,4.403,8.431,6.177,13.333,4.006
		c0.142-0.082,0.311-0.129,0.492-0.129c0.506,0,0.917,0.37,0.917,0.827c0,0.362-0.258,0.669-0.617,0.781
		C16.326,30.474,9.31,28.377,6.37,23.177C3.401,17.924,5.715,11.496,11.539,8.818z"/>
	<path fill="#34495E" d="M7.615,18.28c0,0.635,0.078,1.253,0.224,1.847c0.174,0.706,0.445,1.378,0.8,2.005
		c0.57,1.005,1.355,1.894,2.301,2.618c0.023,0.018,0.048,0.036,0.072,0.054c0.401,0.301,0.831,0.572,1.284,0.811
		c1.387,0.728,3,1.145,4.722,1.145c1.641,0,3.184-0.379,4.527-1.046c0.067-0.033,0.134-0.068,0.201-0.103
		c2.455-1.291,4.203-3.556,4.592-6.208c0.054-0.368,0.082-0.743,0.082-1.124c0-0.632-0.077-1.248-0.222-1.84
		c-0.005-0.024-0.012-0.048-0.018-0.072c-0.073-0.286-0.163-0.566-0.267-0.84c-0.026-0.069-0.053-0.137-0.081-0.205
		c-0.252-0.61-0.579-1.186-0.971-1.72c-0.112-0.153-0.23-0.303-0.354-0.448c-0.381-0.453-0.811-0.869-1.283-1.244
		c-0.033-0.026-0.066-0.052-0.1-0.078c-0.115-0.089-0.234-0.176-0.354-0.26c-0.855-0.599-1.828-1.066-2.882-1.371
		c-0.033-0.009-0.066-0.019-0.099-0.028C18.915,9.931,17.983,9.8,17.018,9.8c-0.215,0-0.43,0.006-0.642,0.02
		c-0.247,0.015-0.491,0.038-0.732,0.07c-0.862,0.114-1.685,0.333-2.454,0.643c-0.049,0.02-0.098,0.04-0.147,0.061
		c-2.398,1.01-4.245,2.906-5.024,5.222c-0.118,0.35-0.211,0.709-0.278,1.077c-0.005,0.03-0.011,0.06-0.016,0.09
		C7.653,17.405,7.615,17.839,7.615,18.28z"/>
	<g>
		<path fill="#88BA41" d="M8.019,15.815c0.779-2.316,2.625-4.212,5.024-5.222c0.328-0.012,0.651,0.042,0.944,0.241
			c0.447,0.302,0.284,0.868,0.31,1.308c0.575,0.025,1.573-0.224,1.919,0.25c0.108,0.147,0.136,0.286,0.292,0.424
			c0.162,0.143,0.263,0.229,0.405,0.403c0.085,0.105,0.123,0.188,0.255,0.216c0.122,0.491-1.01,0.264-1.336,0.264
			c-0.336,0-0.926,0.152-1.219,0.028c-0.17-0.072-0.2-0.338-0.35-0.377c-0.214-0.056-0.296,0.24-0.385,0.347
			c-0.197,0.237-0.372,0.31-0.686,0.324c-0.224,0.01-0.461-0.029-0.683,0c-0.161,0.021-0.265,0.104-0.394,0.153
			c0.151,0.067,0.234,0.27,0.416,0.322c0.266,0.078,0.673,0.053,0.95,0.062c0.375,0.013,0.34-0.159,0.578-0.341
			c0.273-0.209,0.458-0.206,0.817-0.221c0.569-0.024,1.632-0.116,2.093,0.214c0.225,0.161,0.146,0.397,0.357,0.555
			c0.349,0.259,1.02,0.203,1.262,0.569c0.213,0.322,0.049,0.991-0.001,1.317c-0.074,0.482-0.063,0.902-0.613,1.094
			c-0.513,0.177-1.153,0.208-1.688,0.3c-0.293,0.05-0.655,0-0.75,0.286c-0.047,0.14,0.003,0.336-0.029,0.484
			c-0.07,0.316-0.316,0.458-0.565,0.672c-0.259,0.223-0.235,0.363-0.235,0.715c0,0.512-0.053,0.8-0.269,1.265
			c-0.094,0.2-0.147,0.439-0.147,0.669c0,0.395,0.124,0.708,0.445,0.931c0.393,0.273,0.774,0.588,0.5,1.02
			c-0.33,0.216-1.016,0.055-1.322-0.123c-0.525-0.304-0.927-0.482-1.553-0.597c-1.122-0.205-0.47-1.184-0.867-1.871
			c-0.117-0.202-0.354-0.303-0.469-0.491c-0.14-0.228-0.15-0.522-0.149-0.777c0.002-0.45,0.088-0.883,0.089-1.332
			c0-0.417-0.118-0.381-0.416-0.569c-0.348-0.219-0.295-0.538-0.297-0.914c0-0.103-0.001-0.207,0.005-0.308
			c0.215-0.075,0.42-0.14,0.644-0.212c0.13-0.042,0.438-0.091,0.534-0.172c0.298-0.254,0.422-1.086,0.387-1.438
			c-0.729-0.146-0.631,1.096-1.353,1.122c-0.801,0.028-0.87-0.409-0.835-0.987c0.542-0.026,0.676-0.018,0.645-0.563
			c-0.273-0.042-0.516,0.132-0.716,0.265c-0.136,0.09-0.349,0.13-0.47,0.219C8.793,15.56,8.963,16,8.704,16.267
			c-0.124,0.025-0.208,0.102-0.237,0.213c-0.282,0.14-0.43,0.612-0.681,0.827c-0.004-0.139-0.024-0.276-0.045-0.414
			C7.808,16.525,7.901,16.166,8.019,15.815z"/>
		<path fill="#88BA41" d="M21.186,24.462c-0.068-0.399,0.454-0.635,0.5-0.986c0.057-0.421-0.377-0.649-0.514-0.986
			c-0.077-0.188-0.021-0.465-0.055-0.671c-0.27-0.042-0.367-0.078-0.558-0.25c-0.229-0.206-0.399-0.227-0.665-0.368
			c-0.468-0.25-0.754-0.622-0.698-1.134c0.058-0.52,0.255-1.18,0.821-1.412c0.275-0.113,0.366-0.017,0.457-0.282
			c0.058-0.17,0.016-0.371,0.057-0.544c0.303-0.173,0.644-0.385,0.975-0.543c0.335-0.16,0.774-0.423,1.168-0.474
			c0.197-0.025,0.361-0.008,0.528,0.053c0.053,0.02,0.041,0.105,0.115,0.129c0.083,0.027,0.251-0.008,0.332-0.027
			c0.417-0.103,0.998-0.54,1.097-0.91c0.034-0.122,0.002-0.259,0.063-0.377c0.044-0.086,0.167-0.145,0.231-0.235
			c0.136-0.193,0.221-0.479-0.113-0.595c-0.297-0.103-0.382,0.097-0.627,0.168c-0.342,0.101-0.695-0.037-1.006-0.146
			c-0.014-0.239-0.311-0.533-0.496-0.683c-0.253-0.205-0.571-0.322-0.843-0.496c-0.181-0.115-0.343-0.25-0.537-0.343
			c-0.302-0.145-1.573-0.328-1.118-0.824c0.17-0.186,0.475-0.293,0.621-0.536c0.056-0.092,0.065-0.179,0.11-0.275
			c0.191-0.404,0.474-0.35,0.899-0.22c0.378,0.115,0.513,0.444,0.973,0.382c0.078-0.011,0.15-0.027,0.22-0.045
			c0.033,0.026,0.066,0.052,0.1,0.078c0.472,0.375,0.902,0.792,1.283,1.244c0.123,0.146,0.241,0.295,0.354,0.448
			c0.392,0.534,0.719,1.11,0.971,1.72c0.027,0.068,0.055,0.136,0.081,0.205c0.104,0.274,0.194,0.554,0.267,0.84
			c0.006,0.024,0.012,0.048,0.018,0.072c-0.189,0.063-0.354-0.161-0.585-0.056c-0.243,0.11-0.279,0.592-0.505,0.778
			c-0.356,0.294-1.009-0.009-1.278,0.454c-0.369,0.636,0.257,1.807-0.421,2.29c-0.283,0.202-0.358,0.12-0.32,0.527
			c0.033,0.354,0.098,0.701,0.001,1.046c-0.105,0.371-0.39,0.616-0.424,1.003c-0.029,0.328-0.056,0.497-0.235,0.777
			c-0.195,0.306-0.387,0.596-0.559,0.913C21.678,24.53,21.613,24.472,21.186,24.462z"/>
		<path fill="#88BA41" d="M19.794,11.639c-0.162,0.238-0.788,0.383-1.075,0.239c-0.265-0.133-0.317-0.425-0.716-0.517
			c-0.309-0.072-0.965,0.06-1.182-0.18c-0.188-0.208,0.077-0.592-0.13-0.771c-0.163-0.14-0.525-0.016-0.715-0.137
			c-0.055-0.035-0.292-0.303-0.319-0.358c-0.004-0.009-0.009-0.017-0.013-0.025c0.241-0.032,0.485-0.056,0.732-0.07
			c0.212-0.013,0.427-0.02,0.642-0.02c0.965,0,1.897,0.131,2.773,0.375c0.033,0.009,0.066,0.019,0.099,0.028
			c-0.054,0.091-0.109,0.184-0.135,0.308C19.675,10.89,20.053,11.259,19.794,11.639z"/>
		<path fill="#88BA41" d="M14.174,25.03c0.38,0.051,0.754,0.023,1.125-0.026c0.374-0.05,1.019-0.106,1.364,0.045
			c0.22,0.097,0.23,0.333,0.428,0.455c0.18,0.112,0.511,0.063,0.73,0.119c0.016,0.177-0.116,0.307-0.08,0.5
			c0.643,0.03,1.488,0.077,2.032-0.266c0.519-0.327-0.011-0.643,0.159-1.07c0.119-0.299,0.393-0.313,0.662-0.18
			c0.313,0.155,0.396,0.443,0.588,0.665c0.126,0.146,0.439,0.099,0.535,0.266c0.014,0.024,0.023,0.049,0.028,0.074
			c-0.067,0.035-0.134,0.069-0.201,0.103c-1.343,0.667-2.886,1.046-4.527,1.046c-1.721,0-3.334-0.417-4.722-1.145
			c-0.454-0.238-0.883-0.51-1.284-0.811c0.084-0.047,0.194-0.057,0.34-0.071C12.312,24.648,13.255,24.906,14.174,25.03z"/>
	</g>
</g>
<g>
	<ellipse fill="#FFFFFF" cx="38.066" cy="15.76" rx="9.699" ry="9.66"/>
	<path fill="#C92D2D" d="M38.066,6.101c5.357,0,9.699,4.325,9.699,9.66c0,5.334-4.342,9.66-9.699,9.66
		c-5.356,0-9.699-4.326-9.699-9.66C28.367,10.426,32.71,6.101,38.066,6.101 M38.066,5.252c-0.715,0-1.431,0.072-2.126,0.213
		c-0.677,0.139-1.345,0.344-1.981,0.612c-0.625,0.264-1.229,0.59-1.792,0.97c-0.559,0.375-1.084,0.807-1.561,1.282
		c-0.478,0.475-0.911,0.998-1.288,1.555c-0.381,0.562-0.709,1.163-0.974,1.786c-0.269,0.634-0.476,1.298-0.615,1.974
		c-0.142,0.692-0.214,1.404-0.214,2.117c0,0.713,0.072,1.424,0.214,2.117c0.139,0.675,0.346,1.338,0.615,1.974
		c0.265,0.623,0.592,1.224,0.974,1.785c0.377,0.556,0.81,1.079,1.288,1.555c0.477,0.475,1.002,0.907,1.561,1.283
		c0.563,0.379,1.167,0.706,1.792,0.968c0.637,0.269,1.304,0.475,1.981,0.613c0.695,0.143,1.411,0.214,2.126,0.214
		c0.715,0,1.431-0.071,2.125-0.214c0.678-0.137,1.346-0.344,1.982-0.613c0.625-0.263,1.229-0.589,1.792-0.968
		c0.559-0.376,1.084-0.808,1.561-1.283c0.478-0.476,0.911-0.999,1.288-1.555c0.381-0.562,0.708-1.163,0.973-1.785
		c0.27-0.635,0.477-1.298,0.616-1.974c0.142-0.693,0.214-1.404,0.214-2.117c0-0.712-0.072-1.425-0.214-2.117
		c-0.139-0.675-0.346-1.339-0.616-1.974c-0.264-0.623-0.592-1.224-0.973-1.786c-0.377-0.557-0.81-1.08-1.288-1.555
		c-0.477-0.475-1.002-0.907-1.561-1.282c-0.564-0.38-1.167-0.706-1.792-0.97c-0.637-0.268-1.304-0.474-1.982-0.612
		C39.497,5.324,38.781,5.252,38.066,5.252L38.066,5.252z"/>
	
		<rect x="39.213" y="15.638" transform="matrix(0.8668 -0.4987 0.4987 0.8668 -3.9169 22.1127)" fill="#19334B" width="0.434" height="5.499"/>
	<path fill="#19334B" d="M38.079,15.214L38.079,15.214L38.079,15.214c-0.001-0.001-0.001-0.002-0.003-0.003l-3.223-3.323
		c-0.089-0.109-0.227-0.18-0.378-0.18c-0.271,0-0.491,0.218-0.491,0.488c0,0.142,0.062,0.27,0.158,0.359l3.234,3.335
		c0.007,0.008,0.016,0.014,0.026,0.02c0.087,0.08,0.202,0.129,0.33,0.129c0.27,0,0.486-0.218,0.486-0.485
		C38.219,15.421,38.165,15.302,38.079,15.214z"/>
	<path fill="#19334B" d="M42.9,14.771L42.9,14.771h-0.001c0,0-0.002,0-0.003,0l-4.188,0.521c-0.129,0.005-0.255,0.065-0.338,0.176
		c-0.147,0.196-0.106,0.474,0.092,0.621c0.104,0.078,0.23,0.104,0.349,0.082l4.204-0.522c0.009-0.001,0.019-0.004,0.028-0.008
		c0.106-0.019,0.205-0.077,0.275-0.169c0.146-0.194,0.105-0.471-0.091-0.617C43.128,14.783,43.011,14.756,42.9,14.771z"/>
	<circle fill="#FDFEFE" cx="38.219" cy="15.892" r="0.562"/>
	<path fill="#19334B" d="M38.226,8.912L38.226,8.912c-0.136,0-0.248-0.111-0.248-0.247V7.203c0-0.136,0.112-0.247,0.248-0.247l0,0
		c0.137,0,0.249,0.111,0.249,0.247v1.462C38.475,8.801,38.363,8.912,38.226,8.912z"/>
	<path fill="#19334B" d="M43.081,11.037L43.081,11.037c-0.096-0.096-0.097-0.253,0-0.35l1.037-1.034
		c0.097-0.096,0.254-0.096,0.352,0l0,0c0.096,0.096,0.096,0.253,0,0.35l-1.038,1.035C43.335,11.133,43.177,11.133,43.081,11.037z"/>
	<path fill="#19334B" d="M44.983,15.893L44.983,15.893c0-0.136,0.111-0.247,0.248-0.247l1.468-0.002
		c0.137,0,0.248,0.112,0.248,0.248l0,0c0,0.136-0.111,0.247-0.247,0.247l-1.469,0.002C45.095,16.14,44.983,16.029,44.983,15.893z"/>
	<path fill="#19334B" d="M42.964,20.575L42.964,20.575c0.097-0.096,0.254-0.097,0.352-0.001l1.039,1.033
		c0.097,0.096,0.097,0.253,0,0.35l0,0c-0.096,0.096-0.254,0.096-0.351,0l-1.04-1.032C42.868,20.829,42.868,20.671,42.964,20.575z"/>
	<path fill="#19334B" d="M38.241,22.629L38.241,22.629c0.137,0,0.249,0.111,0.249,0.247l0.003,1.462
		c0,0.136-0.111,0.247-0.248,0.248l0,0c-0.137,0-0.249-0.111-0.249-0.247l-0.003-1.462C37.993,22.741,38.104,22.63,38.241,22.629z"
		/>
	<path fill="#19334B" d="M33.365,20.768L33.365,20.768c0.096,0.096,0.096,0.253,0,0.349l-1.036,1.037
		c-0.096,0.097-0.254,0.097-0.351,0.001l0,0c-0.097-0.096-0.097-0.253,0-0.349l1.035-1.037
		C33.109,20.672,33.268,20.672,33.365,20.768z"/>
	<path fill="#19334B" d="M31.238,15.922L31.238,15.922c0.001,0.136-0.111,0.248-0.247,0.248l-1.468,0.005
		c-0.136,0-0.248-0.111-0.249-0.247l0,0c0-0.136,0.111-0.248,0.248-0.248l1.468-0.004C31.126,15.675,31.238,15.786,31.238,15.922z"
		/>
	<path fill="#19334B" d="M33.247,10.977L33.247,10.977c-0.097,0.096-0.254,0.097-0.351,0.001l-1.042-1.03
		c-0.097-0.096-0.098-0.253-0.001-0.35l0,0c0.096-0.096,0.254-0.097,0.351-0.001l1.042,1.03
		C33.342,10.723,33.342,10.88,33.247,10.977z"/>
</g>
<path fill="#5454E2" d="M54.099,35.205c0,1.174-1.509,2.125-3.371,2.125H7.111c-1.861,0-3.371-0.951-3.371-2.125l0,0
	c0-1.174,1.509-2.125,3.371-2.125h43.617C52.589,33.08,54.099,34.031,54.099,35.205L54.099,35.205z"/>
</svg>
